<svg version="1.1" xmlns="http://www.w3.org/2000/svg" xmlns:xlink="http://www.w3.org/1999/xlink" width="112.63695" height="84.87293" viewBox="0,0,112.63695,84.87293"><g transform="translate(-183.62128,-137.43854)"><g data-paper-data="{&quot;isPaintingLayer&quot;:true}" fill-rule="nonzero" stroke-width="0.5" stroke-linejoin="miter" stroke-miterlimit="10" stroke-dasharray="" stroke-dashoffset="0" style="mix-blend-mode: normal"><path d="M288.37828,222.31146v-78.72707h7.86115v78.72707z" fill="#b97400" stroke="none" stroke-linecap="butt"></path><path d="M183.87128,221.38662v-78.38025h6.47388v78.38025z" fill="#b97400" stroke="none" stroke-linecap="butt"></path><path d="M183.87128,143.8156v-5.78026h111.67452v5.78026z" fill="#b4b4b4" stroke="#000000" stroke-linecap="butt"></path><path d="M184.3337,221.15541v-5.78026h111.67452v5.78026z" fill="#b6b6b6" stroke="#000000" stroke-linecap="butt"></path><path d="M291.61523,214.45032l0.23121,6.12707" fill="none" stroke="#000000" stroke-linecap="round"></path><path d="M295.6614,218.03407l-4.27739,0.11561" fill="none" stroke="#000000" stroke-linecap="round"></path><path d="M189.42033,137.68854l0.23121,6.01147" fill="none" stroke="#000000" stroke-linecap="round"></path><path d="M189.88274,140.69427h-5.54904" fill="none" stroke="#000000" stroke-linecap="round"></path><path d="M190.34517,215.25956l-0.11561,5.20223" fill="none" stroke="#000000" stroke-linecap="round"></path><path d="M190.22956,218.14968l-5.54904,0.11561" fill="none" stroke="#000000" stroke-linecap="round"></path><path d="M291.15281,137.80414l0.23121,5.66465" fill="none" stroke="#000000" stroke-linecap="round"></path><path d="M291.38402,140.23185l4.16178,-0.11561" fill="none" stroke="#000000" stroke-linecap="round"></path><path d="M197.30473,221.30307v-6.24267h9.71082v6.24267z" fill="#000000" stroke="none" stroke-linecap="butt"></path><path d="M184.06533,170.73372l6.4606,0.18923l-0.30477,9.70637l-6.4606,-0.18923z" fill="#000000" stroke="none" stroke-linecap="butt"></path></g></g></svg>