<svg version="1.1" xmlns="http://www.w3.org/2000/svg" xmlns:xlink="http://www.w3.org/1999/xlink" width="112.05327" height="48.28389" viewBox="0,0,112.05327,48.28389"><g transform="translate(-183.76632,-153.20335)"><g data-paper-data="{&quot;isPaintingLayer&quot;:true}" fill-rule="nonzero" stroke="none" stroke-linecap="butt" stroke-linejoin="miter" stroke-miterlimit="10" stroke-dasharray="" stroke-dashoffset="0" style="mix-blend-mode: normal"><path d="M185.53266,189.23794v-23.03528h1.70632v23.03528z" fill="#909090" stroke-width="0"></path><path d="M185.6981,192.81601v-7.39404h107.64016v7.39404z" fill-opacity="0.02419" fill="#ffffff" stroke-width="0"></path><path d="M185.53266,168.90433v-5.97211h107.64016v5.97211z" fill-opacity="0.02419" fill="#ffffff" stroke-width="0"></path><path d="M184.83786,189.82507c0,-2.45276 0.94185,-4.44111 2.10369,-4.44111c1.16183,0 2.10368,1.98835 2.10368,4.44111c0,2.45276 -0.94185,4.44112 -2.10368,4.44112c-1.16183,0 -2.10369,-1.98836 -2.10369,-4.44112z" data-paper-data="{&quot;index&quot;:null}" fill="#9f9ca6" stroke-width="0"></path><path d="M185.91517,189.96742c0,-1.29093 2.40696,-2.33743 5.37609,-2.33743c2.96913,0 5.37609,1.0465 5.37609,2.33743c0,1.29093 -2.40696,2.33743 -5.37609,2.33743c-2.96913,0 -5.37609,-1.0465 -5.37609,-2.33743z" data-paper-data="{&quot;index&quot;:null}" fill="#cbcbcb" stroke-width="0"></path><path d="M195.02531,189.0305c0.57152,-1.71455 2.92114,-2.4757 5.24804,-1.70007c2.32689,0.77563 3.74991,2.79432 3.17839,4.50888c-0.57152,1.71455 -2.92114,2.4757 -5.24804,1.70007c-2.32689,-0.77563 -3.74991,-2.79432 -3.17839,-4.50888z" data-paper-data="{&quot;index&quot;:null}" fill="#3d3d3d" stroke-width="0"></path><path d="M203.33842,191.33762c-1.06326,-0.94124 -1.19685,-2.52703 -0.29839,-3.54196c0.89846,-1.01493 2.48875,-1.07466 3.552,-0.13342c1.06326,0.94124 1.19685,2.52703 0.29839,3.54196c-0.89846,1.01493 -2.48875,1.07466 -3.552,0.13342z" data-paper-data="{&quot;index&quot;:null}" fill="#b6b6b6" stroke-width="0"></path><path d="M206.34244,190.32478c0.27385,-1.55398 4.53619,-2.34583 9.5202,-1.76863c4.98401,0.57719 8.80236,2.30485 8.52851,3.85884c-0.27385,1.55398 -4.53619,2.34583 -9.5202,1.76863c-4.98401,-0.57719 -8.80236,-2.30485 -8.52851,-3.85884z" data-paper-data="{&quot;index&quot;:null}" fill="#898989" stroke-width="0"></path><path d="M220.39369,190.77341c-0.33385,-1.11284 0.59835,-2.37582 2.08213,-2.82095c1.48378,-0.44513 2.95726,0.09614 3.29111,1.20898c0.33385,1.11284 -0.59835,2.37582 -2.08213,2.82095c-1.48378,0.44513 -2.95726,-0.09614 -3.29111,-1.20898z" data-paper-data="{&quot;index&quot;:null}" fill="#e3e3e3" stroke-width="0"></path><path d="M231.72881,191.48675c0,-1.87184 1.98836,-3.38927 4.44112,-3.38927c2.45276,0 4.44112,1.51743 4.44112,3.38927c0,1.87184 -1.98836,3.38927 -4.44112,3.38927c-2.45276,0 -4.44112,-1.51743 -4.44112,-3.38927z" data-paper-data="{&quot;index&quot;:null}" fill="#7e7e7e" stroke-width="0"></path><path d="M224.97287,190.39074c-0.16503,-1.5403 1.47011,-2.97848 3.6522,-3.21228c2.18209,-0.2338 4.0848,0.82533 4.24983,2.36563c0.16503,1.5403 -1.47011,2.97848 -3.6522,3.21228c-2.18209,0.2338 -4.0848,-0.82533 -4.24983,-2.36563z" data-paper-data="{&quot;index&quot;:null}" fill="#b6b6b6" stroke-width="0"></path><path d="M240.00121,190.5263c0,-1.29093 2.40696,-2.33743 5.37609,-2.33743c2.96913,0 5.37609,1.0465 5.37609,2.33743c0,1.29093 -2.40696,2.33743 -5.37609,2.33743c-2.96913,0 -5.37609,-1.0465 -5.37609,-2.33743z" data-paper-data="{&quot;index&quot;:null}" fill="#cbcbcb" stroke-width="0"></path><path d="M249.11135,189.58938c0.57152,-1.71455 2.92114,-2.4757 5.24804,-1.70007c2.32689,0.77563 3.74991,2.79432 3.17839,4.50888c-0.57152,1.71455 -2.92114,2.4757 -5.24804,1.70007c-2.32689,-0.77563 -3.74991,-2.79432 -3.17839,-4.50888z" data-paper-data="{&quot;index&quot;:null}" fill="#3d3d3d" stroke-width="0"></path><path d="M257.42446,191.8965c-1.06326,-0.94124 -1.19685,-2.52703 -0.29839,-3.54196c0.89846,-1.01493 2.48875,-1.07466 3.552,-0.13342c1.06326,0.94124 1.19685,2.52703 0.29839,3.54196c-0.89846,1.01493 -2.48875,1.07466 -3.552,0.13342z" data-paper-data="{&quot;index&quot;:null}" fill="#b6b6b6" stroke-width="0"></path><path d="M260.42848,190.88366c0.27385,-1.55398 4.53619,-2.34583 9.5202,-1.76863c4.98401,0.57719 8.80236,2.30485 8.52851,3.85884c-0.27385,1.55398 -4.53619,2.34583 -9.5202,1.76863c-4.98401,-0.57719 -8.80236,-2.30485 -8.52851,-3.85884z" data-paper-data="{&quot;index&quot;:null}" fill="#898989" stroke-width="0"></path><path d="M274.47973,191.33229c-0.33385,-1.11284 0.59835,-2.37582 2.08213,-2.82095c1.48378,-0.44513 2.95726,0.09614 3.29111,1.20898c0.33385,1.11284 -0.59835,2.37582 -2.08213,2.82095c-1.48378,0.44513 -2.95726,-0.09614 -3.29111,-1.20898z" data-paper-data="{&quot;index&quot;:null}" fill="#e3e3e3" stroke-width="0"></path><path d="M285.81485,192.04563c0,-1.87184 1.98836,-3.38927 4.44112,-3.38927c2.45276,0 4.44112,1.51743 4.44112,3.38927c0,1.87184 -1.98836,3.38927 -4.44112,3.38927c-2.45276,0 -4.44112,-1.51743 -4.44112,-3.38927z" data-paper-data="{&quot;index&quot;:null}" fill="#7e7e7e" stroke-width="0"></path><path d="M279.05891,190.94962c-0.16503,-1.5403 1.47011,-2.97848 3.6522,-3.21228c2.18209,-0.2338 4.0848,0.82533 4.24983,2.36563c0.16503,1.5403 -1.47011,2.97848 -3.6522,3.21228c-2.18209,0.2338 -4.0848,-0.82533 -4.24983,-2.36563z" data-paper-data="{&quot;index&quot;:null}" fill="#b6b6b6" stroke-width="0"></path><path d="M294.13821,165.83151c0,2.45276 -0.94185,4.44112 -2.10369,4.44112c-1.16183,0 -2.10369,-1.98836 -2.10369,-4.44112c0,-2.45276 0.94185,-4.44112 2.10369,-4.44112c1.16183,0 2.10369,1.98836 2.10369,4.44112z" fill="#9f9ca6" stroke-width="0"></path><path d="M293.06089,165.68916c0,1.29093 -2.40696,2.33743 -5.37609,2.33743c-2.96913,0 -5.37609,-1.0465 -5.37609,-2.33743c0,-1.29093 2.40696,-2.33743 5.37609,-2.33743c2.96913,0 5.37609,1.0465 5.37609,2.33743z" fill="#cbcbcb" stroke-width="0"></path><path d="M283.95075,166.62608c-0.57152,1.71455 -2.92114,2.4757 -5.24804,1.70007c-2.32689,-0.77563 -3.74991,-2.79432 -3.17839,-4.50888c0.57152,-1.71455 2.92114,-2.4757 5.24804,-1.70007c2.32689,0.77563 3.74991,2.79432 3.17839,4.50888z" fill="#3d3d3d" stroke-width="0"></path><path d="M275.63764,164.31896c1.06326,0.94124 1.19685,2.52703 0.29839,3.54196c-0.89846,1.01493 -2.48875,1.07466 -3.552,0.13342c-1.06326,-0.94124 -1.19685,-2.52703 -0.29839,-3.54196c0.89846,-1.01493 2.48875,-1.07466 3.552,-0.13342z" fill="#b6b6b6" stroke-width="0"></path><path d="M272.63362,165.3318c-0.27385,1.55398 -4.53619,2.34583 -9.5202,1.76863c-4.98401,-0.57719 -8.80236,-2.30485 -8.52851,-3.85884c0.27385,-1.55398 4.53619,-2.34583 9.5202,-1.76863c4.98401,0.57719 8.80236,2.30485 8.52851,3.85884z" fill="#898989" stroke-width="0"></path><path d="M258.58237,164.88317c0.33385,1.11284 -0.59835,2.37582 -2.08213,2.82095c-1.48378,0.44513 -2.95726,-0.09614 -3.29111,-1.20898c-0.33385,-1.11284 0.59835,-2.37582 2.08213,-2.82095c1.48378,-0.44513 2.95726,0.09614 3.29111,1.20898z" fill="#e3e3e3" stroke-width="0"></path><path d="M247.24725,164.16983c0,1.87184 -1.98836,3.38927 -4.44112,3.38927c-2.45276,0 -4.44112,-1.51743 -4.44112,-3.38927c0,-1.87184 1.98836,-3.38927 4.44112,-3.38927c2.45276,0 4.44112,1.51743 4.44112,3.38927z" fill="#7e7e7e" stroke-width="0"></path><path d="M254.00319,165.26584c0.16503,1.5403 -1.47011,2.97848 -3.6522,3.21228c-2.18209,0.2338 -4.0848,-0.82533 -4.24983,-2.36563c-0.16503,-1.5403 1.47011,-2.97848 3.6522,-3.21228c2.18209,-0.2338 4.0848,0.82533 4.24983,2.36563z" fill="#b6b6b6" stroke-width="0"></path><path d="M238.97486,165.13028c0,1.29093 -2.40696,2.33743 -5.37609,2.33743c-2.96913,0 -5.37609,-1.0465 -5.37609,-2.33743c0,-1.29093 2.40696,-2.33743 5.37609,-2.33743c2.96913,0 5.37609,1.0465 5.37609,2.33743z" fill="#cbcbcb" stroke-width="0"></path><path d="M229.86472,166.0672c-0.57152,1.71455 -2.92114,2.4757 -5.24804,1.70007c-2.32689,-0.77563 -3.74991,-2.79432 -3.17839,-4.50888c0.57152,-1.71455 2.92114,-2.4757 5.24804,-1.70007c2.32689,0.77563 3.74991,2.79432 3.17839,4.50888z" fill="#3d3d3d" stroke-width="0"></path><path d="M221.55161,163.76008c1.06326,0.94124 1.19685,2.52703 0.29839,3.54196c-0.89846,1.01493 -2.48875,1.07466 -3.552,0.13342c-1.06326,-0.94124 -1.19685,-2.52703 -0.29839,-3.54196c0.89846,-1.01493 2.48875,-1.07466 3.552,-0.13342z" fill="#b6b6b6" stroke-width="0"></path><path d="M218.54759,164.77292c-0.27385,1.55398 -4.53619,2.34583 -9.5202,1.76863c-4.98401,-0.57719 -8.80236,-2.30485 -8.52851,-3.85884c0.27385,-1.55398 4.53619,-2.34583 9.5202,-1.76863c4.98401,0.57719 8.80236,2.30485 8.52851,3.85884z" fill="#898989" stroke-width="0"></path><path d="M204.49634,164.32429c0.33385,1.11284 -0.59835,2.37582 -2.08213,2.82095c-1.48378,0.44513 -2.95726,-0.09614 -3.29111,-1.20898c-0.33385,-1.11284 0.59835,-2.37582 2.08213,-2.82095c1.48378,-0.44513 2.95726,0.09614 3.29111,1.20898z" fill="#e3e3e3" stroke-width="0"></path><path d="M193.16122,163.61095c0,1.87184 -1.98836,3.38927 -4.44112,3.38927c-2.45276,0 -4.44112,-1.51743 -4.44112,-3.38927c0,-1.87184 1.98836,-3.38927 4.44112,-3.38927c2.45276,0 4.44112,1.51743 4.44112,3.38927z" fill="#7e7e7e" stroke-width="0"></path><path d="M185.16667,197v-7.33333h108.83538v7.33333z" fill="#b8b8b8" stroke-width="0"></path><path d="M184.07199,200.98749v-4.18251h110.58727v4.18251z" fill="#757575" stroke-width="0.5"></path><path d="M293.91806,175.60087v-3.02982h1.04879v3.02982z" fill="#b7b7b7" stroke-width="0.5"></path><path d="M293.33358,201.48724v-47.04643h2.48601v47.04643z" fill="#686868" stroke-width="0.5"></path><path d="M183.76632,200.52805v-47.3247h1.91775v47.3247z" fill="#686868" stroke-width="0.5"></path><path d="M184.21663,157.20773v-3.52847h110.79222v3.52847z" fill="#686868" stroke-width="0.5"></path><path d="M185.69114,164.66667v-7.33333h107.61772v7.33333z" fill="#b8b8b8" stroke-width="0"></path><path d="M199.91716,164.84915c0.16503,1.5403 -1.47011,2.83629 -3.6522,3.07009c-2.18209,0.2338 -4.0848,-0.82533 -4.24983,-2.36563c-0.16503,-1.5403 1.47011,-2.97848 3.6522,-3.21228c2.18209,-0.2338 4.0848,0.96752 4.24983,2.50782z" fill="#b6b6b6" stroke-width="0"></path><path d="M205.58189,160.51494v-6.96746h0.71097v6.96746z" fill="#883e0f" stroke-width="0"></path><path d="M206.71943,160.79933c0,0.54972 -0.31831,0.99535 -0.71097,0.99535c-0.39266,0 -0.71097,-0.44563 -0.71097,-0.99535c0,-0.54972 0.31831,-0.99535 0.71097,-0.99535c0.39266,0 0.71097,0.44563 0.71097,0.99535z" fill="#eaba1a" stroke-width="0"></path><path d="M231.05769,160.39599v-6.96746h0.71096v6.96746z" fill="#883e0f" stroke-width="0"></path><path d="M232.19523,160.68037c0,0.54971 -0.31831,0.99535 -0.71096,0.99535c-0.39265,0 -0.71096,-0.44564 -0.71096,-0.99535c0,-0.54971 0.31831,-0.99535 0.71096,-0.99535c0.39265,0 0.71096,0.44564 0.71096,0.99535z" fill="#eaba1a" stroke-width="0"></path><path d="M256.51025,161.24915v-6.96746h0.71096v6.96746z" fill="#883e0f" stroke-width="0"></path><path d="M257.64779,161.53354c0,0.54971 -0.31831,0.99535 -0.71096,0.99535c-0.39265,0 -0.71096,-0.44564 -0.71096,-0.99535c0,-0.54971 0.31831,-0.99535 0.71096,-0.99535c0.39265,0 0.71096,0.44564 0.71096,0.99535z" fill="#eaba1a" stroke-width="0"></path><path d="M282.83921,160.98801v-6.96746h0.71096v6.96746z" fill="#883e0f" stroke-width="0"></path><path d="M283.97676,161.27239c0,0.54971 -0.31831,0.99535 -0.71096,0.99535c-0.39265,0 -0.71096,-0.44564 -0.71096,-0.99535c0,-0.54971 0.31831,-0.99535 0.71096,-0.99535c0.39265,0 0.71096,0.44564 0.71096,0.99535z" fill="#eaba1a" stroke-width="0"></path></g></g></svg>