<svg version="1.1" xmlns="http://www.w3.org/2000/svg" xmlns:xlink="http://www.w3.org/1999/xlink" width="17.58429" height="55.35862" viewBox="0,0,17.58429,55.35862"><defs><linearGradient x1="243.25019" y1="190.35075" x2="243.25019" y2="205.78262" gradientUnits="userSpaceOnUse" id="color-1"><stop offset="0" stop-color="#d8d8d8"></stop><stop offset="1" stop-color="#7a7a7a"></stop></linearGradient><linearGradient x1="237.11953" y1="190.39284" x2="237.11953" y2="205.82471" gradientUnits="userSpaceOnUse" id="color-2"><stop offset="0" stop-color="#d8d8d8"></stop><stop offset="1" stop-color="#7a7a7a"></stop></linearGradient><radialGradient cx="241.00821" cy="173.93584" r="11.50617" gradientUnits="userSpaceOnUse" id="color-3"><stop offset="0" stop-color="#dadada"></stop><stop offset="1" stop-color="#5d5d5d"></stop></radialGradient></defs><g transform="translate(-231.20786,-152.19569)"><g data-paper-data="{&quot;isPaintingLayer&quot;:true}" fill-rule="nonzero" stroke-linejoin="miter" stroke-miterlimit="10" stroke-dasharray="" stroke-dashoffset="0" style="mix-blend-mode: normal"><path d="M231.66993,171.38662l-0.34435,-1.16216l5.2943,-1.56868l0.34435,1.16216z" fill="#ffc966" stroke="none" stroke-width="0" stroke-linecap="butt"></path><path d="M235.62637,190.55961v-23.77069h9.42747v23.77069z" fill="#844c00" stroke="#000000" stroke-width="0.5" stroke-linecap="butt"></path><path d="M238.87857,190.5319l0.36461,-22.01686l3.1645,0.0524l-0.36461,22.01686z" fill="#ffffff" stroke="#000000" stroke-width="0.5" stroke-linecap="butt"></path><path d="M246.18177,163.52298c0,3.31924 -2.60033,6.01001 -5.808,6.01001c-3.20767,0 -5.808,-2.69077 -5.808,-6.01001c0,-3.31924 2.60033,-6.01001 5.808,-6.01001c3.20767,0 5.808,2.69077 5.808,6.01001z" fill="#ffc966" stroke="none" stroke-width="NaN" stroke-linecap="butt"></path><path d="M244.01008,162.95059l-0.06734,1.88549" fill="none" stroke="#000000" stroke-width="0.5" stroke-linecap="round"></path><path d="M244.75081,163.08527l-0.20202,2.02017" fill="none" stroke="#000000" stroke-width="0.5" stroke-linecap="round"></path><path d="M245.69356,163.62398l-2.22219,-0.06734" fill="none" stroke="#000000" stroke-width="0.5" stroke-linecap="round"></path><path d="M243.67338,164.23003h1.95284" fill="none" stroke="#000000" stroke-width="0.5" stroke-linecap="round"></path><path d="M237.00723,166.79417c-0.01587,-0.18046 0.06966,-0.37258 0.24095,-0.45272c0.15927,-0.07452 0.29793,-0.06484 0.39457,-0.00158l-0.02643,-0.0793l0.19755,-0.06585c0.02135,-0.00767 0.04436,-0.01186 0.06836,-0.01186c0.11157,0 0.20202,0.09045 0.20202,0.20202c0,0.04245 -0.01309,0.08184 -0.03546,0.11436l-0.12215,0.18323c0.04521,0.23605 -0.03764,0.66952 -0.37556,0.48986l-0.03243,0.05405c-0.03489,0.06052 -0.10026,0.10125 -0.17513,0.10125c-0.10521,0 -0.19164,-0.08043 -0.20115,-0.18315c-1.32789,0.42862 -3.57471,-0.02022 -2.81138,-1.71776c0.08917,-0.19829 0.22566,-0.37647 0.37814,-0.53146c0,0 0.14285,-0.14285 0.2857,0c0.14285,0.14285 0,0.2857 0,0.2857c-0.12056,0.1181 -0.22753,0.25671 -0.29526,0.41128c-0.01524,0.03477 -0.18363,0.42636 -0.18429,0.52329c-0.00528,0.78058 0.96957,0.60978 1.44648,0.676c0.31109,0.0432 0.70925,0.08464 1.04548,0.00264z" fill="#000000" stroke="none" stroke-width="0.5" stroke-linecap="butt"></path><path d="M237.00681,161.67115v-1.61614h2.22219v1.61614z" fill="#000000" stroke="#000000" stroke-width="0.5" stroke-linecap="butt"></path><path d="M241.45119,161.67115v-1.61614h2.22219v1.61614z" fill="#000000" stroke="#000000" stroke-width="0.5" stroke-linecap="butt"></path><path d="M241.72056,160.99776l-2.62622,-0.13468" fill="none" stroke="#000000" stroke-width="0.5" stroke-linecap="round"></path><path d="M235.42435,159.31428v-1.5488c0,0 3.32295,-5.31979 4.84842,-5.31979c1.7267,0 4.98309,5.31979 4.98309,5.31979v1.5488z" fill="#026b00" stroke="#000000" stroke-width="0.5" stroke-linecap="butt"></path><path d="M242.2256,154.73523c0,0.33471 -0.60298,0.60605 -1.34679,0.60605c-0.74381,0 -1.34679,-0.27134 -1.34679,-0.60605c0,-0.33471 0.60298,-0.60605 1.34679,-0.60605c0.74381,0 1.34679,0.27134 1.34679,0.60605z" fill="#61a95f" stroke="#000000" stroke-width="0" stroke-linecap="butt"></path><path d="M238.53747,157.26082c0.09195,0.32183 -0.41328,0.74838 -1.12847,0.95272c-0.71519,0.20434 -1.3695,0.10909 -1.46146,-0.21274c-0.09195,-0.32183 0.41328,-0.74838 1.12847,-0.95272c0.71519,-0.20434 1.3695,-0.10909 1.46146,0.21274z" fill="#61a95f" stroke="#000000" stroke-width="0" stroke-linecap="butt"></path><path d="M242.93152,157.81348c-0.16255,0.29259 -0.82142,0.23696 -1.47162,-0.12427c-0.6502,-0.36122 -1.04552,-0.89125 -0.88297,-1.18384c0.16255,-0.29259 0.82142,-0.23696 1.47162,0.12427c0.6502,0.36122 1.04552,0.89125 0.88297,1.18384z" fill="#61a95f" stroke="#000000" stroke-width="0" stroke-linecap="butt"></path><g><path d="M241.95252,205.78262v-15.43187h2.59536v15.43187z" fill="url(#color-1)" stroke="none" stroke-width="0" stroke-linecap="butt"></path><g data-paper-data="{&quot;index&quot;:null}"><path d="M241.5971,207.55431v-2.92925c0,0 0.7607,-1.61614 1.41412,-1.61614c0.4918,0 1.26491,1.09254 2.13396,1.48698c0.91039,0.4132 1.90639,0.12916 1.90639,0.12916v2.92925z" fill="#403f9c" stroke="none" stroke-width="0" stroke-linecap="butt"></path><path d="M243.81929,204.72607l-1.41412,0.10101l0.90908,-1.1111" fill="none" stroke="#000000" stroke-width="0.5" stroke-linecap="round"></path></g></g><g><path d="M235.82185,205.82471v-15.43187h2.59536v15.43187z" fill="url(#color-2)" stroke="none" stroke-width="0" stroke-linecap="butt"></path><g><path d="M233.15165,207.52625v-2.92925c0,0 0.996,0.28404 1.90639,-0.12916c0.86905,-0.39443 1.64216,-1.48698 2.13396,-1.48698c0.65343,0 1.41412,1.61614 1.41412,1.61614v2.92925z" fill="#403f9c" stroke="none" stroke-width="0" stroke-linecap="butt"></path><path d="M236.88897,203.68793l0.90908,1.1111l-1.41412,-0.10101" fill="none" stroke="#000000" stroke-width="0.5" stroke-linecap="round"></path></g></g><g><path d="M238.16608,181.32688l9.22628,-21.08182l1.39978,2.18258l-8.64964,19.76421z" fill="url(#color-3)" stroke="none" stroke-width="0" stroke-linecap="butt"></path><path d="M234.66514,188.42959c0,0 1.42138,-2.35099 1.91517,-3.47928c0.39877,-0.91118 0.82388,-2.77939 0.82388,-2.77939l2.63522,1.15328l-2.73905,6.25866c0,0 -1.14283,0.28484 -1.60593,0.08217c-0.40841,-0.17874 -1.02929,-1.23545 -1.02929,-1.23545z" fill="#c1832d" stroke="#000000" stroke-width="0" stroke-linecap="butt"></path><path d="M241.30046,183.58173c-0.21895,0.50029 -1.39192,0.47019 -2.61991,-0.06723c-1.22799,-0.53742 -2.04598,-1.37865 -1.82703,-1.87894c0.21895,-0.50029 1.39192,-0.47019 2.61991,0.06723c1.22799,0.53742 2.04598,1.37865 1.82703,1.87894z" fill="#c1832d" stroke="none" stroke-width="0" stroke-linecap="butt"></path><path d="M234.88652,188.03586l2.43449,1.16355" fill="none" stroke="#906221" stroke-width="1" stroke-linecap="round"></path><path d="M238.12416,187.58844l-2.34187,-0.92678" fill="none" stroke="#906221" stroke-width="1" stroke-linecap="round"></path><path d="M236.61122,184.76759l2.25951,0.89074" fill="none" stroke="#906221" stroke-width="1" stroke-linecap="round"></path><path d="M239.89517,184.43857l-2.82047,-1.62685" fill="none" stroke="#906221" stroke-width="1" stroke-linecap="round"></path><path d="M237.1212,181.36021l4.3646,1.91013" fill="none" stroke="#906221" stroke-width="1" stroke-linecap="round"></path></g><path d="M240.65092,179.95198l-2.08881,0.6559l-7.35425,-9.74322l2.08881,-0.6559z" fill="#ffc966" stroke="none" stroke-width="0" stroke-linecap="butt"></path><path d="M243.62344,169.13895l2.16096,0.35152l2.19812,12.00765l-2.16096,-0.35152z" fill="#ffc966" stroke="none" stroke-width="0" stroke-linecap="butt"></path><path d="M241.18184,168.23671c0,-0.11157 0.09045,-0.20202 0.20202,-0.20202c0.11158,0 0.20202,0.09045 0.20202,0.20202c0,0.11157 -0.09045,0.20202 -0.20202,0.20202c-0.11158,0 -0.20202,-0.09045 -0.20202,-0.20202z" fill="#ffc966" stroke="none" stroke-width="0.5" stroke-linecap="butt"></path><path d="M241.72658,168.6224c-0.049,-0.19599 0.14699,-0.24498 0.14699,-0.24498l0.26936,-0.06734c0,0 0.19599,-0.049 0.24498,0.14699c0.049,0.19599 -0.14699,0.24498 -0.14699,0.24498l-0.26936,0.06734c0,0 -0.19599,0.049 -0.24498,-0.14699z" fill="#ffc966" stroke="none" stroke-width="0.5" stroke-linecap="butt"></path><path d="M237.74755,167.96735c0,-0.11157 0.09045,-0.20202 0.20202,-0.20202c0.11158,0 0.20202,0.09045 0.20202,0.20202c0,0.11157 -0.09045,0.20202 -0.20202,0.20202c-0.11158,0 -0.20202,-0.09045 -0.20202,-0.20202z" fill="#ffc966" stroke="none" stroke-width="0.5" stroke-linecap="butt"></path><path d="M239.02699,168.84276c0,-0.11157 0.09045,-0.20202 0.20202,-0.20202c0.11158,0 0.20202,0.09045 0.20202,0.20202c0,0.11157 -0.09045,0.20202 -0.20202,0.20202c-0.11158,0 -0.20202,-0.09045 -0.20202,-0.20202z" fill="#ffc966" stroke="none" stroke-width="0.5" stroke-linecap="butt"></path><path d="M239.70038,167.96735c0,-0.11157 0.09045,-0.20202 0.20202,-0.20202c0.11158,0 0.20202,0.09045 0.20202,0.20202c0,0.11157 -0.09045,0.20202 -0.20202,0.20202c-0.11158,0 -0.20202,-0.09045 -0.20202,-0.20202z" fill="#ffc966" stroke="none" stroke-width="0.5" stroke-linecap="butt"></path><path d="M242.21934,165.66965c0.0143,0.0143 0.02574,0.0286 0.03474,0.04276c0.29445,-0.01819 0.80094,-0.03391 0.83785,-0.0693c0.04097,-0.03928 0.01963,-0.11229 0.03818,-0.16594c0.1468,-0.42465 -0.11418,-0.36515 -0.24529,-0.20501c0.03717,0.0275 0.14459,0.12399 0.05752,0.2691c-0.10394,0.17323 -0.27717,0.06929 -0.27717,0.06929l-0.23461,-0.31531c0.27614,-0.80527 1.48696,-0.62895 1.07422,0.3331c-0.05292,0.12335 -0.08681,0.27108 -0.1927,0.35354c-0.19059,0.14841 -0.90916,0.09232 -1.16713,0.14414c0,0 -0.03441,0.00688 -0.07741,0.00057c-0.0522,0.07263 -0.10497,0.14439 -0.18553,0.1732c-0.0737,0.02636 -0.1282,-0.11718 -0.20632,-0.11215c-0.17192,0.01107 -0.34416,0.18803 -0.50261,0.12042c-0.10179,-0.04343 -0.09256,-0.29037 -0.20023,-0.26481c-0.17472,0.04148 -0.29781,0.28144 -0.47524,0.25375c-0.12291,-0.01918 -0.20351,-0.43961 -0.19968,-0.31527c0.00524,0.16997 -0.06183,0.27227 -0.30511,0.29119c-0.26498,0.02061 -0.37868,-0.11816 -0.51045,-0.2759c-0.64129,-0.09075 -1.25847,-0.22144 -1.89122,-0.36188c-0.23089,-0.05125 -0.76278,-0.09429 -0.91974,-0.26748c-0.24615,-0.27158 0.02685,-0.70128 0.19276,-0.917c0.43034,-0.55957 1.03579,-0.44042 1.34413,0.14077c-0.06749,0.08908 -0.13499,0.17816 -0.20248,0.26724l-0.316,0.05917c0,0 -0.20202,0 -0.20202,-0.20202c0,-0.102 0.0515,-0.1525 0.1025,-0.1775c-0.21404,-0.01267 -0.33509,0.00694 -0.50271,0.30377c-0.04646,0.08228 -0.19668,0.22111 -0.11095,0.26084c0.70279,0.32575 1.71808,0.39246 2.51637,0.48938c0.08094,-0.0358 0.15072,-0.00144 0.19056,0.02805c0.04916,0.01563 0.13581,0.05885 0.14216,0.17014c0.04077,0.04469 0.08581,0.08253 0.12088,0.08104c0.13146,-0.00559 0.14104,-0.27407 0.27208,-0.286c0.13311,-0.01212 0.25845,0.08932 0.36046,0.17568c0.03687,0.03123 -0.03,0.13297 0.01706,0.14395c0.15333,0.0358 0.23328,-0.27345 0.39055,-0.26572c0.163,0.00801 0.26689,0.1919 0.37696,0.31238c0.0784,0.08581 0.18967,-0.158 0.30545,-0.16817c0.06095,-0.00536 0.07881,0.11951 0.13999,0.11872c0.04061,-0.00052 0.01089,-0.08049 0.01633,-0.12073l0.10812,-0.11201c0,0 0.14285,-0.14285 0.2857,0zM237.70645,164.54627l0.01369,0.02672c0.02871,-0.00712 0.05741,-0.01424 0.08612,-0.02136c-0.03529,-0.00132 -0.06847,-0.00328 -0.0998,-0.00536zM242.85233,165.31867c-0.01641,0.02805 -0.02823,0.05776 -0.03326,0.08758z" fill="#848484" stroke="none" stroke-width="0.5" stroke-linecap="butt"></path></g></g></svg>