<svg version="1.1" xmlns="http://www.w3.org/2000/svg" xmlns:xlink="http://www.w3.org/1999/xlink" width="28.5" height="12.60478" viewBox="0,0,28.5,12.60478"><defs><linearGradient x1="201.51287" y1="164.39915" x2="200.53352" y2="164.39915" gradientUnits="userSpaceOnUse" id="color-1"><stop offset="0" stop-color="#adecff" stop-opacity="0"></stop><stop offset="1" stop-color="#adecff"></stop></linearGradient><linearGradient x1="199.57675" y1="164.50457" x2="200.5561" y2="164.50457" gradientUnits="userSpaceOnUse" id="color-2"><stop offset="0" stop-color="#adecff" stop-opacity="0"></stop><stop offset="1" stop-color="#adecff"></stop></linearGradient><radialGradient cx="200.68663" cy="168.59074" r="1.01837" gradientUnits="userSpaceOnUse" id="color-3"><stop offset="0" stop-color="#e4e4e4"></stop><stop offset="1" stop-color="#6e6e6e"></stop></radialGradient></defs><g transform="translate(-195.94746,-158.28087)"><g data-paper-data="{&quot;isPaintingLayer&quot;:true}" fill-rule="nonzero" stroke-linejoin="miter" stroke-miterlimit="10" stroke-dasharray="" stroke-dashoffset="0" style="mix-blend-mode: normal"><path d="M196.19746,170.63565v-12.10478h28v12.10478z" fill="#dcc658" stroke="#fff4ce" stroke-width="0.5" stroke-linecap="butt"></path><text transform="translate(206.21649,165.35082) scale(0.05393,0.05393)" font-size="40" xml:space="preserve" fill="#ffffff" fill-rule="nonzero" stroke="none" stroke-width="1" stroke-linecap="butt" stroke-linejoin="miter" stroke-miterlimit="10" stroke-dasharray="" stroke-dashoffset="0" font-family="Serif" font-weight="normal" text-anchor="start" style="mix-blend-mode: normal"><tspan x="0" dy="0">"No darkness but</tspan><tspan x="0" dy="48px">jester still attacks."</tspan></text><path d="M205.189,158.85833l0.2,11.5" fill="none" stroke="#fff4ce" stroke-width="0.5" stroke-linecap="round"></path><g><path d="M200.53352,168.56171v-8.32512h0.97934v8.32512z" data-paper-data="{&quot;index&quot;:null}" fill="url(#color-1)" stroke="none" stroke-width="0" stroke-linecap="butt"></path><path d="M199.57675,168.66713v-8.32512h0.97934v8.32512z" fill="url(#color-2)" stroke="none" stroke-width="0" stroke-linecap="butt"></path><path d="M199.94832,160.29109v-0.71285c0,0 0.31707,-0.30551 0.50918,-0.30551c0.25048,0 0.86561,0.30551 0.86561,0.30551v0.71285z" fill="#858585" stroke="none" stroke-width="0" stroke-linecap="butt"></path><path d="M200.0247,168.6162l-0.58556,0.99291" fill="none" stroke="#000000" stroke-width="0.25" stroke-linecap="round"></path><path d="M200.63572,169.76186l0.05091,-1.14565" fill="none" stroke="#000000" stroke-width="0.25" stroke-linecap="round"></path><path d="M201.19581,168.53984l0.84015,1.09474" fill="none" stroke="#000000" stroke-width="0.25" stroke-linecap="round"></path><path d="M201.70499,168.59074c0,0.12655 -0.45594,0.22913 -1.01837,0.22913c-0.56243,0 -1.01837,-0.10259 -1.01837,-0.22913c0,-0.12655 0.45594,-0.22913 1.01837,-0.22913c0.56243,0 1.01837,0.10259 1.01837,0.22913z" fill="url(#color-3)" stroke="none" stroke-width="0" stroke-linecap="butt"></path></g><text transform="translate(205.80006,161.47442) scale(0.0672,0.0672)" font-size="40" xml:space="preserve" fill="#ffffff" fill-rule="nonzero" stroke="none" stroke-width="1" stroke-linecap="butt" stroke-linejoin="miter" stroke-miterlimit="10" stroke-dasharray="" stroke-dashoffset="0" font-family="Serif" font-weight="normal" text-anchor="start" style="mix-blend-mode: normal"><tspan x="0" dy="0">Bright</tspan></text></g></g></svg>