<svg version="1.1" xmlns="http://www.w3.org/2000/svg" xmlns:xlink="http://www.w3.org/1999/xlink" width="98.33334" height="97.33334" viewBox="0,0,98.33334,97.33334"><defs><radialGradient cx="240" cy="180" r="49.16667" gradientUnits="userSpaceOnUse" id="color-1"><stop offset="0" stop-color="#00ffff"></stop><stop offset="1" stop-color="#00ffff" stop-opacity="0"></stop></radialGradient></defs><g transform="translate(-190.83333,-131.33333)"><g data-paper-data="{&quot;isPaintingLayer&quot;:true}" fill-rule="nonzero" stroke-width="0" stroke-linejoin="miter" stroke-miterlimit="10" stroke-dasharray="" stroke-dashoffset="0" style="mix-blend-mode: normal"><path d="M289.16667,180c0,26.87786 -22.01267,48.66667 -49.16667,48.66667c-27.154,0 -49.16667,-21.78881 -49.16667,-48.66667c0,-26.87786 22.01267,-48.66667 49.16667,-48.66667c27.154,0 49.16667,21.78881 49.16667,48.66667z" fill="url(#color-1)" stroke="none" stroke-linecap="butt"></path><g><g><path d="M238.3988,211.73445c0,0 -0.92459,-1.10766 -0.90901,-3.6718c0.00348,-0.57448 0.82266,-0.68232 0.8316,-1.35846c0.16066,-12.14885 0.33672,-40.34698 0.29751,-51.84231c-0.00764,-2.24007 -0.5321,-3.73763 -0.52937,-4.55476c0.00378,-1.12945 0.52325,-2.46613 0.52325,-2.46613c0,0 0.50129,0.69878 0.81706,-0.15156c0.11639,-0.31343 0.15341,-0.92891 0.25927,-1.42696c0.16268,-0.76542 0.38295,-1.40224 0.48504,-1.399c0.17559,0.00559 0.34552,0.77882 0.51142,1.70869c0.13489,0.75602 0.25991,1.64817 0.44127,2.05239c0.09902,0.2207 0.13951,-0.26531 0.2335,-0.31918c0.23856,-0.13677 0.49232,-0.36117 0.49232,-0.36117c0,0 0.70576,1.38019 0.70084,2.85046c-0.00098,0.29426 -0.56648,1.57713 -0.57036,2.02778c-0.06699,7.77523 -0.32723,38.82175 -0.29246,53.17778c0.00257,1.06013 0.90477,2.04585 0.90018,2.90766c-0.01593,2.98946 -0.95217,2.9298 -0.95217,2.9298c0,0 -0.1713,-0.12876 -0.40702,-0.21398c-0.13612,-0.04921 -0.31532,-0.27229 -0.43969,0.03805c-0.31519,0.78652 -0.45408,3.44954 -0.71382,3.44127c-0.11598,-0.0037 -0.23218,0.07921 -0.36062,-0.6312c-0.09566,-0.52911 -0.19855,-1.8151 -0.31095,-2.21073c-0.03091,-0.1088 -0.06809,-0.36746 -0.10051,-0.43944c-0.17684,-0.39273 -0.39338,0.18973 -0.55013,0.22714c-0.22316,0.05328 -0.35715,-0.3143 -0.35715,-0.3143z" fill="#a9ffff" stroke="#000000" stroke-linecap="butt"></path><path d="M237.86456,211.76668c0,0 -0.92459,-1.10766 -0.90901,-3.6718c0.00348,-0.57448 0.82266,-0.68232 0.8316,-1.35846c0.16066,-12.14885 0.33672,-40.34698 0.29751,-51.84231c-0.00764,-2.24007 -0.5321,-3.73763 -0.52937,-4.55476c0.00378,-1.12945 0.52325,-2.46613 0.52325,-2.46613c0,0 0.50129,0.69878 0.81706,-0.15156c0.11639,-0.31343 0.15341,-0.92891 0.25927,-1.42696c0.16268,-0.76542 0.38295,-1.40224 0.48504,-1.399c0.17559,0.00559 0.34552,0.77882 0.51142,1.70869c0.13489,0.75602 0.25991,1.64817 0.44127,2.05239c0.09902,0.2207 0.13951,-0.26531 0.2335,-0.31918c0.23856,-0.13677 0.49232,-0.36117 0.49232,-0.36117c0,0 0.70576,1.38019 0.70084,2.85046c-0.00098,0.29426 -0.56648,1.57713 -0.57036,2.02778c-0.06699,7.77523 -0.32723,38.82175 -0.29246,53.17778c0.00257,1.06013 0.90477,2.04587 0.90018,2.90766c-0.01593,2.98946 -0.95217,2.9298 -0.95217,2.9298c0,0 -0.1713,-0.12876 -0.40702,-0.21398c-0.13612,-0.04921 -0.31532,-0.27229 -0.43969,0.03805c-0.31519,0.78652 -0.45408,3.44954 -0.71382,3.44127c-0.11598,-0.0037 -0.23218,0.07921 -0.36062,-0.6312c-0.09566,-0.52911 -0.19855,-1.8151 -0.31095,-2.21073c-0.03091,-0.1088 -0.06809,-0.36746 -0.10051,-0.43944c-0.17684,-0.39273 -0.39338,0.18973 -0.55013,0.22714c-0.22316,0.05328 -0.35715,-0.3143 -0.35715,-0.3143z" fill="#bcf4f4" stroke="#000000" stroke-linecap="butt"></path><path d="M239.50376,151.95531l-0.91901,-0.03945" fill="#a9ffff" stroke="#a75900" stroke-linecap="round"></path><path d="M240.14168,149.54515l-0.59846,-0.05878" fill="#a9ffff" stroke="#a75900" stroke-linecap="round"></path><path d="M237.83368,149.58944l0.47063,0.35109" fill="#a9ffff" stroke="#a75900" stroke-linecap="round"></path><path d="M241.08,156.08187l-0.65157,0.18159" fill="#a9ffff" stroke="#a75900" stroke-linecap="round"></path><path d="M238.66346,162.91574l-0.4064,-0.26009" fill="#a9ffff" stroke="#a75900" stroke-linecap="round"></path><path d="M240.36376,163.90419l-0.6627,-0.14978" fill="#a9ffff" stroke="#a75900" stroke-linecap="round"></path><path d="M239.86689,175.98235l-0.88752,-0.46826" fill="#a9ffff" stroke="#a75900" stroke-linecap="round"></path><path d="M240.41118,183.53894l-0.24581,-0.03261" fill="#a9ffff" stroke="#a75900" stroke-linecap="round"></path><path d="M238.99406,170.48524l-0.39527,0.07126" fill="#a9ffff" stroke="#a75900" stroke-linecap="round"></path><path d="M240.4578,170.34954l0.4064,0.26009" fill="#a9ffff" stroke="#a75900" stroke-linecap="round"></path><path d="M239.20186,182.14141l-0.60896,0.08416" fill="#a9ffff" stroke="#a75900" stroke-linecap="round"></path><path d="M238.42391,191.76995l1.31553,0.91679" fill="#a9ffff" stroke="#a75900" stroke-linecap="round"></path><path d="M240.01233,188.97045l0.50212,-0.07771" fill="#a9ffff" stroke="#a75900" stroke-linecap="round"></path><path d="M238.92287,189.32074l-0.41752,-0.59147" fill="#a9ffff" stroke="#a75900" stroke-linecap="round"></path><path d="M238.72428,200.71683l0.4064,0.26009" fill="#a9ffff" stroke="#a75900" stroke-linecap="round"></path><path d="M241.09716,201.23782l-0.51324,-0.25364" fill="#a9ffff" stroke="#a75900" stroke-linecap="round"></path><path d="M238.78369,205.21945l0.42801,0.44852" fill="#a9ffff" stroke="#a75900" stroke-linecap="round"></path><path d="M240.27156,207.16938l-0.29955,-0.26654" fill="#a9ffff" stroke="#a75900" stroke-linecap="round"></path><path d="M240.06458,204.19355l0.23531,0.17555" fill="#a9ffff" stroke="#a75900" stroke-linecap="round"></path><path d="M238.21187,209.14351l-0.49225,-0.53952" fill="#a9ffff" stroke="#a75900" stroke-linecap="round"></path><path d="M239.54105,212.28886l-0.1927,-0.27298" fill="#a9ffff" stroke="#a75900" stroke-linecap="round"></path><path d="M241.96438,154.17862l-0.29955,-0.26654" fill="#a9ffff" stroke="#703c00" stroke-linecap="round"></path><path d="M240.73701,147.23243l-0.21432,-0.46141" fill="#a9ffff" stroke="#703c00" stroke-linecap="round"></path><path d="M240.15096,212.91616l0.22111,0.20803" fill="#a9ffff" stroke="#703c00" stroke-linecap="round"></path><path d="M242.2557,210.00646l0.2421,-0.07785" fill="#a9ffff" stroke="#703c00" stroke-linecap="round"></path><path d="M241.66598,205.80459l-0.1997,-0.17769" fill="#a9ffff" stroke="#703c00" stroke-linecap="round"></path><path d="M241.42613,196.83825l0.15688,0.11704" fill="#a9ffff" stroke="#703c00" stroke-linecap="round"></path><path d="M241.5349,182.15884l-0.13547,-0.08671" fill="#a9ffff" stroke="#703c00" stroke-linecap="round"></path><path d="M241.41399,171.57259l0.35615,-0.02148" fill="#a9ffff" stroke="#703c00" stroke-linecap="round"></path><path d="M241.44618,174.35341l0.18528,0.05207" fill="#a9ffff" stroke="#703c00" stroke-linecap="round"></path><path d="M241.76498,162.28601l-0.20669,-0.0824" fill="#a9ffff" stroke="#703c00" stroke-linecap="round"></path><path d="M242.11136,149.52124l0.26352,-0.04751" fill="#a9ffff" stroke="#703c00" stroke-linecap="round"></path><path d="M242.27691,150.8078l0.18528,0.05207" fill="#a9ffff" stroke="#703c00" stroke-linecap="round"></path><path d="M240.21807,145.36636l0.24994,0.45926" fill="#a9ffff" stroke="#703c00" stroke-linecap="round"></path></g><g><g stroke="#000000" stroke-linecap="butt"><path d="M245.30206,171.2664c0,0 -0.17837,3.04738 -0.59488,3.03561c-0.09332,-0.00265 -0.1122,-2.68585 -0.22204,-2.7048c-1.97358,-0.34041 -6.55403,-0.48533 -8.42113,-0.18063c-0.36383,0.05937 -0.60621,1.80127 -0.73894,1.80483c-0.18346,0.00492 -0.40145,-1.67719 -0.40145,-1.67719c0,0 0.11266,-1.6537 -0.02598,-2.67563c-0.05111,-0.37668 -0.15114,-0.48859 -0.23221,-0.82789c-0.1246,-0.52145 -0.2284,-1.23365 -0.22805,-1.56833c0.00061,-0.5756 0.12593,-1.1444 0.27668,-1.70242c0.12258,-0.45369 0.26728,-0.87712 0.33263,-1.47774c0.03569,-0.32794 -0.04332,-0.4532 -0.05224,-0.76044c-0.02262,-0.77982 -0.05948,-1.60807 -0.05948,-1.60807c0,0 0.223,-2.33433 0.46182,-2.3407c0.0478,-0.00127 0.25712,1.83249 0.33032,1.83832c1.26303,0.10044 6.30627,0.47758 8.63804,0.14361c0.17219,-0.02466 0.33079,-2.99677 0.47078,-2.99494c0.4856,0.00641 0.47748,3.0759 0.47748,3.0759c0,0 -0.02063,0.56344 -0.03408,1.33731c-0.00777,0.44687 -0.0437,1.03767 0.00692,1.44054c0.12828,1.02098 0.56106,1.43541 0.56015,2.28683c-0.00041,0.38017 0.01325,0.75975 -0.10192,1.19162c-0.08578,0.32167 -0.29449,0.67859 -0.35857,1.05304c-0.01762,0.10297 -0.05957,0.22882 -0.07121,0.33614c-0.0635,0.58562 0.03148,1.2864 0.03782,1.7996c0.00903,0.73061 -0.05045,1.17539 -0.05045,1.17539z" fill="#a9ffff"></path><path d="M245.01794,169.56917c0,0 -0.17837,3.04738 -0.59488,3.03561c-0.09332,-0.00265 -0.1122,-2.68585 -0.22204,-2.7048c-1.97358,-0.34041 -6.55403,-0.48533 -8.42113,-0.18063c-0.36383,0.05937 -0.60621,1.80127 -0.73894,1.80483c-0.18346,0.00492 -0.40145,-1.67719 -0.40145,-1.67719c0,0 0.11266,-1.6537 -0.02598,-2.67563c-0.05111,-0.37668 -0.15114,-0.48859 -0.23221,-0.82789c-0.1246,-0.52145 -0.2284,-1.23366 -0.22805,-1.56833c0.00061,-0.5756 0.12593,-1.1444 0.27668,-1.70242c0.12258,-0.45369 0.26728,-0.87712 0.33263,-1.47774c0.03569,-0.32794 -0.04332,-0.4532 -0.05224,-0.76044c-0.02262,-0.77982 -0.05948,-1.60807 -0.05948,-1.60807c0,0 0.223,-2.33433 0.46182,-2.3407c0.0478,-0.00127 0.25712,1.83249 0.33032,1.83832c1.26303,0.10044 6.30627,0.47758 8.63804,0.14361c0.17219,-0.02466 0.33079,-2.99677 0.47078,-2.99494c0.4856,0.00641 0.47748,3.0759 0.47748,3.0759c0,0 -0.02063,0.56344 -0.03408,1.33731c-0.00777,0.44687 -0.0437,1.03767 0.00692,1.44054c0.12828,1.02098 0.56106,1.4354 0.56015,2.28683c-0.00041,0.38017 0.01325,0.75975 -0.10192,1.19162c-0.08578,0.32167 -0.29449,0.67859 -0.35857,1.05304c-0.01762,0.10297 -0.05957,0.22882 -0.07121,0.33614c-0.0635,0.58562 0.03148,1.2864 0.03782,1.7996c0.00903,0.73061 -0.05045,1.17539 -0.05045,1.17539z" fill="#bcf4f4"></path></g><path d="M236.05642,161.10518l0.60515,0.3757" fill="#a9ffff" stroke="#a75900" stroke-linecap="round"></path><path d="M239.45183,162.02302l-0.71998,-0.19905" fill="#a9ffff" stroke="#a75900" stroke-linecap="round"></path><path d="M236.62294,165.72185l0.46601,0.37199" fill="#a9ffff" stroke="#a75900" stroke-linecap="round"></path><path d="M240.08956,168.40312l-0.54816,-0.1585" fill="#a9ffff" stroke="#a75900" stroke-linecap="round"></path><path d="M240.71488,166.04724l-0.38472,0.02564" fill="#a9ffff" stroke="#a75900" stroke-linecap="round"></path><path d="M242.41889,164.90658l-0.45009,-0.04802" fill="#a9ffff" stroke="#a75900" stroke-linecap="round"></path><path d="M243.38944,167.37715l-0.41741,-0.01118" fill="#a9ffff" stroke="#a75900" stroke-linecap="round"></path><path d="M244.06094,161.24782l0.35203,-0.06246" fill="#a9ffff" stroke="#a75900" stroke-linecap="round"></path><path d="M245.16977,164.33322l-0.2372,-0.1142" fill="#a9ffff" stroke="#a75900" stroke-linecap="round"></path><path d="M244.54191,168.52245l0.27827,0.00747" fill="#a9ffff" stroke="#a75900" stroke-linecap="round"></path><path d="M234.78318,164.41434l0.27827,0.00747" fill="#a9ffff" stroke="#a75900" stroke-linecap="round"></path><path d="M235.37666,161.4105l0.20451,0.07738" fill="#a9ffff" stroke="#a75900" stroke-linecap="round"></path><path d="M235.3757,167.98919l0.33526,0.22468" fill="#a9ffff" stroke="#a75900" stroke-linecap="round"></path><path d="M243.15904,162.37404l-0.35957,-0.40508" fill="#a9ffff" stroke="#a75900" stroke-linecap="round"></path><path d="M235.322,171.29508l0.29419,0.33143" fill="#a9ffff" stroke="#5e3200" stroke-linecap="round"></path><path d="M236.46109,170.28308l0.66214,0.59294" fill="#a9ffff" stroke="#5e3200" stroke-linecap="round"></path><path d="M245.80591,165.968l-0.20451,-0.07738" fill="#a9ffff" stroke="#5e3200" stroke-linecap="round"></path><path d="M245.03658,160.0517l0.19613,0.22095" fill="#a9ffff" stroke="#5e3200" stroke-linecap="round"></path><path d="M244.88885,172.12669l0.29504,-0.27969" fill="#a9ffff" stroke="#5e3200" stroke-linecap="round"></path><path d="M242.23943,170.36606l0.55654,0.01492" fill="#a9ffff" stroke="#5e3200" stroke-linecap="round"></path><path d="M243.99035,170.80844l-0.27827,-0.00747" fill="#a9ffff" stroke="#5e3200" stroke-linecap="round"></path><path d="M239.14489,170.8583l-0.50709,-0.26523" fill="#a9ffff" stroke="#5e3200" stroke-linecap="round"></path><path d="M240.88075,170.3656l0.24559,-0.02937" fill="#a9ffff" stroke="#5e3200" stroke-linecap="round"></path></g></g></g></g></svg>