<svg version="1.1" xmlns="http://www.w3.org/2000/svg" xmlns:xlink="http://www.w3.org/1999/xlink" width="34.03222" height="40.99416" viewBox="0,0,34.03222,40.99416"><defs><linearGradient x1="241.3833" y1="166.06618" x2="241.3833" y2="169.39678" gradientUnits="userSpaceOnUse" id="color-1"><stop offset="0" stop-color="#ad5400"></stop><stop offset="1" stop-color="#d07b00"></stop></linearGradient><linearGradient x1="241.9085" y1="213.43667" x2="241.9085" y2="225.91252" gradientUnits="userSpaceOnUse" id="color-2"><stop offset="0" stop-color="#8e6c39"></stop><stop offset="1" stop-color="#cc9752"></stop></linearGradient><linearGradient x1="257.17469" y1="219.00573" x2="265.08138" y2="233.69882" gradientUnits="userSpaceOnUse" id="color-3"><stop offset="0" stop-color="#000000"></stop><stop offset="1" stop-color="#777777"></stop></linearGradient><linearGradient x1="258.85393" y1="218.13728" x2="266.76062" y2="232.83036" gradientUnits="userSpaceOnUse" id="color-4"><stop offset="0" stop-color="#000000"></stop><stop offset="1" stop-color="#777777"></stop></linearGradient><linearGradient x1="240.98017" y1="177.84505" x2="240.98017" y2="197.95943" gradientUnits="userSpaceOnUse" id="color-5"><stop offset="0" stop-color="#57dada" stop-opacity="0"></stop><stop offset="1" stop-color="#57dada"></stop></linearGradient><radialGradient cx="241.15747" cy="197.2131" r="15.70153" gradientUnits="userSpaceOnUse" id="color-6"><stop offset="0" stop-color="#00b3ff"></stop><stop offset="1" stop-color="#00fff1"></stop></radialGradient></defs><g transform="translate(-222.82678,-159.50292)"><g data-paper-data="{&quot;isPaintingLayer&quot;:true}" fill-rule="nonzero" stroke-linejoin="miter" stroke-miterlimit="10" stroke-dasharray="" stroke-dashoffset="0" style="mix-blend-mode: normal"><g><path d="M249.79421,176.70201c0,4.5445 -3.55248,8.22856 -7.93468,8.22856c-4.38221,0 -7.93468,-3.68406 -7.93468,-8.22856c0,-4.5445 3.55248,-8.22856 7.93468,-8.22856c4.38221,0 7.93468,3.68406 7.93468,8.22856z" fill="#fff3c0" stroke="#000000" stroke-width="0" stroke-linecap="butt"></path><path d="M237.96564,174.71833c0,-0.1623 0.13158,-0.29388 0.29388,-0.29388c0.1623,0 0.29388,0.13158 0.29388,0.29388c0,0.1623 -0.13158,0.29388 -0.29388,0.29388c-0.1623,0 -0.29388,-0.13158 -0.29388,-0.29388z" fill="#000000" stroke="none" stroke-width="0.5" stroke-linecap="butt"></path><path d="M244.57789,175.01221c0,-0.1623 0.13158,-0.29388 0.29388,-0.29388c0.1623,0 0.29388,0.13158 0.29388,0.29388c0,0.1623 -0.13158,0.29388 -0.29388,0.29388c-0.1623,0 -0.29388,-0.13158 -0.29388,-0.29388z" fill="#000000" stroke="none" stroke-width="0.5" stroke-linecap="butt"></path><path d="M234.733,183.09383h14.25304v11.37773c-2.40612,0.67411 -4.80816,1.36211 -7.21193,2.01768c-0.04805,0.0131 -0.09608,0.02621 -0.14412,0.03931c-1.38431,-0.04997 -2.77132,-0.15783 -4.13508,0.04928c-0.71926,0.10923 -1.38838,0.43437 -2.0814,0.65658l-0.68052,0.17013z" fill="#267520" stroke="none" stroke-width="0" stroke-linecap="butt"></path><path d="M239.47311,180.56412l-1.95918,-0.68571" fill="none" stroke="#000000" stroke-width="1" stroke-linecap="round"></path><path d="M236.33842,170.96413l2.44897,-2.1551c0,0 2.20459,-0.48979 3.23265,-0.48979c1.06071,0 3.03673,0.48979 3.03673,0.48979l2.74285,2.54694z" fill="#000000" stroke="none" stroke-width="0" stroke-linecap="butt"></path><path d="M248.19147,167.73148c0,0.91972 -3.04812,1.6653 -6.80816,1.6653c-3.76005,0 -6.80816,-0.74558 -6.80816,-1.6653c0,-0.91972 3.04812,-1.6653 6.80816,-1.6653c3.76005,0 6.80816,0.74558 6.80816,1.6653z" fill="url(#color-1)" stroke="none" stroke-width="0" stroke-linecap="butt"></path><path d="M235.6527,167.24169v-5.38775c0,0 1.8389,-0.70917 3.59706,-0.47754c0.80618,0.10621 1.49741,-1.87348 2.08456,-1.87348c0.71235,0 2.05468,2.24636 2.97412,2.11353c1.59648,-0.23063 2.80547,0.23749 2.80547,0.23749v5.38775z" fill="#ad5400" stroke="none" stroke-width="0" stroke-linecap="butt"></path><path d="M234.34248,191.25603l0.71094,-4.87889l7.78847,9.8189c-0.35589,0.09835 -0.71181,0.19614 -1.06777,0.29322c-0.04805,0.0131 -0.09608,0.02621 -0.14412,0.03931c-1.19925,-0.04329 -2.40054,-0.13002 -3.58699,-0.01778c-2.10842,-2.99318 -3.70054,-5.25476 -3.70054,-5.25476z" fill="#bd8a33" stroke="none" stroke-width="0" stroke-linecap="butt"></path><path d="M241.93299,188.31016l-3.96735,-5.43673h7.49387z" fill="#ffffff" stroke="none" stroke-width="0" stroke-linecap="butt"></path><path d="M245.1019,189.53759l-1.18523,-0.71114l1.18523,-0.61632l0.94819,-1.65933l1.23264,1.65933l1.23265,0.56891l-1.23265,0.75855l0.64871,1.41122c0,0 -0.97676,-0.89844 -1.62426,-0.96845c-0.56881,-0.06151 -1.25267,0.9321 -1.25267,0.9321z" fill="#ffd300" stroke="none" stroke-width="0" stroke-linecap="butt"></path><path d="M240.39987,165.92945l-1.18523,-0.71114l1.18523,-0.61632l0.94819,-1.65933l1.23264,1.65933l1.23265,0.56891l-1.23265,0.75855l0.64871,1.41122c0,0 -0.97676,-0.89843 -1.62426,-0.96845c-0.56881,-0.06151 -1.25267,0.9321 -1.25267,0.9321z" fill="#ffd300" stroke="none" stroke-width="0" stroke-linecap="butt"></path><path d="" fill="#2f9428" stroke="none" stroke-width="0" stroke-linecap="butt"></path><path d="" fill="url(#color-2)" stroke="none" stroke-width="NaN" stroke-linecap="butt"></path><path d="M228.2174,174.53744l4.56569,16.00736l-5.0764,1.05156l-4.56569,-16.00736z" fill="#fff3c0" stroke="#000000" stroke-width="0.5" stroke-linecap="butt"></path><path d="M232.22176,188.50817l4.75844,8.11134c0,0 -0.01635,0.02947 -0.04687,0.08442c-0.51331,0.14794 -1.0101,0.36706 -1.51982,0.53049l-1.03976,0.25994c-0.90421,0.2052 -1.65005,0.82733 -2.02472,1.65358c-0.24648,0.07328 -0.4928,0.14691 -0.73896,0.22095l-3.8242,-8.25845z" data-paper-data="{&quot;index&quot;:null}" fill="#267520" stroke="#000000" stroke-width="0.5" stroke-linecap="butt"></path><g stroke="#000000" stroke-width="0.5" stroke-linecap="butt"><path d="" fill="#fff3c0"></path><path d="M247.12593,186.73751c0,0 -1.70452,-2.10369 -0.87723,-2.14513c0.88143,-0.04415 6.01365,1.88784 6.01365,1.88784l0.35028,6.99273c-1.69572,0.45598 -3.38799,0.93033 -5.07882,1.40693z" fill="#267520"></path></g><g data-paper-data="{&quot;index&quot;:null}" stroke-linecap="butt"><path d="M239.39075,195.56313c0,0 1.31731,0.37236 2.77139,0.82001c-0.12934,0.03545 -0.25868,0.07083 -0.38803,0.1061c-0.04805,0.0131 -0.09608,0.02621 -0.14412,0.03931c-0.79296,-0.02863 -1.5868,-0.07624 -2.37666,-0.07278c0.07643,-0.50886 0.13741,-0.89266 0.13741,-0.89266z" fill="#eaad81" stroke="none" stroke-width="0"></path><path d="" fill="#eaad81" stroke="none" stroke-width="0"></path><path d="" fill="#000000" stroke="#000000" stroke-width="0.5"></path><path d="M239.38361,195.68849l1.95982,0.46294l-0.08564,0.36258c-0.68612,-0.02842 -1.37234,-0.06285 -2.05549,-0.05792z" fill="#000000" stroke="none" stroke-width="0"></path><path d="" fill="#d4d4d4" stroke="none" stroke-width="NaN"></path><path d="" fill="url(#color-3)" stroke="#000000" stroke-width="0.5"></path><path d="" fill="url(#color-4)" stroke="#000000" stroke-width="0.5"></path><path d="" fill="#a78100" stroke="#000000" stroke-width="0.5"></path><path d="" fill="#000000" stroke="#000000" stroke-width="0.5"></path><path d="" fill="#000000" stroke="#000000" stroke-width="0.5"></path></g><path d="M239.09636,173.22547l-2.42449,0.51429" fill="none" stroke="#000000" stroke-width="0.5" stroke-linecap="round"></path><path d="M246.44329,173.59282l-2.57143,-0.29388" fill="none" stroke="#000000" stroke-width="0.5" stroke-linecap="round"></path><path d="M240.1984,179.80098c0,0.83181 -0.75655,1.50612 -1.6898,1.50612c-0.93325,0 -1.6898,-0.67431 -1.6898,-1.50612c0,-0.83181 0.75655,-1.50612 1.6898,-1.50612c0.93325,0 1.6898,0.67431 1.6898,1.50612z" fill="#ff6666" stroke="#000000" stroke-width="0.5" stroke-linecap="butt"></path></g><path d="M227.639,197.95943v-20.11438h26.68234v20.11438z" fill="url(#color-5)" stroke="none" stroke-width="0" stroke-linecap="butt"></path><path d="M256.859,197.2131c0,1.81369 -7.02982,3.28398 -15.70153,3.28398c-8.67171,0 -15.70153,-1.47029 -15.70153,-3.28398c0,-1.81369 7.02982,-3.28398 15.70153,-3.28398c8.67171,0 15.70153,1.47029 15.70153,3.28398z" fill="url(#color-6)" stroke="none" stroke-width="0" stroke-linecap="butt"></path></g></g></svg>