<svg version="1.1" xmlns="http://www.w3.org/2000/svg" xmlns:xlink="http://www.w3.org/1999/xlink" width="6.88749" height="4.85834" viewBox="0,0,6.88749,4.85834"><defs><linearGradient x1="237.62559" y1="180.46677" x2="241.96042" y2="180.82489" gradientUnits="userSpaceOnUse" id="color-1"><stop offset="0" stop-color="#d06f3e"></stop><stop offset="1" stop-color="#dfaf90"></stop></linearGradient></defs><g transform="translate(-236.55625,-177.57083)"><g data-paper-data="{&quot;isPaintingLayer&quot;:true}" fill-rule="nonzero" stroke-width="0.15" stroke-linejoin="miter" stroke-miterlimit="10" stroke-dasharray="" stroke-dashoffset="0" style="mix-blend-mode: normal"><path d="M239.45381,178.98157v0.99938h-0.33664v-0.99938z" data-paper-data="{&quot;index&quot;:null}" fill="#ce9d52" stroke="none" stroke-linecap="butt"></path><path d="M239.20659,179.10781c-0.15977,0 -0.28929,-0.06359 -0.28929,-0.14202c0,-0.07843 0.12951,-0.14202 0.28929,-0.14202c0.15977,0 0.2893,0.06359 0.2893,0.14202c0,0.07844 -0.12952,0.14202 -0.2893,0.14202z" data-paper-data="{&quot;index&quot;:null}" fill="#ce9d52" stroke="none" stroke-linecap="butt"></path><path d="M238.89861,178.7809c0,0 0.00403,0.00949 0.00902,0.02124c0.00371,0.00875 0.00796,0.01874 0.01147,0.02701c0.01245,0.02932 0.04695,0.11056 0.04695,0.11056l-0.06584,0.02796l-0.08847,-0.20088z" data-paper-data="{&quot;index&quot;:null}" fill="#e5e5e5" stroke="none" stroke-linecap="butt"></path><path d="M238.97687,178.70035c0,0 0.00745,0.00712 0.01669,0.01593c0.00688,0.00656 0.01472,0.01406 0.02122,0.02026c0.02304,0.022 0.08688,0.08294 0.08688,0.08294l-0.0494,0.05174l-0.16076,-0.14945z" data-paper-data="{&quot;index&quot;:null}" fill="#e5e5e5" stroke="none" stroke-linecap="butt"></path><path d="M239.16356,178.6402c0,0 0.00256,0.00999 0.00573,0.02235c0.00235,0.0092 0.00505,0.01972 0.00728,0.02842c0.0079,0.03086 0.02982,0.11635 0.02982,0.11635l-0.0693,0.01776l-0.05731,-0.21189z" data-paper-data="{&quot;index&quot;:null}" fill="#e5e5e5" stroke="none" stroke-linecap="butt"></path><path d="M239.3367,178.66436c0,0 -0.00174,0.01016 -0.00389,0.02274c-0.0016,0.00937 -0.00343,0.02007 -0.00494,0.02892c-0.00537,0.0314 -0.02026,0.11839 -0.02026,0.11839l-0.07051,-0.01207l0.03414,-0.21683z" data-paper-data="{&quot;index&quot;:null}" fill="#e5e5e5" stroke="none" stroke-linecap="butt"></path><path d="M239.51191,178.73095c0,0 -0.00502,0.00901 -0.01125,0.02015c-0.00463,0.0083 -0.00993,0.01778 -0.0143,0.02563c-0.01552,0.02782 -0.05853,0.10488 -0.05853,0.10488l-0.06247,-0.03486l0.1044,-0.19308z" data-paper-data="{&quot;index&quot;:null}" fill="#e5e5e5" stroke="none" stroke-linecap="butt"></path><path d="M239.20318,179.0114c-0.04071,0 -0.07371,-0.01886 -0.07371,-0.04212c0,-0.02326 0.03301,-0.04211 0.07371,-0.04211c0.04071,0 0.0737,0.01885 0.0737,0.04211c0,0.02326 -0.033,0.04212 -0.0737,0.04212z" data-paper-data="{&quot;index&quot;:null}" fill="#674100" stroke="#674100" stroke-linecap="butt"></path><path d="M239.06629,178.85557l0.0716,0.10529l-0.20217,-0.01685" data-paper-data="{&quot;index&quot;:null}" fill="none" stroke="#674100" stroke-linecap="round"></path><path d="M239.16738,178.82187l0.00842,0.11372" data-paper-data="{&quot;index&quot;:null}" fill="none" stroke="#674100" stroke-linecap="round"></path><path d="M239.2095,178.93559l0.07582,-0.11372" data-paper-data="{&quot;index&quot;:null}" fill="none" stroke="#674100" stroke-linecap="round"></path><path d="M239.26426,178.96507l0.12215,-0.08845" data-paper-data="{&quot;index&quot;:null}" fill="none" stroke="#674100" stroke-linecap="round"></path><path d="M240.68557,178.81733v0.99938h-0.33663v-0.99938z" data-paper-data="{&quot;index&quot;:null}" fill="#ce9d52" stroke="none" stroke-linecap="butt"></path><path d="M240.43836,178.94357c-0.15977,0 -0.28929,-0.06359 -0.28929,-0.14202c0,-0.07844 0.12951,-0.14201 0.28929,-0.14201c0.15977,0 0.2893,0.06358 0.2893,0.14201c0,0.07844 -0.12952,0.14202 -0.2893,0.14202z" data-paper-data="{&quot;index&quot;:null}" fill="#ce9d52" stroke="none" stroke-linecap="butt"></path><path d="M240.13038,178.61666c0,0 0.00403,0.00949 0.00902,0.02123c0.00371,0.00875 0.00796,0.01874 0.01147,0.02701c0.01245,0.02932 0.04694,0.11056 0.04694,0.11056l-0.06584,0.02796l-0.08847,-0.20088z" data-paper-data="{&quot;index&quot;:null}" fill="#e5e5e5" stroke="none" stroke-linecap="butt"></path><path d="M240.20863,178.53611c0,0 0.00746,0.00712 0.01669,0.01593c0.00688,0.00656 0.01472,0.01407 0.02122,0.02026c0.02304,0.022 0.08688,0.08294 0.08688,0.08294l-0.0494,0.05174l-0.16076,-0.14944z" data-paper-data="{&quot;index&quot;:null}" fill="#e5e5e5" stroke="none" stroke-linecap="butt"></path><path d="M240.39533,178.47597c0,0 0.00256,0.00999 0.00573,0.02235c0.00235,0.00921 0.00505,0.01972 0.00728,0.02842c0.0079,0.03086 0.02981,0.11635 0.02981,0.11635l-0.06929,0.01775l-0.05731,-0.21188z" data-paper-data="{&quot;index&quot;:null}" fill="#e5e5e5" stroke="none" stroke-linecap="butt"></path><path d="M240.56847,178.50013c0,0 -0.00174,0.01016 -0.00389,0.02274c-0.0016,0.00937 -0.00343,0.02007 -0.00495,0.02892c-0.00537,0.0314 -0.02026,0.11839 -0.02026,0.11839l-0.0705,-0.01207l0.03414,-0.21683z" data-paper-data="{&quot;index&quot;:null}" fill="#e5e5e5" stroke="none" stroke-linecap="butt"></path><path d="M240.74368,178.56672c0,0 -0.00502,0.009 -0.01124,0.02015c-0.00463,0.0083 -0.00993,0.01778 -0.0143,0.02562c-0.01552,0.02782 -0.05853,0.10488 -0.05853,0.10488l-0.06247,-0.03485l0.1044,-0.19308z" data-paper-data="{&quot;index&quot;:null}" fill="#e5e5e5" stroke="none" stroke-linecap="butt"></path><path d="M240.43495,178.84717c-0.04071,0 -0.0737,-0.01886 -0.0737,-0.04212c0,-0.02326 0.033,-0.04212 0.0737,-0.04212c0.04071,0 0.07371,0.01885 0.07371,0.04212c0,0.02326 -0.03301,0.04212 -0.07371,0.04212z" data-paper-data="{&quot;index&quot;:null}" fill="#674100" stroke="#674100" stroke-linecap="butt"></path><path d="M240.29806,178.69133l0.0716,0.1053l-0.20217,-0.01685" data-paper-data="{&quot;index&quot;:null}" fill="none" stroke="#674100" stroke-linecap="round"></path><path d="M240.40757,178.77136l-0.00843,-0.11372" data-paper-data="{&quot;index&quot;:null}" fill="none" stroke="#674100" stroke-linecap="round"></path><path d="M240.44126,178.77136l0.07582,-0.11372" data-paper-data="{&quot;index&quot;:null}" fill="none" stroke="#674100" stroke-linecap="round"></path><path d="M240.49602,178.80084l0.12215,-0.08845" data-paper-data="{&quot;index&quot;:null}" fill="none" stroke="#674100" stroke-linecap="round"></path><path d="M241.86709,178.25647v1.56024h-0.52555v-1.56024z" data-paper-data="{&quot;index&quot;:null}" fill="#ce9d52" stroke="none" stroke-linecap="butt"></path><path d="M241.48113,178.45356c-0.24944,0 -0.45165,-0.09927 -0.45165,-0.22172c0,-0.12246 0.20221,-0.22172 0.45165,-0.22172c0.24944,0 0.45165,0.09926 0.45165,0.22172c0,0.12246 -0.20221,0.22172 -0.45165,0.22172z" data-paper-data="{&quot;index&quot;:null}" fill="#ce9d52" stroke="none" stroke-linecap="butt"></path><path d="M241.00032,177.94317c0,0 0.00628,0.01481 0.01407,0.03315c0.0058,0.01365 0.01243,0.02926 0.01791,0.04217c0.01944,0.04577 0.0733,0.1726 0.0733,0.1726l-0.10279,0.04365l-0.13813,-0.31361z" data-paper-data="{&quot;index&quot;:null}" fill="#e5e5e5" stroke="none" stroke-linecap="butt"></path><path d="M241.12249,177.81744c0,0 0.01163,0.01112 0.02605,0.02488c0.01073,0.01024 0.023,0.02195 0.03314,0.03163c0.03598,0.03434 0.13563,0.12949 0.13563,0.12949l-0.07712,0.08077l-0.25099,-0.23332z" data-paper-data="{&quot;index&quot;:null}" fill="#e5e5e5" stroke="none" stroke-linecap="butt"></path><path d="M241.41396,177.72353c0,0 0.004,0.01559 0.00895,0.03489c0.00368,0.01436 0.00789,0.03079 0.01137,0.04437c0.01234,0.04817 0.04655,0.18165 0.04655,0.18165l-0.10818,0.02772l-0.08947,-0.33079z" data-paper-data="{&quot;index&quot;:null}" fill="#e5e5e5" stroke="none" stroke-linecap="butt"></path><path d="M241.68425,177.76124c0,0 -0.00271,0.01586 -0.00607,0.03551c-0.0025,0.01462 -0.00537,0.03133 -0.00773,0.04515c-0.00839,0.04902 -0.03163,0.18483 -0.03163,0.18483l-0.11008,-0.01884l0.0533,-0.33852z" data-paper-data="{&quot;index&quot;:null}" fill="#e5e5e5" stroke="none" stroke-linecap="butt"></path><path d="M241.9578,177.8652c0,0 -0.00783,0.01406 -0.01754,0.03146c-0.00723,0.01296 -0.01549,0.02776 -0.02232,0.04c-0.02423,0.04343 -0.09137,0.16375 -0.09137,0.16375l-0.09752,-0.05442l0.16299,-0.30144z" data-paper-data="{&quot;index&quot;:null}" fill="#e5e5e5" stroke="none" stroke-linecap="butt"></path><path d="M241.47581,178.30305c-0.06356,0 -0.11508,-0.02944 -0.11508,-0.06575c0,-0.03632 0.05152,-0.06575 0.11508,-0.06575c0.06356,0 0.11507,0.02944 0.11507,0.06575c0,0.03632 -0.05152,0.06575 -0.11507,0.06575z" data-paper-data="{&quot;index&quot;:null}" fill="#674100" stroke="#674100" stroke-linecap="butt"></path><path d="M241.2621,178.05975l0.11179,0.1644l-0.31564,-0.0263" data-paper-data="{&quot;index&quot;:null}" fill="none" stroke="#674100" stroke-linecap="round"></path><path d="M241.43307,178.18469l-0.01315,-0.17755" data-paper-data="{&quot;index&quot;:null}" fill="none" stroke="#674100" stroke-linecap="round"></path><path d="M241.60404,178.00714l-0.11837,0.17755" data-paper-data="{&quot;index&quot;:null}" fill="none" stroke="#674100" stroke-linecap="round"></path><path d="M241.76186,178.09263l-0.1907,0.13809" data-paper-data="{&quot;index&quot;:null}" fill="none" stroke="#674100" stroke-linecap="round"></path><path d="M238.73018,178.15793v1.56024h-0.52555v-1.56024z" data-paper-data="{&quot;index&quot;:null}" fill="#ce9d52" stroke="none" stroke-linecap="butt"></path><path d="M243.36163,180.55577c0,0 0.08212,0.17816 0.08212,0.24635c0,0.06273 -0.08212,0.14781 -0.08212,0.14781c0,0 -0.1515,0.30836 -0.23752,0.25978c-0.07285,-0.04114 -0.07553,-0.44044 -0.14023,-0.44044c-0.19955,0 -0.70621,0.18066 -0.70621,0.18066v-0.39417z" data-paper-data="{&quot;index&quot;:null}" fill="#dfaf90" stroke="none" stroke-linecap="butt"></path><path d="M239.68835,181.91263c-1.19703,-0.09889 -2.12056,-0.74622 -2.06276,-1.44586c0.0578,-0.69964 1.07504,-1.18664 2.27208,-1.08775c0.60291,0.04981 1.56338,-0.10462 1.93708,0.16005c0.36826,0.26082 0.75656,0.9933 0.72788,1.34055c-0.02094,0.25352 -0.64606,0.85313 -0.88187,1.03305c-0.41495,0.31661 -1.22912,0.063 -1.9924,-0.00006z" data-paper-data="{&quot;index&quot;:null}" fill="url(#color-1)" stroke="none" stroke-linecap="butt"></path><path d="M238.5984,180.44492c0.01688,-0.20428 0.48776,-0.33211 1.05175,-0.28552c0.56399,0.04659 1.00751,0.24997 0.99063,0.45425c-0.01688,0.20428 -0.48776,0.33211 -1.05175,0.28552c-0.56399,-0.04659 -1.00751,-0.24997 -0.99063,-0.45425z" data-paper-data="{&quot;index&quot;:null}" fill="#c8a582" stroke="none" stroke-linecap="butt"></path><g data-paper-data="{&quot;index&quot;:null}" stroke-linecap="butt"><path d="M237.52339,182.00083c-0.59759,-0.12028 -0.98881,-0.68099 -0.87381,-1.25237c0.11501,-0.57138 0.69269,-0.93707 1.29028,-0.81679c0.59759,0.12028 0.9888,0.68099 0.8738,1.25237c-0.11501,0.57138 -0.69269,0.93707 -1.29028,0.81679z" fill="#b8814a" stroke="none"></path><path d="M237.28144,181.81015l-0.20245,0.33015c0,0 -0.33442,0.10061 -0.42471,0.04524c-0.08341,-0.05114 -0.09803,-0.36579 -0.09803,-0.36579l0.20245,-0.33014z" fill="#b8814a" stroke="none"></path><path d="M238.61005,181.68892l0.18625,0.33955c0,0 -0.07852,0.34029 -0.17137,0.39122c-0.08578,0.04706 -0.36624,-0.09632 -0.36624,-0.09632l-0.18625,-0.33954z" fill="#b8814a" stroke="none"></path><path d="M238.52478,181.77052l0.12098,0.22054c0,0 -0.051,0.22103 -0.11131,0.25412c-0.05572,0.03056 -0.23789,-0.06256 -0.23789,-0.06256l-0.12098,-0.22055z" fill="#c8a582" stroke="none"></path><path d="M237.15384,181.79443l-0.09996,0.23084c0,0 -0.20584,0.0953 -0.26897,0.06797c-0.05832,-0.02526 -0.09653,-0.22625 -0.09653,-0.22625l0.09996,-0.23084z" fill="#c8a582" stroke="none"></path><path d="M237.14545,181.54782c-0.10047,-0.02023 -0.16482,-0.12161 -0.14372,-0.22645c0.0211,-0.10484 0.11966,-0.17343 0.22013,-0.15321c0.10047,0.02023 0.16481,0.1216 0.14371,0.22644c-0.0211,0.10484 -0.11965,0.17344 -0.22013,0.15322z" fill="#000000" stroke="none"></path><path d="M237.2114,181.49081c-0.02926,-0.00589 -0.04781,-0.03637 -0.04143,-0.06807c0.00638,-0.0317 0.03528,-0.05262 0.06454,-0.04673c0.02926,0.00589 0.0478,0.03636 0.04142,0.06806c-0.00638,0.0317 -0.03527,0.05263 -0.06453,0.04674z" fill="#ffffff" stroke="none"></path><path d="M237.05579,181.38255c-0.01165,-0.00234 -0.01919,-0.0137 -0.01685,-0.02534c0.00234,-0.01165 0.0137,-0.01919 0.02534,-0.01684c0.01165,0.00234 0.01919,0.01369 0.01684,0.02533c-0.00234,0.01165 -0.01369,0.01919 -0.02534,0.01685z" fill="#ffffff" stroke="none"></path><path d="M237.14449,181.3053c-0.01165,-0.00234 -0.01919,-0.0137 -0.01684,-0.02534c0.00234,-0.01165 0.01369,-0.01919 0.02534,-0.01684c0.01165,0.00234 0.01919,0.01369 0.01685,0.02534c-0.00234,0.01165 -0.0137,0.01919 -0.02534,0.01685z" fill="#ffffff" stroke="none"></path><path d="M237.26965,181.31951c-0.01165,-0.00234 -0.01919,-0.01369 -0.01685,-0.02534c0.00234,-0.01165 0.01369,-0.01919 0.02534,-0.01685c0.01165,0.00234 0.01919,0.0137 0.01685,0.02534c-0.00234,0.01165 -0.0137,0.01919 -0.02534,0.01685z" fill="#ffffff" stroke="none"></path><g stroke="none"><path d="M238.3165,181.54316c-0.02111,0.10484 -0.11966,0.17344 -0.22013,0.15321c-0.10047,-0.02023 -0.16481,-0.12161 -0.14371,-0.22645c0.0211,-0.10484 0.11965,-0.17344 0.22013,-0.15321c0.10047,0.02023 0.16482,0.12161 0.14372,0.22645z" fill="#000000"></path><path d="M238.22686,181.59262c-0.00638,0.0317 -0.03528,0.05262 -0.06454,0.04673c-0.02927,-0.00589 -0.04781,-0.03636 -0.04143,-0.06806c0.00638,-0.0317 0.03528,-0.05262 0.06454,-0.04673c0.02926,0.00589 0.04781,0.03636 0.04143,0.06806z" fill="#ffffff"></path><path d="M238.0067,181.53109c-0.01165,-0.00234 -0.01919,-0.01369 -0.01684,-0.02534c0.00234,-0.01165 0.01369,-0.01919 0.02533,-0.01685c0.01165,0.00234 0.01919,0.0137 0.01685,0.02534c-0.00234,0.01165 -0.0137,0.01919 -0.02534,0.01685z" fill="#ffffff"></path><path d="M238.09541,181.45385c-0.01165,-0.00234 -0.01919,-0.01369 -0.01685,-0.02534c0.00234,-0.01165 0.01369,-0.01919 0.02533,-0.01685c0.01165,0.00234 0.01919,0.0137 0.01685,0.02534c-0.00234,0.01165 -0.01369,0.01919 -0.02534,0.01684z" fill="#ffffff"></path><path d="M238.22057,181.46807c-0.01165,-0.00234 -0.01919,-0.0137 -0.01685,-0.02534c0.00234,-0.01165 0.01369,-0.01919 0.02533,-0.01685c0.01165,0.00234 0.01919,0.0137 0.01685,0.02534c-0.00234,0.01165 -0.01369,0.01919 -0.02533,0.01685z" fill="#ffffff"></path></g><path d="M237.74568,180.95716l-0.03821,0.18984c0,0 -0.07758,0.05621 -0.11374,0.04893c-0.03616,-0.00728 -0.10321,-0.0926 -0.10321,-0.0926l0.03821,-0.18983z" fill="#000000" stroke="none"></path><path d="M237.3398,180.70835c0.01824,-0.01551 0.03966,-0.0277 0.0637,-0.03545c0.10179,-0.03281 0.212,0.02653 0.24619,0.13256c0.02686,0.08332 -0.00122,0.17067 -0.06387,0.22019" fill="none" stroke="#000000"></path><path d="M237.68494,181.00001c-0.03862,-0.0699 -0.03072,-0.16131 0.02628,-0.22774c0.07254,-0.08454 0.19714,-0.09663 0.2783,-0.02699c0.01917,0.01645 0.0342,0.03598 0.04502,0.05733" data-paper-data="{&quot;index&quot;:null}" fill="none" stroke="#000000"></path></g><path d="M238.34423,178.35501c-0.24944,0 -0.45165,-0.09927 -0.45165,-0.22172c0,-0.12246 0.20221,-0.22172 0.45165,-0.22172c0.24944,0 0.45164,0.09926 0.45164,0.22172c0,0.12246 -0.2022,0.22172 -0.45164,0.22172z" data-paper-data="{&quot;index&quot;:null}" fill="#ce9d52" stroke="none" stroke-linecap="butt"></path><path d="M237.86341,177.84463c0,0 0.00629,0.01481 0.01408,0.03315c0.0058,0.01365 0.01243,0.02926 0.01791,0.04216c0.01944,0.04577 0.0733,0.17261 0.0733,0.17261l-0.10279,0.04365l-0.13813,-0.31361z" data-paper-data="{&quot;index&quot;:null}" fill="#e5e5e5" stroke="none" stroke-linecap="butt"></path><path d="M237.98559,177.7189c0,0 0.01164,0.01111 0.02606,0.02487c0.01073,0.01024 0.02299,0.02195 0.03313,0.03163c0.03598,0.03434 0.13564,0.12949 0.13564,0.12949l-0.07712,0.08078l-0.25098,-0.23332z" data-paper-data="{&quot;index&quot;:null}" fill="#e5e5e5" stroke="none" stroke-linecap="butt"></path><path d="M238.27706,177.62499c0,0 0.004,0.01559 0.00894,0.03489c0.00368,0.01436 0.00789,0.03079 0.01137,0.04437c0.01234,0.04817 0.04655,0.18165 0.04655,0.18165l-0.10819,0.02772l-0.08947,-0.3308z" data-paper-data="{&quot;index&quot;:null}" fill="#e5e5e5" stroke="none" stroke-linecap="butt"></path><path d="M238.54735,177.66269c0,0 -0.00272,0.01586 -0.00608,0.03551c-0.0025,0.01462 -0.00536,0.03133 -0.00772,0.04515c-0.00839,0.04902 -0.03163,0.18483 -0.03163,0.18483l-0.11008,-0.01884l0.05331,-0.33851z" data-paper-data="{&quot;index&quot;:null}" fill="#e5e5e5" stroke="none" stroke-linecap="butt"></path><path d="M238.8209,177.76666c0,0 -0.00784,0.01406 -0.01755,0.03146c-0.00723,0.01296 -0.01549,0.02776 -0.02232,0.04c-0.02423,0.04343 -0.09137,0.16375 -0.09137,0.16375l-0.09752,-0.05442l0.16299,-0.30144z" data-paper-data="{&quot;index&quot;:null}" fill="#e5e5e5" stroke="none" stroke-linecap="butt"></path><path d="M238.33891,178.20451c-0.06356,0 -0.11508,-0.02944 -0.11508,-0.06576c0,-0.03632 0.05152,-0.06575 0.11508,-0.06575c0.06356,0 0.11507,0.02944 0.11507,0.06575c0,0.03632 -0.05151,0.06576 -0.11507,0.06576z" data-paper-data="{&quot;index&quot;:null}" fill="#674100" stroke="#674100" stroke-linecap="butt"></path><path d="M238.1252,177.96121l0.11179,0.16439l-0.31564,-0.0263" data-paper-data="{&quot;index&quot;:null}" fill="none" stroke="#674100" stroke-linecap="round"></path><path d="M238.28302,177.9086l0.01315,0.17754" data-paper-data="{&quot;index&quot;:null}" fill="none" stroke="#674100" stroke-linecap="round"></path><path d="M238.34878,178.08615l0.11836,-0.17754" data-paper-data="{&quot;index&quot;:null}" fill="none" stroke="#674100" stroke-linecap="round"></path><path d="M238.62495,177.99409l-0.19069,0.13809" data-paper-data="{&quot;index&quot;:null}" fill="none" stroke="#674100" stroke-linecap="round"></path></g></g></svg>