<svg version="1.1" xmlns="http://www.w3.org/2000/svg" xmlns:xlink="http://www.w3.org/1999/xlink" width="125.23913" height="94.44262" viewBox="0,0,125.23913,94.44262"><defs><linearGradient x1="172.25" y1="180.25" x2="310.25" y2="180.25" gradientUnits="userSpaceOnUse" id="color-1"><stop offset="0" stop-color="#51ca69"></stop><stop offset="1" stop-color="#59de5b"></stop></linearGradient><linearGradient x1="240.57743" y1="145.61057" x2="240.57743" y2="214.77439" gradientUnits="userSpaceOnUse" id="color-2"><stop offset="0" stop-color="#ce5252"></stop><stop offset="1" stop-color="#ff7966"></stop></linearGradient></defs><g transform="translate(-177.38043,-132.77869)"><g data-paper-data="{&quot;isPaintingLayer&quot;:true}" fill-rule="nonzero" stroke="none" stroke-linecap="butt" stroke-linejoin="miter" stroke-miterlimit="10" stroke-dasharray="" stroke-dashoffset="0" style="mix-blend-mode: normal"><path d="" fill="url(#color-1)" stroke-width="NaN"></path><path d="M177.38043,227.22131v-94.44262h125.23913v94.44262z" fill-opacity="0.46774" fill="#000000" stroke-width="0"></path><path d="M185.3362,214.77439v-69.16382h110.48247v69.16382z" fill="url(#color-2)" stroke-width="NaN"></path><path d="M186.49107,213.04209v-64.03107h51.96911v64.03107z" fill="#ffffff" stroke-width="0"></path><path d="M242.43806,213.1704v-64.03107h51.84079v64.03107z" fill="#ffffff" stroke-width="0"></path><path d="M238.11799,205.15048v-1.62537c0,0 1.86825,-2.30974 2.65192,-2.30974c0.81217,0 2.13865,2.30974 2.13865,2.30974v1.62537c0,0 -1.41202,-2.30974 -2.22419,-2.30974c-0.78367,0 -2.56638,2.30974 -2.56638,2.30974z" fill="#ce7700" stroke-width="0"></path><path d="M237.9469,179.40118v-1.62537c0,0 1.86826,-2.30974 2.65192,-2.30974c0.81217,0 2.13865,2.30974 2.13865,2.30974v1.62537c0,0 -1.41202,-2.30974 -2.22419,-2.30974c-0.78367,0 -2.56638,2.30974 -2.56638,2.30974z" fill="#ce7700" stroke-width="0"></path><path d="M238.11799,155.02061v-1.62537c0,0 1.86825,-2.30974 2.65192,-2.30974c0.81217,0 2.13865,2.30974 2.13865,2.30974v1.62537c0,0 -1.41202,-2.30974 -2.22419,-2.30974c-0.78367,0 -2.56638,2.30974 -2.56638,2.30974z" fill="#ce7700" stroke-width="0"></path><text transform="translate(194.83179,154.27208) scale(0.12832,0.12832)" font-size="40" xml:space="preserve" fill="#000000" fill-rule="nonzero" stroke="none" stroke-width="1" stroke-linecap="butt" stroke-linejoin="miter" stroke-miterlimit="10" stroke-dasharray="" stroke-dashoffset="0" font-family="Handwriting" font-weight="normal" text-anchor="start" style="mix-blend-mode: normal"><tspan x="0" dy="0">Code to Door</tspan></text><text transform="translate(187.64594,159.90207) scale(0.09078,0.09078)" font-size="40" xml:space="preserve" fill="#000000" fill-rule="nonzero" stroke="none" stroke-width="1" stroke-linecap="butt" stroke-linejoin="miter" stroke-miterlimit="10" stroke-dasharray="" stroke-dashoffset="0" font-family="Handwriting" font-weight="normal" text-anchor="start" style="mix-blend-mode: normal"><tspan x="0" dy="0">If you're reading this I got</tspan><tspan x="0" dy="46.150000000000006px">caught captive by- never mind.</tspan><tspan x="0" dy="46.150000000000006px">The Code is a 4-number-digit</tspan><tspan x="0" dy="46.150000000000006px">and can be found by pressing</tspan><tspan x="0" dy="46.150000000000006px">E onto bookshelves or the</tspan><tspan x="0" dy="46.150000000000006px">"Book" symbol on Mobile.</tspan></text><text transform="translate(186.87602,211.89171) scale(0.05008,0.05008)" font-size="40" xml:space="preserve" fill="#c3c3c3" fill-rule="nonzero" stroke="none" stroke-width="1" stroke-linecap="butt" stroke-linejoin="miter" stroke-miterlimit="10" stroke-dasharray="" stroke-dashoffset="0" font-family="Monospace" font-weight="normal" text-anchor="start" style="mix-blend-mode: normal"><tspan x="0" dy="0">Property of Humans Inc</tspan></text><text transform="translate(259.13729,157.14973) scale(0.12832,0.12832)" font-size="40" xml:space="preserve" fill="#000000" fill-rule="nonzero" stroke="none" stroke-width="1" stroke-linecap="butt" stroke-linejoin="miter" stroke-miterlimit="10" stroke-dasharray="" stroke-dashoffset="0" font-family="Handwriting" font-weight="normal" text-anchor="start" style="mix-blend-mode: normal"><tspan x="0" dy="0">Code:</tspan></text><text transform="translate(244.124,162.11558) scale(0.07901,0.07901)" font-size="40" xml:space="preserve" fill="#0dab00" fill-rule="nonzero" stroke="none" stroke-width="1" stroke-linecap="butt" stroke-linejoin="miter" stroke-miterlimit="10" stroke-dasharray="" stroke-dashoffset="0" font-family="Marker" font-weight="normal" text-anchor="start" style="mix-blend-mode: normal"><tspan x="0" dy="0">Look on the List of numbers</tspan><tspan x="0" dy="46.150000000000006px">that correspond with the shape</tspan><tspan x="0" dy="46.150000000000006px">once you find books.</tspan></text><text transform="translate(249.91196,179.62288) scale(0.24675,0.24675)" font-size="40" xml:space="preserve" fill="#3aff00" fill-rule="nonzero" stroke="none" stroke-width="1" stroke-linecap="butt" stroke-linejoin="miter" stroke-miterlimit="10" stroke-dasharray="" stroke-dashoffset="0" font-family="Serif" font-weight="normal" text-anchor="start" style="mix-blend-mode: normal"><tspan x="0" dy="0">▶🟧☂⬠</tspan></text></g></g></svg>