<svg version="1.1" xmlns="http://www.w3.org/2000/svg" xmlns:xlink="http://www.w3.org/1999/xlink" width="36.52349" height="36.59008" viewBox="0,0,36.52349,36.59008"><g transform="translate(-60.71342,-6.72162)"><g data-paper-data="{&quot;isPaintingLayer&quot;:true}" fill-rule="nonzero" stroke-linejoin="miter" stroke-miterlimit="10" stroke-dasharray="" stroke-dashoffset="0" style="mix-blend-mode: normal"><path d="M64.99988,31.06217c0,-5.7282 0,-15.6151 0,-18.88251c0,-2.06504 0.87292,-4.45804 1.84235,-4.45804c2.98321,0 18.51126,0 23.95871,0c1.18338,0 1.89105,1.65955 1.89105,4.11262c0,5.78032 0,15.96659 0,19.22792c0,1.97707 -0.72717,4.22776 -1.93975,4.22776c-5.47769,0 -20.86091,0 -23.86132,0c-0.99211,0 -1.89105,-1.71318 -1.89105,-4.22776z" fill-opacity="0.62097" fill="#291800" stroke="#fff4ce" stroke-width="2" stroke-linecap="butt"></path><g><path d="M69.34592,32.25576v-10.5h4.5l-2,10.5z" fill="#fff4ce" stroke="none" stroke-width="0" stroke-linecap="butt"></path><path d="M68.09592,32.75576v-1.18085h4.625v1.18085z" fill="#fff4ce" stroke="none" stroke-width="0" stroke-linecap="butt"></path><path d="M69.09355,23.81931l-0.91091,-5.42404l11.09463,-1.86322l0.91091,5.42404z" fill="#fff4ce" stroke="none" stroke-width="0" stroke-linecap="butt"></path><path d="M71.25,20.88867c0,1.00101 -1.06333,1.8125 -2.375,1.8125c-1.31167,0 -2.375,-0.81149 -2.375,-1.8125c0,-1.00101 1.06333,-1.8125 2.375,-1.8125c1.31167,0 2.375,0.81149 2.375,1.8125z" fill="#fff4ce" stroke="none" stroke-width="0" stroke-linecap="butt"></path><path d="M79.8659,22.30123l-0.99421,-5.9201l6.1957,-3.86348l2.04766,10.68341z" fill="#fff4ce" stroke="none" stroke-width="0" stroke-linecap="butt"></path><path d="M86.15049,24.2503l-2.00814,-11.95755l1.72583,-0.28983l2.00814,11.95755z" fill="#fff4ce" stroke="none" stroke-width="0" stroke-linecap="butt"></path><path d="M89.5,11.95117l-2.375,2" fill="none" stroke="#880000" stroke-width="0.5" stroke-linecap="round"></path><path d="M89.375,20.95117l1.875,2.375" fill="none" stroke="#880000" stroke-width="0.5" stroke-linecap="round"></path><path d="M88.25,17.20117l3.125,-0.375" fill="none" stroke="#880000" stroke-width="0.5" stroke-linecap="round"></path><path d="M87.75,17.45117c0,0.9665 -0.44772,1.75 -1,1.75c-0.55228,0 -1,-0.7835 -1,-1.75c0,-0.9665 0.44772,-1.75 1,-1.75c0.55228,0 1,0.7835 1,1.75z" fill="#fff4ce" stroke="none" stroke-width="0" stroke-linecap="butt"></path></g><text transform="translate(60.78753,41.64422) scale(0.14822,0.14822)" font-size="40" xml:space="preserve" fill="#fff4ce" fill-rule="nonzero" stroke="none" stroke-width="1" stroke-linecap="butt" stroke-linejoin="miter" stroke-miterlimit="10" stroke-dasharray="" stroke-dashoffset="0" font-family="Serif" font-weight="normal" text-anchor="start" style="mix-blend-mode: normal"><tspan x="0" dy="0">Announcement</tspan></text></g></g></svg>