<svg version="1.1" xmlns="http://www.w3.org/2000/svg" xmlns:xlink="http://www.w3.org/1999/xlink" width="71.77921" height="169.57552" viewBox="0,0,71.77921,169.57552"><g transform="translate(-204.1104,-95.21224)"><g data-paper-data="{&quot;isPaintingLayer&quot;:true}" fill-rule="nonzero" stroke-linejoin="miter" stroke-miterlimit="10" stroke-dasharray="" stroke-dashoffset="0" style="mix-blend-mode: normal"><g><path d="M269.51879,206.75037c0,0 -0.48041,1.91107 -0.96975,2.02572c-0.59867,0.14024 -2.36084,-1.24547 -2.36084,-1.24547l-2.53418,-7.16888l2.66271,-0.94126l3.202,7.32989z" data-paper-data="{&quot;index&quot;:null}" fill="#f1ad60" stroke="none" stroke-width="0" stroke-linecap="butt"></path><path d="M272.31887,203.66597c0,0 -0.48042,1.91104 -0.96976,2.02569c-0.59867,0.14027 -2.36084,-1.24545 -2.36084,-1.24545l-2.53418,-7.1689l2.66274,-0.94126l3.202,7.32992z" data-paper-data="{&quot;index&quot;:null}" fill="#f1ad60" stroke="none" stroke-width="0" stroke-linecap="butt"></path><path d="M275.81708,201.594c-0.38359,0.48054 -2.62533,0.48196 -2.62533,0.48196l-6.42597,-4.06469l1.50974,-2.38679l7.05031,3.77805c0,0 0.80482,1.79867 0.49126,2.19147z" data-paper-data="{&quot;index&quot;:null}" fill="#f1ad60" stroke="none" stroke-width="0" stroke-linecap="butt"></path><path d="M263.20273,208.62018c0,0 -1.68023,1.02949 -2.11008,0.76906c-0.52589,-0.31859 -0.81565,-2.54154 -0.81565,-2.54154l3.20439,-6.8954l2.56117,1.19019l-2.83986,7.47771z" data-paper-data="{&quot;index&quot;:null}" fill="#f1ad60" stroke="none" stroke-width="0" stroke-linecap="butt"></path><path d="M259.75188,205.09367c0,0 -1.96409,-0.15885 -2.15782,-0.62261c-0.23703,-0.56735 0.83929,-2.53384 0.83929,-2.53384l6.65313,-3.68108l1.36727,2.47118l-6.70191,4.36635z" data-paper-data="{&quot;index&quot;:null}" fill="#f1ad60" stroke="none" stroke-width="0" stroke-linecap="butt"></path><path d="M265.18229,206.0058l-15.7252,-48.82504l-1.33372,-19.14536c0,0 9.95842,18.29583 13.52642,28.14203c3.61537,9.97689 8.02545,31.33249 8.02545,31.33249z" fill="#f1ad60" stroke="none" stroke-width="0" stroke-linecap="butt"></path><path d="M255.29641,168.86531l-8.05128,-13.55202l4.50337,-9.11886l9.96728,18.85715z" fill="#da5757" stroke="none" stroke-width="0" stroke-linecap="butt"></path><path d="M237.29736,97.62791c11.22524,0 20.32512,9.01481 20.32512,20.13516c0,11.12035 -9.09988,20.13516 -20.32512,20.13516c-11.22524,0 -20.32512,-9.01481 -20.32512,-20.13516c0,-11.12035 9.09988,-20.13516 20.32512,-20.13516z" fill="#f1ad60" stroke="none" stroke-width="0" stroke-linecap="butt"></path><path d="M216.55049,217.29917v-81.30047h38.75069v81.30047z" fill="#ff6666" stroke="none" stroke-width="0" stroke-linecap="butt"></path><path d="M250.6106,113.06628c-0.83927,0 -1.51964,-0.68038 -1.51964,-1.51964c0,-0.83927 0.68038,-1.51964 1.51964,-1.51964c0.83927,0 1.51964,0.68038 1.51964,1.51964c0,0.83927 -0.68038,1.51964 -1.51964,1.51964z" fill="#000000" stroke="none" stroke-width="0.5" stroke-linecap="butt"></path><path d="M244.77406,147.39595l-6.07854,-11.01735h12.9169l-5.31872,10.25754z" fill="#ffffff" stroke="none" stroke-width="0" stroke-linecap="butt"></path><path d="M238.24714,256.80968v-40.65024h11.77717v40.65024z" fill="#66a6ff" stroke="none" stroke-width="0" stroke-linecap="butt"></path><path d="M219.2517,257.94943v-40.65024h11.77717v40.65024z" fill="#66a6ff" stroke="none" stroke-width="0" stroke-linecap="butt"></path><path d="M238.24713,264.78776v-10.63745c0,0 3.5922,-8.35799 5.69863,-8.35799c1.80451,0 4.9359,5.74395 8.08741,7.75734c3.38171,2.16043 6.72904,0.60065 6.72904,0.60065v10.63745z" fill="#a06140" stroke="none" stroke-width="0" stroke-linecap="butt"></path><path d="M212.03343,264.40788v-10.63745c0,0 3.34733,1.55978 6.729,-0.60065c3.15154,-2.01339 6.2829,-7.75734 8.08744,-7.75734c2.10643,0 5.69863,8.35799 5.69863,8.35799v10.63745z" data-paper-data="{&quot;index&quot;:null}" fill="#a06140" stroke="none" stroke-width="0" stroke-linecap="butt"></path><path d="M210.37088,209.11679c0,0 1.18681,-21.77388 3.27904,-32.17733c2.06479,-10.2672 9.19309,-29.84001 9.19309,-29.84001l1.5269,19.13096l-8.29313,50.62005z" data-paper-data="{&quot;index&quot;:null}" fill="#f1ad60" stroke="none" stroke-width="0" stroke-linecap="butt"></path><path d="M254.91239,150.79048c1.49674,0 2.71009,3.70745 2.71009,8.28082c0,4.57337 -1.21335,8.28082 -2.71009,8.28082c-1.49674,0 -2.71009,-3.70745 -2.71009,-8.28082c0,-4.57337 1.21335,-8.28082 2.71009,-8.28082z" fill="#da5757" stroke="none" stroke-width="0" stroke-linecap="butt"></path><path d="M221.97225,146.20969c1.88836,0 3.41918,4.6775 3.41918,10.44749c0,5.76999 -1.53082,10.44749 -3.41918,10.44749c-1.88836,0 -3.41918,-4.6775 -3.41918,-10.44749c0,-5.76999 1.53082,-10.44749 3.41918,-10.44749z" fill="#da5757" stroke="none" stroke-width="0" stroke-linecap="butt"></path><path d="M236.04078,216.16713l1.69035,-68.2906" fill="none" stroke="#000000" stroke-width="0.25" stroke-linecap="round"></path><path d="M254.08711,103.23218c0,0 0.38648,0.02127 -0.23174,0.95232c-0.74675,1.12468 0.18694,3.47246 -0.59792,3.47246c-1.97443,0 -8.93521,-2.42534 -14.98442,-2.6841c-9.36557,-0.40061 -18.47794,1.30135 -18.47794,1.30135l0.27654,-7.46682c0,0 13.3117,-3.59515 19.63496,-3.59515c5.90895,0 17.14601,3.59515 17.14601,3.59515c0,0 -2.48892,6.38505 -2.48892,7.19027c0,0.75918 -0.27657,-2.76549 -0.27657,-2.76549z" fill="#000000" stroke="none" stroke-width="0" stroke-linecap="butt"></path><path d="M243.23677,101.89021c3.79027,0.89589 6.70627,2.28487 6.51303,3.10237c-0.19324,0.81751 -3.4225,0.75399 -7.21277,-0.1419c-3.79027,-0.89589 -6.70627,-2.28487 -6.51303,-3.10237c0.19324,-0.81751 3.4225,-0.75399 7.21277,0.1419z" fill="#484343" stroke="none" stroke-width="0" stroke-linecap="butt"></path><path d="M248.55613,222.66248l-0.55309,3.8717" fill="none" stroke="#0035ea" stroke-width="0.05" stroke-linecap="round"></path><path d="M243.8548,239.25541l-0.55309,-5.53099" fill="none" stroke="#0035ea" stroke-width="0.05" stroke-linecap="round"></path><path d="M247.7265,237.87266l-0.55309,6.36061" fill="none" stroke="#0035ea" stroke-width="0.05" stroke-linecap="round"></path><path d="M225.60258,230.95892v7.46682l-0.27654,3.87167" fill="none" stroke="#0035ea" stroke-width="0.05" stroke-linecap="round"></path><path d="M223.11367,219.3439l0.82966,8.29645" fill="none" stroke="#0035ea" stroke-width="0.05" stroke-linecap="round"></path><path d="M227.81499,221.83282v6.08407" fill="none" stroke="#0035ea" stroke-width="0.05" stroke-linecap="round"></path><path d="M221.45438,242.85052l0.55309,-4.42478" fill="none" stroke="#0035ea" stroke-width="0.05" stroke-linecap="round"></path><path d="M243.02517,224.32176l0.27654,-5.25444" fill="none" stroke="#0035ea" stroke-width="0.05" stroke-linecap="round"></path><path d="M246.06721,250.87043l-2.76549,-0.82966" fill="none" stroke="#000000" stroke-width="0.1" stroke-linecap="round"></path><path d="M241.36585,253.35938l2.48895,1.1062" fill="none" stroke="#000000" stroke-width="0.1" stroke-linecap="round"></path><path d="M225.32604,255.84833l2.21241,-3.31858" fill="none" stroke="#000000" stroke-width="0.1" stroke-linecap="round"></path><path d="M222.284,255.01867l3.04204,-3.04204" fill="none" stroke="#000000" stroke-width="0.1" stroke-linecap="round"></path><path d="M212.87884,174.92082l7.05363,-20.12921l5.80877,8.34818l-5.94746,14.59822z" data-paper-data="{&quot;index&quot;:null}" fill="#da5757" stroke="none" stroke-width="0" stroke-linecap="butt"></path><path d="M212.06451,222.00287c-0.49731,-0.0726 -1.13854,-1.93589 -1.13854,-1.93589l2.56694,-7.57568l2.73312,0.71137l-1.9152,7.35844c0,0 -1.63792,1.53058 -2.24632,1.44177z" data-paper-data="{&quot;index&quot;:null}" fill="#f1ad60" stroke="none" stroke-width="0" stroke-linecap="butt"></path><path d="M210.09847,218.95056c-0.49735,-0.0726 -1.13854,-1.93589 -1.13854,-1.93589l2.56694,-7.57568l2.73312,0.71137l-1.91523,7.35844c0,0 -1.63789,1.53058 -2.24632,1.44177z" data-paper-data="{&quot;index&quot;:null}" fill="#f1ad60" stroke="none" stroke-width="0" stroke-linecap="butt"></path><path d="M204.51497,213.23969l6.70341,-4.36403l1.70728,2.24973l-6.05696,4.59653c0,0 -2.23374,0.18929 -2.65681,-0.25691c-0.34583,-0.36471 0.30308,-2.22532 0.30308,-2.22532z" data-paper-data="{&quot;index&quot;:null}" fill="#f1ad60" stroke="none" stroke-width="0" stroke-linecap="butt"></path><path d="M219.54599,221.9796c-0.40614,0.29606 -2.16782,-0.58679 -2.16782,-0.58679l-3.46556,-7.20903l2.45065,-1.40375l3.77927,6.59786c0,0 -0.09963,2.23955 -0.59652,2.60171z" data-paper-data="{&quot;index&quot;:null}" fill="#f1ad60" stroke="none" stroke-width="0" stroke-linecap="butt"></path><path d="M222.61361,216.78166c-0.15358,0.47857 -2.09704,0.80389 -2.09704,0.80389l-7.04898,-3.78049l1.15213,-2.57852l6.94215,3.10188c0,0 1.23966,1.86779 1.05177,2.45324z" data-paper-data="{&quot;index&quot;:null}" fill="#f1ad60" stroke="none" stroke-width="0" stroke-linecap="butt"></path><path d="M223.90198,105.0586c2.11709,0 3.83333,1.04467 3.83333,2.33333c0,1.28866 -5.71625,4.33333 -7.83334,4.33333c-2.11709,0 0.16667,-3.04467 0.16667,-4.33333c0,-1.28866 1.71625,-2.33333 3.83334,-2.33333z" fill="#000000" stroke="none" stroke-width="0" stroke-linecap="butt"></path><path d="M246.31174,125.35647l0.45914,0.49192c1.20521,2.35889 5.37013,3.4093 7.45376,2.36748c0,0 0.44721,-0.22361 0.67082,0.22361c0.2236,0.44721 -0.22361,0.67082 -0.22361,0.67082c-2.6128,1.3064 -7.31292,-0.00716 -8.7881,-2.80038l-0.27912,-0.24634c0,0 -0.35356,-0.35355 0,-0.7071c0.35356,-0.35356 0.70711,0 0.70711,0z" data-paper-data="{&quot;index&quot;:null}" fill="#000000" stroke="none" stroke-width="0.5" stroke-linecap="butt"></path></g></g></g></svg>