<svg version="1.1" xmlns="http://www.w3.org/2000/svg" xmlns:xlink="http://www.w3.org/1999/xlink" width="43.43355" height="63.29319" viewBox="0,0,43.43355,63.29319"><defs><linearGradient x1="238.00579" y1="150.28972" x2="238.00579" y2="153.49407" gradientUnits="userSpaceOnUse" id="color-1"><stop offset="0" stop-color="#ad5400"></stop><stop offset="1" stop-color="#d07b00"></stop></linearGradient><linearGradient x1="238.51108" y1="195.86446" x2="238.51108" y2="207.86737" gradientUnits="userSpaceOnUse" id="color-2"><stop offset="0" stop-color="#8e6c39"></stop><stop offset="1" stop-color="#cc9752"></stop></linearGradient><linearGradient x1="249.76764" y1="183.87112" x2="265.51859" y2="180.77231" gradientUnits="userSpaceOnUse" id="color-3"><stop offset="0" stop-color="#000000"></stop><stop offset="1" stop-color="#777777"></stop></linearGradient><linearGradient x1="249.44583" y1="182.08095" x2="265.19679" y2="178.98216" gradientUnits="userSpaceOnUse" id="color-4"><stop offset="0" stop-color="#000000"></stop><stop offset="1" stop-color="#777777"></stop></linearGradient><linearGradient x1="237.88725" y1="187.63386" x2="237.88725" y2="207.26846" gradientUnits="userSpaceOnUse" id="color-5"><stop offset="0" stop-color="#57dada" stop-opacity="0"></stop><stop offset="1" stop-color="#57dada"></stop></linearGradient></defs><g transform="translate(-222.68221,-143.97527)"><g data-paper-data="{&quot;isPaintingLayer&quot;:true}" fill-rule="nonzero" stroke-linejoin="miter" stroke-miterlimit="10" stroke-dasharray="" stroke-dashoffset="0" style="mix-blend-mode: normal"><g><g><path d="M246.09785,160.52236c0,4.37224 -3.41781,7.91663 -7.63389,7.91663c-4.21608,0 -7.63389,-3.54439 -7.63389,-7.91663c0,-4.37224 3.41781,-7.91663 7.63389,-7.91663c4.21608,0 7.63389,3.54439 7.63389,7.91663z" fill="#fff3c0" stroke="#000000" stroke-width="0" stroke-linecap="butt"></path><path d="M234.71769,158.61389c0,-0.15615 0.12659,-0.28274 0.28274,-0.28274c0.15615,0 0.28274,0.12659 0.28274,0.28274c0,0.15615 -0.12659,0.28274 -0.28274,0.28274c-0.15615,0 -0.28274,-0.12659 -0.28274,-0.28274z" fill="#000000" stroke="none" stroke-width="0.5" stroke-linecap="butt"></path><path d="M241.07927,158.89663c0,-0.15615 0.12659,-0.28274 0.28274,-0.28274c0.15615,0 0.28274,0.12659 0.28274,0.28274c0,0.15615 -0.12659,0.28274 -0.28274,0.28274c-0.15615,0 -0.28274,-0.12659 -0.28274,-0.28274z" fill="#000000" stroke="none" stroke-width="0.5" stroke-linecap="butt"></path><path d="M231.60759,196.07651v-29.40462h13.71273v29.40462z" fill="#267520" stroke="none" stroke-width="0" stroke-linecap="butt"></path><path d="M234.28309,163.57835l1.88491,0.65972" fill="none" stroke="#000000" stroke-width="1" stroke-linecap="round"></path><path d="M233.15214,155.002l2.35614,-2.0734c0,0 2.12101,-0.47123 3.1101,-0.47123c1.0205,0 2.92161,0.47123 2.92161,0.47123l2.63887,2.45039z" fill="#000000" stroke="none" stroke-width="0" stroke-linecap="butt"></path><path d="M244.55587,151.8919c0,0.88486 -2.93256,1.60218 -6.55007,1.60218c-3.6175,0 -6.55007,-0.71732 -6.55007,-1.60218c0,-0.88486 2.93256,-1.60218 6.55007,-1.60218c3.6175,0 6.55007,0.71732 6.55007,1.60218z" fill="url(#color-1)" stroke="none" stroke-width="0" stroke-linecap="butt"></path><path d="M232.49243,151.42067v-5.1835c0,0 1.76919,-0.68228 3.4607,-0.45944c0.77561,0.10218 1.44065,-1.80246 2.00554,-1.80246c0.68535,0 1.97679,2.1612 2.86138,2.03341c1.53596,-0.2219 2.69912,0.22849 2.69912,0.22849v5.1835z" fill="#ad5400" stroke="none" stroke-width="0" stroke-linecap="butt"></path><path d="M245.43615,194.04863c0,0 -0.64519,-0.30822 -0.92361,-0.69637c-1.42027,-1.98004 -13.28068,-18.8276 -13.28068,-18.8276l0.68398,-4.69394l13.35608,16.83797z" fill="#bd8a33" stroke="none" stroke-width="0" stroke-linecap="butt"></path><path d="M238.53464,171.69047l-3.81695,-5.23063h7.20979z" fill="#ffffff" stroke="none" stroke-width="0" stroke-linecap="butt"></path><path d="M241.58342,172.87137l-1.14031,-0.68419l1.14031,-0.59296l0.91224,-1.59643l1.18591,1.59643l1.18591,0.54734l-1.18591,0.72979l0.62411,1.35772c0,0 -0.93974,-0.86437 -1.56269,-0.93174c-0.54725,-0.05919 -1.20519,0.89677 -1.20519,0.89677z" fill="#ffd300" stroke="none" stroke-width="0" stroke-linecap="butt"></path><path d="" fill="#fff3c0" stroke="none" stroke-width="0" stroke-linecap="butt"></path><path d="" fill="#fff3c0" stroke="none" stroke-width="0" stroke-linecap="butt"></path><path d="M237.05963,150.15818l-1.14031,-0.68418l1.14031,-0.59296l0.91224,-1.59643l1.18591,1.59643l1.18591,0.54734l-1.18591,0.72979l0.62411,1.35772c0,0 -0.93974,-0.86437 -1.56269,-0.93174c-0.54725,-0.05919 -1.20519,0.89677 -1.20519,0.89677z" fill="#ffd300" stroke="none" stroke-width="0" stroke-linecap="butt"></path><path d="" fill="#fff3c0" stroke="none" stroke-width="0" stroke-linecap="butt"></path><path d="M232.24374,186.67551v-3.39284h2.54463v3.39284c0,0 -0.88777,0.75396 -1.31943,0.75396c-0.41596,0 -1.2252,-0.75396 -1.2252,-0.75396z" fill="#2f9428" stroke="none" stroke-width="0" stroke-linecap="butt"></path><path d="M232.24374,183.37692l2.26189,-0.09425" fill="none" stroke="#000000" stroke-width="0.5" stroke-linecap="round"></path><path d="M231.39553,195.86446h14.23108v7.54102c-2.23328,0.39169 -4.46457,0.79261 -6.69481,1.18861c-0.21684,-0.30805 -0.42282,-0.6245 -0.61473,-0.94428c-0.26557,0.41099 -0.55275,0.81608 -0.85426,1.20432c-0.97876,0.17304 -1.95729,0.34751 -2.93564,0.52301c-1.044,-0.00033 -2.08796,-0.00361 -3.13164,-0.00818z" fill="url(#color-2)" stroke="none" stroke-width="NaN" stroke-linecap="butt"></path><path d="M238.39327,195.59351l-0.18849,8.19937" fill="none" stroke="#000000" stroke-width="0.5" stroke-linecap="round"></path><path d="M239.14724,196.8187l-1.50793,0.09425" fill="none" stroke="#000000" stroke-width="0.5" stroke-linecap="round"></path><path d="M237.54506,198.13814l1.88491,-0.09424" fill="none" stroke="#000000" stroke-width="0.5" stroke-linecap="round"></path><path d="M239.52422,199.26909l-2.07341,0.28274" fill="none" stroke="#000000" stroke-width="0.5" stroke-linecap="round"></path><path d="M237.07384,201.15399l2.0734,-0.28274" fill="none" stroke="#000000" stroke-width="0.5" stroke-linecap="round"></path><path d="M236.88534,203.13315l2.16765,-0.65972" fill="none" stroke="#000000" stroke-width="0.5" stroke-linecap="round"></path><path d="M225.62477,192.62258l2.26412,-12.8073l4.87235,0.86135l-2.26412,12.8073z" fill="#fff3c0" stroke="#000000" stroke-width="0.5" stroke-linecap="butt"></path><path d="M227.89821,182.5l-1.9044,-8.84488c0,0 5.10999,-4.72047 5.27945,-4.75994c0.82756,-0.19275 0.4058,3.43574 0.4058,3.43574l1.05619,9.12761z" fill="#267520" stroke="#000000" stroke-width="0.5" stroke-linecap="butt"></path><g stroke="#000000" stroke-width="0.5" stroke-linecap="butt"><path d="M242.86667,177.97787l4.77696,1.28932l-2.74322,10.16372c-0.49607,-0.00021 -1.02457,0.00777 -1.63528,0.00129c-0.90977,-0.00966 -2.15812,-0.75287 -3.04194,-0.97383c-0.05888,-0.01472 -0.11675,-0.02898 -0.17369,-0.04278z" fill="#fff3c0"></path><path d="M242.75615,178.38733l2.3576,-8.73501c0,0 -0.93539,-2.43118 -0.166,-2.22352c0.81974,0.22125 4.94296,3.51284 4.94296,3.51284l-2.3576,8.73501z" fill="#267520"></path></g><g data-paper-data="{&quot;index&quot;:null}"><path d="M223.17037,193.56694c0,0 2.28144,-3.52124 3.38649,-4.87221c1.13234,-1.38433 3.32769,-3.33616 3.32769,-3.33616l2.54489,3.32192c0,0 -1.49993,1.38956 -2.54409,2.31742c-1.11439,0.99025 -2.21125,4.37726 -2.21125,4.37726c0,0 -1.31195,-0.3796 -1.61264,-0.47514c-0.50838,-0.16153 -2.89109,-1.3331 -2.89109,-1.3331z" fill="#eaad81" stroke="none" stroke-width="0" stroke-linecap="butt"></path><path d="M230.38628,188.85682l-0.69456,-3.53038c0,0 2.98461,0.68217 4.44972,0.39393c1.60064,-0.3149 4.78358,-2.21047 4.78358,-2.21047l0.69456,3.53038c0,0 -1.73102,-1.08917 -2.77322,-0.26427c-0.62481,0.49454 -0.79009,2.09361 -1.35815,2.20538c-0.73794,0.14518 -1.44751,-0.1881 -2.56329,-0.46721c-1.24428,-0.31124 -2.53864,0.34263 -2.53864,0.34263z" fill="#eaad81" stroke="none" stroke-width="0" stroke-linecap="butt"></path><path d="M239.48381,187.06699c0.11802,0.59993 -0.5462,1.23578 -1.48359,1.42019c-0.93739,0.18442 -1.79299,-0.15242 -1.91101,-0.75235c-0.11802,-0.59993 0.5462,-1.23578 1.48359,-1.42019c0.93739,-0.18442 1.79299,0.15242 1.91101,0.75235z" fill="none" stroke="#000000" stroke-width="0.5" stroke-linecap="butt"></path><path d="M239.16103,186.14322l-0.42742,-2.17254c0,0 1.53479,-1.85338 3.23653,-2.18818c1.51994,-0.29903 5.46863,-0.51316 6.89394,-0.41483c0.31873,0.02198 0.59647,0.49263 0.59647,0.49263l0.59032,2.51927z" fill="#000000" stroke="#000000" stroke-width="0.5" stroke-linecap="butt"></path><path d="M238.12597,187.33413l-1.46691,0.42963l0.38507,-1.62719" fill="none" stroke="#000000" stroke-width="0.5" stroke-linecap="round"></path><path d="M227.22063,195.92318l-3.93705,-2.31411l0.98174,-1.67026l3.93705,2.31411z" fill="#000000" stroke="none" stroke-width="0" stroke-linecap="butt"></path><path d="M245.59584,182.26802c0.05163,0.26247 -0.63601,0.61877 -1.53591,0.79581c-0.8999,0.17704 -1.67127,0.10779 -1.72291,-0.15468c-0.05163,-0.26247 0.63601,-0.61877 1.53591,-0.79581c0.8999,-0.17704 1.67127,-0.10779 1.72291,0.15468z" fill="#d4d4d4" stroke="none" stroke-width="NaN" stroke-linecap="butt"></path><path d="M249.88328,184.45887l-0.23127,-1.17552l15.75094,-3.09879l0.23127,1.17552z" fill="url(#color-3)" stroke="#000000" stroke-width="0.5" stroke-linecap="butt"></path><path d="M249.54354,182.57755l-0.1954,-0.99319l15.75094,-3.09879l0.1954,0.99319z" fill="url(#color-4)" stroke="#000000" stroke-width="0.5" stroke-linecap="butt"></path><path d="M255.21048,183.6517c0,0 -0.74575,-0.42143 -0.79956,-0.69492c-0.0538,-0.27349 0.47673,-0.94602 0.47673,-0.94602l6.10796,-1.20166c0,0 0.71713,0.27595 0.7637,0.5126c0.05836,0.29666 -0.44085,1.12835 -0.44085,1.12835z" fill="#a78100" stroke="#000000" stroke-width="0.5" stroke-linecap="butt"></path><path d="M264.53752,178.59719l-1.51242,0.01347l0.3168,-2.24025" fill="none" stroke="#000000" stroke-width="0.5" stroke-linecap="round"></path><path d="M263.72003,177.81111l-0.54549,-0.36614" fill="none" stroke="#000000" stroke-width="0.5" stroke-linecap="round"></path><path d="M265.50296,178.69133c0.06933,0.35244 0.0031,0.66224 -0.14795,0.69195c-0.15104,0.02972 -0.3297,-0.2319 -0.39904,-0.58434c-0.06933,-0.35244 -0.0031,-0.66224 0.14795,-0.69195c0.15104,-0.02972 0.3297,0.2319 0.39904,0.58434z" fill="#000000" stroke="#000000" stroke-width="0.5" stroke-linecap="butt"></path><path d="M265.86576,180.91297c0.06933,0.35244 0.0031,0.66224 -0.14795,0.69196c-0.15104,0.02972 -0.3297,-0.2319 -0.39904,-0.58434c-0.06933,-0.35244 -0.0031,-0.66224 0.14795,-0.69196c0.15104,-0.02972 0.3297,0.2319 0.39904,0.58434z" fill="#000000" stroke="#000000" stroke-width="0.5" stroke-linecap="butt"></path></g><path d="M226.54667,196.0294l-1.40786,-3.54782l8.27824,-3.28502l1.40786,3.54782z" fill="#fff3c0" stroke="#000000" stroke-width="0.5" stroke-linecap="butt"></path></g><path d="M233.47297,157.67241l2.33258,-0.49479" fill="none" stroke="#000000" stroke-width="0.5" stroke-linecap="round"></path><path d="M242.87396,157.53104l-2.47395,-0.28274" fill="none" stroke="#000000" stroke-width="0.5" stroke-linecap="round"></path><path d="M236.86581,163.50386c0,0.80027 -0.72787,1.44903 -1.62574,1.44903c-0.89787,0 -1.62574,-0.64876 -1.62574,-1.44903c0,-0.80027 0.72787,-1.44903 1.62574,-1.44903c0.89787,0 1.62574,0.64876 1.62574,1.44903z" fill="#ff6666" stroke="#000000" stroke-width="0.5" stroke-linecap="butt"></path><path d="M255.45575,163.04441v0z" fill="#ff6666" stroke="#000000" stroke-width="0.5" stroke-linecap="butt"></path></g><path d="M222.68221,207.26846v-19.63461h30.41009v19.63461z" fill="url(#color-5)" stroke="none" stroke-width="0" stroke-linecap="butt"></path></g></g></svg>