<svg version="1.1" xmlns="http://www.w3.org/2000/svg" xmlns:xlink="http://www.w3.org/1999/xlink" width="41.1351" height="36.15734" viewBox="0,0,41.1351,36.15734"><defs><linearGradient x1="223.03223" y1="167.37774" x2="260.12367" y2="164.33918" gradientUnits="userSpaceOnUse" id="color-1"><stop offset="0" stop-color="#ffc200"></stop><stop offset="1" stop-color="#ab7400"></stop></linearGradient></defs><g transform="translate(-221.68246,-160.54172)"><g data-paper-data="{&quot;isPaintingLayer&quot;:true}" fill-rule="nonzero" stroke-linejoin="miter" stroke-miterlimit="10" stroke-dasharray="" stroke-dashoffset="0" style="mix-blend-mode: normal"><path d="M259.14969,169.97554l2.86593,8.35172l-39.54986,-0.37962l2.00615,-7.97209z" data-paper-data="{&quot;index&quot;:null}" fill="#574323" stroke="#ffc200" stroke-width="0.5" stroke-linecap="butt"></path><text transform="translate(237.82497,181.98767) scale(0.05676,0.05676)" font-size="40" xml:space="preserve" fill="#ffffff" fill-rule="nonzero" stroke="none" stroke-width="1" stroke-linecap="butt" stroke-linejoin="miter" stroke-miterlimit="10" stroke-dasharray="" stroke-dashoffset="0" font-family="Sans Serif" font-weight="normal" text-anchor="start" style="mix-blend-mode: normal"><tspan x="0" dy="0">xAmt8</tspan></text><path d="M222.68247,192.95978c0,-3.71149 0,-10.11752 0,-12.23459c0,-1.33801 1.23364,-2.88851 2.60366,-2.88851c4.21594,0 26.1605,0 33.85897,0c1.67239,0 2.67247,1.07528 2.67247,2.6647c0,3.74526 0,10.34527 0,12.45839c0,1.281 -1.02765,2.7393 -2.74129,2.7393c-7.74118,0 -29.48109,0 -33.72133,0c-1.40207,0 -2.67247,-1.11002 -2.67247,-2.7393z" fill="#896a37" stroke="#ffc200" stroke-width="2" stroke-linecap="butt"></path><path d="M261.20306,185.4808l-37.62555,-0.40986" fill="none" stroke="#71572d" stroke-width="0.5" stroke-linecap="round"></path><path d="M223.16765,189.4155l38.28134,0.65578" fill="none" stroke="#71572d" stroke-width="0.5" stroke-linecap="round"></path><path d="M223.87803,181.64169l37.46161,0.49184" data-paper-data="{&quot;index&quot;:null}" fill="none" stroke="#71572d" stroke-width="0.5" stroke-linecap="round"></path><path d="M240.79182,184.5791v-2.13129h1.63945v2.13129z" fill="#ffc200" stroke="none" stroke-width="0" stroke-linecap="butt"></path><path d="M243.33297,181.17722c0,0.83754 -0.75235,1.5165 -1.68044,1.5165c-0.92809,0 -1.68044,-0.67896 -1.68044,-1.5165c0,-0.83754 0.75236,-1.5165 1.68044,-1.5165c0.92809,0 1.68044,0.67896 1.68044,1.5165z" fill="#ffc200" stroke="none" stroke-width="0" stroke-linecap="butt"></path><path d="M224.15951,188.04825l1.83934,1.53251v0l-1.90957,0.76165z" fill="#ffc200" stroke="none" stroke-width="0" stroke-linecap="butt"></path><path d="M261.17569,194.10157l-37.54358,-0.08197" data-paper-data="{&quot;index&quot;:null}" fill="none" stroke="#71572d" stroke-width="0.5" stroke-linecap="round"></path><path d="M223.9272,183.96322l1.83934,1.53251v0l-1.90957,0.76165z" fill="#ffc200" stroke="none" stroke-width="0" stroke-linecap="butt"></path><path d="M223.61292,180.28806l1.83934,1.53251v0l-1.90957,0.76166z" fill="#ffc200" stroke="none" stroke-width="0" stroke-linecap="butt"></path><path d="M260.51359,195.26079l-1.90957,-0.76165v0l1.83934,-1.53251z" data-paper-data="{&quot;index&quot;:null}" fill="#ffc200" stroke="none" stroke-width="0" stroke-linecap="butt"></path><path d="M260.82786,190.68392l-1.90957,-0.76165v0l1.83934,-1.53251z" data-paper-data="{&quot;index&quot;:null}" fill="#ffc200" stroke="none" stroke-width="0" stroke-linecap="butt"></path><path d="M261.06018,186.5989l-1.90957,-0.76165v0l1.83934,-1.53251z" data-paper-data="{&quot;index&quot;:null}" fill="#ffc200" stroke="none" stroke-width="0" stroke-linecap="butt"></path><path d="M261.37446,182.92373l-1.90958,-0.76166v0l1.83934,-1.53251z" data-paper-data="{&quot;index&quot;:null}" fill="#ffc200" stroke="none" stroke-width="0" stroke-linecap="butt"></path><path d="M242.64641,181.2491c0,0.50109 -0.44553,0.90731 -0.99512,0.90731c-0.54959,0 -0.99512,-0.40621 -0.99512,-0.90731c0,-0.50109 0.44553,-0.90732 0.99512,-0.90732c0.54959,0 0.99512,0.40623 0.99512,0.90732z" fill="#838383" stroke="none" stroke-width="0" stroke-linecap="butt"></path><path d="M240.90495,183.77494l0.59707,-1.99024h0.04975l0.64683,1.99024z" fill="#838383" stroke="none" stroke-width="0" stroke-linecap="butt"></path><path d="M224.47378,192.62512l1.83934,1.53251v0l-1.90957,0.76165z" fill="#ffc200" stroke="none" stroke-width="0" stroke-linecap="butt"></path><path d="M223.38696,171.70786l-0.19761,-2.41222c0,0 4.00643,-3.82923 9.17186,-5.7327c2.87958,-1.06113 6.49575,-1.84076 8.69863,-2.02122c2.45106,-0.20079 6.66246,0.31552 9.96449,0.99124c5.06256,1.03598 9.25648,3.72413 9.25648,3.72413l0.19761,2.41222z" fill="#896a37" stroke="url(#color-1)" stroke-width="2" stroke-linecap="butt"></path><path d="M257.03692,164.81101l-31.60463,2.74831" fill="none" stroke="#71572d" stroke-width="0.5" stroke-linecap="round"></path><path d="M251.14304,163.14411l-21.46098,2.07657" fill="none" stroke="#71572d" stroke-width="0.5" stroke-linecap="round"></path><path d="M235.26495,163.09131l11.43465,-0.97654" fill="none" stroke="#71572d" stroke-width="0.5" stroke-linecap="round"></path><path d="M240.98215,169.62949l-0.6317,-7.71117l1.06209,-0.08701l0.6317,7.71117z" fill="#ffc200" stroke="none" stroke-width="0" stroke-linecap="butt"></path><path d="M240.54708,162.47696c-0.00829,-0.10119 0.15446,-0.1971 0.36352,-0.21423c0.20905,-0.01713 0.38525,0.05102 0.39354,0.15221c0.00829,0.10119 -0.15446,0.1971 -0.36352,0.21423c-0.20905,0.01713 -0.38525,-0.05102 -0.39354,-0.15221z" fill="#ffdb63" stroke="none" stroke-width="0.5" stroke-linecap="butt"></path><path d="M240.55789,163.31027c-0.00829,-0.10119 0.15446,-0.1971 0.36352,-0.21423c0.20905,-0.01713 0.38525,0.05102 0.39354,0.15221c0.00829,0.10119 -0.15446,0.1971 -0.36352,0.21423c-0.20905,0.01713 -0.38525,-0.05102 -0.39354,-0.15221z" fill="#ffdb63" stroke="none" stroke-width="0.5" stroke-linecap="butt"></path><path d="M240.48399,164.51202c-0.00829,-0.10119 0.15446,-0.1971 0.36352,-0.21423c0.20905,-0.01713 0.38525,0.05102 0.39354,0.15221c0.00829,0.10119 -0.15446,0.1971 -0.36352,0.21423c-0.20905,0.01713 -0.38525,-0.05102 -0.39354,-0.15221z" fill="#ffdb63" stroke="none" stroke-width="0.5" stroke-linecap="butt"></path><path d="M240.60216,165.25312c-0.00829,-0.10119 0.15446,-0.1971 0.36352,-0.21423c0.20905,-0.01713 0.38525,0.05102 0.39354,0.15221c0.00829,0.10119 -0.15447,0.1971 -0.36352,0.21423c-0.20905,0.01713 -0.38525,-0.05102 -0.39354,-0.15221z" fill="#ffdb63" stroke="none" stroke-width="0.5" stroke-linecap="butt"></path><path d="M240.92546,166.39451c-0.00829,-0.10119 0.15446,-0.1971 0.36352,-0.21423c0.20905,-0.01713 0.38525,0.05102 0.39354,0.15221c0.00829,0.10119 -0.15446,0.1971 -0.36352,0.21423c-0.20905,0.01713 -0.38525,-0.05102 -0.39354,-0.15221z" fill="#ffdb63" stroke="none" stroke-width="0.5" stroke-linecap="butt"></path><path d="M236.10911,195.82771c0,-0.20976 0.17004,-0.3798 0.3798,-0.3798c0.20975,0 0.3798,0.17004 0.3798,0.3798c0,0.20976 -0.17004,0.3798 -0.3798,0.3798c-0.20975,0 -0.3798,-0.17004 -0.3798,-0.3798z" fill="#ffdb63" stroke="none" stroke-width="0.5" stroke-linecap="butt"></path><path d="M239.3155,195.65594c0,-0.20976 0.17004,-0.37979 0.3798,-0.37979c0.20975,0 0.3798,0.17004 0.3798,0.37979c0,0.20976 -0.17004,0.3798 -0.3798,0.3798c-0.20975,0 -0.3798,-0.17004 -0.3798,-0.3798z" fill="#ffdb63" stroke="none" stroke-width="0.5" stroke-linecap="butt"></path><path d="M242.46463,195.7132c0,-0.20976 0.17005,-0.3798 0.3798,-0.3798c0.20975,0 0.3798,0.17004 0.3798,0.3798c0,0.20976 -0.17004,0.3798 -0.3798,0.3798c-0.20975,0 -0.3798,-0.17004 -0.3798,-0.3798z" fill="#ffdb63" stroke="none" stroke-width="0.5" stroke-linecap="butt"></path><path d="M245.21297,195.59868c0,-0.20976 0.17004,-0.3798 0.3798,-0.3798c0.20975,0 0.3798,0.17004 0.3798,0.3798c0,0.20976 -0.17004,0.3798 -0.3798,0.3798c-0.20975,0 -0.3798,-0.17004 -0.3798,-0.3798z" fill="#ffdb63" stroke="none" stroke-width="0.5" stroke-linecap="butt"></path><path d="M247.84679,195.59868c0,-0.20976 0.17004,-0.3798 0.3798,-0.3798c0.20975,0 0.3798,0.17004 0.3798,0.3798c0,0.20976 -0.17004,0.3798 -0.3798,0.3798c-0.20975,0 -0.3798,-0.17004 -0.3798,-0.3798z" fill="#ffdb63" stroke="none" stroke-width="0.5" stroke-linecap="butt"></path></g></g></svg>