<svg version="1.1" xmlns="http://www.w3.org/2000/svg" xmlns:xlink="http://www.w3.org/1999/xlink" width="18.42185" height="17.78522" viewBox="0,0,18.42185,17.78522"><defs><radialGradient cx="240.709" cy="192.09196" r="1.25071" gradientUnits="userSpaceOnUse" id="color-1"><stop offset="0" stop-color="#ffffff" stop-opacity="0.53358"></stop><stop offset="1" stop-color="#46e3ff" stop-opacity="0.59161"></stop></radialGradient><radialGradient cx="244.19865" cy="191.48337" r="1.25071" gradientUnits="userSpaceOnUse" id="color-2"><stop offset="0" stop-color="#ffffff" stop-opacity="0.53358"></stop><stop offset="1" stop-color="#46e3ff" stop-opacity="0.55129"></stop></radialGradient><linearGradient x1="235.53446" y1="199.19216" x2="236.41363" y2="200.53543" gradientUnits="userSpaceOnUse" id="color-3"><stop offset="0" stop-color="#00fdff" stop-opacity="0.41129"></stop><stop offset="1" stop-color="#ffffff" stop-opacity="0.67742"></stop></linearGradient><linearGradient x1="248.85733" y1="200.74974" x2="247.65845" y2="201.81747" gradientUnits="userSpaceOnUse" id="color-4"><stop offset="0" stop-color="#00fdff" stop-opacity="0.41129"></stop><stop offset="1" stop-color="#ffffff" stop-opacity="0.67742"></stop></linearGradient><linearGradient x1="240.17053" y1="195.12058" x2="240.62786" y2="194.86287" gradientUnits="userSpaceOnUse" id="color-5"><stop offset="0" stop-color="#948a00"></stop><stop offset="1" stop-color="#948a00" stop-opacity="0"></stop></linearGradient><linearGradient x1="245.80083" y1="194.89572" x2="245.3162" y2="194.69396" gradientUnits="userSpaceOnUse" id="color-6"><stop offset="0" stop-color="#948a00"></stop><stop offset="1" stop-color="#948a00" stop-opacity="0"></stop></linearGradient></defs><g transform="translate(-232.36852,-190.8607)"><g data-paper-data="{&quot;isPaintingLayer&quot;:true}" fill-rule="nonzero" stroke="none" stroke-linecap="butt" stroke-linejoin="miter" stroke-miterlimit="10" stroke-dasharray="" stroke-dashoffset="0" style="mix-blend-mode: normal"><path d="M242.74701,190.8666c1.78045,-0.10575 3.30767,1.2207 3.41115,2.96274c0.10348,1.74202 -1.25601,3.23995 -3.03645,3.34571c-1.78045,0.10575 -3.30768,-1.2207 -3.41115,-2.96273c-0.10348,-1.74202 1.25601,-3.23996 3.03646,-3.34571z" data-paper-data="{&quot;index&quot;:null}" fill="#000000" stroke-width="0"></path><path d="M245.09041,196.94439c0.15053,0.01267 0.13085,1.71007 -0.0446,3.79369c-0.13357,1.58614 -0.21674,2.57388 -0.35031,4.16004c-0.17545,2.08362 -0.43992,3.7604 -0.59045,3.74772c-1.04952,-0.08837 -3.92515,-0.33053 -4.97469,-0.41891c-0.15053,-0.01267 -0.13034,-1.71003 0.04511,-3.79365c0.13357,-1.58614 0.21674,-2.57388 0.35031,-4.16004c0.17545,-2.08362 0.4394,-3.76044 0.58993,-3.74777c1.04952,0.08837 3.92516,0.33053 4.97469,0.41891z" data-paper-data="{&quot;index&quot;:null}" fill="#000000" stroke-width="1"></path><path d="M249.78745,205.70264l-5.3641,-5.32439l1.00291,-1.54689l5.3641,5.32437z" data-paper-data="{&quot;index&quot;:null}" fill="#000000" stroke-width="0"></path><path d="M232.36852,201.21457l6.95907,-2.94856l1.05193,1.51396l-6.95907,2.94857z" data-paper-data="{&quot;index&quot;:null}" fill="#000000" stroke-width="0"></path><path d="M239.76955,194.11638c0,0 0.05779,-1.1412 0.23059,-1.45759c0.15785,-0.28901 0.79465,-0.98126 0.79465,-0.98126l0.18197,0.73057c0,0 -0.67121,0.2906 -0.8212,0.56521c-0.1774,0.3248 -0.17485,1.2584 -0.17485,1.2584z" fill="url(#color-1)" stroke-width="NaN"></path><path d="M245.81524,193.06311c0,0 -0.41959,-0.83401 -0.72461,-1.04359c-0.25791,-0.17721 -0.98799,-0.13313 -0.98799,-0.13313l-0.1678,-0.73396c0,0 0.88088,0.3298 1.15229,0.51628c0.29712,0.20415 0.86436,1.19609 0.86436,1.19609z" data-paper-data="{&quot;index&quot;:null}" fill="url(#color-2)" stroke-width="NaN"></path><path d="M232.40803,201.23841l7.00012,-3.04889l0.2693,0.54956l-7.16148,2.76241z" fill="url(#color-3)" stroke-width="0"></path><path d="M250.64886,204.25205l-5.6733,-5.01944l0.40321,-0.46038l5.33214,5.37846z" data-paper-data="{&quot;index&quot;:null}" fill="url(#color-4)" stroke-width="0"></path><path d="M241.41912,196.9329c0,0 -1.14166,-1.16644 -1.27336,-1.40017c-0.16987,-0.30145 -0.44235,-1.24105 -0.44235,-1.24105l0.45733,-0.25771l1.37112,2.00435z" fill="url(#color-5)" stroke-width="0"></path><path d="M244.5577,195.96814l1.1242,-2.15255l0.48463,0.20177c0,0 -0.15932,0.96522 -0.29233,1.28468c-0.10311,0.24765 -1.09865,1.54106 -1.09865,1.54106z" data-paper-data="{&quot;index&quot;:null}" fill="url(#color-6)" stroke-width="0"></path></g></g></svg>