<svg version="1.1" xmlns="http://www.w3.org/2000/svg" xmlns:xlink="http://www.w3.org/1999/xlink" width="54.97784" height="56.5031" viewBox="0,0,54.97784,56.5031"><defs><linearGradient x1="223.63273" y1="182.52431" x2="225.21094" y2="182.52431" gradientUnits="userSpaceOnUse" id="color-1"><stop offset="0" stop-color="#f86b00"></stop><stop offset="1" stop-color="#ff8800"></stop></linearGradient><linearGradient x1="223.57203" y1="184.58812" x2="224.78604" y2="184.58812" gradientUnits="userSpaceOnUse" id="color-2"><stop offset="0" stop-color="#f86b00"></stop><stop offset="1" stop-color="#ff8800"></stop></linearGradient><linearGradient x1="223.38993" y1="186.46986" x2="224.84676" y2="186.46986" gradientUnits="userSpaceOnUse" id="color-3"><stop offset="0" stop-color="#f86b00"></stop><stop offset="1" stop-color="#ff8800"></stop></linearGradient><linearGradient x1="225.45374" y1="182.76712" x2="227.03197" y2="182.76712" gradientUnits="userSpaceOnUse" id="color-4"><stop offset="0" stop-color="#f86b00"></stop><stop offset="1" stop-color="#ff8800"></stop></linearGradient><linearGradient x1="225.39306" y1="184.83093" x2="226.60707" y2="184.83093" gradientUnits="userSpaceOnUse" id="color-5"><stop offset="0" stop-color="#f86b00"></stop><stop offset="1" stop-color="#ff8800"></stop></linearGradient><linearGradient x1="225.21094" y1="186.71264" x2="226.66777" y2="186.71264" gradientUnits="userSpaceOnUse" id="color-6"><stop offset="0" stop-color="#f86b00"></stop><stop offset="1" stop-color="#ff8800"></stop></linearGradient><linearGradient x1="227.15337" y1="182.88852" x2="228.73158" y2="182.88852" gradientUnits="userSpaceOnUse" id="color-7"><stop offset="0" stop-color="#f86b00"></stop><stop offset="1" stop-color="#ff8800"></stop></linearGradient><linearGradient x1="227.09267" y1="184.95233" x2="228.30668" y2="184.95233" gradientUnits="userSpaceOnUse" id="color-8"><stop offset="0" stop-color="#f86b00"></stop><stop offset="1" stop-color="#ff8800"></stop></linearGradient><linearGradient x1="226.91057" y1="186.83404" x2="228.36738" y2="186.83404" gradientUnits="userSpaceOnUse" id="color-9"><stop offset="0" stop-color="#f86b00"></stop><stop offset="1" stop-color="#ff8800"></stop></linearGradient><linearGradient x1="239.47559" y1="184.28462" x2="241.05382" y2="184.28462" gradientUnits="userSpaceOnUse" id="color-10"><stop offset="0" stop-color="#f86b00"></stop><stop offset="1" stop-color="#ff8800"></stop></linearGradient><linearGradient x1="239.41489" y1="186.34846" x2="240.62891" y2="186.34846" gradientUnits="userSpaceOnUse" id="color-11"><stop offset="0" stop-color="#f86b00"></stop><stop offset="1" stop-color="#ff8800"></stop></linearGradient><linearGradient x1="239.23278" y1="188.23017" x2="240.68962" y2="188.23017" gradientUnits="userSpaceOnUse" id="color-12"><stop offset="0" stop-color="#f86b00"></stop><stop offset="1" stop-color="#ff8800"></stop></linearGradient><linearGradient x1="241.418" y1="184.28462" x2="242.99623" y2="184.28462" gradientUnits="userSpaceOnUse" id="color-13"><stop offset="0" stop-color="#f86b00"></stop><stop offset="1" stop-color="#ff8800"></stop></linearGradient><linearGradient x1="241.35732" y1="186.34846" x2="242.57133" y2="186.34846" gradientUnits="userSpaceOnUse" id="color-14"><stop offset="0" stop-color="#f86b00"></stop><stop offset="1" stop-color="#ff8800"></stop></linearGradient><linearGradient x1="241.17522" y1="188.23017" x2="242.63203" y2="188.23017" gradientUnits="userSpaceOnUse" id="color-15"><stop offset="0" stop-color="#f86b00"></stop><stop offset="1" stop-color="#ff8800"></stop></linearGradient><linearGradient x1="242.81413" y1="184.40602" x2="244.39233" y2="184.40602" gradientUnits="userSpaceOnUse" id="color-16"><stop offset="0" stop-color="#f86b00"></stop><stop offset="1" stop-color="#ff8800"></stop></linearGradient><linearGradient x1="242.75343" y1="186.46986" x2="243.96743" y2="186.46986" gradientUnits="userSpaceOnUse" id="color-17"><stop offset="0" stop-color="#f86b00"></stop><stop offset="1" stop-color="#ff8800"></stop></linearGradient><linearGradient x1="242.57133" y1="188.35157" x2="244.02813" y2="188.35157" gradientUnits="userSpaceOnUse" id="color-18"><stop offset="0" stop-color="#f86b00"></stop><stop offset="1" stop-color="#ff8800"></stop></linearGradient></defs><g transform="translate(-209.86826,-148.23634)"><g data-paper-data="{&quot;isPaintingLayer&quot;:true}" fill-rule="nonzero" stroke-linecap="butt" stroke-linejoin="miter" stroke-miterlimit="10" stroke-dasharray="" stroke-dashoffset="0" style="mix-blend-mode: normal"><path d="M216.154,196.45829c0,-9.86526 0,-26.89275 0,-32.51997c0,-3.55647 1.50337,-7.67776 3.17295,-7.67776c5.13777,0 31.88059,0 41.26234,0c2.03805,0 3.25682,2.85812 3.25682,7.08287c0,9.95502 0,27.49809 0,33.11485c0,3.40496 -1.25235,7.28116 -3.34069,7.28116c-9.43383,0 -35.92722,0 -41.09461,0c-1.70864,0 -3.25682,-2.95049 -3.25682,-7.28116z" fill-opacity="0.62097" fill="#291800" stroke="#d6cdad" stroke-width="2"></path><g><path d="M212.36828,162.03501c0,-2.30933 0,-6.29523 0,-7.61249c0,-0.83253 0.35192,-1.79726 0.74274,-1.79726c1.20269,0 7.46283,0 9.65897,0c0.47708,0 0.76238,0.66905 0.76238,1.65801c0,2.33034 0,6.43694 0,7.75175c0,0.79706 -0.29315,1.70443 -0.78201,1.70443c-2.20834,0 -8.41009,0 -9.61971,0c-0.39997,0 -0.76238,-0.69067 -0.76238,-1.70443z" fill-opacity="0.47425" fill="#000000" stroke="#fff4ce" stroke-width="0"></path><path d="M210.36828,159.89216c0,-2.30933 0,-6.29523 0,-7.61249c0,-0.83253 0.35192,-1.79726 0.74274,-1.79726c1.20269,0 7.46283,0 9.65897,0c0.47708,0 0.76238,0.66904 0.76238,1.658c0,2.33034 0,6.43695 0,7.75176c0,0.79706 -0.29315,1.70443 -0.78201,1.70443c-2.20834,0 -8.41009,0 -9.61971,0c-0.39997,0 -0.76238,-0.69067 -0.76238,-1.70443z" fill-opacity="0.88705" fill="#291800" stroke="#fff4ce" stroke-width="1"></path><text transform="translate(213.35856,159.88738) scale(0.26784,0.26784)" font-size="40" xml:space="preserve" fill="#fff4ce" fill-rule="nonzero" stroke="none" stroke-width="1" stroke-linecap="butt" stroke-linejoin="miter" stroke-miterlimit="10" stroke-dasharray="" stroke-dashoffset="0" font-family="Sans Serif" font-weight="normal" text-anchor="start" style="mix-blend-mode: normal"><tspan x="0" dy="0">3</tspan></text></g><g><path d="M260.92391,171.22386l-0.83666,-1.89916l2.18258,0.12234l1.00399,1.77681z" fill="#7e7e7e" stroke="none" stroke-width="0"></path><path d="M246.65969,183.82149c0,0 5.2737,-2.06635 6.67417,-3.80675c1.57022,-1.95136 7.26058,-6.55723 7.26058,-6.55723l2.26442,0.69675c0,0 -4.07559,8.61714 -6.31476,11.44312c-1.92149,2.42505 -9.79731,3.01417 -9.79731,3.01417z" fill="#313131" stroke="none" stroke-width="0"></path><text transform="translate(224.82182,185.17308) scale(0.11102,0.11102)" font-size="40" xml:space="preserve" fill="#9966ff" fill-rule="nonzero" stroke="none" stroke-width="1" stroke-linecap="butt" stroke-linejoin="miter" stroke-miterlimit="10" stroke-dasharray="" stroke-dashoffset="0" font-family="Sans Serif" font-weight="normal" text-anchor="start" style="mix-blend-mode: normal"><tspan x="0" dy="0">xamt8</tspan></text><path d="M217.24664,178.58654c0,0 2.76714,-3.15576 4.36228,-4.28916c1.81221,-1.28762 5.94311,-3.03304 5.94311,-3.03304l0.94348,3.05878l-9.80462,11.32844c0,0 -1.25475,-0.8518 -1.6727,-1.51547c-0.52461,-0.83304 0.22845,-5.54956 0.22845,-5.54956z" fill="#3b3b3b" stroke="none" stroke-width="0"></path><path d="M218.04828,185.16479c0,0 -1.08462,-0.85906 -1.26655,-1.57682c-0.18717,-0.73845 0.15878,-2.79362 0.15878,-2.79362c0,0 2.13807,0.55786 3.43327,0.6187c1.63825,0.07695 5.92979,-0.0117 5.92979,-0.0117l0.07587,6.00935c0,0 -3.90964,-0.6677 -5.17472,-0.6677c-1.37617,0 -3.15644,-1.57821 -3.15644,-1.57821z" fill="#313131" stroke="none" stroke-width="0"></path><path d="M229.27789,182.37257v-2.18524h9.83349v2.18524z" fill="#ab4a00" stroke="none" stroke-width="0"></path><path d="M239.53772,183.65212l-1.11574,-3.32506l1.11287,-0.63018l1.11576,3.32509z" data-paper-data="{&quot;index&quot;:null}" fill="#e66909" stroke="none" stroke-width="0"></path><path d="M216.81366,180.9651c0,0 0.1303,-0.90923 0.29068,-0.97616c0.11936,-0.0498 0.58545,0.61055 0.58545,0.61055l5.73011,0.95871l-0.05669,0.21742z" fill="#595959" stroke="none" stroke-width="0"></path><path d="M227.55658,182.0137l1.11574,-2.55961l1.11287,0.48508l-1.11574,2.55963z" fill="#e66909" stroke="none" stroke-width="0"></path><path d="M247.53018,186.20397c0,1.79295 -0.51024,3.24644 -1.13969,3.24644c-0.62945,0 -1.13971,-1.4535 -1.13971,-3.24644c0,-1.79295 0.51026,-3.24642 1.13971,-3.24642c0.62945,0 1.13969,1.45347 1.13969,3.24642z" fill="#ffa63f" stroke="none" stroke-width="0"></path><path d="M233.84614,189.98219c0,0 1.39742,-1.83364 1.53857,-2.81943c0.06011,-0.41971 -0.87176,-1.47785 -1.76982,-2.53716c-0.40518,-0.47792 -2.20338,-0.46428 -3.14602,-0.74249c-0.57984,-0.17113 -0.49244,-0.6674 -0.57685,-0.81966c-0.04668,-0.08418 0.39915,-2.06839 0.85415,-2.09736c1.07201,-0.06826 5.3103,1.0173 5.3103,1.0173l10.23783,0.89794c0,0 -0.84673,2.52335 -0.82278,3.67062c0.02191,1.04985 0.96092,2.94674 0.96092,2.94674z" fill="#ff8800" stroke="none" stroke-width="0"></path><path d="M235.3451,187.1382c0,1.95347 -1.47446,3.5371 -3.29333,3.5371c-1.81887,0 -3.29334,-1.58363 -3.29334,-3.5371c0,-1.95347 1.47447,-3.53708 3.29334,-3.53708c1.81887,0 3.29333,1.58361 3.29333,3.53708z" fill="#e56300" stroke="#000000" stroke-width="0"></path><path d="M235.6474,186.19303c-0.02579,0.3396 -0.14209,0.65591 -0.33004,0.93667c-0.66594,-0.9358 -1.72736,-1.57988 -2.96215,-1.67362c-1.12945,-0.08573 -2.18498,0.30554 -2.96877,1.00392c-0.07998,-0.2401 -0.11384,-0.49208 -0.0943,-0.74944c0.10151,-1.33712 1.60648,-2.31307 3.36144,-2.17984c1.75495,0.13324 3.09534,1.3252 2.99383,2.66232z" fill="#ffa63f" stroke="none" stroke-width="0"></path><path d="M232.14952,185.61043c0.75252,-0.3066 1.08863,0.19388 1.51755,0.94744c0.42892,0.75358 0.30478,1.19855 -0.44774,1.50516c-0.75252,0.3066 -1.22679,0.22057 -1.65573,-0.53301c-0.42892,-0.75358 -0.16663,-1.61299 0.58589,-1.91959z" fill="#ffffff" stroke="#000000" stroke-width="0"></path><path d="M223.5702,187.17938c0,0 -1.15652,-2.25918 -1.1805,-3.31379c-0.02188,-0.96327 1.04233,-2.76465 1.04233,-2.76465l7.37409,-0.0607c0,0 0.31827,1.35394 -0.00937,2.24323c-0.44294,1.20224 -2.5296,4.37942 -2.5296,4.37942z" fill="#ff8800" stroke="none" stroke-width="0"></path><path d="M233.21098,186.4511c0,0.19913 -0.12555,0.36056 -0.28044,0.36056c-0.15489,0 -0.28045,-0.16143 -0.28045,-0.36056c0,-0.19913 0.12556,-0.36054 0.28045,-0.36054c0.15489,0 0.28044,0.16142 0.28044,0.36054z" fill="#fff07d" stroke="none" stroke-width="0"></path><path d="M234.15408,188.3379c-0.5996,0.8905 -1.71185,1.31197 -2.73664,0.95759c-1.12778,-0.39001 -1.75841,-1.58434 -1.51549,-2.76737" fill="none" stroke="#af4c00" stroke-width="0.2"></path><g stroke="none" stroke-width="0"><path d="M223.63273,183.16168l0.5463,-1.27473h1.0319l-0.4856,1.27473z" fill="url(#color-1)"></path><path d="M223.57203,185.22549v-1.2747h1.214v1.2747z" fill="url(#color-2)"></path><path d="M223.81483,186.9858l-0.4249,-1.1533l1.15333,0.0607l0.3035,1.214c0,0 -0.24461,-0.02879 -0.39095,-0.046c-0.18739,-0.02205 -0.64098,-0.0754 -0.64098,-0.0754z" fill="url(#color-3)"></path></g><g stroke="none" stroke-width="0"><path d="M225.45374,183.40448l0.54632,-1.27473h1.0319l-0.4856,1.27473z" fill="url(#color-4)"></path><path d="M225.39306,185.46829v-1.27473h1.21401v1.27473z" fill="url(#color-5)"></path><path d="M225.63584,187.2286l-0.4249,-1.15333l1.15333,0.06072l0.3035,1.21401c0,0 -0.24458,-0.02879 -0.39092,-0.046c-0.18739,-0.02205 -0.64101,-0.0754 -0.64101,-0.0754z" fill="url(#color-6)"></path></g><g stroke="none" stroke-width="0"><path d="M227.15337,183.52588l0.54631,-1.27473h1.0319l-0.48561,1.27473z" fill="url(#color-7)"></path><path d="M227.09267,185.58969v-1.27473h1.21401v1.27473z" fill="url(#color-8)"></path><path d="M227.33548,187.35l-0.4249,-1.15333l1.1533,0.06072l0.30351,1.214c0,0 -0.24459,-0.02879 -0.39093,-0.046c-0.18739,-0.02205 -0.64098,-0.0754 -0.64098,-0.0754z" fill="url(#color-9)"></path></g><g stroke="none" stroke-width="0"><path d="M239.47559,184.92199l0.54632,-1.27471h1.0319l-0.48562,1.27471z" fill="url(#color-10)"></path><path d="M239.41489,186.9858v-1.2747h1.21402v1.2747z" fill="url(#color-11)"></path><path d="M239.65769,188.74611l-0.4249,-1.1533l1.15333,0.0607l0.30351,1.214c0,0 -0.24459,-0.02876 -0.39093,-0.04597c-0.18739,-0.02205 -0.64101,-0.07542 -0.64101,-0.07542z" fill="url(#color-12)"></path></g><g stroke="none" stroke-width="0"><path d="M241.418,184.92199l0.54632,-1.27471h1.03191l-0.48561,1.27471z" fill="url(#color-13)"></path><path d="M241.35732,186.9858v-1.2747h1.21401v1.2747z" fill="url(#color-14)"></path><path d="M241.60012,188.74611l-0.4249,-1.1533l1.1533,0.0607l0.30351,1.214c0,0 -0.24459,-0.02876 -0.39093,-0.04597c-0.18739,-0.02205 -0.64098,-0.07542 -0.64098,-0.07542z" fill="url(#color-15)"></path></g><g stroke="none" stroke-width="0"><path d="M242.81413,185.04339l0.5463,-1.27471h1.0319l-0.4856,1.27471z" fill="url(#color-16)"></path><path d="M242.75343,187.1072v-1.2747h1.21401v1.2747z" fill="url(#color-17)"></path><path d="M242.99623,188.86753l-0.4249,-1.15333l1.1533,0.0607l0.3035,1.214c0,0 -0.24459,-0.02876 -0.39093,-0.04597c-0.18739,-0.02205 -0.64098,-0.0754 -0.64098,-0.0754z" fill="url(#color-18)"></path></g><path d="M227.76038,180.35427c0,0 -0.54631,-0.40178 -0.54631,-0.59184c0,-0.22026 0.54631,-0.65254 0.54631,-0.65254h12.74713c0,0 0.60701,0.67507 0.60701,0.89533c0,0.19006 -0.60701,0.34904 -0.60701,0.34904z" fill="#e66909" stroke="none" stroke-width="0"></path><path d="M217.9993,182.65584l0.45987,-0.6836l0.47274,0.56664l-0.45987,0.6836z" fill="#474747" stroke="none" stroke-width="0"></path><path d="M219.50164,183.9761l0.45987,-0.68362l0.47276,0.56664l-0.45989,0.6836z" fill="#474747" stroke="none" stroke-width="0"></path><path d="M218.22691,184.84107l0.45989,-0.68362l0.47273,0.56663l-0.45987,0.6836z" fill="#474747" stroke="none" stroke-width="0"></path><path d="M221.04948,185.52394l0.45989,-0.6836l0.47274,0.56664l-0.45987,0.6836z" fill="#474747" stroke="none" stroke-width="0"></path><path d="M221.18608,182.24613l0.45987,-0.68363l0.47276,0.56663l-0.45989,0.68361z" fill="#474747" stroke="none" stroke-width="0"></path><path d="M227.74441,175.0346l-0.36305,-3.84656c0,0 11.34424,-1.60639 16.93243,-1.60639c5.5447,0 16.83031,1.66927 16.83031,1.66927v3.78368c0,0 -12.60597,-0.87094 -18.40356,-0.87094c-5.28884,0 -14.99613,0.87094 -14.99613,0.87094z" fill="#3b3b3b" stroke="none" stroke-width="0"></path><path d="M260.68153,174.64607v-4.18044h2.43858v4.18044z" fill="#535353" stroke="none" stroke-width="none"></path><path d="M249.0912,184.31059l0.45987,-0.6836l0.47276,0.56664l-0.45989,0.6836z" fill="#474747" stroke="none" stroke-width="0"></path><path d="M250.76047,185.57924l0.45986,-0.68363l0.47276,0.56664l-0.45989,0.6836z" fill="#474747" stroke="none" stroke-width="0"></path><path d="M249.22474,186.71435l0.45989,-0.68362l0.47274,0.56664l-0.45987,0.6836z" fill="#474747" stroke="none" stroke-width="0"></path><path d="M251.96233,183.57611l0.45989,-0.6836l0.47274,0.56664l-0.45987,0.6836z" fill="#474747" stroke="none" stroke-width="0"></path><path d="M253.23098,186.18016l0.45987,-0.6836l0.47276,0.56664l-0.45987,0.6836z" fill="#474747" stroke="none" stroke-width="0"></path><path d="M255.22454,183.23868l-0.03114,-0.8233l0.71582,0.17933l0.03116,0.8233z" fill="#474747" stroke="none" stroke-width="0"></path><path d="M256.96058,180.63462l-0.03116,-0.8233l0.71582,0.17933l0.03116,0.8233z" fill="#474747" stroke="none" stroke-width="0"></path><path d="M258.62983,178.36443l-0.03116,-0.82332l0.71584,0.17933l0.03116,0.82332z" fill="#474747" stroke="none" stroke-width="0"></path><path d="M260.49942,176.09421l-0.03116,-0.8233l0.71582,0.17933l0.03116,0.8233z" fill="#474747" stroke="none" stroke-width="0"></path></g></g></g></svg>