<svg version="1.1" xmlns="http://www.w3.org/2000/svg" xmlns:xlink="http://www.w3.org/1999/xlink" width="53.18663" height="55.66298" viewBox="0,0,53.18663,55.66298"><g transform="translate(-213.40669,-152.16969)"><g data-paper-data="{&quot;isPaintingLayer&quot;:true}" fill="#ffffff" fill-rule="nonzero" stroke-linejoin="miter" stroke-miterlimit="10" stroke-dasharray="" stroke-dashoffset="0" style="mix-blend-mode: normal"><path d="" stroke="#e4d0a2" stroke-width="1" stroke-linecap="round"></path><g><g><path d="M238.27543,199.45593l-6.81549,-13.07992l23.2878,0.02928l-7.75439,12.496z" stroke="none" stroke-width="0" stroke-linecap="butt"></path><path d="M223.68591,185.93527c0,0 -6.1537,-4.00946 -6.8423,-6.71287c-0.39756,-1.56086 2.15764,-4.24441 2.28517,-6.97826c0.23488,-5.03446 -1.58015,-10.40344 -1.58015,-10.40344c0,0 15.2376,-9.46016 23.03067,-9.66682c2.11441,-0.05607 4.79484,0.45617 7.6178,1.25186c-2.47355,0.9146 -4.77958,2.25045 -4.03302,5.57396c0.24644,1.09709 1.83335,2.51463 2.54649,3.20933c0.07021,0.0684 0.13478,0.15066 0.19912,0.23429c-0.00661,0.0116 -0.01326,0.02346 -0.01995,0.03559c-0.4171,0.75622 -0.79377,1.632 -0.71035,2.49158c0.00815,0.08391 0.01761,0.16269 0.02825,0.23659c-0.97411,0.15196 -2.19648,0.01219 -2.80297,0.76781c-0.57309,0.714 0.05641,1.83024 0.08462,2.74536l-0.09736,0.0908c0,0 0,1.89718 1.89718,1.89718c1.15399,0 1.60605,-0.70193 1.78313,-1.25187c0.30006,-0.08655 0.7031,-0.26725 1.2344,-0.57234c1.06863,-0.61363 2.24443,-1.40742 2.65965,-2.56764c0.21188,-0.59202 -0.38867,-1.15286 -0.83068,-1.6813c1.53394,-1.01018 1.48954,-1.70118 0.56641,-3.72886c-0.09775,-0.2147 -2.35896,-2.41409 -2.56426,-2.62298c-0.14834,-0.15093 -0.5588,-0.34328 -0.40514,-0.48878c0.89934,-0.85156 2.20946,-0.96945 3.33699,-1.34379c0,0 1.31337,-0.43779 1.32228,-1.68735c7.01272,2.4629 13.63727,5.79171 13.63727,5.79171c0,0 -2.13598,9.22413 -2.12394,15.58227c0.00356,1.87793 2.84957,3.43543 2.68089,4.51921c-0.3756,2.41313 -4.70218,6.52977 -4.70218,6.52977c0,0 -3.03129,3.07931 -5.38188,3.27105c-4.24288,0.34605 -9.92175,-3.94969 -15.59915,-4.38061c-4.34859,-0.33004 -9.05462,3.22096 -10.95964,3.15859c-1.94828,-0.06382 -6.25732,-3.30008 -6.25732,-3.30008zM234.55268,181.43203l-0.46371,-0.89466c-0.81081,-1.20769 -1.25868,-2.69936 -2.1117,-3.85601c-0.14256,-0.19331 -0.31406,-0.36159 -0.49361,-0.52297c0.39623,-0.28819 0.78709,-0.58184 1.10184,-0.95119c0.40281,-0.47269 0.58338,-1.09657 0.87507,-1.64485l0.6284,-0.93599c0,0 1.05237,-1.57855 -0.52619,-2.63092c-1.57855,-1.05237 -2.63092,0.52619 -2.63092,0.52619l-0.75308,1.13623c-0.22066,0.48719 -0.48833,0.85708 -0.78554,1.17672c-0.02496,-0.0473 -0.05063,-0.09419 -0.07711,-0.14061c-0.77751,-1.36262 -1.20098,-2.33665 -1.5074,-3.90964c0,0 -0.37207,-1.86034 -2.23241,-1.48827c-1.86034,0.37207 -1.48827,2.23241 -1.48827,2.23241c0.39492,1.93328 0.97625,3.37495 1.9463,5.06999c0.12623,0.22058 0.35149,0.68885 0.59281,1.19052c-0.47163,0.85721 -0.8097,1.78721 -1.4552,2.52574c-0.709,0.81118 -1.53013,1.51707 -2.29193,2.27887c0,0 -1.34151,1.34151 0,2.68302c1.34151,1.34151 2.68302,0 2.68302,0c0.33347,-0.33347 2.45587,-2.45289 2.54325,-2.55631c0.40711,-0.48182 0.69315,-1.02773 0.96729,-1.57817c0.71671,1.054 1.14669,2.42634 1.85828,3.49997l0.22703,0.48682c0,0 0.84845,1.69689 2.54534,0.84845c1.69689,-0.84845 0.84845,-2.54534 0.84845,-2.54534z" stroke="none" stroke-width="NaN" stroke-linecap="butt"></path><path d="M254.84204,189.96052l11.13214,-7.08724" stroke="#ffffff" stroke-width="1" stroke-linecap="round"></path><path d="M254.23747,189.20637l-6.88451,8.47676" stroke="#ffffff" stroke-width="1" stroke-linecap="round"></path><path d="M264.00341,185.12942l-6.73306,4.25981" stroke="#ffffff" stroke-width="1" stroke-linecap="round"></path><path d="M255.95823,189.55568l3.70466,0.69169" stroke="#ffffff" stroke-width="1" stroke-linecap="round"></path><path d="M245.63564,204.3759l-0.02893,-6.05532l2.23654,-0.05931l0.16399,6.1834c0,0 -0.87688,1.2819 -1.3076,1.26937c-0.33611,-0.00975 -1.064,-1.33813 -1.064,-1.33813z" stroke="#e4d0a2" stroke-width="0.5" stroke-linecap="butt"></path><path d="M246.31728,205.29507c-0.00974,-0.36763 0.28037,-0.67355 0.64798,-0.68329c0.36763,-0.00974 0.67355,0.28037 0.68329,0.64798c0.00974,0.36763 -0.28037,0.67355 -0.64798,0.68329c-0.36763,0.00974 -0.67355,-0.28037 -0.68329,-0.64798z" stroke="none" stroke-width="0.5" stroke-linecap="butt"></path></g><path d="M234.88047,201.21119l-6.81549,-13.07992l23.2878,0.02928l-7.75439,12.496z" stroke="none" stroke-width="0" stroke-linecap="butt"></path><path d="M220.29094,187.69057c0,0 -6.1537,-4.00946 -6.8423,-6.71287c-0.39756,-1.56086 2.15764,-4.24441 2.28517,-6.97826c0.23488,-5.03446 -1.58015,-10.40344 -1.58015,-10.40344c0,0 15.2376,-9.46016 23.03067,-9.66682c2.17174,-0.05759 4.94061,0.48436 7.84773,1.3172c-0.83181,0.8699 -1.25041,2.05081 -0.86797,3.75332c0.24644,1.09709 1.83335,2.51463 2.54649,3.20933c0.07021,0.0684 0.13478,0.15066 0.19912,0.23429c-0.00661,0.0116 -0.01326,0.02346 -0.01995,0.03559c-0.4171,0.75622 -0.79377,1.632 -0.71035,2.49158c0.00815,0.08391 0.01761,0.16269 0.02825,0.23659c-0.97411,0.15196 -2.19648,0.01219 -2.80297,0.76781c-0.57309,0.714 0.05641,1.83024 0.08462,2.74536l-0.09736,0.0908c0,0 0,1.89718 1.89718,1.89718c1.15399,0 1.60605,-0.70193 1.78313,-1.25187c0.30006,-0.08655 0.7031,-0.26725 1.2344,-0.57234c1.06863,-0.61363 2.24443,-1.40742 2.65965,-2.56764c0.21188,-0.59202 -0.38867,-1.15286 -0.83068,-1.6813c1.53394,-1.01018 1.48954,-1.70118 0.56641,-3.72886c-0.09775,-0.2147 -2.35896,-2.41409 -2.56426,-2.62298c-0.14834,-0.15093 -0.5588,-0.34328 -0.40514,-0.48878c0.57292,-0.54248 1.31254,-0.78722 2.06546,-0.99019c6.70773,2.42658 12.83609,5.50607 12.83609,5.50607c0,0 -2.13598,9.22413 -2.12394,15.58227c0.00356,1.87793 2.84957,3.43543 2.68089,4.51921c-0.3756,2.41313 -4.70218,6.52977 -4.70218,6.52977c0,0 -3.03129,3.07931 -5.38188,3.27105c-4.24288,0.34605 -9.92175,-3.94969 -15.59915,-4.38061c-4.34859,-0.33004 -9.05462,3.22096 -10.95964,3.15859c-1.94828,-0.06382 -6.25732,-3.30008 -6.25732,-3.30008zM234.55268,181.43203l-0.46371,-0.89466c-0.81081,-1.20769 -1.25868,-2.69936 -2.1117,-3.85601c-0.14256,-0.19331 -0.31406,-0.36159 -0.49361,-0.52297c0.39623,-0.28819 0.78709,-0.58184 1.10184,-0.95119c0.40281,-0.47269 0.58338,-1.09657 0.87507,-1.64485l0.6284,-0.93599c0,0 1.05237,-1.57855 -0.52619,-2.63092c-1.57855,-1.05237 -2.63092,0.52619 -2.63092,0.52619l-0.75308,1.13623c-0.22066,0.48719 -0.48833,0.85708 -0.78554,1.17672c-0.02496,-0.0473 -0.05063,-0.09419 -0.07711,-0.14061c-0.77751,-1.36262 -1.20098,-2.33665 -1.5074,-3.90964c0,0 -0.37207,-1.86034 -2.23241,-1.48827c-1.86034,0.37207 -1.48827,2.23241 -1.48827,2.23241c0.39492,1.93328 0.97625,3.37495 1.9463,5.06999c0.12623,0.22058 0.35149,0.68885 0.59281,1.19052c-0.47163,0.85721 -0.8097,1.78721 -1.4552,2.52574c-0.709,0.81118 -1.53013,1.51707 -2.29193,2.27887c0,0 -1.34151,1.34151 0,2.68302c1.34151,1.34151 2.68302,0 2.68302,0c0.33347,-0.33347 2.45587,-2.45289 2.54325,-2.55631c0.40711,-0.48182 0.69315,-1.02773 0.96729,-1.57817c0.71671,1.054 1.14669,2.42634 1.85828,3.49997l0.22703,0.48682c0,0 0.84845,1.69689 2.54534,0.84845c1.69689,-0.84845 0.84845,-2.54534 0.84845,-2.54534z" stroke="none" stroke-width="NaN" stroke-linecap="butt"></path><path d="M245.56442,165.02704l-3.60665,-1.84494l3.09311,-2.6707c0.56395,0.67186 1.25354,1.30198 1.65969,1.69764c0.0132,0.01286 0.0262,0.02621 0.03904,0.03997z" stroke="#e4d0a2" stroke-width="1" stroke-linecap="butt"></path><path d="M248.91395,157.17587l-0.5627,1.31893c-0.10725,-0.1057 -0.18302,-0.18056 -0.21349,-0.21156c-0.06276,-0.06385 -0.17244,-0.13512 -0.26646,-0.20712z" stroke="#e4d0a2" stroke-width="1" stroke-linecap="butt"></path><path d="M245.19293,165.30489l-0.27492,-0.26072" stroke="#e4d0a2" stroke-width="1" stroke-linecap="round"></path><path d="M221.64791,184.11227c0,0 -0.6771,-2.77427 -0.71735,-4.29182c-0.04385,-1.65372 0.4641,-5.25717 0.4641,-5.25717c0,0 1.56101,-2.41966 2.9869,-3.80916c0.37934,1.36171 0.89857,2.52644 1.65278,3.84434c0.12623,0.22058 0.35149,0.68885 0.59281,1.19052c-0.47163,0.85721 -0.8097,1.78721 -1.4552,2.52574c-0.709,0.81118 -1.53013,1.51707 -2.29193,2.27887c0,0 -1.34151,1.34151 0,2.68302c1.34151,1.34151 2.68302,0 2.68302,0c0.33347,-0.33347 2.45587,-2.45289 2.54325,-2.55631c0.40711,-0.48182 0.69315,-1.02773 0.96729,-1.57817c0.71671,1.054 1.14669,2.42634 1.85828,3.49997l0.22703,0.48682c0,0 0.32553,0.65106 0.97659,0.94499c-1.25146,0.72719 -4.9354,2.78661 -6.59128,2.83052c-1.39591,0.037 -3.89632,-2.79213 -3.89632,-2.79213z" stroke="#e4d0a2" stroke-width="1" stroke-linecap="butt"></path><path d="M233.24928,178.89026c0.00105,0.03977 0.00166,0.08049 0.00184,0.12207c-0.38973,-0.80822 -0.75759,-1.63095 -1.27385,-2.33097c-0.14256,-0.19331 -0.31406,-0.36159 -0.49361,-0.52297c0.38875,-0.28275 0.77234,-0.57075 1.08394,-0.93035c0.26957,1.03825 0.65564,2.68085 0.68168,3.66222z" stroke="#e4d0a2" stroke-width="1" stroke-linecap="butt"></path><path d="M229.31613,172.69397c-0.36823,-0.64533 -0.65705,-1.20351 -0.89163,-1.77942c0.5173,0.35945 1.03983,0.77122 1.52665,1.18043c-0.16879,0.28349 -0.35657,0.52307 -0.5579,0.7396c-0.02496,-0.0473 -0.05063,-0.09419 -0.07711,-0.14061z" stroke="#e4d0a2" stroke-width="1" stroke-linecap="butt"></path><path d="M228.77139,190.37656l-10.13931,-4.25916" stroke="#ffffff" stroke-width="1" stroke-linecap="round"></path><path d="M237.16817,191.74513l-0.09357,-3.52794c0,0 1.80668,-7.23327 2.58153,-7.25382c1.01005,-0.02678 2.96236,7.1068 2.96236,7.1068l0.09357,3.52794c0,0 -2.11089,-5.07641 -3.11309,-5.04984c-0.79965,0.02119 -2.43078,5.19687 -2.43078,5.19687z" stroke="#e4d0a2" stroke-width="0.5" stroke-linecap="butt"></path><path d="M250.46704,185.66327c-0.53609,0.01422 -2.31765,4.65832 -3.18047,5.98826c-0.41385,0.63792 -0.43514,0.58593 -0.84445,0.42c-1.93944,-0.78626 0.25248,-8.13849 0.25248,-8.13849c0,0 -2.49748,-3.46828 -2.54134,-5.12201c-0.04025,-1.51754 0.69548,-4.65979 0.69548,-4.65979c0,0 4.15059,-4.75143 6.15206,-4.80449c1.46867,-0.03895 4.76109,4.51511 4.76109,4.51511c0,0 0.69822,3.57144 0.74211,5.22517c0.04025,1.51754 -0.48886,4.3238 -0.48886,4.3238c0,0 -2.34696,2.9577 -3.74285,2.99471z" data-paper-data="{&quot;index&quot;:null}" stroke="#e4d0a2" stroke-width="1" stroke-linecap="butt"></path><path d="M243.95797,199.43842l6.88451,-8.47676" stroke="#ffffff" stroke-width="1" stroke-linecap="round"></path><path d="M243.58422,200.23827l-8.94967,0.10569l-7.25535,-10.47156" stroke="#ffffff" stroke-width="1" stroke-linecap="round"></path><path d="M221.2785,188.19099l5.7304,2.61275" stroke="#ffffff" stroke-width="1" stroke-linecap="round"></path><path d="M260.60845,186.88474l-6.73306,4.25981" stroke="#ffffff" stroke-width="1" stroke-linecap="round"></path><path d="M252.56325,191.31097l3.70466,0.69169" stroke="#ffffff" stroke-width="1" stroke-linecap="round"></path><path d="M234.13024,206.15009l-0.02893,-6.05532l2.23654,-0.05931l0.16399,6.1834c0,0 -0.87688,1.2819 -1.3076,1.26937c-0.33611,-0.00975 -1.064,-1.33813 -1.064,-1.33813z" stroke="#e4d0a2" stroke-width="0.5" stroke-linecap="butt"></path><path d="M237.16326,206.13506l-0.02893,-6.05532l2.23654,-0.05931l0.16399,6.1834c0,0 -0.87688,1.2819 -1.3076,1.26937c-0.33611,-0.00975 -1.064,-1.33813 -1.064,-1.33813z" stroke="#e4d0a2" stroke-width="0.5" stroke-linecap="butt"></path><path d="M239.64997,206.24443l-0.02893,-6.05532l2.23654,-0.05931l0.16399,6.1834c0,0 -0.87688,1.2819 -1.3076,1.26937c-0.33611,-0.00975 -1.064,-1.33813 -1.064,-1.33813z" stroke="#e4d0a2" stroke-width="0.5" stroke-linecap="butt"></path><path d="M242.24067,206.13119l-0.02893,-6.05532l2.23654,-0.05931l0.16399,6.1834c0,0 -0.87688,1.2819 -1.3076,1.26937c-0.33611,-0.00975 -1.064,-1.33813 -1.064,-1.33813z" stroke="#e4d0a2" stroke-width="0.5" stroke-linecap="butt"></path><path d="M234.57734,207.16171l0.87879,-0.02331" stroke="#ffffff" stroke-width="0.5" stroke-linecap="round"></path><path d="M236.01189,207.12366c0.01766,0.66563 -0.64798,0.68329 -0.64798,0.68329l-0.87879,0.02331c0,0 -0.66563,0.01766 -0.68329,-0.64798c-0.01766,-0.66563 0.64798,-0.68329 0.64798,-0.68329l0.87879,-0.02331c0,0 0.66563,-0.01766 0.68329,0.64798z" stroke="none" stroke-width="0.5" stroke-linecap="butt"></path><path d="M237.86628,207.07451c-0.00974,-0.36763 0.28037,-0.67355 0.64798,-0.68329c0.36763,-0.00974 0.67355,0.28037 0.68329,0.64798c0.00974,0.36763 -0.28037,0.67355 -0.64798,0.68329c-0.36763,0.00974 -0.67355,-0.28037 -0.68329,-0.64798z" stroke="none" stroke-width="0.5" stroke-linecap="butt"></path><path d="M240.39283,207.00751c-0.00974,-0.36763 0.28037,-0.67355 0.64798,-0.68329c0.36763,-0.00974 0.67355,0.28037 0.68329,0.64798c0.00974,0.36763 -0.28037,0.67355 -0.64798,0.68329c-0.36763,0.00974 -0.67355,-0.28037 -0.68329,-0.64798z" stroke="none" stroke-width="0.5" stroke-linecap="butt"></path><path d="M242.92229,207.05032c-0.00974,-0.36763 0.28037,-0.67355 0.64798,-0.68329c0.36763,-0.00974 0.67355,0.28037 0.68329,0.64798c0.00974,0.36763 -0.28037,0.67355 -0.64798,0.68329c-0.36763,0.00974 -0.67355,-0.28037 -0.68329,-0.64798z" stroke="none" stroke-width="0.5" stroke-linecap="butt"></path></g></g></g></svg>