<svg version="1.1" xmlns="http://www.w3.org/2000/svg" xmlns:xlink="http://www.w3.org/1999/xlink" width="31.3721" height="62.6504" viewBox="0,0,31.3721,62.6504"><defs><radialGradient cx="240.00002" cy="180.00001" r="99.5752" gradientUnits="userSpaceOnUse" id="color-1"><stop offset="0" stop-color="#66ffed"></stop><stop offset="1" stop-color="#66ffed" stop-opacity="0"></stop></radialGradient><radialGradient cx="240.00002" cy="180.00001" r="99.5752" gradientUnits="userSpaceOnUse" id="color-2"><stop offset="0" stop-color="#66ffed"></stop><stop offset="1" stop-color="#66ffed" stop-opacity="0"></stop></radialGradient><radialGradient cx="240.00002" cy="180.00001" r="99.5752" gradientUnits="userSpaceOnUse" id="color-3"><stop offset="0" stop-color="#66ffed"></stop><stop offset="1" stop-color="#66ffed" stop-opacity="0"></stop></radialGradient><radialGradient cx="240.00002" cy="180.00001" r="99.5752" gradientUnits="userSpaceOnUse" id="color-4"><stop offset="0" stop-color="#66ffed"></stop><stop offset="1" stop-color="#66ffed" stop-opacity="0"></stop></radialGradient><radialGradient cx="240.00002" cy="180.00001" r="99.5752" gradientUnits="userSpaceOnUse" id="color-5"><stop offset="0" stop-color="#66ffed"></stop><stop offset="1" stop-color="#66ffed" stop-opacity="0"></stop></radialGradient><radialGradient cx="240.00002" cy="180.00001" r="99.5752" gradientUnits="userSpaceOnUse" id="color-6"><stop offset="0" stop-color="#66ffed"></stop><stop offset="1" stop-color="#66ffed" stop-opacity="0"></stop></radialGradient><radialGradient cx="240" cy="180" r="31.0752" gradientUnits="userSpaceOnUse" id="color-7"><stop offset="0" stop-color="#66ffed"></stop><stop offset="1" stop-color="#66ffed" stop-opacity="0"></stop></radialGradient><radialGradient cx="240" cy="180" r="31.0752" gradientUnits="userSpaceOnUse" id="color-8"><stop offset="0" stop-color="#66ffed"></stop><stop offset="1" stop-color="#66ffed" stop-opacity="0"></stop></radialGradient><radialGradient cx="240" cy="180" r="31.0752" gradientUnits="userSpaceOnUse" id="color-9"><stop offset="0" stop-color="#66ffed"></stop><stop offset="1" stop-color="#66ffed" stop-opacity="0"></stop></radialGradient><radialGradient cx="240" cy="180" r="31.0752" gradientUnits="userSpaceOnUse" id="color-10"><stop offset="0" stop-color="#66ffed"></stop><stop offset="1" stop-color="#66ffed" stop-opacity="0"></stop></radialGradient><radialGradient cx="240" cy="180" r="31.0752" gradientUnits="userSpaceOnUse" id="color-11"><stop offset="0" stop-color="#66ffed"></stop><stop offset="1" stop-color="#66ffed" stop-opacity="0"></stop></radialGradient></defs><g transform="translate(-224.31395,-148.6748)"><g data-paper-data="{&quot;isPaintingLayer&quot;:true}" fill-rule="nonzero" stroke-linejoin="miter" stroke-miterlimit="10" stroke-dasharray="" stroke-dashoffset="0" style="mix-blend-mode: normal"><path d="" fill="url(#color-1)" stroke="#0090ff" stroke-width="2" stroke-linecap="butt"></path><path d="" fill="url(#color-2)" stroke="#0090ff" stroke-width="2" stroke-linecap="butt"></path><path d="" fill="url(#color-3)" stroke="#0090ff" stroke-width="2" stroke-linecap="butt"></path><path d="" fill="url(#color-4)" stroke="#0090ff" stroke-width="2" stroke-linecap="butt"></path><path d="" fill="url(#color-5)" stroke="#0090ff" stroke-width="2" stroke-linecap="butt"></path><path d="" fill="url(#color-6)" stroke="#0090ff" stroke-width="2" stroke-linecap="butt"></path><path d="" fill="#ad5d00" stroke="#d6ffcf" stroke-width="2" stroke-linecap="butt"></path><path d="" fill="#ad5d00" stroke="#d6ffcf" stroke-width="2" stroke-linecap="butt"></path><path d="" fill="#ad5d00" stroke="#d6ffcf" stroke-width="2" stroke-linecap="butt"></path><path d="" fill="#ad5d00" stroke="#d6ffcf" stroke-width="2" stroke-linecap="butt"></path><path d="" fill="#ad5d00" stroke="#d6ffcf" stroke-width="2" stroke-linecap="butt"></path><path d="" fill="#ad5d00" stroke="#d6ffcf" stroke-width="2" stroke-linecap="butt"></path><path d="" fill="#ffffff" stroke="none" stroke-width="0" stroke-linecap="butt"></path><path d="" fill="#ffffff" stroke="none" stroke-width="0" stroke-linecap="butt"></path><path d="" fill="#ffffff" stroke="none" stroke-width="0" stroke-linecap="butt"></path><path d="" fill="#ffeecf" stroke="none" stroke-width="NaN" stroke-linecap="butt"></path><path d="M255.43605,180c0,17.16236 -6.91095,31.0752 -15.43605,31.0752c-8.5251,0 -15.43605,-13.91284 -15.43605,-31.0752c0,-17.16236 6.91095,-31.0752 15.43605,-31.0752c8.52509,0 15.43605,13.91284 15.43605,31.0752zM240.46852,169.98012c-0.20619,-0.58912 -0.79531,-0.38293 -0.79531,-0.38293c-0.99366,0.34908 -1.51273,0.46849 -2.41616,1.04582c-0.39197,0.25049 -0.78282,0.51702 -1.10425,0.85326c-0.33572,0.35119 -0.63654,0.7485 -0.84603,1.18686c-0.97651,2.04346 1.39242,3.80068 2.83433,4.83284c0.49301,0.35291 1.01277,0.66701 1.52527,0.99097c0.12924,0.0817 0.35671,0.06415 0.40888,0.20787c0.2442,0.67275 -1.14232,0.96445 0.08731,1.75257c0.4468,0.28637 1.0744,0.08597 1.59177,-0.0322c1.05929,-0.24195 2.07651,-1.12149 2.93265,-1.86483c0.07682,-0.05544 0.15095,-0.11938 0.222,-0.19238c0.0707,-0.061 0.14015,-0.12051 0.20827,-0.17803c0.2497,-0.38892 0.68868,-0.70855 0.74909,-1.16676c0.02705,-0.20518 -0.06738,-0.3842 -0.19904,-0.55692c-0.01784,-0.18172 -0.07806,-0.32914 -0.16898,-0.45234c-0.08703,-0.2763 -0.212,-0.53689 -0.35953,-0.75813c0.12306,-0.48456 0.4342,-1.25655 0.45364,-1.32309c0.1155,-0.39533 0.54071,-0.88009 0.28433,-1.20243c-0.3803,-0.47814 -1.12565,-0.50757 -1.72757,-0.6121c-0.44115,-0.07661 -0.89433,0.04689 -1.34091,0.07921c-0.45211,0.03272 -0.9509,0.04034 -1.44429,0.08346c-0.2115,-0.23064 -0.43145,-0.45279 -0.65806,-0.65667c0.04243,-0.24537 0.05997,-0.49879 0.10918,-0.74196l-0.51921,-0.23989c0.14501,-0.11871 0.29191,-0.33137 0.17262,-0.67219zM241.17451,166.35344l-0.03622,-0.84106c-0.20764,-0.26012 -0.37342,-0.56007 -0.62292,-0.78036c-0.38753,-0.34216 -1.64687,-0.72663 -1.6212,-1.46301c0.01061,-0.30439 0.36602,-0.52675 0.37987,-0.83101c0.02009,-0.44157 -0.03662,-0.92858 -0.2831,-1.29551c-0.45893,-0.68319 -1.80896,-0.43017 -2.09261,-1.37124c-0.07426,-0.24637 0.71122,-0.70311 0.75049,-0.73188c0.309,-0.22646 0.61296,-0.45972 0.91944,-0.68958c0,0 0.49932,-0.37449 0.12483,-0.87382c-0.37449,-0.49932 -0.87382,-0.12483 -0.87382,-0.12483c-0.7173,0.53798 -2.36555,1.3776 -2.16108,2.56278c0.0969,0.56165 0.57874,0.9973 0.98316,1.3989c0.35347,0.351 1.02609,0.23905 1.36819,0.60115c0.33064,0.34996 -0.4053,0.91842 -0.36296,1.39801c0.12683,1.43658 1.49254,1.8624 2.31623,2.74142c-0.01005,0.04398 -0.12704,0.60873 0.45478,0.75418c0.60552,0.15138 0.7569,-0.45414 0.7569,-0.45414zM241.38446,202.34482l-0.22316,-0.10641c-1.47063,-0.51654 -3.02235,-0.56454 -4.56059,-0.7954c0,0 -0.61725,-0.09259 -0.70984,0.52466c-0.09259,0.61725 0.52466,0.70984 0.52466,0.70984c1.44783,0.21706 2.94917,0.23939 4.32734,0.737l0.08332,0.04683c0,0 0.55826,0.27913 0.83739,-0.27913c0.27913,-0.55826 -0.27913,-0.83739 -0.27913,-0.83739zM235.5102,194.77391l0.90293,-0.31741c0.11168,-0.36326 0.31842,-0.71012 0.33504,-1.0898c0.00645,-0.14744 -0.26046,-0.2022 -0.27204,-0.34933c-0.00663,-0.0843 0.16443,0.05946 0.24854,0.05077c0.18691,-0.01933 0.36519,-0.08874 0.54779,-0.13311c0,0 0.60552,-0.15138 0.45414,-0.7569c-0.15138,-0.60552 -0.7569,-0.45414 -0.7569,-0.45414c-0.5395,0.13793 -1.36311,0.26677 -1.65551,0.8371c-0.15748,0.30717 0.14536,0.67489 0.21624,1.01272l-0.323,-0.01094c0,0 -0.60552,0.15138 -0.45414,0.7569c0.15138,0.60552 0.7569,0.45414 0.7569,0.45414z" fill="url(#color-7)" stroke="#0090ff" stroke-width="0.5" stroke-linecap="butt"></path><path d="M240.15293,166.27878l-0.16144,-0.19436c0.05678,0.06231 0.11079,0.12693 0.16144,0.19436z" fill="url(#color-8)" stroke="#0090ff" stroke-width="0.5" stroke-linecap="butt"></path><path d="M244.0525,173.37273c0.23693,-0.0191 0.48063,-0.13435 0.7096,-0.07051c0.11981,0.0334 -0.26819,0.06803 -0.32863,0.17673c-0.07222,0.1299 -0.15902,0.34433 -0.24323,0.59495c-0.37352,-0.15913 -0.97847,-0.19324 -1.44952,-0.07816c-0.11051,-0.14803 -0.22718,-0.30351 -0.34942,-0.46317c0.55647,-0.05367 1.11254,-0.11561 1.66121,-0.15984z" fill="url(#color-9)" stroke="#0090ff" stroke-width="0.5" stroke-linecap="butt"></path><path d="M236.28857,173.75421c-0.02526,-0.42275 0.1299,-0.79599 0.39464,-1.12429l0.05605,0.18974c-0.04334,0.29368 -0.05103,0.60732 -0.11206,0.88523c-0.0422,0.19215 -0.08382,0.40373 -0.10825,0.62125c-0.12602,-0.17898 -0.21846,-0.37232 -0.23039,-0.57194z" fill="url(#color-10)" stroke="#0090ff" stroke-width="0.5" stroke-linecap="butt"></path><path d="M240.97539,179.51996c-0.03923,0.01856 -0.0017,0.00102 0.05262,-0.03247l0.00378,0.00557c-0.01877,0.00903 -0.03757,0.01799 -0.0564,0.0269z" fill="url(#color-11)" stroke="#0090ff" stroke-width="0.5" stroke-linecap="butt"></path><path d="M245.53938,155.97003c0,3.36094 -2.48007,6.08552 -5.53938,6.08552c-0.24892,0 -0.49401,-0.01804 -0.73424,-0.05299c-0.02788,-0.30749 -0.10776,-0.61136 -0.27482,-0.86006c-0.45893,-0.68319 -1.80896,-0.43017 -2.09261,-1.37124c-0.07426,-0.24637 0.71122,-0.70311 0.75049,-0.73188c0.309,-0.22646 0.61296,-0.45972 0.91944,-0.68958c0,0 0.49932,-0.37449 0.12483,-0.87382c-0.37449,-0.49932 -0.87382,-0.12483 -0.87382,-0.12483c-0.67866,0.509 -2.19068,1.28802 -2.17842,2.37425c-0.73932,-1.03431 -1.18022,-2.33827 -1.18022,-3.75537c0,-3.36094 2.48007,-6.08552 5.53938,-6.08552c3.05931,0 5.53938,2.72458 5.53938,6.08552z" fill="#ffeecf" stroke="#000000" stroke-width="0.5" stroke-linecap="butt"></path><path d="M237.03527,152.01705c0,0 -1.24831,-0.65295 -1.24831,-1.04026c0,-0.48991 1.24831,-1.66441 1.24831,-1.66441h6.44961c0,0 1.24831,1.18453 1.24831,1.66441c0,0.41094 -1.24831,1.04026 -1.24831,1.04026c0,0 -1.82102,0.72818 -2.91272,0.72818c-1.05704,0 -3.53688,-0.72818 -3.53688,-0.72818z" fill="#bb7711" stroke="none" stroke-width="0.5" stroke-linecap="butt"></path><path d="M240.65461,153.9184c0.32969,0.43496 0.0402,1.20958 -0.64658,1.73014c-0.68679,0.52056 -1.51081,0.58996 -1.8405,0.15499c-0.32969,-0.43496 -0.0402,-1.20958 0.64658,-1.73014c0.68679,-0.52056 1.51081,-0.58996 1.8405,-0.15499z" fill="#000000" stroke="none" stroke-width="0.5" stroke-linecap="butt"></path><path d="M244.62916,153.68147c0,0.57452 -0.62875,1.04026 -1.40435,1.04026c-0.7756,0 -1.40435,-0.46574 -1.40435,-1.04026c0,-0.57452 0.62875,-1.04026 1.40435,-1.04026c0.7756,0 1.40435,0.46574 1.40435,1.04026z" fill="#000000" stroke="none" stroke-width="0.5" stroke-linecap="butt"></path><path d="M239.28223,153.91032h3.18319" fill="none" stroke="#000000" stroke-width="0.5" stroke-linecap="round"></path><path d="M244.71238,152.41235l-0.43691,0.8114" fill="none" stroke="#000000" stroke-width="0.5" stroke-linecap="round"></path><path d="M238.27022,155.65579l1.56039,0.93623" fill="none" stroke="#000000" stroke-width="0.5" stroke-linecap="round"></path><path d="M234.06859,184.67577c0,-5.7662 0,-15.71869 0,-19.00778c0,-2.07874 0.4073,-4.48761 0.85963,-4.48761c0.29578,0 0.85585,0 1.57894,0c0.04525,0.04463 0.09018,0.08874 0.1342,0.13245c0.35347,0.351 1.02609,0.23905 1.36819,0.60115c0.33064,0.34996 -0.4053,0.91842 -0.36296,1.39801c0.12683,1.43658 1.49254,1.8624 2.31623,2.74142c-0.01005,0.04398 -0.12704,0.60873 0.45478,0.75418c0.60552,0.15138 0.7569,-0.45414 0.7569,-0.45414l-0.03622,-0.84106c-0.20764,-0.26012 -0.37342,-0.56007 -0.62292,-0.78036c-0.38753,-0.34216 -1.64687,-0.72663 -1.6212,-1.46301c0.01061,-0.30439 0.36602,-0.52675 0.37987,-0.83101c0.01941,-0.42654 -0.03285,-0.89548 -0.25859,-1.25763c2.57522,0 5.62101,0 7.09183,0c0.55216,0 0.88236,1.67056 0.88236,4.13991c0,5.81867 0,16.07251 0,19.35548c0,1.99019 -0.3393,4.25581 -0.90508,4.25581c-2.55587,0 -9.73362,0 -11.1336,0c-0.46291,0 -0.88236,-1.72454 -0.88236,-4.25581zM240.46852,169.98012c-0.20619,-0.58912 -0.79531,-0.38293 -0.79531,-0.38293c-0.99366,0.34908 -1.51273,0.46849 -2.41616,1.04582c-0.39197,0.25049 -0.78282,0.51702 -1.10425,0.85326c-0.33572,0.35119 -0.63654,0.7485 -0.84603,1.18686c-0.97651,2.04346 1.39242,3.80068 2.83433,4.83284c0.49301,0.35291 1.01277,0.66701 1.52527,0.99097c0.12924,0.0817 0.35671,0.06415 0.40888,0.20787c0.2442,0.67275 -1.14232,0.96445 0.08731,1.75257c0.4468,0.28637 1.0744,0.08597 1.59177,-0.0322c1.05929,-0.24195 2.07651,-1.12149 2.93265,-1.86483c0.07682,-0.05544 0.15095,-0.11938 0.222,-0.19238c0.0707,-0.061 0.14015,-0.12051 0.20827,-0.17803c0.2497,-0.38892 0.68868,-0.70855 0.74909,-1.16676c0.02705,-0.20518 -0.06738,-0.3842 -0.19904,-0.55692c-0.01784,-0.18172 -0.07806,-0.32914 -0.16898,-0.45234c-0.08703,-0.2763 -0.212,-0.53689 -0.35953,-0.75813c0.12306,-0.48456 0.4342,-1.25655 0.45364,-1.32309c0.1155,-0.39533 0.54071,-0.88009 0.28433,-1.20243c-0.3803,-0.47814 -1.12565,-0.50757 -1.72757,-0.6121c-0.44115,-0.07661 -0.89433,0.04689 -1.34091,0.07921c-0.45211,0.03272 -0.9509,0.04034 -1.44429,0.08346c-0.2115,-0.23064 -0.43145,-0.45279 -0.65806,-0.65667c0.04243,-0.24537 0.05997,-0.49879 0.10918,-0.74196l-0.51921,-0.23989c0.14501,-0.11871 0.29191,-0.33137 0.17262,-0.67219z" fill="#ad5d00" stroke="#d6ffcf" stroke-width="0.5" stroke-linecap="butt"></path><path d="M240.15293,166.27878l-0.16144,-0.19436c0.05678,0.06231 0.11079,0.12693 0.16144,0.19436z" fill="#ad5d00" stroke="#d6ffcf" stroke-width="0.5" stroke-linecap="butt"></path><path d="M244.0525,173.37273c0.23693,-0.0191 0.48063,-0.13435 0.7096,-0.07051c0.11981,0.0334 -0.26819,0.06803 -0.32863,0.17673c-0.07222,0.1299 -0.15902,0.34433 -0.24323,0.59495c-0.37352,-0.15913 -0.97847,-0.19324 -1.44952,-0.07816c-0.11051,-0.14803 -0.22718,-0.30351 -0.34942,-0.46317c0.55647,-0.05367 1.11254,-0.11561 1.66121,-0.15984z" fill="#ad5d00" stroke="#d6ffcf" stroke-width="0.5" stroke-linecap="butt"></path><path d="M236.28857,173.75421c-0.02526,-0.42275 0.1299,-0.79599 0.39464,-1.12429l0.05605,0.18974c-0.04334,0.29368 -0.05103,0.60732 -0.11206,0.88523c-0.0422,0.19215 -0.08382,0.40373 -0.10825,0.62125c-0.12602,-0.17898 -0.21846,-0.37232 -0.23039,-0.57194z" fill="#ad5d00" stroke="#d6ffcf" stroke-width="0.5" stroke-linecap="butt"></path><path d="M240.97539,179.51996c-0.03923,0.01856 -0.0017,0.00102 0.05262,-0.03247l0.00378,0.00557c-0.01877,0.00903 -0.03757,0.01799 -0.0564,0.0269z" fill="#ad5d00" stroke="#d6ffcf" stroke-width="0.5" stroke-linecap="butt"></path><path d="M238.95831,165.32597c-0.0015,-0.03624 -0.0036,-0.07262 -0.00628,-0.10915c0.35194,0.26555 0.71607,0.52205 1.01079,0.83658c-0.01005,0.04398 -0.12704,0.60873 0.45478,0.75418c0.60552,0.15138 0.7569,-0.45414 0.7569,-0.45414l-0.03622,-0.84106c-0.20764,-0.26012 -0.37342,-0.56007 -0.62292,-0.78036c-0.38753,-0.34216 -1.64687,-0.72663 -1.6212,-1.46301c0.01061,-0.30439 0.36602,-0.52675 0.37987,-0.83101c0.01698,-0.37311 -0.02088,-0.77866 -0.18172,-1.1168l4.49658,-0.14989c0,0 -2.03666,3.00883 -2.09853,4.28437c-0.05658,1.16636 2.74873,3.78308 2.27052,6.64927c-0.31643,0.01083 -0.63617,0.07951 -0.9526,0.10241c-0.45211,0.03272 -0.9509,0.04034 -1.44429,0.08346c-0.2115,-0.23064 -0.43145,-0.45279 -0.65806,-0.65667c0.04243,-0.24537 0.05997,-0.49879 0.10918,-0.74196l-0.51921,-0.23989c0.14501,-0.11871 0.29191,-0.33137 0.17262,-0.67219c-0.20619,-0.58912 -0.79531,-0.38293 -0.79531,-0.38293c-0.43551,0.153 -0.77985,0.26187 -1.10534,0.38452c0.25756,-2.01223 0.43058,-3.68499 0.39043,-4.65575z" fill="#ffffff" stroke="none" stroke-width="0.5" stroke-linecap="butt"></path><path d="M238.00955,161.91398c0.13838,0.14646 0.08994,0.33119 -0.01007,0.53166c-0.17672,-0.3249 -0.34316,-0.59622 -0.46366,-0.78386c0.18082,0.05138 0.34918,0.12037 0.47373,0.2522z" fill="#ffffff" stroke="none" stroke-width="0.5" stroke-linecap="butt"></path><path d="M240.15293,166.27878l-0.16144,-0.19436c0.05678,0.06231 0.11079,0.12693 0.16144,0.19436z" fill="#ffffff" stroke="none" stroke-width="0.5" stroke-linecap="butt"></path><path d="M238.49163,189.05027c0,0 -2.13442,-4.901 -1.99416,-10.28279c0.01593,-0.61131 0.69068,-1.13202 1.01702,-1.70996c0.21881,0.16541 0.43123,0.31859 0.62663,0.45846c0.49301,0.35291 1.01277,0.66701 1.52527,0.99097c0.00342,0.00217 0.00692,0.00426 0.01048,0.00629c-0.97876,4.54623 2.5597,10.53703 2.5597,10.53703z" fill="#ffffff" stroke="none" stroke-width="0.5" stroke-linecap="butt"></path><path d="M243.28347,173.44326c-0.09571,0.17051 -0.2059,0.34124 -0.33179,0.51194c-0.07237,0.01046 -0.14306,0.02395 -0.21096,0.04054c-0.11051,-0.14803 -0.22718,-0.30351 -0.34942,-0.46317c0.29787,-0.02873 0.59562,-0.05983 0.89218,-0.08931z" fill="#ffffff" stroke="none" stroke-width="0.5" stroke-linecap="butt"></path><path d="M235.53726,203.54381l-0.53849,-8.84851c0.2276,0.14958 0.51144,0.07862 0.51144,0.07862l0.90293,-0.31741c0.11168,-0.36326 0.31842,-0.71012 0.33504,-1.0898c0.00645,-0.14744 -0.26046,-0.2022 -0.27204,-0.34933c-0.00663,-0.0843 0.16443,0.05946 0.24854,0.05077c0.18691,-0.01933 0.36519,-0.08874 0.54779,-0.13311c0,0 0.60552,-0.15138 0.45414,-0.7569c-0.15138,-0.60552 -0.7569,-0.45414 -0.7569,-0.45414c-0.5395,0.13793 -1.36311,0.26677 -1.65551,0.8371c-0.15748,0.30717 0.14536,0.67489 0.21624,1.01272l-0.323,-0.01094c0,0 -0.14043,0.03511 -0.26913,0.13914l-0.35523,-5.8371l3.53035,-0.21484l0.85762,14.09254c-0.78511,-0.11054 -1.57951,-0.1809 -2.37035,-0.29959c0,0 -0.61725,-0.09259 -0.70984,0.52466c-0.09259,0.61725 0.52466,0.70984 0.52466,0.70984c0.87088,0.13056 1.76112,0.19067 2.63227,0.32614l0.0198,0.32532z" fill="#d69100" stroke="none" stroke-width="0.5" stroke-linecap="butt"></path><path d="M233.17794,205.87597l-0.25276,-4.15335c0,0 1.17505,0.33957 2.16419,-0.1647c1.09472,-0.5581 2.04315,-1.96727 2.70609,-2.00761c0.77278,-0.04703 1.98275,1.75527 1.98275,1.75527l0.03505,0.57587c-1.05591,-0.20507 -2.13752,-0.27709 -3.21255,-0.43843c0,0 -0.61725,-0.09259 -0.70984,0.52466c-0.09259,0.61725 0.52466,0.70984 0.52466,0.70984c1.15445,0.17308 2.34291,0.22234 3.47583,0.48747l0.1396,2.29395z" fill="#7c5500" stroke="none" stroke-width="0.5" stroke-linecap="butt"></path><path d="M237.17878,199.69205l1.97643,1.65143" fill="none" stroke="#000000" stroke-width="0.5" stroke-linecap="round"></path><path d="M236.52145,200.87845l0.73897,0.65419" fill="none" stroke="#000000" stroke-width="0.5" stroke-linecap="round"></path><path d="M249.74621,185.01048l-3.90292,-7.86402c0.01016,-0.03685 0.01797,-0.07456 0.02307,-0.11327c0.02705,-0.20518 -0.06738,-0.3842 -0.19904,-0.55692c-0.01784,-0.18172 -0.07806,-0.32914 -0.16898,-0.45234c-0.08703,-0.2763 -0.212,-0.53689 -0.35953,-0.75813c0.12306,-0.48456 0.4342,-1.25655 0.45364,-1.32309c0.1155,-0.39533 0.54071,-0.88009 0.28433,-1.20243c-0.3803,-0.47814 -1.12565,-0.50757 -1.72757,-0.6121c-0.26034,-0.04521 -0.52486,-0.02073 -0.78975,0.01357l-0.31888,-0.64252l2.60907,-1.29488l6.70565,13.51125z" fill="#ffeecf" stroke="none" stroke-width="0.5" stroke-linecap="butt"></path><path d="M244.0525,173.37273c0.23693,-0.0191 0.48063,-0.13435 0.7096,-0.07051c0.11981,0.0334 -0.26819,0.06803 -0.32863,0.17673c-0.05716,0.1028 -0.12345,0.25856 -0.19035,0.44329l-0.26951,-0.54304c0.02632,-0.0022 0.05262,-0.00436 0.0789,-0.00648z" fill="#ffeecf" stroke="none" stroke-width="0.5" stroke-linecap="butt"></path><path d="M238.65375,203.40442l0.14464,-0.43756c0.66259,0.09277 1.31633,0.22084 1.94448,0.44765l0.08332,0.04683c0,0 0.55826,0.27913 0.83739,-0.27913c0.27913,-0.55826 -0.27913,-0.83739 -0.27913,-0.83739l-0.22316,-0.10641c-0.64342,-0.22599 -1.30236,-0.3623 -1.96891,-0.46348l4.48935,-13.58101l2.76554,0.91418l-5.028,15.2105zM244.80501,192.66334l-0.28023,-0.54337c-0.08895,-0.05785 -0.26684,-0.06745 -0.26684,-0.17356c0,-0.10611 0.17789,-0.11571 0.26684,-0.17356c0,0 0.36278,-0.5079 -0.14511,-0.87068c-0.5079,-0.36278 -0.87068,0.14511 -0.87068,0.14511c-0.16645,0.29971 -0.49936,0.55629 -0.49936,0.89912c0,0.34283 0.33291,0.59942 0.49936,0.89912l0.17949,0.37607c0,0 0.27913,0.55826 0.83739,0.27913c0.55826,-0.27913 0.27913,-0.83739 0.27913,-0.83739z" fill="#d69100" stroke="none" stroke-width="0.5" stroke-linecap="butt"></path><path d="M237.83505,204.88679l0.64841,-1.96154c0.77013,0.09635 1.53193,0.22659 2.25942,0.48926l0.08332,0.04683c0,0 0.55826,0.27913 0.83739,-0.27913c0.27913,-0.55826 -0.27913,-0.83739 -0.27913,-0.83739l-0.22316,-0.10641c-0.74421,-0.2614 -1.50918,-0.4028 -2.28267,-0.50864l0.26239,-0.79376c0,0 1.63045,-1.43315 2.36554,-1.19016c0.6306,0.20846 1.18733,1.81324 2.10304,2.63261c0.8274,0.74035 2.0502,0.71241 2.0502,0.71241l-1.30597,3.95078z" data-paper-data="{&quot;index&quot;:null}" fill="#7c5500" stroke="none" stroke-width="0.5" stroke-linecap="butt"></path><path d="M239.73364,201.13191l2.33289,-1.0914" data-paper-data="{&quot;index&quot;:null}" fill="none" stroke="#000000" stroke-width="0.5" stroke-linecap="round"></path><path d="M242.39877,201.35553l-1.55056,0.78013" data-paper-data="{&quot;index&quot;:null}" fill="none" stroke="#000000" stroke-width="0.5" stroke-linecap="round"></path><path d="M229.24242,182.62678l6.52571,-13.59908l2.36334,1.13408c-0.26818,0.1219 -0.54588,0.27129 -0.8744,0.48123c-0.39197,0.25049 -0.78282,0.51702 -1.10425,0.85326c-0.33572,0.35119 -0.63654,0.7485 -0.84603,1.18686c-0.50158,1.04962 -0.12052,2.02371 0.56418,2.86283l-4.00252,8.34095z" fill="#ffeecf" stroke="none" stroke-width="0.5" stroke-linecap="butt"></path><path d="M236.28857,173.75421c-0.02526,-0.42275 0.1299,-0.79599 0.39464,-1.12429l0.05605,0.18974c-0.04334,0.29368 -0.05103,0.60732 -0.11206,0.88523c-0.03038,0.13836 -0.06047,0.2868 -0.08406,0.44029l-0.0609,0.12691c-0.10697,-0.16361 -0.18294,-0.33821 -0.19368,-0.51788z" fill="#ffeecf" stroke="none" stroke-width="0.5" stroke-linecap="butt"></path><path d="M238.2612,153.5075c0.22067,0.22067 0,0.44134 0,0.44134l-0.01816,-0.00449c-0.14613,0.27975 -0.37938,0.5326 -0.65669,0.75127c0.09685,0.22447 0.19249,0.45 0.28422,0.6789l-0.30343,0.47165c0,0 -0.27913,0.13956 -0.4187,-0.13956c-0.08081,-0.16163 -0.02125,-0.27646 0.04323,-0.3445c-0.0439,-0.10602 -0.08847,-0.21148 -0.13343,-0.31659c-0.35954,0.20107 -0.74348,0.35177 -1.08738,0.44118c0,0 -0.30276,0.07569 -0.37845,-0.22707c-0.07569,-0.30276 0.22707,-0.37845 0.22707,-0.37845c0.28669,-0.06785 0.6547,-0.21046 0.99293,-0.40346c-0.12403,-0.28555 -0.24728,-0.5718 -0.36418,-0.86352c0,0 -0.1159,-0.28975 0.17386,-0.40566c0.28975,-0.1159 0.40566,0.17386 0.40566,0.17386c0.09813,0.2458 0.20086,0.48764 0.30487,0.72839c0.15425,-0.13805 0.27853,-0.28808 0.35216,-0.44557l0.13508,-0.15773c0,0 0.22067,-0.22067 0.44134,0z" fill="#000000" stroke="none" stroke-width="0.5" stroke-linecap="butt"></path><path d="M245.78475,157.2527c0,0.31208 -0.31208,0.31208 -0.31208,0.31208h-0.15324c-0.16435,0 -0.33351,-0.00627 -0.50448,-0.01224c0.07714,0.23058 0.14805,0.46454 0.19753,0.71164l-0.08657,0.38975c0,0 -0.09869,0.29606 -0.39475,0.19738c-0.29606,-0.09869 -0.19738,-0.39475 -0.19738,-0.39475l0.06667,-0.06997c-0.05862,-0.29347 -0.14887,-0.56839 -0.2436,-0.84176c-0.09523,0.00308 -0.18983,0.00887 -0.28326,0.0185c-0.04329,0.2285 -0.13746,0.45787 -0.31259,0.71157c-0.00813,0.07506 -0.05379,0.28594 -0.31032,0.28594c-0.31208,0 -0.31208,-0.31208 -0.31208,-0.31208l0.06242,-0.26387c0.10648,-0.14093 0.17807,-0.26886 0.22395,-0.39142c-0.05285,-0.03436 -0.09977,-0.09234 -0.1238,-0.18846c-0.02547,-0.10187 -0.00809,-0.17803 0.02618,-0.23425c-0.13907,0.00702 -0.27728,0.01042 -0.413,0.01092c0,0 -0.31208,0 -0.31208,-0.31208c0,-0.31208 0.31208,-0.31208 0.31208,-0.31208c0.16056,0.00069 0.32782,-0.00321 0.49627,-0.01368c-0.01329,-0.07666 -0.0267,-0.15735 -0.03901,-0.24307c0,0 -0.04413,-0.30894 0.26481,-0.35308c0.30894,-0.04413 0.35308,0.26481 0.35308,0.26481c0.01277,0.08989 0.02579,0.17611 0.03825,0.25927c0.01442,-0.00262 0.0288,-0.0053 0.04314,-0.00805c0.022,-0.08122 0.08058,-0.16761 0.22356,-0.20336c0.30276,-0.07569 0.37845,0.22707 0.37845,0.22707c0.03756,0.15026 0.08162,0.29611 0.12856,0.43987c0.24108,0.00433 0.48172,0.01333 0.71798,0.01333h0.15324c0,0 0.31208,0 0.31208,0.31208z" fill="#000000" stroke="none" stroke-width="0.5" stroke-linecap="butt"></path></g></g></svg>