<svg version="1.1" xmlns="http://www.w3.org/2000/svg" xmlns:xlink="http://www.w3.org/1999/xlink" width="92.69212" height="29.5683" viewBox="0,0,92.69212,29.5683"><g transform="translate(-90.63264,-71.71913)"><g data-paper-data="{&quot;isPaintingLayer&quot;:true}" fill-rule="nonzero" stroke-linecap="butt" stroke-linejoin="miter" stroke-miterlimit="10" stroke-dasharray="" stroke-dashoffset="0" style="mix-blend-mode: normal"><path d="M91.63268,96.05968c0,-5.7282 0,-15.6151 0,-18.88251c0,-2.06504 2.85883,-4.45804 6.03372,-4.45804c9.77006,0 60.62466,0 78.46514,0c3.87559,0 6.19322,1.65955 6.19322,4.11262c0,5.78032 0,15.96659 0,19.22792c0,1.97707 -2.38149,4.22776 -6.35271,4.22776c-17.93952,0 -68.3198,0 -78.14619,0c-3.24918,0 -6.19322,-1.71318 -6.19322,-4.22776z" fill-opacity="0.62097" fill="#291800" stroke="#fff4ce" stroke-width="2"></path><path d="M94.80395,88.96354c0,-2.30817 0,-6.29207 0,-7.60866c0,-0.8321 0.69378,-1.79636 1.46427,-1.79636c2.37101,0 14.71251,0 19.04207,0c0.94053,0 1.50298,0.66872 1.50298,1.65717c0,2.32917 0,6.4337 0,7.74785c0,0.79666 -0.57794,1.70357 -1.54169,1.70357c-2.44202,0 -9.39292,-0.69157 -14.51589,0.74337c-1.49487,0.41872 -2.70305,4.55701 -3.76072,4.55701c-1.77965,0 -0.03129,-5.30039 -0.68805,-5.30039c-0.78852,0 -1.50298,-0.69032 -1.50298,-1.70357z" fill="none" stroke="#fff4ce" stroke-width="2"></path><g fill="#fff4ce" stroke="none" stroke-width="0.5"><path d="M99.52956,85.30858c0,-0.55228 0.44772,-1 1,-1c0.55228,0 1,0.44772 1,1c0,0.55228 -0.44772,1 -1,1c-0.55228,0 -1,-0.44772 -1,-1z"></path><path d="M104.72956,85.48358c0,-0.55228 0.44772,-1 1,-1c0.55228,0 1,0.44772 1,1c0,0.55228 -0.44772,1 -1,1c-0.55228,0 -1,-0.44772 -1,-1z"></path><path d="M110.25456,85.33358c0,-0.55228 0.44772,-1 1,-1c0.55228,0 1,0.44772 1,1c0,0.55228 -0.44772,1 -1,1c-0.55228,0 -1,-0.44772 -1,-1z"></path></g><text transform="translate(122.85145,89.45452) scale(0.22446,0.22446)" font-size="40" xml:space="preserve" fill="#fff4ce" fill-rule="nonzero" stroke="none" stroke-width="1" stroke-linecap="butt" stroke-linejoin="miter" stroke-miterlimit="10" stroke-dasharray="" stroke-dashoffset="0" font-family="Serif" font-weight="normal" text-anchor="start" style="mix-blend-mode: normal"><tspan x="0" dy="0">Close chat</tspan></text></g></g></svg>