<svg version="1.1" xmlns="http://www.w3.org/2000/svg" xmlns:xlink="http://www.w3.org/1999/xlink" width="28.5" height="12.60478" viewBox="0,0,28.5,12.60478"><defs><linearGradient x1="264.25131" y1="165.85374" x2="263.52707" y2="165.06484" gradientUnits="userSpaceOnUse" id="color-1"><stop offset="0" stop-color="#ffffff"></stop><stop offset="1" stop-color="#e4e4e4"></stop></linearGradient><linearGradient x1="264.76189" y1="165.20569" x2="264.03765" y2="164.4168" gradientUnits="userSpaceOnUse" id="color-2"><stop offset="0" stop-color="#ffffff"></stop><stop offset="1" stop-color="#e4e4e4"></stop></linearGradient><radialGradient cx="259.13563" cy="163.4274" r="2.61304" gradientUnits="userSpaceOnUse" id="color-3"><stop offset="0" stop-color="#f2d1d1"></stop><stop offset="1" stop-color="#ff5959"></stop></radialGradient><radialGradient cx="259.13563" cy="163.4274" r="2.61304" gradientUnits="userSpaceOnUse" id="color-4"><stop offset="0" stop-color="#f2d1d1"></stop><stop offset="1" stop-color="#ff5959"></stop></radialGradient><linearGradient x1="261.46011" y1="163.40666" x2="261.46011" y2="165.8748" gradientUnits="userSpaceOnUse" id="color-5"><stop offset="0" stop-color="#fe5f5f"></stop><stop offset="1" stop-color="#fca1a1"></stop></linearGradient><linearGradient x1="262.332" y1="163.42976" x2="262.332" y2="167.82344" gradientUnits="userSpaceOnUse" id="color-6"><stop offset="0" stop-color="#ff5959" stop-opacity="0.41124"></stop><stop offset="1" stop-color="#970000" stop-opacity="0.39541"></stop></linearGradient><linearGradient x1="262.60231" y1="162.82815" x2="262.60231" y2="164.26791" gradientUnits="userSpaceOnUse" id="color-7"><stop offset="0" stop-color="#c10000" stop-opacity="0.24444"></stop><stop offset="1" stop-color="#ff5959"></stop></linearGradient><linearGradient x1="259.46941" y1="162.2405" x2="263.22427" y2="162.01582" gradientUnits="userSpaceOnUse" id="color-8"><stop offset="0" stop-color="#ffffff"></stop><stop offset="1" stop-color="#ffecab"></stop></linearGradient><linearGradient x1="259.03274" y1="165.66454" x2="259.03274" y2="166.73548" gradientUnits="userSpaceOnUse" id="color-9"><stop offset="0" stop-color="#ffffff"></stop><stop offset="1" stop-color="#e4e4e4"></stop></linearGradient><linearGradient x1="258.5585" y1="165.0415" x2="258.5585" y2="166.11244" gradientUnits="userSpaceOnUse" id="color-10"><stop offset="0" stop-color="#ffffff"></stop><stop offset="1" stop-color="#e4e4e4"></stop></linearGradient><linearGradient x1="258.19588" y1="164.39057" x2="258.19588" y2="165.4615" gradientUnits="userSpaceOnUse" id="color-11"><stop offset="0" stop-color="#ffffff"></stop><stop offset="1" stop-color="#e4e4e4"></stop></linearGradient><linearGradient x1="263.84443" y1="164.69335" x2="264.56863" y2="163.90446" gradientUnits="userSpaceOnUse" id="color-12"><stop offset="0" stop-color="#ffffff"></stop><stop offset="1" stop-color="#e4e4e4"></stop></linearGradient></defs><g transform="translate(-256.30012,-158.16421)"><g data-paper-data="{&quot;isPaintingLayer&quot;:true}" stroke-dasharray="" stroke-dashoffset="0" style="mix-blend-mode: normal"><path d="M256.55012,170.51899v-12.10478h28v12.10478z" fill="#808080" fill-rule="nonzero" stroke="#fff4ce" stroke-width="0.5" stroke-linecap="butt" stroke-linejoin="miter" stroke-miterlimit="10"></path><text transform="translate(267.25487,161.52998) scale(0.0672,0.0672)" font-size="40" xml:space="preserve" fill="#ffffff" fill-rule="nonzero" stroke="none" stroke-width="1" stroke-linecap="butt" stroke-linejoin="miter" stroke-miterlimit="10" stroke-dasharray="" stroke-dashoffset="0" font-family="&quot;ヒラギノ角ゴ Pro W3&quot;, &quot;Hiragino Kaku Gothic Pro&quot;, Osaka, &quot;メイリオ&quot;, Meiryo, &quot;ＭＳ Ｐゴシック&quot;, &quot;MS PGothic&quot;" font-weight="normal" text-anchor="start" style="mix-blend-mode: normal"><tspan x="0" dy="0">Angel</tspan></text><text transform="translate(266.07696,164.90573) scale(0.05393,0.05393)" font-size="40" xml:space="preserve" fill="#ffffff" fill-rule="nonzero" stroke="none" stroke-width="1" stroke-linecap="butt" stroke-linejoin="miter" stroke-miterlimit="10" stroke-dasharray="" stroke-dashoffset="0" font-family="Serif" font-weight="normal" text-anchor="start" style="mix-blend-mode: normal"><tspan x="0" dy="0">"Infinite revives.</tspan><tspan x="0" dy="48px">You can die though."</tspan></text><path d="M265.62505,158.825l0.2,11.5" fill="none" fill-rule="nonzero" stroke="#fff4ce" stroke-width="0.5" stroke-linecap="round" stroke-linejoin="miter" stroke-miterlimit="10"></path><path d="M264.06615,164.90978c0.07993,-0.02965 0.2439,0.05076 0.2439,0.05076l0.29313,0.62064c0,0 -0.28907,0.13066 -0.32147,0.10828c-0.09567,-0.06611 -0.25762,-0.18134 -0.40452,-0.12685c-0.18644,0.06915 -0.38063,0.33413 -0.38063,0.33413c0,0 -0.07449,0.37362 -0.06801,0.45524c0.0026,0.0328 -0.05478,-0.0309 -0.06526,-0.02747c-0.06993,0.02291 -0.2384,-0.48538 -0.26159,-0.51967c-0.04063,-0.06008 0.03216,-0.37903 0.03216,-0.37903c0,0 0.74015,-0.44476 0.9323,-0.51603z" data-paper-data="{&quot;index&quot;:null}" fill="url(#color-1)" fill-rule="nonzero" stroke="#000000" stroke-width="0.1" stroke-linecap="butt" stroke-linejoin="miter" stroke-miterlimit="10"></path><path d="M264.57678,164.26173c0.07993,-0.02965 0.2439,0.05076 0.2439,0.05076l0.12299,0.75158c0,0 -0.11894,-0.00027 -0.15134,-0.02266c-0.09567,-0.06611 -0.25762,-0.18134 -0.40452,-0.12685c-0.18644,0.06915 -0.51326,0.20341 -0.51326,0.20341c0,0 0.0677,0.26486 0.03113,0.27684c-0.06993,0.02291 -0.27018,-0.20374 -0.29337,-0.23802c-0.04063,-0.06008 0.03216,-0.37903 0.03216,-0.37903c0,0 0.74015,-0.44476 0.9323,-0.51603z" data-paper-data="{&quot;index&quot;:null}" fill="url(#color-2)" fill-rule="nonzero" stroke="#000000" stroke-width="0.1" stroke-linecap="butt" stroke-linejoin="miter" stroke-miterlimit="10"></path><path d="M261.50663,168.05495c0,0 -0.86337,-0.55373 -1.22176,-0.97038c-0.29111,-0.33843 -0.70206,-0.99807 -0.70206,-0.99807c0.03937,0.00005 0.1457,0.12285 0.18507,0.12291c0.39121,0.00059 0.7817,0.30302 1.15622,0.30518c0.05112,0.00029 0.10222,0.00083 0.15329,0.00159c0.53729,0.07115 1.16307,-0.15267 1.70174,-0.16562c0.04402,0.0032 -0.07934,-0.19442 -0.03533,-0.19114z" fill-opacity="0.50417" fill="#000000" fill-rule="nonzero" stroke="none" stroke-width="0.1" stroke-linecap="butt" stroke-linejoin="miter" stroke-miterlimit="10"></path><path d="M258.64018,164.14126c0,-0.72471 0.58841,-1.31312 1.31312,-1.31312c0.66141,0 1.20925,0.49006 1.29992,1.12646c0.09067,-0.6364 0.6385,-1.12646 1.29992,-1.12646c0.72471,0 1.31312,0.58841 1.31312,1.31312v0.00013c0,0.68446 -0.27188,1.34096 -0.7559,1.82491l-1.85714,1.85714l-1.85714,-1.85714c-0.48401,-0.48395 -0.7559,-1.14044 -0.7559,-1.82491z" fill="url(#color-3)" fill-rule="evenodd" stroke="none" stroke-width="0.1" stroke-linecap="butt" stroke-linejoin="round" stroke-miterlimit="2"></path><path d="M259.94903,166.5186l0.01962,-0.00654c-0.0042,0.00474 -0.00833,0.00956 -0.01237,0.01444l-0.00785,-0.00786z" fill="url(#color-4)" fill-rule="nonzero" stroke="none" stroke-width="0.1" stroke-linecap="butt" stroke-linejoin="miter" stroke-miterlimit="10"></path><path d="M259.06836,165.56504c0.37917,-0.01932 0.7368,-0.17812 1.04947,-0.39662c0.20738,-0.14492 0.41665,-0.28809 0.63148,-0.42175c0.05392,-0.03355 0.13023,-0.12848 0.19778,-0.13601c0.04051,-0.00451 0.2564,0.19938 0.32724,0.22331c0.23333,0.0788 0.35809,0.06902 0.58932,0.02995c0.45444,-0.07678 1.02855,-0.78926 1.33386,-1.09457c0.12085,-0.12085 0.31281,-0.22794 0.44396,-0.3627c0.10735,0.15864 0.18094,0.34195 0.21042,0.53958c-0.05061,0.00268 -0.09747,0.01181 -0.12928,0.04744c-0.22085,0.24733 -0.34049,0.56506 -0.54965,0.82238c-0.17179,0.21135 -0.58723,0.47343 -0.84956,0.55586c-0.41827,0.13142 -0.84115,-0.24173 -1.2522,-0.22619c-0.32731,0.01237 -0.6162,0.11488 -0.92379,0.20387c-0.19886,0.05753 -0.42469,0.08447 -0.5759,0.25096c-0.06583,0.07248 -0.08675,0.14832 -0.14998,0.21949c-0.01366,0.01538 -0.02788,0.02814 -0.04256,0.039c-0.02386,0.00377 -0.04723,0.00904 -0.06999,0.01573c-0.0884,-0.09749 -0.16875,-0.20109 -0.24061,-0.30976z" fill="url(#color-5)" fill-rule="nonzero" stroke="none" stroke-width="0.1" stroke-linecap="butt" stroke-linejoin="miter" stroke-miterlimit="10"></path><path d="M263.86627,164.14126v0.00013c0,0.68446 -0.27188,1.34096 -0.7559,1.82491l-1.85714,1.85714l-0.45547,-0.45547l0.03758,-0.00512l0.09299,-0.0372l0.03663,-0.02645l0.04322,-0.01316l0.07462,-0.04477l0.00045,-0.00022l0.01497,-0.00374l0.08425,-0.04493l0.01164,-0.00416l0.00102,-0.00008l0.05579,-0.0186l0.00578,-0.00368l0.01568,-0.0056l0.05579,-0.0372l0.0058,-0.00638l0.00981,-0.00624l0.0426,-0.00237l0.04666,-0.05443l0.06048,-0.03849l0.0044,-0.02199l0.01206,-0.00268l0.07439,-0.0372l0.0681,-0.05837l0.07691,-0.04614l0.16551,-0.16551l0.00983,-0.00655l0.07369,-0.08106l0.08106,-0.07369l0.00655,-0.00983l0.01673,-0.01673l0.02859,-0.04765l0.04112,-0.03738l0.0372,-0.05579l0.02146,-0.06009l0.10873,-0.16309l0.01084,-0.03036l0.01406,-0.01205l0.03558,-0.02135l0.09299,-0.09299l0.00802,-0.01337l0.1025,-0.08786l0.00048,-0.00854l0.02612,-0.03918l0.00049,-0.00057l0.02978,-0.01787l0.0372,-0.0372l0.01787,-0.02977l0.01826,-0.01565l0.00055,-0.00984l0.05632,-0.05632l0.04614,-0.07691l0.05837,-0.0681l0.0186,-0.0372l0.00811,-0.0365l0.00171,-0.00285l0.03202,-0.03736l0.00243,-0.00145l0.07439,-0.07439l0.0247,-0.04117l0.00533,-0.0015l0.0218,-0.04087l0.05268,-0.06146l0.0186,-0.0372l0.00811,-0.0365l0.01672,-0.02787l-0.0031,-0.01137l0.02051,-0.03846l0.0186,-0.07439v-0.00232l0.0186,-0.03487l0.00374,-0.01497l0.00981,-0.01961l0.01333,-0.05998l0.02891,-0.05422l0.0026,-0.01039l0.01335,-0.02002l0.01073,-0.03004l0.00787,-0.00715l0.01161,-0.01742l0.0046,-0.00536l0.00307,-0.00613l0.01793,-0.02689l0.01186,-0.0332l0.02294,-0.02677l0.04063,-0.08125l0.09345,-0.10279l-0.0005,-0.00719l0.00437,-0.0025l0.00388,-0.01555l0.00695,-0.0139l0.02232,-0.10043l0.0172,-0.03439l0.00544,-0.00311l0.00388,-0.01555l0.00695,-0.01391l0.02781,-0.12515l0.03109,-0.12437v-0.01555l0.00348,-0.01564l-0.00024,-0.00036l0.01536,-0.06144v-0.01555l0.00348,-0.01564l-0.00348,-0.00521v-0.37276l-0.0029,-0.01158c0.13257,0.20507 0.20954,0.44937 0.20954,0.7115z" fill="url(#color-6)" fill-rule="nonzero" stroke="none" stroke-width="0.1" stroke-linecap="butt" stroke-linejoin="miter" stroke-miterlimit="10"></path><path d="M262.55314,162.82815c0.72471,0 1.31312,0.58841 1.31312,1.31312v0.00013c0,0.04229 -0.00104,0.08447 -0.0031,0.12652c-0.04166,-0.04037 -0.08736,-0.07651 -0.13687,-0.10741c-0.14152,-0.08833 -0.30529,-0.09134 -0.45701,-0.13629c-0.3865,-0.28648 -0.97935,-0.384 -1.31098,-0.11189c-0.01608,0.00277 -0.03207,0.00588 -0.04795,0.00941c-0.01237,0.00275 -0.02722,0.00536 -0.04362,0.00804c-0.12512,-0.03331 -0.25664,-0.06794 -0.38875,-0.08681c-0.04231,-0.06758 -0.08977,-0.13509 -0.1397,-0.20066c0.19654,-0.47755 0.66669,-0.81416 1.21486,-0.81416z" fill="url(#color-7)" fill-rule="nonzero" stroke="none" stroke-width="0.1" stroke-linecap="butt" stroke-linejoin="miter" stroke-miterlimit="10"></path><path d="M263.22427,162.01582c0.01315,0.21981 -0.81673,0.4483 -1.8536,0.51034c-1.03687,0.06205 -1.88809,-0.06584 -1.90124,-0.28565c-0.01315,-0.21981 0.81673,-0.44829 1.85361,-0.51034c1.03687,-0.06205 1.88808,0.06584 1.90124,0.28565z" fill="none" fill-rule="nonzero" stroke="url(#color-8)" stroke-width="0.3" stroke-linecap="butt" stroke-linejoin="miter" stroke-miterlimit="10"></path><path d="M258.7501,166.61458c0,0 -0.50179,-0.16713 -0.51249,-0.23886c-0.0093,-0.06234 0.09854,-0.18595 0.09854,-0.18595c0,0 0.10812,0.11555 0.23144,0.11151c0.13508,-0.00442 0.29026,-0.13001 0.3865,-0.16929c0.19418,-0.07926 0.25256,-0.46746 0.25256,-0.46746l0.47347,0.61823c0,0 -0.0664,0.17012 -0.14534,0.20234c-0.18974,0.07745 -0.78468,0.12947 -0.78468,0.12947z" fill="url(#color-9)" fill-rule="nonzero" stroke="#000000" stroke-width="0.1" stroke-linecap="butt" stroke-linejoin="miter" stroke-miterlimit="10"></path><path d="M258.02477,166.11244c0,0 -0.26931,-0.18572 -0.28001,-0.25746c-0.00611,-0.04094 -0.01187,-0.34333 0.05514,-0.37374c0.03503,-0.0159 0.16429,0.22499 0.16429,0.22499c0,0 0.33155,-0.12212 0.51565,-0.19726c0.14506,-0.05921 0.18644,-0.25362 0.2122,-0.36702c0.00873,-0.0384 0.09615,-0.11904 0.09615,-0.11904l0.41767,0.63683c0,0 -0.0664,0.17012 -0.14534,0.20234c-0.18974,0.07745 -1.03575,0.25036 -1.03575,0.25036z" fill="url(#color-10)" fill-rule="nonzero" stroke="#000000" stroke-width="0.1" stroke-linecap="butt" stroke-linejoin="miter" stroke-miterlimit="10"></path><path d="M257.66211,165.4615c0,0 -0.26931,-0.18572 -0.28001,-0.25746c-0.00611,-0.04094 -0.22575,-0.52931 -0.15874,-0.55972c0.01005,-0.00456 0.00923,-0.0903 0.0295,-0.06437c0.05042,0.06451 0.35796,0.28936 0.35796,0.28936c0,0 0.32225,0.06386 0.50635,-0.01128c0.14506,-0.05921 0.18644,-0.25362 0.2122,-0.36702c0.00873,-0.0384 0.31003,-0.13764 0.31003,-0.13764l0.20379,0.65543c0,0 -0.0664,0.17012 -0.14534,0.20234c-0.18974,0.07745 -1.03575,0.25036 -1.03575,0.25036z" fill="url(#color-11)" fill-rule="nonzero" stroke="#000000" stroke-width="0.1" stroke-linecap="butt" stroke-linejoin="miter" stroke-miterlimit="10"></path><path d="M264.73236,163.64533c0,0 0.59839,-0.41647 0.61876,-0.16864c0.00339,0.04119 0.11446,-0.06131 0.10867,-0.05275c-0.00682,0.01008 -0.12854,0.42922 -0.12545,0.37875c0.01292,-0.2111 -0.33326,0.00776 -0.33326,0.00776c0,0 -0.28978,0.80887 -0.38335,0.72844c-0.10249,-0.0881 -0.30174,-0.10053 -0.3992,-0.13668c-0.19664,-0.07294 -0.50218,0.17355 -0.50218,0.17355l0.06932,-0.77561c0,0 0.16397,-0.08041 0.2439,-0.05076c0.19215,0.07127 0.70279,-0.10406 0.70279,-0.10406z" data-paper-data="{&quot;index&quot;:null}" fill="url(#color-12)" fill-rule="nonzero" stroke="#000000" stroke-width="0.1" stroke-linecap="butt" stroke-linejoin="miter" stroke-miterlimit="10"></path><text transform="translate(260.47087,166.85193) scale(0.00798,0.00798)" font-size="40" xml:space="preserve" fill="#ff6666" fill-rule="nonzero" stroke="none" stroke-width="0.2" stroke-linecap="butt" stroke-linejoin="miter" stroke-miterlimit="10" stroke-dasharray="" stroke-dashoffset="0" font-family="Marker" font-weight="normal" text-anchor="start" style="mix-blend-mode: normal"><tspan x="0" dy="0">xAmt8</tspan></text></g></g></svg>