<svg version="1.1" xmlns="http://www.w3.org/2000/svg" xmlns:xlink="http://www.w3.org/1999/xlink" width="12.17067" height="25.8368" viewBox="0,0,12.17067,25.8368"><defs><linearGradient x1="240.90754" y1="170.17995" x2="240.52822" y2="176.72485" gradientUnits="userSpaceOnUse" id="color-1"><stop offset="0" stop-color="#8e47b1"></stop><stop offset="1" stop-color="#573e9b"></stop></linearGradient></defs><g transform="translate(-234.62686,-170.17132)"><g data-paper-data="{&quot;isPaintingLayer&quot;:true}" fill-rule="nonzero" stroke-linecap="butt" stroke-linejoin="miter" stroke-miterlimit="10" stroke-dasharray="" stroke-dashoffset="0" style="mix-blend-mode: normal"><g><path d="M246.0983,187.80078l-0.83831,-2.63865l0.64188,-0.26795l0.83831,2.63865z" data-paper-data="{&quot;index&quot;:null}" fill="#8d54a5" stroke="none" stroke-width="0"></path><g><path d="M239.44851,192.51913l1.53878,0.3173l0.33922,1.10987c0,0 0.04376,0.17932 -0.31804,0.30905c-0.14126,0.05065 1.3281,1.62458 1.07726,1.64752c-0.09159,0.00838 -1.16859,0.00847 -1.74171,-0.42385c-0.40653,-0.30665 -0.36476,-1.08859 -0.40711,-1.08951c-0.17769,-0.00389 -0.3334,0.34068 -0.3334,0.34068z" fill="#bb6fdb" stroke="none" stroke-width="0"></path><path d="M239.40272,193.09311l1.27266,-7.22168l1.74719,0.3079l-1.27266,7.22169z" fill="#4d006e" stroke="none" stroke-width="0"></path><path d="M240.44692,190.13023l0.20551,-0.38188c0,0 0.30947,-0.07452 0.41304,-0.01878c0.1047,0.05635 0.21185,0.35507 0.21185,0.35507l-0.2055,0.38189z" data-paper-data="{&quot;index&quot;:null}" fill="#9c35c8" stroke="none" stroke-width="0"></path><path d="M238.12212,192.15909l1.46589,0.56541l0.15258,1.15048c0,0 0.01375,0.18407 -0.36443,0.25271c-0.14266,0.02589 -1.35129,1.89725 -1.59544,1.88032c-0.10041,-0.00696 -0.87608,-0.26929 -0.68735,-0.82146c0.12382,-0.36225 1.24564,-1.09438 1.20374,-1.10229c-0.17465,-0.03298 -0.38476,0.28136 -0.38476,0.28136z" fill="#bb6fdb" stroke="none" stroke-width="0"></path><path d="M237.93987,193.27879l-1.13104,-7.24521l1.75288,-0.27364l1.13104,7.24521z" fill="#4d006e" stroke="none" stroke-width="0"></path><path d="M244.73369,185.09168l-3.09891,-5.73925l1.0366,-0.65776l3.09891,5.73926z" data-paper-data="{&quot;index&quot;:null}" fill="#aa65c7" stroke="none" stroke-width="0"></path><path d="M244.90223,185.53254l-0.33761,-0.68019l0.9752,-0.61202l0.33761,0.68019z" data-paper-data="{&quot;index&quot;:null}" fill="#8d54a5" stroke="none" stroke-width="0"></path><path d="M245.02783,186.78959l-0.32892,-1.63864l0.55795,-0.1553l0.32892,1.63864z" data-paper-data="{&quot;index&quot;:null}" fill="#8d54a5" stroke="none" stroke-width="0"></path><path d="M244.24603,185.61516l0.47257,-0.89693l0.33801,0.20765l-0.47257,0.89693z" data-paper-data="{&quot;index&quot;:null}" fill="#8d54a5" stroke="none" stroke-width="0"></path><path d="M245.72937,186.96013l-0.52957,-1.9393l0.23952,-0.08731l0.52957,1.9393z" data-paper-data="{&quot;index&quot;:null}" fill="#8d54a5" stroke="none" stroke-width="0"></path><path d="M235.01967,185.82563l1.11816,-6.42589l1.19172,0.29493l-1.11817,6.42589z" fill="#aa65c7" stroke="none" stroke-width="0"></path><path d="M235.07245,186.32108l0.10439,-0.75216l1.11898,0.27105l-0.10439,0.75216z" fill="#8d54a5" stroke="none" stroke-width="0"></path><path d="M235.89269,187.8538l-0.20789,-1.65835l0.57839,-0.02972l0.2079,1.65834z" fill="#8d54a5" stroke="none" stroke-width="0"></path><path d="M236.58527,186.76645l-0.73269,-0.70068l0.25466,-0.30415l0.7327,0.70068z" fill="#8d54a5" stroke="none" stroke-width="0"></path><path d="M235.60503,188.20156l-0.11299,-2.00713l0.25484,0.00682l0.11299,2.00713z" fill="#8d54a5" stroke="none" stroke-width="0"></path><path d="M235.08687,187.40586l-0.01989,-1.30967l0.3282,0.02389l0.0199,1.30967z" fill="#8d54a5" stroke="none" stroke-width="0"></path><path d="M234.91537,186.43613l-0.28851,-0.31993l0.38013,-0.38092l0.28851,0.31993z" fill="#8d54a5" stroke="none" stroke-width="0"></path><path d="M238.09762,186.45438l0.56342,-9.72155l3.44646,0.19975l-0.56342,9.72155z" fill-opacity="0.52552" fill="#5e0087" stroke="none" stroke-width="0"></path><path d="M237.38701,186.4132c0,0 -0.62208,-0.7873 -0.64732,-2.32493c-0.00225,-0.13697 0.72105,-0.51235 0.71658,-0.65714c-0.01679,-0.54367 -0.24146,-1.18685 -0.24871,-1.80422c-0.00606,-0.51584 -0.27902,-2.28048 -0.24797,-2.70165c0.01752,-0.23757 1.20762,-1.05301 1.21806,-1.23317c0.06987,-1.20566 -0.11545,-2.92901 -0.11545,-2.92901l4.93875,0.28623c0,0 0.21596,1.69743 -0.09435,3.3832c-0.22029,1.1967 -0.9844,2.31263 -1.03272,3.14643c-0.10804,1.86426 0.45189,5.12049 0.45189,5.12049c0,0 -0.6563,0.86499 -0.99288,0.89691c-1.01608,0.09636 -2.6966,-0.55786 -3.33825,-0.59505c-0.39022,-0.02261 -0.60761,-0.58809 -0.60761,-0.58809zM239.95726,184.58283c-0.21124,-0.28972 -1.82204,0.14362 -1.1322,0.59585c-0.00846,0.01574 -0.01377,0.03384 -0.01489,0.05329c-0.00308,0.05312 0.02598,0.09987 0.06868,0.11723l0.10203,0.04454l0.00983,-0.02692c0.106,0.05656 0.20604,0.05866 0.36334,0.01467c0.16073,0.03012 0.3485,0.04372 0.53309,0.02625c0.03016,0.00452 0.05979,0.00794 0.0887,0.01026l0.1066,0.00617c0.04804,0.00278 0.09069,-0.03006 0.10681,-0.07767c0.25721,-0.08529 0.46918,-0.25879 0.53405,-0.56959c0.06665,-0.31931 -0.96975,-0.98402 -1.12579,-1.23193c0,0 -0.06124,-0.09605 -0.14875,-0.02712c-0.08751,0.06893 -0.02627,0.16499 -0.02627,0.16499c0.20602,0.31961 0.51281,0.52149 0.77551,0.78373c0.01971,0.01967 0.1986,0.22425 0.28028,0.26249c-0.11954,0.08228 -0.46891,0.3915 -0.54722,0.44274c-0.00259,0.0017 -0.00517,0.00337 -0.00772,0.00502c-0.01901,-0.00239 -0.03771,-0.00555 -0.05614,-0.00932c-0.05977,-0.0205 -0.12385,-0.03993 -0.18956,-0.05766c-0.02179,-0.0081 -0.04347,-0.01639 -0.06517,-0.02459c0.26997,-0.08962 0.51455,-0.26962 0.3448,-0.50244zM239.37085,179.93801l0.02071,-0.02349c0.47689,-0.31122 1.09514,-0.79549 1.58558,-1.31553l0.00612,0.00959l0.17421,-0.13723c0.02608,-0.02018 0.04397,-0.05283 0.04615,-0.09052c0.00356,-0.06138 -0.03578,-0.11425 -0.0895,-0.12311l-0.10599,-0.01906c-0.41458,-0.16063 0.00667,-0.46495 0.22971,-0.4482c0,0 0.1066,0.00617 0.11344,-0.1119c0.00685,-0.11808 -0.09975,-0.12425 -0.09975,-0.12425c-0.42386,-0.01933 -0.88605,0.60023 -0.38774,0.87256c-0.57775,0.1652 -1.15195,1.00557 -1.57908,1.28432l-0.05491,0.05111c0,0 -0.08021,0.07913 -0.00968,0.16699c0.07053,0.08786 0.15074,0.00874 0.15074,0.00874z" fill="#7300a5" stroke="none" stroke-width="0"></path><path d="M239.21847,184.90597l-0.00767,0.00037l0.00085,-0.00296l-0.05926,-0.02017c0.1212,-0.00537 0.2616,-0.01266 0.38408,-0.03507c-0.11991,0.05403 -0.24767,0.09492 -0.318,0.05784z" fill="#7300a5" stroke="none" stroke-width="0"></path><path d="M238.93374,184.98832c-0.12132,-0.06215 -0.0854,-0.08357 0.02356,-0.09417c-0.01405,0.01878 -0.02307,0.04242 -0.02458,0.06849c-0.00051,0.00877 -0.00013,0.01737 0.00102,0.02568z" fill="#7300a5" stroke="none" stroke-width="0"></path><path d="M238.57598,175.97758l0.23266,-4.01457l3.97521,0.23038l-0.23266,4.01457z" fill-opacity="0.50132" fill="#5e0087" stroke="none" stroke-width="0"></path><path d="M243.46059,174.32219c-0.08207,1.41605 -1.39494,2.49176 -2.93237,2.40266c-1.53743,-0.0891 -2.71724,-1.30928 -2.63517,-2.72533c0.08207,-1.41605 1.36806,-3.91499 2.90549,-3.82588c1.53743,0.0891 2.74411,2.73249 2.66204,4.14855zM242.29035,173.97785l-0.04078,-0.00007c-0.197,0.02911 -0.52725,0.07599 -0.3625,0.24978l-0.17243,0.01639c-0.04895,0.00382 -0.09021,0.03773 -0.104,0.0841l-0.0949,0.02714c-0.04829,0.01259 -0.08515,0.05512 -0.08819,0.10763c-0.00308,0.05312 0.02939,0.10008 0.07678,0.11771l0.21358,0.08522c0.07549,0.0381 0.28253,0.14262 0.3295,0.16607c0.88177,0.44009 -0.74366,0.24664 -0.6479,0.73636c0.00511,0.02612 0.02397,0.05099 0.0519,0.0735c-0.26926,0.07995 -0.44372,0.25006 -0.63412,0.51795c0,0 -0.06838,0.0965 0.02812,0.16489c0.0965,0.06838 0.16488,-0.02812 0.16488,-0.02812c0.19417,-0.27491 0.35512,-0.43783 0.69462,-0.46419l0.12731,0.00586l0.2267,0.01314c0.06521,0.00378 0.12114,-0.04602 0.12492,-0.11123c0.00299,-0.05159 -0.02755,-0.09737 -0.07273,-0.11611l-0.13438,-0.05947l-0.00348,0.00786c-0.03484,-0.02639 -0.07142,-0.05058 -0.10799,-0.06893c0.01597,-0.0043 0.03027,-0.00823 0.04187,-0.01137c0.13002,-0.03516 0.73915,-0.24832 0.68777,-0.48544c-0.05593,-0.2581 -0.4123,-0.39452 -0.66294,-0.50297c0.00565,-0.01269 0.00915,-0.02659 0.01,-0.04128c0.00005,-0.00077 0.00007,-0.00154 0.00011,-0.00231l0.02192,-0.00209l0.1211,-0.0102c0.05857,-0.00399 0.10639,-0.05102 0.10988,-0.11116c0.00091,-0.01572 -0.00129,-0.0309 -0.00607,-0.04493c0.01923,-0.03843 0.05898,-0.075 0.09356,-0.07955l-0.0058,0.00196c0,0 0.11808,0.00685 0.12492,-0.11123c0.00685,-0.11808 -0.11123,-0.12492 -0.11123,-0.12492zM239.75229,174.34842l0.07605,-0.1009c0.03035,-0.05844 0.04217,-0.14339 0.03583,-0.22034c0.01448,-0.00061 0.02898,-0.00149 0.04347,-0.00262l0.00086,0.03424l0.20981,-0.0053c0.06141,-0.00091 0.11261,-0.04913 0.11621,-0.11142c0.00279,-0.04814 -0.02362,-0.09122 -0.06386,-0.112l-0.12912,-0.07027c-0.34255,-0.18634 -1.23957,-1.23425 -0.64764,-1.33217c0,0 0.11541,-0.02586 0.08956,-0.14127c-0.02586,-0.11541 -0.14127,-0.08956 -0.14127,-0.08956c-0.77914,0.20118 -0.16936,1.13399 0.32761,1.57926l-0.11924,-0.02551c-0.00646,-0.0015 -0.01313,-0.00247 -0.01998,-0.00286c-0.06521,-0.00378 -0.12114,0.04602 -0.12492,0.11123c-0.00242,0.04163 0.01701,0.07949 0.04835,0.10239l0.09944,0.07495l0.02062,-0.02735c0.04738,0.05302 0.0811,0.09269 0.06539,0.09621l-0.07606,0.1009c0,0 -0.0712,0.09445 0.02326,0.16564c0.09445,0.07119 0.16564,-0.02326 0.16564,-0.02326z" fill="url(#color-1)" stroke="none" stroke-width="0"></path><path d="M237.82118,188.126l0.20965,-0.37962c0,0 0.30914,-0.07177 0.41322,-0.01429c0.10297,0.05686 0.20799,0.35735 0.20799,0.35735l-0.20965,0.37963z" fill="#9c35c8" stroke="none" stroke-width="0"></path><path d="M242.22319,176.47906c-0.00148,0.00092 -0.00298,0.00184 -0.00448,0.00275" fill="none" stroke="#00e82d" stroke-width="0.15"></path><path d="M240.72667,176.26458c-0.00656,-0.00771 -0.01298,-0.0155 -0.01926,-0.02338" fill="none" stroke="#00e82d" stroke-width="0.15"></path><path d="M240.8758,175.98675c0.14561,-0.46226 0.70051,-0.71256 1.25625,-0.56059c0.13928,0.03808 0.26566,0.09789 0.37512,0.17358" fill="none" stroke="#00e82d" stroke-width="0.15"></path></g><path d="M245.4163,184.96524l0.36382,-0.83479l1.01741,0.50868l-0.36382,0.83479z" data-paper-data="{&quot;index&quot;:null}" fill="#8d54a5" stroke="none" stroke-width="0"></path></g></g></g></svg>