<svg version="1.1" xmlns="http://www.w3.org/2000/svg" xmlns:xlink="http://www.w3.org/1999/xlink" width="112.02236" height="84.61382" viewBox="0,0,112.02236,84.61382"><defs><linearGradient x1="185.21125" y1="195.84589" x2="191.72495" y2="195.84589" gradientUnits="userSpaceOnUse" id="color-1"><stop offset="0" stop-color="#9e7f4a"></stop><stop offset="1" stop-color="#d88e65"></stop></linearGradient><radialGradient cx="191.3894" cy="196.64925" r="3.70096" gradientUnits="userSpaceOnUse" id="color-2"><stop offset="0" stop-color="#cf6734"></stop><stop offset="1" stop-color="#cf8634"></stop></radialGradient><linearGradient x1="185.3748" y1="155.51846" x2="191.88849" y2="155.51846" gradientUnits="userSpaceOnUse" id="color-3"><stop offset="0" stop-color="#9e7f4a"></stop><stop offset="1" stop-color="#d88e65"></stop></linearGradient><radialGradient cx="191.55294" cy="156.32182" r="3.70096" gradientUnits="userSpaceOnUse" id="color-4"><stop offset="0" stop-color="#cf6734"></stop><stop offset="1" stop-color="#cf8634"></stop></radialGradient></defs><g transform="translate(-184,-137.69309)"><g data-paper-data="{&quot;isPaintingLayer&quot;:true}" fill-rule="nonzero" stroke-linejoin="miter" stroke-miterlimit="10" stroke-dasharray="" stroke-dashoffset="0" style="mix-blend-mode: normal"><path d="M261.17073,161.56098v-7.17073c0,0 0.62618,-5.79068 2.66322,-8.95487c0.94459,-1.46725 3.35406,-1.74432 4.05222,-1.74432c0.81393,0 2.69589,-0.2223 3.77073,1.43036c2.06052,3.16823 3.28618,9.26883 3.28618,9.26883v7.17073z" fill="#696969" stroke="none" stroke-width="0.5" stroke-linecap="butt"></path><path d="M285.47255,220.73286v-77.5122h10.52745v77.5122z" fill="#bababa" stroke="none" stroke-width="0.5" stroke-linecap="butt"></path><path d="M184,221.60163v-78.76423h7.73984v78.76423z" fill="#bababa" stroke="none" stroke-width="0.5" stroke-linecap="butt"></path><path d="M185.36585,143.63415v-5.69106h109.95122v5.69106z" fill="#b4b4b4" stroke="#000000" stroke-width="0.5" stroke-linecap="butt"></path><path d="M185.82114,219.78049v-5.69106h109.95122v5.69106z" fill="#b6b6b6" stroke="#000000" stroke-width="0.5" stroke-linecap="butt"></path><path d="M186.08398,164.9152l7.88261,0.3539l-0.37185,18.15322l-7.88261,-0.3539z" fill="#2d2d2d" stroke="none" stroke-width="0.5" stroke-linecap="butt"></path><g stroke-width="0.5"><path d="M191.72495,195.84589c0,0.33576 -1.45814,0.60794 -3.25685,0.60794c-1.79871,0 -3.25685,-0.27219 -3.25685,-0.60794c0,-0.33576 1.45814,-0.60794 3.25685,-0.60794c1.79871,0 3.25685,0.27219 3.25685,0.60794z" fill="url(#color-1)" stroke="none" stroke-linecap="butt"></path><path d="M186.07974,202.48197l-1.24352,-6.21762l7.40193,-0.23686l-1.18431,6.45448z" fill="url(#color-2)" stroke="#000000" stroke-linecap="butt"></path><path d="M184.67832,196.42226v-0.59215h7.81643v0.59215z" fill="#cea234" stroke="none" stroke-linecap="butt"></path><path d="M187.69317,195.34451c0,0 0.33216,-3.1043 0.39959,-4.30711c0.04843,-0.864 -0.03283,-2.23579 -0.03283,-2.23579l0.76859,0.04308c0,0 -0.26795,2.66412 -0.33366,3.83634c-0.0544,0.97038 -0.03309,2.70656 -0.03309,2.70656z" fill="#108d00" stroke="none" stroke-linecap="butt"></path><g stroke="none" stroke-linecap="butt"><path d="M187.97829,193.61795l0.48012,-1.01751l1.28528,0.60646c0,0 0.08736,0.41939 0.01441,0.59772c-0.06902,0.16873 -0.44098,0.44506 -0.44098,0.44506z" data-paper-data="{&quot;index&quot;:null}" fill="#108d00"></path><path d="M188.22168,193.14351l0.05054,-0.10711l0.87827,0.41442l-0.05054,0.10711z" fill="#14ab00"></path><path d="M188.88066,194.03065l0.45485,-0.96396l0.09001,0.04247l-0.45485,0.96396z" fill="#14ab00"></path><path d="M189.14845,193.59391l0.04043,-0.08568l0.5998,0.28302l-0.04043,0.08568z" fill="#14ab00"></path></g><g data-paper-data="{&quot;index&quot;:null}" stroke="none" stroke-linecap="butt"><path d="M186.866,192.71202c0,0 -0.31183,-0.34274 -0.3471,-0.5216c-0.03727,-0.18903 0.12916,-0.58377 0.12916,-0.58377l1.37795,-0.34781l0.27535,1.09088z" data-paper-data="{&quot;index&quot;:null}" fill="#108d00"></path><path d="M187.21222,192.07497l-0.02899,-0.11483l0.9416,-0.23767l0.02898,0.11483z" fill="#14ab00"></path><path d="M187.23994,192.60541l-0.26086,-1.03346l0.09651,-0.02436l0.26086,1.03347z" fill="#14ab00"></path><path d="M186.51466,192.26326l-0.02319,-0.09186l0.64304,-0.16231l0.02319,0.09186z" fill="#14ab00"></path></g><g data-paper-data="{&quot;index&quot;:null}" stroke="none" stroke-linecap="butt"><path d="M186.8772,190.59992c0,0 -0.29749,-0.35525 -0.32538,-0.53541c-0.02948,-0.1904 0.15303,-0.57798 0.15303,-0.57798l1.39108,-0.29092l0.23031,1.10127z" data-paper-data="{&quot;index&quot;:null}" fill="#108d00"></path><path d="M187.24928,189.97764l-0.02424,-0.11592l0.95057,-0.1988l0.02424,0.11592z" fill="#14ab00"></path><path d="M187.2552,190.50877l-0.21819,-1.04331l0.09742,-0.02037l0.21819,1.04331z" fill="#14ab00"></path><path d="M186.54458,190.13711l-0.0194,-0.09274l0.64917,-0.13576l0.0194,0.09274z" fill="#14ab00"></path></g><g data-paper-data="{&quot;index&quot;:null}" stroke="none" stroke-linecap="butt"><path d="M188.40036,191.13975l0.21423,-1.10451l1.39517,0.27061c0,0 0.18814,0.38487 0.16144,0.57568c-0.02526,0.18055 -0.31754,0.5401 -0.31754,0.5401z" data-paper-data="{&quot;index&quot;:null}" fill="#108d00"></path><path d="M188.51917,190.61992l0.02255,-0.11626l0.95337,0.18491l-0.02255,0.11626z" fill="#14ab00"></path><path d="M189.37666,191.31704l0.20295,-1.04638l0.09771,0.01895l-0.20295,1.04638z" fill="#14ab00"></path><path d="M189.52841,190.82774l0.01804,-0.09301l0.65108,0.12628l-0.01804,0.09301z" fill="#14ab00"></path></g><path d="M188.45159,189.39022l-0.37226,-0.5584l1.98437,-0.94131l0.05645,0.16363z" fill="#108d00" stroke="none" stroke-linecap="butt"></path><g data-paper-data="{&quot;index&quot;:null}" stroke="none" stroke-linecap="butt"><path d="M189.17278,188.8304l0.22465,-0.56293l0.71107,0.28377c0,0 0.06079,0.22263 0.02744,0.32092c-0.03156,0.093 -0.22246,0.25383 -0.22246,0.25383z" data-paper-data="{&quot;index&quot;:null}" fill="#108d00"></path><path d="M189.28804,188.56728l0.02365,-0.05926l0.4859,0.19391l-0.02365,0.05926z" fill="#14ab00"></path><path d="M189.67159,189.02259l0.21283,-0.5333l0.0498,0.01988l-0.21283,0.5333z" fill="#14ab00"></path><path d="M189.8012,188.77894l0.01892,-0.0474l0.33183,0.13243l-0.01892,0.0474z" fill="#14ab00"></path></g><g data-paper-data="{&quot;index&quot;:null}" stroke="none" stroke-linecap="butt"><path d="M188.12507,188.3474c0,0 0.04777,-0.17594 0.09966,-0.22546c0.05484,-0.05234 0.221,-0.0806 0.221,-0.0806l0.40679,0.38363l-0.30371,0.32204z" data-paper-data="{&quot;index&quot;:null}" fill="#108d00"></path><path d="M188.40964,188.32755l0.03197,-0.0339l0.27797,0.26215l-0.03197,0.0339z" fill="#14ab00"></path><path d="M188.23952,188.44892l0.28772,-0.30509l0.02849,0.02687l-0.28772,0.30509z" fill="#14ab00"></path><path d="M188.19966,188.13593l0.02558,-0.02712l0.18984,0.17903l-0.02558,0.02712z" fill="#14ab00"></path></g><path d="M185.30712,198.06909c0,0 -0.06723,0.05048 -0.08957,-0.0042c-0.04512,-0.11045 -0.1649,-0.61875 -0.1649,-0.61875l1.53128,-1.02255l0.35316,0.50452z" fill="#d5d5d5" stroke="none" stroke-linecap="butt"></path><path d="M186.21327,196.9439l0.35316,-0.50452l1.62997,1.14098l-0.35316,0.50452z" data-paper-data="{&quot;index&quot;:null}" fill="#d5d5d5" stroke="none" stroke-linecap="butt"></path><path d="M187.89286,198.08883l-0.35316,-0.50451l1.62997,-1.14098l0.35316,0.50452z" fill="#d5d5d5" stroke="none" stroke-linecap="butt"></path><path d="M188.83849,196.9439l0.35316,-0.50452l1.62998,1.14098l-0.35316,0.50452z" data-paper-data="{&quot;index&quot;:null}" fill="#d5d5d5" stroke="none" stroke-linecap="butt"></path><path d="M190.53387,198.06514l-0.35316,-0.50452l2.005,-1.10151l-0.02187,0.46504z" data-paper-data="{&quot;index&quot;:null}" fill="#d5d5d5" stroke="none" stroke-linecap="butt"></path><path d="M185.54398,199.70739l-0.17552,-0.60321l1.49181,-1.06203l0.35316,0.50452z" fill="#d5d5d5" stroke="none" stroke-linecap="butt"></path><path d="M186.50935,198.56245l0.35316,-0.50452l1.62997,1.14098l-0.35316,0.50451z" data-paper-data="{&quot;index&quot;:null}" fill="#d5d5d5" stroke="none" stroke-linecap="butt"></path><path d="M188.18894,199.70738l-0.35316,-0.50452l1.62998,-1.14098l0.35316,0.50452z" fill="#d5d5d5" stroke="none" stroke-linecap="butt"></path><path d="M189.13457,198.56245l0.35316,-0.50452l1.62998,1.14098l-0.35316,0.50451z" data-paper-data="{&quot;index&quot;:null}" fill="#d5d5d5" stroke="none" stroke-linecap="butt"></path><path d="M190.80598,199.6837l-0.36867,-0.50452l1.40796,-0.87307c0.0022,0.12905 -0.08435,0.28671 -0.06328,0.41796c-0.00034,0.01137 -0.06232,0.04252 -0.06232,0.05397c0,0.09329 0.01126,0.18406 0.03255,0.27114z" data-paper-data="{&quot;index&quot;:null}" fill="#d5d5d5" stroke="none" stroke-linecap="butt"></path><path d="M185.99797,201.89835l-0.19525,-0.7019l1.55102,-1.06203l0.35316,0.50452z" fill="#d5d5d5" stroke="none" stroke-linecap="butt"></path><path d="M186.98307,200.65473l0.35316,-0.50452l1.62997,1.14098l-0.35316,0.50452z" data-paper-data="{&quot;index&quot;:null}" fill="#d5d5d5" stroke="none" stroke-linecap="butt"></path><path d="M188.66266,201.79966l-0.35316,-0.50451l1.62998,-1.14098l0.35316,0.50452z" fill="#d5d5d5" stroke="none" stroke-linecap="butt"></path><path d="M189.60829,200.65473l0.36536,-0.50452l1.4083,0.87789c-0.05403,0.08635 -0.05613,0.23912 -0.08607,0.33804c-0.032,0.10569 -0.02874,0.1583 -0.02874,0.27399c0,0.00691 -0.14288,0.03355 -0.14276,0.04043z" data-paper-data="{&quot;index&quot;:null}" fill="#d5d5d5" stroke="none" stroke-linecap="butt"></path><path d="M191.18756,201.50859c0.02264,-0.1398 0.03027,-0.31088 0.09731,-0.42973l-0.07776,0.27156z" data-paper-data="{&quot;index&quot;:null}" fill="#ffffff" stroke="none" stroke-linecap="butt"></path><path d="M191.80955,195.92668l-0.06768,0.11843l0.08459,0.13535l-0.35529,0.18611" fill="none" stroke="#000000" stroke-linecap="round"></path><path d="M191.72495,196.38349l-0.10151,-0.10151" fill="none" stroke="#000000" stroke-linecap="round"></path></g><g stroke-width="0.5"><path d="M191.88849,155.51846c0,0.33576 -1.45814,0.60794 -3.25685,0.60794c-1.79871,0 -3.25685,-0.27219 -3.25685,-0.60794c0,-0.33576 1.45814,-0.60794 3.25685,-0.60794c1.79871,0 3.25685,0.27219 3.25685,0.60794z" fill="url(#color-3)" stroke="none" stroke-linecap="butt"></path><path d="M186.24329,162.15453l-1.24352,-6.21762l7.40193,-0.23686l-1.18431,6.45448z" fill="url(#color-4)" stroke="#000000" stroke-linecap="butt"></path><path d="M184.84186,156.09482v-0.59215h7.81643v0.59215z" fill="#cea234" stroke="none" stroke-linecap="butt"></path><path d="M187.85672,155.01708c0,0 0.33216,-3.1043 0.39959,-4.30711c0.04843,-0.864 -0.03283,-2.23579 -0.03283,-2.23579l0.76859,0.04308c0,0 -0.26795,2.66412 -0.33366,3.83634c-0.0544,0.97038 -0.03309,2.70656 -0.03309,2.70656z" fill="#108d00" stroke="none" stroke-linecap="butt"></path><g stroke="none" stroke-linecap="butt"><path d="M188.14183,153.29052l0.48012,-1.01751l1.28528,0.60646c0,0 0.08736,0.41939 0.01441,0.59772c-0.06902,0.16873 -0.44098,0.44506 -0.44098,0.44506z" data-paper-data="{&quot;index&quot;:null}" fill="#108d00"></path><path d="M188.38523,152.81608l0.05054,-0.10711l0.87827,0.41442l-0.05054,0.10711z" fill="#14ab00"></path><path d="M189.0442,153.70321l0.45485,-0.96396l0.09001,0.04247l-0.45485,0.96396z" fill="#14ab00"></path><path d="M189.31199,153.26647l0.04043,-0.08568l0.5998,0.28302l-0.04043,0.08568z" fill="#14ab00"></path></g><g data-paper-data="{&quot;index&quot;:null}" stroke="none" stroke-linecap="butt"><path d="M187.02955,152.38458c0,0 -0.31183,-0.34274 -0.3471,-0.5216c-0.03727,-0.18903 0.12916,-0.58377 0.12916,-0.58377l1.37795,-0.34781l0.27535,1.09088z" data-paper-data="{&quot;index&quot;:null}" fill="#108d00"></path><path d="M187.37576,151.74754l-0.02899,-0.11483l0.9416,-0.23767l0.02898,0.11483z" fill="#14ab00"></path><path d="M187.40349,152.27798l-0.26086,-1.03346l0.09651,-0.02436l0.26086,1.03347z" fill="#14ab00"></path><path d="M186.6782,151.93583l-0.02319,-0.09186l0.64304,-0.16231l0.02319,0.09186z" fill="#14ab00"></path></g><g data-paper-data="{&quot;index&quot;:null}" stroke="none" stroke-linecap="butt"><path d="M187.04074,150.27249c0,0 -0.29749,-0.35525 -0.32538,-0.53541c-0.02948,-0.1904 0.15303,-0.57798 0.15303,-0.57798l1.39108,-0.29092l0.23031,1.10127z" data-paper-data="{&quot;index&quot;:null}" fill="#108d00"></path><path d="M187.41282,149.6502l-0.02424,-0.11592l0.95057,-0.1988l0.02424,0.11592z" fill="#14ab00"></path><path d="M187.41875,150.18133l-0.21819,-1.04331l0.09742,-0.02037l0.21819,1.04331z" fill="#14ab00"></path><path d="M186.70812,149.80968l-0.0194,-0.09274l0.64917,-0.13576l0.0194,0.09274z" fill="#14ab00"></path></g><g data-paper-data="{&quot;index&quot;:null}" stroke="none" stroke-linecap="butt"><path d="M188.5639,150.81231l0.21423,-1.10451l1.39517,0.27061c0,0 0.18814,0.38487 0.16144,0.57568c-0.02526,0.18055 -0.31754,0.5401 -0.31754,0.5401z" data-paper-data="{&quot;index&quot;:null}" fill="#108d00"></path><path d="M188.68271,150.29249l0.02255,-0.11626l0.95337,0.18491l-0.02255,0.11626z" fill="#14ab00"></path><path d="M189.5402,150.98961l0.20295,-1.04638l0.09771,0.01895l-0.20295,1.04638z" fill="#14ab00"></path><path d="M189.69196,150.5003l0.01804,-0.09301l0.65108,0.12628l-0.01804,0.09301z" fill="#14ab00"></path></g><path d="M188.61513,149.06278l-0.37226,-0.5584l1.98437,-0.94131l0.05645,0.16363z" fill="#108d00" stroke="none" stroke-linecap="butt"></path><g data-paper-data="{&quot;index&quot;:null}" stroke="none" stroke-linecap="butt"><path d="M189.33633,148.50296l0.22465,-0.56293l0.71107,0.28377c0,0 0.06079,0.22263 0.02744,0.32092c-0.03156,0.093 -0.22246,0.25383 -0.22246,0.25383z" data-paper-data="{&quot;index&quot;:null}" fill="#108d00"></path><path d="M189.45159,148.23984l0.02365,-0.05926l0.4859,0.19391l-0.02365,0.05926z" fill="#14ab00"></path><path d="M189.83513,148.69516l0.21283,-0.5333l0.0498,0.01988l-0.21283,0.5333z" fill="#14ab00"></path><path d="M189.96474,148.4515l0.01892,-0.0474l0.33183,0.13243l-0.01892,0.0474z" fill="#14ab00"></path></g><g data-paper-data="{&quot;index&quot;:null}" stroke="none" stroke-linecap="butt"><path d="M188.28861,148.01996c0,0 0.04777,-0.17594 0.09966,-0.22546c0.05484,-0.05234 0.221,-0.0806 0.221,-0.0806l0.40679,0.38363l-0.30371,0.32204z" data-paper-data="{&quot;index&quot;:null}" fill="#108d00"></path><path d="M188.57318,148.00012l0.03197,-0.0339l0.27797,0.26215l-0.03197,0.0339z" fill="#14ab00"></path><path d="M188.40306,148.12149l0.28772,-0.30509l0.02849,0.02687l-0.28772,0.30509z" fill="#14ab00"></path><path d="M188.36321,147.80849l0.02558,-0.02712l0.18984,0.17903l-0.02558,0.02712z" fill="#14ab00"></path></g><path d="M185.47066,157.74165c0,0 -0.06723,0.05048 -0.08957,-0.0042c-0.04512,-0.11045 -0.1649,-0.61875 -0.1649,-0.61875l1.53128,-1.02255l0.35316,0.50452z" fill="#d5d5d5" stroke="none" stroke-linecap="butt"></path><path d="M186.37682,156.61646l0.35316,-0.50452l1.62997,1.14098l-0.35316,0.50452z" data-paper-data="{&quot;index&quot;:null}" fill="#d5d5d5" stroke="none" stroke-linecap="butt"></path><path d="M188.0564,157.76139l-0.35316,-0.50451l1.62997,-1.14098l0.35316,0.50452z" fill="#d5d5d5" stroke="none" stroke-linecap="butt"></path><path d="M189.00203,156.61646l0.35316,-0.50452l1.62998,1.14098l-0.35316,0.50452z" data-paper-data="{&quot;index&quot;:null}" fill="#d5d5d5" stroke="none" stroke-linecap="butt"></path><path d="M190.69741,157.73771l-0.35316,-0.50452l2.005,-1.10151l-0.02187,0.46504z" data-paper-data="{&quot;index&quot;:null}" fill="#d5d5d5" stroke="none" stroke-linecap="butt"></path><path d="M185.70753,159.37995l-0.17552,-0.60321l1.49181,-1.06203l0.35316,0.50452z" fill="#d5d5d5" stroke="none" stroke-linecap="butt"></path><path d="M186.6729,158.23502l0.35316,-0.50452l1.62997,1.14098l-0.35316,0.50451z" data-paper-data="{&quot;index&quot;:null}" fill="#d5d5d5" stroke="none" stroke-linecap="butt"></path><path d="M188.35248,159.37995l-0.35316,-0.50452l1.62998,-1.14098l0.35316,0.50452z" fill="#d5d5d5" stroke="none" stroke-linecap="butt"></path><path d="M189.29811,158.23502l0.35316,-0.50452l1.62998,1.14098l-0.35316,0.50451z" data-paper-data="{&quot;index&quot;:null}" fill="#d5d5d5" stroke="none" stroke-linecap="butt"></path><path d="M190.96952,159.35626l-0.36867,-0.50452l1.40796,-0.87307c0.0022,0.12905 -0.08435,0.28671 -0.06328,0.41796c-0.00034,0.01137 -0.06232,0.04252 -0.06232,0.05397c0,0.09329 0.01126,0.18406 0.03255,0.27114z" data-paper-data="{&quot;index&quot;:null}" fill="#d5d5d5" stroke="none" stroke-linecap="butt"></path><path d="M186.16151,161.57092l-0.19525,-0.7019l1.55102,-1.06203l0.35316,0.50452z" fill="#d5d5d5" stroke="none" stroke-linecap="butt"></path><path d="M187.14661,160.3273l0.35316,-0.50452l1.62997,1.14098l-0.35316,0.50452z" data-paper-data="{&quot;index&quot;:null}" fill="#d5d5d5" stroke="none" stroke-linecap="butt"></path><path d="M188.8262,161.47223l-0.35316,-0.50451l1.62998,-1.14098l0.35316,0.50452z" fill="#d5d5d5" stroke="none" stroke-linecap="butt"></path><path d="M189.77183,160.3273l0.36536,-0.50452l1.4083,0.87789c-0.05403,0.08635 -0.05613,0.23912 -0.08607,0.33804c-0.032,0.10569 -0.02874,0.1583 -0.02874,0.27399c0,0.00691 -0.14288,0.03355 -0.14276,0.04043z" data-paper-data="{&quot;index&quot;:null}" fill="#d5d5d5" stroke="none" stroke-linecap="butt"></path><path d="M191.3511,161.18115c0.02264,-0.1398 0.03027,-0.31088 0.09731,-0.42973l-0.07776,0.27156z" data-paper-data="{&quot;index&quot;:null}" fill="#ffffff" stroke="none" stroke-linecap="butt"></path><path d="M191.97309,155.59925l-0.06768,0.11843l0.08459,0.13535l-0.35529,0.18611" fill="none" stroke="#000000" stroke-linecap="round"></path><path d="M191.78698,155.95454l0.10151,0.10151" fill="none" stroke="#000000" stroke-linecap="round"></path></g><path d="M285.75666,184.80517v-14.30973h8.54867v14.30973z" fill="#a87300" stroke="none" stroke-width="0.5" stroke-linecap="butt"></path><path d="M285.92788,169.29574v-2.89412h8.04706v2.89412z" fill="#fffbcc" stroke="none" stroke-width="0.5" stroke-linecap="butt"></path><text transform="translate(286.84553,168.55457) scale(0.0557,0.0557)" font-size="40" xml:space="preserve" fill="#000000" fill-rule="nonzero" stroke="none" stroke-width="1" stroke-linecap="butt" stroke-linejoin="miter" stroke-miterlimit="10" stroke-dasharray="" stroke-dashoffset="0" font-family="Serif" font-weight="normal" text-anchor="start" style="mix-blend-mode: normal"><tspan x="0" dy="0">A-001</tspan></text><g stroke-width="0.5" stroke-linecap="butt"><path d="M293.28456,177.87591c-0.3673,-0.08148 -0.59239,-0.47507 -0.50276,-0.8791c0.08963,-0.40403 0.46005,-0.6655 0.82735,-0.58402c0.3673,0.08148 0.59239,0.47507 0.50276,0.8791c-0.08963,0.40403 -0.46005,0.66551 -0.82735,0.58402z" fill="#fff4ce" stroke="#e6ddbb"></path><path d="M293.5135,177.47055c-0.22819,-0.05062 -0.36803,-0.29514 -0.31234,-0.54615c0.05569,-0.25101 0.28581,-0.41345 0.514,-0.36282c0.22819,0.05062 0.36803,0.29514 0.31234,0.54615c-0.05569,0.25101 -0.28581,0.41345 -0.514,0.36282z" fill="#e6ddbb" stroke="#e6ddbb"></path><path d="M292.18383,177.25553l0.53209,-0.21359l0.21359,0.53209l-0.53209,0.21359z" fill="#e6ddbb" stroke="none"></path><path d="M292.63806,177.89319c-0.18442,0.26677 -0.33691,-0.027 -0.40595,-0.16312c-0.10774,-0.2124 -0.0924,-0.42596 -0.01131,-0.62473l-0.01897,-0.00421l0.02484,-0.11195v0c0.01184,-0.05338 0.06471,-0.08705 0.11809,-0.07521c0.03858,0.00856 0.06687,0.03855 0.07511,0.07468l0.03062,0.12229l-0.00394,0.00099l0.00599,0.00963c0.00034,0.0108 0.00068,0.0216 0.00101,0.03239c0.01395,0.01114 0.02461,0.02586 0.03088,0.04245c0.0176,0.01807 0.02804,0.04258 0.02816,0.06859l0.00296,0.11095c0.01273,0.07056 0.15257,0.47375 0.12251,0.51724z" fill="#fff4ce" stroke="none"></path></g><path d="M257.47395,156.60976c0,0 -2.39024,-1.34697 -2.39024,-2.1626c0,-0.94768 2.39024,-3.18699 2.39024,-3.18699h21.85366c0,0 3.18699,1.82736 3.18699,2.61789c0,0.95967 -3.18699,2.73171 -3.18699,2.73171z" fill="#b58a48" stroke="none" stroke-width="0.5" stroke-linecap="butt"></path><path d="M258.2707,161.1626v-5.46341h2.39024v5.46341z" fill="#b58a48" stroke="none" stroke-width="0.5" stroke-linecap="butt"></path><path d="M275.45769,161.50407v-5.46341h2.39024v5.46341z" fill="#b58a48" stroke="none" stroke-width="0.5" stroke-linecap="butt"></path><path d="M186.70516,166.50869l6.57368,0.29513l-0.3101,15.13881l-6.57368,-0.29513z" fill="#545454" stroke="none" stroke-width="0.5" stroke-linecap="butt"></path><path d="M187.92947,167.5255c1.22121,0.03584 3.32902,0.09771 4.02561,0.11815c0.44025,0.01292 0.94379,0.43941 0.93643,0.89641c-0.02265,1.40634 -0.14057,8.72653 -0.18194,11.29456c-0.00899,0.55787 -0.36816,0.88109 -0.89114,0.86574c-1.23232,-0.03617 -3.40396,-0.09991 -4.09925,-0.12031c-0.4215,-0.01237 -0.8958,-0.36926 -0.8866,-0.94088c0.0416,-2.58228 0.15842,-9.8342 0.1812,-11.24865c0.00753,-0.4677 0.3796,-0.88075 0.91569,-0.86502z" fill="#909090" stroke="#fff4ce" stroke-width="0.5" stroke-linecap="butt"></path><path d="M185.88045,173.91057l7.39837,0.22764" fill="none" stroke="#000000" stroke-width="0.5" stroke-linecap="round"></path><g stroke-width="0.5"><path d="M226.02716,153.50653l-0.0314,-7.33435l9.83665,-0.04212l0.0314,7.33435z" fill="#777777" stroke="none" stroke-linecap="butt"></path><path d="M225.94063,153.59343l-0.02931,-6.84539l1.55316,-0.00665l0.02931,6.84539z" fill="#3c3c3c" stroke="none" stroke-linecap="butt"></path><path d="M233.16012,146.88957l0.36781,5.29076l0.52215,1.03322l-6.21287,-0.03092l0.4565,-0.86484l-0.0202,-4.71699l0.11209,-0.69079" fill="none" stroke="#000000" stroke-linecap="round"></path><path d="M226.94799,147.03122l7.82306,-0.09102" fill="none" stroke="#000000" stroke-linecap="round"></path><path d="M226.28405,153.18928l-0.01453,-3.39393l0.80534,-0.00345l0.01453,3.39393z" fill="#777777" stroke="none" stroke-linecap="butt"></path><path d="M227.84755,155.59865c0,0 0.40041,-0.52894 0.39922,-0.80706c-0.00182,-0.42484 -0.40908,-1.49391 -0.40908,-1.49391l1.15049,-0.00493c0,0 -0.28303,1.0727 -0.28122,1.49686c0.00126,0.29432 0.29107,0.80411 0.29107,0.80411z" fill="#803400" stroke="none" stroke-linecap="butt"></path><path d="M225.96713,146.57632l-0.01626,-3.7966c0,0 0.95139,-0.80943 1.72228,-0.81273c0.56852,-0.00243 1.74751,0.49443 3.03414,0.37612c0.91833,-0.08444 1.89005,-0.8209 2.74039,-0.73205c1.60779,0.16801 2.68499,1.12506 2.68499,1.12506l0.01626,3.7966z" fill="#3c3c3c" stroke="none" stroke-linecap="butt"></path><path d="M232.74261,153.44961l-0.0314,-7.33435l9.83665,-0.04212l0.03141,7.33435z" fill="#777777" stroke="none" stroke-linecap="butt"></path><path d="M239.81866,146.83266l0.36781,5.29076l0.52215,1.03322l-6.21287,-0.03092l0.4565,-0.86483l-0.0202,-4.71699l0.11209,-0.69079" fill="none" stroke="#000000" stroke-linecap="round"></path><path d="M248.05081,155.54174c0,0 0.40041,-0.52894 0.39922,-0.80706c-0.00182,-0.42484 -0.40908,-1.49391 -0.40908,-1.49391l1.15049,-0.00493c0,0 -0.28303,1.0727 -0.28122,1.49686c0.00126,0.29432 0.29107,0.80411 0.29107,0.80411z" fill="#803400" stroke="none" stroke-linecap="butt"></path><path d="M239.28733,153.3927l-0.0314,-7.33435l9.83665,-0.04212l0.03141,7.33435z" fill="#777777" stroke="none" stroke-linecap="butt"></path><path d="M246.36337,146.77575l0.36781,5.29076l0.52215,1.03322l-6.21287,-0.03092l0.4565,-0.86483l-0.0202,-4.71699l0.11209,-0.69079" fill="none" stroke="#000000" stroke-linecap="round"></path><path d="M247.9743,146.82638l-7.82306,0.09102" fill="none" stroke="#000000" stroke-linecap="round"></path><path d="M232.96713,146.51941l-0.01626,-3.7966c0,0 0.95139,-0.80943 1.72228,-0.81273c0.56852,-0.00243 1.74751,0.49443 3.03414,0.37612c0.91833,-0.08444 1.89005,-0.8209 2.74039,-0.73205c1.60779,0.16801 2.68499,1.12506 2.68499,1.12506l0.01626,3.7966z" fill="#3c3c3c" stroke="none" stroke-linecap="butt"></path><path d="M238.88583,146.17795l-0.01626,-3.7966c0,0 0.95139,-0.80943 1.72228,-0.81273c0.56852,-0.00243 1.74751,0.49443 3.03414,0.37612c0.91833,-0.08444 1.89005,-0.8209 2.74039,-0.73205c1.60779,0.16801 2.68499,1.12506 2.68499,1.12506l0.01626,3.7966z" fill="#3c3c3c" stroke="none" stroke-linecap="butt"></path><path d="M232.71785,146.87805l8.02439,0.05691" fill="none" stroke="#000000" stroke-linecap="round"></path><path d="M232.77476,153.0813h1.65041" fill="none" stroke="#000000" stroke-linecap="round"></path><path d="M241.5959,153.0813l-2.33333,0.11382" fill="none" stroke="#000000" stroke-linecap="round"></path><path d="M247.96502,153.30887l-0.02931,-6.84539l1.55316,-0.00665l0.02931,6.84539z" fill="#3c3c3c" stroke="none" stroke-linecap="butt"></path><path d="M248.30844,152.90473l-0.01453,-3.39394l0.80534,-0.00345l0.01453,3.39393z" fill="#777777" stroke="none" stroke-linecap="butt"></path></g><path d="M263.78862,149.95122v-2.61789h7.96748v2.61789z" fill="none" stroke="#000000" stroke-width="0.5" stroke-linecap="butt"></path><g><g fill="#00fff1" stroke-width="0.5"><path d="M286.31536,211.01246v-8.30329h8.31878v8.30329z" stroke="#ffc439" stroke-linecap="butt"></path><path d="M286.21138,205.1104l0.03466,-1.38646" stroke="#bd912a" stroke-linecap="round"></path><path d="M294.56482,209.65107l0.03466,1.28248" stroke="#bd912a" stroke-linecap="round"></path></g><g stroke-width="0.5" stroke-linecap="butt"><path d="M290.43516,208.90838c-0.0393,0.48475 -0.27034,0.86157 -0.51604,0.84165c-0.2457,-0.01992 -0.41301,-0.42904 -0.37371,-0.91379c0.0393,-0.48475 0.27034,-0.86157 0.51604,-0.84165c0.2457,0.01992 0.41301,0.42904 0.37371,0.91379z" fill="#00ff44" stroke="#000000"></path><path d="M291.32035,208.95519c-0.0393,0.48475 -0.27034,0.86157 -0.51604,0.84165c-0.2457,-0.01992 -0.41301,-0.42904 -0.37371,-0.91379c0.0393,-0.48475 0.27034,-0.86157 0.51604,-0.84165c0.2457,0.01992 0.41301,0.42904 0.37371,0.91379z" fill="#00ff44" stroke="#000000"></path><path d="M289.96766,208.75228c-0.04348,0.5363 -0.29909,0.9532 -0.57092,0.93116c-0.27183,-0.02204 -0.45693,-0.47467 -0.41345,-1.01097c0.04348,-0.5363 0.29909,-0.9532 0.57092,-0.93116c0.27183,0.02204 0.45693,0.47467 0.41345,1.01097z" fill="#00ff44" stroke="#000000"></path><path d="M291.85621,208.90587c-0.04348,0.5363 -0.29909,0.9532 -0.57092,0.93116c-0.27183,-0.02204 -0.45693,-0.47467 -0.41345,-1.01097c0.04348,-0.5363 0.29909,-0.9532 0.57092,-0.93116c0.27183,0.02204 0.45693,0.47467 0.41345,1.01097z" fill="#00ff44" stroke="#000000"></path><path d="M289.05898,207.25913c-0.01358,-0.00295 -0.02179,-0.00592 -0.02179,-0.00592c-0.37372,-0.13509 -0.5196,-0.23319 -0.91399,-0.20037c-0.11807,0.00983 -0.23911,0.00709 -0.35335,0.03851c-0.19879,0.05467 -0.34718,0.22255 -0.52356,0.3293c-0.03401,0.02058 -0.1368,-0.01799 -0.11803,0.01706c0.04079,0.0762 0.14634,0.09387 0.20918,0.15321c0.32072,0.30287 0.56466,0.68252 1.05915,0.71251c0.23423,0.0142 0.36165,-0.04392 0.57138,-0.11552c0.04935,-0.01685 0.11304,-0.0133 0.14733,-0.05259c0.08768,-0.10044 -0.00256,-0.26731 -0.0201,-0.39948c-0.02167,-0.15783 -0.03289,-0.31729 -0.03622,-0.47671zM289.16514,206.88071c0.03459,-0.02371 0.0825,-0.03727 0.14823,-0.02387c0.19294,0.03933 0.1536,0.23227 0.1536,0.23227l-0.01526,0.05569c-0.00098,0.18042 0.0088,0.36155 0.034,0.54021c0.02509,0.22355 0.09758,0.48747 -0.06192,0.69506c-0.18557,0.24153 -0.79311,0.3314 -1.05726,0.31601c-0.54623,-0.03183 -1.01946,-0.42906 -1.32906,-0.85c-0.1064,-0.14467 -0.2912,-0.2674 -0.30117,-0.4467c-0.00368,-0.06611 0.45662,-0.46098 0.51701,-0.49757c0.34323,-0.20797 0.44895,-0.21157 0.83858,-0.24155c0.45465,-0.03498 0.65845,0.0703 1.07324,0.22044z" data-paper-data="{&quot;index&quot;:null}" fill="#9efffa" stroke="#000000"></path><path d="M289.09154,207.75308c0.01983,0.17148 0.1212,0.3899 0.02202,0.52021c-0.03879,0.05096 -0.11124,0.04694 -0.16706,0.0688c-0.23724,0.0929 -0.38417,0.1699 -0.64914,0.15147c-0.55938,-0.03891 -0.84024,-0.53651 -1.20303,-0.92946c-0.07108,-0.07699 -0.19045,-0.10058 -0.2366,-0.19944c-0.02122,-0.04547 0.09507,0.00443 0.13354,-0.02228c0.19952,-0.1385 0.36846,-0.35894 0.59333,-0.42987c0.12923,-0.04076 0.26791,-0.0386 0.40148,-0.05135c0.44613,-0.04258 0.61676,0.08735 1.03952,0.26261c0,0 0.00932,0.00393 0.02468,0.00776c0.00377,0.20684 0.01675,0.41677 0.04126,0.62154z" data-paper-data="{&quot;noHover&quot;:false,&quot;origItem&quot;:[&quot;Path&quot;,{&quot;applyMatrix&quot;:true,&quot;segments&quot;:[[[226.88478,183.83055],[0.03202,1.53316],[-0.13061,-0.02841]],[[226.67526,183.77362],[0,0],[-3.594,-1.29908]],[[217.88563,181.84671],[3.79273,-0.31562],[-1.13548,0.09449]],[[214.48752,182.21702],[1.09862,-0.30214],[-1.91171,0.52576]],[[209.45255,185.38378],[1.69623,-1.02658],[-0.32707,0.19795]],[[208.31744,185.54786],[-0.18042,-0.33705],[0.39226,0.7328]],[[210.32909,187.02128],[-0.6043,-0.57068],[3.08427,2.91265]],[[220.51472,193.87338],[-4.75545,-0.28842],[2.25258,0.13662]],[[226.00952,192.76242],[-2.01686,0.68857],[0.47456,-0.16202]],[[227.42634,192.25671],[-0.32977,0.37777],[0.84319,-0.96593]],[[227.23309,188.41502],[0.16862,1.27105],[-0.20837,-1.51784]]],&quot;closed&quot;:true}],&quot;index&quot;:null}" fill="#9efffa" stroke="none"></path><path d="M291.72812,207.65856c-0.04141,0.12673 -0.16064,0.27428 -0.09281,0.38907c0.02653,0.04489 0.08979,0.05305 0.13523,0.07864c0.1931,0.10874 0.30773,0.18919 0.54062,0.21806c0.49164,0.06094 0.80089,-0.2677 1.17158,-0.50682c0.07263,-0.04685 0.17964,-0.04492 0.23367,-0.11238c0.02485,-0.03103 -0.08325,-0.0119 -0.11293,-0.03836c-0.15389,-0.1372 -0.26908,-0.32938 -0.45452,-0.41948c-0.10657,-0.05178 -0.22607,-0.07122 -0.34035,-0.10247c-0.38174,-0.10439 -0.5431,-0.03461 -0.93522,0.02986c0,0 -0.00861,0.00141 -0.0225,0.00184c-0.03243,0.15613 -0.07262,0.31085 -0.12278,0.46205zM292.91119,206.7846c0.37758,0.10072 0.48086,0.12359 0.78027,0.39082c0.05268,0.04702 0.43301,0.5194 0.4173,0.58372c-0.04259,0.17446 -0.24672,0.26132 -0.37778,0.3841c-0.38135,0.35723 -0.91924,0.66122 -1.46208,0.59264c-0.26251,-0.03317 -0.84338,-0.23262 -0.98165,-0.50401c-0.11884,-0.23326 0.00069,-0.47947 0.06623,-0.69466c0.05744,-0.17104 0.10018,-0.34733 0.13221,-0.52489l-0.00482,-0.05755c0,0 -0.00339,-0.19688 0.19349,-0.20027c0.06708,-0.00116 0.11169,0.02094 0.14137,0.05057c0.43525,-0.07176 0.65487,-0.13799 1.09545,-0.02046z" data-paper-data="{&quot;index&quot;:null}" fill="#9efffa" stroke="#000000"></path><path d="M291.87453,207.10592c0.01547,-0.00051 0.0251,-0.0023 0.0251,-0.0023c0.43671,-0.07827 0.62226,-0.16431 1.0474,-0.03758c0.12728,0.03794 0.26186,0.06317 0.38054,0.12603c0.20652,0.10938 0.33544,0.34533 0.50683,0.5119c0.03305,0.03212 0.15344,0.00904 0.12576,0.04671c-0.06018,0.08189 -0.17942,0.08017 -0.26031,0.13704c-0.41284,0.2903 -0.7628,0.69295 -1.31034,0.61897c-0.25936,-0.03504 -0.38949,-0.13472 -0.60454,-0.26674c-0.0506,-0.03106 -0.12136,-0.04158 -0.1509,-0.09608c-0.07555,-0.13935 0.05685,-0.32039 0.10297,-0.47425c0.05587,-0.18357 0.10139,-0.37415 0.1375,-0.56369z" data-paper-data="{&quot;noHover&quot;:false,&quot;origItem&quot;:[&quot;Path&quot;,{&quot;applyMatrix&quot;:true,&quot;segments&quot;:[[[213.57957,210.40957],[0.08455,4.04824],[-0.34487,-0.07503]],[[213.02633,210.25925],[0,0],[-9.48981,-3.43017]],[[189.81767,205.17132],[10.01454,-0.83339],[-2.99819,0.2495]],[[180.84512,206.1491],[2.90085,-0.79779],[-5.04778,1.38824]],[[167.55048,214.51081],[4.47881,-2.71064],[-0.86361,0.52267]],[[164.55326,214.94404],[-0.4764,-0.88997],[1.03575,1.93492]],[[169.86496,218.83455],[-1.59564,-1.50686],[8.14387,7.69074]],[[196.75969,236.92724],[-12.55658,-0.76156],[5.94784,0.36074]],[[211.26848,233.99379],[-5.32543,1.81815],[1.25306,-0.42781]],[[215.00954,232.65848],[-0.87074,0.9975],[2.2264,-2.55051]],[[214.49927,222.51465],[0.44523,3.35615],[-0.5502,-4.0078]]],&quot;closed&quot;:true}],&quot;index&quot;:null}" fill="#9efffa" stroke="none"></path><path d="M289.63541,207.80201c-0.05429,0 -0.10216,-0.02746 -0.13048,-0.06925c-0.05725,-0.00399 -0.11453,-0.0077 -0.17184,-0.01107c-0.11598,-0.00681 -0.23262,-0.00873 -0.34954,-0.00835c-0.02374,0.16335 -0.04685,0.32665 -0.0735,0.49039l0.00206,0.00127c0,0 0,0.15753 -0.15753,0.15753c-0.15753,0 -0.15753,-0.15753 -0.15753,-0.15753l0.00206,-0.05211c0.02383,-0.14506 0.04474,-0.28991 0.06569,-0.43478c-0.04316,0.00089 -0.08632,0.00178 -0.12945,0.00252c-0.00341,0.11369 -0.01046,0.22731 -0.02485,0.34375l0.00122,0.00715c0,0 0,0.15753 -0.15753,0.15753c-0.15753,0 -0.15753,-0.15753 -0.15753,-0.15753l0.00122,-0.04623c0.01301,-0.10283 0.01952,-0.20323 0.02273,-0.30353c-0.09101,-0.00147 -0.18171,-0.00498 -0.27191,-0.01176c-0.01082,0.04949 -0.02309,0.0986 -0.03674,0.1472l-0.08956,0.1612c0,0 -0.08033,0.1355 -0.21584,0.05517c-0.1355,-0.08033 -0.05517,-0.21584 -0.05517,-0.21584l0.05763,-0.08708c0.0096,-0.03296 0.01843,-0.06622 0.02644,-0.09972c-0.11783,-0.02138 -0.23444,-0.05107 -0.34941,-0.09197c0,0 -0.14804,-0.05383 -0.09421,-0.20187c0.05383,-0.14804 0.20187,-0.09421 0.20187,-0.09421c0.09467,0.03533 0.19169,0.06177 0.29045,0.08139c0.00378,-0.04895 0.00561,-0.09797 0.00533,-0.14689c0,0 0,-0.15753 0.15753,-0.15753c0.15753,0 0.15753,0.15753 0.15753,0.15753c-0.0003,0.06268 -0.00333,0.12547 -0.00892,0.18811c0.07542,0.00569 0.15145,0.00879 0.22784,0.01013c-0.00007,-0.03027 -0.00014,-0.06075 -0.00014,-0.09148c0,0 0,-0.15753 0.15753,-0.15753c0.15753,0 0.15753,0.15753 0.15753,0.15753c0,0.02995 0.00004,0.05968 0.00007,0.08924c0.05743,-0.00143 0.11487,-0.0032 0.17222,-0.00497c0.00708,-0.0456 0.01436,-0.09122 0.02195,-0.13686c0,0 0.0259,-0.15538 0.18128,-0.12949c0.15538,0.0259 0.12949,0.18128 0.12949,0.18128c-0.00431,0.02582 -0.00853,0.05163 -0.01266,0.07743c0.10785,-0.00105 0.21467,0.00026 0.31975,0.00631c0.02089,0.0012 0.04178,0.00246 0.06266,0.00375c0.01138,-0.00261 0.02323,-0.00399 0.0354,-0.00399c0.01935,0 0.0379,0.00349 0.05502,0.00988c0.63995,0.04347 1.27664,0.12358 1.92017,0.12358c0.20504,0.00028 0.41075,0.00876 0.61653,0.0189c0,-0.05496 0,-0.10724 0,-0.15498c0,0 0,-0.15753 0.15753,-0.15753c0.15753,0 0.15753,0.15753 0.15753,0.15753c0,0.05697 0,0.11393 0,0.1709c0.00594,0.00029 0.01188,0.00058 0.01782,0.00087c-0.00404,-0.05319 -0.008,-0.10642 -0.0121,-0.15969c0,0 -0.01208,-0.15706 0.14498,-0.16914c0.15706,-0.01208 0.16914,0.14498 0.16914,0.14498c0.00505,0.06568 0.00984,0.1313 0.01484,0.19686c0.08761,0.00269 0.17513,0.00443 0.26251,0.00469c-0.01044,-0.08427 -0.02113,-0.16836 -0.03044,-0.25215c0,0 -0.0174,-0.15656 0.13916,-0.17396c0.15656,-0.0174 0.17396,0.13916 0.17396,0.13916c0.01005,0.09045 0.02142,0.18106 0.0324,0.27177c0.03462,0.00577 0.06924,0.01154 0.10385,0.01731l0.02749,-0.00214c0,0 0.15753,0 0.15753,0.15753c0,0.15753 -0.15753,0.15753 -0.15753,0.15753l-0.07928,-0.00214c-0.00579,-0.00097 -0.01157,-0.00193 -0.01736,-0.00289c0.00838,0.10035 0.0138,0.20079 0.01394,0.30127v0.02669c0,0 0,0.15753 -0.15753,0.15753c-0.15753,0 -0.15753,-0.15753 -0.15753,-0.15753v-0.02669c0.00016,-0.09865 -0.00535,-0.19748 -0.01393,-0.29627c-0.08978,-0.00037 -0.1797,-0.00222 -0.26971,-0.00504c0.0097,0.09227 0.02131,0.18438 0.03616,0.27628l0.01207,0.00797c0,0 0.07045,0.14089 -0.07045,0.21134c-0.14089,0.07045 -0.21134,-0.07045 -0.21134,-0.07045l-0.04132,-0.09879c-0.01811,-0.11289 -0.03169,-0.22604 -0.04288,-0.33941c-0.01481,-0.00071 -0.02963,-0.00144 -0.04445,-0.00217c0,0.06992 0,0.13985 0,0.20977v0.10677c0,0 0,0.15753 -0.15753,0.15753c-0.15753,0 -0.15753,-0.15753 -0.15753,-0.15753c0,-0.09718 0,-0.21319 0,-0.33222c-0.20576,-0.00981 -0.41144,-0.01771 -0.61653,-0.0174c-0.56049,0 -1.1159,-0.05934 -1.67261,-0.10406c-0.02878,0.03116 -0.06998,0.05067 -0.11574,0.05067z" fill="#000000" stroke="none"></path><path d="M288.83466,207.71121c0,-0.9066 0.73494,-1.64154 1.64154,-1.64154c0.9066,0 1.64154,0.73494 1.64154,1.64154c0,0.9066 -0.73494,1.64154 -1.64154,1.64154c-0.9066,0 -1.64154,-0.73494 -1.64154,-1.64154z" fill="#00ff44" stroke="#000000"></path><path d="M289.18427,207.19072c0,-0.087 0.07053,-0.15753 0.15753,-0.15753c0.087,0 0.15753,0.07053 0.15753,0.15753c0,0.087 -0.07053,0.15753 -0.15753,0.15753c-0.087,0 -0.15753,-0.07053 -0.15753,-0.15753z" fill="#000000" stroke="none"></path><path d="M291.34631,207.32418c0,-0.087 0.07053,-0.15753 0.15753,-0.15753c0.087,0 0.15753,0.07053 0.15753,0.15753c0,0.087 -0.07053,0.15753 -0.15753,0.15753c-0.087,0 -0.15753,-0.07053 -0.15753,-0.15753z" fill="#000000" stroke="none"></path><path d="M290.71209,207.53697c-0.02692,-0.0227 -0.06258,-0.06891 -0.02773,-0.13862c0.05169,-0.10338 0.15506,-0.05169 0.15506,-0.05169l0.10306,0.12296c-0.00456,0.06387 0.02127,0.13796 -0.01368,0.19162c-0.18342,0.28167 -0.33597,0.03609 -0.55233,0.04146c-0.04048,0.001 -0.07486,0.04446 -0.11499,0.03914c-0.08162,-0.01082 -0.18001,-0.02116 -0.23187,-0.08512c-0.09162,-0.11299 0.00545,-0.30124 0.0428,-0.40394c0,0 0.04058,-0.10822 0.1488,-0.06763c0.10822,0.04058 0.06763,0.1488 0.06763,0.1488c-0.02398,0.06156 -0.10519,0.12497 -0.0747,0.18358c0.02596,0.04989 0.10609,-0.047 0.16232,-0.04598c0.10567,0.00192 0.30858,0.1693 0.33561,0.06542z" fill="#000000" stroke="none"></path><path d="M289.57663,208.80231c0.00615,-0.02535 0.01448,-0.0525 0.02517,-0.08156c0.03109,-0.08456 0.33193,-0.19654 0.42688,-0.21584c0.31609,-0.06422 0.90328,-0.09219 1.03305,0.30612c0.03611,0.11085 0.07065,0.24392 0.02046,0.34914c-0.08849,0.18552 -0.30772,0.16161 -0.45919,0.16327c-0.41521,0.00457 -0.70498,-0.01073 -1.07108,-0.23748c0,0 -0.13358,-0.08349 -0.05009,-0.21707c0.0225,-0.03599 0.04863,-0.05623 0.07481,-0.06658z" fill="#c8e000" stroke="#000000"></path><path d="M291.83893,204.28017c0,0.00025 0,0.00049 0.00001,0.00074c-0.14188,0.24729 -0.4285,0.62622 -0.19228,0.91018c0.07934,0.09538 0.31505,-0.12084 0.35159,-0.16257c0.10882,-0.12426 0.12042,-0.28189 0.12577,-0.43694c0.00242,-0.07005 0.0429,-0.17448 -0.0178,-0.20954c-0.07924,-0.04576 -0.17368,-0.0766 -0.26729,-0.10187zM291.7939,204.06529c0.14745,0.03591 0.33076,0.08034 0.44213,0.16869c0.11869,0.09416 0.08751,0.23495 0.08482,0.3629c-0.0058,0.27648 -0.0887,0.55618 -0.34217,0.70932c-0.11999,0.07249 -0.32539,0.14869 -0.45954,0.03492c-0.06265,-0.05314 -0.06626,-0.15045 -0.09519,-0.22734c-0.04715,-0.12534 -0.05775,-0.27336 -0.01825,-0.40132c0.05659,-0.18328 0.13741,-0.31777 0.2389,-0.47695c-0.02562,-0.01176 -0.05238,-0.03632 -0.05238,-0.08766c0,-0.01998 0.00406,-0.03591 0.01052,-0.0486c-0.07653,-0.05371 -0.2313,0.00869 -0.34099,0.02901c-0.23432,0.0434 -0.43756,0.12709 -0.58725,0.31965c-0.38497,0.49522 -0.10283,1.07489 -0.03388,1.60954c0,0 0.01221,0.09769 -0.08548,0.1099c-0.09769,0.01221 -0.1099,-0.08548 -0.1099,-0.08548c-0.07141,-0.59261 -0.36234,-1.20814 0.07289,-1.75362c0.24095,-0.30199 1.07252,-0.67292 1.27578,-0.26296z" fill="#000000" stroke="none"></path><path d="M292.10849,204.37882c0.0607,0.03506 0.02137,0.14076 0.01895,0.21081c-0.00535,0.15505 -0.01853,0.31809 -0.12734,0.44235c-0.03654,0.04173 -0.27573,0.25806 -0.35508,0.16268c-0.23623,-0.28395 0.05195,-0.67041 0.19383,-0.9177c0,-0.00025 0,-0.00049 -0.00001,-0.00074c0.09361,0.02527 0.1904,0.05683 0.26964,0.10259z" data-paper-data="{&quot;noHover&quot;:false,&quot;origItem&quot;:[&quot;Path&quot;,{&quot;applyMatrix&quot;:true,&quot;segments&quot;:[[[253.61901,155.1825],[0.90021,0.24299],[0.00003,0.00236]],[[253.6191,155.18959],[-0.00003,-0.00236],[-1.36445,2.37809]],[[251.76999,163.94253],[-2.27176,-2.73071],[0.76305,0.9172]],[[255.15118,162.37914],[-0.35143,0.40131],[1.04645,-1.19499]],[[256.36066,158.1772],[-0.05146,1.49105],[0.02325,-0.6737]],[[256.1895,156.16216],[0.58374,0.33713],[-0.762,-0.44008]]],&quot;closed&quot;:true}]}" fill="#ebff78" stroke="none"></path></g><text transform="translate(286.74098,210.41671) scale(0.02279,0.02279)" font-size="40" xml:space="preserve" fill="#000000" fill-rule="nonzero" stroke="none" stroke-width="1" stroke-linecap="butt" stroke-linejoin="miter" stroke-miterlimit="10" stroke-dasharray="" stroke-dashoffset="0" font-family="Curly" font-weight="normal" text-anchor="start" style="mix-blend-mode: normal"><tspan x="0" dy="0">asset by pug_24</tspan></text><path d="M287.25415,202.34762l2.96113,-3.22434l3.68496,3.48755" fill="none" stroke="#000000" stroke-width="0.5" stroke-linecap="round"></path></g><path d="M224.63415,222.05691v-6.94309h31.52846v6.94309z" fill="#66e5ff" stroke="#ffffff" stroke-width="0.5" stroke-linecap="butt"></path><path d="M240,214.88618l0.22764,6.60163" fill="none" stroke="#ffffff" stroke-width="0.5" stroke-linecap="round"></path><path d="M224.74797,218.52846h31.18699" fill="none" stroke="#ffffff" stroke-width="0.5" stroke-linecap="round"></path></g></g></svg>