<svg version="1.1" xmlns="http://www.w3.org/2000/svg" xmlns:xlink="http://www.w3.org/1999/xlink" width="61.46163" height="47.14541" viewBox="0,0,61.46163,47.14541"><defs><radialGradient cx="260.90819" cy="174.86911" r="9.10949" gradientUnits="userSpaceOnUse" id="color-1"><stop offset="0" stop-color="#3c3c3c"></stop><stop offset="1" stop-color="#656565"></stop></radialGradient><radialGradient cx="219.32968" cy="183.4757" r="8.05475" gradientUnits="userSpaceOnUse" id="color-2"><stop offset="0" stop-color="#3c3c3c"></stop><stop offset="1" stop-color="#656565"></stop></radialGradient><linearGradient x1="239.34538" y1="187.85839" x2="238.0242" y2="192.43627" gradientUnits="userSpaceOnUse" id="color-3"><stop offset="0" stop-color="#ffffff" stop-opacity="0"></stop><stop offset="1" stop-color="#ffffff"></stop></linearGradient><radialGradient cx="255.89823" cy="174.4371" r="6.45628" gradientUnits="userSpaceOnUse" id="color-4"><stop offset="0" stop-color="#b3b0b4"></stop><stop offset="1" stop-color="#79787a"></stop></radialGradient><radialGradient cx="223.37206" cy="171.24064" r="6.26991" gradientUnits="userSpaceOnUse" id="color-5"><stop offset="0" stop-color="#b3b0b4"></stop><stop offset="1" stop-color="#79787a"></stop></radialGradient><radialGradient cx="262.86881" cy="166.648" r="4.90404" gradientUnits="userSpaceOnUse" id="color-6"><stop offset="0" stop-color="#b3b0b4"></stop><stop offset="1" stop-color="#79787a"></stop></radialGradient><linearGradient x1="240.25" y1="192.70835" x2="240.25" y2="202.79168" gradientUnits="userSpaceOnUse" id="color-7"><stop offset="0" stop-color="#b4b4b4"></stop><stop offset="1" stop-color="#9d9d9d"></stop></linearGradient><linearGradient x1="261.20833" y1="198.16668" x2="256.375" y2="198.16668" gradientUnits="userSpaceOnUse" id="color-8"><stop offset="0" stop-color="#656565"></stop><stop offset="1" stop-color="#b1b1b1"></stop></linearGradient><linearGradient x1="218.375" y1="198.00001" x2="223.20834" y2="198.00001" gradientUnits="userSpaceOnUse" id="color-9"><stop offset="0" stop-color="#656565"></stop><stop offset="1" stop-color="#b1b1b1"></stop></linearGradient><linearGradient x1="220.75" y1="194.37501" x2="220.75" y2="202.62501" gradientUnits="userSpaceOnUse" id="color-10"><stop offset="0" stop-color="#bebebe"></stop><stop offset="1" stop-color="#000000"></stop></linearGradient><linearGradient x1="223" y1="193.62501" x2="223" y2="202.62501" gradientUnits="userSpaceOnUse" id="color-11"><stop offset="0" stop-color="#bebebe"></stop><stop offset="1" stop-color="#000000"></stop></linearGradient><linearGradient x1="256.08333" y1="193.70835" x2="256.08333" y2="202.70835" gradientUnits="userSpaceOnUse" id="color-12"><stop offset="0" stop-color="#bebebe"></stop><stop offset="1" stop-color="#000000"></stop></linearGradient><linearGradient x1="259.34615" y1="195.6763" x2="259.34615" y2="202.84297" gradientUnits="userSpaceOnUse" id="color-13"><stop offset="0" stop-color="#bebebe"></stop><stop offset="1" stop-color="#000000"></stop></linearGradient><linearGradient x1="238.33334" y1="193.04168" x2="238.33334" y2="194.29168" gradientUnits="userSpaceOnUse" id="color-14"><stop offset="0" stop-color="#bebebe"></stop><stop offset="1" stop-color="#000000"></stop></linearGradient><linearGradient x1="240.46989" y1="195.10229" x2="241.36345" y2="194.89774" gradientUnits="userSpaceOnUse" id="color-15"><stop offset="0" stop-color="#ff6262"></stop><stop offset="1" stop-color="#ead2d2"></stop></linearGradient><radialGradient cx="216.09881" cy="171.03576" r="5.42067" gradientUnits="userSpaceOnUse" id="color-16"><stop offset="0" stop-color="#79787a"></stop><stop offset="1" stop-color="#464546"></stop></radialGradient><radialGradient cx="253.92572" cy="160.88624" r="4.6466" gradientUnits="userSpaceOnUse" id="color-17"><stop offset="0" stop-color="#79787a"></stop><stop offset="1" stop-color="#464546"></stop></radialGradient><radialGradient cx="265.75219" cy="161.45853" r="3.29662" gradientUnits="userSpaceOnUse" id="color-18"><stop offset="0" stop-color="#b3b0b4"></stop><stop offset="1" stop-color="#79787a"></stop></radialGradient><radialGradient cx="265.24279" cy="178.7758" r="4.93978" gradientUnits="userSpaceOnUse" id="color-19"><stop offset="0" stop-color="#b3b0b4"></stop><stop offset="1" stop-color="#79787a"></stop></radialGradient><radialGradient cx="225.1377" cy="159.01769" r="2.67136" gradientUnits="userSpaceOnUse" id="color-20"><stop offset="0" stop-color="#b3b0b4"></stop><stop offset="1" stop-color="#79787a"></stop></radialGradient><radialGradient cx="214.99792" cy="161.81012" r="3.43272" gradientUnits="userSpaceOnUse" id="color-21"><stop offset="0" stop-color="#b3b0b4"></stop><stop offset="1" stop-color="#79787a"></stop></radialGradient><linearGradient x1="240.11978" y1="157.19541" x2="240.11978" y2="204.09541" gradientUnits="userSpaceOnUse" id="color-22"><stop offset="0" stop-color="#000000" stop-opacity="0.84677"></stop><stop offset="1" stop-color="#000000" stop-opacity="0"></stop></linearGradient></defs><g transform="translate(-209.20814,-156.95)"><g data-paper-data="{&quot;isPaintingLayer&quot;:true}" fill-rule="nonzero" stroke-linejoin="miter" stroke-miterlimit="10" stroke-dasharray="" stroke-dashoffset="0" style="mix-blend-mode: normal"><path d="M209.71326,202.50326v-45.00651h60.57347v45.00651z" fill="#5d5d5d" stroke="none" stroke-width="0" stroke-linecap="butt"></path><path d="M248.84808,202.55l-12,-45.3l33.6,-0.3v45.6z" data-paper-data="{&quot;index&quot;:null}" fill="#4a4a4a" stroke="none" stroke-width="0" stroke-linecap="butt"></path><path d="M209.25,202.65v-45.6l27.9,-0.1l-6.3,45.7z" fill="#4a4a4a" stroke="none" stroke-width="0" stroke-linecap="butt"></path><path d="M269.23252,178.56885c-0.67421,1.51698 -2.91825,0.85106 -4.83182,1.20469c-1.97195,0.36441 -3.63812,1.70995 -5.97137,0.67292c-0.87594,-0.38932 -2.77314,4.33719 -3.49142,3.81669c-3.0517,-2.21135 -3.46229,-10.60036 -2.35413,-13.09374c1.369,-3.08028 6.20574,-3.9209 10.80316,-1.87761c4.59741,2.04331 7.21455,6.19678 5.84555,9.27705z" fill="url(#color-1)" stroke="none" stroke-width="0" stroke-linecap="butt"></path><path d="M227.38444,183.4757c0,4.32262 -3.60623,7.82679 -8.05475,7.82679c-4.44852,0 -8.05475,-3.50416 -8.05475,-7.82679c0,-3.46288 1.40251,-7.46434 4.61025,-8.49592c0.79639,-0.25612 2.55972,0.66909 3.4445,0.66909c0.53017,0 3.63196,-5.72534 4.13354,-5.63034c3.70695,0.70209 3.92123,9.64968 3.92123,13.45713z" fill="url(#color-2)" stroke="none" stroke-width="0" stroke-linecap="butt"></path><path d="M227.30831,202.57246l9.08334,-36.00001l1.11667,-0.55l-7.3,36.41667z" fill="#9f8250" stroke="none" stroke-width="0" stroke-linecap="butt"></path><path d="M247.47498,202.55579l-8.76666,-36.28334l1.11667,0.41667l10.08333,36.13333z" data-paper-data="{&quot;index&quot;:null}" fill="#9f8250" stroke="none" stroke-width="0" stroke-linecap="butt"></path><path d="M232.29301,191.88187l0.3504,-1.6l12.05331,0.2l0.56062,1.4z" fill="#caa565" stroke="none" stroke-width="0" stroke-linecap="butt"></path><path d="M237.09168,192.16713l-1.14697,-6.20855l7.2266,1.90192l-4.21454,4.84488z" fill="url(#color-3)" stroke="none" stroke-width="0" stroke-linecap="butt"></path><path d="M233.32928,187.84564l0.28925,-1.1926l9.9499,0.14908l0.46279,1.04352z" fill="#caa565" stroke="none" stroke-width="0" stroke-linecap="butt"></path><path d="M234.19367,183.79094l0.24201,-1.18512l8.32493,0.14814l0.38719,1.03698z" fill="#caa565" stroke="none" stroke-width="0" stroke-linecap="butt"></path><path d="M234.94985,180.58854l0.20515,-1.06189l7.05708,0.13274l0.32824,0.92916z" fill="#caa565" stroke="none" stroke-width="0" stroke-linecap="butt"></path><path d="M235.36605,177.07083l0.16422,-0.63704l5.64874,0.07963l0.26274,0.55741z" fill="#caa565" stroke="none" stroke-width="0" stroke-linecap="butt"></path><path d="M235.76355,174.40551l0.12927,-0.58766l4.44688,0.07345l0.20684,0.51421z" fill="#caa565" stroke="none" stroke-width="0" stroke-linecap="butt"></path><path d="M236.30273,173.32359l0.11543,-0.41481l3.97079,0.05185l0.1847,0.36296z" fill="#caa565" stroke="none" stroke-width="0" stroke-linecap="butt"></path><path d="M236.43229,172.36238l0.0949,-0.41481l3.26454,0.05185l0.15184,0.36296z" fill="#caa565" stroke="none" stroke-width="0" stroke-linecap="butt"></path><path d="M236.81259,169.22457l0.72191,-3.1284c0,0 1.25308,0.19449 1.25743,0.36313c0.01169,0.45313 0.65722,2.76527 0.65722,2.76527z" fill-opacity="0.49326" fill="#caa565" stroke="none" stroke-width="0" stroke-linecap="butt"></path><path d="M254.35642,180.82173v-1.98144c0,0 1.25515,-7.85239 2.21633,-7.85239c0.32742,0 0.08305,2.86954 0.68376,4.54113c0.78524,2.18502 2.39985,3.31129 2.39985,3.31129v1.98147z" data-paper-data="{&quot;index&quot;:null}" fill="url(#color-4)" stroke="#000000" stroke-width="0" stroke-linecap="butt"></path><path d="M221.87477,177.60375v-1.97476c0,0 1.21892,-7.8259 2.15236,-7.8259c0.31797,0 0.08063,2.85983 0.66401,4.52579c0.76256,2.17765 2.33056,3.30012 2.33056,3.30012v1.97476z" data-paper-data="{&quot;index&quot;:null}" fill="url(#color-5)" stroke="#000000" stroke-width="0" stroke-linecap="butt"></path><path d="M260.0142,171.49765v-1.50508c0,0 1.2264,-0.85547 1.82285,-2.51516c0.45629,-1.26971 0.27068,-3.44934 0.51936,-3.44934c0.7301,0 1.68347,5.96448 1.68347,5.96448v1.50505z" data-paper-data="{&quot;index&quot;:null}" fill="url(#color-6)" stroke="#000000" stroke-width="0" stroke-linecap="butt"></path><path d="M236.79794,171.34363l0.07256,-0.41481l2.49584,0.05185l0.11609,0.36296z" fill="#caa565" stroke="none" stroke-width="0" stroke-linecap="butt"></path><g><path d="M209.95834,202.79168l8.75,-10.08334l41.74999,0.33334l10.08334,9.75c0,0 -9.28964,0 -16.16667,0c-0.22494,0 -0.44729,0 -0.66666,0c-11.1658,0 -43.75,0 -43.75,0z" fill="url(#color-7)" stroke="none" stroke-width="0" stroke-linecap="butt"></path><path d="M256.375,202.87501v-9.41667h4.83333v9.41667z" data-paper-data="{&quot;index&quot;:null}" fill="url(#color-8)" stroke="none" stroke-width="0" stroke-linecap="butt"></path><path d="M218.375,202.70835v-9.41667h4.83334v9.41667z" fill="url(#color-9)" stroke="none" stroke-width="0" stroke-linecap="butt"></path><path d="M264.78781,202.47304l-6.23681,-9.02413l2.41119,-0.50525l6.40347,8.02412z" data-paper-data="{&quot;index&quot;:null}" fill="#767676" stroke="none" stroke-width="0" stroke-linecap="butt"></path><path d="M212.38434,200.30111l6.40347,-8.02412l2.41118,0.50525l-6.23681,9.02413z" fill="#767676" stroke="none" stroke-width="0" stroke-linecap="butt"></path><g fill="#ffe116" stroke="#efc800" stroke-width="0.5" stroke-linecap="butt"><path d="M209.54702,202.52597l-0.08594,-8.05633l8.50267,0.76395l0.06382,7.37995z"></path><path d="M261.68075,202.6699l-0.1751,-8.38542l6.73924,0.48319l1.91642,7.75829z" data-paper-data="{&quot;index&quot;:null}"></path></g><path d="M218.54167,193.5521v-1.1875h42.5v1.1875z" fill="#767676" stroke="none" stroke-width="0" stroke-linecap="butt"></path><path d="M220.20834,194.37501l1.08333,8.25" fill="none" stroke="url(#color-10)" stroke-width="0.25" stroke-linecap="round"></path><path d="M222.79167,193.62501l0.41667,9" fill="none" stroke="url(#color-11)" stroke-width="0.25" stroke-linecap="round"></path><path d="M258.70833,193.70835l-1.83333,8.83333" fill="none" stroke="url(#color-12)" stroke-width="0.25" stroke-linecap="round"></path><path d="M259.05449,202.84297l0.58333,-7.16667" fill="none" stroke="url(#color-13)" stroke-width="0.25" stroke-linecap="round"></path><path d="M235.95834,194.29168v-1.25c0,0 1.86818,-1.25 2.66666,-1.25c0.7846,0 2.08334,1.25 2.08334,1.25v1.25z" fill="#c3c8c3" stroke="url(#color-14)" stroke-width="0.25" stroke-linecap="butt"></path><path d="M236.625,195.20835v-1.83334h0.75v1.83334z" fill="#828282" stroke="none" stroke-width="0" stroke-linecap="butt"></path><path d="M239.29167,195.12501v-1.58334h0.66667v1.58334z" fill="#828282" stroke="none" stroke-width="0" stroke-linecap="butt"></path><path d="M240.96267,197.25494c0,0 -0.08308,-1.53835 -0.24823,-2.25983c-0.16334,-0.71353 -0.73731,-2.04547 -0.73731,-2.04547l0.89355,-0.20455c0,0 0.55655,1.25581 0.71613,1.95292c0.16845,0.73588 0.26942,2.35237 0.26942,2.35237z" fill="url(#color-15)" stroke="none" stroke-width="0" stroke-linecap="butt"></path><path d="M241.29167,202.70835c0,0 -0.33601,-1.14338 -0.12542,-2.2421c0.15614,-0.81458 0.87542,-1.56707 0.87542,-2.0079c0,-0.54572 -0.75,-1.5 -0.75,-1.5h0.41667c0,0 0.75,0.42631 0.75,1c0,0.53155 -0.61106,1.58631 -0.8019,2.65742c-0.18403,1.03284 0.0519,2.09258 0.0519,2.09258z" fill="#444343" stroke="none" stroke-width="0" stroke-linecap="butt"></path></g><path d="M214.27465,179.85309l-0.04432,-0.77541c0,0 1.06758,-3.30025 1.28287,-5.57659c0.15596,-1.64902 -0.5971,-2.47555 -0.30691,-2.49213c0.08889,-0.00508 0.25753,-1.57778 0.46953,-2.50059c0.08061,-0.35093 -0.06061,-0.72792 0.13701,-0.71288c0.32801,0.02498 1.15691,2.44881 1.77475,3.17443c0.58046,0.68172 -1.02798,3.04832 -0.68059,3.95918c0.78316,2.05341 1.62059,3.90297 1.62059,3.90297l0.04432,0.77541z" data-paper-data="{&quot;index&quot;:null}" fill="url(#color-16)" stroke="#000000" stroke-width="0" stroke-linecap="butt"></path><path d="M251.8058,168.23391l0.03799,-0.66469c0,0 0.71783,-1.58545 1.38918,-3.34563c0.2978,-0.78078 -1.08098,-2.80943 -0.58341,-3.39379c0.52962,-0.62201 1.24014,-2.69971 1.52131,-2.72112c0.16942,-0.0129 0.04835,0.31025 0.11744,0.61109c0.18174,0.79104 0.3263,2.13915 0.40247,2.1435c0.24874,0.01421 -0.39677,0.72271 -0.26309,2.13625c0.18455,1.95127 1.09968,4.78023 1.09968,4.78023l-0.03799,0.66469z" data-paper-data="{&quot;index&quot;:null}" fill="url(#color-17)" stroke="#000000" stroke-width="0" stroke-linecap="butt"></path><path d="M264.96497,164.71855v-1.01173c0,0 0.64088,-4.00946 1.13167,-4.00946c0.16716,0 0.0424,1.46519 0.34913,2.31872c0.40095,1.11567 1.22536,1.69074 1.22536,1.69074v1.01176z" data-paper-data="{&quot;index&quot;:null}" fill="url(#color-18)" stroke="#000000" stroke-width="0" stroke-linecap="butt"></path><path d="M262.3674,183.66079v-1.51604c0,0 1.23535,-0.86173 1.83614,-2.53351c0.45961,-1.27895 0.27265,-3.47447 0.52315,-3.47447c0.73542,0 1.69573,6.00797 1.69573,6.00797v1.51604z" data-paper-data="{&quot;index&quot;:null}" fill="url(#color-19)" stroke="#000000" stroke-width="0" stroke-linecap="butt"></path><path d="M224.49977,161.72875v-0.84136c0,0 0.51933,-3.3343 0.91704,-3.3343c0.13547,0 0.03435,1.21846 0.28291,1.92826c0.3249,0.92781 0.99296,1.40605 0.99296,1.40605v0.84136z" data-paper-data="{&quot;index&quot;:null}" fill="url(#color-20)" stroke="#000000" stroke-width="0" stroke-linecap="butt"></path><path d="M212.99977,165.29387v-1.08116c0,0 0.85846,-0.61454 1.27596,-1.80678c0.3194,-0.91211 0.18946,-2.47783 0.36354,-2.47783c0.51105,0 1.17841,4.2846 1.17841,4.2846v1.08116z" data-paper-data="{&quot;index&quot;:null}" fill="url(#color-21)" stroke="#000000" stroke-width="0" stroke-linecap="butt"></path><path d="M235.53272,175.4875l0.1462,-0.63704l5.02892,0.07963l0.23391,0.55741z" fill="#caa565" stroke="none" stroke-width="0" stroke-linecap="butt"></path><path d="M236.79794,170.2603l0.07256,-0.41481l2.49584,0.05185l0.11609,0.36296z" fill="#caa565" stroke="none" stroke-width="0" stroke-linecap="butt"></path><path d="M240.3532,162.89768l-0.11904,-5.25246" fill="none" stroke="#000000" stroke-width="0.1" stroke-linecap="round"></path><path d="M241.34509,165.12624c0,1.19792 -0.55028,2.16902 -1.22915,2.16902c-0.67882,0 -1.22915,-0.97112 -1.22915,-2.16902c0,-1.19792 0.55028,-2.16902 1.22915,-2.16902c0.67882,0 1.22915,0.97112 1.22915,2.16902z" fill="#ffffff" stroke="#000000" stroke-width="0.1" stroke-linecap="butt"></path><path d="M239.2748,165.18406h1.44602" fill="none" stroke="#000000" stroke-width="0.1" stroke-linecap="round"></path><path d="M240.08576,162.65271l-0.23756,4.98879" fill="none" stroke="#000000" stroke-width="0.1" stroke-linecap="round"></path><path d="M209.56978,204.09541v-46.9h61.1v46.9z" fill="url(#color-22)" stroke="none" stroke-width="0" stroke-linecap="butt"></path></g></g></svg>