<svg version="1.1" xmlns="http://www.w3.org/2000/svg" xmlns:xlink="http://www.w3.org/1999/xlink" width="14.77173" height="35.82555" viewBox="0,0,14.77173,35.82555"><g transform="translate(-232.61414,-162.08722)"><g data-paper-data="{&quot;isPaintingLayer&quot;:true}" fill-rule="nonzero" stroke-width="0.2" stroke-linejoin="miter" stroke-miterlimit="10" stroke-dasharray="" stroke-dashoffset="0" style="mix-blend-mode: normal"><path d="M246.82545,185.57289c0,0 -0.10149,0.40375 -0.20488,0.42797c-0.12648,0.02963 -0.49876,-0.26312 -0.49876,-0.26312l-0.53538,-1.51454l0.56254,-0.19885l0.67647,1.54855z" data-paper-data="{&quot;index&quot;:null}" fill="#f1ad60" stroke="none" stroke-linecap="butt"></path><path d="M247.18135,186.17809c0,0 -0.10149,0.40374 -0.20488,0.42796c-0.12648,0.02963 -0.49876,-0.26312 -0.49876,-0.26312l-0.53538,-1.51454l0.56254,-0.19885l0.67647,1.54856z" data-paper-data="{&quot;index&quot;:null}" fill="#f1ad60" stroke="none" stroke-linecap="butt"></path><path d="M247.37054,184.87629c-0.08104,0.10152 -0.55464,0.10182 -0.55464,0.10182l-1.35759,-0.85873l0.31896,-0.50424l1.48949,0.79817c0,0 0.17003,0.38 0.10379,0.46298z" data-paper-data="{&quot;index&quot;:null}" fill="#f1ad60" stroke="none" stroke-linecap="butt"></path><path d="M245.56964,187.30331c0,0 -0.35497,0.21749 -0.44578,0.16248c-0.1111,-0.06731 -0.17232,-0.53694 -0.17232,-0.53694l0.67698,-1.45676l0.54109,0.25145l-0.59996,1.57978z" data-paper-data="{&quot;index&quot;:null}" fill="#f1ad60" stroke="none" stroke-linecap="butt"></path><path d="M245.07624,186.24407c0,0 -0.41494,-0.03356 -0.45588,-0.13154c-0.05008,-0.11986 0.17731,-0.53531 0.17731,-0.53531l1.40558,-0.77769l0.28886,0.52208l-1.41588,0.92246z" data-paper-data="{&quot;index&quot;:null}" fill="#f1ad60" stroke="none" stroke-linecap="butt"></path><path d="M245.51654,185.49414l-3.3222,-10.31507l-0.28177,-4.04476c0,0 2.10387,3.86528 2.85767,5.94545c0.7638,2.10778 1.69551,6.61948 1.69551,6.61948z" fill="#f1ad60" stroke="none" stroke-linecap="butt"></path><path d="M243.42799,177.64762l-1.70096,-2.86308l0.95141,-1.9265l2.10575,3.98387z" fill="#da5757" stroke="none" stroke-linecap="butt"></path><path d="M239.6254,162.59758c2.37151,0 4.294,1.90452 4.294,4.25387c0,2.34935 -1.92249,4.25387 -4.294,4.25387c-2.37151,0 -4.294,-1.90452 -4.294,-4.25387c0,-2.34935 1.92249,-4.25387 4.294,-4.25387z" fill="#f1ad60" stroke="none" stroke-linecap="butt"></path><path d="M235.2423,187.88004v-17.17601h8.1867v17.17601z" fill="#ff6666" stroke="none" stroke-linecap="butt"></path><path d="M242.43804,165.85919c-0.17731,0 -0.32104,-0.14374 -0.32104,-0.32104c0,-0.17731 0.14374,-0.32104 0.32104,-0.32104c0.17731,0 0.32104,0.14374 0.32104,0.32104c0,0.17731 -0.14374,0.32104 -0.32104,0.32104z" fill="#000000" stroke="none" stroke-linecap="butt"></path><path d="M241.20497,173.11188l-1.28418,-2.32759h2.7289l-1.12367,2.16707z" fill="#ffffff" stroke="none" stroke-linecap="butt"></path><path d="M239.82606,196.22726v-8.58801h2.48812v8.58801z" fill="#66a6ff" stroke="none" stroke-linecap="butt"></path><path d="M235.81297,196.46805v-8.58801h2.48812v8.58801z" fill="#66a6ff" stroke="none" stroke-linecap="butt"></path><path d="M239.82606,197.91276v-2.24733c0,0 0.75891,-1.76575 1.20393,-1.76575c0.38123,0 1.04279,1.2135 1.70859,1.63886c0.71444,0.45642 1.42161,0.1269 1.42161,0.1269v2.24733z" fill="#a06140" stroke="none" stroke-linecap="butt"></path><path d="M234.288,197.8325v-2.24733c0,0 0.70718,0.32953 1.4216,-0.1269c0.66581,-0.42536 1.32736,-1.63886 1.7086,-1.63886c0.44502,0 1.20393,1.76575 1.20393,1.76575v2.24733z" data-paper-data="{&quot;index&quot;:null}" fill="#a06140" stroke="none" stroke-linecap="butt"></path><path d="M233.93676,186.15139c0,0 0.25074,-4.60008 0.69275,-6.79797c0.43622,-2.1691 1.94218,-6.30418 1.94218,-6.30418l0.32258,4.04172l-1.75206,10.69429z" data-paper-data="{&quot;index&quot;:null}" fill="#f1ad60" stroke="none" stroke-linecap="butt"></path><path d="M243.34686,173.82902c0.31621,0 0.57255,0.78326 0.57255,1.74945c0,0.9662 -0.25634,1.74945 -0.57255,1.74945c-0.31621,0 -0.57255,-0.78326 -0.57255,-1.74945c0,-0.9662 0.25634,-1.74945 0.57255,-1.74945z" fill="#da5757" stroke="none" stroke-linecap="butt"></path><path d="M236.38773,172.86126c0.39895,0 0.72236,0.9882 0.72236,2.20719c0,1.21901 -0.32341,2.20719 -0.72236,2.20719c-0.39895,0 -0.72236,-0.9882 -0.72236,-2.20719c0,-1.21901 0.32341,-2.20719 0.72236,-2.20719z" fill="#da5757" stroke="none" stroke-linecap="butt"></path><path d="M239.35993,187.64088l0.35711,-14.42747" fill="none" stroke="#000000" stroke-linecap="round"></path><path d="M243.1725,163.78158c0,0 0.08165,0.00449 -0.04896,0.20119c-0.15776,0.23761 0.03949,0.73361 -0.12632,0.73361c-0.41713,0 -1.8877,-0.51239 -3.1657,-0.56706c-1.97863,-0.08464 -3.90376,0.27493 -3.90376,0.27493l0.05842,-1.57749c0,0 2.8123,-0.75954 4.14819,-0.75954c1.24836,0 3.62237,0.75954 3.62237,0.75954c0,0 -0.52582,1.34895 -0.52582,1.51906c0,0.16039 -0.05843,-0.58426 -0.05843,-0.58426z" fill="#000000" stroke="none" stroke-linecap="butt"></path><path d="M240.8802,163.49806c0.80075,0.18927 1.41681,0.48272 1.37598,0.65543c-0.04083,0.17271 -0.72306,0.15929 -1.52381,-0.02998c-0.80075,-0.18927 -1.41681,-0.48272 -1.37598,-0.65543c0.04083,-0.17271 0.72306,-0.15929 1.52381,0.02998z" fill="#484343" stroke="none" stroke-linecap="butt"></path><path d="M242.00399,189.01313l-0.11685,0.81796" fill="none" stroke="#0035ea" stroke-linecap="round"></path><path d="M240.89391,191.35014l0.11685,1.16851" fill="none" stroke="#0035ea" stroke-linecap="round"></path><path d="M241.71188,193.5703l0.11685,-1.34378" fill="none" stroke="#0035ea" stroke-linecap="round"></path><path d="M237.1547,190.76588v1.57749l-0.05842,0.81795" fill="none" stroke="#0035ea" stroke-linecap="round"></path><path d="M236.62888,188.31202l0.17528,1.75276" fill="none" stroke="#0035ea" stroke-linecap="round"></path><path d="M237.62211,188.83785v1.28536" fill="none" stroke="#0035ea" stroke-linecap="round"></path><path d="M236.27832,193.27817l0.11685,-0.93481" fill="none" stroke="#0035ea" stroke-linecap="round"></path><path d="M240.83549,189.36368l0.05842,-1.11009" fill="none" stroke="#0035ea" stroke-linecap="round"></path><path d="M240.89391,194.79722l0.58426,0.17528" fill="none" stroke="#000000" stroke-linecap="round"></path><path d="M241.01076,195.73204l-0.52583,-0.2337" fill="none" stroke="#000000" stroke-linecap="round"></path><path d="M237.09627,196.02416l0.46741,-0.7011" fill="none" stroke="#000000" stroke-linecap="round"></path><path d="M237.09628,195.2062l-0.64268,0.64268" fill="none" stroke="#000000" stroke-linecap="round"></path><path d="M234.4666,178.92694l1.49019,-4.25262l1.2272,1.76369l-1.2565,3.08411z" data-paper-data="{&quot;index&quot;:null}" fill="#da5757" stroke="none" stroke-linecap="butt"></path><path d="M234.29456,188.87377c-0.10506,-0.01534 -0.24054,-0.40898 -0.24054,-0.40898l0.54231,-1.60049l0.57741,0.15028l-0.40461,1.55459c0,0 -0.34604,0.32336 -0.47457,0.30459z" data-paper-data="{&quot;index&quot;:null}" fill="#f1ad60" stroke="none" stroke-linecap="butt"></path><path d="M233.87921,188.22892c-0.10507,-0.01534 -0.24054,-0.40898 -0.24054,-0.40898l0.54231,-1.60049l0.57741,0.15028l-0.40462,1.55459c0,0 -0.34603,0.32336 -0.47457,0.30459z" data-paper-data="{&quot;index&quot;:null}" fill="#f1ad60" stroke="none" stroke-linecap="butt"></path><path d="M232.69961,187.02241l1.4162,-0.92197l0.36069,0.47529l-1.27963,0.97109c0,0 -0.47191,0.03999 -0.56129,-0.05427c-0.07306,-0.07705 0.06403,-0.47014 0.06403,-0.47014z" data-paper-data="{&quot;index&quot;:null}" fill="#f1ad60" stroke="none" stroke-linecap="butt"></path><path d="M235.87514,188.86885c-0.0858,0.06255 -0.45799,-0.12397 -0.45799,-0.12397l-0.73216,-1.52302l0.51774,-0.29657l0.79843,1.39391c0,0 -0.02105,0.47314 -0.12602,0.54965z" data-paper-data="{&quot;index&quot;:null}" fill="#f1ad60" stroke="none" stroke-linecap="butt"></path><path d="M236.52322,187.77071c-0.03245,0.1011 -0.44303,0.16983 -0.44303,0.16983l-1.48921,-0.79868l0.24341,-0.54475l1.46664,0.65532c0,0 0.2619,0.3946 0.2222,0.51828z" data-paper-data="{&quot;index&quot;:null}" fill="#f1ad60" stroke="none" stroke-linecap="butt"></path><path d="M236.79541,164.16744c0.44727,0 0.80985,0.22071 0.80985,0.49295c0,0.27225 -1.20765,0.91549 -1.65492,0.91549c-0.44727,0 0.03521,-0.64324 0.03521,-0.91549c0,-0.27225 0.36259,-0.49295 0.80985,-0.49295z" fill="#000000" stroke="none" stroke-linecap="butt"></path><path d="M241.62839,168.18186l0.097,0.10393c0.25462,0.49835 1.13453,0.72027 1.57472,0.50016c0,0 0.09448,-0.04724 0.14172,0.04724c0.04724,0.09448 -0.04724,0.14172 -0.04724,0.14172c-0.55199,0.276 -1.54498,-0.00151 -1.85663,-0.59163l-0.05897,-0.05204c0,0 -0.0747,-0.0747 0,-0.14938c0.0747,-0.0747 0.14939,0 0.14939,0z" data-paper-data="{&quot;index&quot;:null}" fill="#000000" stroke="none" stroke-linecap="butt"></path></g></g></svg>