<svg version="1.1" xmlns="http://www.w3.org/2000/svg" xmlns:xlink="http://www.w3.org/1999/xlink" width="21.83332" height="18.80555" viewBox="0,0,21.83332,18.80555"><defs><radialGradient cx="234.19444" cy="170.77778" r="1.16667" gradientUnits="userSpaceOnUse" id="color-1"><stop offset="0" stop-color="#c2c2c2"></stop><stop offset="1" stop-color="#787878"></stop></radialGradient><radialGradient cx="233.05556" cy="170.91667" r="0.97222" gradientUnits="userSpaceOnUse" id="color-2"><stop offset="0" stop-color="#c2c2c2"></stop><stop offset="1" stop-color="#787878"></stop></radialGradient><radialGradient cx="244.52778" cy="171.69444" r="1.38889" gradientUnits="userSpaceOnUse" id="color-3"><stop offset="0" stop-color="#c2c2c2"></stop><stop offset="1" stop-color="#787878"></stop></radialGradient><radialGradient cx="236.30556" cy="171.27778" r="1.27778" gradientUnits="userSpaceOnUse" id="color-4"><stop offset="0" stop-color="#c2c2c2"></stop><stop offset="1" stop-color="#787878"></stop></radialGradient><radialGradient cx="246.91667" cy="172.83333" r="1.44444" gradientUnits="userSpaceOnUse" id="color-5"><stop offset="0" stop-color="#c2c2c2"></stop><stop offset="1" stop-color="#787878"></stop></radialGradient><radialGradient cx="244.25" cy="173.02778" r="1.61111" gradientUnits="userSpaceOnUse" id="color-6"><stop offset="0" stop-color="#c2c2c2"></stop><stop offset="1" stop-color="#787878"></stop></radialGradient><radialGradient cx="241.97222" cy="172.33548" r="1.38888" gradientUnits="userSpaceOnUse" id="color-7"><stop offset="0" stop-color="#c2c2c2"></stop><stop offset="1" stop-color="#787878"></stop></radialGradient><radialGradient cx="239.63889" cy="173.02992" r="1.38889" gradientUnits="userSpaceOnUse" id="color-8"><stop offset="0" stop-color="#c2c2c2"></stop><stop offset="1" stop-color="#787878"></stop></radialGradient><radialGradient cx="237.5" cy="172.61111" r="1.80555" gradientUnits="userSpaceOnUse" id="color-9"><stop offset="0" stop-color="#c2c2c2"></stop><stop offset="1" stop-color="#787878"></stop></radialGradient><radialGradient cx="234.83333" cy="172.83333" r="1.80555" gradientUnits="userSpaceOnUse" id="color-10"><stop offset="0" stop-color="#c2c2c2"></stop><stop offset="1" stop-color="#787878"></stop></radialGradient><radialGradient cx="232.05556" cy="172.55556" r="1.80556" gradientUnits="userSpaceOnUse" id="color-11"><stop offset="0" stop-color="#c2c2c2"></stop><stop offset="1" stop-color="#787878"></stop></radialGradient><linearGradient x1="239.45833" y1="174.58333" x2="239.45833" y2="185.5" gradientUnits="userSpaceOnUse" id="color-12"><stop offset="0" stop-color="#8b8b8b"></stop><stop offset="1" stop-color="#787878"></stop></linearGradient></defs><g transform="translate(-228.625,-169.61111)"><g data-paper-data="{&quot;isPaintingLayer&quot;:true}" fill-rule="nonzero" stroke-linecap="butt" stroke-linejoin="miter" stroke-miterlimit="10" stroke-dasharray="" stroke-dashoffset="0" style="mix-blend-mode: normal"><text transform="translate(231.01327,174.48819) scale(0.09219,0.09219)" font-size="40" xml:space="preserve" fill="#9966ff" fill-rule="nonzero" stroke="none" stroke-width="1" stroke-linecap="butt" stroke-linejoin="miter" stroke-miterlimit="10" stroke-dasharray="" stroke-dashoffset="0" font-family="Sans Serif" font-weight="normal" text-anchor="start" style="mix-blend-mode: normal"><tspan x="0" dy="0">xamt8</tspan></text><path d="M235.30556,170.77778c0,0.64433 -0.49746,1.16667 -1.11111,1.16667c-0.61365,0 -1.11111,-0.52233 -1.11111,-1.16667c0,-0.64433 0.49746,-1.16667 1.11111,-1.16667c0.61365,0 1.11111,0.52233 1.11111,1.16667z" fill="url(#color-1)" stroke="none" stroke-width="0"></path><path d="M233.75,170.91667c0,0.53694 -0.31091,0.97222 -0.69444,0.97222c-0.38353,0 -0.69444,-0.43528 -0.69444,-0.97222c0,-0.53694 0.31091,-0.97222 0.69444,-0.97222c0.38353,0 0.69444,0.43528 0.69444,0.97222z" fill="url(#color-2)" stroke="none" stroke-width="0"></path><path d="M245.91667,171.69444c0,0.62899 -0.62183,1.13889 -1.38889,1.13889c-0.76706,0 -1.38889,-0.5099 -1.38889,-1.13889c0,-0.62899 0.62183,-1.13889 1.38889,-1.13889c0.76706,0 1.38889,0.5099 1.38889,1.13889z" fill="url(#color-3)" stroke="none" stroke-width="0"></path><path d="M237.58333,171.27778c0,0.64433 -0.57208,1.16667 -1.27778,1.16667c-0.7057,0 -1.27778,-0.52233 -1.27778,-1.16667c0,-0.64433 0.57208,-1.16667 1.27778,-1.16667c0.7057,0 1.27778,0.52233 1.27778,1.16667z" fill="url(#color-4)" stroke="none" stroke-width="0"></path><path d="M248.36111,172.83333c0,0.79774 -0.6467,1.44444 -1.44444,1.44444c-0.79774,0 -1.44444,-0.6467 -1.44444,-1.44444c0,-0.79774 0.6467,-1.44444 1.44444,-1.44444c0.79774,0 1.44444,0.6467 1.44444,1.44444z" fill="url(#color-5)" stroke="none" stroke-width="0"></path><path d="M245.86111,173.02778c0,0.50626 -0.72132,0.91667 -1.61111,0.91667c-0.88979,0 -1.61111,-0.41041 -1.61111,-0.91667c0,-0.50626 0.72132,-0.91667 1.61111,-0.91667c0.88979,0 1.61111,0.41041 1.61111,0.91667z" fill="url(#color-6)" stroke="none" stroke-width="0"></path><path d="M243.21423,172.95711c-0.43998,0.87906 -1.35271,1.31337 -2.03865,0.97005c-0.68594,-0.34332 -0.88534,-1.33425 -0.44536,-2.21331c0.43998,-0.87906 1.35272,-1.31336 2.03866,-0.97005c0.68594,0.34332 0.88533,1.33425 0.44536,2.21331z" fill="url(#color-7)" stroke="none" stroke-width="0"></path><path d="M241.02778,173.02992c0,0.66085 -0.62183,1.19658 -1.38889,1.19658c-0.76706,0 -1.38889,-0.53573 -1.38889,-1.19658c0,-0.66085 0.62183,-1.19658 1.38889,-1.19658c0.76706,0 1.38889,0.53573 1.38889,1.19658z" fill="url(#color-8)" stroke="none" stroke-width="0"></path><path d="M239.30556,172.61111c0,0.85911 -0.80838,1.55555 -1.80555,1.55555c-0.99718,0 -1.80555,-0.69645 -1.80555,-1.55555c0,-0.85911 0.80838,-1.55555 1.80555,-1.55555c0.99718,0 1.80555,0.69645 1.80555,1.55555z" fill="url(#color-9)" stroke="none" stroke-width="0"></path><path d="M236.63889,172.83333c0,0.85911 -0.80838,1.55555 -1.80555,1.55555c-0.99718,0 -1.80555,-0.69645 -1.80555,-1.55555c0,-0.85911 0.80838,-1.55555 1.80555,-1.55555c0.99718,0 1.80555,0.69645 1.80555,1.55555z" fill="url(#color-10)" stroke="none" stroke-width="0"></path><path d="M233.86111,172.55556c0,0.85911 -0.80837,1.55556 -1.80556,1.55556c-0.99718,0 -1.80556,-0.69645 -1.80556,-1.55556c0,-0.85911 0.80837,-1.55556 1.80556,-1.55556c0.99718,0 1.80556,0.69645 1.80556,1.55556z" fill="url(#color-11)" stroke="none" stroke-width="0"></path><path d="M249.625,187.16667v-2.58333h0.66667v2.58333z" fill="#4d4d4d" stroke="none" stroke-width="0"></path><path d="M230.54167,187.25v-1h19.58333v1z" fill="#363636" stroke="none" stroke-width="0"></path><path d="M230.98857,186.33333c0,0 -2.19254,-2.68493 -2.19254,-4c0,-2.03074 0.32896,-7.41667 0.32896,-7.41667l20.71942,0.08334c0,0 0.61391,6.51628 0.61391,8.5c0,1.05259 -1.14012,2.83334 -1.14012,2.83334z" fill="#6a6a6a" stroke="none" stroke-width="0"></path><path d="M231.29167,185.5c0,0 -2.08333,-2.68494 -2.08333,-4c0,-2.03075 -0.08333,-6.75 -0.08333,-6.75l20.5,-0.16667c0,0 0.16667,6.09962 0.16667,8.08333c0,1.05259 -1.08333,2.83333 -1.08333,2.83333z" fill="url(#color-12)" stroke="none" stroke-width="0"></path><path d="M231.70833,186.45833c0,-0.98951 0.80216,-1.79167 1.79167,-1.79167c0.98951,0 1.79167,0.80216 1.79167,1.79167c0,0.98951 -0.80216,1.79167 -1.79167,1.79167c-0.98951,0 -1.79167,-0.80216 -1.79167,-1.79167z" fill="#000000" stroke="none" stroke-width="0"></path><path d="M245.70834,186.625c0,-0.98951 0.80215,-1.79167 1.79166,-1.79167c0.98951,0 1.79166,0.80216 1.79166,1.79167c0,0.98951 -0.80215,1.79166 -1.79166,1.79166c-0.98951,0 -1.79166,-0.80215 -1.79166,-1.79166z" fill="#000000" stroke="none" stroke-width="0"></path><path d="M232.875,186.29167c0,-0.29915 0.24251,-0.54167 0.54167,-0.54167c0.29915,0 0.54167,0.24251 0.54167,0.54167c0,0.29915 -0.24251,0.54167 -0.54167,0.54167c-0.29915,0 -0.54167,-0.24251 -0.54167,-0.54167z" fill="#4d4d4d" stroke="none" stroke-width="0"></path><path d="M246.79167,186.875c0,-0.29915 0.24251,-0.54167 0.54167,-0.54167c0.29915,0 0.54167,0.24251 0.54167,0.54167c0,0.29915 -0.24251,0.54167 -0.54167,0.54167c-0.29915,0 -0.54167,-0.24251 -0.54167,-0.54167z" fill="#4d4d4d" stroke="none" stroke-width="0"></path><path d="M228.625,175.66667v-2.16667h21.66667v2.16667z" fill="#4d4d4d" stroke="none" stroke-width="0"></path><path d="M248.66153,174.66131l-0.93636,-2.22789l1.6133,-0.67805l0.93636,2.22789z" fill="#4d4d4d" stroke="none" stroke-width="0"></path><path d="M231.1915,172.35008l-0.93636,2.2279l-1.6133,-0.67806l0.93636,-2.22789z" data-paper-data="{&quot;index&quot;:null}" fill="#4d4d4d" stroke="none" stroke-width="0"></path><path d="M231.02778,174.5c0,0.24546 -0.18655,0.44444 -0.41667,0.44444c-0.23012,0 -0.41667,-0.19898 -0.41667,-0.44444c0,-0.24546 0.18655,-0.44444 0.41667,-0.44444c0.23012,0 0.41667,0.19898 0.41667,0.44444z" fill="#c2c2c2" stroke="#000000" stroke-width="0"></path><path d="M235.25,174.5c0,0.24546 -0.18655,0.44445 -0.41667,0.44445c-0.23012,0 -0.41666,-0.19898 -0.41666,-0.44445c0,-0.24546 0.18654,-0.44445 0.41666,-0.44445c0.23012,0 0.41667,0.19898 0.41667,0.44445z" fill="#c2c2c2" stroke="#000000" stroke-width="0"></path><path d="M240.19444,174.55556c0,0.24546 -0.18655,0.44445 -0.41667,0.44445c-0.23012,0 -0.41666,-0.19898 -0.41666,-0.44445c0,-0.24546 0.18654,-0.44445 0.41666,-0.44445c0.23012,0 0.41667,0.19898 0.41667,0.44445z" fill="#c2c2c2" stroke="#000000" stroke-width="0"></path><path d="M245.41667,174.72222c0,0.24546 -0.18655,0.44445 -0.41667,0.44445c-0.23012,0 -0.41666,-0.19898 -0.41666,-0.44445c0,-0.24546 0.18654,-0.44445 0.41666,-0.44445c0.23012,0 0.41667,0.19898 0.41667,0.44445z" fill="#c2c2c2" stroke="#000000" stroke-width="0"></path><path d="M249.52778,174.55555c0,0.24546 -0.18655,0.44445 -0.41667,0.44445c-0.23012,0 -0.41667,-0.19898 -0.41667,-0.44445c0,-0.24546 0.18655,-0.44445 0.41667,-0.44445c0.23012,0 0.41667,0.19898 0.41667,0.44445z" fill="#c2c2c2" stroke="#000000" stroke-width="0"></path></g></g></svg>