<svg version="1.1" xmlns="http://www.w3.org/2000/svg" xmlns:xlink="http://www.w3.org/1999/xlink" width="163.125" height="69" viewBox="0,0,163.125,69"><g transform="translate(-158.5,-145.5)"><g data-paper-data="{&quot;isPaintingLayer&quot;:true}" fill-rule="nonzero" stroke-linejoin="miter" stroke-miterlimit="10" stroke-dasharray="" stroke-dashoffset="0" style="mix-blend-mode: normal"><text transform="translate(221.75,182.1875) scale(0.29957,0.29957)" font-size="40" xml:space="preserve" fill="#ffffff" fill-rule="nonzero" stroke="none" stroke-width="1" stroke-linecap="butt" stroke-linejoin="miter" stroke-miterlimit="10" stroke-dasharray="" stroke-dashoffset="0" font-family="Sans Serif" font-weight="normal" text-anchor="start" style="mix-blend-mode: normal"><tspan x="0" dy="0">xAmt8</tspan></text><path d="M160.5,212.5v-65h159v65z" fill="#1f85b1" stroke="#ffffff" stroke-width="4" stroke-linecap="butt"></path><path d="M163.125,180.625l156.5,-1" fill="none" stroke="#ffffff" stroke-width="4" stroke-linecap="round"></path><path d="M239.375,150.375l1,28.25" fill="none" stroke="#ffffff" stroke-width="4" stroke-linecap="round"></path><path d="M170.5,155.375l4.25,4" fill="none" stroke="#00a9ff" stroke-width="1" stroke-linecap="round"></path><path d="M199.25,154.125l2.75,3.75" fill="none" stroke="#00a9ff" stroke-width="1" stroke-linecap="round"></path><path d="M183.75,171.875l1,1.75" fill="none" stroke="#00a9ff" stroke-width="1" stroke-linecap="round"></path><path d="M180,191.125l0.75,3" fill="none" stroke="#00a9ff" stroke-width="1" stroke-linecap="round"></path><path d="M173.5,201.875l1.5,2.75" fill="none" stroke="#00a9ff" stroke-width="1" stroke-linecap="round"></path><path d="M203.5,199.125l3.25,3" fill="none" stroke="#00a9ff" stroke-width="1" stroke-linecap="round"></path><path d="M216.5,188.875l4,4.25" fill="none" stroke="#00a9ff" stroke-width="1" stroke-linecap="round"></path><path d="M222.25,162.125l2.25,3" fill="none" stroke="#00a9ff" stroke-width="1" stroke-linecap="round"></path><path d="M234.5,154.625v2" fill="none" stroke="#00a9ff" stroke-width="1" stroke-linecap="round"></path><path d="M237.5,188.625l1.75,2.5" fill="none" stroke="#00a9ff" stroke-width="1" stroke-linecap="round"></path><path d="M245.5,203.875l1,1.5" fill="none" stroke="#00a9ff" stroke-width="1" stroke-linecap="round"></path><path d="M260.75,197.625l9.25,5.25" fill="none" stroke="#00a9ff" stroke-width="1" stroke-linecap="round"></path><path d="M284.25,191.625l4,2.75" fill="none" stroke="#00a9ff" stroke-width="1" stroke-linecap="round"></path><path d="M301.5,203.625l3.75,3" fill="none" stroke="#00a9ff" stroke-width="1" stroke-linecap="round"></path><path d="M258.25,157.875l3,2.75" fill="none" stroke="#00a9ff" stroke-width="1" stroke-linecap="round"></path><path d="M282.25,156.875l3,2.5" fill="none" stroke="#00a9ff" stroke-width="1" stroke-linecap="round"></path><path d="M299.75,167.125l3.5,2.75" fill="none" stroke="#00a9ff" stroke-width="1" stroke-linecap="round"></path></g></g></svg>