<svg version="1.1" xmlns="http://www.w3.org/2000/svg" xmlns:xlink="http://www.w3.org/1999/xlink" width="54.97785" height="56.5031" viewBox="0,0,54.97785,56.5031"><defs><linearGradient x1="223.4978" y1="187.33594" x2="242.96329" y2="187.33594" gradientUnits="userSpaceOnUse" id="color-1"><stop offset="0" stop-color="#4066a0"></stop><stop offset="1" stop-color="#1c2c44"></stop></linearGradient><linearGradient x1="234.90477" y1="161.09992" x2="254.37025" y2="161.09992" gradientUnits="userSpaceOnUse" id="color-2"><stop offset="0" stop-color="#4066a0"></stop><stop offset="1" stop-color="#1c2c44"></stop></linearGradient><radialGradient cx="244.82763" cy="163.00107" r="12.9279" gradientUnits="userSpaceOnUse" id="color-3"><stop offset="0" stop-color="#4066a0"></stop><stop offset="1" stop-color="#1c2c44"></stop></radialGradient><radialGradient cx="245.20786" cy="162.06706" r="9.13843" gradientUnits="userSpaceOnUse" id="color-4"><stop offset="0" stop-color="#fff9d8"></stop><stop offset="1" stop-color="#e8dc8e"></stop></radialGradient></defs><g transform="translate(-209.86822,-148.23634)"><g data-paper-data="{&quot;isPaintingLayer&quot;:true}" fill-rule="nonzero" stroke-linecap="butt" stroke-linejoin="miter" stroke-miterlimit="10" stroke-dasharray="" stroke-dashoffset="0" style="mix-blend-mode: normal"><path d="M216.15397,196.45829c0,-9.86526 0,-26.89275 0,-32.51997c0,-3.55647 1.50337,-7.67776 3.17295,-7.67776c5.13777,0 31.88059,0 41.26234,0c2.03805,0 3.25682,2.85812 3.25682,7.08287c0,9.95502 0,27.49809 0,33.11485c0,3.40496 -1.25235,7.28116 -3.34069,7.28116c-9.43383,0 -35.92722,0 -41.09461,0c-1.70864,0 -3.25682,-2.95049 -3.25682,-7.28116z" fill-opacity="0.62097" fill="#291800" stroke="#d6cdad" stroke-width="2"></path><g><text transform="translate(229.85325,199.62537) rotate(-69.41023) scale(0.13423,0.13423)" font-size="40" xml:space="preserve" fill="#ffffff" fill-rule="nonzero" stroke="none" stroke-width="1" stroke-linecap="butt" stroke-linejoin="miter" stroke-miterlimit="10" stroke-dasharray="" stroke-dashoffset="0" font-family="Sans Serif" font-weight="normal" text-anchor="start" style="mix-blend-mode: normal"><tspan x="0" dy="0">xAmt8</tspan></text><g><path d="M223.4978,197.39016l11.84734,-26.90821l7.61814,6.79978l-10.89305,26.90821z" fill="url(#color-1)" stroke="none" stroke-width="NaN"></path><path d="M234.90477,171.15413l-1.84102,-10.93846l20.16581,9.08117l-9.75235,8.65707z" fill="url(#color-2)" stroke="none" stroke-width="NaN"></path><path d="M256.31041,168.94045c-1.15773,2.23827 -7.23727,1.3936 -13.57904,-1.88662c-6.34177,-3.28022 -10.54426,-7.75385 -9.38654,-9.99212c1.15773,-2.23827 7.23727,-1.3936 13.57904,1.88662c6.34177,3.28022 10.54426,7.75385 9.38654,9.99212z" fill="url(#color-3)" stroke="#000000" stroke-width="2.5"></path><path d="M253.32478,166.26548c-0.81837,1.58218 -5.11586,0.9851 -9.59871,-1.33361c-4.48285,-2.31872 -7.4535,-5.48102 -6.63513,-7.0632c0.81837,-1.58218 5.11586,-0.9851 9.59871,1.33361c4.48285,2.31872 7.4535,5.48102 6.63513,7.0632z" fill="url(#color-4)" stroke="#000000" stroke-width="2.5"></path><path d="M231.54308,203.36139c-1.12925,1.09788 -3.58736,0.40113 -5.49036,-1.55623c-1.90299,-1.95736 -2.53024,-4.43413 -1.40099,-5.53201c1.12925,-1.09788 3.58736,-0.40113 5.49036,1.55623c1.90299,1.95736 2.53024,4.43413 1.40099,5.53201z" fill="#395b8e" stroke="none" stroke-width="NaN"></path></g></g><g><path d="M212.36824,162.03501c0,-2.30933 0,-6.29523 0,-7.61249c0,-0.83253 0.35192,-1.79726 0.74274,-1.79726c1.20269,0 7.46283,0 9.65897,0c0.47708,0 0.76238,0.66905 0.76238,1.65801c0,2.33034 0,6.43694 0,7.75175c0,0.79706 -0.29315,1.70443 -0.78201,1.70443c-2.20834,0 -8.41009,0 -9.61971,0c-0.39997,0 -0.76238,-0.69067 -0.76238,-1.70443z" fill-opacity="0.47425" fill="#000000" stroke="#fff4ce" stroke-width="0"></path><path d="M210.36824,159.89216c0,-2.30933 0,-6.29523 0,-7.61249c0,-0.83253 0.35192,-1.79726 0.74274,-1.79726c1.20269,0 7.46283,0 9.65897,0c0.47708,0 0.76238,0.66904 0.76238,1.658c0,2.33034 0,6.43695 0,7.75176c0,0.79706 -0.29315,1.70443 -0.78201,1.70443c-2.20834,0 -8.41009,0 -9.61971,0c-0.39997,0 -0.76238,-0.69067 -0.76238,-1.70443z" fill-opacity="0.88705" fill="#291800" stroke="#fff4ce" stroke-width="1"></path><text transform="translate(213.35852,159.88738) scale(0.26784,0.26784)" font-size="40" xml:space="preserve" fill="#fff4ce" fill-rule="nonzero" stroke="none" stroke-width="1" stroke-linecap="butt" stroke-linejoin="miter" stroke-miterlimit="10" stroke-dasharray="" stroke-dashoffset="0" font-family="Sans Serif" font-weight="normal" text-anchor="start" style="mix-blend-mode: normal"><tspan x="0" dy="0">3</tspan></text></g></g></g></svg>