<svg version="1.1" xmlns="http://www.w3.org/2000/svg" xmlns:xlink="http://www.w3.org/1999/xlink" width="76.27442" height="57.75247" viewBox="0,0,76.27442,57.75247"><defs><radialGradient cx="240" cy="180.00001" r="3.58471" gradientUnits="userSpaceOnUse" id="color-1"><stop offset="0" stop-color="#ac0000" stop-opacity="0"></stop><stop offset="1" stop-color="#ac0000"></stop></radialGradient></defs><g transform="translate(-201.86279,-151.12376)"><g data-paper-data="{&quot;isPaintingLayer&quot;:true}" fill-rule="nonzero" stroke="none" stroke-linecap="butt" stroke-linejoin="miter" stroke-miterlimit="10" stroke-dasharray="" stroke-dashoffset="0" style="mix-blend-mode: normal"><path d="M201.86279,208.87624v-57.75247h76.27442v57.75247zM239.92857,182.42859c1.65685,0 3,-1.34315 3,-3c0,-1.65685 -1.34315,-3 -3,-3c-1.65685,0 -3,1.34315 -3,3c0,1.65685 1.34315,3 3,3z" fill="#ac0000" stroke-width="NaN"></path><path d="M243.48731,180.00001c0,1.97979 -1.56131,3.58471 -3.48731,3.58471c-1.92598,0 -3.48731,-1.60494 -3.48731,-3.58471c0,-1.97979 1.56131,-3.58471 3.48731,-3.58471c1.92598,0 3.48731,1.60494 3.48731,3.58471z" fill="url(#color-1)" stroke-width="0"></path></g></g></svg>