<svg version="1.1" xmlns="http://www.w3.org/2000/svg" xmlns:xlink="http://www.w3.org/1999/xlink" width="38.08678" height="66.44133" viewBox="0,0,38.08678,66.44133"><defs><linearGradient x1="227.2013" y1="158.7518" x2="237.23843" y2="178.7843" gradientUnits="userSpaceOnUse" id="color-1"><stop offset="0" stop-color="#dec126"></stop><stop offset="1" stop-color="#ffc52b"></stop></linearGradient><linearGradient x1="231.24198" y1="168.64016" x2="256.06963" y2="219.84841" gradientUnits="userSpaceOnUse" id="color-2"><stop offset="0" stop-color="#000000" stop-opacity="0"></stop><stop offset="1" stop-color="#000000" stop-opacity="0"></stop></linearGradient><linearGradient x1="252.13559" y1="217.80581" x2="245.77288" y2="220.9938" gradientUnits="userSpaceOnUse" id="color-3"><stop offset="0" stop-color="#fdc52a"></stop><stop offset="1" stop-color="#fce49b"></stop></linearGradient><linearGradient x1="247.82986" y1="209.72962" x2="241.46715" y2="212.9176" gradientUnits="userSpaceOnUse" id="color-4"><stop offset="0" stop-color="#fdc52a"></stop><stop offset="1" stop-color="#fce49b"></stop></linearGradient></defs><g transform="translate(-220.58578,-157.2518)"><g data-paper-data="{&quot;isPaintingLayer&quot;:true}" fill-rule="nonzero" stroke-linecap="butt" stroke-linejoin="miter" stroke-miterlimit="10" stroke-dasharray="" stroke-dashoffset="0" style="mix-blend-mode: normal"><path d="M237.23843,178.7843c-5.5969,2.80429 -12.38098,0.59318 -15.15265,-4.93864c-2.77168,-5.53182 -0.48138,-12.28957 5.11552,-15.09386c5.5969,-2.80429 12.38098,-0.59318 15.15265,4.93864c2.77168,5.53182 0.48138,12.28957 -5.11552,15.09386z" fill="none" stroke="url(#color-1)" stroke-width="3"></path><path d="M258.67256,218.50065c0,0 -0.14089,4.68455 -1.00853,5.1338c-0.86764,0.44926 -4.19732,-2.43826 -4.19732,-2.43826l-19.4159,-40.04625c1.76877,-0.98221 3.34327,-2.28966 4.64859,-3.84492z" fill="#fdc52a" stroke="url(#color-2)" stroke-width="0"></path><path d="M244.4204,218.29447l6.36271,-3.18799l2.70496,5.39866l-6.36271,3.18799z" fill="url(#color-3)" stroke="none" stroke-width="0"></path><path d="M240.11467,210.21827l6.3627,-3.18799l2.70496,5.39866l-6.3627,3.18799z" fill="url(#color-4)" stroke="none" stroke-width="0"></path><path d="M246.43585,206.43006l4.72383,-2.36684l2.94647,5.88068l-4.72383,2.36684z" fill="#fce299" stroke="none" stroke-width="0"></path><path d="M250.5905,215.4442l5.10945,-2.56005l2.56005,5.10945l-5.10945,2.56005z" fill="#fce299" stroke="none" stroke-width="0"></path></g></g></svg>