<svg version="1.1" xmlns="http://www.w3.org/2000/svg" xmlns:xlink="http://www.w3.org/1999/xlink" width="40.10081" height="63.65407" viewBox="0,0,40.10081,63.65407"><defs><radialGradient cx="195.39583" cy="184.1912" r="3.20432" gradientUnits="userSpaceOnUse" id="color-1"><stop offset="0" stop-color="#fcd688"></stop><stop offset="1" stop-color="#fcd688" stop-opacity="0"></stop></radialGradient><linearGradient x1="189.67121" y1="208.27452" x2="189.17024" y2="209.81743" gradientUnits="userSpaceOnUse" id="color-2"><stop offset="0" stop-color="#321f21"></stop><stop offset="1" stop-color="#472a26"></stop></linearGradient><linearGradient x1="191.08621" y1="192.73373" x2="191.08621" y2="210.84872" gradientUnits="userSpaceOnUse" id="color-3"><stop offset="0" stop-color="#b6684e"></stop><stop offset="1" stop-color="#472a26"></stop></linearGradient><linearGradient x1="197.97754" y1="193.75652" x2="197.97754" y2="210.82587" gradientUnits="userSpaceOnUse" id="color-4"><stop offset="0" stop-color="#532e2c"></stop><stop offset="1" stop-color="#341f21"></stop></linearGradient><linearGradient x1="187.22041" y1="192.18646" x2="202.84829" y2="192.18646" gradientUnits="userSpaceOnUse" id="color-5"><stop offset="0" stop-color="#b6684e"></stop><stop offset="1" stop-color="#5f3730"></stop></linearGradient><radialGradient cx="191.70713" cy="176.404" r="6.9394" gradientUnits="userSpaceOnUse" id="color-6"><stop offset="0" stop-color="#ffd9aa"></stop><stop offset="1" stop-color="#a4593e"></stop></radialGradient><radialGradient cx="187.11444" cy="176.20351" r="6.43593" gradientUnits="userSpaceOnUse" id="color-7"><stop offset="0" stop-color="#ffc297"></stop><stop offset="1" stop-color="#a15a42"></stop></radialGradient><linearGradient x1="181.09332" y1="172.96948" x2="190.23196" y2="173.67497" gradientUnits="userSpaceOnUse" id="color-8"><stop offset="0" stop-color="#a35e47"></stop><stop offset="1" stop-color="#c29285"></stop></linearGradient><linearGradient x1="187.34928" y1="175.79734" x2="187.52146" y2="175.07233" gradientUnits="userSpaceOnUse" id="color-9"><stop offset="0" stop-color="#fef4d2" stop-opacity="0"></stop><stop offset="1" stop-color="#fef4d2"></stop></linearGradient><linearGradient x1="187.92535" y1="175.54243" x2="187.35077" y2="175.4981" gradientUnits="userSpaceOnUse" id="color-10"><stop offset="0" stop-color="#ecd5b5"></stop><stop offset="1" stop-color="#ecd5b5" stop-opacity="0"></stop></linearGradient><radialGradient cx="193.66947" cy="186.63789" r="0.50673" gradientUnits="userSpaceOnUse" id="color-11"><stop offset="0" stop-color="#55170f"></stop><stop offset="1" stop-color="#faccb4"></stop></radialGradient><radialGradient cx="194.71273" cy="188.1531" r="0.50673" gradientUnits="userSpaceOnUse" id="color-12"><stop offset="0" stop-color="#55170f"></stop><stop offset="1" stop-color="#faccb4"></stop></radialGradient><radialGradient cx="195.8057" cy="189.51928" r="0.50673" gradientUnits="userSpaceOnUse" id="color-13"><stop offset="0" stop-color="#55170f"></stop><stop offset="1" stop-color="#faccb4"></stop></radialGradient><radialGradient cx="196.17828" cy="186.96081" r="0.50673" gradientUnits="userSpaceOnUse" id="color-14"><stop offset="0" stop-color="#55170f"></stop><stop offset="1" stop-color="#faccb4"></stop></radialGradient><radialGradient cx="193.4459" cy="189.2709" r="0.50673" gradientUnits="userSpaceOnUse" id="color-15"><stop offset="0" stop-color="#55170f"></stop><stop offset="1" stop-color="#faccb4"></stop></radialGradient><linearGradient x1="197.5966" y1="186.66936" x2="197.5966" y2="192.63084" gradientUnits="userSpaceOnUse" id="color-16"><stop offset="0" stop-color="#794237"></stop><stop offset="1" stop-color="#d27e67"></stop></linearGradient><linearGradient x1="186.78892" y1="194.6983" x2="201.91619" y2="194.6983" gradientUnits="userSpaceOnUse" id="color-17"><stop offset="0" stop-color="#f4a681"></stop><stop offset="1" stop-color="#5a3630"></stop></linearGradient><radialGradient cx="189.69516" cy="204.01317" r="2.86418" gradientUnits="userSpaceOnUse" id="color-18"><stop offset="0" stop-color="#c88469"></stop><stop offset="1" stop-color="#5a332a"></stop></radialGradient></defs><g transform="translate(-172.14052,-153.37298)"><g data-paper-data="{&quot;isPaintingLayer&quot;:true}" fill-rule="nonzero" stroke-linejoin="miter" stroke-miterlimit="10" stroke-dasharray="" stroke-dashoffset="0" style="mix-blend-mode: normal"><path d="M172.64052,206.91867c0,-13.01839 0,-35.4882 0,-42.91399c0,-4.69319 1.23255,-10.1317 2.60137,-10.1317c4.21224,0 26.13758,0 33.8293,0c1.67093,0 2.67013,3.77164 2.67013,9.34669c0,13.13684 0,36.28702 0,43.69901c0,4.49325 -1.02676,9.60837 -2.73889,9.60837c-7.73441,0 -29.45524,0 -33.69178,0c-1.40084,0 -2.67013,-3.89352 -2.67013,-9.60837z" fill="#3d3d3c" stroke="#fff4ce" stroke-width="1" stroke-linecap="butt"></path><text transform="translate(181.23188,168.86479) scale(0.19068,0.19068)" font-size="40" xml:space="preserve" fill="#fff4ce" fill-rule="nonzero" stroke="none" stroke-width="1" stroke-linecap="butt" stroke-linejoin="miter" stroke-miterlimit="10" stroke-dasharray="" stroke-dashoffset="0" font-family="Impact" font-weight="normal" text-anchor="start" style="mix-blend-mode: normal"><tspan x="0" dy="0">Lighter</tspan></text><text transform="translate(177.65441,161.53098) scale(0.19068,0.19068)" font-size="40" xml:space="preserve" fill="#fff4ce" fill-rule="nonzero" stroke="none" stroke-width="1" stroke-linecap="butt" stroke-linejoin="miter" stroke-miterlimit="10" stroke-dasharray="" stroke-dashoffset="0" font-family="Impact" font-weight="normal" text-anchor="start" style="mix-blend-mode: normal"><tspan x="0" dy="0">Standard</tspan></text><g><text transform="translate(189.74732,189.6087) scale(0.07541,0.07541)" font-size="40" xml:space="preserve" fill="#66ddff" fill-rule="nonzero" stroke="none" stroke-width="0.25" stroke-linecap="butt" stroke-linejoin="miter" stroke-miterlimit="10" stroke-dasharray="" stroke-dashoffset="0" font-family="Sans Serif" font-weight="normal" text-anchor="start" style="mix-blend-mode: normal"><tspan x="0" dy="0">xAmt8</tspan></text><path d="M197.81768,184.1912c0,1.76968 -1.0843,3.20432 -2.42187,3.20432c-1.33757,0 -2.42187,-1.4346 -2.42187,-3.20432c0,-1.76968 1.0843,-3.20432 2.42187,-3.20432c1.33757,0 2.42187,1.4346 2.42187,3.20432z" fill="url(#color-1)" stroke="none" stroke-width="0.125" stroke-linecap="butt"></path><path d="M183.0851,205.61629l1.57407,0.21643l10.02402,4.88361c0,0 2.09859,-0.52716 2.07931,-0.23422c-0.01012,0.15418 3.53613,-0.57276 3.07837,-0.2479c-0.20313,0.14414 -5.26328,2.08749 -5.26328,2.08749c0,0 -9.19613,-4.55118 -10.93384,-5.56512c-0.58782,-0.34295 -0.55868,-1.14029 -0.55868,-1.14029z" fill="url(#color-2)" stroke="none" stroke-width="0.125" stroke-linecap="butt"></path><path d="M183.06969,204.58993l4.14328,-11.96917l11.66527,1.45789c0,0 0.39887,1.52618 0.13326,2.49556c-0.72447,2.64396 -4.72838,14.2745 -4.72838,14.2745c0,0 -9.31301,-3.77291 -10.74585,-4.57261c-0.36787,-0.20533 -0.46759,-1.68611 -0.46759,-1.68611z" fill="url(#color-3)" stroke="none" stroke-width="0.125" stroke-linecap="butt"></path><path d="M200.15626,207.73297l0.61459,-13.99367l1.86217,-0.03614c0,0 -0.4627,7.90655 -0.5751,10.46577c-0.06458,1.46996 -0.15246,3.64087 -0.15246,3.64087c0,0 -1.47074,1.67647 -2.21966,2.40852c-0.21084,0.20608 -0.36448,0.33732 -0.41199,0.33525c-0.32288,-0.01418 0.88248,-2.82055 0.88248,-2.82055z" fill="#321f21" stroke="none" stroke-width="0.125" stroke-linecap="butt"></path><path d="M194.26605,210.78937l4.29609,-17.03285l3.12688,0.56149l-1.52855,13.36161c0,0 0.07497,1.98095 -0.7132,2.66276c-0.05551,0.04803 -0.11535,0.08963 -0.17979,0.12362c-0.98585,0.52011 -5.00142,0.32332 -5.00142,0.32332z" fill="url(#color-4)" stroke="none" stroke-width="0.125" stroke-linecap="butt"></path><path d="M187.22041,192.56348l0.36162,-3.19899l12.22875,1.20853l2.76654,2.25364l0.27102,0.85197c0,0 -1.09671,0.30139 -1.12009,0.39468c-0.07726,0.30835 0.30228,0.93513 0.30228,0.93513l-3.59803,-0.78457l-10.22913,-0.48251z" fill="url(#color-5)" stroke="#000000" stroke-width="0.125" stroke-linecap="butt"></path><path d="M187.15729,190.89731l-1.28021,-2.70591l5.41178,-2.56041l1.28021,2.70591z" fill="#572f2a" stroke="#000000" stroke-width="0.125" stroke-linecap="butt"></path><path d="M198.28184,188.96377c0,-1.23213 0.99884,-2.23097 2.23097,-2.23097c0.52434,0 1.00641,0.18089 1.38727,0.48366c0.51413,0.40868 0.84369,1.03952 0.84369,1.74731c0,1.23213 -0.99884,2.23097 -2.23097,2.23097c-1.23213,0 -2.23097,-0.99884 -2.23097,-2.23097z" fill="#b06b59" stroke="none" stroke-width="0.125" stroke-linecap="butt"></path><path d="M197.97754,188.77244c0,-1.23213 0.99884,-2.23097 2.23097,-2.23097c1.23213,0 2.23097,0.99884 2.23097,2.23097c0,1.23213 -0.99884,2.23097 -2.23097,2.23097c-1.23213,0 -2.23097,-0.99884 -2.23097,-2.23097z" fill="#ecac8b" stroke="none" stroke-width="0.125" stroke-linecap="butt"></path><text transform="translate(188.85617,177.16053) rotate(-79.71892) scale(0.03761,0.03761)" font-size="40" xml:space="preserve" fill="#41251e" fill-rule="nonzero" stroke="none" stroke-width="0.25" stroke-linecap="butt" stroke-linejoin="miter" stroke-miterlimit="10" stroke-dasharray="" stroke-dashoffset="0" font-family="Sans Serif" font-weight="normal" text-anchor="start" style="mix-blend-mode: normal"><tspan x="0" dy="0">xAmt8</tspan></text><path d="M194.36031,187.07008l-0.05036,-0.80583c0,0 1.25101,-0.21955 2.06922,-0.27071c0.52922,-0.03306 2.36286,-0.0063 2.36286,-0.0063l0.05036,0.80583z" fill="#ffffff" stroke="none" stroke-width="0.125" stroke-linecap="butt"></path><path d="M186.32517,188.65494l1.39872,-13.41513l4.44702,0.46368l-0.87711,13.41513z" fill="url(#color-6)" stroke="none" stroke-width="0.125" stroke-linecap="butt"></path><path d="M187.90954,175.87623l0.14682,-1.90202l1.45485,-1.89533l2.31184,1.34483l0.51773,2.63952c0,0 -1.52723,0.03716 -1.88282,0.00973c-0.61956,-0.04781 -2.54839,-0.19675 -2.54839,-0.19675z" fill="#88472d" stroke="none" stroke-width="0.125" stroke-linecap="butt"></path><path d="M180.1842,187.43184l0.88239,-12.76022l6.95248,0.10821c0,0 -0.5696,5.2252 -0.87949,7.51032c-0.25957,1.91425 -0.56651,6.31998 -0.56651,6.31998z" fill="url(#color-7)" stroke="#000000" stroke-width="0.125" stroke-linecap="butt"></path><path d="M180.95569,174.75262l2.52863,-3.61657l6.21088,0.77845l-1.84765,3.07119z" fill="url(#color-8)" stroke="none" stroke-width="0.125" stroke-linecap="butt"></path><path d="M187.82651,176.34822l-0.94852,-0.6628l0.17218,-0.725l0.96547,-0.07335z" data-paper-data="{&quot;index&quot;:null}" fill="url(#color-9)" stroke="none" stroke-width="0.125" stroke-linecap="butt"></path><path d="M187.31406,175.97357l0.07344,-0.95103l0.57457,0.04438l-0.07344,0.95103z" data-paper-data="{&quot;index&quot;:null}" fill="url(#color-10)" stroke="none" stroke-width="0.125" stroke-linecap="butt"></path><path d="M188.97473,173.11515l0.63396,-1.15042z" fill="#623320" stroke="none" stroke-width="0.125" stroke-linecap="butt"></path><path d="M190.11748,189.98287l0.37016,-2.14006c0,0 0.66816,-1.33691 0.9708,-1.29368c0.3106,0.04433 0.86958,1.55641 0.86958,1.55641l-0.37016,2.14006z" fill="#e7c0af" stroke="none" stroke-width="0.125" stroke-linecap="butt"></path><path d="M191.9307,187.80534c0,0.16461 -0.16681,0.29809 -0.37258,0.29809c-0.20578,0 -0.37258,-0.13344 -0.37258,-0.29809c0,-0.16461 0.16681,-0.29809 0.37258,-0.29809c0.20578,0 0.37258,0.13344 0.37258,0.29809z" fill="#fca57a" stroke="#a88c80" stroke-width="0.125" stroke-linecap="butt"></path><path d="M191.75892,190.3389l0.67434,-4.77597l4.42355,0.78197l-0.55512,4.53753z" fill="#e8b49e" stroke="#a88c80" stroke-width="0.125" stroke-linecap="butt"></path><path d="M193.80114,186.97076c0,0.27987 -0.22687,0.50673 -0.50673,0.50673c-0.27987,0 -0.50673,-0.22687 -0.50673,-0.50673c0,-0.27987 0.22687,-0.50673 0.50673,-0.50673c0.27987,0 0.50673,0.22687 0.50673,0.50673z" fill="url(#color-11)" stroke="none" stroke-width="0.125" stroke-linecap="butt"></path><path d="M194.84437,188.48597c0,0.27987 -0.22687,0.50673 -0.50673,0.50673c-0.27987,0 -0.50673,-0.22687 -0.50673,-0.50673c0,-0.27987 0.22687,-0.50673 0.50673,-0.50673c0.27987,0 0.50673,0.22687 0.50673,0.50673z" fill="url(#color-12)" stroke="none" stroke-width="0.125" stroke-linecap="butt"></path><path d="M195.93733,189.85211c0,0.27987 -0.22687,0.50673 -0.50673,0.50673c-0.27987,0 -0.50673,-0.22687 -0.50673,-0.50673c0,-0.27987 0.22687,-0.50673 0.50673,-0.50673c0.27987,0 0.50673,0.22687 0.50673,0.50673z" fill="url(#color-13)" stroke="none" stroke-width="0.125" stroke-linecap="butt"></path><path d="M196.30991,187.29364c0,0.27987 -0.22687,0.50673 -0.50673,0.50673c-0.27987,0 -0.50673,-0.22687 -0.50673,-0.50673c0,-0.27987 0.22687,-0.50673 0.50673,-0.50673c0.27987,0 0.50673,0.22687 0.50673,0.50673z" fill="url(#color-14)" stroke="none" stroke-width="0.125" stroke-linecap="butt"></path><path d="M193.57759,189.60373c0,0.27987 -0.22687,0.50673 -0.50673,0.50673c-0.27987,0 -0.50673,-0.22687 -0.50673,-0.50673c0,-0.27987 0.22687,-0.50673 0.50673,-0.50673c0.27987,0 0.50673,0.22687 0.50673,0.50673z" fill="url(#color-15)" stroke="none" stroke-width="0.125" stroke-linecap="butt"></path><path d="M196.35465,191.01605l0.30281,-4.64944l1.44693,0.47222l-0.22594,4.13276z" fill="url(#color-16)" stroke="none" stroke-width="0.125" stroke-linecap="butt"></path><path d="M181.24767,189.77631l-1.32401,-2.57833l6.68974,1.25431l0.69683,2.50864z" fill="#572f2a" stroke="#000000" stroke-width="0.125" stroke-linecap="butt"></path><text transform="translate(181.36006,188.94242) rotate(11.38211) scale(0.03759,0.03759)" font-size="40" xml:space="preserve" fill="#41251e" fill-rule="nonzero" stroke="none" stroke-width="0.25" stroke-linecap="butt" stroke-linejoin="miter" stroke-miterlimit="10" stroke-dasharray="" stroke-dashoffset="0" font-family="Sans Serif" font-weight="normal" text-anchor="start" style="mix-blend-mode: normal"><tspan x="0" dy="0">xAmt8</tspan></text><path d="M196.79145,189.64775c0,0 0,-0.31619 0,-0.53909c0,-0.364 0,-1.4376 0,-1.4376h1.62849c0,0 1.33295,0.32508 1.73754,0.71338c0.09765,0.09373 0.38834,0.41044 0.39072,0.60314c0.00264,0.21599 -0.28964,0.30681 -0.28964,0.36065c0,0.35044 -1.83862,0.29951 -1.83862,0.29951z" fill="#a4593e" stroke="#000000" stroke-width="0.125" stroke-linecap="butt"></path><path d="M199.78491,188.77244c0,0.23395 -0.2023,0.42361 -0.45183,0.42361c-0.24954,0 -0.45183,-0.18966 -0.45183,-0.42361c0,-0.23395 0.2023,-0.42361 0.45183,-0.42361c0.24954,0 0.45183,0.18966 0.45183,0.42361z" fill="#ecac8b" stroke="none" stroke-width="0.125" stroke-linecap="butt"></path><path d="M187.30273,191.00346l-0.73425,-2.42865l3.78418,0.39535" fill="none" stroke="#000000" stroke-width="0.125" stroke-linecap="round"></path><path d="M196.6254,184.41475c0,1.07003 -0.70731,1.93749 -1.30407,1.93749c-0.59676,0 -1.3786,-0.86743 -1.3786,-1.93749c0,-0.54234 0.58848,-1.35804 0.73209,-2.0307c0.13974,-0.65452 0.12864,-1.17358 0.42295,-1.17358c0.21198,0 0.36343,0.41837 0.56664,0.81362c0.36888,0.71743 0.96102,1.70077 0.96102,2.39069z" fill="#ffffff" stroke="none" stroke-width="0.125" stroke-linecap="butt"></path><path d="M186.78892,193.80411l11.47588,0.89423l3.6514,0.89423" fill="none" stroke="url(#color-17)" stroke-width="0.125" stroke-linecap="round"></path><path d="M186.90815,193.55075l11.3268,0.96873l3.88244,0.85695l0.43219,-0.14405" fill="none" stroke="#512317" stroke-width="0.125" stroke-linecap="round"></path><g stroke="none" stroke-width="0.125" stroke-linecap="butt"><path d="M186.89032,203.96746l-0.3471,-2.66906l1.11727,-0.14528l0.3471,2.66906z" fill="#5a332a"></path><path d="M186.55378,203.79533l0.32447,-0.88108l5.4039,1.99002l-0.32447,0.88108z" fill="url(#color-18)"></path><path d="M191.2749,204.50928l2.40262,-0.90203l0.42168,1.12316l-2.40262,0.90203z" fill="#5a332a"></path><path d="M194.58159,200.87511l0.10527,-2.4389l0.75045,0.0324l-0.10531,2.4389z" fill="#5a332a"></path><path d="M186.54112,201.65615l1.70883,-4.64028l1.11604,0.41097l-1.70883,4.64028z" fill="#5a332a"></path><path d="M188.24361,197.04761l1.84197,-0.61019l0.83846,0.72875l-2.34583,0.89155z" fill="#5a332a"></path><path d="M189.86047,196.80851l0.1514,-0.41115l5.4039,1.99002l-0.1514,0.41115z" fill="#5a332a"></path><path d="M193.23724,204.12204l1.36271,-3.70048l0.76357,0.28119l-1.36271,3.70048z" fill="#5a332a"></path></g></g><text transform="translate(180.74302,214.35239) scale(0.14521,0.14521)" font-size="40" xml:space="preserve" fill="#fff4ce" fill-rule="nonzero" stroke="none" stroke-width="1" stroke-linecap="butt" stroke-linejoin="miter" stroke-miterlimit="10" stroke-dasharray="" stroke-dashoffset="0" font-family="Serif" font-weight="normal" text-anchor="start" style="mix-blend-mode: normal"><tspan x="0" dy="0">"It lights..."</tspan></text></g></g></svg>