<svg version="1.1" xmlns="http://www.w3.org/2000/svg" xmlns:xlink="http://www.w3.org/1999/xlink" width="37.48154" height="54.84989" viewBox="0,0,37.48154,54.84989"><defs><linearGradient x1="245.90299" y1="177.10369" x2="245.90299" y2="201.12122" gradientUnits="userSpaceOnUse" id="color-1"><stop offset="0" stop-color="#808080"></stop><stop offset="1" stop-color="#808080" stop-opacity="0"></stop></linearGradient></defs><g transform="translate(-220.75923,-152.57505)"><g data-paper-data="{&quot;isPaintingLayer&quot;:true}" fill-rule="nonzero" stroke-linejoin="miter" stroke-miterlimit="10" stroke-dasharray="" stroke-dashoffset="0" style="mix-blend-mode: normal"><path d="M223.01944,207.42495v-54.84989h35.22133v54.84989z" fill="#000000" stroke="none" stroke-width="NaN" stroke-linecap="butt"></path><path d="M221.75923,203.92309v-5.13644h1.83445v5.13644z" fill="#e6e6e6" stroke="#000000" stroke-width="2" stroke-linecap="butt"></path><path d="M221.77565,163.03139v-5.13644h1.83445v5.13644z" fill="#e6e6e6" stroke="#000000" stroke-width="2" stroke-linecap="butt"></path><g stroke-linecap="butt"><path d="M223.67432,207.3638v-54.17726h3.35699v54.17726z" fill="#8e6544" stroke="none" stroke-width="0"></path><path d="M223.99235,172.82125v-18.18029h2.75627v18.18029z" fill="none" stroke="#513a27" stroke-width="4"></path><path d="M224.02768,201.90971v-17.45308h2.72093v17.45308z" fill="none" stroke="#513a27" stroke-width="4"></path><text transform="translate(224.58527,164.53095) scale(0.01088,0.11198)" font-size="40" xml:space="preserve" fill="#ffffff" fill-rule="nonzero" stroke="none" stroke-width="1" stroke-linecap="butt" stroke-linejoin="miter" stroke-miterlimit="10" stroke-dasharray="" stroke-dashoffset="0" font-family="Sans Serif" font-weight="normal" text-anchor="start" style="mix-blend-mode: normal"><tspan x="0" dy="0">xAmt8</tspan></text><path d="M226.37169,163.0645c0,1.90773 -0.4588,3.45425 -1.02476,3.45425c-0.56596,0 -1.02476,-1.54652 -1.02476,-3.45425c0,-1.90773 0.4588,-3.45425 1.02476,-3.45425c0.56596,0 1.02476,1.54652 1.02476,3.45425z" fill="#d59866" stroke="none" stroke-width="0"></path><path d="M224.4105,162.88269c0,-0.50203 0.03955,-0.90901 0.08834,-0.90901c0.04879,0 0.08834,0.40698 0.08834,0.90901c0,0.50203 -0.03955,0.90901 -0.08834,0.90901c-0.04879,0 -0.08834,-0.40698 -0.08834,-0.90901z" fill="#ab7a52" stroke="none" stroke-width="0.5"></path><path d="M226.10666,162.88269c0,-0.50203 0.03955,-0.90901 0.08834,-0.90901c0.04879,0 0.08834,0.40698 0.08834,0.90901c0,0.50203 -0.03955,0.90901 -0.08834,0.90901c-0.04879,0 -0.08834,-0.40698 -0.08834,-0.90901z" fill="#ab7a52" stroke="none" stroke-width="0.5"></path><path d="M226.88996,178.03293c0,0.93713 -0.23731,1.69683 -0.53005,1.69683c-0.29274,0 -0.53005,-0.7597 -0.53005,-1.69683c0,-0.93713 0.23731,-1.69683 0.53005,-1.69683c0.29274,0 0.53005,0.7597 0.53005,1.69683z" fill="#dadada" stroke="none" stroke-width="0"></path><path d="M226.57984,179.07261c-0.1446,-0.33008 -0.23321,-1.92445 -0.19793,-3.56113c0.03529,-1.63667 0.18111,-2.69587 0.32571,-2.36579c0.1446,0.33008 0.23321,1.92445 0.19793,3.56113c-0.03529,1.63667 -0.18111,2.69587 -0.32571,2.36579z" fill="#fff4ce" stroke="#e6ddbb" stroke-width="2.5"></path><path d="M226.66997,177.43053c-0.08983,-0.20507 -0.14489,-1.19558 -0.12296,-2.21237c0.02192,-1.01679 0.11252,-1.67482 0.20235,-1.46975c0.08983,0.20507 0.14489,1.19558 0.12296,2.21237c-0.02192,1.01679 -0.11252,1.67482 -0.20235,1.46975z" fill="#e6ddbb" stroke="#e6ddbb" stroke-width="0"></path><path d="M226.1465,176.55952l0.20947,-0.86524l0.08409,2.15541l-0.20947,0.86524z" fill="#e6ddbb" stroke="none" stroke-width="0"></path><path d="M226.32533,179.1426c-0.0726,1.08066 -0.13263,-0.10938 -0.15982,-0.66077c-0.04241,-0.86042 -0.03638,-1.72551 -0.00445,-2.5307l-0.00747,-0.01705l0.00978,-0.45349v0c0.00466,-0.21622 0.02547,-0.35261 0.04649,-0.30465c0.01519,0.03467 0.02633,0.15618 0.02957,0.30253l0.01205,0.49537l-0.00155,0.004l0.00236,0.03903c0.00013,0.04374 0.00027,0.08748 0.0004,0.13123c0.00549,0.04514 0.00969,0.10477 0.01216,0.17196c0.00693,0.07319 0.01104,0.17247 0.01109,0.27783l0.00116,0.44944c0.00501,0.28583 0.06006,1.9191 0.04823,2.09527z" fill="#fff4ce" stroke="none" stroke-width="0.5"></path></g><g><path d="M238.82498,201.12122v-24.01753c0,0 -1.77909,-3.41972 -1.51104,-3.41972c1.43517,0 17.09857,-0.5567 17.09857,-0.5567c0,0 -2.82506,4.24141 -2.97347,7.14376c-0.26137,5.11118 1.54196,20.85018 1.54196,20.85018z" fill="url(#color-1)" stroke="none" stroke-width="0" stroke-linecap="butt"></path><path d="M254.16512,168.04185c0,5.04473 -3.88909,9.13429 -8.68653,9.13429c-4.79744,0 -8.68653,-4.08956 -8.68653,-9.13429c0,-5.04473 3.88909,-9.13429 8.68653,-9.13429c4.79744,0 8.68653,4.08956 8.68653,9.13429z" fill-opacity="0.66129" fill="#ffdb12" stroke="none" stroke-width="NaN" stroke-linecap="butt"></path><path d="M240.03727,174.78436v-4.1856h10.2437v4.1856c0,0 -3.50539,2.0928 -5.28707,2.0928c-1.61685,0 -4.95663,-2.0928 -4.95663,-2.0928z" fill="#ffffff" stroke="none" stroke-width="0" stroke-linecap="butt"></path><path d="M241.05177,175.4336l0.07953,-4.85122" fill="none" stroke="#000000" stroke-width="0.5" stroke-linecap="round"></path><path d="M243.83526,170.58237l0.15906,5.80556" fill="none" stroke="#000000" stroke-width="0.5" stroke-linecap="round"></path><path d="M246.69828,176.38793l-0.15906,-5.72603" fill="none" stroke="#000000" stroke-width="0.5" stroke-linecap="round"></path><path d="M249.08412,170.58237l0.15906,4.61264" fill="none" stroke="#000000" stroke-width="0.5" stroke-linecap="round"></path><path d="M240.25649,172.33199l9.22527,-0.07953" fill="none" stroke="#000000" stroke-width="0.5" stroke-linecap="round"></path><path d="M240.41555,174.63831l9.38433,-0.31811" fill="none" stroke="#000000" stroke-width="0.5" stroke-linecap="round"></path><path d="M240.89271,162.62955l1.98821,2.62443" fill="none" stroke="#000000" stroke-width="0.5" stroke-linecap="round"></path><path d="M240.5746,165.25398l2.38585,-2.70396" fill="none" stroke="#000000" stroke-width="0.5" stroke-linecap="round"></path><path d="M247.97073,162.31144l1.98821,2.78349" fill="none" stroke="#000000" stroke-width="0.5" stroke-linecap="round"></path><path d="M249.95893,162.31143l-1.74962,2.62443" fill="none" stroke="#000000" stroke-width="0.5" stroke-linecap="round"></path></g></g></g></svg>