<svg version="1.1" xmlns="http://www.w3.org/2000/svg" xmlns:xlink="http://www.w3.org/1999/xlink" width="99.74992" height="73.80522" viewBox="0,0,99.74992,73.80522"><defs><radialGradient cx="240" cy="180" r="49.6596" gradientUnits="userSpaceOnUse" id="color-1"><stop offset="0" stop-color="#006882"></stop><stop offset="1" stop-color="#000000"></stop></radialGradient><radialGradient cx="237.94894" cy="155.71612" r="6.16434" gradientUnits="userSpaceOnUse" id="color-2"><stop offset="0" stop-color="#4adbff"></stop><stop offset="1" stop-color="#4adbff" stop-opacity="0"></stop></radialGradient></defs><g transform="translate(-189.90967,-142.97585)"><g data-paper-data="{&quot;isPaintingLayer&quot;:true}" fill-rule="nonzero" stroke="none" stroke-width="0" stroke-linecap="butt" stroke-linejoin="miter" stroke-miterlimit="10" stroke-dasharray="" stroke-dashoffset="0" style="mix-blend-mode: normal"><path d="M190.34041,216.78107v-73.56214h99.31919v73.56214z" fill="url(#color-1)"></path><path d="M231.78459,155.71612c0,-3.40447 2.75987,-6.16434 6.16434,-6.16434c3.40447,0 6.16434,2.75987 6.16434,6.16434c0,3.40447 -2.75987,6.16434 -6.16434,6.16434c-3.40447,0 -6.16434,-2.75987 -6.16434,-6.16434z" fill="url(#color-2)"></path><path d="M189.90968,154.20939v-11.23354h99.37365v11.23354c0,0 -34.70166,-3.97495 -51.50148,-3.97495c-16.31026,0 -47.87218,3.97495 -47.87218,3.97495z" fill="#000000"></path><path d="M190.90007,215.51527v-63.59914h28.51592c0,0 -9.33248,18.32199 -9.33248,28.35641c0,11.06447 9.33248,35.24272 9.33248,35.24272z" fill="#000000"></path><path d="M258.67355,208.62889c0,0 6.74013,-19.27229 6.74013,-28.66876c0,-8.48379 -7.60424,-28.19025 -7.60424,-28.19025c0,0 24.73982,2.47398 28.06712,2.80671c0.71963,0.07196 1.31292,0.13129 1.31292,0.13129v53.92101z" fill="#000000"></path><path d="M233.72103,156.00659c0,-2.35871 1.80735,-4.29529 4.11272,-4.50041c-0.06297,0.16685 0.53156,0.21051 0.49368,0.3881c-0.03222,0.15108 -0.70046,0.43477 -0.71311,0.59221c-1.08668,0.62117 -1.81905,1.79146 -1.81905,3.13281c0,1.99153 1.61446,3.60599 3.60599,3.60599c0.76832,0 2.126,-1.01487 2.71102,-1.4244c0.10796,0.07558 -0.42523,0.91996 -0.30905,0.98356c-0.8269,1.05936 -2.11582,1.7405 -3.56384,1.7405c-2.49543,0 -4.51837,-2.02294 -4.51837,-4.51837z" fill="#ffffff"></path></g></g></svg>