<svg version="1.1" xmlns="http://www.w3.org/2000/svg" xmlns:xlink="http://www.w3.org/1999/xlink" width="91.82779" height="58.46026" viewBox="0,0,91.82779,58.46026"><g transform="translate(-194.08611,-155.60694)"><g data-paper-data="{&quot;isPaintingLayer&quot;:true}" fill-rule="nonzero" stroke-linejoin="miter" stroke-miterlimit="10" stroke-dasharray="" stroke-dashoffset="0" style="mix-blend-mode: normal"><path d="M194.33611,193.05207c0,-8.90211 0,-24.26717 0,-29.34501c0,-3.20925 2.87888,-6.92816 6.07603,-6.92816c9.83853,0 61.04957,0 79.01513,0c3.90277,0 6.23663,2.57908 6.23663,6.39136c0,8.98311 0,24.81342 0,29.88181c0,3.07253 -2.3982,6.57029 -6.39723,6.57029c-18.06525,0 -68.79866,0 -78.69393,0c-3.27194,0 -6.23663,-2.66243 -6.23663,-6.57029z" fill-opacity="0.73187" fill="#291800" stroke="#fff4ce" stroke-width="0.5" stroke-linecap="butt"></path><path d="M197.55791,213.8172v-10.84631h82.05471v10.84631z" fill-opacity="0.74189" fill="#291800" stroke="#fff4ce" stroke-width="0.5" stroke-linecap="butt"></path><text transform="translate(202.74529,210.39826) scale(0.16899,0.16899)" font-size="40" xml:space="preserve" fill="#fff4ce" fill-rule="nonzero" stroke="none" stroke-width="0.3" stroke-linecap="butt" stroke-linejoin="miter" stroke-miterlimit="10" stroke-dasharray="" stroke-dashoffset="0" font-family="Serif" font-weight="normal" text-anchor="start" style="mix-blend-mode: normal"><tspan x="0" dy="0">Play Again</tspan></text><path d="M238.03508,205.76106l0.0786,5.73754" fill="none" stroke="#00ff46" stroke-width="0.15" stroke-linecap="round"></path><path d="M238.1923,207.88317v-2.51509c0,0 2.47438,0.70737 3.30105,0.70737c0.56161,0 1.17895,-0.70737 1.17895,-0.70737v2.51509c0,0 -0.69593,1.17895 -1.25754,1.17895c-0.82668,0 -3.22246,-1.17895 -3.22246,-1.17895z" fill="#cfffdf" stroke="#00ff46" stroke-width="0.15" stroke-linecap="butt"></path><g fill="#ffcece" stroke="#ff8282" stroke-width="0.15"><g><path d="M199.70676,174.56705l-1.3578,-2.60582l4.63946,0.00583l-1.54485,2.48949z" stroke-linecap="butt"></path><path d="M196.80019,171.87342c0,0 -1.22596,-0.79878 -1.36314,-1.33736c-0.0792,-0.31096 0.42985,-0.84558 0.45526,-1.39023c0.04679,-1.00298 -0.3148,-2.0726 -0.3148,-2.0726c0,0 3.03568,-1.88468 4.58824,-1.92585c0.42124,-0.01117 0.95524,0.09088 1.51764,0.2494c-0.49279,0.18221 -0.9522,0.44834 -0.80347,1.11046c0.0491,0.21856 0.36524,0.50097 0.50732,0.63937c0.01399,0.01363 0.02685,0.03001 0.03967,0.04667c-0.00132,0.00231 -0.00264,0.00467 -0.00398,0.00709c-0.0831,0.15066 -0.15814,0.32513 -0.14152,0.49638c0.00162,0.01672 0.00351,0.03241 0.00563,0.04713c-0.19406,0.03027 -0.43759,0.00243 -0.55842,0.15296c-0.11417,0.14224 0.01124,0.36462 0.01686,0.54694l-0.0194,0.01809c0,0 0,0.37796 0.37796,0.37796c0.2299,0 0.31996,-0.13984 0.35524,-0.2494c0.05978,-0.01724 0.14007,-0.05324 0.24592,-0.11402c0.21289,-0.12225 0.44714,-0.28039 0.52986,-0.51153c0.04221,-0.11794 -0.07743,-0.22968 -0.16549,-0.33495c0.3056,-0.20125 0.29675,-0.33891 0.11284,-0.74287c-0.01947,-0.04277 -0.46996,-0.48094 -0.51086,-0.52256c-0.02955,-0.03007 -0.11133,-0.06839 -0.08071,-0.09738c0.17917,-0.16965 0.44017,-0.19314 0.6648,-0.26771c0,0 0.26165,-0.08722 0.26343,-0.33616c1.39709,0.49067 2.71686,1.15384 2.71686,1.15384c0,0 -0.42554,1.83766 -0.42314,3.10434c0.00071,0.37412 0.5677,0.68442 0.53409,0.90033c-0.07483,0.48075 -0.93678,1.30088 -0.93678,1.30088c0,0 -0.6039,0.61347 -1.07219,0.65167c-0.84528,0.06894 -1.97664,-0.78687 -3.10771,-0.87272c-0.86634,-0.06575 -1.80389,0.64169 -2.18341,0.62926c-0.38814,-0.01271 -1.2466,-0.65745 -1.2466,-0.65745zM198.9651,170.97627l-0.09238,-0.17824c-0.16153,-0.2406 -0.25076,-0.53777 -0.4207,-0.7682c-0.0284,-0.03851 -0.06257,-0.07204 -0.09834,-0.10419c0.07894,-0.05741 0.15681,-0.11591 0.21951,-0.1895c0.08025,-0.09417 0.11622,-0.21846 0.17433,-0.32769l0.12519,-0.18647c0,0 0.20966,-0.31448 -0.10483,-0.52414c-0.31448,-0.20966 -0.52414,0.10483 -0.52414,0.10483l-0.15003,0.22636c-0.04396,0.09706 -0.09729,0.17075 -0.1565,0.23443c-0.00497,-0.00942 -0.01009,-0.01877 -0.01536,-0.02801c-0.1549,-0.27147 -0.23926,-0.46551 -0.30031,-0.77889c0,0 -0.07413,-0.37062 -0.44475,-0.2965c-0.37062,0.07413 -0.2965,0.44475 -0.2965,0.44475c0.07868,0.38515 0.19449,0.67237 0.38775,1.01006c0.02515,0.04395 0.07002,0.13724 0.1181,0.23718c-0.09396,0.17078 -0.16131,0.35605 -0.28991,0.50318c-0.14125,0.16161 -0.30484,0.30223 -0.45661,0.454c0,0 -0.26726,0.26726 0,0.53452c0.26726,0.26726 0.53452,0 0.53452,0c0.06644,-0.06644 0.48927,-0.48867 0.50667,-0.50928c0.0811,-0.09599 0.13809,-0.20475 0.19271,-0.31441c0.14278,0.20998 0.22845,0.48338 0.37021,0.69727l0.04523,0.09698c0,0 0.16903,0.33806 0.50709,0.16903c0.33806,-0.16903 0.16903,-0.50709 0.16903,-0.50709z" stroke-linecap="butt"></path><path d="M205.22498,171.2634l-2.21778,1.41194" stroke-linecap="round"></path><path d="M202.88676,172.5251l-1.37155,1.68876" stroke-linecap="round"></path><path d="M203.49098,172.56153l1.34138,-0.84865" stroke-linecap="round"></path><path d="M203.96761,172.73249l-0.73805,-0.1378" stroke-linecap="round"></path><path d="M201.17306,175.54722l-0.00576,-1.20636l0.44557,-0.01182l0.03267,1.23187c0,0 -0.17469,0.25538 -0.2605,0.25289c-0.06696,-0.00194 -0.21197,-0.26659 -0.21197,-0.26659z" stroke-linecap="butt"></path><path d="M201.30888,175.73033c-0.00194,-0.07324 0.05586,-0.13419 0.12909,-0.13613c0.07324,-0.00194 0.13419,0.05586 0.13613,0.12909c0.00194,0.07324 -0.05586,0.13419 -0.12909,0.13613c-0.07324,0.00194 -0.13419,-0.05586 -0.13613,-0.12909z" stroke-linecap="butt"></path></g><path d="M199.0304,174.91673l-1.3578,-2.60582l4.63946,0.00583l-1.54485,2.48949z" stroke-linecap="butt"></path><path d="M196.12384,172.22312c0,0 -1.22596,-0.79878 -1.36314,-1.33736c-0.0792,-0.31096 0.42985,-0.84558 0.45526,-1.39023c0.04679,-1.00298 -0.3148,-2.0726 -0.3148,-2.0726c0,0 3.03568,-1.88468 4.58824,-1.92585c0.43266,-0.01147 0.98428,0.0965 1.56345,0.26242c-0.16572,0.1733 -0.24911,0.40857 -0.17292,0.74775c0.0491,0.21856 0.36524,0.50097 0.50732,0.63937c0.01399,0.01363 0.02685,0.03001 0.03967,0.04667c-0.00132,0.00231 -0.00264,0.00467 -0.00398,0.00709c-0.0831,0.15066 -0.15814,0.32513 -0.14152,0.49638c0.00162,0.01672 0.00351,0.03241 0.00563,0.04713c-0.19406,0.03027 -0.43759,0.00243 -0.55842,0.15296c-0.11417,0.14224 0.01124,0.36462 0.01686,0.54694l-0.0194,0.01809c0,0 0,0.37796 0.37796,0.37796c0.2299,0 0.31996,-0.13984 0.35524,-0.2494c0.05978,-0.01724 0.14007,-0.05324 0.24592,-0.11402c0.21289,-0.12225 0.44714,-0.28039 0.52986,-0.51153c0.04221,-0.11794 -0.07743,-0.22968 -0.16549,-0.33495c0.3056,-0.20125 0.29675,-0.33891 0.11284,-0.74287c-0.01947,-0.04277 -0.46996,-0.48094 -0.51086,-0.52256c-0.02955,-0.03007 -0.11133,-0.06839 -0.08071,-0.09738c0.11414,-0.10807 0.26149,-0.15683 0.41149,-0.19727c1.33633,0.48343 2.55724,1.09693 2.55724,1.09693c0,0 -0.42554,1.83766 -0.42314,3.10434c0.00071,0.37412 0.5677,0.68442 0.53409,0.90033c-0.07483,0.48075 -0.93678,1.30088 -0.93678,1.30088c0,0 -0.6039,0.61347 -1.07219,0.65167c-0.84528,0.06894 -1.97664,-0.78687 -3.10771,-0.87272c-0.86634,-0.06575 -1.80389,0.64169 -2.18341,0.62926c-0.38814,-0.01271 -1.2466,-0.65745 -1.2466,-0.65745zM198.9651,170.97627l-0.09238,-0.17824c-0.16153,-0.2406 -0.25076,-0.53777 -0.4207,-0.7682c-0.0284,-0.03851 -0.06257,-0.07204 -0.09834,-0.10419c0.07894,-0.05741 0.15681,-0.11591 0.21951,-0.1895c0.08025,-0.09417 0.11622,-0.21846 0.17433,-0.32769l0.12519,-0.18647c0,0 0.20966,-0.31448 -0.10483,-0.52414c-0.31448,-0.20966 -0.52414,0.10483 -0.52414,0.10483l-0.15003,0.22636c-0.04396,0.09706 -0.09729,0.17075 -0.1565,0.23443c-0.00497,-0.00942 -0.01009,-0.01877 -0.01536,-0.02801c-0.1549,-0.27147 -0.23926,-0.46551 -0.30031,-0.77889c0,0 -0.07413,-0.37062 -0.44475,-0.2965c-0.37062,0.07413 -0.2965,0.44475 -0.2965,0.44475c0.07868,0.38515 0.19449,0.67237 0.38775,1.01006c0.02515,0.04395 0.07002,0.13724 0.1181,0.23718c-0.09396,0.17078 -0.16131,0.35605 -0.28991,0.50318c-0.14125,0.16161 -0.30484,0.30223 -0.45661,0.454c0,0 -0.26726,0.26726 0,0.53452c0.26726,0.26726 0.53452,0 0.53452,0c0.06644,-0.06644 0.48927,-0.48867 0.50667,-0.50928c0.0811,-0.09599 0.13809,-0.20475 0.19271,-0.31441c0.14278,0.20998 0.22845,0.48338 0.37021,0.69727l0.04523,0.09698c0,0 0.16903,0.33806 0.50709,0.16903c0.33806,-0.16903 0.16903,-0.50709 0.16903,-0.50709z" stroke-linecap="butt"></path><path d="M201.15889,167.70802l-0.71853,-0.36756l0.61622,-0.53207c0.11235,0.13385 0.24973,0.25938 0.33065,0.33821c0.00263,0.00256 0.00522,0.00522 0.00778,0.00796z" stroke-linecap="butt"></path><path d="M201.82618,166.14389l-0.1121,0.26276c-0.02137,-0.02106 -0.03646,-0.03597 -0.04253,-0.04215c-0.0125,-0.01272 -0.03435,-0.02692 -0.05309,-0.04126z" stroke-linecap="butt"></path><path d="M201.08489,167.76338l-0.05477,-0.05194" stroke-linecap="round"></path><path d="M196.39418,171.51024c0,0 -0.13489,-0.5527 -0.14291,-0.85503c-0.00874,-0.32946 0.09246,-1.04735 0.09246,-1.04735c0,0 0.31099,-0.48205 0.59506,-0.75887c0.07557,0.27128 0.17901,0.50333 0.32927,0.76588c0.02515,0.04395 0.07002,0.13724 0.1181,0.23718c-0.09396,0.17078 -0.16131,0.35605 -0.28991,0.50318c-0.14125,0.16161 -0.30484,0.30223 -0.45661,0.454c0,0 -0.26726,0.26726 0,0.53452c0.26726,0.26726 0.53452,0 0.53452,0c0.06644,-0.06644 0.48927,-0.48867 0.50667,-0.50928c0.0811,-0.09599 0.13809,-0.20475 0.19271,-0.31441c0.14278,0.20998 0.22845,0.48338 0.37021,0.69727l0.04523,0.09698c0,0 0.06485,0.12971 0.19456,0.18826c-0.24932,0.14487 -0.98324,0.55516 -1.31313,0.5639c-0.2781,0.00737 -0.77624,-0.55626 -0.77624,-0.55626z" stroke-linecap="butt"></path><path d="M198.70544,170.46989c0.00021,0.00792 0.00033,0.01603 0.00037,0.02432c-0.07764,-0.16102 -0.15093,-0.32492 -0.25378,-0.46438c-0.0284,-0.03851 -0.06257,-0.07204 -0.09834,-0.10419c0.07745,-0.05633 0.15387,-0.11371 0.21595,-0.18535c0.05371,0.20684 0.13062,0.53409 0.13581,0.7296z" stroke-linecap="butt"></path><path d="M197.92186,169.23545c-0.07336,-0.12856 -0.1309,-0.23976 -0.17763,-0.3545c0.10306,0.07161 0.20716,0.15365 0.30414,0.23517c-0.03363,0.05648 -0.07104,0.10421 -0.11115,0.14734c-0.00497,-0.00942 -0.01009,-0.01877 -0.01536,-0.02801z" stroke-linecap="butt"></path><path d="M195.79336,171.90971l2.01998,0.84852" stroke-linecap="round"></path><path d="M199.48617,173.03088l-0.01864,-0.70285c0,0 0.35993,-1.44103 0.5143,-1.44513c0.20123,-0.00534 0.59017,1.41584 0.59017,1.41584l0.01864,0.70285c0,0 -0.42054,-1.01134 -0.6202,-1.00605c-0.15931,0.00422 -0.48427,1.03533 -0.48427,1.03533z" stroke-linecap="butt"></path><path d="M202.13561,171.81923c-0.1068,0.00283 -0.46173,0.92804 -0.63362,1.193c-0.08245,0.12709 -0.08669,0.11673 -0.16823,0.08367c-0.38638,-0.15664 0.0503,-1.62137 0.0503,-1.62137c0,0 -0.49756,-0.69096 -0.50629,-1.02042c-0.00802,-0.30233 0.13855,-0.92834 0.13855,-0.92834c0,0 0.82689,-0.94659 1.22563,-0.95716c0.29259,-0.00776 0.94852,0.89951 0.94852,0.89951c0,0 0.1391,0.71151 0.14784,1.04097c0.00802,0.30233 -0.09739,0.8614 -0.09739,0.8614c0,0 -0.46757,0.58924 -0.74566,0.59662z" data-paper-data="{&quot;index&quot;:null}" stroke-linecap="butt"></path><path d="M202.21039,172.87479l-1.37155,1.68876" stroke-linecap="round"></path><path d="M200.76438,174.72291l-1.78298,0.02106l-1.44543,-2.08618" stroke-linecap="round"></path><path d="M197.46219,172.84333l-1.14163,-0.52052" stroke-linecap="round"></path><path d="M204.15599,172.06258l-1.34138,0.84865" stroke-linecap="round"></path><path d="M202.55321,172.94438l0.73805,0.1378" stroke-linecap="round"></path><path d="M198.88094,175.90068l-0.00576,-1.20636l0.44557,-0.01182l0.03267,1.23187c0,0 -0.17469,0.25538 -0.2605,0.25289c-0.06696,-0.00194 -0.21197,-0.26659 -0.21197,-0.26659z" stroke-linecap="butt"></path><path d="M199.48519,175.89768l-0.00576,-1.20636l0.44557,-0.01182l0.03267,1.23187c0,0 -0.17469,0.25538 -0.2605,0.25289c-0.06696,-0.00194 -0.21197,-0.26659 -0.21197,-0.26659z" stroke-linecap="butt"></path><path d="M199.9806,175.91947l-0.00576,-1.20636l0.44557,-0.01182l0.03267,1.23187c0,0 -0.17469,0.25538 -0.2605,0.25289c-0.06696,-0.00194 -0.21197,-0.26659 -0.21197,-0.26659z" stroke-linecap="butt"></path><path d="M200.49673,175.89691l-0.00576,-1.20636l0.44557,-0.01182l0.03267,1.23187c0,0 -0.17469,0.25538 -0.2605,0.25289c-0.06696,-0.00194 -0.21197,-0.26659 -0.21197,-0.26659z" stroke-linecap="butt"></path><path d="M198.97002,176.10221l0.17507,-0.00465" stroke-linecap="round"></path><path d="M199.25579,176.09463c0.00352,0.13261 -0.12909,0.13613 -0.12909,0.13613l-0.17507,0.00465c0,0 -0.13261,0.00352 -0.13613,-0.12909c-0.00352,-0.13261 0.12909,-0.13613 0.12909,-0.13613l0.17507,-0.00465c0,0 0.13261,-0.00352 0.13613,0.12909z" stroke-linecap="butt"></path><path d="M199.62523,176.08484c-0.00194,-0.07324 0.05586,-0.13419 0.12909,-0.13613c0.07324,-0.00194 0.13419,0.05586 0.13613,0.12909c0.00194,0.07324 -0.05586,0.13419 -0.12909,0.13613c-0.07324,0.00194 -0.13419,-0.05586 -0.13613,-0.12909z" stroke-linecap="butt"></path><path d="M200.1286,176.07149c-0.00194,-0.07324 0.05586,-0.13419 0.12909,-0.13613c0.07324,-0.00194 0.13419,0.05586 0.13613,0.12909c0.00194,0.07324 -0.05586,0.13419 -0.12909,0.13613c-0.07324,0.00194 -0.13419,-0.05586 -0.13613,-0.12909z" stroke-linecap="butt"></path><path d="M200.6325,176.08002c-0.00194,-0.07324 0.05586,-0.13419 0.12909,-0.13613c0.07324,-0.00194 0.13419,0.05586 0.13613,0.12909c0.00194,0.07324 -0.05586,0.13419 -0.12909,0.13613c-0.07324,0.00194 -0.13419,-0.05586 -0.13613,-0.12909z" stroke-linecap="butt"></path></g><text transform="translate(206.40567,170.27666) scale(0.11789,0.11789)" font-size="40" xml:space="preserve" fill="#ffcece" fill-rule="nonzero" stroke="none" stroke-width="0.3" stroke-linecap="butt" stroke-linejoin="miter" stroke-miterlimit="10" stroke-dasharray="" stroke-dashoffset="0" font-family="&quot;ヒラギノ角ゴ Pro W3&quot;, &quot;Hiragino Kaku Gothic Pro&quot;, Osaka, &quot;メイリオ&quot;, Meiryo, &quot;ＭＳ Ｐゴシック&quot;, &quot;MS PGothic&quot;" font-weight="normal" text-anchor="start" style="mix-blend-mode: normal"><tspan x="0" dy="0">Died to:</tspan></text><g stroke="#ffffff" stroke-width="0.05" stroke-linecap="butt"><path d="M196.17742,186.85908v-5.78031l2.09816,-0.72606l3.83984,0.03868l0.9133,1.01089l0.76479,0.40982l-1.84671,-0.11603l-3.67233,0.02708l-0.50614,1.90271l0.91399,0.41986l3.46048,-0.56703l-0.21473,-1.70129c0,0 0.08777,-0.42975 0.25037,-0.42846c0.32547,0.00259 1.58078,0.44302 1.58078,0.44302l-0.37722,3.25818l-1.09647,-0.20138l0.52812,-0.44499l-0.43059,-0.31829l-0.87247,0.2888l0.75133,0.46808l1.11538,0.16462l-0.21549,2.08366l-1.63945,-0.42128l0.19849,-0.63877l-1.65653,-1.14705l-2.43696,0.12507l-0.05423,1.27328l0.61258,0.31903l3.33921,0.02087l1.63391,0.45299l-1.30923,0.54556l-4.63368,-0.02721z" fill="#f1dbb3"></path><path d="M195.85383,187.73544v-6.79952l2.46811,-0.85409l4.51689,0.0455l1.07434,1.18913l0.89964,0.48208l-2.17233,-0.1365l-4.31985,0.03186l-0.59539,2.2382l1.07514,0.49389l4.07065,-0.66702l-0.2526,-2.00127c0,0 0.10324,-0.50553 0.29452,-0.504c0.38286,0.00304 1.85952,0.52114 1.85952,0.52114l-0.44373,3.83267l-1.28981,-0.23689l0.62125,-0.52346l-0.50651,-0.37442l-1.0263,0.33973l0.8838,0.55062l1.31205,0.19364l-0.25348,2.45105l-1.92852,-0.49556l0.23349,-0.75139l-1.94862,-1.3493l-2.86665,0.14713l-0.0638,1.49779l0.72059,0.37527l3.92799,0.02456l1.92201,0.53287l-1.54007,0.64175l-5.4507,-0.032z" fill="#fff4ce"></path></g><text transform="translate(205.37584,183.90295) scale(0.11789,0.11789)" font-size="40" xml:space="preserve" fill="#fff4ce" fill-rule="nonzero" stroke="none" stroke-width="0.3" stroke-linecap="butt" stroke-linejoin="miter" stroke-miterlimit="10" stroke-dasharray="" stroke-dashoffset="0" font-family="&quot;ヒラギノ角ゴ Pro W3&quot;, &quot;Hiragino Kaku Gothic Pro&quot;, Osaka, &quot;メイリオ&quot;, Meiryo, &quot;ＭＳ Ｐゴシック&quot;, &quot;MS PGothic&quot;" font-weight="normal" text-anchor="start" style="mix-blend-mode: normal"><tspan x="0" dy="0">Reached door [Found in top left </tspan><tspan x="0" dy="46.150000000000006px">corner.]</tspan></text><text transform="translate(199.49594,163.37961) scale(0.18958,0.18958)" font-size="40" xml:space="preserve" fill="#fff4ce" fill-rule="nonzero" stroke="none" stroke-width="1" stroke-linecap="butt" stroke-linejoin="miter" stroke-miterlimit="10" stroke-dasharray="" stroke-dashoffset="0" font-family="Impact" font-weight="normal" text-anchor="start" style="mix-blend-mode: normal"><tspan x="0" dy="0">Overview</tspan></text></g></g></svg>