<svg version="1.1" xmlns="http://www.w3.org/2000/svg" xmlns:xlink="http://www.w3.org/1999/xlink" width="26.90679" height="28.59187" viewBox="0,0,26.90679,28.59187"><defs><radialGradient cx="240.0606" cy="179.24168" r="13.92266" gradientUnits="userSpaceOnUse" id="color-1"><stop offset="0" stop-color="#dafeff"></stop><stop offset="1" stop-color="#dafeff" stop-opacity="0"></stop></radialGradient><radialGradient cx="240.0606" cy="179.24168" r="13.92266" gradientUnits="userSpaceOnUse" id="color-2"><stop offset="0" stop-color="#000000" stop-opacity="0"></stop><stop offset="1" stop-color="#000000" stop-opacity="0"></stop></radialGradient><radialGradient cx="239.9394" cy="179.10139" r="13.92266" gradientUnits="userSpaceOnUse" id="color-3"><stop offset="0" stop-color="#dafeff"></stop><stop offset="1" stop-color="#dafeff" stop-opacity="0"></stop></radialGradient><radialGradient cx="239.9394" cy="179.10139" r="13.92266" gradientUnits="userSpaceOnUse" id="color-4"><stop offset="0" stop-color="#000000" stop-opacity="0"></stop><stop offset="1" stop-color="#000000" stop-opacity="0"></stop></radialGradient><linearGradient x1="247.66606" y1="168.31168" x2="233.40815" y2="192.28569" gradientUnits="userSpaceOnUse" id="color-5"><stop offset="0" stop-color="#af957e"></stop><stop offset="1" stop-color="#ad8764"></stop></linearGradient><linearGradient x1="246.71394" y1="168.10796" x2="232.45602" y2="192.08196" gradientUnits="userSpaceOnUse" id="color-6"><stop offset="0" stop-color="#c9ab91"></stop><stop offset="1" stop-color="#c99d74"></stop></linearGradient><linearGradient x1="232.79302" y1="168.44992" x2="249.93851" y2="178.50213" gradientUnits="userSpaceOnUse" id="color-7"><stop offset="0" stop-color="#c9ab91"></stop><stop offset="1" stop-color="#c99d74"></stop></linearGradient><radialGradient cx="241.21942" cy="170.1775" r="2.57559" gradientUnits="userSpaceOnUse" id="color-8"><stop offset="0" stop-color="#56fff7"></stop><stop offset="1" stop-color="#56fff7" stop-opacity="0"></stop></radialGradient><radialGradient cx="244.80127" cy="170.29566" r="1.43623" gradientUnits="userSpaceOnUse" id="color-9"><stop offset="0" stop-color="#56fff7"></stop><stop offset="1" stop-color="#56fff7" stop-opacity="0"></stop></radialGradient><radialGradient cx="244.67109" cy="171.71874" r="1.23106" gradientUnits="userSpaceOnUse" id="color-10"><stop offset="0" stop-color="#56fff7"></stop><stop offset="1" stop-color="#56fff7" stop-opacity="0"></stop></radialGradient><radialGradient cx="236.62804" cy="172.97151" r="2.55212" gradientUnits="userSpaceOnUse" id="color-11"><stop offset="0" stop-color="#56fff7"></stop><stop offset="1" stop-color="#56fff7" stop-opacity="0"></stop></radialGradient><radialGradient cx="247.64048" cy="175.70139" r="2.75274" gradientUnits="userSpaceOnUse" id="color-12"><stop offset="0" stop-color="#56fff7"></stop><stop offset="1" stop-color="#56fff7" stop-opacity="0"></stop></radialGradient><radialGradient cx="238.9238" cy="182.93077" r="3.83972" gradientUnits="userSpaceOnUse" id="color-13"><stop offset="0" stop-color="#56fff7"></stop><stop offset="1" stop-color="#56fff7" stop-opacity="0"></stop></radialGradient><radialGradient cx="238.05064" cy="192.36946" r="2.93108" gradientUnits="userSpaceOnUse" id="color-14"><stop offset="0" stop-color="#56fff7"></stop><stop offset="1" stop-color="#56fff7" stop-opacity="0"></stop></radialGradient></defs><g transform="translate(-226.5466,-165.70406)"><g data-paper-data="{&quot;isPaintingLayer&quot;:true}" fill-rule="nonzero" stroke-linejoin="miter" stroke-miterlimit="10" stroke-dasharray="" stroke-dashoffset="0" style="mix-blend-mode: normal"><g><path d="M252.02694,186.35836c-3.31811,5.57924 -11.36548,6.91587 -17.97432,2.98544c-6.60883,-3.93043 -9.27648,-11.63954 -5.95837,-17.21878c3.31811,-5.57924 11.36548,-6.91587 17.97432,-2.98544c6.60883,3.93043 9.27648,11.63954 5.95837,17.21878z" fill="url(#color-1)" stroke="url(#color-2)" stroke-width="0" stroke-linecap="butt"></path><path d="M251.90575,186.21808c-3.31811,5.57924 -11.36548,6.91587 -17.97432,2.98544c-6.60883,-3.93043 -9.27648,-11.63953 -5.95837,-17.21878c3.31811,-5.57924 11.36548,-6.91587 17.97431,-2.98544c6.60883,3.93043 9.27648,11.63954 5.95837,17.21879z" fill="url(#color-3)" stroke="url(#color-4)" stroke-width="0" stroke-linecap="butt"></path><g><g><path d="M234.25696,192.24384c0,0 -1.54038,-0.82323 -1.2758,-1.85412c0.05927,-0.23097 1.52463,0.05781 1.60299,-0.21207c1.4078,-4.8491 4.32568,-16.18398 5.31798,-20.84984c0.19336,-0.90923 -0.60008,-1.72781 -0.51973,-2.05724c0.11107,-0.45534 1.15748,-0.78525 1.15748,-0.78525c0,0 0.82607,0.48607 1.46566,0.27023c0.23574,-0.07956 0.35838,-0.3135 0.59246,-0.47201c0.35973,-0.24361 0.80993,-0.41183 0.99101,-0.36908c0.31147,0.07351 0.54193,0.45524 0.75078,0.8987c0.1698,0.36055 0.30951,0.77216 0.5944,1.00925c0.15554,0.12946 0.27239,-0.0507 0.44435,-0.03436c0.43649,0.04148 0.90806,0.05367 0.90806,0.05367c0,0 1.12641,0.84468 0.98183,1.43741c-0.02894,0.11863 -1.15215,0.4081 -1.20069,0.58881c-0.83735,3.11795 -4.16791,15.57087 -5.4324,21.39209c-0.09338,0.42988 1.41849,1.19469 1.3307,1.54144c-0.30448,1.2028 -1.96238,0.79875 -1.96238,0.79875c0,0 -0.29246,-0.1216 -0.70338,-0.25171c-0.23729,-0.07514 -0.53507,-0.23809 -0.78471,-0.16303c-0.63265,0.19026 -1.12544,1.21111 -1.58614,1.10237c-0.20571,-0.04856 -0.41981,-0.06217 -0.5824,-0.40166c-0.12109,-0.25284 -0.18508,-0.81478 -0.34823,-1.02043c-0.04487,-0.05655 -0.08704,-0.17628 -0.13797,-0.21854c-0.27791,-0.23062 -0.71643,-0.08288 -0.99839,-0.13135c-0.40141,-0.069 -0.6055,-0.27206 -0.6055,-0.27206z" fill="url(#color-5)" stroke="#000000" stroke-width="0" stroke-linecap="butt"></path><path d="M233.30482,192.04009c0,0 -1.54038,-0.82323 -1.2758,-1.85412c0.05927,-0.23097 1.52463,0.05781 1.60299,-0.21207c1.4078,-4.8491 4.32568,-16.18398 5.31798,-20.84984c0.19336,-0.90923 -0.60008,-1.72781 -0.51973,-2.05724c0.11107,-0.45534 1.15748,-0.78525 1.15748,-0.78525c0,0 0.82607,0.48607 1.46565,0.27023c0.23574,-0.07956 0.35838,-0.3135 0.59246,-0.47201c0.35973,-0.24361 0.80993,-0.41182 0.99101,-0.36908c0.31147,0.07351 0.54193,0.45524 0.75078,0.8987c0.1698,0.36055 0.30951,0.77216 0.5944,1.00925c0.15554,0.12946 0.27239,-0.0507 0.44435,-0.03436c0.43649,0.04148 0.90806,0.05367 0.90806,0.05367c0,0 1.12641,0.84467 0.98183,1.43741c-0.02894,0.11863 -1.15215,0.4081 -1.20068,0.58881c-0.83735,3.11795 -4.16791,15.57087 -5.4324,21.39209c-0.09338,0.42988 1.41848,1.1947 1.3307,1.54144c-0.30448,1.2028 -1.96238,0.79876 -1.96238,0.79876c0,0 -0.29246,-0.1216 -0.70338,-0.25171c-0.23729,-0.07514 -0.53507,-0.23809 -0.78471,-0.16303c-0.63265,0.19026 -1.12544,1.21111 -1.58614,1.10237c-0.20571,-0.04856 -0.41981,-0.06217 -0.5824,-0.40166c-0.12109,-0.25284 -0.18508,-0.81478 -0.34823,-1.02043c-0.04487,-0.05655 -0.08704,-0.17628 -0.13796,-0.21854c-0.27791,-0.23062 -0.71643,-0.08287 -0.99839,-0.13134c-0.40141,-0.069 -0.6055,-0.27206 -0.6055,-0.27206z" fill="url(#color-6)" stroke="#000000" stroke-width="0" stroke-linecap="butt"></path><path d="M241.74279,168.51113l-1.62913,-0.38888" fill="none" stroke="#a75900" stroke-width="0.5" stroke-linecap="round"></path><path d="M242.041,167.52845l1.05785,0.26662" fill="none" stroke="#a75900" stroke-width="0.5" stroke-linecap="round"></path><path d="M239.79786,167.20945l-0.80372,-0.33299" fill="none" stroke="#a75900" stroke-width="0.5" stroke-linecap="round"></path><path d="M244.16204,170.81994l-1.17442,-0.19094" fill="none" stroke="#a75900" stroke-width="0.5" stroke-linecap="round"></path><path d="M238.53926,172.33361l0.69801,0.27011" fill="none" stroke="#a75900" stroke-width="0.5" stroke-linecap="round"></path><path d="M241.00328,173.36401l1.16357,0.32949" fill="none" stroke="#a75900" stroke-width="0.5" stroke-linecap="round"></path><path d="M238.63464,177.82802l1.53358,0.54954" fill="none" stroke="#a75900" stroke-width="0.5" stroke-linecap="round"></path><path d="M240.43714,181.65512l-0.43371,-0.11294" fill="none" stroke="#a75900" stroke-width="0.5" stroke-linecap="round"></path><path d="M238.41649,175.66821l0.70886,0.13157" fill="none" stroke="#a75900" stroke-width="0.5" stroke-linecap="round"></path><path d="M242.43648,176.60895l-0.69801,-0.27011" fill="none" stroke="#a75900" stroke-width="0.5" stroke-linecap="round"></path><path d="M238.4177,180.59911l-1.0897,-0.21306" fill="none" stroke="#a75900" stroke-width="0.5" stroke-linecap="round"></path><path d="M238.39857,185.0829l-2.25259,-0.90465" fill="none" stroke="#a75900" stroke-width="0.5" stroke-linecap="round"></path><path d="M240.12603,183.86268l-0.89928,-0.17231" fill="none" stroke="#a75900" stroke-width="0.5" stroke-linecap="round"></path><path d="M236.57161,182.98132l0.68716,0.40866" fill="none" stroke="#a75900" stroke-width="0.5" stroke-linecap="round"></path><path d="M235.85311,187.91918l0.698,0.27012" fill="none" stroke="#a75900" stroke-width="0.5" stroke-linecap="round"></path><path d="M240.02082,189.09278l-0.88844,-0.31087" fill="none" stroke="#a75900" stroke-width="0.5" stroke-linecap="round"></path><path d="M236.26168,190.11976l-0.71901,-0.3551" fill="none" stroke="#a75900" stroke-width="0.5" stroke-linecap="round"></path><path d="M238.006,191.15713l-0.50757,-0.22936" fill="none" stroke="#a75900" stroke-width="0.5" stroke-linecap="round"></path><path d="M237.9132,189.8694l0.40186,0.16649" fill="none" stroke="#a75900" stroke-width="0.5" stroke-linecap="round"></path><path d="M234.16422,191.11993l-0.82473,-0.41798" fill="none" stroke="#a75900" stroke-width="0.5" stroke-linecap="round"></path><path d="M236.23515,192.93159l-0.31715,-0.18861" fill="none" stroke="#a75900" stroke-width="0.5" stroke-linecap="round"></path><path d="M245.40154,170.17956l0.50758,0.22936" fill="none" stroke="#703c00" stroke-width="0.5" stroke-linecap="round"></path><path d="M244.37021,167.10111l-0.33816,-0.27361" fill="none" stroke="#703c00" stroke-width="0.5" stroke-linecap="round"></path><path d="M237.63444,193.60668l-0.37362,-0.17387" fill="none" stroke="#703c00" stroke-width="0.5" stroke-linecap="round"></path><path d="M241.2691,193.10986l0.43733,0.06675" fill="none" stroke="#703c00" stroke-width="0.5" stroke-linecap="round"></path><path d="M240.27116,191.01798l0.33838,0.15291" fill="none" stroke="#703c00" stroke-width="0.5" stroke-linecap="round"></path><path d="M241.27967,187.55761l-0.2679,-0.111" fill="none" stroke="#703c00" stroke-width="0.5" stroke-linecap="round"></path><path d="M242.32846,181.4628l0.23267,0.09004" fill="none" stroke="#703c00" stroke-width="0.5" stroke-linecap="round"></path><path d="M243.32434,177.22156l0.63476,0.13583" fill="none" stroke="#703c00" stroke-width="0.5" stroke-linecap="round"></path><path d="M243.44899,178.45574l-0.32438,-0.09624" fill="none" stroke="#703c00" stroke-width="0.5" stroke-linecap="round"></path><path d="M244.80586,173.6075l-0.35962,-0.11721" fill="none" stroke="#703c00" stroke-width="0.5" stroke-linecap="round"></path><path d="M246.60053,168.58461l0.47256,0.08771" fill="none" stroke="#703c00" stroke-width="0.5" stroke-linecap="round"></path><path d="M246.77579,169.17222l0.32438,0.09624" fill="none" stroke="#703c00" stroke-width="0.5" stroke-linecap="round"></path><path d="M243.6206,166.1357l0.40163,0.28719" fill="none" stroke="#703c00" stroke-width="0.5" stroke-linecap="round"></path></g><g><g stroke="#000000" stroke-width="0" stroke-linecap="butt"><path d="M250.26046,178.67537c0,0 -0.59844,1.1603 -1.33736,0.98653c-0.16555,-0.03893 0.04878,-1.13197 -0.14462,-1.1842c-3.47497,-0.93851 -11.59959,-2.85576 -14.94497,-3.49012c-0.65191,-0.12362 -1.24345,0.48266 -1.47959,0.43022c-0.3264,-0.07246 -0.55829,-0.84133 -0.55829,-0.84133c0,0 0.35295,-0.62322 0.20103,-1.09286c-0.05599,-0.17311 -0.22339,-0.25896 -0.33608,-0.4291c-0.1732,-0.26149 -0.29184,-0.5917 -0.26028,-0.72694c0.05427,-0.23258 0.32945,-0.41182 0.64886,-0.57636c0.25968,-0.13378 0.55589,-0.24635 0.72749,-0.46279c0.09369,-0.11817 -0.0351,-0.2009 -0.02256,-0.32879c0.03186,-0.32462 0.04287,-0.67461 0.04287,-0.67461c0,0 0.61185,-0.85376 1.03675,-0.75944c0.08504,0.01887 0.28752,0.84558 0.41704,0.87765c2.23472,0.55313 11.16012,2.7521 15.33376,3.56317c0.3082,0.05989 0.86456,-1.07799 1.11311,-1.02044c0.86217,0.19963 0.56415,1.43797 0.56415,1.43797c0,0 -0.0887,0.21954 -0.18409,0.52713c-0.05508,0.17761 -0.17351,0.40201 -0.1208,0.58552c0.13359,0.46504 0.86421,0.80829 0.78394,1.15233c-0.03584,0.15361 -0.04664,0.3127 -0.29117,0.44066c-0.18212,0.0953 -0.5859,0.155 -0.73434,0.28047c-0.04081,0.03451 -0.12698,0.06839 -0.15756,0.10707c-0.16691,0.21112 -0.06292,0.53313 -0.09906,0.74329c-0.05145,0.2992 -0.19823,0.45497 -0.19823,0.45497z" fill="#ad907c"></path><path d="M249.91248,177.87355c0,0 -0.59844,1.1603 -1.33735,0.98654c-0.16555,-0.03893 0.04878,-1.13197 -0.14462,-1.1842c-3.47497,-0.93851 -11.59959,-2.85576 -14.94497,-3.49012c-0.65191,-0.12362 -1.24345,0.48265 -1.47959,0.43022c-0.3264,-0.07246 -0.55829,-0.84133 -0.55829,-0.84133c0,0 0.35295,-0.62322 0.20103,-1.09286c-0.05599,-0.17311 -0.22339,-0.25896 -0.33608,-0.4291c-0.1732,-0.26149 -0.29183,-0.59171 -0.26027,-0.72694c0.05427,-0.23258 0.32945,-0.41182 0.64886,-0.57636c0.25968,-0.13378 0.55589,-0.24634 0.72749,-0.46278c0.09369,-0.11817 -0.0351,-0.2009 -0.02256,-0.32879c0.03186,-0.32462 0.04287,-0.6746 0.04287,-0.6746c0,0 0.61185,-0.85376 1.03675,-0.75944c0.08504,0.01887 0.28752,0.84558 0.41704,0.87765c2.23472,0.55313 11.16012,2.7521 15.33376,3.56317c0.3082,0.05989 0.86456,-1.07799 1.11311,-1.02044c0.86217,0.19963 0.56415,1.43797 0.56415,1.43797c0,0 -0.0887,0.21954 -0.18409,0.52713c-0.05508,0.17761 -0.17351,0.40201 -0.1208,0.58552c0.13359,0.46504 0.86422,0.80829 0.78394,1.15233c-0.03584,0.15362 -0.04664,0.3127 -0.29117,0.44066c-0.18212,0.0953 -0.5859,0.155 -0.73434,0.28047c-0.04081,0.03451 -0.12698,0.06839 -0.15756,0.10707c-0.16691,0.21112 -0.06292,0.53313 -0.09906,0.74329c-0.05145,0.2992 -0.19823,0.45497 -0.19823,0.45497z" fill="url(#color-7)"></path></g><path d="M234.77267,170.81347l1.04045,0.39753" fill="none" stroke="#a75900" stroke-width="0.5" stroke-linecap="round"></path><path d="M240.72041,172.56251l-1.26079,-0.37267" fill="none" stroke="#a75900" stroke-width="0.5" stroke-linecap="round"></path><path d="M236.14627,173.2504l-0.7936,-0.33956" fill="none" stroke="#a75900" stroke-width="0.5" stroke-linecap="round"></path><path d="M241.26404,175.40209l-0.95927,-0.28654" fill="none" stroke="#a75900" stroke-width="0.5" stroke-linecap="round"></path><path d="M241.90679,174.55709l0.68589,0.14574" fill="none" stroke="#a75900" stroke-width="0.5" stroke-linecap="round"></path><path d="M245.72554,174.93288l-0.79524,-0.20206" fill="none" stroke="#a75900" stroke-width="0.5" stroke-linecap="round"></path><path d="M247.22167,176.32606l-0.74057,-0.17389" fill="none" stroke="#a75900" stroke-width="0.5" stroke-linecap="round"></path><path d="M249.61216,174.23675l-0.63122,-0.11758" fill="none" stroke="#a75900" stroke-width="0.5" stroke-linecap="round"></path><path d="M250.66595,175.81718l-0.41088,-0.14245" fill="none" stroke="#a75900" stroke-width="0.5" stroke-linecap="round"></path><path d="M249.16341,177.25698l0.49371,0.11593" fill="none" stroke="#a75900" stroke-width="0.5" stroke-linecap="round"></path><path d="M232.20481,171.63541l0.49371,0.11593" fill="none" stroke="#a75900" stroke-width="0.5" stroke-linecap="round"></path><path d="M233.53673,170.66115l0.3562,0.11429" fill="none" stroke="#a75900" stroke-width="0.5" stroke-linecap="round"></path><path d="M232.92727,173.32189l0.5749,0.22693" fill="none" stroke="#a75900" stroke-width="0.5" stroke-linecap="round"></path><path d="M246.67312,173.899l0.60141,0.30976" fill="none" stroke="#a75900" stroke-width="0.5" stroke-linecap="round"></path><path d="M233.01852,174.89081l-0.49207,-0.25344" fill="none" stroke="#5e3200" stroke-width="0.5" stroke-linecap="round"></path><path d="M235.76538,175.19873l-1.12164,-0.50853" fill="none" stroke="#5e3200" stroke-width="0.5" stroke-linecap="round"></path><path d="M251.64514,176.73659l-0.3562,-0.11429" fill="none" stroke="#5e3200" stroke-width="0.5" stroke-linecap="round"></path><path d="M251.15291,174.20019l-0.32805,-0.16897" fill="none" stroke="#5e3200" stroke-width="0.5" stroke-linecap="round"></path><path d="M249.99688,178.86229l-0.55004,-0.00658" fill="none" stroke="#5e3200" stroke-width="0.5" stroke-linecap="round"></path><path d="M244.90233,177.06846l0.98742,0.23186" fill="none" stroke="#5e3200" stroke-width="0.5" stroke-linecap="round"></path><path d="M247.47858,177.84194l0.49371,0.11593" fill="none" stroke="#5e3200" stroke-width="0.5" stroke-linecap="round"></path><path d="M239.35887,176.0119l-0.87643,-0.31305" fill="none" stroke="#5e3200" stroke-width="0.5" stroke-linecap="round"></path><path d="M242.92748,176.60472l-0.43904,-0.08777" fill="none" stroke="#5e3200" stroke-width="0.5" stroke-linecap="round"></path></g></g><path d="M238.60435,170.15573l0.16456,-0.89155l5.0656,0.93506l-0.16456,0.89155z" fill="#dafeff" stroke="url(#color-8)" stroke-width="0.5" stroke-linecap="butt"></path><path d="M243.52285,171.06815l-0.21515,-0.79199l2.772,-0.75305l0.21515,0.792z" fill="#dafeff" stroke="url(#color-9)" stroke-width="0.5" stroke-linecap="butt"></path><path d="M243.51412,171.13109l0.58399,-0.57665l1.72994,1.75194l-0.58398,0.57665z" fill="#dafeff" stroke="url(#color-10)" stroke-width="0.5" stroke-linecap="butt"></path><path d="M234.62117,175.02071l3.25428,-4.65014l0.75944,0.55175l-3.25429,4.65016z" fill="#dafeff" stroke="url(#color-11)" stroke-width="0.5" stroke-linecap="butt"></path><path d="M248.07114,178.76496l-1.8326,-5.84123l0.97129,-0.28595l1.8326,5.84123z" fill="#dafeff" stroke="url(#color-12)" stroke-width="0.5" stroke-linecap="butt"></path><path d="M235.39887,181.34594l0.44947,-0.75577l6.60038,3.9254l-0.44947,0.75577z" fill="#dafeff" stroke="url(#color-13)" stroke-width="0.5" stroke-linecap="butt"></path><path d="M235.48565,193.83821l-0.29027,-0.70464l5.42027,-2.23288l0.29027,0.70464z" fill="#dafeff" stroke="url(#color-14)" stroke-width="0.5" stroke-linecap="butt"></path></g></g></g></svg>