<svg version="1.1" xmlns="http://www.w3.org/2000/svg" xmlns:xlink="http://www.w3.org/1999/xlink" width="40.02557" height="10.36003" viewBox="0,0,40.02557,10.36003"><defs><linearGradient x1="202.18972" y1="167.51395" x2="204.15782" y2="167.51395" gradientUnits="userSpaceOnUse" id="color-1"><stop offset="0" stop-color="#baa2a2"></stop><stop offset="1" stop-color="#646464"></stop></linearGradient><linearGradient x1="203.75477" y1="163.36356" x2="204.40564" y2="163.60199" gradientUnits="userSpaceOnUse" id="color-2"><stop offset="0" stop-color="#baa2a2"></stop><stop offset="1" stop-color="#646464"></stop></linearGradient></defs><g transform="translate(-199.94129,-160.71579)"><g data-paper-data="{&quot;isPaintingLayer&quot;:true}" fill-rule="nonzero" stroke-linejoin="miter" stroke-miterlimit="10" stroke-dasharray="" stroke-dashoffset="0" style="mix-blend-mode: normal"><path d="M200.06629,169.40039c0,-2.10068 0,-5.72647 0,-6.92472c0,-0.7573 1.25383,-1.63488 2.64627,-1.63488c4.28492,0 26.58863,0 34.41308,0c1.69976,0 2.71622,0.6086 2.71622,1.50821c0,2.1198 0,5.85537 0,7.05139c0,0.72504 -1.04447,1.55043 -2.78615,1.55043c-7.86787,0 -29.96355,0 -34.27319,0c-1.42502,0 -2.71622,-0.62826 -2.71622,-1.55043z" fill="#301c00" stroke="#fff4ce" stroke-width="0.25" stroke-linecap="butt"></path><text transform="translate(208.13882,165.73741) scale(0.07065,0.10564)" font-size="40" xml:space="preserve" fill="#e3bba8" fill-rule="nonzero" stroke="none" stroke-width="1" stroke-linecap="butt" stroke-linejoin="miter" stroke-miterlimit="10" stroke-dasharray="" stroke-dashoffset="0" font-family="Sans Serif" font-weight="normal" text-anchor="start" style="mix-blend-mode: normal"><tspan x="0" dy="0">Lockpick</tspan></text><text transform="translate(233.06387,168.14601) scale(0.09734,0.13713)" font-size="40" xml:space="preserve" fill="#dab7b1" fill-rule="nonzero" stroke="none" stroke-width="1" stroke-linecap="butt" stroke-linejoin="miter" stroke-miterlimit="10" stroke-dasharray="" stroke-dashoffset="0" font-family="Sans Serif" font-weight="normal" text-anchor="start" style="mix-blend-mode: normal"><tspan x="0" dy="0">5O</tspan></text><text transform="translate(208.13128,169.05451) scale(0.03969,0.03969)" font-size="40" xml:space="preserve" fill="#dab7b1" fill-rule="nonzero" stroke="none" stroke-width="1" stroke-linecap="butt" stroke-linejoin="miter" stroke-miterlimit="10" stroke-dasharray="" stroke-dashoffset="0" font-family="&quot;Microsoft YaHei&quot;, &quot;微软雅黑&quot;, STXihei, &quot;华文细黑&quot;" font-weight="normal" text-anchor="start" style="mix-blend-mode: normal"><tspan x="0" dy="0">Skip the key and open chests.</tspan></text><g stroke-width="0.5"><g stroke="none" stroke-linecap="butt"><path d="M202.18972,169.64304l0.67918,-4.72089c0,0 0.35659,-0.08624 0.54518,-0.01235c0.23199,0.09089 0.74374,0.51732 0.74374,0.51732l-0.67918,4.72089z" fill="url(#color-1)"></path><path d="M203.10367,165.1409l1.30221,-3.5547l2.03717,0.66499c0,0 -1.54101,-0.45214 -1.88417,-0.05288c-0.49567,0.57671 -0.80436,3.18101 -0.80436,3.18101z" fill="url(#color-2)"></path></g><g><path d="M204.99256,169.61952l-3.11419,-5.96145l0.55198,-0.28835l3.11419,5.96145z" fill="#c1c1c1" stroke="none" stroke-linecap="butt"></path><path d="M201.80252,163.76663l-0.19751,-0.45739l2.45847,-1.06161l0.19751,0.45739z" fill="#c1c1c1" stroke="none" stroke-linecap="butt"></path><path d="M204.51172,162.35244c0.07465,0.24692 0.04175,0.47533 -0.07348,0.51017c-0.11523,0.03484 -0.26916,-0.13709 -0.34381,-0.38401c-0.07465,-0.24692 -0.04175,-0.47533 0.07347,-0.51017c0.11523,-0.03484 0.26916,0.13709 0.34381,0.38401z" fill="#c1c1c1" stroke="none" stroke-linecap="butt"></path><path d="M204.80573,169.49496l-2.11777,-4.90275l-0.44443,-1.34705l2.05549,3.84406z" fill="#9d9d9d" stroke="none" stroke-linecap="butt"></path><path d="M203.27552,165.24909l0.31138,1.61919" fill="none" stroke="#ffffff" stroke-linecap="round"></path></g></g><text transform="translate(205.92438,169.62784) scale(0.03299,0.04647)" font-size="40" xml:space="preserve" fill="#dab7b1" fill-rule="nonzero" stroke="none" stroke-width="1" stroke-linecap="butt" stroke-linejoin="miter" stroke-miterlimit="10" stroke-dasharray="" stroke-dashoffset="0" font-family="Sans Serif" font-weight="normal" text-anchor="start" style="mix-blend-mode: normal"><tspan x="0" dy="0">x2</tspan></text></g></g></svg>