<svg version="1.1" xmlns="http://www.w3.org/2000/svg" xmlns:xlink="http://www.w3.org/1999/xlink" width="11.99454" height="25.76604" viewBox="0,0,11.99454,25.76604"><defs><radialGradient cx="238.52701" cy="193.10437" r="1.64806" gradientUnits="userSpaceOnUse" id="color-1"><stop offset="0" stop-color="#fff892"></stop><stop offset="1" stop-color="#fff892" stop-opacity="0"></stop></radialGradient><linearGradient x1="238.4652" y1="195.63669" x2="238.4652" y2="196.87275" gradientUnits="userSpaceOnUse" id="color-2"><stop offset="0" stop-color="#1a1a1a"></stop><stop offset="1" stop-color="#bbbbbb"></stop></linearGradient><linearGradient x1="233.93302" y1="198.66501" x2="242.75017" y2="198.66501" gradientUnits="userSpaceOnUse" id="color-3"><stop offset="0" stop-color="#dadada"></stop><stop offset="1" stop-color="#999999"></stop></linearGradient><linearGradient x1="233.77297" y1="194.64339" x2="233.77297" y2="197.45161" gradientUnits="userSpaceOnUse" id="color-4"><stop offset="0" stop-color="#363636"></stop><stop offset="1" stop-color="#bfbfbf"></stop></linearGradient><linearGradient x1="242.97185" y1="194.64339" x2="242.97185" y2="197.45161" gradientUnits="userSpaceOnUse" id="color-5"><stop offset="0" stop-color="#363636"></stop><stop offset="1" stop-color="#bfbfbf"></stop></linearGradient><linearGradient x1="233.28171" y1="186.92696" x2="234.8981" y2="184.6306" gradientUnits="userSpaceOnUse" id="color-6"><stop offset="0" stop-color="#363636"></stop><stop offset="1" stop-color="#787878"></stop></linearGradient><linearGradient x1="243.24217" y1="186.87629" x2="241.62577" y2="184.57992" gradientUnits="userSpaceOnUse" id="color-7"><stop offset="0" stop-color="#363636"></stop><stop offset="1" stop-color="#787878"></stop></linearGradient><linearGradient x1="238.27346" y1="183.55417" x2="238.27346" y2="184.44159" gradientUnits="userSpaceOnUse" id="color-8"><stop offset="0" stop-color="#adadad"></stop><stop offset="1" stop-color="#787878"></stop></linearGradient></defs><g transform="translate(-232.50251,-174.07322)"><g data-paper-data="{&quot;isPaintingLayer&quot;:true}" fill-rule="nonzero" stroke-linejoin="miter" stroke-miterlimit="10" stroke-dasharray="" stroke-dashoffset="0" style="mix-blend-mode: normal"><path d="M232.60031,195.11254l-0.06339,-9.03266h1.04589v8.65234z" fill="#454545" stroke="none" stroke-width="0.15" stroke-linecap="butt"></path><text transform="translate(235.81457,198.79425) scale(0.0549,0.0549)" font-size="40" xml:space="preserve" fill="#009d9d" fill-rule="nonzero" stroke="none" stroke-width="0.3" stroke-linecap="butt" stroke-linejoin="miter" stroke-miterlimit="10" stroke-dasharray="" stroke-dashoffset="0" font-family="Serif" font-weight="normal" text-anchor="start" style="mix-blend-mode: normal"><tspan x="0" dy="0">xamt8</tspan></text><path d="M233.37366,185.86637l-0.50709,-2.56718l-0.12677,-2.28193l0.4754,-2.31363l1.83823,-1.9967l1.71145,-1.26774l0.85573,-0.41202l0.50709,-0.72895l0.34863,-0.09508l0.53879,0.15847l0.25355,0.25355l0.09508,0.22186l1.10927,0.4754l0.91912,0.22185l1.29944,0.72895l0.53879,1.07758l0.44371,0.88742l0.60218,1.58468l0.09508,0.66557l-0.06339,0.79234l-0.12677,1.10928l-0.19016,1.52129l-0.41202,0.85573l-0.22185,0.60217" fill="none" stroke="#000000" stroke-width="0.25" stroke-linecap="round"></path><path d="M239.92152,183.46018v-0.9825h0.12677v0.9825z" fill="#000000" stroke="none" stroke-width="0.15" stroke-linecap="butt"></path><path d="M236.62539,183.33341v-0.9825h0.12677v0.9825z" fill="#000000" stroke="none" stroke-width="0.15" stroke-linecap="butt"></path><path d="M237.79805,183.20664v-0.76064h1.01419v0.76064z" fill="#4a4a4a" stroke="none" stroke-width="0.15" stroke-linecap="butt"></path><path d="M235.86475,185.95498v-1.61637h4.81742v1.61637z" fill="#787878" stroke="none" stroke-width="0.15" stroke-linecap="butt"></path><path d="M236.14998,186.86752v-0.82403h4.27863v0.82403z" fill="#bfbfbf" stroke="#000000" stroke-width="0.15" stroke-linecap="butt"></path><path d="M242.07668,191.14038c0,1.16018 -0.48015,3.16826 -1.06004,3.96449c-0.65808,0.90359 -1.4811,0.52015 -2.53718,0.52015c-0.67024,0 -1.96324,0.08841 -2.50046,-0.30955c-1.05517,-0.78165 -1.09676,-2.53388 -1.09676,-4.17509c0,-1.98306 0.16776,-3.69963 1.58287,-4.26729c0.35233,-0.14133 1.55493,-0.12227 1.95096,-0.12227c0.47477,0 1.312,-0.04923 1.73247,0.15083c1.339,0.63712 1.92814,2.35382 1.92814,4.23872z" fill-opacity="0.1645" fill="#ffc700" stroke="#1a1a1a" stroke-width="0.15" stroke-linecap="butt"></path><path d="M240.17507,193.10437c0,0.77017 -0.73786,1.39451 -1.64806,1.39451c-0.9102,0 -1.64806,-0.62434 -1.64806,-1.39451c0,-0.77017 0.73786,-1.39451 1.64806,-1.39451c0.9102,0 1.64806,0.62434 1.64806,1.39451z" fill="url(#color-1)" stroke="none" stroke-width="0.15" stroke-linecap="butt"></path><path d="M237.63166,195.83953v-1.11244c0,0 0.10396,-0.48118 0.36151,-0.67719c0.11231,-0.08547 0.38217,-0.14685 0.47045,-0.14685c0.12589,0 0.34422,0.05656 0.51735,0.19461c0.23469,0.18715 0.41285,0.62942 0.41285,0.62942v1.11244z" fill="#afafaf" stroke="none" stroke-width="0.15" stroke-linecap="butt"></path><path d="M236.15791,196.87275v-1.23605h4.61458v1.23605z" fill="url(#color-2)" stroke="none" stroke-width="0.15" stroke-linecap="butt"></path><path d="M233.93302,198.10879v-0.86523c0,0 2.84984,-0.70043 4.32617,-0.70043c1.49006,0 4.57338,0.70043 4.57338,0.70043v0.86523z" fill="#bbbbbb" stroke="none" stroke-width="0.15" stroke-linecap="butt"></path><path d="M233.93302,198.60321v-0.86523h8.85835v0.86523z" fill="#464646" stroke="none" stroke-width="0.15" stroke-linecap="butt"></path><path d="M233.89182,199.38604v-0.53562h8.85835v0.53562c0,0 -2.87421,0.45322 -4.36737,0.45322c-1.45883,0 -4.49098,-0.45322 -4.49098,-0.45322z" fill="#464646" stroke="none" stroke-width="0.15" stroke-linecap="butt"></path><path d="M233.93302,199.26243v-1.19485h8.81715v1.19485z" fill="url(#color-3)" stroke="none" stroke-width="0.15" stroke-linecap="butt"></path><path d="M235.78709,195.8427v-0.61802c0,0 1.49699,0.28841 2.38969,0.28841c0.8927,0 2.96651,-0.28841 2.96651,-0.28841v0.61802c0,0 -1.74793,0.20601 -2.5957,0.20601c-0.93,0 -2.76051,-0.20601 -2.76051,-0.20601z" fill="#1a1a1a" stroke="none" stroke-width="0.15" stroke-linecap="butt"></path><path d="M239.0334,193.12683c0,0.44091 -0.29145,0.79834 -0.53735,0.79834c-0.2459,0 -0.56805,-0.35743 -0.56805,-0.79834c0,-0.22347 0.24248,-0.55959 0.30166,-0.83676c0.05759,-0.2697 0.05301,-0.48358 0.17428,-0.48358c0.08734,0 0.14974,0.17238 0.23348,0.33525c0.152,0.29562 0.39599,0.7008 0.39599,0.98509z" fill="#fff4ce" stroke="none" stroke-width="0.15" stroke-linecap="butt"></path><path d="M236.0866,194.61084l-0.34863,-0.79234l-0.53879,-2.4404l0.25355,-2.63057" fill="none" stroke="#000000" stroke-width="0.15" stroke-linecap="round"></path><path d="M240.20677,187.38469l0.38032,0.34863l0.38032,0.88742l0.15847,0.15847" fill="none" stroke="#000000" stroke-width="0.15" stroke-linecap="round"></path><path d="M241.47451,189.31801v0.22185" fill="none" stroke="#000000" stroke-width="0.15" stroke-linecap="round"></path><path d="M241.69636,190.3322l0.06339,0.31694" fill="none" stroke="#000000" stroke-width="0.15" stroke-linecap="round"></path><path d="M235.67459,188.01856l0.15847,-0.38032" fill="none" stroke="#000000" stroke-width="0.15" stroke-linecap="round"></path><path d="M234.03131,197.45161c0,0 -0.75338,-0.46588 -0.94017,-0.8737c-0.18714,-0.4086 -0.49857,-1.60726 -0.49857,-1.60726l0.95377,-0.32725c0,0 0.23745,0.7519 0.40697,1.12203c0.1995,0.43559 1.00007,1.26385 1.00007,1.26385z" data-paper-data="{&quot;index&quot;:null}" fill="url(#color-4)" stroke="#000000" stroke-width="0.15" stroke-linecap="butt"></path><path d="M241.79144,197.02928c0,0 0.80056,-0.82826 1.00007,-1.26385c0.16952,-0.37013 0.40697,-1.12203 0.40697,-1.12203l0.95377,0.32725c0,0 -0.31143,1.19866 -0.49857,1.60726c-0.1868,0.40783 -0.94017,0.8737 -0.94017,0.8737z" data-paper-data="{&quot;index&quot;:null}" fill="url(#color-5)" stroke="#000000" stroke-width="0" stroke-linecap="butt"></path><path d="M243.16201,194.73222v-8.65234h1.04589l-0.06339,9.03266z" data-paper-data="{&quot;index&quot;:null}" fill="#454545" stroke="none" stroke-width="0.15" stroke-linecap="butt"></path><path d="M235.07241,186.367v-0.41202c0,0 2.1129,-0.31694 3.20105,-0.31694c1.08814,0 3.32782,0.31694 3.32782,0.31694v0.41202c0,0 -2.19763,-0.28524 -3.29613,-0.28524c-1.07738,0 -3.23274,0.28524 -3.23274,0.28524z" fill="#464646" stroke="none" stroke-width="0.15" stroke-linecap="butt"></path><path d="M235.9689,185.40185c0,0 -1.48003,0.47004 -1.89389,0.71141c-0.35167,0.20509 -0.97863,0.68327 -0.97863,0.68327l-0.59157,-0.81659c0,0 0.94461,-0.80093 1.33283,-1.02734c0.38749,-0.22598 2.00067,-0.55362 2.00067,-0.55362z" data-paper-data="{&quot;index&quot;:null}" fill="url(#color-6)" stroke="#000000" stroke-width="0" stroke-linecap="butt"></path><path d="M240.68557,184.3483c0,0 1.61317,0.32764 2.00067,0.55362c0.38822,0.2264 1.4913,1.02734 1.4913,1.02734l-0.75004,0.81659c0,0 -0.62696,-0.47818 -0.97863,-0.68327c-0.41386,-0.24136 -1.89389,-0.71141 -1.89389,-0.71141z" data-paper-data="{&quot;index&quot;:null}" fill="url(#color-7)" stroke="#000000" stroke-width="0" stroke-linecap="butt"></path><path d="M235.89644,184.44159v-0.88742c0,0 1.43792,-0.50709 2.25024,-0.50709c0.7701,0 2.50379,0.50709 2.50379,0.50709v0.88742z" fill="url(#color-8)" stroke="none" stroke-width="0.15" stroke-linecap="butt"></path><path d="M235.92814,182.54106v-0.2985c0,0 0.91667,-0.04953 1.51606,-0.2993c0.41472,-0.17282 0.47928,-0.57487 0.79756,-0.57487c0.33405,0 0.65096,0.40263 1.09574,0.5759c0.64068,0.24958 1.37636,0.29827 1.37636,0.29827v0.2985z" fill="#4a4a4a" stroke="none" stroke-width="0.15" stroke-linecap="butt"></path></g></g></svg>