<svg version="1.1" xmlns="http://www.w3.org/2000/svg" xmlns:xlink="http://www.w3.org/1999/xlink" width="104.14633" height="32.46795" viewBox="0,0,104.14633,32.46795"><g transform="translate(-122.85946,-262.26605)"><g data-paper-data="{&quot;isPaintingLayer&quot;:true}" fill-rule="nonzero" stroke-linejoin="miter" stroke-miterlimit="10" stroke-dasharray="" stroke-dashoffset="0" style="mix-blend-mode: normal"><text transform="translate(158.16667,285.00002) scale(0.5,0.5)" font-size="40" xml:space="preserve" fill="#9966ff" fill-rule="nonzero" stroke="none" stroke-width="1" stroke-linecap="butt" stroke-linejoin="miter" stroke-miterlimit="10" stroke-dasharray="" stroke-dashoffset="0" font-family="Serif" font-weight="normal" text-anchor="start" style="mix-blend-mode: normal"><tspan x="0" dy="0">xamt8</tspan></text><path d="M123.85949,289.06156c0,-6.33069 0,-17.2575 0,-20.86857c0,-2.28224 3.21989,-4.92694 6.79577,-4.92694c11.004,0 68.28142,0 88.37512,0c4.36507,0 6.97541,1.8341 6.97541,4.54519c0,6.38829 0,17.64596 0,21.25032c0,2.18502 -2.68227,4.67244 -7.15504,4.67244c-20.20524,0 -76.94844,0 -88.01588,0c-3.65954,0 -6.97541,-1.89337 -6.97541,-4.67244z" fill-opacity="0.62097" fill="#291800" stroke="#d84646" stroke-width="2" stroke-linecap="butt"></path><g fill="#ff7a7a"><text transform="translate(161.83298,285.91892) scale(0.58039,0.58039)" font-size="40" xml:space="preserve" fill="#ff7a7a" fill-rule="nonzero" stroke="none" stroke-width="1" stroke-linecap="butt" stroke-linejoin="miter" stroke-miterlimit="10" stroke-dasharray="" stroke-dashoffset="0" font-family="Serif" font-weight="normal" text-anchor="start" style="mix-blend-mode: normal"><tspan x="0" dy="0">Items</tspan></text><path d="M142.71258,287.09087l1.08753,0.14953l6.92555,3.37407c0,0 1.4499,-0.36421 1.43659,-0.16181c-0.00701,0.10653 2.44309,-0.39572 2.12682,-0.17128c-0.14034,0.09959 -3.63637,1.44222 -3.63637,1.44222c0,0 -6.35355,-3.1444 -7.55415,-3.8449c-0.40611,-0.23695 -0.38599,-0.78783 -0.38599,-0.78783z" stroke="#d84646" stroke-width="0" stroke-linecap="butt"></path><text transform="translate(147.31546,276.03131) scale(0.0521,0.0521)" font-size="40" xml:space="preserve" fill="#ff7a7a" fill-rule="nonzero" stroke="#d84646" stroke-width="1" stroke-linecap="butt" stroke-linejoin="miter" stroke-miterlimit="10" stroke-dasharray="" stroke-dashoffset="0" font-family="Sans Serif" font-weight="normal" text-anchor="start" style="mix-blend-mode: normal"><tspan x="0" dy="0">xAmt8</tspan></text><path d="M152.89123,272.28838c0,1.22267 -0.74914,2.21384 -1.67325,2.21384c-0.92411,0 -1.67325,-0.99118 -1.67325,-2.21384c0,-1.22267 0.74914,-2.21383 1.67325,-2.21383c0.92411,0 1.67325,0.99117 1.67325,2.21383z" stroke="#d84646" stroke-width="0" stroke-linecap="butt"></path><path d="M142.70191,286.38179l2.86258,-8.26946l8.05948,1.00725c0,0 0.27558,1.05441 0.09206,1.72417c-0.50053,1.8267 -3.26682,9.86216 -3.26682,9.86216c0,0 -6.43432,-2.60667 -7.42424,-3.15919c-0.25417,-0.14186 -0.32305,-1.16494 -0.32305,-1.16494z" stroke="#d84646" stroke-width="0" stroke-linecap="butt"></path><path d="M154.50693,288.55329l0.42461,-9.66816l1.28656,-0.02497c0,0 -0.31967,5.46261 -0.39732,7.23076c-0.04461,1.01559 -0.10534,2.51544 -0.10534,2.51544c0,0 -1.01611,1.15827 -1.53356,1.66403c-0.14567,0.14238 -0.25182,0.23305 -0.28465,0.23161c-0.22309,-0.0098 0.60969,-1.94872 0.60969,-1.94872z" stroke="#d84646" stroke-width="0" stroke-linecap="butt"></path><path d="M150.43743,290.66493l2.96815,-11.76791l2.16035,0.38794l-1.05607,9.23147c0,0 0.05179,1.36865 -0.49276,1.8397c-0.03836,0.03319 -0.07969,0.06193 -0.1242,0.08541c-0.68113,0.35935 -3.45547,0.22339 -3.45547,0.22339z" stroke="#d84646" stroke-width="0" stroke-linecap="butt"></path><path d="M145.56962,278.07276l0.24985,-2.21018l8.44878,0.83496l1.91138,1.55704l0.18723,0.58861c0,0 -0.75769,0.20824 -0.77385,0.27269c-0.05338,0.21302 0.20885,0.64607 0.20885,0.64607l-2.48586,-0.54205l-7.06724,-0.33335z" stroke="#d84646" stroke-width="0" stroke-linecap="butt"></path><path d="M145.52601,276.92159l-0.88449,-1.86949l3.73898,-1.76899l0.88449,1.8695z" stroke="#d84646" stroke-width="0.5" stroke-linecap="butt"></path><path d="M153.21191,275.58573c0,-0.85128 0.69009,-1.54137 1.54137,-1.54137c0.36226,0 0.69534,0.12497 0.95846,0.33415c0.35519,0.28237 0.58292,0.7182 0.58292,1.20722c0,0.85128 -0.6901,1.54137 -1.54137,1.54137c-0.85128,0 -1.54137,-0.6901 -1.54137,-1.54137z" stroke="#d84646" stroke-width="0" stroke-linecap="butt"></path><path d="M153.00169,275.45355c0,-0.85128 0.6901,-1.54137 1.54137,-1.54137c0.85128,0 1.54137,0.6901 1.54137,1.54137c0,0.85128 -0.6901,1.54137 -1.54137,1.54137c-0.85128,0 -1.54137,-0.69009 -1.54137,-1.54137z" stroke="#d84646" stroke-width="0" stroke-linecap="butt"></path><text transform="translate(146.69976,267.43094) rotate(-79.7192) scale(0.02597,0.02597)" font-size="40" xml:space="preserve" fill="#ff7a7a" fill-rule="nonzero" stroke="#d84646" stroke-width="1" stroke-linecap="butt" stroke-linejoin="miter" stroke-miterlimit="10" stroke-dasharray="" stroke-dashoffset="0" font-family="Sans Serif" font-weight="normal" text-anchor="start" style="mix-blend-mode: normal"><tspan x="0" dy="0">xAmt8</tspan></text><path d="M150.50257,274.2774l-0.0348,-0.55675c0,0 0.86432,-0.15169 1.42962,-0.18702c0.36564,-0.02285 1.6325,-0.00436 1.6325,-0.00436l0.0348,0.55675z" stroke="#d84646" stroke-width="0" stroke-linecap="butt"></path><path d="M144.95111,275.37236l0.96638,-9.26845l3.07241,0.32035l-0.60598,9.26845z" stroke="#d84646" stroke-width="0" stroke-linecap="butt"></path><path d="M146.04575,266.54361l0.10144,-1.31409l1.00515,-1.30948l1.59723,0.92914l0.35769,1.82364c0,0 -1.05515,0.02568 -1.30083,0.00671c-0.42804,-0.03304 -1.76068,-0.13592 -1.76068,-0.13592z" stroke="#d84646" stroke-width="0" stroke-linecap="butt"></path><path d="M140.70837,274.52733l0.60965,-8.81597l4.80342,0.07476c0,0 -0.39353,3.61006 -0.60762,5.18883c-0.17934,1.32254 -0.39141,4.36643 -0.39141,4.36643z" stroke="#d84646" stroke-width="0.25" stroke-linecap="butt"></path><path d="M141.24137,265.76732l1.74702,-2.49866l4.29105,0.53782l-1.27652,2.12188z" stroke="#d84646" stroke-width="0" stroke-linecap="butt"></path><path d="M145.98839,266.86971l-0.65531,-0.45791l0.11896,-0.50091l0.66703,-0.05067z" data-paper-data="{&quot;index&quot;:null}" stroke="#d84646" stroke-width="0" stroke-linecap="butt"></path><path d="M145.63434,266.61088l0.05072,-0.65705l0.39696,0.03064l-0.05072,0.65705z" data-paper-data="{&quot;index&quot;:null}" stroke="#d84646" stroke-width="0" stroke-linecap="butt"></path><path d="M146.78168,264.63601l0.43801,-0.79482z" stroke="#d84646" stroke-width="0" stroke-linecap="butt"></path><path d="M147.57122,276.28981l0.25575,-1.47854c0,0 0.46164,-0.92364 0.67073,-0.8938c0.2146,0.03064 0.60078,1.07531 0.60078,1.07531l-0.25575,1.47854z" stroke="#d84646" stroke-width="0" stroke-linecap="butt"></path><path d="M148.82396,274.78538c0,0.11374 -0.11525,0.20594 -0.25742,0.20594c-0.14217,0 -0.25742,-0.09221 -0.25742,-0.20594c0,-0.11374 0.11525,-0.20594 0.25742,-0.20594c0.14217,0 0.25742,0.0922 0.25742,0.20594z" stroke="#d84646" stroke-width="0.5" stroke-linecap="butt"></path><path d="M148.70526,276.5358l0.4659,-3.2997l3.0562,0.54026l-0.38352,3.13495z" stroke="#d84646" stroke-width="0" stroke-linecap="butt"></path><path d="M150.11622,274.20876c0,0.19335 -0.15674,0.35009 -0.35009,0.35009c-0.19335,0 -0.35009,-0.15674 -0.35009,-0.35009c0,-0.19335 0.15674,-0.35009 0.35009,-0.35009c0.19335,0 0.35009,0.15674 0.35009,0.35009z" stroke="#d84646" stroke-width="0" stroke-linecap="butt"></path><path d="M150.83701,275.25561c0,0.19335 -0.15674,0.35009 -0.35009,0.35009c-0.19335,0 -0.3501,-0.15674 -0.3501,-0.35009c0,-0.19335 0.15675,-0.35009 0.3501,-0.35009c0.19335,0 0.35009,0.15674 0.35009,0.35009z" stroke="#d84646" stroke-width="0" stroke-linecap="butt"></path><path d="M151.5921,276.19949c0,0.19335 -0.15674,0.3501 -0.35009,0.3501c-0.19335,0 -0.35009,-0.15675 -0.35009,-0.3501c0,-0.19335 0.15674,-0.35009 0.35009,-0.35009c0.19335,0 0.35009,0.15674 0.35009,0.35009z" stroke="#d84646" stroke-width="0" stroke-linecap="butt"></path><path d="M151.84953,274.43186c0,0.19335 -0.15674,0.35009 -0.35009,0.35009c-0.19335,0 -0.35009,-0.15674 -0.35009,-0.35009c0,-0.19335 0.15674,-0.35009 0.35009,-0.35009c0.19335,0 0.35009,0.15674 0.35009,0.35009z" stroke="#d84646" stroke-width="0" stroke-linecap="butt"></path><path d="M149.96177,276.02788c0,0.19335 -0.15674,0.3501 -0.3501,0.3501c-0.19335,0 -0.35009,-0.15674 -0.35009,-0.3501c0,-0.19335 0.15674,-0.35009 0.35009,-0.35009c0.19335,0 0.3501,0.15674 0.3501,0.35009z" stroke="#d84646" stroke-width="0" stroke-linecap="butt"></path><path d="M151.88042,277.00362l0.20919,-3.21228l0.99968,0.32626l-0.15609,2.85532z" stroke="#d84646" stroke-width="0" stroke-linecap="butt"></path><path d="M141.44309,276.14712l-0.91475,-1.78136l4.6219,0.86661l0.48145,1.73321z" stroke="#d84646" stroke-width="0" stroke-linecap="butt"></path><text transform="translate(141.52077,275.57097) rotate(11.38447) scale(0.02597,0.02597)" font-size="40" xml:space="preserve" fill="#ff7a7a" fill-rule="nonzero" stroke="#d84646" stroke-width="1" stroke-linecap="butt" stroke-linejoin="miter" stroke-miterlimit="10" stroke-dasharray="" stroke-dashoffset="0" font-family="Sans Serif" font-weight="normal" text-anchor="start" style="mix-blend-mode: normal"><tspan x="0" dy="0">xAmt8</tspan></text><path d="M152.18222,276.05829c0,0 0,-0.21845 0,-0.37245c0,-0.25148 0,-0.99322 0,-0.99322h1.1251c0,0 0.92091,0.22459 1.20046,0.49287c0.06747,0.06475 0.26832,0.28359 0.26994,0.41671c0.00183,0.14923 -0.20011,0.21199 -0.20011,0.24918c0,0.24213 -1.27028,0.20692 -1.27028,0.20692z" stroke="#d84646" stroke-width="0.5" stroke-linecap="butt"></path><path d="M154.25039,275.45355c0,0.16164 -0.13977,0.29267 -0.31218,0.29267c-0.17241,0 -0.31217,-0.13103 -0.31217,-0.29267c0,-0.16164 0.13977,-0.29266 0.31217,-0.29266c0.17241,0 0.31218,0.13103 0.31218,0.29266z" stroke="#d84646" stroke-width="0" stroke-linecap="butt"></path><path d="M145.6265,276.99492l-0.50729,-1.67795l2.61448,0.27316" stroke="#d84646" stroke-width="0.5" stroke-linecap="round"></path><path d="M152.06748,272.44284c0,0.73929 -0.48868,1.33859 -0.90098,1.33859c-0.4123,0 -0.95246,-0.59931 -0.95246,-1.33859c0,-0.3747 0.40658,-0.93827 0.5058,-1.403c0.09655,-0.4522 0.08887,-0.81083 0.2922,-0.81083c0.14646,0 0.25107,0.28904 0.39148,0.56212c0.25485,0.49567 0.66395,1.17504 0.66395,1.65171z" stroke="#d84646" stroke-width="0" stroke-linecap="butt"></path><path d="M145.27152,278.92989l7.92862,0.61781l2.52274,0.61781" stroke="#d84646" stroke-width="1" stroke-linecap="round"></path><path d="M145.3539,278.75484l7.82565,0.6693l2.68235,0.59207l0.29861,-0.09954" stroke="#d84646" stroke-width="0.5" stroke-linecap="round"></path><path d="M145.34158,285.9517l-0.23981,-1.84405l0.77192,-0.10039l0.23981,1.84405z" stroke="#d84646" stroke-width="0" stroke-linecap="butt"></path><path d="M145.10906,285.83279l0.22416,-0.60872l3.73352,1.37489l-0.22417,0.60873z" stroke="#d84646" stroke-width="0" stroke-linecap="butt"></path><path d="M148.37086,286.32604l1.65995,-0.62321l0.29134,0.776l-1.65995,0.62322z" stroke="#d84646" stroke-width="0" stroke-linecap="butt"></path><path d="M150.65543,283.81522l0.07274,-1.68503l0.51847,0.02238l-0.07274,1.68502z" stroke="#d84646" stroke-width="0" stroke-linecap="butt"></path><path d="M145.1003,284.35485l1.18061,-3.20596l0.77105,0.28394l-1.18061,3.20596z" stroke="#d84646" stroke-width="0" stroke-linecap="butt"></path><path d="M146.27656,281.1708l1.27262,-0.42156l0.57929,0.50348l-1.62073,0.61597z" stroke="#d84646" stroke-width="0" stroke-linecap="butt"></path><path d="M147.39363,281.00563l0.10461,-0.28408l3.73352,1.37489l-0.10461,0.28407z" stroke="#d84646" stroke-width="0" stroke-linecap="butt"></path><path d="M149.72663,286.05851l0.9415,-2.55665l0.52756,0.19428l-0.9415,2.55665z" stroke="#d84646" stroke-width="0" stroke-linecap="butt"></path></g></g></g></svg>