<svg version="1.1" xmlns="http://www.w3.org/2000/svg" xmlns:xlink="http://www.w3.org/1999/xlink" width="12.54599" height="9.48712" viewBox="0,0,12.54599,9.48712"><defs><linearGradient x1="239.7665" y1="181.19229" x2="240.44289" y2="184.20525" gradientUnits="userSpaceOnUse" id="color-1"><stop offset="0" stop-color="#ad5400"></stop><stop offset="1" stop-color="#d07b00"></stop></linearGradient></defs><g transform="translate(-233.727,-175.25644)"><g data-paper-data="{&quot;isPaintingLayer&quot;:true}" fill-rule="nonzero" stroke="none" stroke-width="0" stroke-linecap="butt" stroke-linejoin="miter" stroke-miterlimit="10" stroke-dasharray="" stroke-dashoffset="0" style="mix-blend-mode: normal"><path d="M246.26355,181.31616c0.18678,0.83201 -2.41922,2.1255 -5.82067,2.88909c-3.40145,0.76359 -6.31027,0.70813 -6.49705,-0.12388c-0.18678,-0.83201 2.41922,-2.1255 5.82067,-2.88909c3.40144,-0.76359 6.31027,-0.70813 6.49705,0.12388z" fill="url(#color-1)"></path><path d="M234.82115,183.41947l-1.09415,-4.87392c0,0 1.51951,-1.01498 3.15703,-1.16249c0.75086,-0.06764 0.97414,-1.9989 1.50529,-2.11814c0.64442,-0.14466 2.31492,1.61485 3.1197,1.30797c1.39739,-0.53285 2.58614,-0.3549 2.58614,-0.3549l1.09415,4.87392z" fill="#ad5400"></path><path d="M238.84908,181.26832l-1.21662,-0.40262l0.94703,-0.79824l0.52078,-1.69364l1.45206,1.25075l1.23062,0.26433l-0.96104,0.93653l0.87343,1.14489c0,0 -1.06606,-0.61438 -1.66603,-0.54623c-0.52706,0.05987 -0.94392,1.0976 -0.94392,1.0976z" fill="#ffd300"></path></g></g></svg>