<svg version="1.1" xmlns="http://www.w3.org/2000/svg" xmlns:xlink="http://www.w3.org/1999/xlink" width="19.78453" height="27.07587" viewBox="0,0,19.78453,27.07587"><defs><linearGradient x1="241.8022" y1="166.02832" x2="236.54389" y2="191.28391" gradientUnits="userSpaceOnUse" id="color-1"><stop offset="0" stop-color="#af957e"></stop><stop offset="1" stop-color="#ad8764"></stop></linearGradient><linearGradient x1="240.90821" y1="166.13652" x2="235.6499" y2="191.39212" gradientUnits="userSpaceOnUse" id="color-2"><stop offset="0" stop-color="#c9ab91"></stop><stop offset="1" stop-color="#c99d74"></stop></linearGradient><linearGradient x1="228.83627" y1="170.62291" x2="246.85481" y2="174.25702" gradientUnits="userSpaceOnUse" id="color-3"><stop offset="0" stop-color="#c9ab91"></stop><stop offset="1" stop-color="#c99d74"></stop></linearGradient></defs><g transform="translate(-228.16409,-165.08311)"><g data-paper-data="{&quot;isPaintingLayer&quot;:true}" fill-rule="nonzero" stroke-linejoin="miter" stroke-miterlimit="10" stroke-dasharray="" stroke-dashoffset="0" style="mix-blend-mode: normal"><text transform="translate(238.2669,171.04001) rotate(78.39684) scale(0.091,0.091)" font-size="40" xml:space="preserve" fill="#00ff59" fill-rule="nonzero" stroke="none" stroke-width="0.3" stroke-linecap="butt" stroke-linejoin="miter" stroke-miterlimit="10" stroke-dasharray="" stroke-dashoffset="0" font-family="Sans Serif" font-weight="normal" text-anchor="start" style="mix-blend-mode: normal"><tspan x="0" dy="0">by</tspan><tspan x="0" dy="46.150000000000006px">xAmt8</tspan></text><g stroke-width="0.15"><path d="M237.27364,190.99197c0,0 -1.59478,-0.25663 -1.67349,-1.2378c-0.01763,-0.21982 1.35078,-0.40804 1.33813,-0.66764c-0.22735,-4.66433 -1.08493,-15.45514 -1.62054,-19.83423c-0.10437,-0.85334 -1.04453,-1.33059 -1.07334,-1.64286c-0.03983,-0.43163 0.7761,-1.03491 0.7761,-1.03491c0,0 0.86866,0.17663 1.3631,-0.20452c0.18225,-0.14049 0.21913,-0.38198 0.37616,-0.59101c0.24134,-0.32126 0.58446,-0.60379 0.75569,-0.62088c0.29451,-0.02939 0.61089,0.23513 0.92693,0.56014c0.25696,0.26425 0.50295,0.5822 0.82341,0.70388c0.17497,0.06643 0.22297,-0.12627 0.37828,-0.16371c0.39421,-0.09502 0.8103,-0.2262 0.8103,-0.2262c0,0 1.23918,0.39991 1.29103,0.96179c0.01038,0.11246 -0.88489,0.70347 -0.87296,0.87612c0.20554,2.97872 1.03849,14.87148 1.6836,20.34288c0.04764,0.40404 1.59992,0.61817 1.62745,0.94783c0.0955,1.14351 -1.47598,1.28884 -1.47598,1.28884c0,0 -0.29235,-0.01838 -0.69086,-0.00857c-0.23012,0.00566 -0.53957,-0.04728 -0.73532,0.09346c-0.49607,0.35669 -0.61998,1.39772 -1.05561,1.4412c-0.19451,0.01941 -0.38586,0.07191 -0.63016,-0.1761c-0.18195,-0.18471 -0.40695,-0.65691 -0.61148,-0.78769c-0.05624,-0.03596 -0.12914,-0.12799 -0.1864,-0.14963c-0.31242,-0.1181 -0.6515,0.14302 -0.91266,0.18544c-0.37182,0.0604 -0.61139,-0.0558 -0.61139,-0.0558z" fill="url(#color-1)" stroke="#000000" stroke-linecap="butt"></path><path d="M236.37964,191.10018c0,0 -1.59478,-0.25663 -1.67349,-1.2378c-0.01763,-0.21982 1.35078,-0.40804 1.33813,-0.66764c-0.22735,-4.66433 -1.08493,-15.45514 -1.62054,-19.83423c-0.10437,-0.85334 -1.04453,-1.33059 -1.07334,-1.64286c-0.03983,-0.43163 0.7761,-1.03491 0.7761,-1.03491c0,0 0.86866,0.17663 1.3631,-0.20452c0.18225,-0.14049 0.21913,-0.38198 0.37616,-0.59101c0.24134,-0.32126 0.58446,-0.60379 0.75569,-0.62088c0.29451,-0.02939 0.61089,0.23513 0.92693,0.56014c0.25696,0.26425 0.50295,0.5822 0.82341,0.70388c0.17497,0.06643 0.22297,-0.12627 0.37828,-0.16371c0.39421,-0.09502 0.8103,-0.2262 0.8103,-0.2262c0,0 1.23918,0.39991 1.29103,0.96179c0.01038,0.11246 -0.88489,0.70347 -0.87296,0.87612c0.20554,2.97872 1.03849,14.87148 1.6836,20.34288c0.04764,0.40404 1.59992,0.61817 1.62745,0.94783c0.0955,1.14351 -1.47598,1.28884 -1.47598,1.28884c0,0 -0.29235,-0.01838 -0.69086,-0.00857c-0.23012,0.00566 -0.53957,-0.04728 -0.73532,0.09346c-0.49607,0.35669 -0.61998,1.39772 -1.05561,1.4412c-0.19451,0.01941 -0.38586,0.07191 -0.63016,-0.1761c-0.18195,-0.18471 -0.40695,-0.65691 -0.61148,-0.78769c-0.05624,-0.03596 -0.12914,-0.12799 -0.1864,-0.14963c-0.31242,-0.1181 -0.6515,0.14302 -0.91266,0.18544c-0.37182,0.0604 -0.61139,-0.0558 -0.61139,-0.0558z" fill="url(#color-2)" stroke="#000000" stroke-linecap="butt"></path><path d="M235.14011,168.13435l1.54176,-0.14994" fill="none" stroke="#a75900" stroke-linecap="round"></path><path d="M236.64708,167.03528l1.00536,-0.08502" fill="none" stroke="#a75900" stroke-linecap="round"></path><path d="M233.7863,167.38154l0.80307,0.04946" fill="none" stroke="#a75900" stroke-linecap="round"></path><path d="M238.4076,169.46221l1.08454,-0.18627" fill="none" stroke="#a75900" stroke-linecap="round"></path><path d="M235.72164,172.31732l-0.6917,-0.02628" fill="none" stroke="#a75900" stroke-linecap="round"></path><path d="M238.61156,172.38919l-1.11673,0.06183" fill="none" stroke="#a75900" stroke-linecap="round"></path><path d="M238.27255,177.08691l-1.50652,-0.01932" fill="none" stroke="#a75900" stroke-linecap="round"></path><path d="M239.49361,179.87246l-0.41328,0.03169" fill="none" stroke="#a75900" stroke-linecap="round"></path><path d="M235.92559,175.24431l0.65951,-0.09816" fill="none" stroke="#a75900" stroke-linecap="round"></path><path d="M239.03261,174.83158l0.6917,0.02628" fill="none" stroke="#a75900" stroke-linecap="round"></path><path d="M236.39272,179.69778l1.01711,-0.14144" fill="none" stroke="#a75900" stroke-linecap="round"></path><path d="M236.49964,183.36985l2.24215,0.11362" fill="none" stroke="#a75900" stroke-linecap="round"></path><path d="M239.88554,181.8967l-0.83831,0.1198" fill="none" stroke="#a75900" stroke-linecap="round"></path><path d="M236.51185,182.19504l0.72389,0.15072" fill="none" stroke="#a75900" stroke-linecap="round"></path><path d="M238.06045,186.75596l-0.6917,-0.02628" fill="none" stroke="#a75900" stroke-linecap="round"></path><path d="M240.49621,186.49781l0.8705,0.00464" fill="none" stroke="#a75900" stroke-linecap="round"></path><path d="M237.65235,188.43702l0.73564,0.09429" fill="none" stroke="#a75900" stroke-linecap="round"></path><path d="M239.71265,188.86598l0.5129,0.04792" fill="none" stroke="#a75900" stroke-linecap="round"></path><path d="M239.75705,187.81561l0.40153,0.02473" fill="none" stroke="#a75900" stroke-linecap="round"></path><path d="M236.00746,189.91946l0.84701,0.11748" fill="none" stroke="#a75900" stroke-linecap="round"></path><path d="M238.87648,190.92887l0.3341,0.06956" fill="none" stroke="#a75900" stroke-linecap="round"></path><path d="M240.89645,168.39095l-0.5129,-0.04792" fill="none" stroke="#703c00" stroke-linecap="round"></path><path d="M238.17756,165.82337l0.37804,0.13758" fill="none" stroke="#703c00" stroke-linecap="round"></path><path d="M240.63741,191.16796l-0.37906,-0.03968" fill="none" stroke="#703c00" stroke-linecap="round"></path><path d="M243.66673,189.64018l0.40255,-0.07317" fill="none" stroke="#703c00" stroke-linecap="round"></path><path d="M242.16473,188.11085l0.34193,0.03195" fill="none" stroke="#703c00" stroke-linecap="round"></path><path d="M242.00589,184.78118l-0.26769,-0.01649" fill="none" stroke="#703c00" stroke-linecap="round"></path><path d="M241.32042,179.14412l-0.23057,-0.00876" fill="none" stroke="#703c00" stroke-linecap="round"></path><path d="M240.68507,175.12656l0.596,-0.07214" fill="none" stroke="#703c00" stroke-linecap="round"></path><path d="M240.85268,176.18184l0.31264,-0.0134" fill="none" stroke="#703c00" stroke-linecap="round"></path><path d="M240.54392,171.52586l0.34976,-0.00567" fill="none" stroke="#703c00" stroke-linecap="round"></path><path d="M241.39207,166.52207l-0.43968,0.06544" fill="none" stroke="#703c00" stroke-linecap="round"></path><path d="M241.59507,167.03528l-0.31264,0.0134" fill="none" stroke="#703c00" stroke-linecap="round"></path><path d="M238.04728,165.47247l-0.43764,-0.13036" fill="none" stroke="#703c00" stroke-linecap="round"></path></g><g stroke-width="0.15"><g stroke="#000000" stroke-linecap="butt"><path d="M247.18849,174.31169c0,0 -0.17436,1.19477 -0.87287,1.26506c-0.1565,0.01574 -0.29783,-1.00466 -0.48268,-0.99217c-3.3214,0.22445 -11.00362,0.99152 -14.12021,1.44299c-0.60732,0.08798 -0.94231,0.79613 -1.16459,0.82131c-0.30725,0.03482 -0.74133,-0.56787 -0.74133,-0.56787c0,0 0.12122,-0.65121 -0.15291,-1.01624c-0.10104,-0.13455 -0.27326,-0.15928 -0.42301,-0.2742c-0.23013,-0.17659 -0.4332,-0.42971 -0.44629,-0.55747c-0.0225,-0.21973 0.16426,-0.45927 0.3941,-0.69924c0.18687,-0.19511 0.41207,-0.38266 0.49703,-0.62356c0.0464,-0.13154 -0.09113,-0.16514 -0.11863,-0.28077c-0.06978,-0.29348 -0.16542,-0.60289 -0.16542,-0.60289c0,0 0.2783,-0.93072 0.67828,-0.97603c0.08005,-0.00907 0.5058,0.65303 0.62872,0.64212c2.12079,-0.18844 10.5881,-0.94999 14.48221,-1.49607c0.28756,-0.04033 0.43187,-1.20283 0.66655,-1.22726c0.81407,-0.08474 0.92592,1.0879 0.92592,1.0879c0,0 -0.01154,0.21868 -0.00245,0.51638c0.00525,0.1719 -0.03082,0.40378 0.07048,0.54841c0.25672,0.36653 0.99894,0.44696 1.03222,0.77199c0.01486,0.14513 0.05327,0.28751 -0.1221,0.47297c-0.13062,0.13814 -0.46579,0.31179 -0.55787,0.46617c-0.02532,0.04246 -0.09048,0.09801 -0.10559,0.14104c-0.08247,0.23485 0.10533,0.48519 0.13694,0.67986c0.045,0.27715 -0.03651,0.45754 -0.03651,0.45754z" fill="#ad907c"></path><path d="M246.64298,173.71511c0,0 -0.17436,1.19477 -0.87287,1.26506c-0.1565,0.01574 -0.29783,-1.00466 -0.48268,-0.99217c-3.3214,0.22445 -11.00362,0.99152 -14.12021,1.44299c-0.60732,0.08798 -0.94231,0.79613 -1.16459,0.82131c-0.30725,0.03482 -0.74133,-0.56787 -0.74133,-0.56787c0,0 0.12122,-0.65121 -0.15291,-1.01624c-0.10104,-0.13455 -0.27326,-0.15928 -0.42301,-0.2742c-0.23013,-0.17659 -0.4332,-0.42971 -0.44629,-0.55747c-0.0225,-0.21973 0.16426,-0.45927 0.3941,-0.69924c0.18687,-0.19511 0.41207,-0.38266 0.49703,-0.62356c0.0464,-0.13154 -0.09113,-0.16514 -0.11863,-0.28077c-0.06978,-0.29348 -0.16542,-0.60289 -0.16542,-0.60289c0,0 0.2783,-0.93072 0.67828,-0.97603c0.08005,-0.00907 0.5058,0.65303 0.62872,0.64212c2.12079,-0.18844 10.5881,-0.94999 14.48221,-1.49607c0.28756,-0.04033 0.43187,-1.20283 0.66655,-1.22726c0.81407,-0.08474 0.92592,1.0879 0.92592,1.0879c0,0 -0.01154,0.21868 -0.00245,0.51638c0.00525,0.1719 -0.03082,0.40378 0.07048,0.54841c0.25672,0.36653 0.99894,0.44695 1.03222,0.77199c0.01486,0.14513 0.05327,0.28751 -0.1221,0.47297c-0.13062,0.13814 -0.46579,0.31179 -0.55787,0.46617c-0.02532,0.04246 -0.09048,0.09801 -0.10559,0.14104c-0.08247,0.23485 0.10533,0.48519 0.13694,0.67986c0.045,0.27715 -0.03651,0.45754 -0.03651,0.45754z" fill="url(#color-3)"></path></g><path d="M232.30806,172.12924l-1.02952,-0.0347" fill="none" stroke="#a75900" stroke-linecap="round"></path><path d="M235.79161,171.88846l1.21474,-0.05331" fill="none" stroke="#a75900" stroke-linecap="round"></path><path d="M232.41668,173.75435l0.79619,0.05827" fill="none" stroke="#a75900" stroke-linecap="round"></path><path d="M238.33592,174.15502l-0.92513,0.03794" fill="none" stroke="#a75900" stroke-linecap="round"></path><path d="M238.64388,173.2227l0.6437,-0.07886" fill="none" stroke="#a75900" stroke-linecap="round"></path><path d="M241.34041,172.46518l0.75627,-0.06249" fill="none" stroke="#a75900" stroke-linecap="round"></path><path d="M243.12423,173.24177l0.69998,-0.07067" fill="none" stroke="#a75900" stroke-linecap="round"></path><path d="M244.69899,170.71185l0.58741,-0.08703" fill="none" stroke="#a75900" stroke-linecap="round"></path><path d="M246.68339,171.69003l-0.40218,-0.00099" fill="none" stroke="#a75900" stroke-linecap="round"></path><path d="M246.26907,173.35407l-0.46666,0.04711" fill="none" stroke="#a75900" stroke-linecap="round"></path><path d="M229.74667,173.53865l-0.46666,0.04711" fill="none" stroke="#a75900" stroke-linecap="round"></path><path d="M230.49772,172.32589l-0.3459,0.0072" fill="none" stroke="#a75900" stroke-linecap="round"></path><path d="M230.41914,174.84341l0.57104,0.02554" fill="none" stroke="#a75900" stroke-linecap="round"></path><path d="M243.23356,171.30349l-0.61915,-0.09001" fill="none" stroke="#a75900" stroke-linecap="round"></path><path d="M230.97085,176.18807l-0.50658,-0.07364" fill="none" stroke="#5e3200" stroke-linecap="round"></path><path d="M233.46579,175.63115l-1.13391,-0.10736" fill="none" stroke="#5e3200" stroke-linecap="round"></path><path d="M247.47042,172.20677l0.3459,-0.0072" fill="none" stroke="#5e3200" stroke-linecap="round"></path><path d="M246.62289,170.12938l-0.33773,-0.04909" fill="none" stroke="#5e3200" stroke-linecap="round"></path><path d="M246.53117,174.71412l0.48302,-0.15969" fill="none" stroke="#5e3200" stroke-linecap="round"></path><path d="M242.9524,174.42379l-0.93331,0.09423" fill="none" stroke="#5e3200" stroke-linecap="round"></path><path d="M244.50486,174.41956l0.46666,-0.04711" fill="none" stroke="#5e3200" stroke-linecap="round"></path><path d="M235.99248,175.25126l0.86066,0.01016" fill="none" stroke="#5e3200" stroke-linecap="round"></path><path d="M239.74209,174.76177l0.41037,-0.0553" fill="none" stroke="#5e3200" stroke-linecap="round"></path></g></g></g></svg>