<svg version="1.1" xmlns="http://www.w3.org/2000/svg" xmlns:xlink="http://www.w3.org/1999/xlink" width="40.1008" height="63.65407" viewBox="0,0,40.1008,63.65407"><defs><linearGradient x1="288.19004" y1="166.84507" x2="288.19004" y2="210.99507" gradientUnits="userSpaceOnUse" id="color-1"><stop offset="0" stop-color="#af957e"></stop><stop offset="1" stop-color="#ad8764"></stop></linearGradient><linearGradient x1="286.72992" y1="167.33824" x2="286.72992" y2="211.48824" gradientUnits="userSpaceOnUse" id="color-2"><stop offset="0" stop-color="#c9ab91"></stop><stop offset="1" stop-color="#c99d74"></stop></linearGradient><linearGradient x1="268.0685" y1="179.06639" x2="299.52624" y2="178.86966" gradientUnits="userSpaceOnUse" id="color-3"><stop offset="0" stop-color="#c9ab91"></stop><stop offset="1" stop-color="#c99d74"></stop></linearGradient></defs><g transform="translate(-265.89052,-155.99798)"><g data-paper-data="{&quot;isPaintingLayer&quot;:true}" fill-rule="nonzero" stroke-linejoin="miter" stroke-miterlimit="10" stroke-dasharray="" stroke-dashoffset="0" style="mix-blend-mode: normal"><path d="M266.39052,209.54367c0,-13.01839 0,-35.4882 0,-42.91399c0,-4.69319 1.23255,-10.1317 2.60137,-10.1317c4.21224,0 26.13758,0 33.8293,0c1.67093,0 2.67013,3.77164 2.67013,9.34669c0,13.13684 0,36.28702 0,43.69901c0,4.49325 -1.02676,9.60837 -2.73889,9.60837c-7.73441,0 -29.45524,0 -33.69178,0c-1.40084,0 -2.67013,-3.89352 -2.67013,-9.60837z" fill="#3d3d3c" stroke="#fff4ce" stroke-width="1" stroke-linecap="butt"></path><text transform="translate(274.90441,163.90598) scale(0.19068,0.19068)" font-size="40" xml:space="preserve" fill="#fff4ce" fill-rule="nonzero" stroke="none" stroke-width="1" stroke-linecap="butt" stroke-linejoin="miter" stroke-miterlimit="10" stroke-dasharray="" stroke-dashoffset="0" font-family="Impact" font-weight="normal" text-anchor="start" style="mix-blend-mode: normal"><tspan x="0" dy="0">Crucifix</tspan></text><text transform="translate(268.11802,217.25775) scale(0.13227,0.13227)" font-size="40" xml:space="preserve" fill="#fff4ce" fill-rule="nonzero" stroke="none" stroke-width="1" stroke-linecap="butt" stroke-linejoin="miter" stroke-miterlimit="10" stroke-dasharray="" stroke-dashoffset="0" font-family="Serif" font-weight="normal" text-anchor="start" style="mix-blend-mode: normal"><tspan x="0" dy="0">"For protection."</tspan></text><g><text transform="translate(279.94645,175.97269) rotate(71.31964) scale(0.1831,0.1831)" font-size="40" xml:space="preserve" fill="#c99f79" fill-rule="nonzero" stroke="none" stroke-width="1" stroke-linecap="butt" stroke-linejoin="miter" stroke-miterlimit="10" stroke-dasharray="" stroke-dashoffset="0" font-family="Curly" font-weight="normal" text-anchor="start" style="mix-blend-mode: normal"><tspan x="0" dy="0">xAmt8</tspan></text><g><path d="M289.3109,210.25136c0,0 -2.76158,0.12634 -3.23572,-1.49015c-0.10623,-0.36216 2.12089,-1.15489 2.00913,-1.58542c-2.00805,-7.73576 -7.20923,-25.51657 -9.63427,-32.66687c-0.47256,-1.39336 -2.21427,-1.86502 -2.37148,-2.37818c-0.2173,-0.7093 0.93933,-2.00474 0.93933,-2.00474c0,0 1.51705,-0.00709 2.21252,-0.81819c0.25634,-0.29896 0.2339,-0.71644 0.42409,-1.12147c0.29229,-0.62246 0.76863,-1.21554 1.04957,-1.30391c0.48319,-0.15198 1.10557,0.18085 1.74848,0.61516c0.52272,0.35311 1.04579,0.80003 1.62517,0.8921c0.31635,0.05027 0.32953,-0.28935 0.57669,-0.40626c0.62735,-0.29672 1.27875,-0.66166 1.27875,-0.66166c0,0 2.21576,0.23777 2.49864,1.1611c0.05662,0.18479 -1.23722,1.48735 -1.15703,1.77246c1.3835,4.91915 6.92782,24.55484 9.91736,33.49712c0.22076,0.66035 2.8963,0.47762 3.05742,1.02035c0.55892,1.88264 -2.02338,2.67433 -2.02338,2.67433c0,0 -0.49624,0.0712 -1.16053,0.22664c-0.3836,0.08976 -0.92055,0.10901 -1.19942,0.41311c-0.70672,0.77068 -0.55119,2.55815 -1.26591,2.78297c-0.31913,0.10038 -0.62142,0.25509 -1.11726,-0.07522c-0.3693,-0.24601 -0.911,-0.9587 -1.29932,-1.10646c-0.10679,-0.04063 -0.26102,-0.16939 -0.36451,-0.18567c-0.56466,-0.08889 -1.04169,0.4669 -1.46448,0.62908c-0.60191,0.2309 -1.04384,0.11978 -1.04384,0.11978z" fill="url(#color-1)" stroke="#000000" stroke-width="0" stroke-linecap="butt"></path><path d="M287.85076,210.74453c0,0 -2.76158,0.12634 -3.23572,-1.49015c-0.10623,-0.36216 2.12089,-1.15489 2.00913,-1.58542c-2.00805,-7.73576 -7.20923,-25.51657 -9.63427,-32.66687c-0.47256,-1.39336 -2.21427,-1.86502 -2.37148,-2.37818c-0.2173,-0.7093 0.93933,-2.00474 0.93933,-2.00474c0,0 1.51705,-0.00709 2.21252,-0.81819c0.25634,-0.29896 0.2339,-0.71644 0.42409,-1.12147c0.29229,-0.62246 0.76863,-1.21554 1.04957,-1.30391c0.48319,-0.15198 1.10557,0.18085 1.74848,0.61516c0.52272,0.35311 1.04579,0.80003 1.62517,0.8921c0.31635,0.05027 0.32953,-0.28935 0.57669,-0.40626c0.62735,-0.29672 1.27875,-0.66166 1.27875,-0.66166c0,0 2.21576,0.23777 2.49864,1.1611c0.05662,0.18479 -1.23722,1.48735 -1.15703,1.77246c1.3835,4.91915 6.92782,24.55484 9.91736,33.49712c0.22076,0.66035 2.8963,0.47762 3.05742,1.02035c0.55892,1.88264 -2.02338,2.67433 -2.02338,2.67433c0,0 -0.49624,0.0712 -1.16053,0.22664c-0.3836,0.08976 -0.92055,0.10901 -1.19942,0.41311c-0.70672,0.77068 -0.55119,2.55815 -1.26591,2.78297c-0.31913,0.10038 -0.62142,0.25509 -1.11726,-0.07522c-0.3693,-0.24601 -0.911,-0.9587 -1.29932,-1.10646c-0.10679,-0.04063 -0.26102,-0.16939 -0.36451,-0.18567c-0.56466,-0.08889 -1.04169,0.4669 -1.46448,0.62908c-0.60191,0.2309 -1.04384,0.11978 -1.04384,0.11978z" fill="url(#color-2)" stroke="#000000" stroke-width="0" stroke-linecap="butt"></path><path d="M280.29333,171.9087l-2.53091,0.78907" fill="none" stroke="#a75900" stroke-width="0.5" stroke-linecap="round"></path><path d="M281.55876,169.83741l-1.65482,0.49316" fill="none" stroke="#a75900" stroke-width="0.5" stroke-linecap="round"></path><path d="M275.23149,171.9087l1.3628,-0.19727" fill="none" stroke="#a75900" stroke-width="0.5" stroke-linecap="round"></path><path d="M285.45248,173.0923l-1.75216,0.69043" fill="none" stroke="#a75900" stroke-width="0.5" stroke-linecap="round"></path><path d="M280.19597,179.50343l-1.16811,0.19727" fill="none" stroke="#a75900" stroke-width="0.5" stroke-linecap="round"></path><path d="M283.2136,179.1089l1.84951,-0.49316" fill="none" stroke="#a75900" stroke-width="0.5" stroke-linecap="round"></path><path d="M286.13388,186.60501l-2.53091,0.49316" fill="none" stroke="#a75900" stroke-width="0.5" stroke-linecap="round"></path><path d="M288.4701,191.0435l0.6814,-0.19727" fill="none" stroke="#a75900" stroke-width="0.5" stroke-linecap="round"></path><path d="M282.62955,183.94193l-1.07077,0.39453" fill="none" stroke="#a75900" stroke-width="0.5" stroke-linecap="round"></path><path d="M286.62059,182.56107l1.16811,-0.19727" fill="none" stroke="#a75900" stroke-width="0.5" stroke-linecap="round"></path><path d="M285.54981,191.04349l-1.65482,0.5918" fill="none" stroke="#a75900" stroke-width="0.5" stroke-linecap="round"></path><path d="M289.1515,197.15874l-3.79636,0.5918" fill="none" stroke="#a75900" stroke-width="0.5" stroke-linecap="round"></path><path d="M290.5143,194.10111l-1.3628,0.49316" fill="none" stroke="#a75900" stroke-width="0.5" stroke-linecap="round"></path><path d="M284.96577,195.77787h1.26545" fill="none" stroke="#a75900" stroke-width="0.5" stroke-linecap="round"></path><path d="M289.15149,202.87945l-1.16811,0.19727" fill="none" stroke="#a75900" stroke-width="0.5" stroke-linecap="round"></path><path d="M294.60269,201.30132l-1.46014,0.2959" fill="none" stroke="#a75900" stroke-width="0.5" stroke-linecap="round"></path><path d="M290.3196,205.7398l-1.26545,0.09864" fill="none" stroke="#a75900" stroke-width="0.5" stroke-linecap="round"></path><path d="M292.65582,205.83844l0.87608,-0.09864" fill="none" stroke="#a75900" stroke-width="0.5" stroke-linecap="round"></path><path d="M293.0452,203.96441l-0.6814,0.09864" fill="none" stroke="#a75900" stroke-width="0.5" stroke-linecap="round"></path><path d="M286.81528,208.89606l1.46014,-0.09864" fill="none" stroke="#a75900" stroke-width="0.5" stroke-linecap="round"></path><path d="M291.97443,209.58649h0.58405" fill="none" stroke="#a75900" stroke-width="0.5" stroke-linecap="round"></path><path d="M287.49667,171.11963l-0.87608,0.09864" fill="none" stroke="#703c00" stroke-width="0.5" stroke-linecap="round"></path><path d="M282.7269,167.86476l-0.6814,-0.09864" fill="none" stroke="#703c00" stroke-width="0.5" stroke-linecap="round"></path><path d="M294.35931,209.43854l0.64896,-0.06575" fill="none" stroke="#703c00" stroke-width="0.5" stroke-linecap="round"></path><path d="M300.19988,205.49322l-0.64896,0.26303" fill="none" stroke="#703c00" stroke-width="0.5" stroke-linecap="round"></path><path d="M297.08491,203.65207l-0.58405,0.06575" fill="none" stroke="#703c00" stroke-width="0.5" stroke-linecap="round"></path><path d="M294.61891,198.26014l0.45426,-0.06575" fill="none" stroke="#703c00" stroke-width="0.5" stroke-linecap="round"></path><path d="M291.95821,188.98864l-0.38937,0.06575" fill="none" stroke="#703c00" stroke-width="0.5" stroke-linecap="round"></path><path d="M289.4922,182.47886l0.97343,-0.32878" fill="none" stroke="#703c00" stroke-width="0.5" stroke-linecap="round"></path><path d="M290.14114,184.1885l0.51916,-0.13151" fill="none" stroke="#703c00" stroke-width="0.5" stroke-linecap="round"></path><path d="M287.9996,176.49513l0.58405,-0.13151" fill="none" stroke="#703c00" stroke-width="0.5" stroke-linecap="round"></path><path d="M287.67513,167.81543l-0.71385,0.26303" fill="none" stroke="#703c00" stroke-width="0.5" stroke-linecap="round"></path><path d="M287.67514,168.73601l0.51916,-0.13151" fill="none" stroke="#703c00" stroke-width="0.5" stroke-linecap="round"></path><path d="M281.70479,167.22363l-0.77874,-0.06575" fill="none" stroke="#703c00" stroke-width="0.5" stroke-linecap="round"></path></g><g><g stroke="#000000" stroke-width="0" stroke-linecap="butt"><path d="M300.10439,178.84485c0,0 0.12465,2.06266 -1.02118,2.4241c-0.25672,0.08098 -0.84948,-1.57941 -1.15484,-1.49399c-5.4867,1.53472 -18.09065,5.49984 -23.15498,7.34349c-0.98687,0.35927 -1.3011,1.66263 -1.66476,1.78237c-0.50266,0.16551 -1.44019,-0.69286 -1.44019,-0.69286c0,0 -0.02408,-1.13338 -0.61072,-1.64937c-0.21623,-0.19019 -0.51341,-0.17156 -0.80439,-0.31185c-0.44718,-0.2156 -0.87573,-0.56885 -0.94222,-0.77835c-0.11435,-0.36032 0.115,-0.82679 0.41638,-1.30906c0.24504,-0.3921 0.55693,-0.78489 0.61526,-1.21816c0.03185,-0.23657 -0.2103,-0.24491 -0.2967,-0.42905c-0.21929,-0.46739 -0.48748,-0.95243 -0.48748,-0.95243c0,0 0.14162,-1.6565 0.79597,-1.87194c0.13096,-0.04312 1.07527,0.91771 1.27742,0.85654c3.48765,-1.05555 17.40893,-5.28531 23.74299,-7.55869c0.46774,-0.16788 0.30399,-2.16599 0.68868,-2.2888c1.33441,-0.42596 1.93089,1.49978 1.93089,1.49978c0,0 0.05695,0.37044 0.17604,0.86605c0.06876,0.28619 0.08921,0.68728 0.30939,0.89427c0.55799,0.52457 1.82964,0.4004 1.99879,0.93338c0.07552,0.23798 0.18955,0.46314 -0.03958,0.83506c-0.17065,0.27701 -0.67167,0.68489 -0.77208,0.97568c-0.02761,0.07997 -0.11741,0.19577 -0.12772,0.27315c-0.05626,0.42226 0.34574,0.77619 0.4666,1.09133c0.17207,0.44866 0.09844,0.77934 0.09844,0.77934z" fill="#ad907c"></path><path d="M298.98227,178.03558c0,0 0.12465,2.06266 -1.02118,2.4241c-0.25672,0.08098 -0.84948,-1.57941 -1.15484,-1.49399c-5.4867,1.53472 -18.09065,5.49984 -23.15498,7.34349c-0.98687,0.35927 -1.3011,1.66263 -1.66476,1.78237c-0.50266,0.16551 -1.44019,-0.69286 -1.44019,-0.69286c0,0 -0.02408,-1.13338 -0.61072,-1.64937c-0.21623,-0.19019 -0.51341,-0.17156 -0.80439,-0.31185c-0.44718,-0.2156 -0.87573,-0.56885 -0.94222,-0.77835c-0.11435,-0.36032 0.115,-0.82679 0.41638,-1.30906c0.24504,-0.3921 0.55693,-0.78489 0.61526,-1.21816c0.03185,-0.23657 -0.2103,-0.24491 -0.2967,-0.42905c-0.21929,-0.46739 -0.48748,-0.95243 -0.48748,-0.95243c0,0 0.14162,-1.6565 0.79597,-1.87194c0.13096,-0.04312 1.07527,0.91771 1.27742,0.85654c3.48765,-1.05555 17.40893,-5.28531 23.74299,-7.55869c0.46774,-0.16788 0.30399,-2.16599 0.68868,-2.2888c1.33441,-0.42596 1.93089,1.49978 1.93089,1.49978c0,0 0.05695,0.37044 0.17604,0.86605c0.06876,0.28619 0.08921,0.68728 0.30939,0.89427c0.55799,0.52457 1.82964,0.40039 1.99879,0.93338c0.07552,0.23798 0.18955,0.46314 -0.03958,0.83506c-0.17065,0.27701 -0.67167,0.68489 -0.77208,0.97568c-0.02761,0.07997 -0.11741,0.19577 -0.12772,0.27315c-0.05626,0.42226 0.34574,0.77619 0.4666,1.09133c0.17207,0.44866 0.09844,0.77934 0.09844,0.77934z" fill="url(#color-3)"></path></g><path d="M274.41094,180.37913l-1.73706,0.30099" fill="none" stroke="#a75900" stroke-width="0.5" stroke-linecap="round"></path><path d="M280.16361,178.76048l2.0167,-0.51309" fill="none" stroke="#a75900" stroke-width="0.5" stroke-linecap="round"></path><path d="M275.15983,183.06411l1.35434,-0.18012" fill="none" stroke="#a75900" stroke-width="0.5" stroke-linecap="round"></path><path d="M285.21726,181.67053l-1.53681,0.3863" fill="none" stroke="#a75900" stroke-width="0.5" stroke-linecap="round"></path><path d="M285.40803,180.001l1.05101,-0.35667" fill="none" stroke="#a75900" stroke-width="0.5" stroke-linecap="round"></path><path d="M290.90713,177.42258l-1.24532,0.36852" fill="none" stroke="#a75900" stroke-width="0.5" stroke-linecap="round"></path><path d="M294.06965,178.10741l-1.14817,0.3626" fill="none" stroke="#a75900" stroke-width="0.5" stroke-linecap="round"></path><path d="M295.63129,173.33105l-0.95385,0.35074" fill="none" stroke="#a75900" stroke-width="0.5" stroke-linecap="round"></path><path d="M297.66934,174.76713l0.67421,-0.13865" fill="none" stroke="#a75900" stroke-width="0.5" stroke-linecap="round"></path><path d="M298.22984,177.56112l-0.76544,0.24173" fill="none" stroke="#a75900" stroke-width="0.5" stroke-linecap="round"></path><path d="M270.61098,183.63413l-0.76544,0.24173" fill="none" stroke="#a75900" stroke-width="0.5" stroke-linecap="round"></path><path d="M271.44631,181.34014l-0.57704,0.13271" fill="none" stroke="#a75900" stroke-width="0.5" stroke-linecap="round"></path><path d="M272.19287,185.58564l0.96569,-0.15642" fill="none" stroke="#a75900" stroke-width="0.5" stroke-linecap="round"></path><path d="M292.42853,175.18428l-1.06879,0.06518" fill="none" stroke="#a75900" stroke-width="0.5" stroke-linecap="round"></path><path d="M273.58633,187.64616l-0.87445,0.05333" fill="none" stroke="#5e3200" stroke-width="0.5" stroke-linecap="round"></path><path d="M277.57234,185.84269l-1.93732,0.21567" fill="none" stroke="#5e3200" stroke-width="0.5" stroke-linecap="round"></path><path d="M299.84247,175.21972l0.57704,-0.13271" fill="none" stroke="#5e3200" stroke-width="0.5" stroke-linecap="round"></path><path d="M297.11475,172.07029l0.58298,-0.03556" fill="none" stroke="#5e3200" stroke-width="0.5" stroke-linecap="round"></path><path d="M299.14344,179.74844l0.75359,-0.43606" fill="none" stroke="#5e3200" stroke-width="0.5" stroke-linecap="round"></path><path d="M291.51504,180.99387l1.53089,-0.48346" fill="none" stroke="#5e3200" stroke-width="0.5" stroke-linecap="round"></path><path d="M295.64559,179.96177l0.76544,-0.24173" fill="none" stroke="#5e3200" stroke-width="0.5" stroke-linecap="round"></path><path d="M281.67327,184.32477l1.44558,-0.28321" fill="none" stroke="#5e3200" stroke-width="0.5" stroke-linecap="round"></path><path d="M288.45326,181.9608l-0.66828,0.2358" fill="none" stroke="#5e3200" stroke-width="0.5" stroke-linecap="round"></path></g></g></g></g></svg>