<svg version="1.1" xmlns="http://www.w3.org/2000/svg" xmlns:xlink="http://www.w3.org/1999/xlink" width="36.7213" height="22.77823" viewBox="0,0,36.7213,22.77823"><g transform="translate(-221.63935,-168.61088)"><g data-paper-data="{&quot;isPaintingLayer&quot;:true}" fill-rule="nonzero" stroke-linecap="butt" stroke-linejoin="miter" stroke-miterlimit="10" stroke-dasharray="" stroke-dashoffset="0" style="mix-blend-mode: normal"><path d="M221.88936,187.72263c0,-4.62902 0,-12.61873 0,-15.25915c0,-1.66878 1.14178,-3.60259 2.4098,-3.60259c3.90204,0 24.21273,0 31.338,0c1.54786,0 2.4735,1.3411 2.4735,3.32345c0,4.67113 0,12.90276 0,15.53828c0,1.59769 -0.95114,3.41649 -2.53719,3.41649c-7.16482,0 -27.28607,0 -31.21061,0c-1.29768,0 -2.4735,-1.38444 -2.4735,-3.41649z" fill-opacity="0.62097" fill="#291800" stroke="#fff4ce" stroke-width="0.5"></path><text transform="translate(224.09357,171.08187) scale(0.05848,0.05848)" font-size="40" xml:space="preserve" fill="#8bff00" fill-rule="nonzero" stroke="none" stroke-width="1" stroke-linecap="butt" stroke-linejoin="miter" stroke-miterlimit="10" stroke-dasharray="" stroke-dashoffset="0" font-family="&quot;Microsoft YaHei&quot;, &quot;微软雅黑&quot;, STXihei, &quot;华文细黑&quot;" font-weight="normal" text-anchor="start" style="mix-blend-mode: normal"><tspan x="0" dy="0">Verdant Mint</tspan></text><text transform="translate(225.20468,175.52632) scale(0.05848,0.05848)" font-size="40" xml:space="preserve" fill="#ffffff" fill-rule="nonzero" stroke="none" stroke-width="1" stroke-linecap="butt" stroke-linejoin="miter" stroke-miterlimit="10" stroke-dasharray="" stroke-dashoffset="0" font-family="&quot;Microsoft YaHei&quot;, &quot;微软雅黑&quot;, STXihei, &quot;华文细黑&quot;" font-weight="normal" text-anchor="start" style="mix-blend-mode: normal"><tspan x="0" dy="0">Make a difficult choice. You or</tspan><tspan x="0" dy="46.150000000000006px">Bob.</tspan></text><text transform="translate(223.04094,189.66089) scale(0.05493,0.05493)" font-size="40" xml:space="preserve" fill="#ffffff" fill-rule="nonzero" stroke="none" stroke-width="1" stroke-linecap="butt" stroke-linejoin="miter" stroke-miterlimit="10" stroke-dasharray="" stroke-dashoffset="0" font-family="&quot;Microsoft YaHei&quot;, &quot;微软雅黑&quot;, STXihei, &quot;华文细黑&quot;" font-weight="normal" text-anchor="start" style="mix-blend-mode: normal"><tspan x="0" dy="0">[Heal Passively]</tspan></text><text transform="translate(243.62573,189.60241) scale(0.05493,0.05493)" font-size="40" xml:space="preserve" fill="#ffffff" fill-rule="nonzero" stroke="none" stroke-width="1" stroke-linecap="butt" stroke-linejoin="miter" stroke-miterlimit="10" stroke-dasharray="" stroke-dashoffset="0" font-family="&quot;Microsoft YaHei&quot;, &quot;微软雅黑&quot;, STXihei, &quot;华文细黑&quot;" font-weight="normal" text-anchor="start" style="mix-blend-mode: normal"><tspan x="0" dy="0">[3 Crucfixies]</tspan></text></g></g></svg>