<svg version="1.1" xmlns="http://www.w3.org/2000/svg" xmlns:xlink="http://www.w3.org/1999/xlink" width="17.48627" height="17.75632" viewBox="0,0,17.48627,17.75632"><defs><radialGradient cx="239.79184" cy="192.55209" r="1.25071" gradientUnits="userSpaceOnUse" id="color-1"><stop offset="0" stop-color="#ffffff" stop-opacity="0.53358"></stop><stop offset="1" stop-color="#46e3ff" stop-opacity="0.59161"></stop></radialGradient><radialGradient cx="242.94955" cy="190.94681" r="1.25071" gradientUnits="userSpaceOnUse" id="color-2"><stop offset="0" stop-color="#ffffff" stop-opacity="0.53358"></stop><stop offset="1" stop-color="#46e3ff" stop-opacity="0.55129"></stop></radialGradient><linearGradient x1="235.86475" y1="200.27658" x2="237.15928" y2="201.22606" gradientUnits="userSpaceOnUse" id="color-3"><stop offset="0" stop-color="#00fdff" stop-opacity="0.41129"></stop><stop offset="1" stop-color="#ffffff" stop-opacity="0.67742"></stop></linearGradient><linearGradient x1="249.09114" y1="199.98552" x2="247.91511" y2="201.07837" gradientUnits="userSpaceOnUse" id="color-4"><stop offset="0" stop-color="#00fdff" stop-opacity="0.41129"></stop><stop offset="1" stop-color="#ffffff" stop-opacity="0.67742"></stop></linearGradient><linearGradient x1="240.16529" y1="195.60545" x2="240.52692" y2="195.22494" gradientUnits="userSpaceOnUse" id="color-5"><stop offset="0" stop-color="#948a00"></stop><stop offset="1" stop-color="#948a00" stop-opacity="0"></stop></linearGradient><linearGradient x1="245.48205" y1="193.73922" x2="244.95956" y2="193.68846" gradientUnits="userSpaceOnUse" id="color-6"><stop offset="0" stop-color="#948a00"></stop><stop offset="1" stop-color="#948a00" stop-opacity="0"></stop></linearGradient></defs><g transform="translate(-233.60951,-190.57425)"><g data-paper-data="{&quot;isPaintingLayer&quot;:true}" fill-rule="nonzero" stroke="none" stroke-linecap="butt" stroke-linejoin="miter" stroke-miterlimit="10" stroke-dasharray="" stroke-dashoffset="0" style="mix-blend-mode: normal"><path d="M241.38085,190.78291c1.67114,-0.62328 3.52023,0.19694 4.13007,1.83202c0.60983,1.63507 -0.25056,3.46584 -1.92169,4.08912c-1.67114,0.62328 -3.52024,-0.19694 -4.13007,-1.83201c-0.60983,-1.63507 0.25056,-3.46585 1.9217,-4.08913z" data-paper-data="{&quot;index&quot;:null}" fill="#000000" stroke-width="0"></path><path d="M245.0125,196.35265c0.15087,-0.00756 0.35823,1.67724 0.46284,3.76561c0.07962,1.58976 0.12921,2.57976 0.20884,4.16954c0.10461,2.08838 0.06662,3.78546 -0.08425,3.79301c-1.05191,0.0527 -3.93411,0.19705 -4.98605,0.24974c-0.15087,0.00756 -0.35772,-1.67727 -0.46233,-3.76564c-0.07962,-1.58976 -0.12921,-2.57976 -0.20884,-4.16954c-0.10461,-2.08838 -0.06714,-3.78543 0.08373,-3.79299c1.05191,-0.0527 3.93412,-0.19705 4.98605,-0.24974z" data-paper-data="{&quot;index&quot;:null}" fill="#000000" stroke-width="1"></path><path d="M250.12581,204.91764l-5.47552,-5.20974l0.96997,-1.56776l5.47552,5.20972z" data-paper-data="{&quot;index&quot;:null}" fill="#000000" stroke-width="0"></path><path d="M233.60951,203.28111l5.4824,-5.2025l1.51619,1.04871l-5.48239,5.20251z" data-paper-data="{&quot;index&quot;:null}" fill="#000000" stroke-width="0"></path><path d="M239.48742,194.76301c0,0 -0.27944,-1.10797 -0.20703,-1.46112c0.06615,-0.32259 0.47192,-1.17116 0.47192,-1.17116l0.38823,0.64507c0,0 -0.55647,0.47467 -0.61932,0.7812c-0.07434,0.36255 0.20191,1.25434 0.20191,1.25434z" fill="url(#color-1)" stroke-width="NaN"></path><path d="M244.95836,191.98297c0,0 -0.64573,-0.67428 -0.99881,-0.78518c-0.29854,-0.09378 -0.98359,0.16248 -0.98359,0.16248l-0.37568,-0.65247c0,0 0.93887,0.05695 1.25303,0.15563c0.34393,0.10804 1.17714,0.88999 1.17714,0.88999z" data-paper-data="{&quot;index&quot;:null}" fill="url(#color-2)" stroke-width="NaN"></path><path d="M233.65487,203.28958l5.48564,-5.31085l0.44498,0.42016l-5.73725,5.09919z" fill="url(#color-3)" stroke-width="0"></path><path d="M250.95634,203.44916l-5.7782,-4.89832l0.39339,-0.46881l5.44471,5.26447z" data-paper-data="{&quot;index&quot;:null}" fill="url(#color-4)" stroke-width="0"></path><path d="M241.89049,196.97189c0,0 -1.43356,-0.78032 -1.62801,-0.96515c-0.25081,-0.23837 -0.78687,-1.05674 -0.78687,-1.05674l0.36164,-0.3805l1.89867,1.51409z" fill="url(#color-5)" stroke-width="0"></path><path d="M244.60811,195.12907l0.44346,-2.3876l0.5225,0.05077c0,0 0.13077,0.9695 0.0973,1.31393c-0.02595,0.267 -0.59837,1.7955 -0.59837,1.7955z" data-paper-data="{&quot;index&quot;:null}" fill="url(#color-6)" stroke-width="0"></path></g></g></svg>