<svg version="1.1" xmlns="http://www.w3.org/2000/svg" xmlns:xlink="http://www.w3.org/1999/xlink" width="49.5" height="80.75" viewBox="0,0,49.5,80.75"><g transform="translate(-215.25,-139.625)"><g data-paper-data="{&quot;isPaintingLayer&quot;:true}" fill-rule="nonzero" stroke-linejoin="miter" stroke-miterlimit="10" stroke-dasharray="" stroke-dashoffset="0" style="mix-blend-mode: normal"><text transform="translate(220,182.1875) scale(0.29957,0.29957)" font-size="40" xml:space="preserve" fill="#ffffff" fill-rule="nonzero" stroke="none" stroke-width="1" stroke-linecap="butt" stroke-linejoin="miter" stroke-miterlimit="10" stroke-dasharray="" stroke-dashoffset="0" font-family="Sans Serif" font-weight="normal" text-anchor="start" style="mix-blend-mode: normal"><tspan x="0" dy="0">xAmt8</tspan></text><g stroke="#ffffff" stroke-width="4"><g><path d="M217.25,218.375v-47.25c0,0 12.50767,-29.5 20,-29.5c7.15918,0 24,29.5 24,29.5v47.25z" fill="#1f85b1" stroke-linecap="butt"></path><path d="M219.75,187.625l39.25,-0.25" fill="none" stroke-linecap="round"></path><path d="M241.25,189.625l21.5,27.25" fill="none" stroke-linecap="round"></path></g><path d="M237.75,184.875v-38.75" fill="none" stroke-linecap="round"></path><path d="M236.25,189.625l-15,25.5" fill="none" stroke-linecap="round"></path></g><path d="M228.5,164.375l2,1.5" fill="none" stroke="#33fffe" stroke-width="1" stroke-linecap="round"></path><path d="M231.75,158.125l-1.25,-2" fill="none" stroke="#33fffe" stroke-width="1" stroke-linecap="round"></path><path d="M221,175.125l2,2" fill="none" stroke="#33fffe" stroke-width="1" stroke-linecap="round"></path><path d="M226.25,176.375l1.75,1.5" fill="none" stroke="#33fffe" stroke-width="1" stroke-linecap="round"></path><path d="M244,168.875l2.75,2.25" fill="none" stroke="#33fffe" stroke-width="1" stroke-linecap="round"></path><path d="M249.5,158.875l-1.75,-1.5" fill="none" stroke="#33fffe" stroke-width="1" stroke-linecap="round"></path><path d="M251.25,170.875l2.75,3.5" fill="none" stroke="#33fffe" stroke-width="1" stroke-linecap="round"></path><path d="M247.5,180.375l-1.75,-2.5" fill="none" stroke="#33fffe" stroke-width="1" stroke-linecap="round"></path><path d="M223.5,194.125l-1.5,-1.5" fill="none" stroke="#33fffe" stroke-width="1" stroke-linecap="round"></path><path d="M221.25,198.875l1,1.5" fill="none" stroke="#33fffe" stroke-width="1" stroke-linecap="round"></path><path d="M238.5,214.375l-2,-3" fill="none" stroke="#33fffe" stroke-width="1" stroke-linecap="round"></path><path d="M239,202.375l2.75,1.75" fill="none" stroke="#33fffe" stroke-width="1" stroke-linecap="round"></path><path d="M252.25,193.625l3.25,2.75" fill="none" stroke="#33fffe" stroke-width="1" stroke-linecap="round"></path></g></g></svg>