<svg version="1.1" xmlns="http://www.w3.org/2000/svg" xmlns:xlink="http://www.w3.org/1999/xlink" width="196.44411" height="118.60021" viewBox="0,0,196.44411,118.60021"><defs><radialGradient cx="224.37227" cy="158.90201" r="2.68736" gradientUnits="userSpaceOnUse" id="color-1"><stop offset="0" stop-color="#79787a"></stop><stop offset="1" stop-color="#b3b0b4"></stop></radialGradient><radialGradient cx="228.90693" cy="189.57508" r="2.68736" gradientUnits="userSpaceOnUse" id="color-2"><stop offset="0" stop-color="#79787a"></stop><stop offset="1" stop-color="#b3b0b4"></stop></radialGradient><linearGradient x1="391.50395" y1="179.75443" x2="394.10599" y2="183.24107" gradientUnits="userSpaceOnUse" id="color-3"><stop offset="0" stop-color="#f5d95e" stop-opacity="0.76745"></stop><stop offset="1" stop-color="#f5d95e" stop-opacity="0"></stop></linearGradient><linearGradient x1="389.01514" y1="179.79361" x2="391.61713" y2="183.28026" gradientUnits="userSpaceOnUse" id="color-4"><stop offset="0" stop-color="#f5d95e" stop-opacity="0.76745"></stop><stop offset="1" stop-color="#f5d95e" stop-opacity="0"></stop></linearGradient><radialGradient cx="364.56409" cy="205.09092" r="2.71061" gradientUnits="userSpaceOnUse" id="color-5"><stop offset="0" stop-color="#79787a"></stop><stop offset="1" stop-color="#b3b0b4"></stop></radialGradient><radialGradient cx="367.75269" cy="206.423" r="2.00871" gradientUnits="userSpaceOnUse" id="color-6"><stop offset="0" stop-color="#79787a"></stop><stop offset="1" stop-color="#b3b0b4"></stop></radialGradient><radialGradient cx="382.99168" cy="218.75758" r="2.7106" gradientUnits="userSpaceOnUse" id="color-7"><stop offset="0" stop-color="#79787a"></stop><stop offset="1" stop-color="#b3b0b4"></stop></radialGradient><radialGradient cx="379.80301" cy="220.08967" r="2.00871" gradientUnits="userSpaceOnUse" id="color-8"><stop offset="0" stop-color="#79787a"></stop><stop offset="1" stop-color="#b3b0b4"></stop></radialGradient><radialGradient cx="373.77407" cy="233.1378" r="3.59354" gradientUnits="userSpaceOnUse" id="color-9"><stop offset="0" stop-color="#79787a"></stop><stop offset="1" stop-color="#464546"></stop></radialGradient><radialGradient cx="330.49021" cy="242.00856" r="2.7106" gradientUnits="userSpaceOnUse" id="color-10"><stop offset="0" stop-color="#79787a"></stop><stop offset="1" stop-color="#b3b0b4"></stop></radialGradient><radialGradient cx="335.13158" cy="240.31745" r="2.00871" gradientUnits="userSpaceOnUse" id="color-11"><stop offset="0" stop-color="#79787a"></stop><stop offset="1" stop-color="#b3b0b4"></stop></radialGradient><radialGradient cx="324.45457" cy="242.89303" r="2.7106" gradientUnits="userSpaceOnUse" id="color-12"><stop offset="0" stop-color="#79787a"></stop><stop offset="1" stop-color="#b3b0b4"></stop></radialGradient><radialGradient cx="326.49906" cy="242.33803" r="2.00871" gradientUnits="userSpaceOnUse" id="color-13"><stop offset="0" stop-color="#79787a"></stop><stop offset="1" stop-color="#b3b0b4"></stop></radialGradient><linearGradient x1="389.80839" y1="242.25443" x2="387.2064" y2="245.74107" gradientUnits="userSpaceOnUse" id="color-14"><stop offset="0" stop-color="#f5d95e" stop-opacity="0.76745"></stop><stop offset="1" stop-color="#f5d95e" stop-opacity="0"></stop></linearGradient><linearGradient x1="392.2972" y1="242.29361" x2="389.69521" y2="245.78026" gradientUnits="userSpaceOnUse" id="color-15"><stop offset="0" stop-color="#f5d95e" stop-opacity="0.76745"></stop><stop offset="1" stop-color="#f5d95e" stop-opacity="0"></stop></linearGradient><linearGradient x1="198.41669" y1="192.08333" x2="202.25005" y2="192.08333" gradientUnits="userSpaceOnUse" id="color-16"><stop offset="0" stop-color="#828282"></stop><stop offset="1" stop-color="#a1a1a1"></stop></linearGradient><radialGradient cx="211.25005" cy="176.66667" r="2.91667" gradientUnits="userSpaceOnUse" id="color-17"><stop offset="0" stop-color="#656565"></stop><stop offset="1" stop-color="#a1a1a1"></stop></radialGradient><radialGradient cx="236.80601" cy="163.24194" r="2.68736" gradientUnits="userSpaceOnUse" id="color-18"><stop offset="0" stop-color="#79787a"></stop><stop offset="1" stop-color="#b3b0b4"></stop></radialGradient><radialGradient cx="203.79752" cy="190.5613" r="2.91667" gradientUnits="userSpaceOnUse" id="color-19"><stop offset="0" stop-color="#656565"></stop><stop offset="1" stop-color="#a1a1a1"></stop></radialGradient><radialGradient cx="218.70868" cy="190.98692" r="2.91667" gradientUnits="userSpaceOnUse" id="color-20"><stop offset="0" stop-color="#656565"></stop><stop offset="1" stop-color="#a1a1a1"></stop></radialGradient></defs><g transform="translate(-198.41669,-155.91667)"><g data-paper-data="{&quot;isPaintingLayer&quot;:true}" fill-rule="nonzero" stroke-linejoin="miter" stroke-miterlimit="10" stroke-dasharray="" stroke-dashoffset="0" style="mix-blend-mode: normal"><path d="M301.72236,188.74659v4.37129h-45.66481v-4.37129z" data-paper-data="{&quot;index&quot;:null}" fill-opacity="0.02419" fill="#ffffff" stroke="none" stroke-width="0" stroke-linecap="butt"></path><text transform="translate(329.22693,269.78895) scale(0.10659,0.10659)" font-size="40" xml:space="preserve" fill="#79787a" fill-rule="nonzero" stroke="none" stroke-width="1" stroke-linecap="butt" stroke-linejoin="miter" stroke-miterlimit="10" stroke-dasharray="" stroke-dashoffset="0" font-family="Sans Serif" font-weight="normal" text-anchor="start" style="mix-blend-mode: normal"><tspan x="0" dy="0">xamt8</tspan></text><path d="M225.93656,156.24446v0.82475c0,0 -0.67206,0.4688 -0.99891,1.37829c-0.25004,0.69578 -0.14831,1.89019 -0.2846,1.89019c-0.40009,0 -0.92253,-3.26847 -0.92253,-3.26847v-0.82475z" data-paper-data="{&quot;index&quot;:null}" fill="url(#color-1)" stroke="#000000" stroke-width="0.05" stroke-linecap="butt"></path><path d="M201.05718,228.5v-6.14286h92.64286v6.14286z" fill="#a1a1a1" stroke="#000000" stroke-width="0" stroke-linecap="butt"></path><path d="M223.35723,199.92857v-5.85714h112.14286v5.85714z" fill="#676767" stroke="none" stroke-width="0" stroke-linecap="butt"></path><path d="M323.11906,244.56349v-45.36508h30.52381v45.36508z" fill="#a1a1a1" stroke="none" stroke-width="NaN" stroke-linecap="butt"></path><path d="M388.15563,192.28704v-25h5.44444v25z" fill-opacity="0.01613" fill="#a1a1a1" stroke="none" stroke-width="0" stroke-linecap="butt"></path><path d="M372.04263,239.25716v-8.36364h3.18182v8.36364z" fill-opacity="0.00806" fill="#a1a1a1" stroke="none" stroke-width="0" stroke-linecap="butt"></path><path d="M363.9029,210.05422v-7.75h4.5v7.75z" fill-opacity="0.00939" fill="#79787a" stroke="#000000" stroke-width="0" stroke-linecap="butt"></path><path d="M362.97691,192.84795v49.26182h-27.70949v-49.26182z" data-paper-data="{&quot;index&quot;:null}" fill="#a1a1a1" stroke="none" stroke-width="0" stroke-linecap="butt"></path><path d="M392.46959,169.01342c-0.40137,0.7247 -1.15401,1.07555 -1.68107,0.78364c-0.52706,-0.29191 -0.62894,-1.11603 -0.22757,-1.84073c0.40137,-0.7247 1.15401,-1.07555 1.68107,-0.78364c0.52706,0.29191 0.62894,1.11603 0.22757,1.84073z" fill="#8e8e8e" stroke="none" stroke-width="0" stroke-linecap="butt"></path><path d="M392.49553,189.58566c0.40416,0.80833 -0.03269,1.84585 -0.97574,2.31738c-0.94305,0.47152 -2.03518,0.19849 -2.43935,-0.60984c-0.40416,-0.80833 0.03269,-1.84585 0.97574,-2.31738c0.94305,-0.47152 2.03518,-0.19849 2.43935,0.60984z" fill="#535353" stroke="none" stroke-width="0" stroke-linecap="butt"></path><path d="M255.45635,170.91892v-3.75185h46.65592v3.75185z" fill-opacity="0.02419" fill="#ffffff" stroke="none" stroke-width="0" stroke-linecap="butt"></path><path d="M317.45435,194.8444v-2.10611h44.50544v2.10611z" fill="#a1a1a1" stroke="none" stroke-width="0" stroke-linecap="butt"></path><path d="M308.5773,182.10654c-0.15689,0.35145 -0.58322,0.5028 -0.95224,0.33806c-0.36901,-0.16474 -0.54097,-0.58319 -0.38407,-0.93462c0.15689,-0.35145 0.58322,-0.5028 0.95224,-0.33806c0.36901,0.16474 0.54097,0.58319 0.38407,0.93462z" fill="#b1b1b1" stroke="none" stroke-width="0" stroke-linecap="butt"></path><path d="M305.50489,177.10436c0,0.4426 -0.3432,0.8014 -0.76656,0.8014c-0.42336,0 -0.76656,-0.35881 -0.76656,-0.8014c0,-0.4426 0.3432,-0.8014 0.76656,-0.8014c0.42336,0 0.76656,0.35881 0.76656,0.8014z" fill="#8a8a8a" stroke="none" stroke-width="0" stroke-linecap="butt"></path><path d="M300.87172,193.76666c-0.48888,0 -0.8852,-0.83666 -0.8852,-1.86875c0,-1.03207 0.39633,-1.86876 0.8852,-1.86876c0.48888,0 0.8852,0.83667 0.8852,1.86876c0,1.03207 -0.39633,1.86875 -0.8852,1.86875z" data-paper-data="{&quot;index&quot;:null}" fill="#9f9ca6" stroke="none" stroke-width="0" stroke-linecap="butt"></path><path d="M299.04141,192.94136c-1.24935,0 -2.26216,-0.44035 -2.26216,-0.98355c0,-0.5432 1.01281,-0.98355 2.26216,-0.98355c1.24935,0 2.26217,0.44035 2.26217,0.98355c0,0.5432 -1.01281,0.98355 -2.26217,0.98355z" data-paper-data="{&quot;index&quot;:null}" fill="#cbcbcb" stroke="none" stroke-width="0" stroke-linecap="butt"></path><path d="M296.13277,193.46084c-0.97911,0.32637 -1.9678,0.00609 -2.2083,-0.71536c-0.24049,-0.72146 0.3583,-1.57089 1.33742,-1.89726c0.97911,-0.32637 1.96779,-0.0061 2.20828,0.71536c0.24049,0.72146 -0.35829,1.5709 -1.3374,1.89727z" data-paper-data="{&quot;index&quot;:null}" fill="#3d3d3d" stroke="none" stroke-width="0" stroke-linecap="butt"></path><path d="M292.47758,192.47823c-0.37806,-0.42707 -0.32184,-1.09434 0.12556,-1.49039c0.44739,-0.39606 1.11656,-0.37093 1.49462,0.05614c0.37806,0.42707 0.32184,1.09434 -0.12556,1.49039c-0.44739,0.39606 -1.11657,0.37091 -1.49462,-0.05614z" data-paper-data="{&quot;index&quot;:null}" fill="#b6b6b6" stroke="none" stroke-width="0" stroke-linecap="butt"></path><path d="M289.11949,193.73192c-2.09719,0.24288 -3.89071,-0.09031 -4.00594,-0.7442c-0.11522,-0.6539 1.49148,-1.38086 3.58866,-1.62374c2.09719,-0.24288 3.8907,0.09031 4.00594,0.7442c0.11522,0.6539 -1.49146,1.38086 -3.58865,1.62374z" data-paper-data="{&quot;index&quot;:null}" fill="#898989" stroke="none" stroke-width="0" stroke-linecap="butt"></path><path d="M285.41078,192.80569c-0.62435,-0.1873 -1.01661,-0.71874 -0.87613,-1.187c0.14048,-0.46827 0.76051,-0.69601 1.38485,-0.50872c0.62435,0.1873 1.0166,0.71874 0.87612,1.187c-0.14048,0.46827 -0.76049,0.69601 -1.38485,0.50872z" data-paper-data="{&quot;index&quot;:null}" fill="#e3e3e3" stroke="none" stroke-width="0" stroke-linecap="butt"></path><path d="M280.15725,194.02327c-1.03207,0 -1.86875,-0.63851 -1.86875,-1.42615c0,-0.78763 0.83667,-1.42615 1.86875,-1.42615c1.03207,0 1.86876,0.6385 1.86876,1.42615c0,0.78763 -0.83667,1.42615 -1.86876,1.42615z" data-paper-data="{&quot;index&quot;:null}" fill="#7e7e7e" stroke="none" stroke-width="0" stroke-linecap="butt"></path><path d="M283.08052,193.13136c-0.91819,-0.09838 -1.60622,-0.70354 -1.53679,-1.35168c0.06944,-0.64814 0.87008,-1.0938 1.78826,-0.99541c0.91819,0.09838 1.60622,0.70354 1.53678,1.35168c-0.06944,0.64814 -0.87007,1.0938 -1.78825,0.99541z" data-paper-data="{&quot;index&quot;:null}" fill="#b6b6b6" stroke="none" stroke-width="0" stroke-linecap="butt"></path><path d="M276.28292,193.17654c-1.24935,0 -2.26217,-0.44035 -2.26217,-0.98355c0,-0.5432 1.01281,-0.98355 2.26217,-0.98355c1.24935,0 2.26216,0.44036 2.26216,0.98355c0,0.5432 -1.01281,0.98355 -2.26216,0.98355z" data-paper-data="{&quot;index&quot;:null}" fill="#cbcbcb" stroke="none" stroke-width="0" stroke-linecap="butt"></path><path d="M273.37431,193.696c-0.97911,0.32637 -1.96779,0.00609 -2.20828,-0.71536c-0.24049,-0.72146 0.35829,-1.57089 1.33742,-1.89726c0.97911,-0.32637 1.96779,-0.00609 2.20828,0.71536c0.24049,0.72146 -0.35829,1.57089 -1.33742,1.89726z" data-paper-data="{&quot;index&quot;:null}" fill="#3d3d3d" stroke="none" stroke-width="0" stroke-linecap="butt"></path><path d="M269.71907,192.7134c-0.37806,-0.42707 -0.32184,-1.09434 0.12556,-1.49039c0.44739,-0.39606 1.11657,-0.37091 1.49462,0.05614c0.37806,0.42707 0.32184,1.09434 -0.12556,1.49039c-0.44739,0.39606 -1.11657,0.37093 -1.49462,-0.05614z" data-paper-data="{&quot;index&quot;:null}" fill="#b6b6b6" stroke="none" stroke-width="0" stroke-linecap="butt"></path><path d="M266.361,193.96709c-2.09719,0.24288 -3.89071,-0.09031 -4.00594,-0.7442c-0.11522,-0.6539 1.49146,-1.38087 3.58865,-1.62374c2.09719,-0.24288 3.89071,0.09033 4.00594,0.74422c0.11522,0.6539 -1.49146,1.38086 -3.58865,1.62374z" data-paper-data="{&quot;index&quot;:null}" fill="#898989" stroke="none" stroke-width="0" stroke-linecap="butt"></path><path d="M262.65227,193.04084c-0.62435,-0.1873 -1.01661,-0.71874 -0.87613,-1.187c0.14048,-0.46827 0.76049,-0.69603 1.38484,-0.50872c0.62435,0.1873 1.01661,0.71874 0.87613,1.187c-0.14048,0.46827 -0.76049,0.69601 -1.38484,0.50872z" data-paper-data="{&quot;index&quot;:null}" fill="#e3e3e3" stroke="none" stroke-width="0" stroke-linecap="butt"></path><path d="M257.39876,194.25844c-1.03207,0 -1.86875,-0.63851 -1.86875,-1.42615c0,-0.78763 0.83666,-1.42615 1.86875,-1.42615c1.03207,0 1.86876,0.6385 1.86876,1.42615c0,0.78763 -0.83667,1.42615 -1.86876,1.42615z" data-paper-data="{&quot;index&quot;:null}" fill="#7e7e7e" stroke="none" stroke-width="0" stroke-linecap="butt"></path><path d="M260.32205,193.36653c-0.91819,-0.09838 -1.60623,-0.70354 -1.53679,-1.35168c0.06944,-0.64814 0.87008,-1.0938 1.78826,-0.99541c0.91819,0.09838 1.60622,0.64371 1.53679,1.29184c-0.06944,0.64814 -0.87007,1.15363 -1.78825,1.05526z" data-paper-data="{&quot;index&quot;:null}" fill="#b6b6b6" stroke="none" stroke-width="0" stroke-linecap="butt"></path><path d="M300.92064,167.72039c0,1.03207 -0.39631,1.86876 -0.8852,1.86876c-0.48887,0 -0.8852,-0.83667 -0.8852,-1.86876c0,-1.03207 0.39631,-1.86875 0.8852,-1.86875c0.48887,0 0.8852,0.83666 0.8852,1.86875z" fill="#9f9ca6" stroke="none" stroke-width="0" stroke-linecap="butt"></path><path d="M300.46736,167.66049c0,0.5432 -1.01281,0.98355 -2.26217,0.98355c-1.24935,0 -2.26216,-0.44035 -2.26216,-0.98355c0,-0.5432 1.01281,-0.98355 2.26216,-0.98355c1.24935,0 2.26217,0.44035 2.26217,0.98355z" fill="#cbcbcb" stroke="none" stroke-width="0" stroke-linecap="butt"></path><path d="M296.63392,168.05474c-0.24049,0.72145 -1.22917,1.04173 -2.20828,0.71536c-0.97911,-0.32637 -1.57791,-1.1758 -1.33742,-1.89726c0.24049,-0.72145 1.22917,-1.04173 2.2083,-0.71536c0.97911,0.32637 1.5779,1.1758 1.3374,1.89726z" fill="#3d3d3d" stroke="none" stroke-width="0" stroke-linecap="butt"></path><path d="M293.13595,167.08391c0.4474,0.39606 0.50361,1.06334 0.12556,1.4904c-0.37806,0.42707 -1.04722,0.4522 -1.49462,0.05614c-0.4474,-0.39606 -0.50362,-1.06333 -0.12556,-1.49039c0.37806,-0.42707 1.04723,-0.4522 1.49462,-0.05614z" fill="#b6b6b6" stroke="none" stroke-width="0" stroke-linecap="butt"></path><path d="M291.8719,167.51012c-0.11522,0.65389 -1.90875,0.98708 -4.00594,0.7442c-2.09719,-0.24288 -3.70388,-0.96984 -3.58866,-1.62374c0.11522,-0.65389 1.90875,-0.98708 4.00594,-0.7442c2.09719,0.24288 3.70388,0.96984 3.58865,1.62374z" fill="#898989" stroke="none" stroke-width="0" stroke-linecap="butt"></path><path d="M285.95939,167.32135c0.14048,0.46827 -0.25178,0.99971 -0.87612,1.187c-0.62435,0.1873 -1.24437,-0.04045 -1.38485,-0.50872c-0.14048,-0.46827 0.25178,-0.99971 0.87613,-1.18701c0.62435,-0.1873 1.24437,0.04045 1.38485,0.50872z" fill="#e3e3e3" stroke="none" stroke-width="0" stroke-linecap="butt"></path><path d="M281.18976,167.02117c0,0.78763 -0.83667,1.42615 -1.86876,1.42615c-1.03207,0 -1.86875,-0.63851 -1.86875,-1.42615c0,-0.78763 0.83667,-1.42615 1.86875,-1.42615c1.03207,0 1.86876,0.6385 1.86876,1.42615z" fill="#7e7e7e" stroke="none" stroke-width="0" stroke-linecap="butt"></path><path d="M284.03254,167.48236c0.06944,0.64814 -0.61859,1.25329 -1.53678,1.35168c-0.91819,0.09838 -1.71882,-0.34728 -1.78826,-0.99541c-0.06944,-0.64814 0.6186,-1.2533 1.53679,-1.35168c0.91819,-0.09838 1.71881,0.34729 1.78825,0.99542z" fill="#b6b6b6" stroke="none" stroke-width="0" stroke-linecap="butt"></path><path d="M277.70887,167.42531c0,0.5432 -1.01281,0.98355 -2.26216,0.98355c-1.24935,0 -2.26217,-0.44036 -2.26217,-0.98355c0,-0.5432 1.01281,-0.98355 2.26217,-0.98355c1.24935,0 2.26216,0.44035 2.26216,0.98355z" fill="#cbcbcb" stroke="none" stroke-width="0" stroke-linecap="butt"></path><path d="M273.87548,167.81956c-0.24049,0.72145 -1.22917,1.04173 -2.20828,0.71536c-0.97911,-0.32637 -1.5779,-1.1758 -1.33742,-1.89726c0.24049,-0.72145 1.22917,-1.04173 2.20828,-0.71536c0.97911,0.32637 1.5779,1.1758 1.33742,1.89726z" fill="#3d3d3d" stroke="none" stroke-width="0" stroke-linecap="butt"></path><path d="M270.37746,166.84876c0.4474,0.39606 0.50361,1.06333 0.12556,1.49039c-0.37806,0.42707 -1.04723,0.4522 -1.49462,0.05614c-0.4474,-0.39606 -0.50361,-1.06334 -0.12556,-1.4904c0.37806,-0.42707 1.04723,-0.4522 1.49462,-0.05614z" fill="#b6b6b6" stroke="none" stroke-width="0" stroke-linecap="butt"></path><path d="M269.11341,167.27496c-0.11522,0.65389 -1.90875,0.98708 -4.00594,0.7442c-2.09719,-0.24288 -3.70387,-0.96984 -3.58865,-1.62374c0.11522,-0.65389 1.90875,-0.98708 4.00594,-0.7442c2.09719,0.24288 3.70387,0.96984 3.58865,1.62374z" fill="#898989" stroke="none" stroke-width="0" stroke-linecap="butt"></path><path d="M263.2009,167.08617c0.14048,0.46827 -0.25178,0.99971 -0.87613,1.18701c-0.62435,0.1873 -1.24436,-0.04045 -1.38484,-0.50872c-0.14048,-0.46827 0.25178,-0.99971 0.87613,-1.187c0.62435,-0.1873 1.24436,0.04045 1.38484,0.50872z" fill="#e3e3e3" stroke="none" stroke-width="0" stroke-linecap="butt"></path><path d="M258.43127,166.786c0,0.78763 -0.83667,1.42615 -1.86876,1.42615c-1.03207,0 -1.86875,-0.63851 -1.86875,-1.42615c0,-0.78763 0.83666,-1.42615 1.86875,-1.42615c1.03207,0 1.86876,0.6385 1.86876,1.42615z" fill="#7e7e7e" stroke="none" stroke-width="0" stroke-linecap="butt"></path><path d="M261.27405,167.30703c0.06944,0.64814 -0.6186,1.19346 -1.53679,1.29184c-0.91819,0.09838 -1.71882,-0.34729 -1.78826,-0.99541c-0.06944,-0.64814 0.6186,-1.25329 1.53679,-1.35168c0.91819,-0.09838 1.71881,0.40712 1.78825,1.05526z" fill="#b6b6b6" stroke="none" stroke-width="0" stroke-linecap="butt"></path><path d="M225.13043,192.98602v-26.60063h1.99106v26.60063z" fill="#464546" stroke="none" stroke-width="0" stroke-linecap="butt"></path><path d="M224.15058,194.82046v-1.93682h38.59235v1.93682z" fill="#757575" stroke="none" stroke-width="0.5" stroke-linecap="butt"></path><path d="M220.9774,199.69171v-34.57647h3.18401v34.57647z" fill="#686868" stroke="none" stroke-width="0.5" stroke-linecap="butt"></path><path d="M224.20136,166.65239v-1.47307h37.56923v1.47307z" fill="#686868" stroke="none" stroke-width="0.5" stroke-linecap="butt"></path><path d="M228.89842,167.55572c0,0.66711 -0.49921,1.20791 -1.115,1.20791c-0.61579,0 -1.115,-0.5408 -1.115,-1.20791c0,-0.66711 0.49921,-1.20791 1.115,-1.20791c0.61579,0 1.115,0.5408 1.115,1.20791z" fill="#8e8e8e" stroke="none" stroke-width="0" stroke-linecap="butt"></path><path d="M229.5356,167.92076c0,0.33355 -0.2704,0.60396 -0.60396,0.60396c-0.33355,0 -0.60396,-0.2704 -0.60396,-0.60396c0,-0.33355 0.2704,-0.60396 0.60396,-0.60396c0.33355,0 0.60396,0.2704 0.60396,0.60396z" fill="#c4c4c4" stroke="none" stroke-width="0" stroke-linecap="butt"></path><path d="M228.26518,192.23262v-0.82475c0,0 0.52244,-3.26847 0.92253,-3.26847c0.13629,0 0.03456,1.19441 0.2846,1.89019c0.32685,0.90949 0.99891,1.37829 0.99891,1.37829v0.82475z" data-paper-data="{&quot;index&quot;:null}" fill="url(#color-2)" stroke="#000000" stroke-width="0.05" stroke-linecap="butt"></path><path d="M225.05082,188.68533v-0.47785h2.22999v0.47785z" fill="#a3a1a3" stroke="none" stroke-width="0" stroke-linecap="butt"></path><path d="M225.28972,171.64181v-0.5575h1.91143v0.5575z" fill="#a3a1a3" stroke="none" stroke-width="0" stroke-linecap="butt"></path><path d="M249.26214,166.70397v-1.59285h61.78275v1.59285z" fill="#8e6929" stroke="none" stroke-width="0" stroke-linecap="butt"></path><path d="M252.76644,171.88073v-5.97319h4.22105v5.97319z" fill="#8e6929" stroke="none" stroke-width="0" stroke-linecap="butt"></path><path d="M252.52754,193.54352v-5.9732h4.22106v5.9732z" fill="#8e6929" stroke="none" stroke-width="0" stroke-linecap="butt"></path><path d="M250.05861,194.73817v-1.91143h61.1954v1.91143z" fill="#8e6929" stroke="none" stroke-width="0" stroke-linecap="butt"></path><path d="M250.87012,174.99439z" fill="none" stroke="#bea252" stroke-width="0.5" stroke-linecap="butt"></path><path d="M304.11118,181.0417v-3.06624c0,0 1.4817,-0.90593 2.22999,-0.90593c0.71348,0 2.16031,0.90593 2.16031,0.90593v3.06624c0,0 -1.51652,1.39375 -2.22999,1.39375c-0.7483,0 -2.16031,-1.39375 -2.16031,-1.39375z" fill="#59421a" stroke="none" stroke-width="0" stroke-linecap="butt"></path><path d="M304.87773,180.76113v-2.15035c0,0 1.03911,-0.63534 1.56389,-0.63534c0.50035,0 1.51502,0.63534 1.51502,0.63534v2.15035c0,0 -1.06353,0.97743 -1.56389,0.97743c-0.52478,0 -1.51502,-0.97743 -1.51502,-0.97743z" fill="#8a6628" stroke="none" stroke-width="0" stroke-linecap="butt"></path><path d="M303.484,182.78388v-6.62029h5.57498v6.62029z" fill-opacity="0.01613" fill="#b1b1b1" stroke="none" stroke-width="0" stroke-linecap="butt"></path><path d="M310.88827,171.05779v-5.94664h7.06164v5.94664z" fill="#727272" stroke="none" stroke-width="0" stroke-linecap="butt"></path><path d="M310.88827,194.72051v-5.94666h7.06164v5.94666z" fill="#727272" stroke="none" stroke-width="0" stroke-linecap="butt"></path><path d="M317.82599,167.21723v-2.10611h69.55864v2.10611z" fill="#a1a1a1" stroke="none" stroke-width="0" stroke-linecap="butt"></path><path d="M393.97691,191.75704v51.10273h-8.8004v-51.10273z" data-paper-data="{&quot;index&quot;:null}" fill="#a1a1a1" stroke="none" stroke-width="0" stroke-linecap="butt"></path><path d="M386.87886,167.71215v-2.45455h5.90909v2.45455z" fill="#7a7a7a" stroke="none" stroke-width="0" stroke-linecap="butt"></path><path d="M386.51523,194.43943v-2.72727h6.36364v2.72727z" fill="#7a7a7a" stroke="none" stroke-width="0" stroke-linecap="butt"></path><path d="M391.89399,194.0758v-37.78788h2.18182v37.78788z" fill="#7a7a7a" stroke="none" stroke-width="0" stroke-linecap="butt"></path><path d="M389.55884,177.93811l2.76633,-6.62766l1.5101,0.6303l-2.76633,6.62766z" fill="#a77a57" stroke="none" stroke-width="0" stroke-linecap="butt"></path><path d="M388.94888,172.84973l0.71939,-1.04991l4.04967,2.77477l-0.71939,1.04991z" fill="#a77a57" stroke="none" stroke-width="0" stroke-linecap="butt"></path><path d="M391.02311,188.83118l1.94585,-4.1079l0.49295,0.2335l-1.94585,4.1079z" fill="#a77a57" stroke="none" stroke-width="0" stroke-linecap="butt"></path><g stroke-width="0.25"><path d="M388.39571,180.18476v-0.39194h3.44905v0.39194z" fill="#f5c900" stroke="none" stroke-linecap="butt"></path><path d="M390.04185,180.79226l-0.80347,-0.47033" data-paper-data="{&quot;index&quot;:null}" fill="none" stroke="#000000" stroke-linecap="round"></path><path d="M390.33579,180.83145l0.80347,-0.47033" fill="none" stroke="#000000" stroke-linecap="round"></path><path d="M388.97977,183.08849l0.04608,-0.22527l1.15452,0.23615l-0.04608,0.22527z" fill="#000000" stroke="none" stroke-linecap="butt"></path><path d="M390.16937,184.41606l-0.08623,-1.32214h0.25868v1.20717z" fill="#000000" stroke="none" stroke-linecap="butt"></path><path d="M390.10217,183.31948l-0.02694,-0.19939l1.22478,-0.16551l0.02694,0.19938z" fill="#000000" stroke="none" stroke-linecap="butt"></path><path d="M390.02561,183.41009v-3.2766h0.3449v3.2766z" fill="#f5c900" stroke="none" stroke-linecap="butt"></path><path d="M390.02561,181.68557v-0.17245h0.3449v0.17245z" fill="#000000" stroke="none" stroke-linecap="butt"></path><path d="M389.99389,180.18939v-0.40844h0.34037v0.40844c0,0 -0.06619,0.07839 -0.11603,0.07839c-0.06125,0 -0.22433,-0.07839 -0.22433,-0.07839z" fill="#040400" stroke="none" stroke-linecap="butt"></path><path d="M388.292,180.23788v-0.88495h1.29339v0.88495z" fill="#f5e49a" stroke="#000000" stroke-linecap="butt"></path><path d="M388.53289,179.44008l0.01959,0.6467" fill="none" stroke="#000000" stroke-linecap="round"></path><path d="M388.92482,179.44008l0.01959,0.68589" fill="none" stroke="#000000" stroke-linecap="round"></path><path d="M389.33636,180.06718l-0.01959,-0.58791" fill="none" stroke="#000000" stroke-linecap="round"></path><path d="M389.41475,179.85161c0,0 -0.31971,0.10478 -0.49141,0.0983c-0.17447,-0.00658 -0.54722,-0.13749 -0.54722,-0.13749" fill="none" stroke="#000000" stroke-linecap="round"></path><path d="M390.80149,180.25747v-0.88495h1.29339v0.88495z" data-paper-data="{&quot;index&quot;:null}" fill="#f5e49a" stroke="#000000" stroke-linecap="butt"></path><path d="M391.83444,180.10637l0.0196,-0.6467" data-paper-data="{&quot;index&quot;:null}" fill="none" stroke="#000000" stroke-linecap="round"></path><path d="M391.4621,179.45967l-0.0196,0.68589" data-paper-data="{&quot;index&quot;:null}" fill="none" stroke="#000000" stroke-linecap="round"></path><path d="M391.05051,180.08676l0.0196,-0.58791" data-paper-data="{&quot;index&quot;:null}" fill="none" stroke="#000000" stroke-linecap="round"></path><path d="M392.01075,179.83201c0,0 -0.37275,0.13091 -0.54722,0.13749c-0.1717,0.00648 -0.49141,-0.0983 -0.49141,-0.0983" data-paper-data="{&quot;index&quot;:null}" fill="none" stroke="#000000" stroke-linecap="round"></path><path d="M393.52488,183.67473l-2.60197,-3.48664c0,0 -0.18114,-0.61243 0.0039,-0.75051c0.20104,-0.15003 1.15832,-0.11681 1.15832,-0.11681l2.60197,3.48664z" fill="url(#color-3)" stroke="none" stroke-linecap="butt"></path><path d="M391.03608,183.71391l-2.60197,-3.48664c0,0 -0.18114,-0.61243 0.0039,-0.75051c0.20104,-0.15003 1.15832,-0.11681 1.15832,-0.11681l2.60197,3.48664z" fill="url(#color-4)" stroke="none" stroke-linecap="butt"></path></g><path d="M338.68321,167.13153c0.07652,0.16096 0.11745,0.33075 0.11745,0.50619c0,1.03012 -1.41121,1.8652 -3.15201,1.8652c-1.7408,0 -3.15201,-0.83508 -3.15201,-1.8652c0,-0.17543 0.04093,-0.34523 0.11745,-0.50619" fill="none" stroke="#bea252" stroke-width="0.5" stroke-linecap="butt"></path><path d="M331.22076,169.34214v-2.50874h1.13644v2.50874z" fill="#59421a" stroke="none" stroke-width="0" stroke-linecap="butt"></path><path d="M338.54875,169.39575v-2.50874h1.39375v2.50874z" fill="#59421a" stroke="none" stroke-width="0" stroke-linecap="butt"></path><path d="M339.01658,190.35375c0.07652,0.16096 0.11745,0.33075 0.11745,0.50619c0,1.03012 -1.41121,1.8652 -3.15201,1.8652c-1.7408,0 -3.15201,-0.83508 -3.15201,-1.8652c0,-0.17543 0.04093,-0.34523 0.11745,-0.50619" fill="none" stroke="#bea252" stroke-width="0.5" stroke-linecap="butt"></path><path d="M331.55411,192.56437v-2.50874h1.13644v2.50874z" fill="#59421a" stroke="none" stroke-width="0" stroke-linecap="butt"></path><path d="M338.88208,192.61797v-2.50874h1.39375v2.50874z" fill="#59421a" stroke="none" stroke-width="0" stroke-linecap="butt"></path><path d="M363.91673,209.26975v-1.29688c0,0 0.52696,-5.13949 0.93051,-5.13949c0.13746,0 0.03486,1.87814 0.28707,2.97221c0.32967,1.43012 1.00755,2.16727 1.00755,2.16727v1.29688z" data-paper-data="{&quot;index&quot;:null}" fill="url(#color-5)" stroke="#000000" stroke-width="0.15" stroke-linecap="butt"></path><path d="M366.58345,209.51975v-0.96106c0,0 0.50235,-0.54627 0.74665,-1.60607c0.1869,-0.81077 0.11087,-2.20257 0.21273,-2.20257c0.29905,0 0.68956,3.80864 0.68956,3.80864v0.96106z" data-paper-data="{&quot;index&quot;:null}" fill="url(#color-6)" stroke="#000000" stroke-width="0.15" stroke-linecap="butt"></path><path d="M379.1529,223.72089v-7.75h4.5v7.75z" data-paper-data="{&quot;index&quot;:null}" fill-opacity="0.00939" fill="#79787a" stroke="#000000" stroke-width="0" stroke-linecap="butt"></path><path d="M381.41387,222.93642v-1.29688c0,0 0.67788,-0.73715 1.00755,-2.16727c0.25221,-1.09407 0.14961,-2.97221 0.28707,-2.97221c0.40355,0 0.9305,5.13948 0.9305,5.13948v1.29688z" data-paper-data="{&quot;index&quot;:null}" fill="url(#color-7)" stroke="#000000" stroke-width="0.15" stroke-linecap="butt"></path><path d="M379.32334,223.18642v-0.96106c0,0 0.39051,-3.80864 0.68956,-3.80864c0.10186,0 0.02584,1.3918 0.21274,2.20257c0.2443,1.0598 0.74665,1.60607 0.74665,1.60607v0.96106z" data-paper-data="{&quot;index&quot;:null}" fill="url(#color-8)" stroke="#000000" stroke-width="0.15" stroke-linecap="butt"></path><path d="M372.23317,238.90457v-0.51489c0,0 0.83142,-2.1439 1.06001,-3.64235c0.1656,-1.08551 -0.30155,-1.66103 -0.10886,-1.66103c0.05902,0 0.23014,-1.03452 0.40535,-1.63726c0.06663,-0.22922 -0.01258,-0.48408 0.11765,-0.46664c0.21615,0.02894 0.67307,1.66451 1.05454,2.16814c0.35839,0.47316 -0.79568,1.97866 -0.60021,2.59465c0.44067,1.38867 0.92496,2.64449 0.92496,2.64449v0.51489z" data-paper-data="{&quot;index&quot;:null}" fill="url(#color-9)" stroke="#000000" stroke-width="0" stroke-linecap="butt"></path><path d="M362.09349,206.69239c-0.40338,1.71034 -1.38403,2.94269 -2.19033,2.75253c-0.80631,-0.19017 -1.13294,-1.73083 -0.72956,-3.44118c0.40338,-1.71034 1.38403,-2.94269 2.19033,-2.75253c0.80631,0.19017 1.13294,1.73083 0.72956,3.44118z" fill="#7c7c7c" stroke="none" stroke-width="0" stroke-linecap="butt"></path><path d="M361.45917,223.5816c-0.1379,0.66363 -1.04669,1.03599 -2.02984,0.8317c-0.98315,-0.20429 -1.66837,-0.90788 -1.53047,-1.57151c0.1379,-0.66363 1.04669,-1.03599 2.02984,-0.8317c0.98315,0.20429 1.66837,0.90788 1.53047,1.57151z" fill="#969696" stroke="none" stroke-width="0" stroke-linecap="butt"></path><path d="M357.11999,238.07032l1.9127,-6.25976l1.478,0.45161l-1.9127,6.25976z" fill="#575757" stroke="none" stroke-width="0" stroke-linecap="butt"></path><path d="M391.1131,200.78742c-0.24237,0.55159 -0.97916,0.76134 -1.64567,0.46848c-0.66651,-0.29286 -1.01034,-0.97742 -0.76798,-1.52902c0.24237,-0.55159 0.97916,-0.76134 1.64567,-0.46848c0.66651,0.29286 1.01034,0.97742 0.76798,1.52902z" fill="#7c7c7c" stroke="none" stroke-width="0" stroke-linecap="butt"></path><path d="M389.49722,216.57534c0,0.97905 -0.81403,1.77273 -1.81818,1.77273c-1.00415,0 -1.81818,-0.79368 -1.81818,-1.77273c0,-0.97905 0.81403,-1.77273 1.81818,-1.77273c1.00415,0 1.81818,0.79368 1.81818,1.77273z" fill="#bbbbbb" stroke="none" stroke-width="0" stroke-linecap="butt"></path><path d="M388.8486,233.40357l0.44992,-2.04193l2.57461,0.56729l-0.44992,2.04193z" fill="#8d8d8d" stroke="none" stroke-width="0" stroke-linecap="butt"></path><path d="M331.12809,237.58756l0.28015,1.26626c0,0 -0.50264,0.86618 -0.5156,2.33375c-0.00992,1.12272 0.49596,2.93436 0.36174,2.96405c-0.39402,0.08717 -2.01873,-4.81714 -2.01873,-4.81714l-0.28015,-1.26626z" data-paper-data="{&quot;index&quot;:null}" fill="url(#color-10)" stroke="#000000" stroke-width="0.15" stroke-linecap="butt"></path><path d="M334.03292,237.38266l0.47074,0.83788c0,0 1.52507,3.51175 1.26434,3.65823c-0.08881,0.04989 -0.70425,-1.20075 -1.26432,-1.81605c-0.73209,-0.8043 -1.43763,-1.0345 -1.43763,-1.0345l-0.47074,-0.83788z" data-paper-data="{&quot;index&quot;:null}" fill="url(#color-11)" stroke="#000000" stroke-width="0.15" stroke-linecap="butt"></path><path d="M325.24584,238.73904l-0.04478,1.29611c0,0 -0.70412,5.11822 -1.10743,5.10428c-0.13738,-0.00475 0.03001,-1.87823 -0.18425,-2.98035c-0.28008,-1.44065 -0.93211,-2.20077 -0.93211,-2.20077l0.04478,-1.2961z" data-paper-data="{&quot;index&quot;:null}" fill="url(#color-12)" stroke="#000000" stroke-width="0.15" stroke-linecap="butt"></path><path d="M327.39144,239.15046l0.08451,0.95734c0,0 -0.45236,0.58833 -0.60252,1.66551c-0.11488,0.82406 0.08324,2.20379 -0.01823,2.21274c-0.29788,0.0263 -1.02181,-3.73324 -1.02181,-3.73324l-0.08451,-0.95734z" data-paper-data="{&quot;index&quot;:null}" fill="url(#color-13)" stroke="#000000" stroke-width="0.15" stroke-linecap="butt"></path><path d="M384.76989,274.51688v-9.89611h10.09091v9.89611z" fill="#a1a1a1" stroke="none" stroke-width="0" stroke-linecap="butt"></path><path d="M352.31537,273.69871v-8.89611h10.09091v8.89611z" fill="#a1a1a1" stroke="none" stroke-width="0" stroke-linecap="butt"></path><path d="M361.07155,273.92858v-1h23.71429v1z" fill="#848484" stroke="none" stroke-width="0" stroke-linecap="butt"></path><path d="M359.94037,270.77135c-0.36288,0.8316 -1.30189,1.22436 -2.09733,0.87726c-0.79544,-0.3471 -1.1461,-1.30263 -0.78322,-2.13423c0.36288,-0.8316 1.30189,-1.22436 2.09733,-0.87726c0.79544,0.3471 1.1461,1.30263 0.78322,2.13423z" fill="#707070" stroke="none" stroke-width="0" stroke-linecap="butt"></path><path d="M388.78584,266.14286c0,0.59173 -0.47969,1.07143 -1.07143,1.07143c-0.59173,0 -1.07143,-0.47969 -1.07143,-1.07143c0,-0.59173 0.47969,-1.07143 1.07143,-1.07143c0.59173,0 1.07143,0.47969 1.07143,1.07143z" fill="#707070" stroke="none" stroke-width="0" stroke-linecap="butt"></path><g data-paper-data="{&quot;index&quot;:null}" stroke-width="0.25"><path d="M355.33928,245.31267v-2.85724h2.98147v2.85724z" fill="#b17e37" stroke="#916842" stroke-linecap="butt"></path><path d="M356.02946,244.74675v-1.73919h1.73919v1.73919z" fill="#825d28" stroke="#916842" stroke-linecap="butt"></path><path d="M358.42437,242.40712l-0.60734,0.55212" fill="none" stroke="#d4a158" stroke-linecap="round"></path><path d="M355.38768,242.54514l0.69015,0.52452" fill="none" stroke="#d4a158" stroke-linecap="round"></path><path d="M356.02257,244.72604l-0.57973,0.4417" fill="none" stroke="#d4a158" stroke-linecap="round"></path><path d="M357.73421,244.78125l0.52452,0.30367" fill="none" stroke="#d4a158" stroke-linecap="round"></path><path d="M355.26836,242.82515v-0.23662h3.22401v0.23662z" fill="#caa784" stroke="none" stroke-linecap="butt"></path><path d="M356.86229,244.24491v-0.41409h0.25305v0.41409z" fill="#ff6666" stroke="none" stroke-linecap="butt"></path><path d="M356.67819,243.87682l0.36808,-0.4601l0.27606,0.4601z" fill="#ff6666" stroke="none" stroke-linecap="butt"></path></g><g data-paper-data="{&quot;index&quot;:null}" stroke-width="0.25"><path d="M358.68992,245.22934v-2.85724h2.98147v2.85724z" fill="#b17e37" stroke="#916842" stroke-linecap="butt"></path><path d="M359.24204,244.66342v-1.73919h1.73919v1.73919z" fill="#825d28" stroke="#916842" stroke-linecap="butt"></path><path d="M359.19368,242.87592l-0.60734,-0.55213" fill="none" stroke="#d4a158" stroke-linecap="round"></path><path d="M360.93294,242.98633l0.69015,-0.52452" fill="none" stroke="#d4a158" stroke-linecap="round"></path><path d="M361.56786,245.08441l-0.57973,-0.4417" fill="none" stroke="#d4a158" stroke-linecap="round"></path><path d="M358.75202,245.00159l0.52453,-0.30367" fill="none" stroke="#d4a158" stroke-linecap="round"></path><path d="M358.51836,242.74182v-0.23663h3.22401v0.23663z" fill="#caa784" stroke="none" stroke-linecap="butt"></path><path d="M359.89542,244.16157v-0.41409h0.25306v0.41409z" fill="#ff6666" stroke="none" stroke-linecap="butt"></path><path d="M359.68837,243.79349l0.27606,-0.4601l0.36807,0.4601z" fill="#ff6666" stroke="none" stroke-linecap="butt"></path></g><g data-paper-data="{&quot;index&quot;:null}" stroke-width="0.25"><path d="M356.7732,242.72934v-2.85724h2.98147v2.85724z" fill="#b17e37" stroke="#916842" stroke-linecap="butt"></path><path d="M357.32539,242.16342v-1.73919h1.73919v1.73919z" fill="#825d28" stroke="#916842" stroke-linecap="butt"></path><path d="M357.27705,240.37592l-0.60734,-0.55213" fill="none" stroke="#d4a158" stroke-linecap="round"></path><path d="M359.7064,239.96181l-0.69015,0.52452" fill="none" stroke="#d4a158" stroke-linecap="round"></path><path d="M359.65115,242.58441l-0.57973,-0.4417" fill="none" stroke="#d4a158" stroke-linecap="round"></path><path d="M356.83534,242.50159l0.52452,-0.30366" fill="none" stroke="#d4a158" stroke-linecap="round"></path><path d="M356.60164,240.24182v-0.23663h3.22401v0.23663z" fill="#caa784" stroke="none" stroke-linecap="butt"></path><path d="M357.97869,241.66157v-0.4141h0.25306v0.4141z" fill="#ff6666" stroke="none" stroke-linecap="butt"></path><path d="M357.77167,241.29349l0.27606,-0.4601l0.36807,0.4601z" fill="#ff6666" stroke="none" stroke-linecap="butt"></path></g><g data-paper-data="{&quot;index&quot;:null}" stroke-width="0.25"><path d="M389.46768,242.68476v-0.39194h3.44905v0.39194z" fill="#f5c900" stroke="none" stroke-linecap="butt"></path><path d="M391.27063,243.29226l0.80347,-0.47033" data-paper-data="{&quot;index&quot;:null}" fill="none" stroke="#000000" stroke-linecap="round"></path><path d="M390.97664,243.33145l-0.80347,-0.47033" fill="none" stroke="#000000" stroke-linecap="round"></path><path d="M391.1781,245.82464l-0.04608,-0.22527l1.15452,-0.23615l0.04608,0.22527z" fill="#000000" stroke="none" stroke-linecap="butt"></path><path d="M390.97066,246.80109v-1.20717h0.25868l-0.08623,1.32214z" fill="#000000" stroke="none" stroke-linecap="butt"></path><path d="M389.98553,245.65396l0.02694,-0.19938l1.22478,0.16551l-0.02694,0.19939z" fill="#000000" stroke="none" stroke-linecap="butt"></path><path d="M390.94193,245.91009v-3.2766h0.3449v3.2766z" fill="#f5c900" stroke="none" stroke-linecap="butt"></path><path d="M390.94193,244.18557v-0.17245h0.3449v0.17245z" fill="#000000" stroke="none" stroke-linecap="butt"></path><path d="M391.3185,242.68939c0,0 -0.16308,0.07839 -0.22433,0.07839c-0.04984,0 -0.11603,-0.07839 -0.11603,-0.07839v-0.40844h0.34037v0.40844z" fill="#040400" stroke="none" stroke-linecap="butt"></path><path d="M391.72704,242.73788v-0.88495h1.29339v0.88495z" fill="#f5e49a" stroke="#000000" stroke-linecap="butt"></path><path d="M392.76,242.58678l0.01959,-0.6467" fill="none" stroke="#000000" stroke-linecap="round"></path><path d="M392.36806,242.62597l0.01959,-0.68589" fill="none" stroke="#000000" stroke-linecap="round"></path><path d="M391.9761,242.56718l0.01959,-0.58791" fill="none" stroke="#000000" stroke-linecap="round"></path><path d="M392.93634,242.31242c0,0 -0.37275,0.13091 -0.54722,0.13749c-0.1717,0.00648 -0.49141,-0.0983 -0.49141,-0.0983" fill="none" stroke="#000000" stroke-linecap="round"></path><path d="M389.21759,242.75747v-0.88495h1.29339v0.88495z" data-paper-data="{&quot;index&quot;:null}" fill="#f5e49a" stroke="#000000" stroke-linecap="butt"></path><path d="M389.47802,242.60637l-0.0196,-0.6467" data-paper-data="{&quot;index&quot;:null}" fill="none" stroke="#000000" stroke-linecap="round"></path><path d="M389.86996,242.64556l-0.0196,-0.68589" data-paper-data="{&quot;index&quot;:null}" fill="none" stroke="#000000" stroke-linecap="round"></path><path d="M390.24222,241.99885l0.0196,0.58791" data-paper-data="{&quot;index&quot;:null}" fill="none" stroke="#000000" stroke-linecap="round"></path><path d="M390.34029,242.3712c0,0 -0.31971,0.10478 -0.49141,0.0983c-0.17447,-0.00658 -0.54722,-0.13749 -0.54722,-0.13749" data-paper-data="{&quot;index&quot;:null}" fill="none" stroke="#000000" stroke-linecap="round"></path><path d="M386.62537,245.30741l2.60197,-3.48664c0,0 0.95728,-0.03322 1.15832,0.11681c0.18504,0.13808 0.0039,0.75051 0.0039,0.75051l-2.60197,3.48664z" fill="url(#color-14)" stroke="none" stroke-linecap="butt"></path><path d="M389.11418,245.34659l2.60197,-3.48664c0,0 0.95728,-0.03322 1.15832,0.11681c0.18504,0.13808 0.0039,0.75051 0.0039,0.75051l-2.60197,3.48664z" fill="url(#color-15)" stroke="none" stroke-linecap="butt"></path></g><path d="M323.97623,270.99205v-6.07937h28.52381v6.07937z" fill="#a1a1a1" stroke="none" stroke-width="NaN" stroke-linecap="butt"></path><path d="M283.11906,270.56348v-5.50794h10.80953v5.50794z" fill="#a1a1a1" stroke="#000000" stroke-width="0.5" stroke-linecap="butt"></path><path d="M283.83338,242.56348v-21.65079h9.95238v21.65079z" fill="#a1a1a1" stroke="#000000" stroke-width="0.5" stroke-linecap="butt"></path><g stroke-width="0.25"><path d="M288.95856,264.84058l0.02599,-1.62602l1.62602,0.02599l-0.02599,1.62602z" fill="#b17e37" stroke="#784000" stroke-linecap="butt"></path><path d="M290.54625,263.56481l-1.50824,0.00546" fill="none" stroke="#845a2a" stroke-linecap="round"></path><path d="M289.02903,264.132l1.47773,0.05319" fill="none" stroke="#845a2a" stroke-linecap="round"></path><path d="M290.49969,264.62865l-1.44769,-0.08229" fill="none" stroke="#845a2a" stroke-linecap="round"></path></g><g stroke-width="0.25"><path d="M290.5793,264.93243l-0.16599,-1.61774l1.61774,-0.16598l0.16599,1.61774z" fill="#b17e37" stroke="#784000" stroke-linecap="butt"></path><path d="M290.50836,263.66162l1.49707,-0.18333" fill="none" stroke="#845a2a" stroke-linecap="round"></path><path d="M290.5657,264.22048l1.47369,-0.12149" fill="none" stroke="#845a2a" stroke-linecap="round"></path><path d="M290.63739,264.62925l1.44729,-0.08906" fill="none" stroke="#845a2a" stroke-linecap="round"></path></g><g stroke-width="0.25"><path d="M289.67877,263.18463l0.4126,-1.57302l1.57301,0.41261l-0.41261,1.57301z" fill="#b17e37" stroke="#784000" stroke-linecap="butt"></path><path d="M291.52473,262.32382l-1.46612,-0.35401" fill="none" stroke="#845a2a" stroke-linecap="round"></path><path d="M291.33856,262.91692l-1.42251,-0.4037" fill="none" stroke="#845a2a" stroke-linecap="round"></path><path d="M289.83964,262.92113l1.38641,0.42479" fill="none" stroke="#845a2a" stroke-linecap="round"></path></g><path d="M238.04795,198.33754c-0.06031,0.42973 -1.18596,0.62696 -2.51421,0.44054c-1.32824,-0.18642 -2.35611,-0.68591 -2.29579,-1.11563c0.06031,-0.42973 1.18596,-0.62696 2.51421,-0.44054c1.32824,0.18642 2.35611,0.68591 2.29579,1.11563z" fill="#919191" stroke="none" stroke-width="0" stroke-linecap="butt"></path><path d="M258.04616,197.62326c0.07782,0.46695 -0.67924,0.98217 -1.69096,1.15079c-1.01172,0.16862 -1.89496,-0.07322 -1.97279,-0.54017c-0.07782,-0.46695 0.67924,-0.98217 1.69096,-1.15079c1.01172,-0.16862 1.89496,0.07322 1.97279,0.54017z" fill="#c6c6c6" stroke="none" stroke-width="0" stroke-linecap="butt"></path><path d="M294.18807,198.08465c-0.36234,0.65613 -1.18797,0.89429 -1.8441,0.53195c-0.65613,-0.36234 -0.89429,-1.18797 -0.53195,-1.8441c0.36234,-0.65613 1.18797,-0.89429 1.8441,-0.53195c0.65613,0.36234 0.89429,1.18797 0.53195,1.8441z" fill="#555555" stroke="none" stroke-width="0" stroke-linecap="butt"></path><path d="M270.96887,197.27438c0.07652,0.16096 0.11745,0.33075 0.11745,0.50619c0,1.03012 -1.41121,1.8652 -3.15201,1.8652c-1.7408,0 -3.15201,-0.83508 -3.15201,-1.8652c0,-0.17543 0.04093,-0.34523 0.11745,-0.50619" fill="none" stroke="#bea252" stroke-width="0.5" stroke-linecap="butt"></path><path d="M263.50649,199.48499v-2.50874h1.13644v2.50874z" fill="#59421a" stroke="none" stroke-width="0" stroke-linecap="butt"></path><path d="M270.83437,199.5386v-2.50874h1.39375v2.50874z" fill="#59421a" stroke="none" stroke-width="0" stroke-linecap="butt"></path><path d="M271.30222,220.4966c0.07652,0.16096 0.11745,0.33075 0.11745,0.50619c0,1.03012 -1.41121,1.8652 -3.15201,1.8652c-1.7408,0 -3.15201,-0.83508 -3.15201,-1.8652c0,-0.17543 0.04093,-0.34523 0.11745,-0.50619" fill="none" stroke="#bea252" stroke-width="0.5" stroke-linecap="butt"></path><path d="M263.83982,222.70722v-2.50874h1.13644v2.50874z" fill="#59421a" stroke="none" stroke-width="0" stroke-linecap="butt"></path><path d="M271.16769,222.76082v-2.50874h1.39375v2.50874z" fill="#59421a" stroke="none" stroke-width="0" stroke-linecap="butt"></path><path d="M235.98572,223.5c0,0.47339 -1.18325,0.85714 -2.64286,0.85714c-1.45961,0 -2.64286,-0.38376 -2.64286,-0.85714c0,-0.47339 1.18325,-0.85714 2.64286,-0.85714c1.45961,0 2.64286,0.38376 2.64286,0.85714z" fill="#7e7e7e" stroke="none" stroke-width="0" stroke-linecap="butt"></path><path d="M255.8241,224.67631c-0.07733,0.50697 -0.86715,0.80704 -1.7641,0.67021c-0.89695,-0.13682 -1.56138,-0.65872 -1.48404,-1.16569c0.07733,-0.50697 0.86715,-0.80704 1.7641,-0.67021c0.89695,0.13682 1.56138,0.65872 1.48404,1.16569z" fill="#b2b2b2" stroke="none" stroke-width="0" stroke-linecap="butt"></path><path d="M198.41669,228.25v-72.33333h3.83334v72.33333z" fill="url(#color-16)" stroke="none" stroke-width="0" stroke-linecap="butt"></path><path d="M226.08334,220c0,1.79493 -1.52969,3.25 -3.41667,3.25c-1.88697,0 -3.41667,-1.45507 -3.41667,-3.25c0,-1.79493 1.52969,-3.25 3.41667,-3.25c1.88697,0 3.41667,1.45507 3.41667,3.25z" fill="#696969" stroke="none" stroke-width="0" stroke-linecap="butt"></path><path d="M227.25005,221.5c0,0.7824 -0.82081,1.41667 -1.83333,1.41667c-1.01252,0 -1.83333,-0.63426 -1.83333,-1.41667c0,-0.7824 0.82081,-1.41667 1.83333,-1.41667c1.01252,0 1.83333,0.63426 1.83333,1.41667z" fill="#909090" stroke="none" stroke-width="0" stroke-linecap="butt"></path><path d="M243.36314,200.77328c-0.49699,2.01055 -1.69671,3.44346 -2.67965,3.20049c-0.98294,-0.24297 -1.37687,-2.06982 -0.87988,-4.08037c0.49699,-2.01055 1.69671,-3.44346 2.67965,-3.20049c0.98294,0.24297 1.37687,2.06982 0.87988,4.08037z" fill="#464646" stroke="none" stroke-width="0" stroke-linecap="butt"></path><path d="M238.25005,204.25v-6.83333h6.83333v6.83333z" fill-opacity="0.03358" fill="#464646" stroke="none" stroke-width="0" stroke-linecap="butt"></path><path d="M219.41669,223.58333v-6.83334h7v6.83334z" fill-opacity="0.03358" fill="#464646" stroke="none" stroke-width="0" stroke-linecap="butt"></path><path d="M201.58334,189.58333c0,1.01252 -0.22386,1.83333 -0.5,1.83333c-0.27614,0 -0.5,-0.82081 -0.5,-1.83333c0,-1.01252 0.22386,-1.83333 0.5,-1.83333c0.27614,0 0.5,0.82081 0.5,1.83333z" fill="#909090" stroke="none" stroke-width="0" stroke-linecap="butt"></path><path d="M201.75005,221.91667c0,0.82843 -0.52233,1.5 -1.16667,1.5c-0.64433,0 -1.16667,-0.67157 -1.16667,-1.5c0,-0.82843 0.52233,-1.5 1.16667,-1.5c0.64433,0 1.16667,0.67157 1.16667,1.5z" fill="#909090" stroke="none" stroke-width="0" stroke-linecap="butt"></path><path d="M199.91669,198c0,0.7824 -0.18655,1.41667 -0.41667,1.41667c-0.23012,0 -0.41667,-0.63426 -0.41667,-1.41667c0,-0.7824 0.18655,-1.41667 0.41667,-1.41667c0.23012,0 0.41667,0.63426 0.41667,1.41667z" fill="#909090" stroke="none" stroke-width="0" stroke-linecap="butt"></path><path d="M201.58334,172.41667c0,0.46024 -0.29848,0.83333 -0.66667,0.83333c-0.36819,0 -0.66667,-0.3731 -0.66667,-0.83333c0,-0.46024 0.29848,-0.83333 0.66667,-0.83333c0.36819,0 0.66667,0.3731 0.66667,0.83333z" fill="#909090" stroke="none" stroke-width="0" stroke-linecap="butt"></path><path d="M214.08334,176.66667c0,1.61083 -1.26853,2.91667 -2.83333,2.91667c-1.56481,0 -2.83333,-1.30584 -2.83333,-2.91667c0,-1.61083 1.26853,-2.91667 2.83333,-2.91667c1.56481,0 2.83333,1.30584 2.83333,2.91667z" fill="url(#color-17)" stroke="none" stroke-width="0" stroke-linecap="butt"></path><path d="M208.08334,179.91667v-6.66667h6.66667v6.66667z" fill-opacity="0.03358" fill="#656565" stroke="none" stroke-width="0" stroke-linecap="butt"></path><path d="M381.71802,166.47305v-9h9.64102v9z" fill="#000000" stroke="none" stroke-width="0" stroke-linecap="butt"></path><path d="M390.25561,156.54902c0.08741,0.16096 0.13416,0.33075 0.13416,0.50619c0,1.03012 -1.61192,1.8652 -3.60031,1.8652c-1.98839,0 -3.60031,-0.83508 -3.60031,-1.8652c0,-0.17543 0.04675,-0.34523 0.13416,-0.50619" fill="none" stroke="#bea252" stroke-width="0.5" stroke-linecap="butt"></path><path d="M381.73186,158.75963v-2.50874h1.29807v2.50874z" fill="#59421a" stroke="none" stroke-width="0" stroke-linecap="butt"></path><path d="M388.96865,158.81324v-2.50874h2.25807v2.50874z" fill="#59421a" stroke="none" stroke-width="0" stroke-linecap="butt"></path><path d="M388.99656,163.10457c0.08668,0.16096 0.13304,0.33075 0.13304,0.50619c0,1.03012 -1.5985,1.8652 -3.57033,1.8652c-1.97183,0 -3.57033,-0.83508 -3.57033,-1.8652c0,-0.17543 0.04636,-0.34523 0.13304,-0.50619" fill="none" stroke="#bea252" stroke-width="0.5" stroke-linecap="butt"></path><path d="M381.43665,165.00749v-2.50874h1.64127v2.50874z" fill="#59421a" stroke="none" stroke-width="0" stroke-linecap="butt"></path><path d="M388.5952,165.36879v-2.50874h2.18705v2.50874z" fill="#59421a" stroke="none" stroke-width="0" stroke-linecap="butt"></path><path d="M323.07946,157.74564v-1.80938h2.24969v1.80938z" fill="#b2875b" stroke="none" stroke-width="0" stroke-linecap="butt"></path><path d="M323.22945,165.67938v-1.43438h2.24969v1.43438z" fill="#b2875b" stroke="none" stroke-width="0" stroke-linecap="butt"></path><path d="M222.86466,160.56132v-4.02573h3.43885v4.02573z" fill-opacity="0.03358" fill="#656565" stroke="none" stroke-width="0" stroke-linecap="butt"></path><path d="M236.16427,165.23987v-0.62004c0,0 0.52244,-2.45722 0.92253,-2.45722c0.13629,0 0.03456,0.89795 0.2846,1.42104c0.32685,0.68375 0.99891,1.03619 0.99891,1.03619v0.62004z" data-paper-data="{&quot;index&quot;:null}" fill="url(#color-18)" stroke="#000000" stroke-width="0.05" stroke-linecap="butt"></path><path d="M235.68961,165.18739v-3.02652h3.43886v3.02652z" fill-opacity="0.03358" fill="#656565" stroke="none" stroke-width="0" stroke-linecap="butt"></path><text transform="translate(329.97693,214.25) scale(0.21831,0.21831)" font-size="40" xml:space="preserve" fill="#79787a" fill-rule="nonzero" stroke="none" stroke-width="1" stroke-linecap="butt" stroke-linejoin="miter" stroke-miterlimit="10" stroke-dasharray="" stroke-dashoffset="0" font-family="Sans Serif" font-weight="normal" text-anchor="start" style="mix-blend-mode: normal"><tspan x="0" dy="0">xamt8</tspan></text><path d="M206.63087,190.5613c0,1.61083 -1.26853,2.91667 -2.83333,2.91667c-1.56481,0 -2.83333,-1.30584 -2.83333,-2.91667c0,-1.61083 1.26853,-2.91667 2.83333,-2.91667c1.56481,0 2.83333,1.30584 2.83333,2.91667z" fill="url(#color-19)" stroke="none" stroke-width="0" stroke-linecap="butt"></path><path d="M200.63087,193.8113v-6.66667h6.66667v6.66667z" fill-opacity="0.03358" fill="#656565" stroke="none" stroke-width="0" stroke-linecap="butt"></path><path d="M221.54204,190.98692c0,1.61083 -1.26853,2.91667 -2.83333,2.91667c-1.56481,0 -2.83333,-1.30584 -2.83333,-2.91667c0,-1.61083 1.26853,-2.91667 2.83333,-2.91667c1.56481,0 2.83333,1.30584 2.83333,2.91667z" fill="url(#color-20)" stroke="none" stroke-width="0" stroke-linecap="butt"></path><path d="M215.54204,194.23692v-6.66667h6.66667v6.66667z" fill-opacity="0.03358" fill="#656565" stroke="none" stroke-width="0" stroke-linecap="butt"></path><path d="M345.84906,242.69553c0.08988,0.14845 0.13796,0.30504 0.13796,0.46684c0,0.95004 -1.65767,1.72021 -3.70248,1.72021c-2.04482,0 -3.70248,-0.77017 -3.70248,-1.72021c0,-0.16179 0.04808,-0.31839 0.13796,-0.46684" fill="none" stroke="#bea252" stroke-width="0.5" stroke-linecap="butt"></path><path d="M337.08338,244.7343v-2.31373h1.33491v2.31373z" fill="#59421a" stroke="none" stroke-width="0" stroke-linecap="butt"></path><path d="M345.69108,244.78374v-2.31373h1.63716v2.31373z" fill="#59421a" stroke="none" stroke-width="0" stroke-linecap="butt"></path><path d="M346.2406,264.11259c0.08988,0.14845 0.13796,0.30504 0.13796,0.46684c0,0.95004 -1.65767,1.72021 -3.70248,1.72021c-2.04482,0 -3.70248,-0.77017 -3.70248,-1.72021c0,-0.16179 0.04808,-0.31839 0.13796,-0.46684" fill="none" stroke="#bea252" stroke-width="0.5" stroke-linecap="butt"></path><path d="M337.47493,266.15137v-2.31373h1.33491v2.31373z" fill="#59421a" stroke="none" stroke-width="0" stroke-linecap="butt"></path><path d="M346.08263,266.2008v-2.31373h1.63716v2.31373z" fill="#59421a" stroke="none" stroke-width="0" stroke-linecap="butt"></path></g></g></svg>