<svg version="1.1" xmlns="http://www.w3.org/2000/svg" xmlns:xlink="http://www.w3.org/1999/xlink" width="158.02939" height="103.70897" viewBox="0,0,158.02939,103.70897"><g transform="translate(-233.40395,-78.04185)"><g data-paper-data="{&quot;isPaintingLayer&quot;:true}" fill-rule="nonzero" stroke-linejoin="miter" stroke-miterlimit="10" stroke-dasharray="" stroke-dashoffset="0" style="mix-blend-mode: normal"><path d="M234.404,165.15319c0,-21.1333 0,-57.60948 0,-69.66409c0,-7.61864 4.81321,-16.44725 10.15857,-16.44725c16.44918,0 102.0696,0 132.1064,0c6.52506,0 10.4271,6.12265 10.4271,15.17288c0,21.32559 0,58.90626 0,70.93842c0,7.29409 -4.00955,15.59767 -10.69562,15.59767c-30.20354,0 -115.02538,0 -131.5694,0c-5.47041,0 -10.4271,-6.32051 -10.4271,-15.59767z" fill-opacity="0.62097" fill="#291800" stroke="#fff4ce" stroke-width="2" stroke-linecap="butt"></path><text transform="translate(311.75,174.96267) scale(0.27588,0.27588)" font-size="40" xml:space="preserve" fill="#cfffe1" fill-rule="nonzero" stroke="none" stroke-width="1" stroke-linecap="butt" stroke-linejoin="miter" stroke-miterlimit="10" stroke-dasharray="" stroke-dashoffset="0" font-family="Serif" font-weight="normal" text-anchor="start" style="mix-blend-mode: normal"><tspan x="0" dy="0">Press Q to Chat</tspan></text><path d="M242.88728,94.79016c0,-2.34333 0,-6.38793 0,-7.72458c0,-0.84478 0.70435,-1.82373 1.48658,-1.82373c2.40714,0 14.93666,0 19.33219,0c0.95486,0 1.52588,0.6789 1.52588,1.68242c0,2.36465 0,6.53172 0,7.86589c0,0.80879 -0.58675,1.72952 -1.56518,1.72952c-2.47923,0 -9.53603,-0.70211 -14.73705,0.7547c-1.51765,0.4251 -2.74424,4.62644 -3.81802,4.62644c-1.80677,0 -0.03177,-5.38114 -0.69853,-5.38114c-0.80053,0 -1.52588,-0.70084 -1.52588,-1.72952z" fill="none" stroke="#fff4ce" stroke-width="2" stroke-linecap="butt"></path><path d="M374.44444,124.64304l-124.44444,0.44444" fill="none" stroke="#00ffff" stroke-width="2" stroke-linecap="round"></path><text transform="translate(267.47246,94.96803) scale(0.28873,0.28873)" font-size="40" xml:space="preserve" fill="#fff4ce" fill-rule="nonzero" stroke="none" stroke-width="1" stroke-linecap="butt" stroke-linejoin="miter" stroke-miterlimit="10" stroke-dasharray="" stroke-dashoffset="0" font-family="Sans Serif" font-weight="normal" text-anchor="start" style="mix-blend-mode: normal"><tspan x="0" dy="0">Options</tspan></text><text transform="translate(238.35987,117.0949) scale(0.3729,0.3729)" font-size="40" xml:space="preserve" fill="#fff4ce" fill-rule="nonzero" stroke="none" stroke-width="1" stroke-linecap="butt" stroke-linejoin="miter" stroke-miterlimit="10" stroke-dasharray="" stroke-dashoffset="0" font-family="Sans Serif" font-weight="normal" text-anchor="start" style="mix-blend-mode: normal"><tspan x="0" dy="0">Type number = msg</tspan></text><text transform="translate(238.56091,133.79296) scale(0.19825,0.19825)" font-size="40" xml:space="preserve" data-paper-data="{&quot;index&quot;:null}" fill="#00fff5" fill-rule="nonzero" stroke="none" stroke-width="1" stroke-linecap="butt" stroke-linejoin="miter" stroke-miterlimit="10" stroke-dasharray="" stroke-dashoffset="0" font-family="Sans Serif" font-weight="normal" text-anchor="start" style="mix-blend-mode: normal"><tspan x="0" dy="0">1 ="Hi"                        2 ="Close one"      </tspan><tspan x="0" dy="46.150000000000006px">3 ="Wait up"              4 ="Incoming"           </tspan><tspan x="0" dy="46.150000000000006px">5 ="I'm low on hp"   6 ="Keep going"      </tspan><tspan x="0" dy="46.150000000000006px">7 ="Okay!"                 8 ="Be right back"</tspan><tspan x="0" dy="46.150000000000006px">9 ="I gotta leave"     </tspan></text></g></g></svg>