<svg version="1.1" xmlns="http://www.w3.org/2000/svg" xmlns:xlink="http://www.w3.org/1999/xlink" width="112.10994" height="83.7064" viewBox="0,0,112.10994,83.7064"><defs><linearGradient x1="278.66221" y1="156.50561" x2="278.32153" y2="157.05705" gradientUnits="userSpaceOnUse" id="color-1"><stop offset="0" stop-color="#e8d697"></stop><stop offset="1" stop-color="#d1ac88"></stop></linearGradient><linearGradient x1="281.09565" y1="158.05273" x2="280.75497" y2="158.60418" gradientUnits="userSpaceOnUse" id="color-2"><stop offset="0" stop-color="#e8d697"></stop><stop offset="1" stop-color="#d1ac88"></stop></linearGradient><linearGradient x1="277.56484" y1="158.21106" x2="277.22417" y2="158.76249" gradientUnits="userSpaceOnUse" id="color-3"><stop offset="0" stop-color="#e8d697"></stop><stop offset="1" stop-color="#d1ac88"></stop></linearGradient><linearGradient x1="279.99827" y1="159.75819" x2="279.65759" y2="160.30963" gradientUnits="userSpaceOnUse" id="color-4"><stop offset="0" stop-color="#e8d697"></stop><stop offset="1" stop-color="#d1ac88"></stop></linearGradient><linearGradient x1="279.60807" y1="155.49373" x2="279.26739" y2="156.04517" gradientUnits="userSpaceOnUse" id="color-5"><stop offset="0" stop-color="#e8d697"></stop><stop offset="1" stop-color="#d1ac88"></stop></linearGradient><linearGradient x1="282.04149" y1="157.04086" x2="281.70082" y2="157.5923" gradientUnits="userSpaceOnUse" id="color-6"><stop offset="0" stop-color="#e8d697"></stop><stop offset="1" stop-color="#d1ac88"></stop></linearGradient><linearGradient x1="192.56712" y1="187.66448" x2="192.61338" y2="185.03017" gradientUnits="userSpaceOnUse" id="color-7"><stop offset="0" stop-color="#ff0000"></stop><stop offset="1" stop-color="#540000"></stop></linearGradient><linearGradient x1="192.12015" y1="166.66975" x2="192.07389" y2="169.30406" gradientUnits="userSpaceOnUse" id="color-8"><stop offset="0" stop-color="#ff0000"></stop><stop offset="1" stop-color="#540000"></stop></linearGradient><linearGradient x1="187.09399" y1="176.88672" x2="189.85375" y2="176.93518" gradientUnits="userSpaceOnUse" id="color-9"><stop offset="0" stop-color="#ff0000"></stop><stop offset="1" stop-color="#540000"></stop></linearGradient></defs><g transform="translate(-184.00431,-138.1468)"><g data-paper-data="{&quot;isPaintingLayer&quot;:true}" fill-rule="nonzero" stroke-linejoin="miter" stroke-miterlimit="10" stroke-dasharray="" stroke-dashoffset="0" style="mix-blend-mode: normal"><path d="M220.59759,172.87364v-20.70036h8.14441v20.70036z" fill="#ce7f52" stroke="none" stroke-width="0.5" stroke-linecap="butt"></path><path d="M220.59759,191.76414v-19.56921h43.21061v19.56921z" fill="#ce7f52" stroke="none" stroke-width="0.5" stroke-linecap="butt"></path><path d="M282.98149,221.8532v-83.7064h11.31168v68.79872c-0.26755,3.78782 -0.39694,7.64212 0,10.64798v4.25969z" fill="#915e23" stroke="none" stroke-width="0.5" stroke-linecap="butt"></path><path d="M184.00431,220.26956v-81.6703h14.93142v81.6703z" fill="#915e23" stroke="none" stroke-width="0.5" stroke-linecap="butt"></path><path d="M184.37407,221.0627v-10.73164h109.72676c-0.12635,3.14554 -0.07359,6.14539 0.38812,8.45782v2.27383z" fill="#bb792d" stroke="none" stroke-width="0.5" stroke-linecap="butt"></path><path d="M184.28711,212.12726v-2.26234h99.20339v2.26234z" fill="#00ff15" stroke="none" stroke-width="0.5" stroke-linecap="butt"></path><g stroke-linecap="butt"><path d="M214.86157,210.42663l0.00529,10.74708l-8.00548,0.00289l-0.00529,-10.74708z" data-paper-data="{&quot;index&quot;:null}" fill="#000000" stroke="none" stroke-width="0.5"></path><g data-paper-data="{&quot;index&quot;:null}"><path d="M215.08666,211.15749l0.00049,1.01891l-0.42514,0.00016l-0.0005,-1.01891z" fill="#e6e6e6" stroke="#000000" stroke-width="0.5"></path><path d="M215.09447,219.26912l0.00049,1.01891l-0.42514,0.00016l-0.0005,-1.01891z" fill="#e6e6e6" stroke="#000000" stroke-width="0.5"></path><path d="M223.11046,210.42365l0.00529,10.74709l-8.00547,0.00289l-0.00529,-10.74708z" fill="#8e6544" stroke="none" stroke-width="0.5"></path><path d="M222.43972,217.32447l0.00178,3.6064l-6.57292,0.00238l-0.00178,-3.6064z" fill="none" stroke="#513a27" stroke-width="0.5"></path><path d="M222.43687,211.55422l0.00171,3.46215l-6.48865,0.00235l-0.0017,-3.46215z" fill="none" stroke="#513a27" stroke-width="0.5"></path><text transform="translate(217.28158,218.97087) rotate(-0.02322) scale(0.02595,-0.02222) skewX(-0.00335)" font-size="40" xml:space="preserve" fill="#ffffff" fill-rule="nonzero" stroke="none" stroke-width="1" stroke-linecap="butt" stroke-linejoin="miter" stroke-miterlimit="10" stroke-dasharray="" stroke-dashoffset="0" font-family="Sans Serif" font-weight="normal" text-anchor="start" style="mix-blend-mode: normal"><tspan x="0" dy="0">xAmt8</tspan></text><path d="M219.09837,219.94632c-1.34966,0.00048 -2.44392,-0.30589 -2.44411,-0.68433c-0.00019,-0.37843 1.09378,-0.68561 2.44344,-0.68609c1.34966,-0.00048 2.44392,0.30589 2.44411,0.68433c0.00019,0.37843 -1.09377,0.68561 -2.44344,0.6861z" fill="#d59866" stroke="none" stroke-width="0.5"></path><path d="M217.07553,219.11759c0.11635,-0.00004 0.21071,0.08066 0.21076,0.18025c0.00005,0.09959 -0.09423,0.18035 -0.21058,0.18039c-0.11635,0.00004 -0.21071,-0.08065 -0.21076,-0.18024c-0.00005,-0.09959 0.09423,-0.18036 0.21058,-0.1804z" fill="#ab7a52" stroke="none" stroke-width="0.5"></path><path d="M221.1204,219.11612c0.11635,-0.00004 0.21071,0.08066 0.21076,0.18025c0.00005,0.09959 -0.09423,0.18035 -0.21058,0.18039c-0.11635,0.00004 -0.2107,-0.08066 -0.21076,-0.18025c-0.00005,-0.09959 0.09422,-0.18035 0.21058,-0.18039z" fill="#ab7a52" stroke="none" stroke-width="0.5"></path><path d="M221.51243,216.62756c-0.69811,0.00025 -1.2641,-0.15024 -1.26419,-0.33614c-0.00009,-0.1859 0.56576,-0.3368 1.26385,-0.33705c0.69811,-0.00025 1.2641,0.15024 1.26419,0.33614c0.00009,0.1859 -0.56576,0.3368 -1.26386,0.33705z" fill="#dadada" stroke="none" stroke-width="0.5"></path><path d="M222.81359,216.55356c0.08431,0.32463 -0.12686,0.64098 -0.47165,0.70659c-0.3448,0.0656 -0.69266,-0.14438 -0.77697,-0.46902c-0.08431,-0.32463 0.12686,-0.64098 0.47165,-0.70659c0.3448,-0.06561 0.69266,0.14438 0.77697,0.46902z" fill="#fff4ce" stroke="#e6ddbb" stroke-width="0.5"></path><path d="M222.73442,216.70157c0.05238,0.20169 -0.07881,0.39822 -0.29302,0.43898c-0.21421,0.04076 -0.43032,-0.0897 -0.48269,-0.29139c-0.05238,-0.20169 0.07881,-0.39821 0.29302,-0.43897c0.21421,-0.04076 0.43032,0.0897 0.4827,0.29137z" fill="#e6ddbb" stroke="#e6ddbb" stroke-width="0.5"></path><path d="M221.20381,216.15579l0.49962,0.17146l-0.20032,0.42765l-0.49962,-0.17146z" fill="#e6ddbb" stroke="none" stroke-width="0.5"></path><path d="M221.42967,216.07087c0.02825,0.03494 -0.10288,0.35898 -0.11481,0.41568l-0.00274,0.08916c-0.00011,0.0209 -0.00989,0.0406 -0.02641,0.05513c-0.00588,0.01333 -0.0159,0.02516 -0.02898,0.03412c-0.00031,0.00868 -0.00063,0.01735 -0.00094,0.02603l-0.00563,0.00774l0.00369,0.00079l-0.0287,0.09828c-0.00772,0.02904 -0.03427,0.05315 -0.07049,0.06004c-0.05011,0.00953 -0.09975,-0.01751 -0.1109,-0.06039v0l-0.02336,-0.08995l0.0178,-0.0034c-0.07621,-0.15969 -0.09069,-0.3313 0.01037,-0.50202c0.06476,-0.1094 0.20781,-0.34552 0.38105,-0.13121z" fill="#fff4ce" stroke="none" stroke-width="0.5"></path></g></g><path d="M198.48327,152.04976v-12.93986h85.74249v12.93986z" fill="#b06846" stroke="none" stroke-width="0.5" stroke-linecap="butt"></path><g stroke-width="0.5"><path d="M198.79646,151.25054v-12.34537h40.46539v12.34537z" fill="#000000" stroke="none" stroke-linecap="butt"></path><g stroke-linecap="butt"><path d="M200.3327,141.11161l-0.31045,-0.02218l0.98413,-1.84711l0.02861,0.09673l1.04805,1.89759l-0.28951,-0.02068" fill="none" stroke="#fed800"></path><path d="M201.79677,141.19252l0.28793,0.02057l-0.98413,1.84712l-0.02861,-0.09673l-1.04805,-1.89759l0.30883,0.02206" data-paper-data="{&quot;index&quot;:null}" fill="none" stroke="#fed800"></path><path d="M200.41417,141.06514l0.58338,-1.09498l0.01696,0.05734l0.62129,1.1249z" fill="#fed800" stroke="none"></path><path d="M201.6368,141.13844l-0.58339,1.09498l-0.01695,-0.05735l-0.62129,-1.12489z" data-paper-data="{&quot;index&quot;:null}" fill="#fed800" stroke="none"></path></g><g stroke-linecap="butt"><path d="M204.34984,141.40554l-0.31045,-0.02217l0.98412,-1.84712l0.02861,0.09673l1.04805,1.89759l-0.28951,-0.02068" fill="none" stroke="#fed800"></path><path d="M205.81392,141.48645l0.28792,0.02057l-0.98412,1.84711l-0.02859,-0.09673l-1.04805,-1.89759l0.30882,0.02206" data-paper-data="{&quot;index&quot;:null}" fill="none" stroke="#fed800"></path><path d="M204.43132,141.35908l0.58339,-1.09498l0.01696,0.05735l0.62129,1.12489z" fill="#fed800" stroke="none"></path><path d="M205.65395,141.43237l-0.58339,1.09498l-0.01696,-0.05735l-0.62129,-1.12489z" data-paper-data="{&quot;index&quot;:null}" fill="#fed800" stroke="none"></path></g><g stroke-linecap="butt"><path d="M208.17103,141.60151l-0.31044,-0.02218l0.98412,-1.84711l0.02861,0.09673l1.04805,1.89759l-0.28951,-0.02068" fill="none" stroke="#fed800"></path><path d="M209.63511,141.68241l0.28793,0.02057l-0.98413,1.84712l-0.02861,-0.09674l-1.04805,-1.89759l0.30882,0.02206" data-paper-data="{&quot;index&quot;:null}" fill="none" stroke="#fed800"></path><path d="M208.25251,141.55503l0.58339,-1.09498l0.01695,0.05735l0.62129,1.12489z" fill="#fed800" stroke="none"></path><path d="M209.47513,141.62834l-0.58339,1.09498l-0.01695,-0.05735l-0.62129,-1.12489z" data-paper-data="{&quot;index&quot;:null}" fill="#fed800" stroke="none"></path></g><g stroke-linecap="butt"><path d="M211.89424,141.74848l-0.31045,-0.02218l0.98413,-1.84711l0.02861,0.09673l1.04805,1.89759l-0.28951,-0.02068" fill="none" stroke="#fed800"></path><path d="M213.35832,141.82938l0.28792,0.02057l-0.98413,1.84712l-0.02859,-0.09674l-1.04805,-1.89759l0.30882,0.02206" data-paper-data="{&quot;index&quot;:null}" fill="none" stroke="#fed800"></path><path d="M211.97572,141.702l0.58338,-1.09498l0.01696,0.05735l0.62129,1.12489z" fill="#fed800" stroke="none"></path><path d="M213.19834,141.77531l-0.58339,1.09498l-0.01695,-0.05735l-0.62129,-1.12489z" data-paper-data="{&quot;index&quot;:null}" fill="#fed800" stroke="none"></path></g><g stroke-linecap="butt"><path d="M215.96037,141.65049l-0.31045,-0.02218l0.98412,-1.84712l0.02861,0.09674l1.04805,1.89759l-0.28952,-0.02068" fill="none" stroke="#fed800"></path><path d="M217.42445,141.7314l0.28793,0.02057l-0.98413,1.84711l-0.02861,-0.09673l-1.04805,-1.89759l0.30882,0.02205" data-paper-data="{&quot;index&quot;:null}" fill="none" stroke="#fed800"></path><path d="M216.04185,141.60402l0.58338,-1.09498l0.01696,0.05734l0.62129,1.1249z" fill="#fed800" stroke="none"></path><path d="M217.26447,141.67732l-0.58338,1.09498l-0.01696,-0.05735l-0.62129,-1.12489z" data-paper-data="{&quot;index&quot;:null}" fill="#fed800" stroke="none"></path></g><g stroke-linecap="butt"><path d="M219.78156,141.65049l-0.31045,-0.02218l0.98412,-1.84712l0.02861,0.09674l1.04805,1.89759l-0.28951,-0.02068" fill="none" stroke="#fed800"></path><path d="M221.24564,141.7314l0.28793,0.02057l-0.98413,1.84711l-0.02861,-0.09673l-1.04805,-1.89759l0.30883,0.02205" data-paper-data="{&quot;index&quot;:null}" fill="none" stroke="#fed800"></path><path d="M219.86304,141.60402l0.58338,-1.09498l0.01696,0.05734l0.62129,1.1249z" fill="#fed800" stroke="none"></path><path d="M221.08567,141.67732l-0.58339,1.09498l-0.01695,-0.05735l-0.62129,-1.12489z" data-paper-data="{&quot;index&quot;:null}" fill="#fed800" stroke="none"></path></g><g stroke-linecap="butt"><path d="M224.19062,141.84646l-0.31045,-0.02218l0.98412,-1.84711l0.02861,0.09673l1.04805,1.89759l-0.28951,-0.02068" fill="none" stroke="#fed800"></path><path d="M225.6547,141.92736l0.28793,0.02057l-0.98412,1.84712l-0.02861,-0.09674l-1.04805,-1.89759l0.30882,0.02206" data-paper-data="{&quot;index&quot;:null}" fill="none" stroke="#fed800"></path><path d="M224.2721,141.79999l0.58339,-1.09498l0.01696,0.05735l0.62129,1.12489z" fill="#fed800" stroke="none"></path><path d="M225.49473,141.87328l-0.58339,1.09498l-0.01695,-0.05735l-0.62129,-1.12489z" data-paper-data="{&quot;index&quot;:null}" fill="#fed800" stroke="none"></path></g><g stroke-linecap="butt"><path d="M227.86484,141.84646l-0.31044,-0.02218l0.98412,-1.84711l0.02861,0.09673l1.04805,1.89759l-0.28951,-0.02068" fill="none" stroke="#fed800"></path><path d="M229.32892,141.92736l0.28792,0.02057l-0.98413,1.84712l-0.02859,-0.09674l-1.04805,-1.89759l0.30882,0.02206" data-paper-data="{&quot;index&quot;:null}" fill="none" stroke="#fed800"></path><path d="M227.94632,141.79999l0.58339,-1.09498l0.01695,0.05735l0.62129,1.12489z" fill="#fed800" stroke="none"></path><path d="M229.16894,141.87328l-0.58339,1.09498l-0.01695,-0.05735l-0.62129,-1.12489z" data-paper-data="{&quot;index&quot;:null}" fill="#fed800" stroke="none"></path></g><g stroke-linecap="butt"><path d="M231.88199,142.28736l-0.31045,-0.02218l0.98412,-1.84711l0.02861,0.09673l1.04805,1.89759l-0.28951,-0.02068" fill="none" stroke="#fed800"></path><path d="M233.34607,142.36826l0.28792,0.02057l-0.98412,1.84712l-0.02859,-0.09674l-1.04805,-1.89759l0.30882,0.02206" data-paper-data="{&quot;index&quot;:null}" fill="none" stroke="#fed800"></path><path d="M231.96346,142.24089l0.58339,-1.09498l0.01696,0.05735l0.62128,1.12489z" fill="#fed800" stroke="none"></path><path d="M233.18608,142.31419l-0.58339,1.09498l-0.01695,-0.05735l-0.62129,-1.12489z" data-paper-data="{&quot;index&quot;:null}" fill="#fed800" stroke="none"></path></g><g stroke-linecap="butt"><path d="M235.94812,142.14039l-0.31045,-0.02218l0.98413,-1.84711l0.02861,0.09674l1.04805,1.89757l-0.28951,-0.02068" fill="none" stroke="#fed800"></path><path d="M237.4122,142.2213l0.28792,0.02057l-0.98413,1.84712l-0.02859,-0.09674l-1.04805,-1.89759l0.30882,0.02206" data-paper-data="{&quot;index&quot;:null}" fill="none" stroke="#fed800"></path><path d="M236.02959,142.09392l0.58339,-1.09497l0.01696,0.05734l0.62129,1.12489z" fill="#fed800" stroke="none"></path><path d="M237.25222,142.16721l-0.58339,1.09498l-0.01695,-0.05734l-0.62129,-1.12489z" data-paper-data="{&quot;index&quot;:null}" fill="#fed800" stroke="none"></path></g><path d="M198.8472,144.19025h1.02877l39.19167,0.58787" fill="none" stroke="#fff700" stroke-linecap="round"></path><g stroke-linecap="butt"><path d="M200.23472,147.33328l-0.31045,-0.02218l0.98413,-1.84711l0.02861,0.09673l1.04805,1.89759l-0.28951,-0.02068" fill="none" stroke="#fed800"></path><path d="M201.6988,147.41419l0.28792,0.02057l-0.98413,1.84712l-0.02859,-0.09674l-1.04805,-1.89759l0.30882,0.02206" data-paper-data="{&quot;index&quot;:null}" fill="none" stroke="#fed800"></path><path d="M200.31619,147.28682l0.58339,-1.09498l0.01695,0.05735l0.62129,1.12489z" fill="#fed800" stroke="none"></path><path d="M201.53882,147.36011l-0.58339,1.09498l-0.01695,-0.05735l-0.62129,-1.12489z" data-paper-data="{&quot;index&quot;:null}" fill="#fed800" stroke="none"></path></g><g stroke-linecap="butt"><path d="M204.25186,147.62723l-0.31045,-0.02218l0.98412,-1.84711l0.02861,0.09673l1.04805,1.89759l-0.28951,-0.02068" fill="none" stroke="#fed800"></path><path d="M205.71594,147.70813l0.28793,0.02057l-0.98412,1.84712l-0.02861,-0.09674l-1.04805,-1.89759l0.30882,0.02206" data-paper-data="{&quot;index&quot;:null}" fill="none" stroke="#fed800"></path><path d="M204.33334,147.58076l0.58339,-1.09498l0.01696,0.05735l0.62129,1.12489z" fill="#fed800" stroke="none"></path><path d="M205.55597,147.65405l-0.58339,1.09498l-0.01695,-0.05735l-0.62129,-1.12489z" data-paper-data="{&quot;index&quot;:null}" fill="#fed800" stroke="none"></path></g><g stroke-linecap="butt"><path d="M208.07305,147.82318l-0.31045,-0.02218l0.98413,-1.84712l0.02859,0.09673l1.04805,1.89759l-0.28951,-0.02068" fill="none" stroke="#fed800"></path><path d="M209.53713,147.90408l0.28793,0.02057l-0.98413,1.84712l-0.02861,-0.09674l-1.04805,-1.89759l0.30882,0.02206" data-paper-data="{&quot;index&quot;:null}" fill="none" stroke="#fed800"></path><path d="M208.15453,147.77671l0.58338,-1.09498l0.01696,0.05735l0.62129,1.12489z" fill="#fed800" stroke="none"></path><path d="M209.37716,147.85001l-0.58339,1.09498l-0.01695,-0.05735l-0.62129,-1.12489z" data-paper-data="{&quot;index&quot;:null}" fill="#fed800" stroke="none"></path></g><g stroke-linecap="butt"><path d="M211.79626,147.97015l-0.31045,-0.02217l0.98412,-1.84712l0.02861,0.09673l1.04805,1.89759l-0.28951,-0.02068" fill="none" stroke="#fed800"></path><path d="M213.26034,148.05105l0.28793,0.02057l-0.98413,1.84712l-0.02861,-0.09674l-1.04805,-1.89759l0.30883,0.02206" data-paper-data="{&quot;index&quot;:null}" fill="none" stroke="#fed800"></path><path d="M211.87774,147.92368l0.58338,-1.09498l0.01696,0.05735l0.62129,1.12489z" fill="#fed800" stroke="none"></path><path d="M213.10037,147.99698l-0.58339,1.09498l-0.01696,-0.05735l-0.62128,-1.12489z" data-paper-data="{&quot;index&quot;:null}" fill="#fed800" stroke="none"></path></g><g stroke-linecap="butt"><path d="M215.8624,147.87217l-0.31045,-0.02218l0.98412,-1.84711l0.02861,0.09673l1.04805,1.89759l-0.28951,-0.02068" fill="none" stroke="#fed800"></path><path d="M217.32648,147.95308l0.28792,0.02057l-0.98412,1.84712l-0.02859,-0.09673l-1.04805,-1.89759l0.30882,0.02206" data-paper-data="{&quot;index&quot;:null}" fill="none" stroke="#fed800"></path><path d="M215.94387,147.82571l0.58339,-1.09498l0.01696,0.05735l0.62129,1.12489z" fill="#fed800" stroke="none"></path><path d="M217.1665,147.899l-0.58339,1.09498l-0.01695,-0.05735l-0.62129,-1.12489z" data-paper-data="{&quot;index&quot;:null}" fill="#fed800" stroke="none"></path></g><g stroke-linecap="butt"><path d="M219.68358,147.87217l-0.31045,-0.02218l0.98412,-1.84711l0.02861,0.09673l1.04805,1.89759l-0.28951,-0.02068" fill="none" stroke="#fed800"></path><path d="M221.14766,147.95308l0.28792,0.02057l-0.98412,1.84712l-0.02859,-0.09673l-1.04805,-1.89759l0.30882,0.02206" data-paper-data="{&quot;index&quot;:null}" fill="none" stroke="#fed800"></path><path d="M219.76505,147.82571l0.58339,-1.09498l0.01696,0.05735l0.62129,1.12489z" fill="#fed800" stroke="none"></path><path d="M220.98768,147.899l-0.58339,1.09498l-0.01695,-0.05735l-0.62129,-1.12489z" data-paper-data="{&quot;index&quot;:null}" fill="#fed800" stroke="none"></path></g><g stroke-linecap="butt"><path d="M224.09264,148.06813l-0.31045,-0.02218l0.98412,-1.84711l0.02861,0.09673l1.04805,1.89759l-0.28951,-0.02068" fill="none" stroke="#fed800"></path><path d="M225.55672,148.14903l0.28793,0.02057l-0.98412,1.84712l-0.02861,-0.09674l-1.04805,-1.89759l0.30882,0.02206" data-paper-data="{&quot;index&quot;:null}" fill="none" stroke="#fed800"></path><path d="M224.17412,148.02166l0.58339,-1.09498l0.01696,0.05735l0.62129,1.12489z" fill="#fed800" stroke="none"></path><path d="M225.39674,148.09496l-0.58338,1.09498l-0.01696,-0.05735l-0.62129,-1.12489z" data-paper-data="{&quot;index&quot;:null}" fill="#fed800" stroke="none"></path></g><g stroke-linecap="butt"><path d="M227.76686,148.06813l-0.31045,-0.02218l0.98413,-1.84711l0.02861,0.09673l1.04805,1.89759l-0.28951,-0.02068" fill="none" stroke="#fed800"></path><path d="M229.23094,148.14903l0.28793,0.02057l-0.98413,1.84712l-0.02861,-0.09674l-1.04805,-1.89759l0.30882,0.02206" data-paper-data="{&quot;index&quot;:null}" fill="none" stroke="#fed800"></path><path d="M227.84834,148.02166l0.58338,-1.09498l0.01696,0.05735l0.62129,1.12489z" fill="#fed800" stroke="none"></path><path d="M229.07097,148.09496l-0.58339,1.09498l-0.01696,-0.05735l-0.62128,-1.12489z" data-paper-data="{&quot;index&quot;:null}" fill="#fed800" stroke="none"></path></g><g stroke-linecap="butt"><path d="M231.78401,148.50904l-0.31045,-0.02218l0.98412,-1.84712l0.02861,0.09673l1.04805,1.89759l-0.28951,-0.02068" fill="none" stroke="#fed800"></path><path d="M233.24808,148.58994l0.28793,0.02057l-0.98412,1.84712l-0.02861,-0.09674l-1.04805,-1.89759l0.30882,0.02206" data-paper-data="{&quot;index&quot;:null}" fill="none" stroke="#fed800"></path><path d="M231.86548,148.46256l0.58339,-1.09498l0.01695,0.05735l0.62129,1.12489z" fill="#fed800" stroke="none"></path><path d="M233.08811,148.53587l-0.58339,1.09498l-0.01695,-0.05735l-0.62129,-1.12489z" data-paper-data="{&quot;index&quot;:null}" fill="#fed800" stroke="none"></path></g><g stroke-linecap="butt"><path d="M235.85015,148.36207l-0.31045,-0.02218l0.98412,-1.84712l0.02861,0.09674l1.04805,1.89759l-0.28951,-0.02068" fill="none" stroke="#fed800"></path><path d="M237.31422,148.44297l0.28793,0.02057l-0.98412,1.84711l-0.02861,-0.09674l-1.04805,-1.89757l0.30882,0.02205" data-paper-data="{&quot;index&quot;:null}" fill="none" stroke="#fed800"></path><path d="M235.93162,148.3156l0.58339,-1.09498l0.01695,0.05735l0.62129,1.12489z" fill="#fed800" stroke="none"></path><path d="M237.15424,148.38889l-0.58339,1.09498l-0.01695,-0.05735l-0.62129,-1.12489z" data-paper-data="{&quot;index&quot;:null}" fill="#fed800" stroke="none"></path></g><path d="M198.74922,150.41192h1.02877l39.19167,0.58788" fill="none" stroke="#fff700" stroke-linecap="round"></path></g><g stroke-width="0.5"><path d="M239.06603,151.74071v-12.34537h40.46539v12.34537z" fill="#000000" stroke="none" stroke-linecap="butt"></path><g stroke-linecap="butt"><path d="M240.60226,141.60178l-0.31044,-0.02218l0.98413,-1.84711l0.02859,0.09673l1.04805,1.89759l-0.28951,-0.02068" fill="none" stroke="#fed800"></path><path d="M242.06634,141.68268l0.28793,0.02057l-0.98413,1.84712l-0.02861,-0.09673l-1.04805,-1.89759l0.30883,0.02205" data-paper-data="{&quot;index&quot;:null}" fill="none" stroke="#fed800"></path><path d="M240.68374,141.5553l0.58339,-1.09497l0.01696,0.05734l0.62129,1.1249z" fill="#fed800" stroke="none"></path><path d="M241.90636,141.62861l-0.58339,1.09498l-0.01695,-0.05735l-0.62129,-1.12489z" data-paper-data="{&quot;index&quot;:null}" fill="#fed800" stroke="none"></path></g><g stroke-linecap="butt"><path d="M244.6194,141.89572l-0.31044,-0.02218l0.98412,-1.84711l0.02861,0.09673l1.04805,1.89759l-0.28951,-0.02068" fill="none" stroke="#fed800"></path><path d="M246.08348,141.97663l0.28793,0.02057l-0.98413,1.84712l-0.02861,-0.09674l-1.04805,-1.89759l0.30883,0.02205" data-paper-data="{&quot;index&quot;:null}" fill="none" stroke="#fed800"></path><path d="M244.70088,141.84925l0.58339,-1.09498l0.01696,0.05735l0.62129,1.12489z" fill="#fed800" stroke="none"></path><path d="M245.92351,141.92255l-0.58339,1.09498l-0.01695,-0.05734l-0.62129,-1.12489z" data-paper-data="{&quot;index&quot;:null}" fill="#fed800" stroke="none"></path></g><g stroke-linecap="butt"><path d="M248.44059,142.09168l-0.31045,-0.02217l0.98413,-1.84712l0.02859,0.09674l1.04805,1.89757l-0.28951,-0.02068" fill="none" stroke="#fed800"></path><path d="M249.90467,142.17258l0.28793,0.02057l-0.98413,1.84712l-0.02859,-0.09674l-1.04805,-1.89759l0.30882,0.02205" data-paper-data="{&quot;index&quot;:null}" fill="none" stroke="#fed800"></path><path d="M248.52207,142.04521l0.58339,-1.09498l0.01695,0.05735l0.62129,1.12489z" fill="#fed800" stroke="none"></path><path d="M249.74469,142.1185l-0.58339,1.09498l-0.01695,-0.05735l-0.62129,-1.12489z" data-paper-data="{&quot;index&quot;:null}" fill="#fed800" stroke="none"></path></g><g stroke-linecap="butt"><path d="M252.1638,142.23864l-0.31045,-0.02218l0.98412,-1.84712l0.02861,0.09674l1.04805,1.89759l-0.28951,-0.02068" fill="none" stroke="#fed800"></path><path d="M253.62788,142.31955l0.28793,0.02057l-0.98412,1.84712l-0.02861,-0.09674l-1.04805,-1.89759l0.30882,0.02205" data-paper-data="{&quot;index&quot;:null}" fill="none" stroke="#fed800"></path><path d="M252.24527,142.19218l0.58339,-1.09498l0.01696,0.05734l0.62129,1.1249z" fill="#fed800" stroke="none"></path><path d="M253.46789,142.26548l-0.58339,1.09498l-0.01695,-0.05735l-0.6213,-1.12489z" data-paper-data="{&quot;index&quot;:null}" fill="#fed800" stroke="none"></path></g><g stroke-linecap="butt"><path d="M256.22993,142.14067l-0.31044,-0.02218l0.98412,-1.84712l0.02861,0.09674l1.04805,1.89759l-0.28951,-0.02068" fill="none" stroke="#fed800"></path><path d="M257.69401,142.22157l0.28793,0.02057l-0.98412,1.84712l-0.02861,-0.09673l-1.04805,-1.89759l0.30882,0.02205" data-paper-data="{&quot;index&quot;:null}" fill="none" stroke="#fed800"></path><path d="M256.31141,142.0942l0.58339,-1.09498l0.01695,0.05734l0.62129,1.1249z" fill="#fed800" stroke="none"></path><path d="M257.53404,142.1675l-0.58339,1.09498l-0.01695,-0.05735l-0.62129,-1.12489z" data-paper-data="{&quot;index&quot;:null}" fill="#fed800" stroke="none"></path></g><g stroke-linecap="butt"><path d="M260.05112,142.14067l-0.31044,-0.02218l0.98412,-1.84712l0.02859,0.09674l1.04805,1.89759l-0.28951,-0.02068" fill="none" stroke="#fed800"></path><path d="M261.5152,142.22157l0.28792,0.02057l-0.98412,1.84712l-0.02859,-0.09673l-1.04805,-1.89759l0.30882,0.02205" data-paper-data="{&quot;index&quot;:null}" fill="none" stroke="#fed800"></path><path d="M260.1326,142.0942l0.58339,-1.09498l0.01696,0.05734l0.62129,1.1249z" fill="#fed800" stroke="none"></path><path d="M261.35523,142.1675l-0.58339,1.09498l-0.01696,-0.05735l-0.62129,-1.12489z" data-paper-data="{&quot;index&quot;:null}" fill="#fed800" stroke="none"></path></g><g stroke-linecap="butt"><path d="M264.46019,142.33662l-0.31044,-0.02217l0.98412,-1.84711l0.02859,0.09673l1.04805,1.8976l-0.28951,-0.02068" fill="none" stroke="#fed800"></path><path d="M265.92426,142.41753l0.28793,0.02057l-0.98412,1.84712l-0.02859,-0.09674l-1.04805,-1.89757l0.30882,0.02205" data-paper-data="{&quot;index&quot;:null}" fill="none" stroke="#fed800"></path><path d="M264.54166,142.29016l0.58339,-1.09498l0.01696,0.05735l0.62128,1.12489z" fill="#fed800" stroke="none"></path><path d="M265.76429,142.36345l-0.58339,1.09498l-0.01696,-0.05735l-0.62129,-1.12489z" data-paper-data="{&quot;index&quot;:null}" fill="#fed800" stroke="none"></path></g><g stroke-linecap="butt"><path d="M268.13441,142.33662l-0.31045,-0.02217l0.98413,-1.84711l0.02859,0.09673l1.04805,1.8976l-0.28951,-0.02068" fill="none" stroke="#fed800"></path><path d="M269.59848,142.41753l0.28793,0.02057l-0.98412,1.84712l-0.02861,-0.09674l-1.04805,-1.89757l0.30882,0.02205" data-paper-data="{&quot;index&quot;:null}" fill="none" stroke="#fed800"></path><path d="M268.21588,142.29016l0.58339,-1.09498l0.01695,0.05735l0.62129,1.12489z" fill="#fed800" stroke="none"></path><path d="M269.4385,142.36345l-0.58339,1.09498l-0.01696,-0.05735l-0.62129,-1.12489z" data-paper-data="{&quot;index&quot;:null}" fill="#fed800" stroke="none"></path></g><g stroke-linecap="butt"><path d="M272.15155,142.77753l-0.31044,-0.02217l0.98412,-1.84711l0.02861,0.09673l1.04805,1.89759l-0.28951,-0.02068" fill="none" stroke="#fed800"></path><path d="M273.61563,142.85844l0.28793,0.02057l-0.98412,1.84712l-0.02861,-0.09674l-1.04805,-1.89759l0.30882,0.02206" data-paper-data="{&quot;index&quot;:null}" fill="none" stroke="#fed800"></path><path d="M272.23302,142.73106l0.58339,-1.09498l0.01696,0.05735l0.62129,1.12489z" fill="#fed800" stroke="none"></path><path d="M273.45564,142.80437l-0.58339,1.09498l-0.01696,-0.05735l-0.62129,-1.12489z" data-paper-data="{&quot;index&quot;:null}" fill="#fed800" stroke="none"></path></g><g stroke-linecap="butt"><path d="M276.21768,142.63057l-0.31044,-0.02217l0.98412,-1.84712l0.02861,0.09674l1.04805,1.89759l-0.28951,-0.02068" fill="none" stroke="#fed800"></path><path d="M277.68176,142.71147l0.28792,0.02057l-0.98413,1.84712l-0.02859,-0.09674l-1.04805,-1.89759l0.30882,0.02206" data-paper-data="{&quot;index&quot;:null}" fill="none" stroke="#fed800"></path><path d="M276.29915,142.58409l0.58339,-1.09498l0.01696,0.05735l0.62128,1.12489z" fill="#fed800" stroke="none"></path><path d="M277.52178,142.65739l-0.58339,1.09498l-0.01695,-0.05735l-0.62129,-1.12489z" data-paper-data="{&quot;index&quot;:null}" fill="#fed800" stroke="none"></path></g><path d="M239.11676,144.68041h1.02878l39.19167,0.58788" fill="none" stroke="#fff700" stroke-linecap="round"></path><g stroke-linecap="butt"><path d="M240.50428,147.82345l-0.31045,-0.02217l0.98413,-1.84712l0.02859,0.09674l1.04805,1.89759l-0.28951,-0.02068" fill="none" stroke="#fed800"></path><path d="M241.96835,147.90437l0.28793,0.02057l-0.98412,1.84712l-0.02861,-0.09674l-1.04805,-1.89759l0.30882,0.02206" data-paper-data="{&quot;index&quot;:null}" fill="none" stroke="#fed800"></path><path d="M240.58576,147.77698l0.58339,-1.09498l0.01695,0.05735l0.62129,1.12489z" fill="#fed800" stroke="none"></path><path d="M241.80839,147.85029l-0.58339,1.09498l-0.01696,-0.05735l-0.62129,-1.12489z" data-paper-data="{&quot;index&quot;:null}" fill="#fed800" stroke="none"></path></g><g stroke-linecap="butt"><path d="M244.52142,148.1174l-0.31045,-0.02218l0.98413,-1.84711l0.02859,0.09674l1.04805,1.89757l-0.28951,-0.02068" fill="none" stroke="#fed800"></path><path d="M245.9855,148.1983l0.28792,0.02057l-0.98413,1.84712l-0.02859,-0.09674l-1.04805,-1.89759l0.30882,0.02206" data-paper-data="{&quot;index&quot;:null}" fill="none" stroke="#fed800"></path><path d="M244.6029,148.07093l0.58339,-1.09498l0.01695,0.05735l0.62129,1.12489z" fill="#fed800" stroke="none"></path><path d="M245.82553,148.14422l-0.58339,1.09498l-0.01695,-0.05734l-0.62129,-1.12489z" data-paper-data="{&quot;index&quot;:null}" fill="#fed800" stroke="none"></path></g><g stroke-linecap="butt"><path d="M248.34261,148.31335l-0.31044,-0.02218l0.98413,-1.84712l0.02859,0.09674l1.04805,1.89759l-0.28951,-0.02068" fill="none" stroke="#fed800"></path><path d="M249.80669,148.39426l0.28793,0.02057l-0.98413,1.84712l-0.02861,-0.09674l-1.04805,-1.89759l0.30882,0.02206" data-paper-data="{&quot;index&quot;:null}" fill="none" stroke="#fed800"></path><path d="M248.42408,148.26688l0.58339,-1.09498l0.01696,0.05735l0.62129,1.12489z" fill="#fed800" stroke="none"></path><path d="M249.64672,148.34018l-0.58339,1.09498l-0.01695,-0.05734l-0.62129,-1.1249z" data-paper-data="{&quot;index&quot;:null}" fill="#fed800" stroke="none"></path></g><g stroke-linecap="butt"><path d="M252.06582,148.46032l-0.31044,-0.02218l0.98412,-1.84711l0.02861,0.09673l1.04805,1.89759l-0.28951,-0.02068" fill="none" stroke="#fed800"></path><path d="M253.5299,148.54122l0.28792,0.02057l-0.98412,1.84711l-0.02859,-0.09673l-1.04805,-1.89759l0.30882,0.02205" data-paper-data="{&quot;index&quot;:null}" fill="none" stroke="#fed800"></path><path d="M252.1473,148.41385l0.58339,-1.09498l0.01695,0.05735l0.62129,1.12489z" fill="#fed800" stroke="none"></path><path d="M253.36992,148.48715l-0.58339,1.09498l-0.01695,-0.05735l-0.6213,-1.12489z" data-paper-data="{&quot;index&quot;:null}" fill="#fed800" stroke="none"></path></g><g stroke-linecap="butt"><path d="M256.13196,148.36234l-0.31045,-0.02218l0.98412,-1.84711l0.02861,0.09673l1.04805,1.89759l-0.28951,-0.02068" fill="none" stroke="#fed800"></path><path d="M257.59602,148.44325l0.28792,0.02057l-0.98413,1.84712l-0.02859,-0.09674l-1.04805,-1.89759l0.30883,0.02205" data-paper-data="{&quot;index&quot;:null}" fill="none" stroke="#fed800"></path><path d="M256.21344,148.31587l0.58339,-1.09498l0.01695,0.05734l0.62129,1.12489z" fill="#fed800" stroke="none"></path><path d="M257.43606,148.38917l-0.58339,1.09498l-0.01695,-0.05735l-0.62129,-1.12489z" data-paper-data="{&quot;index&quot;:null}" fill="#fed800" stroke="none"></path></g><g stroke-linecap="butt"><path d="M259.95313,148.36234l-0.31044,-0.02218l0.98412,-1.84711l0.02861,0.09673l1.04805,1.89759l-0.28951,-0.02068" fill="none" stroke="#fed800"></path><path d="M261.41722,148.44325l0.28792,0.02057l-0.98412,1.84712l-0.02859,-0.09674l-1.04805,-1.89759l0.30883,0.02205" data-paper-data="{&quot;index&quot;:null}" fill="none" stroke="#fed800"></path><path d="M260.03461,148.31587l0.58339,-1.09498l0.01696,0.05734l0.62129,1.12489z" fill="#fed800" stroke="none"></path><path d="M261.25725,148.38917l-0.58339,1.09498l-0.01696,-0.05735l-0.62129,-1.12489z" data-paper-data="{&quot;index&quot;:null}" fill="#fed800" stroke="none"></path></g><g stroke-linecap="butt"><path d="M264.36221,148.55831l-0.31045,-0.02218l0.98412,-1.84712l0.02861,0.09674l1.04805,1.89757l-0.28951,-0.02068" fill="none" stroke="#fed800"></path><path d="M265.82628,148.63921l0.28793,0.02057l-0.98413,1.84712l-0.02859,-0.09674l-1.04805,-1.89759l0.30882,0.02205" data-paper-data="{&quot;index&quot;:null}" fill="none" stroke="#fed800"></path><path d="M264.44368,148.51183l0.58339,-1.09498l0.01695,0.05735l0.62129,1.12489z" fill="#fed800" stroke="none"></path><path d="M265.6663,148.58513l-0.58339,1.09498l-0.01695,-0.05735l-0.62129,-1.12489z" data-paper-data="{&quot;index&quot;:null}" fill="#fed800" stroke="none"></path></g><g stroke-linecap="butt"><path d="M268.03642,148.55831l-0.31044,-0.02218l0.98412,-1.84712l0.02861,0.09674l1.04805,1.89757l-0.28951,-0.02068" fill="none" stroke="#fed800"></path><path d="M269.5005,148.63921l0.28793,0.02057l-0.98413,1.84712l-0.02859,-0.09674l-1.04805,-1.89759l0.30882,0.02205" data-paper-data="{&quot;index&quot;:null}" fill="none" stroke="#fed800"></path><path d="M268.1179,148.51183l0.58339,-1.09498l0.01696,0.05735l0.62129,1.12489z" fill="#fed800" stroke="none"></path><path d="M269.34053,148.58513l-0.58339,1.09498l-0.01695,-0.05735l-0.62129,-1.12489z" data-paper-data="{&quot;index&quot;:null}" fill="#fed800" stroke="none"></path></g><g stroke-linecap="butt"><path d="M272.05357,148.99921l-0.31045,-0.02217l0.98413,-1.84712l0.02859,0.09673l1.04805,1.89759l-0.28951,-0.02068" fill="none" stroke="#fed800"></path><path d="M273.51764,149.08011l0.28793,0.02057l-0.98412,1.84712l-0.02859,-0.09674l-1.04805,-1.89759l0.30883,0.02205" data-paper-data="{&quot;index&quot;:null}" fill="none" stroke="#fed800"></path><path d="M272.13504,148.95274l0.58338,-1.09498l0.01696,0.05735l0.62129,1.12489z" fill="#fed800" stroke="none"></path><path d="M273.35767,149.02604l-0.58339,1.09498l-0.01695,-0.05735l-0.62129,-1.12489z" data-paper-data="{&quot;index&quot;:null}" fill="#fed800" stroke="none"></path></g><g stroke-linecap="butt"><path d="M276.11971,148.85224l-0.31044,-0.02217l0.98412,-1.84712l0.02859,0.09674l1.04805,1.89759l-0.28951,-0.02068" fill="none" stroke="#fed800"></path><path d="M277.58378,148.93314l0.28792,0.02057l-0.98412,1.84712l-0.02859,-0.09674l-1.04805,-1.89759l0.30882,0.02206" data-paper-data="{&quot;index&quot;:null}" fill="none" stroke="#fed800"></path><path d="M276.20118,148.80577l0.58339,-1.09498l0.01695,0.05734l0.62129,1.12489z" fill="#fed800" stroke="none"></path><path d="M277.4238,148.87907l-0.58339,1.09498l-0.01696,-0.05735l-0.62129,-1.12489z" data-paper-data="{&quot;index&quot;:null}" fill="#fed800" stroke="none"></path></g><path d="M239.01878,150.90209h1.02878l39.19167,0.58788" fill="none" stroke="#fff700" stroke-linecap="round"></path></g><g stroke-width="0.5"><path d="M221.9854,187.56101v-12.34537h40.4654v12.34538z" fill="#000000" stroke="none" stroke-linecap="butt"></path><g stroke-linecap="butt"><path d="M223.52164,177.42208l-0.31045,-0.02217l0.98413,-1.84712l0.02859,0.09673l1.04805,1.89759l-0.28951,-0.02068" fill="none" stroke="#fed800"></path><path d="M224.98571,177.503l0.28792,0.02057l-0.98413,1.84712l-0.02859,-0.09674l-1.04805,-1.89759l0.30882,0.02206" data-paper-data="{&quot;index&quot;:null}" fill="none" stroke="#fed800"></path><path d="M223.60311,177.37561l0.58339,-1.09498l0.01695,0.05735l0.62129,1.12489z" fill="#fed800" stroke="none"></path><path d="M224.82573,177.44892l-0.58339,1.09497l-0.01695,-0.05734l-0.6213,-1.1249z" data-paper-data="{&quot;index&quot;:null}" fill="#fed800" stroke="none"></path></g><g stroke-linecap="butt"><path d="M227.53878,177.71602l-0.31045,-0.02218l0.98413,-1.84712l0.02861,0.09674l1.04805,1.89759l-0.28951,-0.02068" fill="none" stroke="#fed800"></path><path d="M229.00286,177.79693l0.28792,0.02057l-0.98413,1.84712l-0.02859,-0.09673l-1.04805,-1.89759l0.30882,0.02206" data-paper-data="{&quot;index&quot;:null}" fill="none" stroke="#fed800"></path><path d="M227.62026,177.66956l0.58339,-1.09497l0.01695,0.05734l0.62129,1.1249z" fill="#fed800" stroke="none"></path><path d="M228.84288,177.74285l-0.58339,1.09498l-0.01695,-0.05735l-0.62129,-1.12489z" data-paper-data="{&quot;index&quot;:null}" fill="#fed800" stroke="none"></path></g><g stroke-linecap="butt"><path d="M231.35996,177.91199l-0.31045,-0.02218l0.98412,-1.84711l0.02861,0.09673l1.04805,1.89759l-0.28951,-0.02068" fill="none" stroke="#fed800"></path><path d="M232.82404,177.99289l0.28793,0.02057l-0.98412,1.84712l-0.02861,-0.09674l-1.04805,-1.89759l0.30882,0.02205" data-paper-data="{&quot;index&quot;:null}" fill="none" stroke="#fed800"></path><path d="M231.44145,177.86551l0.58339,-1.09498l0.01696,0.05735l0.62128,1.12489z" fill="#fed800" stroke="none"></path><path d="M232.66407,177.93881l-0.58339,1.09498l-0.01695,-0.05735l-0.62129,-1.12489z" data-paper-data="{&quot;index&quot;:null}" fill="#fed800" stroke="none"></path></g><g stroke-linecap="butt"><path d="M235.08317,178.05895l-0.31045,-0.02218l0.98412,-1.84712l0.02861,0.09674l1.04805,1.89759l-0.28951,-0.02068" fill="none" stroke="#fed800"></path><path d="M236.54725,178.13986l0.28793,0.02057l-0.98412,1.84712l-0.02861,-0.09674l-1.04805,-1.89759l0.30883,0.02205" data-paper-data="{&quot;index&quot;:null}" fill="none" stroke="#fed800"></path><path d="M235.16466,178.01248l0.58339,-1.09497l0.01695,0.05734l0.62129,1.1249z" fill="#fed800" stroke="none"></path><path d="M236.38728,178.08578l-0.58339,1.09498l-0.01695,-0.05735l-0.62129,-1.12489z" data-paper-data="{&quot;index&quot;:null}" fill="#fed800" stroke="none"></path></g><g stroke-linecap="butt"><path d="M239.14931,177.96097l-0.31045,-0.02218l0.98412,-1.84712l0.02861,0.09673l1.04805,1.89759l-0.28951,-0.02068" fill="none" stroke="#fed800"></path><path d="M240.61339,178.04187l0.28793,0.02058l-0.98412,1.84711l-0.02861,-0.09674l-1.04805,-1.89759l0.30882,0.02206" data-paper-data="{&quot;index&quot;:null}" fill="none" stroke="#fed800"></path><path d="M239.23078,177.9145l0.58339,-1.09498l0.01695,0.05734l0.62129,1.12489z" fill="#fed800" stroke="none"></path><path d="M240.45342,177.9878l-0.58339,1.09498l-0.01695,-0.05735l-0.62129,-1.12489z" data-paper-data="{&quot;index&quot;:null}" fill="#fed800" stroke="none"></path></g><g stroke-linecap="butt"><path d="M242.97049,177.96097l-0.31044,-0.02218l0.98412,-1.84712l0.02861,0.09673l1.04805,1.89759l-0.28951,-0.02068" fill="none" stroke="#fed800"></path><path d="M244.43457,178.04187l0.28793,0.02058l-0.98413,1.84711l-0.02859,-0.09674l-1.04805,-1.89759l0.30882,0.02206" data-paper-data="{&quot;index&quot;:null}" fill="none" stroke="#fed800"></path><path d="M243.05197,177.9145l0.58339,-1.09498l0.01695,0.05734l0.62129,1.12489z" fill="#fed800" stroke="none"></path><path d="M244.27459,177.9878l-0.58339,1.09498l-0.01695,-0.05735l-0.62129,-1.12489z" data-paper-data="{&quot;index&quot;:null}" fill="#fed800" stroke="none"></path></g><g stroke-linecap="butt"><path d="M247.37956,178.15693l-0.31045,-0.02217l0.98413,-1.84712l0.02861,0.09674l1.04805,1.89759l-0.28951,-0.02068" fill="none" stroke="#fed800"></path><path d="M248.84363,178.23784l0.28793,0.02057l-0.98413,1.84712l-0.02861,-0.09673l-1.04805,-1.89759l0.30882,0.02206" data-paper-data="{&quot;index&quot;:null}" fill="none" stroke="#fed800"></path><path d="M247.46104,178.11046l0.58339,-1.09497l0.01696,0.05734l0.62129,1.1249z" fill="#fed800" stroke="none"></path><path d="M248.68365,178.18376l-0.58338,1.09498l-0.01696,-0.05735l-0.62129,-1.12489z" data-paper-data="{&quot;index&quot;:null}" fill="#fed800" stroke="none"></path></g><g stroke-linecap="butt"><path d="M251.05377,178.15693l-0.31045,-0.02217l0.98412,-1.84712l0.02861,0.09674l1.04805,1.89759l-0.28952,-0.02068" fill="none" stroke="#fed800"></path><path d="M252.51784,178.23784l0.28792,0.02057l-0.98412,1.84712l-0.02859,-0.09673l-1.04805,-1.89759l0.30882,0.02206" data-paper-data="{&quot;index&quot;:null}" fill="none" stroke="#fed800"></path><path d="M251.13525,178.11046l0.58339,-1.09497l0.01696,0.05734l0.62128,1.1249z" fill="#fed800" stroke="none"></path><path d="M252.35787,178.18376l-0.58339,1.09498l-0.01695,-0.05735l-0.62129,-1.12489z" data-paper-data="{&quot;index&quot;:null}" fill="#fed800" stroke="none"></path></g><g stroke-linecap="butt"><path d="M255.07092,178.59784l-0.31045,-0.02217l0.98412,-1.84712l0.02861,0.09674l1.04805,1.89759l-0.28951,-0.02068" fill="none" stroke="#fed800"></path><path d="M256.53499,178.67874l0.28792,0.02057l-0.98412,1.84712l-0.02859,-0.09673l-1.04805,-1.89759l0.30882,0.02205" data-paper-data="{&quot;index&quot;:null}" fill="none" stroke="#fed800"></path><path d="M255.1524,178.55137l0.58339,-1.09497l0.01696,0.05734l0.62129,1.1249z" fill="#fed800" stroke="none"></path><path d="M256.37502,178.62467l-0.58339,1.09498l-0.01695,-0.05735l-0.62129,-1.12489z" data-paper-data="{&quot;index&quot;:null}" fill="#fed800" stroke="none"></path></g><g stroke-linecap="butt"><path d="M259.13706,178.45087l-0.31045,-0.02217l0.98412,-1.84712l0.02861,0.09674l1.04805,1.89759l-0.28951,-0.02068" fill="none" stroke="#fed800"></path><path d="M260.60113,178.53177l0.28793,0.02057l-0.98413,1.84712l-0.02859,-0.09674l-1.04805,-1.89759l0.30883,0.02206" data-paper-data="{&quot;index&quot;:null}" fill="none" stroke="#fed800"></path><path d="M259.21852,178.4044l0.58339,-1.09498l0.01696,0.05735l0.62128,1.12489z" fill="#fed800" stroke="none"></path><path d="M260.44116,178.4777l-0.58339,1.09498l-0.01695,-0.05735l-0.62129,-1.12489z" data-paper-data="{&quot;index&quot;:null}" fill="#fed800" stroke="none"></path></g><path d="M222.03614,180.50072h1.02878l39.19167,0.58787" fill="none" stroke="#fff700" stroke-linecap="round"></path><g stroke-linecap="butt"><path d="M223.42366,183.64377l-0.31045,-0.02217l0.98413,-1.84712l0.02859,0.09674l1.04805,1.89759l-0.28951,-0.02068" fill="none" stroke="#fed800"></path><path d="M224.88773,183.72467l0.28793,0.02057l-0.98413,1.84712l-0.02861,-0.09673l-1.04805,-1.89759l0.30882,0.02206" data-paper-data="{&quot;index&quot;:null}" fill="none" stroke="#fed800"></path><path d="M223.50513,183.5973l0.58339,-1.09497l0.01695,0.05734l0.62129,1.1249z" fill="#fed800" stroke="none"></path><path d="M224.72775,183.67059l-0.58339,1.09498l-0.01696,-0.05735l-0.62129,-1.12489z" data-paper-data="{&quot;index&quot;:null}" fill="#fed800" stroke="none"></path></g><g stroke-linecap="butt"><path d="M227.4408,183.93771l-0.31045,-0.02218l0.98412,-1.84711l0.02861,0.09673l1.04805,1.89759l-0.28951,-0.02068" fill="none" stroke="#fed800"></path><path d="M228.90488,184.01861l0.28793,0.02057l-0.98413,1.84712l-0.02859,-0.09674l-1.04805,-1.89757l0.30882,0.02206" data-paper-data="{&quot;index&quot;:null}" fill="none" stroke="#fed800"></path><path d="M227.52228,183.89123l0.58339,-1.09498l0.01696,0.05735l0.62129,1.12489z" fill="#fed800" stroke="none"></path><path d="M228.74491,183.96453l-0.58339,1.09498l-0.01695,-0.05735l-0.62129,-1.12489z" data-paper-data="{&quot;index&quot;:null}" fill="#fed800" stroke="none"></path></g><g stroke-linecap="butt"><path d="M231.26199,184.13366l-0.31044,-0.02218l0.98412,-1.84712l0.02861,0.09673l1.04805,1.89759l-0.28952,-0.02068" fill="none" stroke="#fed800"></path><path d="M232.72607,184.21456l0.28793,0.02057l-0.98412,1.84711l-0.02861,-0.09673l-1.04805,-1.89759l0.30882,0.02206" data-paper-data="{&quot;index&quot;:null}" fill="none" stroke="#fed800"></path><path d="M231.34346,184.08719l0.58339,-1.09498l0.01695,0.05735l0.62129,1.12489z" fill="#fed800" stroke="none"></path><path d="M232.56609,184.16049l-0.58339,1.09498l-0.01695,-0.05735l-0.62129,-1.12489z" data-paper-data="{&quot;index&quot;:null}" fill="#fed800" stroke="none"></path></g><g stroke-linecap="butt"><path d="M234.9852,184.28063l-0.31045,-0.02218l0.98413,-1.84712l0.02861,0.09674l1.04805,1.89759l-0.28951,-0.02068" fill="none" stroke="#fed800"></path><path d="M236.44928,184.36153l0.28792,0.02057l-0.98413,1.84712l-0.02859,-0.09674l-1.04805,-1.89759l0.30882,0.02206" data-paper-data="{&quot;index&quot;:null}" fill="none" stroke="#fed800"></path><path d="M235.06667,184.23416l0.58339,-1.09498l0.01696,0.05735l0.62129,1.12489z" fill="#fed800" stroke="none"></path><path d="M236.28929,184.30746l-0.58338,1.09498l-0.01696,-0.05735l-0.62129,-1.12489z" data-paper-data="{&quot;index&quot;:null}" fill="#fed800" stroke="none"></path></g><g stroke-linecap="butt"><path d="M239.05133,184.18265l-0.31045,-0.02218l0.98413,-1.84712l0.02861,0.09673l1.04805,1.89759l-0.28951,-0.02068" fill="none" stroke="#fed800"></path><path d="M240.51541,184.26356l0.28792,0.02057l-0.98413,1.84712l-0.02859,-0.09673l-1.04805,-1.89759l0.30883,0.02206" data-paper-data="{&quot;index&quot;:null}" fill="none" stroke="#fed800"></path><path d="M239.1328,184.13618l0.58339,-1.09497l0.01695,0.05734l0.62129,1.1249z" fill="#fed800" stroke="none"></path><path d="M240.35543,184.20948l-0.58338,1.09497l-0.01696,-0.05734l-0.62129,-1.12489z" data-paper-data="{&quot;index&quot;:null}" fill="#fed800" stroke="none"></path></g><g stroke-linecap="butt"><path d="M242.87251,184.18265l-0.31045,-0.02218l0.98413,-1.84712l0.02859,0.09673l1.04805,1.89759l-0.28951,-0.02068" fill="none" stroke="#fed800"></path><path d="M244.33659,184.26356l0.28793,0.02057l-0.98413,1.84712l-0.02859,-0.09673l-1.04805,-1.89759l0.30882,0.02206" data-paper-data="{&quot;index&quot;:null}" fill="none" stroke="#fed800"></path><path d="M242.95399,184.13618l0.58339,-1.09497l0.01695,0.05734l0.62128,1.1249z" fill="#fed800" stroke="none"></path><path d="M244.17662,184.20948l-0.58339,1.09497l-0.01695,-0.05734l-0.62129,-1.12489z" data-paper-data="{&quot;index&quot;:null}" fill="#fed800" stroke="none"></path></g><g stroke-linecap="butt"><path d="M247.28158,184.37861l-0.31044,-0.02218l0.98412,-1.84712l0.02859,0.09674l1.04805,1.89759l-0.28951,-0.02068" fill="none" stroke="#fed800"></path><path d="M248.74565,184.45951l0.28792,0.02057l-0.98412,1.84711l-0.02859,-0.09674l-1.04805,-1.89757l0.30882,0.02205" data-paper-data="{&quot;index&quot;:null}" fill="none" stroke="#fed800"></path><path d="M247.36305,184.33214l0.58339,-1.09498l0.01695,0.05735l0.62129,1.12489z" fill="#fed800" stroke="none"></path><path d="M248.58567,184.40544l-0.58338,1.09498l-0.01696,-0.05735l-0.62129,-1.12489z" data-paper-data="{&quot;index&quot;:null}" fill="#fed800" stroke="none"></path></g><g stroke-linecap="butt"><path d="M250.9558,184.37861l-0.31044,-0.02218l0.98412,-1.84712l0.02861,0.09674l1.04805,1.89759l-0.28951,-0.02068" fill="none" stroke="#fed800"></path><path d="M252.41987,184.45951l0.28792,0.02057l-0.98412,1.84711l-0.02861,-0.09674l-1.04805,-1.89757l0.30882,0.02205" data-paper-data="{&quot;index&quot;:null}" fill="none" stroke="#fed800"></path><path d="M251.03727,184.33214l0.58339,-1.09498l0.01695,0.05735l0.62129,1.12489z" fill="#fed800" stroke="none"></path><path d="M252.25989,184.40544l-0.58339,1.09498l-0.01696,-0.05735l-0.62129,-1.12489z" data-paper-data="{&quot;index&quot;:null}" fill="#fed800" stroke="none"></path></g><g stroke-linecap="butt"><path d="M254.97295,184.81951l-0.31045,-0.02217l0.98412,-1.84712l0.02861,0.09674l1.04805,1.89759l-0.28951,-0.02068" fill="none" stroke="#fed800"></path><path d="M256.43702,184.90042l0.28792,0.02057l-0.98412,1.84711l-0.02859,-0.09674l-1.04805,-1.89759l0.30882,0.02206" data-paper-data="{&quot;index&quot;:null}" fill="none" stroke="#fed800"></path><path d="M255.05441,184.77304l0.58339,-1.09498l0.01696,0.05735l0.62128,1.12489z" fill="#fed800" stroke="none"></path><path d="M256.27704,184.84634l-0.58339,1.09498l-0.01696,-0.05735l-0.62129,-1.12489z" data-paper-data="{&quot;index&quot;:null}" fill="#fed800" stroke="none"></path></g><g stroke-linecap="butt"><path d="M259.03907,184.67255l-0.31045,-0.02218l0.98412,-1.84711l0.02861,0.09673l1.04805,1.89759l-0.28951,-0.02068" fill="none" stroke="#fed800"></path><path d="M260.50315,184.75345l0.28793,0.02057l-0.98412,1.84712l-0.02861,-0.09674l-1.04805,-1.89759l0.30883,0.02206" data-paper-data="{&quot;index&quot;:null}" fill="none" stroke="#fed800"></path><path d="M259.12054,184.62608l0.58339,-1.09497l0.01696,0.05734l0.62129,1.12489z" fill="#fed800" stroke="none"></path><path d="M260.34317,184.69938l-0.58339,1.09498l-0.01696,-0.05734l-0.62129,-1.1249z" data-paper-data="{&quot;index&quot;:null}" fill="#fed800" stroke="none"></path></g><path d="M221.93815,186.7224h1.02878l39.19167,0.58788" fill="none" stroke="#fff700" stroke-linecap="round"></path></g><g><text transform="translate(276.57475,159.82803) rotate(31.70536) scale(0.023,0.023)" font-size="40" xml:space="preserve" fill="#cc9b39" fill-rule="nonzero" stroke="none" stroke-width="0.3" stroke-linecap="butt" stroke-linejoin="miter" stroke-miterlimit="10" stroke-dasharray="" stroke-dashoffset="0" font-family="Monospace" font-weight="normal" text-anchor="start" style="mix-blend-mode: normal"><tspan x="0" dy="0">xAmt8</tspan></text><path d="M282.60039,157.59055l0.89805,-2.35581l0.67976,0.41022l-2.31039,3.38061z" fill="#4e3b16" stroke="none" stroke-width="0.15" stroke-linecap="butt"></path><path d="M275.54794,159.29631l3.48007,-6.24022l0.46718,0.26055l-3.48007,6.24022z" fill="#4e3b16" stroke="none" stroke-width="0.15" stroke-linecap="butt"></path><path d="M275.607,159.32578l3.69512,-5.98101l4.41776,2.72933l-3.69512,5.98101z" fill="#946000" stroke="none" stroke-width="0.15" stroke-linecap="butt"></path><path d="M279.21922,153.40584l0.37576,-0.60821l4.43011,2.73697l-0.37576,0.60821z" fill="#ab8d55" stroke="none" stroke-width="0.15" stroke-linecap="butt"></path><path d="M279.03885,153.03435l0.32296,-0.40436l0.29816,0.20812l-0.40886,0.64647z" fill="#ab8d55" stroke="none" stroke-width="0.15" stroke-linecap="butt"></path><g fill="#000000" stroke-width="0.15"><g stroke="none" stroke-linecap="butt"><path d="M278.26516,155.37936l0.13522,-0.21889l3.94412,2.43672l-0.13523,0.21889z"></path><path d="M279.08438,154.06173l0.13523,-0.21889l3.91559,2.41908l-0.13523,0.21889z"></path><path d="M278.28879,155.32915l0.91727,-1.4389l0.08555,0.22795l-0.73309,1.18659z" data-paper-data="{&quot;index&quot;:null}"></path><path d="M278.54549,155.29126l0.73309,-1.18659l3.60584,2.22773l-0.73309,1.18658z"></path><path d="M282.14634,157.52407l0.73308,-1.18658l0.24214,-0.0255l-0.8763,1.46422z" data-paper-data="{&quot;index&quot;:null}"></path></g><g><path d="M279.2102,155.04102l0.15491,-0.25073c0,0 0.23695,-0.06558 0.30606,-0.02288c0.08029,0.0496 0.14718,0.30292 0.14718,0.30292l-0.1549,0.25073c0,0 -0.24805,0.05026 -0.32682,0.00159c-0.07162,-0.04426 -0.12642,-0.2816 -0.12642,-0.2816z" stroke="none" stroke-linecap="butt"></path><path d="M279.7889,155.07093l-0.28663,-0.02269l-0.12591,-0.25655" stroke="#d3af89" stroke-linecap="round"></path><path d="M279.33595,155.1034l0.07216,-0.1168c0,0 0.11038,-0.03054 0.14257,-0.01066c0.0374,0.0231 0.06855,0.1411 0.06855,0.1411l-0.07215,0.1168c0,0 -0.11555,0.0234 -0.15224,0.00074c-0.03337,-0.02062 -0.05888,-0.13117 -0.05888,-0.13117z" stroke="none" stroke-linecap="butt"></path></g><g><path d="M281.64363,156.58815l0.1549,-0.25073c0,0 0.23696,-0.06558 0.30606,-0.02289c0.08029,0.0496 0.14718,0.30292 0.14718,0.30292l-0.1549,0.25073c0,0 -0.24805,0.05025 -0.32682,0.00158c-0.07162,-0.04426 -0.12642,-0.2816 -0.12642,-0.2816z" stroke="none" stroke-linecap="butt"></path><path d="M282.22232,156.61806l-0.28663,-0.02269l-0.1259,-0.25655" stroke="#d3af89" stroke-linecap="round"></path><path d="M281.76937,156.65053l0.07216,-0.1168c0,0 0.11038,-0.03054 0.14256,-0.01066c0.0374,0.0231 0.06856,0.1411 0.06856,0.1411l-0.07216,0.11679c0,0 -0.11555,0.02341 -0.15223,0.00075c-0.03337,-0.02062 -0.05889,-0.13118 -0.05889,-0.13118z" stroke="none" stroke-linecap="butt"></path></g></g><g stroke-width="0.15"><g stroke="none" stroke-linecap="butt"><path d="M277.24086,157.10809l0.13523,-0.21889l3.94412,2.43671l-0.13523,0.21889z" fill="#ab8d55"></path><path d="M278.06009,155.79046l0.13523,-0.21889l3.91559,2.41908l-0.13523,0.21889z" fill="#ab8d55"></path><path d="M277.2645,157.05788l0.91727,-1.4389l0.08555,0.22795l-0.73309,1.18659z" data-paper-data="{&quot;index&quot;:null}" fill="#563a00"></path><path d="M277.5212,157.01999l0.73309,-1.18658l3.60584,2.22773l-0.73309,1.18658z" fill="#805300"></path><path d="M281.12205,159.2528l0.73309,-1.18659l0.24214,-0.0255l-0.8763,1.46421z" data-paper-data="{&quot;index&quot;:null}" fill="#563a00"></path></g><g><path d="M278.1859,156.76974l0.1549,-0.25073c0,0 0.23696,-0.06558 0.30607,-0.02288c0.08029,0.0496 0.14718,0.3029 0.14718,0.3029l-0.1549,0.25073c0,0 -0.24805,0.05026 -0.32682,0.00159c-0.07162,-0.04426 -0.12642,-0.2816 -0.12642,-0.2816z" fill="url(#color-1)" stroke="none" stroke-linecap="butt"></path><path d="M278.76459,156.79966l-0.28663,-0.02269l-0.1259,-0.25655" fill="none" stroke="#d3af89" stroke-linecap="round"></path><path d="M278.31164,156.83213l0.07216,-0.1168c0,0 0.11038,-0.03054 0.14256,-0.01066c0.0374,0.0231 0.06856,0.1411 0.06856,0.1411l-0.07215,0.1168c0,0 -0.11555,0.02341 -0.15224,0.00074c-0.03337,-0.02062 -0.05889,-0.13118 -0.05889,-0.13118z" fill="#fff4ce" stroke="none" stroke-linecap="butt"></path></g><g><path d="M280.61934,158.31688l0.1549,-0.25073c0,0 0.23696,-0.06558 0.30607,-0.02289c0.08029,0.0496 0.14718,0.30292 0.14718,0.30292l-0.1549,0.25073c0,0 -0.24804,0.05025 -0.32682,0.00159c-0.07162,-0.04426 -0.12643,-0.2816 -0.12643,-0.2816z" fill="url(#color-2)" stroke="none" stroke-linecap="butt"></path><path d="M281.19803,158.34679l-0.28663,-0.02269l-0.12591,-0.25655" fill="none" stroke="#d3af89" stroke-linecap="round"></path><path d="M280.74508,158.37927l0.07215,-0.1168c0,0 0.11039,-0.03054 0.14257,-0.01066c0.0374,0.0231 0.06855,0.1411 0.06855,0.1411l-0.07215,0.1168c0,0 -0.11555,0.02341 -0.15224,0.00075c-0.03337,-0.02062 -0.05888,-0.13117 -0.05888,-0.13117z" fill="#fff4ce" stroke="none" stroke-linecap="butt"></path></g></g><g stroke-width="0.15"><g stroke="none" stroke-linecap="butt"><path d="M276.14349,158.81354l0.13523,-0.21889l3.94411,2.43671l-0.13523,0.21889z" fill="#ab8d55"></path><path d="M276.96271,157.49591l0.13523,-0.21889l3.91559,2.41909l-0.13522,0.21889z" fill="#ab8d55"></path><path d="M276.16712,158.76333l0.91727,-1.4389l0.08555,0.22795l-0.73309,1.18659z" data-paper-data="{&quot;index&quot;:null}" fill="#563a00"></path><path d="M276.42382,158.72544l0.73309,-1.18658l3.60585,2.22773l-0.73309,1.18659z" fill="#805300"></path><path d="M280.02467,160.95824l0.73309,-1.18658l0.24214,-0.0255l-0.8763,1.46421z" data-paper-data="{&quot;index&quot;:null}" fill="#563a00"></path></g><g><path d="M277.08853,158.4752l0.1549,-0.25073c0,0 0.23696,-0.06558 0.30607,-0.02289c0.08029,0.0496 0.14718,0.30292 0.14718,0.30292l-0.1549,0.25073c0,0 -0.24804,0.05026 -0.32682,0.00159c-0.07162,-0.04426 -0.12643,-0.2816 -0.12643,-0.2816z" fill="url(#color-3)" stroke="none" stroke-linecap="butt"></path><path d="M277.66722,158.50511l-0.28663,-0.02269l-0.12591,-0.25655" fill="none" stroke="#d3af89" stroke-linecap="round"></path><path d="M277.21428,158.53758l0.07216,-0.1168c0,0 0.11038,-0.03054 0.14256,-0.01066c0.0374,0.0231 0.06856,0.1411 0.06856,0.1411l-0.07216,0.1168c0,0 -0.11555,0.0234 -0.15223,0.00074c-0.03337,-0.02062 -0.05889,-0.13117 -0.05889,-0.13117z" fill="#fff4ce" stroke="none" stroke-linecap="butt"></path></g><g><path d="M279.52196,160.02233l0.1549,-0.25073c0,0 0.23695,-0.06557 0.30606,-0.02288c0.08029,0.0496 0.14718,0.30292 0.14718,0.30292l-0.1549,0.25073c0,0 -0.24805,0.05025 -0.32682,0.00159c-0.07162,-0.04426 -0.12642,-0.2816 -0.12642,-0.2816z" fill="url(#color-4)" stroke="none" stroke-linecap="butt"></path><path d="M280.10065,160.05224l-0.28663,-0.0227l-0.1259,-0.25655" fill="none" stroke="#d3af89" stroke-linecap="round"></path><path d="M279.64771,160.08471l0.07215,-0.1168c0,0 0.11038,-0.03054 0.14257,-0.01066c0.0374,0.0231 0.06855,0.1411 0.06855,0.1411l-0.07215,0.1168c0,0 -0.11555,0.02341 -0.15224,0.00074c-0.03337,-0.02062 -0.05888,-0.13118 -0.05888,-0.13118z" fill="#fff4ce" stroke="none" stroke-linecap="butt"></path></g></g><path d="M275.00069,160.34072l0.65182,-1.05504l0.70905,0.4745c0,0 -0.40803,0.05722 -0.54838,0.16904c-0.18309,0.14587 -0.45641,0.63149 -0.45641,0.63149z" fill="#ad7000" stroke="none" stroke-width="0.15" stroke-linecap="butt"></path><path d="M274.80866,160.38609l0.11407,-0.18463l0.59347,0.36665l-0.11407,0.18463z" fill="#c68d23" stroke="none" stroke-width="0.15" stroke-linecap="butt"></path><path d="M278.88303,162.75749c0,0 0.31197,-0.46175 0.36048,-0.69076c0.03719,-0.17555 -0.09423,-0.56605 -0.09423,-0.56605l0.74164,0.42175l-0.65182,1.05504z" data-paper-data="{&quot;index&quot;:null}" fill="#ad7000" stroke="none" stroke-width="0.15" stroke-linecap="butt"></path><path d="M278.69101,162.80286l0.11407,-0.18463l0.59346,0.36665l-0.11407,0.18463z" data-paper-data="{&quot;index&quot;:null}" fill="#c68d23" stroke="none" stroke-width="0.15" stroke-linecap="butt"></path><g stroke-width="0.15"><g stroke="none" stroke-linecap="butt"><path d="M278.18672,156.09621l0.13523,-0.21889l3.94411,2.43672l-0.13523,0.21889z" fill="#ab8d55"></path><path d="M279.00594,154.77858l0.13523,-0.21889l3.91559,2.41908l-0.13523,0.21889z" fill="#ab8d55"></path><path d="M278.21035,156.046l0.91727,-1.4389l0.08555,0.22795l-0.73309,1.18659z" data-paper-data="{&quot;index&quot;:null}" fill="#563a00"></path><path d="M278.46705,156.00812l0.73309,-1.18659l3.60584,2.22773l-0.73309,1.18659z" fill="#805300"></path><path d="M282.0679,158.24092l0.73309,-1.18658l0.24213,-0.0255l-0.8763,1.46421z" data-paper-data="{&quot;index&quot;:null}" fill="#563a00"></path></g><g><path d="M279.13176,155.75788l0.1549,-0.25073c0,0 0.23696,-0.06558 0.30606,-0.02289c0.08029,0.0496 0.14718,0.30292 0.14718,0.30292l-0.1549,0.25073c0,0 -0.24805,0.05025 -0.32682,0.00159c-0.07162,-0.04426 -0.12642,-0.2816 -0.12642,-0.2816z" fill="url(#color-5)" stroke="none" stroke-linecap="butt"></path><path d="M279.71044,155.78779l-0.28663,-0.0227l-0.12591,-0.25655" fill="none" stroke="#d3af89" stroke-linecap="round"></path><path d="M279.2575,155.82025l0.07216,-0.11679c0,0 0.11038,-0.03055 0.14256,-0.01067c0.0374,0.0231 0.06856,0.1411 0.06856,0.1411l-0.07216,0.1168c0,0 -0.11555,0.02341 -0.15223,0.00075c-0.03337,-0.02062 -0.05889,-0.13118 -0.05889,-0.13118z" fill="#fff4ce" stroke="none" stroke-linecap="butt"></path></g><g><path d="M281.56519,157.30499l0.1549,-0.25072c0,0 0.23696,-0.06558 0.30607,-0.02289c0.08029,0.0496 0.14717,0.3029 0.14717,0.3029l-0.1549,0.25073c0,0 -0.24804,0.05025 -0.32682,0.00159c-0.07162,-0.04426 -0.12642,-0.28161 -0.12642,-0.28161z" fill="url(#color-6)" stroke="none" stroke-linecap="butt"></path><path d="M282.14388,157.33491l-0.28663,-0.02269l-0.12591,-0.25655" fill="none" stroke="#d3af89" stroke-linecap="round"></path><path d="M281.69093,157.36738l0.07216,-0.1168c0,0 0.11038,-0.03054 0.14256,-0.01066c0.0374,0.0231 0.06856,0.1411 0.06856,0.1411l-0.07216,0.1168c0,0 -0.11555,0.02341 -0.15223,0.00074c-0.03337,-0.02062 -0.05889,-0.13118 -0.05889,-0.13118z" fill="#fff4ce" stroke="none" stroke-linecap="butt"></path></g></g></g><g stroke-width="0.5"><path d="M287.73123,138.85654l7.08269,0.04489c0.06577,0.52018 0.16953,1.02853 0.3084,1.52218c-0.21337,4.48081 1.1114,9.28483 0.83536,13.97764c-0.33078,5.62331 -1.86697,12.17583 -0.94546,17.63378c0.31561,1.86932 -0.37447,4.85895 -0.05416,7.33354l-7.48328,-0.04744z" fill="#000000" stroke="none" stroke-linecap="butt"></path><g fill="#fed800" stroke="none" stroke-linecap="butt"><path d=""></path><path d="" data-paper-data="{&quot;index&quot;:null}"></path></g><g fill="#fed800" stroke="none" stroke-linecap="butt"><path d=""></path><path d="" data-paper-data="{&quot;index&quot;:null}"></path></g><g stroke-linecap="butt"><path d="M295.77571,149.26855l-0.40847,-0.22096l0.0969,-0.02798l0.27083,-0.14735" data-paper-data="{&quot;index&quot;:null}" fill="none" stroke="#fed800"></path><path d="" fill="#fed800" stroke="none"></path><path d="" data-paper-data="{&quot;index&quot;:null}" fill="#fed800" stroke="none"></path></g><g stroke-linecap="butt"><path d="M295.9953,153.20182l-0.79863,-0.43201l0.0969,-0.02798l0.69304,-0.37705" data-paper-data="{&quot;index&quot;:null}" fill="none" stroke="#fed800"></path><path d="" fill="#fed800" stroke="none"></path><path d="" data-paper-data="{&quot;index&quot;:null}" fill="#fed800" stroke="none"></path></g><g stroke-linecap="butt"><path d="M295.72955,157.08567l-0.46067,-0.2492l0.09691,-0.02798l0.41522,-0.22591" data-paper-data="{&quot;index&quot;:null}" fill="none" stroke="#fed800"></path><path d="" fill="#fed800" stroke="none"></path><path d="" data-paper-data="{&quot;index&quot;:null}" fill="#fed800" stroke="none"></path></g><g stroke-linecap="butt"><path d="M295.30857,160.69216l-0.0639,-0.03457l0.07052,-0.02036" data-paper-data="{&quot;index&quot;:null}" fill="none" stroke="#fed800"></path><path d="" fill="#fed800" stroke="none"></path><path d="" data-paper-data="{&quot;index&quot;:null}" fill="#fed800" stroke="none"></path></g><g fill="#fed800" stroke="none" stroke-linecap="butt"><path d=""></path><path d="" data-paper-data="{&quot;index&quot;:null}"></path></g><g fill="#fed800" stroke="none" stroke-linecap="butt"><path d=""></path><path d="" data-paper-data="{&quot;index&quot;:null}"></path></g><g stroke-linecap="butt"><path d="M295.0956,173.05909l-0.56449,-0.30536l0.0969,-0.02798l0.44013,-0.23947" data-paper-data="{&quot;index&quot;:null}" fill="none" stroke="#fed800"></path><path d="" fill="#fed800" stroke="none"></path><path d="" data-paper-data="{&quot;index&quot;:null}" fill="#fed800" stroke="none"></path></g><g stroke-linecap="butt"><path d="M294.89212,176.95044l-0.23981,-0.12973l0.0969,-0.02798l0.15437,-0.084" data-paper-data="{&quot;index&quot;:null}" fill="none" stroke="#fed800"></path><path d="" fill="#fed800" stroke="none"></path><path d="" data-paper-data="{&quot;index&quot;:null}" fill="#fed800" stroke="none"></path></g><path d="M294.79107,138.95203l-0.00652,1.02876l-0.83625,39.18715" fill="none" stroke="#fff700" stroke-linecap="round"></path><g stroke-linecap="butt"><path d="M291.63929,140.3196l0.02414,-0.31029l1.84084,0.9958l-0.0969,0.02798l-1.90419,1.036l0.02251,-0.28938" fill="none" stroke="#fed800"></path><path d="M291.5491,141.78313l-0.02239,0.28779l-1.84085,-0.9958l0.0969,-0.02798l1.90418,-1.036l-0.02401,0.30868" data-paper-data="{&quot;index&quot;:null}" fill="none" stroke="#fed800"></path><path d="M291.68525,140.40137l1.09126,0.59031l-0.05744,0.01659l-1.12881,0.61414z" fill="#fed800" stroke="none"></path><path d="M291.6042,141.6235l-1.09126,-0.59031l0.05744,-0.01659l1.12881,-0.61414z" data-paper-data="{&quot;index&quot;:null}" fill="#fed800" stroke="none"></path></g><g stroke-linecap="butt"><path d="M291.31989,144.3348l0.02414,-0.31029l1.84084,0.9958l-0.09691,0.02798l-1.90418,1.036l0.02251,-0.28938" fill="none" stroke="#fed800"></path><path d="M291.22972,145.79834l-0.02239,0.28779l-1.84084,-0.9958l0.0969,-0.02798l1.90418,-1.036l-0.02402,0.30868" data-paper-data="{&quot;index&quot;:null}" fill="none" stroke="#fed800"></path><path d="M291.36585,144.41657l1.09126,0.59031l-0.05745,0.01659l-1.12881,0.61414z" fill="#fed800" stroke="none"></path><path d="M291.2848,145.6387l-1.09126,-0.59031l0.05744,-0.01659l1.12881,-0.61414z" data-paper-data="{&quot;index&quot;:null}" fill="#fed800" stroke="none"></path></g><g stroke-linecap="butt"><path d="M291.09972,148.15467l0.02414,-0.31029l1.84084,0.9958l-0.0969,0.02798l-1.90419,1.036l0.02251,-0.28938" fill="none" stroke="#fed800"></path><path d="M291.00954,149.6182l-0.02239,0.2878l-1.84084,-0.99581l0.0969,-0.02798l1.90419,-1.036l-0.02402,0.30868" data-paper-data="{&quot;index&quot;:null}" fill="none" stroke="#fed800"></path><path d="M291.14567,148.23643l1.09126,0.59032l-0.05744,0.01659l-1.12881,0.61414z" fill="#fed800" stroke="none"></path><path d="M291.06464,149.45857l-1.09126,-0.59031l0.05745,-0.01659l1.12881,-0.61414z" data-paper-data="{&quot;index&quot;:null}" fill="#fed800" stroke="none"></path></g><g stroke-linecap="butt"><path d="M290.92916,151.87687l0.02414,-0.31029l1.84084,0.9958l-0.0969,0.02798l-1.90418,1.036l0.02251,-0.28938" fill="none" stroke="#fed800"></path><path d="M290.83897,153.34041l-0.02239,0.28779l-1.84084,-0.9958l0.0969,-0.02798l1.90419,-1.036l-0.02402,0.30868" data-paper-data="{&quot;index&quot;:null}" fill="none" stroke="#fed800"></path><path d="M290.97512,151.95865l1.09127,0.59031l-0.05745,0.01659l-1.12881,0.61414z" fill="#fed800" stroke="none"></path><path d="M290.89407,153.18077l-1.09126,-0.59032l0.05745,-0.01659l1.12881,-0.61414z" data-paper-data="{&quot;index&quot;:null}" fill="#fed800" stroke="none"></path></g><g stroke-linecap="butt"><path d="M291.00137,155.94354l0.02414,-0.3103l1.84084,0.9958l-0.09691,0.02798l-1.90418,1.036l0.02251,-0.28939" fill="none" stroke="#fed800"></path><path d="M290.91118,157.40708l-0.02239,0.28779l-1.84084,-0.9958l0.0969,-0.02798l1.90418,-1.036l-0.02402,0.30867" data-paper-data="{&quot;index&quot;:null}" fill="none" stroke="#fed800"></path><path d="M291.04732,156.02532l1.09127,0.59031l-0.05745,0.01659l-1.1288,0.61414z" fill="#fed800" stroke="none"></path><path d="M290.96627,157.24745l-1.09126,-0.59031l0.05745,-0.01658l1.12881,-0.61414z" data-paper-data="{&quot;index&quot;:null}" fill="#fed800" stroke="none"></path></g><g stroke-linecap="butt"><path d="M290.97716,159.76466l0.02413,-0.31029l1.84084,0.9958l-0.0969,0.02798l-1.90418,1.036l0.02251,-0.28938" fill="none" stroke="#fed800"></path><path d="M290.88697,161.22819l-0.0224,0.2878l-1.84084,-0.99581l0.09691,-0.02798l1.90418,-1.036l-0.02402,0.30868" data-paper-data="{&quot;index&quot;:null}" fill="none" stroke="#fed800"></path><path d="M291.0231,159.84642l1.09126,0.59032l-0.05744,0.01659l-1.12881,0.61414z" fill="#fed800" stroke="none"></path><path d="M290.94205,161.06856l-1.09126,-0.59032l0.05744,-0.01659l1.12881,-0.61414z" data-paper-data="{&quot;index&quot;:null}" fill="#fed800" stroke="none"></path></g><g stroke-linecap="butt"><path d="M290.75325,164.17239l0.02414,-0.31029l1.84084,0.9958l-0.0969,0.02798l-1.90418,1.036l0.02251,-0.28939" fill="none" stroke="#fed800"></path><path d="M290.66307,165.63592l-0.02239,0.28779l-1.84084,-0.99581l0.0969,-0.02798l1.90418,-1.036l-0.02402,0.30867" data-paper-data="{&quot;index&quot;:null}" fill="none" stroke="#fed800"></path><path d="M290.7992,164.25415l1.09126,0.59031l-0.05745,0.01659l-1.1288,0.61414z" fill="#fed800" stroke="none"></path><path d="M290.71815,165.47629l-1.09126,-0.59032l0.05745,-0.01658l1.12881,-0.61414z" data-paper-data="{&quot;index&quot;:null}" fill="#fed800" stroke="none"></path></g><g stroke-linecap="butt"><path d="M290.72997,167.84653l0.02414,-0.31029l1.84084,0.9958l-0.0969,0.02798l-1.90418,1.036l0.02251,-0.28939" fill="none" stroke="#fed800"></path><path d="M290.63978,169.31006l-0.02239,0.28779l-1.84085,-0.9958l0.09691,-0.02798l1.90418,-1.036l-0.02402,0.30868" data-paper-data="{&quot;index&quot;:null}" fill="none" stroke="#fed800"></path><path d="M290.77591,167.9283l1.09127,0.59031l-0.05745,0.01659l-1.12881,0.61414z" fill="#fed800" stroke="none"></path><path d="M290.69486,169.15044l-1.09126,-0.59032l0.05745,-0.01658l1.1288,-0.61414z" data-paper-data="{&quot;index&quot;:null}" fill="#fed800" stroke="none"></path></g><g stroke-linecap="butt"><path d="M290.26361,171.8608l0.02413,-0.31029l1.84084,0.9958l-0.0969,0.02798l-1.90419,1.036l0.02251,-0.28938" fill="none" stroke="#fed800"></path><path d="M290.17343,173.32433l-0.02239,0.28779l-1.84085,-0.99581l0.09691,-0.02798l1.90418,-1.036l-0.02402,0.30868" data-paper-data="{&quot;index&quot;:null}" fill="none" stroke="#fed800"></path><path d="M290.30956,171.94257l1.09126,0.59032l-0.05744,0.01659l-1.12881,0.61414z" fill="#fed800" stroke="none"></path><path d="M290.22851,173.16471l-1.09126,-0.59031l0.05744,-0.01659l1.12881,-0.61414z" data-paper-data="{&quot;index&quot;:null}" fill="#fed800" stroke="none"></path></g><g stroke-linecap="butt"><path d="M290.3848,175.92779l0.02414,-0.31029l1.84084,0.9958l-0.0969,0.02798l-1.90419,1.036l0.02251,-0.28938" fill="none" stroke="#fed800"></path><path d="M290.29461,177.39132l-0.02239,0.28779l-1.84085,-0.9958l0.0969,-0.02798l1.90419,-1.036l-0.02402,0.30868" data-paper-data="{&quot;index&quot;:null}" fill="none" stroke="#fed800"></path><path d="M290.43076,176.00955l1.09126,0.59031l-0.05744,0.01659l-1.12881,0.61414z" fill="#fed800" stroke="none"></path><path d="M290.34971,177.23168l-1.09127,-0.59031l0.05745,-0.01659l1.12881,-0.61414z" data-paper-data="{&quot;index&quot;:null}" fill="#fed800" stroke="none"></path></g><path d="M288.57014,138.81462l-0.00652,1.02876l-0.83626,39.18715" fill="none" stroke="#fff700" stroke-linecap="round"></path></g><g stroke-width="0.5"><path d="M287.05253,178.78675l8.82613,0.05594c-0.17772,0.76652 -0.27167,1.56515 -0.27167,2.38571c0,0.0274 0.00011,0.05476 0.00032,0.0821c-0.00011,0.00014 -0.00021,0.00028 -0.00032,0.00042c-0.88124,1.1877 -0.72067,5.19676 -0.1183,8.32192c-0.3633,2.98187 -0.3281,6.53262 -0.40772,7.72692c-0.40402,6.06031 -1.77442,16.12449 -0.52602,21.74228c0.01472,0.06624 0.02931,0.13248 0.04379,0.19873l-7.80266,-0.04946z" fill="#000000" stroke="none" stroke-linecap="butt"></path><g stroke-linecap="butt"><path d="M295.58787,181.33737l-0.35978,-0.19462l0.0969,-0.02798l0.28535,-0.15525" data-paper-data="{&quot;index&quot;:null}" fill="none" stroke="#fed800"></path><path d="" fill="#fed800" stroke="none"></path><path d="" data-paper-data="{&quot;index&quot;:null}" fill="#fed800" stroke="none"></path></g><g stroke-linecap="butt"><path d="M294.99835,185.20643l-0.08964,-0.04849l0.08786,-0.02536" data-paper-data="{&quot;index&quot;:null}" fill="none" stroke="#fed800"></path><path d="" fill="#fed800" stroke="none"></path><path d="" data-paper-data="{&quot;index&quot;:null}" fill="#fed800" stroke="none"></path></g><g stroke-linecap="butt"><path d="M295.44228,189.38555l-0.75374,-0.40773l0.09691,-0.02798l0.5343,-0.29069" data-paper-data="{&quot;index&quot;:null}" fill="none" stroke="#fed800"></path><path d="" fill="#fed800" stroke="none"></path><path d="" data-paper-data="{&quot;index&quot;:null}" fill="#fed800" stroke="none"></path></g><g stroke-linecap="butt"><path d="M295.2207,193.08015l-0.70272,-0.38015l0.0969,-0.02797l0.64449,-0.35065" data-paper-data="{&quot;index&quot;:null}" fill="none" stroke="#fed800"></path><path d="" fill="#fed800" stroke="none"></path><path d="" data-paper-data="{&quot;index&quot;:null}" fill="#fed800" stroke="none"></path></g><g stroke-linecap="butt"><path d="M295.09764,197.0412l-0.50746,-0.27451l0.09691,-0.02798l0.42863,-0.2332" data-paper-data="{&quot;index&quot;:null}" fill="none" stroke="#fed800"></path><path d="" fill="#fed800" stroke="none"></path><path d="" data-paper-data="{&quot;index&quot;:null}" fill="#fed800" stroke="none"></path></g><g stroke-linecap="butt"><path d="M294.81184,200.7208l-0.24588,-0.13301l0.09691,-0.02798l0.17116,-0.09312" data-paper-data="{&quot;index&quot;:null}" fill="none" stroke="#fed800"></path><path d="" fill="#fed800" stroke="none"></path><path d="" data-paper-data="{&quot;index&quot;:null}" fill="#fed800" stroke="none"></path></g><g stroke-linecap="butt"><path d="M294.43779,205.04731l-0.09573,-0.05178l0.09691,-0.02798l0.00553,-0.00301" data-paper-data="{&quot;index&quot;:null}" fill="none" stroke="#fed800"></path><path d="" fill="#fed800" stroke="none"></path><path d="" data-paper-data="{&quot;index&quot;:null}" fill="#fed800" stroke="none"></path></g><g fill="#fed800" stroke="none" stroke-linecap="butt"><path d=""></path><path d="" data-paper-data="{&quot;index&quot;:null}"></path></g><g stroke-linecap="butt"><path d="M294.0424,212.78671l-0.18998,-0.10277l0.09691,-0.02798l0.09428,-0.0513" data-paper-data="{&quot;index&quot;:null}" fill="none" stroke="#fed800"></path><path d="" fill="#fed800" stroke="none"></path><path d="" data-paper-data="{&quot;index&quot;:null}" fill="#fed800" stroke="none"></path></g><g stroke-linecap="butt"><path d="M294.21008,216.87884l-0.23647,-0.12792l0.0969,-0.02797l0.11816,-0.06429" data-paper-data="{&quot;index&quot;:null}" fill="none" stroke="#fed800"></path><path d="" fill="#fed800" stroke="none"></path><path d="" data-paper-data="{&quot;index&quot;:null}" fill="#fed800" stroke="none"></path></g><path d="M294.11237,178.88224l-0.00652,1.02875l-0.83625,39.18715" fill="none" stroke="#fff700" stroke-linecap="round"></path><g stroke-linecap="butt"><path d="M290.96059,180.24981l0.02414,-0.3103l1.84084,0.99581l-0.0969,0.02798l-1.90419,1.036l0.02251,-0.28938" fill="none" stroke="#fed800"></path><path d="M290.87041,181.71335l-0.02239,0.28779l-1.84085,-0.9958l0.09691,-0.02798l1.90419,-1.036l-0.02402,0.30868" data-paper-data="{&quot;index&quot;:null}" fill="none" stroke="#fed800"></path><path d="M291.00654,180.33158l1.09126,0.59032l-0.05744,0.01658l-1.12881,0.61414z" fill="#fed800" stroke="none"></path><path d="M290.92549,181.55372l-1.09126,-0.59032l0.05744,-0.01658l1.12881,-0.61414z" data-paper-data="{&quot;index&quot;:null}" fill="#fed800" stroke="none"></path></g><g stroke-linecap="butt"><path d="M290.6412,184.26502l0.02414,-0.31029l1.84084,0.9958l-0.09691,0.02798l-1.90418,1.036l0.02251,-0.28938" fill="none" stroke="#fed800"></path><path d="M290.55102,185.72855l-0.02239,0.28779l-1.84084,-0.9958l0.0969,-0.02798l1.90418,-1.03599l-0.02402,0.30867" data-paper-data="{&quot;index&quot;:null}" fill="none" stroke="#fed800"></path><path d="M290.68714,184.34678l1.09127,0.59031l-0.05745,0.01659l-1.1288,0.61414z" fill="#fed800" stroke="none"></path><path d="M290.60611,185.56891l-1.09127,-0.59031l0.05745,-0.01659l1.12881,-0.61414z" data-paper-data="{&quot;index&quot;:null}" fill="#fed800" stroke="none"></path></g><g stroke-linecap="butt"><path d="M290.42103,188.08488l0.02414,-0.3103l1.84084,0.99581l-0.0969,0.02798l-1.90418,1.036l0.0225,-0.28939" fill="none" stroke="#fed800"></path><path d="M290.33083,189.54842l-0.02239,0.28779l-1.84084,-0.9958l0.09691,-0.02798l1.90419,-1.036l-0.02402,0.30868" data-paper-data="{&quot;index&quot;:null}" fill="none" stroke="#fed800"></path><path d="M290.46698,188.16666l1.09127,0.59031l-0.05745,0.01659l-1.12881,0.61414z" fill="#fed800" stroke="none"></path><path d="M290.38593,189.38879l-1.09126,-0.59032l0.05745,-0.01658l1.12881,-0.61414z" data-paper-data="{&quot;index&quot;:null}" fill="#fed800" stroke="none"></path></g><g stroke-linecap="butt"><path d="M290.25046,191.80708l0.02414,-0.3103l1.84084,0.99581l-0.0969,0.02798l-1.90418,1.036l0.02251,-0.28939" fill="none" stroke="#fed800"></path><path d="M290.16028,193.27062l-0.0224,0.2878l-1.84084,-0.99581l0.09691,-0.02798l1.90418,-1.036l-0.02402,0.30868" data-paper-data="{&quot;index&quot;:null}" fill="none" stroke="#fed800"></path><path d="M290.29642,191.88886l1.09126,0.59032l-0.05745,0.01659l-1.12881,0.61414z" fill="#fed800" stroke="none"></path><path d="M290.21536,193.11099l-1.09126,-0.59031l0.05745,-0.01659l1.12881,-0.61414z" data-paper-data="{&quot;index&quot;:null}" fill="#fed800" stroke="none"></path></g><g stroke-linecap="butt"><path d="M290.32266,195.87376l0.02414,-0.31029l1.84084,0.9958l-0.0969,0.02798l-1.90418,1.036l0.02251,-0.28938" fill="none" stroke="#fed800"></path><path d="M290.23249,197.3373l-0.02239,0.2878l-1.84084,-0.99581l0.0969,-0.02798l1.90419,-1.036l-0.02402,0.30868" data-paper-data="{&quot;index&quot;:null}" fill="none" stroke="#fed800"></path><path d="M290.36862,195.95553l1.09126,0.59032l-0.05745,0.01659l-1.12881,0.61414z" fill="#fed800" stroke="none"></path><path d="M290.28757,197.17767l-1.09126,-0.59032l0.05745,-0.01659l1.12881,-0.61414z" data-paper-data="{&quot;index&quot;:null}" fill="#fed800" stroke="none"></path></g><g stroke-linecap="butt"><path d="M290.29845,199.69487l0.02414,-0.3103l1.84084,0.99581l-0.0969,0.02798l-1.90418,1.036l0.02251,-0.28938" fill="none" stroke="#fed800"></path><path d="M290.20827,201.15841l-0.0224,0.28779l-1.84084,-0.9958l0.09691,-0.02798l1.90418,-1.03599l-0.02402,0.30868" data-paper-data="{&quot;index&quot;:null}" fill="none" stroke="#fed800"></path><path d="M290.34441,199.77664l1.09127,0.59032l-0.05745,0.01659l-1.12881,0.61414z" fill="#fed800" stroke="none"></path><path d="M290.26336,200.99877l-1.09126,-0.59032l0.05744,-0.01658l1.12881,-0.61414z" data-paper-data="{&quot;index&quot;:null}" fill="#fed800" stroke="none"></path></g><g stroke-linecap="butt"><path d="M290.07455,204.1026l0.02414,-0.3103l1.84084,0.9958l-0.09691,0.02798l-1.90418,1.036l0.02251,-0.28938" fill="none" stroke="#fed800"></path><path d="M289.98436,205.56613l-0.02239,0.2878l-1.84084,-0.99581l0.0969,-0.02798l1.90418,-1.03599l-0.02402,0.30867" data-paper-data="{&quot;index&quot;:null}" fill="none" stroke="#fed800"></path><path d="M290.1205,204.18437l1.09126,0.59032l-0.05744,0.01659l-1.12881,0.61414z" fill="#fed800" stroke="none"></path><path d="M290.03946,205.40651l-1.09126,-0.59031l0.05745,-0.01659l1.12881,-0.61414z" data-paper-data="{&quot;index&quot;:null}" fill="#fed800" stroke="none"></path></g><g stroke-linecap="butt"><path d="M290.05126,207.77674l0.02414,-0.3103l1.84084,0.9958l-0.09691,0.02799l-1.90418,1.03599l0.02251,-0.28938" fill="none" stroke="#fed800"></path><path d="M289.96108,209.24029l-0.02239,0.28779l-1.84084,-0.99581l0.09691,-0.02798l1.90418,-1.036l-0.02402,0.30867" data-paper-data="{&quot;index&quot;:null}" fill="none" stroke="#fed800"></path><path d="M290.09722,207.85852l1.09126,0.59032l-0.05745,0.01659l-1.1288,0.61414z" fill="#fed800" stroke="none"></path><path d="M290.01618,209.08065l-1.09127,-0.59031l0.05745,-0.01659l1.12881,-0.61414z" data-paper-data="{&quot;index&quot;:null}" fill="#fed800" stroke="none"></path></g><g stroke-linecap="butt"><path d="M289.58491,211.79101l0.02413,-0.31029l1.84084,0.9958l-0.0969,0.02798l-1.90419,1.036l0.02251,-0.28938" fill="none" stroke="#fed800"></path><path d="M289.49472,213.25456l-0.0224,0.28779l-1.84084,-0.9958l0.0969,-0.02798l1.90418,-1.03599l-0.02402,0.30867" data-paper-data="{&quot;index&quot;:null}" fill="none" stroke="#fed800"></path><path d="M289.63086,211.87279l1.09126,0.59032l-0.05745,0.01658l-1.12881,0.61414z" fill="#fed800" stroke="none"></path><path d="M289.54982,213.09492l-1.09126,-0.59032l0.05745,-0.01659l1.12881,-0.61414z" data-paper-data="{&quot;index&quot;:null}" fill="#fed800" stroke="none"></path></g><g stroke-linecap="butt"><path d="M289.70611,215.858l0.02413,-0.3103l1.84084,0.9958l-0.0969,0.02799l-1.90419,1.03599l0.02251,-0.28938" fill="none" stroke="#fed800"></path><path d="M289.61592,217.32153l-0.02239,0.28779l-1.84084,-0.9958l0.09691,-0.02798l1.90418,-1.036l-0.02402,0.30868" data-paper-data="{&quot;index&quot;:null}" fill="none" stroke="#fed800"></path><path d="M289.75205,215.93977l1.09126,0.59032l-0.05744,0.01659l-1.12881,0.61414z" fill="#fed800" stroke="none"></path><path d="M289.671,217.16191l-1.09126,-0.59032l0.05744,-0.01658l1.12881,-0.61414z" data-paper-data="{&quot;index&quot;:null}" fill="#fed800" stroke="none"></path></g><path d="M287.89143,178.74483l-0.00652,1.02876l-0.83626,39.18715" fill="none" stroke="#fff700" stroke-linecap="round"></path></g><text transform="translate(192.64579,179.16445) rotate(-88.99759) scale(0.03759,0.03759)" font-size="40" xml:space="preserve" data-paper-data="{&quot;index&quot;:null}" fill="#ffffff" fill-rule="nonzero" stroke="none" stroke-width="1" stroke-linecap="butt" stroke-linejoin="miter" stroke-miterlimit="10" stroke-dasharray="" stroke-dashoffset="0" font-family="Sans Serif" font-weight="normal" text-anchor="start" style="mix-blend-mode: normal"><tspan x="0" dy="0">xAmt8</tspan></text><path d="M196.31339,186.91464l-8.15383,-0.14317l0.35023,-19.94552l8.15383,0.14317z" data-paper-data="{&quot;index&quot;:null}" fill="#1f85b1" stroke="#ffffff" stroke-width="0.5" stroke-linecap="butt"></path><path d="M192.32093,186.49946l0.21928,-19.63411" data-paper-data="{&quot;index&quot;:null}" fill="none" stroke="#ffffff" stroke-width="0.5" stroke-linecap="round"></path><path d="M192.24021,176.80454l-3.54598,0.06322" data-paper-data="{&quot;index&quot;:null}" fill="none" stroke="#ffffff" stroke-width="0.5" stroke-linecap="round"></path><path d="M189.71139,185.04195l-0.5678,0.17825" data-paper-data="{&quot;index&quot;:null}" fill="none" stroke="#00ffff" stroke-width="0.5" stroke-linecap="round"></path><path d="M190.90311,185.06288l-0.53974,0.36697" data-paper-data="{&quot;index&quot;:null}" fill="none" stroke="#00ffff" stroke-width="0.5" stroke-linecap="round"></path><path d="M195.58714,168.42463l-0.38239,0.33836" data-paper-data="{&quot;index&quot;:null}" fill="none" stroke="#00ffff" stroke-width="0.5" stroke-linecap="round"></path><path d="M190.84394,168.78053l0.25254,-0.08968" data-paper-data="{&quot;index&quot;:null}" fill="none" stroke="#00ffff" stroke-width="0.5" stroke-linecap="round"></path><g data-paper-data="{&quot;index&quot;:null}" stroke-width="0.5" stroke-linecap="butt"><path d="M197.03605,187.74296l-8.93785,-0.15694l0.68342,-4.97592c0,0 0.87659,1.57827 1.69987,1.82608c1.50591,0.45328 6.60081,0.67248 6.60081,0.67248z" fill="url(#color-7)" stroke="#33fffe"></path><path d="M196.54281,169.38253c0,0 -5.09946,0.04019 -6.62035,0.44031c-0.83147,0.21875 -1.76293,1.76526 -1.76293,1.76526l-0.50831,-4.99684l8.93785,0.15694z" data-paper-data="{&quot;index&quot;:null}" fill="url(#color-8)" stroke="#33fffe"></path><path d="M189.68001,186.82953c0,0 -1.1348,0.7957 -1.61371,0.7873c-0.43719,-0.00768 -1.14604,-0.83576 -1.14604,-0.83576l0.34748,-19.7887c0,0 0.69836,-0.64651 1.10919,-0.63931c0.49376,0.00867 1.65056,0.68775 1.65056,0.68775c0,0 -0.99049,6.38485 -1.04826,9.6751c-0.05805,3.30592 0.70079,10.11362 0.70079,10.11362z" fill="url(#color-9)" stroke="none"></path></g><g stroke="#dda86a" stroke-width="0.15"><path d="M274.69642,208.40283l0.32434,-5.6219l5.48135,0.31623l-0.32434,5.6219z" fill="#bb794b" stroke-linecap="butt"></path><path d="M279.97505,208.56635l-5.16917,-5.7273" fill="none" stroke-linecap="round"></path><path d="M274.76264,208.47715l5.50432,-4.97052" fill="none" stroke-linecap="round"></path><path d="M275.80323,207.55008l0.21487,-3.7245l3.58396,0.20676l-0.21488,3.72451z" fill="none" stroke-linecap="butt"></path></g></g></g></svg>