<svg version="1.1" xmlns="http://www.w3.org/2000/svg" xmlns:xlink="http://www.w3.org/1999/xlink" width="111.36548" height="84.65648" viewBox="0,0,111.36548,84.65648"><defs><radialGradient cx="240.83653" cy="155.26839" r="1.97305" gradientUnits="userSpaceOnUse" id="color-1"><stop offset="0" stop-color="#f8ff21"></stop><stop offset="1" stop-color="#ffb900"></stop></radialGradient><radialGradient cx="238.017" cy="139.65772" r="4.7336" gradientUnits="userSpaceOnUse" id="color-2"><stop offset="0" stop-color="#cc9500"></stop><stop offset="1" stop-color="#ffb900"></stop></radialGradient><linearGradient x1="240.75344" y1="150.67457" x2="240.82746" y2="154.76738" gradientUnits="userSpaceOnUse" id="color-3"><stop offset="0" stop-color="#080000"></stop><stop offset="1" stop-color="#909090"></stop></linearGradient><radialGradient cx="249.58243" cy="148.98767" r="1.28095" gradientUnits="userSpaceOnUse" id="color-4"><stop offset="0" stop-color="#fff85d"></stop><stop offset="1" stop-color="#fff85d" stop-opacity="0"></stop></radialGradient><linearGradient x1="249.22122" y1="150.98049" x2="249.91619" y2="150.96793" gradientUnits="userSpaceOnUse" id="color-5"><stop offset="0" stop-color="#fff3d5"></stop><stop offset="1" stop-color="#ffd3c2"></stop></linearGradient><radialGradient cx="246.55776" cy="148.40875" r="1.28095" gradientUnits="userSpaceOnUse" id="color-6"><stop offset="0" stop-color="#fff85d"></stop><stop offset="1" stop-color="#fff85d" stop-opacity="0"></stop></radialGradient><linearGradient x1="246.19655" y1="150.40158" x2="246.89152" y2="150.389" gradientUnits="userSpaceOnUse" id="color-7"><stop offset="0" stop-color="#fff3d5"></stop><stop offset="1" stop-color="#ffd3c2"></stop></linearGradient><radialGradient cx="234.96351" cy="148.54864" r="1.28095" gradientUnits="userSpaceOnUse" id="color-8"><stop offset="0" stop-color="#fff85d"></stop><stop offset="1" stop-color="#fff85d" stop-opacity="0"></stop></radialGradient><linearGradient x1="234.6023" y1="150.54146" x2="235.29727" y2="150.52889" gradientUnits="userSpaceOnUse" id="color-9"><stop offset="0" stop-color="#fff3d5"></stop><stop offset="1" stop-color="#ffd3c2"></stop></linearGradient><radialGradient cx="231.64497" cy="149.04003" r="1.28095" gradientUnits="userSpaceOnUse" id="color-10"><stop offset="0" stop-color="#fff85d"></stop><stop offset="1" stop-color="#fff85d" stop-opacity="0"></stop></radialGradient><linearGradient x1="231.28375" y1="151.03285" x2="231.97873" y2="151.02028" gradientUnits="userSpaceOnUse" id="color-11"><stop offset="0" stop-color="#fff3d5"></stop><stop offset="1" stop-color="#ffd3c2"></stop></linearGradient><linearGradient x1="200.23585" y1="164.2127" x2="206.74751" y2="164.2127" gradientUnits="userSpaceOnUse" id="color-12"><stop offset="0" stop-color="#9e7f4a"></stop><stop offset="1" stop-color="#d88e65"></stop></linearGradient><radialGradient cx="206.41206" cy="165.01581" r="3.69981" gradientUnits="userSpaceOnUse" id="color-13"><stop offset="0" stop-color="#cf6734"></stop><stop offset="1" stop-color="#cf8634"></stop></radialGradient><linearGradient x1="277.49627" y1="197.66567" x2="284.00793" y2="197.66567" gradientUnits="userSpaceOnUse" id="color-14"><stop offset="0" stop-color="#9e7f4a"></stop><stop offset="1" stop-color="#d88e65"></stop></linearGradient><radialGradient cx="283.67248" cy="198.46877" r="3.69981" gradientUnits="userSpaceOnUse" id="color-15"><stop offset="0" stop-color="#cf6734"></stop><stop offset="1" stop-color="#cf8634"></stop></radialGradient></defs><g transform="translate(-184.31726,-136.8742)"><g data-paper-data="{&quot;isPaintingLayer&quot;:true}" fill-rule="nonzero" stroke-linejoin="miter" stroke-miterlimit="10" stroke-dasharray="" stroke-dashoffset="0" style="mix-blend-mode: normal"><path d="M270.56674,215.95385v-12.17506h15.92998v12.17506z" fill="#915e23" stroke="none" stroke-width="0" stroke-linecap="butt"></path><path d="M284.10723,220.16526v-82.83591h11.15099v82.83591z" fill="#915e23" stroke="none" stroke-width="0" stroke-linecap="butt"></path><path d="M184.31726,221.53068v-84.65648h15.0197v84.65648z" fill="#915e23" stroke="none" stroke-width="0" stroke-linecap="butt"></path><path d="M184.91678,221.33552v-10.93996h110.76596v10.93996z" fill="#bb792d" stroke="none" stroke-width="NaN" stroke-linecap="butt"></path><path d="M184.8293,212.20238v-2.27571h77.71556v2.27571z" fill="#e0e0e0" stroke="none" stroke-width="NaN" stroke-linecap="butt"></path><path d="M184.66143,166.73378v-29.20504h25.36494v29.20504z" fill="#b18654" stroke="none" stroke-width="0" stroke-linecap="butt"></path><g stroke-linecap="butt"><path d="M215.58454,210.49159l0.00533,10.4314l-8.05281,0.00281l-0.00533,-10.4314z" data-paper-data="{&quot;index&quot;:null}" fill="#000000" stroke="none" stroke-width="0.25"></path><g data-paper-data="{&quot;index&quot;:null}"><path d="M215.81096,211.20098l0.00051,0.98899l-0.42766,0.00015l-0.00051,-0.98899z" fill="#e6e6e6" stroke="#000000" stroke-width="0.25"></path><path d="M215.81881,219.07435l0.00051,0.98899l-0.42766,0.00015l-0.00051,-0.98899z" fill="#e6e6e6" stroke="#000000" stroke-width="0.25"></path><path d="M223.88221,210.4887l0.00533,10.4314l-8.05281,0.00281l-0.00533,-10.4314z" fill="#8e6544" stroke="none" stroke-width="0.25"></path><path d="M223.2075,217.18682l0.00179,3.50047l-6.61178,0.0023l-0.00179,-3.50047z" fill="none" stroke="#513a27" stroke-width="0.25"></path><path d="M223.20463,211.58606l0.00172,3.36045l-6.52702,0.00227l-0.00172,-3.36045z" fill="none" stroke="#513a27" stroke-width="0.25"></path><text transform="translate(218.01886,218.78486) rotate(-0.02062) scale(0.02611,-0.02156) skewX(-0.00794)" font-size="40" xml:space="preserve" fill="#ffffff" fill-rule="nonzero" stroke="none" stroke-width="0.5" stroke-linecap="butt" stroke-linejoin="miter" stroke-miterlimit="10" stroke-dasharray="" stroke-dashoffset="0" font-family="Sans Serif" font-weight="normal" text-anchor="start" style="mix-blend-mode: normal"><tspan x="0" dy="0">xAmt8</tspan></text><path d="M219.8464,219.73166c-1.35764,0.00047 -2.45838,-0.29691 -2.45857,-0.66423c-0.00019,-0.36731 1.10025,-0.66548 2.45789,-0.66595c1.35764,-0.00047 2.45838,0.29691 2.45857,0.66423c0.00019,0.36731 -1.10025,0.66548 -2.45789,0.66595z" fill="#d59866" stroke="none" stroke-width="0.25"></path><path d="M217.81159,218.92727c0.11704,-0.00004 0.21196,0.07829 0.21201,0.17495c0.00005,0.09666 -0.09479,0.17506 -0.21183,0.1751c-0.11704,0.00004 -0.21196,-0.07829 -0.21201,-0.17495c-0.00005,-0.09666 0.09479,-0.17506 0.21183,-0.1751z" fill="#ab7a52" stroke="none" stroke-width="0.25"></path><path d="M221.88038,218.92585c0.11704,-0.00004 0.21196,0.07829 0.21201,0.17495c0.00005,0.09666 -0.09479,0.17506 -0.21183,0.1751c-0.11704,0.00004 -0.21196,-0.07829 -0.21201,-0.17495c-0.00005,-0.09666 0.09479,-0.17506 0.21183,-0.1751z" fill="#ab7a52" stroke="none" stroke-width="0.25"></path><path d="M222.27472,216.51038c-0.70223,0.00025 -1.27157,-0.14583 -1.27166,-0.32627c-0.00009,-0.18044 0.5691,-0.32691 1.27133,-0.32715c0.70223,-0.00025 1.27157,0.14583 1.27166,0.32627c0.00009,0.18044 -0.5691,0.32691 -1.27133,0.32715z" fill="#dadada" stroke="none" stroke-width="0.25"></path><path d="M223.58358,216.43855c0.08481,0.3151 -0.12761,0.62216 -0.47444,0.68584c-0.34683,0.06368 -0.69675,-0.14014 -0.78156,-0.45524c-0.08481,-0.3151 0.12761,-0.62216 0.47444,-0.68584c0.34683,-0.06368 0.69675,0.14014 0.78156,0.45524z" fill="#fff4ce" stroke="#e6ddbb" stroke-width="0.25"></path><path d="M223.50394,216.58222c0.05269,0.19576 -0.07928,0.38652 -0.29475,0.42608c-0.21547,0.03956 -0.43286,-0.08707 -0.48555,-0.28282c-0.05269,-0.19576 0.07928,-0.38652 0.29475,-0.42608c0.21547,-0.03956 0.43286,0.08707 0.48555,0.28282z" fill="#e6ddbb" stroke="#e6ddbb" stroke-width="0.25"></path><path d="M221.96428,216.05247l0.50257,0.16642l-0.2015,0.41508l-0.50257,-0.16642z" fill="#e6ddbb" stroke="none" stroke-width="0.25"></path><path d="M222.19148,215.97004c0.02841,0.03391 -0.10349,0.34843 -0.11548,0.40347l-0.00275,0.08654c-0.00011,0.02028 -0.00995,0.0394 -0.02657,0.0535c-0.00592,0.01293 -0.01598,0.02442 -0.02915,0.03312c-0.00031,0.00842 -0.00063,0.01684 -0.00094,0.02526l-0.00566,0.00752l0.00372,0.00077l-0.02887,0.09539c-0.00777,0.02818 -0.03447,0.05159 -0.0709,0.05828c-0.0504,0.00925 -0.10035,-0.01699 -0.11155,-0.05861v0l-0.0235,-0.08731l0.01791,-0.00329c-0.07666,-0.15501 -0.09123,-0.32157 0.01043,-0.48727c0.06515,-0.10619 0.20904,-0.33537 0.3833,-0.12736z" fill="#fff4ce" stroke="none" stroke-width="0.25"></path></g></g><path d="M229.15159,166.05107v-27.83961h22.5203v27.83961z" fill="#b18654" stroke="none" stroke-width="0" stroke-linecap="butt"></path><path d="M270.22819,166.16485v-29.20504h13.87259v29.20504z" fill="#b18654" stroke="none" stroke-width="0" stroke-linecap="butt"></path><g><text transform="translate(239.05649,155.56683) rotate(-1.03587) scale(0.02757,0.02757)" font-size="40" xml:space="preserve" fill="#ffffff" fill-rule="nonzero" stroke="none" stroke-width="0.3" stroke-linecap="butt" stroke-linejoin="miter" stroke-miterlimit="10" stroke-dasharray="" stroke-dashoffset="0" font-family="Sans Serif" font-weight="normal" text-anchor="start" style="mix-blend-mode: normal"><tspan x="0" dy="0">xAmt8</tspan></text><text transform="translate(237.97876,141.00717) rotate(-1.03686) scale(0.0532,0.0532)" font-size="40" xml:space="preserve" fill="#000000" fill-rule="nonzero" stroke="none" stroke-width="0.3" stroke-linecap="butt" stroke-linejoin="miter" stroke-miterlimit="10" stroke-dasharray="" stroke-dashoffset="0" font-family="Marker" font-weight="normal" text-anchor="start" style="mix-blend-mode: normal"><tspan x="0" dy="0">xAmt8</tspan></text><path d="M246.45888,152.66083l-0.83599,2.2704l-3.31918,0.06003" fill="none" stroke="#ffb900" stroke-width="0.15" stroke-linecap="round"></path><path d="M249.72564,153.16557l-0.65038,2.14175l-6.6395,0.05744" fill="none" stroke="#ffb900" stroke-width="0.15" stroke-linecap="round"></path><path d="M239.23001,155.16499l-3.31918,0.06003l-0.91754,-2.23868" data-paper-data="{&quot;index&quot;:null}" fill="none" stroke="#ffb900" stroke-width="0.15" stroke-linecap="round"></path><path d="M239.11155,155.54301l-6.63724,0.18269l-0.7274,-2.11683" data-paper-data="{&quot;index&quot;:null}" fill="none" stroke="#ffb900" stroke-width="0.15" stroke-linecap="round"></path><path d="M242.80925,155.23271c0.01001,0.5534 -0.8651,1.01799 -1.9546,1.0377c-1.08951,0.01971 -1.98083,-0.41294 -1.99085,-0.96634c-0.01001,-0.5534 0.86509,-1.01799 1.9546,-1.0377c1.08951,-0.01971 1.98084,0.41294 1.99085,0.96634z" fill="url(#color-1)" stroke="none" stroke-width="0.15" stroke-linecap="butt"></path><path d="M240.42436,155.21058l-0.24234,-13.39938l0.50884,-0.0092l0.24234,13.39938z" fill="#ffb900" stroke="none" stroke-width="0.15" stroke-linecap="butt"></path><path d="M241.85839,144.2241c0.01314,0.72634 -0.56503,1.3258 -1.29136,1.33894c-0.72634,0.01314 -1.3258,-0.56503 -1.33894,-1.29136c-0.01314,-0.72634 0.56503,-1.3258 1.29136,-1.33894c0.72634,-0.01314 1.3258,0.56503 1.33894,1.29136z" fill="none" stroke="#ffb900" stroke-width="0.15" stroke-linecap="butt"></path><path d="M241.65497,147.22766c0.01063,0.58799 -0.4574,1.07326 -1.04539,1.0839c-0.58799,0.01063 -1.07326,-0.4574 -1.0839,-1.04539c-0.01063,-0.58799 0.4574,-1.07327 1.04539,-1.0839c0.58799,-0.01063 1.07326,0.4574 1.0839,1.04539z" fill="none" stroke="#ffb900" stroke-width="0.15" stroke-linecap="butt"></path><path d="M241.37702,149.57477c0.00845,0.46693 -0.36323,0.8523 -0.83016,0.86074c-0.46693,0.00845 -0.8523,-0.36323 -0.86074,-0.83016c-0.00845,-0.46693 0.36323,-0.8523 0.83016,-0.86074c0.46693,-0.00845 0.8523,0.36323 0.86074,0.83016z" fill="none" stroke="#ffb900" stroke-width="0.15" stroke-linecap="butt"></path><path d="M245.44558,139.68091c0.01182,0.65347 -1.90408,2.57071 -4.51794,2.61799c-2.61387,0.04728 -4.9359,-1.79332 -4.94772,-2.44679c-0.01182,-0.65347 2.09756,-1.22153 4.71143,-1.2688c2.61387,-0.04728 4.74241,0.44414 4.75423,1.09761z" fill="url(#color-2)" stroke="#000000" stroke-width="0.15" stroke-linecap="butt"></path><path d="M239.72744,151.09849l-0.00733,-0.40523l2.06666,-0.03738l0.00733,0.40523c0,0 -0.07488,2.19949 -0.40579,3.23193c-0.10589,0.33039 -0.49393,0.47313 -0.58111,0.4747c-0.1046,0.00189 -0.53253,-0.12704 -0.6862,-0.64022c-0.32519,-1.08594 -0.39356,-3.02903 -0.39356,-3.02903z" fill="none" stroke="url(#color-3)" stroke-width="0.15" stroke-linecap="butt"></path><path d="M250.47885,153.24592c0.00219,0.12106 -0.36054,0.22579 -0.81018,0.23392c-0.44964,0.00813 -0.81591,-0.08341 -0.8181,-0.20447c-0.00219,-0.12106 0.36054,-0.22578 0.81017,-0.23392c0.44964,-0.00813 0.81592,0.08341 0.8181,0.20447z" fill="#ffc72d" stroke="none" stroke-width="0.15" stroke-linecap="butt"></path><path d="M247.21154,152.70987c0.00313,0.17294 -0.27472,0.3182 -0.6206,0.32446c-0.34588,0.00626 -0.6288,-0.12886 -0.63192,-0.3018c-0.00313,-0.17294 0.27472,-0.3182 0.6206,-0.32446c0.34588,-0.00626 0.6288,0.12887 0.63192,0.3018z" fill="#ffc72d" stroke="none" stroke-width="0.15" stroke-linecap="butt"></path><path d="M235.56307,152.92054c0.00188,0.10376 -0.27699,0.19295 -0.62286,0.19921c-0.34588,0.00626 -0.62778,-0.07279 -0.62966,-0.17655c-0.00188,-0.10376 0.27699,-0.19295 0.62286,-0.1992c0.34588,-0.00626 0.62778,0.07279 0.62966,0.17655z" fill="#ffc72d" stroke="none" stroke-width="0.15" stroke-linecap="butt"></path><path d="M232.3782,153.47932c0.0025,0.13835 -0.28988,0.25583 -0.65305,0.2624c-0.36317,0.00657 -0.6596,-0.10026 -0.6621,-0.23861c-0.0025,-0.13835 0.28988,-0.25583 0.65305,-0.2624c0.36317,-0.00657 0.6596,0.10026 0.6621,0.23861z" fill="#ffc72d" stroke="none" stroke-width="0.15" stroke-linecap="butt"></path><g><text transform="translate(248.96869,152.75733) rotate(-1.03845) scale(0.01118,0.01118)" font-size="40" xml:space="preserve" fill="#66d6ff" fill-rule="nonzero" stroke="none" stroke-width="0.3" stroke-linecap="butt" stroke-linejoin="miter" stroke-miterlimit="10" stroke-dasharray="" stroke-dashoffset="0" font-family="Sans Serif" font-weight="normal" text-anchor="start" style="mix-blend-mode: normal"><tspan x="0" dy="0">xAmt8</tspan></text><g stroke-width="0.15"><path d="M250.77382,148.96612c0.01279,0.70733 -0.51024,1.29039 -1.16822,1.30229c-0.65798,0.0119 -1.20176,-0.55186 -1.21455,-1.25919c-0.01279,-0.70733 0.51024,-1.29039 1.16822,-1.30229c0.65798,-0.0119 1.20176,0.55186 1.21455,1.25919z" fill="url(#color-4)" stroke="none" stroke-linecap="butt"></path><path d="M249.28183,153.23384l-0.28804,-0.55095l1.31017,-0.04356l-0.08887,0.57763z" fill="#a76a00" stroke="none" stroke-linecap="butt"></path><path d="M248.99451,152.7226l-0.00216,-0.11914l1.33038,-0.02406l0.00216,0.11914z" fill="#643f00" stroke="none" stroke-linecap="butt"></path><path d="M248.95336,152.64389l-0.30539,-0.4116l1.92572,-0.05469l-0.25023,0.44151z" fill="#a76a00" stroke="none" stroke-linecap="butt"></path><path d="M250.17165,152.95905c-0.04065,-0.07776 0.03711,-0.11842 0.03711,-0.11842l0.07871,-0.04115c0.10725,-0.05607 0.26159,-0.0971 0.20959,-0.25507c-0.01781,-0.05411 -0.07351,-0.08708 -0.10852,-0.13203c0,0 -0.05391,-0.06924 0.01533,-0.12315c0.06924,-0.05391 0.12314,0.01532 0.12314,0.01532c0.01751,0.02249 0.13062,0.16585 0.1355,0.18136c0.08189,0.26006 -0.10191,0.3688 -0.29374,0.46909l-0.07871,0.04115c0,0 -0.07776,0.04066 -0.11842,-0.03711z" fill="#a76a00" stroke="none" stroke-linecap="butt"></path><path d="M249.2433,152.20167c0,0 0.14119,-1.56495 0.1577,-1.99056c0.00769,-0.19825 -0.06288,-0.4543 -0.06288,-0.4543c0,0 0.25817,0.05492 0.3585,0.0531c0.0807,-0.00146 0.19749,-0.06316 0.19749,-0.06316c0,0 -0.06044,1.05118 -0.05249,1.49067c0.00647,0.35763 0.09667,0.95167 0.09667,0.95167z" fill="url(#color-5)" stroke="none" stroke-linecap="butt"></path><path d="M249.56707,149.23623l0.02955,0.53576" fill="none" stroke="#000000" stroke-linecap="round"></path><path d="M249.70229,149.02523c0.00268,0.14805 -0.05294,0.26911 -0.12422,0.27039c-0.07128,0.00129 -0.13124,-0.11768 -0.13391,-0.26573c-0.00268,-0.14805 0.05078,-0.38825 0.12206,-0.38954c0.07128,-0.00129 0.13339,0.23682 0.13607,0.38487z" fill="#ffd75c" stroke="#000000" stroke-linecap="butt"></path></g></g><g><text transform="translate(245.94402,152.17841) rotate(-1.03845) scale(0.01118,0.01118)" font-size="40" xml:space="preserve" fill="#66d6ff" fill-rule="nonzero" stroke="none" stroke-width="0.3" stroke-linecap="butt" stroke-linejoin="miter" stroke-miterlimit="10" stroke-dasharray="" stroke-dashoffset="0" font-family="Sans Serif" font-weight="normal" text-anchor="start" style="mix-blend-mode: normal"><tspan x="0" dy="0">xAmt8</tspan></text><g stroke-width="0.15"><path d="M247.74915,148.3872c0.01279,0.70733 -0.51024,1.29039 -1.16822,1.30229c-0.65798,0.0119 -1.20176,-0.55186 -1.21455,-1.25919c-0.01279,-0.70733 0.51024,-1.29039 1.16822,-1.30229c0.65798,-0.0119 1.20176,0.55186 1.21455,1.25919z" fill="url(#color-6)" stroke="none" stroke-linecap="butt"></path><path d="M246.25717,152.65492l-0.28805,-0.55095l1.31017,-0.04356l-0.08887,0.57763z" fill="#a76a00" stroke="none" stroke-linecap="butt"></path><path d="M245.96984,152.14368l-0.00216,-0.11914l1.33038,-0.02406l0.00216,0.11914z" fill="#643f00" stroke="none" stroke-linecap="butt"></path><path d="M245.92869,152.06497l-0.30539,-0.4116l1.92572,-0.05469l-0.25023,0.44151z" fill="#a76a00" stroke="none" stroke-linecap="butt"></path><path d="M247.14698,152.38013c-0.04065,-0.07776 0.03711,-0.11842 0.03711,-0.11842l0.07871,-0.04115c0.10725,-0.05607 0.26159,-0.0971 0.20959,-0.25507c-0.01781,-0.05411 -0.07352,-0.08708 -0.10852,-0.13203c0,0 -0.05391,-0.06924 0.01533,-0.12315c0.06924,-0.05391 0.12315,0.01532 0.12315,0.01532c0.01751,0.02249 0.13062,0.16584 0.1355,0.18136c0.08189,0.26006 -0.10191,0.36881 -0.29374,0.4691l-0.07871,0.04115c0,0 -0.07776,0.04065 -0.11842,-0.03711z" fill="#a76a00" stroke="none" stroke-linecap="butt"></path><path d="M246.21864,151.62275c0,0 0.14119,-1.56495 0.1577,-1.99056c0.00769,-0.19825 -0.06288,-0.4543 -0.06288,-0.4543c0,0 0.25817,0.05492 0.35849,0.05311c0.0807,-0.00146 0.19749,-0.06316 0.19749,-0.06316c0,0 -0.06044,1.05118 -0.05249,1.49067c0.00647,0.35763 0.09666,0.95167 0.09666,0.95167z" fill="url(#color-7)" stroke="none" stroke-linecap="butt"></path><path d="M246.57195,149.19307l-0.02955,-0.53576" fill="none" stroke="#000000" stroke-linecap="round"></path><path d="M246.67762,148.44631c0.00268,0.14805 -0.05294,0.26911 -0.12422,0.27039c-0.07128,0.00129 -0.13124,-0.11768 -0.13391,-0.26573c-0.00268,-0.14805 0.05078,-0.38824 0.12206,-0.38954c0.07128,-0.00129 0.1334,0.23682 0.13607,0.38487z" fill="#ffd75c" stroke="#000000" stroke-linecap="butt"></path></g></g><g><text transform="translate(234.34977,152.3183) rotate(-1.03845) scale(0.01118,0.01118)" font-size="40" xml:space="preserve" fill="#66d6ff" fill-rule="nonzero" stroke="none" stroke-width="0.3" stroke-linecap="butt" stroke-linejoin="miter" stroke-miterlimit="10" stroke-dasharray="" stroke-dashoffset="0" font-family="Sans Serif" font-weight="normal" text-anchor="start" style="mix-blend-mode: normal"><tspan x="0" dy="0">xAmt8</tspan></text><g stroke-width="0.15"><path d="M236.1549,148.52709c0.01279,0.70733 -0.51024,1.29039 -1.16823,1.30229c-0.65798,0.0119 -1.20176,-0.55186 -1.21455,-1.25919c-0.01279,-0.70733 0.51024,-1.29039 1.16822,-1.30229c0.65798,-0.0119 1.20176,0.55186 1.21455,1.25919z" fill="url(#color-8)" stroke="none" stroke-linecap="butt"></path><path d="M234.66292,152.79481l-0.28805,-0.55095l1.31017,-0.04356l-0.08887,0.57763z" fill="#a76a00" stroke="none" stroke-linecap="butt"></path><path d="M234.37559,152.28357l-0.00216,-0.11914l1.33038,-0.02406l0.00216,0.11914z" fill="#643f00" stroke="none" stroke-linecap="butt"></path><path d="M234.33444,152.20486l-0.30539,-0.4116l1.92572,-0.05469l-0.25023,0.44151z" fill="#a76a00" stroke="none" stroke-linecap="butt"></path><path d="M235.55273,152.52002c-0.04066,-0.07777 0.03711,-0.11842 0.03711,-0.11842l0.07871,-0.04115c0.10725,-0.05607 0.26159,-0.0971 0.20959,-0.25507c-0.01781,-0.05411 -0.07352,-0.08708 -0.10852,-0.13203c0,0 -0.05391,-0.06923 0.01533,-0.12315c0.06924,-0.05391 0.12315,0.01532 0.12315,0.01532c0.01751,0.02249 0.13062,0.16585 0.1355,0.18136c0.08189,0.26006 -0.10191,0.36881 -0.29374,0.4691l-0.07871,0.04115c0,0 -0.07776,0.04066 -0.11842,-0.03711z" fill="#a76a00" stroke="none" stroke-linecap="butt"></path><path d="M234.62438,151.76263c0,0 0.1412,-1.56495 0.1577,-1.99056c0.00769,-0.19825 -0.06288,-0.4543 -0.06288,-0.4543c0,0 0.25817,0.05492 0.35849,0.05311c0.0807,-0.00146 0.19749,-0.06316 0.19749,-0.06316c0,0 -0.06044,1.05118 -0.05249,1.49067c0.00647,0.35763 0.09667,0.95167 0.09667,0.95167z" fill="url(#color-9)" stroke="none" stroke-linecap="butt"></path><path d="M234.9777,149.33297l-0.02955,-0.53576" fill="none" stroke="#000000" stroke-linecap="round"></path><path d="M235.08337,148.5862c0.00268,0.14805 -0.05294,0.26911 -0.12422,0.2704c-0.07128,0.00129 -0.13124,-0.11768 -0.13391,-0.26573c-0.00268,-0.14805 0.05078,-0.38825 0.12206,-0.38954c0.07128,-0.00129 0.13339,0.23682 0.13607,0.38486z" fill="#ffd75c" stroke="#000000" stroke-linecap="butt"></path></g></g><g><text transform="translate(231.03123,152.80969) rotate(-1.03845) scale(0.01118,0.01118)" font-size="40" xml:space="preserve" fill="#66d6ff" fill-rule="nonzero" stroke="none" stroke-width="0.3" stroke-linecap="butt" stroke-linejoin="miter" stroke-miterlimit="10" stroke-dasharray="" stroke-dashoffset="0" font-family="Sans Serif" font-weight="normal" text-anchor="start" style="mix-blend-mode: normal"><tspan x="0" dy="0">xAmt8</tspan></text><g stroke-width="0.15"><path d="M232.83636,149.01848c0.01279,0.70733 -0.51024,1.29039 -1.16822,1.30229c-0.65798,0.0119 -1.20176,-0.55186 -1.21455,-1.25919c-0.01279,-0.70733 0.51024,-1.29039 1.16822,-1.30229c0.65798,-0.0119 1.20176,0.55186 1.21455,1.25919z" fill="url(#color-10)" stroke="none" stroke-linecap="butt"></path><path d="M231.34437,153.2862l-0.28805,-0.55095l1.31017,-0.04356l-0.08887,0.57763z" fill="#a76a00" stroke="none" stroke-linecap="butt"></path><path d="M231.05704,152.77496l-0.00216,-0.11914l1.33038,-0.02406l0.00216,0.11914z" fill="#643f00" stroke="none" stroke-linecap="butt"></path><path d="M231.01589,152.69625l-0.30539,-0.4116l1.92572,-0.05469l-0.25023,0.44151z" fill="#a76a00" stroke="none" stroke-linecap="butt"></path><path d="M232.23419,153.01141c-0.04066,-0.07777 0.03711,-0.11842 0.03711,-0.11842l0.07871,-0.04115c0.10725,-0.05607 0.26159,-0.0971 0.20959,-0.25507c-0.01781,-0.05411 -0.07352,-0.08708 -0.10852,-0.13203c0,0 -0.05391,-0.06924 0.01533,-0.12315c0.06924,-0.05391 0.12314,0.01532 0.12314,0.01532c0.01751,0.02249 0.13062,0.16585 0.1355,0.18136c0.08189,0.26006 -0.10191,0.3688 -0.29374,0.46909l-0.07871,0.04115c0,0 -0.07776,0.04066 -0.11842,-0.03711z" fill="#a76a00" stroke="none" stroke-linecap="butt"></path><path d="M231.30584,152.25402c0,0 0.1412,-1.56495 0.1577,-1.99056c0.00769,-0.19825 -0.06288,-0.4543 -0.06288,-0.4543c0,0 0.25817,0.05492 0.35849,0.05311c0.0807,-0.00146 0.19749,-0.06316 0.19749,-0.06316c0,0 -0.06044,1.05118 -0.05249,1.49067c0.00647,0.35763 0.09666,0.95167 0.09666,0.95167z" fill="url(#color-11)" stroke="none" stroke-linecap="butt"></path><path d="M231.62961,149.28859l0.02955,0.53576" fill="none" stroke="#000000" stroke-linecap="round"></path><path d="M231.76483,149.07758c0.00268,0.14805 -0.05294,0.26911 -0.12422,0.27039c-0.07128,0.00129 -0.13124,-0.11768 -0.13391,-0.26573c-0.00268,-0.14805 0.05078,-0.38825 0.12206,-0.38954c0.07128,-0.00129 0.13339,0.23682 0.13607,0.38487z" fill="#ffd75c" stroke="#000000" stroke-linecap="butt"></path></g></g></g><path d="M208.5536,139.2637v-1.13786h63.03722v1.13786z" fill="#b06846" stroke="none" stroke-width="NaN" stroke-linecap="butt"></path><g><path d="M206.74751,164.2127c0,0.33565 -1.45768,0.60775 -3.25583,0.60775c-1.79814,0 -3.25583,-0.2721 -3.25583,-0.60775c0,-0.33565 1.45768,-0.60775 3.25583,-0.60775c1.79814,0 3.25583,0.2721 3.25583,0.60775z" fill="url(#color-12)" stroke="none" stroke-width="0" stroke-linecap="butt"></path><path d="M201.10407,170.84671l-1.24313,-6.21568l7.39962,-0.23679l-1.18394,6.45246z" fill="url(#color-13)" stroke="#000000" stroke-width="0" stroke-linecap="butt"></path><path d="M199.70308,164.78889v-0.59197h7.81399v0.59197z" fill="#cea234" stroke="none" stroke-width="0" stroke-linecap="butt"></path><path d="M202.71699,163.71148c0,0 0.33206,-3.10333 0.39946,-4.30577c0.04842,-0.86374 -0.03282,-2.23509 -0.03282,-2.23509l0.76835,0.04307c0,0 -0.26787,2.66329 -0.33355,3.83514c-0.05438,0.97008 -0.03308,2.70571 -0.03308,2.70571z" fill="#108d00" stroke="none" stroke-width="0" stroke-linecap="butt"></path><g stroke="none" stroke-width="0" stroke-linecap="butt"><path d="M203.00201,161.98546l0.47997,-1.01719l1.28487,0.60627c0,0 0.08734,0.41926 0.01441,0.59753c-0.069,0.16868 -0.44084,0.44492 -0.44084,0.44492z" data-paper-data="{&quot;index&quot;:null}" fill="#108d00"></path><path d="M203.24534,161.51117l0.05052,-0.10707l0.87799,0.41429l-0.05052,0.10707z" fill="#14ab00"></path><path d="M203.90411,162.39803l0.45471,-0.96365l0.08999,0.04246l-0.45471,0.96365z" fill="#14ab00"></path><path d="M204.17181,161.96142l0.04042,-0.08566l0.59961,0.28293l-0.04042,0.08566z" fill="#14ab00"></path></g><g data-paper-data="{&quot;index&quot;:null}" stroke="none" stroke-width="0" stroke-linecap="butt"><path d="M201.89008,161.0798c0,0 -0.31174,-0.34263 -0.34699,-0.52143c-0.03726,-0.18897 0.12912,-0.58359 0.12912,-0.58359l1.37752,-0.3477l0.27526,1.09054z" data-paper-data="{&quot;index&quot;:null}" fill="#108d00"></path><path d="M202.23619,160.44296l-0.02898,-0.11479l0.94131,-0.2376l0.02897,0.11479z" fill="#14ab00"></path><path d="M202.26391,160.97324l-0.26078,-1.03314l0.09648,-0.02435l0.26077,1.03314z" fill="#14ab00"></path><path d="M201.53885,160.63119l-0.02318,-0.09183l0.64284,-0.16226l0.02318,0.09183z" fill="#14ab00"></path></g><g data-paper-data="{&quot;index&quot;:null}" stroke="none" stroke-width="0" stroke-linecap="butt"><path d="M201.90127,158.96837c0,0 -0.2974,-0.35514 -0.32528,-0.53525c-0.02947,-0.19035 0.15298,-0.5778 0.15298,-0.5778l1.39064,-0.29083l0.23024,1.10092z" data-paper-data="{&quot;index&quot;:null}" fill="#108d00"></path><path d="M202.27324,158.34628l-0.02424,-0.11589l0.95027,-0.19873l0.02424,0.11589z" fill="#14ab00"></path><path d="M202.27916,158.87725l-0.21812,-1.04298l0.09739,-0.02037l0.21812,1.04298z" fill="#14ab00"></path><path d="M201.56876,158.50571l-0.01939,-0.09271l0.64896,-0.13572l0.01939,0.09271z" fill="#14ab00"></path></g><g data-paper-data="{&quot;index&quot;:null}" stroke="none" stroke-width="0" stroke-linecap="butt"><path d="M203.42396,159.50803l0.21416,-1.10416l1.39473,0.27052c0,0 0.18808,0.38475 0.16139,0.5755c-0.02525,0.18049 -0.31744,0.53993 -0.31744,0.53993z" data-paper-data="{&quot;index&quot;:null}" fill="#108d00"></path><path d="M203.54273,158.98836l0.02254,-0.11623l0.95307,0.18486l-0.02254,0.11623z" fill="#14ab00"></path><path d="M204.39995,159.68527l0.20289,-1.04605l0.09768,0.01895l-0.20289,1.04605z" fill="#14ab00"></path><path d="M204.55166,159.19611l0.01804,-0.09298l0.65088,0.12624l-0.01804,0.09298z" fill="#14ab00"></path></g><path d="M203.47517,157.75904l-0.37215,-0.55822l1.98375,-0.94101l0.05643,0.16358z" fill="#108d00" stroke="none" stroke-width="0" stroke-linecap="butt"></path><g data-paper-data="{&quot;index&quot;:null}" stroke="none" stroke-width="0" stroke-linecap="butt"><path d="M204.19614,157.1994l0.22458,-0.56275l0.71085,0.28369c0,0 0.06077,0.22256 0.02743,0.32082c-0.03155,0.09297 -0.22239,0.25375 -0.22239,0.25375z" data-paper-data="{&quot;index&quot;:null}" fill="#108d00"></path><path d="M204.31136,156.93636l0.02364,-0.05924l0.48575,0.19385l-0.02364,0.05924z" fill="#14ab00"></path><path d="M204.69479,157.39153l0.21277,-0.53314l0.04979,0.01987l-0.21276,0.53314z" fill="#14ab00"></path><path d="M204.82436,157.14795l0.01891,-0.04739l0.33173,0.13239l-0.01891,0.04739z" fill="#14ab00"></path></g><g data-paper-data="{&quot;index&quot;:null}" stroke="none" stroke-width="0" stroke-linecap="butt"><path d="M203.14875,156.71655c0,0 0.04776,-0.17588 0.09963,-0.22539c0.05482,-0.05232 0.22093,-0.08057 0.22093,-0.08057l0.40666,0.38351l-0.30361,0.32194z" data-paper-data="{&quot;index&quot;:null}" fill="#108d00"></path><path d="M203.43323,156.69671l0.03196,-0.03389l0.27789,0.26207l-0.03196,0.03389z" fill="#14ab00"></path><path d="M203.26317,156.81804l0.28763,-0.305l0.02848,0.02686l-0.28763,0.305z" fill="#14ab00"></path><path d="M203.22332,156.50515l0.02557,-0.02711l0.18978,0.17897l-0.02557,0.02711z" fill="#14ab00"></path></g><path d="M200.33169,166.43521c0,0 -0.06721,0.05047 -0.08954,-0.0042c-0.0451,-0.11042 -0.16485,-0.61855 -0.16485,-0.61855l1.5308,-1.02223l0.35305,0.50436z" fill="#d5d5d5" stroke="none" stroke-width="0" stroke-linecap="butt"></path><path d="M201.23755,165.31037l0.35305,-0.50436l1.62946,1.14063l-0.35305,0.50436z" data-paper-data="{&quot;index&quot;:null}" fill="#d5d5d5" stroke="none" stroke-width="0" stroke-linecap="butt"></path><path d="M202.91661,166.45494l-0.35305,-0.50436l1.62946,-1.14063l0.35305,0.50436z" fill="#d5d5d5" stroke="none" stroke-width="0" stroke-linecap="butt"></path><path d="M203.86195,165.31037l0.35305,-0.50436l1.62947,1.14063l-0.35305,0.50436z" data-paper-data="{&quot;index&quot;:null}" fill="#d5d5d5" stroke="none" stroke-width="0" stroke-linecap="butt"></path><path d="M205.5568,166.43126l-0.35305,-0.50436l2.00438,-1.10116l-0.02186,0.46489z" data-paper-data="{&quot;index&quot;:null}" fill="#d5d5d5" stroke="none" stroke-width="0" stroke-linecap="butt"></path><path d="M200.56847,168.07299l-0.17546,-0.60302l1.49134,-1.0617l0.35305,0.50436z" fill="#d5d5d5" stroke="none" stroke-width="0" stroke-linecap="butt"></path><path d="M201.53354,166.92842l0.35305,-0.50436l1.62946,1.14063l-0.35305,0.50436z" data-paper-data="{&quot;index&quot;:null}" fill="#d5d5d5" stroke="none" stroke-width="0" stroke-linecap="butt"></path><path d="M203.2126,168.07299l-0.35305,-0.50436l1.62947,-1.14063l0.35305,0.50436z" fill="#d5d5d5" stroke="none" stroke-width="0" stroke-linecap="butt"></path><path d="M204.15794,166.92842l0.35305,-0.50436l1.62947,1.14063l-0.35305,0.50436z" data-paper-data="{&quot;index&quot;:null}" fill="#d5d5d5" stroke="none" stroke-width="0" stroke-linecap="butt"></path><path d="M205.82882,168.04931l-0.36855,-0.50436l1.40752,-0.87279c0.0022,0.12901 -0.08433,0.28662 -0.06326,0.41783c-0.00034,0.01137 -0.0623,0.04251 -0.0623,0.05396c0,0.09326 0.01126,0.18401 0.03254,0.27105z" data-paper-data="{&quot;index&quot;:null}" fill="#d5d5d5" stroke="none" stroke-width="0" stroke-linecap="butt"></path><path d="M201.02231,170.26327l-0.19519,-0.70168l1.55054,-1.0617l0.35305,0.50436z" fill="#d5d5d5" stroke="none" stroke-width="0" stroke-linecap="butt"></path><path d="M202.00711,169.02004l0.35305,-0.50436l1.62946,1.14063l-0.35305,0.50436z" data-paper-data="{&quot;index&quot;:null}" fill="#d5d5d5" stroke="none" stroke-width="0" stroke-linecap="butt"></path><path d="M203.68618,170.16461l-0.35305,-0.50436l1.62947,-1.14063l0.35305,0.50436z" fill="#d5d5d5" stroke="none" stroke-width="0" stroke-linecap="butt"></path><path d="M204.63151,169.02004l0.36524,-0.50436l1.40786,0.87761c-0.05401,0.08632 -0.05611,0.23904 -0.08604,0.33793c-0.03199,0.10566 -0.02873,0.15825 -0.02873,0.2739c0,0.00691 -0.14284,0.03354 -0.14271,0.04042z" data-paper-data="{&quot;index&quot;:null}" fill="#d5d5d5" stroke="none" stroke-width="0" stroke-linecap="butt"></path><path d="M206.21029,169.87363c0.02263,-0.13976 0.03026,-0.31078 0.09728,-0.4296l-0.07774,0.27147z" data-paper-data="{&quot;index&quot;:null}" fill="#ffffff" stroke="none" stroke-width="0" stroke-linecap="butt"></path><path d="M206.83208,164.29347l-0.06765,0.11839l0.08457,0.13531l-0.35518,0.18605" fill="none" stroke="#000000" stroke-width="0.5" stroke-linecap="round"></path><path d="M206.74751,164.75013l-0.10148,-0.10148" fill="none" stroke="#000000" stroke-width="0.5" stroke-linecap="round"></path></g><g><path d="M284.00793,197.66567c0,0.33565 -1.45768,0.60775 -3.25583,0.60775c-1.79814,0 -3.25583,-0.2721 -3.25583,-0.60775c0,-0.33565 1.45768,-0.60775 3.25583,-0.60775c1.79814,0 3.25583,0.2721 3.25583,0.60775z" fill="url(#color-14)" stroke="none" stroke-width="0" stroke-linecap="butt"></path><path d="M278.36448,204.29967l-1.24313,-6.21568l7.39962,-0.23679l-1.18394,6.45246z" fill="url(#color-15)" stroke="#000000" stroke-width="0" stroke-linecap="butt"></path><path d="M276.96349,198.24185v-0.59197h7.81399v0.59197z" fill="#cea234" stroke="none" stroke-width="0" stroke-linecap="butt"></path><path d="M279.97741,197.16444c0,0 0.33206,-3.10333 0.39946,-4.30577c0.04842,-0.86374 -0.03282,-2.23509 -0.03282,-2.23509l0.76835,0.04307c0,0 -0.26787,2.66329 -0.33355,3.83514c-0.05438,0.97008 -0.03308,2.70571 -0.03308,2.70571z" fill="#108d00" stroke="none" stroke-width="0" stroke-linecap="butt"></path><g stroke="none" stroke-width="0" stroke-linecap="butt"><path d="M280.26243,195.43842l0.47997,-1.01719l1.28487,0.60627c0,0 0.08734,0.41926 0.01441,0.59753c-0.069,0.16868 -0.44084,0.44492 -0.44084,0.44492z" data-paper-data="{&quot;index&quot;:null}" fill="#108d00"></path><path d="M280.50575,194.96413l0.05052,-0.10707l0.87799,0.41429l-0.05052,0.10707z" fill="#14ab00"></path><path d="M281.16452,195.85099l0.45471,-0.96365l0.08999,0.04246l-0.45471,0.96365z" fill="#14ab00"></path><path d="M281.43223,195.41439l0.04042,-0.08566l0.59961,0.28293l-0.04042,0.08566z" fill="#14ab00"></path></g><g data-paper-data="{&quot;index&quot;:null}" stroke="none" stroke-width="0" stroke-linecap="butt"><path d="M279.1505,194.53277c0,0 -0.31174,-0.34263 -0.34699,-0.52143c-0.03726,-0.18897 0.12912,-0.58359 0.12912,-0.58359l1.37752,-0.3477l0.27526,1.09054z" data-paper-data="{&quot;index&quot;:null}" fill="#108d00"></path><path d="M279.49661,193.89592l-0.02898,-0.11479l0.94131,-0.2376l0.02897,0.11479z" fill="#14ab00"></path><path d="M279.52432,194.4262l-0.26078,-1.03314l0.09648,-0.02435l0.26077,1.03314z" fill="#14ab00"></path><path d="M278.79926,194.08415l-0.02318,-0.09183l0.64284,-0.16226l0.02318,0.09183z" fill="#14ab00"></path></g><g data-paper-data="{&quot;index&quot;:null}" stroke="none" stroke-width="0" stroke-linecap="butt"><path d="M279.16169,192.42133c0,0 -0.2974,-0.35514 -0.32528,-0.53525c-0.02947,-0.19035 0.15298,-0.5778 0.15298,-0.5778l1.39064,-0.29083l0.23024,1.10092z" data-paper-data="{&quot;index&quot;:null}" fill="#108d00"></path><path d="M279.53365,191.79924l-0.02424,-0.11589l0.95027,-0.19873l0.02424,0.11589z" fill="#14ab00"></path><path d="M279.53957,192.33021l-0.21812,-1.04298l0.09739,-0.02037l0.21812,1.04298z" fill="#14ab00"></path><path d="M278.82917,191.95867l-0.01939,-0.09271l0.64896,-0.13572l0.01939,0.09271z" fill="#14ab00"></path></g><g data-paper-data="{&quot;index&quot;:null}" stroke="none" stroke-width="0" stroke-linecap="butt"><path d="M280.68438,192.96099l0.21416,-1.10416l1.39473,0.27052c0,0 0.18808,0.38475 0.16139,0.5755c-0.02525,0.18049 -0.31744,0.53993 -0.31744,0.53993z" data-paper-data="{&quot;index&quot;:null}" fill="#108d00"></path><path d="M280.80315,192.44133l0.02254,-0.11623l0.95307,0.18486l-0.02254,0.11623z" fill="#14ab00"></path><path d="M281.66037,193.13823l0.20289,-1.04605l0.09768,0.01895l-0.20289,1.04605z" fill="#14ab00"></path><path d="M281.81208,192.64908l0.01804,-0.09298l0.65088,0.12624l-0.01804,0.09298z" fill="#14ab00"></path></g><path d="M280.73559,191.21201l-0.37215,-0.55822l1.98375,-0.94101l0.05643,0.16358z" fill="#108d00" stroke="none" stroke-width="0" stroke-linecap="butt"></path><g data-paper-data="{&quot;index&quot;:null}" stroke="none" stroke-width="0" stroke-linecap="butt"><path d="M281.45656,190.65236l0.22458,-0.56275l0.71085,0.28369c0,0 0.06077,0.22256 0.02743,0.32082c-0.03155,0.09297 -0.22239,0.25375 -0.22239,0.25375z" data-paper-data="{&quot;index&quot;:null}" fill="#108d00"></path><path d="M281.57178,190.38932l0.02364,-0.05924l0.48575,0.19385l-0.02364,0.05924z" fill="#14ab00"></path><path d="M281.9552,190.84449l0.21277,-0.53314l0.04979,0.01987l-0.21276,0.53314z" fill="#14ab00"></path><path d="M282.08477,190.60092l0.01891,-0.04739l0.33173,0.13239l-0.01891,0.04739z" fill="#14ab00"></path></g><g data-paper-data="{&quot;index&quot;:null}" stroke="none" stroke-width="0" stroke-linecap="butt"><path d="M280.40918,190.16951c0,0 0.04776,-0.17588 0.09963,-0.22539c0.05482,-0.05232 0.22093,-0.08057 0.22093,-0.08057l0.40666,0.38351l-0.30361,0.32194z" data-paper-data="{&quot;index&quot;:null}" fill="#108d00"></path><path d="M280.69365,190.14967l0.03196,-0.03389l0.27789,0.26207l-0.03196,0.03389z" fill="#14ab00"></path><path d="M280.52358,190.27101l0.28763,-0.305l0.02848,0.02686l-0.28763,0.305z" fill="#14ab00"></path><path d="M280.48374,189.95811l0.02557,-0.02711l0.18978,0.17897l-0.02557,0.02711z" fill="#14ab00"></path></g><path d="M277.5921,199.88817c0,0 -0.06721,0.05047 -0.08954,-0.0042c-0.0451,-0.11042 -0.16485,-0.61855 -0.16485,-0.61855l1.5308,-1.02223l0.35305,0.50436z" fill="#d5d5d5" stroke="none" stroke-width="0" stroke-linecap="butt"></path><path d="M278.49797,198.76333l0.35305,-0.50436l1.62946,1.14063l-0.35305,0.50436z" data-paper-data="{&quot;index&quot;:null}" fill="#d5d5d5" stroke="none" stroke-width="0" stroke-linecap="butt"></path><path d="M280.17703,199.9079l-0.35305,-0.50436l1.62946,-1.14063l0.35305,0.50436z" fill="#d5d5d5" stroke="none" stroke-width="0" stroke-linecap="butt"></path><path d="M281.12236,198.76333l0.35305,-0.50436l1.62947,1.14063l-0.35305,0.50436z" data-paper-data="{&quot;index&quot;:null}" fill="#d5d5d5" stroke="none" stroke-width="0" stroke-linecap="butt"></path><path d="M282.81721,199.88422l-0.35305,-0.50436l2.00438,-1.10116l-0.02186,0.46489z" data-paper-data="{&quot;index&quot;:null}" fill="#d5d5d5" stroke="none" stroke-width="0" stroke-linecap="butt"></path><path d="M277.82889,201.52595l-0.17546,-0.60302l1.49134,-1.0617l0.35305,0.50436z" fill="#d5d5d5" stroke="none" stroke-width="0" stroke-linecap="butt"></path><path d="M278.79396,200.38138l0.35305,-0.50436l1.62946,1.14063l-0.35305,0.50436z" data-paper-data="{&quot;index&quot;:null}" fill="#d5d5d5" stroke="none" stroke-width="0" stroke-linecap="butt"></path><path d="M280.47302,201.52595l-0.35305,-0.50436l1.62947,-1.14063l0.35305,0.50436z" fill="#d5d5d5" stroke="none" stroke-width="0" stroke-linecap="butt"></path><path d="M281.41835,200.38138l0.35305,-0.50436l1.62947,1.14063l-0.35305,0.50436z" data-paper-data="{&quot;index&quot;:null}" fill="#d5d5d5" stroke="none" stroke-width="0" stroke-linecap="butt"></path><path d="M283.08924,201.50227l-0.36855,-0.50436l1.40752,-0.87279c0.0022,0.12901 -0.08433,0.28662 -0.06326,0.41783c-0.00034,0.01137 -0.0623,0.04251 -0.0623,0.05396c0,0.09326 0.01126,0.18401 0.03254,0.27105z" data-paper-data="{&quot;index&quot;:null}" fill="#d5d5d5" stroke="none" stroke-width="0" stroke-linecap="butt"></path><path d="M278.28273,203.71624l-0.19519,-0.70168l1.55054,-1.0617l0.35305,0.50436z" fill="#d5d5d5" stroke="none" stroke-width="0" stroke-linecap="butt"></path><path d="M279.26753,202.473l0.35305,-0.50436l1.62946,1.14063l-0.35305,0.50436z" data-paper-data="{&quot;index&quot;:null}" fill="#d5d5d5" stroke="none" stroke-width="0" stroke-linecap="butt"></path><path d="M280.94659,203.61758l-0.35305,-0.50436l1.62947,-1.14063l0.35305,0.50436z" fill="#d5d5d5" stroke="none" stroke-width="0" stroke-linecap="butt"></path><path d="M281.89193,202.473l0.36524,-0.50436l1.40786,0.87761c-0.05401,0.08632 -0.05611,0.23904 -0.08604,0.33793c-0.03199,0.10566 -0.02873,0.15825 -0.02873,0.2739c0,0.00691 -0.14284,0.03354 -0.14271,0.04042z" data-paper-data="{&quot;index&quot;:null}" fill="#d5d5d5" stroke="none" stroke-width="0" stroke-linecap="butt"></path><path d="M283.4707,203.32659c0.02263,-0.13976 0.03026,-0.31078 0.09728,-0.4296l-0.07774,0.27147z" data-paper-data="{&quot;index&quot;:null}" fill="#ffffff" stroke="none" stroke-width="0" stroke-linecap="butt"></path><path d="M284.09249,197.74643l-0.06765,0.11839l0.08457,0.13531l-0.35518,0.18605" fill="none" stroke="#000000" stroke-width="0.5" stroke-linecap="round"></path><path d="M284.00792,198.2031l-0.10148,-0.10148" fill="none" stroke="#000000" stroke-width="0.5" stroke-linecap="round"></path></g></g></g></svg>