<svg version="1.1" xmlns="http://www.w3.org/2000/svg" xmlns:xlink="http://www.w3.org/1999/xlink" width="59.68328" height="77.78398" viewBox="0,0,59.68328,77.78398"><defs><linearGradient x1="251.77329" y1="177.94255" x2="261.26773" y2="177.94255" gradientUnits="userSpaceOnUse" id="color-1"><stop offset="0" stop-color="#8d3800"></stop><stop offset="1" stop-color="#d27a00"></stop></linearGradient><linearGradient x1="216.78535" y1="177.88051" x2="228.45834" y2="177.88051" gradientUnits="userSpaceOnUse" id="color-2"><stop offset="0" stop-color="#d27a00"></stop><stop offset="1" stop-color="#8d3800"></stop></linearGradient></defs><g transform="translate(-210.15836,-140.98301)"><g data-paper-data="{&quot;isPaintingLayer&quot;:true}" fill-rule="nonzero" stroke-width="0.5" stroke-linejoin="miter" stroke-miterlimit="10" stroke-dasharray="" stroke-dashoffset="0" style="mix-blend-mode: normal"><path d="M240.17896,152.14959l-0.72777,53.85514" fill="none" stroke="#652800" stroke-linecap="round"></path><path d="M214.56138,149.82072v-4.36663c0,0 15.18547,-4.22108 23.14315,-4.22108c8.5875,0 26.63646,4.22108 26.63646,4.22108v4.36663z" fill="#652800" stroke="#311300" stroke-linecap="butt"></path><path d="M210.15836,218.76699l4.8021,-13.17148h49.80467l5.07651,13.17148z" fill-opacity="0.45161" fill="#000000" stroke="none" stroke-linecap="butt"></path><g stroke-linecap="butt"><path d="M214.41165,206.27929v-56.80202h49.80467v56.80202z" fill="#000000" stroke="none"></path><path d="M216.00857,206.15863v-55.60179c0,0 13.46792,0 20.81428,0c8.26502,0 26.34535,0 26.34535,0v55.60179z" fill="none" stroke="#652800"></path></g><g><path d="M244.19715,164.13728c0,3.05149 -2.49706,5.52521 -5.57733,5.52521c-3.08027,0 -5.57733,-2.47372 -5.57733,-5.52521c0,-3.05149 2.49706,-5.52521 5.57733,-5.52521c3.08027,0 5.57733,2.47372 5.57733,5.52521z" fill="#f1ad60" stroke="none" stroke-linecap="butt"></path><path d="M233.67946,191.45057v-22.30933h10.63342v22.30933z" fill="#ff6666" stroke="none" stroke-linecap="butt"></path><path d="M236.19602,161.97411c0,-0.2303 0.1867,-0.417 0.417,-0.417c0.2303,0 0.417,0.1867 0.417,0.417c0,0.2303 -0.1867,0.417 -0.417,0.417c-0.2303,0 -0.417,-0.1867 -0.417,-0.417z" fill="#000000" stroke="none" stroke-linecap="butt"></path><path d="M240.0793,161.8438c0,-0.2303 0.1867,-0.417 0.417,-0.417c0.2303,0 0.417,0.1867 0.417,0.417c0,0.2303 -0.1867,0.417 -0.417,0.417c-0.2303,0 -0.417,-0.1867 -0.417,-0.417z" fill="#000000" stroke="none" stroke-linecap="butt"></path><path d="M240.63065,165.8493c0.37297,0.18649 0.18649,0.55946 0.18649,0.55946l-0.06022,0.02201c-0.12667,2.30091 -3.86195,0.94979 -4.71206,-0.1668c0,0 -0.2502,-0.3336 0.0834,-0.5838c0.3336,-0.2502 0.5838,0.0834 0.5838,0.0834c0.38622,0.5248 3.34168,1.72801 3.21088,0.6672l0.14828,-0.39499c0,0 0.18649,-0.37297 0.55946,-0.18649z" fill="#000000" stroke="none" stroke-linecap="butt"></path><path d="M238.25494,172.06022l-1.45949,-2.81473h3.54447l-1.66799,3.02323z" fill="#ffffff" stroke="none" stroke-linecap="butt"></path><path d="M235.12746,202.29249v-11.15467h3.23172v11.15467z" fill="#66a6ff" stroke="none" stroke-linecap="butt"></path><path d="M240.33992,202.60524v-11.15467h3.23172v11.15467z" fill="#66a6ff" stroke="none" stroke-linecap="butt"></path><path d="M232.72973,204.48172v-2.91898c0,0 0.91853,0.42801 1.84649,-0.16482c0.86479,-0.55249 1.72406,-2.12866 2.21923,-2.12866c0.57802,0 1.56374,2.29348 1.56374,2.29348v2.91898z" fill="#a06140" stroke="none" stroke-linecap="butt"></path><path d="M239.92293,204.37748v-2.91898c0,0 0.98572,-2.29348 1.56374,-2.29348c0.49518,0 1.35444,1.57617 2.21924,2.12866c0.92795,0.59283 1.84648,0.16482 1.84648,0.16482v2.91898z" data-paper-data="{&quot;index&quot;:null}" fill="#a06140" stroke="none" stroke-linecap="butt"></path><path d="M230.23565,187.01404c0,0 0.32566,-5.97488 0.89979,-8.82965c0.5666,-2.81737 2.52265,-8.18827 2.52265,-8.18827l0.41898,5.24964l-2.27569,13.89044z" fill="#f1ad60" stroke="none" stroke-linecap="butt"></path><path d="M246.27224,190.59569l-2.27568,-13.89044l0.41899,-5.24965c0,0 1.95605,5.37089 2.52264,8.18827c0.57412,2.85477 0.89979,8.82965 0.89979,8.82965z" data-paper-data="{&quot;index&quot;:null}" fill="#f1ad60" stroke="none" stroke-linecap="butt"></path><path d="M234.91897,173.78033c0,1.58332 -0.42007,2.86685 -0.93824,2.86685c-0.51818,0 -0.93824,-1.28353 -0.93824,-2.86685c0,-1.58332 0.42007,-2.86685 0.93824,-2.86685c0.51818,0 0.93824,1.28353 0.93824,2.86685z" fill="#da5757" stroke="none" stroke-linecap="butt"></path><path d="M245.13539,174.71858c0,1.58332 -0.42007,2.86685 -0.93824,2.86685c-0.51818,0 -0.93824,-1.28353 -0.93824,-2.86685c0,-1.58332 0.42007,-2.86685 0.93824,-2.86685c0.51818,0 0.93824,1.28353 0.93824,2.86685z" fill="#da5757" stroke="none" stroke-linecap="butt"></path><path d="M238.96463,191.13993l-0.46384,-18.73934" fill="none" stroke="#000000" stroke-linecap="round"></path><path d="M234.01261,160.14992c0,0 -0.07589,0.96719 -0.07589,0.75887c0,-0.22096 -0.68297,-1.97305 -0.68297,-1.97305c0,0 3.08352,-0.98653 4.70497,-0.98653c1.73514,0 5.38795,0.98653 5.38795,0.98653l0.07588,2.04894c0,0 -2.50049,-0.46703 -5.07046,-0.3571c-1.65994,0.07101 -3.57002,0.73653 -4.11181,0.73653c-0.21537,0 0.04084,-0.64424 -0.16407,-0.95286c-0.16964,-0.25549 -0.06359,-0.26132 -0.06359,-0.26132z" fill="#000000" stroke="none" stroke-linecap="butt"></path><path d="M238.96923,159.74274c0.05303,0.22433 -0.74714,0.60547 -1.78721,0.85131c-1.04007,0.24584 -1.9262,0.26327 -1.97923,0.03894c-0.05303,-0.22433 0.74714,-0.60547 1.78721,-0.85131c1.04007,-0.24584 1.9262,-0.26327 1.97923,-0.03894z" fill="#484343" stroke="none" stroke-linecap="butt"></path><path d="M235.53034,192.9223l0.15177,1.06242" fill="none" stroke="#0035ea" stroke-linecap="round"></path><path d="M236.82041,197.47549l0.15177,-1.51774" fill="none" stroke="#0035ea" stroke-linecap="round"></path><path d="M235.90977,198.84145l-0.15177,-1.74539" fill="none" stroke="#0035ea" stroke-linecap="round"></path><path d="M241.90481,198.31024l-0.07588,-1.06241v-2.04894" fill="none" stroke="#0035ea" stroke-linecap="round"></path><path d="M242.28424,194.28825l0.22766,-2.27659" fill="none" stroke="#0035ea" stroke-linecap="round"></path><path d="M241.22183,192.69463v1.6695" fill="none" stroke="#0035ea" stroke-linecap="round"></path><path d="M242.81545,197.24783l0.15177,1.21419" fill="none" stroke="#0035ea" stroke-linecap="round"></path><path d="M236.97218,191.93576l0.07588,1.44185" fill="none" stroke="#0035ea" stroke-linecap="round"></path><path d="M236.21331,200.66272l0.75887,-0.22766" fill="none" stroke="#000000" stroke-linecap="round"></path><path d="M236.82041,201.64925l0.68298,-0.30355" fill="none" stroke="#000000" stroke-linecap="round"></path><path d="M241.29771,201.11805l0.6071,0.91064" fill="none" stroke="#000000" stroke-linecap="round"></path><path d="M242.73957,201.80102l-0.83475,-0.83475" fill="none" stroke="#000000" stroke-linecap="round"></path><path d="M231.0716,177.88158l1.93556,-5.52357l1.59396,2.29079l-1.63202,4.00584z" fill="#da5757" stroke="none" stroke-linecap="butt"></path><path d="M245.06933,180.32035l-1.63202,-4.00584l1.59396,-2.29079l1.93556,5.52357z" data-paper-data="{&quot;index&quot;:null}" fill="#da5757" stroke="none" stroke-linecap="butt"></path><path d="M230.56882,189.33522l0.70438,-2.07881l0.74998,0.1952l-0.52555,2.0192c0,0 -0.44945,0.42 -0.61641,0.39563c-0.13647,-0.01992 -0.31242,-0.53122 -0.31242,-0.53122z" fill="#f1ad60" stroke="none" stroke-linecap="butt"></path><path d="M229.73125,188.55726l0.70438,-2.07882l0.74999,0.1952l-0.52555,2.01921c0,0 -0.44945,0.42 -0.61641,0.39562c-0.13647,-0.01992 -0.31242,-0.53121 -0.31242,-0.53121z" fill="#f1ad60" stroke="none" stroke-linecap="butt"></path><path d="M228.8096,187.46177l1.83946,-1.19752l0.46849,0.61734l-1.66207,1.26131c0,0 -0.61295,0.05193 -0.72904,-0.0705c-0.0949,-0.10008 0.08317,-0.61064 0.08317,-0.61064z" fill="#f1ad60" stroke="none" stroke-linecap="butt"></path><path d="M232.33934,189.69903l-0.95098,-1.97821l0.67247,-0.38519l1.03705,1.81049c0,0 -0.02734,0.61455 -0.16369,0.71392c-0.11145,0.08124 -0.59487,-0.16102 -0.59487,-0.16102z" fill="#f1ad60" stroke="none" stroke-linecap="butt"></path><path d="M233.20053,188.6543l-1.93429,-1.03739l0.31615,-0.70756l1.90496,0.85117c0,0 0.34018,0.51254 0.28861,0.67319c-0.04214,0.13132 -0.57544,0.22059 -0.57544,0.22059z" fill="#f1ad60" stroke="none" stroke-linecap="butt"></path><path d="M247.37323,192.00955c-0.16695,0.02437 -0.6164,-0.39563 -0.6164,-0.39563l-0.52554,-2.0192l0.74998,-0.1952l0.70438,2.07881c0,0 -0.17596,0.5113 -0.31242,0.53122z" data-paper-data="{&quot;index&quot;:null}" fill="#f1ad60" stroke="none" stroke-linecap="butt"></path><path d="M247.91273,191.17198c-0.16696,0.02437 -0.6164,-0.39563 -0.6164,-0.39563l-0.52555,-2.0192l0.74998,-0.1952l0.70438,2.07881c0,0 -0.17595,0.5113 -0.31242,0.53122z" data-paper-data="{&quot;index&quot;:null}" fill="#f1ad60" stroke="none" stroke-linecap="butt"></path><path d="M249.52803,190.21552c-0.11609,0.12244 -0.72904,0.0705 -0.72904,0.0705l-1.66207,-1.26131l0.46849,-0.61734l1.83946,1.19752c0,0 0.17806,0.51056 0.08317,0.61064z" data-paper-data="{&quot;index&quot;:null}" fill="#f1ad60" stroke="none" stroke-linecap="butt"></path><path d="M245.32026,192.00316c-0.13635,-0.09938 -0.16369,-0.71392 -0.16369,-0.71392l1.03705,-1.81049l0.67247,0.3852l-0.95097,1.9782c0,0 -0.48342,0.24226 -0.59486,0.16102z" data-paper-data="{&quot;index&quot;:null}" fill="#f1ad60" stroke="none" stroke-linecap="butt"></path><path d="M244.47848,190.57681c-0.05156,-0.16065 0.28861,-0.67318 0.28861,-0.67318l1.90497,-0.85117l0.31615,0.70756l-1.93428,1.03739c0,0 -0.5333,-0.08927 -0.57544,-0.22059z" data-paper-data="{&quot;index&quot;:null}" fill="#f1ad60" stroke="none" stroke-linecap="butt"></path></g><g stroke-linecap="butt"><path d="M251.77329,205.24594v-54.60677h9.49444v54.60677z" fill="url(#color-1)" stroke="none"></path><path d="M254.0836,199.37484v-9.8977h4.90415v9.8977z" fill="none" stroke="#7b3100"></path><path d="M254.20935,181.90831v-9.8977h4.90415v9.8977z" fill="none" stroke="#7b3100"></path><path d="M254.2815,164.02659v-9.8977h4.90415v9.8977z" fill="none" stroke="#7b3100"></path><g><path d="M253.80964,179.99904c-0.48297,-0.26981 -0.77056,-1.48555 -0.64236,-2.71544c0.1282,-1.22989 0.62365,-2.00819 1.10662,-1.73838c0.48297,0.26981 0.77056,1.48555 0.64236,2.71544c-0.1282,1.22989 -0.62365,2.00819 -1.10661,1.73838z" fill="#fff4ce" stroke="#e6ddbb"></path><path d="M254.12181,178.77294c-0.30004,-0.16762 -0.47871,-0.92291 -0.39907,-1.68698c0.07964,-0.76407 0.38744,-1.24759 0.68749,-1.07998c0.30004,0.16762 0.47871,0.92291 0.39907,1.68698c-0.07964,0.76407 -0.38744,1.24759 -0.68749,1.07998z" fill="#e6ddbb" stroke="#e6ddbb"></path><path d="M252.37146,178.04062l0.70774,-0.62282l0.26903,1.63843l-0.70774,0.62282z" fill="#e6ddbb" stroke="none"></path><path d="M252.95563,180.01534c-0.25,0.805 -0.44417,-0.10155 -0.53201,-0.52151c-0.13707,-0.65532 -0.1116,-1.3072 0.00031,-1.91018l-0.02495,-0.01394l0.03552,-0.34078v0c0.01693,-0.16248 0.08756,-0.26241 0.15774,-0.2232c0.05073,0.02834 0.08735,0.12162 0.09735,0.23252l0.03744,0.37551l-0.00523,0.0028l0.00768,0.02979c0.00019,0.03302 0.00036,0.06605 0.00055,0.09907c0.01814,0.03485 0.03186,0.08044 0.03974,0.1315c0.0228,0.05622 0.03598,0.13172 0.03551,0.21123l0.0012,0.33929c0.01509,0.21639 0.18988,1.45667 0.14913,1.58791z" fill="#fff4ce" stroke="none"></path></g></g><g stroke-linecap="butt"><path d="M216.78535,205.1839v-54.60677h11.67299v54.60677z" fill="url(#color-2)" stroke="none"></path><path d="M219.12367,164.11846v-9.8977h5.78121v9.8977z" fill="none" stroke="#7b3100"></path><path d="M219.08114,181.93814v-9.8977h5.78121v9.8977z" fill="none" stroke="#7b3100"></path><path d="M218.9645,198.88449v-9.8977h5.78121v9.8977z" fill="none" stroke="#7b3100"></path><g data-paper-data="{&quot;index&quot;:null}"><path d="M225.23345,178.12345c-0.15113,-1.22989 0.1879,-2.44563 0.75724,-2.71544c0.56934,-0.26981 1.1534,0.50849 1.30453,1.73838c0.15113,1.22989 -0.1879,2.44563 -0.75724,2.71544c-0.56934,0.26981 -1.1534,-0.50849 -1.30453,-1.73838z" fill="#fff4ce" stroke="#e6ddbb"></path><path d="M225.35954,177.55576c-0.09389,-0.76407 0.11673,-1.51936 0.47044,-1.68698c0.35371,-0.16762 0.71656,0.3159 0.81044,1.07998c0.09389,0.76407 -0.11673,1.51936 -0.47044,1.68698c-0.35371,0.16762 -0.71655,-0.3159 -0.81044,-1.07998z" fill="#e6ddbb" stroke="#e6ddbb"></path><path d="M227.91621,179.54185l-0.83431,-0.62282l0.31715,-1.63843l0.83431,0.62282z" fill="#e6ddbb" stroke="none"></path><path d="M227.54471,179.87814c-0.04805,-0.13124 0.15802,-1.37152 0.1758,-1.58791l0.00142,-0.33929c-0.00055,-0.07951 0.01499,-0.15501 0.04187,-0.21123c0.00929,-0.05105 0.02546,-0.09665 0.04685,-0.1315c0.00021,-0.03302 0.00043,-0.06605 0.00064,-0.09907l0.00904,-0.02979l-0.00617,-0.0028l0.04414,-0.37551c0.01179,-0.11089 0.05496,-0.20417 0.11476,-0.23252c0.08274,-0.03921 0.166,0.06072 0.18596,0.2232v0l0.04188,0.34078l-0.02941,0.01394c0.13193,0.60298 0.16195,1.25486 0.00037,1.91018c-0.10355,0.41995 -0.33244,1.32651 -0.62715,0.52151z" fill="#fff4ce" stroke="none"></path></g></g></g></g></svg>