<svg version="1.1" xmlns="http://www.w3.org/2000/svg" xmlns:xlink="http://www.w3.org/1999/xlink" width="98.33334" height="97.33334" viewBox="0,0,98.33334,97.33334"><defs><radialGradient cx="240" cy="180" r="49.16667" gradientUnits="userSpaceOnUse" id="color-1"><stop offset="0" stop-color="#00ffff"></stop><stop offset="1" stop-color="#00ffff" stop-opacity="0"></stop></radialGradient></defs><g transform="translate(-190.83333,-131.33333)"><g data-paper-data="{&quot;isPaintingLayer&quot;:true}" fill-rule="nonzero" stroke-width="0" stroke-linejoin="miter" stroke-miterlimit="10" stroke-dasharray="" stroke-dashoffset="0" style="mix-blend-mode: normal"><path d="M289.16667,180c0,26.87786 -22.01267,48.66667 -49.16667,48.66667c-27.154,0 -49.16667,-21.78881 -49.16667,-48.66667c0,-26.87786 22.01267,-48.66667 49.16667,-48.66667c27.154,0 49.16667,21.78881 49.16667,48.66667z" fill="url(#color-1)" stroke="none" stroke-linecap="butt"></path><g><g><path d="M234.10833,211.73445c0,0 -3.40209,-1.10766 -3.34476,-3.6718c0.01283,-0.57448 3.02701,-0.68232 3.05992,-1.35846c0.59116,-12.14885 1.239,-40.34698 1.0947,-51.84231c-0.02812,-2.24007 -1.95792,-3.73763 -1.94785,-4.55476c0.01391,-1.12945 1.92534,-2.46613 1.92534,-2.46613c0,0 1.84452,0.69878 3.00641,-0.15156c0.42826,-0.31343 0.56448,-0.92891 0.95398,-1.42696c0.59857,-0.76542 1.40909,-1.40224 1.78475,-1.399c0.6461,0.00559 1.27138,0.77882 1.88183,1.70869c0.49633,0.75602 0.95635,1.64817 1.62368,2.05239c0.36437,0.2207 0.51335,-0.26531 0.85918,-0.31918c0.87781,-0.13677 1.81152,-0.36117 1.81152,-0.36117c0,0 2.59689,1.38019 2.57878,2.85046c-0.00363,0.29426 -2.0844,1.57713 -2.09867,2.02778c-0.24652,7.77523 -1.20407,38.82175 -1.07611,53.17778c0.00946,1.06013 3.32916,2.04585 3.31226,2.90766c-0.05863,2.98946 -3.50358,2.9298 -3.50358,2.9298c0,0 -0.63033,-0.12876 -1.49765,-0.21398c-0.50085,-0.04921 -1.16025,-0.27229 -1.61787,0.03805c-1.15975,0.78652 -1.67081,3.44954 -2.62654,3.44127c-0.42674,-0.0037 -0.8543,0.07921 -1.32693,-0.6312c-0.35201,-0.52911 -0.73059,-1.8151 -1.14416,-2.21073c-0.11373,-0.1088 -0.25056,-0.36746 -0.36982,-0.43944c-0.6507,-0.39273 -1.44746,0.18973 -2.02423,0.22714c-0.82113,0.05328 -1.31415,-0.3143 -1.31415,-0.3143z" fill="#a9ffff" stroke="#000000" stroke-linecap="butt"></path><path d="M232.14258,211.76668c0,0 -3.40209,-1.10766 -3.34476,-3.6718c0.01283,-0.57448 3.02701,-0.68232 3.05992,-1.35846c0.59116,-12.14885 1.239,-40.34698 1.0947,-51.84231c-0.02812,-2.24007 -1.95792,-3.73763 -1.94785,-4.55476c0.01391,-1.12945 1.92534,-2.46613 1.92534,-2.46613c0,0 1.84452,0.69878 3.00641,-0.15156c0.42826,-0.31343 0.56448,-0.92891 0.95398,-1.42696c0.59857,-0.76542 1.40909,-1.40224 1.78475,-1.399c0.6461,0.00559 1.27138,0.77882 1.88183,1.70869c0.49633,0.75602 0.95635,1.64817 1.62368,2.05239c0.36437,0.2207 0.51335,-0.26531 0.85918,-0.31918c0.87781,-0.13677 1.81152,-0.36117 1.81152,-0.36117c0,0 2.59689,1.38019 2.57878,2.85046c-0.00363,0.29426 -2.0844,1.57713 -2.09867,2.02778c-0.24652,7.77523 -1.20407,38.82175 -1.07611,53.17778c0.00946,1.06013 3.32916,2.04587 3.31226,2.90766c-0.05863,2.98946 -3.50358,2.9298 -3.50358,2.9298c0,0 -0.63033,-0.12876 -1.49765,-0.21398c-0.50085,-0.04921 -1.16025,-0.27229 -1.61787,0.03805c-1.15975,0.78652 -1.67081,3.44954 -2.62654,3.44127c-0.42674,-0.0037 -0.8543,0.07921 -1.32693,-0.6312c-0.35201,-0.52911 -0.73059,-1.8151 -1.14416,-2.21073c-0.11373,-0.1088 -0.25056,-0.36746 -0.36982,-0.43944c-0.6507,-0.39273 -1.44746,0.18973 -2.02423,0.22714c-0.82113,0.05328 -1.31415,-0.3143 -1.31415,-0.3143z" fill="#bcf4f4" stroke="#000000" stroke-linecap="butt"></path><path d="M238.1741,151.95531l-3.38155,-0.03945" fill="#a9ffff" stroke="#a75900" stroke-linecap="round"></path><path d="M240.5214,149.54515l-2.20208,-0.05878" fill="#a9ffff" stroke="#a75900" stroke-linecap="round"></path><path d="M232.02893,149.58944l1.73172,0.35109" fill="#a9ffff" stroke="#a75900" stroke-linecap="round"></path><path d="M241.57647,156.26346l2.39751,-0.18159" fill="#a9ffff" stroke="#a75900" stroke-linecap="round"></path><path d="M235.08215,162.91574l-1.49536,-0.26009" fill="#a9ffff" stroke="#a75900" stroke-linecap="round"></path><path d="M241.33855,163.90419l-2.43846,-0.14978" fill="#a9ffff" stroke="#a75900" stroke-linecap="round"></path><path d="M239.51024,175.98235l-3.26569,-0.46826" fill="#a9ffff" stroke="#a75900" stroke-linecap="round"></path><path d="M240.60854,183.50633l0.90447,0.03261" fill="#a9ffff" stroke="#a75900" stroke-linecap="round"></path><path d="M236.29863,170.48524l-1.45442,0.07126" fill="#a9ffff" stroke="#a75900" stroke-linecap="round"></path><path d="M241.68454,170.34954l1.49536,0.26009" fill="#a9ffff" stroke="#a75900" stroke-linecap="round"></path><path d="M234.82256,182.22557l2.2407,-0.08416" fill="#a9ffff" stroke="#a75900" stroke-linecap="round"></path><path d="M234.20071,191.76995l4.84059,0.91679" fill="#a9ffff" stroke="#a75900" stroke-linecap="round"></path><path d="M240.04544,188.97045l1.84758,-0.07771" fill="#a9ffff" stroke="#a75900" stroke-linecap="round"></path><path d="M234.50042,188.72927l1.53629,0.59147" fill="#a9ffff" stroke="#a75900" stroke-linecap="round"></path><path d="M235.30598,200.71683l1.49536,0.26009" fill="#a9ffff" stroke="#a75900" stroke-linecap="round"></path><path d="M244.03713,201.23782l-1.88851,-0.25364" fill="#a9ffff" stroke="#a75900" stroke-linecap="round"></path><path d="M237.09946,205.66797l-1.57491,-0.44852" fill="#a9ffff" stroke="#a75900" stroke-linecap="round"></path><path d="M240.99927,207.16938l-1.10221,-0.26654" fill="#a9ffff" stroke="#a75900" stroke-linecap="round"></path><path d="M241.10355,204.3691l-0.86585,-0.17555" fill="#a9ffff" stroke="#a75900" stroke-linecap="round"></path><path d="M231.60925,208.60399l1.81126,0.53952" fill="#a9ffff" stroke="#a75900" stroke-linecap="round"></path><path d="M238.31131,212.28886l-0.70905,-0.27298" fill="#a9ffff" stroke="#a75900" stroke-linecap="round"></path><path d="M247.22811,154.17862l-1.10221,-0.26654" fill="#a9ffff" stroke="#703c00" stroke-linecap="round"></path><path d="M242.71195,147.23243l-0.78862,-0.46141" fill="#a9ffff" stroke="#703c00" stroke-linecap="round"></path><path d="M241.36909,213.12419l-0.81359,-0.20803" fill="#a9ffff" stroke="#703c00" stroke-linecap="round"></path><path d="M248.30006,210.00646l0.89083,-0.07785" fill="#a9ffff" stroke="#703c00" stroke-linecap="round"></path><path d="M246.13016,205.80459l-0.7348,-0.17769" fill="#a9ffff" stroke="#703c00" stroke-linecap="round"></path><path d="M245.82484,196.95529l-0.57723,-0.11704" fill="#a9ffff" stroke="#703c00" stroke-linecap="round"></path><path d="M245.64779,182.15884l-0.49846,-0.08671" fill="#a9ffff" stroke="#703c00" stroke-linecap="round"></path><path d="M245.20294,171.57259l1.3105,-0.02148" fill="#a9ffff" stroke="#703c00" stroke-linecap="round"></path><path d="M246.0031,174.40548l-0.68176,-0.05207" fill="#a9ffff" stroke="#703c00" stroke-linecap="round"></path><path d="M245.73387,162.20361l0.76054,0.0824" fill="#a9ffff" stroke="#703c00" stroke-linecap="round"></path><path d="M247.76892,149.52124l0.96963,-0.04751" fill="#a9ffff" stroke="#703c00" stroke-linecap="round"></path><path d="M249.05984,150.85987l-0.68176,-0.05207" fill="#a9ffff" stroke="#703c00" stroke-linecap="round"></path><path d="M240.80245,145.36636l0.91966,0.45926" fill="#a9ffff" stroke="#703c00" stroke-linecap="round"></path></g><g><g stroke="#000000" stroke-linecap="butt"><path d="M259.50931,171.2664c0,0 -0.65632,3.04738 -2.18892,3.03561c-0.34337,-0.00265 -0.41285,-2.68585 -0.81701,-2.7048c-7.26191,-0.34041 -24.11598,-0.48533 -30.98609,-0.18063c-1.33875,0.05937 -2.23058,1.80127 -2.71897,1.80483c-0.67505,0.00492 -1.47713,-1.67719 -1.47713,-1.67719c0,0 0.41456,-1.6537 -0.0956,-2.67563c-0.18804,-0.37668 -0.55612,-0.48859 -0.85444,-0.82789c-0.45847,-0.52145 -0.84042,-1.23365 -0.83911,-1.56833c0.00226,-0.5756 0.46336,-1.1444 1.01807,-1.70242c0.45102,-0.45369 0.98345,-0.87712 1.22391,-1.47774c0.13131,-0.32794 -0.15941,-0.4532 -0.19221,-0.76044c-0.08322,-0.77982 -0.21888,-1.60807 -0.21888,-1.60807c0,0 0.82055,-2.33433 1.69931,-2.3407c0.17588,-0.00127 0.94608,1.83249 1.21544,1.83832c4.64739,0.10044 23.20435,0.47758 31.78421,0.14361c0.63358,-0.02466 1.21717,-2.99677 1.73227,-2.99494c1.78681,0.00641 1.75691,3.0759 1.75691,3.0759c0,0 -0.07591,0.56344 -0.12539,1.33731c-0.02858,0.44687 -0.1608,1.03767 0.02545,1.44054c0.47201,1.02098 2.06445,1.43541 2.0611,2.28683c-0.00151,0.38017 0.04877,0.75975 -0.37503,1.19162c-0.31565,0.32167 -1.08359,0.67859 -1.31936,1.05304c-0.06482,0.10297 -0.2192,0.22882 -0.26202,0.33614c-0.23364,0.58562 0.11582,1.2864 0.13914,1.7996c0.03323,0.73061 -0.18564,1.17539 -0.18564,1.17539z" fill="#a9ffff"></path><path d="M258.4639,169.56917c0,0 -0.65632,3.04738 -2.18892,3.03561c-0.34337,-0.00265 -0.41285,-2.68585 -0.81701,-2.7048c-7.26191,-0.34041 -24.11598,-0.48533 -30.98609,-0.18063c-1.33875,0.05937 -2.23058,1.80127 -2.71897,1.80483c-0.67505,0.00492 -1.47713,-1.67719 -1.47713,-1.67719c0,0 0.41456,-1.6537 -0.0956,-2.67563c-0.18804,-0.37668 -0.55612,-0.48859 -0.85444,-0.82789c-0.45847,-0.52145 -0.84042,-1.23366 -0.83911,-1.56833c0.00226,-0.5756 0.46336,-1.1444 1.01807,-1.70242c0.45102,-0.45369 0.98345,-0.87712 1.22391,-1.47774c0.13131,-0.32794 -0.15941,-0.4532 -0.19221,-0.76044c-0.08322,-0.77982 -0.21888,-1.60807 -0.21888,-1.60807c0,0 0.82055,-2.33433 1.69931,-2.3407c0.17588,-0.00127 0.94608,1.83249 1.21544,1.83832c4.64739,0.10044 23.20435,0.47758 31.78421,0.14361c0.63358,-0.02466 1.21717,-2.99677 1.73227,-2.99494c1.78681,0.00641 1.75691,3.0759 1.75691,3.0759c0,0 -0.07591,0.56344 -0.12539,1.33731c-0.02858,0.44687 -0.1608,1.03767 0.02545,1.44054c0.47201,1.02098 2.06446,1.4354 2.0611,2.28683c-0.00151,0.38017 0.04877,0.75975 -0.37503,1.19162c-0.31565,0.32167 -1.08359,0.67859 -1.31936,1.05304c-0.06482,0.10297 -0.2192,0.22882 -0.26202,0.33614c-0.23364,0.58562 0.11582,1.2864 0.13914,1.7996c0.03323,0.73061 -0.18564,1.17539 -0.18564,1.17539z" fill="#bcf4f4"></path></g><path d="M227.71609,161.48088l-2.22668,-0.3757" fill="#a9ffff" stroke="#a75900" stroke-linecap="round"></path><path d="M237.98301,162.02302l-2.64922,-0.19905" fill="#a9ffff" stroke="#a75900" stroke-linecap="round"></path><path d="M227.57393,165.72185l1.71473,0.37199" fill="#a9ffff" stroke="#a75900" stroke-linecap="round"></path><path d="M238.31261,168.24462l2.01698,0.1585" fill="#a9ffff" stroke="#a75900" stroke-linecap="round"></path><path d="M242.63049,166.04724l-1.4156,0.02564" fill="#a9ffff" stroke="#a75900" stroke-linecap="round"></path><path d="M247.24436,164.85856l1.65615,0.04802" fill="#a9ffff" stroke="#a75900" stroke-linecap="round"></path><path d="M250.93586,167.36597l1.53588,0.01118" fill="#a9ffff" stroke="#a75900" stroke-linecap="round"></path><path d="M254.94252,161.24782l1.29532,-0.06246" fill="#a9ffff" stroke="#a75900" stroke-linecap="round"></path><path d="M258.14977,164.21902l0.87279,0.1142" fill="#a9ffff" stroke="#a75900" stroke-linecap="round"></path><path d="M257.73622,168.52992l-1.02392,-0.00747" fill="#a9ffff" stroke="#a75900" stroke-linecap="round"></path><path d="M220.80444,164.41434l1.02392,0.00747" fill="#a9ffff" stroke="#a75900" stroke-linecap="round"></path><path d="M222.98817,161.4105l0.75251,0.07738" fill="#a9ffff" stroke="#a75900" stroke-linecap="round"></path><path d="M222.98466,167.98919l1.23362,0.22468" fill="#a9ffff" stroke="#a75900" stroke-linecap="round"></path><path d="M250.30088,161.96896l1.32306,0.40508" fill="#a9ffff" stroke="#a75900" stroke-linecap="round"></path><path d="M222.78706,171.29508l1.08249,0.33143" fill="#a9ffff" stroke="#5e3200" stroke-linecap="round"></path><path d="M226.97842,170.28308l2.43639,0.59294" fill="#a9ffff" stroke="#5e3200" stroke-linecap="round"></path><path d="M261.36327,165.968l-0.75251,-0.07738" fill="#a9ffff" stroke="#5e3200" stroke-linecap="round"></path><path d="M259.25415,160.27265l-0.72168,-0.22095" fill="#a9ffff" stroke="#5e3200" stroke-linecap="round"></path><path d="M257.98888,172.12669l1.08563,-0.27969" fill="#a9ffff" stroke="#5e3200" stroke-linecap="round"></path><path d="M248.24017,170.36606l2.04784,0.01492" fill="#a9ffff" stroke="#5e3200" stroke-linecap="round"></path><path d="M254.6828,170.80844l-1.02392,-0.00747" fill="#a9ffff" stroke="#5e3200" stroke-linecap="round"></path><path d="M236.85365,170.8583l-1.86586,-0.26523" fill="#a9ffff" stroke="#5e3200" stroke-linecap="round"></path><path d="M243.24085,170.3656l0.90364,-0.02937" fill="#a9ffff" stroke="#5e3200" stroke-linecap="round"></path></g></g></g></g></svg>