<svg version="1.1" xmlns="http://www.w3.org/2000/svg" xmlns:xlink="http://www.w3.org/1999/xlink" width="38.02255" height="24.92992" viewBox="0,0,38.02255,24.92992"><defs><linearGradient x1="237.84941" y1="166.28043" x2="241.55061" y2="166.88344" gradientUnits="userSpaceOnUse" id="color-1"><stop offset="0" stop-color="#6c6c6c"></stop><stop offset="1" stop-color="#2c2c2c"></stop></linearGradient><linearGradient x1="242.28634" y1="167.35325" x2="240.21368" y2="169.16062" gradientUnits="userSpaceOnUse" id="color-2"><stop offset="0" stop-color="#a3a3a3"></stop><stop offset="1" stop-color="#6e6e6e"></stop></linearGradient><radialGradient cx="239.20001" cy="170.15694" r="2.175" gradientUnits="userSpaceOnUse" id="color-3"><stop offset="0" stop-color="#c6c6c6"></stop><stop offset="1" stop-color="#939393"></stop></radialGradient><linearGradient x1="240.01787" y1="171.20547" x2="240.01787" y2="183.46429" gradientUnits="userSpaceOnUse" id="color-4"><stop offset="0" stop-color="#979797"></stop><stop offset="1" stop-color="#1a1a1a"></stop></linearGradient><radialGradient cx="238.9643" cy="182.41071" r="0.80357" gradientUnits="userSpaceOnUse" id="color-5"><stop offset="0" stop-color="#6c6c6c"></stop><stop offset="1" stop-color="#787878"></stop></radialGradient><radialGradient cx="240.5893" cy="181.80357" r="0.53571" gradientUnits="userSpaceOnUse" id="color-6"><stop offset="0" stop-color="#a3a3a3"></stop><stop offset="1" stop-color="#a8a8a8"></stop></radialGradient><linearGradient x1="240.05001" y1="180.68194" x2="240.05001" y2="183.53194" gradientUnits="userSpaceOnUse" id="color-7"><stop offset="0" stop-color="#c18b4d"></stop><stop offset="1" stop-color="#ad7145"></stop></linearGradient><linearGradient x1="239.77501" y1="179.88194" x2="239.77501" y2="180.88194" gradientUnits="userSpaceOnUse" id="color-8"><stop offset="0" stop-color="#c18b4d"></stop><stop offset="1" stop-color="#ad7145"></stop></linearGradient><linearGradient x1="241.30001" y1="179.58194" x2="241.30001" y2="181.28194" gradientUnits="userSpaceOnUse" id="color-9"><stop offset="0" stop-color="#c18b4d"></stop><stop offset="1" stop-color="#ad7145"></stop></linearGradient></defs><g transform="translate(-221.05561,-160.97609)"><g data-paper-data="{&quot;isPaintingLayer&quot;:true}" fill-rule="nonzero" stroke-width="0" stroke-linecap="butt" stroke-linejoin="miter" stroke-miterlimit="10" stroke-dasharray="" stroke-dashoffset="0" style="mix-blend-mode: normal"><path d="M224.46942,182.79247v-7.6923h0.5698v7.6923z" fill="#c5764f" stroke="none"></path><path d="M253.59306,183.02324v-7h0.41481v7z" fill="#c5764f" stroke="none"></path><path d="M233.31501,185.90601l-0.80624,-0.9897l4.31122,-3.00278l0.96766,1.29348z" data-paper-data="{&quot;index&quot;:null}" fill="#9b7f4e" stroke="none"></path><path d="M237.5495,183.55386c0,0 -2.66858,-5.42146 -4.35875,-7.97342c-1.65271,-2.4954 -10.05702,-7.48014 -10.05702,-7.48014l4.91327,1.23847c0,0 4.18113,2.78186 5.64816,5.00939c1.69093,2.56751 4.99838,8.75186 4.99838,8.75186z" data-paper-data="{&quot;index&quot;:null}" fill="#78623c" stroke="none"></path><path d="M232.073,185.55422c0,0 -1.8085,-2.71144 -3.68104,-5.13276c-1.83104,-2.36765 -7.33635,-9.50696 -7.33635,-9.50696l1.53618,0.35121c0,0 4.58674,5.77573 6.21298,7.88983c1.87445,2.43677 4.25096,6.11226 4.25096,6.11226z" data-paper-data="{&quot;index&quot;:null}" fill="#78623c" stroke="none"></path><path d="M231.16648,182.90601l-0.88848,-0.9897l4.75098,-3.00278l1.06637,1.29348z" data-paper-data="{&quot;index&quot;:null}" fill="#9b7f4e" stroke="none"></path><path d="M229.08378,179.80736l-0.84327,-1.02849l4.88069,-2.787l1.00737,1.33993z" data-paper-data="{&quot;index&quot;:null}" fill="#9b7f4e" stroke="none"></path><path d="M226.54661,176.11556l-1.07232,-0.78678l4.03538,-3.91206l1.30865,1.0477z" data-paper-data="{&quot;index&quot;:null}" fill="#9b7f4e" stroke="none"></path><path d="M222.96292,172.31877l-0.40876,-0.74087l3.77172,-2.08095l0.40876,0.74087z" data-paper-data="{&quot;index&quot;:null}" fill="#9b7f4e" stroke="none"></path><path d="M242.34611,182.89932l0.96767,-1.29348l4.31123,3.00278l-0.80624,0.9897z" fill="#9b7f4e" stroke="none"></path><path d="M241.44022,182.79234c0,0 3.30745,-6.18435 4.99838,-8.75186c1.46703,-2.22753 5.64817,-5.00939 5.64817,-5.00939l4.91327,-1.23847c0,0 -8.40432,4.98475 -10.05702,7.48014c-1.69017,2.55196 -4.35875,7.97342 -4.35875,7.97342z" fill="#78623c" stroke="none"></path><path d="M238.77339,172.62007c0.48371,1.54131 0.39527,2.94161 -0.19754,3.12766c-0.59281,0.18604 -1.46551,-0.91262 -1.94922,-2.45393c-0.48371,-1.54131 -0.39527,-2.94161 0.19754,-3.12766c0.59281,-0.18604 1.46551,0.91262 1.94922,2.45393z" fill="#515151" stroke="none"></path><path d="M243.7004,181.53232c-0.32421,0.89583 -1.11327,1.43159 -1.76242,1.19666c-0.64915,-0.23493 -0.91257,-1.15159 -0.58837,-2.04742c0.32421,-0.89583 1.11327,-1.43159 1.76242,-1.19666c0.64915,0.23493 0.91257,1.15159 0.58837,2.04742z" fill="#7e7e7e" stroke="none"></path><path d="M243.9829,176.43653c0.43703,1.89712 0.07144,3.60087 -0.81657,3.80544c-0.88801,0.20457 -1.96217,-1.16751 -2.3992,-3.06463c-0.43703,-1.89712 -0.07144,-3.60087 0.81657,-3.80544c0.88801,-0.20457 1.96217,1.16751 2.3992,3.06463z" fill="#acacac" stroke="none"></path><path d="M239.26822,180.50537c-0.19088,1.72919 -0.84627,3.07572 -1.46384,3.00754c-0.61757,-0.06817 -0.96346,-1.52523 -0.77258,-3.25442c0.19088,-1.72919 0.84627,-3.07572 1.46384,-3.00754c0.61757,0.06817 0.96346,1.52523 0.77258,3.25442z" fill="#747474" stroke="none"></path><path d="M241.55061,166.88344c-0.34191,2.09863 -1.44763,3.66491 -2.46968,3.4984c-1.02206,-0.16652 -1.57343,-2.00278 -1.23152,-4.1014c0.34191,-2.09863 0.64763,-5.46491 1.66968,-5.2984c0.2471,0.04026 0.51345,0.28333 0.77047,0.65845c0.80605,1.17645 1.5203,3.65171 1.26105,5.24295z" fill="url(#color-1)" stroke="none"></path><path d="M242.54803,169.74549c-0.57235,0.49909 -1.61747,0.23724 -2.33435,-0.58487c-0.71687,-0.8221 -0.83403,-1.89314 -0.26168,-2.39223c0.57235,-0.49909 1.61747,-0.23724 2.33435,0.58487c0.71687,0.8221 0.83403,1.89314 0.26168,2.39223z" fill="url(#color-2)" stroke="none"></path><path d="M240.90201,170.94358c-0.50396,1.09039 -1.67452,1.62213 -2.61451,1.18768c-0.93999,-0.43445 -1.29346,-1.67058 -0.7895,-2.76097c0.50396,-1.09039 1.67452,-1.62213 2.61451,-1.18768c0.93999,0.43445 1.29346,1.67058 0.7895,2.76097z" fill="url(#color-3)" stroke="none"></path><path d="M238.30358,183.46429c0,0 0.07613,-1.12474 -0.13551,-2.20285c-0.09392,-0.4784 -0.58868,-0.61452 -0.58405,-1.20804c0.00984,-1.26244 0.79,-2.82328 0.7447,-3.92338c-0.01601,-0.38881 -0.63228,-1.33052 -0.63228,-1.60638c0,-1.33177 0.60714,-3.31818 0.60714,-3.31818c0,0 1.22036,-2.62688 1.78571,-2.62688c0.57726,0 1.64286,2.62688 1.64286,2.62688c0,0 0.67857,1.95313 0.67857,3.08775c0,0.24081 -0.90101,-0.1062 -0.91552,0.2339c-0.02394,0.56095 0.40018,2.69116 0.40829,3.4531c0.00385,0.36145 0.46855,1.17649 0.4663,1.51987c-0.00283,0.43379 -0.30963,0.88256 -0.34252,1.25184c-0.15656,1.75736 -0.29511,2.71237 -0.29511,2.71237z" fill="url(#color-4)" stroke="#000000"></path><path d="M239.1478,181.62838c0.22084,0.0518 0.3177,0.44406 0.21635,0.87613c-0.10135,0.43207 -0.36253,0.74034 -0.58337,0.68854c-0.22084,-0.0518 -0.3177,-0.44406 -0.21635,-0.87613c0.10135,-0.43207 0.36253,-0.74034 0.58337,-0.68854z" fill="url(#color-5)" stroke="none"></path><path d="M241.0402,182.09283c-0.11183,0.17432 -0.40436,0.18613 -0.65339,0.02637c-0.24903,-0.15975 -0.36025,-0.43058 -0.24842,-0.6049c0.11183,-0.17432 0.40436,-0.18613 0.65339,-0.02637c0.24903,0.15975 0.36025,0.43058 0.24842,0.6049z" fill="url(#color-6)" stroke="none"></path><path d="M239.67501,183.53194v-2.85h0.75v2.85z" fill="url(#color-7)" stroke="none"></path><path d="M238.37501,180.88194v-1h2.8v1z" fill="url(#color-8)" stroke="none"></path><path d="M240.92501,181.28194v-1.7l1.4,0.75z" fill="url(#color-9)" stroke="none"></path><path d="M246.82804,185.21012c0,0 2.62652,-3.9255 4.50096,-6.36226c1.62624,-2.1141 6.21298,-7.88983 6.21298,-7.88983l1.53618,-0.35121c0,0 -5.50531,7.13931 -7.33635,9.50695c-1.87254,2.42131 -3.80604,5.50776 -3.80604,5.50776z" fill="#78623c" stroke="none"></path><path d="M244.03841,179.89932l1.06637,-1.29348l4.75098,3.00278l-0.88848,0.9897z" fill="#9b7f4e" stroke="none"></path><path d="M246.0052,177.0241l1.00737,-1.33994l4.88069,2.78701l-0.84327,1.02849z" fill="#9b7f4e" stroke="none"></path><path d="M249.31545,172.15672l1.30865,-1.04769l4.03538,3.91206l-1.07232,0.78678z" fill="#9b7f4e" stroke="none"></path><path d="M253.39913,169.93013l0.40876,-0.74087l3.77172,2.08095l-0.40876,0.74087z" fill="#9b7f4e" stroke="none"></path></g></g></svg>