<svg version="1.1" xmlns="http://www.w3.org/2000/svg" xmlns:xlink="http://www.w3.org/1999/xlink" width="43.13635" height="129.75976" viewBox="0,0,43.13635,129.75976"><defs><linearGradient x1="263.46246" y1="186.83516" x2="241.71894" y2="186.83516" gradientUnits="userSpaceOnUse" id="color-1"><stop offset="0" stop-color="#ffffff" stop-opacity="0"/><stop offset="1" stop-color="#ffffff"/></linearGradient><linearGradient x1="220.32611" y1="187.18586" x2="242.06964" y2="187.18586" gradientUnits="userSpaceOnUse" id="color-2"><stop offset="0" stop-color="#ffffff" stop-opacity="0"/><stop offset="1" stop-color="#ffffff"/></linearGradient></defs><g transform="translate(-220.32611,-122.13063)"><g data-paper-data="{&quot;isPaintingLayer&quot;:true}" fill-rule="nonzero" stroke-width="0" stroke-linejoin="miter" stroke-miterlimit="10" stroke-dasharray="" stroke-dashoffset="0" style="mix-blend-mode: normal"><path d="M241.71894,251.53969v-129.40906h21.74353v129.40906z" data-paper-data="{&quot;index&quot;:null}" fill="url(#color-1)" stroke="#adadad" stroke-linecap="butt"/><path d="M220.32611,251.89039v-129.40906h21.74353v129.40906z" fill="url(#color-2)" stroke="#adadad" stroke-linecap="butt"/><path d="M226.90321,208.1259c0,0 0.38089,-20.20733 -0.09289,-25.22499c-0.20514,-2.17249 -2.70013,-4.35461 -2.70013,-4.35461l33.39935,-1.31428c0,0 -1.16028,2.54259 -1.11494,4.45619c0.11605,4.89888 1.82923,25.69573 1.82923,25.69573z" fill="#fff766" stroke="#ffffff" stroke-linecap="butt"/><path d="M233.0528,183.89192c-0.00688,-0.29045 0.223,-0.53148 0.51345,-0.53836c0.29045,-0.00688 0.53148,0.223 0.53836,0.51345c0.00688,0.29045 -0.223,0.53148 -0.51345,0.53836c-0.29045,0.00688 -0.53148,-0.223 -0.53836,-0.51345z" fill="#000000" stroke="#ffffff" stroke-linecap="butt"/><path d="M246.61501,183.8045c-0.00688,-0.29045 0.223,-0.53148 0.51345,-0.53836c0.29045,-0.00688 0.53148,0.223 0.53836,0.51345c0.00688,0.29045 -0.223,0.53148 -0.51345,0.53836c-0.29045,0.00688 -0.53148,-0.223 -0.53836,-0.51345z" fill="#000000" stroke="#ffffff" stroke-linecap="butt"/><path d="M229.89042,202.78754l0.84496,-3.92432l19.8906,-0.30066l1.28145,3.70341z" fill="#000000" stroke="#ffffff" stroke-linecap="butt"/><path d="M229.03246,204.10881l24.4238,-0.49332l2.48059,3.93227l-27.99479,0.66318c-0.05861,-0.00736 -0.11766,-0.01326 -0.17711,-0.01768z" fill="#000000" stroke="#ffffff" stroke-linecap="butt"/><path d="M250.57518,195.9564c0.02564,1.08249 -4.67093,0.87804 -9.8245,1.00013c-5.15357,0.12208 -9.74594,0.71711 -9.77158,-0.36538c-0.02564,-1.08249 4.52515,-3.43256 9.67872,-3.55465c5.15357,-0.12208 9.89172,1.83741 9.91736,2.9199z" fill="#000000" stroke="#ffffff" stroke-linecap="butt"/><path d="M224.46995,178.94862l-0.01858,-0.78417l33.19676,-0.78641l0.01858,0.78417z" fill="#000000" stroke="#ffffff" stroke-linecap="butt"/><path d="M225.61294,178.3495c0.22588,0.47127 -0.25958,1.17375 -1.08429,1.56903c-0.82471,0.39529 -1.67639,0.33369 -1.90227,-0.13757c-0.22588,-0.47127 0.25958,-1.17375 1.08429,-1.56903c0.82471,-0.39529 1.67639,-0.33369 1.90227,0.13757z" fill="none" stroke="#ffffff" stroke-linecap="butt"/><path d="M221.89524,180.84906l0.76147,-0.97701" fill="none" stroke="#ffffff" stroke-linecap="round"/><path d="M247.16687,187.73571c0.50285,0.15449 0.34837,0.65735 0.34837,0.65735l-0.26607,0.81815c-0.20774,0.21782 -0.41548,0.43565 -0.62323,0.65347c-1.87548,0.69129 -3.8799,0.63824 -5.87321,0.68545c-2.17529,0.05153 -4.85009,0.51754 -6.83956,-0.61816c-0.0651,-0.03716 -0.9558,-0.89212 -1.05427,-0.98603c0,0 -0.38068,-0.36306 -0.01762,-0.74374c0.36306,-0.38068 0.74374,-0.01762 0.74374,-0.01762c2.14167,2.04255 5.3174,1.35699 8.07773,1.29159c1.47025,-0.03483 3.00038,-0.01467 4.38902,-0.49312c0.09652,-0.10121 0.19305,-0.20241 0.28957,-0.30362l0.16818,-0.59534c0,0 0.15449,-0.50285 0.65735,-0.34837z" fill="#000000" stroke="#ffffff" stroke-linecap="butt"/><path d="M223.07203,193.72375c0,0 -1.60639,-1.5686 -1.62615,-2.40251c-0.02079,-0.87745 1.50436,-2.7382 1.50436,-2.7382l4.61792,-0.10939l0.12178,5.14071z" fill="#b4b4b4" stroke="#ffffff" stroke-linecap="butt"/><path d="M256.97029,192.6696l-0.12178,-5.14071l4.61793,-0.10939c0,0 1.61155,1.78645 1.63234,2.6639c0.01976,0.83391 -1.51056,2.47681 -1.51056,2.47681z" data-paper-data="{&quot;index&quot;:null}" fill="#b4b4b4" stroke="#ffffff" stroke-linecap="butt"/><g fill="#000000" stroke="#ffffff" stroke-linecap="butt"><path d="M230.44963,178.01755c0,0 0.64566,-2.71685 0.82649,-4.11749c0.16313,-1.26357 0.21088,-3.91757 0.21088,-3.91757l3.18939,0.79427c0,0 -2.10177,2.07141 -2.2713,3.38457c-0.11117,0.8611 0.26486,1.75157 0.65795,2.57136c0.22927,0.47813 0.17699,1.44849 0.17699,1.44849z"/><path d="M235.01591,169.8583c0.01841,0.77731 -0.74001,1.42576 -1.69398,1.44836c-0.95397,0.0226 -1.74224,-0.58921 -1.76066,-1.36652c-0.01841,-0.77731 0.74001,-1.42576 1.69398,-1.44836c0.95397,-0.0226 1.74224,0.58921 1.76066,1.36652z"/></g><g data-paper-data="{&quot;index&quot;:null}" fill="#000000" stroke="#ffffff" stroke-linecap="butt"><path d="M247.99513,177.75174c0,0 -0.09818,-0.96679 0.1082,-1.45524c0.35383,-0.83749 0.68727,-1.74477 0.53546,-2.59963c-0.23153,-1.30365 -2.42902,-3.27322 -2.42902,-3.27322l3.1482,-0.94441c0,0 0.17337,2.64876 0.39615,3.90319c0.24695,1.39051 1.02053,4.07374 1.02053,4.07374z"/><path d="M247.5211,168.07394c0.95397,-0.0226 1.74224,0.58921 1.76066,1.36652c0.01841,0.77731 -0.74001,1.42577 -1.69398,1.44836c-0.95397,0.0226 -1.74224,-0.58922 -1.76066,-1.36652c-0.01841,-0.77731 0.74001,-1.42576 1.69398,-1.44836z"/></g></g></g></svg>