<svg version="1.1" xmlns="http://www.w3.org/2000/svg" xmlns:xlink="http://www.w3.org/1999/xlink" width="195.54519" height="262.53703" viewBox="0,0,195.54519,262.53703"><defs><linearGradient x1="70.37956" y1="159.15607" x2="124.37956" y2="159.15607" gradientUnits="userSpaceOnUse" id="color-1"><stop offset="0" stop-color="#c6634f"></stop><stop offset="1" stop-color="#ffbc66"></stop></linearGradient><radialGradient cx="196.00015" cy="193.29026" r="26.72308" gradientUnits="userSpaceOnUse" id="color-2"><stop offset="0" stop-color="#ffffff"></stop><stop offset="1" stop-color="#ad4545"></stop></radialGradient></defs><g transform="translate(-12.62473,-91.90792)"><g data-paper-data="{&quot;isPaintingLayer&quot;:true}" fill-rule="nonzero" stroke-linejoin="miter" stroke-miterlimit="10" stroke-dasharray="" stroke-dashoffset="0" style="mix-blend-mode: normal"><path d="M65.14645,353.01186v-151.43636h59.15483v151.43636z" fill="#b98585" stroke="none" stroke-width="0" stroke-linecap="butt"></path><path d="M126.74509,193.74201c-6.10998,15.71134 -24.08062,23.38555 -40.1386,17.14082c-16.05797,-6.24476 -24.12234,-24.0437 -18.01236,-39.75508c6.10998,-15.71134 24.08062,-23.38556 40.13858,-17.14083c16.05797,6.24476 24.12234,24.0437 18.01236,39.7551z" fill="#fffad7" stroke="none" stroke-width="0" stroke-linecap="butt"></path><path d="M103.94216,192.98145c1.11743,1.25888 -0.14145,2.37632 -0.14145,2.37632l-0.73513,0.58534c-4.9535,7.14794 -13.52586,8.88777 -21.4033,5.8173c0,0 -1.56245,-0.62625 -0.93619,-2.18868c0.62625,-1.56244 2.1887,-0.93619 2.1887,-0.93619c6.28568,2.61108 13.45864,1.22387 17.37203,-4.59297l1.27908,-1.20252c0,0 1.25888,-1.11744 2.37631,0.14144z" fill="#000000" stroke="none" stroke-width="0.5" stroke-linecap="butt"></path><path d="M32.99258,285.66409l28.08369,-67.3923l14.68496,10.07474l-28.08368,67.39231z" fill="#fffad7" stroke="none" stroke-width="0" stroke-linecap="butt"></path><path d="M181.62451,218.12312l-52.91655,50.30168l-9.36289,-15.14871l52.91656,-50.30171z" fill="#fffad7" stroke="none" stroke-width="0" stroke-linecap="butt"></path><path d="M79.34361,205.1248l-3.54929,146.70397" fill="none" stroke="#000000" stroke-width="0.5" stroke-linecap="round"></path><path d="M110.69567,209.26563l0.59155,144.92932" fill="none" stroke="#000000" stroke-width="0.5" stroke-linecap="round"></path><path d="M70.37956,166.48941l4.33333,-10l31,-6.66667l18.66667,18.66667z" fill="url(#color-1)" stroke="none" stroke-width="NaN" stroke-linecap="butt"></path><path d="M75.37956,160.15607l36.33333,6.66667" fill="none" stroke="#000000" stroke-width="0.5" stroke-linecap="round"></path><path d="M116.04622,161.82274l-27,-7" fill="none" stroke="#000000" stroke-width="0.5" stroke-linecap="round"></path><g><path d="M57.39609,178.59733c0,0 -6.28504,1.7054 -8.08335,0.41077c-1.22172,-0.87951 -1.66226,-7.42678 -1.66226,-7.42678l33.78755,-46.93279c0,0 6.16581,-1.40189 7.64227,-0.33893c1.7313,1.2464 2.10334,7.35496 2.10334,7.35496z" fill="#000000" stroke="none" stroke-width="0" stroke-linecap="butt"></path><path d="M46.38728,145.75149l-26.92865,-19.38632l6.27748,-8.71975l26.92865,19.38632z" fill="#00d95b" stroke="none" stroke-width="0" stroke-linecap="butt"></path><path d="M66.06126,127.37513l-8.90623,2.04063c0,0 -0.52343,-19.72742 1.3683,-27.2066c1.55839,-6.16131 18.23515,-10.30124 18.23515,-10.30124l11.54323,9.98174c0,0 -2.34516,5.05506 -4.04466,5.32504c-5.21688,0.82876 -16.90094,-6.7763 -17.8298,-0.74597c-1.08065,7.01557 -0.36598,20.90643 -0.36598,20.90643z" fill="#d90000" stroke="none" stroke-width="0" stroke-linecap="butt"></path><path d="M90.17153,102.51105c2.19544,1.58054 2.65255,4.69895 1.02109,6.96522c-1.6315,2.26623 -4.73388,2.82216 -6.92928,1.24164c-2.19544,-1.58054 -2.65254,-4.69895 -1.02109,-6.96522c1.6315,-2.26623 4.73387,-2.82216 6.92928,-1.24163z" fill="#ffc500" stroke="none" stroke-width="0" stroke-linecap="butt"></path><path d="M83.11936,107.16863l8.7091,-0.73905" fill="none" stroke="#000000" stroke-width="0.5" stroke-linecap="round"></path><path d="M86.29904,101.67011l-0.21494,8.41168" fill="none" stroke="#000000" stroke-width="0.5" stroke-linecap="round"></path><path d="M23.31124,163.65484c-5.42403,2.79426 5.49529,11.46161 6.36454,16.67188c0.28319,1.69738 -3.76664,5.52525 -3.76664,5.52525l-13.12846,-7.7798c0,0 -1.36525,-17.12864 3.98328,-20.56137c6.49255,-4.16699 25.36675,-9.92986 25.36675,-9.92986l0.89061,9.09354c0,0 -13.39988,3.72962 -19.71008,6.98032z" data-paper-data="{&quot;index&quot;:null}" fill="#0048d9" stroke="none" stroke-width="0" stroke-linecap="butt"></path><path d="M26.07071,180.46279c1.6315,-2.26623 4.73384,-2.82217 6.92928,-1.24163c2.19544,1.58054 2.65259,4.69898 1.0211,6.96521c-1.6315,2.26623 -4.73388,2.82216 -6.9293,1.24163c-2.19544,-1.58054 -2.65255,-4.69895 -1.02106,-6.96518z" data-paper-data="{&quot;index&quot;:null}" fill="#ffc500" stroke="none" stroke-width="0" stroke-linecap="butt"></path><path d="M31.33354,187.75602l-2.06236,-8.4936" data-paper-data="{&quot;index&quot;:null}" fill="none" stroke="#000000" stroke-width="0.5" stroke-linecap="round"></path><path d="M32.97446,181.1497l-7.90883,2.87274" data-paper-data="{&quot;index&quot;:null}" fill="none" stroke="#000000" stroke-width="0.5" stroke-linecap="round"></path><path d="M32.10722,133.13483l-12.1357,-6.40037l5.76454,-9.08902l9.87916,10.61656z" fill="#00964e" stroke="none" stroke-width="0" stroke-linecap="butt"></path><path d="M37.66161,126.23075c2.19544,1.58054 2.65259,4.69898 1.0211,6.96521c-1.6315,2.26623 -4.73388,2.82215 -6.9293,1.24163c-2.19544,-1.58054 -2.65255,-4.69895 -1.02106,-6.96518c1.6315,-2.26623 4.73384,-2.82217 6.92928,-1.24163z" fill="#ffc500" stroke="none" stroke-width="0" stroke-linecap="butt"></path><path d="M39.31855,130.1493l-8.7091,0.73905" fill="none" stroke="#000000" stroke-width="0.5" stroke-linecap="round"></path><path d="M33.5742,133.80151l0.21493,-8.4117" fill="none" stroke="#000000" stroke-width="0.5" stroke-linecap="round"></path><path d="M47.72228,172.02243l-14.10548,-10.15474c0,0 6.53857,-18.81813 12.18512,-26.66153c5.61576,-7.80064 21.60242,-20.27126 21.60242,-20.27126l14.1055,10.15472z" fill="#dadada" stroke="none" stroke-width="0" stroke-linecap="butt"></path><path d="M45.22952,170.61724l-0.35068,-34.12871l35.05131,-11.36797" fill="none" stroke="#4a00f3" stroke-width="0.25" stroke-linecap="round"></path></g><path d="M76.37956,172.15607l9.66667,5.66667l-7.33333,2" fill="none" stroke="#000000" stroke-width="0.5" stroke-linecap="round"></path><path d="M107.04622,178.15607l-6,-1.66667l7,-4" fill="none" stroke="#000000" stroke-width="0.5" stroke-linecap="round"></path><g stroke-linecap="butt"><path d="M204.22244,211.63435c0,15.94722 -11.19288,28.875 -25,28.875c-13.80712,0 -25,-12.92778 -25,-28.875c0,-15.94722 11.19288,-28.875 25,-28.875c13.80712,0 25,12.92778 25,28.875z" fill-opacity="0.56447" fill="#000000" stroke="none" stroke-width="NaN"></path><g><path d="M207.53829,209.79456c-2.34981,14.57048 -14.90465,24.66466 -28.04192,22.54598c-13.13733,-2.11868 -21.88229,-15.64795 -19.53247,-30.21842c2.34982,-14.57046 14.90462,-24.66465 28.04191,-22.54598c13.13733,2.11868 21.8823,15.64795 19.53248,30.21841z" fill="url(#color-2)" stroke="#000000" stroke-width="0.5"></path><path d="M195.64432,190.4204c-0.29494,1.82887 -2.01663,3.07234 -3.84549,2.7774c-1.82887,-0.29494 -3.07236,-2.01662 -2.77741,-3.84548c0.29494,-1.82887 2.01664,-3.07234 3.8455,-2.7774c1.82887,0.29494 3.07234,2.01663 2.77739,3.84549z" fill="#000000" stroke="none" stroke-width="0"></path><path d="M202.05486,195.75166c-0.29494,1.82887 -2.01663,3.07234 -3.84549,2.7774c-1.82887,-0.29494 -3.07236,-2.01662 -2.77741,-3.84548c0.29494,-1.82887 2.01662,-3.07236 3.8455,-2.7774c1.82887,0.29494 3.07233,2.01664 2.77739,3.84549z" fill="#000000" stroke="none" stroke-width="0"></path><path d="M194.80572,198.88005c-0.29494,1.82887 -2.01663,3.07234 -3.84549,2.7774c-1.82887,-0.29494 -3.07236,-2.01662 -2.77741,-3.84548c0.29494,-1.82887 2.01664,-3.07233 3.84549,-2.77739c1.82887,0.29494 3.07234,2.01663 2.7774,3.84549z" fill="#000000" stroke="none" stroke-width="0"></path></g></g><path d="M130.91188,126.63397c-0.1461,-0.40122 0.1752,-0.58457 0.27215,-0.62956c-0.86307,-1.37594 -4.53371,-3.10077 -5.84215,-3.73469c-5.42149,-2.64247 -11.58594,-1.80683 -17.46017,-1.80683c0,0 -0.5,0 -0.5,-0.5c0,-0.5 0.5,-0.5 0.5,-0.5c6.04942,0 12.31055,-0.80638 17.89769,1.90762c1.91164,0.9338 5.99156,2.85246 6.54739,4.80686l-0.77401,0.75534c0,0 -0.46982,0.17108 -0.6409,-0.29874zM131.26266,126.14459l0.09251,0.26933c-0.01597,-0.08764 -0.04735,-0.17757 -0.09251,-0.26933z" fill="#000000" stroke="none" stroke-width="0.5" stroke-linecap="butt"></path><path d="M124.7147,136.33586c-0.37297,0.333 -0.70598,-0.03997 -0.70598,-0.03997l-0.68347,-0.77508c-1.37258,-2.33086 -7.49047,-2.22359 -9.95969,-3.28252c-1.32387,-0.56775 -1.97345,-1.286 -3.48387,-1.2754c0,0 -0.5,0 -0.5,-0.5c0,-0.5 0.5,-0.5 0.5,-0.5c1.66855,0.00997 2.42914,0.735 3.87801,1.35635c2.95736,1.26827 8.54418,0.90819 10.40804,3.66286l0.58692,0.64778c0,0 0.333,0.37297 -0.03997,0.70598z" fill="#000000" stroke="none" stroke-width="0.5" stroke-linecap="butt"></path><path d="M117.61458,143.90535c-0.44246,0.23288 -0.67534,-0.20958 -0.67534,-0.20958l-0.06059,-0.11512c-0.42578,-1.04168 -0.96176,-0.61547 -2.0475,-0.67075c-5.96809,-0.31221 -11.61459,-3.30542 -17.22585,-0.49979c0,0 -0.44721,0.22361 -0.67082,-0.22361c-0.22361,-0.44721 0.22361,-0.67082 0.22361,-0.67082c5.87415,-2.93707 11.51357,0.08673 17.72406,0.39552c1.57323,0.08058 2.01162,-0.24246 2.88141,1.20369l0.06059,0.11512c0,0 0.23288,0.44246 -0.20958,0.67534z" fill="#000000" stroke="none" stroke-width="0.5" stroke-linecap="butt"></path></g></g></svg>