<svg version="1.1" xmlns="http://www.w3.org/2000/svg" xmlns:xlink="http://www.w3.org/1999/xlink" width="32.55797" height="35.74448" viewBox="0,0,32.55797,35.74448"><g transform="translate(-223.72102,-162.12776)"><g data-paper-data="{&quot;isPaintingLayer&quot;:true}" fill-rule="nonzero" stroke="none" stroke-width="0" stroke-linecap="butt" stroke-linejoin="miter" stroke-miterlimit="10" stroke-dasharray="" stroke-dashoffset="0" style="mix-blend-mode: normal"><path d="M227.45585,197.68983v-30.28459h24.84473v30.28459z" fill="#b08237"></path><path d="M224.9389,197.57303v-33.73373h3.29109v33.73373z" fill="#b57100"></path><path d="M224.9389,167.95317v-4.60754h30.77174v4.60754z" fill="#b57100"></path><path d="M252.06055,197.87224v-33.73373h3.29109v33.73373z" fill="#b57100"></path><path d="M223.72102,163.99518v-1.86742h32.55797v1.86742z" fill="#925a00"></path><g><path d="M250.95436,178.54355l1.20284,-3.47867l0.95569,0.33045l-1.20284,3.47867z" fill="#7d5411"></path><path d="M228.2296,178.16034l-1.10756,-3.04038l1.63421,-0.59532l1.10756,3.04038z" fill="#7d5411"></path><path d="M227.61431,176.34782c0,0 -0.54443,-1.32811 -0.54443,-1.91695c0,-0.52688 0.54443,-1.4509 0.54443,-1.4509h25.21389c0,0 0.46666,1.00799 0.46666,1.5441c0,0.58264 -0.46666,1.82374 -0.46666,1.82374z" fill="#7d5411"></path><path d="M228.3285,179.63477c0,0 -0.89311,-2.09312 -0.89311,-3.08529c0,-0.9246 0.89311,-2.67933 0.89311,-2.67933h23.87043c0,0 0.56835,1.85167 0.56835,2.76053c0,1.00333 -0.56835,3.0041 -0.56835,3.0041z" fill="#a56e17"></path></g><path d="M233.56914,177.55594v-2.06285h0.80896v2.06285z" fill="#e0c791"></path><path d="M232.57031,177.9779c0,0 -0.6652,-0.25813 -0.6652,-0.46417c0,-0.19812 0.6652,-0.74926 0.6652,-0.74926h12.29618c0,0 0.85526,0.30945 0.85526,0.51169c0,0.04799 0.28445,0.30277 0.211,0.37358c-0.23611,0.22764 -1.06626,0.32817 -1.06626,0.32817z" fill="#9c8a65"></path><path d="M243.27664,177.55594v-2.14374h1.09209v2.14374z" fill="#e0c791"></path><path d="M232.59839,178.24354c0,0 -0.47514,-0.4482 -0.47514,-0.65424c0,-0.19812 0.47514,-0.5592 0.47514,-0.5592h12.29618c0,0 0.85526,0.30945 0.85526,0.51169c0,0.20224 -0.85526,0.70174 -0.85526,0.70174z" fill="#c8b282"></path><path d="M249.41953,168.00005h2.61957v3.02258c0,0 -0.33784,-1.22683 -0.76547,-1.72026c-0.44487,-0.51332 -1.85409,-1.30232 -1.85409,-1.30232z" fill="#9c8a65"></path><path d="M228.95983,169.39192c-0.42763,0.49342 -0.76547,1.72026 -0.76547,1.72026v-3.02258h2.61957c0,0 -1.40922,0.789 -1.85409,1.30232z" data-paper-data="{&quot;index&quot;:null}" fill="#9c8a65"></path><g><path d="M250.71256,188.9412l1.20284,-3.47867l0.95569,0.33045l-1.20284,3.47867z" fill="#7d5411"></path><path d="M227.9878,188.55799l-1.10756,-3.04038l1.63421,-0.59532l1.10756,3.04038z" fill="#7d5411"></path><path d="M227.3725,186.74547c0,0 -0.54443,-1.32811 -0.54443,-1.91695c0,-0.52688 0.54443,-1.4509 0.54443,-1.4509h25.2139c0,0 0.46666,1.008 0.46666,1.5441c0,0.58264 -0.46666,1.82374 -0.46666,1.82374z" fill="#7d5411"></path><path d="M228.08669,190.03241c0,0 -0.89311,-2.09312 -0.89311,-3.08529c0,-0.9246 0.89311,-2.67933 0.89311,-2.67933h23.87043c0,0 0.56835,1.85167 0.56835,2.76053c0,1.00333 -0.56835,3.0041 -0.56835,3.0041z" fill="#a56e17"></path></g><path d="M233.32733,187.95358v-2.06285h0.80896v2.06285z" fill="#e0c791"></path><path d="M232.32851,188.37555c0,0 -0.66521,-0.25813 -0.66521,-0.46417c0,-0.19812 0.66521,-0.74926 0.66521,-0.74926h12.29618c0,0 0.85526,0.30945 0.85526,0.5117c0,0.04799 0.28445,0.30277 0.211,0.37358c-0.23611,0.22764 -1.06626,0.32817 -1.06626,0.32817z" fill="#9c8a65"></path><path d="M243.03484,187.95358v-2.14374h1.09209v2.14374z" fill="#e0c791"></path><path d="M232.35658,188.6412c0,0 -0.47514,-0.4482 -0.47514,-0.65424c0,-0.19812 0.47514,-0.5592 0.47514,-0.5592h12.29618c0,0 0.85526,0.30945 0.85526,0.5117c0,0.20224 -0.85526,0.70174 -0.85526,0.70174z" fill="#c8b282"></path></g></g></svg>