<svg version="1.1" xmlns="http://www.w3.org/2000/svg" xmlns:xlink="http://www.w3.org/1999/xlink" width="59.84144" height="77.98943" viewBox="0,0,59.84144,77.98943"><defs><linearGradient x1="216.31113" y1="178.42516" x2="239.29551" y2="178.42516" gradientUnits="userSpaceOnUse" id="color-1"><stop offset="0" stop-color="#d27a00"></stop><stop offset="1" stop-color="#8d3800"></stop></linearGradient><linearGradient x1="239.28594" y1="178.48736" x2="262.56219" y2="178.48736" gradientUnits="userSpaceOnUse" id="color-2"><stop offset="0" stop-color="#8d3800"></stop><stop offset="1" stop-color="#d27a00"></stop></linearGradient></defs><g transform="translate(-210.07928,-140.88029)"><g data-paper-data="{&quot;isPaintingLayer&quot;:true}" fill-rule="nonzero" stroke-width="0.5" stroke-linejoin="miter" stroke-miterlimit="10" stroke-dasharray="" stroke-dashoffset="0" style="mix-blend-mode: normal"><path d="M214.06871,206.89919v-56.95254h49.93665v56.95254z" fill="#000000" stroke="none" stroke-linecap="butt"></path><path d="M216.31113,205.8009v-54.75147h22.98437v54.75147z" fill="url(#color-1)" stroke="none" stroke-linecap="butt"></path><path d="M239.28594,205.8631v-54.75147h23.27625v54.75147z" fill="url(#color-2)" stroke="none" stroke-linecap="butt"></path><path d="M215.80743,206.36552v-55.74913c0,0 13.50361,0 20.86944,0c8.28692,0 26.41516,0 26.41516,0v55.74913z" fill="none" stroke="#652800" stroke-linecap="butt"></path><path d="M240.17943,152.07579l-0.7297,53.99785" fill="none" stroke="#652800" stroke-linecap="round"></path><path d="M220.91534,164.62664v-9.92393h11.38333v9.92393z" fill="none" stroke="#7b3100" stroke-linecap="butt"></path><path d="M220.8316,182.49354v-9.92393h11.38333v9.92393z" fill="none" stroke="#7b3100" stroke-linecap="butt"></path><path d="M220.60192,199.4848v-9.92393h11.38333v9.92393z" fill="none" stroke="#7b3100" stroke-linecap="butt"></path><path d="M245.47395,199.83888v-9.92393h11.38333v9.92393z" fill="none" stroke="#7b3100" stroke-linecap="butt"></path><path d="M245.76583,182.32607v-9.92393h11.38333v9.92393z" fill="none" stroke="#7b3100" stroke-linecap="butt"></path><path d="M245.9333,164.39696v-9.92393h11.38333v9.92393z" fill="none" stroke="#7b3100" stroke-linecap="butt"></path><path d="M214.49397,149.74075v-4.3782c0,0 15.22571,-4.23226 23.20448,-4.23226c8.61026,0 26.70705,4.23226 26.70705,4.23226v4.3782z" fill="#652800" stroke="#311300" stroke-linecap="butt"></path><g stroke-linecap="butt"><path d="M244.83804,180.41173c-1.12104,-0.27052 -1.7886,-1.48949 -1.49102,-2.72264c0.29758,-1.23315 1.4476,-2.01351 2.56864,-1.74299c1.12104,0.27052 1.7886,1.48949 1.49102,2.72264c-0.29758,1.23315 -1.44759,2.01351 -2.56864,1.74299z" fill="#fff4ce" stroke="#e6ddbb"></path><path d="M245.56263,179.18239c-0.69646,-0.16807 -1.11118,-0.92535 -0.92631,-1.69145c0.18487,-0.7661 0.89932,-1.2509 1.59578,-1.08284c0.69646,0.16807 1.11118,0.92535 0.92631,1.69145c-0.18487,0.7661 -0.89932,1.2509 -1.59578,1.08284z" fill="#e6ddbb" stroke="#e6ddbb"></path><path d="M241.49977,178.44813l1.64277,-0.62447l0.62447,1.64277l-1.64277,0.62447z" fill="#e6ddbb" stroke="none"></path><path d="M242.85575,180.42808c-0.58029,0.80713 -1.03098,-0.10182 -1.23487,-0.52289c-0.31815,-0.65705 -0.25905,-1.31066 0.00072,-1.91524l-0.0579,-0.01397l0.08245,-0.34168v0c0.03931,-0.16291 0.20325,-0.26311 0.36616,-0.22379c0.11776,0.02842 0.20275,0.12194 0.22597,0.23313l0.08691,0.37651l-0.01214,0.0028l0.01782,0.02987c0.00042,0.03311 0.00085,0.06622 0.00127,0.09934c0.04211,0.03494 0.07395,0.08066 0.09225,0.13184c0.05292,0.05637 0.08352,0.13207 0.08243,0.21179l0.00279,0.34019c0.03502,0.21696 0.44076,1.46053 0.34615,1.59212z" fill="#fff4ce" stroke="none"></path></g><g data-paper-data="{&quot;index&quot;:null}" stroke-linecap="butt"><path d="M232.94562,178.66874c-0.29758,-1.23315 0.36998,-2.45211 1.49103,-2.72264c1.12104,-0.27052 2.27106,0.50984 2.56864,1.74299c0.29758,1.23315 -0.36998,2.45211 -1.49103,2.72264c-1.12105,0.27052 -2.27106,-0.50984 -2.56864,-1.74299z" fill="#fff4ce" stroke="#e6ddbb"></path><path d="M233.1939,178.09955c-0.18487,-0.7661 0.22985,-1.52339 0.92631,-1.69145c0.69645,-0.16807 1.41091,0.31674 1.59578,1.08284c0.18487,0.7661 -0.22985,1.52339 -0.92631,1.69145c-0.69645,0.16807 -1.41091,-0.31674 -1.59578,-1.08284z" fill="#e6ddbb" stroke="#e6ddbb"></path><path d="M238.22805,180.0909l-1.64277,-0.62447l0.62447,-1.64277l1.64277,0.62447z" fill="#e6ddbb" stroke="none"></path><path d="M237.49656,180.42809c-0.0946,-0.13159 0.31113,-1.37515 0.34615,-1.59212l0.00279,-0.34019c-0.00109,-0.07972 0.02951,-0.15543 0.08243,-0.21179c0.0183,-0.05118 0.05013,-0.0969 0.09225,-0.13184c0.00042,-0.03311 0.00085,-0.06622 0.00127,-0.09933l0.01781,-0.02987l-0.01214,-0.0028l0.08691,-0.3765c0.02322,-0.11119 0.10821,-0.20472 0.22596,-0.23313c0.16291,-0.03931 0.32685,0.06088 0.36616,0.22379v0l0.08245,0.34168l-0.0579,0.01397c0.25977,0.60458 0.31887,1.25819 0.00072,1.91524c-0.20389,0.42106 -0.65458,1.33002 -1.23487,0.52289z" fill="#fff4ce" stroke="none"></path></g><path d="M210.07928,218.86972l4.81483,-13.20639h49.93665l5.08996,13.20639z" fill-opacity="0.45161" fill="#000000" stroke="none" stroke-linecap="butt"></path><path d="M240.50018,157.45582c3.44821,0 6.24354,2.7692 6.24354,6.18519c0,3.41599 -2.79533,6.18519 -6.24354,6.18519c-3.44821,0 -6.24354,-2.7692 -6.24354,-6.18519c0,-3.41599 2.79533,-6.18519 6.24354,-6.18519z" data-paper-data="{&quot;index&quot;:null}" fill="#f1ad60" stroke="none" stroke-linecap="butt"></path><path d="M234.02469,193.36243v-24.97417h11.90358v24.97417z" data-paper-data="{&quot;index&quot;:null}" fill="#ff6666" stroke="none" stroke-linecap="butt"></path><path d="M240.79193,206.25143v-12.48708h3.61775v12.48708z" data-paper-data="{&quot;index&quot;:null}" fill="#66a6ff" stroke="none" stroke-linecap="butt"></path><path d="M234.95685,206.60156v-12.48708h3.61775v12.48708z" data-paper-data="{&quot;index&quot;:null}" fill="#66a6ff" stroke="none" stroke-linecap="butt"></path><path d="M240.79193,208.70217v-3.26765c0,0 1.10346,-2.56744 1.75052,-2.56744c0.55431,0 1.51623,1.76444 2.48432,2.38293c1.03881,0.66365 2.06705,0.18451 2.06705,0.18451v3.26765z" data-paper-data="{&quot;index&quot;:null}" fill="#a06140" stroke="none" stroke-linecap="butt"></path><path d="M232.73952,208.58548v-3.26765c0,0 1.02825,0.47914 2.06704,-0.18451c0.9681,-0.61849 1.93,-2.38293 2.48432,-2.38293c0.64706,0 1.75053,2.56744 1.75053,2.56744v3.26765z" data-paper-data="{&quot;index&quot;:null}" fill="#a06140" stroke="none" stroke-linecap="butt"></path><path d="M248.13308,191.52364l-2.54752,-15.54964l0.46903,-5.8767c0,0 2.1897,6.01244 2.82398,9.16635c0.6427,3.19577 1.00727,9.88434 1.00727,9.88434z" data-paper-data="{&quot;index&quot;:null}" fill="#f1ad60" stroke="none" stroke-linecap="butt"></path><path d="M230.18092,190.78182c0,0 0.36457,-6.68858 1.00726,-9.88435c0.63427,-3.15391 2.82397,-9.16636 2.82397,-9.16636l0.46904,5.87672l-2.54751,15.54965z" data-paper-data="{&quot;index&quot;:null}" fill="#f1ad60" stroke="none" stroke-linecap="butt"></path><path d="M245.69341,171.12423c0.58007,0 1.05032,1.43685 1.05032,3.20929c0,1.77245 -0.47024,3.2093 -1.05032,3.2093c-0.58007,0 -1.05031,-1.43685 -1.05031,-3.2093c0,-1.77245 0.47024,-3.20929 1.05031,-3.20929z" data-paper-data="{&quot;index&quot;:null}" fill="#da5757" stroke="none" stroke-linecap="butt"></path><path d="M234.25664,172.17455c0.58007,0 1.05031,1.43685 1.05031,3.20929c0,1.77245 -0.47024,3.2093 -1.05031,3.2093c-0.58007,0 -1.05032,-1.43685 -1.05032,-3.2093c0,-1.77245 0.47024,-3.20929 1.05032,-3.20929z" data-paper-data="{&quot;index&quot;:null}" fill="#da5757" stroke="none" stroke-linecap="butt"></path><path d="M245.17695,159.46989c-0.22939,0.34548 0.05743,1.06668 -0.18367,1.06668c-0.49778,0 0.22534,2.2628 -1.33438,2.03893c-0.34068,-0.0489 -2.73068,-0.90369 -3.0638,-0.91794c-0.7433,-0.03179 -1.6862,1.92502 -2.37218,1.9593c-1.05791,0.05286 -3.32297,1.08514 -3.96079,0.13386c-0.54938,-0.81937 0.45206,-3.6389 0.45206,-3.6389l0.08495,-2.29369c0,0 4.08914,-1.10437 6.03154,-1.10437c1.81513,0 5.26697,1.10437 5.26697,1.10437c0,0 -0.76455,1.96138 -0.76455,2.20873c0,0.23321 -0.08496,-0.84951 -0.08496,-0.84951c0,0 0.11872,0.00654 -0.07119,0.29254z" data-paper-data="{&quot;index&quot;:null}" fill="#000000" stroke="none" stroke-linecap="butt"></path><path d="M242.32467,158.56034c1.16431,0.2752 2.06006,0.70187 2.0007,0.953c-0.05936,0.25112 -1.05133,0.23161 -2.21564,-0.04359c-1.16431,-0.2752 -2.06006,-0.70187 -2.0007,-0.95299c0.05936,-0.25112 1.05133,-0.23161 2.21564,0.04359z" data-paper-data="{&quot;index&quot;:null}" fill="#484343" stroke="none" stroke-linecap="butt"></path><path d="M243.95869,195.76198l-0.16989,1.18932" data-paper-data="{&quot;index&quot;:null}" fill="none" stroke="#0035ea" stroke-linecap="round"></path><path d="M242.34462,199.16002l0.1699,1.69903" data-paper-data="{&quot;index&quot;:null}" fill="none" stroke="#0035ea" stroke-linecap="round"></path><path d="M243.70384,200.43429l-0.1699,1.95387" data-paper-data="{&quot;index&quot;:null}" fill="none" stroke="#0035ea" stroke-linecap="round"></path><path d="M236.90774,198.31051v2.29368l-0.08495,1.18931" data-paper-data="{&quot;index&quot;:null}" fill="none" stroke="#0035ea" stroke-linecap="round"></path><path d="M236.14318,194.74257l0.25486,2.54853" data-paper-data="{&quot;index&quot;:null}" fill="none" stroke="#0035ea" stroke-linecap="round"></path><path d="M237.58735,195.50712v1.86893" data-paper-data="{&quot;index&quot;:null}" fill="none" stroke="#0035ea" stroke-linecap="round"></path><path d="M235.63348,201.96341l0.1699,-1.35922" data-paper-data="{&quot;index&quot;:null}" fill="none" stroke="#0035ea" stroke-linecap="round"></path><path d="M242.25967,196.27169l0.08495,-1.61408" data-paper-data="{&quot;index&quot;:null}" fill="none" stroke="#0035ea" stroke-linecap="round"></path><path d="M242.34462,204.17214l0.84951,0.25486" data-paper-data="{&quot;index&quot;:null}" fill="none" stroke="#000000" stroke-linecap="round"></path><path d="M241.74996,205.19156l0.76456,0.33981" data-paper-data="{&quot;index&quot;:null}" fill="none" stroke="#000000" stroke-linecap="round"></path><path d="M236.8228,205.95612l0.67961,-1.01941" data-paper-data="{&quot;index&quot;:null}" fill="none" stroke="#000000" stroke-linecap="round"></path><path d="M235.88832,205.70126l0.93446,-0.93446" data-paper-data="{&quot;index&quot;:null}" fill="none" stroke="#000000" stroke-linecap="round"></path><path d="M246.82586,179.79005l-1.82696,-4.48434l1.78436,-2.56442l2.16676,6.18336z" data-paper-data="{&quot;index&quot;:null}" fill="#da5757" stroke="none" stroke-linecap="butt"></path><path d="M231.15611,180.78935l2.16676,-6.18336l1.78436,2.56442l-1.82696,4.48433z" data-paper-data="{&quot;index&quot;:null}" fill="#da5757" stroke="none" stroke-linecap="butt"></path><path d="M249.51288,191.74643c0,0 -0.19698,0.57237 -0.34974,0.59467c-0.1869,0.02728 -0.69004,-0.44289 -0.69004,-0.44289l-0.58833,-2.26039l0.83957,-0.21852l0.78852,2.32713z" data-paper-data="{&quot;index&quot;:null}" fill="#f1ad60" stroke="none" stroke-linecap="butt"></path><path d="M250.45049,190.87555c0,0 -0.19698,0.57236 -0.34974,0.59467c-0.1869,0.02729 -0.69004,-0.44288 -0.69004,-0.44288l-0.58833,-2.2604l0.83958,-0.21852l0.78852,2.32714z" data-paper-data="{&quot;index&quot;:null}" fill="#f1ad60" stroke="none" stroke-linecap="butt"></path><path d="M251.57532,190.33278c-0.12996,0.13705 -0.81613,0.07892 -0.81613,0.07892l-1.8606,-1.41198l0.52445,-0.69108l2.05918,1.34056c0,0 0.19933,0.57155 0.0931,0.68358z" data-paper-data="{&quot;index&quot;:null}" fill="#f1ad60" stroke="none" stroke-linecap="butt"></path><path d="M247.53086,192.15371c0,0 -0.54117,0.2712 -0.66593,0.18025c-0.15264,-0.11125 -0.18324,-0.7992 -0.18324,-0.7992l1.16093,-2.02675l0.7528,0.4312l-1.06457,2.2145z" data-paper-data="{&quot;index&quot;:null}" fill="#f1ad60" stroke="none" stroke-linecap="butt"></path><path d="M246.5668,190.98418c0,0 -0.597,-0.09993 -0.64418,-0.24694c-0.05773,-0.17984 0.32309,-0.7536 0.32309,-0.7536l2.1325,-0.95284l0.35391,0.79208l-2.16534,1.1613z" data-paper-data="{&quot;index&quot;:null}" fill="#f1ad60" stroke="none" stroke-linecap="butt"></path><path d="M230.35144,194.14553l0.78852,-2.32712l0.83957,0.21852l-0.58832,2.26039c0,0 -0.50314,0.47017 -0.69004,0.44289c-0.15277,-0.02231 -0.34974,-0.59468 -0.34974,-0.59468z" data-paper-data="{&quot;index&quot;:null}" fill="#f1ad60" stroke="none" stroke-linecap="butt"></path><path d="M230.09724,193.80259c-0.15277,-0.02231 -0.34974,-0.59467 -0.34974,-0.59467l0.78852,-2.32712l0.83957,0.21852l-0.58833,2.26039c0,0 -0.50314,0.47017 -0.69004,0.44289z" data-paper-data="{&quot;index&quot;:null}" fill="#f1ad60" stroke="none" stroke-linecap="butt"></path><path d="M228.38208,192.0483l2.05918,-1.34056l0.52445,0.69108l-1.8606,1.41198c0,0 -0.68617,0.05815 -0.81613,-0.07892c-0.10623,-0.11203 0.0931,-0.68358 0.0931,-0.68358z" data-paper-data="{&quot;index&quot;:null}" fill="#f1ad60" stroke="none" stroke-linecap="butt"></path><path d="M232.99936,194.73306c-0.12476,0.09094 -0.66592,-0.18025 -0.66592,-0.18025l-1.06456,-2.21449l0.7528,-0.43121l1.16093,2.02675c0,0 -0.0306,0.68795 -0.18324,0.7992z" data-paper-data="{&quot;index&quot;:null}" fill="#f1ad60" stroke="none" stroke-linecap="butt"></path><path d="M233.94168,193.13633c-0.04717,0.14701 -0.64417,0.24694 -0.64417,0.24694l-2.16533,-1.1613l0.35391,-0.79208l2.13251,0.95285c0,0 0.3808,0.57375 0.32309,0.75359z" data-paper-data="{&quot;index&quot;:null}" fill="#f1ad60" stroke="none" stroke-linecap="butt"></path><path d="M237.15638,160.61906c1.13659,-0.37352 2.12329,-0.4776 2.20385,-0.23245c0.08056,0.24515 -0.77551,0.74668 -1.9121,1.1202c-1.13659,0.37352 -2.12329,0.4776 -2.20385,0.23245c-0.08056,-0.24515 0.77551,-0.74668 1.9121,-1.1202z" data-paper-data="{&quot;index&quot;:null}" fill="#484343" stroke="none" stroke-linecap="butt"></path><path d="M245.47565,169.20989l-5.83649,8.80593l-4.91494,-9.01071" fill="none" stroke="#da5757" stroke-linecap="round"></path><path d="M234.31465,193.57978l5.32451,-6.45085l5.93888,6.86043" fill="none" stroke="#da5757" stroke-linecap="round"></path></g></g></svg>