<svg version="1.1" xmlns="http://www.w3.org/2000/svg" xmlns:xlink="http://www.w3.org/1999/xlink" width="112.791" height="89.24969" viewBox="0,0,112.791,89.24969"><defs><linearGradient x1="197.88103" y1="149.31536" x2="204.47645" y2="149.31536" gradientUnits="userSpaceOnUse" id="color-1"><stop offset="0" stop-color="#9e7f4a"></stop><stop offset="1" stop-color="#d88e65"></stop></linearGradient><radialGradient cx="204.13667" cy="150.1288" r="3.7474" gradientUnits="userSpaceOnUse" id="color-2"><stop offset="0" stop-color="#cf6734"></stop><stop offset="1" stop-color="#cf8634"></stop></radialGradient><linearGradient x1="238.77816" y1="184.93536" x2="238.77816" y2="209.98954" gradientUnits="userSpaceOnUse" id="color-3"><stop offset="0" stop-color="#e1e1e1"></stop><stop offset="1" stop-color="#fdfdfd"></stop></linearGradient><linearGradient x1="235.49786" y1="185.17326" x2="235.49786" y2="188.92752" gradientUnits="userSpaceOnUse" id="color-4"><stop offset="0" stop-color="#ffffff"></stop><stop offset="1" stop-color="#bcbcbc"></stop></linearGradient><linearGradient x1="242.06285" y1="185.42856" x2="241.29163" y2="189.10276" gradientUnits="userSpaceOnUse" id="color-5"><stop offset="0" stop-color="#ffffff"></stop><stop offset="1" stop-color="#bcbcbc"></stop></linearGradient><radialGradient cx="250.28405" cy="184.77286" r="3.45574" gradientUnits="userSpaceOnUse" id="color-6"><stop offset="0" stop-color="#946000"></stop><stop offset="1" stop-color="#de820e"></stop></radialGradient><radialGradient cx="250.0358" cy="178.7668" r="2.45625" gradientUnits="userSpaceOnUse" id="color-7"><stop offset="0" stop-color="#ffea00"></stop><stop offset="1" stop-color="#ffea00" stop-opacity="0"></stop></radialGradient></defs><g transform="translate(-183.6045,-135.42657)"><g data-paper-data="{&quot;isPaintingLayer&quot;:true}" fill-rule="nonzero" stroke-linejoin="miter" stroke-miterlimit="10" stroke-dasharray="" stroke-dashoffset="0" style="mix-blend-mode: normal"><path d="M184.06265,222.35301v-85.76139h11.75542v85.76139z" fill="#915e23" stroke="none" stroke-width="0" stroke-linecap="butt"></path><path d="M183.86315,223.08663v-9.59173h112.19075v9.59173z" fill="#bb792d" stroke="none" stroke-width="NaN" stroke-linecap="butt"></path><g stroke-linecap="butt"><path d="M193.85285,213.11405l-9.91097,-0.09751l0.33885,-36.03281l9.91097,0.09751z" fill="#affff4" stroke="#000000" stroke-width="0"></path><path d="M187.20357,212.9741l-0.73285,-0.00705c0,0 -1.26025,-1.32197 -1.25392,-1.97937c0.00791,-0.82245 1.29771,-2.57202 1.29771,-2.57202l0.73285,0.00705c0,0 -1.25136,1.76519 -1.25913,2.57239c-0.00666,0.69217 1.21535,1.979 1.21535,1.979z" fill="#005eff" stroke="none" stroke-width="0.5"></path><path d="M187.72228,206.53173c0.00777,-0.8072 -1.20942,-2.59613 -1.20942,-2.59613l0.73285,0.00705c0,0 1.25589,1.77405 1.24798,2.59651c-0.00632,0.65739 -1.29176,1.95488 -1.29176,1.95488l-0.73285,-0.00705c0,0 1.24654,-1.26308 1.2532,-1.95525z" data-paper-data="{&quot;index&quot;:null}" fill="#005eff" stroke="none" stroke-width="0.5"></path><path d="M187.26575,203.95544l-0.73285,-0.00705c0,0 -1.26025,-1.32197 -1.25392,-1.97937c0.00791,-0.82245 1.29771,-2.57202 1.29771,-2.57202l0.73285,0.00705c0,0 -1.25137,1.76519 -1.25913,2.57239c-0.00666,0.69217 1.21535,1.979 1.21535,1.979z" fill="#005eff" stroke="none" stroke-width="0.5"></path><path d="M187.80498,197.47561c0.00777,-0.8072 -1.20942,-2.59613 -1.20942,-2.59613l0.73285,0.00705c0,0 1.25589,1.77405 1.24799,2.59651c-0.00632,0.65739 -1.29176,1.95488 -1.29176,1.95488l-0.73285,-0.00705c0,0 1.24654,-1.26308 1.2532,-1.95525z" data-paper-data="{&quot;index&quot;:null}" fill="#005eff" stroke="none" stroke-width="0.5"></path><path d="M187.41421,194.94934l-0.73285,-0.00705c0,0 -1.26025,-1.32197 -1.25392,-1.97937c0.00791,-0.82245 1.29771,-2.57202 1.29771,-2.57202l0.73285,0.00705c0,0 -1.25137,1.76519 -1.25913,2.57239c-0.00666,0.69217 1.21536,1.979 1.21536,1.979z" fill="#005eff" stroke="none" stroke-width="0.5"></path><path d="M187.54619,185.9555l-0.73285,-0.00705c0,0 -1.26025,-1.32197 -1.25392,-1.97937c0.00791,-0.82245 1.29771,-2.57202 1.29771,-2.57202l0.73285,0.00705c0,0 -1.25137,1.76519 -1.25913,2.57239c-0.00666,0.69217 1.21536,1.979 1.21536,1.979z" fill="#005eff" stroke="none" stroke-width="0.5"></path><path d="M188.1228,179.4521c0.00777,-0.8072 -1.20942,-2.59613 -1.20942,-2.59613l0.73285,0.00705c0,0 1.25589,1.77405 1.24798,2.59651c-0.00632,0.65739 -1.29176,1.95488 -1.29176,1.95488l-0.73285,-0.00705c0,0 1.24654,-1.26308 1.2532,-1.95525z" data-paper-data="{&quot;index&quot;:null}" fill="#005eff" stroke="none" stroke-width="0.5"></path><path d="M187.95612,188.46954c0.00777,-0.8072 -1.20942,-2.59613 -1.20942,-2.59613l0.73285,0.00705c0,0 1.25589,1.77405 1.24799,2.59651c-0.00632,0.65739 -1.29176,1.95488 -1.29176,1.95488l-0.73285,-0.00705c0,0 1.24654,-1.26308 1.2532,-1.95525z" data-paper-data="{&quot;index&quot;:null}" fill="#005eff" stroke="none" stroke-width="0.5"></path><path d="M190.12004,178.74493c-0.00777,0.8072 1.20942,2.59613 1.20942,2.59613l-0.73285,-0.00705c0,0 -1.25589,-1.77405 -1.24798,-2.59651c0.00632,-0.65739 1.29176,-1.95488 1.29176,-1.95488l0.73285,0.00705c0,0 -1.24654,1.26308 -1.2532,1.95526z" data-paper-data="{&quot;index&quot;:null}" fill="#005eff" stroke="none" stroke-width="0.5"></path><path d="M190.55257,181.26185l0.73285,0.00705c0,0 1.26025,1.32197 1.25392,1.97937c-0.00791,0.82245 -1.29771,2.57202 -1.29771,2.57202l-0.73285,-0.00705c0,0 1.25136,-1.76519 1.25913,-2.57239c0.00666,-0.69217 -1.21535,-1.979 -1.21535,-1.979z" data-paper-data="{&quot;index&quot;:null}" fill="#005eff" stroke="none" stroke-width="0.5"></path><path d="M190.00871,187.76312c-0.00777,0.8072 1.20942,2.59613 1.20942,2.59613l-0.73285,-0.00705c0,0 -1.25589,-1.77405 -1.24798,-2.59651c0.00632,-0.65739 1.29176,-1.95488 1.29176,-1.95488l0.73285,0.00705c0,0 -1.24654,1.26308 -1.2532,1.95525z" data-paper-data="{&quot;index&quot;:null}" fill="#005eff" stroke="none" stroke-width="0.5"></path><path d="M190.46104,190.31788l0.73285,0.00705c0,0 1.26025,1.32197 1.25392,1.97937c-0.00791,0.82245 -1.29771,2.57202 -1.29771,2.57202l-0.73285,-0.00705c0,0 1.25136,-1.76519 1.25913,-2.57239c0.00666,-0.69217 -1.21535,-1.979 -1.21535,-1.979z" data-paper-data="{&quot;index&quot;:null}" fill="#005eff" stroke="none" stroke-width="0.5"></path><path d="M189.9839,196.77041c-0.00777,0.8072 1.20942,2.59613 1.20942,2.59613l-0.73285,-0.00705c0,0 -1.25589,-1.77405 -1.24799,-2.59651c0.00632,-0.65739 1.29176,-1.95488 1.29176,-1.95488l0.73285,0.00705c0,0 -1.24654,1.26308 -1.2532,1.95525z" data-paper-data="{&quot;index&quot;:null}" fill="#005eff" stroke="none" stroke-width="0.5"></path><path d="M189.94285,205.76513c-0.00777,0.8072 1.20942,2.59613 1.20942,2.59613l-0.73285,-0.00705c0,0 -1.25589,-1.77405 -1.24799,-2.59651c0.00632,-0.65739 1.29177,-1.95488 1.29177,-1.95488l0.73285,0.00705c0,0 -1.24654,1.26308 -1.2532,1.95525z" data-paper-data="{&quot;index&quot;:null}" fill="#005eff" stroke="none" stroke-width="0.5"></path><path d="M190.4321,208.34416l0.73285,0.00705c0,0 1.26025,1.32197 1.25392,1.97937c-0.00791,0.82245 -1.29771,2.57202 -1.29771,2.57202l-0.73285,-0.00705c0,0 1.25137,-1.76519 1.25913,-2.57239c0.00666,-0.69217 -1.21536,-1.979 -1.21536,-1.979z" data-paper-data="{&quot;index&quot;:null}" fill="#005eff" stroke="none" stroke-width="0.5"></path><path d="M190.43891,199.32519l0.73285,0.00705c0,0 1.26025,1.32197 1.25392,1.97937c-0.00791,0.82245 -1.29771,2.57202 -1.29771,2.57202l-0.73285,-0.00705c0,0 1.25136,-1.76519 1.25913,-2.57239c0.00666,-0.69217 -1.21535,-1.979 -1.21535,-1.979z" data-paper-data="{&quot;index&quot;:null}" fill="#005eff" stroke="none" stroke-width="0.5"></path></g><g stroke-linecap="butt"><path d="M194.08335,177.27155l-9.91097,-0.09751l0.33887,-36.03281l9.91097,0.09751z" fill="#affff4" stroke="#000000" stroke-width="0"></path><path d="M187.43407,177.1316l-0.73285,-0.00705c0,0 -1.26025,-1.32197 -1.25392,-1.97937c0.00791,-0.82245 1.29771,-2.57202 1.29771,-2.57202l0.73285,0.00705c0,0 -1.25136,1.76519 -1.25913,2.57239c-0.00666,0.69217 1.21535,1.979 1.21535,1.979z" fill="#005eff" stroke="none" stroke-width="0.5"></path><path d="M187.95278,170.68922c0.00777,-0.8072 -1.20942,-2.59613 -1.20942,-2.59613l0.73285,0.00705c0,0 1.25589,1.77405 1.24798,2.59651c-0.00632,0.65739 -1.29176,1.95488 -1.29176,1.95488l-0.73285,-0.00705c0,0 1.24654,-1.26308 1.2532,-1.95525z" data-paper-data="{&quot;index&quot;:null}" fill="#005eff" stroke="none" stroke-width="0.5"></path><path d="M187.49625,168.11294l-0.73285,-0.00705c0,0 -1.26025,-1.32197 -1.25392,-1.97937c0.00791,-0.82245 1.29771,-2.57202 1.29771,-2.57202l0.73285,0.00705c0,0 -1.25136,1.76519 -1.25913,2.57239c-0.00666,0.69217 1.21535,1.979 1.21535,1.979z" fill="#005eff" stroke="none" stroke-width="0.5"></path><path d="M188.03548,161.63311c0.00777,-0.8072 -1.20942,-2.59613 -1.20942,-2.59613l0.73285,0.00705c0,0 1.25589,1.77405 1.24799,2.59651c-0.00632,0.65739 -1.29177,1.95488 -1.29177,1.95488l-0.73285,-0.00705c0,0 1.24654,-1.26308 1.2532,-1.95525z" data-paper-data="{&quot;index&quot;:null}" fill="#005eff" stroke="none" stroke-width="0.5"></path><path d="M187.64471,159.10683l-0.73285,-0.00705c0,0 -1.26025,-1.32197 -1.25392,-1.97937c0.00791,-0.82245 1.29771,-2.57202 1.29771,-2.57202l0.73285,0.00705c0,0 -1.25137,1.76519 -1.25913,2.57239c-0.00666,0.69217 1.21536,1.979 1.21536,1.979z" fill="#005eff" stroke="none" stroke-width="0.5"></path><path d="M187.77668,150.11299l-0.73285,-0.00705c0,0 -1.26025,-1.32197 -1.25392,-1.97937c0.00791,-0.82245 1.29771,-2.57202 1.29771,-2.57202l0.73285,0.00705c0,0 -1.25137,1.76519 -1.25913,2.57239c-0.00666,0.69217 1.21535,1.979 1.21535,1.979z" fill="#005eff" stroke="none" stroke-width="0.5"></path><path d="M188.3533,143.60959c0.00777,-0.8072 -1.20942,-2.59613 -1.20942,-2.59613l0.73285,0.00705c0,0 1.25589,1.77405 1.24798,2.59651c-0.00632,0.65739 -1.29176,1.95488 -1.29176,1.95488l-0.73285,-0.00705c0,0 1.24654,-1.26308 1.2532,-1.95525z" data-paper-data="{&quot;index&quot;:null}" fill="#005eff" stroke="none" stroke-width="0.5"></path><path d="M188.18662,152.62703c0.00777,-0.8072 -1.20942,-2.59613 -1.20942,-2.59613l0.73285,0.00705c0,0 1.25589,1.77405 1.24798,2.59651c-0.00632,0.65739 -1.29176,1.95488 -1.29176,1.95488l-0.73285,-0.00705c0,0 1.24654,-1.26308 1.2532,-1.95525z" data-paper-data="{&quot;index&quot;:null}" fill="#005eff" stroke="none" stroke-width="0.5"></path><path d="M190.35053,142.90242c-0.00777,0.8072 1.20942,2.59613 1.20942,2.59613l-0.73285,-0.00705c0,0 -1.25589,-1.77405 -1.24798,-2.59651c0.00632,-0.65739 1.29176,-1.95488 1.29176,-1.95488l0.73285,0.00705c0,0 -1.24654,1.26308 -1.2532,1.95526z" data-paper-data="{&quot;index&quot;:null}" fill="#005eff" stroke="none" stroke-width="0.5"></path><path d="M190.78307,145.41934l0.73285,0.00705c0,0 1.26025,1.32197 1.25392,1.97937c-0.00791,0.82245 -1.29771,2.57202 -1.29771,2.57202l-0.73285,-0.00705c0,0 1.25136,-1.76519 1.25913,-2.57239c0.00666,-0.69217 -1.21535,-1.979 -1.21535,-1.979z" data-paper-data="{&quot;index&quot;:null}" fill="#005eff" stroke="none" stroke-width="0.5"></path><path d="M190.23921,151.92061c-0.00777,0.8072 1.20942,2.59613 1.20942,2.59613l-0.73285,-0.00705c0,0 -1.25589,-1.77405 -1.24798,-2.59651c0.00632,-0.65739 1.29176,-1.95488 1.29176,-1.95488l0.73285,0.00705c0,0 -1.24654,1.26308 -1.2532,1.95525z" data-paper-data="{&quot;index&quot;:null}" fill="#005eff" stroke="none" stroke-width="0.5"></path><path d="M190.69154,154.47537l0.73285,0.00705c0,0 1.26025,1.32197 1.25392,1.97937c-0.00791,0.82245 -1.29771,2.57202 -1.29771,2.57202l-0.73285,-0.00705c0,0 1.25136,-1.76519 1.25913,-2.57239c0.00666,-0.69217 -1.21535,-1.979 -1.21535,-1.979z" data-paper-data="{&quot;index&quot;:null}" fill="#005eff" stroke="none" stroke-width="0.5"></path><path d="M190.2144,160.92791c-0.00777,0.8072 1.20942,2.59613 1.20942,2.59613l-0.73285,-0.00705c0,0 -1.25589,-1.77405 -1.24799,-2.59651c0.00632,-0.65739 1.29176,-1.95488 1.29176,-1.95488l0.73285,0.00705c0,0 -1.24654,1.26308 -1.2532,1.95525z" data-paper-data="{&quot;index&quot;:null}" fill="#005eff" stroke="none" stroke-width="0.5"></path><path d="M190.17336,169.92262c-0.00777,0.8072 1.20942,2.59613 1.20942,2.59613l-0.73285,-0.00705c0,0 -1.25589,-1.77405 -1.24799,-2.5965c0.00632,-0.65739 1.29177,-1.95488 1.29177,-1.95488l0.73285,0.00705c0,0 -1.24654,1.26308 -1.2532,1.95525z" data-paper-data="{&quot;index&quot;:null}" fill="#005eff" stroke="none" stroke-width="0.5"></path><path d="M190.6626,172.50166l0.73285,0.00705c0,0 1.26025,1.32197 1.25392,1.97937c-0.00791,0.82245 -1.29771,2.57202 -1.29771,2.57202l-0.73285,-0.00705c0,0 1.25136,-1.76519 1.25913,-2.57239c0.00666,-0.69217 -1.21535,-1.979 -1.21535,-1.979z" data-paper-data="{&quot;index&quot;:null}" fill="#005eff" stroke="none" stroke-width="0.5"></path><path d="M190.66941,163.48269l0.73285,0.00705c0,0 1.26025,1.32197 1.25392,1.97937c-0.00791,0.82245 -1.29771,2.57202 -1.29771,2.57202l-0.73285,-0.00705c0,0 1.25136,-1.76519 1.25913,-2.57239c0.00666,-0.69217 -1.21535,-1.979 -1.21535,-1.979z" data-paper-data="{&quot;index&quot;:null}" fill="#005eff" stroke="none" stroke-width="0.5"></path></g><path d="M195.58757,213.47883v-72.607h1.61348v72.607z" fill="#ffffff" stroke="none" stroke-width="0" stroke-linecap="butt"></path><path d="M183.6045,151.98411v-16.55754h111.43662v16.55754z" fill="#b18654" stroke="none" stroke-width="0" stroke-linecap="butt"></path><g stroke-linecap="butt"><path d="M184.23905,148.83155l-0.05462,-12.67527l46.0825,-0.2186l0.05462,12.67527z" fill="#affff4" stroke="#000000" stroke-width="0"></path><path d="M184.29769,140.32636l-0.00425,-0.93725c0,0 1.66766,-1.63543 2.5084,-1.63925c1.05184,-0.00476 3.3124,1.61288 3.3124,1.61288l0.00425,0.93725c0,0 -2.27984,-1.56823 -3.31218,-1.56355c-0.88522,0.004 -2.50863,1.58991 -2.50863,1.58991z" fill="#005eff" stroke="none" stroke-width="0.5"></path><path d="M192.54517,140.8731c1.03234,-0.00468 3.29788,-1.5935 3.29788,-1.5935l0.00425,0.93725c0,0 -2.24582,1.63806 -3.29766,1.64282c-0.84074,0.0038 -2.52315,-1.61646 -2.52315,-1.61646l-0.00425,-0.93725c0,0 1.6377,1.57114 2.52292,1.56713z" data-paper-data="{&quot;index&quot;:null}" fill="#005eff" stroke="none" stroke-width="0.5"></path><path d="M195.83129,140.24269l-0.00425,-0.93725c0,0 1.66766,-1.63543 2.5084,-1.63925c1.05184,-0.00476 3.3124,1.61288 3.3124,1.61288l0.00425,0.93725c0,0 -2.27984,-1.56823 -3.31218,-1.56356c-0.88522,0.004 -2.50863,1.58991 -2.50863,1.58991z" fill="#005eff" stroke="none" stroke-width="0.5"></path><path d="M204.12702,140.815c1.03234,-0.00468 3.29788,-1.5935 3.29788,-1.5935l0.00425,0.93725c0,0 -2.24582,1.63806 -3.29766,1.64282c-0.84074,0.0038 -2.52315,-1.61646 -2.52315,-1.61646l-0.00425,-0.93725c0,0 1.6377,1.57114 2.52292,1.56713z" data-paper-data="{&quot;index&quot;:null}" fill="#005eff" stroke="none" stroke-width="0.5"></path><path d="M207.3504,140.26959l-0.00425,-0.93725c0,0 1.66766,-1.63543 2.5084,-1.63925c1.05184,-0.00476 3.3124,1.61288 3.3124,1.61288l0.00425,0.93725c0,0 -2.27984,-1.56823 -3.31218,-1.56356c-0.88522,0.00401 -2.50862,1.58992 -2.50862,1.58992z" fill="#005eff" stroke="none" stroke-width="0.5"></path><path d="M218.8535,140.27565l-0.00425,-0.93725c0,0 1.66766,-1.63543 2.5084,-1.63925c1.05184,-0.00476 3.3124,1.61288 3.3124,1.61288l0.00425,0.93725c0,0 -2.27984,-1.56823 -3.31218,-1.56356c-0.88522,0.004 -2.50863,1.58991 -2.50863,1.58991z" fill="#005eff" stroke="none" stroke-width="0.5"></path><path d="M227.18006,140.89531c1.03234,-0.00468 3.29788,-1.5935 3.29788,-1.5935l0.00425,0.93725c0,0 -2.24582,1.63806 -3.29766,1.64282c-0.84074,0.0038 -2.52315,-1.61646 -2.52315,-1.61646l-0.00425,-0.93725c0,0 1.6377,1.57114 2.52292,1.56713z" data-paper-data="{&quot;index&quot;:null}" fill="#005eff" stroke="none" stroke-width="0.5"></path><path d="M215.64614,140.84532c1.03234,-0.00468 3.29788,-1.5935 3.29788,-1.5935l0.00425,0.93725c0,0 -2.24582,1.63806 -3.29766,1.64282c-0.84074,0.0038 -2.52315,-1.61646 -2.52315,-1.61646l-0.00425,-0.93725c0,0 1.6377,1.57114 2.52292,1.56713z" data-paper-data="{&quot;index&quot;:null}" fill="#005eff" stroke="none" stroke-width="0.5"></path><path d="M228.12048,143.43645c-1.03234,0.00468 -3.29788,1.5935 -3.29788,1.5935l-0.00425,-0.93725c0,0 2.24582,-1.63806 3.29766,-1.64282c0.84074,-0.0038 2.52315,1.61646 2.52315,1.61646l0.00425,0.93725c0,0 -1.6377,-1.57114 -2.52293,-1.56713z" data-paper-data="{&quot;index&quot;:null}" fill="#005eff" stroke="none" stroke-width="0.5"></path><path d="M224.90983,144.03508l0.00425,0.93725c0,0 -1.66766,1.63544 -2.5084,1.63925c-1.05184,0.00476 -3.3124,-1.61288 -3.3124,-1.61288l-0.00425,-0.93725c0,0 2.27984,1.56823 3.31218,1.56355c0.88522,-0.004 2.50863,-1.58991 2.50863,-1.58991z" data-paper-data="{&quot;index&quot;:null}" fill="#005eff" stroke="none" stroke-width="0.5"></path><path d="M216.58659,143.45726c-1.03234,0.00468 -3.29788,1.5935 -3.29788,1.5935l-0.00425,-0.93725c0,0 2.24582,-1.63806 3.29766,-1.64282c0.84074,-0.0038 2.52315,1.61646 2.52315,1.61646l0.00425,0.93725c0,0 -1.6377,-1.57114 -2.52292,-1.56713z" data-paper-data="{&quot;index&quot;:null}" fill="#005eff" stroke="none" stroke-width="0.5"></path><path d="M213.32793,144.08189l0.00425,0.93725c0,0 -1.66766,1.63544 -2.5084,1.63925c-1.05184,0.00476 -3.3124,-1.61288 -3.3124,-1.61288l-0.00425,-0.93725c0,0 2.27984,1.56823 3.31218,1.56356c0.88522,-0.004 2.50863,-1.58991 2.50863,-1.58991z" data-paper-data="{&quot;index&quot;:null}" fill="#005eff" stroke="none" stroke-width="0.5"></path><path d="M205.06821,143.5885c-1.03234,0.00468 -3.29788,1.5935 -3.29788,1.5935l-0.00425,-0.93725c0,0 2.24582,-1.63806 3.29766,-1.64282c0.84074,-0.0038 2.52315,1.61646 2.52315,1.61646l0.00425,0.93725c0,0 -1.6377,-1.57114 -2.52292,-1.56713z" data-paper-data="{&quot;index&quot;:null}" fill="#005eff" stroke="none" stroke-width="0.5"></path><path d="M193.56561,143.69875c-1.03234,0.00468 -3.29788,1.5935 -3.29788,1.5935l-0.00425,-0.93725c0,0 2.24582,-1.63806 3.29766,-1.64282c0.84074,-0.0038 2.52315,1.61646 2.52315,1.61646l0.00425,0.93725c0,0 -1.6377,-1.57114 -2.52292,-1.56713z" data-paper-data="{&quot;index&quot;:null}" fill="#005eff" stroke="none" stroke-width="0.5"></path><path d="M190.27657,144.37101l0.00425,0.93725c0,0 -1.66766,1.63543 -2.5084,1.63925c-1.05184,0.00476 -3.3124,-1.61288 -3.3124,-1.61288l-0.00425,-0.93725c0,0 2.27984,1.56823 3.31218,1.56356c0.88522,-0.004 2.50863,-1.58991 2.50863,-1.58991z" data-paper-data="{&quot;index&quot;:null}" fill="#005eff" stroke="none" stroke-width="0.5"></path><path d="M201.80956,144.21656l0.00425,0.93725c0,0 -1.66766,1.63543 -2.5084,1.63925c-1.05184,0.00476 -3.3124,-1.61288 -3.3124,-1.61288l-0.00425,-0.93725c0,0 2.27984,1.56823 3.31218,1.56355c0.88522,-0.004 2.50863,-1.58991 2.50863,-1.58991z" data-paper-data="{&quot;index&quot;:null}" fill="#005eff" stroke="none" stroke-width="0.5"></path></g><g stroke-width="0.05"><path d="M204.47645,149.31536c0,0.33997 -1.47644,0.61557 -3.29772,0.61557c-1.82128,0 -3.29772,-0.2756 -3.29772,-0.61557c0,-0.33997 1.47644,-0.61557 3.29772,-0.61557c1.82128,0 3.29772,0.2756 3.29772,0.61557z" fill="url(#color-1)" stroke="none" stroke-linecap="butt"></path><path d="M198.76041,156.0347l-1.25913,-6.29563l7.4948,-0.23984l-1.19917,6.53546z" fill="url(#color-2)" stroke="#000000" stroke-linecap="butt"></path><path d="M197.3414,149.89895v-0.59959h7.91451v0.59959z" fill="#cea234" stroke="none" stroke-linecap="butt"></path><path d="M200.39408,148.80768c0,0 0.33633,-3.14325 0.4046,-4.36115c0.04904,-0.87485 -0.03324,-2.26384 -0.03324,-2.26384l0.77823,0.04362c0,0 -0.27131,2.69755 -0.33784,3.88448c-0.05508,0.98256 -0.03351,2.74052 -0.03351,2.74052z" fill="#108d00" stroke="none" stroke-linecap="butt"></path><g stroke="none" stroke-linecap="butt"><path d="M200.68277,147.05947l0.48614,-1.03027l1.3014,0.61408c0,0 0.08846,0.42465 0.01459,0.60521c-0.06989,0.17085 -0.44651,0.45064 -0.44651,0.45064z" data-paper-data="{&quot;index&quot;:null}" fill="#108d00"></path><path d="M200.92922,146.57908l0.05117,-0.10845l0.88929,0.41961l-0.05117,0.10845z" fill="#14ab00"></path><path d="M201.59647,147.47734l0.46056,-0.97605l0.09115,0.043l-0.46056,0.97605z" fill="#14ab00"></path><path d="M201.86761,147.03512l0.04094,-0.08676l0.60732,0.28657l-0.04094,0.08676z" fill="#14ab00"></path></g><g data-paper-data="{&quot;index&quot;:null}" stroke="none" stroke-linecap="butt"><path d="M199.55653,146.14216c0,0 -0.31575,-0.34703 -0.35146,-0.52814c-0.03773,-0.19141 0.13079,-0.5911 0.13079,-0.5911l1.39524,-0.35217l0.2788,1.10457z" data-paper-data="{&quot;index&quot;:null}" fill="#108d00"></path><path d="M199.90709,145.49712l-0.02935,-0.11627l0.95341,-0.24065l0.02935,0.11627z" fill="#14ab00"></path><path d="M199.93516,146.03422l-0.26414,-1.04643l0.09772,-0.02467l0.26412,1.04644z" fill="#14ab00"></path><path d="M199.20078,145.68777l-0.02348,-0.09301l0.65111,-0.16435l0.02348,0.09301z" fill="#14ab00"></path></g><g data-paper-data="{&quot;index&quot;:null}" stroke="none" stroke-linecap="butt"><path d="M199.56786,144.00357c0,0 -0.30123,-0.35971 -0.32947,-0.54213c-0.02984,-0.1928 0.15495,-0.58522 0.15495,-0.58522l1.40853,-0.29457l0.2332,1.11509z" data-paper-data="{&quot;index&quot;:null}" fill="#108d00"></path><path d="M199.94462,143.37348l-0.02455,-0.11738l0.9625,-0.20129l0.02455,0.11737z" fill="#14ab00"></path><path d="M199.95061,143.91127l-0.22093,-1.05639l0.09865,-0.02063l0.22093,1.05639z" fill="#14ab00"></path><path d="M199.23107,143.53495l-0.01964,-0.09391l0.65731,-0.13747l0.01964,0.09391z" fill="#14ab00"></path></g><g data-paper-data="{&quot;index&quot;:null}" stroke="none" stroke-linecap="butt"><path d="M201.11013,144.55016l0.21692,-1.11836l1.41268,0.274c0,0 0.1905,0.3897 0.16346,0.58291c-0.02557,0.18281 -0.32152,0.54688 -0.32152,0.54688z" data-paper-data="{&quot;index&quot;:null}" fill="#108d00"></path><path d="M201.23044,144.02382l0.02283,-0.11772l0.96533,0.18724l-0.02283,0.11772z" fill="#14ab00"></path><path d="M202.09868,144.72969l0.2055,-1.0595l0.09893,0.01919l-0.2055,1.0595z" fill="#14ab00"></path><path d="M202.25234,144.23424l0.01827,-0.09418l0.65925,0.12787l-0.01827,0.09418z" fill="#14ab00"></path></g><path d="M201.16201,142.77869l-0.37694,-0.5654l2.00927,-0.95312l0.05715,0.16568z" fill="#108d00" stroke="none" stroke-linecap="butt"></path><g data-paper-data="{&quot;index&quot;:null}" stroke="none" stroke-linecap="butt"><path d="M201.89226,142.21184l0.22748,-0.56999l0.71998,0.28734c0,0 0.06155,0.22542 0.02778,0.32495c-0.03196,0.09417 -0.22525,0.25701 -0.22525,0.25701z" data-paper-data="{&quot;index&quot;:null}" fill="#108d00"></path><path d="M202.00896,141.94542l0.02394,-0.06l0.49199,0.19635l-0.02394,0.06z" fill="#14ab00"></path><path d="M202.39731,142.40645l0.21551,-0.53999l0.05043,0.02013l-0.2155,0.53999z" fill="#14ab00"></path><path d="M202.52855,142.15973l0.01916,-0.048l0.336,0.13409l-0.01916,0.048z" fill="#14ab00"></path></g><g data-paper-data="{&quot;index&quot;:null}" stroke="none" stroke-linecap="butt"><path d="M200.83139,141.72278c0,0 0.04837,-0.17814 0.1009,-0.22829c0.05552,-0.05299 0.22377,-0.08161 0.22377,-0.08161l0.4119,0.38844l-0.30752,0.32608z" data-paper-data="{&quot;index&quot;:null}" fill="#108d00"></path><path d="M201.11953,141.70268l0.03237,-0.03433l0.28146,0.26544l-0.03237,0.03432z" fill="#14ab00"></path><path d="M200.94728,141.82558l0.29133,-0.30892l0.02885,0.02721l-0.29133,0.30892z" fill="#14ab00"></path><path d="M200.90692,141.50866l0.0259,-0.02746l0.19222,0.18127l-0.0259,0.02746z" fill="#14ab00"></path></g><path d="M197.97808,151.56645c0,0 -0.06808,0.05112 -0.09069,-0.00426c-0.04569,-0.11183 -0.16696,-0.62651 -0.16696,-0.62651l1.55049,-1.03538l0.35759,0.51084z" fill="#d5d5d5" stroke="none" stroke-linecap="butt"></path><path d="M198.89561,150.42714l0.35759,-0.51084l1.65043,1.1553l-0.35759,0.51084z" data-paper-data="{&quot;index&quot;:null}" fill="#d5d5d5" stroke="none" stroke-linecap="butt"></path><path d="M200.59627,151.58644l-0.35759,-0.51084l1.65043,-1.1553l0.35759,0.51084z" fill="#d5d5d5" stroke="none" stroke-linecap="butt"></path><path d="M201.55376,150.42714l0.35759,-0.51084l1.65043,1.1553l-0.35759,0.51084z" data-paper-data="{&quot;index&quot;:null}" fill="#d5d5d5" stroke="none" stroke-linecap="butt"></path><path d="M203.27041,151.56244l-0.35759,-0.51084l2.03016,-1.11533l-0.02215,0.47087z" data-paper-data="{&quot;index&quot;:null}" fill="#d5d5d5" stroke="none" stroke-linecap="butt"></path><path d="M198.21792,153.2253l-0.17772,-0.61078l1.51053,-1.07535l0.35759,0.51084z" fill="#d5d5d5" stroke="none" stroke-linecap="butt"></path><path d="M199.1954,152.06601l0.35759,-0.51084l1.65043,1.1553l-0.35759,0.51084z" data-paper-data="{&quot;index&quot;:null}" fill="#d5d5d5" stroke="none" stroke-linecap="butt"></path><path d="M200.89606,153.2253l-0.35759,-0.51084l1.65043,-1.1553l0.35759,0.51084z" fill="#d5d5d5" stroke="none" stroke-linecap="butt"></path><path d="M201.85355,152.06601l0.35759,-0.51084l1.65043,1.1553l-0.35759,0.51084z" data-paper-data="{&quot;index&quot;:null}" fill="#d5d5d5" stroke="none" stroke-linecap="butt"></path><path d="M203.54594,153.20131l-0.37329,-0.51084l1.42563,-0.88402c0.00223,0.13067 -0.08541,0.2903 -0.06408,0.4232c-0.00034,0.01152 -0.06311,0.04305 -0.06311,0.05466c0,0.09447 0.0114,0.18637 0.03296,0.27454z" data-paper-data="{&quot;index&quot;:null}" fill="#d5d5d5" stroke="none" stroke-linecap="butt"></path><path d="M198.67761,155.44375l-0.1977,-0.71071l1.57048,-1.07535l0.35759,0.51084z" fill="#d5d5d5" stroke="none" stroke-linecap="butt"></path><path d="M199.67507,154.18453l0.35759,-0.51084l1.65043,1.1553l-0.35759,0.51084z" data-paper-data="{&quot;index&quot;:null}" fill="#d5d5d5" stroke="none" stroke-linecap="butt"></path><path d="M201.37572,155.34383l-0.35759,-0.51084l1.65043,-1.1553l0.35759,0.51084z" fill="#d5d5d5" stroke="none" stroke-linecap="butt"></path><path d="M202.33322,154.18453l0.36994,-0.51084l1.42596,0.88891c-0.05471,0.08743 -0.05683,0.24211 -0.08715,0.34228c-0.0324,0.10702 -0.02909,0.16028 -0.02909,0.27742c0,0.007 -0.14468,0.03397 -0.14455,0.04094z" data-paper-data="{&quot;index&quot;:null}" fill="#d5d5d5" stroke="none" stroke-linecap="butt"></path><path d="M203.93231,155.0491c0.02292,-0.14156 0.03064,-0.31478 0.09853,-0.43512l-0.07873,0.27497z" data-paper-data="{&quot;index&quot;:null}" fill="#ffffff" stroke="none" stroke-linecap="butt"></path><path d="M204.5621,149.39716l-0.06852,0.11991l0.08566,0.13705l-0.35975,0.18845" fill="none" stroke="#000000" stroke-linecap="round"></path><path d="M204.37366,149.75691l0.10279,0.10279" fill="none" stroke="#000000" stroke-linecap="round"></path></g><g stroke-linecap="butt"><path d="M230.05335,148.67687l-0.05462,-12.67527l46.0825,-0.2186l0.05462,12.67527z" fill="#affff4" stroke="#000000" stroke-width="0"></path><path d="M230.11199,140.17167l-0.00425,-0.93725c0,0 1.66766,-1.63543 2.5084,-1.63925c1.05184,-0.00476 3.3124,1.61288 3.3124,1.61288l0.00425,0.93725c0,0 -2.27984,-1.56823 -3.31218,-1.56355c-0.88522,0.004 -2.50862,1.58991 -2.50862,1.58991z" fill="#005eff" stroke="none" stroke-width="0.5"></path><path d="M238.35947,140.71841c1.03234,-0.00468 3.29788,-1.5935 3.29788,-1.5935l0.00425,0.93725c0,0 -2.24582,1.63806 -3.29766,1.64282c-0.84074,0.0038 -2.52315,-1.61646 -2.52315,-1.61646l-0.00425,-0.93725c0,0 1.6377,1.57114 2.52292,1.56713z" data-paper-data="{&quot;index&quot;:null}" fill="#005eff" stroke="none" stroke-width="0.5"></path><path d="M241.64557,140.08801l-0.00425,-0.93725c0,0 1.66766,-1.63543 2.5084,-1.63925c1.05184,-0.00476 3.3124,1.61288 3.3124,1.61288l0.00425,0.93725c0,0 -2.27984,-1.56823 -3.31218,-1.56356c-0.88522,0.004 -2.50863,1.58991 -2.50863,1.58991z" fill="#005eff" stroke="none" stroke-width="0.5"></path><path d="M249.94131,140.66031c1.03234,-0.00468 3.29788,-1.5935 3.29788,-1.5935l0.00425,0.93725c0,0 -2.24582,1.63806 -3.29766,1.64282c-0.84074,0.0038 -2.52315,-1.61646 -2.52315,-1.61646l-0.00425,-0.93725c0,0 1.6377,1.57114 2.52292,1.56713z" data-paper-data="{&quot;index&quot;:null}" fill="#005eff" stroke="none" stroke-width="0.5"></path><path d="M253.16468,140.11491l-0.00425,-0.93725c0,0 1.66766,-1.63543 2.5084,-1.63925c1.05184,-0.00476 3.3124,1.61288 3.3124,1.61288l0.00425,0.93725c0,0 -2.27984,-1.56824 -3.31218,-1.56356c-0.88522,0.00401 -2.50862,1.58992 -2.50862,1.58992z" fill="#005eff" stroke="none" stroke-width="0.5"></path><path d="M264.6678,140.12097l-0.00425,-0.93725c0,0 1.66766,-1.63543 2.5084,-1.63925c1.05184,-0.00476 3.3124,1.61288 3.3124,1.61288l0.00425,0.93725c0,0 -2.27984,-1.56823 -3.31218,-1.56356c-0.88522,0.004 -2.50863,1.58991 -2.50863,1.58991z" fill="#005eff" stroke="none" stroke-width="0.5"></path><path d="M272.99435,140.74063c1.03234,-0.00468 3.29788,-1.5935 3.29788,-1.5935l0.00425,0.93725c0,0 -2.24582,1.63806 -3.29766,1.64282c-0.84074,0.0038 -2.52315,-1.61646 -2.52315,-1.61646l-0.00425,-0.93725c0,0 1.6377,1.57114 2.52292,1.56713z" data-paper-data="{&quot;index&quot;:null}" fill="#005eff" stroke="none" stroke-width="0.5"></path><path d="M261.46044,140.69064c1.03234,-0.00468 3.29788,-1.5935 3.29788,-1.5935l0.00425,0.93725c0,0 -2.24582,1.63806 -3.29766,1.64282c-0.84074,0.0038 -2.52315,-1.61646 -2.52315,-1.61646l-0.00425,-0.93725c0,0 1.6377,1.57114 2.52292,1.56713z" data-paper-data="{&quot;index&quot;:null}" fill="#005eff" stroke="none" stroke-width="0.5"></path><path d="M273.93477,143.28176c-1.03234,0.00468 -3.29788,1.5935 -3.29788,1.5935l-0.00425,-0.93725c0,0 2.24582,-1.63806 3.29766,-1.64282c0.84074,-0.0038 2.52315,1.61646 2.52315,1.61646l0.00425,0.93725c0,0 -1.6377,-1.57114 -2.52293,-1.56713z" data-paper-data="{&quot;index&quot;:null}" fill="#005eff" stroke="none" stroke-width="0.5"></path><path d="M270.72412,143.8804l0.00425,0.93725c0,0 -1.66766,1.63544 -2.5084,1.63925c-1.05184,0.00476 -3.3124,-1.61288 -3.3124,-1.61288l-0.00425,-0.93725c0,0 2.27984,1.56823 3.31218,1.56355c0.88522,-0.004 2.50863,-1.58991 2.50863,-1.58991z" data-paper-data="{&quot;index&quot;:null}" fill="#005eff" stroke="none" stroke-width="0.5"></path><path d="M262.40088,143.30257c-1.03234,0.00468 -3.29788,1.5935 -3.29788,1.5935l-0.00425,-0.93725c0,0 2.24582,-1.63806 3.29766,-1.64282c0.84074,-0.0038 2.52314,1.61646 2.52314,1.61646l0.00425,0.93725c0,0 -1.6377,-1.57114 -2.52292,-1.56713z" data-paper-data="{&quot;index&quot;:null}" fill="#005eff" stroke="none" stroke-width="0.5"></path><path d="M259.14222,143.92721l0.00425,0.93725c0,0 -1.66766,1.63544 -2.5084,1.63925c-1.05184,0.00476 -3.3124,-1.61288 -3.3124,-1.61288l-0.00425,-0.93725c0,0 2.27984,1.56823 3.31218,1.56356c0.88522,-0.004 2.50863,-1.58991 2.50863,-1.58991z" data-paper-data="{&quot;index&quot;:null}" fill="#005eff" stroke="none" stroke-width="0.5"></path><path d="M250.8825,143.43381c-1.03234,0.00468 -3.29788,1.5935 -3.29788,1.5935l-0.00425,-0.93725c0,0 2.24582,-1.63806 3.29766,-1.64282c0.84074,-0.0038 2.52315,1.61646 2.52315,1.61646l0.00425,0.93725c0,0 -1.6377,-1.57114 -2.52292,-1.56713z" data-paper-data="{&quot;index&quot;:null}" fill="#005eff" stroke="none" stroke-width="0.5"></path><path d="M239.37991,143.54406c-1.03234,0.00468 -3.29788,1.5935 -3.29788,1.5935l-0.00425,-0.93725c0,0 2.24582,-1.63806 3.29766,-1.64282c0.84074,-0.0038 2.52314,1.61646 2.52314,1.61646l0.00425,0.93725c0,0 -1.6377,-1.57114 -2.52292,-1.56713z" data-paper-data="{&quot;index&quot;:null}" fill="#005eff" stroke="none" stroke-width="0.5"></path><path d="M236.09085,144.21633l0.00425,0.93725c0,0 -1.66766,1.63543 -2.5084,1.63925c-1.05184,0.00476 -3.3124,-1.61288 -3.3124,-1.61288l-0.00425,-0.93725c0,0 2.27984,1.56823 3.31218,1.56356c0.88522,-0.004 2.50863,-1.58991 2.50863,-1.58991z" data-paper-data="{&quot;index&quot;:null}" fill="#005eff" stroke="none" stroke-width="0.5"></path><path d="M247.62385,144.06188l0.00425,0.93725c0,0 -1.66766,1.63543 -2.5084,1.63925c-1.05184,0.00476 -3.3124,-1.61288 -3.3124,-1.61288l-0.00425,-0.93725c0,0 2.27984,1.56823 3.31218,1.56355c0.88522,-0.004 2.50863,-1.58991 2.50863,-1.58991z" data-paper-data="{&quot;index&quot;:null}" fill="#005eff" stroke="none" stroke-width="0.5"></path></g><g stroke-linecap="butt"><path d="M276.04886,148.41325l-0.06024,-12.67527l18.56252,-0.07985c-0.13283,2.64034 0.32535,5.33727 0.27917,9.60271c-0.01071,0.98888 -0.06066,2.01637 -0.13757,3.07221z" fill="#affff4" stroke="#000000" stroke-width="0"></path><path d="" fill="#affff4" stroke="#000000" stroke-width="0"></path><path d="M276.11353,139.90806l-0.00468,-0.93725c0,0 1.83904,-1.63543 2.76619,-1.63925c1.15993,-0.00476 3.65282,1.61288 3.65282,1.61288l0.00468,0.93725c0,0 -2.51414,-1.56823 -3.65258,-1.56355c-0.9762,0.004 -2.76643,1.58991 -2.76643,1.58991z" fill="#005eff" stroke="none" stroke-width="0.5"></path><path d="M285.20859,140.4548c1.13843,-0.00468 3.6368,-1.5935 3.6368,-1.5935l0.00468,0.93725c0,0 -2.47662,1.63806 -3.63656,1.64282c-0.92715,0.0038 -2.78245,-1.61646 -2.78245,-1.61646l-0.00468,-0.93725c0,0 1.806,1.57114 2.78219,1.56713z" data-paper-data="{&quot;index&quot;:null}" fill="#005eff" stroke="none" stroke-width="0.5"></path><path d="M288.83242,139.8244l-0.00468,-0.93725c0,0 1.83904,-1.63543 2.76619,-1.63925c0.77998,-0.0032 2.16267,0.72719 2.98482,1.20604c0.01604,0.31894 0.03476,0.64504 0.05465,0.98041c-0.81916,-0.46296 -2.25192,-1.20308 -3.03454,-1.19987c-0.9762,0.004 -2.76643,1.58991 -2.76643,1.58991z" fill="#005eff" stroke="none" stroke-width="0.5"></path><path d="" data-paper-data="{&quot;index&quot;:null}" fill="#005eff" stroke="none" stroke-width="0.5"></path><path d="" fill="#005eff" stroke="none" stroke-width="0.5"></path><path d="" fill="#005eff" stroke="none" stroke-width="0.5"></path><path d="" data-paper-data="{&quot;index&quot;:null}" fill="#005eff" stroke="none" stroke-width="0.5"></path><path d="" data-paper-data="{&quot;index&quot;:null}" fill="#005eff" stroke="none" stroke-width="0.5"></path><path d="" data-paper-data="{&quot;index&quot;:null}" fill="#005eff" stroke="none" stroke-width="0.5"></path><path d="" data-paper-data="{&quot;index&quot;:null}" fill="#005eff" stroke="none" stroke-width="0.5"></path><path d="" data-paper-data="{&quot;index&quot;:null}" fill="#005eff" stroke="none" stroke-width="0.5"></path><path d="" data-paper-data="{&quot;index&quot;:null}" fill="#005eff" stroke="none" stroke-width="0.5"></path><path d="" data-paper-data="{&quot;index&quot;:null}" fill="#005eff" stroke="none" stroke-width="0.5"></path><path d="" data-paper-data="{&quot;index&quot;:null}" fill="#005eff" stroke="none" stroke-width="0.5"></path><path d="M286.33391,143.28046c-1.13843,0.00468 -3.6368,1.5935 -3.6368,1.5935l-0.00468,-0.93725c0,0 2.47662,-1.63806 3.63655,-1.64282c0.92715,-0.0038 2.78245,1.61646 2.78245,1.61646l0.00468,0.93725c0,0 -1.806,-1.57114 -2.78219,-1.56713z" data-paper-data="{&quot;index&quot;:null}" fill="#005eff" stroke="none" stroke-width="0.5"></path><path d="M282.70684,143.95272l0.00468,0.93725c0,0 -1.83903,1.63543 -2.76618,1.63925c-1.15993,0.00476 -3.65282,-1.61288 -3.65282,-1.61288l-0.00468,-0.93725c0,0 2.51414,1.56823 3.65258,1.56356c0.9762,-0.004 2.76643,-1.58991 2.76643,-1.58991z" data-paper-data="{&quot;index&quot;:null}" fill="#005eff" stroke="none" stroke-width="0.5"></path><path d="M292.66357,146.37476c-1.15993,0.00476 -3.65282,-1.61288 -3.65282,-1.61288l-0.00468,-0.93725c0,0 2.51414,1.56823 3.65258,1.56355c0.61858,-0.00254 1.56405,-0.64028 2.17374,-1.10718c0.00202,0.30721 0.00161,0.62286 -0.00172,0.94762c-0.6197,0.48187 -1.57767,1.14373 -2.16709,1.14614z" data-paper-data="{&quot;index&quot;:null}" fill="#005eff" stroke="none" stroke-width="0.5"></path></g><path d="M224.56265,218.48618v-41.82958h3.70366v41.82958z" fill="#bb792d" stroke="none" stroke-width="0" stroke-linecap="butt"></path><path d="M224.51689,180.75023v-4.03045h29.08463v4.03045z" fill="#bb792d" stroke="none" stroke-width="0" stroke-linecap="butt"></path><path d="M267.93469,180.81341v-4.03045h27.2328v4.03045z" fill="#bb792d" stroke="none" stroke-width="0" stroke-linecap="butt"></path><path d="M291.07386,222.47087v-41.82958h3.70366v41.82958z" fill="#bb792d" stroke="none" stroke-width="0" stroke-linecap="butt"></path><g stroke-linecap="butt"><text transform="translate(232.30863,207.32213) scale(0.11525,0.11525)" font-size="40" xml:space="preserve" fill="#d48989" fill-rule="nonzero" stroke="none" stroke-width="0.3" stroke-linecap="butt" stroke-linejoin="miter" stroke-miterlimit="10" stroke-dasharray="" stroke-dashoffset="0" font-family="Serif" font-weight="normal" text-anchor="start" style="mix-blend-mode: normal"><tspan x="0" dy="0">xAmt8</tspan></text><path d="M231.42531,209.66274v-26.03456h14.70572v26.03456z" fill="#976a37" stroke="#b17a57" stroke-width="0.15"></path><path d="M231.7521,183.73712v-2.61435h0.87145v2.61435z" fill="#9f6726" stroke="none" stroke-width="0.15"></path><path d="M244.88702,183.90923v-2.61435h0.87145v2.61435z" fill="#9f6726" stroke="none" stroke-width="0.15"></path><path d="M231.86103,182.32101v-0.87145h13.83426v0.87145z" fill="#9f6726" stroke="none" stroke-width="0.15"></path><path d="M233.495,183.62819v-1.96076h0.76252v1.96076z" fill="#9f6726" stroke="none" stroke-width="0.15"></path><path d="M236.00042,183.51926v-1.30718h0.98038v1.30718z" fill="#9f6726" stroke="none" stroke-width="0.15"></path><path d="M239.05048,184.06392v-2.06969h0.87145v2.06969z" fill="#9f6726" stroke="none" stroke-width="0.15"></path><path d="M242.10057,184.06392v-1.85184h0.87145v1.85184z" fill="#9f6726" stroke="none" stroke-width="0.15"></path><path d="M233.27713,211.29671v-1.85184h1.08931v1.85184z" fill="#bb792d" stroke="none" stroke-width="0.15"></path><path d="M242.05481,211.46883v-1.85184h1.08931v1.85184z" fill="#bb792d" stroke="none" stroke-width="0.15"></path><path d="M232.40569,209.98954v-25.05417h12.74495v25.05417z" fill="url(#color-3)" stroke="none" stroke-width="0.15"></path><path d="M233.18982,188.35443c-0.02899,-0.73159 -0.07903,-1.9943 -0.09557,-2.4116c-0.00526,-0.13267 -0.13308,-0.42499 -0.0791,-0.53693c0.05333,-0.11059 0.28795,-0.0416 0.36989,-0.04486c0.5074,-0.0201 3.14847,-0.12477 4.07499,-0.16148c0.10255,-0.00407 0.37944,-0.06984 0.43856,0.02336c0.0569,0.08975 -0.10219,0.33545 -0.0961,0.48914c0.02925,0.73823 0.08081,2.03919 0.09732,2.45571c0.00415,0.10484 0.12326,0.32108 0.08728,0.41646c-0.05068,0.13434 -0.27519,0.13178 -0.3958,0.13656c-0.93167,0.03692 -3.5481,0.14061 -4.05843,0.16083c-0.1003,0.00397 -0.32281,0.11121 -0.38828,-0.01656c-0.04468,-0.08717 0.05041,-0.38039 0.04525,-0.51064z" fill="url(#color-4)" stroke="#fff4ce" stroke-width="0.15"></path><path d="M239.15055,188.06777c0.12192,-0.72193 0.33233,-1.968 0.40188,-2.3798c0.02211,-0.13092 -0.04295,-0.44326 0.03289,-0.54173c0.07491,-0.09728 0.29035,0.01844 0.37121,0.03209c0.50071,0.08455 3.10695,0.52467 4.02125,0.67907c0.10119,0.01709 0.3857,0.00959 0.4244,0.11296c0.03726,0.09952 -0.16892,0.30731 -0.19454,0.45896c-0.12302,0.72851 -0.33981,2.0123 -0.40922,2.42333c-0.01747,0.10346 0.05468,0.33955 -0.00014,0.42551c-0.0772,0.12107 -0.2964,0.07244 -0.41541,0.05234c-0.91938,-0.15525 -3.50131,-0.59126 -4.00491,-0.67631c-0.09899,-0.01671 -0.33877,0.04253 -0.3766,-0.09597c-0.02582,-0.0945 0.12748,-0.36192 0.14919,-0.49045z" fill="url(#color-5)" stroke="#fff4ce" stroke-width="0.15"></path><path d="M232.4057,209.58617v-15.54612c0,0 1.86338,1.09487 2.95705,1.09487c0.75636,0 2.11145,-1.39163 3.57686,-1.55607c1.10064,-0.12351 2.32114,1.12401 3.33932,1.21769c1.65609,0.15237 2.87174,-0.75647 2.87174,-0.75647v15.54612z" fill="#b14242" stroke="#535353" stroke-width="0.15"></path><path d="M232.36626,197.92148v-0.57897c0,0 0.71007,0.20677 1.37476,0.20677c0.63627,0 2.07721,-0.37418 3.72036,-0.40449c1.43983,-0.02656 3.13372,0.33792 4.47873,0.38455c1.75692,0.06092 2.98831,-0.18683 2.98831,-0.18683v0.57897z" fill="#d36161" stroke="none" stroke-width="0.15"></path><path d="M232.4815,201.20609v-0.57897c0,0 0.71007,0.20677 1.37475,0.20677c0.63627,0 2.07721,-0.37418 3.72036,-0.40449c1.43983,-0.02656 3.13372,0.33792 4.47873,0.38455c1.75691,0.06092 2.98831,-0.18683 2.98831,-0.18683v0.57897z" fill="#d36161" stroke="none" stroke-width="0.15"></path><path d="M232.53913,204.95169v-0.57897c0,0 0.71007,0.20677 1.37475,0.20677c0.63627,0 2.07721,-0.37418 3.72036,-0.40449c1.43983,-0.02656 3.13372,0.33792 4.47873,0.38455c1.75691,0.06092 2.98831,-0.18683 2.98831,-0.18683v0.57897z" fill="#d36161" stroke="none" stroke-width="0.15"></path><path d="M232.251,207.77529v-0.57897c0,0 0.71007,0.20677 1.37475,0.20677c0.63627,0 2.07721,-0.37418 3.72036,-0.40449c1.43983,-0.02656 3.13372,0.33792 4.47873,0.38455c1.75691,0.06092 2.98831,-0.18683 2.98831,-0.18683v0.57897z" fill="#d36161" stroke="none" stroke-width="0.15"></path></g><path d="M246.8283,185.27514v-1.00458h6.91149v1.00458z" fill="url(#color-6)" stroke="#d68d39" stroke-width="0.25" stroke-linecap="butt"></path><path d="M247.78914,187.29439v-2.14474l0.72144,0.05361c0,0 -0.26828,0.45508 -0.31957,0.74716c-0.06692,0.38103 -0.0477,1.34396 -0.0477,1.34396z" fill="#ad7000" stroke="none" stroke-width="0" stroke-linecap="butt"></path><path d="M247.67108,187.53567v-0.37532h0.59026v0.37532z" fill="#c68d23" stroke="none" stroke-width="0" stroke-linecap="butt"></path><path d="M251.65864,187.31084c0,0 0.01922,-0.94964 -0.0477,-1.32541c-0.05129,-0.28804 -0.31957,-0.73684 -0.31957,-0.73684l0.72144,-0.05288v2.11513z" data-paper-data="{&quot;index&quot;:null}" fill="#ad7000" stroke="none" stroke-width="0" stroke-linecap="butt"></path><path d="M251.54059,187.54879v-0.37015h0.59026v0.37015z" data-paper-data="{&quot;index&quot;:null}" fill="#c68d23" stroke="none" stroke-width="0" stroke-linecap="butt"></path><g stroke-width="0.05"><path d="M249.69725,182.70688c0,0 -0.14406,-1.31795 -0.14406,-1.91602c0,-0.51923 0.14406,-1.46943 0.14406,-1.46943h0.79234c0,0 0.18728,0.92445 0.18728,1.44061c0,0.59973 -0.18728,1.94483 -0.18728,1.94483z" fill="#c59475" stroke="none" stroke-linecap="butt"></path><path d="M252.49205,178.7668c0,1.30086 -1.0997,2.35541 -2.45625,2.35541c-1.35655,0 -2.45625,-1.05455 -2.45625,-2.35541c0,-1.30086 1.0997,-2.35541 2.45625,-2.35541c1.35655,0 2.45625,1.05455 2.45625,2.35541z" fill="url(#color-7)" stroke="none" stroke-linecap="butt"></path><path d="M248.8905,184.69925c0,0 0.10915,-0.26157 0.00153,-0.50983c-0.08579,-0.19787 -0.39337,-0.36724 -0.39337,-0.53451c0,-0.33152 0.39185,-1.0993 0.39185,-1.0993h2.48939c0,0 0.5071,0.67974 0.5071,1.01685c0,0.18187 -0.44284,0.42617 -0.56616,0.65724c-0.13005,0.24366 0.05906,0.46955 0.05906,0.46955z" fill="#a94343" stroke="none" stroke-linecap="butt"></path><path d="M248.53035,183.67642l0.24491,-0.46964v-0.0144l0.2161,0.48405c0,0 -0.16229,0.28812 -0.24491,0.28812c-0.06833,0 -0.2161,-0.28812 -0.2161,-0.28812z" fill="#6f2c2c" stroke="none" stroke-linecap="butt"></path><path d="M248.91932,183.70523l0.24491,-0.46964v-0.0144l0.2161,0.48405c0,0 -0.16229,0.28812 -0.24491,0.28812c-0.06833,0 -0.2161,-0.28812 -0.2161,-0.28812z" fill="#6f2c2c" stroke="none" stroke-linecap="butt"></path><path d="M249.30829,183.70523l0.24491,-0.46964v-0.0144l0.2161,0.48405c0,0 -0.16229,0.28812 -0.24491,0.28812c-0.06833,0 -0.2161,-0.28812 -0.2161,-0.28812z" fill="#6f2c2c" stroke="none" stroke-linecap="butt"></path><path d="M249.72607,183.71963l0.24491,-0.46964v-0.0144l0.2161,0.48405c0,0 -0.16229,0.28812 -0.24491,0.28812c-0.06833,0 -0.2161,-0.28812 -0.2161,-0.28812z" fill="#6f2c2c" stroke="none" stroke-linecap="butt"></path><path d="M250.11503,183.69083l0.24491,-0.46964v-0.0144l0.2161,0.48405c0,0 -0.16229,0.28812 -0.24491,0.28812c-0.06833,0 -0.2161,-0.28812 -0.2161,-0.28812z" fill="#6f2c2c" stroke="none" stroke-linecap="butt"></path><path d="M250.54721,183.64761l0.24491,-0.46964v-0.0144l0.2161,0.48405c0,0 -0.16229,0.28812 -0.24491,0.28812c-0.06833,0 -0.2161,-0.28812 -0.2161,-0.28812z" fill="#6f2c2c" stroke="none" stroke-linecap="butt"></path><path d="M250.96499,183.66202l0.24491,-0.46964v-0.0144l0.2161,0.48405c0,0 -0.16229,0.28812 -0.24491,0.28812c-0.06833,0 -0.2161,-0.28812 -0.2161,-0.28812z" fill="#6f2c2c" stroke="none" stroke-linecap="butt"></path><path d="M251.32515,183.66202l0.24491,-0.46964v-0.0144l0.2161,0.48405c0,0 -0.16229,0.28812 -0.24491,0.28812c-0.06833,0 -0.2161,-0.28812 -0.2161,-0.28812z" fill="#6f2c2c" stroke="none" stroke-linecap="butt"></path><path d="M251.36836,184.71655c0,0.04376 -0.55791,0.07923 -1.24614,0.07923c-0.68821,0 -1.24614,-0.03548 -1.24614,-0.07923c0,-0.04376 0.55791,-0.07923 1.24614,-0.07923c0.68821,0 1.24614,0.03548 1.24614,0.07923z" fill="#9f4040" stroke="none" stroke-linecap="butt"></path><path d="M248.27104,179.62397l1.44061,-1.94483l1.02283,0.02881l1.55587,1.91602z" fill="#a94343" stroke="none" stroke-linecap="butt"></path><path d="M251.16668,179.60957l0.02881,1.74314" fill="none" stroke="#8c8c8c" stroke-linecap="round"></path><path d="M251.08024,181.53999l0.08644,-0.20168l0.05763,0.0144l0.08644,0.18728z" fill="#ffffff" stroke="none" stroke-linecap="butt"></path></g><g stroke-linecap="butt"><path d="M260.30624,213.58132l0.01625,9.91144l-36.03432,0.07472l-0.01625,-9.91144z" fill="#affff4" stroke="#000000" stroke-width="0"></path><path d="M260.24262,220.23176l0.00136,0.73288c0,0 -1.30742,1.27534 -1.96485,1.27656c-0.82249,0.00153 -2.58674,-1.2681 -2.58674,-1.2681l-0.00136,-0.73288c0,0 1.77943,1.23103 2.58668,1.22952c0.6922,-0.00129 1.96492,-1.23798 1.96492,-1.23798z" fill="#005eff" stroke="none" stroke-width="0.5"></path><path d="M253.79472,219.78702c-0.80724,0.00151 -2.58208,1.23913 -2.58208,1.23913l-0.00136,-0.73288c0,0 1.75952,-1.27618 2.58201,-1.27771c0.65743,-0.00122 1.96958,1.26925 1.96958,1.26925l0.00136,0.73288c0,0 -1.27731,-1.23195 -1.9695,-1.23067z" data-paper-data="{&quot;index&quot;:null}" fill="#005eff" stroke="none" stroke-width="0.5"></path><path d="M251.22384,220.2731l0.00136,0.73288c0,0 -1.30742,1.27534 -1.96485,1.27656c-0.82249,0.00153 -2.58674,-1.2681 -2.58674,-1.2681l-0.00136,-0.73288c0,0 1.77943,1.23103 2.58667,1.22952c0.6922,-0.00129 1.96492,-1.23798 1.96492,-1.23798z" fill="#005eff" stroke="none" stroke-width="0.5"></path><path d="M244.73825,219.80828c-0.80724,0.0015 -2.58208,1.23913 -2.58208,1.23913l-0.00136,-0.73288c0,0 1.75952,-1.27618 2.58201,-1.27771c0.65743,-0.00122 1.96958,1.26925 1.96958,1.26925l0.00136,0.73288c0,0 -1.27731,-1.23195 -1.9695,-1.23067z" data-paper-data="{&quot;index&quot;:null}" fill="#005eff" stroke="none" stroke-width="0.5"></path><path d="M242.21663,220.22802l0.00136,0.73288c0,0 -1.30742,1.27534 -1.96485,1.27656c-0.82249,0.00153 -2.58674,-1.2681 -2.58674,-1.2681l-0.00136,-0.73288c0,0 1.77943,1.23103 2.58668,1.22952c0.6922,-0.00129 1.96492,-1.23798 1.96492,-1.23798z" fill="#005eff" stroke="none" stroke-width="0.5"></path><path d="M233.22188,220.19926l0.00136,0.73288c0,0 -1.30742,1.27534 -1.96485,1.27656c-0.82249,0.00153 -2.58674,-1.2681 -2.58674,-1.2681l-0.00136,-0.73288c0,0 1.77943,1.23103 2.58668,1.22952c0.6922,-0.00129 1.96492,-1.23798 1.96492,-1.23798z" fill="#005eff" stroke="none" stroke-width="0.5"></path><path d="M226.71227,219.69734c-0.80724,0.00151 -2.58208,1.23913 -2.58208,1.23913l-0.00136,-0.73288c0,0 1.75952,-1.27618 2.58201,-1.27771c0.65743,-0.00122 1.96958,1.26925 1.96958,1.26925l0.00136,0.73288c0,0 -1.27731,-1.23195 -1.9695,-1.23067z" data-paper-data="{&quot;index&quot;:null}" fill="#005eff" stroke="none" stroke-width="0.5"></path><path d="M235.73104,219.76051c-0.80724,0.0015 -2.58208,1.23913 -2.58208,1.23913l-0.00136,-0.73288c0,0 1.75952,-1.27618 2.58201,-1.27771c0.65743,-0.00122 1.96958,1.26925 1.96958,1.26925l0.00136,0.73288c0,0 -1.27731,-1.23195 -1.9695,-1.23067z" data-paper-data="{&quot;index&quot;:null}" fill="#005eff" stroke="none" stroke-width="0.5"></path><path d="M225.98222,217.70835c0.80724,-0.00151 2.58208,-1.23913 2.58208,-1.23913l0.00136,0.73288c0,0 -1.75952,1.27618 -2.58201,1.27771c-0.65743,0.00122 -1.96958,-1.26925 -1.96958,-1.26925l-0.00136,-0.73288c0,0 1.27731,1.23195 1.9695,1.23067z" data-paper-data="{&quot;index&quot;:null}" fill="#005eff" stroke="none" stroke-width="0.5"></path><path d="M228.49401,217.24696l-0.00136,-0.73288c0,0 1.30742,-1.27534 1.96485,-1.27656c0.82249,-0.00153 2.58674,1.2681 2.58674,1.2681l0.00136,0.73288c0,0 -1.77943,-1.23103 -2.58668,-1.22952c-0.6922,0.00129 -1.96492,1.23798 -1.96492,1.23798z" data-paper-data="{&quot;index&quot;:null}" fill="#005eff" stroke="none" stroke-width="0.5"></path><path d="M235.00111,217.71617c0.80724,-0.0015 2.58208,-1.23913 2.58208,-1.23913l0.00136,0.73288c0,0 -1.75952,1.27618 -2.58201,1.27771c-0.65743,0.00122 -1.96958,-1.26925 -1.96958,-1.26925l-0.00136,-0.73288c0,0 1.27731,1.23195 1.9695,1.23067z" data-paper-data="{&quot;index&quot;:null}" fill="#005eff" stroke="none" stroke-width="0.5"></path><path d="M237.55051,217.23454l-0.00136,-0.73288c0,0 1.30742,-1.27534 1.96485,-1.27656c0.82249,-0.00153 2.58674,1.2681 2.58674,1.2681l0.00136,0.73288c0,0 -1.77943,-1.23103 -2.58667,-1.22952c-0.6922,0.00129 -1.96492,1.23798 -1.96492,1.23798z" data-paper-data="{&quot;index&quot;:null}" fill="#005eff" stroke="none" stroke-width="0.5"></path><path d="M244.00809,217.6376c0.80724,-0.0015 2.58208,-1.23913 2.58208,-1.23913l0.00136,0.73288c0,0 -1.75952,1.27618 -2.58201,1.27771c-0.65743,0.00122 -1.96958,-1.26925 -1.96958,-1.26925l-0.00136,-0.73288c0,0 1.27731,1.23195 1.9695,1.23067z" data-paper-data="{&quot;index&quot;:null}" fill="#005eff" stroke="none" stroke-width="0.5"></path><path d="M253.00269,217.5754c0.80724,-0.00151 2.58208,-1.23913 2.58208,-1.23913l0.00136,0.73288c0,0 -1.75952,1.27618 -2.58201,1.27771c-0.65743,0.00122 -1.96958,-1.26925 -1.96958,-1.26925l-0.00136,-0.73288c0,0 1.27731,1.23195 1.9695,1.23067z" data-paper-data="{&quot;index&quot;:null}" fill="#005eff" stroke="none" stroke-width="0.5"></path><path d="M255.57594,217.0566l-0.00136,-0.73288c0,0 1.30742,-1.27534 1.96485,-1.27656c0.82249,-0.00153 2.58674,1.2681 2.58674,1.2681l0.00136,0.73288c0,0 -1.77943,-1.23103 -2.58668,-1.22952c-0.6922,0.00129 -1.96492,1.23798 -1.96492,1.23798z" data-paper-data="{&quot;index&quot;:null}" fill="#005eff" stroke="none" stroke-width="0.5"></path><path d="M246.55749,217.15329l-0.00136,-0.73288c0,0 1.30742,-1.27534 1.96485,-1.27656c0.82249,-0.00153 2.58674,1.2681 2.58674,1.2681l0.00136,0.73288c0,0 -1.77943,-1.23103 -2.58668,-1.22952c-0.6922,0.00129 -1.96492,1.23798 -1.96492,1.23798z" data-paper-data="{&quot;index&quot;:null}" fill="#005eff" stroke="none" stroke-width="0.5"></path></g><g stroke-linecap="butt"><path d="M296.37925,213.46608l0.01625,9.91144l-36.03432,0.07472l-0.01625,-9.91144z" fill="#affff4" stroke="#000000" stroke-width="0"></path><path d="M296.31564,220.11652l0.00136,0.73288c0,0 -1.30742,1.27534 -1.96485,1.27656c-0.82249,0.00153 -2.58674,-1.2681 -2.58674,-1.2681l-0.00136,-0.73288c0,0 1.77943,1.23103 2.58668,1.22952c0.6922,-0.00129 1.96492,-1.23798 1.96492,-1.23798z" fill="#005eff" stroke="none" stroke-width="0.5"></path><path d="M289.86773,219.67178c-0.80724,0.0015 -2.58208,1.23913 -2.58208,1.23913l-0.00136,-0.73288c0,0 1.75952,-1.27618 2.58201,-1.27771c0.65743,-0.00122 1.96958,1.26925 1.96958,1.26925l0.00136,0.73288c0,0 -1.27731,-1.23195 -1.9695,-1.23067z" data-paper-data="{&quot;index&quot;:null}" fill="#005eff" stroke="none" stroke-width="0.5"></path><path d="M287.29686,220.15786l0.00136,0.73288c0,0 -1.30742,1.27534 -1.96485,1.27656c-0.82249,0.00153 -2.58674,-1.2681 -2.58674,-1.2681l-0.00136,-0.73288c0,0 1.77943,1.23103 2.58667,1.22952c0.6922,-0.00129 1.96492,-1.23798 1.96492,-1.23798z" fill="#005eff" stroke="none" stroke-width="0.5"></path><path d="M280.81127,219.69303c-0.80724,0.0015 -2.58208,1.23913 -2.58208,1.23913l-0.00136,-0.73288c0,0 1.75952,-1.27618 2.58201,-1.27771c0.65743,-0.00122 1.96958,1.26925 1.96958,1.26925l0.00136,0.73288c0,0 -1.27731,-1.23195 -1.9695,-1.23067z" data-paper-data="{&quot;index&quot;:null}" fill="#005eff" stroke="none" stroke-width="0.5"></path><path d="M278.28964,220.11277l0.00136,0.73288c0,0 -1.30742,1.27534 -1.96485,1.27656c-0.82249,0.00153 -2.58674,-1.2681 -2.58674,-1.2681l-0.00136,-0.73288c0,0 1.77943,1.23103 2.58668,1.22953c0.6922,-0.00129 1.96492,-1.23799 1.96492,-1.23799z" fill="#005eff" stroke="none" stroke-width="0.5"></path><path d="M269.29488,220.08401l0.00136,0.73288c0,0 -1.30742,1.27534 -1.96485,1.27656c-0.82249,0.00153 -2.58674,-1.2681 -2.58674,-1.2681l-0.00136,-0.73288c0,0 1.77943,1.23103 2.58668,1.22952c0.6922,-0.00129 1.96492,-1.23799 1.96492,-1.23799z" fill="#005eff" stroke="none" stroke-width="0.5"></path><path d="M262.78529,219.5821c-0.80724,0.0015 -2.58208,1.23913 -2.58208,1.23913l-0.00136,-0.73288c0,0 1.75952,-1.27618 2.58201,-1.27771c0.65743,-0.00122 1.96958,1.26925 1.96958,1.26925l0.00136,0.73288c0,0 -1.27731,-1.23195 -1.9695,-1.23067z" data-paper-data="{&quot;index&quot;:null}" fill="#005eff" stroke="none" stroke-width="0.5"></path><path d="M271.80405,219.64526c-0.80724,0.0015 -2.58208,1.23913 -2.58208,1.23913l-0.00136,-0.73288c0,0 1.75952,-1.27618 2.58201,-1.27771c0.65743,-0.00122 1.96958,1.26925 1.96958,1.26925l0.00136,0.73288c0,0 -1.27731,-1.23195 -1.9695,-1.23067z" data-paper-data="{&quot;index&quot;:null}" fill="#005eff" stroke="none" stroke-width="0.5"></path><path d="M262.05524,217.59311c0.80723,-0.0015 2.58208,-1.23913 2.58208,-1.23913l0.00136,0.73288c0,0 -1.75952,1.27617 -2.58201,1.27771c-0.65743,0.00122 -1.96958,-1.26925 -1.96958,-1.26925l-0.00136,-0.73288c0,0 1.27731,1.23195 1.96951,1.23067z" data-paper-data="{&quot;index&quot;:null}" fill="#005eff" stroke="none" stroke-width="0.5"></path><path d="M264.56703,217.13172l-0.00136,-0.73288c0,0 1.30742,-1.27534 1.96485,-1.27656c0.82249,-0.00153 2.58674,1.2681 2.58674,1.2681l0.00136,0.73288c0,0 -1.77943,-1.23103 -2.58668,-1.22952c-0.6922,0.00129 -1.96492,1.23798 -1.96492,1.23798z" data-paper-data="{&quot;index&quot;:null}" fill="#005eff" stroke="none" stroke-width="0.5"></path><path d="M271.07411,217.60092c0.80723,-0.0015 2.58208,-1.23913 2.58208,-1.23913l0.00136,0.73288c0,0 -1.75952,1.27618 -2.58201,1.27771c-0.65743,0.00122 -1.96958,-1.26925 -1.96958,-1.26925l-0.00136,-0.73288c0,0 1.27731,1.23195 1.9695,1.23067z" data-paper-data="{&quot;index&quot;:null}" fill="#005eff" stroke="none" stroke-width="0.5"></path><path d="M273.62351,217.11929l-0.00136,-0.73288c0,0 1.30742,-1.27534 1.96485,-1.27656c0.82249,-0.00153 2.58674,1.2681 2.58674,1.2681l0.00136,0.73288c0,0 -1.77943,-1.23103 -2.58667,-1.22952c-0.6922,0.00129 -1.96492,1.23798 -1.96492,1.23798z" data-paper-data="{&quot;index&quot;:null}" fill="#005eff" stroke="none" stroke-width="0.5"></path><path d="M280.08109,217.52234c0.80724,-0.0015 2.58208,-1.23913 2.58208,-1.23913l0.00136,0.73288c0,0 -1.75952,1.27618 -2.58201,1.27771c-0.65743,0.00122 -1.96958,-1.26925 -1.96958,-1.26925l-0.00136,-0.73288c0,0 1.27731,1.23195 1.9695,1.23067z" data-paper-data="{&quot;index&quot;:null}" fill="#005eff" stroke="none" stroke-width="0.5"></path><path d="M289.07569,217.46015c0.80724,-0.0015 2.58208,-1.23913 2.58208,-1.23913l0.00136,0.73288c0,0 -1.75952,1.27618 -2.58201,1.27771c-0.65743,0.00122 -1.96958,-1.26925 -1.96958,-1.26925l-0.00136,-0.73288c0,0 1.27731,1.23195 1.9695,1.23067z" data-paper-data="{&quot;index&quot;:null}" fill="#005eff" stroke="none" stroke-width="0.5"></path><path d="M291.64894,216.94134l-0.00136,-0.73288c0,0 1.30742,-1.27534 1.96485,-1.27656c0.82249,-0.00153 2.58674,1.2681 2.58674,1.2681l0.00136,0.73288c0,0 -1.77943,-1.23103 -2.58668,-1.22952c-0.6922,0.00129 -1.96492,1.23799 -1.96492,1.23799z" data-paper-data="{&quot;index&quot;:null}" fill="#005eff" stroke="none" stroke-width="0.5"></path><path d="M282.63049,217.03804l-0.00136,-0.73288c0,0 1.30743,-1.27534 1.96485,-1.27656c0.82249,-0.00153 2.58674,1.2681 2.58674,1.2681l0.00136,0.73288c0,0 -1.77943,-1.23103 -2.58668,-1.22952c-0.6922,0.00129 -1.96492,1.23798 -1.96492,1.23798z" data-paper-data="{&quot;index&quot;:null}" fill="#005eff" stroke="none" stroke-width="0.5"></path></g><g stroke="#dda86a" stroke-width="0.15"><path d="M283.07714,212.19701v-5.73741h5.59397v5.73741z" fill="#bb794b" stroke-linecap="butt"></path><path d="M282.86198,206.53132l5.59397,5.52225" fill="none" stroke-linecap="round"></path><path d="M288.45596,206.88991l-5.3071,5.37882" fill="none" stroke-linecap="round"></path><path d="M284.1529,211.26468v-3.80103h3.65759v3.80103z" fill="none" stroke-linecap="butt"></path></g><g stroke="#dda86a" stroke-width="0.15"><path d="M278.19057,212.28921v-5.73741h5.59397v5.73741z" fill="#bb794b" stroke-linecap="butt"></path><path d="M277.97542,206.62352l5.59397,5.52225" fill="none" stroke-linecap="round"></path><path d="M283.56938,206.98211l-5.3071,5.37882" fill="none" stroke-linecap="round"></path><path d="M279.26634,211.35688v-3.80103h3.65759v3.80103z" fill="none" stroke-linecap="butt"></path></g><g stroke="#dda86a" stroke-width="0.15"><path d="M280.15246,207.03559l0.33046,-5.72788l5.58468,0.3222l-0.33046,5.72788z" fill="#bb794b" stroke-linecap="butt"></path><path d="M285.53061,207.2022l-5.26662,-5.83528" fill="none" stroke-linecap="round"></path><path d="M285.82802,202.04709l-5.6081,5.06422" fill="none" stroke-linecap="round"></path><path d="M281.28014,206.16677l0.21892,-3.79472l3.65152,0.21066l-0.21892,3.79472z" fill="none" stroke-linecap="butt"></path></g><g stroke-linecap="butt"><path d="M213.0814,213.36227l0.00416,9.85366c-2.15354,0.00754 -4.30707,0.01878 -6.46056,0.03407c-0.53658,0.00381 -1.10877,0.04523 -1.69578,0.12245l-0.00422,-10.00673z" data-paper-data="{&quot;index&quot;:null}" fill="#000000" stroke="none" stroke-width="0.25"></path><g data-paper-data="{&quot;index&quot;:null}"><path d="M213.31073,214.23224l0.00052,1.21285l-0.43316,0.00018l-0.00052,-1.21285z" fill="#e6e6e6" stroke="#000000" stroke-width="0.25"></path><path d="" fill="#e6e6e6" stroke="#000000" stroke-width="0.25"></path><path d="M221.4858,213.35873l0.00416,9.84583c-2.71881,-0.00193 -5.43761,0.00135 -8.15639,0.01051l-0.00416,-9.8529z" fill="#8e6544" stroke="none" stroke-width="0.25"></path><path d="M214.10627,223.21263l-0.00069,-1.63677l6.69683,-0.00282l0.00069,1.63115" fill="none" stroke="#513a27" stroke-width="0.25"></path><path d="M220.79951,214.7045l0.00174,4.12112l-6.61097,0.00279l-0.00174,-4.12113z" fill="none" stroke="#513a27" stroke-width="0.25"></path><text transform="translate(215.54703,223.53282) rotate(-0.02497) scale(0.02644,-0.02644)" font-size="40" xml:space="preserve" fill="#ffffff" fill-rule="nonzero" stroke="none" stroke-width="0.5" stroke-linecap="butt" stroke-linejoin="miter" stroke-miterlimit="10" stroke-dasharray="" stroke-dashoffset="0" font-family="Sans Serif" font-weight="normal" text-anchor="start" style="mix-blend-mode: normal"><tspan x="0" dy="0">8</tspan></text><path d="M217.3974,223.06266c0.52153,-0.00022 1.00562,0.0521 1.40568,0.14172c-0.94065,0.00055 -1.88129,0.00174 -2.82194,0.00361c0.40203,-0.09143 0.89008,-0.14511 1.41626,-0.14533z" fill="#d59866" stroke="none" stroke-width="0.25"></path><path d="" fill="#ab7a52" stroke="none" stroke-width="0.25"></path><path d="" fill="#ab7a52" stroke="none" stroke-width="0.25"></path><path d="M219.85764,220.74349c-0.71126,0.0003 -1.28793,-0.17884 -1.28802,-0.40012c-0.00009,-0.22128 0.57643,-0.40091 1.28769,-0.4012c0.71126,-0.0003 1.28793,0.17884 1.28802,0.40012c0.00009,0.22128 -0.57643,0.40091 -1.28769,0.4012z" fill="#dadada" stroke="none" stroke-width="0.25"></path><path d="M221.18333,220.65539c0.0859,0.38642 -0.12925,0.76299 -0.48055,0.84108c-0.3513,0.07809 -0.70571,-0.17186 -0.79161,-0.55829c-0.0859,-0.38642 0.12925,-0.76299 0.48054,-0.84108c0.3513,-0.07809 0.70571,0.17186 0.79161,0.55829z" fill="#fff4ce" stroke="#e6ddbb" stroke-width="0.25"></path><path d="M221.10266,220.83159c0.05336,0.24007 -0.08029,0.474 -0.29854,0.52253c-0.21825,0.04851 -0.43843,-0.10677 -0.49179,-0.34684c-0.05336,-0.24007 0.08029,-0.47401 0.29854,-0.52253c0.21825,-0.04851 0.43842,0.10677 0.49179,0.34684z" fill="#e6ddbb" stroke="#e6ddbb" stroke-width="0.25"></path><path d="M219.5432,220.18192l0.50903,0.20409l-0.20409,0.50903l-0.50903,-0.20409z" fill="#e6ddbb" stroke="none" stroke-width="0.25"></path><path d="M219.77333,220.08084c0.02878,0.04159 -0.10482,0.4273 -0.11697,0.49479l-0.00278,0.10613c-0.00011,0.02488 -0.01008,0.04832 -0.02691,0.06562c-0.006,0.01587 -0.01619,0.02996 -0.02953,0.04062c-0.00032,0.01033 -0.00063,0.02065 -0.00096,0.03099l-0.00572,0.00922l0.00377,0.00095l-0.02924,0.11698c-0.00787,0.03456 -0.03492,0.06327 -0.07182,0.07146c-0.05105,0.01135 -0.10163,-0.02083 -0.11298,-0.07188v0l-0.0238,-0.10707l0.01815,-0.00404c-0.07765,-0.19009 -0.0924,-0.39435 0.01057,-0.59756c0.06598,-0.13023 0.21172,-0.41129 0.38823,-0.15619z" fill="#fff4ce" stroke="none" stroke-width="0.25"></path></g></g></g></g></svg>