<svg version="1.1" xmlns="http://www.w3.org/2000/svg" xmlns:xlink="http://www.w3.org/1999/xlink" width="202.632" height="230.89608" viewBox="0,0,202.632,230.89608"><g transform="translate(-205.85738,-52.44182)"><g data-paper-data="{&quot;isPaintingLayer&quot;:true}" fill-rule="nonzero" stroke-linecap="butt" stroke-linejoin="miter" stroke-miterlimit="10" stroke-dasharray="" stroke-dashoffset="0" style="mix-blend-mode: normal"><path d="M207.32212,248.32009v-35.00397h7.77866v35.00397z" fill="#c6aaa0" stroke="#bb7f00" stroke-width="1"></path><path d="M263.71741,282.8379v-49.10279h7.77866v49.10279z" fill="#c6aaa0" stroke="#bb7f00" stroke-width="1"></path><path d="M217.87944,282.2134v-49.10279h7.77866v49.10279z" fill="#c6aaa0" stroke="#bb7f00" stroke-width="1"></path><path d="M211.55928,211.23312v-102.54999c0,0 19.79863,-54.24131 30.06751,-54.24131c7.42515,0 20.16589,23.25459 28.07789,39.31092c-0.0308,-0.00564 -0.06181,-0.01109 -0.09302,-0.01637c-5.46648,-0.92451 -6.2474,5.54706 -6.2474,5.54706c-1.75149,14.53548 -2.23045,28.85947 -3.60036,43.41733c-0.73703,7.83222 -2.41009,17.66858 -1.39509,25.50845c0.44837,3.46326 1.67756,6.73933 2.15151,10.19781l0.92413,3.53511c0,0 1.7462,6.2018 6.98481,4.13453c5.23861,-2.06726 3.49241,-8.26907 3.49241,-8.26907l-0.50766,-1.55002c-0.49423,-3.43567 -1.60334,-6.71679 -2.14385,-10.14268c-0.36365,-2.30488 0.67462,-7.87094 0.7733,-9.50719c0.25013,-4.14701 0.30836,-8.31324 0.69518,-12.4455c1.29573,-13.84175 1.7781,-27.45385 3.34922,-41.24552c1.64526,3.54448 2.61771,5.76645 2.61771,5.76645v102.54999zM247.03723,143.89121c1.78832,-10.51686 3.65607,-21.00595 5.05299,-31.62937c0.97885,-7.44406 0.65993,-14.81242 1.45895,-22.26083c0,0 0.68492,-6.48679 -4.79442,-7.29764c-5.47933,-0.81085 -6.16426,5.67594 -6.16426,5.67594c-0.75796,7.28181 -0.42344,14.56551 -1.40462,21.81024c-3.33481,24.62329 -7.22873,48.01514 -7.22873,73.07539l10.1425,3.77503c0,0 3.20907,-3.79909 0.89951,-7.95316c-0.00254,-11.71686 0.08937,-23.73541 2.03809,-35.1956zM230.68322,183.26494l-0.07513,-1.46784c2.29576,-16.30721 1.14553,-32.70177 0.05631,-49.07507c-0.7842,-11.78816 0.89434,-23.45209 2.12386,-35.09333c0,0 0.68491,-6.48679 -4.79442,-7.29764c-5.47933,-0.81085 -6.16425,5.67594 -6.16425,5.67594c-1.32609,12.56304 -2.97996,25.07632 -2.1715,37.79342c0.97276,15.30148 2.20106,30.61274 0.05632,45.84724l-0.07514,3.61728c0,0 0,6.53727 5.52198,6.53727c5.52198,0 5.52197,-6.53727 5.52197,-6.53727z" fill="#c6aaa0" stroke="#bb7f00" stroke-width="4"></path><path d="M223.22727,244.77859l-10.69566,-32.08697h64.17395l9.72332,29.65614z" fill="#bb694b" stroke="none" stroke-width="0"></path><path d="M223.25,222v-90h39v90z" fill="#0067ff" stroke="none" stroke-width="0"></path><path d="M237.25,155.5v-21.5h12.5v21.5c0,0 -4.39784,11 -6.57895,11c-1.96242,0 -5.92105,-11 -5.92105,-11z" fill="#ffffff" stroke="none" stroke-width="0"></path><path d="M264.5792,121.53234c-3.55902,7.99414 -4.54415,21.50209 -12.63099,23.05985c-5.18337,0.99847 -16.93036,-7.76039 -22.15285,-10.08546c-13.37036,-5.95253 -19.47474,-21.41232 -13.63452,-34.53041c5.84022,-13.11809 21.41348,-18.92692 34.78384,-12.9744c13.37036,5.95253 19.47475,21.41233 13.63453,34.53042z" fill="#ffdcb0" stroke="none" stroke-width="NaN"></path><path d="M218.73138,97.34574l1.5,-4.5c0,0 15.36945,-10 22,-10c5.96574,0 16.5,10 16.5,10l6,4.5c0,0 -6.48362,0.42834 -10.24377,2.4245c-2.62394,1.39298 -4.62602,4.5755 -7.25623,4.5755c-2.37716,0 -2.50956,-4.73986 -6.32977,-5.73851c-7.93043,-2.07312 -22.17023,-1.26149 -22.17023,-1.26149z" fill="#a75c00" stroke="none" stroke-width="0"></path><path d="M228.75,107c0,-0.55228 0.44771,-1 1,-1c0.55229,0 1,0.44772 1,1c0,0.55228 -0.44771,1 -1,1c-0.55229,0 -1,-0.44772 -1,-1z" fill="#000000" stroke="none" stroke-width="0.5"></path><path d="M234.25,103c0,1 -1,1 -1,1h-0.5c-0.96223,0 -3.84761,-0.51732 -4.61732,-0.07612c-0.70296,0.40293 -1.21446,1.10089 -1.93547,1.47055c0,0 -0.89443,0.44721 -1.34164,-0.44721c-0.44721,-0.89443 0.44721,-1.34164 0.44721,-1.34164c0.77112,-0.37265 1.28643,-1.17159 2.06453,-1.52945c1.26099,-0.57996 3.9848,-0.07612 5.38268,-0.07612h0.5c0,0 1,0 1,1z" fill="#000000" stroke="none" stroke-width="0.5"></path><path d="M256.25,108.5c0,-0.55228 0.44772,-1 1,-1c0.55228,0 1,0.44772 1,1c0,0.55228 -0.44772,1 -1,1c-0.55228,0 -1,-0.44772 -1,-1z" fill="#000000" stroke="none" stroke-width="0.5"></path><path d="M261.95711,105.70711c-0.70711,0.70711 -1.41421,0 -1.41421,0l0.20711,-0.20711c-2.25676,0 -3.87049,0.95368 -6,1c0,0 -1,0 -1,-1c0,-1 1,-1 1,-1c1.21988,0.04237 1.59268,-0.68185 2.77025,-0.97325c0.92799,-0.22963 2.26675,-0.02675 3.22975,-0.02675l1.20711,0.79289c0,0 0.70711,0.70711 0,1.41421z" fill="#000000" stroke="none" stroke-width="0.5"></path><path d="M250.25,136.5c0,0 0,1 -1,1c-1,0 -1,-1 -1,-1c0.04407,-2.02586 1.06354,-2.4867 2.01219,-3.68305c0.11391,-0.81695 0.98781,-0.81695 0.98781,-0.81695h1c0.55228,0 1,0.44772 1,1c0,0.55228 -0.44772,1 -1,1h-0.53484c-0.52849,1.19775 -1.51836,0.96808 -1.46516,2.5z" fill="#d2b491" stroke="none" stroke-width="0.5"></path><path d="M253.19721,136.10557c0.89443,0.44721 0.44721,1.34164 0.44721,1.34164l-0.5,1c-0.81419,1.51275 -0.33237,1.78507 -1.68732,3.25989c0,0 -0.70711,0.70711 -1.41421,0c-0.70711,-0.70711 0,-1.41421 0,-1.41421c1.02073,-0.88044 0.70816,-1.46859 1.31268,-2.74011l0.5,-1c0,0 0.44721,-0.89443 1.34164,-0.44721z" fill="#d2b491" stroke="none" stroke-width="0.5"></path><path d="M217.95711,119.70711c-0.70711,0.70711 -1.41421,0 -1.41421,0l-0.79289,-1.20711c0,-3.18245 -0.76219,-7.57034 0.60557,-10.44721c0,0 0.44721,-0.89443 1.34164,-0.44721c0.89443,0.44721 0.44721,1.34164 0.44721,1.34164c-1.25972,2.34053 -0.39443,6.87881 -0.39443,9.55279l0.20711,-0.20711c0,0 0.70711,0.70711 0,1.41421z" fill="#d2b491" stroke="none" stroke-width="0.5"></path><g data-paper-data="{&quot;index&quot;:null}" stroke="none" stroke-width="0"><path d="M225.6253,141.12096l1.56274,31.46121l-11.48584,0.57053l-1.56274,-31.46121z" fill="#0067ff"></path><path d="M226.99393,127.81022l-0.5003,15.49192l-12.49348,-0.40346l0.5003,-15.49192z" fill="#ffdcb0"></path><path d="M219.58307,130.53122l14.68124,-1.42251l0.28932,2.98601l-14.68124,1.42251z" fill="#ffdcb0"></path><path d="M222.91138,136.36597l3.45359,-14.33998l2.91662,0.70243l-3.45359,14.33998z" fill="#ffdcb0"></path><path d="M221.26261,132.73933l1.08182,-14.71027l2.99193,0.22004l-1.08182,14.71027z" fill="#ffdcb0"></path><path d="M216.80656,132.36025l1.08182,-14.71027l2.99193,0.22004l-1.08182,14.71027z" fill="#ffdcb0"></path><path d="M215.93119,135.74459l-3.24087,-14.38955l2.9267,-0.65916l3.24087,14.38955z" fill="#ffdcb0"></path></g><path d="M218.61162,265.14018l6.39435,-44.8801l11.55003,1.64561l-6.39435,44.8801z" fill="#ad7f45" stroke="none" stroke-width="0"></path><path d="M270.87112,260.51183l-26.78799,-36.57204l9.41192,-6.89397l26.78799,36.57204z" fill="#ad7f45" stroke="none" stroke-width="0"></path><path d="M232.39503,243.13111c-0.57668,0.81696 -1.39365,0.24029 -1.39365,0.24029l-1.09509,-0.83925c-0.29477,-0.8664 -0.28935,-1.82413 -0.63763,-2.67044c-0.20134,-0.48925 -2.1433,-0.65289 -2.46882,-0.34445c-0.37087,0.3514 -0.18043,1.00808 -0.32795,1.49722c0,0 -0.28874,0.95741 -1.24615,0.66867c-0.95741,-0.28874 -0.66867,-1.24615 -0.66867,-1.24615c0.12469,-0.41344 0.61933,-2.14607 0.82702,-2.33241c1.32435,-1.18823 4.61914,-0.9028 5.57543,0.68894c0.45138,0.75134 0.36718,1.71425 0.568,2.56744l0.62723,0.3765c0,0 0.81696,0.57668 0.24029,1.39365z" fill="#6a4e2b" stroke="none" stroke-width="0.5"></path><path d="M264.27633,235.73348c-0.36017,0.93289 -1.29305,0.57272 -1.29305,0.57272l-0.82364,-0.32876c-0.46684,-0.3088 -1.1071,-0.182 -1.66621,-0.20813c-0.44482,-0.02079 -1.10902,-0.61236 -1.31783,-0.21906c-0.49981,0.94141 0.07725,1.95093 -0.51785,3.11928c0,0 -0.48847,0.87258 -1.36106,0.3841c-0.87258,-0.48847 -0.3841,-1.36106 -0.3841,-1.36106c0.80143,-1.21159 -0.41755,-2.08024 0.73199,-3.42918c1.14783,-1.34694 4.21886,-0.67959 5.492,-0.03112l0.56702,0.20814c0,0 0.93289,0.36017 0.57272,1.29305z" fill="#6a4e2b" stroke="none" stroke-width="0.5"></path><path d="M205.85738,271.68552l1.58432,-11.55859c0,0 4.98092,2.06479 9.65118,0.72409c3.48188,-0.99955 6.57219,-5.56584 8.47219,-5.30541c2.82695,0.38748 5.98457,7.88574 5.98457,7.88574l-1.58432,11.55859z" fill="#b7b7b7" stroke="none" stroke-width="0"></path><path d="M277.32495,268.96203l-7.85551,-8.62566c0,0 -1.64753,-7.96745 0.46209,-9.8887c1.41787,-1.29128 6.55175,0.71976 9.98701,-0.42982c4.60773,-1.54195 7.54156,-6.06583 7.54156,-6.06583l7.85551,8.62566z" data-paper-data="{&quot;index&quot;:null}" fill="#b7b7b7" stroke="none" stroke-width="0"></path><path d="M272.11193,187.37893l-17.75192,-26.02153l9.49992,-6.48086l17.75192,26.02153z" fill="#0067ff" stroke="none" stroke-width="0"></path><path d="M283.26431,195.74374l-11.96334,-9.85538l7.94788,-9.64785l11.96334,9.85538z" fill="#ffdcb0" stroke="none" stroke-width="0"></path><path d="M282.8602,188.19517l10.98923,9.83866l-2.00109,2.2351l-10.98923,-9.83866z" fill="#ffdcb0" stroke="none" stroke-width="0"></path><path d="M283.73546,182.13798l13.37462,6.21949l-1.26499,2.72027l-13.37462,-6.21949z" fill="#ffdcb0" stroke="none" stroke-width="0"></path><path d="M285.88121,184.89766l10.98923,9.83866l-2.00109,2.2351l-10.98923,-9.83866z" fill="#ffdcb0" stroke="none" stroke-width="0"></path><path d="M274.03219,190.7987l2.42358,14.54952l-2.95923,0.49293l-2.42358,-14.54952z" fill="#ffdcb0" stroke="none" stroke-width="0"></path><path d="M285.6344,188.2133l-7.83763,12.49536l-2.54143,-1.5941l7.83763,-12.49536z" fill="#ffdcb0" stroke="none" stroke-width="0"></path><path d="M235.82864,129.24233c-0.89443,0.44721 -1.34164,-0.44721 -1.34164,-0.44721l-0.48617,-0.97233c-0.24675,-0.49349 -0.11895,-1.2776 -0.60363,-1.54123c-0.78357,-0.42622 -2.24092,0.99709 -2.46917,1.54123c0,0 -0.44721,0.89443 -1.34164,0.44721c-0.89443,-0.44721 -0.44721,-1.34164 -0.44721,-1.34164c0.89207,-1.63214 3.23755,-3.35973 5.30949,-2.3481c0.27033,0.13199 1.13408,1.93421 1.34103,2.3481l0.48617,0.97234c0,0 0.44721,0.89442 -0.44721,1.34164z" fill="#000000" stroke="none" stroke-width="0.5"></path><path d="M258.23124,124.48624c-1,0 -1,-1 -1,-1c0,-2.43083 0,-6.32016 0,-8.75099c0,0 0,-1 1,-1c1,0 1,1 1,1c0,2.43083 0,4.86166 0,7.29249v1.4585c0,0 0,1 -1,1z" fill="#ffb9b9" stroke="none" stroke-width="0.5"></path><path d="M284.32617,186.32717c0.42418,0.7782 0.74765,1.44328 1.02686,2.14015l0.1379,-0.07761l0.95375,1.69473c0.27086,0.4813 0.10027,1.09105 -0.38103,1.36192c-0.34789,0.19578 -0.7629,0.16092 -1.06853,-0.0552l-0.88261,-0.59679l0.05676,-0.08395l-0.2321,-0.0669c-1.17552,-2.02996 -2.32366,-4.07439 -3.47411,-6.11864c0,0 -0.49044,-0.87147 0.38103,-1.36192c0.87147,-0.49044 1.36192,0.38103 1.36192,0.38103c0.49625,0.88179 0.99382,1.76268 1.48853,2.64512l0.36577,-0.34148c0.08194,0.1456 0.16042,0.28681 0.23576,0.42443l0.00268,-0.00075c0,0 0.0113,0.02008 0.02742,0.05586z" fill="#ffb9b9" stroke="none" stroke-width="0.5"></path><path d="M237.32609,91.39926v-11.66799c0,0 4.07744,-5.834 5.834,-5.834c2.07838,0 5.834,5.834 5.834,5.834v11.66799z" fill="#ff5a5a" stroke="none" stroke-width="0"></path><path d="M287.26997,119.07444v-27.47873h120.38302v27.47873z" fill="#66ff99" stroke="none" stroke-width="0"></path><text transform="translate(292.17688,112.20476) scale(0.5,0.5)" font-size="40" xml:space="preserve" fill="#000000" fill-rule="nonzero" stroke="none" stroke-width="1" stroke-linecap="butt" stroke-linejoin="miter" stroke-miterlimit="10" stroke-dasharray="" stroke-dashoffset="0" font-family="Sans Serif" font-weight="normal" text-anchor="start" style="mix-blend-mode: normal"><tspan x="0" dy="0">E to interact</tspan></text></g></g></svg>