<svg version="1.1" xmlns="http://www.w3.org/2000/svg" xmlns:xlink="http://www.w3.org/1999/xlink" width="104.14633" height="32.46795" viewBox="0,0,104.14633,32.46795"><g transform="translate(-343.35946,-261.26605)"><g data-paper-data="{&quot;isPaintingLayer&quot;:true}" fill-rule="nonzero" stroke-linecap="butt" stroke-linejoin="miter" stroke-miterlimit="10" stroke-dasharray="" stroke-dashoffset="0" style="mix-blend-mode: normal"><text transform="translate(378.66667,284.00002) scale(0.5,0.5)" font-size="40" xml:space="preserve" fill="#9966ff" fill-rule="nonzero" stroke="none" stroke-width="1" stroke-linecap="butt" stroke-linejoin="miter" stroke-miterlimit="10" stroke-dasharray="" stroke-dashoffset="0" font-family="Serif" font-weight="normal" text-anchor="start" style="mix-blend-mode: normal"><tspan x="0" dy="0">xamt8</tspan></text><path d="M344.35949,288.06156c0,-6.33069 0,-17.2575 0,-20.86857c0,-2.28224 3.21989,-4.92694 6.79577,-4.92694c11.004,0 68.28142,0 88.37512,0c4.36507,0 6.97541,1.8341 6.97541,4.54519c0,6.38829 0,17.64596 0,21.25032c0,2.18502 -2.68227,4.67244 -7.15504,4.67244c-20.20524,0 -76.94844,0 -88.01588,0c-3.65954,0 -6.97541,-1.89337 -6.97541,-4.67244z" fill-opacity="0.62097" fill="#291800" stroke="#d84646" stroke-width="2"></path><g fill="#ff7a7a"><text transform="translate(382.58298,285.41892) scale(0.58039,0.58039)" font-size="40" xml:space="preserve" fill="#ff7a7a" fill-rule="nonzero" stroke="none" stroke-width="1" stroke-linecap="butt" stroke-linejoin="miter" stroke-miterlimit="10" stroke-dasharray="" stroke-dashoffset="0" font-family="Serif" font-weight="normal" text-anchor="start" style="mix-blend-mode: normal"><tspan x="0" dy="0">Warp</tspan></text><path d="M368.02572,269.88992c0.31063,-0.58723 0.9239,-0.95503 1.59249,-0.95503c0.66859,0 1.28192,0.3678 1.59249,0.95503l2.03662,3.85079l4.32176,0.73117c0.659,0.11156 1.20129,0.57639 1.4079,1.20704c0.20661,0.63066 0.04336,1.32297 -0.42366,1.79738l-3.0631,3.11109l0.63441,4.30265c0.0967,0.65616 -0.18156,1.31133 -0.72238,1.70108c-0.5409,0.38981 -1.25509,0.44975 -1.85441,0.15572l-3.92964,-1.92797l-3.92971,1.92797c-0.59919,0.29404 -1.31345,0.23409 -1.85428,-0.15572c-0.54083,-0.38975 -0.81908,-1.04492 -0.72238,-1.70108l0.63435,-4.30265l-3.06304,-3.11109c-0.46708,-0.47441 -0.63025,-1.16672 -0.42365,-1.79738c0.20654,-0.63066 0.74889,-1.09548 1.4079,-1.20704l4.32176,-0.73117z" stroke="#000000" stroke-width="0"></path></g></g></g></svg>