<svg version="1.1" xmlns="http://www.w3.org/2000/svg" xmlns:xlink="http://www.w3.org/1999/xlink" width="111.91593" height="84.64157" viewBox="0,0,111.91593,84.64157"><defs><radialGradient cx="271.24887" cy="177.6131" r="6.14882" gradientUnits="userSpaceOnUse" id="color-1"><stop offset="0" stop-color="#79787a"></stop><stop offset="1" stop-color="#b3b0b4"></stop></radialGradient><radialGradient cx="287.05722" cy="176.3616" r="8.07389" gradientUnits="userSpaceOnUse" id="color-2"><stop offset="0" stop-color="#79787a"></stop><stop offset="1" stop-color="#b3b0b4"></stop></radialGradient><radialGradient cx="257.07836" cy="182.83696" r="9.17392" gradientUnits="userSpaceOnUse" id="color-3"><stop offset="0" stop-color="#79787a"></stop><stop offset="1" stop-color="#b3b0b4"></stop></radialGradient><radialGradient cx="247.18485" cy="172.42104" r="7.69176" gradientUnits="userSpaceOnUse" id="color-4"><stop offset="0" stop-color="#79787a"></stop><stop offset="1" stop-color="#b3b0b4"></stop></radialGradient><radialGradient cx="236.52714" cy="175.00296" r="8.87129" gradientUnits="userSpaceOnUse" id="color-5"><stop offset="0" stop-color="#79787a"></stop><stop offset="1" stop-color="#464546"></stop></radialGradient><linearGradient x1="195.4719" y1="206.35412" x2="201.50711" y2="214.44131" gradientUnits="userSpaceOnUse" id="color-6"><stop offset="0" stop-color="#f5d95e" stop-opacity="0.76745"></stop><stop offset="1" stop-color="#f5d95e" stop-opacity="0"></stop></linearGradient><linearGradient x1="189.69917" y1="206.44503" x2="195.73439" y2="214.53222" gradientUnits="userSpaceOnUse" id="color-7"><stop offset="0" stop-color="#f5d95e" stop-opacity="0.76745"></stop><stop offset="1" stop-color="#f5d95e" stop-opacity="0"></stop></linearGradient></defs><g transform="translate(-183.73863,-136.67926)"><g data-paper-data="{&quot;isPaintingLayer&quot;:true}" fill-rule="nonzero" stroke-linejoin="miter" stroke-miterlimit="10" stroke-dasharray="" stroke-dashoffset="0" style="mix-blend-mode: normal"><path d="M242.64286,189.78571c0,0 -0.57143,-7.44244 -0.57143,-11.14286c0,-3.5814 0.57143,-10.71429 0.57143,-10.71429h2.28571c0,0 1,7.36913 1,11c0,3.65468 -1,10.85714 -1,10.85714z" fill="#805c45" stroke="none" stroke-width="0" stroke-linecap="butt"></path><path d="M213.96633,138.68792l-22.4,10.8h-6.4v-10.2z" data-paper-data="{&quot;index&quot;:null}" fill="#9f9ea1" stroke="#000000" stroke-width="0.5" stroke-linecap="butt"></path><path d="M184.96633,216.28792v-10.2h6.4l22.4,10.8z" fill="#9f9ea1" stroke="#000000" stroke-width="0.5" stroke-linecap="butt"></path><path d="M183.73866,221.32083v-5.51584h110.58727v5.51584z" fill="#757575" stroke="none" stroke-width="0.5" stroke-linecap="butt"></path><path d="M293.91806,175.60087v-3.02982h1.04879v3.02982z" fill="#b7b7b7" stroke="none" stroke-width="0.5" stroke-linecap="butt"></path><path d="M183.8833,140.8744v-4.19514h110.79222v4.19514z" fill="#686868" stroke="none" stroke-width="0.5" stroke-linecap="butt"></path><path d="M183.73863,219.77805v-80.90803h1.86451v80.90803z" fill="#686868" stroke="none" stroke-width="0.5" stroke-linecap="butt"></path><path d="M269.78049,185.59741v-2.47789c0,0 1.19537,-9.81977 2.11079,-9.81977c0.31181,0 0.07909,3.58847 0.65119,5.67886c0.74784,2.73247 2.28556,4.14091 2.28556,4.14091v2.47789z" data-paper-data="{&quot;index&quot;:null}" fill="url(#color-1)" stroke="#000000" stroke-width="0.5" stroke-linecap="butt"></path><path d="M282.35749,184.3459v-2.47789c0,0 2.01915,-1.40845 3.00112,-4.14091c0.75122,-2.09039 0.44562,-5.67886 0.85507,-5.67886c1.20201,0 2.77164,9.81977 2.77164,9.81977v2.47789z" data-paper-data="{&quot;index&quot;:null}" fill="url(#color-2)" stroke="#000000" stroke-width="0.5" stroke-linecap="butt"></path><path d="M251.73831,191.90908v-2.81549c0,0 2.29425,-1.60034 3.41001,-4.7051c0.85357,-2.37519 0.50633,-6.45258 0.97157,-6.45258c1.36578,0 3.14925,11.15768 3.14925,11.15768v2.81549z" data-paper-data="{&quot;index&quot;:null}" fill="url(#color-3)" stroke="#000000" stroke-width="0.5" stroke-linecap="butt"></path><path d="M245.34801,180.02745v-2.36062c0,0 1.49533,-9.35501 2.64046,-9.35501c0.39006,0 0.09894,3.41864 0.8146,5.41009c0.9355,2.60315 2.85909,3.94492 2.85909,3.94492v2.36061z" data-paper-data="{&quot;index&quot;:null}" fill="url(#color-4)" stroke="#000000" stroke-width="0.5" stroke-linecap="butt"></path><path d="M232.72325,190.78203v-1.40884c0,0 2.0525,-5.86614 2.61682,-9.96622c0.40881,-2.97017 -0.74444,-4.5449 -0.26875,-4.5449c0.1457,0 0.56813,-2.83065 1.00068,-4.47987c0.16449,-0.62718 -0.03106,-1.32453 0.29043,-1.27682c0.53361,0.07918 1.6616,4.55445 2.60332,5.93247c0.88476,1.29466 -1.96428,5.41401 -1.48172,7.09948c1.08788,3.79969 2.28343,7.23586 2.28343,7.23586v1.40884z" data-paper-data="{&quot;index&quot;:null}" fill="url(#color-5)" stroke="#000000" stroke-width="0.5" stroke-linecap="butt"></path><path d="M240.9615,148.5996v-7.72941h5.63143v7.72941z" fill="#785641" stroke="none" stroke-width="0" stroke-linecap="butt"></path><path d="M240.9615,215.7996v-7.72941h5.63143v7.72941z" fill="#785641" stroke="none" stroke-width="0" stroke-linecap="butt"></path><g><path d="M188.26223,207.35226v-0.90909h8v0.90909z" fill="#f5c900" stroke="none" stroke-width="0" stroke-linecap="butt"></path><path d="M192.08041,208.76135l-1.86363,-1.09091" data-paper-data="{&quot;index&quot;:null}" fill="none" stroke="#000000" stroke-width="0.15" stroke-linecap="round"></path><path d="M194.62587,207.76135l-1.86364,1.09091" fill="none" stroke="#000000" stroke-width="0.15" stroke-linecap="round"></path><path d="M189.61714,214.08741l0.10688,-0.52251l2.67789,0.54775l-0.10688,0.52251z" fill="#000000" stroke="none" stroke-width="0" stroke-linecap="butt"></path><path d="M192.37619,217.16669l-0.2,-3.06667h0.6v2.8z" fill="#000000" stroke="none" stroke-width="0" stroke-linecap="butt"></path><path d="M192.22034,214.62321l-0.06249,-0.46247l2.84085,-0.38389l0.06249,0.46246z" fill="#000000" stroke="none" stroke-width="0" stroke-linecap="butt"></path><path d="M192.04285,214.83336v-7.6h0.8v7.6z" fill="#f5c900" stroke="none" stroke-width="0" stroke-linecap="butt"></path><path d="M192.04285,210.83336v-0.4h0.8v0.4z" fill="#000000" stroke="none" stroke-width="0" stroke-linecap="butt"></path><path d="M191.96917,207.36303v-0.94737h0.78948v0.94737c0,0 -0.15352,0.18182 -0.26914,0.18182c-0.14206,0 -0.52034,-0.18182 -0.52034,-0.18182z" fill="#040400" stroke="none" stroke-width="0" stroke-linecap="butt"></path><path d="M188.0218,207.47547v-2.05263h3v2.05263z" fill="#f5e49a" stroke="#000000" stroke-width="0.5" stroke-linecap="butt"></path><path d="M188.62586,207.12499l-0.04545,-1.5" fill="none" stroke="#000000" stroke-width="0.25" stroke-linecap="round"></path><path d="M189.53496,207.2159l-0.04545,-1.59091" fill="none" stroke="#000000" stroke-width="0.25" stroke-linecap="round"></path><path d="M190.3986,205.7159l0.04545,1.36364" fill="none" stroke="#000000" stroke-width="0.25" stroke-linecap="round"></path><path d="M190.62587,206.57954c0,0 -0.74157,0.24303 -1.13982,0.228c-0.40468,-0.01527 -1.26927,-0.31891 -1.26927,-0.31891" fill="none" stroke="#000000" stroke-width="0.25" stroke-linecap="round"></path><path d="M193.84238,207.52092v-2.05263h3v2.05263z" data-paper-data="{&quot;index&quot;:null}" fill="#f5e49a" stroke="#000000" stroke-width="0.5" stroke-linecap="butt"></path><path d="M196.23831,207.17044l0.04546,-1.5" data-paper-data="{&quot;index&quot;:null}" fill="none" stroke="#000000" stroke-width="0.25" stroke-linecap="round"></path><path d="M195.32922,207.26135l0.04546,-1.59091" data-paper-data="{&quot;index&quot;:null}" fill="none" stroke="#000000" stroke-width="0.25" stroke-linecap="round"></path><path d="M194.42013,207.12499l0.04546,-1.36364" data-paper-data="{&quot;index&quot;:null}" fill="none" stroke="#000000" stroke-width="0.25" stroke-linecap="round"></path><path d="M196.6474,206.53408c0,0 -0.86459,0.30364 -1.26927,0.31891c-0.39825,0.01503 -1.13982,-0.228 -1.13982,-0.228" data-paper-data="{&quot;index&quot;:null}" fill="none" stroke="#000000" stroke-width="0.25" stroke-linecap="round"></path><path d="M200.15925,215.44718l-6.03522,-8.08719c0,0 -0.42015,-1.42051 0.00904,-1.7408c0.46631,-0.34799 2.68669,-0.27094 2.68669,-0.27094l6.03522,8.08719z" fill="url(#color-6)" stroke="none" stroke-width="0" stroke-linecap="butt"></path><path d="M194.38652,215.53809l-6.03521,-8.08719c0,0 -0.42014,-1.42051 0.00904,-1.7408c0.46631,-0.34799 2.68669,-0.27093 2.68669,-0.27093l6.03521,8.08719z" fill="url(#color-7)" stroke="none" stroke-width="0" stroke-linecap="butt"></path></g><path d="M210.81633,145.73792v-3.4h7.6v3.4z" fill="#dcd6a7" stroke="none" stroke-width="NaN" stroke-linecap="butt"></path><path d="M217.61633,147.43792v-5.4h2.3v5.4z" fill="#9d9d9d" stroke="none" stroke-width="0" stroke-linecap="butt"></path><path d="M208.81633,147.23792v-5h2.4v5z" fill="#9d9d9d" stroke="none" stroke-width="0" stroke-linecap="butt"></path><path d="M219.91633,145.13792v-0.8h3v0.8z" fill="#9d9d9d" stroke="none" stroke-width="0" stroke-linecap="butt"></path><path d="M222.51633,147.43792v-3.1h0.8v3.1z" fill="#9d9d9d" stroke="none" stroke-width="0" stroke-linecap="butt"></path><path d="M223.41633,147.48792c0,0.1933 -0.22386,0.35 -0.5,0.35c-0.27614,0 -0.5,-0.1567 -0.5,-0.35c0,-0.1933 0.22386,-0.35 0.5,-0.35c0.27614,0 0.5,0.1567 0.5,0.35z" fill="#000000" stroke="none" stroke-width="0" stroke-linecap="butt"></path><path d="M213.21633,145.53792l-1.1,-2l0.6,-1.1" fill="none" stroke="#ab4200" stroke-width="0.15" stroke-linecap="round"></path><path d="M215.61633,145.53792l-1,-2l1.3,-0.8" fill="none" stroke="#ab4200" stroke-width="0.15" stroke-linecap="round"></path><path d="M217.01633,145.33792l-0.5,-1.5l0.8,-1.1" fill="none" stroke="#ab4200" stroke-width="0.15" stroke-linecap="round"></path><path d="M290.61909,148.44223l-1.05361,-4.98069l0.71153,-0.15052l1.05361,4.98069z" fill="#c69046" stroke="#ab4200" stroke-width="0.15" stroke-linecap="butt"></path><path d="M288.1688,144.13392l-0.12761,-0.80817c0,0 0.67807,-1.13577 1.17131,-1.21365c0.59504,-0.09395 2.15116,0.68905 2.15116,0.68905l0.12761,0.80817c0,0 -1.24993,-0.24283 -1.84109,-0.14949c-0.50152,0.07919 -1.48139,0.67409 -1.48139,0.67409z" fill="#46c6c7" stroke="none" stroke-width="0" stroke-linecap="butt"></path><path d="M289.62987,142.37662c0,0.22593 -0.20351,0.40909 -0.45455,0.40909c-0.25104,0 -0.45455,-0.18316 -0.45455,-0.40909c0,-0.22593 0.20351,-0.40909 0.45455,-0.40909c0.25104,0 0.45455,0.18316 0.45455,0.40909z" fill="#b5c7c7" stroke="none" stroke-width="0" stroke-linecap="butt"></path><path d="M239.10436,191.94245v-2.87227h9.34572v2.87227z" fill="#a7785a" stroke="none" stroke-width="0" stroke-linecap="butt"></path><path d="M239.39007,168.51388v-2.87226h9.34572v2.87226z" fill="#a7785a" stroke="none" stroke-width="0" stroke-linecap="butt"></path><path d="M293.16393,220.90067v-84.11628h2.49063v84.11628z" fill="#686868" stroke="none" stroke-width="0.5" stroke-linecap="butt"></path></g></g></svg>