<svg version="1.1" xmlns="http://www.w3.org/2000/svg" xmlns:xlink="http://www.w3.org/1999/xlink" width="59.83334" height="78.22891" viewBox="0,0,59.83334,78.22891"><defs><linearGradient x1="245.20059" y1="178.35002" x2="262.14649" y2="178.35002" gradientUnits="userSpaceOnUse" id="color-1"><stop offset="0" stop-color="#8d3800"></stop><stop offset="1" stop-color="#d27a00"></stop></linearGradient><linearGradient x1="216.31434" y1="178.42537" x2="233.38104" y2="178.42537" gradientUnits="userSpaceOnUse" id="color-2"><stop offset="0" stop-color="#d27a00"></stop><stop offset="1" stop-color="#8d3800"></stop></linearGradient><linearGradient x1="245.0682" y1="164.42401" x2="233.60959" y2="164.42401" gradientUnits="userSpaceOnUse" id="color-3"><stop offset="0" stop-color="#ffe108"></stop><stop offset="1" stop-color="#ffc908"></stop></linearGradient><linearGradient x1="244.71443" y1="164.46768" x2="238.99292" y2="164.46768" gradientUnits="userSpaceOnUse" id="color-4"><stop offset="0" stop-color="#ffe108"></stop><stop offset="1" stop-color="#ffe108" stop-opacity="0"></stop></linearGradient><radialGradient cx="239.28876" cy="160.17564" r="3.01848" gradientUnits="userSpaceOnUse" id="color-5"><stop offset="0" stop-color="#fff399"></stop><stop offset="1" stop-color="#fff399" stop-opacity="0"></stop></radialGradient><linearGradient x1="238.86205" y1="198.53109" x2="233.67589" y2="198.5515" gradientUnits="userSpaceOnUse" id="color-6"><stop offset="0" stop-color="#08ff7d"></stop><stop offset="1" stop-color="#06ce5c"></stop></linearGradient><linearGradient x1="245.11751" y1="198.63721" x2="240.02051" y2="198.63721" gradientUnits="userSpaceOnUse" id="color-7"><stop offset="0" stop-color="#08ff7d"></stop><stop offset="1" stop-color="#06ce5c"></stop></linearGradient></defs><g transform="translate(-210.08333,-140.63555)"><g data-paper-data="{&quot;isPaintingLayer&quot;:true}" fill-rule="nonzero" stroke-linejoin="miter" stroke-miterlimit="10" stroke-dasharray="" stroke-dashoffset="0" style="mix-blend-mode: normal"><path d="M240.17941,152.07957l-0.7296,53.99054" fill="none" stroke="#652800" stroke-width="1" stroke-linecap="round"></path><path d="M214.49742,149.74485v-4.37761c0,0 15.22365,-4.23169 23.20134,-4.23169c8.60909,0 26.70343,4.23169 26.70343,4.23169v4.37761z" fill="#652800" stroke="#311300" stroke-width="1" stroke-linecap="butt"></path><path d="M210.08333,218.86446l4.81418,-13.2046h49.92989l5.08927,13.2046z" fill-opacity="0.45161" fill="#000000" stroke="none" stroke-width="1" stroke-linecap="butt"></path><g stroke-width="1" stroke-linecap="butt"><path d="M214.34732,206.34536v-56.94483h49.92989v56.94483z" fill="#000000" stroke="none"></path><path d="M215.94825,206.2244v-55.74158c0,0 13.50178,0 20.86662,0c8.2858,0 26.41159,0 26.41159,0v55.74158z" fill="none" stroke="#652800"></path></g><g stroke-width="1" stroke-linecap="butt"><path d="M245.20059,205.72205v-54.74406h16.9459v54.74406z" fill="url(#color-1)" stroke="none"></path><path d="M249.32409,199.8362v-9.92258h8.75304v9.92258z" fill="none" stroke="#7b3100"></path><path d="M249.54853,182.32575v-9.92259h8.75304v9.92259z" fill="none" stroke="#7b3100"></path><path d="M249.6773,164.39908v-9.92258h8.75304v9.92258z" fill="none" stroke="#7b3100"></path><g><path d="M248.83512,180.41168c-0.86201,-0.27049 -1.37532,-1.48929 -1.1465,-2.72227c0.22882,-1.23298 1.11311,-2.01324 1.97512,-1.74275c0.86201,0.27049 1.37532,1.48929 1.1465,2.72227c-0.22882,1.23298 -1.1131,2.01324 -1.97512,1.74275z" fill="#fff4ce" stroke="#e6ddbb"></path><path d="M249.39228,179.1825c-0.53553,-0.16804 -0.85442,-0.92523 -0.71227,-1.69122c0.14215,-0.76599 0.69152,-1.25073 1.22705,-1.08269c0.53553,0.16804 0.85442,0.92523 0.71227,1.69122c-0.14215,0.76599 -0.69152,1.25073 -1.22705,1.08269z" fill="#e6ddbb" stroke="#e6ddbb"></path><path d="M246.26821,178.44834l1.26318,-0.62439l0.48018,1.64255l-1.26318,0.62439z" fill="#e6ddbb" stroke="none"></path><path d="M247.31087,180.42803c-0.44621,0.80702 -0.79276,-0.10181 -0.94954,-0.52282c-0.24464,-0.65696 -0.19919,-1.31049 0.00055,-1.91498l-0.04452,-0.01397l0.0634,-0.34164v0c0.03023,-0.16289 0.15628,-0.26307 0.28155,-0.22376c0.09055,0.02841 0.1559,0.12193 0.17375,0.2331l0.06683,0.37645l-0.00933,0.0028l0.0137,0.02986c0.00032,0.03311 0.00065,0.06622 0.00098,0.09932c0.03238,0.03493 0.05686,0.08065 0.07093,0.13183c0.04069,0.05636 0.06422,0.13205 0.06338,0.21176l0.00214,0.34014c0.02693,0.21694 0.33891,1.46033 0.26617,1.5919z" fill="#fff4ce" stroke="none"></path></g></g><g stroke-width="1" stroke-linecap="butt"><path d="M216.31434,205.7974v-54.74406h17.0667v54.74406z" fill="url(#color-2)" stroke="none"></path><path d="M219.73312,164.62872v-9.92259h8.45252v9.92259z" fill="none" stroke="#7b3100"></path><path d="M219.67094,182.4932v-9.92258h8.45252v9.92258z" fill="none" stroke="#7b3100"></path><path d="M219.5004,199.48216v-9.92259h8.45252v9.92259z" fill="none" stroke="#7b3100"></path><g data-paper-data="{&quot;index&quot;:null}"><path d="M228.66603,178.66892c-0.22096,-1.23298 0.27472,-2.45178 1.10714,-2.72227c0.83242,-0.27049 1.68635,0.50977 1.90731,1.74275c0.22096,1.23298 -0.27472,2.45178 -1.10714,2.72227c-0.83242,0.27049 -1.68635,-0.50977 -1.90731,-1.74275z" fill="#fff4ce" stroke="#e6ddbb"></path><path d="M228.85039,178.0998c-0.13727,-0.766 0.17067,-1.52318 0.68782,-1.69122c0.51714,-0.16804 1.04765,0.3167 1.18492,1.08269c0.13727,0.766 -0.17067,1.52318 -0.68782,1.69122c-0.51714,0.16804 -1.04765,-0.3167 -1.18492,-1.08269z" fill="#e6ddbb" stroke="#e6ddbb"></path><path d="M232.58842,180.09089l-1.21981,-0.62439l0.46369,-1.64255l1.21981,0.62439z" fill="#e6ddbb" stroke="none"></path><path d="M232.04526,180.42803c-0.07025,-0.13157 0.23103,-1.37497 0.25703,-1.5919l0.00207,-0.34014c-0.00081,-0.07971 0.02191,-0.1554 0.06121,-0.21176c0.01359,-0.05118 0.03723,-0.09689 0.0685,-0.13183c0.00031,-0.03311 0.00063,-0.06621 0.00094,-0.09932l0.01323,-0.02986l-0.00901,-0.0028l0.06453,-0.37645c0.01724,-0.11117 0.08035,-0.20469 0.16779,-0.2331c0.12097,-0.03931 0.2427,0.06088 0.27189,0.22376v0l0.06122,0.34164l-0.043,0.01397c0.19289,0.6045 0.23677,1.25802 0.00054,1.91498c-0.15139,0.42101 -0.48605,1.32984 -0.91694,0.52282z" fill="#fff4ce" stroke="none"></path></g></g><path d="M232.65765,189.37191l-0.07074,-21.28577h2.76685l-1.42932,22.86204z" data-paper-data="{&quot;index&quot;:null}" fill="#0067b5" stroke="none" stroke-width="0" stroke-linecap="butt"></path><path d="M233.64908,171.54467l-1.14258,-3.54501l11.90192,0.34586l0.85694,3.19916z" data-paper-data="{&quot;index&quot;:null}" fill="#0067b5" stroke="none" stroke-width="0" stroke-linecap="butt"></path><path d="M233.51959,191.23723v-19.6972h11.83605v19.6972z" data-paper-data="{&quot;index&quot;:null}" fill="#0090ff" stroke="none" stroke-width="0" stroke-linecap="butt"></path><path d="M249.23664,187.71513l-7.61168,-13.6421l4.22609,-2.35795c0,0 1.01283,-0.09559 1.32181,0.4582c0.87479,1.56788 5.48934,9.05568 6.75203,11.77029c0.26342,0.56632 -0.46212,1.41357 -0.46212,1.41357z" data-paper-data="{&quot;index&quot;:null}" fill="#ffe108" stroke="none" stroke-width="0" stroke-linecap="butt"></path><path d="M233.23607,161.79651c0,0 0.04142,-2.33025 1.78654,-3.05886c1.37296,-0.57324 5.77333,-0.92249 8.27294,-0.18142c1.81088,0.53686 2.08391,1.99391 2.08391,2.67923c0,1.63136 -0.34199,6.2155 -0.34199,6.2155c0,0 0.2091,1.48454 -0.9247,2.2694c-1.14279,0.79108 -3.63234,0.88245 -4.59919,0.86682c-1.18168,-0.01909 -3.69427,-0.10307 -5.09739,-1.05245c-0.94648,-0.64042 -1.09768,-2.2732 -1.09768,-2.2732z" fill="#d8bf06" stroke="none" stroke-width="0" stroke-linecap="butt"></path><text transform="translate(245.06614,165.51068) rotate(-180) scale(0.09317,-0.09315)" font-size="40" xml:space="preserve" fill="#fbff66" fill-rule="nonzero" stroke="none" stroke-width="1" stroke-linecap="butt" stroke-linejoin="miter" stroke-miterlimit="10" stroke-dasharray="" stroke-dashoffset="0" font-family="Sans Serif" font-weight="normal" text-anchor="start" style="mix-blend-mode: normal"><tspan x="0" dy="0">xamt8</tspan></text><path d="M233.60959,161.98699c0,0 0.03907,-2.21375 1.68579,-2.90596c1.29554,-0.54459 5.44774,-0.87637 7.80641,-0.17235c1.70876,0.51003 1.9664,1.89426 1.9664,2.54532c0,1.54981 -0.32271,5.90479 -0.32271,5.90479c0,0 0.19733,1.41033 -0.87254,2.15595c-1.07834,0.75152 -3.4275,0.83835 -4.33985,0.82349c-1.11505,-0.01815 -3.48593,-0.0979 -4.80993,-0.99983c-0.8931,-0.60841 -1.03578,-2.15956 -1.03578,-2.15956z" fill="url(#color-3)" stroke="none" stroke-width="0" stroke-linecap="butt"></path><path d="M239.10542,158.55301c1.29981,-0.01317 2.6349,0.09857 3.6426,0.39934c1.70876,0.51003 1.9664,1.89426 1.9664,2.54532c0,1.54981 -0.32271,5.90479 -0.32271,5.90479c0,0 0.19733,1.41034 -0.87255,2.15597c-1.07834,0.75152 -3.4275,0.83834 -4.33984,0.82349c-0.18911,-0.00308 -0.26841,-11.82692 -0.07389,-11.82891z" fill="url(#color-4)" stroke="none" stroke-width="0" stroke-linecap="butt"></path><path d="M235.8565,158.36691c-0.45496,-0.64513 2.09653,-0.15696 4.20643,0.19162c2.1013,0.34716 4.1656,0.72968 3.79488,0.96871c-0.71025,0.45794 -2.48863,1.16701 -2.48863,1.16701c0,0 -0.90134,1.25191 -1.86588,1.30408c-0.51672,0.02794 -0.98303,-0.83687 -1.49194,-1.19649c-0.41161,-0.29087 -1.51073,-2.0694 -1.6944,-2.32983z" fill="url(#color-5)" stroke="none" stroke-width="0" stroke-linecap="butt"></path><path d="M233.4576,171.59816l-0.99039,-2.82972" data-paper-data="{&quot;index&quot;:null}" fill="none" stroke="#003e6d" stroke-width="0.15" stroke-linecap="round"></path><g stroke="#000000"><path d="M233.69839,206.27751l-0.04501,-15.45202l5.18616,-0.02041l0.04501,15.45202z" data-paper-data="{&quot;index&quot;:null}" fill="url(#color-6)" stroke-width="0" stroke-linecap="butt"></path><path d="M238.98457,191.06648l-0.20685,15.17526l-5.10519,-0.07718l0.20574,-15.56435" data-paper-data="{&quot;index&quot;:null}" fill="none" stroke-width="0.15" stroke-linecap="round"></path></g><g stroke="#000000"><path d="M240.02051,206.36327v-15.45211h5.09698v15.45211z" data-paper-data="{&quot;index&quot;:null}" fill="url(#color-7)" stroke-width="0" stroke-linecap="butt"></path><path d="M245.25928,191.17314l-0.24674,15.17437l-5.01714,-0.09727l0.24676,-15.56345" data-paper-data="{&quot;index&quot;:null}" fill="none" stroke-width="0.15" stroke-linecap="round"></path></g><path d="M224.64712,186.44976c0,0 -0.85208,-0.71988 -0.68292,-1.32111c0.81082,-2.88202 4.16434,-11.01315 4.77627,-12.70107c0.21614,-0.59619 1.23117,-0.66432 1.23117,-0.66432l4.54964,1.64943l-5.32449,14.68653z" data-paper-data="{&quot;index&quot;:null}" fill="#ffe108" stroke="none" stroke-width="0" stroke-linecap="butt"></path></g></g></svg>