<svg version="1.1" xmlns="http://www.w3.org/2000/svg" xmlns:xlink="http://www.w3.org/1999/xlink" width="14.22004" height="24.85324" viewBox="0,0,14.22004,24.85324"><defs><radialGradient cx="242.41972" cy="175.45143" r="1.93362" gradientUnits="userSpaceOnUse" id="color-1"><stop offset="0" stop-color="#fcd688"></stop><stop offset="1" stop-color="#fcd688" stop-opacity="0"></stop></radialGradient><linearGradient x1="238.96525" y1="189.98439" x2="238.66295" y2="190.91544" gradientUnits="userSpaceOnUse" id="color-2"><stop offset="0" stop-color="#321f21"></stop><stop offset="1" stop-color="#472a26"></stop></linearGradient><linearGradient x1="239.8191" y1="180.60637" x2="239.8191" y2="191.53777" gradientUnits="userSpaceOnUse" id="color-3"><stop offset="0" stop-color="#b6684e"></stop><stop offset="1" stop-color="#472a26"></stop></linearGradient><linearGradient x1="243.97764" y1="181.22357" x2="243.97764" y2="191.52399" gradientUnits="userSpaceOnUse" id="color-4"><stop offset="0" stop-color="#532e2c"></stop><stop offset="1" stop-color="#341f21"></stop></linearGradient><linearGradient x1="237.4863" y1="180.27612" x2="246.91689" y2="180.27612" gradientUnits="userSpaceOnUse" id="color-5"><stop offset="0" stop-color="#b6684e"></stop><stop offset="1" stop-color="#5f3730"></stop></linearGradient><radialGradient cx="240.19381" cy="170.75229" r="4.18755" gradientUnits="userSpaceOnUse" id="color-6"><stop offset="0" stop-color="#ffd9aa"></stop><stop offset="1" stop-color="#a4593e"></stop></radialGradient><radialGradient cx="237.42236" cy="170.6313" r="3.88372" gradientUnits="userSpaceOnUse" id="color-7"><stop offset="0" stop-color="#ffc297"></stop><stop offset="1" stop-color="#a15a42"></stop></radialGradient><linearGradient x1="233.78897" y1="168.67975" x2="239.3036" y2="169.10547" gradientUnits="userSpaceOnUse" id="color-8"><stop offset="0" stop-color="#a35e47"></stop><stop offset="1" stop-color="#c29285"></stop></linearGradient><linearGradient x1="237.56408" y1="170.38621" x2="237.66798" y2="169.9487" gradientUnits="userSpaceOnUse" id="color-9"><stop offset="0" stop-color="#fef4d2" stop-opacity="0"></stop><stop offset="1" stop-color="#fef4d2"></stop></linearGradient><linearGradient x1="237.91169" y1="170.23238" x2="237.56498" y2="170.20561" gradientUnits="userSpaceOnUse" id="color-10"><stop offset="0" stop-color="#ecd5b5"></stop><stop offset="1" stop-color="#ecd5b5" stop-opacity="0"></stop></linearGradient><radialGradient cx="241.37796" cy="176.92787" r="0.30578" gradientUnits="userSpaceOnUse" id="color-11"><stop offset="0" stop-color="#55170f"></stop><stop offset="1" stop-color="#faccb4"></stop></radialGradient><radialGradient cx="242.00752" cy="177.84222" r="0.30578" gradientUnits="userSpaceOnUse" id="color-12"><stop offset="0" stop-color="#55170f"></stop><stop offset="1" stop-color="#faccb4"></stop></radialGradient><radialGradient cx="242.66704" cy="178.66664" r="0.30578" gradientUnits="userSpaceOnUse" id="color-13"><stop offset="0" stop-color="#55170f"></stop><stop offset="1" stop-color="#faccb4"></stop></radialGradient><radialGradient cx="242.89188" cy="177.12273" r="0.30578" gradientUnits="userSpaceOnUse" id="color-14"><stop offset="0" stop-color="#55170f"></stop><stop offset="1" stop-color="#faccb4"></stop></radialGradient><radialGradient cx="241.24307" cy="178.51674" r="0.30578" gradientUnits="userSpaceOnUse" id="color-15"><stop offset="0" stop-color="#55170f"></stop><stop offset="1" stop-color="#faccb4"></stop></radialGradient><linearGradient x1="243.74778" y1="176.94686" x2="243.74778" y2="180.54429" gradientUnits="userSpaceOnUse" id="color-16"><stop offset="0" stop-color="#794237"></stop><stop offset="1" stop-color="#d27e67"></stop></linearGradient><linearGradient x1="237.22594" y1="181.7919" x2="246.35441" y2="181.7919" gradientUnits="userSpaceOnUse" id="color-17"><stop offset="0" stop-color="#f4a681"></stop><stop offset="1" stop-color="#5a3630"></stop></linearGradient><radialGradient cx="238.97968" cy="187.41289" r="1.72837" gradientUnits="userSpaceOnUse" id="color-18"><stop offset="0" stop-color="#c88469"></stop><stop offset="1" stop-color="#5a332a"></stop></radialGradient></defs><g transform="translate(-232.85538,-167.57338)"><g data-paper-data="{&quot;isPaintingLayer&quot;:true}" fill-rule="nonzero" stroke-linejoin="miter" stroke-miterlimit="10" stroke-dasharray="" stroke-dashoffset="0" style="mix-blend-mode: normal"><text transform="translate(239.01116,178.72059) scale(0.0455,0.0455)" font-size="40" xml:space="preserve" fill="#66ddff" fill-rule="nonzero" stroke="none" stroke-width="0.5" stroke-linecap="butt" stroke-linejoin="miter" stroke-miterlimit="10" stroke-dasharray="" stroke-dashoffset="0" font-family="Sans Serif" font-weight="normal" text-anchor="start" style="mix-blend-mode: normal"><tspan x="0" dy="0">xAmt8</tspan></text><path d="M243.88117,175.45143c0,1.06791 -0.65431,1.93362 -1.46146,1.93362c-0.80715,0 -1.46146,-0.86571 -1.46146,-1.93362c0,-1.06791 0.65431,-1.93362 1.46146,-1.93362c0.80715,0 1.46146,0.86571 1.46146,1.93362z" fill="url(#color-1)" stroke="none" stroke-width="0.25" stroke-linecap="butt"></path><path d="M234.99089,188.38029l0.94988,0.1306l6.04895,2.94699c0,0 1.26638,-0.3181 1.25475,-0.14133c-0.00612,0.09304 2.13386,-0.34564 1.85762,-0.1496c-0.12258,0.08699 -3.17609,1.25967 -3.17609,1.25967c0,0 -5.54935,-2.7464 -6.59798,-3.35823c-0.3547,-0.20696 -0.33713,-0.68811 -0.33713,-0.68811z" fill="url(#color-2)" stroke="none" stroke-width="0.25" stroke-linecap="butt"></path><path d="M234.98158,187.76096l2.50025,-7.22276l7.03935,0.87977c0,0 0.2407,0.92095 0.08041,1.50594c-0.43717,1.59549 -2.85332,8.61386 -2.85332,8.61386c0,0 -5.6199,-2.27674 -6.48452,-2.75932c-0.22199,-0.12391 -0.28216,-1.01749 -0.28216,-1.01749z" fill="url(#color-3)" stroke="none" stroke-width="0.25" stroke-linecap="butt"></path><path d="M245.29237,189.6576l0.37087,-8.44442l1.12371,-0.02181c0,0 -0.27921,4.77117 -0.34703,6.31552c-0.03896,0.88704 -0.092,2.19705 -0.092,2.19705c0,0 -0.88751,1.01166 -1.33945,1.4534c-0.12723,0.12436 -0.21995,0.20355 -0.24862,0.2023c-0.19485,-0.00855 0.53253,-1.70206 0.53253,-1.70206z" fill="#321f21" stroke="none" stroke-width="0.25" stroke-linecap="butt"></path><path d="M241.73796,191.50196l2.59246,-10.27839l1.8869,0.33885l-0.9224,8.063c0,0 0.04524,1.19541 -0.43038,1.60684c-0.03351,0.02899 -0.0696,0.05408 -0.10848,0.07459c-0.59492,0.31386 -3.01808,0.19511 -3.01808,0.19511z" fill="url(#color-4)" stroke="none" stroke-width="0.25" stroke-linecap="butt"></path><path d="M237.4863,180.50364l0.21822,-1.93042l7.37937,0.72928l1.66945,1.35996l0.16353,0.51411c0,0 -0.66179,0.18188 -0.6759,0.23818c-0.04663,0.18606 0.18242,0.56429 0.18242,0.56429l-2.17122,-0.47344l-6.17271,-0.29116z" fill="url(#color-5)" stroke="#000000" stroke-width="0.25" stroke-linecap="butt"></path><path d="M237.44821,179.49818l-0.77254,-1.63286l3.26572,-1.54508l0.77254,1.63286z" fill="#572f2a" stroke="#000000" stroke-width="0.25" stroke-linecap="butt"></path><path d="M244.16127,178.33142c0,-0.74353 0.60274,-1.34627 1.34627,-1.34627c0.31641,0 0.60733,0.10916 0.83713,0.29186c0.31023,0.24663 0.50914,0.6273 0.50914,1.05441c0,0.74353 -0.60275,1.34627 -1.34627,1.34627c-0.74353,0 -1.34627,-0.60275 -1.34627,-1.34627z" fill="#b06b59" stroke="none" stroke-width="0.25" stroke-linecap="butt"></path><path d="M243.97766,178.21597c0,-0.74353 0.60275,-1.34627 1.34627,-1.34627c0.74353,0 1.34627,0.60275 1.34627,1.34627c0,0.74353 -0.60274,1.34627 -1.34627,1.34627c-0.74353,0 -1.34627,-0.60274 -1.34627,-1.34627z" fill="#ecac8b" stroke="none" stroke-width="0.25" stroke-linecap="butt"></path><text transform="translate(238.47339,171.20882) rotate(-79.7173) scale(0.02269,0.02269)" font-size="40" xml:space="preserve" fill="#41251e" fill-rule="nonzero" stroke="none" stroke-width="0.5" stroke-linecap="butt" stroke-linejoin="miter" stroke-miterlimit="10" stroke-dasharray="" stroke-dashoffset="0" font-family="Sans Serif" font-weight="normal" text-anchor="start" style="mix-blend-mode: normal"><tspan x="0" dy="0">xAmt8</tspan></text><path d="M241.79486,177.18869l-0.03039,-0.48628c0,0 0.75492,-0.13249 1.24866,-0.16334c0.31936,-0.01996 1.42586,-0.00381 1.42586,-0.00381l0.03039,0.48628z" fill="#ffffff" stroke="none" stroke-width="0.25" stroke-linecap="butt"></path><path d="M236.94608,178.14505l0.84406,-8.0953l2.68352,0.2798l-0.52928,8.0953z" fill="url(#color-6)" stroke="none" stroke-width="0.25" stroke-linecap="butt"></path><path d="M237.90217,170.4338l0.0886,-1.14776l0.87792,-1.14372l1.39506,0.81153l0.31242,1.59281c0,0 -0.9216,0.02243 -1.13617,0.00585c-0.37386,-0.02886 -1.53782,-0.11872 -1.53782,-0.11872z" fill="#88472d" stroke="none" stroke-width="0.25" stroke-linecap="butt"></path><path d="M233.24036,177.40698l0.53248,-7.70008l4.19544,0.06529c0,0 -0.34372,3.15312 -0.53071,4.53206c-0.15664,1.15513 -0.34186,3.81375 -0.34186,3.81375z" fill="url(#color-7)" stroke="#000000" stroke-width="0.25" stroke-linecap="butt"></path><path d="M233.7059,169.75577l1.52589,-2.18239l3.74791,0.46974l-1.11494,1.8533z" fill="url(#color-8)" stroke="none" stroke-width="0.25" stroke-linecap="butt"></path><path d="M237.85206,170.71862l-0.57236,-0.39995l0.1039,-0.43751l0.5826,-0.04427z" data-paper-data="{&quot;index&quot;:null}" fill="url(#color-9)" stroke="none" stroke-width="0.25" stroke-linecap="butt"></path><path d="M237.54283,170.49255l0.04431,-0.57388l0.34672,0.02676l-0.04431,0.57388z" data-paper-data="{&quot;index&quot;:null}" fill="url(#color-10)" stroke="none" stroke-width="0.25" stroke-linecap="butt"></path><path d="M238.54495,168.76765l0.38257,-0.69421z" fill="#623320" stroke="none" stroke-width="0.25" stroke-linecap="butt"></path><path d="M239.23455,178.94637l0.22338,-1.29139c0,0 0.40321,-0.80673 0.58583,-0.78067c0.18744,0.02676 0.52473,0.9392 0.52473,0.9392l-0.22338,1.29139z" fill="#e7c0af" stroke="none" stroke-width="0.25" stroke-linecap="butt"></path><path d="M240.32872,177.63238c0,0.09934 -0.10067,0.17988 -0.22484,0.17988c-0.12417,0 -0.22484,-0.08054 -0.22484,-0.17988c0,-0.09934 0.10067,-0.17988 0.22484,-0.17988c0.12417,0 0.22484,0.08054 0.22484,0.17988z" fill="#fca57a" stroke="#a88c80" stroke-width="0.25" stroke-linecap="butt"></path><path d="M240.22504,179.16123l0.40693,-2.88204l2.66936,0.47187l-0.33498,2.73814z" fill="#e8b49e" stroke="#a88c80" stroke-width="0.25" stroke-linecap="butt"></path><path d="M241.45742,177.12873c0,0.16888 -0.13691,0.30578 -0.30578,0.30578c-0.16888,0 -0.30578,-0.13691 -0.30578,-0.30578c0,-0.16888 0.13691,-0.30578 0.30578,-0.30578c0.16888,0 0.30578,0.13691 0.30578,0.30578z" fill="url(#color-11)" stroke="none" stroke-width="0.25" stroke-linecap="butt"></path><path d="M242.08696,178.04308c0,0.16888 -0.1369,0.30578 -0.30578,0.30578c-0.16888,0 -0.30578,-0.13691 -0.30578,-0.30578c0,-0.16888 0.13691,-0.30578 0.30578,-0.30578c0.16888,0 0.30578,0.1369 0.30578,0.30578z" fill="url(#color-12)" stroke="none" stroke-width="0.25" stroke-linecap="butt"></path><path d="M242.74649,178.86749c0,0.16888 -0.13691,0.30578 -0.30578,0.30578c-0.16888,0 -0.30578,-0.13691 -0.30578,-0.30578c0,-0.16888 0.1369,-0.30578 0.30578,-0.30578c0.16888,0 0.30578,0.1369 0.30578,0.30578z" fill="url(#color-13)" stroke="none" stroke-width="0.25" stroke-linecap="butt"></path><path d="M242.97133,177.32359c0,0.16888 -0.13691,0.30578 -0.30578,0.30578c-0.16888,0 -0.30578,-0.13691 -0.30578,-0.30578c0,-0.16888 0.1369,-0.30578 0.30578,-0.30578c0.16888,0 0.30578,0.1369 0.30578,0.30578z" fill="url(#color-14)" stroke="none" stroke-width="0.25" stroke-linecap="butt"></path><path d="M241.32251,178.7176c0,0.16888 -0.1369,0.30578 -0.30578,0.30578c-0.16888,0 -0.30578,-0.1369 -0.30578,-0.30578c0,-0.16888 0.13691,-0.30578 0.30578,-0.30578c0.16888,0 0.30578,0.1369 0.30578,0.30578z" fill="url(#color-15)" stroke="none" stroke-width="0.25" stroke-linecap="butt"></path><path d="M242.99831,179.56983l0.18271,-2.80569l0.87314,0.28496l-0.13633,2.49391z" fill="url(#color-16)" stroke="none" stroke-width="0.25" stroke-linecap="butt"></path><path d="M233.88209,178.82175l-0.79896,-1.55589l4.03688,0.75692l0.42051,1.51382z" fill="#572f2a" stroke="#000000" stroke-width="0.25" stroke-linecap="butt"></path><text transform="translate(233.94994,178.31852) rotate(11.38566) scale(0.02269,0.02269)" font-size="40" xml:space="preserve" fill="#41251e" fill-rule="nonzero" stroke="none" stroke-width="0.5" stroke-linecap="butt" stroke-linejoin="miter" stroke-miterlimit="10" stroke-dasharray="" stroke-dashoffset="0" font-family="Sans Serif" font-weight="normal" text-anchor="start" style="mix-blend-mode: normal"><tspan x="0" dy="0">xAmt8</tspan></text><path d="M243.26191,178.74416c0,0 0,-0.1908 0,-0.32531c0,-0.21965 0,-0.8675 0,-0.8675h0.9827c0,0 0.80434,0.19616 1.04851,0.43049c0.05893,0.05655 0.23435,0.24769 0.23577,0.36396c0.00159,0.13034 -0.17478,0.18515 -0.17478,0.21764c0,0.21148 -1.1095,0.18073 -1.1095,0.18073z" fill="#a4593e" stroke="#000000" stroke-width="0.25" stroke-linecap="butt"></path><path d="M245.0683,178.21597c0,0.14118 -0.12207,0.25563 -0.27267,0.25563c-0.15059,0 -0.27266,-0.11445 -0.27266,-0.25563c0,-0.14118 0.12207,-0.25562 0.27266,-0.25562c0.15059,0 0.27267,0.11444 0.27267,0.25562z" fill="#ecac8b" stroke="none" stroke-width="0.25" stroke-linecap="butt"></path><path d="M237.53598,179.56224l-0.44308,-1.46556l2.28355,0.23858" fill="none" stroke="#000000" stroke-width="0.25" stroke-linecap="round"></path><path d="M243.16169,175.58633c0,0.64571 -0.42683,1.16917 -0.78694,1.16917c-0.36011,0 -0.8319,-0.52346 -0.8319,-1.16917c0,-0.32727 0.35512,-0.8195 0.44178,-1.22542c0.08433,-0.39496 0.07763,-0.7082 0.25522,-0.7082c0.12791,0 0.21929,0.25246 0.34192,0.49097c0.22259,0.43292 0.57991,1.02631 0.57991,1.44265z" fill="#ffffff" stroke="none" stroke-width="0.25" stroke-linecap="butt"></path><path d="M237.22594,181.25228l6.92506,0.53961l2.20342,0.53961" fill="none" stroke="url(#color-17)" stroke-width="0.25" stroke-linecap="round"></path><path d="M237.29789,181.09939l6.83511,0.58458l2.34283,0.51713l0.26082,-0.08694" fill="none" stroke="#512317" stroke-width="0.25" stroke-linecap="round"></path><g stroke="none" stroke-width="0.25" stroke-linecap="butt"><path d="M237.28712,187.38531l-0.20945,-1.61064l0.67422,-0.08768l0.20945,1.61064z" fill="#5a332a"></path><path d="M237.08403,187.28146l0.19579,-0.53167l3.26095,1.20086l-0.19579,0.53167z" fill="url(#color-18)"></path><path d="M239.93297,187.71227l1.44984,-0.54433l0.25446,0.67778l-1.44984,0.54434z" fill="#5a332a"></path><path d="M241.92837,185.51925l0.06353,-1.47174l0.45284,0.01955l-0.06353,1.47174z" fill="#5a332a"></path><path d="M237.07638,185.99058l1.03117,-2.80016l0.67346,0.24801l-1.03117,2.80016z" fill="#5a332a"></path><path d="M238.10376,183.20956l1.11153,-0.3682l0.50596,0.43976l-1.41558,0.538z" fill="#5a332a"></path><path d="M239.07943,183.06529l0.09137,-0.24812l3.26095,1.20086l-0.09137,0.24811z" fill="#5a332a"></path><path d="M241.11714,187.4786l0.82233,-2.23304l0.46079,0.16969l-0.82233,2.23304z" fill="#5a332a"></path></g></g></g></svg>