<svg version="1.1" xmlns="http://www.w3.org/2000/svg" xmlns:xlink="http://www.w3.org/1999/xlink" width="26.81826" height="274.44927" viewBox="0,0,26.81826,274.44927"><defs><radialGradient cx="244.58905" cy="178.24692" r="88.36018" gradientUnits="userSpaceOnUse" id="color-1"><stop offset="0" stop-color="#9800ff" stop-opacity="0.50132"></stop><stop offset="1" stop-color="#9800ff" stop-opacity="0"></stop></radialGradient><linearGradient x1="244.77606" y1="153.95417" x2="242.6705" y2="167.6507" gradientUnits="userSpaceOnUse" id="color-2"><stop offset="0" stop-color="#8e47b1"></stop><stop offset="1" stop-color="#573e9b"></stop></linearGradient></defs><g transform="translate(-226.59087,-41.02229)"><g data-paper-data="{&quot;isPaintingLayer&quot;:true}" fill-rule="nonzero" stroke-linecap="butt" stroke-linejoin="miter" stroke-miterlimit="10" stroke-dasharray="" stroke-dashoffset="0" style="mix-blend-mode: normal"><path d="M251.75339,178.24692c0,75.78708 -3.20759,137.22464 -7.16434,137.22464c-3.95675,0 -7.16434,-61.43756 -7.16434,-137.22464c0,-75.78707 3.20758,-137.22463 7.16434,-137.22463c3.95675,0 7.16434,61.43756 7.16434,137.22463z" fill="url(#color-1)" stroke="none" stroke-width="0"></path><path d="M239.4745,199.25358l3.28771,0.46915l0.86012,2.29738c0,0 0.11565,0.37263 -0.63076,0.69343c-0.28156,0.12102 -1.88327,4.54908 -2.39419,4.63005c-0.21012,0.0333 -1.93233,-0.13906 -1.80555,-1.36595c0.08318,-0.80491 2.04657,-2.84519 1.95651,-2.84161c-0.37539,0.01492 -0.65903,0.76211 -0.65903,0.76211z" fill="#bb6fdb" stroke="none" stroke-width="0"></path><path d="M239.63033,201.64645l-5.76714,-14.38715l3.48076,-1.39527l5.76714,14.38715z" fill="#4d006e" stroke="none" stroke-width="0"></path><path d="M250.14869,184.29694l-5.37455,-12.69602l2.31269,-1.17705l5.37455,12.69603z" data-paper-data="{&quot;index&quot;:null}" fill="#aa65c7" stroke="none" stroke-width="0"></path><path d="M250.41528,185.25829l-0.57455,-1.49875l2.17434,-1.09305l0.57455,1.49875z" data-paper-data="{&quot;index&quot;:null}" fill="#8d54a5" stroke="none" stroke-width="0"></path><path d="M250.42849,187.92857l-0.36482,-3.51386l1.2051,-0.21534l0.36482,3.51386z" data-paper-data="{&quot;index&quot;:null}" fill="#8d54a5" stroke="none" stroke-width="0"></path><path d="M249.01796,185.30107l1.17358,-1.793l0.66979,0.50447l-1.17358,1.793z" data-paper-data="{&quot;index&quot;:null}" fill="#8d54a5" stroke="none" stroke-width="0"></path><path d="M251.87066,188.42757l-0.72699,-4.18661l0.52146,-0.13587l0.72699,4.18661z" data-paper-data="{&quot;index&quot;:null}" fill="#8d54a5" stroke="none" stroke-width="0"></path><path d="M252.41424,186.61176l-0.5852,-2.70606l0.66433,-0.20609l0.5852,2.70606z" data-paper-data="{&quot;index&quot;:null}" fill="#8d54a5" stroke="none" stroke-width="0"></path><path d="M252.00326,183.72445l0.44108,-0.79667l0.96479,0.60255l-0.44108,0.79667z" data-paper-data="{&quot;index&quot;:null}" fill="#8d54a5" stroke="none" stroke-width="0"></path><path d="M227.5747,182.79014l6.61043,-12.09864l2.18419,1.40118l-6.61043,12.09864z" fill="#aa65c7" stroke="none" stroke-width="0"></path><path d="M227.34318,183.81755l0.72074,-1.43419l2.05486,1.30386l-0.72074,1.43419z" fill="#8d54a5" stroke="none" stroke-width="0"></path><path d="M227.94166,187.44302l0.71244,-3.46016l1.17771,0.33411l-0.71244,3.46016z" fill="#8d54a5" stroke="none" stroke-width="0"></path><path d="M230.06757,185.7383l-0.98947,-1.9008l0.71661,-0.43537l0.98947,1.9008z" fill="#8d54a5" stroke="none" stroke-width="0"></path><path d="M227.12935,187.9432l1.13972,-4.09358l0.50536,0.18706l-1.13972,4.09358z" fill="#8d54a5" stroke="none" stroke-width="0"></path><path d="M226.63386,185.99826l0.8514,-2.63445l0.64054,0.27113l-0.8514,2.63445z" fill="#8d54a5" stroke="none" stroke-width="0"></path><path d="M226.95053,183.94088l-0.35966,-0.83658l1.01993,-0.50362l0.35966,0.83658z" fill="#8d54a5" stroke="none" stroke-width="0"></path><path d="M235.61232,187.63885l3.12751,-20.34434l7.21242,1.10876l-3.12751,20.34434z" fill-opacity="0.52552" fill="#5e0087" stroke="none" stroke-width="0"></path><path d="M234.12522,187.41025c0,0 -1.15177,-1.78096 -0.89774,-5.0216c0.02262,-0.28867 1.61964,-0.9341 1.63915,-1.23968c0.07326,-1.14738 -0.27101,-2.5457 -0.16295,-3.84626c0.09028,-1.08667 -0.13161,-4.8545 0.01786,-5.73457c0.08432,-0.49642 2.75151,-1.9746 2.80948,-2.35163c0.38787,-2.5231 0.34214,-6.18652 0.34214,-6.18652l10.33534,1.58884c0,0 0.11538,3.61501 -0.87434,7.10035c-0.7026,2.4742 -2.53341,4.66978 -2.80165,6.41469c-0.59974,3.90134 -0.07194,10.86523 -0.07194,10.86523c0,0 -1.55382,1.68909 -2.26845,1.68902c-2.15736,-0.00019 -5.56298,-1.71256 -6.90576,-1.91899c-0.81662,-0.12554 -1.16112,-1.35887 -1.16112,-1.35887zM239.89938,184.07206c-0.38663,-0.65185 -3.86278,-0.06175 -2.50149,1.02768c-0.02094,0.03143 -0.03572,0.06846 -0.04197,0.10916c-0.01709,0.11116 0.03471,0.21535 0.12109,0.26041l0.2058,0.11411l0.02607,-0.05469c0.21176,0.14018 0.42185,0.16459 0.76163,0.10344c0.3322,0.09548 0.7246,0.1616 1.11652,0.16172c0.06256,0.01553 0.12423,0.02866 0.18461,0.03931l0.22307,0.03429c0.10053,0.01545 0.19684,-0.04514 0.24028,-0.14211c0.55827,-0.12809 1.03898,-0.45084 1.23756,-1.09191c0.20403,-0.65861 -1.84407,-2.26437 -2.1229,-2.81721c0,0 -0.10968,-0.21437 -0.30759,-0.08679c-0.19791,0.12758 -0.08823,0.34195 -0.08823,0.34195c0.36968,0.7137 0.97493,1.1998 1.47534,1.80411c0.03754,0.04533 0.37311,0.51154 0.53735,0.60834c-0.26799,0.14926 -1.06492,0.73015 -1.23994,0.82235c-0.00579,0.00306 -0.01155,0.00607 -0.01725,0.00903c-0.03952,-0.00882 -0.07823,-0.01921 -0.11627,-0.03083c-0.12169,-0.05507 -0.25265,-0.10877 -0.38737,-0.15921c-0.04424,-0.02139 -0.0882,-0.04317 -0.13222,-0.06476c0.58599,-0.13467 1.13662,-0.46458 0.82592,-0.9884zM239.59324,174.18092l0.04827,-0.04529c1.06567,-0.55964 2.46338,-1.45517 3.59928,-2.45151l0.01096,0.0214l0.394,-0.25398c0.05891,-0.03725 0.10308,-0.10238 0.1152,-0.18126c0.01975,-0.12844 -0.05248,-0.24757 -0.16375,-0.27695l-0.21922,-0.06127c-0.8403,-0.42083 0.1069,-0.97705 0.5729,-0.89727c0,0 0.22307,0.03429 0.26106,-0.21281c0.03799,-0.2471 -0.18509,-0.28139 -0.18509,-0.28139c-0.88806,-0.12533 -1.9844,1.08607 -0.99021,1.75866c-1.24876,0.23222 -2.62489,1.88589 -3.57938,2.38714l-0.12576,0.09658c0,0 -0.18459,0.15048 -0.05372,0.34945c0.13086,0.19897 0.31546,0.0485 0.31546,0.0485z" fill="#7300a5" stroke="none" stroke-width="0"></path><path d="M238.2802,184.60446l-0.01622,-0.00076l0.00239,-0.00607l-0.12067,-0.05428c0.25611,0.01292 0.55301,0.02561 0.81522,0.00293c-0.26312,0.08974 -0.54012,0.15026 -0.68072,0.05818z" fill="#7300a5" stroke="none" stroke-width="0"></path><path d="M237.66461,184.72087c-0.24287,-0.15502 -0.16302,-0.19293 0.06837,-0.19347c-0.03331,0.03672 -0.05701,0.08468 -0.0654,0.13922c-0.00282,0.01835 -0.00376,0.03652 -0.00299,0.05425z" fill="#7300a5" stroke="none" stroke-width="0"></path><path d="M238.7117,165.68826l1.29152,-8.40131l8.31895,1.27886l-1.29152,8.40131z" fill-opacity="0.50132" fill="#5e0087" stroke="none" stroke-width="0"></path><path d="M249.32097,163.18058c-0.45556,2.96338 -3.43307,4.96473 -6.65047,4.47012c-3.21739,-0.49461 -5.45631,-3.29787 -5.00075,-6.26125c0.45556,-2.96338 3.66081,-7.96496 6.8782,-7.47036c3.21739,0.49461 5.22856,6.29809 4.773,9.26148zM246.92724,162.22223l-0.08581,-0.00828c-0.42036,0.0219 -1.12466,0.05458 -0.8127,0.4532l-0.36611,0.00004c-0.10377,-0.00173 -0.19737,0.06137 -0.23565,0.1562l-0.20512,0.03816c-0.10413,0.01686 -0.19019,0.09898 -0.20708,0.20886c-0.01709,0.11116 0.04186,0.21646 0.13805,0.26302l0.43241,0.22199c0.15125,0.09524 0.56604,0.35656 0.66019,0.41528c1.76759,1.10221 -1.61414,0.37045 -1.51046,1.4201c0.00553,0.05599 0.04025,0.11209 0.09453,0.16503c-0.58258,0.11445 -0.98366,0.43756 -1.43783,0.96325c0,0 -0.16317,0.18941 0.02623,0.35258c0.18941,0.16317 0.35258,-0.02623 0.35258,-0.02623c0.46351,-0.53969 0.83472,-0.85039 1.55439,-0.83803l0.26672,0.03776l0.47441,0.07293c0.13647,0.02098 0.2641,-0.07264 0.28509,-0.20911c0.01659,-0.10796 -0.03853,-0.2104 -0.12985,-0.25886l-0.27089,-0.15199l-0.00889,0.01585c-0.06804,-0.06249 -0.1402,-0.1207 -0.21347,-0.16662c0.03446,-0.00587 0.06534,-0.01127 0.09039,-0.01556c0.28062,-0.04802 1.60498,-0.37488 1.54422,-0.88412c-0.06614,-0.5543 -0.78879,-0.91253 -1.29454,-1.19082c0.01443,-0.02557 0.02457,-0.05413 0.02929,-0.08487c0.00025,-0.00161 0.00047,-0.00323 0.00069,-0.00484l0.04653,-0.00001l0.25686,0.00273c0.12404,0.0033 0.23408,-0.08611 0.25343,-0.21197c0.00506,-0.0329 0.00346,-0.06527 -0.0038,-0.09576c0.04814,-0.07702 0.1391,-0.14604 0.21277,-0.1487l-0.01259,0.00297c0,0 0.2471,0.03799 0.28509,-0.20911c0.03799,-0.2471 -0.20911,-0.28509 -0.20911,-0.28509zM241.51242,162.49503l0.1802,-0.19713c0.07555,-0.11692 0.11737,-0.29332 0.11941,-0.45651c0.0306,0.00161 0.06128,0.00265 0.092,0.00316l-0.00502,0.07222l0.44256,0.03076c0.12941,0.01036 0.24676,-0.08089 0.26679,-0.21125c0.01548,-0.10074 -0.03147,-0.19666 -0.112,-0.24842l-0.25767,-0.17367c-0.6836,-0.46053 -2.36185,-2.84483 -1.09671,-2.93263c0,0 0.24803,-0.03136 0.21667,-0.27938c-0.03136,-0.24803 -0.27938,-0.21667 -0.27938,-0.21667c-1.67972,0.26771 -0.5829,2.35241 0.37392,3.38865l-0.24583,-0.0775c-0.0133,-0.00445 -0.02714,-0.00782 -0.04147,-0.01002c-0.13647,-0.02098 -0.2641,0.07264 -0.28509,0.20911c-0.0134,0.08713 0.01993,0.17066 0.08129,0.22512l0.19427,0.17758l0.04885,-0.05344c0.08912,0.12104 0.15214,0.21124 0.11839,0.21552l-0.1802,0.19713c0,0 -0.16868,0.18452 0.01586,0.3532c0.18452,0.16868 0.3532,-0.01586 0.3532,-0.01586z" fill="url(#color-2)" stroke="none" stroke-width="0"></path><path d="M236.94116,191.08896l0.25174,-0.88142c0,0 0.60272,-0.2945 0.84438,-0.22549c0.23908,0.06828 0.59796,0.6374 0.59796,0.6374l-0.25174,0.88142z" fill="#9c35c8" stroke="none" stroke-width="0"></path><path d="M246.28631,167.47206c-0.00331,0.00164 -0.00664,0.00328 -0.00997,0.0049" fill="none" stroke="#00e82d" stroke-width="0.15"></path><path d="M243.18004,166.72179c-0.01226,-0.01753 -0.02422,-0.03522 -0.03586,-0.05305" fill="none" stroke="#00e82d" stroke-width="0.15"></path><path d="M243.54935,166.16694c0.39875,-0.94365 1.61641,-1.35949 2.75547,-0.92869c0.28548,0.10796 0.53946,0.25906 0.75469,0.44019" fill="none" stroke="#00e82d" stroke-width="0.15"></path><g stroke="none" stroke-width="0"><path d="M232.74103,197.69952l2.3465,2.35011l-0.69252,2.35333c0,0 -0.1314,0.36737 -0.92082,0.17543c-0.30822,-0.07494 0.45388,4.41211 -0.01549,4.16078c-0.17139,-0.09177 -2.07218,-1.34455 -2.5807,-2.77424c-0.3607,-1.01412 0.6227,-2.34547 0.54903,-2.39638c-0.30907,-0.21358 -0.98471,0.21336 -0.98471,0.21336z" fill="#bb6fdb"></path><path d="M231.99248,198.6592l10.64736,-11.26427l2.72522,2.57598l-10.64736,11.26427z" fill="#4d006e"></path><path d="M237.28214,194.64509l0.80694,-0.43488c0,0 0.63284,0.2285 0.75078,0.44737c0.11923,0.22125 -0.03918,0.87309 -0.03918,0.87309l-0.80694,0.43488z" data-paper-data="{&quot;index&quot;:null}" fill="#9c35c8"></path></g></g></g></svg>