<svg version="1.1" xmlns="http://www.w3.org/2000/svg" xmlns:xlink="http://www.w3.org/1999/xlink" width="55.02564" height="48.14597" viewBox="0,0,55.02564,48.14597"><defs><radialGradient cx="240.06042" cy="197.0705" r="5.34274" gradientUnits="userSpaceOnUse" id="color-1"><stop offset="0" stop-color="#f8ff21"></stop><stop offset="1" stop-color="#ffb900"></stop></radialGradient><radialGradient cx="232.42554" cy="154.79897" r="12.81794" gradientUnits="userSpaceOnUse" id="color-2"><stop offset="0" stop-color="#cc9500"></stop><stop offset="1" stop-color="#ffb900"></stop></radialGradient><linearGradient x1="239.83544" y1="184.63109" x2="240.03588" y2="195.71384" gradientUnits="userSpaceOnUse" id="color-3"><stop offset="0" stop-color="#080000"></stop><stop offset="1" stop-color="#909090"></stop></linearGradient><radialGradient cx="263.74313" cy="180.06318" r="3.46864" gradientUnits="userSpaceOnUse" id="color-4"><stop offset="0" stop-color="#fff85d"></stop><stop offset="1" stop-color="#fff85d" stop-opacity="0"></stop></radialGradient><linearGradient x1="262.76501" y1="185.45948" x2="264.64691" y2="185.42544" gradientUnits="userSpaceOnUse" id="color-5"><stop offset="0" stop-color="#fff3d5"></stop><stop offset="1" stop-color="#ffd3c2"></stop></linearGradient><radialGradient cx="255.55275" cy="178.49554" r="3.46863" gradientUnits="userSpaceOnUse" id="color-6"><stop offset="0" stop-color="#fff85d"></stop><stop offset="1" stop-color="#fff85d" stop-opacity="0"></stop></radialGradient><linearGradient x1="254.57463" y1="183.89184" x2="256.45652" y2="183.8578" gradientUnits="userSpaceOnUse" id="color-7"><stop offset="0" stop-color="#fff3d5"></stop><stop offset="1" stop-color="#ffd3c2"></stop></linearGradient><radialGradient cx="224.15711" cy="178.87434" r="3.46864" gradientUnits="userSpaceOnUse" id="color-8"><stop offset="0" stop-color="#fff85d"></stop><stop offset="1" stop-color="#fff85d" stop-opacity="0"></stop></radialGradient><linearGradient x1="223.17898" y1="184.27064" x2="225.06088" y2="184.23661" gradientUnits="userSpaceOnUse" id="color-9"><stop offset="0" stop-color="#fff3d5"></stop><stop offset="1" stop-color="#ffd3c2"></stop></linearGradient><radialGradient cx="215.17095" cy="180.20495" r="3.46863" gradientUnits="userSpaceOnUse" id="color-10"><stop offset="0" stop-color="#fff85d"></stop><stop offset="1" stop-color="#fff85d" stop-opacity="0"></stop></radialGradient><linearGradient x1="214.19282" y1="185.60124" x2="216.07472" y2="185.56721" gradientUnits="userSpaceOnUse" id="color-11"><stop offset="0" stop-color="#fff3d5"></stop><stop offset="1" stop-color="#ffd3c2"></stop></linearGradient></defs><g transform="translate(-211.94422,-151.63961)"><g data-paper-data="{&quot;isPaintingLayer&quot;:true}" fill-rule="nonzero" stroke-linejoin="miter" stroke-miterlimit="10" stroke-dasharray="" stroke-dashoffset="0" style="mix-blend-mode: normal"><text transform="translate(235.24034,197.87863) rotate(-1.03614) scale(0.07465,0.07465)" font-size="40" xml:space="preserve" fill="#ffffff" fill-rule="nonzero" stroke="none" stroke-width="1" stroke-linecap="butt" stroke-linejoin="miter" stroke-miterlimit="10" stroke-dasharray="" stroke-dashoffset="0" font-family="Sans Serif" font-weight="normal" text-anchor="start" style="mix-blend-mode: normal"><tspan x="0" dy="0">xAmt8</tspan></text><text transform="translate(232.32198,158.45309) rotate(-1.03641) scale(0.14405,0.14405)" font-size="40" xml:space="preserve" fill="#000000" fill-rule="nonzero" stroke="none" stroke-width="1" stroke-linecap="butt" stroke-linejoin="miter" stroke-miterlimit="10" stroke-dasharray="" stroke-dashoffset="0" font-family="Marker" font-weight="normal" text-anchor="start" style="mix-blend-mode: normal"><tspan x="0" dy="0">xAmt8</tspan></text><path d="M255.28499,190.0096l-2.26375,6.14793l-8.98789,0.16256" fill="none" stroke="#ffb900" stroke-width="0.5" stroke-linecap="round"></path><path d="M264.13091,191.37636l-1.76113,5.79956l-17.97886,0.15553" fill="none" stroke="#ffb900" stroke-width="0.5" stroke-linecap="round"></path><path d="M235.7102,196.79051l-8.98789,0.16256l-2.48458,-6.06205" data-paper-data="{&quot;index&quot;:null}" fill="none" stroke="#ffb900" stroke-width="0.5" stroke-linecap="round"></path><path d="M235.38943,197.81414l-17.97272,0.4947l-1.96969,-5.73209" data-paper-data="{&quot;index&quot;:null}" fill="none" stroke="#ffb900" stroke-width="0.5" stroke-linecap="round"></path><path d="M245.40228,196.97388c0.0271,1.49853 -2.34256,2.75658 -5.29278,2.80994c-2.95022,0.05336 -5.36383,-1.11819 -5.39093,-2.61671c-0.0271,-1.49853 2.34255,-2.75658 5.29278,-2.80994c2.95022,-0.05336 5.36384,1.11819 5.39094,2.61671z" fill="url(#color-1)" stroke="none" stroke-width="0.5" stroke-linecap="butt"></path><path d="M238.94433,196.91397l-0.65624,-36.28369l1.37786,-0.02492l0.65624,36.28369z" fill="#ffb900" stroke="none" stroke-width="0.5" stroke-linecap="butt"></path><path d="M242.82748,167.16408c0.03557,1.96682 -1.53002,3.59008 -3.49683,3.62565c-1.96682,0.03557 -3.59008,-1.53002 -3.62565,-3.49683c-0.03557,-1.96682 1.53002,-3.59008 3.49683,-3.62565c1.96682,-0.03557 3.59008,1.53002 3.62565,3.49683z" fill="none" stroke="#ffb900" stroke-width="0.5" stroke-linecap="butt"></path><path d="M242.27664,175.29731c0.02879,1.59219 -1.23858,2.90625 -2.83077,2.93506c-1.59219,0.02879 -2.90625,-1.23858 -2.93504,-2.83077c-0.02879,-1.59219 1.23859,-2.90626 2.83077,-2.93506c1.59219,-0.02879 2.90625,1.23858 2.93506,2.83078z" fill="none" stroke="#ffb900" stroke-width="0.5" stroke-linecap="butt"></path><path d="M241.52401,181.65297c0.02287,1.26439 -0.98358,2.30791 -2.24796,2.33078c-1.26439,0.02287 -2.30791,-0.98358 -2.33078,-2.24796c-0.02287,-1.26439 0.98358,-2.30791 2.24796,-2.33078c1.26439,-0.02287 2.30791,0.98358 2.33078,2.24796z" fill="none" stroke="#ffb900" stroke-width="0.5" stroke-linecap="butt"></path><path d="M252.5411,154.86177c0.03199,1.7695 -5.15598,6.96113 -12.23397,7.08915c-7.078,0.12802 -13.36573,-4.85607 -13.39773,-6.62557c-0.03199,-1.7695 5.67991,-3.30773 12.75791,-3.43574c7.078,-0.12802 12.8418,1.20267 12.87381,2.97216z" fill="url(#color-2)" stroke="#000000" stroke-width="0.5" stroke-linecap="butt"></path><path d="M237.05717,185.779l-0.01985,-1.0973l5.59624,-0.10121l0.01985,1.0973c0,0 -0.20276,5.95592 -1.09881,8.75163c-0.28673,0.89463 -1.33749,1.28116 -1.57357,1.28542c-0.28324,0.00513 -1.44201,-0.34402 -1.85813,-1.73364c-0.88058,-2.94057 -1.06571,-8.2022 -1.06571,-8.2022z" fill="none" stroke="url(#color-3)" stroke-width="0.5" stroke-linecap="butt"></path><path d="M266.17051,191.59393c0.00592,0.3278 -0.97629,0.6114 -2.19384,0.63342c-1.21756,0.02203 -2.20938,-0.22587 -2.21531,-0.55367c-0.00592,-0.3278 0.97629,-0.61139 2.19384,-0.63341c1.21756,-0.02203 2.20938,0.22586 2.21531,0.55367z" fill="#ffc72d" stroke="none" stroke-width="0.5" stroke-linecap="butt"></path><path d="M257.32306,190.14239c0.00847,0.46829 -0.74392,0.86165 -1.68049,0.87858c-0.93658,0.01694 -1.70269,-0.34895 -1.71116,-0.81724c-0.00847,-0.46829 0.74392,-0.86165 1.68049,-0.87858c0.93658,-0.01694 1.70269,0.34896 1.71116,0.81725z" fill="#ffc72d" stroke="none" stroke-width="0.5" stroke-linecap="butt"></path><path d="M225.78062,190.71286c0.00508,0.28097 -0.75005,0.52248 -1.68663,0.53942c-0.93658,0.01694 -1.69996,-0.19711 -1.70504,-0.47808c-0.00508,-0.28097 0.75005,-0.52248 1.68663,-0.53942c0.93658,-0.01694 1.69996,0.1971 1.70503,0.47807z" fill="#ffc72d" stroke="none" stroke-width="0.5" stroke-linecap="butt"></path><path d="M217.15643,192.22594c0.00678,0.37463 -0.78494,0.69274 -1.76835,0.71054c-0.98341,0.01779 -1.78611,-0.2715 -1.79288,-0.64612c-0.00678,-0.37463 0.78494,-0.69274 1.76835,-0.71054c0.98341,-0.01779 1.78611,0.2715 1.79288,0.64612z" fill="#ffc72d" stroke="none" stroke-width="0.5" stroke-linecap="butt"></path><g><text transform="translate(262.08121,190.27091) rotate(-1.0356) scale(0.03027,0.03027)" font-size="40" xml:space="preserve" fill="#66d6ff" fill-rule="nonzero" stroke="none" stroke-width="1" stroke-linecap="butt" stroke-linejoin="miter" stroke-miterlimit="10" stroke-dasharray="" stroke-dashoffset="0" font-family="Sans Serif" font-weight="normal" text-anchor="start" style="mix-blend-mode: normal"><tspan x="0" dy="0">xAmt8</tspan></text><g stroke-width="0.5"><path d="M266.96924,180.00484c0.03464,1.91536 -1.38166,3.49418 -3.16338,3.52641c-1.78173,0.03222 -3.25419,-1.49436 -3.28883,-3.40972c-0.03464,-1.91536 1.38166,-3.49419 3.16338,-3.52641c1.78173,-0.03222 3.25419,1.49436 3.28884,3.40972z" fill="url(#color-4)" stroke="none" stroke-linecap="butt"></path><path d="M262.92914,191.56123l-0.77999,-1.4919l3.54774,-0.11796l-0.24064,1.56415z" fill="#a76a00" stroke="none" stroke-linecap="butt"></path><path d="M262.15111,190.17687l-0.00584,-0.32261l3.60249,-0.06516l0.00584,0.32261z" fill="#643f00" stroke="none" stroke-linecap="butt"></path><path d="M262.03969,189.96374l-0.82695,-1.11455l5.21457,-0.1481l-0.6776,1.19555z" fill="#a76a00" stroke="none" stroke-linecap="butt"></path><path d="M265.33866,190.81714c-0.11008,-0.21057 0.10048,-0.32065 0.10048,-0.32065l0.21313,-0.11142c0.29042,-0.15184 0.70835,-0.26293 0.56755,-0.6907c-0.04823,-0.14652 -0.19907,-0.23581 -0.29385,-0.35753c0,0 -0.14598,-0.18748 0.04151,-0.33346c0.18748,-0.14598 0.33345,0.04149 0.33345,0.04149c0.04742,0.06091 0.3537,0.4491 0.36693,0.49109c0.22175,0.70421 -0.27595,0.99867 -0.79543,1.27024l-0.21313,0.11142c0,0 -0.21056,0.11009 -0.32065,-0.10048z" fill="#a76a00" stroke="none" stroke-linecap="butt"></path><path d="M262.82481,188.76624c0,0 0.38233,-4.23767 0.42704,-5.39016c0.02083,-0.53682 -0.17027,-1.23018 -0.17027,-1.23018c0,0 0.69909,0.14871 0.97076,0.1438c0.21852,-0.00396 0.53476,-0.17103 0.53476,-0.17103c0,0 -0.16367,2.84645 -0.14214,4.03653c0.01751,0.96841 0.26176,2.577 0.26176,2.577z" fill="url(#color-5)" stroke="none" stroke-linecap="butt"></path><path d="M263.70152,180.73626l0.08003,1.45078" fill="none" stroke="#000000" stroke-linecap="round"></path><path d="M264.06769,180.16488c0.00726,0.40089 -0.14335,0.72871 -0.33637,0.73219c-0.19302,0.00349 -0.35537,-0.31866 -0.36263,-0.71955c-0.00726,-0.40089 0.13751,-1.05131 0.33053,-1.05481c0.19302,-0.00349 0.3612,0.64128 0.36846,1.04217z" fill="#ffd75c" stroke="#000000" stroke-linecap="butt"></path></g></g><g><text transform="translate(253.89083,188.70327) rotate(-1.0356) scale(0.03027,0.03027)" font-size="40" xml:space="preserve" fill="#66d6ff" fill-rule="nonzero" stroke="none" stroke-width="1" stroke-linecap="butt" stroke-linejoin="miter" stroke-miterlimit="10" stroke-dasharray="" stroke-dashoffset="0" font-family="Sans Serif" font-weight="normal" text-anchor="start" style="mix-blend-mode: normal"><tspan x="0" dy="0">xAmt8</tspan></text><g stroke-width="0.5"><path d="M258.77886,178.43719c0.03464,1.91536 -1.38165,3.49419 -3.16338,3.52641c-1.78173,0.03222 -3.25419,-1.49436 -3.28884,-3.40972c-0.03464,-1.91536 1.38165,-3.49418 3.16339,-3.52641c1.78173,-0.03222 3.25419,1.49436 3.28883,3.40972z" fill="url(#color-6)" stroke="none" stroke-linecap="butt"></path><path d="M254.73877,189.99359l-0.77999,-1.4919l3.54774,-0.11795l-0.24064,1.56415z" fill="#a76a00" stroke="none" stroke-linecap="butt"></path><path d="M253.96073,188.60923l-0.00584,-0.32261l3.6025,-0.06516l0.00584,0.32261z" fill="#643f00" stroke="none" stroke-linecap="butt"></path><path d="M253.8493,188.39609l-0.82695,-1.11454l5.21457,-0.14811l-0.6776,1.19555z" fill="#a76a00" stroke="none" stroke-linecap="butt"></path><path d="M257.14826,189.2495c-0.11008,-0.21057 0.10048,-0.32065 0.10048,-0.32065l0.21313,-0.11142c0.29042,-0.15184 0.70835,-0.26293 0.56755,-0.6907c-0.04823,-0.14652 -0.19907,-0.23581 -0.29385,-0.35753c0,0 -0.14598,-0.18748 0.04151,-0.33346c0.18748,-0.14598 0.33346,0.04149 0.33346,0.04149c0.04742,0.06091 0.3537,0.44909 0.36693,0.49109c0.22175,0.7042 -0.27595,0.99867 -0.79542,1.27024l-0.21314,0.11142c0,0 -0.21056,0.11008 -0.32065,-0.10049z" fill="#a76a00" stroke="none" stroke-linecap="butt"></path><path d="M254.63444,187.1986c0,0 0.38233,-4.23767 0.42704,-5.39016c0.02083,-0.53682 -0.17027,-1.23018 -0.17027,-1.23018c0,0 0.69909,0.14872 0.97076,0.14381c0.21852,-0.00396 0.53477,-0.17103 0.53477,-0.17103c0,0 -0.16367,2.84645 -0.14214,4.03653c0.01751,0.96841 0.26175,2.577 0.26175,2.577z" fill="url(#color-7)" stroke="none" stroke-linecap="butt"></path><path d="M255.59116,180.61939l-0.08002,-1.45077" fill="none" stroke="#000000" stroke-linecap="round"></path><path d="M255.87731,178.59724c0.00726,0.40089 -0.14335,0.72871 -0.33638,0.73219c-0.19302,0.00349 -0.35536,-0.31866 -0.36262,-0.71955c-0.00726,-0.40089 0.13751,-1.05131 0.33053,-1.05481c0.19302,-0.00349 0.36121,0.64128 0.36847,1.04216z" fill="#ffd75c" stroke="#000000" stroke-linecap="butt"></path></g></g><g><text transform="translate(222.49519,189.08207) rotate(-1.0356) scale(0.03027,0.03027)" font-size="40" xml:space="preserve" fill="#66d6ff" fill-rule="nonzero" stroke="none" stroke-width="1" stroke-linecap="butt" stroke-linejoin="miter" stroke-miterlimit="10" stroke-dasharray="" stroke-dashoffset="0" font-family="Sans Serif" font-weight="normal" text-anchor="start" style="mix-blend-mode: normal"><tspan x="0" dy="0">xAmt8</tspan></text><g stroke-width="0.5"><path d="M227.38322,178.816c0.03464,1.91536 -1.38166,3.49419 -3.16339,3.52641c-1.78173,0.03222 -3.25419,-1.49436 -3.28884,-3.40972c-0.03464,-1.91536 1.38166,-3.49418 3.16338,-3.52641c1.78173,-0.03222 3.25419,1.49436 3.28884,3.40972z" fill="url(#color-8)" stroke="none" stroke-linecap="butt"></path><path d="M223.34313,190.37239l-0.77999,-1.4919l3.54774,-0.11795l-0.24064,1.56415z" fill="#a76a00" stroke="none" stroke-linecap="butt"></path><path d="M222.56509,188.98803l-0.00584,-0.32261l3.60249,-0.06516l0.00584,0.32261z" fill="#643f00" stroke="none" stroke-linecap="butt"></path><path d="M222.45365,188.7749l-0.82695,-1.11455l5.21457,-0.1481l-0.67759,1.19555z" fill="#a76a00" stroke="none" stroke-linecap="butt"></path><path d="M225.75262,189.62831c-0.11009,-0.21057 0.10048,-0.32067 0.10048,-0.32067l0.21313,-0.11142c0.29042,-0.15184 0.70835,-0.26293 0.56755,-0.6907c-0.04823,-0.14652 -0.19907,-0.23582 -0.29385,-0.35753c0,0 -0.14598,-0.18747 0.04151,-0.33346c0.18748,-0.14598 0.33346,0.04149 0.33346,0.04149c0.04742,0.06091 0.3537,0.4491 0.36693,0.49109c0.22175,0.7042 -0.27595,0.99867 -0.79542,1.27024l-0.21313,0.11142c0,0 -0.21057,0.11009 -0.32065,-0.10048z" fill="#a76a00" stroke="none" stroke-linecap="butt"></path><path d="M223.23879,187.5774c0,0 0.38235,-4.23767 0.42704,-5.39014c0.02083,-0.53682 -0.17027,-1.23018 -0.17027,-1.23018c0,0 0.69909,0.14872 0.97076,0.14381c0.21852,-0.00396 0.53476,-0.17103 0.53476,-0.17103c0,0 -0.16367,2.84645 -0.14214,4.03653c0.01751,0.96841 0.26176,2.577 0.26176,2.577z" fill="url(#color-9)" stroke="none" stroke-linecap="butt"></path><path d="M224.19553,180.9982l-0.08003,-1.45078" fill="none" stroke="#000000" stroke-linecap="round"></path><path d="M224.48166,178.97604c0.00726,0.40089 -0.14335,0.72871 -0.33637,0.7322c-0.19302,0.00349 -0.35537,-0.31867 -0.36262,-0.71955c-0.00726,-0.40089 0.13751,-1.05131 0.33053,-1.05481c0.19302,-0.00349 0.36121,0.64127 0.36847,1.04216z" fill="#ffd75c" stroke="#000000" stroke-linecap="butt"></path></g></g><g><text transform="translate(213.50903,190.41269) rotate(-1.0356) scale(0.03027,0.03027)" font-size="40" xml:space="preserve" fill="#66d6ff" fill-rule="nonzero" stroke="none" stroke-width="1" stroke-linecap="butt" stroke-linejoin="miter" stroke-miterlimit="10" stroke-dasharray="" stroke-dashoffset="0" font-family="Sans Serif" font-weight="normal" text-anchor="start" style="mix-blend-mode: normal"><tspan x="0" dy="0">xAmt8</tspan></text><g stroke-width="0.5"><path d="M218.39706,180.1466c0.03464,1.91536 -1.38166,3.49418 -3.16338,3.52641c-1.78173,0.03222 -3.25419,-1.49436 -3.28884,-3.40972c-0.03464,-1.91536 1.38166,-3.49419 3.16338,-3.52641c1.78173,-0.03222 3.25419,1.49436 3.28884,3.40972z" fill="url(#color-10)" stroke="none" stroke-linecap="butt"></path><path d="M214.35696,191.703l-0.77999,-1.4919l3.54774,-0.11795l-0.24064,1.56415z" fill="#a76a00" stroke="none" stroke-linecap="butt"></path><path d="M213.57893,190.31863l-0.00584,-0.32261l3.60249,-0.06516l0.00584,0.32261z" fill="#643f00" stroke="none" stroke-linecap="butt"></path><path d="M213.46749,190.10551l-0.82695,-1.11455l5.21457,-0.1481l-0.6776,1.19556z" fill="#a76a00" stroke="none" stroke-linecap="butt"></path><path d="M216.76646,190.95892c-0.11009,-0.21057 0.10048,-0.32067 0.10048,-0.32067l0.21313,-0.11142c0.29042,-0.15184 0.70835,-0.26293 0.56755,-0.6907c-0.04823,-0.14652 -0.19907,-0.23582 -0.29385,-0.35753c0,0 -0.14598,-0.18748 0.04151,-0.33346c0.18748,-0.14598 0.33345,0.04149 0.33345,0.04149c0.04741,0.06091 0.3537,0.4491 0.36693,0.49109c0.22175,0.7042 -0.27595,0.99867 -0.79542,1.27024l-0.21313,0.11142c0,0 -0.21057,0.11009 -0.32065,-0.10048z" fill="#a76a00" stroke="none" stroke-linecap="butt"></path><path d="M214.25263,188.90801c0,0 0.38235,-4.23767 0.42705,-5.39014c0.02083,-0.53682 -0.17027,-1.23018 -0.17027,-1.23018c0,0 0.69909,0.14872 0.97075,0.14381c0.21852,-0.00396 0.53477,-0.17103 0.53477,-0.17103c0,0 -0.16367,2.84645 -0.14214,4.03653c0.01751,0.96841 0.26175,2.577 0.26175,2.577z" fill="url(#color-11)" stroke="none" stroke-linecap="butt"></path><path d="M215.20937,182.32881l-0.08003,-1.45078" fill="none" stroke="#000000" stroke-linecap="round"></path><path d="M215.4955,180.30666c0.00726,0.40089 -0.14335,0.72871 -0.33638,0.73219c-0.19302,0.00349 -0.35537,-0.31866 -0.36263,-0.71955c-0.00726,-0.40089 0.13751,-1.05131 0.33053,-1.05481c0.19302,-0.00349 0.36121,0.64128 0.36847,1.04216z" fill="#ffd75c" stroke="#000000" stroke-linecap="butt"></path></g></g></g></g></svg>