<svg version="1.1" xmlns="http://www.w3.org/2000/svg" xmlns:xlink="http://www.w3.org/1999/xlink" width="255.15921" height="136.95898" viewBox="0,0,255.15921,136.95898"><defs><radialGradient cx="256.3932" cy="99.40403" r="48.80061" gradientUnits="userSpaceOnUse" id="color-1"><stop offset="0" stop-color="#dadada"></stop><stop offset="1" stop-color="#5d5d5d"></stop></radialGradient><radialGradient cx="256.3932" cy="99.40403" r="48.80061" gradientUnits="userSpaceOnUse" id="color-2"><stop offset="0" stop-color="#dadada"></stop><stop offset="1" stop-color="#5d5d5d"></stop></radialGradient><radialGradient cx="256.3932" cy="99.40403" r="48.80061" gradientUnits="userSpaceOnUse" id="color-3"><stop offset="0" stop-color="#dadada"></stop><stop offset="1" stop-color="#5d5d5d"></stop></radialGradient><radialGradient cx="242.76164" cy="81.33037" r="16.73947" gradientUnits="userSpaceOnUse" id="color-4"><stop offset="0" stop-color="#585858"></stop><stop offset="1" stop-color="#000000"></stop></radialGradient></defs><g transform="translate(-214.14798,-17.08565)"><g data-paper-data="{&quot;isPaintingLayer&quot;:true}" fill-rule="nonzero" stroke-linejoin="miter" stroke-miterlimit="10" stroke-dasharray="" stroke-dashoffset="0" style="mix-blend-mode: normal"><path d="M215.14798,85.32146c0,-12.74828 0,-34.75185 0,-42.02357c0,-4.59582 7.98021,-9.92148 16.84266,-9.92148c27.27225,0 169.22845,0 219.0287,0c10.81842,0 17.28785,3.69338 17.28785,9.15276c0,12.86427 0,35.5341 0,42.7923c0,4.40002 -6.64776,9.409 -17.73302,9.409c-50.07659,0 -190.7088,0 -218.13833,0c-9.06978,0 -17.28784,-3.81273 -17.28784,-9.409z" fill-opacity="0.56452" fill="#291800" stroke="#fff4ce" stroke-width="2" stroke-linecap="butt"></path><text transform="translate(225.5,27.56812) scale(0.25567,0.25567)" font-size="40" xml:space="preserve" fill="#fff4ce" fill-rule="nonzero" stroke="none" stroke-width="1" stroke-linecap="butt" stroke-linejoin="miter" stroke-miterlimit="10" stroke-dasharray="" stroke-dashoffset="0" font-family="Impact" font-weight="normal" text-anchor="start" style="mix-blend-mode: normal"><tspan x="0" dy="0">UNLOCKED ACHIVEMENT</tspan></text><text transform="translate(272.30866,48.16163) scale(0.30293,0.30293)" font-size="40" xml:space="preserve" fill="#fff4ce" fill-rule="nonzero" stroke="none" stroke-width="1" stroke-linecap="butt" stroke-linejoin="miter" stroke-miterlimit="10" stroke-dasharray="" stroke-dashoffset="0" font-family="Sans Serif" font-weight="normal" text-anchor="start" style="mix-blend-mode: normal"><tspan x="0" dy="0">Survivor</tspan></text><path d="M274.70702,62.80966c0,13.46649 -11.03605,24.38323 -24.64971,24.38323c-13.61366,0 -24.64971,-10.91674 -24.64971,-24.38323c0,-13.46649 11.03605,-24.38323 24.64971,-24.38323c13.61366,0 24.64971,10.91674 24.64971,24.38323z" fill="#a0a0a0" stroke="none" stroke-width="0" stroke-linecap="butt"></path><text transform="translate(284.5669,62.34332) scale(0.2748,0.2748)" font-size="40" xml:space="preserve" fill="#fff4ce" fill-rule="nonzero" stroke="none" stroke-width="1" stroke-linecap="butt" stroke-linejoin="miter" stroke-miterlimit="10" stroke-dasharray="" stroke-dashoffset="0" font-family="Serif" font-weight="normal" text-anchor="start" style="mix-blend-mode: normal"><tspan x="0" dy="0">Survive hitman. Who hired</tspan><tspan x="0" dy="46.150000000000006px">them anyway?</tspan></text><g><path d="M271.90703,69.61682l-5.30884,9.15304c-0.76782,-0.27413 -1.46319,-0.57754 -1.85714,-0.56499c-0.78949,0.02516 -2.7233,1.35738 -3.50596,1.51438c-0.90918,0.18237 -1.93449,-0.23176 -2.77759,0.15431c-1.79034,0.81984 -1.95407,3.13832 -3.38825,3.98141c-0.55863,0.32839 -1.4249,0.46383 -2.31454,0.54525l11.2372,-19.37422z" fill="url(#color-1)" stroke="none" stroke-width="0" stroke-linecap="butt"></path><path d="" fill="url(#color-2)" stroke="none" stroke-width="0" stroke-linecap="butt"></path><path d="M222.93825,154.04463l-0.45989,-0.93479c0.41334,-0.08825 0.79649,-0.16811 1.13488,-0.22898z" fill="url(#color-3)" stroke="none" stroke-width="0" stroke-linecap="butt"></path><path d="M280.32354,55.1058c-2.11648,3.64905 -4.80191,11.31862 -4.80191,11.31862l-10.55348,-6.1211l6.42164,-11.07164c1.90252,1.35003 3.95875,2.53342 5.57307,3.72736c0.25225,0.18656 2.19011,1.26642 3.37513,2.12187c-0.00483,0.00831 -0.00965,0.01661 -0.01446,0.02489z" fill="#c1832d" stroke="#000000" stroke-width="0" stroke-linecap="butt"></path><path d="M259.77715,58.61473c1.16208,-2.00355 6.09081,-1.31545 11.00862,1.53692c3.87051,2.24492 6.58071,5.16139 6.99298,7.27854c-0.07379,0.18107 -0.13846,0.33968 -0.19218,0.47253c-0.3438,0.85027 -0.98925,1.51299 -1.73034,2.09368c-2.13679,0.41051 -5.71062,-0.51971 -9.27871,-2.58923c-4.91781,-2.85237 -7.96245,-6.78888 -6.80037,-8.79244z" fill="#c1832d" stroke="none" stroke-width="0" stroke-linecap="butt"></path><path d="M271.01009,51.02616l9.09578,4.83488" fill="none" stroke="#906221" stroke-width="1" stroke-linecap="round"></path><path d="M277.2168,63.88169l-11.10753,-8.20542" fill="none" stroke="#906221" stroke-width="1" stroke-linecap="round"></path><path d="M258.84712,59.83827l17.2204,9.98796" fill="none" stroke="#906221" stroke-width="1" stroke-linecap="round"></path></g><g stroke-linecap="butt"><path d="M242.90429,58.67324v-3.58703h28.39732c0,0 -2.98291,0.9237 -2.98291,1.4946c0,0.62063 2.98291,2.09243 2.98291,2.09243z" fill="#b80000" stroke="none" stroke-width="0"></path><path d="M266.51891,69.58379c0,9.24495 -7.22686,16.73947 -16.14164,16.73947c-8.91478,0 -16.14164,-7.49452 -16.14164,-16.73947c0,-9.24495 7.22686,-16.73947 16.14164,-16.73947c8.91478,0 16.14164,7.49452 16.14164,16.73947z" fill="url(#color-4)" stroke="#000000" stroke-width="0"></path><path d="M241.26023,65.39892c0,0 -1.19568,-1.96906 -1.19568,-2.98919c0,-1.06993 1.19568,-3.28811 1.19568,-3.28811h17.33731c0,0 1.19568,2.4772 1.19568,3.58703c0,0.96114 -1.19568,2.69027 -1.19568,2.69027z" fill="#b76000" stroke="none" stroke-width="0"></path><path d="M239.76564,64.80108v-5.97838h20.92434v5.97838z" fill-opacity="0.44355" fill="#b8b8b8" stroke="none" stroke-width="0"></path><path d="M244.54835,62.40973c0,-0.33017 0.26766,-0.59784 0.59784,-0.59784c0.33017,0 0.59784,0.26766 0.59784,0.59784c0,0.33017 -0.26766,0.59784 -0.59784,0.59784c-0.33017,0 -0.59784,-0.26766 -0.59784,-0.59784z" fill="#000000" stroke="none" stroke-width="0.5"></path><path d="M255.60836,62.70864c0,-0.33017 0.26766,-0.59784 0.59784,-0.59784c0.33017,0 0.59784,0.26766 0.59784,0.59784c0,0.33017 -0.26766,0.59784 -0.59784,0.59784c-0.33017,0 -0.59784,-0.26766 -0.59784,-0.59784z" fill="#000000" stroke="none" stroke-width="0.5"></path></g></g></g></svg>