<svg version="1.1" xmlns="http://www.w3.org/2000/svg" xmlns:xlink="http://www.w3.org/1999/xlink" width="131" height="134.5" viewBox="0,0,131,134.5"><defs><radialGradient cx="236" cy="179.10349" r="67.25" gradientUnits="userSpaceOnUse" id="color-1"><stop offset="0" stop-color="#fffe66"></stop><stop offset="1" stop-color="#fffe66" stop-opacity="0"></stop></radialGradient></defs><g transform="translate(-170.5,-111.85349)"><g data-paper-data="{&quot;isPaintingLayer&quot;:true}" fill-rule="nonzero" stroke-linejoin="miter" stroke-miterlimit="10" stroke-dasharray="" stroke-dashoffset="0" style="mix-blend-mode: normal"><path d="M301.5,179.10349c0,37.14115 -29.32535,67.25 -65.5,67.25c-36.17465,0 -65.5,-30.10885 -65.5,-67.25c0,-37.14115 29.32535,-67.25 65.5,-67.25c36.17465,0 65.5,30.10885 65.5,67.25z" fill="url(#color-1)" stroke="none" stroke-width="none" stroke-linecap="butt"></path><path d="M242.83341,164.6684l1.2454,-0.02239" fill="none" stroke="#ffffff" stroke-width="0.5" stroke-linecap="round"></path><path d="M244.86643,164.63187c0.01695,0.94332 -0.92637,0.96028 -0.92637,0.96028l-1.2454,0.02239c0,0 -0.94332,0.01695 -0.96028,-0.92637c-0.01695,-0.94332 0.92637,-0.96028 0.92637,-0.96028l1.2454,-0.02239c0,0 0.94332,-0.01695 0.96028,0.92637z" fill="#ffffff" stroke="none" stroke-width="0.5" stroke-linecap="butt"></path><path d="M247.49443,164.58469c-0.00935,-0.52099 0.4054,-0.95093 0.92637,-0.96028c0.52099,-0.00935 0.95093,0.4054 0.96028,0.92637c0.00935,0.52099 -0.4054,0.95093 -0.92637,0.96028c-0.52099,0.00935 -0.95093,-0.4054 -0.96028,-0.92637z" fill="#ffffff" stroke="none" stroke-width="0.5" stroke-linecap="butt"></path><path d="M254.65837,164.61168c-0.00935,-0.52099 0.4054,-0.95093 0.92637,-0.96028c0.52099,-0.00935 0.95093,0.4054 0.96028,0.92637c0.00935,0.52099 -0.4054,0.95093 -0.92637,0.96028c-0.52099,0.00935 -0.95093,-0.4054 -0.96028,-0.92637z" fill="#ffffff" stroke="none" stroke-width="0.5" stroke-linecap="butt"></path></g></g></svg>