<svg version="1.1" xmlns="http://www.w3.org/2000/svg" xmlns:xlink="http://www.w3.org/1999/xlink" width="59.49631" height="62.88359" viewBox="0,0,59.49631,62.88359"><defs><linearGradient x1="241.66993" y1="180.06612" x2="231.0749" y2="179.49593" gradientUnits="userSpaceOnUse" id="color-1"><stop offset="0" stop-color="#5f5f5f"></stop><stop offset="1" stop-color="#1d1d1d"></stop></linearGradient></defs><g transform="translate(-210.25214,-148.55839)"><g data-paper-data="{&quot;isPaintingLayer&quot;:true}" fill-rule="nonzero" stroke-linecap="butt" stroke-linejoin="miter" stroke-miterlimit="10" stroke-dasharray="" stroke-dashoffset="0" style="mix-blend-mode: normal"><text transform="translate(235.04626,168.87092) rotate(75.00898) scale(0.19473,0.19473)" font-size="40" xml:space="preserve" fill="#ffffff" fill-rule="nonzero" stroke="none" stroke-width="2" stroke-linecap="butt" stroke-linejoin="miter" stroke-miterlimit="10" stroke-dasharray="" stroke-dashoffset="0" font-family="Sans Serif" font-weight="normal" text-anchor="start" style="mix-blend-mode: normal"><tspan x="0" dy="0">xAmt8</tspan></text><path d="M214.42884,149.4201l5.50151,-0.04154l0.0117,1.59303l-5.50151,0.04154z" fill="#e6e6e6" stroke="#000000" stroke-width="1"></path><path d="M258.22697,149.10369l5.50151,-0.04154l0.0117,1.59303l-5.50151,0.04154z" fill="#e6e6e6" stroke="#000000" stroke-width="1"></path><path d="M210.7558,151.11099l58.02785,-0.4381l0.22036,29.99675l-58.02785,0.4381z" fill="#8e6544" stroke="#ffa000" stroke-width="1"></path><path d="M247.7743,153.67346l19.47243,-0.14701l0.18093,24.62891l-19.47243,0.14701z" fill="none" stroke="#513a27" stroke-width="1"></path><path d="M216.62073,154.22444l18.69354,-0.14113l0.17861,24.31316l-18.69354,0.14113z" fill="none" stroke="#513a27" stroke-width="1"></path><g fill="#ffb900" stroke="none" stroke-width="1"><path d="M257.09247,176.54852c-3.69109,0.02836 -6.71762,-4.82529 -6.75996,-10.84094c-0.04234,-6.01565 2.91555,-10.91528 6.60664,-10.94364c3.69109,-0.02836 6.71762,4.82529 6.75996,10.84094c0.04234,6.01565 -2.91555,10.91528 -6.60664,10.94364z"></path><path d="M257.29751,155.70022c0.97134,-0.00746 1.76172,0.40689 1.76537,0.92548c0.00365,0.51859 -0.78082,0.94504 -1.75216,0.9525c-0.97134,0.00746 -1.76172,-0.40689 -1.76537,-0.92548c-0.00365,-0.51859 0.78082,-0.94504 1.75216,-0.9525z"></path><path d="M257.4244,173.72884c0.97134,-0.00746 1.76172,0.40689 1.76537,0.92548c0.00365,0.51859 -0.78082,0.94504 -1.75216,0.9525c-0.97134,0.00746 -1.76172,-0.40689 -1.76537,-0.92548c-0.00365,-0.51859 0.78082,-0.94504 1.75216,-0.9525z"></path></g><path d="M242.38241,179.60754c-1.00374,0.00758 -1.83301,-2.10681 -1.85222,-4.72261c-0.01922,-2.6158 0.7789,-4.74247 1.78264,-4.75005c1.00374,-0.00758 1.83301,2.10681 1.85222,4.72261c0.01922,2.6158 -0.7789,4.74247 -1.78264,4.75005z" fill="#dadada" stroke="none" stroke-width="1"></path><g stroke-width="1"><path d="M241.24848,176.84481c0.34405,-1.29475 2.04592,-2.09947 3.80124,-1.79739c1.75531,0.30208 2.89936,1.59656 2.55531,2.8913c-0.34405,1.29475 -2.04592,2.09947 -3.80124,1.79739c-1.75531,-0.30208 -2.89937,-1.59655 -2.55531,-2.8913z" fill="#fff4ce" stroke="#e6ddbb"></path><path d="M243.01318,177.6369c0.21374,-0.80437 1.27104,-1.3043 2.36154,-1.11664c1.0905,0.18767 1.80124,0.99187 1.5875,1.79624c-0.21374,0.80437 -1.27104,1.3043 -2.36154,1.11664c-1.0905,-0.18767 -1.80124,-0.99187 -1.5875,-1.79624z" fill="#e6ddbb" stroke="#e6ddbb"></path><path d="M243.91174,172.95237l0.94049,1.86476l-2.30309,0.76881l-0.94049,-1.86476z" fill="#e6ddbb" stroke="none"></path><path d="M241.1568,174.57115c-1.16223,-0.64001 0.10845,-1.18605 0.69724,-1.43338c0.91879,-0.38595 1.84576,-0.33899 2.71027,-0.06024l0.01777,-0.06687l0.48637,0.0837v0c0.23189,0.0399 0.37935,0.22479 0.32935,0.41294c-0.03614,0.136 -0.16555,0.23649 -0.32209,0.26667l-0.52979,0.11171l-0.00439,-0.01384l-0.04165,0.02139c-0.04684,0.00154 -0.09368,0.00308 -0.14052,0.00462c-0.04799,0.04943 -0.11158,0.08741 -0.18338,0.11003c-0.07793,0.06251 -0.184,0.10003 -0.29685,0.10132l-0.48131,0.01404c-0.30581,0.04709 -2.05155,0.55223 -2.24103,0.44789z" fill="#fff4ce" stroke="none"></path></g><g fill="#ffb900" stroke="none" stroke-width="1"><path d="M226.34032,176.05879c-3.69109,0.02836 -6.71762,-4.82529 -6.75996,-10.84094c-0.04234,-6.01565 2.91555,-10.91528 6.60664,-10.94364c3.69109,-0.02836 6.71762,4.82529 6.75996,10.84094c0.04234,6.01565 -2.91555,10.91528 -6.60664,10.94364z"></path><path d="M226.54536,155.2105c0.97134,-0.00746 1.76172,0.40689 1.76537,0.92548c0.00365,0.51859 -0.78082,0.94504 -1.75216,0.95251c-0.97134,0.00746 -1.76172,-0.40689 -1.76537,-0.92548c-0.00365,-0.51859 0.78082,-0.94504 1.75215,-0.9525z"></path><path d="M226.67225,173.23912c0.97134,-0.00746 1.76172,0.40689 1.76537,0.92548c0.00365,0.51859 -0.78082,0.94504 -1.75216,0.9525c-0.97134,0.00746 -1.76172,-0.40689 -1.76537,-0.92548c-0.00365,-0.51859 0.78082,-0.94504 1.75215,-0.9525z"></path></g><path d="M214.90252,209.37744l5.50148,-0.04579l0.01334,1.56041l-5.50148,0.04579z" data-paper-data="{&quot;index&quot;:null}" fill="#e6e6e6" stroke="#000000" stroke-width="1"></path><path d="M258.70017,208.99895l5.50148,-0.04579l0.01334,1.56041l-5.50148,0.04579z" data-paper-data="{&quot;index&quot;:null}" fill="#e6e6e6" stroke="#000000" stroke-width="1"></path><path d="M210.96558,179.95716l58.02749,-0.48296l0.25113,29.38236l-58.02749,0.48296z" data-paper-data="{&quot;index&quot;:null}" fill="#8e6544" stroke="#ffa000" stroke-width="1"></path><path d="M247.98412,182.12354l19.47231,-0.16207l0.20619,24.12446l-19.47231,0.16207z" data-paper-data="{&quot;index&quot;:null}" fill="none" stroke="#513a27" stroke-width="1"></path><path d="M216.82842,182.38285l18.69342,-0.15559l0.20355,23.81517l-18.69342,0.15559z" data-paper-data="{&quot;index&quot;:null}" fill="none" stroke="#513a27" stroke-width="1"></path><path d="M244.24855,185.55704c0.0219,2.56222 -0.77404,4.64609 -1.77777,4.65445c-1.00373,0.00835 -1.83517,-2.06197 -1.85707,-4.62419c-0.0219,-2.56222 0.77404,-4.64609 1.77777,-4.65445c1.00373,-0.00835 1.83517,2.06197 1.85707,4.6242z" data-paper-data="{&quot;index&quot;:null}" fill="#dadada" stroke="none" stroke-width="1"></path><g data-paper-data="{&quot;index&quot;:null}" stroke-width="1"><path d="M243.81067,180.78458c1.75035,-0.32344 3.46465,0.43796 3.82901,1.70063c0.36436,1.26267 -0.7592,2.54847 -2.50955,2.87191c-1.75035,0.32344 -3.46465,-0.43796 -3.82901,-1.70063c-0.36436,-1.26267 0.7592,-2.54847 2.50955,-2.87191z" fill="#fff4ce" stroke="#e6ddbb"></path><path d="M244.61222,181.06879c1.08741,-0.20094 2.15243,0.27208 2.37879,1.05652c0.22636,0.78444 -0.47166,1.58325 -1.55907,1.78419c-1.08741,0.20094 -2.15243,-0.27208 -2.37879,-1.05652c-0.22636,-0.78444 0.47166,-1.58325 1.55907,-1.78419z" fill="#e6ddbb" stroke="#e6ddbb"></path><path d="M241.71034,186.71012l0.91106,-1.84114l2.31488,0.71677l-0.91106,1.84114z" fill="#e6ddbb" stroke="none"></path><path d="M241.24518,185.88477c0.18781,-0.10517 1.94127,0.36212 2.24779,0.40344l0.48147,0.00619c0.11286,-0.00051 0.2195,0.03457 0.29841,0.09457c0.07214,0.02103 0.13633,0.05723 0.18509,0.10489c0.04686,0.00077 0.09372,0.00155 0.14058,0.00232l0.04198,0.0203l0.00417,-0.01362l0.53147,0.10108c0.15699,0.0271 0.28797,0.12349 0.32624,0.25612c0.05295,0.18349 -0.09159,0.36688 -0.32282,0.40961v0l-0.48499,0.08962l-0.01882,-0.06522c-0.86002,0.28659 -1.78614,0.34716 -2.71088,-0.0164c-0.59261,-0.23299 -1.8717,-0.74781 -0.71968,-1.3929z" fill="#fff4ce" stroke="none"></path></g><g fill="#ffb900" stroke="none" stroke-width="1"><path d="M258.3443,203.6819c-3.69109,0.02838 -6.71683,-4.72542 -6.75819,-10.61791c-0.04136,-5.89249 2.91732,-10.6923 6.60841,-10.72068c3.69109,-0.02838 6.71683,4.72542 6.75819,10.61791c0.04136,5.89249 -2.91732,10.6923 -6.60841,10.72068z"></path><path d="M258.55272,183.26037c0.97134,-0.00747 1.76166,0.39827 1.76522,0.90625c0.00357,0.50797 -0.78097,0.92582 -1.75231,0.93329c-0.97134,0.00747 -1.76165,-0.39827 -1.76522,-0.90625c-0.00357,-0.50797 0.78097,-0.92582 1.7523,-0.93329z"></path><path d="M258.67668,200.9199c0.97134,-0.00747 1.76166,0.39827 1.76522,0.90625c0.00357,0.50797 -0.78097,0.92582 -1.75231,0.93329c-0.97134,0.00747 -1.76165,-0.39827 -1.76522,-0.90625c-0.00357,-0.50797 0.78097,-0.92582 1.7523,-0.93329z"></path></g><g fill="#ffb900" stroke="none" stroke-width="1"><path d="M227.47707,204.85539c-3.69109,0.02838 -6.71683,-4.72542 -6.75819,-10.61791c-0.04136,-5.89249 2.91732,-10.6923 6.60841,-10.72068c3.69109,-0.02838 6.71683,4.72542 6.75819,10.61791c0.04136,5.89249 -2.91732,10.6923 -6.60841,10.72068z"></path><path d="M227.68549,184.43386c0.97134,-0.00747 1.76166,0.39827 1.76522,0.90625c0.00357,0.50797 -0.78097,0.92582 -1.75231,0.93329c-0.97134,0.00747 -1.76165,-0.39827 -1.76522,-0.90625c-0.00357,-0.50797 0.78097,-0.92582 1.7523,-0.93329z"></path><path d="M227.80945,202.09338c0.97134,-0.00747 1.76166,0.39827 1.76522,0.90625c0.00357,0.50797 -0.78097,0.92582 -1.75231,0.93329c-0.97134,0.00747 -1.76165,-0.39827 -1.76522,-0.90625c-0.00357,-0.50797 0.78097,-0.92582 1.7523,-0.93329z"></path></g><path d="M231.66714,168.49125l10.42005,3.82158l-0.76722,14.25607l-10.83731,3.93172z" fill="url(#color-1)" stroke="none" stroke-width="1"></path><path d="M241.34015,182.86467l6.08233,0.32733l-0.15284,2.83991l-6.08233,-0.32733z" fill="#676767" stroke="none" stroke-width="1"></path><path d="M242.03291,173.32132l6.08233,0.32733l-0.15284,2.83992l-6.08233,-0.32733z" fill="#676767" stroke="none" stroke-width="1"></path><path d="M245.87993,184.39613l0.24048,-11.00525l1.57584,-0.07945l-0.24048,11.00525z" fill="#676767" stroke="none" stroke-width="1"></path><path d="M231.93345,172.30749l9.32657,0.50193l-0.12548,2.33165l-9.32657,-0.50193z" fill="#ffffff" stroke="none" stroke-width="1"></path><path d="M232.26338,175.83284l8.80843,0.47404l-0.12548,2.33165l-8.80843,-0.47404z" fill="#ffffff" stroke="none" stroke-width="1"></path><path d="M232.57935,179.61726l8.67889,0.46707l-0.11851,2.20211l-8.67889,-0.46707z" fill="#ffffff" stroke="none" stroke-width="1"></path><path d="M231.87299,183.08684l9.0675,0.48799l-0.08366,1.55443l-9.0675,-0.48799z" fill="#ffffff" stroke="none" stroke-width="1"></path><path d="M231.36587,185.26804l9.19704,0.49496l-0.09063,1.68397l-9.19704,-0.49496z" fill="#ffffff" stroke="none" stroke-width="1"></path></g></g></svg>