<svg version="1.1" xmlns="http://www.w3.org/2000/svg" xmlns:xlink="http://www.w3.org/1999/xlink" width="54.97785" height="56.5031" viewBox="0,0,54.97785,56.5031"><defs><linearGradient x1="233.02686" y1="185.95144" x2="241.92739" y2="185.95144" gradientUnits="userSpaceOnUse" id="color-1"><stop offset="0" stop-color="#baa2a2"></stop><stop offset="1" stop-color="#646464"></stop></linearGradient><linearGradient x1="240.10465" y1="167.1817" x2="243.04812" y2="168.26" gradientUnits="userSpaceOnUse" id="color-2"><stop offset="0" stop-color="#baa2a2"></stop><stop offset="1" stop-color="#646464"></stop></linearGradient></defs><g transform="translate(-209.86822,-148.23634)"><g data-paper-data="{&quot;isPaintingLayer&quot;:true}" fill-rule="nonzero" stroke-linejoin="miter" stroke-miterlimit="10" stroke-dasharray="" stroke-dashoffset="0" style="mix-blend-mode: normal"><path d="M216.15397,196.45829c0,-9.86526 0,-26.89275 0,-32.51997c0,-3.55647 1.50337,-7.67776 3.17295,-7.67776c5.13777,0 31.88059,0 41.26234,0c2.03805,0 3.25682,2.85812 3.25682,7.08287c0,9.95502 0,27.49809 0,33.11485c0,3.40496 -1.25235,7.28116 -3.34069,7.28116c-9.43383,0 -35.92722,0 -41.09461,0c-1.70864,0 -3.25682,-2.95049 -3.25682,-7.28116z" fill-opacity="0.62097" fill="#291800" stroke="#d6cdad" stroke-width="2" stroke-linecap="butt"></path><g><g stroke="none" stroke-width="0" stroke-linecap="butt"><path d="M233.02686,195.58003l3.07152,-21.34973c0,0 1.61263,-0.39 2.46554,-0.05585c1.04917,0.41103 3.36349,2.33952 3.36349,2.33952l-3.07152,21.34973z" fill="url(#color-1)"></path><path d="M237.1601,175.21957l5.88913,-16.07574l9.21291,3.00736c0,0 -6.96906,-2.04477 -8.52095,-0.23913c-2.24161,2.60812 -3.63765,14.38579 -3.63765,14.38579z" fill="url(#color-2)"></path></g><g><path d="M245.70239,195.47363l-14.08361,-26.96005l2.49629,-1.30405l14.08361,26.96005z" fill="#c1c1c1" stroke="none" stroke-width="0" stroke-linecap="butt"></path><path d="M231.2758,169.00458l-0.89321,-2.06849l11.11816,-4.80102l0.89321,2.06849z" fill="#c1c1c1" stroke="none" stroke-width="0" stroke-linecap="butt"></path><path d="M243.52787,162.60901c0.3376,1.11667 0.18883,2.14962 -0.33229,2.30717c-0.5211,0.15754 -1.21723,-0.61999 -1.55483,-1.73664c-0.3376,-1.11667 -0.18883,-2.14962 0.33227,-2.30717c0.5211,-0.15754 1.21723,0.61999 1.55483,1.73666z" fill="#c1c1c1" stroke="none" stroke-width="0" stroke-linecap="butt"></path><path d="M244.85749,194.91035l-9.57739,-22.17219l-2.00991,-6.0919l9.29575,17.38434z" fill="#9d9d9d" stroke="none" stroke-width="0" stroke-linecap="butt"></path><path d="M239.34547,183.03143l-1.40819,-7.3226" fill="none" stroke="#ffffff" stroke-width="2.5" stroke-linecap="round"></path></g></g><g stroke-linecap="butt"><path d="M212.36824,162.03501c0,-2.30933 0,-6.29523 0,-7.61249c0,-0.83253 0.35192,-1.79726 0.74274,-1.79726c1.20269,0 7.46283,0 9.65897,0c0.47708,0 0.76238,0.66905 0.76238,1.65801c0,2.33034 0,6.43694 0,7.75175c0,0.79706 -0.29315,1.70443 -0.78201,1.70443c-2.20834,0 -8.41009,0 -9.61971,0c-0.39997,0 -0.76238,-0.69067 -0.76238,-1.70443z" fill-opacity="0.47425" fill="#000000" stroke="#fff4ce" stroke-width="0"></path><path d="M210.36824,159.89216c0,-2.30933 0,-6.29523 0,-7.61249c0,-0.83253 0.35192,-1.79726 0.74274,-1.79726c1.20269,0 7.46283,0 9.65897,0c0.47708,0 0.76238,0.66904 0.76238,1.658c0,2.33034 0,6.43695 0,7.75176c0,0.79706 -0.29315,1.70443 -0.78201,1.70443c-2.20834,0 -8.41009,0 -9.61971,0c-0.39997,0 -0.76238,-0.69067 -0.76238,-1.70443z" fill-opacity="0.88705" fill="#291800" stroke="#fff4ce" stroke-width="1"></path><text transform="translate(213.35852,159.88738) scale(0.26784,0.26784)" font-size="40" xml:space="preserve" fill="#fff4ce" fill-rule="nonzero" stroke="none" stroke-width="1" stroke-linecap="butt" stroke-linejoin="miter" stroke-miterlimit="10" stroke-dasharray="" stroke-dashoffset="0" font-family="Sans Serif" font-weight="normal" text-anchor="start" style="mix-blend-mode: normal"><tspan x="0" dy="0">2</tspan></text></g></g></g></svg>