<svg version="1.1" xmlns="http://www.w3.org/2000/svg" xmlns:xlink="http://www.w3.org/1999/xlink" width="148.51896" height="94.85407" viewBox="0,0,148.51896,94.85407"><g transform="translate(-165.74052,-132.57297)"><g data-paper-data="{&quot;isPaintingLayer&quot;:true}" fill-rule="nonzero" stroke-linejoin="miter" stroke-miterlimit="10" stroke-dasharray="" stroke-dashoffset="0" style="mix-blend-mode: normal"><path d="M166.24052,212.53395c0,-19.5012 0,-53.16034 0,-64.28397c0,-7.03028 4.65017,-15.17701 9.81442,-15.17701c15.89187,0 98.61148,0 127.6307,0c6.30403,0 10.07384,5.64981 10.07384,14.00109c0,19.67863 0,54.35696 0,65.45992c0,6.73077 -3.87373,14.39306 -10.33325,14.39306c-29.18024,0 -111.12834,0 -127.11187,0c-5.28507,0 -10.07383,-5.83238 -10.07383,-14.39306z" fill-opacity="0.56452" fill="#291800" stroke="#fff4ce" stroke-width="1" stroke-linecap="butt"></path><path d="M169.73858,147.92773h138.86963" fill="none" stroke="#fff4ce" stroke-width="1" stroke-linecap="round"></path><g stroke-width="0.15" stroke-linecap="butt"><path d="M173.24242,144.86882v-3.24277c0,0 0.25104,-0.7915 0.51044,-1.0509c0.23941,-0.23941 0.99084,-0.45039 0.99084,-0.45039l0.12009,4.74405z" data-paper-data="{&quot;index&quot;:null}" fill="#fff4ce" stroke="none"></path><path d="M181.40938,144.68865l0.12009,-4.74405c0,0 0.75144,0.21096 0.99084,0.45039c0.25941,0.25941 0.51043,1.05091 0.51043,1.05091v3.24277z" fill="#fff4ce" stroke="none"></path><path d="M174.42626,144.73036c0,-2.21645 0,-6.04205 0,-7.30633c0,-0.79904 1.7394,-2.62575 2.00386,-2.62575c0.81379,0 1.68681,-0.12009 3.17282,-0.12009c0.32282,0 2.37745,1.66302 2.37745,2.6122c0,2.23662 0,6.17804 0,7.43997c0,0.76499 -0.19835,1.63587 -0.52913,1.63587c-1.49426,0 -5.69064,0 -6.50911,0c-0.27064,0 -0.51585,-0.6629 -0.51585,-1.63587z" fill="#fff4ce" stroke="#fff4ce"></path><path d="M179.9081,134.84025c0,0.59698 -0.7528,1.08092 -1.68144,1.08092c-0.92864,0 -1.68143,-0.48394 -1.68143,-1.08092c0,-0.59698 0.7528,-1.08092 1.68143,-1.08092c0.92864,0 1.68144,0.48394 1.68144,1.08092z" fill="none" stroke="#d7ceae"></path><path d="M176.24497,136.94203v-1.02087h3.72319v1.02087z" fill="#d7ceae" stroke="none"></path><path d="M175.63548,146.37933c-0.07013,-0.10476 -0.11366,-0.26097 -0.10797,-0.44881v0c0.02414,-0.79783 0.06582,-2.1749 0.07959,-2.62999c0.00871,-0.28763 0.18163,-0.61931 0.36246,-0.6175c0.55649,0.00552 3.45309,0.03421 4.46925,0.04428c0.22075,0.00219 0.34577,0.23463 0.33542,0.5763c-0.02437,0.80509 -0.06729,2.22385 -0.08103,2.6781c-0.00288,0.09522 -0.02211,0.19483 -0.05541,0.28433" fill="none" stroke="#d7ceae"></path><path d="M176.36507,144.9889v-1.02087h3.72319v1.02087z" fill="#d7ceae" stroke="none"></path></g><text transform="translate(222.8466,143.63545) scale(0.2132,0.2132)" font-size="40" xml:space="preserve" fill="#fff4ce" fill-rule="nonzero" stroke="none" stroke-width="1" stroke-linecap="butt" stroke-linejoin="miter" stroke-miterlimit="10" stroke-dasharray="" stroke-dashoffset="0" font-family="Impact" font-weight="normal" text-anchor="start" style="mix-blend-mode: normal"><tspan x="0" dy="0">Item Skins</tspan></text><text transform="translate(210.49302,224.3524) scale(0.14521,0.14521)" font-size="40" xml:space="preserve" fill="#fff4ce" fill-rule="nonzero" stroke="none" stroke-width="1" stroke-linecap="butt" stroke-linejoin="miter" stroke-miterlimit="10" stroke-dasharray="" stroke-dashoffset="0" font-family="Serif" font-weight="normal" text-anchor="start" style="mix-blend-mode: normal"><tspan x="0" dy="0">Click Item to change Skin!</tspan></text></g></g></svg>