<svg version="1.1" xmlns="http://www.w3.org/2000/svg" xmlns:xlink="http://www.w3.org/1999/xlink" width="83.20656" height="58.51948" viewBox="0,0,83.20656,58.51948"><defs><radialGradient cx="207.08318" cy="161.67251" r="7.8417" gradientUnits="userSpaceOnUse" id="color-1"><stop offset="0" stop-color="#ffea66"></stop><stop offset="1" stop-color="#ffea66" stop-opacity="0"></stop></radialGradient><linearGradient x1="224.10695" y1="153.76539" x2="221.23752" y2="162.87127" gradientUnits="userSpaceOnUse" id="color-2"><stop offset="0" stop-color="#af957e"></stop><stop offset="1" stop-color="#ad8764"></stop></linearGradient><linearGradient x1="223.77375" y1="153.77221" x2="220.90431" y2="162.87808" gradientUnits="userSpaceOnUse" id="color-3"><stop offset="0" stop-color="#c9ab91"></stop><stop offset="1" stop-color="#c99d74"></stop></linearGradient><linearGradient x1="219.34024" y1="155.06708" x2="225.84114" y2="157.07103" gradientUnits="userSpaceOnUse" id="color-4"><stop offset="0" stop-color="#c9ab91"></stop><stop offset="1" stop-color="#c99d74"></stop></linearGradient><linearGradient x1="265.35162" y1="157.35462" x2="265.90199" y2="158.59828" gradientUnits="userSpaceOnUse" id="color-5"><stop offset="0" stop-color="#e4d0a2"></stop><stop offset="1" stop-color="#80745b"></stop></linearGradient><linearGradient x1="263.82683" y1="154.22068" x2="265.43364" y2="157.85154" gradientUnits="userSpaceOnUse" id="color-6"><stop offset="0" stop-color="#e4d0a2"></stop><stop offset="1" stop-color="#80745b"></stop></linearGradient><linearGradient x1="266.86705" y1="156.39379" x2="267.14895" y2="157.03078" gradientUnits="userSpaceOnUse" id="color-7"><stop offset="0" stop-color="#e4d0a2"></stop><stop offset="1" stop-color="#80745b"></stop></linearGradient><linearGradient x1="266.19795" y1="157.36526" x2="266.54219" y2="158.14314" gradientUnits="userSpaceOnUse" id="color-8"><stop offset="0" stop-color="#e4d0a2"></stop><stop offset="1" stop-color="#80745b"></stop></linearGradient><linearGradient x1="266.97788" y1="156.59192" x2="267.14727" y2="156.97468" gradientUnits="userSpaceOnUse" id="color-9"><stop offset="0" stop-color="#e4d0a2"></stop><stop offset="1" stop-color="#80745b"></stop></linearGradient><linearGradient x1="266.86984" y1="157.08181" x2="266.92513" y2="157.20675" gradientUnits="userSpaceOnUse" id="color-10"><stop offset="0" stop-color="#e4d0a2"></stop><stop offset="1" stop-color="#80745b"></stop></linearGradient><linearGradient x1="266.16678" y1="158.37557" x2="266.47485" y2="159.07172" gradientUnits="userSpaceOnUse" id="color-11"><stop offset="0" stop-color="#e4d0a2"></stop><stop offset="1" stop-color="#80745b"></stop></linearGradient><linearGradient x1="266.44237" y1="158.96322" x2="266.49766" y2="159.08816" gradientUnits="userSpaceOnUse" id="color-12"><stop offset="0" stop-color="#e4d0a2"></stop><stop offset="1" stop-color="#80745b"></stop></linearGradient><radialGradient cx="263.09369" cy="155.74755" r="2.55102" gradientUnits="userSpaceOnUse" id="color-13"><stop offset="0" stop-color="#ffffff"></stop><stop offset="1" stop-color="#ffe9b6"></stop></radialGradient><linearGradient x1="266.41823" y1="161.8323" x2="267.21786" y2="161.47843" gradientUnits="userSpaceOnUse" id="color-14"><stop offset="0" stop-color="#80745b"></stop><stop offset="1" stop-color="#e4d0a2"></stop></linearGradient><linearGradient x1="233.38353" y1="156.19847" x2="233.38353" y2="163.00482" gradientUnits="userSpaceOnUse" id="color-15"><stop offset="0" stop-color="#b16150"></stop><stop offset="1" stop-color="#5c3328"></stop></linearGradient><linearGradient x1="231.47865" y1="158.61424" x2="234.17048" y2="158.61424" gradientUnits="userSpaceOnUse" id="color-16"><stop offset="0" stop-color="#cda89a"></stop><stop offset="1" stop-color="#fefcd7"></stop></linearGradient><linearGradient x1="232.61796" y1="156.13561" x2="235.4204" y2="156.13561" gradientUnits="userSpaceOnUse" id="color-17"><stop offset="0" stop-color="#ab5e4d"></stop><stop offset="1" stop-color="#4f2d24"></stop></linearGradient><linearGradient x1="232.0501" y1="155.16184" x2="236.43086" y2="155.16184" gradientUnits="userSpaceOnUse" id="color-18"><stop offset="0" stop-color="#fdf3d5"></stop><stop offset="1" stop-color="#e5a586"></stop></linearGradient><linearGradient x1="246.83849" y1="145.31136" x2="252.73243" y2="145.31136" gradientUnits="userSpaceOnUse" id="color-19"><stop offset="0" stop-color="#ecc200"></stop><stop offset="1" stop-color="#ede600"></stop></linearGradient><linearGradient x1="246.21196" y1="144.90138" x2="246.21196" y2="149.71252" gradientUnits="userSpaceOnUse" id="color-20"><stop offset="0" stop-color="#ecc200"></stop><stop offset="1" stop-color="#ede600"></stop></linearGradient><linearGradient x1="251.9235" y1="145.93582" x2="254.71247" y2="148.53886" gradientUnits="userSpaceOnUse" id="color-21"><stop offset="0" stop-color="#ecc200"></stop><stop offset="1" stop-color="#ede600"></stop></linearGradient><linearGradient x1="246.05559" y1="146.15958" x2="246.91292" y2="150.89372" gradientUnits="userSpaceOnUse" id="color-22"><stop offset="0" stop-color="#ecc200"></stop><stop offset="1" stop-color="#ede600"></stop></linearGradient><linearGradient x1="253.50755" y1="146.93926" x2="252.65022" y2="151.67339" gradientUnits="userSpaceOnUse" id="color-23"><stop offset="0" stop-color="#ecc200"></stop><stop offset="1" stop-color="#ede600"></stop></linearGradient><linearGradient x1="254.18882" y1="147.72011" x2="254.48731" y2="151.39164" gradientUnits="userSpaceOnUse" id="color-24"><stop offset="0" stop-color="#ecc200"></stop><stop offset="1" stop-color="#ede600"></stop></linearGradient><linearGradient x1="211.6064" y1="163.05727" x2="210.59224" y2="161.95259" gradientUnits="userSpaceOnUse" id="color-25"><stop offset="0" stop-color="#ffffff"></stop><stop offset="1" stop-color="#e4e4e4"></stop></linearGradient><linearGradient x1="212.32136" y1="162.14981" x2="211.30719" y2="161.04512" gradientUnits="userSpaceOnUse" id="color-26"><stop offset="0" stop-color="#ffffff"></stop><stop offset="1" stop-color="#e4e4e4"></stop></linearGradient><radialGradient cx="204.44292" cy="159.65967" r="3.65903" gradientUnits="userSpaceOnUse" id="color-27"><stop offset="0" stop-color="#f2d1d1"></stop><stop offset="1" stop-color="#ff5959"></stop></radialGradient><radialGradient cx="204.44292" cy="159.65967" r="3.65903" gradientUnits="userSpaceOnUse" id="color-28"><stop offset="0" stop-color="#f2d1d1"></stop><stop offset="1" stop-color="#ff5959"></stop></radialGradient><linearGradient x1="207.69787" y1="159.63063" x2="207.69787" y2="163.08675" gradientUnits="userSpaceOnUse" id="color-29"><stop offset="0" stop-color="#fe5f5f"></stop><stop offset="1" stop-color="#fca1a1"></stop></linearGradient><linearGradient x1="208.91882" y1="159.66299" x2="208.91882" y2="165.81543" gradientUnits="userSpaceOnUse" id="color-30"><stop offset="0" stop-color="#ff5959" stop-opacity="0.41124"></stop><stop offset="1" stop-color="#970000" stop-opacity="0.39541"></stop></linearGradient><linearGradient x1="209.29727" y1="158.82053" x2="209.29727" y2="160.83664" gradientUnits="userSpaceOnUse" id="color-31"><stop offset="0" stop-color="#c10000" stop-opacity="0.24444"></stop><stop offset="1" stop-color="#ff5959"></stop></linearGradient><linearGradient x1="204.75478" y1="157.99767" x2="210.01267" y2="157.68304" gradientUnits="userSpaceOnUse" id="color-32"><stop offset="0" stop-color="#ffffff"></stop><stop offset="1" stop-color="#ffecab"></stop></linearGradient><linearGradient x1="204.29889" y1="162.79233" x2="204.29889" y2="164.29196" gradientUnits="userSpaceOnUse" id="color-33"><stop offset="0" stop-color="#ffffff"></stop><stop offset="1" stop-color="#e4e4e4"></stop></linearGradient><linearGradient x1="203.63479" y1="161.9199" x2="203.63479" y2="163.41952" gradientUnits="userSpaceOnUse" id="color-34"><stop offset="0" stop-color="#ffffff"></stop><stop offset="1" stop-color="#e4e4e4"></stop></linearGradient><linearGradient x1="203.12696" y1="161.0084" x2="203.12696" y2="162.50802" gradientUnits="userSpaceOnUse" id="color-35"><stop offset="0" stop-color="#ffffff"></stop><stop offset="1" stop-color="#e4e4e4"></stop></linearGradient><linearGradient x1="211.03663" y1="161.43238" x2="212.05079" y2="160.32769" gradientUnits="userSpaceOnUse" id="color-36"><stop offset="0" stop-color="#ffffff"></stop><stop offset="1" stop-color="#e4e4e4"></stop></linearGradient></defs><g transform="translate(-199.36745,-119.09455)"><g data-paper-data="{&quot;isPaintingLayer&quot;:true}" stroke-dasharray="" stroke-dashoffset="0" style="mix-blend-mode: normal"><path d="M201.25701,153.45289c0,0 -1.00777,-1.76007 -1.00777,-2.51942c0,-0.81178 1.00777,-2.2045 1.00777,-2.2045h10.95949c0,0 0.75583,1.95958 0.75583,2.77137c0,0.75935 -0.75583,1.95255 -0.75583,1.95255z" fill="#000000" fill-rule="nonzero" stroke="none" stroke-width="0.25" stroke-linecap="butt" stroke-linejoin="miter" stroke-miterlimit="10"></path><path d="M214.79891,161.67251c0,4.33085 -3.45445,7.8417 -7.71573,7.8417c-4.26128,0 -7.71573,-3.51085 -7.71573,-7.8417c0,-4.33085 3.45445,-7.8417 7.71573,-7.8417c4.26128,0 7.71573,3.51085 7.71573,7.8417z" fill="url(#color-1)" fill-rule="nonzero" stroke="none" stroke-width="0.25" stroke-linecap="butt" stroke-linejoin="miter" stroke-miterlimit="10"></path><path d="M214.61687,175.61403v-54.51948h65.95713v54.51948z" fill-opacity="0.61423" fill="#000000" fill-rule="nonzero" stroke="#bd6500" stroke-width="4" stroke-linecap="butt" stroke-linejoin="miter" stroke-miterlimit="10"></path><path d="M216.11857,163.77412l-0.57548,-4.79482l63.46828,-7.61751l0.57548,4.79482z" fill="#bd8c4c" fill-rule="nonzero" stroke="none" stroke-width="0.25" stroke-linecap="butt" stroke-linejoin="miter" stroke-miterlimit="10"></path><path d="M216.11857,163.77412l-0.57548,-4.79482l63.46828,-7.61751l0.57548,4.79482z" fill="#bd8c4c" fill-rule="nonzero" stroke="none" stroke-width="0.25" stroke-linecap="butt" stroke-linejoin="miter" stroke-miterlimit="10"></path><g fill-rule="nonzero" stroke-width="0.25" stroke-linejoin="miter" stroke-miterlimit="10"><path d="M220.12081,174.06249v-8.94796h4.52854v8.94796z" fill="#c58b4f" stroke="#000000" stroke-linecap="butt"></path><path d="M218.34759,165.25094c0,0 -0.60017,-1.02521 -0.60017,-1.5277c0,-0.45712 0.60017,-1.36402 0.60017,-1.36402h8.23867c0,0 0.60017,0.95103 0.60017,1.41858c0,0.49481 -0.60017,1.47314 -0.60017,1.47314z" fill="#c44f4f" stroke="#000000" stroke-linecap="butt"></path><path d="M217.52918,162.08641l9.49357,3.16452" fill="none" stroke="#960000" stroke-linecap="round"></path><path d="M217.80198,164.86901l9.60269,-2.45523" fill="none" stroke="#960000" stroke-linecap="round"></path></g><text transform="translate(222.79758,155.5691) rotate(84.12701) scale(0.03368,0.03368)" font-size="40" xml:space="preserve" fill="#00ff59" fill-rule="nonzero" stroke="none" stroke-width="0.5" stroke-linecap="butt" stroke-linejoin="miter" stroke-miterlimit="10" stroke-dasharray="" stroke-dashoffset="0" font-family="Sans Serif" font-weight="normal" text-anchor="start" style="mix-blend-mode: normal"><tspan x="0" dy="0">by</tspan><tspan x="0" dy="46.150000000000006px">xAmt8</tspan></text><g fill-rule="nonzero" stroke-width="0.25" stroke-linejoin="miter" stroke-miterlimit="10"><path d="M221.51702,162.79072c0,0 -0.57778,-0.15343 -0.57052,-0.51764c0.00163,-0.0816 0.51249,-0.10035 0.51742,-0.19641c0.08861,-1.726 0.1715,-5.7313 0.13606,-7.36365c-0.00691,-0.31809 -0.33548,-0.52857 -0.33455,-0.64463c0.00128,-0.16041 0.32403,-0.35243 0.32403,-0.35243c0,0 0.31335,0.09714 0.5095,-0.02495c0.0723,-0.045 0.09481,-0.13256 0.16036,-0.20374c0.10074,-0.10939 0.23753,-0.20075 0.30121,-0.20072c0.10953,0.00006 0.21627,0.10915 0.32064,0.24051c0.08486,0.1068 0.16369,0.23297 0.27721,0.28962c0.06198,0.03093 0.08677,-0.03826 0.14534,-0.04631c0.14868,-0.02042 0.30675,-0.05336 0.30675,-0.05336c0,0 0.44154,0.19305 0.43988,0.40187c-0.00033,0.04179 -0.35184,0.22635 -0.35383,0.29037c-0.03436,1.10449 -0.16704,5.51466 -0.13163,7.55329c0.00261,0.15055 0.56632,0.28675 0.56427,0.40916c-0.00708,0.42461 -0.59113,0.42007 -0.59113,0.42007c0,0 -0.10698,-0.01757 -0.25409,-0.02868c-0.08495,-0.00642 -0.19695,-0.03735 -0.27423,0.00725c-0.19585,0.11302 -0.27994,0.49179 -0.44197,0.49171c-0.07235,-0.00004 -0.14475,0.01222 -0.22555,-0.08813c-0.06018,-0.07474 -0.12559,-0.25694 -0.19607,-0.31265c-0.01938,-0.01532 -0.04283,-0.0519 -0.06311,-0.06198c-0.11068,-0.05503 -0.24519,0.02859 -0.34293,0.03457c-0.13915,0.0085 -0.22308,-0.04314 -0.22308,-0.04314z" fill="url(#color-2)" stroke="#000000" stroke-linecap="butt"></path><path d="M221.18382,162.79754c0,0 -0.57778,-0.15343 -0.57051,-0.51764c0.00163,-0.0816 0.51249,-0.10035 0.51742,-0.19641c0.08861,-1.726 0.1715,-5.7313 0.13606,-7.36365c-0.00691,-0.31809 -0.33548,-0.52857 -0.33455,-0.64463c0.00128,-0.16041 0.32403,-0.35243 0.32403,-0.35243c0,0 0.31335,0.09714 0.5095,-0.02495c0.0723,-0.045 0.09481,-0.13256 0.16036,-0.20374c0.10074,-0.10939 0.23753,-0.20075 0.30121,-0.20072c0.10953,0.00006 0.21627,0.10915 0.32064,0.24051c0.08486,0.1068 0.1637,0.23297 0.27721,0.28962c0.06198,0.03093 0.08677,-0.03826 0.14534,-0.04631c0.14868,-0.02042 0.30675,-0.05336 0.30675,-0.05336c0,0 0.44154,0.19305 0.43988,0.40187c-0.00033,0.04179 -0.35184,0.22635 -0.35383,0.29037c-0.03436,1.10449 -0.16703,5.51466 -0.13163,7.55329c0.00261,0.15055 0.56631,0.28675 0.56427,0.40915c-0.00708,0.42461 -0.59113,0.42007 -0.59113,0.42007c0,0 -0.10698,-0.01757 -0.25409,-0.02868c-0.08495,-0.00642 -0.19695,-0.03735 -0.27423,0.00725c-0.19585,0.11302 -0.27994,0.49179 -0.44197,0.49171c-0.07235,-0.00004 -0.14475,0.01222 -0.22555,-0.08813c-0.06018,-0.07474 -0.12559,-0.25694 -0.19607,-0.31265c-0.01938,-0.01532 -0.04283,-0.0519 -0.06311,-0.06199c-0.11068,-0.05503 -0.24519,0.0286 -0.34293,0.03457c-0.13915,0.0085 -0.22308,-0.04314 -0.22308,-0.04314z" fill="url(#color-3)" stroke="#000000" stroke-linecap="butt"></path><path d="M221.57588,154.29478l0.57328,0.00175" fill="none" stroke="#a75900" stroke-linecap="round"></path><path d="M222.54478,153.95157l-0.37336,-0.00584" fill="none" stroke="#a75900" stroke-linecap="round"></path><path d="M221.39906,154.01543l-0.29389,-0.04789" fill="none" stroke="#a75900" stroke-linecap="round"></path><path d="M222.73005,154.90447l0.40626,-0.02852" fill="none" stroke="#a75900" stroke-linecap="round"></path><path d="M221.38174,155.82137l0.25374,0.03523" fill="none" stroke="#a75900" stroke-linecap="round"></path><path d="M222.69701,155.98985l-0.41351,-0.01849" fill="none" stroke="#a75900" stroke-linecap="round"></path><path d="M222.39861,157.70721l-0.55405,-0.06277" fill="none" stroke="#a75900" stroke-linecap="round"></path><path d="M222.59199,158.77448l0.15336,0.0036" fill="none" stroke="#a75900" stroke-linecap="round"></path><path d="M221.60244,156.94198l0.24649,-0.01178" fill="none" stroke="#a75900" stroke-linecap="round"></path><path d="M223.01556,156.94002l-0.25374,-0.03523" fill="none" stroke="#a75900" stroke-linecap="round"></path><path d="M221.98968,158.58468l-0.37977,0.01451" fill="none" stroke="#a75900" stroke-linecap="round"></path><path d="M221.51362,159.95535l0.82146,0.12468" fill="none" stroke="#a75900" stroke-linecap="round"></path><path d="M222.81487,159.53797l-0.31313,0.01314" fill="none" stroke="#a75900" stroke-linecap="round"></path><path d="M221.82252,159.60543l-0.261,-0.08225" fill="none" stroke="#a75900" stroke-linecap="round"></path><path d="M221.70953,161.22468l0.25374,0.03523" fill="none" stroke="#a75900" stroke-linecap="round"></path><path d="M222.86975,161.25485l0.32038,0.03387" fill="none" stroke="#a75900" stroke-linecap="round"></path><path d="M221.75088,161.86388l0.26741,0.0619" fill="none" stroke="#a75900" stroke-linecap="round"></path><path d="M222.49372,162.09796l0.1871,0.0366" fill="none" stroke="#a75900" stroke-linecap="round"></path><path d="M222.69583,161.73675l-0.14695,-0.02394" fill="none" stroke="#a75900" stroke-linecap="round"></path><path d="M221.39795,162.42355l-0.30756,-0.07456" fill="none" stroke="#a75900" stroke-linecap="round"></path><path d="M222.23005,162.86466l-0.12046,-0.03796" fill="none" stroke="#a75900" stroke-linecap="round"></path><path d="M223.68613,154.60195l-0.1871,-0.03659" fill="none" stroke="#703c00" stroke-linecap="round"></path><path d="M222.77978,153.556l0.13413,0.06463" fill="none" stroke="#703c00" stroke-linecap="round"></path><path d="M222.61108,162.95119l0.13812,0.02862" fill="none" stroke="#703c00" stroke-linecap="round"></path><path d="M223.92117,162.52914l0.15094,-0.01207" fill="none" stroke="#703c00" stroke-linecap="round"></path><path d="M223.42458,161.91049l0.12473,0.0244" fill="none" stroke="#703c00" stroke-linecap="round"></path><path d="M223.39113,160.66254l0.09797,0.01596" fill="none" stroke="#703c00" stroke-linecap="round"></path><path d="M223.36037,158.56563l0.08458,0.01175" fill="none" stroke="#703c00" stroke-linecap="round"></path><path d="M223.35943,157.07447l0.22213,-0.00454" fill="none" stroke="#703c00" stroke-linecap="round"></path><path d="M223.49778,157.47587l-0.11562,-0.00662" fill="none" stroke="#703c00" stroke-linecap="round"></path><path d="M223.56949,155.75416l-0.129,-0.01083" fill="none" stroke="#703c00" stroke-linecap="round"></path><path d="M223.77336,153.93991l0.16432,-0.00785" fill="none" stroke="#703c00" stroke-linecap="round"></path><path d="M223.87785,154.12193l0.11562,0.00662" fill="none" stroke="#703c00" stroke-linecap="round"></path><path d="M222.58843,153.3578l0.15634,0.06417" fill="none" stroke="#703c00" stroke-linecap="round"></path></g><g fill-rule="nonzero" stroke-width="0.25" stroke-linejoin="miter" stroke-miterlimit="10"><g stroke="#000000" stroke-linecap="butt"><path d="M225.962,157.10349c0,0 -0.10835,0.43352 -0.36817,0.4336c-0.05821,0.00002 -0.07255,-0.38096 -0.14109,-0.38319c-1.23137,-0.04006 -4.08862,-0.04143 -5.25296,0.00968c-0.22689,0.00996 -0.37641,0.25835 -0.4592,0.25941c-0.11443,0.00147 -0.25201,-0.2365 -0.25201,-0.2365c0,0 0.06869,-0.23532 -0.01877,-0.37987c-0.03224,-0.05328 -0.09474,-0.06875 -0.14564,-0.1166c-0.07822,-0.07353 -0.14365,-0.17424 -0.14374,-0.22177c-0.00017,-0.08175 0.07745,-0.16305 0.17096,-0.24293c0.07602,-0.06494 0.16588,-0.12569 0.20607,-0.21126c0.02194,-0.04672 -0.02746,-0.06418 -0.03331,-0.10778c-0.01485,-0.11065 -0.03864,-0.22812 -0.03864,-0.22812c0,0 0.13687,-0.33244 0.28583,-0.33435c0.02981,-0.00038 0.16213,0.25916 0.2078,0.25968c0.78792,0.00897 3.93407,0.04137 5.38822,-0.01584c0.10738,-0.00422 0.20347,-0.42698 0.29079,-0.4273c0.30291,-0.00113 0.30077,0.43482 0.30077,0.43482c0,0 -0.01233,0.0801 -0.01998,0.19006c-0.00442,0.0635 -0.02627,0.14755 0.00569,0.20455c0.08099,0.14446 0.35134,0.2015 0.35158,0.32242c0.00011,0.05399 0.00899,0.10784 -0.06243,0.16966c-0.0532,0.04604 -0.18304,0.0976 -0.22265,0.15105c-0.01089,0.0147 -0.03694,0.03275 -0.0441,0.04804c-0.03904,0.08343 0.02086,0.18256 0.02531,0.25541c0.00633,0.10372 -0.03035,0.16714 -0.03035,0.16714z" fill="#ad907c"></path><path d="M225.78316,156.86365c0,0 -0.10835,0.43352 -0.36817,0.4336c-0.05821,0.00002 -0.07255,-0.38096 -0.14108,-0.38319c-1.23137,-0.04006 -4.08862,-0.04143 -5.25296,0.00968c-0.22689,0.00996 -0.37641,0.25835 -0.4592,0.25941c-0.11443,0.00147 -0.25201,-0.2365 -0.25201,-0.2365c0,0 0.0687,-0.23532 -0.01876,-0.37987c-0.03224,-0.05328 -0.09474,-0.06875 -0.14564,-0.1166c-0.07822,-0.07353 -0.14365,-0.17424 -0.14374,-0.22177c-0.00017,-0.08175 0.07745,-0.16305 0.17096,-0.24293c0.07602,-0.06494 0.16588,-0.12569 0.20607,-0.21126c0.02194,-0.04672 -0.02746,-0.06418 -0.03331,-0.10778c-0.01485,-0.11065 -0.03864,-0.22812 -0.03864,-0.22812c0,0 0.13687,-0.33245 0.28583,-0.33435c0.02981,-0.00038 0.16213,0.25916 0.2078,0.25968c0.78792,0.00897 3.93408,0.04137 5.38822,-0.01584c0.10738,-0.00422 0.20347,-0.42698 0.2908,-0.4273c0.30291,-0.00113 0.30077,0.43482 0.30077,0.43482c0,0 -0.01233,0.08011 -0.01998,0.19006c-0.00442,0.0635 -0.02627,0.14755 0.00569,0.20455c0.08099,0.14446 0.35134,0.20149 0.35158,0.32242c0.00011,0.05399 0.00899,0.10784 -0.06244,0.16966c-0.0532,0.04604 -0.18304,0.0976 -0.22265,0.15105c-0.01089,0.0147 -0.03694,0.03275 -0.0441,0.04804c-0.03904,0.08343 0.02086,0.18256 0.02531,0.25541c0.00633,0.10372 -0.03035,0.16714 -0.03035,0.16714z" fill="url(#color-4)"></path></g><path d="M220.18521,155.69923l0.37783,0.05082" fill="none" stroke="#a75900" stroke-linecap="round"></path><path d="M222.30401,155.81533l-0.44929,-0.02525" fill="none" stroke="#a75900" stroke-linecap="round"></path><path d="M220.83403,156.40336l-0.29104,-0.05087" fill="none" stroke="#a75900" stroke-linecap="round"></path><path d="M222.7079,156.71873l-0.34207,-0.02021" fill="none" stroke="#a75900" stroke-linecap="round"></path><path d="M222.85575,156.38679l0.23995,-0.00525" fill="none" stroke="#a75900" stroke-linecap="round"></path><path d="M223.87671,156.20746l0.2808,0.00493" fill="none" stroke="#a75900" stroke-linecap="round"></path><path d="M224.76527,156.55918l-0.26037,0.00016" fill="none" stroke="#a75900" stroke-linecap="round"></path><path d="M225.39779,155.67556l-0.21953,0.01034" fill="none" stroke="#a75900" stroke-linecap="round"></path><path d="M225.72479,156.1042l0.14807,0.01522" fill="none" stroke="#a75900" stroke-linecap="round"></path><path d="M225.48523,156.717l0.17358,-0.00011" fill="none" stroke="#a75900" stroke-linecap="round"></path><path d="M219.56776,156.17441l-0.17358,0.00011" fill="none" stroke="#a75900" stroke-linecap="round"></path><path d="M219.76149,155.74544l0.12764,0.01013" fill="none" stroke="#a75900" stroke-linecap="round"></path><path d="M219.76718,156.67972l0.20934,0.0305" fill="none" stroke="#a75900" stroke-linecap="round"></path><path d="M224.61677,155.84963l-0.22467,-0.05602" fill="none" stroke="#a75900" stroke-linecap="round"></path><path d="M219.73684,157.14943l0.18382,0.04583" fill="none" stroke="#5e3200" stroke-linecap="round"></path><path d="M220.85998,157.08236l-0.41359,-0.08143" fill="none" stroke="#5e3200" stroke-linecap="round"></path><path d="M226.27122,156.34892l-0.12764,-0.01013" fill="none" stroke="#5e3200" stroke-linecap="round"></path><path d="M225.78569,155.51194l0.12255,0.03055" fill="none" stroke="#5e3200" stroke-linecap="round"></path><path d="M225.70507,157.2274l0.18377,-0.04096" fill="none" stroke="#5e3200" stroke-linecap="round"></path><path d="M224.39795,156.98826l-0.34717,0.00022" fill="none" stroke="#5e3200" stroke-linecap="round"></path><path d="M224.96979,157.04406l0.17358,-0.00011" fill="none" stroke="#5e3200" stroke-linecap="round"></path><path d="M222.12101,157.07136l-0.31655,-0.03554" fill="none" stroke="#5e3200" stroke-linecap="round"></path><path d="M223.35645,156.98891l-0.15316,0.0052" fill="none" stroke="#5e3200" stroke-linecap="round"></path></g><g fill-rule="nonzero" stroke-width="0.25" stroke-linejoin="miter" stroke-miterlimit="10"><path d="M230.91738,174.18391v-8.94796h4.52854v8.94796z" fill="#c58b4f" stroke="#000000" stroke-linecap="butt"></path><path d="M229.14415,165.37236c0,0 -0.60017,-1.02521 -0.60017,-1.5277c0,-0.45712 0.60017,-1.36402 0.60017,-1.36402h8.23867c0,0 0.60017,0.95103 0.60017,1.41858c0,0.49481 -0.60017,1.47314 -0.60017,1.47314z" fill="#c44f4f" stroke="#000000" stroke-linecap="butt"></path><path d="M237.81931,165.37236l-9.49357,-3.16452" fill="none" stroke="#960000" stroke-linecap="round"></path><path d="M228.59854,164.99043l9.60269,-2.45523" fill="none" stroke="#960000" stroke-linecap="round"></path></g><path d="M218.48038,173.22808v-5.82537h8.04263v5.82537z" fill="#8e6848" fill-rule="nonzero" stroke="none" stroke-width="0.25" stroke-linecap="butt" stroke-linejoin="miter" stroke-miterlimit="10"></path><path d="M228.16235,173.04967v-5.82537h8.04263v5.82537z" fill="#8e6848" fill-rule="nonzero" stroke="none" stroke-width="0.25" stroke-linecap="butt" stroke-linejoin="miter" stroke-miterlimit="10"></path><g fill-rule="nonzero" stroke-width="0.25" stroke-linecap="butt" stroke-linejoin="miter" stroke-miterlimit="10"><path d="M221.44524,170.36309c0,0.58801 -0.52435,1.0647 -1.17117,1.0647c-0.64682,0 -1.17117,-0.47668 -1.17117,-1.0647c0,-0.58801 0.52435,-1.0647 1.17117,-1.0647c0.64682,0 1.17117,0.47668 1.17117,1.0647z" fill="#fff4ce" stroke="#e6ddbb"></path><path d="M220.74924,170.15098c0,0.36531 -0.32575,0.66145 -0.72759,0.66145c-0.40184,0 -0.72759,-0.29614 -0.72759,-0.66145c0,-0.36531 0.32575,-0.66145 0.72759,-0.66145c0.40184,0 0.72759,0.29614 0.72759,0.66145z" fill="#e6ddbb" stroke="#e6ddbb"></path><path d="M220.87125,172.2526l-0.50602,-0.73957l0.73957,-0.50602l0.50602,0.73957z" fill="#e6ddbb" stroke="none"></path><path d="M221.69045,171.34368c0.46947,0.19109 0.07285,0.5232 -0.11147,0.67462c-0.28762,0.23628 -0.61866,0.28517 -0.9494,0.22872v0.03037h-0.17922v0c-0.08545,0 -0.15472,-0.06927 -0.15472,-0.15472c0,-0.06176 0.03619,-0.11508 0.08853,-0.13989l0.17623,-0.08811l0.00284,0.00568l0.01267,-0.01241c0.01636,-0.00417 0.03272,-0.00834 0.04909,-0.01251c0.01228,-0.02505 0.03114,-0.0463 0.05432,-0.06149c0.02161,-0.03297 0.05547,-0.05719 0.09512,-0.06619l0.16829,-0.04207c0.10335,-0.04331 0.67121,-0.39316 0.74775,-0.36201z" fill="#fff4ce" stroke="none"></path></g><text transform="translate(221.79061,171.60248) scale(0.06171,0.06171)" font-size="40" xml:space="preserve" fill="#fff4ce" fill-rule="nonzero" stroke="none" stroke-width="0.5" stroke-linecap="butt" stroke-linejoin="miter" stroke-miterlimit="10" stroke-dasharray="" stroke-dashoffset="0" font-family="Sans Serif" font-weight="normal" text-anchor="start" style="mix-blend-mode: normal"><tspan x="0" dy="0">200</tspan></text><g fill-rule="nonzero" stroke-width="0.25" stroke-linecap="butt" stroke-linejoin="miter" stroke-miterlimit="10"><path d="M230.9527,170.09742c0,0.58801 -0.52435,1.0647 -1.17117,1.0647c-0.64682,0 -1.17117,-0.47668 -1.17117,-1.0647c0,-0.58801 0.52435,-1.0647 1.17117,-1.0647c0.64682,0 1.17117,0.47668 1.17117,1.0647z" fill="#fff4ce" stroke="#e6ddbb"></path><path d="M230.25669,169.88531c0,0.36531 -0.32575,0.66145 -0.72759,0.66145c-0.40184,0 -0.72759,-0.29614 -0.72759,-0.66145c0,-0.36531 0.32575,-0.66145 0.72759,-0.66145c0.40184,0 0.72759,0.29614 0.72759,0.66145z" fill="#e6ddbb" stroke="#e6ddbb"></path><path d="M230.3787,171.98693l-0.50602,-0.73957l0.73957,-0.50602l0.50602,0.73957z" fill="#e6ddbb" stroke="none"></path><path d="M231.1979,171.078c0.46947,0.19109 0.07285,0.5232 -0.11147,0.67462c-0.28762,0.23628 -0.61866,0.28517 -0.9494,0.22872v0.03037h-0.17922v0c-0.08545,0 -0.15472,-0.06927 -0.15472,-0.15472c0,-0.06176 0.03619,-0.11508 0.08853,-0.13989l0.17623,-0.08811l0.00284,0.00568l0.01267,-0.01241c0.01636,-0.00417 0.03272,-0.00834 0.04909,-0.01251c0.01228,-0.02505 0.03114,-0.0463 0.05432,-0.06149c0.02161,-0.03297 0.05547,-0.05719 0.09512,-0.06619l0.16829,-0.04207c0.10335,-0.04331 0.67121,-0.39316 0.74775,-0.36201z" fill="#fff4ce" stroke="none"></path></g><text transform="translate(231.38532,171.51133) scale(0.06171,0.06171)" font-size="40" xml:space="preserve" fill="#fff4ce" fill-rule="nonzero" stroke="none" stroke-width="0.5" stroke-linecap="butt" stroke-linejoin="miter" stroke-miterlimit="10" stroke-dasharray="" stroke-dashoffset="0" font-family="Sans Serif" font-weight="normal" text-anchor="start" style="mix-blend-mode: normal"><tspan x="0" dy="0">50</tspan></text><text transform="translate(217.69561,149.20778) scale(0.06171,0.06171)" font-size="40" xml:space="preserve" fill="#fff4ce" fill-rule="nonzero" stroke="none" stroke-width="0.5" stroke-linecap="butt" stroke-linejoin="miter" stroke-miterlimit="10" stroke-dasharray="" stroke-dashoffset="0" font-family="Sans Serif" font-weight="normal" text-anchor="start" style="mix-blend-mode: normal"><tspan x="0" dy="0">Crucifix</tspan></text><text transform="translate(229.21004,149.43318) scale(0.06171,0.06171)" font-size="40" xml:space="preserve" fill="#fff4ce" fill-rule="nonzero" stroke="none" stroke-width="0.5" stroke-linecap="butt" stroke-linejoin="miter" stroke-miterlimit="10" stroke-dasharray="" stroke-dashoffset="0" font-family="Sans Serif" font-weight="normal" text-anchor="start" style="mix-blend-mode: normal"><tspan x="0" dy="0">Vitamins</tspan></text><g fill-rule="nonzero" stroke-width="0.25" stroke-linejoin="miter" stroke-miterlimit="10"><path d="M262.93714,174.81367v-8.94796h4.52854v8.94796z" fill="#c58b4f" stroke="#000000" stroke-linecap="butt"></path><path d="M261.16391,166.00212c0,0 -0.60017,-1.02521 -0.60017,-1.5277c0,-0.45712 0.60017,-1.36402 0.60017,-1.36402h8.23867c0,0 0.60017,0.95103 0.60017,1.41858c0,0.49481 -0.60017,1.47314 -0.60017,1.47314z" fill="#c44f4f" stroke="#000000" stroke-linecap="butt"></path><path d="M269.83907,166.00212l-9.49357,-3.16452" fill="none" stroke="#960000" stroke-linecap="round"></path><path d="M260.61831,165.62019l9.60269,-2.45523" fill="none" stroke="#960000" stroke-linecap="round"></path></g><g fill-rule="nonzero" stroke-width="0.25" stroke-linejoin="miter" stroke-miterlimit="10"><path d="M269.46927,171.34416l4.69178,-7.61926l3.85609,2.3745l-4.69178,7.61926z" fill="#c58b4f" stroke="#000000" stroke-linecap="butt"></path><path d="M272.57961,162.91127c0,0 0.02651,-1.18767 0.28999,-1.61554c0.23969,-0.38924 1.22626,-0.84678 1.22626,-0.84678l7.0153,4.31987c0,0 0.01239,1.1245 -0.23277,1.52263c-0.25945,0.42133 -1.28348,0.9397 -1.28348,0.9397z" fill="#c44f4f" stroke="#000000" stroke-linecap="butt"></path><path d="M279.96658,167.46l-6.42457,-7.67248" fill="none" stroke="#960000" stroke-linecap="round"></path><path d="M281.77943,165.2444l-9.46415,-2.94443" fill="none" stroke="#960000" stroke-linecap="round"></path></g><path d="M261.14274,173.74386v-5.82537h8.04263v5.82537z" fill="#8e6848" fill-rule="nonzero" stroke="none" stroke-width="0.25" stroke-linecap="butt" stroke-linejoin="miter" stroke-miterlimit="10"></path><path d="M238.61404,174.06857v-7.72743h2.72733v7.72743z" fill="#b18247" fill-rule="nonzero" stroke="none" stroke-width="0.25" stroke-linecap="butt" stroke-linejoin="miter" stroke-miterlimit="10"></path><path d="M257.58242,174.70325v-7.72743h2.72733v7.72743z" fill="#b18247" fill-rule="nonzero" stroke="none" stroke-width="0.25" stroke-linecap="butt" stroke-linejoin="miter" stroke-miterlimit="10"></path><g fill-rule="nonzero" stroke-linejoin="miter" stroke-miterlimit="10"><text transform="translate(262.29283,157.86354) rotate(-24.63803) scale(0.03446,0.03446)" font-size="40" xml:space="preserve" fill="#ffffff" fill-rule="nonzero" stroke="none" stroke-width="0.5" stroke-linecap="butt" stroke-linejoin="miter" stroke-miterlimit="10" stroke-dasharray="" stroke-dashoffset="0" font-family="Sans Serif" font-weight="normal" text-anchor="start" style="mix-blend-mode: normal"><tspan x="0" dy="0">xAMT8</tspan></text><g stroke-width="0.25"><path d="M267.0156,163.0471l-1.55922,-3.52334l0.72466,-0.32069l1.55922,3.52334c0,0 -0.17251,0.46481 -0.30603,0.5239c-0.08241,0.03647 -0.41863,-0.20321 -0.41863,-0.20321z" fill="#80745b" stroke="#fff4dc" stroke-linecap="butt"></path><g><path d="M265.41666,158.81306l-1.15703,-0.97518l2.21082,-0.90584l-0.24823,1.48825z" fill="url(#color-5)" stroke="none" stroke-linecap="butt"></path><path d="M263.50479,158.09937c0,0 -0.74033,-0.14034 -0.91115,-0.36999c-0.09862,-0.13259 0.03913,-0.48692 -0.05544,-0.7513c-0.17414,-0.48686 -0.55584,-0.92549 -0.55584,-0.92549c0,0 1.07673,-1.49215 1.80812,-1.81583c0.78189,-0.34602 2.74184,-0.19772 2.74184,-0.19772c0,0 0.15722,0.95858 0.40644,1.5614c0.07361,0.17805 0.40442,0.21479 0.4307,0.32421c0.05851,0.24363 -0.1914,0.80305 -0.1914,0.80305c0,0 -0.16748,0.41046 -0.38304,0.52036c-0.38909,0.19838 -1.09554,0.01235 -1.65106,0.19297c-0.4255,0.13835 -0.73348,0.65891 -0.91668,0.72732c-0.18736,0.06996 -0.72249,-0.06899 -0.72249,-0.06899z" fill="url(#color-6)" stroke="none" stroke-linecap="butt"></path><path d="M266.61812,157.2657l0.77976,-1.10682" fill="url(#color-7)" stroke="#ffffff" stroke-linecap="round"></path><path d="M266.53133,157.21773l-0.32251,1.07294" fill="url(#color-8)" stroke="#ffffff" stroke-linecap="round"></path><path d="M267.29891,156.44985l-0.47267,0.6669" fill="url(#color-9)" stroke="#ffffff" stroke-linecap="round"></path><path d="M266.70823,157.18374l0.37851,-0.07891" fill="url(#color-10)" stroke="#ffffff" stroke-linecap="round"></path><path d="M266.307,158.99272l-0.239,-0.57343l0.2099,-0.09289l0.25682,0.58032c0,0 -0.03319,0.15585 -0.07454,0.17146c-0.03227,0.01219 -0.15317,-0.08545 -0.15317,-0.08545z" fill="url(#color-11)" stroke="#e4d0a2" stroke-linecap="butt"></path><path d="M266.40754,159.05334c-0.01527,-0.0345 0.00032,-0.07485 0.03482,-0.09012c0.0345,-0.01527 0.07485,0.00032 0.09012,0.03482c0.01527,0.0345 -0.00032,0.07485 -0.03482,0.09012c-0.0345,0.01527 -0.07485,-0.00032 -0.09012,-0.03482z" fill="url(#color-12)" stroke="none" stroke-linecap="butt"></path></g><path d="M265.16301,159.11206l-1.15703,-0.97518l2.21082,-0.90584l-0.24823,1.48825z" fill="#ffe9b6" stroke="none" stroke-linecap="butt"></path><path d="M263.25114,158.39839c0,0 -0.74033,-0.14034 -0.91115,-0.36999c-0.09862,-0.13259 0.03913,-0.48692 -0.05544,-0.7513c-0.17414,-0.48686 -0.55584,-0.92549 -0.55584,-0.92549c0,0 1.07673,-1.49215 1.80812,-1.81583c0.78189,-0.34602 2.74184,-0.19772 2.74184,-0.19772c0,0 0.15722,0.95858 0.40644,1.5614c0.07361,0.17805 0.40442,0.21479 0.4307,0.32421c0.05851,0.24363 -0.1914,0.80305 -0.1914,0.80305c0,0 -0.16748,0.41046 -0.38304,0.52036c-0.38909,0.19838 -1.09554,0.01235 -1.65106,0.19297c-0.4255,0.13835 -0.73348,0.65891 -0.91668,0.72732c-0.18736,0.06996 -0.72249,-0.06899 -0.72249,-0.06899z" fill="url(#color-13)" stroke="none" stroke-linecap="butt"></path><path d="M264.77647,154.3862l-0.01149,0.87565l-0.4142,-0.03434" fill="none" stroke="#e4d0a2" stroke-linecap="round"></path><path d="M265.0106,155.40706l-0.3063,-0.11837" fill="none" stroke="#e4d0a2" stroke-linecap="round"></path><path d="M263.24028,158.00591c0,0 -0.17249,-0.23682 -0.23552,-0.37924c-0.06868,-0.1552 -0.16108,-0.51694 -0.16108,-0.51694c0,0 0.10482,-0.56692 0.24265,-0.62792c0.18784,-0.08313 0.78156,0.17467 0.78156,0.17467c0,0 0.20642,0.25887 0.26945,0.4013c0.06868,0.1552 0.12715,0.49489 0.12715,0.49489c0,0 -0.35676,0.48262 -0.54556,0.56617c-0.13101,0.05797 -0.47865,-0.11291 -0.47865,-0.11291z" fill="#80745b" stroke="#e4d0a2" stroke-linecap="butt"></path><path d="M264.16061,158.32237l-1.12825,-0.00853" fill="none" stroke="#ffffff" stroke-linecap="round"></path><path d="M265.01075,158.12461l-0.14653,-0.3311c0,0 -0.11079,-0.75682 -0.03807,-0.78901c0.09479,-0.04195 0.55837,0.55875 0.55837,0.55875l0.14653,0.3311c0,0 -0.39836,-0.39932 -0.49242,-0.3577c-0.07505,0.03321 -0.02788,0.58795 -0.02788,0.58795z" fill="#80745b" stroke="#e4d0a2" stroke-linecap="butt"></path><path d="M266.23558,157.02865c-0.1888,0.08355 -0.78591,0.02306 -0.78591,0.02306c0,0 -0.2121,-0.2717 -0.28078,-0.4269c-0.06303,-0.14242 -0.11582,-0.46928 -0.11582,-0.46928c0,0 0.20845,-0.61279 0.39629,-0.69591c0.13784,-0.061 0.62792,0.24266 0.62792,0.24266c0,0 0.2056,0.31163 0.27429,0.46684c0.06303,0.14242 0.12231,0.42934 0.12231,0.42934c0,0 -0.10729,0.37222 -0.2383,0.43019z" data-paper-data="{&quot;index&quot;:null}" fill="#80745b" stroke="#e4d0a2" stroke-linecap="butt"></path><path d="M265.95517,158.58968l0.32251,-1.07294" fill="none" stroke="#ffffff" stroke-linecap="round"></path><path d="M265.95092,158.68016l-0.84507,0.35922l-1.09699,-0.71052" fill="none" stroke="#ffffff" stroke-linecap="round"></path><path d="M264.01005,158.43167l-0.64567,-0.02433" fill="none" stroke="#ffffff" stroke-linecap="round"></path><path d="M266.57259,157.41576l0.47267,-0.6669" fill="none" stroke="#ffffff" stroke-linecap="round"></path><path d="M266.83309,157.40384l-0.37851,0.07891" fill="none" stroke="#ffffff" stroke-linecap="round"></path><path d="M265.28453,159.60997l-0.239,-0.57343l0.2099,-0.09289l0.25682,0.58032c0,0 -0.03319,0.15585 -0.07454,0.17146c-0.03227,0.01219 -0.15317,-0.08545 -0.15317,-0.08545z" fill="#ffe9b6" stroke="#e4d0a2" stroke-linecap="butt"></path><path d="M265.57173,159.4902l-0.239,-0.57343l0.2099,-0.09289l0.25682,0.58032c0,0 -0.03319,0.15585 -0.07454,0.17146c-0.03227,0.01219 -0.15317,-0.08545 -0.15317,-0.08545z" fill="#ffe9b6" stroke="#e4d0a2" stroke-linecap="butt"></path><path d="M265.81195,159.40356l-0.239,-0.57343l0.2099,-0.09289l0.25682,0.58032c0,0 -0.03319,0.15585 -0.07454,0.17146c-0.03227,0.01219 -0.15317,-0.08545 -0.15317,-0.08545z" fill="#ffe9b6" stroke="#e4d0a2" stroke-linecap="butt"></path><path d="M266.05335,159.29173l-0.239,-0.57343l0.2099,-0.09289l0.25682,0.58032c0,0 -0.03319,0.15585 -0.07454,0.17146c-0.03227,0.01219 -0.15317,-0.08545 -0.15317,-0.08545z" fill="#ffe9b6" stroke="#e4d0a2" stroke-linecap="butt"></path><path d="M265.36642,159.68851l0.08248,-0.0365" fill="none" stroke="#ffffff" stroke-linecap="round"></path><path d="M265.50105,159.62893c0.02765,0.06247 -0.03482,0.09012 -0.03482,0.09012l-0.08248,0.0365c0,0 -0.06247,0.02765 -0.09012,-0.03482c-0.02765,-0.06247 0.03482,-0.09012 0.03482,-0.09012l0.08248,-0.0365c0,0 0.06247,-0.02765 0.09012,0.03482z" fill="#ffffff" stroke="none" stroke-linecap="butt"></path><path d="M265.67509,159.55191c-0.01527,-0.0345 0.00032,-0.07485 0.03482,-0.09012c0.0345,-0.01527 0.07485,0.00032 0.09012,0.03482c0.01527,0.0345 -0.00032,0.07485 -0.03482,0.09012c-0.0345,0.01527 -0.07485,-0.00032 -0.09012,-0.03482z" fill="#ffffff" stroke="none" stroke-linecap="butt"></path><path d="M265.91221,159.44698c-0.01527,-0.0345 0.00032,-0.07485 0.03482,-0.09012c0.0345,-0.01527 0.07485,0.00032 0.09012,0.03482c0.01527,0.0345 -0.00032,0.07485 -0.03482,0.09012c-0.0345,0.01527 -0.07485,-0.00032 -0.09012,-0.03482z" fill="#ffffff" stroke="none" stroke-linecap="butt"></path><path d="M266.15389,159.35235c-0.01527,-0.0345 0.00032,-0.07485 0.03482,-0.09012c0.0345,-0.01527 0.07485,0.00032 0.09012,0.03482c0.01527,0.0345 -0.00032,0.07485 -0.03482,0.09012c-0.0345,0.01527 -0.07485,-0.00032 -0.09012,-0.03482z" fill="#ffffff" stroke="none" stroke-linecap="butt"></path><path d="M266.1671,159.23912l1.59814,3.47623" fill="none" stroke="#fff4dc" stroke-linecap="round"></path><path d="M266.50117,162.01971l-0.16588,-0.37482l0.79962,-0.35387l0.16588,0.37482z" fill="url(#color-14)" stroke="none" stroke-linecap="butt"></path><path d="M267.40808,162.24589l-0.21011,-0.47478c0,0 0.3093,0.01253 0.43011,-0.04093c0.18455,-0.08167 0.56941,-0.4014 0.56941,-0.4014l0.21011,0.47478c0,0 -0.46137,0.02488 -0.64108,0.10441c-0.14673,0.06494 -0.35845,0.33792 -0.35845,0.33792z" fill="#80745b" stroke="none" stroke-linecap="butt"></path><path d="M268.24906,162.05301l-0.34281,-0.77463l0.37482,-0.16588l0.34281,0.77463z" fill="#80745b" stroke="none" stroke-linecap="butt"></path><path d="M268.22004,161.10963l0.30676,0.7607" fill="none" stroke="#fff4dc" stroke-linecap="round"></path><path d="M267.5899,163.06188l-0.3359,0.11877" fill="none" stroke="#fff4dc" stroke-linecap="round"></path></g></g><text transform="translate(258.83755,149.42215) scale(0.06171,0.06171)" font-size="40" xml:space="preserve" fill="#fff4ce" fill-rule="nonzero" stroke="none" stroke-width="0.5" stroke-linecap="butt" stroke-linejoin="miter" stroke-miterlimit="10" stroke-dasharray="" stroke-dashoffset="0" font-family="Sans Serif" font-weight="normal" text-anchor="start" style="mix-blend-mode: normal"><tspan x="0" dy="0">Skeleton Key</tspan></text><g fill-rule="nonzero" stroke-linecap="butt" stroke-linejoin="miter" stroke-miterlimit="10"><g stroke-width="0.25"><path d="M263.88478,170.59364c0,0.58801 -0.52435,1.0647 -1.17117,1.0647c-0.64682,0 -1.17117,-0.47668 -1.17117,-1.0647c0,-0.58801 0.52435,-1.0647 1.17117,-1.0647c0.64682,0 1.17117,0.47668 1.17117,1.0647z" fill="#fff4ce" stroke="#e6ddbb"></path><path d="M263.18877,170.38153c0,0.36531 -0.32575,0.66145 -0.72759,0.66145c-0.40184,0 -0.72759,-0.29614 -0.72759,-0.66145c0,-0.36531 0.32575,-0.66145 0.72759,-0.66145c0.40184,0 0.72759,0.29614 0.72759,0.66145z" fill="#e6ddbb" stroke="#e6ddbb"></path><path d="M263.31078,172.48315l-0.50602,-0.73957l0.73957,-0.50602l0.50602,0.73957z" fill="#e6ddbb" stroke="none"></path><path d="M264.12998,171.57423c0.46947,0.19109 0.07285,0.5232 -0.11147,0.67462c-0.28762,0.23628 -0.61866,0.28517 -0.9494,0.22872v0.03037h-0.17922v0c-0.08545,0 -0.15472,-0.06927 -0.15472,-0.15472c0,-0.06176 0.03619,-0.11508 0.08853,-0.13989l0.17623,-0.08811l0.00284,0.00568l0.01267,-0.01241c0.01636,-0.00417 0.03272,-0.00834 0.04909,-0.01251c0.01228,-0.02505 0.03114,-0.0463 0.05432,-0.06149c0.02161,-0.03297 0.05547,-0.05719 0.09512,-0.06619l0.16829,-0.04207c0.10335,-0.04331 0.67121,-0.39316 0.74775,-0.36201z" fill="#fff4ce" stroke="none"></path></g><text transform="translate(264.35921,171.4458) scale(0.06171,0.06171)" font-size="40" xml:space="preserve" fill="#fff4ce" fill-rule="nonzero" stroke="none" stroke-width="0.5" stroke-linecap="butt" stroke-linejoin="miter" stroke-miterlimit="10" stroke-dasharray="" stroke-dashoffset="0" font-family="Sans Serif" font-weight="normal" text-anchor="start" style="mix-blend-mode: normal"><tspan x="0" dy="0">100</tspan></text></g><path d="M228.26731,136.58823v-10.26997h43.036v10.26997z" fill="#e2e2e2" fill-rule="nonzero" stroke="none" stroke-width="0.25" stroke-linecap="butt" stroke-linejoin="miter" stroke-miterlimit="10"></path><path d="M230.51227,129.95927c0,0.44146 -0.45729,0.79934 -1.02138,0.79934c-0.56409,0 -1.02138,-0.35788 -1.02138,-0.79934c0,-0.44146 0.45729,-0.79934 1.02138,-0.79934c0.56409,0 1.02138,0.35788 1.02138,0.79934z" fill="#919191" fill-rule="nonzero" stroke="none" stroke-width="0.25" stroke-linecap="butt" stroke-linejoin="miter" stroke-miterlimit="10"></path><path d="M270.71705,130.28575c0,0.44147 -0.45729,0.79934 -1.02138,0.79934c-0.56409,0 -1.02138,-0.35788 -1.02138,-0.79934c0,-0.44147 0.45729,-0.79934 1.02138,-0.79934c0.56409,0 1.02138,0.35788 1.02138,0.79934z" fill="#919191" fill-rule="nonzero" stroke="none" stroke-width="0.25" stroke-linecap="butt" stroke-linejoin="miter" stroke-miterlimit="10"></path><text transform="translate(233.70964,130.56336) scale(0.09893,0.09893)" font-size="40" xml:space="preserve" fill="#000000" fill-rule="nonzero" stroke="none" stroke-width="0.5" stroke-linecap="butt" stroke-linejoin="miter" stroke-miterlimit="10" stroke-dasharray="" stroke-dashoffset="0" font-family="Pixel" font-weight="normal" text-anchor="start" style="mix-blend-mode: normal"><tspan x="0" dy="0">Entrepreneur's</tspan></text><text transform="translate(241.96951,135.55467) scale(0.13923,0.13923)" font-size="40" xml:space="preserve" fill="#ffc500" fill-rule="nonzero" stroke="#000000" stroke-width="0.5" stroke-linecap="butt" stroke-linejoin="miter" stroke-miterlimit="10" stroke-dasharray="" stroke-dashoffset="0" font-family="Marker" font-weight="normal" text-anchor="start" style="mix-blend-mode: normal"><tspan x="0" dy="0">SHOP</tspan></text><text transform="translate(232.9103,141.77178) scale(0.13923,0.13923)" font-size="40" xml:space="preserve" fill="#1dbf00" fill-rule="nonzero" stroke="none" stroke-width="0.5" stroke-linecap="butt" stroke-linejoin="miter" stroke-miterlimit="10" stroke-dasharray="" stroke-dashoffset="0" font-family="Sans Serif" font-weight="normal" text-anchor="start" style="mix-blend-mode: normal"><tspan x="0" dy="0">TAP TO BUY</tspan></text><g fill-rule="nonzero" stroke-linejoin="miter" stroke-miterlimit="10"><text transform="translate(233.24127,162.36317) rotate(13.61997) scale(0.01204,0.01204)" font-size="40" xml:space="preserve" fill="#a45a4a" fill-rule="nonzero" stroke="none" stroke-width="0.5" stroke-linecap="butt" stroke-linejoin="miter" stroke-miterlimit="10" stroke-dasharray="" stroke-dashoffset="0" font-family="Handwriting" font-weight="normal" text-anchor="start" style="mix-blend-mode: normal"><tspan x="0" dy="0">xAmt8</tspan></text><path d="M231.0998,161.43109c0.22064,-1.29483 0.60145,-3.5297 0.72731,-4.26828c0.07954,-0.46679 0.29222,-0.98681 0.42604,-0.96358c0.41182,0.07146 2.55539,0.44339 3.30738,0.57387c0.16336,0.02835 0.19713,0.42043 0.10264,0.97493c-0.22264,1.30661 -0.61499,3.60915 -0.74061,4.34636c-0.07615,0.4469 -0.26323,0.93824 -0.43062,0.9092c-0.75617,-0.1312 -2.87974,-0.49967 -3.29394,-0.57154c-0.13695,-0.02376 -0.19506,-0.43255 -0.09821,-1.00096z" fill="url(#color-15)" stroke="#fff4ce" stroke-width="0.25" stroke-linecap="butt"></path><path d="M231.48523,159.05231c0.06241,-0.3655 0.17013,-0.99635 0.20573,-1.20483c0.0225,-0.13176 0.12638,-0.27361 0.21278,-0.26156c0.2659,0.03707 1.64992,0.23005 2.13545,0.29775c0.10548,0.01471 0.15047,0.12939 0.12374,0.28591c-0.06298,0.36882 -0.17396,1.01877 -0.20949,1.22687c-0.02154,0.12615 -0.11087,0.26072 -0.21895,0.24565c-0.48823,-0.06808 -1.85934,-0.25925 -2.12677,-0.29654c-0.08843,-0.01233 -0.14988,-0.13281 -0.12249,-0.29326z" fill="url(#color-16)" stroke="#fff4ce" stroke-width="0.25" stroke-linecap="butt"></path><path d="M233.70862,159.39087c0.06847,-0.36441 0.18666,-0.99338 0.22571,-1.20125c0.02468,-0.13137 0.07859,-0.28122 0.10669,-0.27857c0.08647,0.00816 0.53656,0.05062 0.69446,0.06551c0.0343,0.00324 0.03498,0.11075 0.00565,0.2668c-0.0691,0.36773 -0.19086,1.01574 -0.22984,1.22322c-0.02363,0.12577 -0.07162,0.26697 -0.10676,0.26365c-0.15877,-0.01498 -0.60467,-0.05704 -0.69164,-0.06524c-0.02876,-0.00271 -0.03434,-0.11416 -0.00428,-0.27413z" fill="#d5977b" stroke="#fff4ce" stroke-width="0.25" stroke-linecap="butt"></path><path d="M233.05545,156.26538l-1.23587,6.22057" fill="none" stroke-opacity="0.09917" stroke="#000000" stroke-width="0.25" stroke-linecap="round"></path><path d="M232.61796,156.31604l0.11307,-0.76063l2.68937,0.39977l-0.11307,0.76063z" fill="url(#color-17)" stroke="#000000" stroke-width="0.25" stroke-linecap="butt"></path><path d="M232.58917,155.65399l0.03788,-0.26092l2.98426,0.4332l-0.03788,0.26092c0,0 -0.05943,-0.10609 -0.25699,-0.1432c-0.65019,-0.12214 -2.1485,-0.30725 -2.46937,-0.35383c-0.12412,-0.01802 -0.25789,0.06383 -0.25789,0.06383z" fill="#ab5e4d" stroke="#000000" stroke-width="0.25" stroke-linecap="butt"></path><path d="M234.27326,156.51461l-1.10405,6.16289" fill="none" stroke-opacity="0.09917" stroke="#000000" stroke-width="0.25" stroke-linecap="round"></path><path d="M234.04256,156.54757l0.11535,-0.92279" fill="none" stroke-opacity="0.09917" stroke="#000000" stroke-width="0.25" stroke-linecap="round"></path><path d="M232.0501,155.46946l0.14712,-1.02655c0,0 0.3904,-0.29908 0.52834,-0.27812c0.17918,0.02722 0.61857,0.07411 1.12945,0.13305c0.77174,0.08903 1.70663,0.20557 2.15417,0.32338c0.14818,0.03901 0.42169,0.46493 0.42169,0.46493l-0.16911,1.07379c0,0 -0.09822,-0.20355 -0.26613,-0.24084c-0.79443,-0.17644 -3.11286,-0.5074 -3.57328,-0.58288c-0.15115,-0.02478 -0.37225,0.13324 -0.37225,0.13324z" fill="url(#color-18)" stroke="#000000" stroke-width="0.25" stroke-linecap="butt"></path></g><path d="M238.311,167.70481v-4.84858h22.12166v4.84858z" fill="#b18247" fill-rule="nonzero" stroke="none" stroke-width="0.25" stroke-linecap="butt" stroke-linejoin="miter" stroke-miterlimit="10"></path><path d="M252.90591,166.09543v-1.96974h6.06073v1.96974z" fill="#ffffff" fill-rule="nonzero" stroke="none" stroke-width="0.25" stroke-linecap="butt" stroke-linejoin="miter" stroke-miterlimit="10"></path><g fill-rule="nonzero" stroke-width="0.25" stroke-linejoin="miter" stroke-miterlimit="10"><path d="M253.82871,148.13001c0.05915,2.3803 -1.74923,4.35604 -4.03914,4.41295c-2.28991,0.05691 -4.1942,-1.82657 -4.25335,-4.20687c-0.05915,-2.3803 1.74923,-4.35604 4.03913,-4.41295c2.28991,-0.05691 4.1942,1.82657 4.25335,4.20687z" fill="#ffca9c" stroke="none" stroke-linecap="butt"></path><path d="M246.56038,167.58074l-0.38233,-15.38474l6.32848,-0.15727l0.38233,15.38474z" fill="#000000" stroke="none" stroke-linecap="butt"></path><path d="M247.63369,156.44289l-0.11093,-4.46383l3.42759,-0.08518l0.11093,4.46383c0,0 -1.07729,1.94102 -1.7061,1.95665c-0.46025,0.01144 -1.72148,-1.87147 -1.72148,-1.87147z" fill="#ffffff" stroke="none" stroke-linecap="butt"></path><path d="M251.79228,157.82024l2.20505,-5.22969l1.91085,0.80569l-2.20505,5.22969z" fill="#000000" stroke="none" stroke-linecap="butt"></path><path d="M246.78406,156.3105l-0.14856,5.67361l-2.07305,-0.05428l0.14856,-5.67361z" fill="#000000" stroke="none" stroke-linecap="butt"></path><path d="M247.22741,172.47722l-0.13287,-5.34647l1.30934,-0.03254l0.13287,5.34647z" fill="#000000" stroke="none" stroke-linecap="butt"></path><path d="M250.72858,172.77658l-0.14789,-5.95083l1.30934,-0.03254l0.14789,5.95083z" fill="#000000" stroke="none" stroke-linecap="butt"></path><path d="M249.07887,153.61536l-0.60156,-1.73978l1.51451,-0.03764l-0.27923,1.60215z" fill="#ff0000" stroke="none" stroke-linecap="butt"></path><path d="M249.11651,155.12988l-0.04754,-1.91307l0.63769,-0.01585l0.04754,1.91307z" fill="#ff0000" stroke="none" stroke-linecap="butt"></path><path d="M249.0467,155.53041l-0.01387,-0.55798l0.87683,-0.02179l0.01387,0.55798z" fill="#ff0000" stroke="none" stroke-linecap="butt"></path><path d="M247.2923,153.93892c0.00547,0.22012 -0.16853,0.40299 -0.38865,0.40846c-0.22012,0.00547 -0.40299,-0.16853 -0.40846,-0.38865c-0.00547,-0.22012 0.16853,-0.40299 0.38865,-0.40846c0.22012,-0.00547 0.40299,0.16853 0.40846,0.38865z" fill="#c7c7c7" stroke="none" stroke-linecap="butt"></path><path d="M252.50275,153.91578c0.00474,0.19077 -0.14606,0.34926 -0.33683,0.354c-0.19077,0.00474 -0.34926,-0.14606 -0.354,-0.33683c-0.00474,-0.19077 0.14606,-0.34926 0.33683,-0.354c0.19077,-0.00474 0.34926,0.14606 0.354,0.33683z" fill="#c7c7c7" stroke="none" stroke-linecap="butt"></path><path d="M248.37734,169.7843c0.00511,0.20544 -0.31195,0.37997 -0.70816,0.38982c-0.39621,0.00985 -0.72154,-0.14872 -0.72665,-0.35416c-0.00511,-0.20544 0.31195,-0.37997 0.70816,-0.38981c0.39621,-0.00985 0.72154,0.14871 0.72665,0.35415z" fill="#c87f00" stroke="none" stroke-linecap="butt"></path><path d="M252.20745,169.84864c0.00511,0.20544 -0.31195,0.37997 -0.70816,0.38981c-0.39621,0.00985 -0.72154,-0.14871 -0.72665,-0.35415c-0.00511,-0.20544 0.31195,-0.37997 0.70816,-0.38982c0.39621,-0.00985 0.72154,0.14872 0.72665,0.35416z" fill="#c87f00" stroke="none" stroke-linecap="butt"></path><g fill="#ffd200"><path d="M245.33172,174.25008c0,0 -0.16976,-0.38097 -0.18115,-0.5908c-0.01132,-0.20857 0.11299,-0.66445 0.11299,-0.66445c0,0 0.56684,-0.22746 0.89763,-0.31832c0.56523,-0.15525 1.09845,-0.65551 1.48092,-0.66502c0.37894,-0.00942 0.93559,0.45735 0.93559,0.45735l0.04224,1.69953z" stroke="none" stroke-linecap="butt"></path><path d="M247.07754,172.72331l0.41014,-0.23201" stroke="#000000" stroke-linecap="round"></path><path d="M248.07578,172.72623l-0.18777,0.25421" stroke="#000000" stroke-linecap="round"></path></g><g data-paper-data="{&quot;index&quot;:null}" fill="#ffd200"><path d="M250.48056,174.1753l-0.04224,-1.69953c0,0 0.53279,-0.49384 0.91172,-0.50325c0.38247,-0.0095 0.93989,0.46365 1.51213,0.59063c0.33489,0.07431 0.91233,0.27334 0.91233,0.27334c0,0 0.14681,0.44914 0.14585,0.65801c-0.00096,0.21015 -0.15158,0.59907 -0.15158,0.59907z" stroke="none" stroke-linecap="butt"></path><path d="M251.94928,172.65541l-0.42115,-0.21135" stroke="#000000" stroke-linecap="round"></path><path d="M250.95242,172.70792l0.20016,0.24457" stroke="#000000" stroke-linecap="round"></path></g><path d="M248.47555,145.79287c0.19367,0.27114 0.01252,0.73248 -0.40462,1.03043c-0.41714,0.29795 -0.91229,0.31969 -1.10596,0.04855c-0.19367,-0.27114 -0.01252,-0.73248 0.40462,-1.03043c0.41714,-0.29795 0.91229,-0.31969 1.10596,-0.04855z" fill="#ffde00" stroke="none" stroke-linecap="butt"></path><path d="M246.83849,145.72904v-0.83536c0,0 1.70556,-1.06741 2.69172,-1.06741c0.97843,0 3.20222,1.06741 3.20222,1.06741v0.83536z" fill="url(#color-19)" stroke="none" stroke-linecap="butt"></path><path d="M241.3853,147.28339c0,0 2.54643,0.79266 3.39141,0.4013c0.8687,-0.40234 1.75164,-2.78331 1.75164,-2.78331l1.00176,0.36857c0,0 -1.16894,2.33655 -2.1795,2.90013c-1.10393,0.61565 -4.18875,0.65138 -4.18875,0.65138z" fill="url(#color-20)" stroke="none" stroke-linecap="butt"></path><path d="M253.78564,149.10356l-1.69096,-3.35115l0.75565,-0.3813l1.69096,3.35115z" fill="url(#color-21)" stroke="none" stroke-linecap="butt"></path><path d="M252.45398,147.63181c-0.05388,0 -0.0869,-0.02085 -0.10715,-0.04641c-0.01069,0 -0.02139,0 -0.03208,0c-0.25282,-0.00282 -0.7586,0.00237 -0.96628,-0.16781c-0.41108,-0.33685 -0.42629,-1.36927 -0.27962,-1.8254c0,0 0.04403,-0.13208 0.17611,-0.08806c0.13208,0.04403 0.08806,0.17611 0.08806,0.17611c-0.30737,0.87956 0.07097,1.6407 0.98173,1.6267c0.04641,0 0.09282,0 0.13923,0l0.13923,0.18564c0,0 0,0.13923 -0.13923,0.13923z" fill="#ffde00" stroke="none" stroke-linecap="butt"></path><path d="M246.46721,149.72022c-0.13923,0 -0.13923,-0.13923 -0.13923,-0.13923v-0.04641c0,-0.3597 -0.11385,-0.47996 -0.2249,-0.79134c0,0 -0.04403,-0.13208 0.08806,-0.17611c0.13208,-0.04403 0.17611,0.08806 0.17611,0.08806c0.09816,0.32978 0.23919,0.49631 0.23919,0.87939v0.04641c0,0 0,0.13923 -0.13923,0.13923z" fill="#ffde00" stroke="none" stroke-linecap="butt"></path><path d="M248.11448,146.93241c0.06961,0 0.06961,0.06961 0.06961,0.06961l-0.02039,0.00647c0.03713,0.03713 0.07426,0.07426 0.11138,0.11138c0,0 0.03387,0.03387 0.01732,0.07352c0.01902,-0.00974 0.04057,-0.01524 0.0634,-0.01524c0.07689,0 0.13923,0.06233 0.13923,0.13923c0,0.07689 -0.06233,0.13923 -0.13923,0.13923c-0.07689,0 -0.13923,-0.06233 -0.13923,-0.13923c0,-0.02922 0.009,-0.05635 0.02439,-0.07874c-0.03555,0.00845 -0.06433,-0.02032 -0.06433,-0.02032c-0.03713,-0.03713 -0.07426,-0.07426 -0.11138,-0.11138l-0.02039,-0.10492c0,0 0,-0.06961 0.06961,-0.06961z" fill="#000000" stroke="none" stroke-linecap="butt"></path><path d="M250.44421,147.4765c0,-0.07689 0.06233,-0.13923 0.13923,-0.13923c0.07689,0 0.13923,0.06233 0.13923,0.13923c0,0.07689 -0.06233,0.13923 -0.13923,0.13923c-0.07689,0 -0.13923,-0.06233 -0.13923,-0.13923z" fill="#000000" stroke="none" stroke-linecap="butt"></path><path d="M250.37579,146.96383c0.06604,-0.02201 0.08806,0.04403 0.08806,0.04403c0.00928,0.02785 0.04641,0.13923 0.05569,0.16707c0,0 0.02201,0.06604 -0.04403,0.08806c-0.06604,0.02201 -0.08806,-0.04403 -0.08806,-0.04403c-0.00928,-0.02785 -0.01856,-0.05569 -0.02785,-0.08354l-0.02785,-0.08354c0,0 -0.02201,-0.06604 0.04403,-0.08806z" fill="#000000" stroke="none" stroke-linecap="butt"></path><path d="M250.73195,146.96026c0.06961,0 0.06961,0.06961 0.06961,0.06961l-0.00357,0.04986c-0.02205,0.06477 -0.05402,0.12653 -0.09166,0.18367c0,0 -0.03862,0.05792 -0.09654,0.01931c-0.05792,-0.03862 -0.01931,-0.09654 -0.01931,-0.09654c0.03143,-0.04647 0.05809,-0.09711 0.07542,-0.15047l-0.00357,-0.00583c0,0 0,-0.06961 0.06961,-0.06961z" fill="#000000" stroke="none" stroke-linecap="butt"></path><path d="M251.04482,147.0962c0.03113,0.06227 -0.03113,0.0934 -0.03113,0.0934l-0.0376,0.01481c-0.05569,0.05569 -0.11138,0.11138 -0.16707,0.16707c0,0 -0.04923,0.04923 -0.09845,0c-0.04923,-0.04923 0,-0.09845 0,-0.09845c0.05569,-0.05569 0.11138,-0.11138 0.16707,-0.16707l0.07378,-0.04089c0,0 0.06227,-0.03113 0.0934,0.03113z" fill="#000000" stroke="none" stroke-linecap="butt"></path><path d="M248.60923,146.75789c0.04923,0.04923 0,0.09845 0,0.09845l-0.01103,0.00063c-0.02785,0.08354 -0.05569,0.16707 -0.08354,0.25061c0,0 -0.02201,0.06604 -0.08806,0.04403c-0.06604,-0.02201 -0.04403,-0.08806 -0.04403,-0.08806c0.02785,-0.08354 0.05569,-0.16707 0.08354,-0.25061l0.04466,-0.05506c0,0 0.04923,-0.04923 0.09845,0z" fill="#000000" stroke="none" stroke-linecap="butt"></path><path d="M248.83199,147.0085c0.04923,0.04923 0,0.09845 0,0.09845l-0.06832,0.06568c-0.0463,0.01543 -0.09313,0.03803 -0.1266,0.07354c0,0 -0.04923,0.04923 -0.09845,0c-0.04923,-0.04923 0,-0.09845 0,-0.09845c0.04285,-0.0412 0.09546,-0.07473 0.15185,-0.09353l0.04307,-0.0457c0,0 0.04923,-0.04923 0.09845,0z" fill="#000000" stroke="none" stroke-linecap="butt"></path><path d="M248.26467,150.86337c0.00637,-0.02026 0.02286,-0.04652 0.06561,-0.04652c0.06961,0 0.06961,0.06961 0.06961,0.06961l-0.0476,0.09389c-0.03147,0.01017 -0.06293,0.02035 -0.0944,0.03052c-0.70214,0.00667 -1.2341,-0.24299 -0.96825,-1.06532c0,0 0.02201,-0.06604 0.08806,-0.04403c0.06604,0.02201 0.04403,0.08806 0.04403,0.08806c-0.25432,0.73423 0.22594,0.87656 0.81386,0.88386c0.00969,-0.00336 0.01938,-0.00671 0.02907,-0.01007z" fill="#a90000" stroke="none" stroke-linecap="butt"></path><path d="M241.73064,149.36356c0,0 2.64692,0.32621 3.40864,-0.20946c0.78311,-0.5507 1.22763,-3.0509 1.22763,-3.0509l1.0514,0.18416c0,0 -0.73386,2.50745 -1.62782,3.24209c-0.97655,0.80251 -4.00564,1.38738 -4.00564,1.38738z" fill="url(#color-22)" stroke="none" stroke-linecap="butt"></path><path d="M257.77828,151.69651c0,0 -3.02908,-0.58486 -4.00564,-1.38738c-0.89396,-0.73464 -1.62782,-3.2421 -1.62782,-3.2421l1.0514,-0.18416c0,0 0.44452,2.50019 1.22763,3.0509c0.76173,0.53567 3.40864,0.20946 3.40864,0.20946z" data-paper-data="{&quot;index&quot;:null}" fill="url(#color-23)" stroke="none" stroke-linecap="butt"></path><path d="M258.78976,150.43455c0,0 -2.66411,0.14199 -3.65488,-0.26725c-0.90698,-0.37464 -2.06062,-2.0936 -2.06062,-2.0936l0.84155,-0.33623c0,0 0.9096,1.76855 1.68417,2.02792c0.75342,0.25229 2.90155,-0.49233 2.90155,-0.49233z" data-paper-data="{&quot;index&quot;:null}" fill="url(#color-24)" stroke="none" stroke-linecap="butt"></path></g><path d="M238.42151,174.48212v-7.87895h22.12166v7.87895z" fill-opacity="0.55645" fill="#46a4b0" fill-rule="nonzero" stroke="none" stroke-width="0.25" stroke-linecap="butt" stroke-linejoin="miter" stroke-miterlimit="10"></path><g stroke-linecap="butt"><path d="M211.34716,161.73545c0.11193,-0.04151 0.34153,0.07108 0.34153,0.07108l0.41046,0.86908c0,0 -0.40478,0.18297 -0.45015,0.15162c-0.13396,-0.09257 -0.36075,-0.25393 -0.56645,-0.17763c-0.26107,0.09683 -0.533,0.46788 -0.533,0.46788c0,0 -0.1043,0.52318 -0.09523,0.63747c0.00365,0.04593 -0.07671,-0.04328 -0.09139,-0.03847c-0.09792,0.03209 -0.33383,-0.67968 -0.3663,-0.72769c-0.0569,-0.08413 0.04503,-0.53075 0.04503,-0.53075c0,0 1.03643,-0.62279 1.3055,-0.72259z" data-paper-data="{&quot;index&quot;:null}" fill="url(#color-25)" fill-rule="nonzero" stroke="#000000" stroke-width="0.25" stroke-linejoin="miter" stroke-miterlimit="10"></path><path d="M212.06211,160.82798c0.11193,-0.04151 0.34153,0.07108 0.34153,0.07108l0.17223,1.05244c0,0 -0.16655,-0.00039 -0.21191,-0.03174c-0.13396,-0.09257 -0.36075,-0.25393 -0.56645,-0.17763c-0.26107,0.09683 -0.71872,0.28484 -0.71872,0.28484c0,0 0.09479,0.37088 0.04359,0.38766c-0.09792,0.03209 -0.37833,-0.28529 -0.4108,-0.3333c-0.0569,-0.08413 0.04503,-0.53075 0.04503,-0.53075c0,0 1.03643,-0.62279 1.3055,-0.72259z" data-paper-data="{&quot;index&quot;:null}" fill="url(#color-26)" fill-rule="nonzero" stroke="#000000" stroke-width="0.25" stroke-linejoin="miter" stroke-miterlimit="10"></path><path d="M207.76302,166.13961c0,0 -1.20898,-0.77539 -1.71083,-1.35883c-0.40763,-0.47389 -0.98309,-1.3976 -0.98309,-1.3976c0.05513,0.00007 0.20402,0.17203 0.25915,0.17211c0.54781,0.00083 1.09461,0.42431 1.61905,0.42735c0.07158,0.00041 0.14313,0.00116 0.21465,0.00222c0.75237,0.09963 1.62865,-0.21379 2.38295,-0.23192c0.06165,0.00448 -0.1111,-0.27224 -0.04947,-0.26766z" fill-opacity="0.50417" fill="#000000" fill-rule="nonzero" stroke="none" stroke-width="0.25" stroke-linejoin="miter" stroke-miterlimit="10"></path><path d="M203.74917,160.65929c0,-1.01481 0.82395,-1.83875 1.83875,-1.83875c0.92618,0 1.69331,0.68623 1.82028,1.57738c0.12696,-0.89115 0.89409,-1.57738 1.82028,-1.57738c1.01481,0 1.83875,0.82395 1.83875,1.83875v0.00019c0,0.95845 -0.38071,1.87774 -1.05848,2.55541l-2.60055,2.60055l-2.60055,-2.60055c-0.67777,-0.67767 -1.05848,-1.59696 -1.05848,-2.55541z" fill="url(#color-27)" fill-rule="evenodd" stroke="none" stroke-width="0.25" stroke-linejoin="round" stroke-miterlimit="2"></path><path d="M205.58195,163.98828l0.02748,-0.00916c-0.00589,0.00664 -0.01166,0.01338 -0.01732,0.02022l-0.011,-0.011z" fill="url(#color-28)" fill-rule="nonzero" stroke="none" stroke-width="0.25" stroke-linejoin="miter" stroke-miterlimit="10"></path><path d="M204.3487,162.653c0.53095,-0.02706 1.03174,-0.24942 1.46957,-0.55539c0.2904,-0.20294 0.58344,-0.40342 0.88426,-0.59058c0.0755,-0.04698 0.18236,-0.1799 0.27694,-0.19045c0.05673,-0.00632 0.35904,0.2792 0.45824,0.3127c0.32673,0.11034 0.50143,0.09664 0.82522,0.04194c0.63635,-0.10751 1.44027,-1.10519 1.8678,-1.53272c0.16922,-0.16922 0.43802,-0.31918 0.62167,-0.50789c0.15032,0.22214 0.25337,0.47883 0.29465,0.75557c-0.07086,0.00376 -0.13648,0.01654 -0.18104,0.06643c-0.30925,0.34633 -0.47679,0.79125 -0.76968,1.15158c-0.24056,0.29595 -0.82229,0.66294 -1.18964,0.77837c-0.5857,0.18403 -1.17786,-0.33849 -1.75345,-0.31674c-0.45832,0.01732 -0.86286,0.16087 -1.29358,0.28549c-0.27845,0.08056 -0.5947,0.11828 -0.80644,0.35141c-0.09219,0.1015 -0.12147,0.2077 -0.21001,0.30736c-0.01913,0.02154 -0.03904,0.03941 -0.0596,0.05462c-0.03342,0.00527 -0.06613,0.01266 -0.098,0.02203c-0.12379,-0.13652 -0.2363,-0.28159 -0.33692,-0.43375z" fill="url(#color-29)" fill-rule="nonzero" stroke="none" stroke-width="0.25" stroke-linejoin="miter" stroke-miterlimit="10"></path><path d="M211.06723,160.65929v0.00019c0,0.95845 -0.38071,1.87774 -1.05848,2.55541l-2.60055,2.60055l-0.63779,-0.63779l0.05261,-0.00717l0.13022,-0.05209l0.05129,-0.03704l0.06052,-0.01842l0.10448,-0.06269l0.00062,-0.00031l0.02097,-0.00524l0.11798,-0.06292l0.0163,-0.00582l0.00143,-0.00011l0.07813,-0.02604l0.00809,-0.00515l0.02196,-0.00785l0.07813,-0.05208l0.00812,-0.00893l0.01373,-0.00874l0.05965,-0.00331l0.06533,-0.07622l0.08469,-0.0539l0.00616,-0.03079l0.01689,-0.00376l0.10417,-0.05209l0.09536,-0.08173l0.10769,-0.06462l0.23177,-0.23177l0.01376,-0.00917l0.10318,-0.1135l0.11351,-0.10319l0.00917,-0.01376l0.02343,-0.02343l0.04004,-0.06673l0.05758,-0.05235l0.05208,-0.07813l0.03005,-0.08414l0.15225,-0.22838l0.01518,-0.04251l0.01968,-0.01687l0.04982,-0.02989l0.13022,-0.13021l0.01123,-0.01871l0.14353,-0.12303l0.00067,-0.01196l0.03657,-0.05486l0.00069,-0.0008l0.04169,-0.02502l0.05209,-0.05208l0.02502,-0.0417l0.02557,-0.02192l0.00077,-0.01378l0.07886,-0.07886l0.06462,-0.10769l0.08173,-0.09536l0.02604,-0.05209l0.01136,-0.05112l0.0024,-0.00399l0.04484,-0.05231l0.0034,-0.00204l0.10417,-0.10417l0.0346,-0.05766l0.00747,-0.0021l0.03052,-0.05724l0.07377,-0.08606l0.02604,-0.05208l0.01136,-0.05112l0.02342,-0.03903l-0.00434,-0.01591l0.02872,-0.05385l0.02604,-0.10417v-0.00326l0.02604,-0.04883l0.00524,-0.02097l0.01373,-0.02746l0.01866,-0.08399l0.04049,-0.07592l0.00364,-0.01455l0.01869,-0.02803l0.01503,-0.04207l0.01102,-0.01002l0.01626,-0.02438l0.00644,-0.00751l0.00429,-0.00858l0.02511,-0.03766l0.0166,-0.04649l0.03213,-0.03749l0.05689,-0.11377l0.13085,-0.14394l-0.00069,-0.01007l0.00612,-0.0035l0.00544,-0.02177l0.00974,-0.01947l0.03125,-0.14063l0.02408,-0.04816l0.00762,-0.00435l0.00544,-0.02177l0.00973,-0.01947l0.03894,-0.17525l0.04354,-0.17416v-0.02177l0.00487,-0.02191l-0.00033,-0.0005l0.02151,-0.08604v-0.02177l0.00487,-0.02191l-0.00487,-0.0073v-0.52197l-0.00405,-0.01622c0.18563,0.28716 0.29343,0.62924 0.29343,0.99631z" fill="url(#color-30)" fill-rule="nonzero" stroke="none" stroke-width="0.25" stroke-linejoin="miter" stroke-miterlimit="10"></path><path d="M209.22847,158.82053c1.01481,0 1.83875,0.82395 1.83875,1.83875v0.00019c0,0.05922 -0.00145,0.11829 -0.00434,0.17716c-0.05834,-0.05653 -0.12233,-0.10714 -0.19165,-0.1504c-0.19817,-0.12368 -0.4275,-0.1279 -0.63995,-0.19084c-0.54122,-0.40115 -1.37138,-0.53771 -1.83576,-0.15668c-0.02252,0.00388 -0.04491,0.00823 -0.06714,0.01317c-0.01732,0.00385 -0.03812,0.00751 -0.06108,0.01126c-0.1752,-0.04664 -0.35937,-0.09514 -0.54437,-0.12156c-0.05925,-0.09463 -0.1257,-0.18916 -0.19563,-0.28098c0.27522,-0.66871 0.93357,-1.14007 1.70117,-1.14007z" fill="url(#color-31)" fill-rule="nonzero" stroke="none" stroke-width="0.25" stroke-linejoin="miter" stroke-miterlimit="10"></path><path d="M210.01267,157.68304c0.01842,0.30779 -1.14367,0.62774 -2.5956,0.71463c-1.45193,0.08688 -2.64388,-0.0922 -2.6623,-0.4c-0.01842,-0.30779 1.14367,-0.62775 2.5956,-0.71463c1.45193,-0.08688 2.64388,0.0922 2.6623,0.4z" fill="none" fill-rule="nonzero" stroke="url(#color-32)" stroke-width="0.25" stroke-linejoin="miter" stroke-miterlimit="10"></path><path d="M203.90306,164.12268c0,0 -0.70266,-0.23403 -0.71764,-0.33448c-0.01302,-0.0873 0.13798,-0.26038 0.13798,-0.26038c0,0 0.1514,0.1618 0.32409,0.15615c0.18915,-0.00618 0.40645,-0.18205 0.54121,-0.23705c0.27191,-0.11098 0.35366,-0.65458 0.35366,-0.65458l0.66299,0.86571c0,0 -0.09298,0.23822 -0.20352,0.28334c-0.2657,0.10845 -1.09879,0.1813 -1.09879,0.1813z" fill="url(#color-33)" fill-rule="nonzero" stroke="#000000" stroke-width="0.25" stroke-linejoin="miter" stroke-miterlimit="10"></path><path d="M202.88738,163.41952c0,0 -0.37712,-0.26007 -0.3921,-0.36053c-0.00855,-0.05733 -0.01662,-0.48076 0.07721,-0.52334c0.04906,-0.02227 0.23005,0.31505 0.23005,0.31505c0,0 0.46427,-0.171 0.72207,-0.27623c0.20312,-0.08291 0.26106,-0.35514 0.29715,-0.51393c0.01222,-0.05378 0.13464,-0.16669 0.13464,-0.16669l0.58486,0.89175c0,0 -0.09298,0.23822 -0.20352,0.28334c-0.2657,0.10845 -1.45036,0.35058 -1.45036,0.35058z" fill="url(#color-34)" fill-rule="nonzero" stroke="#000000" stroke-width="0.25" stroke-linejoin="miter" stroke-miterlimit="10"></path><path d="M202.37954,162.50802c0,0 -0.37712,-0.26007 -0.3921,-0.36053c-0.00855,-0.05733 -0.31611,-0.74119 -0.22228,-0.78377c0.01406,-0.00638 0.01293,-0.12645 0.04131,-0.09014c0.07061,0.09033 0.50126,0.4052 0.50126,0.4052c0,0 0.45125,0.08943 0.70905,-0.0158c0.20312,-0.08291 0.26106,-0.35514 0.29714,-0.51393c0.01222,-0.05378 0.43414,-0.19273 0.43414,-0.19273l0.28537,0.91779c0,0 -0.09298,0.23822 -0.20352,0.28333c-0.2657,0.10845 -1.45036,0.35058 -1.45036,0.35058z" fill="url(#color-35)" fill-rule="nonzero" stroke="#000000" stroke-width="0.25" stroke-linejoin="miter" stroke-miterlimit="10"></path><path d="M212.27998,159.96484c0,0 0.83793,-0.58318 0.86645,-0.23614c0.00474,0.05768 0.16029,-0.08585 0.15218,-0.07386c-0.00954,0.01411 -0.17999,0.60104 -0.17566,0.53036c0.0181,-0.2956 -0.46667,0.01086 -0.46667,0.01086c0,0 -0.40577,1.13266 -0.53681,1.02003c-0.14352,-0.12336 -0.42253,-0.14077 -0.559,-0.19139c-0.27536,-0.10213 -0.7032,0.24302 -0.7032,0.24302l0.09706,-1.08609c0,0 0.2296,-0.1126 0.34153,-0.07108c0.26907,0.0998 0.98411,-0.14572 0.98411,-0.14572z" data-paper-data="{&quot;index&quot;:null}" fill="url(#color-36)" fill-rule="nonzero" stroke="#000000" stroke-width="0.25" stroke-linejoin="miter" stroke-miterlimit="10"></path><text transform="translate(206.31266,164.45503) scale(0.01118,0.01118)" font-size="40" xml:space="preserve" fill="#ff6666" fill-rule="nonzero" stroke="none" stroke-width="0.5" stroke-linecap="butt" stroke-linejoin="miter" stroke-miterlimit="10" stroke-dasharray="" stroke-dashoffset="0" font-family="Marker" font-weight="normal" text-anchor="start" style="mix-blend-mode: normal"><tspan x="0" dy="0">xAmt8</tspan></text></g><path d="M205.80589,176.75783v-9.27931h3.33729v9.27931z" fill="#ffffff" fill-rule="nonzero" stroke="#c5c5c5" stroke-width="0.25" stroke-linecap="butt" stroke-linejoin="miter" stroke-miterlimit="10"></path><path d="M210.93393,167.23433c0,0.53945 -1.54882,0.97677 -3.45939,0.97677c-1.91057,0 -3.45939,-0.43731 -3.45939,-0.97677c0,-0.53945 1.54882,-0.97677 3.45939,-0.97677c1.91057,0 3.45939,0.43731 3.45939,0.97677z" fill="#fbfbfb" fill-rule="nonzero" stroke="#c5c5c5" stroke-width="0.25" stroke-linecap="butt" stroke-linejoin="miter" stroke-miterlimit="10"></path><text transform="translate(202.58566,151.85976) scale(0.06171,0.06171)" font-size="40" xml:space="preserve" fill="#00fffd" fill-rule="nonzero" stroke="none" stroke-width="0.5" stroke-linecap="butt" stroke-linejoin="miter" stroke-miterlimit="10" stroke-dasharray="" stroke-dashoffset="0" font-family="Sans Serif" font-weight="normal" text-anchor="start" style="mix-blend-mode: normal"><tspan x="0" dy="0">Revive</tspan></text><path d="M203.90241,173.10086v-3.27525h7.18036v3.27525z" fill="#00a9ff" fill-rule="nonzero" stroke="#000000" stroke-width="0.25" stroke-linecap="butt" stroke-linejoin="miter" stroke-miterlimit="10"></path><g fill-rule="nonzero" stroke-width="0.25" stroke-linecap="butt" stroke-linejoin="miter" stroke-miterlimit="10"><path d="M206.57804,171.17241c0,0.58801 -0.52435,1.0647 -1.17117,1.0647c-0.64682,0 -1.17117,-0.47668 -1.17117,-1.0647c0,-0.58801 0.52435,-1.0647 1.17117,-1.0647c0.64682,0 1.17117,0.47668 1.17117,1.0647z" fill="#fff4ce" stroke="#e6ddbb"></path><path d="M205.88204,170.9603c0,0.36531 -0.32575,0.66145 -0.72759,0.66145c-0.40184,0 -0.72759,-0.29614 -0.72759,-0.66145c0,-0.36531 0.32575,-0.66145 0.72759,-0.66145c0.40184,0 0.72759,0.29614 0.72759,0.66145z" fill="#e6ddbb" stroke="#e6ddbb"></path><path d="M206.00405,173.06192l-0.50602,-0.73957l0.73957,-0.50602l0.50602,0.73957z" fill="#e6ddbb" stroke="none"></path><path d="M206.82325,172.153c0.46947,0.19109 0.07285,0.5232 -0.11147,0.67462c-0.28762,0.23628 -0.61866,0.28517 -0.9494,0.22872v0.03037h-0.17922v0c-0.08545,0 -0.15472,-0.06927 -0.15472,-0.15472c0,-0.06176 0.03619,-0.11508 0.08853,-0.13989l0.17623,-0.08811l0.00284,0.00568l0.01267,-0.01241c0.01636,-0.00417 0.03272,-0.00834 0.04909,-0.01251c0.01228,-0.02505 0.03114,-0.0463 0.05432,-0.06149c0.02161,-0.03297 0.05547,-0.05719 0.09512,-0.06619l0.16829,-0.04207c0.10335,-0.04331 0.67121,-0.39316 0.74775,-0.36201z" fill="#fff4ce" stroke="none"></path></g><text transform="translate(207.50608,172.27339) scale(0.06171,0.06171)" font-size="40" xml:space="preserve" fill="#fff4ce" fill-rule="nonzero" stroke="none" stroke-width="0.5" stroke-linecap="butt" stroke-linejoin="miter" stroke-miterlimit="10" stroke-dasharray="" stroke-dashoffset="0" font-family="Sans Serif" font-weight="normal" text-anchor="start" style="mix-blend-mode: normal"><tspan x="0" dy="0">80</tspan></text></g></g></svg>