<svg version="1.1" xmlns="http://www.w3.org/2000/svg" xmlns:xlink="http://www.w3.org/1999/xlink" width="9.12" height="5.52" viewBox="0,0,9.12,5.52"><defs><radialGradient cx="240.22001" cy="180.12186" r="4.56" gradientUnits="userSpaceOnUse" id="color-1"><stop offset="0" stop-color="#9966ff"></stop><stop offset="1" stop-color="#9966ff" stop-opacity="0"></stop></radialGradient><linearGradient x1="237.62559" y1="180.46677" x2="241.96044" y2="180.82489" gradientUnits="userSpaceOnUse" id="color-2"><stop offset="0" stop-color="#d06f3e"></stop><stop offset="1" stop-color="#dfaf90"></stop></linearGradient></defs><g transform="translate(-235.66001,-177.36186)"><g data-paper-data="{&quot;isPaintingLayer&quot;:true}" fill-rule="nonzero" stroke-linejoin="miter" stroke-miterlimit="10" stroke-dasharray="" stroke-dashoffset="0" style="mix-blend-mode: normal"><path d="M244.78001,180.12186c0,1.52431 -2.04158,2.76 -4.56,2.76c-2.51842,0 -4.56,-1.23569 -4.56,-2.76c0,-1.52431 2.04158,-2.76 4.56,-2.76c2.51842,0 4.56,1.23569 4.56,2.76z" fill="url(#color-1)" stroke="none" stroke-width="0" stroke-linecap="butt"></path><path d="M239.45437,178.9826l0.00265,0.99938l-0.33664,0.00089l-0.00265,-0.99938z" data-paper-data="{&quot;index&quot;:null}" fill="#ce9d52" stroke="none" stroke-width="0.15" stroke-linecap="butt"></path><path d="M239.20749,179.1095c-0.15977,0.00042 -0.28946,-0.06282 -0.28967,-0.14125c-0.00021,-0.07843 0.12913,-0.14236 0.28891,-0.14279c0.15977,-0.00042 0.28947,0.06282 0.28968,0.14125c0.00021,0.07844 -0.12914,0.14236 -0.28892,0.14279z" data-paper-data="{&quot;index&quot;:null}" fill="#ce9d52" stroke="none" stroke-width="0.15" stroke-linecap="butt"></path><path d="M238.89864,178.78341c0,0 0.00406,0.00948 0.00908,0.02122c0.00373,0.00874 0.00801,0.01872 0.01154,0.02698c0.01253,0.02929 0.04724,0.11043 0.04724,0.11043l-0.06577,0.02813l-0.089,-0.20064z" data-paper-data="{&quot;index&quot;:null}" fill="#e5e5e5" stroke="none" stroke-width="0.15" stroke-linecap="butt"></path><path d="M238.97668,178.70265c0,0 0.00747,0.0071 0.01673,0.01589c0.0069,0.00654 0.01476,0.01402 0.02127,0.0202c0.0231,0.02194 0.0871,0.08271 0.0871,0.08271l-0.04926,0.05187l-0.16116,-0.14902z" data-paper-data="{&quot;index&quot;:null}" fill="#e5e5e5" stroke="none" stroke-width="0.15" stroke-linecap="butt"></path><path d="M239.16321,178.642c0,0 0.00259,0.00998 0.00579,0.02233c0.00237,0.00919 0.0051,0.01971 0.00736,0.0284c0.00798,0.03084 0.03013,0.11627 0.03013,0.11627l-0.06925,0.01794l-0.05787,-0.21174z" data-paper-data="{&quot;index&quot;:null}" fill="#e5e5e5" stroke="none" stroke-width="0.15" stroke-linecap="butt"></path><path d="M239.33642,178.6657c0,0 -0.00171,0.01016 -0.00383,0.02275c-0.00158,0.00937 -0.00338,0.02008 -0.00486,0.02893c-0.00529,0.03141 -0.01995,0.11844 -0.01995,0.11844l-0.07054,-0.01188l0.03356,-0.21692z" data-paper-data="{&quot;index&quot;:null}" fill="#e5e5e5" stroke="none" stroke-width="0.15" stroke-linecap="butt"></path><path d="M239.5118,178.73183c0,0 -0.005,0.00902 -0.0112,0.02018c-0.00461,0.00831 -0.00988,0.01781 -0.01423,0.02567c-0.01545,0.02786 -0.05825,0.10504 -0.05825,0.10504l-0.06256,-0.03469l0.10389,-0.19336z" data-paper-data="{&quot;index&quot;:null}" fill="#e5e5e5" stroke="none" stroke-width="0.15" stroke-linecap="butt"></path><path d="M239.20382,179.0131c-0.04071,0.00011 -0.07376,-0.01866 -0.07382,-0.04192c-0.00006,-0.02326 0.0329,-0.0422 0.0736,-0.04231c0.04071,-0.00011 0.07375,0.01865 0.07381,0.04191c0.00006,0.02326 -0.03289,0.04221 -0.07359,0.04232z" data-paper-data="{&quot;index&quot;:null}" fill="#674100" stroke="#674100" stroke-width="0.15" stroke-linecap="butt"></path><path d="M239.06651,178.85763l0.07188,0.1051l-0.20221,-0.01631" data-paper-data="{&quot;index&quot;:null}" fill="none" stroke="#674100" stroke-width="0.15" stroke-linecap="round"></path><path d="M239.17624,178.93736l-0.00872,-0.1137" data-paper-data="{&quot;index&quot;:null}" fill="none" stroke="#674100" stroke-width="0.15" stroke-linecap="round"></path><path d="M239.28546,178.82335l-0.07552,0.11392" data-paper-data="{&quot;index&quot;:null}" fill="none" stroke="#674100" stroke-width="0.15" stroke-linecap="round"></path><path d="M239.26478,178.96661l0.12191,-0.08877" data-paper-data="{&quot;index&quot;:null}" fill="none" stroke="#674100" stroke-width="0.15" stroke-linecap="round"></path><path d="M240.68568,178.81509l0.00265,0.99938l-0.33663,0.00089l-0.00265,-0.99938z" data-paper-data="{&quot;index&quot;:null}" fill="#ce9d52" stroke="none" stroke-width="0.15" stroke-linecap="butt"></path><path d="M240.43881,178.94199c-0.15977,0.00042 -0.28946,-0.06282 -0.28967,-0.14125c-0.00021,-0.07844 0.12913,-0.14235 0.28891,-0.14278c0.15977,-0.00042 0.28947,0.06281 0.28968,0.14124c0.00021,0.07844 -0.12914,0.14236 -0.28892,0.14279z" data-paper-data="{&quot;index&quot;:null}" fill="#ce9d52" stroke="none" stroke-width="0.15" stroke-linecap="butt"></path><path d="M240.12997,178.6159c0,0 0.00406,0.00948 0.00908,0.02121c0.00373,0.00874 0.00801,0.01872 0.01154,0.02698c0.01253,0.02929 0.04723,0.11043 0.04723,0.11043l-0.06577,0.02813l-0.089,-0.20064z" data-paper-data="{&quot;index&quot;:null}" fill="#e5e5e5" stroke="none" stroke-width="0.15" stroke-linecap="butt"></path><path d="M240.20801,178.53514c0,0 0.00748,0.0071 0.01673,0.01589c0.0069,0.00654 0.01476,0.01403 0.02127,0.0202c0.0231,0.02194 0.0871,0.08271 0.0871,0.08271l-0.04926,0.05187l-0.16116,-0.14901z" data-paper-data="{&quot;index&quot;:null}" fill="#e5e5e5" stroke="none" stroke-width="0.15" stroke-linecap="butt"></path><path d="M240.39455,178.4745c0,0 0.00259,0.00998 0.00579,0.02233c0.00237,0.0092 0.0051,0.01971 0.00736,0.0284c0.00798,0.03084 0.03012,0.11627 0.03012,0.11627l-0.06924,0.01793l-0.05787,-0.21173z" data-paper-data="{&quot;index&quot;:null}" fill="#e5e5e5" stroke="none" stroke-width="0.15" stroke-linecap="butt"></path><path d="M240.56774,178.4982c0,0 -0.00171,0.01016 -0.00383,0.02275c-0.00158,0.00937 -0.00338,0.02008 -0.00487,0.02893c-0.00529,0.03141 -0.01995,0.11844 -0.01995,0.11844l-0.07053,-0.01188l0.03356,-0.21692z" data-paper-data="{&quot;index&quot;:null}" fill="#e5e5e5" stroke="none" stroke-width="0.15" stroke-linecap="butt"></path><path d="M240.74314,178.56433c0,0 -0.005,0.00901 -0.01119,0.02018c-0.00461,0.00831 -0.00988,0.01781 -0.01423,0.02566c-0.01545,0.02786 -0.05825,0.10504 -0.05825,0.10504l-0.06256,-0.03468l0.10389,-0.19336z" data-paper-data="{&quot;index&quot;:null}" fill="#e5e5e5" stroke="none" stroke-width="0.15" stroke-linecap="butt"></path><path d="M240.43514,178.8456c-0.04071,0.00011 -0.07375,-0.01866 -0.07381,-0.04192c-0.00006,-0.02326 0.03289,-0.04221 0.07359,-0.04232c0.04071,-0.00011 0.07376,0.01865 0.07382,0.04192c0.00006,0.02326 -0.0329,0.04221 -0.0736,0.04232z" data-paper-data="{&quot;index&quot;:null}" fill="#674100" stroke="#674100" stroke-width="0.15" stroke-linecap="butt"></path><path d="M240.29785,178.69012l0.07188,0.10511l-0.20221,-0.01631" data-paper-data="{&quot;index&quot;:null}" fill="none" stroke="#674100" stroke-width="0.15" stroke-linecap="round"></path><path d="M240.39883,178.65616l0.00873,0.1137" data-paper-data="{&quot;index&quot;:null}" fill="none" stroke="#674100" stroke-width="0.15" stroke-linecap="round"></path><path d="M240.44126,178.76977l0.07552,-0.11392" data-paper-data="{&quot;index&quot;:null}" fill="none" stroke="#674100" stroke-width="0.15" stroke-linecap="round"></path><path d="M240.4961,178.7991l0.12191,-0.08877" data-paper-data="{&quot;index&quot;:null}" fill="none" stroke="#674100" stroke-width="0.15" stroke-linecap="round"></path><path d="M241.86572,178.25109l0.00414,1.56023l-0.52555,0.0014l-0.00414,-1.56023z" data-paper-data="{&quot;index&quot;:null}" fill="#ce9d52" stroke="none" stroke-width="0.15" stroke-linecap="butt"></path><path d="M241.48027,178.44921c-0.24944,0.00066 -0.45191,-0.09807 -0.45224,-0.22052c-0.00033,-0.12246 0.20162,-0.22226 0.45106,-0.22292c0.24944,-0.00066 0.45191,0.09806 0.45224,0.22052c0.00033,0.12246 -0.20162,0.22226 -0.45106,0.22292z" data-paper-data="{&quot;index&quot;:null}" fill="#ce9d52" stroke="none" stroke-width="0.15" stroke-linecap="butt"></path><path d="M240.99812,177.9401c0,0 0.00632,0.01479 0.01416,0.03311c0.00584,0.01363 0.01251,0.02923 0.01802,0.04212c0.01956,0.04572 0.07376,0.1724 0.07376,0.1724l-0.10267,0.04392l-0.13896,-0.31324z" data-paper-data="{&quot;index&quot;:null}" fill="#e5e5e5" stroke="none" stroke-width="0.15" stroke-linecap="butt"></path><path d="M241.11995,177.81404c0,0 0.01166,0.01109 0.02612,0.02481c0.01076,0.01021 0.02306,0.02189 0.03322,0.03154c0.03607,0.03424 0.13597,0.12913 0.13597,0.12913l-0.07691,0.08097l-0.25161,-0.23265z" data-paper-data="{&quot;index&quot;:null}" fill="#e5e5e5" stroke="none" stroke-width="0.15" stroke-linecap="butt"></path><path d="M241.41117,177.71936c0,0 0.00404,0.01558 0.00904,0.03487c0.00372,0.01435 0.00797,0.03077 0.01149,0.04434c0.01247,0.04814 0.04703,0.18153 0.04703,0.18153l-0.10811,0.02801l-0.09035,-0.33055z" data-paper-data="{&quot;index&quot;:null}" fill="#e5e5e5" stroke="none" stroke-width="0.15" stroke-linecap="butt"></path><path d="M241.68155,177.75635c0,0 -0.00267,0.01587 -0.00598,0.03553c-0.00246,0.01463 -0.00529,0.03134 -0.00761,0.04517c-0.00826,0.04904 -0.03114,0.18491 -0.03114,0.18491l-0.11013,-0.01855l0.0524,-0.33866z" data-paper-data="{&quot;index&quot;:null}" fill="#e5e5e5" stroke="none" stroke-width="0.15" stroke-linecap="butt"></path><path d="M241.95538,177.85959c0,0 -0.00779,0.01408 -0.01746,0.03151c-0.0072,0.01298 -0.01542,0.0278 -0.02221,0.04006c-0.02411,0.04349 -0.09093,0.16399 -0.09093,0.16399l-0.09766,-0.05416l0.16219,-0.30187z" data-paper-data="{&quot;index&quot;:null}" fill="#e5e5e5" stroke="none" stroke-width="0.15" stroke-linecap="butt"></path><path d="M241.47455,178.29871c-0.06356,0.00017 -0.11516,-0.02913 -0.11525,-0.06544c-0.0001,-0.03632 0.05135,-0.06589 0.1149,-0.06606c0.06356,-0.00017 0.11515,0.02913 0.11524,0.06544c0.0001,0.03632 -0.05135,0.06589 -0.11489,0.06606z" data-paper-data="{&quot;index&quot;:null}" fill="#674100" stroke="#674100" stroke-width="0.15" stroke-linecap="butt"></path><path d="M241.26021,178.05598l0.11223,0.1641l-0.31571,-0.02546" data-paper-data="{&quot;index&quot;:null}" fill="none" stroke="#674100" stroke-width="0.15" stroke-linecap="round"></path><path d="M241.43151,178.18046l-0.01362,-0.17751" data-paper-data="{&quot;index&quot;:null}" fill="none" stroke="#674100" stroke-width="0.15" stroke-linecap="round"></path><path d="M241.60201,178.00246l-0.1179,0.17786" data-paper-data="{&quot;index&quot;:null}" fill="none" stroke="#674100" stroke-width="0.15" stroke-linecap="round"></path><path d="M241.56972,178.22613l0.19033,-0.1386" data-paper-data="{&quot;index&quot;:null}" fill="none" stroke="#674100" stroke-width="0.15" stroke-linecap="round"></path><path d="M238.72856,178.16089l0.00414,1.56023l-0.52555,0.0014l-0.00414,-1.56023z" data-paper-data="{&quot;index&quot;:null}" fill="#ce9d52" stroke="none" stroke-width="0.15" stroke-linecap="butt"></path><path d="M243.36163,180.55577c0,0 0.08212,0.17816 0.08212,0.24635c0,0.06273 -0.08212,0.14781 -0.08212,0.14781c0,0 -0.1515,0.30836 -0.23752,0.25978c-0.07285,-0.04114 -0.07553,-0.44044 -0.14023,-0.44044c-0.19955,0 -0.70621,0.18066 -0.70621,0.18066v-0.39417z" data-paper-data="{&quot;index&quot;:null}" fill="#dfaf90" stroke="none" stroke-width="0.15" stroke-linecap="butt"></path><path d="M239.68836,181.91263c-1.19703,-0.09889 -2.12056,-0.74622 -2.06276,-1.44586c0.0578,-0.69964 1.07504,-1.18664 2.27208,-1.08775c0.60291,0.04981 1.56338,-0.10462 1.93708,0.16005c0.36826,0.26082 0.75656,0.9933 0.72788,1.34055c-0.02094,0.25352 -0.64606,0.85313 -0.88187,1.03305c-0.41495,0.31661 -1.22912,0.063 -1.9924,-0.00006z" data-paper-data="{&quot;index&quot;:null}" fill="url(#color-2)" stroke="none" stroke-width="0.15" stroke-linecap="butt"></path><path d="M238.59842,180.44492c0.01688,-0.20428 0.48776,-0.33211 1.05175,-0.28552c0.56399,0.04659 1.00751,0.24997 0.99063,0.45425c-0.01688,0.20428 -0.48776,0.33211 -1.05175,0.28552c-0.56399,-0.04659 -1.00751,-0.24997 -0.99063,-0.45425z" data-paper-data="{&quot;index&quot;:null}" fill="#c8a582" stroke="none" stroke-width="0.15" stroke-linecap="butt"></path><path d="M237.52341,182.00083c-0.59759,-0.12028 -0.98881,-0.68099 -0.87381,-1.25237c0.11501,-0.57138 0.69269,-0.93707 1.29028,-0.81679c0.59759,0.12028 0.9888,0.68099 0.8738,1.25237c-0.11501,0.57138 -0.69269,0.93707 -1.29028,0.81679z" fill="#b8814a" stroke="none" stroke-width="0.15" stroke-linecap="butt"></path><path d="M237.28146,181.81015l-0.20245,0.33015c0,0 -0.33442,0.10061 -0.42471,0.04524c-0.08341,-0.05114 -0.09803,-0.36579 -0.09803,-0.36579l0.20245,-0.33014z" fill="#b8814a" stroke="none" stroke-width="0.15" stroke-linecap="butt"></path><path d="M238.61007,181.68892l0.18625,0.33955c0,0 -0.07852,0.34029 -0.17137,0.39122c-0.08578,0.04706 -0.36624,-0.09632 -0.36624,-0.09632l-0.18625,-0.33954z" fill="#b8814a" stroke="none" stroke-width="0.15" stroke-linecap="butt"></path><path d="M238.52478,181.77052l0.12098,0.22054c0,0 -0.051,0.22103 -0.11131,0.25412c-0.05572,0.03056 -0.23789,-0.06256 -0.23789,-0.06256l-0.12098,-0.22055z" fill="#c8a582" stroke="none" stroke-width="0.15" stroke-linecap="butt"></path><path d="M237.15386,181.79443l-0.09996,0.23084c0,0 -0.20584,0.0953 -0.26897,0.06797c-0.05832,-0.02526 -0.09653,-0.22625 -0.09653,-0.22625l0.09996,-0.23084z" fill="#c8a582" stroke="none" stroke-width="0.15" stroke-linecap="butt"></path><path d="M237.05581,181.38255c-0.01165,-0.00234 -0.01919,-0.0137 -0.01685,-0.02534c0.00234,-0.01165 0.0137,-0.01919 0.02534,-0.01684c0.01165,0.00234 0.01919,0.01369 0.01684,0.02533c-0.00234,0.01165 -0.01369,0.01919 -0.02534,0.01685z" fill="#ffffff" stroke="none" stroke-width="0.15" stroke-linecap="butt"></path><path d="M237.14449,181.3053c-0.01165,-0.00234 -0.01919,-0.0137 -0.01684,-0.02534c0.00234,-0.01165 0.01369,-0.01919 0.02534,-0.01684c0.01165,0.00234 0.01919,0.01369 0.01685,0.02534c-0.00234,0.01165 -0.0137,0.01919 -0.02534,0.01685z" fill="#ffffff" stroke="none" stroke-width="0.15" stroke-linecap="butt"></path><path d="M237.26966,181.31951c-0.01165,-0.00234 -0.01919,-0.01369 -0.01685,-0.02534c0.00234,-0.01165 0.01369,-0.01919 0.02534,-0.01685c0.01165,0.00234 0.01919,0.0137 0.01685,0.02534c-0.00234,0.01165 -0.0137,0.01919 -0.02534,0.01685z" fill="#ffffff" stroke="none" stroke-width="0.15" stroke-linecap="butt"></path><path d="M237.74568,180.95716l-0.03821,0.18984c0,0 -0.07758,0.05621 -0.11374,0.04893c-0.03616,-0.00728 -0.10321,-0.0926 -0.10321,-0.0926l0.03821,-0.18983z" fill="#000000" stroke="none" stroke-width="0.15" stroke-linecap="butt"></path><path d="M237.58583,180.66386c0.06265,0.04952 0.09073,0.13687 0.06387,0.22019c-0.03419,0.10603 -0.1444,0.16537 -0.24619,0.13256c-0.02404,-0.00775 -0.04546,-0.01994 -0.0637,-0.03545" data-paper-data="{&quot;index&quot;:null}" fill="none" stroke="#000000" stroke-width="0.15" stroke-linecap="butt"></path><path d="M238.03456,180.89743c-0.01082,0.02135 -0.02585,0.04088 -0.04502,0.05733c-0.08116,0.06964 -0.20576,0.05755 -0.2783,-0.02699c-0.057,-0.06643 -0.0649,-0.15784 -0.02628,-0.22774" data-paper-data="{&quot;index&quot;:null}" fill="none" stroke="#000000" stroke-width="0.15" stroke-linecap="butt"></path><path d="M238.34313,178.35899c-0.24944,0.00066 -0.45191,-0.09807 -0.45224,-0.22052c-0.00033,-0.12246 0.20162,-0.22226 0.45106,-0.22292c0.24944,-0.00066 0.4519,0.09806 0.45223,0.22052c0.00033,0.12246 -0.20161,0.22226 -0.45105,0.22292z" data-paper-data="{&quot;index&quot;:null}" fill="#ce9d52" stroke="none" stroke-width="0.15" stroke-linecap="butt"></path><path d="M237.86096,177.84989c0,0 0.00633,0.01479 0.01417,0.03311c0.00584,0.01363 0.01251,0.02923 0.01802,0.04211c0.01956,0.04572 0.07376,0.17241 0.07376,0.17241l-0.10267,0.04392l-0.13896,-0.31324z" data-paper-data="{&quot;index&quot;:null}" fill="#e5e5e5" stroke="none" stroke-width="0.15" stroke-linecap="butt"></path><path d="M237.9828,177.72384c0,0 0.01167,0.01108 0.02613,0.0248c0.01076,0.01021 0.02305,0.02189 0.03321,0.03154c0.03607,0.03424 0.13598,0.12913 0.13598,0.12913l-0.07691,0.08098l-0.2516,-0.23265z" data-paper-data="{&quot;index&quot;:null}" fill="#e5e5e5" stroke="none" stroke-width="0.15" stroke-linecap="butt"></path><path d="M238.27402,177.62915c0,0 0.00404,0.01558 0.00903,0.03487c0.00372,0.01435 0.00797,0.03077 0.01149,0.04434c0.01247,0.04814 0.04703,0.18153 0.04703,0.18153l-0.10812,0.02801l-0.09035,-0.33056z" data-paper-data="{&quot;index&quot;:null}" fill="#e5e5e5" stroke="none" stroke-width="0.15" stroke-linecap="butt"></path><path d="M238.54441,177.66614c0,0 -0.00268,0.01587 -0.00599,0.03553c-0.00246,0.01463 -0.00528,0.03134 -0.0076,0.04517c-0.00826,0.04904 -0.03114,0.18491 -0.03114,0.18491l-0.11013,-0.01855l0.05241,-0.33865z" data-paper-data="{&quot;index&quot;:null}" fill="#e5e5e5" stroke="none" stroke-width="0.15" stroke-linecap="butt"></path><path d="M238.81824,177.76938c0,0 -0.0078,0.01408 -0.01747,0.03151c-0.0072,0.01298 -0.01542,0.0278 -0.02221,0.04006c-0.02411,0.04349 -0.09093,0.16399 -0.09093,0.16399l-0.09766,-0.05416l0.16219,-0.30187z" data-paper-data="{&quot;index&quot;:null}" fill="#e5e5e5" stroke="none" stroke-width="0.15" stroke-linecap="butt"></path><path d="M238.33741,178.20851c-0.06356,0.00017 -0.11516,-0.02913 -0.11525,-0.06545c-0.0001,-0.03632 0.05135,-0.06589 0.1149,-0.06606c0.06356,-0.00017 0.11515,0.02913 0.11524,0.06544c0.0001,0.03632 -0.05134,0.0659 -0.11489,0.06607z" data-paper-data="{&quot;index&quot;:null}" fill="#674100" stroke="#674100" stroke-width="0.15" stroke-linecap="butt"></path><path d="M238.12306,177.96578l0.11223,0.16409l-0.31571,-0.02546" data-paper-data="{&quot;index&quot;:null}" fill="none" stroke="#674100" stroke-width="0.15" stroke-linecap="round"></path><path d="M238.28074,177.91275l0.01362,0.1775" data-paper-data="{&quot;index&quot;:null}" fill="none" stroke="#674100" stroke-width="0.15" stroke-linecap="round"></path><path d="M238.46486,177.91227l-0.11789,0.17785" data-paper-data="{&quot;index&quot;:null}" fill="none" stroke="#674100" stroke-width="0.15" stroke-linecap="round"></path><path d="M238.62289,177.99733l-0.19032,0.1386" data-paper-data="{&quot;index&quot;:null}" fill="none" stroke="#674100" stroke-width="0.15" stroke-linecap="round"></path><path d="M237.31946,181.41667l-0.30556,-0.08333" fill="none" stroke="#000000" stroke-width="0.15" stroke-linecap="round"></path><path d="M237.65279,181.44445l0.38889,0.02778" fill="none" stroke="#000000" stroke-width="0.15" stroke-linecap="round"></path></g></g></svg>