<svg version="1.1" xmlns="http://www.w3.org/2000/svg" xmlns:xlink="http://www.w3.org/1999/xlink" width="86.02545" height="29.5683" viewBox="0,0,86.02545,29.5683"><g transform="translate(-0.54152,-303.47164)"><g data-paper-data="{&quot;isPaintingLayer&quot;:true}" fill-rule="nonzero" stroke-linejoin="miter" stroke-miterlimit="10" stroke-dasharray="" stroke-dashoffset="0" style="mix-blend-mode: normal"><path d="M1.54155,327.81219c0,-5.7282 0,-15.6151 0,-18.88251c0,-2.06504 2.64868,-4.45804 5.59019,-4.45804c9.05187,0 56.16822,0 72.69727,0c3.5907,0 5.73796,1.65955 5.73796,4.11262c0,5.78032 0,15.96659 0,19.22792c0,1.97707 -2.20643,4.22776 -5.88573,4.22776c-16.62081,0 -63.2977,0 -72.40176,0c-3.01033,0 -5.73796,-1.71318 -5.73796,-4.22776z" fill-opacity="0.62097" fill="#291800" stroke="#fff4ce" stroke-width="2" stroke-linecap="butt"></path><text transform="translate(3.46079,323.33403) scale(0.38823,0.38823)" font-size="40" xml:space="preserve" fill="#00ffe6" fill-rule="nonzero" stroke="none" stroke-width="1" stroke-linecap="butt" stroke-linejoin="miter" stroke-miterlimit="10" stroke-dasharray="" stroke-dashoffset="0" font-family="Malgun Gothic" font-weight="normal" text-anchor="start" style="mix-blend-mode: normal"><tspan x="0" dy="0">Tutorial</tspan></text><path d="M73.17185,327.58865v-0.6975h5.25446v0.6975c0,0 -1.54615,1.53449 -2.41799,1.53449c-0.87958,0 -2.83648,-1.53449 -2.83648,-1.53449z" fill="#ffffff" stroke="none" stroke-width="0" stroke-linecap="butt"></path><path d="M76.70581,327.44915v-14.55441h1.67399v14.55441z" fill="#ffffff" stroke="none" stroke-width="0" stroke-linecap="butt"></path><path d="M72.84635,327.35614v-16.41439h3.76648v16.41439z" fill="#ffffff" stroke="none" stroke-width="0" stroke-linecap="butt"></path><path d="M56.94439,328.01372v-19.22971h15.9015v19.22972z" fill="#ffffff" stroke="#000000" stroke-width="0.5" stroke-linecap="butt"></path><path d="M58.08888,324.62845v-5.54703h5.17724v5.54703z" fill="#717171" stroke="none" stroke-width="0" stroke-linecap="butt"></path><path d="M59.44483,313.28783l11.7104,0.49307" fill="none" stroke="#000000" stroke-width="0.5" stroke-linecap="round"></path><path d="M70.78543,320.19082l-5.6703,-0.12327" fill="none" stroke="#000000" stroke-width="0.5" stroke-linecap="round"></path><path d="M71.89483,323.64231l-6.90297,-0.12326" fill="none" stroke="#000000" stroke-width="0.5" stroke-linecap="round"></path><path d="M58.58195,325.61458l12.94308,0.24653" fill="none" stroke="#000000" stroke-width="0.5" stroke-linecap="round"></path><path d="M69.55275,317.972l-10.23119,-0.12327" fill="none" stroke="#000000" stroke-width="0.5" stroke-linecap="round"></path><text transform="translate(61.17057,312.20741) scale(0.06487,0.06487)" font-size="40" xml:space="preserve" fill="#000000" fill-rule="nonzero" stroke="none" stroke-width="1" stroke-linecap="butt" stroke-linejoin="miter" stroke-miterlimit="10" stroke-dasharray="" stroke-dashoffset="0" font-family="Sans Serif" font-weight="normal" text-anchor="start" style="mix-blend-mode: normal"><tspan x="0" dy="0">Tutorial</tspan></text><path d="M76.92773,312.80683l1.72574,-0.12327l0.1954,14.18228c-0.26112,1.25908 -1.49105,2.21229 -2.96891,2.21229c-1.64674,0 -2.98566,-1.1835 -3.0194,-2.65495" fill="none" stroke="#000000" stroke-width="0.5" stroke-linecap="round"></path><path d="M73.05533,311.13219l3.57475,-0.24654v15.65496" fill="none" stroke="#000000" stroke-width="0.5" stroke-linecap="round"></path></g></g></svg>