<svg version="1.1" xmlns="http://www.w3.org/2000/svg" xmlns:xlink="http://www.w3.org/1999/xlink" width="48.21427" height="143" viewBox="0,0,48.21427,143"><defs><radialGradient cx="236.85362" cy="180" r="72.17904" gradientUnits="userSpaceOnUse" id="color-1"><stop offset="0" stop-color="#ff0000"></stop><stop offset="1" stop-color="#ff0000" stop-opacity="0"></stop></radialGradient><linearGradient x1="235.67576" y1="148.21509" x2="235.67576" y2="151.45481" gradientUnits="userSpaceOnUse" id="color-2"><stop offset="0" stop-color="#ad5400"></stop><stop offset="1" stop-color="#d07b00"></stop></linearGradient><linearGradient x1="236.18662" y1="194.29288" x2="236.18662" y2="206.42828" gradientUnits="userSpaceOnUse" id="color-3"><stop offset="0" stop-color="#8e6c39"></stop><stop offset="1" stop-color="#cc9752"></stop></linearGradient><linearGradient x1="247.56744" y1="182.16715" x2="263.49224" y2="179.03415" gradientUnits="userSpaceOnUse" id="color-4"><stop offset="0" stop-color="#000000"></stop><stop offset="1" stop-color="#777777"></stop></linearGradient><linearGradient x1="247.24207" y1="180.35723" x2="263.16688" y2="177.22423" gradientUnits="userSpaceOnUse" id="color-5"><stop offset="0" stop-color="#000000"></stop><stop offset="1" stop-color="#777777"></stop></linearGradient></defs><g transform="translate(-215.87896,-108.5)"><g data-paper-data="{&quot;isPaintingLayer&quot;:true}" fill-rule="nonzero" stroke-width="0.5" stroke-linejoin="miter" stroke-miterlimit="10" stroke-dasharray="" stroke-dashoffset="0" style="mix-blend-mode: normal"><g><path d="M257.5783,180c0,39.35029 -9.27875,71.25 -20.72467,71.25c-11.44592,0 -20.72467,-31.89971 -20.72467,-71.25c0,-39.35029 9.27875,-71.25 20.72467,-71.25c11.44592,0 20.72467,31.89971 20.72467,71.25z" fill="url(#color-1)" stroke-opacity="0.69355" stroke="#ff0000" stroke-linecap="butt"></path><path d="M243.85713,158.56068c0,4.42049 -3.45553,8.00401 -7.71815,8.00401c-4.26262,0 -7.71815,-3.58352 -7.71815,-8.00401c0,-4.42049 3.45553,-8.00401 7.71815,-8.00401c4.26262,0 7.71815,3.58352 7.71815,8.00401z" fill="#fff3c0" stroke="#000000" stroke-linecap="butt"></path><path d="M232.35137,156.63114c0,-0.15787 0.12798,-0.28586 0.28586,-0.28586c0.15787,0 0.28586,0.12798 0.28586,0.28586c0,0.15787 -0.12798,0.28586 -0.28586,0.28586c-0.15787,0 -0.28586,-0.12798 -0.28586,-0.28586z" fill="#000000" stroke="none" stroke-linecap="butt"></path><path d="M238.78316,156.917c0,-0.15787 0.12798,-0.28586 0.28586,-0.28586c0.15787,0 0.28586,0.12798 0.28586,0.28586c0,0.15787 -0.12798,0.28586 -0.28586,0.28586c-0.15787,0 -0.28586,-0.12798 -0.28586,-0.28586z" fill="#000000" stroke="none" stroke-linecap="butt"></path><path d="M229.20693,194.50727v-29.72919h13.86409v29.72919z" fill="#267520" stroke="none" stroke-linecap="butt"></path><path d="M231.91197,161.6504l1.90572,0.667" fill="none" stroke="#000000" stroke-linecap="round"></path><path d="M230.76854,152.97939l2.38215,-2.09629c0,0 2.14442,-0.47643 3.14443,-0.47643c1.03176,0 2.95386,0.47643 2.95386,0.47643l2.668,2.47743z" fill="#000000" stroke="none" stroke-linecap="butt"></path><path d="M242.29813,149.83495c0,0.89462 -2.96493,1.61986 -6.62237,1.61986c-3.65743,0 -6.62237,-0.72523 -6.62237,-1.61986c0,-0.89462 2.96493,-1.61986 6.62237,-1.61986c3.65743,0 6.62237,0.72523 6.62237,1.61986z" fill="url(#color-2)" stroke="none" stroke-linecap="butt"></path><path d="M230.10154,149.35853v-5.24072c0,0 1.78872,-0.68981 3.4989,-0.46451c0.78417,0.10331 1.45655,-1.82235 2.02768,-1.82235c0.69291,0 1.99861,2.18506 2.89296,2.05585c1.55292,-0.22434 2.72891,0.23101 2.72891,0.23101v5.24072z" fill="#ad5400" stroke="none" stroke-linecap="butt"></path><path d="M243.18814,192.45701c0,0 -0.65231,-0.31162 -0.9338,-0.70406c-1.43595,-2.00189 -13.42727,-19.03542 -13.42727,-19.03542l0.69153,-4.74575l13.5035,17.02383z" fill="#bd8a33" stroke="none" stroke-linecap="butt"></path><path d="M236.21044,169.85206l-3.85908,-5.28837h7.28937z" fill="#ffffff" stroke="none" stroke-linecap="butt"></path><path d="M239.29287,171.04599l-1.15289,-0.69174l1.15289,-0.5995l0.92231,-1.61405l1.199,1.61405l1.19901,0.55339l-1.19901,0.73785l0.631,1.37271c0,0 -0.9501,-0.87392 -1.57994,-0.94203c-0.55329,-0.05984 -1.21849,0.90667 -1.21849,0.90667z" fill="#ffd300" stroke="none" stroke-linecap="butt"></path><path d="M229.42133,214.63641v-9.71916h4.00201v9.71916z" fill="#fff3c0" stroke="none" stroke-linecap="butt"></path><path d="M234.71915,148.0821l-1.15289,-0.69173l1.15289,-0.5995l0.92231,-1.61405l1.199,1.61405l1.19901,0.55339l-1.19901,0.73785l0.631,1.37271c0,0 -0.9501,-0.87391 -1.57994,-0.94202c-0.55329,-0.05984 -1.21849,0.90667 -1.21849,0.90667z" fill="#ffd300" stroke="none" stroke-linecap="butt"></path><path d="M239.52163,215.11284v-9.71916h4.00201v9.71916z" fill="#fff3c0" stroke="none" stroke-linecap="butt"></path><path d="M229.85011,185.00251v-3.43029h2.57272v3.43029c0,0 -0.89757,0.76228 -1.334,0.76228c-0.42055,0 -1.23872,-0.76228 -1.23872,-0.76228z" fill="#2f9428" stroke="none" stroke-linecap="butt"></path><path d="M232.13697,181.57221l-2.28686,0.09529" fill="none" stroke="#000000" stroke-linecap="round"></path><path d="M228.99254,205.75207v-11.45919h14.38816v11.45919c0,0 -2.37555,1.61206 -4.51747,-0.14191c-3.18556,-2.60858 -6.20079,-8.96419 -2.91483,-9.26211c3.84064,-0.3482 0.63648,6.13523 -2.63494,8.98439c-2.06091,1.79489 -4.32093,0.41962 -4.32093,0.41962z" fill="url(#color-3)" stroke="none" stroke-linecap="butt"></path><path d="M226.7295,216.69697v-2.76329c0,0 1.96903,0.67893 3.34101,0.02048c1.07256,-0.51475 1.52087,-2.40262 2.09029,-2.40262c0.78981,0 1.61986,2.38215 1.61986,2.38215v2.76329z" fill="#b3864a" stroke="none" stroke-linecap="butt"></path><path d="M236.06751,194.01893l-0.19057,8.28987" fill="none" stroke="#000000" stroke-linecap="round"></path><path d="M235.30523,195.35294l1.52457,-0.09529" fill="none" stroke="#000000" stroke-linecap="round"></path><path d="M235.20994,196.59165l1.90572,-0.09528" fill="none" stroke="#000000" stroke-linecap="round"></path><path d="M235.11466,198.02094l2.09629,-0.28586" fill="none" stroke="#000000" stroke-linecap="round"></path><path d="M236.8298,199.35494l-2.09629,0.28586" fill="none" stroke="#000000" stroke-linecap="round"></path><path d="M234.54294,201.6418l2.19158,-0.667" fill="none" stroke="#000000" stroke-linecap="round"></path><path d="M238.73552,217.26868v-3.81143c0,0 0.66132,0.33986 1.22938,-0.36908c0.44837,-0.55958 0.76679,-2.20364 1.15277,-2.20364c0.35771,0 0.88243,1.67279 1.40584,2.10448c0.91895,0.75793 1.83388,0.46824 1.83388,0.46824v3.81143z" fill="#b3864a" stroke="none" stroke-linecap="butt"></path><path d="M238.83081,218.5074v-3.81143c0,0 0.66132,0.33986 1.22938,-0.36908c0.44837,-0.55958 0.76679,-2.20364 1.15277,-2.20364c0.35771,0 0.88243,1.67279 1.40584,2.10448c0.91895,0.75793 1.83388,0.46824 1.83388,0.46824v3.81143z" fill="#b3864a" stroke="none" stroke-linecap="butt"></path><path d="M239.02138,219.46026v-3.81144c0,0 0.66132,0.33986 1.22938,-0.36908c0.44837,-0.55958 0.76679,-2.20364 1.15277,-2.20364c0.35771,0 0.88243,1.67279 1.40584,2.10448c0.91895,0.75793 1.83388,0.46824 1.83388,0.46824v3.81144z" fill="#b3864a" stroke="none" stroke-linecap="butt"></path><path d="M239.40252,220.5084l-0.69423,-3.92033c0,0 2.25717,-0.03894 2.97238,0.08297c0.23629,0.04028 2.51337,0.65209 2.51337,0.65209c0,0 0.1179,-0.11454 0.11473,0.2573c-0.00502,0.58766 -0.14195,2.92797 -0.14195,2.92797c0,0 -1.36836,1.81043 -2.19158,1.81043c-0.75979,0 -2.57272,-1.81043 -2.57272,-1.81043z" fill="#b3864a" stroke="none" stroke-linecap="butt"></path><path d="M244.62963,219.02467c0,0 -0.47186,1.52549 -0.85705,2.09434c-0.34409,0.50816 -1.71226,1.11645 -1.71226,1.11645c0,0 -0.24308,0.08826 -0.57212,-0.08505c-0.53259,-0.28053 -1.29037,-0.91558 -1.60696,-1.24856c-0.37717,-0.39669 -0.81902,-1.76829 -0.81902,-1.76829l2.4366,-2.62717l3.13082,2.51827z" fill="#9d4c00" stroke="#000000" stroke-linecap="round"></path><path d="M223.15807,191.01521l2.28911,-12.94867l4.92612,0.87086l-2.28911,12.94867z" fill="#fff3c0" stroke="#000000" stroke-linecap="butt"></path><path d="M225.45662,180.7809l-1.92542,-8.94251c0,0 5.16639,-4.77258 5.33773,-4.81248c0.83669,-0.19488 0.41028,3.47366 0.41028,3.47366l1.06785,9.22837z" fill="#267520" stroke="#000000" stroke-linecap="butt"></path><g stroke="#000000" stroke-linecap="butt"><path d="M237.87335,179.54746l4.82968,1.30355l-2.7735,10.27591c-0.50155,-0.00021 -1.03588,0.00785 -1.65333,0.0013c-0.91981,-0.00976 -2.18194,-0.76118 -3.07552,-0.98457c-0.05953,-0.01488 -0.11804,-0.0293 -0.17561,-0.04326z" fill="#fff3c0"></path><path d="M237.76162,179.96143l2.38363,-8.83142c0,0 -0.94571,-2.45802 -0.16784,-2.24807c0.82879,0.22369 4.99752,3.55161 4.99752,3.55161l-2.38363,8.83142z" fill="#267520"></path></g><path d="M226.66484,216.64081v-2.85858c0,0 1.17761,0.40837 1.79682,0.40837c0.60559,0 1.87849,-0.40837 1.87849,-0.40837c0,0 0.73506,1.08273 0.73506,1.59264c0,0.42884 -0.73506,1.26594 -0.73506,1.26594z" fill="#9d4c00" stroke="#000000" stroke-linecap="butt"></path><g data-paper-data="{&quot;index&quot;:null}"><path d="M220.67659,191.96999c0,0 2.30662,-3.5601 3.42388,-4.92599c1.14484,-1.39962 3.36442,-3.37298 3.36442,-3.37298l2.57298,3.35859c0,0 -1.51649,1.4049 -2.57218,2.34299c-1.12669,1.00118 -2.23566,4.42558 -2.23566,4.42558c0,0 -1.32643,-0.38379 -1.63043,-0.48038c-0.51399,-0.16332 -2.923,-1.34782 -2.923,-1.34782z" fill="#eaad81" stroke="none" stroke-linecap="butt"></path><path d="M227.97214,187.20789l-0.70222,-3.56935c0,0 3.01755,0.6897 4.49884,0.39828c1.61831,-0.31838 4.83639,-2.23486 4.83639,-2.23486l0.70222,3.56935c0,0 -1.75013,-1.10119 -2.80384,-0.26718c-0.63171,0.5 -0.79881,2.11673 -1.37314,2.22972c-0.74608,0.14678 -1.46349,-0.19018 -2.59159,-0.47236c-1.25801,-0.31468 -2.56666,0.34641 -2.56666,0.34641z" fill="#eaad81" stroke="none" stroke-linecap="butt"></path><path d="M237.17009,185.39831c0.11933,0.60656 -0.55223,1.24941 -1.49997,1.43587c-0.94774,0.18646 -1.81277,-0.1541 -1.93211,-0.76066c-0.11933,-0.60656 0.55223,-1.24941 1.49997,-1.43587c0.94774,-0.18646 1.81277,0.1541 1.93211,0.76066z" fill="none" stroke="#000000" stroke-linecap="butt"></path><path d="M236.84375,184.46434l-0.43214,-2.19653c0,0 1.55173,-1.87384 3.27226,-2.21233c1.53672,-0.30233 5.52899,-0.51882 6.97003,-0.41941c0.32225,0.02223 0.60305,0.49806 0.60305,0.49806l0.59684,2.54707z" fill="#000000" stroke="#000000" stroke-linecap="butt"></path><path d="M235.79727,185.66839l-1.4831,0.43437l0.38932,-1.64515" fill="none" stroke="#000000" stroke-linecap="round"></path><path d="M224.77155,194.35225l-3.9805,-2.33965l0.99258,-1.6887l3.9805,2.33965z" fill="#000000" stroke="none" stroke-linecap="butt"></path><path d="M243.34958,180.54636c0.05221,0.26537 -0.64303,0.6256 -1.55286,0.80459c-0.90983,0.179 -1.68972,0.10898 -1.74192,-0.15638c-0.05221,-0.26537 0.64303,-0.6256 1.55286,-0.80459c0.90983,-0.179 1.68972,-0.10898 1.74192,0.15638z" fill="#d4d4d4" stroke="none" stroke-linecap="butt"></path><path d="M247.68435,182.7614l-0.23382,-1.18849l15.9248,-3.133l0.23382,1.18849z" fill="url(#color-4)" stroke="#000000" stroke-linecap="butt"></path><path d="M247.34085,180.85931l-0.19755,-1.00415l15.9248,-3.133l0.19755,1.00415z" fill="url(#color-5)" stroke="#000000" stroke-linecap="butt"></path><path d="M253.07036,181.94532c0,0 -0.75399,-0.42609 -0.80839,-0.7026c-0.0544,-0.27651 0.48199,-0.95646 0.48199,-0.95646l6.17538,-1.21493c0,0 0.72505,0.27899 0.77212,0.51825c0.05901,0.29993 -0.44572,1.1408 -0.44572,1.1408z" fill="#a78100" stroke="#000000" stroke-linecap="butt"></path><path d="M262.50034,176.83502l-1.52912,0.01362l0.32029,-2.26497" fill="none" stroke="#000000" stroke-linecap="round"></path><path d="M261.1223,175.67008l0.55152,0.37018" fill="none" stroke="#000000" stroke-linecap="round"></path><path d="M263.47644,176.9302c0.0701,0.35633 0.00313,0.66954 -0.14958,0.69959c-0.15271,0.03004 -0.33334,-0.23446 -0.40344,-0.59079c-0.0701,-0.35633 -0.00313,-0.66954 0.14958,-0.69959c0.15271,-0.03004 0.33334,0.23446 0.40344,0.59079z" fill="#000000" stroke="#000000" stroke-linecap="butt"></path><path d="M263.84323,179.17636c0.0701,0.35633 0.00314,0.66955 -0.14958,0.69959c-0.15271,0.03004 -0.33334,-0.23446 -0.40344,-0.59079c-0.0701,-0.35633 -0.00313,-0.66955 0.14958,-0.69959c0.15271,-0.03004 0.33334,0.23446 0.40344,0.59079z" fill="#000000" stroke="#000000" stroke-linecap="butt"></path></g><path d="M224.09015,194.45964l-1.4234,-3.58698l8.36961,-3.32127l1.4234,3.58698z" fill="#fff3c0" stroke="#000000" stroke-linecap="butt"></path></g></g></g></svg>