<svg version="1.1" xmlns="http://www.w3.org/2000/svg" xmlns:xlink="http://www.w3.org/1999/xlink" width="28.19212" height="35.46391" viewBox="0,0,28.19212,35.46391"><g transform="translate(-225.90394,-165.96585)"><g data-paper-data="{&quot;isPaintingLayer&quot;:true}" fill-rule="nonzero" stroke-linecap="butt" stroke-linejoin="miter" stroke-miterlimit="10" stroke-dasharray="" stroke-dashoffset="0" style="mix-blend-mode: normal"><path d="M226.15395,189.5564c0,-5.7282 0,-15.6151 0,-18.88251c0,-2.06504 0.87292,-4.45804 1.84235,-4.45804c2.98321,0 18.51126,0 23.95871,0c1.18338,0 1.89105,1.65955 1.89105,4.11262c0,5.78032 0,15.96659 0,19.22792c0,1.97707 -0.72717,4.22776 -1.93975,4.22776c-5.47769,0 -20.86091,0 -23.86132,0c-0.99211,0 -1.89105,-1.71318 -1.89105,-4.22776z" fill-opacity="0.62097" fill="#291800" stroke="#fff4ce" stroke-width="0.5"></path><text transform="translate(229.41071,198.84916) scale(0.1564,0.1564)" font-size="40" xml:space="preserve" fill="#00e4ff" fill-rule="nonzero" stroke="none" stroke-width="1" stroke-linecap="butt" stroke-linejoin="miter" stroke-miterlimit="10" stroke-dasharray="" stroke-dashoffset="0" font-family="Curly" font-weight="normal" text-anchor="start" style="mix-blend-mode: normal"><tspan x="0" dy="0">To Jump</tspan></text><text transform="translate(238.11722,183.24618) rotate(-48.03974) scale(0.05847,0.05847)" font-size="40" xml:space="preserve" fill="#004275" fill-rule="nonzero" stroke="none" stroke-width="1" stroke-linecap="butt" stroke-linejoin="miter" stroke-miterlimit="10" stroke-dasharray="" stroke-dashoffset="0" font-family="Curly" font-weight="normal" text-anchor="start" style="mix-blend-mode: normal"><tspan x="0" dy="0">xAmt8</tspan></text><path d="M244.68777,191.72042l-5.22112,-6.84394l1.29836,-1.63301l5.22112,6.84394z" fill="#ffebb0" stroke="none" stroke-width="0"></path><path d="M246.03897,172.42367c-0.6656,1.70227 -2.61559,2.53073 -4.3554,1.85045c-1.73981,-0.68029 -2.61063,-2.61172 -1.94502,-4.31399c0.6656,-1.70227 2.61559,-2.53073 4.3554,-1.85045c1.73981,0.68029 2.61063,2.61172 1.94502,4.31399z" fill="#ffebb0" stroke="none" stroke-width="0"></path><path d="M246.0455,175.02195c0.18099,0.07077 -2.61432,2.41155 -2.87881,3.08796c-0.34289,0.87693 -0.35285,7.91687 -0.53384,7.8461c-1.26188,-0.4934 -4.71937,-1.84533 -5.98124,-2.33874c-0.18099,-0.07077 0.72858,-6.68882 1.04565,-7.4997c0.24381,-0.62354 1.44847,-3.4528 1.62945,-3.38203c1.26188,0.4934 5.45691,1.793 6.7188,2.28641z" fill="#ffebb0" stroke="none" stroke-width="1"></path><path d="M236.06803,169.97937l3.57711,9.04084l-2.33729,0.40191l-3.57711,-9.04084z" fill="#ffebb0" stroke="none" stroke-width="0"></path><path d="M249.75727,174.24074l-6.30834,7.39846l-1.45086,-1.87603l6.30834,-7.39846z" fill="#ffebb0" stroke="none" stroke-width="0"></path><path d="M235.93259,190.46736l1.05242,-7.30996l1.99897,1.24095l-1.88275,7.64073z" fill="#ffebb0" stroke="none" stroke-width="0"></path></g></g></svg>