<svg version="1.1" xmlns="http://www.w3.org/2000/svg" xmlns:xlink="http://www.w3.org/1999/xlink" width="40.09402" height="41.13596" viewBox="0,0,40.09402,41.13596"><g transform="translate(-219.95299,-159.43202)"><g data-paper-data="{&quot;isPaintingLayer&quot;:true}" fill-rule="nonzero" stroke-linejoin="miter" stroke-miterlimit="10" stroke-dasharray="" stroke-dashoffset="0" style="mix-blend-mode: normal"><text transform="translate(237.4235,184.44226) rotate(-48.04097) scale(0.08001,0.08001)" font-size="40" xml:space="preserve" fill="#004275" fill-rule="nonzero" stroke="none" stroke-width="1" stroke-linecap="butt" stroke-linejoin="miter" stroke-miterlimit="10" stroke-dasharray="" stroke-dashoffset="0" font-family="Curly" font-weight="normal" text-anchor="start" style="mix-blend-mode: normal"><tspan x="0" dy="0">xAmt8</tspan></text><path d="M259.79701,180c0,11.22131 -8.86342,20.31798 -19.79701,20.31798c-10.93359,0 -19.79701,-9.09667 -19.79701,-20.31798c0,-11.22131 8.86342,-20.31798 19.79701,-20.31798c10.93359,0 19.79701,9.09667 19.79701,20.31798z" fill-opacity="0.60484" fill="#000000" stroke="#ffe6c3" stroke-width="0.5" stroke-linecap="butt"></path><g stroke="none" stroke-linecap="butt"><path d="M228.97132,170.8587v-5.37254c0,0 2.91595,-3.71194 4.39572,-3.71194c1.65827,0 5.0795,3.71194 5.0795,3.71194v5.37254c0,0 -3.17059,4.78645 -4.68877,4.78645c-1.63199,0 -4.78645,-4.78645 -4.78645,-4.78645z" fill="#a24444" stroke-width="0.5"></path><text transform="translate(231.60875,171.34711) scale(0.19537,0.19537)" font-size="40" xml:space="preserve" fill="#ffffff" fill-rule="nonzero" stroke="none" stroke-width="1" stroke-linecap="butt" stroke-linejoin="miter" stroke-miterlimit="10" stroke-dasharray="" stroke-dashoffset="0" font-family="Pixel" font-weight="normal" text-anchor="start" style="mix-blend-mode: normal"><tspan x="0" dy="0">?</tspan></text><path d="M232.56755,192.28583l-0.21736,-0.34377c-0.21285,-0.51539 -0.33044,-1.03012 -0.50439,-1.55761c-0.77402,-1.41603 -1.06688,-3.04054 -1.307,-4.61539c-0.03443,-0.2258 -0.24562,-0.94536 -0.25831,-1.13881c-0.05995,-0.91351 0.3889,-1.93188 1.13193,-2.48807c0.60856,-0.45553 1.53781,-0.54102 2.23783,-0.83324c0,0 0.02757,-0.01149 0.07234,-0.02245c-0.00844,-0.08858 -0.01349,-0.17797 -0.01362,-0.26843c0.2686,-1.19354 0.13246,-2.34232 0.29733,-3.56334c0.08924,-0.66085 0.31551,-1.18773 0.29176,-1.86089c-0.0326,-0.92376 -0.05963,-1.94274 -0.20492,-2.84985c-0.05968,-0.3726 -0.22918,-0.72584 -0.25912,-1.102c-0.03871,-0.48648 -0.06467,-1.58755 0.22137,-1.99403c0.23095,-0.32819 0.85557,-0.4916 1.22039,-0.61445c1.7184,-0.68468 3.02801,0.26617 3.56562,1.94109c0.57825,1.80154 0.19891,3.78131 0.09281,5.65274c0.92761,-0.64853 2.35405,-0.56055 3.26395,0.24582c0.29022,0.25719 0.52166,0.7356 0.70755,1.07481c0,0 0.00152,0.00278 0.0041,0.00803c1.00862,-0.58246 2.50454,-0.2109 3.32553,0.58383c0.43417,0.42029 0.55808,1.03801 0.61347,1.64049c0.27789,-0.24225 0.65426,-0.41063 1.16347,-0.47437c0.21366,-0.02675 0.43127,-0.01759 0.64599,-0.0014c0.57974,0.0437 0.67881,0.1128 1.21966,0.29254c0.23062,0.12718 0.51405,0.18727 0.69186,0.38155c0.55025,0.60123 0.46404,1.87038 0.43803,2.62183c-0.04657,1.34536 -0.22188,2.74752 -0.12774,4.09198c0.12553,1.79276 0.26195,3.74818 -0.08841,5.52228c-0.07277,0.85921 -0.37281,2.38663 -0.99022,3.04558c-0.26943,0.28755 -0.7158,0.34619 -1.02184,0.59441c-0.33715,0.27346 -0.6278,0.63123 -1.0279,0.79965c-0.17802,0.07494 -0.38878,0.03145 -0.57199,0.09261c-0.99238,0.33124 -1.849,0.50103 -2.90237,0.6168c-1.26206,0.13871 -2.50504,0.47086 -3.78199,0.46184c-1.17689,-0.38158 -2.50529,-0.78897 -3.47018,-1.5974c-0.12682,-0.10625 -0.17226,-0.29081 -0.30116,-0.39452c-0.26494,-0.21315 -0.69499,0.01153 -1.0148,-0.10399c-0.92541,-0.33427 -1.39701,-1.61339 -1.90383,-2.34734c-0.20604,-0.29838 -0.60799,-0.41562 -0.83212,-0.70066c-0.03405,-0.04331 -0.18149,-0.38634 -0.30821,-0.68802c-0.06304,-0.05615 -0.0975,-0.10785 -0.0975,-0.10785zM232.06439,182.97494c-0.96364,0.75662 -0.63659,1.62554 -0.48013,2.63421c0.2313,1.49115 0.50035,3.01037 1.23128,4.35319c0.14744,0.43873 0.25196,0.87478 0.40641,1.30404c0.15994,0.09732 0.23143,0.2689 0.23143,0.2689c0.12272,0.29453 0.1473,0.6445 0.34993,0.89098c0.23986,0.29176 0.63687,0.433 0.86006,0.7377c0.21769,0.29719 0.37912,0.6327 0.59343,0.93233c0.1559,0.21795 0.4863,0.95706 0.80249,1.0354c0.41774,0.1035 0.9078,0.00145 1.26965,0.23445c0.16464,0.10601 0.22626,0.32506 0.37571,0.45158c0.81023,0.68592 1.97386,1.0227 2.96012,1.36392c1.17245,-0.01346 2.33301,-0.33856 3.4944,-0.46886c1.11328,-0.1249 2.16928,-0.25807 3.20977,-0.64434c0.30893,-0.11469 0.50838,-0.44853 0.74889,-0.63871c0.27543,-0.21779 0.68009,-0.25309 0.92418,-0.50551c0.09773,-0.10107 0.09692,-0.26399 0.14933,-0.39445c0.26184,-0.65191 0.50518,-1.35954 0.55263,-2.05957c0.34493,-1.70187 0.19779,-3.58666 0.08081,-5.30771c-0.0804,-1.18288 0.04182,-2.42308 0.08379,-3.60746c0.02521,-0.71153 0.3588,-2.2712 -0.43538,-2.58083c-0.53564,-0.17928 -1.21279,-0.36399 -1.77084,-0.13769c-0.49419,0.20041 -0.55554,1.07608 -0.58778,1.50879c-0.05459,0.73274 0.0546,1.46253 0.00023,2.19677c-0.0227,0.30652 -0.07035,0.59785 -0.10911,0.89105l0.10889,0.25424c-0.01659,0.20883 -0.07467,0.41013 -0.15798,0.60438l0.10369,0.02393l-0.12452,0.5396c-0.05007,0.23998 -0.26281,0.42025 -0.51766,0.42025c-0.29205,0 -0.52881,-0.23676 -0.52881,-0.52881v-0.54996c0.00156,-0.59651 0.12683,-1.13966 0.17055,-1.72967c0.06529,-0.88122 -0.0661,-2.02475 0.11655,-2.97344c-0.30057,-0.10524 -0.32785,-0.45981 -0.32785,-0.45981c-0.03468,-0.45082 0.04229,-1.38321 -0.34759,-1.73294c-0.53213,-0.47733 -1.72639,-0.89919 -2.27351,-0.25233c-0.28787,0.34035 -0.28549,0.91622 -0.29981,1.329c-0.03224,0.92939 -0.00005,1.86445 -0.00005,2.79355c-0.04582,0.60108 -0.09034,1.15977 -0.22468,1.7485l0.01354,0.05031c0,0 0,0.52881 -0.52881,0.52881c-0.52881,0 -0.52881,-0.52881 -0.52881,-0.52881l0.01354,-0.28812c0.12218,-0.52268 0.15687,-1.01685 0.19837,-1.55127c0,-1.25943 -0.33927,-3.25274 0.33205,-4.44984c-0.14799,-0.08407 -0.22556,-0.22629 -0.22556,-0.22629c-0.07529,-0.13877 -0.33922,-0.66119 -0.47698,-0.7866c-0.66386,-0.60434 -2.09756,-0.61957 -2.35657,0.3784c-0.4289,1.65256 -0.06598,3.29816 -0.19389,4.97596c-0.04656,0.59956 -0.04846,1.13839 -0.18121,1.72823l-0.0559,0.17523c0,0 -0.16722,0.50167 -0.6689,0.33445c-0.50167,-0.16722 -0.33445,-0.6689 -0.33445,-0.6689l0.02871,-0.0786c0.12657,-0.53211 0.11568,-1.0265 0.15723,-1.57153c0.13103,-1.68722 -0.25055,-3.38342 0.19262,-5.04659c-0.23649,-0.14552 -0.23648,-0.45476 -0.23648,-0.45476c0,-1.97261 0.60046,-4.2041 -0.01697,-6.14167c-0.35011,-1.09868 -1.04658,-1.77836 -2.18781,-1.27406c-0.24114,0.07947 -0.59166,0.01596 -0.72562,0.23164c-0.14369,0.23134 -0.02031,0.54428 -0.03131,0.81639c-0.02921,0.72303 0.19699,1.38524 0.25268,2.09692c0.08064,1.03046 0.3397,2.11702 0.20858,3.15496c-0.10461,0.82808 -0.35804,1.62014 -0.41989,2.46475c-0.02957,0.40385 0.10245,0.80721 0.08546,1.21179c-0.00371,0.08827 -0.22008,0.98317 -0.25675,1.13732c-0.00141,0.60506 0.23325,1.12637 0.21454,1.73702c-0.02186,0.7133 -0.24217,1.37765 -0.36242,2.06947c0.04363,0.14667 0.08172,0.45077 -0.26795,0.6256c-0.47298,0.23649 -0.70947,-0.23649 -0.70947,-0.23649l-0.09199,-0.40151c0.1112,-0.70802 0.33979,-1.37527 0.37498,-2.09719c0.00804,-0.16488 -0.0033,-0.32715 -0.02419,-0.48851c-0.5735,0.19254 -1.39491,0.28807 -1.8289,0.62882z" fill="#ffd966" stroke-width="0.5"></path><path d="M233.88287,182.34433c0.02088,0.16137 0.05317,0.32649 0.04513,0.49137c-0.03519,0.72192 -0.26392,1.38606 -0.37512,2.09408l0.09185,0.40092c0,0 0.21618,0.47886 0.68916,0.24237c0.34967,-0.17483 0.31135,-0.47976 0.26772,-0.62643c0.12025,-0.69182 0.34036,-1.35977 0.36221,-2.07306c0.01871,-0.61065 -0.21527,-1.13471 -0.21385,-1.73977c0.03667,-0.15415 0.25387,-1.05068 0.25757,-1.13895c0.01699,-0.40458 -0.11423,-0.80908 -0.08465,-1.21293c0.06185,-0.84461 0.31715,-1.63845 0.42176,-2.46653c0.13112,-1.03794 -0.12664,-2.12534 -0.20727,-3.15579c-0.05569,-0.71168 -0.28136,-1.37416 -0.25215,-2.09719c0.011,-0.27211 -0.11213,-0.58516 0.03156,-0.8165c0.13396,-0.21568 0.48499,-0.15238 0.72614,-0.23185c1.14123,-0.5043 1.839,0.17499 2.18911,1.27367c0.61744,1.93758 0.02387,4.18894 0.02387,6.16155c0,0 -0.00003,0.30926 0.23645,0.45478c-0.44317,1.66316 -0.05569,3.35191 -0.18672,5.03913c-0.04155,0.54503 -0.03099,1.03392 -0.15757,1.56603l-0.02878,0.07839c0,0 -0.16833,0.49944 0.33334,0.66667c0.50167,0.16722 0.65142,-0.32254 0.65142,-0.32254l0.05562,-0.17565c0.13274,-0.58984 0.13338,-1.13724 0.17994,-1.7368c0.12791,-1.67779 -0.22773,-3.33069 0.20117,-4.98325c0.25902,-0.99798 1.69704,-0.98305 2.3609,-0.37871c0.13776,0.12541 0.40285,0.64805 0.47814,0.78682c0,0 0.07812,0.14237 0.22612,0.22644c-0.67132,1.1971 -0.32515,3.19718 -0.32515,4.45661c-0.0415,0.53442 -0.07946,1.04003 -0.20163,1.56271l-0.01449,0.28884c0,0 -0.01218,0.51152 0.51664,0.51152c0.52881,0 0.52658,-0.52653 0.52658,-0.52653l-0.01362,-0.05019c0.13433,-0.58872 0.17707,-1.13972 0.22289,-1.7408c0,-0.9291 -0.02785,-1.85716 0.00439,-2.78655c0.01432,-0.41277 0.02326,-1.00647 0.31113,-1.34683c0.54712,-0.64687 1.74412,-0.22278 2.27625,0.25455c0.38989,0.34973 0.3145,1.28451 0.34917,1.73533c0,0 0.02767,0.35549 0.32824,0.46074c-0.18265,0.94868 -0.05076,2.09773 -0.11606,2.97894c-0.04371,0.59001 -0.17001,1.13617 -0.17157,1.73268l-0.00042,0.5507c0,0.29205 0.21894,0.51741 0.51099,0.51741c0.25485,0 0.4671,-0.17945 0.51717,-0.41944l0.12417,-0.53887l-0.10368,-0.02396c0.08332,-0.19425 0.14104,-0.39465 0.15764,-0.60348l-0.10899,-0.25393c0.03876,-0.2932 0.08609,-0.58313 0.10879,-0.88965c0.05437,-0.73424 -0.05478,-1.46046 -0.00019,-2.1932c0.03224,-0.4327 0.09412,-1.3065 0.58831,-1.50691c0.55805,-0.2263 1.25524,-0.04832 1.79087,0.13096c0.79418,0.30963 0.46101,1.87229 0.4358,2.58382c-0.04197,1.18438 -0.16494,2.42846 -0.08454,3.61134c0.11698,1.72104 0.26181,3.60936 -0.08312,5.31123c-0.04746,0.70004 -0.29185,1.4086 -0.5537,2.06051c-0.0524,0.13046 -0.05181,0.29355 -0.14954,0.39461c-0.24409,0.25242 -0.6494,0.28816 -0.92483,0.50595c-0.24051,0.19018 -0.44058,0.52438 -0.74952,0.63907c-1.04049,0.38627 -2.09877,0.52032 -3.21205,0.64523c-1.16139,0.1303 -2.32466,0.45575 -3.49711,0.46921c-0.98626,-0.34122 -2.15237,-0.6783 -2.9626,-1.36422c-0.14945,-0.12652 -0.21147,-0.34568 -0.37611,-0.45168c-0.36185,-0.23299 -0.85294,-0.1313 -1.27068,-0.2348c-0.31619,-0.07834 -0.64751,-0.81787 -0.80341,-1.03582c-0.21432,-0.29963 -0.37651,-0.63558 -0.5942,-0.93277c-0.22319,-0.3047 -0.62107,-0.44654 -0.86093,-0.7383c-0.20263,-0.24648 -0.22783,-0.59697 -0.35055,-0.8915c0,0 -0.07174,-0.17182 -0.23168,-0.26914c-0.15444,-0.42925 -0.25981,-0.86623 -0.40725,-1.30495c-0.73092,-1.34282 -1.0021,-2.86638 -1.2334,-4.35752c-0.15646,-1.00867 -0.48376,-1.88061 0.47989,-2.63724c0.43399,-0.34075 1.25553,-0.43741 1.82903,-0.62995z" data-paper-data="{&quot;noHover&quot;:false,&quot;origItem&quot;:[&quot;Path&quot;,{&quot;applyMatrix&quot;:true,&quot;segments&quot;:[[[605.40162,387.2313],[2.22142,-1.74418],[-4.93251,3.87285]],[[602.94401,400.7148],[-0.80086,-5.16299],[1.18393,7.63261]],[[609.24644,422.99714],[-3.74132,-6.87339],[0.75468,2.24568]],[[611.32668,429.672],[-0.79054,-2.19718],[0.81866,0.49815]],[[612.51127,431.0484],[0,0],[0.62817,1.50761]],[[614.30245,435.609],[-1.03719,-1.26163],[1.22774,1.49341]],[[618.7048,439.38499],[-1.14244,-1.55964],[1.11428,1.5212]],[[621.74236,444.15723],[-1.097,-1.5337],[0.79797,1.11562]],[[625.85002,449.45708],[-1.61846,-0.401],[2.13825,0.52978]],[[632.34887,450.65713],[-1.85216,-1.1926],[0.84271,0.54261]],[[634.272,452.96859],[-0.76498,-0.64761],[4.14726,3.51098]],[[649.42372,459.94997],[-5.04828,-1.74657],[6.0013,-0.06891]],[[667.31023,457.55002],[-5.94471,0.66697],[5.69847,-0.63935]],[[683.73983,454.2519],[-5.32586,1.97718],[1.58133,-0.58705]],[[687.57313,450.98258],[-1.23111,0.97345],[1.40983,-1.11477]],[[692.30364,448.39509],[-1.2494,1.29202],[0.50025,-0.51732]],[[693.06799,446.37603],[-0.26822,0.66778],[1.34028,-3.33685]],[[695.89672,435.83386],[-0.24293,3.58321],[1.76555,-8.71121]],[[696.31035,408.66573],[0.59879,8.80936],[-0.41155,-6.0547]],[[696.73922,390.20052],[-0.21481,6.06238],[0.12905,-3.64206]],[[694.51069,376.99022],[4.06511,1.58488],[-2.74173,-0.91767]],[[685.44643,376.28545],[2.85644,-1.15835],[-2.52958,1.0258]],[[682.4378,384.00836],[0.165,-2.21484],[-0.27942,3.75064]],[[682.43896,395.25279],[0.27832,-3.7583],[-0.11619,1.56893]],[[681.88045,399.81375],[0.1984,-1.50078],[0,0]],[[682.4378,401.11512],[0,0],[-0.08493,1.06894]],[[681.62914,404.20872],[0.42646,-0.99431],[0,0]],[682.15991,404.3312],[[681.52252,407.09323],[0,0],[-0.25628,1.22838]],[[678.87284,409.24436],[1.30446,0],[-1.4949,0]],[[676.16608,406.5376],[0,1.4949],[0,0]],[[676.16608,403.72256],[0,0],[0.00796,-3.05332]],[[677.03905,394.86903],[-0.22377,3.02003],[0.33422,-4.51063]],[[677.63564,379.64916],[-0.93494,4.85593],[-1.53852,-0.53871]],[[675.95751,377.29558],[0,0],[-0.1775,-2.30756]],[[674.1783,368.4253],[1.99569,1.79017],[-2.72376,-2.44327]],[[662.54108,367.13374],[2.8005,-3.31105],[-1.47351,1.74214]],[[661.00647,373.93635],[0.07329,-2.11281],[-0.16503,4.7572]],[[661.00619,388.23546],[0,-4.75571],[-0.23456,3.0767]],[[659.85616,397.18534],[0.6876,-3.01345],[0,0]],[659.92548,397.44286],[[657.21872,400.14963],[2.70677,0],[-2.70677,0]],[654.51195,397.44286],[[654.58127,395.96806],[0,0],[0.62539,-2.67542]],[[655.59665,388.02772],[-0.21244,2.73548],[0,-6.44656]],[[657.2963,365.25069],[-3.43624,6.12751],[-0.75752,-0.43032]],[[656.14171,364.0924],[0,0],[-0.38538,-0.7103]],[[653.70021,360.06611],[0.70514,0.64192],[-3.39806,-3.09338]],[[641.6378,362.003],[1.3258,-5.10826],[-2.1954,8.45879]],[[640.64534,387.47302],[0.65473,-8.58799],[-0.23834,3.06895]],[[639.71782,396.31918],[0.67946,-3.01919],[0,0]],[639.4317,397.21611],[[636.00788,398.92802],[2.56787,0.85596],[-2.56787,-0.85596]],[634.29597,395.5042],[[634.44293,395.10189],[0,0],[0.64788,-2.72368]],[[635.24775,387.05783],[-0.21269,2.78981],[0.67069,-8.63621]],[[636.23371,361.22628],[-2.26845,8.51311],[-1.21048,-0.74485]],[[635.02324,358.89852],[0,0],[0,-10.09703]],[[634.93637,327.46164],[3.16041,9.91773],[-1.79208,-5.62375]],[[623.73779,320.9402],[5.84154,-2.58131],[-1.23432,0.40677]],[[620.02362,322.12588],[0.6857,-1.10399],[-0.73548,1.18413]],[[619.86335,326.30466],[0.05628,-1.39282],[-0.14954,3.70089]],[[621.15671,337.038],[-0.28505,-3.64281],[0.41274,5.27453]],[[622.22435,353.18706],[0.67115,-5.31283],[-0.53545,4.23864]],[[620.07508,365.80318],[0.3166,-4.32322],[-0.15138,2.06716]],[[620.51253,372.00586],[0.08694,-2.07088],[-0.01897,0.45183]],[[619.19834,377.82735],[0.18769,-0.78904],[-0.00725,3.09707]],[[620.29648,386.71847],[0.09577,-3.12568],[-0.11187,3.6511]],[[618.44137,397.3113],[0.61553,-3.54115],[0.22332,0.75077]],[[617.06984,400.5135],[1.78982,-0.89491],[-2.42101,1.2105]],[613.43833,399.30299],[[612.9675,397.24783],[0,0],[0.56921,-3.62407]],[[614.88685,386.51313],[-0.18011,3.69524],[0.04114,-0.84394]],[[614.76305,384.01261],[0.10689,0.82599],[-2.93554,0.98552]]],&quot;closed&quot;:true}]}" fill="#ffebb0" stroke-width="0.5"></path></g><path d="M234.15622,184.32576l0.13024,-14.13142" fill="none" stroke="#ffd966" stroke-width="0.5" stroke-linecap="round"></path></g></g></svg>