<svg version="1.1" xmlns="http://www.w3.org/2000/svg" xmlns:xlink="http://www.w3.org/1999/xlink" width="169.5" height="80.75" viewBox="0,0,169.5,80.75"><defs><linearGradient x1="155.5" y1="184.75" x2="176.5" y2="184.75" gradientUnits="userSpaceOnUse" id="color-1"><stop offset="0" stop-color="#ff0000"></stop><stop offset="1" stop-color="#540000"></stop></linearGradient><linearGradient x1="322.75" y1="178.25" x2="301.75" y2="178.25" gradientUnits="userSpaceOnUse" id="color-2"><stop offset="0" stop-color="#ff0000"></stop><stop offset="1" stop-color="#540000"></stop></linearGradient><linearGradient x1="240.625" y1="139.625" x2="240.625" y2="161.625" gradientUnits="userSpaceOnUse" id="color-3"><stop offset="0" stop-color="#ff0000"></stop><stop offset="1" stop-color="#540000"></stop></linearGradient></defs><g transform="translate(-155.25,-139.625)"><g data-paper-data="{&quot;isPaintingLayer&quot;:true}" fill-rule="nonzero" stroke-linejoin="miter" stroke-miterlimit="10" stroke-dasharray="" stroke-dashoffset="0" style="mix-blend-mode: normal"><text transform="translate(224.5,184.9375) scale(0.29957,0.29957)" font-size="40" xml:space="preserve" fill="#ffffff" fill-rule="nonzero" stroke="none" stroke-width="1" stroke-linecap="butt" stroke-linejoin="miter" stroke-miterlimit="10" stroke-dasharray="" stroke-dashoffset="0" font-family="Sans Serif" font-weight="normal" text-anchor="start" style="mix-blend-mode: normal"><tspan x="0" dy="0">xAmt8</tspan></text><path d="M162.125,214v-65h159v65z" fill="#1f85b1" stroke="#ffffff" stroke-width="4" stroke-linecap="butt"></path><path d="M165.125,182.375l156.5,-1" fill="none" stroke="#ffffff" stroke-width="4" stroke-linecap="round"></path><path d="M241.375,152.125l1,28.25" fill="none" stroke="#ffffff" stroke-width="4" stroke-linecap="round"></path><path d="M172,166.375l1.5,3.25" fill="none" stroke="#33fffe" stroke-width="1" stroke-linecap="round"></path><path d="M191,161.875l2.5,3.25" fill="none" stroke="#33fffe" stroke-width="1" stroke-linecap="round"></path><path d="M213.75,156.375l-1.75,-2.5" fill="none" stroke="#33fffe" stroke-width="1" stroke-linecap="round"></path><path d="M226.75,168.625l2.5,3" fill="none" stroke="#33fffe" stroke-width="1" stroke-linecap="round"></path><path d="M181.5,194.625l2.25,3.25" fill="none" stroke="#33fffe" stroke-width="1" stroke-linecap="round"></path><path d="M169.5,204.125l-1,-2.25" fill="none" stroke="#33fffe" stroke-width="1" stroke-linecap="round"></path><path d="M198.25,204.875l1.25,1.5" fill="none" stroke="#33fffe" stroke-width="1" stroke-linecap="round"></path><path d="M221,192.125l3.25,3.5" fill="none" stroke="#33fffe" stroke-width="1" stroke-linecap="round"></path><path d="M246.75,188.875l1.5,2.25" fill="none" stroke="#33fffe" stroke-width="1" stroke-linecap="round"></path><path d="M247.5,205.125l2,2.75" fill="none" stroke="#33fffe" stroke-width="1" stroke-linecap="round"></path><path d="M271,204.625l1.25,1.75" fill="none" stroke="#33fffe" stroke-width="1" stroke-linecap="round"></path><path d="M284,193.375l2,2.25" fill="none" stroke="#33fffe" stroke-width="1" stroke-linecap="round"></path><path d="M304.5,184.875l2.5,3" fill="none" stroke="#33fffe" stroke-width="1" stroke-linecap="round"></path><path d="M314.5,204.875l-1.75,-1.75" fill="none" stroke="#33fffe" stroke-width="1" stroke-linecap="round"></path><path d="M251.5,166.375l2.75,3.25" fill="none" stroke="#33fffe" stroke-width="1" stroke-linecap="round"></path><path d="M269.25,155.125l0.5,1.75" fill="none" stroke="#33fffe" stroke-width="1" stroke-linecap="round"></path><path d="M285.75,167.375l3.75,3.5" fill="none" stroke="#33fffe" stroke-width="1" stroke-linecap="round"></path><path d="M299,164.875l1.25,1.5" fill="none" stroke="#33fffe" stroke-width="1" stroke-linecap="round"></path><g stroke-width="0" stroke-linecap="butt"><path d="M155.5,220.375v-71.25l39.75,4.75c0,0 -12.45488,7.20664 -14.31456,13.80229c-3.40161,12.06438 -4.43544,52.69771 -4.43544,52.69771z" fill="url(#color-1)" stroke="#33fffe"></path><path d="M301.75,213.875c0,0 -1.03384,-40.63334 -4.43545,-52.69771c-1.85967,-6.59565 -14.31455,-13.80229 -14.31455,-13.80229l39.75,-4.75v71.25z" data-paper-data="{&quot;index&quot;:null}" fill="url(#color-2)" stroke="#33fffe"></path><path d="M161.75,161.625c0,0 -6.5,-8.9322 -6.5,-12.75c0,-3.48516 6.5,-9.25 6.5,-9.25h157.75c0,0 5.25,5.47498 5.25,8.75c0,3.93609 -5.25,13.25 -5.25,13.25c0,0 -51.02113,-7 -77.25,-7c-26.35387,0 -80.5,7 -80.5,7z" fill="url(#color-3)" stroke="none"></path></g></g></g></svg>