<svg version="1.1" xmlns="http://www.w3.org/2000/svg" xmlns:xlink="http://www.w3.org/1999/xlink" width="69.90934" height="76.81313" viewBox="0,0,69.90934,76.81313"><defs><radialGradient cx="240.10845" cy="198.2241" r="6.21683" gradientUnits="userSpaceOnUse" id="color-1"><stop offset="0" stop-color="#f8ff21"></stop><stop offset="1" stop-color="#ffb900"></stop></radialGradient><radialGradient cx="231.88607" cy="148.92183" r="14.91502" gradientUnits="userSpaceOnUse" id="color-2"><stop offset="0" stop-color="#cc9500"></stop><stop offset="1" stop-color="#ffb900"></stop></radialGradient><linearGradient x1="240.04114" y1="183.74732" x2="240.1011" y2="196.64524" gradientUnits="userSpaceOnUse" id="color-3"><stop offset="0" stop-color="#080000"></stop><stop offset="1" stop-color="#909090"></stop></linearGradient><radialGradient cx="267.92915" cy="178.8063" r="4.03612" gradientUnits="userSpaceOnUse" id="color-4"><stop offset="0" stop-color="#fff85d"></stop><stop offset="1" stop-color="#fff85d" stop-opacity="0"></stop></radialGradient><linearGradient x1="266.70675" y1="185.0696" x2="268.89686" y2="185.05942" gradientUnits="userSpaceOnUse" id="color-5"><stop offset="0" stop-color="#fff3d5"></stop><stop offset="1" stop-color="#ffd3c2"></stop></linearGradient><radialGradient cx="258.42415" cy="176.85432" r="4.03612" gradientUnits="userSpaceOnUse" id="color-6"><stop offset="0" stop-color="#fff85d"></stop><stop offset="1" stop-color="#fff85d" stop-opacity="0"></stop></radialGradient><linearGradient x1="257.20174" y1="183.11762" x2="259.39186" y2="183.10743" gradientUnits="userSpaceOnUse" id="color-7"><stop offset="0" stop-color="#fff3d5"></stop><stop offset="1" stop-color="#ffd3c2"></stop></linearGradient><radialGradient cx="221.88939" cy="176.80427" r="4.03612" gradientUnits="userSpaceOnUse" id="color-8"><stop offset="0" stop-color="#fff85d"></stop><stop offset="1" stop-color="#fff85d" stop-opacity="0"></stop></radialGradient><linearGradient x1="220.66699" y1="183.06757" x2="222.85711" y2="183.05738" gradientUnits="userSpaceOnUse" id="color-9"><stop offset="0" stop-color="#fff3d5"></stop><stop offset="1" stop-color="#ffd3c2"></stop></linearGradient><radialGradient cx="211.41321" cy="178.21196" r="4.03612" gradientUnits="userSpaceOnUse" id="color-10"><stop offset="0" stop-color="#fff85d"></stop><stop offset="1" stop-color="#fff85d" stop-opacity="0"></stop></radialGradient><linearGradient x1="210.19079" y1="184.47525" x2="212.38092" y2="184.46507" gradientUnits="userSpaceOnUse" id="color-11"><stop offset="0" stop-color="#fff3d5"></stop><stop offset="1" stop-color="#ffd3c2"></stop></linearGradient><linearGradient x1="242.21248" y1="156.15201" x2="241.58966" y2="202.50753" gradientUnits="userSpaceOnUse" id="color-12"><stop offset="0" stop-color="#ffad66" stop-opacity="0"></stop><stop offset="1" stop-color="#ffad66"></stop></linearGradient></defs><g transform="translate(-206.60621,-126.15528)"><g data-paper-data="{&quot;isPaintingLayer&quot;:true}" fill-rule="nonzero" stroke-linejoin="miter" stroke-miterlimit="10" stroke-dasharray="" stroke-dashoffset="0" style="mix-blend-mode: normal"><text transform="translate(234.48766,199.08901) rotate(-0.26638) scale(0.08686,0.08686)" font-size="40" xml:space="preserve" fill="#ffffff" fill-rule="nonzero" stroke="none" stroke-width="1" stroke-linecap="butt" stroke-linejoin="miter" stroke-miterlimit="10" stroke-dasharray="" stroke-dashoffset="0" font-family="Sans Serif" font-weight="normal" text-anchor="start" style="mix-blend-mode: normal"><tspan x="0" dy="0">xAmt8</tspan></text><text transform="translate(231.70846,153.17178) rotate(-0.26665) scale(0.16761,0.16761)" font-size="40" xml:space="preserve" fill="#000000" fill-rule="nonzero" stroke="none" stroke-width="1" stroke-linecap="butt" stroke-linejoin="miter" stroke-miterlimit="10" stroke-dasharray="" stroke-dashoffset="0" font-family="Marker" font-weight="normal" text-anchor="start" style="mix-blend-mode: normal"><tspan x="0" dy="0">xAmt8</tspan></text><path d="M257.93262,190.24674l-2.72997,7.11772l-10.45996,0.04864" fill="none" stroke="#ffb900" stroke-width="1.5" stroke-linecap="round"></path><path d="M268.20348,191.97525l-2.13974,6.72026l-20.92083,-0.1001" fill="none" stroke="#ffb900" stroke-width="1.5" stroke-linecap="round"></path><path d="M235.05134,197.83033l-10.45996,0.04864l-2.79604,-7.09204" data-paper-data="{&quot;index&quot;:null}" fill="none" stroke="#ffb900" stroke-width="1.5" stroke-linecap="round"></path><path d="M234.66213,199.01631l-20.91899,0.29462l-2.20213,-6.70007" data-paper-data="{&quot;index&quot;:null}" fill="none" stroke="#ffb900" stroke-width="1.5" stroke-linecap="round"></path><path d="M246.32522,198.19519c0.00811,1.74396 -2.76866,3.17066 -6.20208,3.18663c-3.43342,0.01597 -6.22334,-1.38486 -6.23144,-3.12882c-0.00811,-1.74396 2.76865,-3.17066 6.20208,-3.18663c3.43342,-0.01597 6.22334,1.38486 6.23145,3.12882z" fill="url(#color-1)" stroke="none" stroke-width="0" stroke-linecap="butt"></path><path d="M238.81233,198.02453l-0.19633,-42.22632l1.60353,-0.00745l0.19633,42.22632z" fill="#ffb900" stroke="none" stroke-width="0" stroke-linecap="butt"></path><path d="M243.79543,163.47124c0.01064,2.28895 -1.83629,4.15314 -4.12524,4.16378c-2.28895,0.01064 -4.15315,-1.83629 -4.16379,-4.12524c-0.01064,-2.28895 1.83629,-4.15315 4.12524,-4.16379c2.28895,-0.01064 4.15314,1.83629 4.16378,4.12524z" fill="none" stroke="#ffb900" stroke-width="2" stroke-linecap="butt"></path><path d="M243.02739,172.92563c0.00862,1.85296 -1.48652,3.36207 -3.33948,3.37068c-1.85296,0.00862 -3.36206,-1.48652 -3.37067,-3.33948c-0.00862,-1.85296 1.48653,-3.36207 3.33948,-3.37068c1.85296,-0.00862 3.36207,1.48652 3.37068,3.33949z" fill="none" stroke="#ffb900" stroke-width="1.5" stroke-linecap="butt"></path><path d="M242.05234,180.30869c0.00684,1.47146 -1.18047,2.66988 -2.65194,2.67672c-1.47146,0.00684 -2.66988,-1.18047 -2.67672,-2.65194c-0.00684,-1.47146 1.18047,-2.66987 2.65194,-2.67672c1.47146,-0.00684 2.66987,1.18047 2.67672,2.65194z" fill="none" stroke="#ffb900" stroke-width="1" stroke-linecap="butt"></path><path d="M255.28955,149.30936c0.00957,2.05931 -6.1078,8.01868 -14.34504,8.05698c-8.23725,0.0383 -15.47511,-5.85898 -15.48469,-7.91829c-0.00957,-2.05931 6.66028,-3.75976 14.89753,-3.79806c8.23725,-0.0383 14.92264,1.60006 14.9322,3.65937z" fill="url(#color-2)" stroke="#000000" stroke-width="0" stroke-linecap="butt"></path><path d="M236.79068,185.03948l-0.00593,-1.27702l6.51281,-0.03028l0.00593,1.27702c0,0 -0.32901,6.92653 -1.41528,10.16534c-0.3476,1.03643 -1.5762,1.46971 -1.85095,1.47099c-0.32963,0.00153 -1.67239,-0.42281 -2.13484,-2.04613c-0.97858,-3.43512 -1.11173,-9.55991 -1.11173,-9.55991z" fill="none" stroke="url(#color-3)" stroke-width="2" stroke-linecap="butt"></path><path d="M270.57315,192.26027c0.00178,0.38149 -1.14548,0.6961 -2.56244,0.70268c-1.41697,0.00659 -2.56708,-0.29733 -2.56886,-0.67882c-0.00178,-0.38149 1.14547,-0.6961 2.56244,-0.70268c1.41697,-0.00659 2.56708,0.29733 2.56886,0.67882z" fill="#ffc72d" stroke="none" stroke-width="0" stroke-linecap="butt"></path><path d="M260.30183,190.43309c0.00254,0.54499 -0.87902,0.99089 -1.96898,0.99596c-1.08998,0.00507 -1.97563,-0.43262 -1.97816,-0.97761c-0.00254,-0.54499 0.87902,-0.99089 1.96898,-0.99596c1.08998,-0.00507 1.97563,0.43263 1.97816,0.97761z" fill="#ffc72d" stroke="none" stroke-width="0" stroke-linecap="butt"></path><path d="M223.59329,190.60376c0.00152,0.32699 -0.88085,0.59618 -1.97082,0.60125c-1.08998,0.00507 -1.97481,-0.25591 -1.97633,-0.58289c-0.00152,-0.32699 0.88085,-0.59618 1.97082,-0.60125c1.08998,-0.00507 1.97481,0.2559 1.97633,0.58289z" fill="#ffc72d" stroke="none" stroke-width="0" stroke-linecap="butt"></path><path d="M213.53539,192.22942c0.00203,0.43599 -0.92411,0.79374 -2.06858,0.79907c-1.14448,0.00533 -2.0739,-0.34381 -2.07592,-0.77979c-0.00203,-0.43599 0.92411,-0.79374 2.06858,-0.79907c1.14448,-0.00533 2.0739,0.34381 2.07592,0.77979z" fill="#ffc72d" stroke="none" stroke-width="0" stroke-linecap="butt"></path><g><text transform="translate(265.83593,190.65701) rotate(-0.26584) scale(0.03521,0.03521)" font-size="40" xml:space="preserve" fill="#66d6ff" fill-rule="nonzero" stroke="none" stroke-width="1" stroke-linecap="butt" stroke-linejoin="miter" stroke-miterlimit="10" stroke-dasharray="" stroke-dashoffset="0" font-family="Sans Serif" font-weight="normal" text-anchor="start" style="mix-blend-mode: normal"><tspan x="0" dy="0">xAmt8</tspan></text><g><path d="M271.68363,178.78884c0.01037,2.22906 -1.66218,4.04389 -3.73572,4.05353c-2.07354,0.00964 -3.76289,-1.78955 -3.77325,-4.01862c-0.01037,-2.22906 1.66218,-4.04389 3.73572,-4.05353c2.07354,-0.00964 3.76289,1.78955 3.77326,4.01862z" fill="url(#color-4)" stroke="none" stroke-width="0" stroke-linecap="butt"></path><path d="M266.80234,192.17155l-0.88419,-1.74802l4.12964,-0.08178l-0.30444,1.81612z" fill="#a76a00" stroke="none" stroke-width="0" stroke-linecap="butt"></path><path d="M265.91873,190.54868l-0.00175,-0.37544l4.19251,-0.01949l0.00175,0.37544z" fill="#643f00" stroke="none" stroke-width="0" stroke-linecap="butt"></path><path d="M265.79241,190.29896l-0.94473,-1.30971l6.06947,-0.0908l-0.80708,1.38043z" fill="#a76a00" stroke="none" stroke-width="0" stroke-linecap="butt"></path><path d="M269.61742,191.34348c-0.12479,-0.24672 0.12192,-0.37152 0.12192,-0.37152l0.24972,-0.12632c0.34028,-0.17212 0.82827,-0.29485 0.67114,-0.79476c-0.05382,-0.17124 -0.22793,-0.27748 -0.3363,-0.42058c0,0 -0.16691,-0.22042 0.0535,-0.38734c0.22042,-0.16692 0.38733,0.05349 0.38733,0.05349c0.05422,0.07161 0.40452,0.52806 0.41925,0.57712c0.247,0.82282 -0.33668,1.15763 -0.94533,1.46549l-0.24972,0.12632c0,0 -0.24671,0.1248 -0.37151,-0.12193z" fill="#a76a00" stroke="none" stroke-width="0.5" stroke-linecap="butt"></path><path d="M266.72464,188.91796c0,0 0.51109,-4.92456 0.58112,-6.26477c0.03262,-0.62427 -0.17888,-1.43397 -0.17888,-1.43397c0,0 0.81107,0.18396 1.12723,0.18249c0.25431,-0.00119 0.62487,-0.19064 0.62487,-0.19064c0,0 -0.23492,3.30929 -0.22848,4.69427c0.00524,1.12702 0.26427,3.00243 0.26427,3.00243z" fill="url(#color-5)" stroke="none" stroke-width="0" stroke-linecap="butt"></path><path d="M267.8702,179.58878l0.07043,1.68923" fill="none" stroke="#000000" stroke-width="1" stroke-linecap="round"></path><path d="M268.30518,178.92971c0.00217,0.46655 -0.17817,0.84561 -0.40281,0.84664c-0.22463,0.00104 -0.40849,-0.37632 -0.41066,-0.84287c-0.00217,-0.46655 0.17643,-1.22105 0.40106,-1.2221c0.22463,-0.00104 0.41023,0.75177 0.41241,1.21832z" fill="#ffd75c" stroke="#000000" stroke-width="0" stroke-linecap="butt"></path></g></g><g><text transform="translate(256.33093,188.70503) rotate(-0.26584) scale(0.03521,0.03521)" font-size="40" xml:space="preserve" fill="#66d6ff" fill-rule="nonzero" stroke="none" stroke-width="1" stroke-linecap="butt" stroke-linejoin="miter" stroke-miterlimit="10" stroke-dasharray="" stroke-dashoffset="0" font-family="Sans Serif" font-weight="normal" text-anchor="start" style="mix-blend-mode: normal"><tspan x="0" dy="0">xAmt8</tspan></text><g><path d="M262.17864,176.83686c0.01037,2.22906 -1.66217,4.0439 -3.73572,4.05353c-2.07354,0.00964 -3.76289,-1.78956 -3.77326,-4.01863c-0.01037,-2.22906 1.66217,-4.04389 3.73572,-4.05353c2.07354,-0.00964 3.76289,1.78955 3.77325,4.01862z" fill="url(#color-6)" stroke="none" stroke-width="0" stroke-linecap="butt"></path><path d="M257.29734,190.21957l-0.8842,-1.74802l4.12965,-0.08177l-0.30444,1.81612z" fill="#a76a00" stroke="none" stroke-width="0" stroke-linecap="butt"></path><path d="M256.41372,188.5967l-0.00175,-0.37544l4.19252,-0.01949l0.00174,0.37544z" fill="#643f00" stroke="none" stroke-width="0" stroke-linecap="butt"></path><path d="M256.28741,188.34698l-0.94473,-1.3097l6.06947,-0.0908l-0.80708,1.38042z" fill="#a76a00" stroke="none" stroke-width="0" stroke-linecap="butt"></path><path d="M260.11242,189.39149c-0.12479,-0.24672 0.12193,-0.37151 0.12193,-0.37151l0.24971,-0.12631c0.34028,-0.17212 0.82827,-0.29485 0.67114,-0.79476c-0.05382,-0.17124 -0.22794,-0.27748 -0.33631,-0.42058c0,0 -0.16691,-0.22042 0.0535,-0.38734c0.22042,-0.16692 0.38734,0.05349 0.38734,0.05349c0.05422,0.07161 0.40452,0.52805 0.41925,0.57712c0.247,0.82281 -0.33668,1.15764 -0.94532,1.4655l-0.24972,0.12631c0,0 -0.24671,0.12479 -0.37152,-0.12193z" fill="#a76a00" stroke="none" stroke-width="0.5" stroke-linecap="butt"></path><path d="M257.21964,186.96598c0,0 0.51109,-4.92456 0.58111,-6.26477c0.03262,-0.62427 -0.17887,-1.43398 -0.17887,-1.43398c0,0 0.81107,0.18396 1.12722,0.18249c0.25431,-0.00119 0.62488,-0.19063 0.62488,-0.19063c0,0 -0.23491,3.30929 -0.22848,4.69428c0.00524,1.12702 0.26426,3.00243 0.26426,3.00243z" fill="url(#color-7)" stroke="none" stroke-width="0" stroke-linecap="butt"></path><path d="M258.43563,179.32602l-0.07043,-1.68922" fill="none" stroke="#000000" stroke-width="1" stroke-linecap="round"></path><path d="M258.80018,176.97772c0.00217,0.46655 -0.17818,0.84561 -0.40281,0.84664c-0.22463,0.00104 -0.40848,-0.37631 -0.41065,-0.84286c-0.00217,-0.46655 0.17643,-1.22105 0.40105,-1.2221c0.22463,-0.00104 0.41025,0.75177 0.41242,1.21832z" fill="#ffd75c" stroke="#000000" stroke-width="0" stroke-linecap="butt"></path></g></g><g><text transform="translate(219.79619,188.65498) rotate(-0.26584) scale(0.03521,0.03521)" font-size="40" xml:space="preserve" fill="#66d6ff" fill-rule="nonzero" stroke="none" stroke-width="1" stroke-linecap="butt" stroke-linejoin="miter" stroke-miterlimit="10" stroke-dasharray="" stroke-dashoffset="0" font-family="Sans Serif" font-weight="normal" text-anchor="start" style="mix-blend-mode: normal"><tspan x="0" dy="0">xAmt8</tspan></text><g><path d="M225.64389,176.78681c0.01037,2.22906 -1.66218,4.04389 -3.73573,4.05353c-2.07354,0.00964 -3.76289,-1.78956 -3.77325,-4.01863c-0.01037,-2.22906 1.66218,-4.04389 3.73572,-4.05353c2.07354,-0.00964 3.76289,1.78955 3.77325,4.01862z" fill="url(#color-8)" stroke="none" stroke-width="0" stroke-linecap="butt"></path><path d="M220.76259,190.16953l-0.8842,-1.74802l4.12965,-0.08177l-0.30444,1.81612z" fill="#a76a00" stroke="none" stroke-width="0" stroke-linecap="butt"></path><path d="M219.87898,188.54665l-0.00175,-0.37544l4.19251,-0.01949l0.00174,0.37544z" fill="#643f00" stroke="none" stroke-width="0" stroke-linecap="butt"></path><path d="M219.75266,188.29694l-0.94473,-1.30971l6.06947,-0.0908l-0.80707,1.38043z" fill="#a76a00" stroke="none" stroke-width="0" stroke-linecap="butt"></path><path d="M223.57767,189.34145c-0.1248,-0.24672 0.12193,-0.37152 0.12193,-0.37152l0.24971,-0.12631c0.34028,-0.17212 0.82828,-0.29485 0.67114,-0.79476c-0.05382,-0.17124 -0.22794,-0.27749 -0.33631,-0.42058c0,0 -0.16692,-0.22041 0.0535,-0.38734c0.22042,-0.16692 0.38734,0.05349 0.38734,0.05349c0.05422,0.07161 0.40452,0.52806 0.41925,0.57712c0.247,0.82281 -0.33668,1.15764 -0.94532,1.4655l-0.24972,0.12632c0,0 -0.24672,0.1248 -0.37152,-0.12192z" fill="#a76a00" stroke="none" stroke-width="0.5" stroke-linecap="butt"></path><path d="M220.68488,186.91593c0,0 0.5111,-4.92455 0.58112,-6.26476c0.03262,-0.62427 -0.17888,-1.43398 -0.17888,-1.43398c0,0 0.81107,0.18396 1.12722,0.18249c0.25431,-0.00119 0.62488,-0.19064 0.62488,-0.19064c0,0 -0.23492,3.30929 -0.22848,4.69427c0.00524,1.12702 0.26427,3.00243 0.26427,3.00243z" fill="url(#color-9)" stroke="none" stroke-width="0" stroke-linecap="butt"></path><path d="M221.83046,177.58675l0.07043,1.68923" fill="none" stroke="#000000" stroke-width="1" stroke-linecap="round"></path><path d="M222.26543,176.92767c0.00217,0.46655 -0.17817,0.84561 -0.40281,0.84665c-0.22463,0.00104 -0.40849,-0.37632 -0.41065,-0.84287c-0.00217,-0.46655 0.17643,-1.22105 0.40106,-1.2221c0.22463,-0.00104 0.41024,0.75176 0.41242,1.21831z" fill="#ffd75c" stroke="#000000" stroke-width="0" stroke-linecap="butt"></path></g></g><g><text transform="translate(209.31999,190.06268) rotate(-0.26584) scale(0.03521,0.03521)" font-size="40" xml:space="preserve" fill="#66d6ff" fill-rule="nonzero" stroke="none" stroke-width="1" stroke-linecap="butt" stroke-linejoin="miter" stroke-miterlimit="10" stroke-dasharray="" stroke-dashoffset="0" font-family="Sans Serif" font-weight="normal" text-anchor="start" style="mix-blend-mode: normal"><tspan x="0" dy="0">xAmt8</tspan></text><g><path d="M215.16769,178.1945c0.01037,2.22906 -1.66218,4.04389 -3.73572,4.05353c-2.07354,0.00964 -3.76289,-1.78955 -3.77326,-4.01862c-0.01037,-2.22906 1.66218,-4.04389 3.73572,-4.05353c2.07354,-0.00964 3.76289,1.78956 3.77325,4.01863z" fill="url(#color-10)" stroke="none" stroke-width="0" stroke-linecap="butt"></path><path d="M210.28639,191.57721l-0.8842,-1.74802l4.12965,-0.08177l-0.30444,1.81612z" fill="#a76a00" stroke="none" stroke-width="0" stroke-linecap="butt"></path><path d="M209.40278,189.95434l-0.00175,-0.37544l4.19251,-0.01949l0.00174,0.37544z" fill="#643f00" stroke="none" stroke-width="0" stroke-linecap="butt"></path><path d="M209.27646,189.70462l-0.94473,-1.30971l6.06947,-0.0908l-0.80708,1.38043z" fill="#a76a00" stroke="none" stroke-width="0" stroke-linecap="butt"></path><path d="M213.10148,190.74913c-0.1248,-0.24672 0.12192,-0.37152 0.12192,-0.37152l0.24972,-0.12631c0.34028,-0.17212 0.82828,-0.29485 0.67114,-0.79476c-0.05382,-0.17124 -0.22794,-0.27749 -0.33631,-0.42058c0,0 -0.16692,-0.22042 0.0535,-0.38734c0.22042,-0.16692 0.38733,0.05349 0.38733,0.05349c0.05421,0.0716 0.40452,0.52806 0.41925,0.57712c0.247,0.82281 -0.33668,1.15763 -0.94533,1.46549l-0.24972,0.12632c0,0 -0.24672,0.1248 -0.37152,-0.12192z" fill="#a76a00" stroke="none" stroke-width="0.5" stroke-linecap="butt"></path><path d="M210.20869,188.32361c0,0 0.51111,-4.92455 0.58113,-6.26476c0.03262,-0.62427 -0.17888,-1.43398 -0.17888,-1.43398c0,0 0.81107,0.18396 1.12722,0.18249c0.25431,-0.00119 0.62489,-0.19064 0.62489,-0.19064c0,0 -0.23491,3.30929 -0.22848,4.69427c0.00524,1.12702 0.26426,3.00243 0.26426,3.00243z" fill="url(#color-11)" stroke="none" stroke-width="0" stroke-linecap="butt"></path><path d="M211.4247,180.68366l-0.07043,-1.68923" fill="none" stroke="#000000" stroke-width="1" stroke-linecap="round"></path><path d="M211.78923,178.33536c0.00217,0.46655 -0.17818,0.84561 -0.40281,0.84664c-0.22463,0.00104 -0.40849,-0.37632 -0.41066,-0.84287c-0.00217,-0.46655 0.17643,-1.22105 0.40106,-1.2221c0.22463,-0.00104 0.41024,0.75176 0.41242,1.21832z" fill="#ffd75c" stroke="#000000" stroke-width="0" stroke-linecap="butt"></path></g></g><path d="M207.28658,202.04664l-0.68037,-75.89136c0,0 10.46284,51.63614 17.95823,54.90167c5.33967,2.32635 8.67942,-30.20882 18.42305,-35.49901c4.8743,-2.64643 12.39244,33.11658 17.66929,35.05315c9.49124,3.48322 15.85876,-23.9982 15.85876,-23.9982l-0.62281,46.35552z" fill="url(#color-12)" stroke="none" stroke-width="NaN" stroke-linecap="butt"></path></g></g></svg>