<svg version="1.1" xmlns="http://www.w3.org/2000/svg" xmlns:xlink="http://www.w3.org/1999/xlink" width="106" height="62.12241" viewBox="0,0,106,62.12241"><defs><radialGradient cx="240.45985" cy="162.04731" r="16.66667" gradientUnits="userSpaceOnUse" id="color-1"><stop offset="0" stop-color="#ded2aa"></stop><stop offset="1" stop-color="#dec176"></stop></radialGradient></defs><g transform="translate(-188.09874,-125.71092)"><g data-paper-data="{&quot;isPaintingLayer&quot;:true}" fill-rule="nonzero" stroke-linejoin="miter" stroke-miterlimit="10" stroke-dasharray="" stroke-dashoffset="0" style="mix-blend-mode: normal"><path d="M226.34874,178.38065v-7h28.33333v7z" fill="#ababab" stroke="none" stroke-width="0" stroke-linecap="butt"></path><path d="M226.79318,173.26954l4.22222,1.88889l5.22222,-1.55556l4.11111,1.77778l4.11111,-1.66667l4.88889,2.22222l2.55556,-2.55556l2.88889,2.77778" fill="none" stroke="#000000" stroke-width="0.5" stroke-linecap="round"></path><path d="M223.66667,187.33333v-12.55556h32.66667v12.55556z" fill="#a96a00" stroke="#000000" stroke-width="1" stroke-linecap="butt"></path><path d="M223.79319,171.26953v-3.11111c0,0 11.27182,-15.33333 17,-15.33333c5.35822,0 16.33333,15.33333 16.33333,15.33333v3.11111z" fill="url(#color-1)" stroke="none" stroke-width="0" stroke-linecap="butt"></path><path d="M239.79319,153.38064v-3.66667h1.55556v3.66667z" fill="#dec176" stroke="#000000" stroke-width="0" stroke-linecap="butt"></path><path d="M242.79319,149.32508c0,0.5216 -1.0198,0.94444 -2.27778,0.94444c-1.25798,0 -2.27778,-0.42284 -2.27778,-0.94444c0,-0.5216 1.0198,-0.94444 2.27778,-0.94444c1.25798,0 2.27778,0.42284 2.27778,0.94444z" fill="#dec176" stroke="none" stroke-width="0" stroke-linecap="butt"></path><path d="M189.09874,160.9362c0.4007,0 0.64084,0.16056 0.78476,0.35301c1.42223,0.67977 2.07913,1.93475 3.47902,1.75896c1.31166,0.10959 3.10225,0.10939 4.20982,0.96567c0.8096,0.62592 1.30377,1.64972 2.20302,2.13816c3.23561,1.75744 9.13091,1.73709 11.44606,4.83692c0.57091,0.76441 0.48108,1.91365 1.09377,2.645c1.69261,2.02042 3.88426,1.02334 2.83445,4.5329c0,0 -0.34174,0.93979 -1.28154,0.59805c-0.93979,-0.34174 -0.59805,-1.28154 -0.59805,-1.28154c0.84382,-1.67961 -1.44521,-1.3499 -2.49889,-2.57821c-0.63277,-0.73764 -0.58053,-1.88565 -1.12845,-2.68833c-0.4438,-0.65015 -1.34524,-0.82685 -2.06475,-1.14615c-2.86337,-1.27068 -6.04545,-1.64531 -8.80191,-3.18621c-2.42607,-1.3562 -2.546,-2.59285 -5.49666,-2.83801c-2.66689,-0.18411 -2.27036,-1.3193 -4.49689,-2.05045l-0.68377,-1.05979c0,0 0,-1 1,-1z" fill="#ff6666" stroke="none" stroke-width="0.5" stroke-linecap="butt"></path><path d="M209.24379,134.77733c-0.29461,-0.08388 -0.70061,-0.31506 -0.70061,-0.95224c0,-1 1,-1 1,-1l1.02222,0.4c2.06835,2.76244 4.42061,0.96854 7.21495,2.60066c2.99076,1.74684 0.64362,3.92849 2.24141,6.19334c0.8262,1.17114 2.37544,1.82422 3.16552,3.0843c1.79368,2.86066 0.8252,6.60302 -0.01591,9.55198c0,0 -0.27472,0.96152 -1.23625,0.6868c-0.96152,-0.27472 -0.6868,-1.23625 -0.6868,-1.23625c0.67924,-2.37309 1.70887,-5.67831 0.20631,-8.00358c-1.19511,-1.84946 -3.09412,-2.26657 -3.76311,-4.5625c-0.36371,-1.2482 0.56097,-3.35787 -0.82996,-3.93764c-3.22302,-1.34342 -5.2906,-0.03272 -7.61778,-2.82488z" fill="#ff6666" stroke="none" stroke-width="0.5" stroke-linecap="butt"></path><path d="M243.01789,126.32006c0.39392,0.91915 -0.52523,1.31306 -0.52523,1.31306l-0.41912,0.07269c-1.26419,1.18243 -0.21151,3.22717 0.00342,4.68946c0.52112,3.54544 -1.02301,7.20293 -0.64985,10.77475c0,0 0.0995,0.99504 -0.89553,1.09454c-0.99504,0.0995 -1.09454,-0.89553 -1.09454,-0.89553c-0.33425,-3.47349 1.23611,-7.15848 0.68349,-10.55858c-0.38422,-2.36396 -1.20852,-4.32402 0.44786,-6.42165l1.13644,-0.59397c0,0 0.91915,-0.39392 1.31306,0.52523z" fill="#ff6666" stroke="none" stroke-width="0.5" stroke-linecap="butt"></path><path d="M277.87652,145.38064c0,1 -1,1 -1,1l-0.38662,-0.01361c-1.08102,-0.18174 -2.33229,-0.7119 -3.43831,-0.65511c-2.62173,0.13463 -4.1738,2.73531 -6.62359,3.42241c-0.72148,0.20236 -1.8753,-0.11245 -2.62424,0.01285c-3.61853,0.60538 -6.88943,2.68066 -10.53123,3.32935c0,0 -0.98478,0.17379 -1.15857,-0.811c-0.17379,-0.98478 0.811,-1.15857 0.811,-1.15857c3.65964,-0.63925 6.9325,-2.73452 10.57988,-3.33732c0.81787,-0.13517 1.6889,0.23745 2.48687,0.01285c1.62097,-0.45624 2.53157,-1.86293 3.96622,-2.57119c2.50456,-1.23646 4.30301,-0.6393 6.86078,-0.21707l0.05782,-0.01361c0,0 1,0 1,1z" fill="#ff6666" stroke="none" stroke-width="0.5" stroke-linecap="butt"></path><path d="M294.09874,185.38064c0,1 -1,1 -1,1l-0.28788,-0.01575c-0.96668,-0.1837 -1.97202,0.09681 -2.95193,0.00743c-2.00573,-0.18294 -4.28331,-1.3158 -6.30355,-1.69712c-0.07849,-0.01482 -3.14204,-0.46168 -3.45009,-0.61775c-1.60925,-0.81532 -1.61454,-2.01487 -3.39374,-2.5922c-2.74054,-0.88927 -7.72599,-1.19932 -8.38448,-4.30751c0,0 -0.11043,-0.99388 0.88345,-1.10432c0.99388,-0.11043 1.10432,0.88345 1.10432,0.88345c-0.18444,0.93087 4.1334,1.78496 5.0804,2.05961c0.84827,0.24602 3.09991,0.8375 3.85309,1.3575c0.26629,0.18385 1.22888,1.65907 1.73273,1.9054c0.89229,0.43624 1.96945,0.26618 2.94541,0.45054c1.95096,0.36854 4.26444,1.54262 6.18985,1.67903c1.01349,0.0718 2.04668,-0.1644 3.04807,0.00743l-0.06566,-0.01575c0,0 1,0 1,1z" fill="#ff6666" stroke="none" stroke-width="0.5" stroke-linecap="butt"></path></g></g></svg>