<svg version="1.1" xmlns="http://www.w3.org/2000/svg" xmlns:xlink="http://www.w3.org/1999/xlink" width="37.17003" height="67.62578" viewBox="0,0,37.17003,67.62578"><g transform="translate(-221.41499,-145.69391)"><g data-paper-data="{&quot;isPaintingLayer&quot;:true}" fill-rule="nonzero" stroke-linecap="butt" stroke-linejoin="miter" stroke-miterlimit="10" stroke-dasharray="" stroke-dashoffset="0" style="mix-blend-mode: normal"><path d="M221.91499,212.81969v-58.40193h36.17003v58.40193z" fill="#513a27" stroke="#000000" stroke-width="1"></path><path d="M222.56283,211.31155v-55.36856h35.3021v55.36856z" fill="#8e6544" stroke="none" stroke-width="1"></path><path d="M226.37174,209.36065v-32.87419h8.82553v32.87419z" fill="none" stroke="#513a27" stroke-width="1"></path><text transform="translate(234.19575,152.61026) scale(0.11445,0.11445)" font-size="40" xml:space="preserve" fill="#ffffff" fill-rule="nonzero" stroke="none" stroke-width="2" stroke-linecap="butt" stroke-linejoin="miter" stroke-miterlimit="10" stroke-dasharray="" stroke-dashoffset="0" font-family="Sans Serif" font-weight="normal" text-anchor="start" style="mix-blend-mode: normal"><tspan x="0" dy="0">xAmt8</tspan></text><path d="M230.47655,155.09588l-0.10285,-6.53708c0,0 0.23493,-1.29206 0.48944,-1.30095c1.72699,-0.06034 19.50033,0.63241 19.50033,0.63241c0,0 0.56568,0.83191 0.56568,1.23722c0,1.13107 0.05143,5.9684 0.05143,5.9684z" fill="#656565" stroke="#e2e2e2" stroke-width="1"></path><path d="M243.55829,209.17485v-32.83277h8.82553v32.83277z" fill="none" stroke="#513a27" stroke-width="1"></path><path d="M226.00014,169.86251v-11.59701h28.61328v11.59701z" fill="none" stroke="#513a27" stroke-width="1"></path><path d="M224.34082,188.20604v-6.32754c0,0 0.94625,-1.52769 1.46576,-1.52769c0.52639,0 1.6722,1.52769 1.6722,1.52769v6.32754c0,0 -0.89157,1.23867 -1.42447,1.23867c-0.51227,0 -1.71349,-1.23867 -1.71349,-1.23867z" fill="#ffb900" stroke="#513a27" stroke-width="1"></path><path d="M226.67365,182.18301c0,0.34205 -0.2588,0.61934 -0.57805,0.61934c-0.31925,0 -0.57805,-0.27728 -0.57805,-0.61934c0,-0.34205 0.2588,-0.61934 0.57805,-0.61934c0.31925,0 0.57805,0.27728 0.57805,0.61934z" fill="#b98800" stroke="none" stroke-width="1"></path><path d="M225.64142,188.2112c0,0 0.94965,-1.44567 0.94965,-2.14703c0,-0.67384 -0.94965,-1.98187 -0.94965,-1.98187h0.90836c0,0 1.81672,1.38972 1.81672,2.02316c0,0.7293 -1.81672,2.10574 -1.81672,2.10574z" fill="#b98800" stroke="none" stroke-width="1"></path><text transform="translate(232.73114,153.86913) scale(0.1858,0.1858)" font-size="40" xml:space="preserve" fill="#ffbb00" fill-rule="nonzero" stroke="none" stroke-width="2" stroke-linecap="butt" stroke-linejoin="miter" stroke-miterlimit="10" stroke-dasharray="" stroke-dashoffset="0" font-family="Sans Serif" font-weight="normal" text-anchor="start" style="mix-blend-mode: normal"><tspan x="0" dy="0">??:??</tspan></text></g></g></svg>