<svg version="1.1" xmlns="http://www.w3.org/2000/svg" xmlns:xlink="http://www.w3.org/1999/xlink" width="29.42495" height="8.19148" viewBox="0,0,29.42495,8.19148"><defs><linearGradient x1="235.82367" y1="180.77291" x2="235.80373" y2="182.13979" gradientUnits="userSpaceOnUse" id="color-1"><stop offset="0" stop-color="#949494"></stop><stop offset="1" stop-color="#5b5b5b"></stop></linearGradient><linearGradient x1="252.62594" y1="180.04295" x2="252.606" y2="181.40983" gradientUnits="userSpaceOnUse" id="color-2"><stop offset="0" stop-color="#4b4b4b"></stop><stop offset="1" stop-color="#7d7d7d"></stop></linearGradient><linearGradient x1="252.92835" y1="181.16613" x2="252.9084" y2="182.53301" gradientUnits="userSpaceOnUse" id="color-3"><stop offset="0" stop-color="#7d7d7d"></stop><stop offset="1" stop-color="#4b4b4b"></stop></linearGradient><linearGradient x1="235.93711" y1="179.4284" x2="235.91717" y2="180.79528" gradientUnits="userSpaceOnUse" id="color-4"><stop offset="0" stop-color="#5b5b5b"></stop><stop offset="1" stop-color="#949494"></stop></linearGradient><radialGradient cx="252.69337" cy="180.79755" r="2.26278" gradientUnits="userSpaceOnUse" id="color-5"><stop offset="0" stop-color="#ffffff"></stop><stop offset="1" stop-color="#8c8c8c"></stop></radialGradient></defs><g transform="translate(-225.28752,-175.90426)"><g data-paper-data="{&quot;isPaintingLayer&quot;:true}" fill-rule="nonzero" stroke-linejoin="miter" stroke-miterlimit="10" stroke-dasharray="" stroke-dashoffset="0" style="mix-blend-mode: normal"><g data-paper-data="{&quot;index&quot;:null}"><text transform="translate(252.04563,182.114) rotate(-177.86038) scale(0.1594,-0.13728) skewX(0.20771)" font-size="40" xml:space="preserve" fill="#000000" fill-rule="nonzero" stroke="none" stroke-width="1" stroke-linecap="butt" stroke-linejoin="miter" stroke-miterlimit="10" stroke-dasharray="" stroke-dashoffset="0" font-family="Serif" font-weight="normal" text-anchor="start" style="mix-blend-mode: normal"><tspan x="0" dy="0">xamt8</tspan></text><path d="M251.87249,183.46213l-25.0061,-0.88559l0.25504,-6.547l25.0061,0.88559z" fill="#5b5b5b" stroke="none" stroke-width="0" stroke-linecap="butt"></path><path d="M244.36435,182.28828l-17.12125,-0.29697l0.01994,-1.36688l17.12125,0.29697z" data-paper-data="{&quot;index&quot;:null}" fill="url(#color-1)" stroke="none" stroke-width="0" stroke-linecap="butt"></path><path d="M254.70575,180.02802c0.07972,1.22242 -0.57556,3.57064 -0.57556,3.57064c0,0 -0.06204,0.25332 -0.64427,0.37529c-0.46261,0.09691 -1.40257,0.06298 -1.83641,0.09559c-0.97384,0.07321 -3.38054,-0.03028 -3.38054,-0.03028c0,0 -1.46451,-0.30208 -2.35345,-0.96405c-0.36985,-0.27541 -0.88705,-0.64645 -1.09708,-0.98601c-0.3201,-0.51749 -0.24022,-1.01055 -0.30317,-1.3633c-0.08738,-0.48963 -0.11368,-1.01555 0.27913,-1.90095c0.11053,-0.24912 0.43167,-1.14178 0.57743,-1.31949c0.63417,-0.77318 1.66731,-0.79082 1.66731,-0.79082c0,0 4.43519,-0.73813 4.76984,-0.77566c0.1602,-0.01796 1.30128,0.16583 1.30128,0.16583c0,0 1.51524,2.6925 1.59549,3.92321z" fill="#4b4b4b" stroke="none" stroke-width="0" stroke-linecap="butt"></path><path d="M252.01294,181.53322l-7.65865,-0.35006l-0.28898,-1.28871l7.72071,0.52785z" fill="url(#color-2)" stroke="none" stroke-width="0" stroke-linecap="butt"></path><path d="M252.31535,182.65641l-7.65865,-0.35006l-0.28898,-1.28871l7.72071,0.52785z" data-paper-data="{&quot;index&quot;:null}" fill="url(#color-3)" stroke="none" stroke-width="0" stroke-linecap="butt"></path><path d="M244.47779,180.94377l-17.12125,-0.29697l0.01994,-1.36688l17.12125,0.29697z" fill="url(#color-4)" stroke="none" stroke-width="0" stroke-linecap="butt"></path><path d="M252.53373,180.94349c-0.13439,-1.24245 -0.73984,-3.81747 -0.40924,-3.84186c0.33061,-0.02439 1.65095,2.25297 1.78534,3.49542c0.13439,1.24245 -0.54548,2.57536 -0.87608,2.59976c-0.33061,0.02439 -0.36563,-1.01086 -0.50002,-2.25331z" fill="#000000" stroke="none" stroke-width="0" stroke-linecap="butt"></path><path d="M227.23787,179.34231c-0.04233,1.08671 0.84716,3.46119 0.84716,3.46119l-1.3075,-0.0463c0,0 -1.53496,-2.61031 -1.48899,-3.79029c0.04279,-1.0985 1.75595,-3.06265 1.75595,-3.06265l1.3075,0.0463c0,0 -1.06781,2.20326 -1.11411,3.39174z" fill="#000000" stroke="none" stroke-width="0" stroke-linecap="butt"></path><path d="M230.88289,176.10147c0,0 -0.66141,2.43553 -0.70546,3.56645c-0.04161,1.06822 0.44804,3.04173 0.44804,3.04173l-0.73547,-0.02605c0,0 -0.6078,-2.17242 -0.56459,-3.28152c0.0426,-1.0934 0.82201,-3.32667 0.82201,-3.32667l0.73547,0.02605z" fill="#454545" stroke="none" stroke-width="0" stroke-linecap="butt"></path><path d="M229.3724,176.0951c0,0 -0.66141,2.43553 -0.70546,3.56646c-0.04161,1.06822 0.44804,3.04173 0.44804,3.04173l-0.73547,-0.02605c0,0 -0.6078,-2.17241 -0.5646,-3.28151c0.0426,-1.0934 0.82201,-3.32667 0.82201,-3.32667l0.73547,0.02605z" fill="#454545" stroke="none" stroke-width="0" stroke-linecap="butt"></path><path d="M232.32504,176.2468c0,0 -0.66141,2.43553 -0.70546,3.56646c-0.04161,1.06822 0.44804,3.04173 0.44804,3.04173l-0.73547,-0.02605c0,0 -0.6078,-2.17241 -0.5646,-3.28151c0.0426,-1.0934 0.82201,-3.32667 0.82201,-3.32667l0.73547,0.02605z" fill="#454545" stroke="none" stroke-width="0" stroke-linecap="butt"></path><path d="M233.70614,176.34285c0,0 -0.66141,2.43553 -0.70546,3.56646c-0.04161,1.06822 0.44804,3.04173 0.44804,3.04173l-0.73547,-0.02605c0,0 -0.6078,-2.17241 -0.5646,-3.28151c0.0426,-1.0934 0.82201,-3.32667 0.82201,-3.32667l0.73547,0.02605z" fill="#454545" stroke="none" stroke-width="0" stroke-linecap="butt"></path><path d="M235.28317,176.25731c0,0 -0.66141,2.43553 -0.70546,3.56646c-0.04161,1.06822 0.44804,3.04173 0.44804,3.04173l-0.73547,-0.02605c0,0 -0.6078,-2.17241 -0.5646,-3.28151c0.0426,-1.0934 0.82201,-3.32667 0.82201,-3.32667l0.73547,0.02605z" fill="#454545" stroke="none" stroke-width="0" stroke-linecap="butt"></path><path d="M236.79,176.3578c0,0 -0.66141,2.43553 -0.70546,3.56646c-0.04161,1.06822 0.44804,3.04173 0.44804,3.04173l-0.73547,-0.02605c0,0 -0.6078,-2.17241 -0.5646,-3.28151c0.0426,-1.0934 0.82201,-3.32667 0.82201,-3.32667l0.73547,0.02605z" fill="#454545" stroke="none" stroke-width="0" stroke-linecap="butt"></path><path d="M252.09475,180.84172c-0.13439,-1.24245 -0.30086,-3.71571 0.02975,-3.7401c0.33061,-0.02439 1.21197,2.1512 1.34637,3.39365c0.13439,1.24245 -0.20354,2.52754 -0.53415,2.55193c-0.33061,0.02439 -0.70756,-0.96304 -0.84196,-2.20548z" fill="url(#color-5)" stroke="none" stroke-width="0" stroke-linecap="butt"></path><path d="M246.41826,183.20779l-0.63504,-0.34241l-1.25626,-1.09467l-0.20338,-1.03214l0.46525,-1.68508l0.66132,-1.44444l1.04951,-0.84607" fill="none" stroke="#000000" stroke-width="0.15" stroke-linecap="round"></path><path d="M247.93323,183.69519l-1.59226,-1.22249l-0.79218,-0.72835l-0.05555,-1.37915l0.64808,-2.06029l1.07519,-1.60722" fill="none" stroke="#000000" stroke-width="0.15" stroke-linecap="round"></path><path d="M249.01714,183.84662l-1.20013,-0.74122l-0.83112,-0.58304l-0.28463,-1.65014l0.32334,-1.51372l0.17748,-1.22526l0.97024,-1.52262" fill="none" stroke="#000000" stroke-width="0.15" stroke-linecap="round"></path><path d="M250.23899,183.94379l-1.52625,-1.1618l-0.49313,-0.51376l-0.45618,-0.60052l0.21048,-1.19491l0.35437,-1.42482l0.07846,-1.31631l0.79532,-1.3816" fill="none" stroke="#000000" stroke-width="0.15" stroke-linecap="round"></path><path d="M251.56779,183.8978l-0.78823,-0.84545l-0.55323,-0.75011l-0.38957,-1.56552l0.21107,-2.22062l0.79591,-2.4073" fill="none" stroke="#2f2f2f" stroke-width="0.15" stroke-linecap="round"></path><path d="M253.06754,183.8279l-0.37831,-0.89112l-0.70443,-1.3117l0.00629,-4.2199l0.31346,-1.22097" fill="none" stroke="#2f2f2f" stroke-width="0.15" stroke-linecap="round"></path><path d="M227.35196,176.78534c-0.08211,0.0662 -0.21149,0.06211 -0.28896,-0.00912c-0.07748,-0.07123 -0.07372,-0.18264 0.0084,-0.24884c0.08211,-0.0662 0.21149,-0.06211 0.28896,0.00912c0.07748,0.07123 0.07372,0.18264 -0.0084,0.24884z" fill="#454545" stroke="none" stroke-width="0.5" stroke-linecap="butt"></path><path d="M227.42728,177.57899c-0.08211,0.0662 -0.21149,0.06211 -0.28896,-0.00912c-0.07748,-0.07123 -0.07372,-0.18264 0.0084,-0.24884c0.08211,-0.0662 0.21149,-0.06211 0.28896,0.00912c0.07748,0.07123 0.07372,0.18264 -0.0084,0.24884z" fill="#454545" stroke="none" stroke-width="0.5" stroke-linecap="butt"></path><path d="M226.77444,177.76353c-0.08211,0.0662 -0.21149,0.06211 -0.28896,-0.00912c-0.07748,-0.07123 -0.07372,-0.18264 0.0084,-0.24884c0.08211,-0.0662 0.21149,-0.06211 0.28896,0.00912c0.07748,0.07123 0.07372,0.18264 -0.0084,0.24884z" fill="#454545" stroke="none" stroke-width="0.5" stroke-linecap="butt"></path><path d="M226.53293,178.86955c-0.08211,0.0662 -0.21149,0.06211 -0.28896,-0.00912c-0.07748,-0.07123 -0.07372,-0.18264 0.0084,-0.24884c0.08211,-0.0662 0.21149,-0.06211 0.28896,0.00912c0.07748,0.07123 0.07372,0.18264 -0.0084,0.24884z" fill="#454545" stroke="none" stroke-width="0.5" stroke-linecap="butt"></path><path d="M225.99888,178.55963c-0.08211,0.0662 -0.21149,0.06211 -0.28896,-0.00912c-0.07748,-0.07123 -0.07372,-0.18264 0.0084,-0.24884c0.08211,-0.0662 0.21149,-0.06211 0.28896,0.00912c0.07748,0.07123 0.07372,0.18264 -0.0084,0.24884z" fill="#454545" stroke="none" stroke-width="0.5" stroke-linecap="butt"></path><path d="M226.79362,178.20373c-0.08211,0.0662 -0.21149,0.06211 -0.28896,-0.00912c-0.07748,-0.07123 -0.07372,-0.18264 0.0084,-0.24884c0.08211,-0.0662 0.21149,-0.06211 0.28896,0.00912c0.07748,0.07123 0.07372,0.18264 -0.0084,0.24884z" fill="#454545" stroke="none" stroke-width="0.5" stroke-linecap="butt"></path><path d="M226.61951,180.33759c-0.08211,0.0662 -0.21149,0.06211 -0.28896,-0.00912c-0.07748,-0.07123 -0.07372,-0.18264 0.0084,-0.24884c0.08211,-0.0662 0.21149,-0.06211 0.28896,0.00912c0.07748,0.07123 0.07372,0.18264 -0.0084,0.24884z" fill="#454545" stroke="none" stroke-width="0.5" stroke-linecap="butt"></path><path d="M226.16729,179.61997c-0.08211,0.0662 -0.21149,0.06211 -0.28896,-0.00912c-0.07748,-0.07123 -0.07372,-0.18264 0.0084,-0.24884c0.08211,-0.0662 0.21149,-0.06211 0.28896,0.00912c0.07748,0.07123 0.07372,0.18264 -0.0084,0.24884z" fill="#454545" stroke="none" stroke-width="0.5" stroke-linecap="butt"></path><path d="M226.80431,179.90383c-0.08211,0.0662 -0.21149,0.06211 -0.28896,-0.00912c-0.07748,-0.07123 -0.07372,-0.18264 0.0084,-0.24884c0.08211,-0.0662 0.21149,-0.06211 0.28896,0.00912c0.07748,0.07123 0.07372,0.18264 -0.0084,0.24884z" fill="#454545" stroke="none" stroke-width="0.5" stroke-linecap="butt"></path><path d="M227.18597,181.70356c-0.08211,0.0662 -0.21149,0.06211 -0.28896,-0.00912c-0.07748,-0.07123 -0.07372,-0.18264 0.0084,-0.24884c0.08211,-0.0662 0.21149,-0.06211 0.28896,0.00912c0.07748,0.07123 0.07372,0.18264 -0.0084,0.24884z" fill="#454545" stroke="none" stroke-width="0.5" stroke-linecap="butt"></path><path d="M226.83475,181.01843c-0.08211,0.0662 -0.21149,0.06211 -0.28896,-0.00912c-0.07748,-0.07123 -0.07372,-0.18264 0.0084,-0.24884c0.08211,-0.0662 0.21149,-0.06211 0.28896,0.00912c0.07748,0.07123 0.07372,0.18264 -0.0084,0.24884z" fill="#454545" stroke="none" stroke-width="0.5" stroke-linecap="butt"></path><path d="M226.88832,182.45613c-0.08211,0.0662 -0.21149,0.06211 -0.28896,-0.00912c-0.07748,-0.07123 -0.07372,-0.18264 0.0084,-0.24884c0.08211,-0.0662 0.21149,-0.06211 0.28896,0.00912c0.07748,0.07123 0.07372,0.18264 -0.0084,0.24884z" fill="#454545" stroke="none" stroke-width="0.5" stroke-linecap="butt"></path><path d="M227.46526,182.50363c-0.08211,0.0662 -0.21149,0.06211 -0.28896,-0.00912c-0.07748,-0.07123 -0.07372,-0.18264 0.0084,-0.24884c0.08211,-0.0662 0.21149,-0.06211 0.28896,0.00912c0.07748,0.07123 0.07372,0.18264 -0.0084,0.24884z" fill="#454545" stroke="none" stroke-width="0.5" stroke-linecap="butt"></path><path d="M226.48491,181.30045c-0.08211,0.0662 -0.21149,0.06211 -0.28896,-0.00912c-0.07748,-0.07123 -0.07372,-0.18264 0.0084,-0.24884c0.08211,-0.0662 0.21149,-0.06211 0.28896,0.00912c0.07748,0.07123 0.07372,0.18264 -0.0084,0.24884z" fill="#454545" stroke="none" stroke-width="0.5" stroke-linecap="butt"></path></g></g></g></svg>