<svg version="1.1" xmlns="http://www.w3.org/2000/svg" xmlns:xlink="http://www.w3.org/1999/xlink" width="29.69212" height="36.29381" viewBox="0,0,29.69212,36.29381"><g transform="translate(-63.99986,-6.72161)"><g data-paper-data="{&quot;isPaintingLayer&quot;:true}" fill-rule="nonzero" stroke-linecap="butt" stroke-linejoin="miter" stroke-miterlimit="10" stroke-dasharray="" stroke-dashoffset="0" style="mix-blend-mode: normal"><path d="M64.99987,31.06216c0,-5.7282 0,-15.6151 0,-18.88251c0,-2.06504 0.87292,-4.45804 1.84235,-4.45804c2.98321,0 18.51126,0 23.95871,0c1.18338,0 1.89105,1.65955 1.89105,4.11262c0,5.78032 0,15.96659 0,19.22792c0,1.97707 -0.72717,4.22776 -1.93975,4.22776c-5.47769,0 -20.86091,0 -23.86132,0c-0.99211,0 -1.89105,-1.71318 -1.89105,-4.22776z" fill-opacity="0.62097" fill="#291800" stroke="#fff4ce" stroke-width="2"></path><g><text transform="translate(72.82031,29.29582) scale(0.10885,0.10885)" font-size="40" xml:space="preserve" fill="#ffffff" fill-rule="nonzero" stroke="none" stroke-width="1" stroke-linecap="butt" stroke-linejoin="miter" stroke-miterlimit="10" stroke-dasharray="" stroke-dashoffset="0" font-family="Sans Serif" font-weight="normal" text-anchor="start" style="mix-blend-mode: normal"><tspan x="0" dy="0">xAmt8</tspan></text><path d="M85.95,21.2983c0,3.87126 -3.11212,7.00953 -6.95112,7.00953c-3.839,0 -6.95112,-3.13827 -6.95112,-7.00953c0,-3.87126 3.11212,-7.00953 6.95112,-7.00953c3.839,0 6.95112,3.13827 6.95112,7.00953z" fill="none" stroke="#fff4ce" stroke-width="4.5"></path><path d="M77.32173,13.6818c0.02129,-1.04433 0.05803,-2.84684 0.07018,-3.44253c0.00767,-0.37648 0.11842,-0.81068 0.23153,-0.80838c0.34807,0.0071 2.15984,0.04403 2.79544,0.05699c0.13807,0.00281 0.21448,0.30706 0.20536,0.75428c-0.02148,1.05383 -0.05934,2.91092 -0.07146,3.50551c-0.00735,0.36045 -0.10056,0.76905 -0.24204,0.76616c-0.63912,-0.01303 -2.43399,-0.04962 -2.78407,-0.05675c-0.11576,-0.00236 -0.21428,-0.31683 -0.20493,-0.77527z" fill="#fff4ce" stroke="#fff4ce" stroke-width="1"></path><path d="M83.51321,14.65259c0.74608,-0.73105 2.0338,-1.99286 2.45937,-2.40986c0.26896,-0.26355 0.65194,-0.49619 0.73112,-0.41538c0.24366,0.24867 1.51194,1.54301 1.95688,1.99709c0.09666,0.09864 -0.06169,0.36943 -0.3812,0.6825c-0.75286,0.73771 -2.07959,2.03772 -2.50437,2.45394c-0.2575,0.25232 -0.61004,0.47895 -0.70908,0.37787c-0.4474,-0.4566 -1.70386,-1.73887 -1.94892,-1.98897c-0.08103,-0.0827 0.06868,-0.37627 0.39619,-0.69719z" fill="#fff4ce" stroke="#fff4ce" stroke-width="1"></path><path d="M86.85814,19.79097c1.04454,0.00039 2.84743,0.00105 3.44325,0.00128c0.37656,0.00014 0.81289,0.10217 0.81285,0.21531c-0.00013,0.34815 -0.0008,2.16029 -0.00104,2.79602c-0.00005,0.1381 -0.3027,0.22058 -0.75002,0.22041c-1.05404,-0.00039 -2.91153,-0.00108 -3.50624,-0.0013c-0.36052,-0.00013 -0.7709,-0.08515 -0.77085,-0.22666c0.00024,-0.63926 0.0009,-2.4345 0.00103,-2.78465c0.00005,-0.11578 0.31248,-0.22057 0.77102,-0.2204z" fill="#fff4ce" stroke="#fff4ce" stroke-width="1"></path><path d="M68.16605,19.51059c1.04454,0.00039 2.84743,0.00105 3.44325,0.00128c0.37657,0.00014 0.8129,0.10217 0.81285,0.2153c-0.00013,0.34814 -0.0008,2.16029 -0.00104,2.79602c-0.00005,0.1381 -0.3027,0.22058 -0.75002,0.22041c-1.05405,-0.00039 -2.91152,-0.00108 -3.50623,-0.0013c-0.36052,-0.00013 -0.7709,-0.08515 -0.77085,-0.22666c0.00023,-0.63926 0.0009,-2.4345 0.00103,-2.78465c0.00005,-0.11578 0.31248,-0.22057 0.77102,-0.2204z" fill="#fff4ce" stroke="#fff4ce" stroke-width="1"></path><path d="M74.8126,14.27875c0.32751,0.32092 0.47722,0.61449 0.39619,0.69719c-0.24506,0.2501 -1.50152,1.53237 -1.94892,1.98897c-0.09904,0.10107 -0.45158,-0.12555 -0.70908,-0.37787c-0.42478,-0.41623 -1.7515,-1.71624 -2.50437,-2.45394c-0.3195,-0.31307 -0.47785,-0.58386 -0.3812,-0.6825c0.44493,-0.45408 1.71321,-1.74842 1.95687,-1.99709c0.07918,-0.08081 0.46216,0.15184 0.73112,0.41538c0.42557,0.417 1.7133,1.67881 2.45938,2.40986z" data-paper-data="{&quot;index&quot;:null}" fill="#fff4ce" stroke="#fff4ce" stroke-width="1"></path><path d="M77.41519,29.47556c-0.00935,-0.45844 0.08918,-0.77291 0.20493,-0.77527c0.35008,-0.00714 2.14495,-0.04373 2.78407,-0.05675c0.14148,-0.00288 0.23469,0.40572 0.24204,0.76616c0.01212,0.59459 0.04998,2.45168 0.07146,3.50551c0.00912,0.44723 -0.06729,0.75147 -0.20536,0.75428c-0.6356,0.01296 -2.44736,0.04989 -2.79544,0.05699c-0.11311,0.0023 -0.22386,-0.43189 -0.23153,-0.80838c-0.01215,-0.59569 -0.04888,-2.3982 -0.07017,-3.44253z" data-paper-data="{&quot;index&quot;:null}" fill="#fff4ce" stroke="#fff4ce" stroke-width="1"></path><path d="M83.60667,27.944c-0.32751,-0.32092 -0.47722,-0.61449 -0.39619,-0.69719c0.24506,-0.2501 1.50152,-1.53237 1.94892,-1.98897c0.09904,-0.10107 0.45158,0.12555 0.70908,0.37787c0.42478,0.41623 1.7515,1.71624 2.50437,2.45394c0.3195,0.31307 0.47785,0.58386 0.3812,0.6825c-0.44493,0.45408 -1.71321,1.74842 -1.95687,1.99709c-0.07918,0.08081 -0.46216,-0.15184 -0.73112,-0.41538c-0.42557,-0.417 -1.7133,-1.67881 -2.45938,-2.40986z" data-paper-data="{&quot;index&quot;:null}" fill="#fff4ce" stroke="#fff4ce" stroke-width="1"></path><path d="M74.06492,27.85054c-0.74608,0.73105 -2.03381,1.99286 -2.45938,2.40986c-0.26897,0.26355 -0.65194,0.49619 -0.73112,0.41538c-0.24366,-0.24867 -1.51194,-1.54301 -1.95687,-1.99709c-0.09666,-0.09864 0.06169,-0.36943 0.3812,-0.6825c0.75286,-0.73771 2.07959,-2.03772 2.50437,-2.45394c0.2575,-0.25232 0.61004,-0.47895 0.70908,-0.37787c0.4474,0.4566 1.70386,1.73887 1.94892,1.98897c0.08103,0.0827 -0.06868,0.37627 -0.39619,0.69719z" data-paper-data="{&quot;index&quot;:null}" fill="#fff4ce" stroke="#fff4ce" stroke-width="1"></path></g><text transform="translate(68.78753,41.31089) scale(0.14822,0.14822)" font-size="40" xml:space="preserve" fill="#fff4ce" fill-rule="nonzero" stroke="none" stroke-width="1" stroke-linecap="butt" stroke-linejoin="miter" stroke-miterlimit="10" stroke-dasharray="" stroke-dashoffset="0" font-family="Serif" font-weight="normal" text-anchor="start" style="mix-blend-mode: normal"><tspan x="0" dy="0">Settings</tspan></text></g></g></svg>