<svg version="1.1" xmlns="http://www.w3.org/2000/svg" xmlns:xlink="http://www.w3.org/1999/xlink" width="54.97785" height="56.5031" viewBox="0,0,54.97785,56.5031"><defs><linearGradient x1="227.94593" y1="176.72318" x2="231.71753" y2="178.52924" gradientUnits="userSpaceOnUse" id="color-1"><stop offset="0" stop-color="#dab03b"></stop><stop offset="1" stop-color="#ffce46"></stop></linearGradient><linearGradient x1="246.35203" y1="171.84722" x2="246.35203" y2="196.75195" gradientUnits="userSpaceOnUse" id="color-2"><stop offset="0" stop-color="#ddb958"></stop><stop offset="1" stop-color="#c2a34e"></stop></linearGradient><radialGradient cx="247.82505" cy="167.61167" r="9.94206" gradientUnits="userSpaceOnUse" id="color-3"><stop offset="0" stop-color="#ffffff" stop-opacity="0.59003"></stop><stop offset="1" stop-color="#ffffff" stop-opacity="0"></stop></radialGradient></defs><g transform="translate(-209.71182,-148.23634)"><g data-paper-data="{&quot;isPaintingLayer&quot;:true}" fill-rule="nonzero" stroke-linecap="butt" stroke-linejoin="miter" stroke-miterlimit="10" stroke-dasharray="" stroke-dashoffset="0" style="mix-blend-mode: normal"><path d="M215.99756,196.45829c0,-9.86526 0,-26.89275 0,-32.51997c0,-3.55647 1.50337,-7.67776 3.17295,-7.67776c5.13777,0 31.88059,0 41.26234,0c2.03805,0 3.25682,2.85812 3.25682,7.08287c0,9.95502 0,27.49809 0,33.11485c0,3.40496 -1.25235,7.28116 -3.34069,7.28116c-9.43383,0 -35.92722,0 -41.09461,0c-1.70864,0 -3.25682,-2.95049 -3.25682,-7.28116z" fill-opacity="0.62097" fill="#291800" stroke="#d6cdad" stroke-width="2"></path><g><path d="M212.21183,162.03501c0,-2.30933 0,-6.29523 0,-7.61249c0,-0.83253 0.35192,-1.79726 0.74274,-1.79726c1.20269,0 7.46283,0 9.65897,0c0.47708,0 0.76238,0.66905 0.76238,1.65801c0,2.33034 0,6.43694 0,7.75175c0,0.79706 -0.29315,1.70443 -0.78201,1.70443c-2.20834,0 -8.41009,0 -9.61971,0c-0.39997,0 -0.76238,-0.69067 -0.76238,-1.70443z" fill-opacity="0.47425" fill="#000000" stroke="#fff4ce" stroke-width="0"></path><path d="M210.21183,159.89216c0,-2.30933 0,-6.29523 0,-7.61249c0,-0.83253 0.35192,-1.79726 0.74274,-1.79726c1.20269,0 7.46283,0 9.65897,0c0.47708,0 0.76238,0.66904 0.76238,1.658c0,2.33034 0,6.43695 0,7.75176c0,0.79706 -0.29315,1.70443 -0.78201,1.70443c-2.20834,0 -8.41009,0 -9.61971,0c-0.39997,0 -0.76238,-0.69067 -0.76238,-1.70443z" fill-opacity="0.88705" fill="#291800" stroke="#fff4ce" stroke-width="1"></path><text transform="translate(213.20212,159.88738) scale(0.26784,0.26784)" font-size="40" xml:space="preserve" fill="#fff4ce" fill-rule="nonzero" stroke="none" stroke-width="1" stroke-linecap="butt" stroke-linejoin="miter" stroke-miterlimit="10" stroke-dasharray="" stroke-dashoffset="0" font-family="Sans Serif" font-weight="normal" text-anchor="start" style="mix-blend-mode: normal"><tspan x="0" dy="0">2</tspan></text></g><g stroke="none"><text transform="translate(230.69708,182.70802) scale(0.14976,0.14976)" font-size="40" xml:space="preserve" fill="#cacaca" fill-rule="nonzero" stroke="none" stroke-width="1" stroke-linecap="butt" stroke-linejoin="miter" stroke-miterlimit="10" stroke-dasharray="" stroke-dashoffset="0" font-family="Sans Serif" font-weight="normal" text-anchor="start" style="mix-blend-mode: normal"><tspan x="0" dy="0">xamt8</tspan></text><path d="M255.90114,172.60102c-0.85327,2.0626 -6.31337,1.95872 -12.19546,-0.23201c-5.88209,-2.19073 -9.95875,-5.63874 -9.10548,-7.70134c0.85327,-2.0626 6.31337,-1.95872 12.19546,0.23201c5.88209,2.19073 9.95875,5.63873 9.10548,7.70134z" fill="#ffffff" stroke-width="0"></path><path d="M229.13838,176.20785l-0.58335,-5.44185l1.18337,-0.26497l0.58335,5.44185z" fill="#000000" stroke-width="0"></path><path d="M229.18328,171.45089c0,0 -0.927,-1.28742 -0.74901,-1.72497c0.19579,-0.4813 1.87541,-1.04408 1.87541,-1.04408l3.78923,1.54138l-1.1264,2.76906z" fill="#000000" stroke-width="0"></path><path d="M222.59118,186.64318l11.65353,-21.1483l3.7716,1.80606l-11.65353,22.60196c0,0 -1.87528,0.67762 -2.71087,0.33184c-0.71857,-0.29736 -1.06073,-3.59155 -1.06073,-3.59155z" fill="url(#color-1)" stroke-width="0"></path><path d="M236.66367,195.17051l11.20744,-23.32328l8.16928,0.93153l-8.53272,22.85127c0,0 -4.67483,1.2622 -6.02602,1.08057c-1.67069,-0.22458 -4.81797,-1.54009 -4.81797,-1.54009z" fill="url(#color-2)" stroke-width="0"></path><path d="M225.08999,190.54632l9.60634,-24.28699l16.2401,6.42351l-9.60634,24.287c0,0 -7.44956,-0.30823 -10.31275,-1.44072c-1.56961,-0.62083 -3.50363,-2.42492 -4.72647,-3.68257c-0.72567,-0.74633 -1.20089,-1.30023 -1.20089,-1.30023z" fill="#e7c25c" stroke-width="none"></path><path d="M225.05523,191.29825l9.60634,-24.28699l8.68782,3.43633c-0.27068,0.52753 -0.49585,1.08226 -0.67032,1.659c-1.95143,3.90286 -2.01966,8.1793 -4.32227,12.10593c-2.49716,4.25839 -4.55665,7.51809 -6.58293,11.75568c-0.00153,-0.00061 -0.00307,-0.15855 -0.0046,-0.15915c-1.56961,-0.62083 -4.29031,-1.95291 -5.51315,-3.21057c-0.72567,-0.74633 -1.20089,-1.30023 -1.20089,-1.30023z" fill="#ffdd7f" stroke-width="none"></path><path d="M233.28444,169.56637l1.71222,-3.54119l15.76947,7.49859l-2.02689,4.01319z" fill="#f2d074" stroke-width="0"></path><path d="M230.76842,181.70181l4.59719,-8.21033l1.7109,0.32641l-5.38387,8.68233z" fill="#000000" stroke-width="0"></path><path d="M256.96774,172.40893c-0.85327,2.0626 -6.31337,1.95873 -12.19546,-0.232c-5.88209,-2.19073 -11.06011,-5.0094 -10.20683,-7.072c0.85327,-2.0626 7.41472,-2.58806 13.29681,-0.39733c5.88209,2.19073 9.95875,5.63873 9.10548,7.70134zM245.32934,169.61167c1.10457,0 9.86681,3.03797 9.86681,1.9334c0,-0.35987 0.07371,-1.711 -0.92586,-2.52068c-2.06847,-1.67551 -7.88157,-4.19941 -8.62627,-4.19941c-0.65269,0 -5.60264,-0.96098 -7.22625,-0.74696c-1.12407,0.14817 -0.12318,1.19374 -0.12318,1.64561c0,1.10457 5.93018,3.88804 7.03475,3.88804z" fill="#252525" stroke-width="0"></path><path d="M257.2954,170.63772c-0.80702,1.89979 -5.70125,2.08506 -10.93159,0.41382c-5.23033,-1.67124 -8.81614,-4.56614 -8.00912,-6.46592c0.80702,-1.89979 5.70126,-2.08506 10.93159,-0.41382c5.23033,1.67124 8.81614,4.56613 8.00911,6.46592z" fill="url(#color-3)" stroke-width="0"></path></g></g></g></svg>