<svg version="1.1" xmlns="http://www.w3.org/2000/svg" xmlns:xlink="http://www.w3.org/1999/xlink" width="18.91474" height="6.59868" viewBox="0,0,18.91474,6.59868"><defs><linearGradient x1="235.52822" y1="178.30153" x2="236.20956" y2="178.30153" gradientUnits="userSpaceOnUse" id="color-1"><stop offset="0" stop-color="#f86b00"></stop><stop offset="1" stop-color="#ff8800"></stop></linearGradient><linearGradient x1="235.50201" y1="179.1925" x2="236.02611" y2="179.1925" gradientUnits="userSpaceOnUse" id="color-2"><stop offset="0" stop-color="#f86b00"></stop><stop offset="1" stop-color="#ff8800"></stop></linearGradient><linearGradient x1="235.4234" y1="180.00487" x2="236.05233" y2="180.00487" gradientUnits="userSpaceOnUse" id="color-3"><stop offset="0" stop-color="#f86b00"></stop><stop offset="1" stop-color="#ff8800"></stop></linearGradient><linearGradient x1="236.31438" y1="178.40635" x2="236.99571" y2="178.40635" gradientUnits="userSpaceOnUse" id="color-4"><stop offset="0" stop-color="#f86b00"></stop><stop offset="1" stop-color="#ff8800"></stop></linearGradient><linearGradient x1="236.28819" y1="179.29733" x2="236.81229" y2="179.29733" gradientUnits="userSpaceOnUse" id="color-5"><stop offset="0" stop-color="#f86b00"></stop><stop offset="1" stop-color="#ff8800"></stop></linearGradient><linearGradient x1="236.20956" y1="180.10969" x2="236.83849" y2="180.10969" gradientUnits="userSpaceOnUse" id="color-6"><stop offset="0" stop-color="#f86b00"></stop><stop offset="1" stop-color="#ff8800"></stop></linearGradient><linearGradient x1="237.04813" y1="178.45876" x2="237.72946" y2="178.45876" gradientUnits="userSpaceOnUse" id="color-7"><stop offset="0" stop-color="#f86b00"></stop><stop offset="1" stop-color="#ff8800"></stop></linearGradient><linearGradient x1="237.02193" y1="179.34974" x2="237.54603" y2="179.34974" gradientUnits="userSpaceOnUse" id="color-8"><stop offset="0" stop-color="#f86b00"></stop><stop offset="1" stop-color="#ff8800"></stop></linearGradient><linearGradient x1="236.94331" y1="180.16211" x2="237.57223" y2="180.16211" gradientUnits="userSpaceOnUse" id="color-9"><stop offset="0" stop-color="#f86b00"></stop><stop offset="1" stop-color="#ff8800"></stop></linearGradient><linearGradient x1="242.36781" y1="179.06147" x2="243.04915" y2="179.06147" gradientUnits="userSpaceOnUse" id="color-10"><stop offset="0" stop-color="#f86b00"></stop><stop offset="1" stop-color="#ff8800"></stop></linearGradient><linearGradient x1="242.3416" y1="179.95247" x2="242.86572" y2="179.95247" gradientUnits="userSpaceOnUse" id="color-11"><stop offset="0" stop-color="#f86b00"></stop><stop offset="1" stop-color="#ff8800"></stop></linearGradient><linearGradient x1="242.26299" y1="180.76484" x2="242.89192" y2="180.76484" gradientUnits="userSpaceOnUse" id="color-12"><stop offset="0" stop-color="#f86b00"></stop><stop offset="1" stop-color="#ff8800"></stop></linearGradient><linearGradient x1="243.20638" y1="179.06147" x2="243.88771" y2="179.06147" gradientUnits="userSpaceOnUse" id="color-13"><stop offset="0" stop-color="#f86b00"></stop><stop offset="1" stop-color="#ff8800"></stop></linearGradient><linearGradient x1="243.18018" y1="179.95247" x2="243.70429" y2="179.95247" gradientUnits="userSpaceOnUse" id="color-14"><stop offset="0" stop-color="#f86b00"></stop><stop offset="1" stop-color="#ff8800"></stop></linearGradient><linearGradient x1="243.10155" y1="180.76484" x2="243.73048" y2="180.76484" gradientUnits="userSpaceOnUse" id="color-15"><stop offset="0" stop-color="#f86b00"></stop><stop offset="1" stop-color="#ff8800"></stop></linearGradient><linearGradient x1="243.80911" y1="179.1139" x2="244.49044" y2="179.1139" gradientUnits="userSpaceOnUse" id="color-16"><stop offset="0" stop-color="#f86b00"></stop><stop offset="1" stop-color="#ff8800"></stop></linearGradient><linearGradient x1="243.78289" y1="180.00487" x2="244.307" y2="180.00487" gradientUnits="userSpaceOnUse" id="color-17"><stop offset="0" stop-color="#f86b00"></stop><stop offset="1" stop-color="#ff8800"></stop></linearGradient><linearGradient x1="243.70429" y1="180.81725" x2="244.33321" y2="180.81725" gradientUnits="userSpaceOnUse" id="color-18"><stop offset="0" stop-color="#f86b00"></stop><stop offset="1" stop-color="#ff8800"></stop></linearGradient></defs><g transform="translate(-232.54655,-175.22175)"><g data-paper-data="{&quot;isPaintingLayer&quot;:true}" fill-rule="nonzero" stroke-linecap="butt" stroke-linejoin="miter" stroke-miterlimit="10" stroke-dasharray="" stroke-dashoffset="0" style="mix-blend-mode: normal"><path d="M245.46928,178.86154c0,0 2.27674,-0.89207 2.88133,-1.64342c0.67789,-0.84242 2.38347,-1.99637 2.38347,-1.99637l0.72722,0.71803c0,0 -0.75811,2.46842 -1.72479,3.68844c-0.82952,1.04693 -4.22966,1.30126 -4.22966,1.30126z" fill="#313131" stroke="none" stroke-width="0"></path><text transform="translate(236.04156,179.44505) scale(0.04793,0.04793)" font-size="40" xml:space="preserve" fill="#9966ff" fill-rule="nonzero" stroke="none" stroke-width="1" stroke-linecap="butt" stroke-linejoin="miter" stroke-miterlimit="10" stroke-dasharray="" stroke-dashoffset="0" font-family="Sans Serif" font-weight="normal" text-anchor="start" style="mix-blend-mode: normal"><tspan x="0" dy="0">xamt8</tspan></text><path d="M233.11732,179.44146c0,0 -0.46824,-0.37086 -0.54679,-0.68074c-0.0808,-0.3188 0.06855,-1.20605 0.06855,-1.20605c0,0 0.92304,0.24084 1.48219,0.2671c0.70727,0.03323 2.55998,-0.00505 2.55998,-0.00505l0.03275,2.59432c0,0 -1.68786,-0.28826 -2.234,-0.28826c-0.59411,0 -1.36267,-0.68134 -1.36267,-0.68134z" fill="#313131" stroke="none" stroke-width="0"></path><path d="M237.96532,178.23602v-0.94341h4.24526v0.94341z" fill="#ab4a00" stroke="none" stroke-width="0"></path><path d="M242.39463,178.78841l-0.48167,-1.43548l0.48043,-0.27207l0.48169,1.43548z" data-paper-data="{&quot;index&quot;:null}" fill="#e66909" stroke="none" stroke-width="0"></path><path d="M232.58432,177.6284c0,0 0.05624,-0.39252 0.12548,-0.42141c0.05154,-0.02149 0.25275,0.2636 0.25275,0.2636l2.47377,0.41389l-0.02447,0.09386z" fill="#595959" stroke="none" stroke-width="0"></path><path d="M237.22221,178.0811l0.48167,-1.10502l0.48043,0.20942l-0.48167,1.10503z" fill="#e66909" stroke="none" stroke-width="0"></path><path d="M245.84509,179.8901c0,0.77405 -0.22029,1.40154 -0.49203,1.40154c-0.27174,0 -0.49203,-0.62748 -0.49203,-1.40154c0,-0.77405 0.22029,-1.40152 0.49203,-1.40152c0.27174,0 0.49203,0.62748 0.49203,1.40152z" fill="#ffa63f" stroke="none" stroke-width="0"></path><path d="M239.93749,181.52119c0,0 0.6033,-0.79161 0.66423,-1.21718c0.02595,-0.1812 -0.37636,-0.638 -0.76405,-1.09533c-0.17493,-0.20634 -0.95124,-0.20044 -1.35817,-0.32055c-0.25033,-0.07388 -0.21259,-0.28813 -0.24904,-0.35386c-0.02015,-0.03633 0.17232,-0.89296 0.36874,-0.90547c0.4628,-0.02945 2.29254,0.43917 2.29254,0.43917l4.41982,0.38765c0,0 -0.36556,1.08937 -0.35522,1.58465c0.00945,0.45324 0.41484,1.27214 0.41484,1.27214z" fill="#ff8800" stroke="none" stroke-width="0"></path><path d="M240.58462,180.29341c0,0.84333 -0.63655,1.52702 -1.42179,1.52702c-0.78522,0 -1.42177,-0.68369 -1.42177,-1.52702c0,-0.84333 0.63655,-1.527 1.42177,-1.527c0.78522,0 1.42179,0.68367 1.42179,1.527z" fill="#e56300" stroke="#000000" stroke-width="0"></path><path d="M240.71513,179.88538c-0.01113,0.14661 -0.06133,0.28318 -0.14247,0.40436c-0.2875,-0.404 -0.74573,-0.68205 -1.27881,-0.72251c-0.48761,-0.03702 -0.94328,0.13191 -1.28165,0.4334c-0.03453,-0.10366 -0.04914,-0.21244 -0.04071,-0.32355c0.04381,-0.57727 0.69354,-0.99859 1.45119,-0.94108c0.75763,0.05752 1.33629,0.57209 1.29248,1.14936z" fill="#ffa63f" stroke="none" stroke-width="0"></path><path d="M239.20504,179.63385c0.32489,-0.13236 0.46997,0.0837 0.65514,0.40902c0.18517,0.32533 0.13158,0.51744 -0.1933,0.64979c-0.32489,0.13236 -0.52962,0.09523 -0.71478,-0.23012c-0.18517,-0.32533 -0.07193,-0.69636 0.25293,-0.82871z" fill="#ffffff" stroke="#000000" stroke-width="0"></path><path d="M235.50122,180.31119c0,0 -0.49929,-0.97532 -0.50963,-1.43062c-0.00945,-0.41586 0.44998,-1.19354 0.44998,-1.19354l3.18351,-0.0262c0,0 0.1374,0.58452 -0.00403,0.96843c-0.19121,0.51903 -1.09206,1.89065 -1.09206,1.89065z" fill="#ff8800" stroke="none" stroke-width="0"></path><path d="M239.66329,179.99676c0,0.08596 -0.05419,0.15567 -0.12107,0.15567c-0.06687,0 -0.12108,-0.0697 -0.12108,-0.15567c0,-0.08596 0.05421,-0.15565 0.12108,-0.15565c0.06687,0 0.12107,0.06969 0.12107,0.15565z" fill="#fff07d" stroke="none" stroke-width="0"></path><path d="M240.07043,180.81135c-0.25887,0.38445 -0.73904,0.5664 -1.18145,0.4134c-0.48688,-0.16837 -0.75912,-0.68399 -0.65425,-1.19471" fill="none" stroke="#af4c00" stroke-width="0.2"></path><g stroke="none" stroke-width="0"><path d="M235.52822,178.5767l0.23584,-0.55032h0.4455l-0.20964,0.55032z" fill="url(#color-1)"></path><path d="M235.50201,179.46768v-0.5503h0.5241v0.5503z" fill="url(#color-2)"></path><path d="M235.60683,180.22761l-0.18343,-0.49789l0.49791,0.0262l0.13103,0.5241c0,0 -0.10561,-0.01243 -0.16879,-0.01985c-0.0809,-0.00951 -0.27671,-0.03256 -0.27671,-0.03256z" fill="url(#color-3)"></path></g><g stroke="none" stroke-width="0"><path d="M236.31438,178.6815l0.23586,-0.55032h0.4455l-0.20964,0.55032z" fill="url(#color-4)"></path><path d="M236.28819,179.5725v-0.55032h0.5241v0.55032z" fill="url(#color-5)"></path><path d="M236.39299,180.33244l-0.18343,-0.49791l0.49791,0.02622l0.13103,0.5241c0,0 -0.10559,-0.01243 -0.16877,-0.01985c-0.0809,-0.00951 -0.27673,-0.03254 -0.27673,-0.03254z" fill="url(#color-6)"></path></g><g stroke="none" stroke-width="0"><path d="M237.04813,178.73393l0.23584,-0.55032h0.4455l-0.20964,0.55032z" fill="url(#color-7)"></path><path d="M237.02193,179.62491v-0.55032h0.5241v0.55032z" fill="url(#color-8)"></path><path d="M237.12675,180.38484l-0.18343,-0.49791l0.49791,0.02622l0.13103,0.5241c0,0 -0.10559,-0.01243 -0.16877,-0.01985c-0.0809,-0.00951 -0.27673,-0.03256 -0.27673,-0.03256z" fill="url(#color-9)"></path></g><g stroke="none" stroke-width="0"><path d="M242.36781,179.33664l0.23586,-0.5503h0.44548l-0.20964,0.5503z" fill="url(#color-10)"></path><path d="M242.3416,180.22761v-0.5503h0.5241v0.5503z" fill="url(#color-11)"></path><path d="M242.44642,180.98757l-0.18343,-0.49791l0.49791,0.0262l0.13103,0.5241c0,0 -0.10559,-0.01241 -0.16877,-0.01985c-0.0809,-0.00951 -0.27673,-0.03256 -0.27673,-0.03256z" fill="url(#color-12)"></path></g><g stroke="none" stroke-width="0"><path d="M243.20638,179.33664l0.23586,-0.5503h0.44548l-0.20964,0.5503z" fill="url(#color-13)"></path><path d="M243.18018,180.22761v-0.5503h0.5241v0.5503z" fill="url(#color-14)"></path><path d="M243.285,180.98757l-0.18343,-0.49791l0.49791,0.0262l0.13101,0.5241c0,0 -0.10559,-0.01241 -0.16877,-0.01985c-0.0809,-0.00951 -0.27671,-0.03256 -0.27671,-0.03256z" fill="url(#color-15)"></path></g><g stroke="none" stroke-width="0"><path d="M243.80911,179.38905l0.23584,-0.55032h0.4455l-0.20964,0.55032z" fill="url(#color-16)"></path><path d="M243.78289,180.28003v-0.5503h0.5241v0.5503z" fill="url(#color-17)"></path><path d="M243.88771,181.03999l-0.18343,-0.49791l0.49791,0.0262l0.13103,0.5241c0,0 -0.10559,-0.01241 -0.16877,-0.01985c-0.0809,-0.00951 -0.27673,-0.03254 -0.27673,-0.03254z" fill="url(#color-18)"></path></g><path d="M237.31018,177.36469c0,0 -0.23584,-0.17345 -0.23584,-0.2555c0,-0.09508 0.23584,-0.28172 0.23584,-0.28172h5.50313c0,0 0.26205,0.29143 0.26205,0.38652c0,0.08205 -0.26205,0.15068 -0.26205,0.15068z" fill="#e66909" stroke="none" stroke-width="0"></path><path d="M233.09618,178.35832l0.19853,-0.29512l0.20409,0.24462l-0.19853,0.29512z" fill="#474747" stroke="none" stroke-width="0"></path><path d="M233.74477,178.92829l0.19853,-0.29514l0.20409,0.24462l-0.19855,0.29512z" fill="#474747" stroke="none" stroke-width="0"></path><path d="M233.19445,179.30171l0.19855,-0.29514l0.20409,0.24462l-0.19853,0.29512z" fill="#474747" stroke="none" stroke-width="0"></path><path d="M234.41299,179.59652l0.19855,-0.29512l0.20409,0.24462l-0.19853,0.29512z" fill="#474747" stroke="none" stroke-width="0"></path><path d="M234.47197,178.18144l0.19853,-0.29514l0.20409,0.24462l-0.19853,0.29512z" fill="#474747" stroke="none" stroke-width="0"></path><path d="M246.519,179.07271l0.19853,-0.29512l0.20409,0.24462l-0.19855,0.29512z" fill="#474747" stroke="none" stroke-width="0"></path><path d="M247.23965,179.62039l0.19853,-0.29514l0.20411,0.24462l-0.19855,0.29512z" fill="#474747" stroke="none" stroke-width="0"></path><path d="M246.57666,180.11043l0.19855,-0.29514l0.20409,0.24462l-0.19853,0.29512z" fill="#474747" stroke="none" stroke-width="0"></path><path d="M247.75852,178.75561l0.19855,-0.29512l0.20409,0.24462l-0.19853,0.29512z" fill="#474747" stroke="none" stroke-width="0"></path><path d="M248.3062,179.87982l0.19853,-0.29512l0.20411,0.24462l-0.19853,0.29512z" fill="#474747" stroke="none" stroke-width="0"></path><path d="M249.16685,178.60993l-0.01345,-0.35544l0.30903,0.07743l0.01345,0.35542z" fill="#474747" stroke="none" stroke-width="0"></path><path d="M249.91633,177.48573l-0.01346,-0.35544l0.30903,0.07743l0.01346,0.35542z" fill="#474747" stroke="none" stroke-width="0"></path><path d="M250.63698,176.50565l-0.01346,-0.35544l0.30905,0.07741l0.01345,0.35544z" fill="#474747" stroke="none" stroke-width="0"></path></g></g></svg>