<svg version="1.1" xmlns="http://www.w3.org/2000/svg" xmlns:xlink="http://www.w3.org/1999/xlink" width="67.788" height="52.20697" viewBox="0,0,67.788,52.20697"><g transform="translate(-206.106,-153.89652)"><g data-paper-data="{&quot;isPaintingLayer&quot;:true}" fill-rule="nonzero" stroke-linejoin="miter" stroke-miterlimit="10" stroke-dasharray="" stroke-dashoffset="0" style="mix-blend-mode: normal"><path d="M206.356,205.85348v-51.70697h67.288v51.70697z" fill-opacity="0.30645" fill="#00ffed" stroke="#000000" stroke-width="0.5" stroke-linecap="butt"></path><path d="M223.0292,195.4642c0,-8.5049 0,-23.18438 0,-28.03564c0,-3.06606 1.10035,-6.61902 2.32235,-6.61902c3.76044,0 23.33411,0 30.20083,0c1.4917,0 2.38374,2.464 2.38374,6.10618c0,8.58228 0,23.70625 0,28.54849c0,2.93543 -0.91663,6.27713 -2.44512,6.27713c-6.90482,0 -26.29593,0 -30.07806,0c-1.25059,0 -2.38374,-2.54363 -2.38374,-6.27713z" fill-opacity="0.56452" fill="#291800" stroke="#fff4ce" stroke-width="0.5" stroke-linecap="butt"></path><text transform="translate(235.32858,164.97304) scale(0.08891,0.08891)" font-size="40" xml:space="preserve" fill="#fff4ce" fill-rule="nonzero" stroke="none" stroke-width="1" stroke-linecap="butt" stroke-linejoin="miter" stroke-miterlimit="10" stroke-dasharray="" stroke-dashoffset="0" font-family="Impact" font-weight="normal" text-anchor="start" style="mix-blend-mode: normal"><tspan x="0" dy="0">Multiplayer</tspan></text><path d="M227.12763,166.27355l27.99209,0.30481" fill="none" stroke="#fff4ce" stroke-width="0.5" stroke-linecap="round"></path><text transform="translate(223.66983,172.43145) scale(0.03789,0.03789)" font-size="40" xml:space="preserve" fill="#fff4ce" fill-rule="nonzero" stroke="none" stroke-width="1" stroke-linecap="butt" stroke-linejoin="miter" stroke-miterlimit="10" stroke-dasharray="" stroke-dashoffset="0" font-family="Serif" font-weight="normal" text-anchor="start" style="mix-blend-mode: normal"><tspan x="0" dy="0">Multiplayer isn't done although it mostly works.</tspan><tspan x="0" dy="48px"> </tspan><tspan x="0" dy="48px">Not all aspects of the game are synced and bugs </tspan><tspan x="0" dy="48px">may occur.</tspan><tspan x="0" dy="48px"> </tspan><tspan x="0" dy="48px">Give me a break, I did this with no tutorial or ever</tspan><tspan x="0" dy="48px">seeing somebody else make multiplayer and I worked</tspan><tspan x="0" dy="48px">20+ hours on this.</tspan><tspan x="0" dy="48px"> </tspan><tspan x="0" dy="48px">Multiplayer may slow down future updates and be</tspan><tspan x="0" dy="48px">on older verisons.</tspan></text><path d="M228.94649,162.33876c0,0.46146 -0.36689,0.83554 -0.81948,0.83554c-0.45258,0 -0.81948,-0.37409 -0.81948,-0.83554c0,-0.46146 0.36689,-0.83554 0.81948,-0.83554c0.45258,0 0.81948,0.37409 0.81948,0.83554z" fill="#fff4ce" stroke="none" stroke-width="0.5" stroke-linecap="butt"></path><path d="M226.59553,164.41802l0.73914,-1.414l1.28545,0.16068l1.12477,1.31759z" fill="#fff4ce" stroke="none" stroke-width="0.5" stroke-linecap="butt"></path><path d="M231.3878,162.61032c0,0.68423 -0.54401,1.23891 -1.21508,1.23891c-0.67107,0 -1.21508,-0.55468 -1.21508,-1.23891c0,-0.68423 0.54401,-1.23891 1.21508,-1.23891c0.67107,0 1.21508,0.55468 1.21508,1.23891z" fill="#fff4ce" stroke="none" stroke-width="0.5" stroke-linecap="butt"></path><path d="M227.9019,165.69336l1.09596,-2.09662l1.90602,0.23825l1.66776,1.95367z" fill="#fff4ce" stroke="none" stroke-width="0.5" stroke-linecap="butt"></path><path d="M224.51191,163.20464v-0.66772h2.25999v0.66772z" fill="#fff4ce" stroke="none" stroke-width="0.5" stroke-linecap="butt"></path><path d="M225.22719,164.17927v-2.38428h0.8941v2.38428z" fill="#fff4ce" stroke="none" stroke-width="0.5" stroke-linecap="butt"></path><path d="M229.33134,200.23206c0,0 -1.88062,-1.58123 -1.88062,-2.46166c0,-0.87886 1.88062,-2.81621 1.88062,-2.81621h23.41676c0,0 1.27397,1.67826 1.27397,2.51289c0,0.91691 -1.27397,2.76498 -1.27397,2.76498z" fill="#00ff3a" stroke="none" stroke-width="0.5" stroke-linecap="butt"></path><text transform="translate(233.03192,197.38357) scale(0.03945,0.03945)" font-size="40" xml:space="preserve" fill="#000000" fill-rule="nonzero" stroke="none" stroke-width="1" stroke-linecap="butt" stroke-linejoin="miter" stroke-miterlimit="10" stroke-dasharray="" stroke-dashoffset="0" font-family="Serif" font-weight="normal" text-anchor="start" style="mix-blend-mode: normal"><tspan x="0" dy="0">I agree and know multiplayer</tspan><tspan x="0" dy="46.150000000000006px">is not done yet.</tspan></text></g></g></svg>