<svg version="1.1" xmlns="http://www.w3.org/2000/svg" xmlns:xlink="http://www.w3.org/1999/xlink" width="31.22104" height="62.89387" viewBox="0,0,31.22104,62.89387"><defs><linearGradient x1="236.01864" y1="187.0364" x2="219.23638" y2="157.42287" gradientUnits="userSpaceOnUse" id="color-1"><stop offset="0" stop-color="#ae5a00"></stop><stop offset="1" stop-color="#ff7a00"></stop></linearGradient><radialGradient cx="239.57765" cy="152.46876" r="6.75255" gradientUnits="userSpaceOnUse" id="color-2"><stop offset="0" stop-color="#ff6666"></stop><stop offset="1" stop-color="#ff6666" stop-opacity="0"></stop></radialGradient><linearGradient x1="239.73199" y1="147.33682" x2="239.73199" y2="154.05078" gradientUnits="userSpaceOnUse" id="color-3"><stop offset="0" stop-color="#000000" stop-opacity="0"></stop><stop offset="1" stop-color="#000000" stop-opacity="0"></stop></linearGradient></defs><g transform="translate(-218.79016,-146.41077)"><g data-paper-data="{&quot;isPaintingLayer&quot;:true}" fill-rule="nonzero" stroke-width="0.5" stroke-linejoin="miter" stroke-miterlimit="10" stroke-dasharray="" stroke-dashoffset="0" style="mix-blend-mode: normal"><path d="M219.68262,157.16996l16.78227,29.61355l-0.89246,0.50576l-16.78227,-29.61355z" fill="url(#color-1)" stroke="none" stroke-linecap="butt"></path><path d="M222.02051,155.93767l0.71012,1.25307c0,0 -1.94298,-0.65787 -2.47749,-0.35496c-0.50842,0.28812 -0.6552,2.13029 -0.6552,2.13029l-0.71012,-1.25307c0,0 0.2123,-1.98276 0.76745,-2.29737c0.47726,-0.27049 2.36524,0.52205 2.36524,0.52205z" fill="#703a00" stroke="none" stroke-linecap="butt"></path><path d="M245.17952,164.44866c0,3.01296 -2.2233,5.45546 -4.96586,5.45546c-2.74258,0 -4.96586,-2.44249 -4.96586,-5.45546c0,-3.01296 2.2233,-5.45546 4.96586,-5.45546c2.74258,0 4.96586,2.44249 4.96586,5.45546z" fill="#ffeecf" stroke="#000000" stroke-linecap="butt"></path><path d="M238.20865,161.09146c0,0 -1.11906,-0.58534 -1.11906,-0.93256c0,-0.43918 1.11906,-1.49209 1.11906,-1.49209h5.78185c0,0 1.11906,1.0619 1.11906,1.49209c0,0.3684 -1.11906,0.93256 -1.11906,0.93256c0,0 -1.63248,0.65278 -2.61116,0.65278c-0.9476,0 -3.17068,-0.65278 -3.17068,-0.65278z" fill="#bb7711" stroke="none" stroke-linecap="butt"></path><path d="M238.76819,162.72344c0,0.48928 -0.62627,0.88593 -1.39884,0.88593c-0.77255,0 -1.39884,-0.39664 -1.39884,-0.88593c0,-0.48928 0.62627,-0.88593 1.39884,-0.88593c0.77255,0 1.39884,0.39664 1.39884,0.88593z" fill="#000000" stroke="none" stroke-linecap="butt"></path><path d="M243.05794,162.58355c0,0.51504 -0.56366,0.93256 -1.25895,0.93256c-0.6953,0 -1.25895,-0.41752 -1.25895,-0.93256c0,-0.51504 0.56366,-0.93256 1.25895,-0.93256c0.6953,0 1.25895,0.41752 1.25895,0.93256z" fill="#000000" stroke="none" stroke-linecap="butt"></path><path d="M241.39799,162.78872h-2.85362" fill="none" stroke="#000000" stroke-linecap="round"></path><path d="M243.13255,161.44584l-0.39167,0.72739" fill="none" stroke="#000000" stroke-linecap="round"></path><path d="M236.08243,162.78871l-1.39884,-0.8393" fill="none" stroke="#000000" stroke-linecap="round"></path><path d="M236.11991,190.67296c-0.41898,-5.1522 -1.14213,-14.0449 -1.38112,-16.98376c-0.15104,-1.85739 0.03785,-4.03935 0.44202,-4.07221c1.24374,-0.10114 7.71756,-0.62759 9.98866,-0.81228c0.49336,-0.04012 0.90978,1.42856 1.08921,3.63496c0.42279,5.19907 1.16784,14.36105 1.40638,17.29443c0.14461,1.77826 0.00606,3.82728 -0.49948,3.8684c-2.28371,0.18572 -8.69715,0.70725 -9.94806,0.80897c-0.41362,0.03364 -0.91371,-1.47679 -1.09762,-3.73852z" fill="#0052ff" stroke="#d6ffcf" stroke-linecap="butt"></path><path d="M240.53788,194.38605c0,0 -0.81144,-17.20716 -1.30684,-21.23195c-0.1958,-1.59075 -1.72618,-3.40929 -1.72618,-3.40929l5.56181,-0.63941c0,0 -1.60116,2.83642 -1.56376,3.98063c0.11873,3.63295 2.38113,21.0279 2.38113,21.0279z" fill="#ffffff" stroke="none" stroke-linecap="butt"></path><path d="M235.78401,207.34626v-14.0816h3.17068v14.0816z" fill="#d69100" stroke="none" stroke-linecap="butt"></path><path d="M243.05794,207.71928v-14.36137h2.61116v14.36137z" fill="#d69100" stroke="none" stroke-linecap="butt"></path><path d="M233.54587,209.30464v-3.73023c0,0 1.03295,0.36784 1.94551,-0.02953c1.00996,-0.43978 1.93537,-1.64907 2.53076,-1.64907c0.69405,0 1.6786,1.6786 1.6786,1.6786v3.73023z" fill="#7c5500" stroke="none" stroke-linecap="butt"></path><path d="M239.1412,205.57441l-1.6786,-1.58534" fill="none" stroke="#000000" stroke-linecap="round"></path><path d="M236.80982,205.01486l1.49209,1.49209" fill="none" stroke="#000000" stroke-linecap="round"></path><path d="M242.77817,209.21137v-3.73023c0,0 0.98455,-1.6786 1.6786,-1.6786c0.5954,0 1.5208,1.20929 2.53076,1.64907c0.91256,0.39736 1.94551,0.02953 1.94551,0.02953v3.73023z" data-paper-data="{&quot;index&quot;:null}" fill="#7c5500" stroke="none" stroke-linecap="butt"></path><path d="M243.33772,205.48115l1.6786,-1.58534" data-paper-data="{&quot;index&quot;:null}" fill="none" stroke="#000000" stroke-linecap="round"></path><path d="M245.6691,204.92162l-1.49209,1.49209" data-paper-data="{&quot;index&quot;:null}" fill="none" stroke="#000000" stroke-linecap="round"></path><path d="M247.51385,190.18053l-3.94871,-12.93267l2.49735,-0.76251l3.94871,12.93267z" fill="#ffeecf" stroke="none" stroke-linecap="butt"></path><path d="M230.69138,172.60817l5.99762,12.11919l-2.34026,1.15816l-5.99762,-12.11919z" fill="#ffeecf" stroke="none" stroke-linecap="butt"></path><path d="M246.3302,152.46876c0,3.34574 -3.02322,6.05799 -6.75255,6.05799c-3.72933,0 -6.75255,-2.71226 -6.75255,-6.05799c0,-3.34574 3.02322,-6.05799 6.75255,-6.05799c3.72933,0 6.75255,2.71226 6.75255,6.05799z" fill="url(#color-2)" stroke="none" stroke-linecap="butt"></path><path d="M239.22019,154.05078l-0.91587,-6.71396h2.85536l-0.91587,6.71396z" fill="#b50000" stroke="url(#color-3)" stroke-linecap="butt"></path><path d="M240.5423,155.94149c0,0.36228 -0.36279,0.65596 -0.81031,0.65596c-0.44752,0 -0.81031,-0.29369 -0.81031,-0.65596c0,-0.36228 0.36279,-0.65596 0.81031,-0.65596c0.44752,0 0.81031,0.29369 0.81031,0.65596z" fill="#b50000" stroke="none" stroke-linecap="butt"></path></g></g></svg>