<svg version="1.1" xmlns="http://www.w3.org/2000/svg" xmlns:xlink="http://www.w3.org/1999/xlink" width="393.8278" height="55.38214" viewBox="0,0,393.8278,55.38214"><defs><radialGradient cx="391.56618" cy="24.64623" r="16.27278" gradientUnits="userSpaceOnUse" id="color-1"><stop offset="0" stop-color="#b7b7b7"></stop><stop offset="1" stop-color="#8c8c8c"></stop></radialGradient><radialGradient cx="391.56618" cy="24.64623" r="16.27278" gradientUnits="userSpaceOnUse" id="color-2"><stop offset="0" stop-color="#f2d1d1"></stop><stop offset="1" stop-color="#ff5959"></stop></radialGradient></defs><g transform="translate(-45.83612,-5.15769)"><g data-paper-data="{&quot;isPaintingLayer&quot;:true}" stroke-linecap="butt" stroke-dasharray="" stroke-dashoffset="0" style="mix-blend-mode: normal"><path d="M48.33614,50.31344c0,-10.46851 0,-28.5372 0,-34.50852c0,-3.77395 12.25682,-8.14723 25.86866,-8.14723c41.88748,0 259.91837,0 336.40668,0c16.61602,0 26.55244,3.03289 26.55244,7.51598c0,10.56376 0,29.17956 0,35.13977c0,3.61317 -10.21031,7.72639 -27.23618,7.72639c-76.91274,0 -292.91009,0 -335.03918,0c-13.93029,0 -26.55244,-3.1309 -26.55244,-7.72639z" fill="#505050" fill-rule="nonzero" stroke="#d0d0d0" stroke-width="5" stroke-linejoin="miter" stroke-miterlimit="10"></path><text transform="translate(56.73436,42.50005) scale(0.71669,0.71669)" font-size="40" xml:space="preserve" fill="#fff4ce" fill-rule="nonzero" stroke="none" stroke-width="1" stroke-linecap="butt" stroke-linejoin="miter" stroke-miterlimit="10" stroke-dasharray="" stroke-dashoffset="0" font-family="&quot;ヒラギノ角ゴ Pro W3&quot;, &quot;Hiragino Kaku Gothic Pro&quot;, Osaka, &quot;メイリオ&quot;, Meiryo, &quot;ＭＳ Ｐゴシック&quot;, &quot;MS PGothic&quot;" font-weight="normal" text-anchor="start" style="mix-blend-mode: normal"><tspan x="0" dy="0">Revive</tspan></text><text transform="translate(155.06935,49.27277) scale(0.3648,0.3648)" font-size="40" xml:space="preserve" fill="#b7b7b7" fill-rule="nonzero" stroke="none" stroke-width="1" stroke-linecap="butt" stroke-linejoin="miter" stroke-miterlimit="10" stroke-dasharray="" stroke-dashoffset="0" font-family="Serif" font-weight="normal" text-anchor="start" style="mix-blend-mode: normal"><tspan x="0" dy="0">You can not revive at this door.</tspan></text><g><path d="M422.27138,33.87782c0.49779,-0.18463 1.51889,0.31613 1.51889,0.31613l1.82545,3.86505c0,0 -1.80018,0.81371 -2.00194,0.6743c-0.59577,-0.41168 -1.60437,-1.12929 -2.51917,-0.78999c-1.16104,0.43063 -2.37041,2.08078 -2.37041,2.08078c0,0 -0.46385,2.32674 -0.42349,2.83502c0.01622,0.20429 -0.34117,-0.19246 -0.40645,-0.17107c-0.43546,0.14269 -1.48465,-3.02273 -1.62906,-3.23625c-0.25304,-0.37416 0.20025,-2.3604 0.20025,-2.3604c0,0 4.6093,-2.76974 5.80593,-3.21357z" data-paper-data="{&quot;index&quot;:null}" fill="#000000" fill-rule="nonzero" stroke="#000000" stroke-width="0" stroke-linejoin="miter" stroke-miterlimit="10"></path><path d="M425.45098,29.84204c0.49779,-0.18463 1.51889,0.31613 1.51889,0.31613l0.76595,4.68049c0,0 -0.74069,-0.00172 -0.94245,-0.14114c-0.59577,-0.41168 -1.60437,-1.12929 -2.51917,-0.78999c-1.16104,0.43063 -3.19634,1.26675 -3.19634,1.26675c0,0 0.42157,1.64943 0.19388,1.72403c-0.43546,0.14269 -1.68255,-1.26878 -1.82696,-1.4823c-0.25304,-0.37416 0.20025,-2.3604 0.20025,-2.3604c0,0 4.6093,-2.76974 5.80593,-3.21357z" data-paper-data="{&quot;index&quot;:null}" fill="#000000" fill-rule="nonzero" stroke="#000000" stroke-width="0" stroke-linejoin="miter" stroke-miterlimit="10"></path><path d="M406.33166,53.4644c0,0 -5.37667,-3.44838 -7.60857,-6.04309c-1.81286,-2.10754 -4.37207,-6.21552 -4.37207,-6.21552c0.24517,0.00031 0.90735,0.76506 1.15253,0.76543c2.43627,0.0037 4.86804,1.88705 7.20037,1.90053c0.31836,0.00184 0.63655,0.00517 0.95459,0.00989c3.346,0.4431 7.24308,-0.95078 10.59767,-1.0314c0.27417,0.01994 -0.49409,-1.21074 -0.22002,-1.19036z" fill-opacity="0.50417" fill="#000000" fill-rule="nonzero" stroke="none" stroke-width="1" stroke-linejoin="miter" stroke-miterlimit="10"></path><path d="M388.48087,29.09182c0,-4.51315 3.66433,-8.17748 8.17748,-8.17748c4.11899,0 7.53064,3.05184 8.0953,7.01506c0.56465,-3.96321 3.97629,-7.01506 8.0953,-7.01506c4.51316,0 8.17748,3.66433 8.17748,8.17748v0.00083c0,4.2625 -1.69314,8.35084 -4.70736,11.36465l-11.56541,11.5654l-11.5654,-11.5654c-3.01422,-3.0138 -4.70736,-7.10213 -4.70736,-11.36465z" fill="url(#color-1)" fill-rule="evenodd" stroke="none" stroke-width="1" stroke-linejoin="round" stroke-miterlimit="2"></path><path d="M396.6318,43.89682l0.12222,-0.04074c-0.02618,0.02954 -0.05187,0.05952 -0.07704,0.08995l-0.04892,-0.04892z" fill="url(#color-2)" fill-rule="nonzero" stroke="none" stroke-width="1" stroke-linejoin="miter" stroke-miterlimit="10"></path><path d="M415.93652,15.65559c0.08191,1.36886 -5.08624,2.79177 -11.54338,3.17816c-6.45715,0.38639 -11.7581,-0.41005 -11.84001,-1.77891c-0.08191,-1.36886 5.08623,-2.79177 11.54338,-3.17816c6.45715,-0.38639 11.7581,0.41005 11.84001,1.77891z" fill="none" fill-rule="nonzero" stroke="#e4e4e4" stroke-width="4" stroke-linejoin="miter" stroke-miterlimit="10"></path><path d="M389.16527,44.49451c0,0 -3.12492,-1.04079 -3.19155,-1.48754c-0.05791,-0.38825 0.61364,-1.15798 0.61364,-1.15798c0,0 0.67331,0.71956 1.44133,0.69444c0.84121,-0.02751 1.80761,-0.80962 2.40693,-1.05424c1.20926,-0.49358 1.57283,-2.91111 1.57283,-2.91111l2.94853,3.85005c0,0 -0.41353,1.05943 -0.9051,1.26007c-1.18165,0.4823 -4.88661,0.80631 -4.88661,0.80631z" fill="#000000" fill-rule="nonzero" stroke="#000000" stroke-width="0" stroke-linejoin="miter" stroke-miterlimit="10"></path><path d="M384.64827,41.36736c0,0 -1.67716,-1.15661 -1.74379,-1.60336c-0.03803,-0.25495 -0.0739,-2.13808 0.34338,-2.32746c0.21818,-0.09902 1.0231,1.40112 1.0231,1.40112c0,0 2.06475,-0.7605 3.21125,-1.22846c0.90334,-0.36871 1.16103,-1.57943 1.32149,-2.2856c0.05434,-0.23915 0.5988,-0.74133 0.5988,-0.74133l2.60107,3.96587c0,0 -0.41353,1.05943 -0.9051,1.26007c-1.18165,0.4823 -6.45019,1.55915 -6.45019,1.55915z" fill="#000000" fill-rule="nonzero" stroke="#000000" stroke-width="0" stroke-linejoin="miter" stroke-miterlimit="10"></path><path d="M382.38977,37.31365c0,0 -1.67716,-1.15661 -1.74379,-1.60336c-0.03803,-0.25495 -1.40584,-3.29629 -0.98856,-3.48567c0.06255,-0.02839 0.05751,-0.56235 0.18372,-0.40089c0.31401,0.40172 2.22923,1.80201 2.22923,1.80201c0,0 2.00684,0.39771 3.15334,-0.07025c0.90334,-0.36871 1.16103,-1.57943 1.32149,-2.2856c0.05434,-0.23915 1.93074,-0.85715 1.93074,-0.85715l1.26913,4.08169c0,0 -0.41353,1.05943 -0.9051,1.26007c-1.18165,0.4823 -6.45019,1.55915 -6.45019,1.55915z" fill="#000000" fill-rule="nonzero" stroke="#000000" stroke-width="0" stroke-linejoin="miter" stroke-miterlimit="10"></path><path d="M426.66989,25.55339c0,0 3.72651,-2.59358 3.85335,-1.05018c0.02108,0.25651 0.71283,-0.3818 0.67677,-0.32848c-0.04244,0.06275 -0.80047,2.673 -0.78123,2.35866c0.08048,-1.31461 -2.07541,0.04832 -2.07541,0.04832c0,0 -1.80459,5.03726 -2.38733,4.53637c-0.63828,-0.54863 -1.8791,-0.62604 -2.48602,-0.85115c-1.2246,-0.45421 -3.12734,1.08079 -3.12734,1.08079l0.43167,-4.83016c0,0 1.0211,-0.50076 1.51889,-0.31612c1.19663,0.44383 4.37664,-0.64806 4.37664,-0.64806z" data-paper-data="{&quot;index&quot;:null}" fill="#000000" fill-rule="nonzero" stroke="#000000" stroke-width="0" stroke-linejoin="miter" stroke-miterlimit="10"></path></g></g></g></svg>