<svg version="1.1" xmlns="http://www.w3.org/2000/svg" xmlns:xlink="http://www.w3.org/1999/xlink" width="54.97784" height="56.5031" viewBox="0,0,54.97784,56.5031"><defs><radialGradient cx="244.48342" cy="171.57205" r="3.58277" gradientUnits="userSpaceOnUse" id="color-1"><stop offset="0" stop-color="#fcd688"></stop><stop offset="1" stop-color="#fcd688" stop-opacity="0"></stop></radialGradient><linearGradient x1="238.08267" y1="198.49984" x2="237.52254" y2="200.22497" gradientUnits="userSpaceOnUse" id="color-2"><stop offset="0" stop-color="#321f21"></stop><stop offset="1" stop-color="#472a26"></stop></linearGradient><linearGradient x1="239.66481" y1="181.12353" x2="239.66481" y2="201.37806" gradientUnits="userSpaceOnUse" id="color-3"><stop offset="0" stop-color="#b6684e"></stop><stop offset="1" stop-color="#472a26"></stop></linearGradient><linearGradient x1="247.37006" y1="182.26712" x2="247.37006" y2="201.35251" gradientUnits="userSpaceOnUse" id="color-4"><stop offset="0" stop-color="#532e2c"></stop><stop offset="1" stop-color="#341f21"></stop></linearGradient><linearGradient x1="235.34243" y1="180.51162" x2="252.8161" y2="180.51162" gradientUnits="userSpaceOnUse" id="color-5"><stop offset="0" stop-color="#b6684e"></stop><stop offset="1" stop-color="#5f3730"></stop></linearGradient><radialGradient cx="240.35907" cy="162.86512" r="7.75901" gradientUnits="userSpaceOnUse" id="color-6"><stop offset="0" stop-color="#ffd9aa"></stop><stop offset="1" stop-color="#a4593e"></stop></radialGradient><radialGradient cx="235.22394" cy="162.64095" r="7.19608" gradientUnits="userSpaceOnUse" id="color-7"><stop offset="0" stop-color="#ffc297"></stop><stop offset="1" stop-color="#a15a42"></stop></radialGradient><linearGradient x1="228.49166" y1="159.02495" x2="238.70965" y2="159.81378" gradientUnits="userSpaceOnUse" id="color-8"><stop offset="0" stop-color="#a35e47"></stop><stop offset="1" stop-color="#c29285"></stop></linearGradient><linearGradient x1="235.48651" y1="162.1868" x2="235.67903" y2="161.37617" gradientUnits="userSpaceOnUse" id="color-9"><stop offset="0" stop-color="#fef4d2" stop-opacity="0"></stop><stop offset="1" stop-color="#fef4d2"></stop></linearGradient><linearGradient x1="236.13061" y1="161.90179" x2="235.48818" y2="161.85222" gradientUnits="userSpaceOnUse" id="color-10"><stop offset="0" stop-color="#ecd5b5"></stop><stop offset="1" stop-color="#ecd5b5" stop-opacity="0"></stop></linearGradient><radialGradient cx="242.55317" cy="174.30772" r="0.56658" gradientUnits="userSpaceOnUse" id="color-11"><stop offset="0" stop-color="#55170f"></stop><stop offset="1" stop-color="#faccb4"></stop></radialGradient><radialGradient cx="243.71965" cy="176.00189" r="0.56658" gradientUnits="userSpaceOnUse" id="color-12"><stop offset="0" stop-color="#55170f"></stop><stop offset="1" stop-color="#faccb4"></stop></radialGradient><radialGradient cx="244.9417" cy="177.52943" r="0.56658" gradientUnits="userSpaceOnUse" id="color-13"><stop offset="0" stop-color="#55170f"></stop><stop offset="1" stop-color="#faccb4"></stop></radialGradient><radialGradient cx="245.35829" cy="174.66878" r="0.56658" gradientUnits="userSpaceOnUse" id="color-14"><stop offset="0" stop-color="#55170f"></stop><stop offset="1" stop-color="#faccb4"></stop></radialGradient><radialGradient cx="242.30321" cy="177.25171" r="0.56658" gradientUnits="userSpaceOnUse" id="color-15"><stop offset="0" stop-color="#55170f"></stop><stop offset="1" stop-color="#faccb4"></stop></radialGradient><linearGradient x1="246.94412" y1="174.34292" x2="246.94412" y2="181.0085" gradientUnits="userSpaceOnUse" id="color-16"><stop offset="0" stop-color="#794237"></stop><stop offset="1" stop-color="#d27e67"></stop></linearGradient><linearGradient x1="234.85997" y1="183.32014" x2="251.77391" y2="183.32014" gradientUnits="userSpaceOnUse" id="color-17"><stop offset="0" stop-color="#f4a681"></stop><stop offset="1" stop-color="#5a3630"></stop></linearGradient><radialGradient cx="238.10945" cy="193.73517" r="3.20246" gradientUnits="userSpaceOnUse" id="color-18"><stop offset="0" stop-color="#c88469"></stop><stop offset="1" stop-color="#5a332a"></stop></radialGradient></defs><g transform="translate(-209.86823,-148.23634)"><g data-paper-data="{&quot;isPaintingLayer&quot;:true}" fill-rule="nonzero" stroke-linejoin="miter" stroke-miterlimit="10" stroke-dasharray="" stroke-dashoffset="0" style="mix-blend-mode: normal"><path d="M216.15397,196.45829c0,-9.86526 0,-26.89275 0,-32.51997c0,-3.55647 1.50337,-7.67776 3.17295,-7.67776c5.13777,0 31.88059,0 41.26234,0c2.03805,0 3.25682,2.85812 3.25682,7.08287c0,9.95502 0,27.49809 0,33.11485c0,3.40496 -1.25235,7.28116 -3.34069,7.28116c-9.43383,0 -35.92722,0 -41.09461,0c-1.70864,0 -3.25682,-2.95049 -3.25682,-7.28116z" fill-opacity="0.62097" fill="#291800" stroke="#d6cdad" stroke-width="2" stroke-linecap="butt"></path><g stroke-linecap="butt"><path d="M212.36825,162.03501c0,-2.30933 0,-6.29523 0,-7.61249c0,-0.83253 0.35192,-1.79726 0.74274,-1.79726c1.20269,0 7.46283,0 9.65897,0c0.47708,0 0.76238,0.66905 0.76238,1.65801c0,2.33034 0,6.43694 0,7.75175c0,0.79706 -0.29315,1.70443 -0.78201,1.70443c-2.20834,0 -8.41009,0 -9.61971,0c-0.39997,0 -0.76238,-0.69067 -0.76238,-1.70443z" fill-opacity="0.47425" fill="#000000" stroke="#fff4ce" stroke-width="0"></path><path d="M210.36825,159.89216c0,-2.30933 0,-6.29523 0,-7.61249c0,-0.83253 0.35192,-1.79726 0.74274,-1.79726c1.20269,0 7.46283,0 9.65897,0c0.47708,0 0.76238,0.66904 0.76238,1.658c0,2.33034 0,6.43695 0,7.75176c0,0.79706 -0.29315,1.70443 -0.78201,1.70443c-2.20834,0 -8.41009,0 -9.61971,0c-0.39997,0 -0.76238,-0.69067 -0.76238,-1.70443z" fill-opacity="0.88705" fill="#291800" stroke="#fff4ce" stroke-width="1"></path><text transform="translate(213.35853,159.88738) scale(0.26784,0.26784)" font-size="40" xml:space="preserve" fill="#fff4ce" fill-rule="nonzero" stroke="none" stroke-width="1" stroke-linecap="butt" stroke-linejoin="miter" stroke-miterlimit="10" stroke-dasharray="" stroke-dashoffset="0" font-family="Sans Serif" font-weight="normal" text-anchor="start" style="mix-blend-mode: normal"><tspan x="0" dy="0">3</tspan></text></g><g><text transform="translate(238.16778,177.62941) scale(0.08432,0.08432)" font-size="40" xml:space="preserve" fill="#66ddff" fill-rule="nonzero" stroke="none" stroke-width="0.25" stroke-linecap="butt" stroke-linejoin="miter" stroke-miterlimit="10" stroke-dasharray="" stroke-dashoffset="0" font-family="Sans Serif" font-weight="normal" text-anchor="start" style="mix-blend-mode: normal"><tspan x="0" dy="0">xAmt8</tspan></text><path d="M247.19133,171.57205c0,1.97869 -1.21236,3.58278 -2.70791,3.58278c-1.49555,0 -2.7079,-1.60404 -2.7079,-3.58278c0,-1.97869 1.21235,-3.58277 2.7079,-3.58277c1.49555,0 2.70791,1.60404 2.70791,3.58277z" fill="url(#color-1)" stroke="none" stroke-width="0.125" stroke-linecap="butt"></path><path d="M230.71869,195.52764l1.75999,0.24199l11.20794,5.46041c0,0 2.34645,-0.58942 2.32489,-0.26188c-0.01132,0.17238 3.95379,-0.64041 3.44195,-0.27719c-0.22713,0.16116 -5.88493,2.33404 -5.88493,2.33404c0,0 -10.28227,-5.08871 -12.22522,-6.22241c-0.65725,-0.38346 -0.62466,-1.27498 -0.62466,-1.27498z" fill="url(#color-2)" stroke="none" stroke-width="0.125" stroke-linecap="butt"></path><path d="M230.70146,194.38007l4.63264,-13.38285l13.04305,1.63008c0,0 0.44598,1.70643 0.149,2.79031c-0.81005,2.95624 -5.28684,15.96045 -5.28684,15.96045c0,0 -10.41296,-4.21851 -12.01503,-5.11268c-0.41132,-0.22958 -0.52282,-1.88526 -0.52282,-1.88526z" fill="url(#color-3)" stroke="none" stroke-width="0.125" stroke-linecap="butt"></path><path d="M249.8061,197.89432l0.68718,-15.64644l2.08211,-0.04041c0,0 -0.51736,8.84038 -0.64303,11.70186c-0.07221,1.64356 -0.17046,4.0709 -0.17046,4.0709c0,0 -1.64445,1.87448 -2.48182,2.69299c-0.23574,0.23042 -0.40753,0.37716 -0.46064,0.37484c-0.36102,-0.01585 0.98671,-3.15368 0.98671,-3.15368z" fill="#321f21" stroke="none" stroke-width="0.125" stroke-linecap="butt"></path><path d="M243.22021,201.31171l4.80351,-19.04458l3.49619,0.62781l-1.70908,14.93973c0,0 0.08383,2.21492 -0.79744,2.97726c-0.06207,0.05371 -0.12897,0.10022 -0.20104,0.13822c-1.10229,0.58154 -5.59213,0.36151 -5.59213,0.36151z" fill="url(#color-4)" stroke="none" stroke-width="0.125" stroke-linecap="butt"></path><path d="M235.34243,180.93318l0.40433,-3.57682l13.67307,1.35127l3.09329,2.51981l0.30303,0.9526c0,0 -1.22624,0.33699 -1.25238,0.4413c-0.08639,0.34477 0.33798,1.04558 0.33798,1.04558l-4.023,-0.87723l-11.43729,-0.5395z" fill="url(#color-5)" stroke="#000000" stroke-width="0.125" stroke-linecap="butt"></path><path d="M235.27184,179.07022l-1.43141,-3.0255l6.05096,-2.86281l1.43141,3.0255z" fill="#572f2a" stroke="#000000" stroke-width="0.125" stroke-linecap="butt"></path><path d="M247.7103,176.90832c0,-1.37766 1.11682,-2.49447 2.49447,-2.49447c0.58626,0 1.12527,0.20227 1.55112,0.54078c0.57485,0.45695 0.94334,1.1623 0.94334,1.95368c0,1.37766 -1.11681,2.49447 -2.49446,2.49447c-1.37766,0 -2.49447,-1.11681 -2.49447,-2.49447z" fill="#b06b59" stroke="none" stroke-width="0.125" stroke-linecap="butt"></path><path d="M247.37006,176.69439c0,-1.37766 1.11681,-2.49447 2.49446,-2.49447c1.37766,0 2.49447,1.11682 2.49447,2.49447c0,1.37766 -1.11682,2.49446 -2.49447,2.49446c-1.37766,0 -2.49446,-1.11681 -2.49446,-2.49446z" fill="#ecac8b" stroke="none" stroke-width="0.125" stroke-linecap="butt"></path><text transform="translate(237.17137,163.711) rotate(-79.71892) scale(0.04205,0.04205)" font-size="40" xml:space="preserve" fill="#41251e" fill-rule="nonzero" stroke="none" stroke-width="0.25" stroke-linecap="butt" stroke-linejoin="miter" stroke-miterlimit="10" stroke-dasharray="" stroke-dashoffset="0" font-family="Sans Serif" font-weight="normal" text-anchor="start" style="mix-blend-mode: normal"><tspan x="0" dy="0">xAmt8</tspan></text><path d="M243.32561,174.79096l-0.05631,-0.90101c0,0 1.39877,-0.24549 2.31361,-0.30268c0.59173,-0.03697 2.64194,-0.00704 2.64194,-0.00704l0.05631,0.90101z" fill="#ffffff" stroke="none" stroke-width="0.125" stroke-linecap="butt"></path><path d="M234.34144,176.563l1.56393,-14.99958l4.97224,0.51843l-0.98071,14.99958z" fill="url(#color-6)" stroke="none" stroke-width="0.125" stroke-linecap="butt"></path><path d="M236.11294,162.27502l0.16416,-2.12666l1.62668,-2.11918l2.58489,1.50367l0.57889,2.95127c0,0 -1.70761,0.04155 -2.1052,0.01088c-0.69274,-0.05346 -2.84938,-0.21999 -2.84938,-0.21999z" fill="#88472d" stroke="none" stroke-width="0.125" stroke-linecap="butt"></path><path d="M227.47517,175.19544l0.98661,-14.26731l7.77363,0.12099c0,0 -0.63687,5.84234 -0.98336,8.39736c-0.29023,2.14034 -0.63343,7.06642 -0.63343,7.06642z" fill="url(#color-7)" stroke="#000000" stroke-width="0.125" stroke-linecap="butt"></path><path d="M228.33779,161.0187l2.82728,-4.04372l6.94443,0.87039l-2.06587,3.43392z" fill="url(#color-8)" stroke="none" stroke-width="0.125" stroke-linecap="butt"></path><path d="M236.0201,162.80275l-1.06055,-0.74108l0.19252,-0.81063l1.0795,-0.08201z" data-paper-data="{&quot;index&quot;:null}" fill="url(#color-9)" stroke="none" stroke-width="0.125" stroke-linecap="butt"></path><path d="M235.44713,162.38385l0.08211,-1.06336l0.64243,0.04962l-0.0821,1.06335z" data-paper-data="{&quot;index&quot;:null}" fill="url(#color-10)" stroke="none" stroke-width="0.125" stroke-linecap="butt"></path><path d="M237.30394,159.18783l0.70883,-1.28629z" fill="#623320" stroke="none" stroke-width="0.125" stroke-linecap="butt"></path><path d="M238.58166,178.04777l0.41388,-2.39282c0,0 0.74708,-1.49481 1.08545,-1.44647c0.34728,0.04957 0.97229,1.74024 0.97229,1.74024l-0.41388,2.39282z" fill="#e7c0af" stroke="none" stroke-width="0.125" stroke-linecap="butt"></path><path d="M240.60904,175.61306c0,0.18405 -0.18652,0.3333 -0.41659,0.3333c-0.23007,0 -0.41659,-0.1492 -0.41659,-0.3333c0,-0.18405 0.18651,-0.3333 0.41659,-0.3333c0.23007,0 0.41659,0.1492 0.41659,0.3333z" fill="#fca57a" stroke="#a88c80" stroke-width="0.125" stroke-linecap="butt"></path><path d="M240.41696,178.44585l0.75397,-5.34006l4.94601,0.87433l-0.62067,5.07346z" fill="#e8b49e" stroke="#a88c80" stroke-width="0.125" stroke-linecap="butt"></path><path d="M242.7004,174.67991c0,0.31292 -0.25366,0.56658 -0.56658,0.56658c-0.31292,0 -0.56657,-0.25366 -0.56657,-0.56658c0,-0.31292 0.25365,-0.56658 0.56657,-0.56658c0.31292,0 0.56658,0.25366 0.56658,0.56658z" fill="url(#color-11)" stroke="none" stroke-width="0.125" stroke-linecap="butt"></path><path d="M243.86683,176.37408c0,0.31292 -0.25366,0.56658 -0.56658,0.56658c-0.31292,0 -0.56658,-0.25366 -0.56658,-0.56658c0,-0.31292 0.25366,-0.56658 0.56658,-0.56658c0.31292,0 0.56658,0.25366 0.56658,0.56658z" fill="url(#color-12)" stroke="none" stroke-width="0.125" stroke-linecap="butt"></path><path d="M245.08889,177.90157c0,0.31292 -0.25366,0.56658 -0.56658,0.56658c-0.31292,0 -0.56658,-0.25366 -0.56658,-0.56658c0,-0.31292 0.25366,-0.56658 0.56658,-0.56658c0.31292,0 0.56658,0.25366 0.56658,0.56658z" fill="url(#color-13)" stroke="none" stroke-width="0.125" stroke-linecap="butt"></path><path d="M245.50548,175.04092c0,0.31292 -0.25366,0.56658 -0.56658,0.56658c-0.31292,0 -0.56658,-0.25366 -0.56658,-0.56658c0,-0.31292 0.25366,-0.56658 0.56658,-0.56658c0.31292,0 0.56658,0.25366 0.56658,0.56658z" fill="url(#color-14)" stroke="none" stroke-width="0.125" stroke-linecap="butt"></path><path d="M242.45044,177.62385c0,0.31292 -0.25366,0.56658 -0.56658,0.56658c-0.31292,0 -0.56658,-0.25366 -0.56658,-0.56658c0,-0.31292 0.25366,-0.56658 0.56658,-0.56658c0.31292,0 0.56658,0.25366 0.56658,0.56658z" fill="url(#color-15)" stroke="none" stroke-width="0.125" stroke-linecap="butt"></path><path d="M245.55549,179.20298l0.33857,-5.19858l1.61782,0.52799l-0.25262,4.62088z" fill="url(#color-16)" stroke="none" stroke-width="0.125" stroke-linecap="butt"></path><path d="M228.66425,177.81681l-1.48039,-2.88285l7.47986,1.40247l0.77913,2.80492z" fill="#572f2a" stroke="#000000" stroke-width="0.125" stroke-linecap="butt"></path><text transform="translate(228.78992,176.88444) rotate(11.38346) scale(0.04203,0.04203)" font-size="40" xml:space="preserve" fill="#41251e" fill-rule="nonzero" stroke="none" stroke-width="0.25" stroke-linecap="butt" stroke-linejoin="miter" stroke-miterlimit="10" stroke-dasharray="" stroke-dashoffset="0" font-family="Sans Serif" font-weight="normal" text-anchor="start" style="mix-blend-mode: normal"><tspan x="0" dy="0">xAmt8</tspan></text><path d="M246.0439,177.67307c0,0 0,-0.35353 0,-0.60276c0,-0.40699 0,-1.60738 0,-1.60738h1.82083c0,0 1.49038,0.36347 1.94276,0.79764c0.10918,0.1048 0.43421,0.45892 0.43687,0.67438c0.00295,0.24149 -0.32385,0.34305 -0.32385,0.40325c0,0.39183 -2.05577,0.33487 -2.05577,0.33487z" fill="#a4593e" stroke="#000000" stroke-width="0.125" stroke-linecap="butt"></path><path d="M249.39089,176.69439c0,0.26158 -0.22619,0.47364 -0.50519,0.47364c-0.27901,0 -0.5052,-0.21206 -0.5052,-0.47364c0,-0.26158 0.22619,-0.47365 0.5052,-0.47365c0.27901,0 0.50519,0.21206 0.50519,0.47365z" fill="#ecac8b" stroke="none" stroke-width="0.125" stroke-linecap="butt"></path><path d="M235.43448,179.1889l-0.82097,-2.71549l4.23111,0.44204" fill="none" stroke="#000000" stroke-width="0.125" stroke-linecap="round"></path><path d="M245.85822,171.82202c0,1.19641 -0.79085,2.16634 -1.45809,2.16634c-0.66724,0 -1.54143,-0.96988 -1.54143,-2.16634c0,-0.6064 0.65799,-1.51844 0.81856,-2.27054c0.15624,-0.73182 0.14383,-1.31218 0.4729,-1.31218c0.23702,0 0.40636,0.46779 0.63358,0.90973c0.41245,0.80217 1.07453,1.90166 1.07453,2.67306z" fill="#ffffff" stroke="none" stroke-width="0.125" stroke-linecap="butt"></path><path d="M234.85997,182.32034l12.83128,0.99985l4.08266,0.99985" fill="none" stroke="url(#color-17)" stroke-width="0.125" stroke-linecap="round"></path><path d="M234.99327,182.03705l12.6646,1.08315l4.34099,0.95816l0.48324,-0.16107" fill="none" stroke="#512317" stroke-width="0.125" stroke-linecap="round"></path><g stroke="none" stroke-width="0.125" stroke-linecap="butt"><path d="M234.97334,193.68408l-0.38808,-2.98431l1.24922,-0.16244l0.38809,2.98431z" fill="#5a332a"></path><path d="M234.59706,193.49161l0.36279,-0.98513l6.04215,2.22506l-0.36279,0.98514z" fill="url(#color-18)"></path><path d="M239.87578,194.28989l2.6864,-1.00857l0.47147,1.25582l-2.6864,1.00857z" fill="#5a332a"></path><path d="M243.57301,190.22648l0.1177,-2.72696l0.83908,0.03623l-0.11774,2.72696z" fill="#5a332a"></path><path d="M234.58289,191.09978l1.91066,-5.18834l1.24785,0.45952l-1.91066,5.18834z" fill="#5a332a"></path><path d="M236.48646,185.94692l2.05952,-0.68225l0.93749,0.81482l-2.62289,0.99685z" fill="#5a332a"></path><path d="M238.29429,185.67958l0.16929,-0.45971l6.04215,2.22506l-0.16929,0.45971z" fill="#5a332a"></path><path d="M242.06988,193.85691l1.52365,-4.13755l0.85376,0.3144l-1.52366,4.13754z" fill="#5a332a"></path></g></g></g></g></svg>