<svg version="1.1" xmlns="http://www.w3.org/2000/svg" xmlns:xlink="http://www.w3.org/1999/xlink" width="77.90677" height="57.48079" viewBox="0,0,77.90677,57.48079"><defs><linearGradient x1="242.78496" y1="180.15043" x2="250.40921" y2="180.15043" gradientUnits="userSpaceOnUse" id="color-1"><stop offset="0" stop-color="#000000" stop-opacity="0.25806"></stop><stop offset="1" stop-color="#000000"></stop></linearGradient></defs><g transform="translate(-199.94095,-152.4743)"><g data-paper-data="{&quot;isPaintingLayer&quot;:true}" fill-rule="nonzero" stroke="none" stroke-linecap="butt" stroke-linejoin="miter" stroke-miterlimit="10" stroke-dasharray="" stroke-dashoffset="0" style="mix-blend-mode: normal"><path d="M206.18849,205.79925v-51.59849h68.14678v51.59849zM240.19806,182.16981c0.9484,0 1.78175,-0.49257 2.25818,-1.23585h0.10829l0.10811,0.02703h0.01393l0.01402,0.00312l0.00467,-0.00312h0.15097l0.00467,0.00312l0.01402,-0.00312h0.01393l0.09216,-0.02304l0.04609,0.00355l0.07798,0.01949h0.18919l0.10811,0.02703h0.01393l0.01402,0.00312l0.00467,-0.00312h0.02137l0.00411,0.00137l0.08014,0.00616l0.07798,0.01949h0.02697l0.00411,0.00137l0.08014,0.00616l0.07798,0.01949h0.37832l0.08519,0.0284l0.08014,0.00616l0.07798,0.01949h0.12764l0.04839,0.0121h0.06155l0.05971,0.01493h0.26277l0.04839,0.0121h0.06155l0.05971,0.01493h0.42684l0.00467,0.00312l0.01402,-0.00312h0.01393l0.05405,-0.01351l0.05405,0.01351h0.01393l0.01125,0.0025l0.00092,0.00062l0.00092,-0.00021l0.00092,0.00021l0.00092,-0.00062l0.01125,-0.0025h0.01393l0.10811,-0.02703h0.18359l0.00467,0.00312l0.01402,-0.00312h0.01393l0.02596,-0.00649l0.04007,0.03206l0.00729,0.00334l0.00506,0.00622l0.10811,0.08108l0.03762,0.01584l0.01238,0.02166l0.09615,0.02404l0.09135,0.03846l0.0229,-0.0099l0.0396,0.0099h0.01953l0.04839,0.0121h0.06155l0.05971,0.01493h0.0586l0.07492,0.01498l0.09657,0.02414h0.06155l0.05971,0.01493h0.0171l0.00254,0.00127l0.11215,0.02492l0.11146,0.02786h0.01393l0.0057,0.00127l0.07893,0.03946l0.00279,0.00488l0.01393,0.00348l0.01246,0.00623l0.11215,0.02492l0.11146,0.02786h0.01393l0.04084,0.00907l0.03036,0.01932l0.12845,0.04282l0.02227,0.01114l0.03513,0.00781l0.03036,0.01932l0.04128,0.01376l0.00197,0.00345l0.01393,0.00348l0.01246,0.00623l0.0973,0.02162l0.01081,0.00541l0.11215,0.02492l0.03763,0.00941l0.00662,0.00353l0.05486,0.01372l0.03117,0.01559l0.05518,0.03679l0.02975,0.01063l0.02399,0.02056l0.05405,0.02703l0.03513,0.00781l0.03036,0.01932l0.08108,0.02703l0.08014,0.00616l0.07798,0.01949h0.08108l0.00313,0.00078l0.00092,0.00059l0.08108,0.02703l0.01955,0.0015l0.0173,0.00923l0.08948,0.02237l0.02306,0.00769l0.00197,0.00345l0.01393,0.00348l0.01246,0.00623l0.11215,0.02492l0.03755,0.00939l0.01031,0.00515l0.00279,0.00488l0.01393,0.00348l0.01246,0.00623l0.11215,0.02492l0.11146,0.02786h0.01393l0.01402,0.00312l0.00467,-0.00312h0.0484l0.00411,0.00137l0.06587,0.00507l0.08889,0.01975l0.09486,0.02371l0.03046,0.01625l0.08948,0.02237l0.02915,0.00972l0.13038,0.06519l0.16771,0.03727l0.02795,0.01863l0.02795,-0.00621l0.02795,0.00621l0.02795,-0.01863l0.16771,-0.03727l0.05405,-0.02703l0.19566,-0.16771l0.0011,-0.01971l0.01714,-0.0098l0.0625,-0.25v-0.02703l0.02703,-0.10811v-0.01393l0.00312,-0.01402l-0.00225,-0.00338l0.01065,-0.0479l0.01863,-0.02795l-0.00621,-0.02795l0.00621,-0.02795l-0.01863,-0.02795l-0.01151,-0.05179v-0.05405c0.01566,-0.02404 0.03087,-0.04895 0.04561,-0.07474c0.25661,-0.44906 0.19472,-1.15131 -0.02574,-1.73521l-0.00634,-0.08236l0.0076,-0.09882l-0.01663,-0.01859l-0.00313,-0.0407l-0.00137,-0.00411v-0.27015l0.00137,-0.00411l0.00616,-0.08014l0.01949,-0.07798v-0.27027l-0.01949,-0.07798l-0.00616,-0.08014l-0.02162,-0.06486l-0.00541,-0.07027l-0.02703,-0.08108l-0.0283,-0.04447l0.00117,-0.02103l-0.02527,-0.01685l-0.08595,-0.13507l-0.15769,-0.03154l-0.00875,-0.01313l-0.01589,0.00088l-0.12572,-0.08381l-0.15628,0.03473l-0.02978,-0.00596l-0.01404,0.01569l-0.05145,0.01143l-0.05405,0.02703l-0.031,0.02657l-0.02491,0.00138l-0.02171,0.02533l-0.00917,0.00204h-0.01393l-0.10811,0.02703h-0.18359l-0.00467,-0.00312l-0.01402,0.00312h-0.01393l-0.10811,0.02703h-0.02143l-0.00467,-0.00312l-0.01402,0.00312h-0.01393l-0.10811,0.02703h-0.32432l-0.07798,0.01949l-0.08014,0.00616l-0.00411,0.00137h-0.07543l-0.00467,-0.00312l-0.01402,0.00312h-0.01393l-0.10811,0.02703h-0.12954l-0.00467,-0.00312l-0.01402,0.00312h-0.01393l-0.10811,0.02703h-0.23765l-0.00467,-0.00312l-0.01402,0.00312h-0.01393l-0.08108,0.02027l-0.08108,-0.02027h-0.01393l-0.01402,-0.00312l-0.00467,0.00312h-0.12954l-0.07798,0.01949l-0.08014,0.00616l-0.00034,0.00011l-0.00279,-0.00186l-0.01402,0.00312h-0.01393l-0.10404,0.02601l-0.00315,-0.0021l-0.01402,0.00312h-0.01393l-0.10811,0.02703h-0.07548l-0.00467,-0.00312l-0.01402,0.00312h-0.01393l-0.10404,0.02601l-0.00315,-0.0021l-0.01402,0.00312h-0.01393l-0.10811,0.02703h-0.23765l-0.00467,-0.00312l-0.01402,0.00312h-0.01393l-0.10811,0.02703h-0.50792l-0.00467,-0.00312l-0.01402,0.00312h-0.01393l-0.10811,0.02703h-0.08108l-0.07798,0.01949l-0.08014,0.00616l-0.00034,0.00011l-0.00279,-0.00186l-0.01402,0.00312h-0.01393l-0.10811,0.02703h-0.18919l-0.07798,0.01949l-0.08014,0.00616l-0.00411,0.00137h-0.24319l-0.10811,-0.02703h-0.01393l-0.01402,-0.00312l-0.00467,0.00312h-0.31873l-0.10811,-0.02703h-0.01393l-0.01402,-0.00312l-0.00467,0.00312h-0.10251l-0.04831,0.01208l-0.04974,-0.00237l-0.08659,0.01732h-0.3559l-0.04831,0.01208l-0.04974,-0.00237l-0.13514,0.02703l-0.03656,0.01732h-0.16268l-0.07798,0.01949l-0.08014,0.00616l-0.00411,0.00137h-0.10245l-0.00467,-0.00312l-0.01402,0.00312h-0.01393l-0.11146,0.02786l-0.11215,0.02492l-0.01246,0.00623l-0.01393,0.00348l-0.00279,0.00488l-0.07893,0.03946l-0.14339,0.12291c-0.29999,-1.15247 -1.34768,-2.00321 -2.59407,-2.00321c-1.4803,0 -2.68033,1.20003 -2.68033,2.68033c0,1.4803 1.20003,2.68033 2.68033,2.68033z" fill="#000000" stroke-width="NaN"></path><path d="" fill="#000000" stroke-width="NaN"></path><path d="" fill="#000000" stroke-width="NaN"></path><path d="" fill="#000000" stroke-width="NaN"></path><path d="M200.07189,209.30041v-56.43331h6.41585v56.43331z" fill="#000000" stroke-width="0"></path><path d="M200.07189,209.95509v-5.63024h77.6449v5.63024z" fill="#000000" stroke-width="0"></path><path d="M271.95562,209.16948v-56.56425h5.76117v56.56425z" fill="#000000" stroke-width="0"></path><path d="M199.94096,158.49734v-6.02304h77.90677v6.02304z" fill="#000000" stroke-width="0"></path><path d="M240.12309,181.15588l0.09746,-0.83215l11.62326,1.36128l-0.09746,0.83215z" fill="#000000" stroke-width="0"></path><path d="M240.08541,179.78743l-0.09746,-0.83215l11.62326,-1.36128l0.09746,0.83215z" data-paper-data="{&quot;index&quot;:null}" fill="#000000" stroke-width="0"></path><path d="M250.37534,182.86639v-4.89189h1.64865v4.89189z" fill="#000000" stroke-width="0"></path><path d="M242.78496,182.00179v-3.7027h7.62426v3.7027z" fill="url(#color-1)" stroke-width="0"></path><path d="M240.15506,179.53917c0.09005,0.04715 -0.02646,0.59989 0.0556,0.64571c0.71858,0.40125 1.40179,0.67078 1.6442,0.95147c0.77773,0.90051 -0.78606,1.28852 -2.00356,1.28852c-1.64032,0 -2.97007,-1.33731 -2.97007,-2.98695c0,-1.64964 1.32975,-2.98694 2.97007,-2.98694c0.76158,0 3.30549,1.23399 3.10204,1.90946c-0.23475,0.77938 -3.58121,0.76885 -2.79828,1.17874z" fill="#000000" stroke-width="0"></path></g></g></svg>