<svg version="1.1" xmlns="http://www.w3.org/2000/svg" xmlns:xlink="http://www.w3.org/1999/xlink" width="34.119" height="41.90582" viewBox="0,0,34.119,41.90582"><g transform="translate(-257.05749,-162.84662)"><g data-paper-data="{&quot;isPaintingLayer&quot;:true}" fill-rule="nonzero" stroke-linecap="butt" stroke-linejoin="miter" stroke-miterlimit="10" stroke-dasharray="" stroke-dashoffset="0" style="mix-blend-mode: normal"><path d="M260.62487,187.18717c0,-5.7282 0,-15.6151 0,-18.88251c0,-2.06504 0.87292,-4.45804 1.84235,-4.45804c2.98321,0 18.51126,0 23.95871,0c1.18338,0 1.89105,1.65955 1.89105,4.11262c0,5.78032 0,15.96659 0,19.22792c0,1.97707 -0.72717,4.22776 -1.93975,4.22776c-5.47769,0 -20.86091,0 -23.86132,0c-0.99211,0 -1.89105,-1.71318 -1.89105,-4.22776z" fill-opacity="0.62097" fill="#291800" stroke="#d84646" stroke-width="2"></path><text transform="translate(257.32509,201.54124) scale(0.2676,0.2676)" font-size="40" xml:space="preserve" fill="#ffffff" fill-rule="nonzero" stroke="none" stroke-width="1" stroke-linecap="butt" stroke-linejoin="miter" stroke-miterlimit="10" stroke-dasharray="" stroke-dashoffset="0" font-family="Sans Serif" font-weight="normal" text-anchor="start" style="mix-blend-mode: normal"><tspan x="0" dy="0">Admin</tspan></text><path d="M262.28599,187.38667l13.10943,-16.63173l3.73599,3.06692l-13.10943,15.88173z" fill="#fff4ce" stroke="none" stroke-width="0"></path><path d="M271.58047,169.12603c0,0 -0.3631,-1.07687 -1.4446,-1.21265c-1.9285,-0.24212 -5.05143,0.32844 -4.71324,-0.18647c0.49373,-0.75175 9.22935,-3.27752 9.22935,-3.27752l9.35327,6.14303c0,0 3.19218,3.78671 2.69845,4.53846c-0.52783,0.80366 -5.76996,0.13818 -5.76996,0.13818z" fill="#fff4ce" stroke="none" stroke-width="0"></path></g></g></svg>