<svg version="1.1" xmlns="http://www.w3.org/2000/svg" xmlns:xlink="http://www.w3.org/1999/xlink" width="259.17973" height="185.65615" viewBox="0,0,259.17973,185.65615"><g transform="translate(-17.65552,-144.54375)"><g data-paper-data="{&quot;isPaintingLayer&quot;:true}" fill-rule="nonzero" stroke-linejoin="miter" stroke-miterlimit="10" stroke-dasharray="" stroke-dashoffset="0" style="mix-blend-mode: normal"><path d="M21.86374,329.1999l-3.18416,-133.52808l160.98678,-0.4659" fill="none" stroke="#00bfff" stroke-width="2" stroke-linecap="round"></path><path d="M228.39648,184.38513c0,0 -25.22853,-4.41218 -25.25144,-6.02015c-0.01794,-1.25884 25.12519,-2.8392 25.12519,-2.8392c0,0 7.23521,-30.9399 10.19183,-30.98203c3.3683,-0.04801 8.94436,30.70931 8.94436,30.70931c0,0 28.90921,5.45777 28.92885,6.83539c0.02215,1.55416 -28.80258,2.02396 -28.80258,2.02396c0,0 -8.68867,27.59337 -12.01167,27.64073c-3.02832,0.04316 -7.12451,-27.36801 -7.12451,-27.36801z" fill="#66fff4" stroke="#00cccc" stroke-width="1" stroke-linecap="butt"></path></g></g></svg>