<svg version="1.1" xmlns="http://www.w3.org/2000/svg" xmlns:xlink="http://www.w3.org/1999/xlink" width="86.32555" height="71.24029" viewBox="0,0,86.32555,71.24029"><defs><linearGradient x1="242.97952" y1="322.25" x2="242.97952" y2="385.90806" gradientUnits="userSpaceOnUse" id="color-1"><stop offset="0" stop-color="#00ffb5"></stop><stop offset="1" stop-color="#00ffb5" stop-opacity="0"></stop></linearGradient><linearGradient x1="211.53688" y1="261.21752" x2="135.08286" y2="263.86911" gradientUnits="userSpaceOnUse" id="color-2"><stop offset="0" stop-color="#00ffb5"></stop><stop offset="1" stop-color="#00ffb5" stop-opacity="0"></stop></linearGradient><linearGradient x1="258.47952" y1="264.75" x2="334.97952" y2="264.75" gradientUnits="userSpaceOnUse" id="color-3"><stop offset="0" stop-color="#00ffb5"></stop><stop offset="1" stop-color="#00ffb5" stop-opacity="0"></stop></linearGradient><radialGradient cx="238.47952" cy="258" r="252.5" gradientUnits="userSpaceOnUse" id="color-4"><stop offset="0" stop-color="#00ffb5" stop-opacity="0.03226"></stop><stop offset="1" stop-color="#00ffb5" stop-opacity="0"></stop></radialGradient><linearGradient x1="228.58162" y1="186.73334" x2="195.90204" y2="187.86673" gradientUnits="userSpaceOnUse" id="color-5"><stop offset="0" stop-color="#00ffb5"></stop><stop offset="1" stop-color="#00ffb5" stop-opacity="0"></stop></linearGradient><linearGradient x1="248.64682" y1="188.24326" x2="281.34605" y2="188.24326" gradientUnits="userSpaceOnUse" id="color-6"><stop offset="0" stop-color="#00ffb5"></stop><stop offset="1" stop-color="#00ffb5" stop-opacity="0"></stop></linearGradient><radialGradient cx="240.90311" cy="191.82799" r="34.89133" gradientUnits="userSpaceOnUse" id="color-7"><stop offset="0" stop-color="#dadada"></stop><stop offset="1" stop-color="#5d5d5d"></stop></radialGradient><radialGradient cx="238.65174" cy="191.82799" r="34.89133" gradientUnits="userSpaceOnUse" id="color-8"><stop offset="0" stop-color="#dadada"></stop><stop offset="1" stop-color="#5d5d5d"></stop></radialGradient><radialGradient cx="234.75499" cy="161.56382" r="11.43404" gradientUnits="userSpaceOnUse" id="color-9"><stop offset="0" stop-color="#505050"></stop><stop offset="1" stop-color="#000000"></stop></radialGradient><linearGradient x1="240.79541" y1="181.07373" x2="240.79541" y2="210.32985" gradientUnits="userSpaceOnUse" id="color-10"><stop offset="0" stop-color="#51c9c9" stop-opacity="0"></stop><stop offset="1" stop-color="#51c9c9"></stop></linearGradient></defs><g transform="translate(-195.0205,-139.08956)"><g data-paper-data="{&quot;isPaintingLayer&quot;:true}" fill-rule="nonzero" stroke-linejoin="miter" stroke-miterlimit="10" stroke-dasharray="" stroke-dashoffset="0" style="mix-blend-mode: normal"><path d="" fill="url(#color-1)" stroke="none" stroke-width="0" stroke-linecap="butt"></path><path d="" data-paper-data="{&quot;index&quot;:null}" fill="url(#color-2)" stroke="none" stroke-width="0" stroke-linecap="butt"></path><path d="" fill="url(#color-3)" stroke="none" stroke-width="0" stroke-linecap="butt"></path><path d="" fill="url(#color-4)" stroke-opacity="0.01613" stroke="#00ff77" stroke-width="6" stroke-linecap="butt"></path><path d="" fill="#906800" stroke="none" stroke-width="0" stroke-linecap="butt"></path><path d="" fill="#4163a2" stroke="none" stroke-width="NaN" stroke-linecap="butt"></path><path d="" fill="#2e4572" stroke="none" stroke-width="0" stroke-linecap="butt"></path><path d="" fill="#4163a2" stroke="none" stroke-width="NaN" stroke-linecap="butt"></path><path d="" fill="#2e4572" stroke="none" stroke-width="0" stroke-linecap="butt"></path><g stroke="none" stroke-linecap="butt"><path d="" fill="#6b4d2b" stroke-width="0"></path><path d="" fill="#98793d" stroke-width="NaN"></path></g><g data-paper-data="{&quot;index&quot;:null}" stroke="none" stroke-linecap="butt"><path d="" fill="#6b4d2b" stroke-width="0"></path><path d="" fill="#98793d" stroke-width="NaN"></path></g><path d="M195.02051,162.44928l39.03919,-21.24191l-4.5481,64.26897c-5.12706,-0.37786 -10.25415,-0.74761 -15.38163,-1.08586c-4.38615,-0.28935 -8.73435,-0.86027 -13.13405,-0.8662c0,0 -3.45915,0 -4.15379,3.11183c-0.09642,-0.0013 -0.19284,-0.00258 -0.28927,-0.00383z" data-paper-data="{&quot;index&quot;:null}" fill="url(#color-5)" stroke="none" stroke-width="0" stroke-linecap="butt"></path><path d="M241.59405,142.93452l39.75201,19.876v44.61417c-6.64987,0.03225 -13.29498,0.05688 -19.94667,0.29763c-4.34985,-0.26373 -8.69913,-0.55651 -13.04807,-0.86407z" fill="url(#color-6)" stroke="none" stroke-width="0" stroke-linecap="butt"></path><g><g><path d="M251.99515,170.53081l-20.3597,35.10245c-2.41821,-0.17906 -4.8364,-0.35705 -7.25463,-0.53148l21.95521,-37.8533z" fill="url(#color-7)" stroke="none" stroke-width="0" stroke-linecap="butt"></path><path d="M264.97356,150.32776c0,0 -5.087,6.59735 -6.9608,9.828c-1.51323,2.60899 -3.43326,8.09256 -3.43326,8.09256l-7.5455,-4.37645l10.39406,-17.92056c0,0 3.54085,-0.46725 4.86686,0.30185c1.16943,0.67828 2.67864,4.0746 2.67864,4.0746z" fill="#c1832d" stroke="#000000" stroke-width="0" stroke-linecap="butt"></path><path d="M243.32256,162.66456c0.83086,-1.4325 4.35479,-0.94052 7.87091,1.09887c3.51612,2.03938 5.69297,4.8539 4.86211,6.2864c-0.83086,1.4325 -4.35479,0.94052 -7.87091,-1.09887c-3.51612,-2.03938 -5.69297,-4.8539 -4.86211,-6.2864z" fill="#c1832d" stroke="none" stroke-width="0" stroke-linecap="butt"></path><path d="M257.2347,147.09964l6.93714,4.33871" fill="none" stroke="#906221" stroke-width="1" stroke-linecap="round"></path><path d="M261.0027,155.27241l-6.73907,-3.59359" fill="none" stroke="#906221" stroke-width="1" stroke-linecap="round"></path><path d="M257.85713,160.69573l-6.50328,-3.45683" fill="none" stroke="#906221" stroke-width="1" stroke-linecap="round"></path><path d="M247.84988,160.56363l7.94163,5.86669" fill="none" stroke="#906221" stroke-width="1" stroke-linecap="round"></path><path d="M242.6576,163.53936l12.49723,7.24849" fill="none" stroke="#906221" stroke-width="1" stroke-linecap="round"></path></g><g data-paper-data="{&quot;index&quot;:null}"><path d="M233.21882,167.24847l23.29675,40.16628c-2.62475,-0.17107 -5.24932,-0.35077 -7.87377,-0.53597l-21.0821,-36.34797z" fill="url(#color-8)" stroke="none" stroke-width="0" stroke-linecap="butt"></path><path d="M217.25991,146.25316c1.32601,-0.7691 4.86686,-0.30185 4.86686,-0.30185l10.39406,17.92056l-7.5455,4.37645c0,0 -1.92002,-5.48357 -3.43326,-8.09256c-1.8738,-3.23065 -6.9608,-9.828 -6.9608,-9.828c0,0 1.50921,-3.39632 2.67864,-4.0746z" fill="#c1832d" stroke="#000000" stroke-width="0" stroke-linecap="butt"></path><path d="M231.37018,168.95095c-3.51612,2.03938 -7.04005,2.53136 -7.87091,1.09887c-0.83086,-1.4325 1.34599,-4.24701 4.86211,-6.2864c3.51612,-2.03938 7.04005,-2.53136 7.87091,-1.09887c0.83086,1.4325 -1.34599,4.24701 -4.86211,6.2864z" fill="#c1832d" stroke="none" stroke-width="0" stroke-linecap="butt"></path><path d="M222.32014,147.09964l-6.93714,4.33871" fill="none" stroke="#906221" stroke-width="1" stroke-linecap="round"></path><path d="M225.29121,151.67881l-6.73907,3.59359" fill="none" stroke="#906221" stroke-width="1" stroke-linecap="round"></path><path d="M228.20098,157.2389l-6.50328,3.45683" fill="none" stroke="#906221" stroke-width="1" stroke-linecap="round"></path><path d="M223.76333,166.43032l7.94163,-5.86669" fill="none" stroke="#906221" stroke-width="1" stroke-linecap="round"></path><path d="M224.40001,170.78785l12.49723,-7.24849" fill="none" stroke="#906221" stroke-width="1" stroke-linecap="round"></path></g></g><g data-paper-data="{&quot;index&quot;:null}"><g><path d="M260.17381,192.51633c-0.17021,0.04922 -0.64035,-0.32486 -0.64035,-0.32486l-0.83349,-2.88276l0.95812,-0.27702l0.83349,2.88276c0,0 -0.17261,0.5599 -0.31776,0.60187z" fill="#b76000" stroke="none" stroke-width="0" stroke-linecap="butt"></path><path d="M259.14232,190.20082l0.63034,-0.18225" fill="none" stroke="#994f00" stroke-width="0.2" stroke-linecap="round"></path><path d="M260.04481,190.95988l-0.57141,0.19708" fill="none" stroke="#994f00" stroke-width="0.2" stroke-linecap="round"></path><path d="M260.09916,192.18729c-0.10926,0.03159 -0.43774,-0.09656 -0.43774,-0.09656l-0.11057,-0.38241l0.65556,-0.18954l0.11057,0.38241c0,0 -0.10856,0.25451 -0.21782,0.2861z" fill="#ffd8e6" stroke="#994f00" stroke-width="0.2" stroke-linecap="butt"></path></g><g><path d="M259.0318,193.43979c-0.17021,0.04922 -0.66257,-0.4017 -0.66257,-0.4017l-0.96957,-3.35342l0.95812,-0.27702l0.96957,3.35342c0,0 -0.15039,0.63675 -0.29555,0.67872z" fill="#b76000" stroke="none" stroke-width="0" stroke-linecap="butt"></path><path d="M257.88644,190.73046l0.63034,-0.18225" fill="none" stroke="#994f00" stroke-width="0.2" stroke-linecap="round"></path><path d="M258.26337,191.84509l0.57002,-0.20189" fill="none" stroke="#994f00" stroke-width="0.2" stroke-linecap="round"></path><path d="M258.94188,193.05791c-0.10926,0.03159 -0.44746,-0.13018 -0.44746,-0.13018l-0.12862,-0.44484l0.65555,-0.18954l0.12862,0.44484c0,0 -0.09884,0.28813 -0.2081,0.31972z" fill="#ffd8e6" stroke="#994f00" stroke-width="0.2" stroke-linecap="butt"></path></g><g><path d="M257.95493,194.33205c-0.17021,0.04922 -0.67738,-0.45292 -0.67738,-0.45292l-1.06029,-3.66719l0.95812,-0.27702l1.06029,3.66719c0,0 -0.13558,0.68797 -0.28073,0.72995z" fill="#b76000" stroke="none" stroke-width="0" stroke-linecap="butt"></path><path d="M256.73366,191.36018l0.63034,-0.18225" fill="none" stroke="#994f00" stroke-width="0.2" stroke-linecap="round"></path><path d="M257.14113,192.58047l0.56909,-0.20509" fill="none" stroke="#994f00" stroke-width="0.2" stroke-linecap="round"></path><path d="M257.85483,193.91495c-0.10926,0.03159 -0.45394,-0.15259 -0.45394,-0.15259l-0.14065,-0.48646l0.65556,-0.18954l0.14065,0.48646c0,0 -0.09236,0.31054 -0.20162,0.34213z" fill="#ffd8e6" stroke="#994f00" stroke-width="0.2" stroke-linecap="butt"></path></g><g><path d="M256.50211,193.924c-0.17021,0.04922 -0.64776,-0.35047 -0.64776,-0.35047l-0.87885,-3.03964l0.95812,-0.27702l0.87885,3.03964c0,0 -0.1652,0.58552 -0.31036,0.62749z" fill="#b76000" stroke="none" stroke-width="0" stroke-linecap="butt"></path><path d="M256.063,191.29496l-0.63034,0.18225" fill="none" stroke="#994f00" stroke-width="0.2" stroke-linecap="round"></path><path d="M256.34997,192.28751l-0.57095,0.19869" fill="none" stroke="#994f00" stroke-width="0.2" stroke-linecap="round"></path><path d="M256.42237,193.57735c-0.10926,0.03159 -0.44098,-0.10777 -0.44098,-0.10777l-0.11658,-0.40322l0.65555,-0.18954l0.11658,0.40322c0,0 -0.10532,0.26572 -0.21458,0.29731z" fill="#ffd8e6" stroke="#994f00" stroke-width="0.2" stroke-linecap="butt"></path></g><g><path d="M255.04435,190.64376l-4.39275,-15.19302l4.72216,-1.36531l4.39275,15.19302z" fill="#b76000" stroke="none" stroke-width="0" stroke-linecap="butt"></path><path d="M253.71144,175.51774c-0.78222,0.22616 -2.06181,2.48716 -2.06181,2.48716l-2.10734,-7.28854l4.31153,-1.24659l2.10734,7.28855c0,0 -1.63609,-1.41799 -2.24972,-1.24057z" fill="#4a4a4a" stroke="#949494" stroke-width="1" stroke-linecap="butt"></path><g><path d="M253.68374,192.44068c-0.16797,-0.04083 -0.32838,-0.62745 -0.32838,-0.62745l1.03663,-3.10215l0.94548,0.22984l-1.03663,3.10215c0,0 -0.47387,0.43242 -0.61711,0.3976z" fill="#b76000" stroke="none" stroke-width="0" stroke-linecap="butt"></path><path d="M254.84348,189.91607l-0.62203,-0.15122" fill="none" stroke="#994f00" stroke-width="0.2" stroke-linecap="round"></path><path d="M254.50499,190.92902l-0.58284,-0.10747" fill="none" stroke="#994f00" stroke-width="0.2" stroke-linecap="round"></path><path d="M253.81876,192.09702c-0.10782,-0.02621 -0.29917,-0.31231 -0.29917,-0.31231l0.13751,-0.41151l0.64691,0.15726l-0.13751,0.41151c0,0 -0.23992,0.18126 -0.34774,0.15505z" fill="#ffd8e6" stroke="#994f00" stroke-width="0.2" stroke-linecap="butt"></path></g></g></g><g><g><path d="M219.19399,190.20469l0.83349,-2.88276l0.95812,0.27702l-0.83349,2.88276c0,0 -0.47014,0.37407 -0.64035,0.32485c-0.14516,-0.04197 -0.31776,-0.60187 -0.31776,-0.60187z" fill="#b76000" stroke="none" stroke-width="0" stroke-linecap="butt"></path><path d="M219.9129,188.30881l0.63034,0.18225" fill="none" stroke="#994f00" stroke-width="0.2" stroke-linecap="round"></path><path d="M219.64074,189.25011l0.57141,0.19709" fill="none" stroke="#994f00" stroke-width="0.2" stroke-linecap="round"></path><path d="M219.36858,190.19143l0.11057,-0.38241l0.65555,0.18954l-0.11057,0.38241c0,0 -0.32848,0.12815 -0.43774,0.09656c-0.10926,-0.03159 -0.21782,-0.2861 -0.21782,-0.2861z" fill="#ffd8e6" stroke="#994f00" stroke-width="0.2" stroke-linecap="butt"></path></g><g><path d="M220.35821,191.05131l0.96957,-3.35342l0.95812,0.27702l-0.96957,3.35342c0,0 -0.49236,0.45091 -0.66257,0.4017c-0.14516,-0.04197 -0.29555,-0.67872 -0.29555,-0.67872z" fill="#b76000" stroke="none" stroke-width="0" stroke-linecap="butt"></path><path d="M221.79912,189.0207l-0.63034,-0.18225" fill="none" stroke="#994f00" stroke-width="0.2" stroke-linecap="round"></path><path d="M220.85218,189.93344l0.57002,0.20189" fill="none" stroke="#994f00" stroke-width="0.2" stroke-linecap="round"></path><path d="M220.53558,191.02843l0.12862,-0.44484l0.65555,0.18954l-0.12862,0.44484c0,0 -0.3382,0.16177 -0.44746,0.13018c-0.10926,-0.03159 -0.2081,-0.31972 -0.2081,-0.31972z" fill="#ffd8e6" stroke="#994f00" stroke-width="0.2" stroke-linecap="butt"></path></g><g><path d="M221.44989,191.89234l1.06029,-3.66718l0.95812,0.27702l-1.06029,3.66718c0,0 -0.50717,0.50214 -0.67738,0.45292c-0.14516,-0.04197 -0.28073,-0.72995 -0.28073,-0.72995z" fill="#b76000" stroke="none" stroke-width="0" stroke-linecap="butt"></path><path d="M222.95189,189.65041l-0.63034,-0.18225" fill="none" stroke="#994f00" stroke-width="0.2" stroke-linecap="round"></path><path d="M221.97533,190.66561l0.56909,0.20509" fill="none" stroke="#994f00" stroke-width="0.2" stroke-linecap="round"></path><path d="M221.62911,191.86306l0.14065,-0.48646l0.65555,0.18954l-0.14065,0.48646c0,0 -0.34468,0.18418 -0.45394,0.15259c-0.10926,-0.03159 -0.20162,-0.34213 -0.20162,-0.34213z" fill="#ffd8e6" stroke="#994f00" stroke-width="0.2" stroke-linecap="butt"></path></g><g><path d="M222.87309,191.58675l0.87885,-3.03964l0.95812,0.27702l-0.87885,3.03964c0,0 -0.47755,0.39968 -0.64776,0.35047c-0.14516,-0.04197 -0.31036,-0.62749 -0.31036,-0.62749z" fill="#b76000" stroke="none" stroke-width="0" stroke-linecap="butt"></path><path d="M223.62256,189.5852l0.63034,0.18225" fill="none" stroke="#994f00" stroke-width="0.2" stroke-linecap="round"></path><path d="M223.33558,190.57774l0.57095,0.19868" fill="none" stroke="#994f00" stroke-width="0.2" stroke-linecap="round"></path><path d="M223.04861,191.57028l0.11658,-0.40322l0.65555,0.18954l-0.11658,0.40322c0,0 -0.33172,0.13936 -0.44098,0.10777c-0.10926,-0.03159 -0.21458,-0.29731 -0.21458,-0.29731z" fill="#ffd8e6" stroke="#994f00" stroke-width="0.2" stroke-linecap="butt"></path></g><g><path d="M219.91906,187.56868l4.39275,-15.19302l4.72215,1.36531l-4.39275,15.19302z" fill="#b76000" stroke="none" stroke-width="0" stroke-linecap="butt"></path><path d="M223.7244,175.04854l2.10734,-7.28854l4.31153,1.24659l-2.10734,7.28854c0,0 -1.2796,-2.261 -2.06182,-2.48716c-0.61363,-0.17742 -2.24972,1.24057 -2.24972,1.24057z" fill="#4a4a4a" stroke="#949494" stroke-width="1" stroke-linecap="butt"></path><g><path d="M225.38471,190.33332l-1.03663,-3.10215l0.94548,-0.22984l1.03663,3.10215c0,0 -0.16041,0.58662 -0.32838,0.62744c-0.14324,0.03482 -0.61711,-0.3976 -0.61711,-0.3976z" fill="#b76000" stroke="none" stroke-width="0" stroke-linecap="butt"></path><path d="M224.84208,188.20631l0.62203,-0.15122" fill="none" stroke="#994f00" stroke-width="0.2" stroke-linecap="round"></path><path d="M225.76341,189.11179l-0.58285,0.10746" fill="none" stroke="#994f00" stroke-width="0.2" stroke-linecap="round"></path><path d="M225.51906,190.2322l-0.13751,-0.41151l0.64691,-0.15726l0.13751,0.41151c0,0 -0.19135,0.2861 -0.29917,0.31231c-0.10782,0.02621 -0.34774,-0.15505 -0.34774,-0.15505z" fill="#ffd8e6" stroke="#994f00" stroke-width="0.2" stroke-linecap="butt"></path></g></g></g><path d="M253.88297,167.61924c0,2.44922 -1.89385,4.4347 -4.23002,4.4347c-2.33617,0 -4.23002,-1.98548 -4.23002,-4.4347c0,-2.44922 1.89385,-4.4347 4.23002,-4.4347c2.33617,0 4.23002,1.98548 4.23002,4.4347z" fill="#000000" stroke="#949494" stroke-width="1" stroke-linecap="butt"></path><path d="M234.43441,167.1918c0,2.44922 -1.89385,4.4347 -4.23002,4.4347c-2.33617,0 -4.23002,-1.98548 -4.23002,-4.4347c0,-2.44922 1.89385,-4.4347 4.23002,-4.4347c2.33617,0 4.23002,1.98548 4.23002,4.4347z" fill="#000000" stroke="#949494" stroke-width="1" stroke-linecap="butt"></path><path d="M229.46868,170.26148c0,-3.99377 0.65832,-8.6218 1.38942,-8.6218c2.24981,0 13.96043,0 18.06866,0c0.89245,0 1.42615,3.20955 1.42615,7.95377c0,11.17908 0,30.87923 0,37.18662c0,0.07269 -0.0002,0.14557 -0.00059,0.21861c-6.96184,-0.48454 -13.92273,-1.01256 -20.88364,-1.52551c0,-11.21705 0,-29.13453 0,-35.21169z" fill="#000000" stroke="#fff7d9" stroke-width="0.5" stroke-linecap="butt"></path><path d="M249.28798,163.34483c0,2.95086 -4.14639,5.34301 -9.26122,5.34301c-5.11483,0 -9.26122,-2.39215 -9.26122,-5.34301c0,-2.95086 4.14639,-5.34301 9.26122,-5.34301c5.11483,0 9.26122,2.39215 9.26122,5.34301z" fill="#858585" stroke="#fff7d9" stroke-width="0" stroke-linecap="butt"></path><path d="M251.42519,156.07833c0,6.31485 -4.87998,11.43404 -10.89974,11.43404c-6.01976,0 -10.89974,-5.1192 -10.89974,-11.43404c0,-6.31485 4.87998,-11.43404 10.89974,-11.43404c6.01976,0 10.89974,5.1192 10.89974,11.43404z" fill="url(#color-9)" stroke="none" stroke-width="0" stroke-linecap="butt"></path><path d="M235.60987,152.87252c0,0 -1.4248,-1.11812 -1.4248,-1.70976c0,-0.54423 1.4248,-1.70976 1.4248,-1.70976h10.40106c0,0 1.13984,1.4248 1.13984,1.99473c0,0.56992 -1.13984,1.4248 -1.13984,1.4248z" fill="#b76000" stroke="none" stroke-width="0" stroke-linecap="butt"></path><path d="M237.31964,151.02028c0,-0.23607 0.19137,-0.42744 0.42744,-0.42744c0.23607,0 0.42744,0.19137 0.42744,0.42744c0,0.23607 -0.19137,0.42744 -0.42744,0.42744c-0.23607,0 -0.42744,-0.19137 -0.42744,-0.42744z" fill="#000000" stroke="none" stroke-width="0.5" stroke-linecap="butt"></path><path d="M243.30381,151.16276c0,-0.23607 0.19137,-0.42744 0.42744,-0.42744c0.23607,0 0.42744,0.19137 0.42744,0.42744c0,0.23607 -0.19137,0.42744 -0.42744,0.42744c-0.23607,0 -0.42744,-0.19137 -0.42744,-0.42744z" fill="#000000" stroke="none" stroke-width="0.5" stroke-linecap="butt"></path><path d="M238.00354,166.55063l-0.08549,-1.53879" fill="none" stroke="#8a8a8a" stroke-width="0.5" stroke-linecap="round"></path><path d="M239.79879,165.18282v1.36781" fill="none" stroke="#8a8a8a" stroke-width="0.5" stroke-linecap="round"></path><path d="M241.936,166.46515l-0.17098,-1.28232" fill="none" stroke="#8a8a8a" stroke-width="0.5" stroke-linecap="round"></path><g><path d="M231.95821,147.95177l-0.58783,-2.60603l13.34288,-3.00967l0.58783,2.60603z" fill="#cccccc" stroke="none" stroke-width="0" stroke-linecap="butt"></path><path d="M233.31366,147.74461l-0.72295,-2.81655" fill="none" stroke="#000000" stroke-width="0.5" stroke-linecap="round"></path><path d="M236.77855,146.78779l-0.53735,-2.77078" fill="none" stroke="#000000" stroke-width="0.5" stroke-linecap="round"></path><path d="M240.75445,146.15388l-0.68532,-2.64977" fill="none" stroke="#000000" stroke-width="0.5" stroke-linecap="round"></path><path d="M242.86687,142.69777l0.89789,2.42655" fill="none" stroke="#000000" stroke-width="0.5" stroke-linecap="round"></path><path d="M231.46084,145.3582l-0.31978,-1.41768c0,0 3.02723,-4.10064 4.85372,-4.51263c2.38629,-0.53826 8.23898,1.55939 8.23898,1.55939l0.31978,1.41768z" fill="#616161" stroke="#000000" stroke-width="0.5" stroke-linecap="butt"></path></g><path d="M233.78499,164.3766c0.24719,0.61304 0.21685,1.20303 -0.06778,1.3178c-0.28462,0.11477 -0.71574,-0.28916 -0.96293,-0.90219c-0.24719,-0.61304 -0.21685,-1.20303 0.06778,-1.3178c0.28462,-0.11477 0.71574,0.28916 0.96293,0.90219z" fill="none" stroke="#ffd200" stroke-width="1" stroke-linecap="butt"></path><path d="M234.31929,165.71235c0.24719,0.61303 0.21685,1.20303 -0.06778,1.3178c-0.28462,0.11477 -0.71574,-0.28916 -0.96293,-0.90219c-0.24719,-0.61303 -0.21685,-1.20303 0.06778,-1.3178c0.28462,-0.11477 0.71574,0.28916 0.96293,0.90219z" fill="none" stroke="#ffd200" stroke-width="1" stroke-linecap="butt"></path><path d="M234.90702,167.2084c0.24719,0.61303 0.21685,1.20303 -0.06778,1.3178c-0.28462,0.11477 -0.71574,-0.28916 -0.96293,-0.90219c-0.24719,-0.61303 -0.21685,-1.20303 0.06778,-1.3178c0.28462,-0.11477 0.71574,0.28916 0.96293,0.90219z" fill="none" stroke="#ffd200" stroke-width="1" stroke-linecap="butt"></path><path d="M235.65504,168.65101c0.24719,0.61303 0.21685,1.20303 -0.06778,1.3178c-0.28462,0.11477 -0.71574,-0.28916 -0.96293,-0.90219c-0.24719,-0.61303 -0.21685,-1.20303 0.06778,-1.3178c0.28462,-0.11477 0.71574,0.28916 0.96293,0.90219z" fill="none" stroke="#ffd200" stroke-width="1" stroke-linecap="butt"></path><path d="M236.13592,170.04019c0.24719,0.61303 0.21685,1.20303 -0.06778,1.3178c-0.28462,0.11477 -0.71574,-0.28916 -0.96293,-0.90219c-0.24719,-0.61303 -0.21685,-1.20303 0.06778,-1.3178c0.28462,-0.11477 0.71574,0.28916 0.96293,0.90219z" fill="none" stroke="#ffd200" stroke-width="1" stroke-linecap="butt"></path><path d="M248.03648,163.90186c0.28462,0.11477 0.31497,0.70476 0.06778,1.3178c-0.24719,0.61304 -0.67831,1.01695 -0.96293,0.90219c-0.28462,-0.11477 -0.31497,-0.70476 -0.06778,-1.3178c0.24719,-0.61304 0.67831,-1.01695 0.96293,-0.90219z" data-paper-data="{&quot;index&quot;:null}" fill="none" stroke="#ffd200" stroke-width="1" stroke-linecap="butt"></path><path d="M247.1816,165.34447c0.28462,0.11477 0.31497,0.70476 0.06778,1.3178c-0.24719,0.61303 -0.67831,1.01696 -0.96293,0.90219c-0.28462,-0.11477 -0.31497,-0.70476 -0.06778,-1.3178c0.24719,-0.61303 0.67831,-1.01695 0.96293,-0.90219z" data-paper-data="{&quot;index&quot;:null}" fill="none" stroke="#ffd200" stroke-width="1" stroke-linecap="butt"></path><path d="M246.59386,166.84051c0.28462,0.11477 0.31497,0.70476 0.06778,1.3178c-0.24719,0.61303 -0.67831,1.01696 -0.96293,0.90219c-0.28462,-0.11477 -0.31497,-0.70476 -0.06778,-1.3178c0.24719,-0.61303 0.67831,-1.01695 0.96293,-0.90219z" data-paper-data="{&quot;index&quot;:null}" fill="none" stroke="#ffd200" stroke-width="1" stroke-linecap="butt"></path><path d="M245.84584,168.28313c0.28462,0.11477 0.31497,0.70476 0.06778,1.3178c-0.24719,0.61303 -0.67831,1.01696 -0.96293,0.90219c-0.28462,-0.11477 -0.31497,-0.70476 -0.06778,-1.3178c0.24719,-0.61303 0.67831,-1.01695 0.96293,-0.90219z" data-paper-data="{&quot;index&quot;:null}" fill="none" stroke="#ffd200" stroke-width="1" stroke-linecap="butt"></path><path d="M245.36497,169.72574c0.28462,0.11477 0.31497,0.70476 0.06778,1.3178c-0.24719,0.61303 -0.67831,1.01696 -0.96293,0.90219c-0.28462,-0.11477 -0.31497,-0.70476 -0.06778,-1.3178c0.24719,-0.61303 0.67831,-1.01695 0.96293,-0.90219z" data-paper-data="{&quot;index&quot;:null}" fill="none" stroke="#ffd200" stroke-width="1" stroke-linecap="butt"></path><text transform="translate(235.1664,172.39959) scale(0.06527,0.06527)" font-size="40" xml:space="preserve" fill="#ffffff" fill-rule="nonzero" stroke="#ffd200" stroke-width="1" stroke-linecap="butt" stroke-linejoin="miter" stroke-miterlimit="10" stroke-dasharray="" stroke-dashoffset="0" font-family="Sans Serif" font-weight="normal" text-anchor="start" style="mix-blend-mode: normal"><tspan x="0" dy="0">HITMAN</tspan></text><path d="M250.35658,199.94446l-20.30344,-23.93669" fill="none" stroke="#949494" stroke-width="1" stroke-linecap="round"></path><path d="M226.61514,210.32985v-29.25613h28.36053v29.25613z" fill="url(#color-10)" stroke="none" stroke-width="0" stroke-linecap="butt"></path></g></g></svg>