<svg version="1.1" xmlns="http://www.w3.org/2000/svg" xmlns:xlink="http://www.w3.org/1999/xlink" width="28.19212" height="35.38571" viewBox="0,0,28.19212,35.38571"><g transform="translate(-225.90394,-165.96585)"><g data-paper-data="{&quot;isPaintingLayer&quot;:true}" fill-rule="nonzero" stroke-linecap="butt" stroke-linejoin="miter" stroke-miterlimit="10" stroke-dasharray="" stroke-dashoffset="0" style="mix-blend-mode: normal"><path d="M226.15395,189.5564c0,-5.7282 0,-15.6151 0,-18.88251c0,-2.06504 0.87292,-4.45804 1.84235,-4.45804c2.98321,0 18.51126,0 23.95871,0c1.18338,0 1.89105,1.65955 1.89105,4.11262c0,5.78032 0,15.96659 0,19.22792c0,1.97707 -0.72717,4.22776 -1.93975,4.22776c-5.47769,0 -20.86091,0 -23.86132,0c-0.99211,0 -1.89105,-1.71318 -1.89105,-4.22776z" fill-opacity="0.62097" fill="#291800" stroke="#fff4ce" stroke-width="0.5"></path><text transform="translate(226.78571,198.84916) scale(0.1564,0.1564)" font-size="40" xml:space="preserve" fill="#00e4ff" fill-rule="nonzero" stroke="none" stroke-width="1" stroke-linecap="butt" stroke-linejoin="miter" stroke-miterlimit="10" stroke-dasharray="" stroke-dashoffset="0" font-family="Curly" font-weight="normal" text-anchor="start" style="mix-blend-mode: normal"><tspan x="0" dy="0">To crouch</tspan></text><text transform="translate(238.11722,183.24618) rotate(-48.03974) scale(0.05847,0.05847)" font-size="40" xml:space="preserve" fill="#004275" fill-rule="nonzero" stroke="none" stroke-width="1" stroke-linecap="butt" stroke-linejoin="miter" stroke-miterlimit="10" stroke-dasharray="" stroke-dashoffset="0" font-family="Curly" font-weight="normal" text-anchor="start" style="mix-blend-mode: normal"><tspan x="0" dy="0">xAmt8</tspan></text><g fill="#ffebb0" stroke="none"><path d="M242.39617,190.43013l-4.44819,-1.24255l0.0343,-1.84012l4.44819,1.24255z" stroke-width="0"></path><path d="M241.39805,190.81448l-3.30742,-6.68816l1.62916,-0.80565l3.30742,6.68816z" stroke-width="0"></path><path d="M233.59493,189.78418l-2.42983,-3.92764l1.27194,-1.33018l2.42983,3.92764z" stroke-width="0"></path><path d="M248.09343,174.674c-1.16139,1.41135 -3.27225,1.5932 -4.71473,0.4062c-1.44248,-1.18701 -1.67035,-3.29339 -0.50895,-4.70474c1.16139,-1.41135 3.27225,-1.5932 4.71473,-0.4062c1.44248,1.18701 1.67035,3.29339 0.50895,4.70474z" stroke-width="0"></path><path d="M247.29264,177.14581c0.15006,0.12348 -3.23403,1.48031 -3.69552,2.04112c-0.5983,0.72706 -2.79429,7.41574 -2.94435,7.29226c-1.04623,-0.86093 -3.91283,-3.21985 -4.95905,-4.08078c-0.15006,-0.12348 2.77002,-6.13173 3.32326,-6.80403c0.42542,-0.51698 2.44924,-2.83216 2.59929,-2.70868c1.04623,0.86093 4.63015,3.39918 5.67638,4.26012z" stroke-width="1"></path><path d="M233.64336,178.40127l7.54367,-6.13396l1.0872,2.10771l-7.54367,6.13396z" stroke-width="0"></path><path d="M241.75427,184.76578l3.90568,-8.90382l1.9304,1.37769l-3.90568,8.90382z" stroke-width="0"></path><path d="M234.04056,187.5576l2.6317,-4.66574l1.62317,1.46841l-3.49478,4.63376z" stroke-width="0"></path><path d="M232.81114,189.9567l1.29141,-3.07568l2.01357,-0.04877l-1.29141,3.07568z" stroke-width="0"></path></g></g></g></svg>