<svg version="1.1" xmlns="http://www.w3.org/2000/svg" xmlns:xlink="http://www.w3.org/1999/xlink" width="40.83334" height="41.89474" viewBox="0,0,40.83334,41.89474"><g transform="translate(-219.58333,-159.05263)"><g data-paper-data="{&quot;isPaintingLayer&quot;:true}" fill-rule="nonzero" stroke-linecap="butt" stroke-linejoin="miter" stroke-miterlimit="10" stroke-dasharray="" stroke-dashoffset="0" style="mix-blend-mode: normal"><text transform="translate(237.37539,184.52521) rotate(-48.04097) scale(0.08151,0.08151)" font-size="40" xml:space="preserve" fill="#004275" fill-rule="nonzero" stroke="none" stroke-width="1" stroke-linecap="butt" stroke-linejoin="miter" stroke-miterlimit="10" stroke-dasharray="" stroke-dashoffset="0" font-family="Curly" font-weight="normal" text-anchor="start" style="mix-blend-mode: normal"><tspan x="0" dy="0">xAmt8</tspan></text><path d="M260.16667,180c0,11.43084 -9.02893,20.69737 -20.16667,20.69737c-11.13774,0 -20.16667,-9.26653 -20.16667,-20.69737c0,-11.43084 9.02893,-20.69737 20.16667,-20.69737c11.13774,0 20.16667,9.26653 20.16667,20.69737z" fill-opacity="0.60484" fill="#000000" stroke="#ffe6c3" stroke-width="0.5"></path><g fill="#ffebb0" stroke-width="0.5"><path d="M237.71612,196.51556l1.17993,-23.50231c0,0 0.72542,-0.61971 0.98263,-0.59699c0.98562,0.08705 7.39183,1.27091 7.39183,1.27091l-4.78389,23.13662z" stroke="#000000"></path><path d="M231.05425,192.64747v-23.30544l7.66008,-6.34742l-0.71494,34.01079z" stroke="#000000"></path><path d="M235.9567,184.95352v-5.00459h8.27289v5.00459z" stroke="#000000"></path><path d="M242.58561,184.96182l-2.56148,-3.81609l6.36014,-4.26914l2.56148,3.81609z" stroke="#000000"></path><path d="M239.73568,184.54498v-4.39178h4.39178v4.39178z" stroke="none"></path><path d="M248.72352,167.53959c0,2.3409 -1.89768,4.23858 -4.23858,4.23858c-2.3409,0 -4.23858,-1.89768 -4.23858,-4.23858c0,-2.3409 1.89768,-4.23858 4.23858,-4.23858c2.3409,0 4.23858,1.89768 4.23858,4.23858z" stroke="#000000"></path></g></g></g></svg>