<svg version="1.1" xmlns="http://www.w3.org/2000/svg" xmlns:xlink="http://www.w3.org/1999/xlink" width="255.15921" height="118.73048" viewBox="0,0,255.15921,118.73048"><defs><linearGradient x1="209.5" y1="200.5" x2="211.5" y2="200.5" gradientUnits="userSpaceOnUse" id="color-1"><stop offset="0" stop-color="#bd4c4c"></stop><stop offset="1" stop-color="#ffcf66"></stop></linearGradient><linearGradient x1="109.92078" y1="295.55345" x2="363.07999" y2="295.55345" gradientUnits="userSpaceOnUse" id="color-2"><stop offset="0" stop-color="#fff4ce"></stop><stop offset="1" stop-color="#fff4ce" stop-opacity="0.32258"></stop></linearGradient></defs><g transform="translate(-108.92078,-200)"><g data-paper-data="{&quot;isPaintingLayer&quot;:true}" fill-rule="nonzero" stroke-linecap="butt" stroke-linejoin="miter" stroke-miterlimit="10" stroke-dasharray="" stroke-dashoffset="0" style="mix-blend-mode: normal"><path d="M209.5,201v-1h2v1z" fill="url(#color-1)" stroke="none" stroke-width="0"></path><path d="M109.92078,310.92852c0,-9.21598 0,-25.1228 0,-30.37967c0,-3.32241 7.98021,-7.17243 16.84266,-7.17243c27.27225,0 169.22845,0 219.0287,0c10.81842,0 17.28785,2.67002 17.28785,6.61671c0,9.29983 0,25.6883 0,30.9354c0,3.18086 -6.64776,6.80195 -17.73302,6.80195c-50.07659,0 -190.7088,0 -218.13833,0c-9.06978,0 -17.28784,-2.7563 -17.28784,-6.80195z" fill="url(#color-2)" stroke="#fff4ce" stroke-width="2"></path></g></g></svg>