<svg version="1.1" xmlns="http://www.w3.org/2000/svg" xmlns:xlink="http://www.w3.org/1999/xlink" width="13.85124" height="17.7856" viewBox="0,0,13.85124,17.7856"><defs><radialGradient cx="235.25993" cy="193.11496" r="1.25071" gradientUnits="userSpaceOnUse" id="color-1"><stop offset="0" stop-color="#ffffff" stop-opacity="0.53358"></stop><stop offset="1" stop-color="#46e3ff" stop-opacity="0.59161"></stop></radialGradient><radialGradient cx="237.92955" cy="190.78663" r="1.25071" gradientUnits="userSpaceOnUse" id="color-2"><stop offset="0" stop-color="#ffffff" stop-opacity="0.53358"></stop><stop offset="1" stop-color="#46e3ff" stop-opacity="0.55129"></stop></radialGradient><linearGradient x1="234.80221" y1="203.28644" x2="236.40536" y2="203.37149" gradientUnits="userSpaceOnUse" id="color-3"><stop offset="0" stop-color="#00fdff" stop-opacity="0.41129"></stop><stop offset="1" stop-color="#ffffff" stop-opacity="0.67742"></stop></linearGradient><linearGradient x1="246.00567" y1="198.45229" x2="244.9746" y2="199.68284" gradientUnits="userSpaceOnUse" id="color-4"><stop offset="0" stop-color="#00fdff" stop-opacity="0.41129"></stop><stop offset="1" stop-color="#ffffff" stop-opacity="0.67742"></stop></linearGradient><linearGradient x1="236.36829" y1="195.98446" x2="236.62596" y2="195.5271" gradientUnits="userSpaceOnUse" id="color-5"><stop offset="0" stop-color="#948a00"></stop><stop offset="1" stop-color="#948a00" stop-opacity="0"></stop></linearGradient><linearGradient x1="241.06771" y1="192.87542" x2="240.54866" y2="192.95389" gradientUnits="userSpaceOnUse" id="color-6"><stop offset="0" stop-color="#948a00"></stop><stop offset="1" stop-color="#948a00" stop-opacity="0"></stop></linearGradient></defs><g transform="translate(-234.56169,-190.42934)"><g data-paper-data="{&quot;isPaintingLayer&quot;:true}" fill-rule="nonzero" stroke="none" stroke-linecap="butt" stroke-linejoin="miter" stroke-miterlimit="10" stroke-dasharray="" stroke-dashoffset="0" style="mix-blend-mode: normal"><path d="M236.36836,191.01109c1.46813,-1.0128 3.46161,-0.66937 4.45257,0.76708c0.99095,1.43644 0.60408,3.42198 -0.86404,4.43478c-1.46813,1.0128 -3.46162,0.66937 -4.45257,-0.76707c-0.99095,-1.43644 -0.60408,-3.42199 0.86404,-4.43479z" data-paper-data="{&quot;index&quot;:null}" fill="#000000" stroke-width="0"></path><path d="M241.25112,195.52435c0.14445,-0.0442 0.75728,1.53882 1.36912,3.53829c0.46575,1.52209 0.75578,2.46995 1.22154,3.99206c0.61184,1.99948 0.98976,3.65438 0.84532,3.69857c-1.00713,0.30819 -3.76665,1.15256 -4.77381,1.46076c-0.14445,0.0442 -0.75679,-1.53898 -1.36863,-3.53845c-0.46575,-1.52209 -0.75578,-2.46995 -1.22154,-3.99206c-0.61184,-1.99948 -0.99026,-3.65422 -0.84581,-3.69843c1.00713,-0.30819 3.76666,-1.15256 4.77381,-1.46076z" data-paper-data="{&quot;index&quot;:null}" fill="#000000" stroke-width="1"></path><path d="M247.64535,203.21758l-6.0806,-4.48877l0.76759,-1.67617l6.08059,4.48875z" data-paper-data="{&quot;index&quot;:null}" fill="#000000" stroke-width="0"></path><path d="M234.56169,207.03549l1.73603,-7.35587l1.84294,0.04663l-1.73602,7.35587z" data-paper-data="{&quot;index&quot;:null}" fill="#000000" stroke-width="0"></path><path d="M235.50508,195.33324c0,0 -0.54175,-1.00608 -0.55785,-1.36621c-0.01469,-0.32898 0.17138,-1.25098 0.17138,-1.25098l0.53411,0.53063c0,0 -0.42359,0.59627 -0.40961,0.90888c0.01653,0.36972 0.50235,1.16696 0.50235,1.16696z" fill="url(#color-1)" stroke-width="NaN"></path><path d="M240.13067,191.30041c0,0 -0.79094,-0.49601 -1.16042,-0.51726c-0.31241,-0.01797 -0.91405,0.39794 -0.91405,0.39794l-0.52375,-0.54087c0,0 0.92432,-0.17424 1.25307,-0.15533c0.3599,0.02071 1.35895,0.57531 1.35895,0.57531z" data-paper-data="{&quot;index&quot;:null}" fill="url(#color-2)" stroke-width="NaN"></path><path d="M234.60427,207.01773l1.67938,-7.44829l0.60245,0.10769l-2.00583,7.40908z" fill="url(#color-3)" stroke-width="0"></path><path d="M248.28691,201.65723l-6.34221,-4.14214l0.33207,-0.51407l6.05682,4.54691z" data-paper-data="{&quot;index&quot;:null}" fill="url(#color-4)" stroke-width="0"></path><path d="M238.37513,196.88782c0,0 -1.58079,-0.4063 -1.81452,-0.538c-0.30147,-0.16985 -1.02127,-0.83239 -1.02127,-0.83239l0.25768,-0.45735l2.21113,1.00414z" fill="url(#color-5)" stroke-width="0"></path><path d="M240.55996,194.43671l-0.15351,-2.42357l0.51907,-0.07847c0,0 0.36375,0.90813 0.41547,1.2503c0.0401,0.26524 -0.14141,1.88729 -0.14141,1.88729z" data-paper-data="{&quot;index&quot;:null}" fill="url(#color-6)" stroke-width="0"></path></g></g></svg>