<svg version="1.1" xmlns="http://www.w3.org/2000/svg" xmlns:xlink="http://www.w3.org/1999/xlink" width="27.00851" height="52.24363" viewBox="0,0,27.00851,52.24363"><defs><radialGradient cx="202.41084" cy="193.32347" r="3.31631" gradientUnits="userSpaceOnUse" id="color-1"><stop offset="0" stop-color="#ffffff"></stop><stop offset="1" stop-color="#ad4545"></stop></radialGradient></defs><g transform="translate(-197.92031,-160.10141)"><g data-paper-data="{&quot;isPaintingLayer&quot;:true}" fill-rule="nonzero" stroke-linejoin="miter" stroke-miterlimit="10" stroke-dasharray="" stroke-dashoffset="0" style="mix-blend-mode: normal"><path d="M214.96816,177.86158c0.10195,0 3.47495,-0.38279 3.54851,0.43876c0.09737,1.08758 -4.65016,7.78161 -4.65016,9.64976c0,2.49639 0,4.05097 0,6.54736c0,3.27936 -0.19182,5.93461 -0.42873,5.93461c-1.65181,0 -6.1777,0 -7.82951,0c-0.23691,0 -0.42956,-2.65526 -0.42956,-5.93461c0,-2.49639 0,-4.05097 0,-6.54736c0,-3.27936 7.1887,-14.67968 7.42562,-14.67968c1.65181,0 0.71202,4.59116 2.36384,4.59116z" fill="#b98585" stroke="none" stroke-width="1" stroke-linecap="butt"></path><path d="M220.39724,175.34796c-0.99197,2.55077 -3.90954,3.7967 -6.51659,2.78285c-2.60705,-1.01385 -3.91632,-3.90355 -2.92435,-6.45433c0.99197,-2.55077 3.90954,-3.7967 6.51659,-2.78285c2.60705,1.01385 3.91632,3.90355 2.92435,6.45433z" fill="#fffad7" stroke="none" stroke-width="0" stroke-linecap="butt"></path><path d="M218.72774,173.16004c0.0547,-0.14067 0.21308,-0.21036 0.35375,-0.15565c0.14067,0.0547 0.21036,0.21308 0.15565,0.35375c-0.0547,0.14067 -0.21308,0.21036 -0.35375,0.15565c-0.14067,-0.0547 -0.21036,-0.21308 -0.15565,-0.35375z" fill="#000000" stroke="none" stroke-width="0.5" stroke-linecap="butt"></path><path d="M218.87113,177.51637c-0.09905,0.2547 -0.35375,0.15565 -0.35375,0.15565l-0.13903,-0.06282c-1.39962,-0.1859 -2.28616,-1.2953 -2.42633,-2.66076c0,0 -0.02531,-0.27211 0.2468,-0.29742c0.27211,-0.02531 0.29742,0.2468 0.29742,0.2468c0.08859,1.10148 0.8205,2.03486 1.95075,2.16914l0.26849,0.09566c0,0 0.2547,0.09905 0.15565,0.35375z" fill="#000000" stroke="none" stroke-width="0.5" stroke-linecap="butt"></path><path d="M201.3973,196.77518l2.34972,-11.61806l2.65621,1.14194l-2.34972,11.61806z" fill="#fffad7" stroke="none" stroke-width="0" stroke-linecap="butt"></path><path d="M218.12302,197.11665l-5.43424,-10.53421l2.78669,-0.7706l5.43424,10.53421z" fill="#fffad7" stroke="none" stroke-width="0" stroke-linecap="butt"></path><path d="M206.23228,211.61436v-11.00422h2.91502v11.00422z" fill="#5cff08" stroke="none" stroke-width="0" stroke-linecap="butt"></path><path d="M210.75057,211.83299v-11.3686h2.76927v11.3686z" fill="#5cff08" stroke="none" stroke-width="0" stroke-linecap="butt"></path><g><path d="M211.39672,169.87318c0,0 -0.78564,-0.70755 -0.7672,-1.06682c0.01252,-0.24408 0.86713,-0.8802 0.86713,-0.8802l9.37645,0.48123c0,0 0.73374,0.71798 0.7186,1.01296c-0.01776,0.34589 -0.81853,0.93407 -0.81853,0.93407z" fill="#000000" stroke="none" stroke-width="0" stroke-linecap="butt"></path><path d="M214.90996,165.48134l0.27612,-5.37993l1.74207,0.08941l-0.27612,5.37993z" fill="#00d95b" stroke="none" stroke-width="0" stroke-linecap="butt"></path><path d="M219.14826,166.54913l-1.06199,-1.03571c0,0 2.64573,-1.80699 3.83268,-2.20687c0.9778,-0.32942 3.00987,1.58188 3.00987,1.58188l-0.34645,2.45322c0,0 -0.89608,0.12474 -1.08243,-0.0834c-0.57205,-0.63892 -0.56229,-2.90227 -1.46684,-2.49848c-1.05234,0.46976 -2.88485,1.78936 -2.88485,1.78936z" fill="#d90000" stroke="none" stroke-width="0" stroke-linecap="butt"></path><path d="M224.66208,167.65145c-0.02251,0.43862 -0.4078,0.77534 -0.86056,0.75211c-0.45276,-0.02324 -0.80155,-0.39764 -0.77904,-0.83625c0.02251,-0.43862 0.4078,-0.77534 0.86056,-0.75211c0.45276,0.02324 0.80155,0.39764 0.77904,0.83625z" fill="#ffc500" stroke="none" stroke-width="0" stroke-linecap="butt"></path><path d="M223.40613,167.09896l0.86705,1.12332" fill="none" stroke="#000000" stroke-width="0.5" stroke-linecap="round"></path><path d="M223.26947,167.75978l1.16667,-0.71071" fill="none" stroke="#000000" stroke-width="0.5" stroke-linecap="round"></path><path d="M210.4369,163.90775c-0.85846,-0.49427 -1.08046,1.75819 -1.71492,2.33518c-0.20669,0.18797 -1.08529,-0.02785 -1.08529,-0.02785l-0.09347,-2.47581c0,0 2.21707,-1.69322 3.15601,-1.26543c1.13978,0.5193 3.58662,2.58765 3.58662,2.58765l-1.16244,0.92155c0,0 -1.68779,-1.50027 -2.6865,-2.0753z" data-paper-data="{&quot;index&quot;:null}" fill="#0048d9" stroke="none" stroke-width="0" stroke-linecap="butt"></path><path d="M208.38625,165.76299c0.45276,0.02324 0.80155,0.39764 0.77904,0.83625c-0.02251,0.43862 -0.4078,0.77535 -0.86056,0.75211c-0.45276,-0.02324 -0.80155,-0.39764 -0.77904,-0.83626c0.02251,-0.43862 0.4078,-0.77534 0.86056,-0.7521z" data-paper-data="{&quot;index&quot;:null}" fill="#ffc500" stroke="none" stroke-width="0" stroke-linecap="butt"></path><path d="M207.85411,167.12274l0.9775,-1.02865" data-paper-data="{&quot;index&quot;:null}" fill="none" stroke="#000000" stroke-width="0.5" stroke-linecap="round"></path><path d="M208.8999,166.76543l-1.08778,-0.82641" data-paper-data="{&quot;index&quot;:null}" fill="none" stroke="#000000" stroke-width="0.5" stroke-linecap="round"></path><path d="M215.37516,162.42287l-0.19435,-2.21899l1.74733,-0.01307l-0.57947,2.28202z" fill="#00964e" stroke="none" stroke-width="0" stroke-linecap="butt"></path><path d="M216.80587,162.57336c-0.02251,0.43862 -0.4078,0.77535 -0.86056,0.75211c-0.45276,-0.02324 -0.80155,-0.39764 -0.77904,-0.83626c0.02251,-0.43862 0.4078,-0.77534 0.86056,-0.7521c0.45276,0.02324 0.80155,0.39764 0.77904,0.83625z" fill="#ffc500" stroke="none" stroke-width="0" stroke-linecap="butt"></path><path d="M215.54992,162.02086l0.86705,1.12332" fill="none" stroke="#000000" stroke-width="0.5" stroke-linecap="round"></path><path d="M216.57992,161.97098l-1.16667,0.71071" fill="none" stroke="#000000" stroke-width="0.5" stroke-linecap="round"></path><path d="M211.44278,167.97476l0.14463,-2.81806c0,0 3.14295,-0.7634 4.70994,-0.68297c1.55845,0.07998 4.66651,1.1642 4.66651,1.1642l-0.14463,2.81806z" fill="#dadada" stroke="none" stroke-width="0" stroke-linecap="butt"></path><path d="M211.41521,167.511l4.62596,-3.05041l4.63487,3.78257" fill="none" stroke="#4a00f3" stroke-width="0.25" stroke-linecap="round"></path></g><path d="M207.3916,200.26541l0.16489,-14.67534l4.36962,-8.6568" fill="none" stroke="#000000" stroke-width="0.25" stroke-linecap="round"></path><path d="M212.00856,200.26541l0.32978,-14.18066l3.87495,-7.50256" fill="none" stroke="#000000" stroke-width="0.25" stroke-linecap="round"></path><path d="M205.00067,212.22003v-1.81381c0,0 0.93481,0.27089 1.53968,-0.0971c0.54374,-0.33081 0.74174,-1.30447 1.09858,-1.30447c0.56534,0 1.48403,1.40158 1.48403,1.40158v1.81381z" fill="#bd654c" stroke="#000000" stroke-width="0.25" stroke-linecap="butt"></path><path d="M210.71904,212.1672v-1.81381c0,0 0.91868,-1.40157 1.48402,-1.40157c0.35684,0 0.55485,0.97366 1.09859,1.30448c0.60486,0.36799 1.53967,0.0971 1.53967,0.0971v1.81381z" data-paper-data="{&quot;index&quot;:null}" fill="#bd654c" stroke="#000000" stroke-width="0.25" stroke-linecap="butt"></path><path d="M204.15055,195.11754c0,1.83155 -1.33872,3.31631 -2.99012,3.31631c-1.6514,0 -2.99012,-1.48477 -2.99012,-3.31631c0,-1.83155 1.33872,-3.31631 2.99012,-3.31631c1.6514,0 2.99012,1.48477 2.99012,3.31631z" fill="url(#color-1)" stroke="#000000" stroke-width="0.5" stroke-linecap="butt"></path><path d="M202.31054,192.9789c0,0.22989 -0.18636,0.41626 -0.41626,0.41626c-0.22989,0 -0.41626,-0.18636 -0.41626,-0.41626c0,-0.22989 0.18636,-0.41626 0.41626,-0.41626c0.22989,0 0.41626,0.18636 0.41626,0.41626z" fill="#000000" stroke="none" stroke-width="0" stroke-linecap="butt"></path><path d="M203.20128,193.5054c0,0.22989 -0.18636,0.41626 -0.41626,0.41626c-0.22989,0 -0.41626,-0.18636 -0.41626,-0.41626c0,-0.22989 0.18636,-0.41626 0.41626,-0.41626c0.22989,0 0.41626,0.18636 0.41626,0.41626z" fill="#000000" stroke="none" stroke-width="0" stroke-linecap="butt"></path><path d="M202.37495,194.03191c0,0.22989 -0.18636,0.41626 -0.41626,0.41626c-0.22989,0 -0.41626,-0.18636 -0.41626,-0.41626c0,-0.22989 0.18636,-0.41626 0.41626,-0.41626c0.22989,0 0.41626,0.18636 0.41626,0.41626z" fill="#000000" stroke="none" stroke-width="0" stroke-linecap="butt"></path><path d="M216.90633,166.94096c0,0.26706 -0.38488,0.48356 -0.85965,0.48356c-0.47478,0 -0.85965,-0.2165 -0.85965,-0.48356c0,-0.26706 0.38488,-0.48356 0.85965,-0.48356c0.47478,0 0.85965,0.2165 0.85965,0.48356z" fill="#ec00ff" stroke="none" stroke-width="0" stroke-linecap="butt"></path></g></g></svg>