<svg version="1.1" xmlns="http://www.w3.org/2000/svg" xmlns:xlink="http://www.w3.org/1999/xlink" width="255.15921" height="298.93739" viewBox="0,0,255.15921,298.93739"><g transform="translate(-112.42056,-50.82297)"><g data-paper-data="{&quot;isPaintingLayer&quot;:true}" fill-rule="nonzero" stroke-linejoin="miter" stroke-miterlimit="10" stroke-dasharray="" stroke-dashoffset="0" style="mix-blend-mode: normal"><path d="M113.42056,303.15269c0,-61.68098 0,-168.14254 0,-203.32586c0,-22.23631 7.98021,-48.00386 16.84266,-48.00386c27.27225,0 169.22845,0 219.0287,0c10.81842,0 17.28785,17.86996 17.28785,44.2845c0,62.24219 0,171.92737 0,207.04528c0,21.28896 -6.64776,45.52428 -17.73302,45.52428c-50.07659,0 -190.7088,0 -218.13833,0c-9.06978,0 -17.28784,-18.44743 -17.28784,-45.52428z" fill-opacity="0.56452" fill="#291800" stroke="#fff4ce" stroke-width="2" stroke-linecap="butt"></path><path d="M117.66684,122.1767v-23.33333h222.57143c0,0 18.09524,8.29178 18.09524,12c0,4.04094 -18.09524,11.33333 -18.09524,11.33333z" fill-opacity="0.48419" fill="#290000" stroke="none" stroke-width="0" stroke-linecap="butt"></path><text transform="translate(189.12085,86.76835) scale(0.74899,0.74899)" font-size="40" xml:space="preserve" fill="#fff4ce" fill-rule="nonzero" stroke="none" stroke-width="1" stroke-linecap="butt" stroke-linejoin="miter" stroke-miterlimit="10" stroke-dasharray="" stroke-dashoffset="0" font-family="Impact" font-weight="normal" text-anchor="start" style="mix-blend-mode: normal"><tspan x="0" dy="0">Settings</tspan></text><g stroke-linecap="butt"><text transform="translate(153.47681,84.24086) scale(0.15436,0.15436)" font-size="40" xml:space="preserve" fill="#ffffff" fill-rule="nonzero" stroke="none" stroke-width="1" stroke-linecap="butt" stroke-linejoin="miter" stroke-miterlimit="10" stroke-dasharray="" stroke-dashoffset="0" font-family="Sans Serif" font-weight="normal" text-anchor="start" style="mix-blend-mode: normal"><tspan x="0" dy="0">xAmt8</tspan></text><path d="M172.0961,72.89957c0,5.48984 -4.4133,9.94022 -9.85739,9.94022c-5.44409,0 -9.85739,-4.45038 -9.85739,-9.94022c0,-5.48984 4.4133,-9.94022 9.85739,-9.94022c5.44409,0 9.85739,4.45038 9.85739,9.94022z" fill="none" stroke="#fff4ce" stroke-width="4.5"></path><path d="M159.86023,62.09861c0.03019,-1.48097 0.08229,-4.03711 0.09952,-4.88185c0.01088,-0.53389 0.16793,-1.14963 0.32833,-1.14636c0.4936,0.01007 3.06287,0.06244 3.96422,0.08082c0.1958,0.00398 0.30415,0.43544 0.29122,1.06964c-0.03046,1.49444 -0.08415,4.12798 -0.10134,4.97117c-0.01042,0.51115 -0.1426,1.09059 -0.34324,1.08649c-0.90634,-0.01848 -3.45164,-0.07037 -3.94809,-0.08048c-0.16416,-0.00335 -0.30387,-0.4493 -0.29061,-1.09941z" fill="#fff4ce" stroke="#fff4ce" stroke-width="1"></path><path d="M168.64046,63.47529c1.05802,-1.0367 2.88413,-2.82608 3.48763,-3.41742c0.38141,-0.37374 0.92452,-0.70365 1.0368,-0.58905c0.34553,0.35264 2.14408,2.18814 2.77505,2.83207c0.13707,0.13988 -0.08748,0.52389 -0.54058,0.96785c-1.06763,1.04615 -2.94907,2.88969 -3.55145,3.47993c-0.36516,0.35782 -0.8651,0.6792 -1.00555,0.53586c-0.63446,-0.6475 -2.41624,-2.46589 -2.76376,-2.82056c-0.11491,-0.11728 0.0974,-0.53359 0.56184,-0.98869z" fill="#fff4ce" stroke="#fff4ce" stroke-width="1"></path><path d="M173.38393,70.76203c1.48126,0.00055 4.03794,0.00149 4.88287,0.00182c0.534,0.0002 1.15276,0.14489 1.1527,0.30533c-0.00018,0.49371 -0.00113,3.06351 -0.00147,3.96504c-0.00007,0.19584 -0.42926,0.3128 -1.0636,0.31256c-1.49473,-0.00055 -4.12884,-0.00153 -4.9722,-0.00184c-0.51125,-0.00018 -1.09321,-0.12075 -1.09314,-0.32143c0.00034,-0.90653 0.00128,-3.45237 0.00146,-3.94891c0.00007,-0.16419 0.44313,-0.31279 1.09338,-0.31255z" fill="#fff4ce" stroke="#fff4ce" stroke-width="1"></path><path d="M146.87661,70.36442c1.48126,0.00055 4.03794,0.00149 4.88287,0.00182c0.53401,0.0002 1.15277,0.14489 1.1527,0.30532c-0.00018,0.4937 -0.00113,3.06351 -0.00147,3.96504c-0.00007,0.19584 -0.42926,0.3128 -1.0636,0.31256c-1.49475,-0.00055 -4.12883,-0.00153 -4.97219,-0.00184c-0.51125,-0.00018 -1.09321,-0.12075 -1.09314,-0.32143c0.00033,-0.90653 0.00128,-3.45237 0.00146,-3.94891c0.00007,-0.16419 0.44313,-0.31279 1.09338,-0.31255z" fill="#fff4ce" stroke="#fff4ce" stroke-width="1"></path><path d="M156.30209,62.94514c0.46444,0.4551 0.67675,0.87141 0.56184,0.98869c-0.34752,0.35467 -2.12931,2.17305 -2.76376,2.82056c-0.14045,0.14333 -0.64039,-0.17804 -1.00555,-0.53586c-0.60238,-0.59026 -2.4838,-2.4338 -3.55145,-3.47993c-0.45308,-0.44396 -0.67764,-0.82797 -0.54058,-0.96785c0.63096,-0.64393 2.4295,-2.47944 2.77504,-2.83207c0.11229,-0.1146 0.65539,0.21532 1.0368,0.58905c0.6035,0.59135 2.42963,2.38072 3.48765,3.41742z" data-paper-data="{&quot;index&quot;:null}" fill="#fff4ce" stroke="#fff4ce" stroke-width="1"></path><path d="M159.99281,84.49575c-0.01326,-0.65011 0.12647,-1.09606 0.29061,-1.09941c0.49645,-0.01013 3.04175,-0.06201 3.94809,-0.08048c0.20063,-0.00408 0.33281,0.57535 0.34324,1.08649c0.01719,0.84319 0.07088,3.47673 0.10134,4.97117c0.01293,0.63422 -0.09542,1.06566 -0.29122,1.06964c-0.90134,0.01838 -3.4706,0.07075 -3.96422,0.08082c-0.1604,0.00326 -0.31746,-0.61246 -0.32833,-1.14636c-0.01723,-0.84475 -0.06932,-3.40089 -0.09951,-4.88185z" data-paper-data="{&quot;index&quot;:null}" fill="#fff4ce" stroke="#fff4ce" stroke-width="1"></path><path d="M168.77298,82.32384c-0.46444,-0.4551 -0.67675,-0.87141 -0.56184,-0.98869c0.34752,-0.35467 2.12931,-2.17305 2.76376,-2.82056c0.14045,-0.14333 0.64039,0.17804 1.00555,0.53586c0.60238,0.59026 2.4838,2.4338 3.55145,3.47993c0.45308,0.44396 0.67764,0.82797 0.54058,0.96785c-0.63096,0.64393 -2.4295,2.47944 -2.77504,2.83207c-0.11229,0.1146 -0.65539,-0.21532 -1.0368,-0.58905c-0.6035,-0.59135 -2.42963,-2.38072 -3.48765,-3.41742z" data-paper-data="{&quot;index&quot;:null}" fill="#fff4ce" stroke="#fff4ce" stroke-width="1"></path><path d="M155.24176,82.19131c-1.05802,1.0367 -2.88415,2.82608 -3.48765,3.41742c-0.38143,0.37374 -0.92452,0.70365 -1.0368,0.58905c-0.34553,-0.35264 -2.14408,-2.18814 -2.77504,-2.83207c-0.13707,-0.13988 0.08748,-0.52389 0.54058,-0.96785c1.06763,-1.04615 2.94907,-2.88969 3.55145,-3.47993c0.36516,-0.35782 0.8651,-0.6792 1.00555,-0.53586c0.63446,0.6475 2.41624,2.46589 2.76376,2.82056c0.11491,0.11728 -0.0974,0.53359 -0.56184,0.98869z" data-paper-data="{&quot;index&quot;:null}" fill="#fff4ce" stroke="#fff4ce" stroke-width="1"></path></g><path d="M136.64416,93.45022l203.01003,2.21064" fill="none" stroke="#fff4ce" stroke-width="2" stroke-linecap="round"></path><text transform="translate(123.20491,117.79885) scale(0.5,0.5)" font-size="40" xml:space="preserve" fill="#fff4ce" fill-rule="nonzero" stroke="none" stroke-width="1" stroke-linecap="butt" stroke-linejoin="miter" stroke-miterlimit="10" stroke-dasharray="" stroke-dashoffset="0" font-family="Impact" font-weight="normal" text-anchor="start" style="mix-blend-mode: normal"><tspan x="0" dy="0">SOUND-</tspan></text><text transform="translate(120.66684,136.4267) scale(0.33388,0.33388)" font-size="40" xml:space="preserve" fill="#fff4ce" fill-rule="nonzero" stroke="none" stroke-width="1" stroke-linecap="butt" stroke-linejoin="miter" stroke-miterlimit="10" stroke-dasharray="" stroke-dashoffset="0" font-family="Monospace" font-weight="normal" text-anchor="start" style="mix-blend-mode: normal"><tspan x="0" dy="0">Footsteps</tspan></text><text transform="translate(120.66682,154.09337) scale(0.33388,0.33388)" font-size="40" xml:space="preserve" fill="#fff4ce" fill-rule="nonzero" stroke="none" stroke-width="1" stroke-linecap="butt" stroke-linejoin="miter" stroke-miterlimit="10" stroke-dasharray="" stroke-dashoffset="0" font-family="Monospace" font-weight="normal" text-anchor="start" style="mix-blend-mode: normal"><tspan x="0" dy="0">Mute Sound</tspan></text><path d="M117.39586,183.70527v-23.33333h222.8797c0,0 18.1203,8.29178 18.1203,12c0,4.04094 -18.1203,11.33333 -18.1203,11.33333z" fill-opacity="0.44355" fill="#290000" stroke="none" stroke-width="0" stroke-linecap="butt"></path><text transform="translate(119.87158,179.72313) scale(0.5,0.5)" font-size="40" xml:space="preserve" fill="#fff4ce" fill-rule="nonzero" stroke="none" stroke-width="1" stroke-linecap="butt" stroke-linejoin="miter" stroke-miterlimit="10" stroke-dasharray="" stroke-dashoffset="0" font-family="Impact" font-weight="normal" text-anchor="start" style="mix-blend-mode: normal"><tspan x="0" dy="0">VISUALS-</tspan></text><text transform="translate(166.66671,341.51036) scale(0.5,0.5)" font-size="40" xml:space="preserve" fill="#ffcfcf" fill-rule="nonzero" stroke="none" stroke-width="1" stroke-linecap="butt" stroke-linejoin="miter" stroke-miterlimit="10" stroke-dasharray="" stroke-dashoffset="0" font-family="Monospace" font-weight="normal" text-anchor="start" style="mix-blend-mode: normal"><tspan x="0" dy="0">Tap to Close</tspan></text><text transform="translate(118.06253,197.22622) scale(0.33388,0.33388)" font-size="40" xml:space="preserve" fill="#fff4ce" fill-rule="nonzero" stroke="none" stroke-width="1" stroke-linecap="butt" stroke-linejoin="miter" stroke-miterlimit="10" stroke-dasharray="" stroke-dashoffset="0" font-family="Monospace" font-weight="normal" text-anchor="start" style="mix-blend-mode: normal"><tspan x="0" dy="0">Hide other UI</tspan></text><g fill="none" stroke="#fff4ce" stroke-width="4" stroke-linecap="round"><path d="M338.00006,80.10417l14.625,-17.4375"></path><path d="M353.18756,80.66666l-14.625,-17.4375" data-paper-data="{&quot;index&quot;:null}"></path></g><text transform="translate(243.00013,155.40695) scale(0.29905,0.29905)" font-size="40" xml:space="preserve" fill="#ffcfcf" fill-rule="nonzero" stroke="none" stroke-width="1" stroke-linecap="butt" stroke-linejoin="miter" stroke-miterlimit="10" stroke-dasharray="" stroke-dashoffset="0" font-family="Monospace" font-weight="normal" text-anchor="start" style="mix-blend-mode: normal"><tspan x="0" dy="0">[Not Recommended]</tspan></text><text transform="translate(115.66681,235.54789) scale(0.33388,0.33388)" font-size="40" xml:space="preserve" fill="#fff4ce" fill-rule="nonzero" stroke="none" stroke-width="1" stroke-linecap="butt" stroke-linejoin="miter" stroke-miterlimit="10" stroke-dasharray="" stroke-dashoffset="0" font-family="Monospace" font-weight="normal" text-anchor="start" style="mix-blend-mode: normal"><tspan x="0" dy="0">Admin Commands</tspan></text><text transform="translate(119.68184,214.89288) scale(0.33388,0.33388)" font-size="40" xml:space="preserve" fill="#fff4ce" fill-rule="nonzero" stroke="none" stroke-width="1" stroke-linecap="butt" stroke-linejoin="miter" stroke-miterlimit="10" stroke-dasharray="" stroke-dashoffset="0" font-family="Monospace" font-weight="normal" text-anchor="start" style="mix-blend-mode: normal"><tspan x="0" dy="0">Jumpscares</tspan></text></g></g></svg>