<svg version="1.1" xmlns="http://www.w3.org/2000/svg" xmlns:xlink="http://www.w3.org/1999/xlink" width="154.69212" height="54.70897" viewBox="0,0,154.69212,54.70897"><g transform="translate(-222.65395,-72.54185)"><g data-paper-data="{&quot;isPaintingLayer&quot;:true}" fill-rule="nonzero" stroke-linejoin="miter" stroke-miterlimit="10" stroke-dasharray="" stroke-dashoffset="0" style="mix-blend-mode: normal"><path d="M223.654,118.16761c0,-10.95198 0,-29.85515 0,-36.10225c0,-3.94823 4.81321,-8.52351 10.15857,-8.52351c16.44918,0 102.0696,0 132.1064,0c6.52506,0 10.4271,3.17296 10.4271,7.86309c0,11.05163 0,30.52718 0,36.76265c0,3.78004 -4.00955,8.08323 -10.69562,8.08323c-30.20354,0 -115.02538,0 -131.5694,0c-5.47041,0 -10.4271,-3.2755 -10.4271,-8.08323z" fill-opacity="0.62097" fill="#291800" stroke="#fff4ce" stroke-width="2" stroke-linecap="butt"></path><text transform="translate(270.5,102.26667) scale(0.33388,0.33388)" font-size="40" xml:space="preserve" fill="#fff4ce" fill-rule="nonzero" stroke="none" stroke-width="1" stroke-linecap="butt" stroke-linejoin="miter" stroke-miterlimit="10" stroke-dasharray="" stroke-dashoffset="0" font-family="Serif" font-weight="normal" text-anchor="start" style="mix-blend-mode: normal"><tspan x="0" dy="0">Press Q to Chat</tspan></text><path d="M231.05395,103.87243c0,-3.22249 0,-8.78451 0,-10.62264c0,-1.16172 0.96861,-2.50794 2.04431,-2.50794c3.31023,0 20.5405,0 26.58511,0c1.3131,0 2.09835,0.93361 2.09835,2.31362c0,3.25181 0,8.98225 0,10.81696c0,1.11223 -0.80688,2.37839 -2.15239,2.37839c-3.40937,0 -13.11369,-0.96552 -20.266,1.03784c-2.08703,0.58458 -3.7738,6.36216 -5.25044,6.36216c-2.48462,0 -0.04369,-7.4 -0.9606,-7.4c-1.10087,0 -2.09835,-0.96377 -2.09835,-2.37839z" fill="none" stroke="#fff4ce" stroke-width="2" stroke-linecap="butt"></path><path d="M237.86289,98.90859c0,-0.55228 0.44772,-1 1,-1c0.55228,0 1,0.44772 1,1c0,0.55228 -0.44772,1 -1,1c-0.55228,0 -1,-0.44772 -1,-1z" fill="#fff4ce" stroke="none" stroke-width="0.5" stroke-linecap="butt"></path><path d="M243.06289,99.08359c0,-0.55228 0.44772,-1 1,-1c0.55228,0 1,0.44772 1,1c0,0.55228 -0.44772,1 -1,1c-0.55228,0 -1,-0.44772 -1,-1z" fill="#fff4ce" stroke="none" stroke-width="0.5" stroke-linecap="butt"></path><path d="M248.58789,98.93359c0,-0.55228 0.44772,-1 1,-1c0.55228,0 1,0.44772 1,1c0,0.55228 -0.44772,1 -1,1c-0.55228,0 -1,-0.44772 -1,-1z" fill="#fff4ce" stroke="none" stroke-width="0.5" stroke-linecap="butt"></path><path d="M362.44444,120.89304l-124.44444,0.44444" fill="none" stroke="#00ffff" stroke-width="2" stroke-linecap="round"></path></g></g></svg>