<svg version="1.1" xmlns="http://www.w3.org/2000/svg" xmlns:xlink="http://www.w3.org/1999/xlink" width="13.45681" height="17.85312" viewBox="0,0,13.45681,17.85312"><defs><radialGradient cx="235.99595" cy="191.40121" r="1.25071" gradientUnits="userSpaceOnUse" id="color-1"><stop offset="0" stop-color="#ffffff" stop-opacity="0.53358"></stop><stop offset="1" stop-color="#46e3ff" stop-opacity="0.59161"></stop></radialGradient><radialGradient cx="239.43131" cy="190.53732" r="1.25071" gradientUnits="userSpaceOnUse" id="color-2"><stop offset="0" stop-color="#ffffff" stop-opacity="0.53358"></stop><stop offset="1" stop-color="#46e3ff" stop-opacity="0.55129"></stop></radialGradient><linearGradient x1="233.48328" y1="202.49953" x2="235.08864" y2="202.51171" gradientUnits="userSpaceOnUse" id="color-3"><stop offset="0" stop-color="#00fdff" stop-opacity="0.41129"></stop><stop offset="1" stop-color="#ffffff" stop-opacity="0.67742"></stop></linearGradient><linearGradient x1="245.56145" y1="199.38649" x2="244.19455" y2="200.22847" gradientUnits="userSpaceOnUse" id="color-4"><stop offset="0" stop-color="#00fdff" stop-opacity="0.41129"></stop><stop offset="1" stop-color="#ffffff" stop-opacity="0.67742"></stop></linearGradient><linearGradient x1="235.68194" y1="194.46125" x2="236.11905" y2="194.17055" gradientUnits="userSpaceOnUse" id="color-5"><stop offset="0" stop-color="#948a00"></stop><stop offset="1" stop-color="#948a00" stop-opacity="0"></stop></linearGradient><linearGradient x1="241.28039" y1="193.82244" x2="240.78222" y2="193.65691" gradientUnits="userSpaceOnUse" id="color-6"><stop offset="0" stop-color="#948a00"></stop><stop offset="1" stop-color="#948a00" stop-opacity="0"></stop></linearGradient></defs><g transform="translate(-233.41321,-189.99958)"><g data-paper-data="{&quot;isPaintingLayer&quot;:true}" fill-rule="nonzero" stroke="none" stroke-linecap="butt" stroke-linejoin="miter" stroke-miterlimit="10" stroke-dasharray="" stroke-dashoffset="0" style="mix-blend-mode: normal"><path d="M237.93818,190.02912c1.76783,-0.23657 3.38858,0.97385 3.62004,2.70352c0.23147,1.72967 -1.01405,3.32363 -2.78186,3.5602c-1.76783,0.23657 -3.38859,-0.97385 -3.62005,-2.70351c-0.23147,-1.72967 1.01405,-3.32364 2.78187,-3.56021z" data-paper-data="{&quot;index&quot;:null}" fill="#000000" stroke-width="0"></path><path d="M241.096,195.52593c0.14957,-0.02117 0.50843,1.63797 0.80146,3.70832c0.22306,1.57605 0.36195,2.55751 0.58502,4.13358c0.29303,2.07036 0.40865,3.76392 0.25909,3.78508c-1.04283,0.14761 -3.90017,0.55198 -4.94304,0.69959c-0.14957,0.02117 -0.50792,-1.63805 -0.80095,-3.7084c-0.22306,-1.57605 -0.36195,-2.55751 -0.58502,-4.13358c-0.29303,-2.07036 -0.40917,-3.76384 -0.25959,-3.78502c1.04283,-0.14761 3.90018,-0.55198 4.94304,-0.69959z" data-paper-data="{&quot;index&quot;:null}" fill="#000000" stroke-width="1"></path><path d="M245.6124,204.42573l-4.35195,-6.17926l1.25762,-1.348l4.35195,6.17924z" data-paper-data="{&quot;index&quot;:null}" fill="#000000" stroke-width="0"></path><path d="M233.41321,206.25564l1.40029,-7.4271l1.84316,-0.03709l-1.40028,7.4271z" data-paper-data="{&quot;index&quot;:null}" fill="#000000" stroke-width="0"></path><path d="M235.20809,193.4893c0,0 -0.02638,-1.14237 0.12264,-1.47061c0.13615,-0.29984 0.72023,-1.0371 0.72023,-1.0371l0.23527,0.71519c0,0 -0.64799,0.33922 -0.77735,0.62415c-0.15299,0.33698 -0.08171,1.26786 -0.08171,1.26786z" fill="url(#color-1)" stroke-width="NaN"></path><path d="M241.15983,191.99374c0,0 -0.47986,-0.80085 -0.79949,-0.98739c-0.27026,-0.15774 -0.99511,-0.06002 -0.99511,-0.06002l-0.22139,-0.71961c0,0 0.90278,0.26405 1.18717,0.43004c0.31134,0.18173 0.95008,1.1292 0.95008,1.1292z" data-paper-data="{&quot;index&quot;:null}" fill="url(#color-2)" stroke-width="NaN"></path><path d="M233.45494,206.23596l1.3395,-7.51686l0.60672,0.08023l-1.66739,7.49251z" fill="url(#color-3)" stroke-width="0"></path><path d="M246.71387,203.14782l-4.70964,-5.93299l0.47742,-0.3829l4.31103,6.22691z" data-paper-data="{&quot;index&quot;:null}" fill="url(#color-4)" stroke-width="0"></path><path d="M237.06058,196.17672c0,0 -1.22444,-1.07922 -1.37299,-1.30261c-0.19161,-0.28813 -0.53252,-1.20511 -0.53252,-1.20511l0.43712,-0.29069l1.51498,1.89796z" fill="url(#color-5)" stroke-width="0"></path><path d="M240.1196,194.98349l0.96266,-2.22947l0.49819,0.16554c0,0 -0.08781,0.97432 -0.19695,1.30272c-0.08459,0.25457 -0.98219,1.61776 -0.98219,1.61776z" data-paper-data="{&quot;index&quot;:null}" fill="url(#color-6)" stroke-width="0"></path></g></g></svg>