<svg version="1.1" xmlns="http://www.w3.org/2000/svg" xmlns:xlink="http://www.w3.org/1999/xlink" width="104.14633" height="32.46795" viewBox="0,0,104.14633,32.46795"><g transform="translate(-230.85946,-261.26605)"><g data-paper-data="{&quot;isPaintingLayer&quot;:true}" fill-rule="nonzero" stroke-linejoin="miter" stroke-miterlimit="10" stroke-dasharray="" stroke-dashoffset="0" style="mix-blend-mode: normal"><text transform="translate(266.16667,284.00002) scale(0.5,0.5)" font-size="40" xml:space="preserve" fill="#9966ff" fill-rule="nonzero" stroke="none" stroke-width="1" stroke-linecap="butt" stroke-linejoin="miter" stroke-miterlimit="10" stroke-dasharray="" stroke-dashoffset="0" font-family="Serif" font-weight="normal" text-anchor="start" style="mix-blend-mode: normal"><tspan x="0" dy="0">xamt8</tspan></text><path d="M231.85949,288.06156c0,-6.33069 0,-17.2575 0,-20.86857c0,-2.28224 3.21989,-4.92694 6.79577,-4.92694c11.004,0 68.28142,0 88.37512,0c4.36507,0 6.97541,1.8341 6.97541,4.54519c0,6.38829 0,17.64596 0,21.25032c0,2.18502 -2.68227,4.67244 -7.15504,4.67244c-20.20524,0 -76.94844,0 -88.01588,0c-3.65954,0 -6.97541,-1.89337 -6.97541,-4.67244z" fill-opacity="0.62097" fill="#291800" stroke="#d84646" stroke-width="2" stroke-linecap="butt"></path><g fill="#ff7a7a"><text transform="translate(261.58298,284.91892) scale(0.58039,0.58039)" font-size="40" xml:space="preserve" fill="#ff7a7a" fill-rule="nonzero" stroke="none" stroke-width="1" stroke-linecap="butt" stroke-linejoin="miter" stroke-miterlimit="10" stroke-dasharray="" stroke-dashoffset="0" font-family="Serif" font-weight="normal" text-anchor="start" style="mix-blend-mode: normal"><tspan x="0" dy="0">Die</tspan></text><g stroke="#d84646" stroke-width="0.5"><g><path d="M246.85478,283.4155l-2.2548,-4.3273l7.70441,0.00968l-2.56542,4.13412z" stroke-linecap="butt"></path><path d="M242.02807,278.94238c0,0 -2.03586,-1.32648 -2.26367,-2.22086c-0.13152,-0.51639 0.71382,-1.40419 0.75602,-2.30865c0.0777,-1.66558 -0.52277,-3.44182 -0.52277,-3.44182c0,0 5.04113,-3.12975 7.61936,-3.19812c0.69952,-0.01855 1.5863,0.15092 2.52023,0.41416c-0.81834,0.30258 -1.58125,0.74453 -1.33426,1.84406c0.08154,0.36295 0.60653,0.83192 0.84247,1.06176c0.02323,0.02263 0.04459,0.04984 0.06588,0.0775c-0.00219,0.00384 -0.00438,0.00776 -0.00661,0.01177c-0.138,0.25019 -0.26261,0.53992 -0.23501,0.8243c0.00269,0.02777 0.00583,0.05382 0.00935,0.07827c-0.32226,0.05027 -0.72667,0.00404 -0.92733,0.25401c-0.18959,0.23621 0.01867,0.6055 0.028,0.90826l-0.03222,0.03004c0,0 0,0.62765 0.62765,0.62765c0.38178,0 0.53133,-0.23222 0.58992,-0.41416c0.09927,-0.02863 0.2326,-0.08841 0.40838,-0.18934c0.35353,-0.20301 0.74253,-0.46562 0.8799,-0.84946c0.0701,-0.19585 -0.12858,-0.38141 -0.27482,-0.55623c0.50749,-0.3342 0.49279,-0.5628 0.18739,-1.23363c-0.03233,-0.07103 -0.78043,-0.79866 -0.84835,-0.86778c-0.04907,-0.04994 -0.18488,-0.11357 -0.13403,-0.16171c0.29753,-0.28173 0.73096,-0.32073 1.10399,-0.44457c0,0 0.4345,-0.14484 0.43746,-0.55824c2.32005,0.81482 4.51169,1.9161 4.51169,1.9161c0,0 -0.70666,3.05167 -0.70268,5.15515c0.00118,0.62127 0.94274,1.13657 0.88692,1.49511c-0.12426,0.79835 -1.55564,2.16028 -1.55564,2.16028c0,0 -1.00285,1.01875 -1.78051,1.08218c-1.4037,0.11448 -3.28246,-1.3067 -5.16075,-1.44926c-1.43867,-0.10919 -2.99559,1.06561 -3.62583,1.04497c-0.64456,-0.02111 -2.07014,-1.09178 -2.07014,-1.09178zM245.62316,277.45255l-0.15341,-0.29599c-0.26824,-0.39955 -0.41642,-0.89304 -0.69863,-1.27569c-0.04716,-0.06395 -0.10391,-0.11963 -0.16331,-0.17302c0.13109,-0.09534 0.2604,-0.19248 0.36452,-0.31469c0.13327,-0.15638 0.193,-0.36278 0.2895,-0.54417l0.20789,-0.30966c0,0 0.34817,-0.52223 -0.17408,-0.8704c-0.52223,-0.34817 -0.8704,0.17408 -0.8704,0.17408l-0.24914,0.3759c-0.073,0.16118 -0.16156,0.28355 -0.25989,0.3893c-0.00825,-0.01564 -0.01676,-0.03117 -0.02551,-0.04651c-0.25723,-0.45081 -0.39732,-0.77304 -0.4987,-1.29345c0,0 -0.1231,-0.61546 -0.73856,-0.49238c-0.61546,0.1231 -0.49238,0.73856 -0.49238,0.73856c0.13066,0.63959 0.32298,1.11656 0.64391,1.67733c0.04176,0.07298 0.11628,0.2279 0.19612,0.39387c-0.15603,0.2836 -0.26788,0.59127 -0.48143,0.83559c-0.23456,0.26837 -0.50623,0.50189 -0.75826,0.75392c0,0 -0.44382,0.44382 0,0.88764c0.44382,0.44382 0.88764,0 0.88764,0c0.11033,-0.11033 0.8125,-0.8115 0.84139,-0.84572c0.13468,-0.1594 0.22932,-0.34001 0.32002,-0.52212c0.2371,0.3487 0.37937,0.80271 0.61478,1.15791l0.07511,0.16105c0,0 0.2807,0.56139 0.84209,0.2807c0.56139,-0.2807 0.2807,-0.84209 0.2807,-0.84209z" stroke-linecap="butt"></path><path d="M252.33558,280.27408l3.68291,-2.34471" stroke-linecap="round"></path><path d="M252.13558,280.02458l-2.27763,2.8044" stroke-linecap="round"></path><path d="M255.36649,278.67579l-2.22753,1.40929" stroke-linecap="round"></path><path d="M253.93048,280.36898l-1.22563,-0.22883" stroke-linecap="round"></path><path d="M249.28978,285.0432l-0.00957,-2.00331l0.73993,-0.01963l0.05425,2.04568c0,0 -0.2901,0.42409 -0.43259,0.41996c-0.1112,-0.00322 -0.352,-0.44271 -0.352,-0.44271z" stroke-linecap="butt"></path><path d="M249.5153,285.34727c-0.00322,-0.12162 0.09276,-0.22284 0.21437,-0.22606c0.12162,-0.00322 0.22284,0.09276 0.22606,0.21437c0.00322,0.12162 -0.09276,0.22284 -0.21437,0.22606c-0.12162,0.00322 -0.22284,-0.09276 -0.22606,-0.21437z" stroke-linecap="butt"></path></g><path d="M245.73161,283.99619l-2.2548,-4.3273l7.70441,0.00968l-2.56542,4.13412z" stroke-linecap="butt"></path><path d="M240.90488,279.5231c0,0 -2.03586,-1.32648 -2.26367,-2.22086c-0.13152,-0.51639 0.71382,-1.40419 0.75602,-2.30865c0.0777,-1.66558 -0.52277,-3.44182 -0.52277,-3.44182c0,0 5.04113,-3.12975 7.61936,-3.19812c0.71849,-0.01905 1.63452,0.16025 2.59631,0.43578c-0.2752,0.28779 -0.41368,0.67848 -0.28716,1.24173c0.08154,0.36295 0.60653,0.83192 0.84247,1.06176c0.02323,0.02263 0.04459,0.04984 0.06588,0.0775c-0.00219,0.00384 -0.00438,0.00776 -0.00661,0.01177c-0.138,0.25019 -0.26261,0.53992 -0.23501,0.8243c0.00269,0.02777 0.00583,0.05382 0.00935,0.07827c-0.32226,0.05027 -0.72667,0.00404 -0.92733,0.25401c-0.18959,0.23621 0.01867,0.6055 0.028,0.90826l-0.03222,0.03004c0,0 0,0.62765 0.62765,0.62765c0.38178,0 0.53133,-0.23222 0.58992,-0.41416c0.09927,-0.02863 0.2326,-0.08841 0.40838,-0.18934c0.35353,-0.20301 0.74253,-0.46562 0.8799,-0.84946c0.0701,-0.19585 -0.12858,-0.38141 -0.27482,-0.55623c0.50749,-0.3342 0.49279,-0.5628 0.18739,-1.23363c-0.03233,-0.07103 -0.78043,-0.79866 -0.84835,-0.86778c-0.04907,-0.04994 -0.18488,-0.11357 -0.13403,-0.16171c0.18954,-0.17946 0.43424,-0.26044 0.68333,-0.32759c2.21915,0.8028 4.24662,1.82159 4.24662,1.82159c0,0 -0.70666,3.05167 -0.70268,5.15515c0.00118,0.62127 0.94274,1.13657 0.88692,1.49511c-0.12426,0.79835 -1.55564,2.16028 -1.55564,2.16028c0,0 -1.00285,1.01875 -1.78051,1.08218c-1.4037,0.11448 -3.28246,-1.3067 -5.16075,-1.44926c-1.43867,-0.10919 -2.99559,1.06561 -3.62583,1.04497c-0.64456,-0.02111 -2.07014,-1.09178 -2.07014,-1.09178zM245.62316,277.45255l-0.15341,-0.29599c-0.26824,-0.39955 -0.41642,-0.89304 -0.69863,-1.27569c-0.04716,-0.06395 -0.10391,-0.11963 -0.16331,-0.17302c0.13109,-0.09534 0.2604,-0.19248 0.36452,-0.31469c0.13327,-0.15638 0.193,-0.36278 0.2895,-0.54417l0.20789,-0.30966c0,0 0.34817,-0.52223 -0.17408,-0.8704c-0.52223,-0.34817 -0.8704,0.17408 -0.8704,0.17408l-0.24914,0.3759c-0.073,0.16118 -0.16156,0.28355 -0.25989,0.3893c-0.00825,-0.01564 -0.01676,-0.03117 -0.02551,-0.04651c-0.25723,-0.45081 -0.39732,-0.77304 -0.4987,-1.29345c0,0 -0.1231,-0.61546 -0.73856,-0.49238c-0.61546,0.1231 -0.49238,0.73856 -0.49238,0.73856c0.13066,0.63959 0.32298,1.11656 0.64391,1.67733c0.04176,0.07298 0.11628,0.2279 0.19612,0.39387c-0.15603,0.2836 -0.26788,0.59127 -0.48143,0.83559c-0.23456,0.26837 -0.50623,0.50189 -0.75826,0.75392c0,0 -0.44382,0.44382 0,0.88764c0.44382,0.44382 0.88764,0 0.88764,0c0.11033,-0.11033 0.8125,-0.8115 0.84139,-0.84572c0.13468,-0.1594 0.22932,-0.34001 0.32002,-0.52212c0.2371,0.3487 0.37937,0.80271 0.61478,1.15791l0.07511,0.16105c0,0 0.2807,0.56139 0.84209,0.2807c0.56139,-0.2807 0.2807,-0.84209 0.2807,-0.84209z" stroke-linecap="butt"></path><path d="M249.26623,272.0252l-1.19321,-0.61038l1.02331,-0.88357c0.18657,0.22227 0.41471,0.43073 0.54909,0.56164c0.00437,0.00425 0.00867,0.00867 0.01292,0.01322z" stroke-linecap="butt"></path><path d="M250.37436,269.42777l-0.18616,0.43635c-0.03549,-0.03497 -0.06055,-0.05973 -0.07063,-0.07c-0.02076,-0.02112 -0.05704,-0.0447 -0.08816,-0.06852z" stroke-linecap="butt"></path><path d="M249.05239,272.03089l0.09095,0.08625" stroke-linecap="round"></path><path d="M241.35382,278.33928c0,0 -0.224,-0.91783 -0.23732,-1.41989c-0.01451,-0.54711 0.15354,-1.73926 0.15354,-1.73926c0,0 0.51644,-0.80051 0.98817,-1.2602c0.12549,0.4505 0.29727,0.83584 0.54679,1.27184c0.04176,0.07298 0.11628,0.2279 0.19612,0.39387c-0.15603,0.2836 -0.26788,0.59127 -0.48143,0.83559c-0.23456,0.26837 -0.50623,0.50189 -0.75826,0.75392c0,0 -0.44382,0.44382 0,0.88764c0.44382,0.44382 0.88764,0 0.88764,0c0.11033,-0.11033 0.8125,-0.8115 0.84139,-0.84572c0.13468,-0.1594 0.22932,-0.34001 0.32002,-0.52212c0.2371,0.3487 0.37937,0.80271 0.61478,1.15791l0.07511,0.16105c0,0 0.10769,0.2154 0.32309,0.31263c-0.41403,0.24058 -1.6328,0.92191 -2.18062,0.93643c-0.46182,0.01224 -1.28905,-0.92374 -1.28905,-0.92374z" stroke-linecap="butt"></path><path d="M245.19196,276.61164c0.00035,0.01315 0.00055,0.02662 0.00061,0.04039c-0.12893,-0.26739 -0.25064,-0.53957 -0.42143,-0.77116c-0.04716,-0.06395 -0.10391,-0.11963 -0.16331,-0.17302c0.12862,-0.09354 0.25552,-0.18883 0.35861,-0.3078c0.08919,0.34348 0.21691,0.88692 0.22553,1.21159z" stroke-linecap="butt"></path><path d="M243.89073,274.5617c-0.12182,-0.21349 -0.21738,-0.39815 -0.29498,-0.58869c0.17114,0.11892 0.34402,0.25516 0.50506,0.39053c-0.05585,0.09379 -0.11797,0.17305 -0.18458,0.24468c-0.00825,-0.01564 -0.01676,-0.03117 -0.02551,-0.04651z" stroke-linecap="butt"></path><path d="M240.35608,279.00265l3.35443,1.40908" stroke-linecap="round"></path><path d="M246.48846,280.86449l-0.03095,-1.16717c0,0 0.59771,-2.39301 0.85406,-2.39982c0.33417,-0.00887 0.98005,2.35118 0.98005,2.35118l0.03095,1.16717c0,0 -0.69836,-1.67946 -1.02992,-1.67067c-0.26455,0.00701 -0.80419,1.7193 -0.80419,1.7193z" stroke-linecap="butt"></path><path d="M250.8882,278.85239c-0.17736,0.0047 -0.76676,1.54113 -1.05221,1.98113c-0.13692,0.21105 -0.14396,0.19385 -0.27937,0.13894c-0.64163,-0.26012 0.08353,-2.69249 0.08353,-2.69249c0,0 -0.82626,-1.14743 -0.84076,-1.69454c-0.01332,-0.50206 0.23008,-1.54163 0.23008,-1.54163c0,0 1.37316,-1.57193 2.03531,-1.58949c0.48588,-0.01289 1.57514,1.49375 1.57514,1.49375c0,0 0.23099,1.18155 0.24551,1.72866c0.01332,0.50206 -0.16173,1.43046 -0.16173,1.43046c0,0 -0.77646,0.97851 -1.23826,0.99076z" data-paper-data="{&quot;index&quot;:null}" stroke-linecap="butt"></path><path d="M248.73476,283.40969l2.27763,-2.8044" stroke-linecap="round"></path><path d="M248.61111,283.67432l-2.96087,0.03497l-2.40032,-3.46437" stroke-linecap="round"></path><path d="M241.23158,279.68865l1.89582,0.86439" stroke-linecap="round"></path><path d="M254.24331,279.25651l-2.22753,1.40929" stroke-linecap="round"></path><path d="M251.58167,280.72085l1.22563,0.22883" stroke-linecap="round"></path><path d="M245.4834,285.63016l-0.00957,-2.00331l0.73993,-0.01963l0.05425,2.04568c0,0 -0.2901,0.42409 -0.43259,0.41996c-0.1112,-0.00322 -0.352,-0.44271 -0.352,-0.44271z" stroke-linecap="butt"></path><path d="M246.48684,285.62518l-0.00957,-2.00331l0.73993,-0.01963l0.05425,2.04568c0,0 -0.2901,0.42409 -0.43259,0.41996c-0.1112,-0.00322 -0.352,-0.44271 -0.352,-0.44271z" stroke-linecap="butt"></path><path d="M247.30953,285.66136l-0.00957,-2.00331l0.73993,-0.01963l0.05425,2.04568c0,0 -0.2901,0.42409 -0.43259,0.41996c-0.1112,-0.00322 -0.352,-0.44271 -0.352,-0.44271z" stroke-linecap="butt"></path><path d="M248.16663,285.6239l-0.00957,-2.00331l0.73993,-0.01963l0.05425,2.04568c0,0 -0.2901,0.42409 -0.43259,0.41996c-0.1112,-0.00322 -0.352,-0.44271 -0.352,-0.44271z" stroke-linecap="butt"></path><path d="M245.63133,285.96483l0.29073,-0.00772" stroke-linecap="round"></path><path d="M246.1059,285.95224c0.00585,0.22022 -0.21437,0.22606 -0.21437,0.22606l-0.29073,0.00772c0,0 -0.22022,0.00585 -0.22606,-0.21437c-0.00585,-0.22022 0.21437,-0.22606 0.21437,-0.22606l0.29073,-0.00772c0,0 0.22022,-0.00585 0.22606,0.21437z" stroke-linecap="butt"></path><path d="M246.71941,285.93598c-0.00322,-0.12162 0.09276,-0.22284 0.21437,-0.22606c0.12162,-0.00322 0.22284,0.09276 0.22606,0.21437c0.00322,0.12162 -0.09276,0.22284 -0.21437,0.22606c-0.12162,0.00322 -0.22284,-0.09276 -0.22606,-0.21437z" stroke-linecap="butt"></path><path d="M247.5553,285.91381c-0.00322,-0.12162 0.09276,-0.22284 0.21437,-0.22606c0.12162,-0.00322 0.22284,0.09276 0.22606,0.21437c0.00322,0.12162 -0.09276,0.22284 -0.21437,0.22606c-0.12162,0.00322 -0.22284,-0.09276 -0.22606,-0.21437z" stroke-linecap="butt"></path><path d="M248.39211,285.92798c-0.00322,-0.12162 0.09276,-0.22284 0.21437,-0.22606c0.12162,-0.00322 0.22284,0.09276 0.22606,0.21437c0.00322,0.12162 -0.09276,0.22284 -0.21437,0.22606c-0.12162,0.00322 -0.22284,-0.09276 -0.22606,-0.21437z" stroke-linecap="butt"></path></g></g></g></g></svg>