<svg version="1.1" xmlns="http://www.w3.org/2000/svg" xmlns:xlink="http://www.w3.org/1999/xlink" width="45.36358" height="9.09683" viewBox="0,0,45.36358,9.09683"><defs><radialGradient cx="282.13673" cy="180.05434" r="2.80247" gradientUnits="userSpaceOnUse" id="color-1"><stop offset="0" stop-color="#ff6666"></stop><stop offset="1" stop-color="#ff6666" stop-opacity="0"></stop></radialGradient><radialGradient cx="275.07808" cy="183.54624" r="2.80247" gradientUnits="userSpaceOnUse" id="color-2"><stop offset="0" stop-color="#ff6666"></stop><stop offset="1" stop-color="#ff6666" stop-opacity="0"></stop></radialGradient></defs><g transform="translate(-238.21226,-177.25187)"><g data-paper-data="{&quot;isPaintingLayer&quot;:true}" fill-rule="nonzero" stroke-width="0.25" stroke-linecap="butt" stroke-linejoin="miter" stroke-miterlimit="10" stroke-dasharray="" stroke-dashoffset="0" style="mix-blend-mode: normal"><path d="M245.39591,179.96038v-1.05451l36.43289,-0.48996l-0.22865,2.39374z" fill="#ff6666" stroke="#000000"></path><path d="M283.57584,180.05434c0,1.54776 -0.64431,2.80247 -1.43911,2.80247c-0.7948,0 -1.43911,-1.25471 -1.43911,-2.80247c0,-1.54776 0.64431,-2.80247 1.43911,-2.80247c0.7948,0 1.43911,1.25471 1.43911,2.80247z" fill="url(#color-1)" stroke="none"></path><path d="M238.33726,183.45227v-1.05451l36.43289,-0.48996l-0.22865,2.39374z" fill="#ff6666" stroke="#000000"></path><path d="M276.51719,183.54624c0,1.54776 -0.64431,2.80247 -1.4391,2.80247c-0.79479,0 -1.4391,-1.25471 -1.4391,-2.80247c0,-1.54776 0.64431,-2.80247 1.4391,-2.80247c0.79479,0 1.4391,1.25471 1.4391,2.80247z" fill="url(#color-2)" stroke="none"></path></g></g></svg>