<svg version="1.1" xmlns="http://www.w3.org/2000/svg" xmlns:xlink="http://www.w3.org/1999/xlink" width="83.01389" height="30.82778" viewBox="0,0,83.01389,30.82778"><g transform="translate(-198.99445,-164.61111)"><g data-paper-data="{&quot;isPaintingLayer&quot;:true}" fill-rule="nonzero" stroke="none" stroke-linecap="butt" stroke-linejoin="miter" stroke-miterlimit="10" stroke-dasharray="" stroke-dashoffset="0" style="mix-blend-mode: normal"><text transform="translate(259.4,193.8) scale(0.09263,0.09263)" font-size="40" xml:space="preserve" fill="#705a4c" fill-rule="nonzero" stroke="none" stroke-width="1" stroke-linecap="butt" stroke-linejoin="miter" stroke-miterlimit="10" stroke-dasharray="" stroke-dashoffset="0" font-family="Marker" font-weight="normal" text-anchor="start" style="mix-blend-mode: normal"><tspan x="0" dy="0">xAmt8</tspan></text><path d="M213.16668,195.33334v-30.66667h53.66667v30.66667z" fill="#5d4a3f" stroke-width="0"></path><path d="M230.13334,179.9c0,8.44382 -6.97068,15.28889 -15.56944,15.28889c-8.59876,0 -15.56944,-6.84507 -15.56944,-15.28889c0,-8.44382 6.97066,-15.28889 15.56944,-15.28889c8.59878,0 15.56944,6.84507 15.56944,15.28889z" fill="#5d4a3f" stroke-width="0"></path><path d="M229.63333,179.9c0,8.44382 -6.85876,15.28889 -15.31944,15.28889c-8.46068,0 -15.31944,-6.84507 -15.31944,-15.28889c0,-8.44382 6.85873,-15.28889 15.31944,-15.28889c8.46071,0 15.31944,6.84507 15.31944,15.28889z" fill="#b59e93" stroke-width="0"></path><path d="M282.00834,180.0875c0,8.47834 -6.97068,15.35139 -15.56944,15.35139c-8.59876,0 -15.56944,-6.87305 -15.56944,-15.35139c0,-8.47834 6.97067,-15.35139 15.56944,-15.35139c8.59877,0 15.56944,6.87305 15.56944,15.35139z" fill="#5d4a3f" stroke-width="0"></path></g></g></svg>