<svg version="1.1" xmlns="http://www.w3.org/2000/svg" xmlns:xlink="http://www.w3.org/1999/xlink" width="29.64931" height="88.03517" viewBox="0,0,29.64931,88.03517"><defs><radialGradient cx="240.35353" cy="234.77635" r="1.01852" gradientUnits="userSpaceOnUse" id="color-1"><stop offset="0" stop-color="#00ffde" stop-opacity="0.39516"></stop><stop offset="1" stop-color="#00b2de" stop-opacity="0.34677"></stop></radialGradient><radialGradient cx="227.72127" cy="229.52962" r="1.01852" gradientUnits="userSpaceOnUse" id="color-2"><stop offset="0" stop-color="#00ffde" stop-opacity="0.39516"></stop><stop offset="1" stop-color="#00b2de" stop-opacity="0.34677"></stop></radialGradient><radialGradient cx="252.66386" cy="234.52034" r="1.01852" gradientUnits="userSpaceOnUse" id="color-3"><stop offset="0" stop-color="#00ffde" stop-opacity="0.39516"></stop><stop offset="1" stop-color="#00b2de" stop-opacity="0.34677"></stop></radialGradient><radialGradient cx="240.20608" cy="258.22779" r="1.01852" gradientUnits="userSpaceOnUse" id="color-4"><stop offset="0" stop-color="#00ffde" stop-opacity="0.39516"></stop><stop offset="1" stop-color="#00b2de" stop-opacity="0.34677"></stop></radialGradient><radialGradient cx="240.20654" cy="207.56143" r="1.01852" gradientUnits="userSpaceOnUse" id="color-5"><stop offset="0" stop-color="#00ffde" stop-opacity="0.39516"></stop><stop offset="1" stop-color="#00b2de" stop-opacity="0.34677"></stop></radialGradient><linearGradient x1="239.03961" y1="210.9398" x2="239.03961" y2="261.02852" gradientUnits="userSpaceOnUse" id="color-6"><stop offset="0" stop-color="#33ffff" stop-opacity="0"></stop><stop offset="1" stop-color="#33ffff" stop-opacity="0.25132"></stop></linearGradient></defs><g transform="translate(-225.02717,-175.54017)"><g data-paper-data="{&quot;isPaintingLayer&quot;:true}" fill-rule="nonzero" stroke-linejoin="miter" stroke-miterlimit="10" stroke-dasharray="" stroke-dashoffset="0" style="mix-blend-mode: normal"><text transform="translate(238.14237,236.44137) rotate(8.60242) scale(0.03339,0.08421) skewX(17.88266)" font-size="40" xml:space="preserve" fill-opacity="0.24326" fill="#9effff" fill-rule="nonzero" stroke="none" stroke-width="1" stroke-linecap="butt" stroke-linejoin="miter" stroke-miterlimit="10" stroke-dasharray="" stroke-dashoffset="0" font-family="Sans Serif" font-weight="normal" text-anchor="start" style="mix-blend-mode: normal"><tspan x="0" dy="0">xamt8</tspan></text><path d="M227.98297,227.34273c1.26424,-5.50687 3.3504,-13.07708 3.3504,-13.07708c0,0 2.98098,-3.2268 7.65112,-3.2266" fill="none" stroke="#43f2ff" stroke-width="1" stroke-linecap="butt"></path><path d="M241.7539,211.46012c4.3947,1.51009 7.58568,7.06931 7.58568,7.06931c0,0 3.6984,14.03767 3.61026,17.8875c-0.26602,11.61952 -5.21522,20.53723 -11.44047,21.3624" fill="none" stroke="#43f2ff" stroke-width="1" stroke-linecap="butt"></path><path d="M238.14745,257.44011c-6.07423,-2.03012 -10.72504,-11.48159 -11.09501,-22.54349" fill="none" stroke="#43f2ff" stroke-width="1" stroke-linecap="butt"></path><path d="M251.1853,239.09738c-1.07905,9.54777 -5.90991,16.23862 -11.53187,15.38814c-6.23094,-0.94261 -11.07412,-10.79186 -10.81754,-21.99893c0.05766,-2.51837 3.73907,-15.87741 3.73907,-15.87741c0,0 3.17685,-3.43882 8.00762,-2.70803c4.3669,0.66062 7.67347,6.42124 7.67347,6.42124c0,0 1.8939,7.18851 2.74252,12.05265" fill="none" stroke="#43f2ff" stroke-width="1" stroke-linecap="butt"></path><path d="M229.97785,241.60606l-1.26693,3.50125" fill="none" stroke="#43f2ff" stroke-width="1" stroke-linecap="round"></path><path d="M249.27634,252.61505l-1.40965,-3.90616" fill="none" stroke="#43f2ff" stroke-width="1" stroke-linecap="round"></path><path d="M230.75195,244.041l13.67107,-28.1003l-4.79785,38.07438l-3.32897,-39.72642l12.83489,31.80847l-19.97234,-14.31485l22.11556,2.54912l-20.43516,9.7982" fill="none" stroke="#43f2ff" stroke-width="0.5" stroke-linecap="round"></path><path d="M250.74992,235.79989c0.05563,-2.43016 0.86712,-4.28426 1.81251,-4.14124c0.94539,0.14301 1.66667,2.22899 1.61103,4.65915c-0.05563,2.43016 -0.86712,4.28426 -1.81251,4.14124c-0.94539,-0.14301 -1.66667,-2.22899 -1.61103,-4.65915z" fill="none" stroke="#43f2ff" stroke-width="1" stroke-linecap="butt"></path><path d="M237.96305,258.40844c0.05563,-2.43015 0.86712,-4.28425 1.81251,-4.14124c0.94538,0.14301 1.66667,2.229 1.61103,4.65915c-0.05563,2.43015 -0.86712,4.28426 -1.81251,4.14124c-0.94538,-0.14301 -1.66667,-2.229 -1.61103,-4.65915z" fill="none" stroke="#43f2ff" stroke-width="1" stroke-linecap="butt"></path><path d="M225.52717,230.60799c0.05563,-2.43015 0.86712,-4.28426 1.81251,-4.14124c0.94539,0.14301 1.66667,2.229 1.61103,4.65915c-0.05563,2.43015 -0.86712,4.28426 -1.81251,4.14124c-0.94539,-0.14301 -1.66667,-2.229 -1.61103,-4.65915z" fill="none" stroke="#43f2ff" stroke-width="1" stroke-linecap="butt"></path><path d="M238.77597,208.77177c0.05563,-2.43016 0.86712,-4.28426 1.81251,-4.14124c0.94539,0.14301 1.66667,2.22899 1.61103,4.65915c-0.05563,2.43016 -0.86712,4.28426 -1.81251,4.14124c-0.94539,-0.14301 -1.66667,-2.22899 -1.61103,-4.65915z" fill="none" stroke="#43f2ff" stroke-width="1" stroke-linecap="butt"></path><path d="M239.92,233.62451c0.03716,-0.15741 0.10549,-0.24919 0.17745,-0.2383c0.07196,0.01088 0.13564,0.12263 0.16535,0.29015l0.19481,1.09855l0.46053,0.27266c0.07022,0.0416 0.12564,0.17903 0.14389,0.35687c0.01824,0.17785 -0.00371,0.36673 -0.05698,0.49038l-0.34939,0.81087l0.04103,1.20074c0.00625,0.18312 -0.02785,0.35985 -0.08852,0.45888c-0.06069,0.09905 -0.13793,0.104 -0.20058,0.01289l-0.41074,-0.5974l-0.43517,0.46943c-0.06635,0.0716 -0.14285,0.04338 -0.19859,-0.07327c-0.05574,-0.11664 -0.08154,-0.30244 -0.06698,-0.4824l0.09552,-1.18008l-0.30997,-0.91062c-0.04726,-0.13886 -0.06044,-0.33306 -0.03421,-0.50418c0.02622,-0.17112 0.08754,-0.29089 0.15917,-0.31103l0.46978,-0.13192z" fill="url(#color-1)" stroke="#000000" stroke-width="0" stroke-linecap="butt"></path><path d="M227.42375,228.12117c0.05221,-0.12604 0.12761,-0.16737 0.19581,-0.10729c0.06819,0.06007 0.11789,0.21162 0.12904,0.39349l0.07311,1.19259l0.41523,0.58004c0.06331,0.08847 0.10237,0.25906 0.1014,0.44297c-0.00097,0.18391 -0.04183,0.35075 -0.10604,0.43317l-0.42117,0.54041l-0.0857,1.18507c-0.01308,0.18072 -0.06436,0.32748 -0.13314,0.38108c-0.06879,0.0536 -0.14373,0.00514 -0.19458,-0.12581l-0.33339,-0.85858l-0.4682,0.15235c-0.07139,0.02325 -0.14214,-0.05665 -0.18368,-0.20745c-0.04153,-0.15078 -0.04702,-0.34756 -0.01421,-0.5109l0.2151,-1.07105l-0.20365,-1.0909c-0.03106,-0.16636 -0.02349,-0.36252 0.01962,-0.5093c0.04311,-0.14679 0.11468,-0.21991 0.18579,-0.18994l0.46634,0.19665z" fill="url(#color-2)" stroke="#000000" stroke-width="0" stroke-linecap="butt"></path><path d="M252.10973,233.78574c0.0156,-0.17969 0.06892,-0.32287 0.13845,-0.37175c0.06953,-0.04889 0.14378,0.00459 0.19278,0.13887l0.32134,0.8805l0.47025,-0.12055c0.07171,-0.01836 0.14133,0.06625 0.18075,0.21973c0.03943,0.15349 0.04214,0.3505 0.00707,0.51147l-0.23006,1.05565l0.18838,1.10384c0.02872,0.16835 0.01842,0.36384 -0.02674,0.50757c-0.04517,0.14376 -0.11773,0.21201 -0.18843,0.17723l-0.46351,-0.22807l-0.35384,0.80275c-0.05395,0.12242 -0.12993,0.15862 -0.19727,0.09396c-0.06733,-0.06464 -0.1149,-0.21945 -0.12351,-0.40193l-0.05642,-1.19661l-0.40705,-0.60772c-0.06207,-0.09268 -0.09873,-0.26581 -0.09519,-0.44952c0.00354,-0.18369 0.04672,-0.34761 0.11208,-0.42562l0.42865,-0.51147z" fill="url(#color-3)" stroke="#000000" stroke-width="0" stroke-linecap="butt"></path><path d="M240.08608,256.65506c0.06449,-0.08013 0.14125,-0.06157 0.19932,0.04819c0.05807,0.10976 0.08787,0.29258 0.07733,0.47469l-0.06902,1.1942l0.32872,0.87278c0.05012,0.13311 0.06754,0.32592 0.04521,0.50065c-0.02233,0.17473 -0.08073,0.30252 -0.15159,0.33179l-0.46477,0.1918l-0.21969,1.0649c-0.03351,0.16239 -0.09952,0.263 -0.17139,0.26124c-0.07188,-0.00176 -0.13775,-0.10562 -0.17103,-0.26967l-0.21821,-1.07564l-0.46449,-0.21464c-0.07083,-0.03271 -0.12904,-0.16336 -0.15113,-0.33918c-0.02208,-0.17582 -0.00441,-0.3678 0.0459,-0.49843l0.32989,-0.85661l-0.06737,-1.19755c-0.01027,-0.18261 0.01977,-0.36399 0.07799,-0.47089c0.05822,-0.10691 0.13502,-0.12166 0.19939,-0.03838l0.42211,0.54625z" fill="url(#color-4)" stroke="#000000" stroke-width="0" stroke-linecap="butt"></path><path d="M239.60186,207.95205c-0.03452,-0.16133 -0.03134,-0.35936 0.00825,-0.51421c0.03959,-0.15484 0.10905,-0.24091 0.18035,-0.22344l0.46755,0.11449l0.3218,-0.88963c0.04908,-0.13564 0.12307,-0.19047 0.19213,-0.14233c0.06905,0.04815 0.12176,0.19135 0.13686,0.37172l0.09892,1.183l0.42523,0.50802c0.06484,0.07749 0.1074,0.24166 0.11049,0.42624c0.0031,0.18462 -0.0338,0.35915 -0.09578,0.45319l-0.40641,0.61663l-0.059,1.20362c-0.00898,0.18353 -0.05669,0.33983 -0.12383,0.40575c-0.06714,0.06592 -0.14265,0.03064 -0.19604,-0.09164l-0.3501,-0.80187l-0.46169,0.23583c-0.0704,0.03596 -0.14244,-0.03162 -0.18703,-0.17548c-0.04459,-0.14383 -0.05435,-0.3402 -0.02538,-0.50982l0.19005,-1.11224z" fill="url(#color-5)" stroke="#000000" stroke-width="0" stroke-linecap="butt"></path><path d="M233.82181,212.50589l0.84442,2.33546" fill="none" stroke="#43f2ff" stroke-width="1" stroke-linecap="round"></path><path d="M238.00512,213.94155l-0.12813,-2.92956" fill="none" stroke="#43f2ff" stroke-width="1" stroke-linecap="round"></path><path d="M247.63266,216.30114l-1.11678,1.03527" fill="none" stroke="#43f2ff" stroke-width="1" stroke-linecap="round"></path><path d="M249.2391,222.86626l1.1923,-0.92349" fill="none" stroke="#43f2ff" stroke-width="1" stroke-linecap="round"></path><path d="M250.74254,230.51965l1.22662,-0.71759" fill="none" stroke="#43f2ff" stroke-width="1" stroke-linecap="round"></path><path d="M229.4805,221.3825l0.91078,2.84725" fill="none" stroke="#43f2ff" stroke-width="1" stroke-linecap="round"></path><path d="M233.74133,253.53524l1.0161,-1.75295" fill="none" stroke="#43f2ff" stroke-width="1" stroke-linecap="round"></path><path d="M245.04403,256.04791l-0.27916,-3.15311" fill="none" stroke="#43f2ff" stroke-width="1" stroke-linecap="round"></path><g fill="none" stroke="#c1ffff" stroke-width="0.5" stroke-linecap="butt"><g><path d="M231.16935,199.76555c-0.21565,2.09676 -0.8088,3.51223 -1.32484,3.16153c-0.51605,-0.3507 -0.75957,-2.33475 -0.54392,-4.43151c0.21565,-2.09676 0.8088,-3.51223 1.32484,-3.16153c0.51605,0.3507 0.75957,2.33475 0.54392,4.43151z"></path><path d="M231.89926,192.94891c-0.21565,2.09676 -0.8088,3.51223 -1.32484,3.16153c-0.51605,-0.3507 -0.75957,-2.33475 -0.54392,-4.43151c0.21565,-2.09676 0.8088,-3.51223 1.32484,-3.16153c0.51605,0.3507 0.75957,2.33475 0.54392,4.43151z"></path><path d="M232.74029,187.00642c-0.317,2.0099 -0.97498,3.22133 -1.46965,2.70581c-0.49466,-0.51552 -0.6387,-2.56278 -0.3217,-4.57268c0.317,-2.0099 0.97498,-3.22133 1.46965,-2.70581c0.49466,0.51552 0.6387,2.56277 0.32169,4.57268z"></path><path d="M233.79947,180.48155c-0.317,2.0099 -0.97498,3.22133 -1.46965,2.70581c-0.49466,-0.51552 -0.6387,-2.56278 -0.3217,-4.57268c0.317,-2.0099 0.97498,-3.22132 1.46965,-2.70581c0.49466,0.51552 0.6387,2.56278 0.32169,4.57268z"></path></g><g><path d="M228.34153,225.99293c-0.14815,2.13509 -0.69424,3.67061 -1.21973,3.42968c-0.52548,-0.24094 -0.83137,-2.1671 -0.68321,-4.3022c0.14815,-2.13509 0.69424,-3.67061 1.21973,-3.42968c0.52548,0.24094 0.83136,2.1671 0.68321,4.3022z"></path><path d="M228.85193,219.04559c-0.14815,2.13509 -0.69424,3.67061 -1.21973,3.42968c-0.52548,-0.24094 -0.83137,-2.1671 -0.68321,-4.3022c0.14815,-2.13509 0.69424,-3.67061 1.21973,-3.42968c0.52548,0.24094 0.83136,2.1671 0.68321,4.3022z"></path><path d="M229.50093,212.94608c-0.25193,2.06985 -0.86914,3.41566 -1.37856,3.00595c-0.50942,-0.40971 -0.71816,-2.41979 -0.46623,-4.48965c0.25193,-2.06985 0.86914,-3.41566 1.37856,-3.00595c0.50942,0.40971 0.71816,2.41979 0.46622,4.48964z"></path><path d="M230.34878,206.22024c-0.25193,2.06985 -0.86914,3.41566 -1.37856,3.00595c-0.50942,-0.40971 -0.71816,-2.41979 -0.46623,-4.48965c0.25193,-2.06985 0.86914,-3.41566 1.37856,-3.00595c0.50942,0.40971 0.71816,2.41979 0.46622,4.48965z"></path></g></g><g data-paper-data="{&quot;index&quot;:null}" fill="none" stroke="#c1ffff" stroke-width="0.5" stroke-linecap="butt"><g><path d="M248.68972,200.78684c0.51473,-0.36324 1.11307,1.03774 1.33642,3.12917c0.22335,2.09142 -0.01286,4.08131 -0.52759,4.44454c-0.51473,0.36324 -1.11307,-1.03775 -1.33642,-3.12917c-0.22335,-2.09142 0.01286,-4.08131 0.52758,-4.44454z"></path><path d="M247.93476,193.98826c0.51473,-0.36324 1.11307,1.03774 1.33642,3.12917c0.22335,2.09142 -0.01286,4.08131 -0.52759,4.44454c-0.51473,0.36324 -1.11307,-1.03775 -1.33642,-3.12917c-0.22335,-2.09142 0.01286,-4.08131 0.52758,-4.44454z"></path><path d="M246.84916,187.93073c0.49275,-0.52753 1.15516,0.66785 1.47954,2.66995c0.32437,2.0021 0.18789,4.05277 -0.30486,4.5803c-0.49275,0.52753 -1.15516,-0.66785 -1.47954,-2.66995c-0.32437,-2.0021 -0.18789,-4.05276 0.30485,-4.58029z"></path><path d="M245.76602,181.4319c0.49275,-0.52753 1.15516,0.66785 1.47954,2.66995c0.32437,2.0021 0.18789,4.05277 -0.30485,4.5803c-0.49275,0.52753 -1.15516,-0.66785 -1.47954,-2.66995c-0.32437,-2.0021 -0.18789,-4.05277 0.30485,-4.5803z"></path></g><g><path d="M251.75369,227.07021c0.52457,-0.25371 1.07628,1.26846 1.2323,3.39986c0.15601,2.1314 -0.14277,4.0649 -0.66735,4.31862c-0.52457,0.25371 -1.07628,-1.26846 -1.2323,-3.39986c-0.15601,-2.1314 0.14277,-4.0649 0.66735,-4.31862z"></path><path d="M251.21775,220.1356c0.52457,-0.25371 1.07628,1.26846 1.2323,3.39986c0.15601,2.1314 -0.14277,4.0649 -0.66735,4.31862c-0.52457,0.25371 -1.07628,-1.26846 -1.2323,-3.39986c-0.15601,-2.1314 0.14277,-4.0649 0.66735,-4.31862z"></path><path d="M250.32867,213.86998c0.50789,-0.42208 1.13002,0.90866 1.38956,2.97229c0.25954,2.06363 0.05821,4.0787 -0.44968,4.50078c-0.50789,0.42208 -1.13002,-0.90866 -1.38955,-2.9723c-0.25954,-2.06363 -0.05821,-4.0787 0.44968,-4.50078z"></path><path d="M249.4561,207.16505c0.50789,-0.42208 1.13002,0.90866 1.38956,2.97229c0.25954,2.06363 0.05821,4.0787 -0.44968,4.50078c-0.50789,0.42208 -1.13002,-0.90866 -1.38955,-2.9723c-0.25954,-2.06363 -0.05821,-4.0787 0.44968,-4.50078z"></path></g></g><g data-paper-data="{&quot;index&quot;:null}" fill="none" stroke="#c1ffff" stroke-width="0.5" stroke-linecap="butt"><g><path d="M238.8186,178.63492c0.01305,0.10143 0.02522,0.20472 0.03643,0.30977c0.22335,2.09142 -0.01286,4.08131 -0.52758,4.44454c-0.51473,0.36324 -1.11307,-1.03775 -1.33642,-3.12917c-0.02014,-0.18857 -0.03654,-0.37632 -0.04934,-0.56213"></path></g><g><path d="M240.58258,202.09889c0.52457,-0.25371 1.07628,1.26846 1.2323,3.39986c0.15601,2.1314 -0.14277,4.06491 -0.66735,4.31862c-0.52457,0.25371 -1.07628,-1.26846 -1.2323,-3.39986c-0.15601,-2.1314 0.14277,-4.06491 0.66735,-4.31862z"></path><path d="M240.04663,195.16426c0.52457,-0.25371 1.07628,1.26846 1.2323,3.39986c0.15601,2.1314 -0.14277,4.06491 -0.66735,4.31862c-0.52457,0.25371 -1.07628,-1.26846 -1.2323,-3.39986c-0.15601,-2.1314 0.14277,-4.06491 0.66735,-4.31862z"></path><path d="M239.15756,188.89864c0.50789,-0.42208 1.13002,0.90866 1.38956,2.97229c0.25954,2.06363 0.05821,4.0787 -0.44968,4.50078c-0.50789,0.42208 -1.13002,-0.90866 -1.38955,-2.97229c-0.25954,-2.06363 -0.05821,-4.0787 0.44968,-4.50078z"></path><path d="M238.28499,182.19372c0.50789,-0.42208 1.13002,0.90866 1.38956,2.9723c0.25954,2.06363 0.05821,4.0787 -0.44968,4.50078c-0.50789,0.42208 -1.13002,-0.90866 -1.38955,-2.97229c-0.25954,-2.06363 -0.05821,-4.0787 0.44968,-4.50078z"></path></g></g><g fill="none" stroke="#c1ffff" stroke-width="0.5" stroke-linecap="butt"><g><path d="M243.02623,226.99992c-0.12256,2.14579 -0.65003,3.72373 -1.17815,3.52441c-0.52811,-0.19932 -0.85688,-2.1004 -0.73432,-4.24619c0.12256,-2.14579 0.65004,-3.72372 1.17815,-3.52441c0.52811,0.19932 0.85688,2.1004 0.73432,4.24619z"></path><path d="M243.45334,220.01554c-0.12256,2.14579 -0.65003,3.72373 -1.17815,3.52441c-0.52811,-0.19932 -0.85688,-2.1004 -0.73432,-4.24619c0.12256,-2.14579 0.65004,-3.72372 1.17815,-3.52441c0.52811,0.19932 0.85688,2.1004 0.73432,4.24619z"></path><path d="M244.02911,213.86763c-0.22707,2.08878 -0.82789,3.48271 -1.34197,3.11344c-0.51408,-0.36928 -0.74675,-2.36192 -0.51968,-4.45069c0.22707,-2.08878 0.82789,-3.48271 1.34197,-3.11343c0.51408,0.36928 0.74674,2.36191 0.51968,4.45069z"></path><path d="M244.79615,207.07799c-0.22707,2.08878 -0.82789,3.48271 -1.34197,3.11344c-0.51408,-0.36928 -0.74675,-2.36192 -0.51968,-4.4507c0.22707,-2.08878 0.82789,-3.48271 1.34197,-3.11343c0.51408,0.36928 0.74674,2.36192 0.51967,4.45069z"></path></g><g><path d="M241.3636,253.87832c-0.05382,2.16438 -0.52928,3.848 -1.06196,3.76047c-0.53268,-0.08753 -0.92089,-1.91306 -0.86707,-4.07744c0.05382,-2.16438 0.52928,-3.848 1.06197,-3.76047c0.53268,0.08753 0.92089,1.91306 0.86707,4.07744z"></path><path d="M241.56687,246.82751c-0.05382,2.16438 -0.52928,3.848 -1.06196,3.76047c-0.53268,-0.08753 -0.92089,-1.91306 -0.86707,-4.07744c0.05382,-2.16438 0.52928,-3.848 1.06197,-3.76047c0.53268,0.08753 0.92089,1.91306 0.86707,4.07744z"></path><path d="M241.94494,240.57909c-0.15979,2.12954 -0.71421,3.64521 -1.23833,3.38534c-0.52411,-0.25987 -0.81945,-2.19688 -0.65966,-4.32642c0.15979,-2.12954 0.71421,-3.64521 1.23833,-3.38534c0.52411,0.25987 0.81945,2.19687 0.65966,4.32642z"></path><path d="M242.49321,233.65085c-0.15979,2.12954 -0.71421,3.64521 -1.23833,3.38534c-0.52411,-0.25987 -0.81945,-2.19688 -0.65966,-4.32642c0.15979,-2.12954 0.71421,-3.64522 1.23833,-3.38534c0.52411,0.25987 0.81945,2.19688 0.65966,4.32642z"></path></g></g><g fill="none" stroke-linecap="butt"><g stroke="none" stroke-width="1" font-family="sans-serif" font-weight="normal" font-size="12" text-anchor="start"></g><g stroke="#c1ffff" stroke-width="0.5"><path d="M244.95174,200.31119c-0.05489,2.1642 -0.53118,3.84628 -1.06382,3.75702c-0.53264,-0.08926 -0.91994,-1.91606 -0.86505,-4.08026c0.05489,-2.1642 0.53118,-3.84628 1.06382,-3.75701c0.53264,0.08926 0.91994,1.91605 0.86505,4.08026z"></path><path d="M245.15848,193.26105c-0.05489,2.1642 -0.53118,3.84628 -1.06382,3.75701c-0.53264,-0.08926 -0.91994,-1.91605 -0.86505,-4.08026c0.05489,-2.1642 0.53118,-3.84628 1.06382,-3.75702c0.53264,0.08926 0.91994,1.91606 0.86505,4.08026z"></path><path d="M245.38151,183.68773c0.18609,0.81928 0.25547,2.03772 0.15813,3.32613c-0.16085,2.12902 -0.716,3.64288 -1.23999,3.38131c-0.52398,-0.26158 -0.81837,-2.19954 -0.65752,-4.32856c0.064,-0.84715 0.19044,-1.5969 0.35249,-2.17615"></path></g></g><path d="M225.55559,229.5728l5.30008,-18.63301c0,0 6.6072,3.20568 9.43102,3.20568c2.61628,0 6.93687,-3.20568 6.93687,-3.20568c0,0 6.54716,18.10125 6.54716,27.04791c0,7.48895 -6.31333,17.03017 -6.31333,17.03017c0,0 -5.63832,8.41491 -8.33983,8.41491c-1.37832,0 -6.02212,-6.48097 -9.07114,-14.9557c-3.042,-8.45523 -4.49083,-18.90428 -4.49083,-18.90428z" fill="url(#color-6)" stroke="none" stroke-width="0" stroke-linecap="butt"></path></g></g></svg>