<svg version="1.1" xmlns="http://www.w3.org/2000/svg" xmlns:xlink="http://www.w3.org/1999/xlink" width="61.85911" height="46.99156" viewBox="0,0,61.85911,46.99156"><defs><radialGradient cx="261.33927" cy="168.63013" r="6.82311" gradientUnits="userSpaceOnUse" id="color-1"><stop offset="0" stop-color="#3c3c3c"></stop><stop offset="1" stop-color="#656565"></stop></radialGradient><radialGradient cx="266.27171" cy="195.23551" r="11.72998" gradientUnits="userSpaceOnUse" id="color-2"><stop offset="0" stop-color="#3c3c3c"></stop><stop offset="1" stop-color="#656565"></stop></radialGradient><radialGradient cx="219.71487" cy="171.61101" r="5.31202" gradientUnits="userSpaceOnUse" id="color-3"><stop offset="0" stop-color="#3c3c3c"></stop><stop offset="1" stop-color="#656565"></stop></radialGradient><linearGradient x1="239.14017" y1="188.33839" x2="238.09757" y2="192.98764" gradientUnits="userSpaceOnUse" id="color-4"><stop offset="0" stop-color="#ffffff" stop-opacity="0"></stop><stop offset="1" stop-color="#ffffff"></stop></linearGradient><radialGradient cx="260.82948" cy="187.3817" r="7.1096" gradientUnits="userSpaceOnUse" id="color-5"><stop offset="0" stop-color="#b3b0b4"></stop><stop offset="1" stop-color="#79787a"></stop></radialGradient><radialGradient cx="215.3917" cy="190.75971" r="7.7713" gradientUnits="userSpaceOnUse" id="color-6"><stop offset="0" stop-color="#b3b0b4"></stop><stop offset="1" stop-color="#79787a"></stop></radialGradient><radialGradient cx="266.29794" cy="179.21779" r="5.56886" gradientUnits="userSpaceOnUse" id="color-7"><stop offset="0" stop-color="#b3b0b4"></stop><stop offset="1" stop-color="#79787a"></stop></radialGradient><radialGradient cx="259.29645" cy="168.13351" r="5.08583" gradientUnits="userSpaceOnUse" id="color-8"><stop offset="0" stop-color="#b3b0b4"></stop><stop offset="1" stop-color="#79787a"></stop></radialGradient><radialGradient cx="253.39731" cy="178.26824" r="6.83738" gradientUnits="userSpaceOnUse" id="color-9"><stop offset="0" stop-color="#79787a"></stop><stop offset="1" stop-color="#464546"></stop></radialGradient><radialGradient cx="215.90555" cy="180.21623" r="6.02558" gradientUnits="userSpaceOnUse" id="color-10"><stop offset="0" stop-color="#b3b0b4"></stop><stop offset="1" stop-color="#79787a"></stop></radialGradient><radialGradient cx="222.57037" cy="163.96277" r="5.25003" gradientUnits="userSpaceOnUse" id="color-11"><stop offset="0" stop-color="#b3b0b4"></stop><stop offset="1" stop-color="#79787a"></stop></radialGradient><radialGradient cx="265.59132" cy="162.2944" r="4.14267" gradientUnits="userSpaceOnUse" id="color-12"><stop offset="0" stop-color="#b3b0b4"></stop><stop offset="1" stop-color="#79787a"></stop></radialGradient><linearGradient x1="240.25" y1="192.70835" x2="240.25" y2="202.79168" gradientUnits="userSpaceOnUse" id="color-13"><stop offset="0" stop-color="#b4b4b4"></stop><stop offset="1" stop-color="#9d9d9d"></stop></linearGradient><linearGradient x1="261.20833" y1="198.16668" x2="256.375" y2="198.16668" gradientUnits="userSpaceOnUse" id="color-14"><stop offset="0" stop-color="#656565"></stop><stop offset="1" stop-color="#b1b1b1"></stop></linearGradient><linearGradient x1="218.375" y1="198.00001" x2="223.20834" y2="198.00001" gradientUnits="userSpaceOnUse" id="color-15"><stop offset="0" stop-color="#656565"></stop><stop offset="1" stop-color="#b1b1b1"></stop></linearGradient><linearGradient x1="220.75" y1="194.37501" x2="220.75" y2="202.62501" gradientUnits="userSpaceOnUse" id="color-16"><stop offset="0" stop-color="#bebebe"></stop><stop offset="1" stop-color="#000000"></stop></linearGradient><linearGradient x1="223" y1="193.62501" x2="223" y2="202.62501" gradientUnits="userSpaceOnUse" id="color-17"><stop offset="0" stop-color="#bebebe"></stop><stop offset="1" stop-color="#000000"></stop></linearGradient><linearGradient x1="256.08333" y1="193.70835" x2="256.08333" y2="202.70835" gradientUnits="userSpaceOnUse" id="color-18"><stop offset="0" stop-color="#bebebe"></stop><stop offset="1" stop-color="#000000"></stop></linearGradient><linearGradient x1="259.5" y1="195.29168" x2="259.5" y2="202.45835" gradientUnits="userSpaceOnUse" id="color-19"><stop offset="0" stop-color="#bebebe"></stop><stop offset="1" stop-color="#000000"></stop></linearGradient><linearGradient x1="238.33334" y1="193.04168" x2="238.33334" y2="194.29168" gradientUnits="userSpaceOnUse" id="color-20"><stop offset="0" stop-color="#bebebe"></stop><stop offset="1" stop-color="#000000"></stop></linearGradient><linearGradient x1="240.46989" y1="195.10229" x2="241.36345" y2="194.89774" gradientUnits="userSpaceOnUse" id="color-21"><stop offset="0" stop-color="#ff6262"></stop><stop offset="1" stop-color="#ead2d2"></stop></linearGradient><radialGradient cx="216.88771" cy="163.90865" r="5.03594" gradientUnits="userSpaceOnUse" id="color-22"><stop offset="0" stop-color="#79787a"></stop><stop offset="1" stop-color="#464546"></stop></radialGradient><radialGradient cx="249.64539" cy="160.05789" r="3.21657" gradientUnits="userSpaceOnUse" id="color-23"><stop offset="0" stop-color="#79787a"></stop><stop offset="1" stop-color="#464546"></stop></radialGradient><radialGradient cx="267.99883" cy="159.24216" r="2.17307" gradientUnits="userSpaceOnUse" id="color-24"><stop offset="0" stop-color="#b3b0b4"></stop><stop offset="1" stop-color="#79787a"></stop></radialGradient><linearGradient x1="239.9" y1="157.04156" x2="239.9" y2="203.94156" gradientUnits="userSpaceOnUse" id="color-25"><stop offset="0" stop-color="#000000" stop-opacity="0.84677"></stop><stop offset="1" stop-color="#000000" stop-opacity="0"></stop></linearGradient></defs><g transform="translate(-209.25,-156.95)"><g data-paper-data="{&quot;isPaintingLayer&quot;:true}" fill-rule="nonzero" stroke-linejoin="miter" stroke-miterlimit="10" stroke-dasharray="" stroke-dashoffset="0" style="mix-blend-mode: normal"><path d="M209.71327,202.18406v-45.00651h60.57347v45.00651z" fill="#5d5d5d" stroke="none" stroke-width="0" stroke-linecap="butt"></path><path d="M249.05,202.55l-12,-45.3l33.6,-0.3v45.6z" data-paper-data="{&quot;index&quot;:null}" fill="#4a4a4a" stroke="none" stroke-width="0" stroke-linecap="butt"></path><path d="M209.25,202.65v-45.6l27.9,-0.1l-6.3,45.7z" fill="#4a4a4a" stroke="none" stroke-width="0" stroke-linecap="butt"></path><path d="M267.57429,171.40127c-0.50499,1.13623 -2.1858,0.63746 -3.61908,0.90232c-1.47701,0.27295 -2.72499,1.28076 -4.47262,0.50402c-0.65609,-0.2916 -2.07711,3.2486 -2.61512,2.85874c-2.28576,-1.65632 -2.59329,-7.93978 -1.76326,-9.80735c1.0254,-2.30716 4.64817,-2.9368 8.09169,-1.40635c3.44351,1.53046 5.40378,4.64145 4.37838,6.94861z" fill="url(#color-1)" stroke="none" stroke-width="0" stroke-linecap="butt"></path><path d="M270.76893,201.55073c0,0 -4.68466,2.20182 -7.68913,0.86651c-1.12792,-0.5013 -8.95406,-8.73508 -7.5271,-11.94573c1.76283,-3.96635 13.91087,-2.41774 13.91087,-2.41774c0,0 2.54444,13.26799 1.30535,13.49695z" fill="url(#color-2)" stroke="none" stroke-width="0" stroke-linecap="butt"></path><path d="M225.02689,171.61101c0,2.85072 -2.37827,5.16168 -5.31202,5.16168c-2.93375,0 -5.31202,-2.31096 -5.31202,-5.16168c0,-2.28373 0.92494,-4.92265 3.04041,-5.60296c0.52521,-0.16891 1.68811,0.44126 2.27161,0.44126c0.34964,0 2.39524,-3.7758 2.72602,-3.71315c2.44469,0.46302 2.58601,6.36386 2.58601,8.87483z" fill="url(#color-3)" stroke="none" stroke-width="0" stroke-linecap="butt"></path><path d="M227.30831,202.57246l9.08334,-36.00001l1.11667,-0.55l-7.3,36.41667z" fill="#9f8250" stroke="none" stroke-width="0" stroke-linecap="butt"></path><path d="M247.47498,202.55579l-8.76666,-36.28334l1.11667,0.41667l10.08333,36.13333z" data-paper-data="{&quot;index&quot;:null}" fill="#9f8250" stroke="none" stroke-width="0" stroke-linecap="butt"></path><path d="M232.54301,190.01875l0.32337,-1.6l11.12358,0.2l0.51738,1.4z" fill="#caa565" stroke="none" stroke-width="0" stroke-linecap="butt"></path><path d="M237.15051,192.77525l-1.51943,-6.12805l7.32817,1.4625l-3.91459,5.09031z" fill="url(#color-4)" stroke="none" stroke-width="0" stroke-linecap="butt"></path><path d="M233.80445,184.96801l0.24992,-1.1926l8.59692,0.14908l0.39986,1.04352z" fill="#caa565" stroke="none" stroke-width="0" stroke-linecap="butt"></path><path d="M234.69448,180.40457l0.18945,-1.18512l6.51683,0.14814l0.3031,1.03698z" fill="#caa565" stroke="none" stroke-width="0" stroke-linecap="butt"></path><path d="M235.20626,177.65416l0.15885,-1.06189l5.46429,0.13274l0.25416,0.92916z" fill="#caa565" stroke="none" stroke-width="0" stroke-linecap="butt"></path><path d="M235.68819,174.69251l0.13017,-0.63704l4.47759,0.07963l0.20827,0.55741z" fill="#caa565" stroke="none" stroke-width="0" stroke-linecap="butt"></path><path d="M236.00516,173.19467l0.11124,-0.58766l3.82663,0.07345l0.17799,0.51421z" fill="#caa565" stroke="none" stroke-width="0" stroke-linecap="butt"></path><path d="M236.37686,171.86916l0.10141,-0.41481l3.48837,0.05185l0.16226,0.36296z" fill="#caa565" stroke="none" stroke-width="0" stroke-linecap="butt"></path><path d="M236.59895,170.91762l0.08488,-0.41481l2.91995,0.05185l0.13581,0.36296z" fill="#caa565" stroke="none" stroke-width="0" stroke-linecap="butt"></path><path d="M236.81259,169.22457l0.72191,-3.1284c0,0 1.25308,0.19449 1.25743,0.36313c0.01169,0.45313 0.65722,2.76527 0.65722,2.76527z" fill-opacity="0.49326" fill="#caa565" stroke="none" stroke-width="0" stroke-linecap="butt"></path><path d="M259.13167,194.41243v-2.18195c0,0 1.38216,-8.64698 2.4406,-8.64698c0.36055,0 0.09144,3.15989 0.75295,5.00063c0.86469,2.40613 2.64268,3.64637 2.64268,3.64637v2.18195z" data-paper-data="{&quot;index&quot;:null}" fill="url(#color-5)" stroke="#000000" stroke-width="0" stroke-linecap="butt"></path><path d="M213.53586,198.44478v-2.38501c0,0 1.51079,-9.45176 2.66774,-9.45176c0.3941,0 0.09995,3.45398 0.82302,5.46605c0.94517,2.63006 2.88864,3.98573 2.88864,3.98573v2.38501z" data-paper-data="{&quot;index&quot;:null}" fill="url(#color-6)" stroke="#000000" stroke-width="0" stroke-linecap="butt"></path><path d="M263.05637,184.72488v-1.7091c0,0 1.39268,-0.97147 2.06998,-2.85615c0.51814,-1.44183 0.30737,-3.91694 0.58978,-3.91694c0.82907,0 1.91169,6.77308 1.91169,6.77308v1.7091z" data-paper-data="{&quot;index&quot;:null}" fill="url(#color-7)" stroke="#000000" stroke-width="0" stroke-linecap="butt"></path><path d="M258.08192,173.1629v-1.56085c0,0 0.98872,-6.18559 1.74588,-6.18559c0.25792,0 0.06542,2.26043 0.53862,3.5772c0.61856,1.72121 1.89044,2.60841 1.89044,2.60841v1.56087z" data-paper-data="{&quot;index&quot;:null}" fill="url(#color-8)" stroke="#000000" stroke-width="0" stroke-linecap="butt"></path><path d="M250.27789,189.0802l0.0559,-0.97807c0,0 1.05627,-2.33295 2.04415,-4.92302c0.4382,-1.14891 -1.59063,-4.13401 -0.85846,-4.9939c0.77931,-0.91528 1.82484,-3.97256 2.23858,-4.00407c0.24929,-0.01897 0.07115,0.45654 0.17282,0.8992c0.26742,1.16399 0.48014,3.14772 0.59224,3.15411c0.36603,0.02092 -0.58384,1.06345 -0.38713,3.14345c0.27156,2.87126 1.61815,7.03402 1.61815,7.03402l-0.0559,0.97807z" data-paper-data="{&quot;index&quot;:null}" fill="url(#color-9)" stroke="#000000" stroke-width="0" stroke-linecap="butt"></path><path d="M212.39814,186.17497v-1.84927c0,0 1.50687,-1.05113 2.23974,-3.09038c0.56065,-1.56008 0.33258,-4.23817 0.63814,-4.23817c0.89706,0 2.06846,7.32854 2.06846,7.32854v1.84927z" data-paper-data="{&quot;index&quot;:null}" fill="url(#color-10)" stroke="#000000" stroke-width="0" stroke-linecap="butt"></path><path d="M221.31663,169.29084v-1.65354c0,0 1.02065,-6.55292 1.80225,-6.55292c0.26625,0 0.06752,2.39465 0.556,3.78962c0.63852,1.82343 1.95147,2.76332 1.95147,2.76332v1.65354z" data-paper-data="{&quot;index&quot;:null}" fill="url(#color-11)" stroke="#000000" stroke-width="0" stroke-linecap="butt"></path><path d="M263.1799,166.39113v-1.27141c0,0 1.036,-0.72266 1.53985,-2.12467c0.38545,-1.07258 0.22866,-2.91382 0.43873,-2.91382c0.61675,0 1.42211,5.03848 1.42211,5.03848v1.27139z" data-paper-data="{&quot;index&quot;:null}" fill="url(#color-12)" stroke="#000000" stroke-width="0" stroke-linecap="butt"></path><path d="M236.88127,170.06554l0.07256,-0.41481l2.49584,0.05185l0.11609,0.36296z" fill="#caa565" stroke="none" stroke-width="0" stroke-linecap="butt"></path><g><path d="M209.95834,202.79168l8.75,-10.08334l41.74999,0.33334l10.08334,9.75c0,0 -9.28964,0 -16.16667,0c-0.22494,0 -0.44729,0 -0.66666,0c-11.1658,0 -43.75,0 -43.75,0z" fill="url(#color-13)" stroke="none" stroke-width="0" stroke-linecap="butt"></path><path d="M256.375,202.87501v-9.41667h4.83333v9.41667z" data-paper-data="{&quot;index&quot;:null}" fill="url(#color-14)" stroke="none" stroke-width="0" stroke-linecap="butt"></path><path d="M218.375,202.70835v-9.41667h4.83334v9.41667z" fill="url(#color-15)" stroke="none" stroke-width="0" stroke-linecap="butt"></path><path d="M264.78781,202.47304l-6.23681,-9.02413l2.41119,-0.50525l6.40347,8.02412z" data-paper-data="{&quot;index&quot;:null}" fill="#767676" stroke="none" stroke-width="0" stroke-linecap="butt"></path><path d="M212.38434,200.30111l6.40347,-8.02412l2.41118,0.50525l-6.23681,9.02413z" fill="#767676" stroke="none" stroke-width="0" stroke-linecap="butt"></path><g fill="#ffe116" stroke="#efc800" stroke-width="0.5" stroke-linecap="butt"><path d="M209.67202,202.52597l2.49098,-5.04671l9.2719,0.69664l-3.28233,4.43764z"></path><path d="M261.68075,202.6699l-1.18472,-5.10657l7.62386,-1.92066l2.04142,6.88329z" data-paper-data="{&quot;index&quot;:null}"></path></g><path d="M218.54167,193.5521v-1.1875h42.5v1.1875z" fill="#767676" stroke="none" stroke-width="0" stroke-linecap="butt"></path><path d="M220.20834,194.37501l1.08333,8.25" fill="none" stroke="url(#color-16)" stroke-width="0.25" stroke-linecap="round"></path><path d="M223.20834,202.62501l-0.41667,-9" fill="none" stroke="url(#color-17)" stroke-width="0.25" stroke-linecap="round"></path><path d="M256.875,202.54168l1.83333,-8.83333" fill="none" stroke="url(#color-18)" stroke-width="0.25" stroke-linecap="round"></path><path d="M259.20834,202.45835l0.58333,-7.16667" fill="none" stroke="url(#color-19)" stroke-width="0.25" stroke-linecap="round"></path><path d="M235.95834,194.29168v-1.25c0,0 1.86818,-1.25 2.66666,-1.25c0.7846,0 2.08334,1.25 2.08334,1.25v1.25z" fill="#c3c8c3" stroke="url(#color-20)" stroke-width="0.25" stroke-linecap="butt"></path><path d="M236.625,195.20835v-1.83334h0.75v1.83334z" fill="#828282" stroke="none" stroke-width="0" stroke-linecap="butt"></path><path d="M239.29167,195.12501v-1.58334h0.66667v1.58334z" fill="#828282" stroke="none" stroke-width="0" stroke-linecap="butt"></path><path d="M240.96267,197.25494c0,0 -0.08308,-1.53835 -0.24823,-2.25983c-0.16334,-0.71353 -0.73731,-2.04547 -0.73731,-2.04547l0.89355,-0.20455c0,0 0.55655,1.25581 0.71613,1.95292c0.16845,0.73588 0.26942,2.35237 0.26942,2.35237z" fill="url(#color-21)" stroke="none" stroke-width="0" stroke-linecap="butt"></path><path d="M241.29167,202.70835c0,0 -0.33601,-1.14338 -0.12542,-2.2421c0.15614,-0.81458 0.87542,-1.56707 0.87542,-2.0079c0,-0.54572 -0.75,-1.5 -0.75,-1.5h0.41667c0,0 0.75,0.42631 0.75,1c0,0.53155 -0.61106,1.58631 -0.8019,2.65742c-0.18403,1.03284 0.0519,2.09258 0.0519,2.09258z" fill="#444343" stroke="none" stroke-width="0" stroke-linecap="butt"></path></g><path d="M215.19301,172.10018l-0.04117,-0.72038c0,0 0.99181,-3.06602 1.19182,-5.1808c0.14489,-1.53198 -0.55472,-2.29985 -0.28513,-2.31525c0.08258,-0.00472 0.23925,-1.4658 0.43621,-2.32311c0.07489,-0.32602 -0.05631,-0.67626 0.12729,-0.66228c0.30473,0.02321 1.0748,2.27501 1.64879,2.94913c0.53926,0.63334 -0.95502,2.83197 -0.63229,3.67818c0.72758,1.90767 1.50557,3.62596 1.50557,3.62596l0.04117,0.72038z" data-paper-data="{&quot;index&quot;:null}" fill="url(#color-22)" stroke="#000000" stroke-width="0" stroke-linecap="butt"></path><path d="M248.17789,165.14425l0.0263,-0.46012c0,0 0.49691,-1.09751 0.96165,-2.31598c0.20615,-0.54049 -0.7483,-1.9448 -0.40386,-2.34932c0.36662,-0.43058 0.85848,-1.86885 1.05312,-1.88367c0.11728,-0.00893 0.03347,0.21477 0.0813,0.42302c0.12581,0.54759 0.22588,1.48081 0.27861,1.48382c0.17219,0.00984 -0.27466,0.50029 -0.18212,1.4788c0.12775,1.35075 0.76124,3.30908 0.76124,3.30908l-0.0263,0.46012z" data-paper-data="{&quot;index&quot;:null}" fill="url(#color-23)" stroke="#000000" stroke-width="0" stroke-linecap="butt"></path><path d="M267.4799,161.39111v-0.66692c0,0 0.42246,-2.64297 0.74598,-2.64297c0.11019,0 0.02795,0.96583 0.23014,1.52846c0.2643,0.73543 0.80774,1.11451 0.80774,1.11451v0.66693z" data-paper-data="{&quot;index&quot;:null}" fill="url(#color-24)" stroke="#000000" stroke-width="0" stroke-linecap="butt"></path><path d="M233.59962,161.96874l1.95322,-1.23561l6.07669,-0.10297l1.51916,1.33855z" fill="#9b774d" stroke="#000000" stroke-width="0" stroke-linecap="butt"></path><path d="M238.396,165.64722l-0.05745,0.97662v-1.03407l0.05745,1.20641l-0.1149,-1.60855v-3.2171" fill="none" stroke="#000000" stroke-width="0.1" stroke-linecap="round"></path><path d="M238.79812,166.04935c0,0.47592 -0.21862,0.86172 -0.48832,0.86172c-0.26969,0 -0.48832,-0.38581 -0.48832,-0.86172c0,-0.47592 0.21862,-0.86172 0.48832,-0.86172c0.26969,0 0.48832,0.38581 0.48832,0.86172z" fill="#ffffff" stroke="#000000" stroke-width="0.1" stroke-linecap="butt"></path><path d="M238.62578,165.99191h-0.57448" fill="none" stroke="#000000" stroke-width="0.1" stroke-linecap="round"></path><path d="M238.34983,165.21327l-0.09438,1.98197" fill="none" stroke="#000000" stroke-width="0.1" stroke-linecap="round"></path><path d="M209.35,203.94156v-46.9h61.1v46.9z" fill="url(#color-25)" stroke="none" stroke-width="0" stroke-linecap="butt"></path></g></g></svg>