<svg version="1.1" xmlns="http://www.w3.org/2000/svg" xmlns:xlink="http://www.w3.org/1999/xlink" width="31.25361" height="54.99416" viewBox="0,0,31.25361,54.99416"><defs><linearGradient x1="239.75719" y1="156.39448" x2="239.75719" y2="159.39827" gradientUnits="userSpaceOnUse" id="color-1"><stop offset="0" stop-color="#ad5400"></stop><stop offset="1" stop-color="#d07b00"></stop></linearGradient><linearGradient x1="240.23085" y1="199.11658" x2="240.23085" y2="210.3682" gradientUnits="userSpaceOnUse" id="color-2"><stop offset="0" stop-color="#8e6c39"></stop><stop offset="1" stop-color="#cc9752"></stop></linearGradient><linearGradient x1="253.999" y1="204.13916" x2="261.12981" y2="217.39044" gradientUnits="userSpaceOnUse" id="color-3"><stop offset="0" stop-color="#000000"></stop><stop offset="1" stop-color="#777777"></stop></linearGradient><linearGradient x1="255.51346" y1="203.35593" x2="262.64428" y2="216.60721" gradientUnits="userSpaceOnUse" id="color-4"><stop offset="0" stop-color="#000000"></stop><stop offset="1" stop-color="#777777"></stop></linearGradient><radialGradient cx="240.0836" cy="202.5077" r="14.16077" gradientUnits="userSpaceOnUse" id="color-5"><stop offset="0" stop-color="#00b3ff"></stop><stop offset="1" stop-color="#00fff1"></stop></radialGradient><linearGradient x1="240.07937" y1="183.715" x2="240.07937" y2="201.85559" gradientUnits="userSpaceOnUse" id="color-6"><stop offset="0" stop-color="#57dada" stop-opacity="0"></stop><stop offset="1" stop-color="#57dada"></stop></linearGradient></defs><g transform="translate(-222.99075,-150.47527)"><g data-paper-data="{&quot;isPaintingLayer&quot;:true}" fill-rule="nonzero" stroke-linejoin="miter" stroke-miterlimit="10" stroke-dasharray="" stroke-dashoffset="0" style="mix-blend-mode: normal"><g><path d="M247.34275,165.98664c0,4.09856 -3.20388,7.42111 -7.15607,7.42111c-3.95219,0 -7.15607,-3.32254 -7.15607,-7.42111c0,-4.09856 3.20388,-7.42111 7.15607,-7.42111c3.95219,0 7.15607,3.32254 7.15607,7.42111z" fill="#fff3c0" stroke="#000000" stroke-width="0" stroke-linecap="butt"></path><path d="M236.6749,164.19762c0,-0.14638 0.11866,-0.26504 0.26504,-0.26504c0.14638,0 0.26504,0.11866 0.26504,0.26504c0,0.14638 -0.11866,0.26504 -0.26504,0.26504c-0.14638,0 -0.26504,-0.11866 -0.26504,-0.26504z" fill="#000000" stroke="none" stroke-width="0.5" stroke-linecap="butt"></path><path d="M242.63829,164.46266c0,-0.14638 0.11866,-0.26504 0.26504,-0.26504c0.14638,0 0.26504,0.11866 0.26504,0.26504c0,0.14638 -0.11866,0.26504 -0.26504,0.26504c-0.14638,0 -0.26504,-0.11866 -0.26504,-0.26504z" fill="#000000" stroke="none" stroke-width="0.5" stroke-linecap="butt"></path><path d="M233.75947,199.31536v-27.56411h12.85442v25.97606c-1.10655,0.50169 -2.19717,1.03753 -3.28076,1.58806z" fill="#267520" stroke="none" stroke-width="0" stroke-linecap="butt"></path><path d="M238.03444,169.46977l-1.76693,-0.61842" fill="none" stroke="#000000" stroke-width="1" stroke-linecap="round"></path><path d="M235.20735,160.81181l2.20866,-1.94362c0,0 1.98825,-0.44173 2.91544,-0.44173c0.95662,0 2.73874,0.44173 2.73874,0.44173l2.4737,2.29701z" fill="#000000" stroke="none" stroke-width="0" stroke-linecap="butt"></path><path d="M245.89728,157.89637c0,0.82947 -2.74901,1.50189 -6.14008,1.50189c-3.39108,0 -6.14008,-0.67242 -6.14008,-1.50189c0,-0.82947 2.74901,-1.50189 6.14008,-1.50189c3.39108,0 6.14008,0.67242 6.14008,1.50189z" fill="url(#color-1)" stroke="none" stroke-width="0" stroke-linecap="butt"></path><path d="M234.58893,157.45464v-4.85906c0,0 1.65845,-0.63957 3.24409,-0.43068c0.72706,0.09579 1.35047,-1.68964 1.88001,-1.68964c0.64245,0 1.85306,2.02593 2.68227,1.90613c1.43982,-0.208 2.53017,0.21418 2.53017,0.21418v4.85906z" fill="#ad5400" stroke="none" stroke-width="0" stroke-linecap="butt"></path><path d="M246.72247,197.41441c0,0 -0.6048,-0.28892 -0.8658,-0.65278c-1.33137,-1.8561 -12.44941,-17.64914 -12.44941,-17.64914l0.64117,-4.40013l12.52008,15.78404z" fill="#bd8a33" stroke="none" stroke-width="0" stroke-linecap="butt"></path><path d="M240.25294,176.4557l-3.57803,-4.90323h6.75851z" fill="#ffffff" stroke="none" stroke-width="0" stroke-linecap="butt"></path><path d="M243.11089,177.56269l-1.06893,-0.64136l1.06893,-0.55584l0.85514,-1.4965l1.11168,1.4965l1.11169,0.51308l-1.11169,0.68411l0.58505,1.27274c0,0 -0.88091,-0.81027 -1.46488,-0.87342c-0.513,-0.05548 -1.12975,0.84064 -1.12975,0.84064z" fill="#ffd300" stroke="none" stroke-width="0" stroke-linecap="butt"></path><path d="M238.87025,156.27118l-1.06893,-0.64136l1.06893,-0.55584l0.85514,-1.4965l1.11168,1.4965l1.11169,0.51308l-1.11169,0.68411l0.58505,1.27274c0,0 -0.88091,-0.81027 -1.46488,-0.87342c-0.513,-0.05548 -1.12975,0.84064 -1.12975,0.84064z" fill="#ffd300" stroke="none" stroke-width="0" stroke-linecap="butt"></path><path d="M234.35581,190.5028v-3.18047h2.38536v3.18047c0,0 -0.83221,0.70677 -1.23685,0.70677c-0.38993,0 -1.14851,-0.70677 -1.14851,-0.70677z" fill="#2f9428" stroke="none" stroke-width="0" stroke-linecap="butt"></path><path d="M234.35581,187.41067l2.12032,-0.08835" fill="none" stroke="#000000" stroke-width="0.5" stroke-linecap="round"></path><path d="M233.56069,199.11658h10.16535c-0.36831,0.1855 -0.73568,0.37297 -1.10247,0.56163c-3.00618,0.40978 -6.03818,0.63303 -9.06288,0.90146z" fill="url(#color-2)" stroke="none" stroke-width="NaN" stroke-linecap="butt"></path><path d="M240.12042,198.86259l-0.02577,1.12089" fill="none" stroke="#000000" stroke-width="0.5" stroke-linecap="round"></path><path d="M227.88324,164.03448l4.11766,14.43659l-4.57826,0.94838l-4.11766,-14.43659z" fill="#fff3c0" stroke="#000000" stroke-width="0.5" stroke-linecap="butt"></path><path d="M231.49466,176.63428l4.2915,7.31539c0,0 -3.16377,5.70234 -3.30306,5.78722c-0.68018,0.4145 -1.3697,-2.93964 -1.3697,-2.93964l-3.61935,-7.81606z" data-paper-data="{&quot;index&quot;:null}" fill="#267520" stroke="#000000" stroke-width="0.5" stroke-linecap="butt"></path><g stroke="#000000" stroke-width="0.5" stroke-linecap="butt"><path d="M245.34071,183.11096l4.63239,-0.23204l0.49371,9.85612c-0.44239,0.1433 -0.91133,0.30327 -1.45775,0.47413c-0.81401,0.25453 -2.14208,-0.04709 -2.99407,0.01152c-0.05676,0.00391 -0.11249,0.00793 -0.16725,0.01209z" fill="#fff3c0"></path><path d="M245.36061,183.50802l-0.42431,-8.47065c0,0 -1.53725,-1.89726 -0.79115,-1.93463c0.79493,-0.03982 5.42354,1.70259 5.42354,1.70259l0.42431,8.47065z" fill="#267520"></path></g><g data-paper-data="{&quot;index&quot;:null}"><path d="M237.96016,182.99695c0,0 3.7848,1.06984 5.30042,1.68609c1.55305,0.63146 3.90832,2.05815 3.90832,2.05815l-2.27177,3.19799c0,0 -1.65937,-0.95926 -2.77916,-1.63797c-1.1951,-0.72435 -4.53214,-0.77028 -4.53214,-0.77028c0,0 -0.02275,-1.28007 -0.02032,-1.57581c0.00411,-0.50002 0.39465,-2.95816 0.39465,-2.95816z" fill="#eaad81" stroke="none" stroke-width="0" stroke-linecap="butt"></path><path d="M244.17425,188.15786l2.97012,-1.59829c0,0 0.21424,2.86193 0.87753,4.09454c0.72465,1.34662 3.3026,3.67345 3.3026,3.67345l-2.97012,1.59829c0,0 0.49693,-1.85164 -0.53011,-2.55705c-0.61573,-0.4229 -2.09372,-0.12879 -2.35089,-0.6067c-0.33408,-0.62082 -0.23176,-1.34854 -0.29029,-2.42513c-0.06527,-1.20055 -1.00884,-2.17912 -1.00884,-2.17912z" fill="#eaad81" stroke="none" stroke-width="0" stroke-linecap="butt"></path><path d="M248.29292,195.81162c-0.50473,0.2716 -1.25791,-0.14753 -1.68229,-0.93616c-0.42438,-0.78863 -0.35925,-1.64812 0.14547,-1.91972c0.50473,-0.2716 1.25791,0.14753 1.68229,0.93616c0.42438,0.78863 0.35925,1.64812 -0.14547,1.91972z" fill="none" stroke="#000000" stroke-width="0.5" stroke-linecap="butt"></path><path d="M249.03108,195.26708l1.82776,-0.98356c0,0 0.81219,0.33597 1.61,0.93668c-0.3257,0.17258 -0.65416,0.33911 -0.98952,0.4902c-0.60823,0.27403 -1.22658,0.52452 -1.84696,0.77034z" fill="#000000" stroke="#000000" stroke-width="0.5" stroke-linecap="butt"></path><path d="M247.67819,194.66927l-0.79043,-1.19511l1.56395,-0.10502" fill="none" stroke="#000000" stroke-width="0.5" stroke-linecap="round"></path><path d="M236.9696,187.27628l0.98413,-4.16627l1.76751,0.41751l-0.98413,4.16627z" fill="#000000" stroke="none" stroke-width="0" stroke-linecap="butt"></path><path d="" fill="#d4d4d4" stroke="none" stroke-width="NaN" stroke-linecap="butt"></path><path d="" fill="url(#color-3)" stroke="#000000" stroke-width="0.5" stroke-linecap="butt"></path><path d="" fill="url(#color-4)" stroke="#000000" stroke-width="0.5" stroke-linecap="butt"></path><path d="" fill="#a78100" stroke="#000000" stroke-width="0.5" stroke-linecap="butt"></path><path d="" fill="#000000" stroke="#000000" stroke-width="0.5" stroke-linecap="butt"></path><path d="" fill="#000000" stroke="#000000" stroke-width="0.5" stroke-linecap="butt"></path></g><path d="M237.69466,162.85125l-2.18658,0.46382" fill="none" stroke="#000000" stroke-width="0.5" stroke-linecap="round"></path><path d="M242.00156,162.91751l2.3191,0.26504" fill="none" stroke="#000000" stroke-width="0.5" stroke-linecap="round"></path><path d="M238.68856,168.78151c0,0.75018 -0.68231,1.35833 -1.52398,1.35833c-0.84167,0 -1.52398,-0.60814 -1.52398,-1.35833c0,-0.75018 0.68231,-1.35833 1.52398,-1.35833c0.84167,0 1.52398,0.60814 1.52398,1.35833z" fill="#ff6666" stroke="#000000" stroke-width="0.5" stroke-linecap="butt"></path></g><path d="M254.24436,202.5077c0,1.63572 -6.33999,2.96173 -14.16077,2.96173c-7.82077,0 -14.16077,-1.32601 -14.16077,-2.96173c0,-1.63572 6.33999,-2.96173 14.16077,-2.96173c7.82077,0 14.16077,1.32601 14.16077,2.96173z" fill="url(#color-5)" stroke="none" stroke-width="0" stroke-linecap="butt"></path><path d="M228.04734,201.85559v-18.14059h24.06405v18.14059z" fill="url(#color-6)" stroke="none" stroke-width="0" stroke-linecap="butt"></path></g></g></svg>