<svg version="1.1" xmlns="http://www.w3.org/2000/svg" xmlns:xlink="http://www.w3.org/1999/xlink" width="61.4" height="46.99156" viewBox="0,0,61.4,46.99156"><defs><radialGradient cx="262.41418" cy="181.83748" r="10.23564" gradientUnits="userSpaceOnUse" id="color-1"><stop offset="0" stop-color="#3c3c3c"></stop><stop offset="1" stop-color="#656565"></stop></radialGradient><radialGradient cx="217.69781" cy="194.93007" r="9.70518" gradientUnits="userSpaceOnUse" id="color-2"><stop offset="0" stop-color="#3c3c3c"></stop><stop offset="1" stop-color="#656565"></stop></radialGradient><linearGradient x1="238.11068" y1="188.00326" x2="238.58163" y2="192.74464" gradientUnits="userSpaceOnUse" id="color-3"><stop offset="0" stop-color="#ffffff" stop-opacity="0"></stop><stop offset="1" stop-color="#ffffff"></stop></linearGradient><linearGradient x1="240.25" y1="192.70835" x2="240.25" y2="202.79168" gradientUnits="userSpaceOnUse" id="color-4"><stop offset="0" stop-color="#b4b4b4"></stop><stop offset="1" stop-color="#9d9d9d"></stop></linearGradient><linearGradient x1="261.20833" y1="198.16668" x2="256.375" y2="198.16668" gradientUnits="userSpaceOnUse" id="color-5"><stop offset="0" stop-color="#656565"></stop><stop offset="1" stop-color="#b1b1b1"></stop></linearGradient><linearGradient x1="218.375" y1="198.00001" x2="223.20834" y2="198.00001" gradientUnits="userSpaceOnUse" id="color-6"><stop offset="0" stop-color="#656565"></stop><stop offset="1" stop-color="#b1b1b1"></stop></linearGradient><linearGradient x1="220.75" y1="194.37501" x2="220.75" y2="202.62501" gradientUnits="userSpaceOnUse" id="color-7"><stop offset="0" stop-color="#bebebe"></stop><stop offset="1" stop-color="#000000"></stop></linearGradient><linearGradient x1="223" y1="193.62501" x2="223" y2="202.62501" gradientUnits="userSpaceOnUse" id="color-8"><stop offset="0" stop-color="#bebebe"></stop><stop offset="1" stop-color="#000000"></stop></linearGradient><linearGradient x1="256.08333" y1="193.70835" x2="256.08333" y2="202.70835" gradientUnits="userSpaceOnUse" id="color-9"><stop offset="0" stop-color="#bebebe"></stop><stop offset="1" stop-color="#000000"></stop></linearGradient><linearGradient x1="259.5" y1="195.29168" x2="259.5" y2="202.45835" gradientUnits="userSpaceOnUse" id="color-10"><stop offset="0" stop-color="#bebebe"></stop><stop offset="1" stop-color="#000000"></stop></linearGradient><linearGradient x1="238.33334" y1="193.04168" x2="238.33334" y2="194.29168" gradientUnits="userSpaceOnUse" id="color-11"><stop offset="0" stop-color="#bebebe"></stop><stop offset="1" stop-color="#000000"></stop></linearGradient><linearGradient x1="240.46989" y1="195.10229" x2="241.36345" y2="194.89774" gradientUnits="userSpaceOnUse" id="color-12"><stop offset="0" stop-color="#ff6262"></stop><stop offset="1" stop-color="#ead2d2"></stop></linearGradient><radialGradient cx="214.2206" cy="179.82196" r="8.03245" gradientUnits="userSpaceOnUse" id="color-13"><stop offset="0" stop-color="#79787a"></stop><stop offset="1" stop-color="#464546"></stop></radialGradient><radialGradient cx="257.48403" cy="179.48404" r="6.50051" gradientUnits="userSpaceOnUse" id="color-14"><stop offset="0" stop-color="#b3b0b4"></stop><stop offset="1" stop-color="#79787a"></stop></radialGradient><radialGradient cx="265.79581" cy="185.15736" r="5.73111" gradientUnits="userSpaceOnUse" id="color-15"><stop offset="0" stop-color="#b3b0b4"></stop><stop offset="1" stop-color="#79787a"></stop></radialGradient><radialGradient cx="223.08806" cy="182.90415" r="6.91857" gradientUnits="userSpaceOnUse" id="color-16"><stop offset="0" stop-color="#b3b0b4"></stop><stop offset="1" stop-color="#79787a"></stop></radialGradient><radialGradient cx="264.43067" cy="171.28152" r="4.59432" gradientUnits="userSpaceOnUse" id="color-17"><stop offset="0" stop-color="#b3b0b4"></stop><stop offset="1" stop-color="#79787a"></stop></radialGradient><radialGradient cx="267.20554" cy="165.28271" r="3.86765" gradientUnits="userSpaceOnUse" id="color-18"><stop offset="0" stop-color="#b3b0b4"></stop><stop offset="1" stop-color="#79787a"></stop></radialGradient><radialGradient cx="256.44287" cy="163.02593" r="4.96454" gradientUnits="userSpaceOnUse" id="color-19"><stop offset="0" stop-color="#79787a"></stop><stop offset="1" stop-color="#464546"></stop></radialGradient><radialGradient cx="216.99646" cy="168.76543" r="4.80739" gradientUnits="userSpaceOnUse" id="color-20"><stop offset="0" stop-color="#b3b0b4"></stop><stop offset="1" stop-color="#79787a"></stop></radialGradient><radialGradient cx="223.59148" cy="163.38894" r="4.50091" gradientUnits="userSpaceOnUse" id="color-21"><stop offset="0" stop-color="#b3b0b4"></stop><stop offset="1" stop-color="#79787a"></stop></radialGradient><radialGradient cx="246.98222" cy="160.80024" r="2.92449" gradientUnits="userSpaceOnUse" id="color-22"><stop offset="0" stop-color="#b3b0b4"></stop><stop offset="1" stop-color="#79787a"></stop></radialGradient><linearGradient x1="239.9" y1="157.04156" x2="239.9" y2="203.94156" gradientUnits="userSpaceOnUse" id="color-23"><stop offset="0" stop-color="#000000" stop-opacity="0.84677"></stop><stop offset="1" stop-color="#000000" stop-opacity="0"></stop></linearGradient></defs><g transform="translate(-209.25,-156.95)"><g data-paper-data="{&quot;isPaintingLayer&quot;:true}" fill-rule="nonzero" stroke-linejoin="miter" stroke-miterlimit="10" stroke-dasharray="" stroke-dashoffset="0" style="mix-blend-mode: normal"><path d="M209.71327,202.18406v-45.00651h60.57347v45.00651z" fill="#5d5d5d" stroke="none" stroke-width="0" stroke-linecap="butt"></path><path d="M249.05,202.55l-12,-45.3l33.6,-0.3v45.6z" data-paper-data="{&quot;index&quot;:null}" fill="#4a4a4a" stroke="none" stroke-width="0" stroke-linecap="butt"></path><path d="M209.25,202.65v-45.6l27.9,-0.1l-6.3,45.7z" fill="#4a4a4a" stroke="none" stroke-width="0" stroke-linecap="butt"></path><path d="M266.33848,187.34817c-2.21574,0.40947 -4.08786,1.92132 -6.70957,0.75612c-0.98423,-0.43744 -3.11596,4.87338 -3.92305,4.28853c-3.42897,-2.48471 -3.89031,-11.9108 -2.64514,-14.71243c1.53825,-3.46106 6.97293,-4.40562 12.13869,-2.10973c2.56806,1.14136 5.11957,4.10405 5.03837,6.69946c-0.08213,2.62536 -2.81808,4.87825 -3.89931,5.07805z" fill="url(#color-1)" stroke="none" stroke-width="0" stroke-linecap="butt"></path><path d="M227.30831,202.57246l9.08334,-36.00001l1.11667,-0.55l-7.3,36.41667z" fill="#9f8250" stroke="none" stroke-width="0" stroke-linecap="butt"></path><path d="M227.403,194.93007c0,5.20833 -4.34516,8.06576 -9.70518,8.06576c-5.36002,0 -8.34043,-2.92926 -8.34043,-8.13759c0,-4.17242 0.32514,-8.92195 4.19014,-10.16488c0.95958,-0.30859 3.08421,0.8062 4.15029,0.8062c0.63879,0 4.37615,-6.89846 4.98048,-6.78401c4.4665,0.84595 4.7247,11.6269 4.7247,16.21451z" fill="url(#color-2)" stroke="none" stroke-width="0" stroke-linecap="butt"></path><path d="M247.47498,202.55579l-8.76666,-36.28334l1.11667,0.41667l10.08333,36.13333z" data-paper-data="{&quot;index&quot;:null}" fill="#9f8250" stroke="none" stroke-width="0" stroke-linecap="butt"></path><path d="M233.46601,185.99089l0.27389,-1.6l9.42168,0.2l0.43822,1.4z" fill="#caa565" stroke="none" stroke-width="0" stroke-linecap="butt"></path><path d="M232.34301,191.6726l0.34499,-1.6l11.86736,0.2l0.55197,1.4z" fill="#caa565" stroke="none" stroke-width="0" stroke-linecap="butt"></path><path d="M237.6158,192.84057l-3.36787,-5.34033l7.41657,-0.91401l-2.11702,6.06247z" fill="url(#color-3)" stroke="none" stroke-width="0" stroke-linecap="butt"></path><g><path d="M209.95834,202.79168l8.75,-10.08334l41.74999,0.33334l10.08334,9.75c0,0 -9.28964,0 -16.16667,0c-0.22494,0 -0.44729,0 -0.66666,0c-11.1658,0 -43.75,0 -43.75,0z" fill="url(#color-4)" stroke="none" stroke-width="0" stroke-linecap="butt"></path><path d="M256.375,202.87501v-9.41667h4.83333v9.41667z" data-paper-data="{&quot;index&quot;:null}" fill="url(#color-5)" stroke="none" stroke-width="0" stroke-linecap="butt"></path><path d="M218.375,202.70835v-9.41667h4.83334v9.41667z" fill="url(#color-6)" stroke="none" stroke-width="0" stroke-linecap="butt"></path><path d="M264.78781,202.47304l-6.23681,-9.02413l2.41119,-0.50525l6.40347,8.02412z" data-paper-data="{&quot;index&quot;:null}" fill="#767676" stroke="none" stroke-width="0" stroke-linecap="butt"></path><path d="M212.38434,200.30111l6.40347,-8.02412l2.41118,0.50525l-6.23681,9.02413z" fill="#767676" stroke="none" stroke-width="0" stroke-linecap="butt"></path><g fill="#ffe116" stroke="#efc800" stroke-width="0.5" stroke-linecap="butt"><path d="M209.67202,202.52597l1.09098,-5.04671l9.6719,0.99664l-2.28233,4.13764z"></path><path d="M261.68075,202.6699l-0.68472,-4.80657l8.02386,-1.82066l1.14142,6.48329z" data-paper-data="{&quot;index&quot;:null}"></path></g><path d="M218.54167,193.5521v-1.1875h42.5v1.1875z" fill="#767676" stroke="none" stroke-width="0" stroke-linecap="butt"></path><path d="M220.20834,194.37501l1.08333,8.25" fill="none" stroke="url(#color-7)" stroke-width="0.25" stroke-linecap="round"></path><path d="M223.20834,202.62501l-0.41667,-9" fill="none" stroke="url(#color-8)" stroke-width="0.25" stroke-linecap="round"></path><path d="M256.875,202.54168l1.83333,-8.83333" fill="none" stroke="url(#color-9)" stroke-width="0.25" stroke-linecap="round"></path><path d="M259.20834,202.45835l0.58333,-7.16667" fill="none" stroke="url(#color-10)" stroke-width="0.25" stroke-linecap="round"></path><path d="M235.95834,194.29168v-1.25c0,0 1.86818,-1.25 2.66666,-1.25c0.7846,0 2.08334,1.25 2.08334,1.25v1.25z" fill="#c3c8c3" stroke="url(#color-11)" stroke-width="0.25" stroke-linecap="butt"></path><path d="M236.625,195.20835v-1.83334h0.75v1.83334z" fill="#828282" stroke="none" stroke-width="0" stroke-linecap="butt"></path><path d="M239.29167,195.12501v-1.58334h0.66667v1.58334z" fill="#828282" stroke="none" stroke-width="0" stroke-linecap="butt"></path><path d="M240.96267,197.25494c0,0 -0.08308,-1.53835 -0.24823,-2.25983c-0.16334,-0.71353 -0.73731,-2.04547 -0.73731,-2.04547l0.89355,-0.20455c0,0 0.55655,1.25581 0.71613,1.95292c0.16845,0.73588 0.26942,2.35237 0.26942,2.35237z" fill="url(#color-12)" stroke="none" stroke-width="0" stroke-linecap="butt"></path><path d="M241.29167,202.70835c0,0 -0.33601,-1.14338 -0.12542,-2.2421c0.15614,-0.81458 0.87542,-1.56707 0.87542,-2.0079c0,-0.54572 -0.75,-1.5 -0.75,-1.5h0.41667c0,0 0.75,0.42631 0.75,1c0,0.53155 -0.61106,1.58631 -0.8019,2.65742c-0.18403,1.03284 0.0519,2.09258 0.0519,2.09258z" fill="#444343" stroke="none" stroke-width="0" stroke-linecap="butt"></path></g><path d="M234.52753,181.22186l0.21665,-1.1926l7.45264,0.14908l0.34664,1.04352z" fill="#caa565" stroke="none" stroke-width="0" stroke-linecap="butt"></path><path d="M235.32525,177.52262l0.16242,-0.63704l5.5871,0.07963l0.25986,0.55741z" fill="#caa565" stroke="none" stroke-width="0" stroke-linecap="butt"></path><path d="M235.81259,175.18887l0.135,-0.63704l4.64394,0.07963l0.216,0.55741z" fill="#caa565" stroke="none" stroke-width="0" stroke-linecap="butt"></path><path d="M236.0547,173.67894l0.11745,-0.63704l4.04007,0.07963l0.18792,0.55741z" fill="#caa565" stroke="none" stroke-width="0" stroke-linecap="butt"></path><path d="M236.17711,172.23721l0.10329,-0.41482l3.55318,0.05185l0.16527,0.36297z" fill="#caa565" stroke="none" stroke-width="0" stroke-linecap="butt"></path><path d="M236.55333,171.33975l0.09028,-0.41481l3.10554,0.05185l0.14445,0.36296z" fill="#caa565" stroke="none" stroke-width="0" stroke-linecap="butt"></path><path d="M236.59895,170.56468l0.08488,-0.41481l2.91995,0.05185l0.13581,0.36296z" fill="#caa565" stroke="none" stroke-width="0" stroke-linecap="butt"></path><path d="M236.81259,169.22457l0.72191,-3.1284c0,0 1.25308,0.19449 1.25743,0.36313c0.01169,0.45313 0.65722,2.76527 0.65722,2.76527z" fill-opacity="0.49326" fill="#caa565" stroke="none" stroke-width="0" stroke-linecap="butt"></path><path d="M211.51751,192.88766l-0.06567,-1.14903c0,0 1.58196,-4.89038 1.90098,-8.2635c0.2311,-2.44354 -0.88479,-3.66831 -0.45479,-3.69288c0.13172,-0.00753 0.38162,-2.33798 0.69577,-3.70542c0.11945,-0.52001 -0.08982,-1.07866 0.20303,-1.05636c0.48605,0.03702 1.71434,3.6287 2.62986,4.70394c0.86014,1.0102 -1.52329,4.51707 -1.00851,5.86679c1.16051,3.04278 2.40142,5.7835 2.40142,5.7835l0.06567,1.14903z" data-paper-data="{&quot;index&quot;:null}" fill="url(#color-13)" stroke="#000000" stroke-width="0" stroke-linecap="butt"></path><path d="M255.93167,185.91243v-1.99502c0,0 1.26375,-7.90618 2.23151,-7.90618c0.32966,0 0.08361,2.88918 0.68844,4.57222c0.79061,2.19999 2.41628,3.33398 2.41628,3.33398v1.99502z" data-paper-data="{&quot;index&quot;:null}" fill="url(#color-14)" stroke="#000000" stroke-width="0" stroke-linecap="butt"></path><path d="M262.4598,190.8249v-1.75889c0,0 1.43325,-0.99977 2.13029,-2.93937c0.53324,-1.48383 0.31631,-4.03105 0.60695,-4.03105c0.85322,0 1.96739,6.97041 1.96739,6.97041v1.75889z" data-paper-data="{&quot;index&quot;:null}" fill="url(#color-15)" stroke="#000000" stroke-width="0" stroke-linecap="butt"></path><path d="M221.43586,189.74595v-2.12331c0,0 1.34501,-8.41463 2.37501,-8.41463c0.35086,0 0.08898,3.07498 0.73271,4.86627c0.84146,2.34147 2.57167,3.54838 2.57167,3.54838v2.12331z" data-paper-data="{&quot;index&quot;:null}" fill="url(#color-16)" stroke="#000000" stroke-width="0" stroke-linecap="butt"></path><path d="M261.75637,175.82488v-1.41001c0,0 1.14896,-0.80146 1.70774,-2.35633c0.42747,-1.18951 0.25358,-3.23148 0.48657,-3.23148c0.68398,0 1.57715,5.5878 1.57715,5.5878v1.41001z" data-paper-data="{&quot;index&quot;:null}" fill="url(#color-17)" stroke="#000000" stroke-width="0" stroke-linecap="butt"></path><path d="M266.28192,169.10744v-1.18699c0,0 0.7519,-4.70399 1.3277,-4.70399c0.19614,0 0.04975,1.719 0.40961,2.72037c0.4704,1.30894 1.43763,1.98363 1.43763,1.98363v1.187z" data-paper-data="{&quot;index&quot;:null}" fill="url(#color-18)" stroke="#000000" stroke-width="0" stroke-linecap="butt"></path><path d="M254.17789,170.87638l0.04059,-0.71017c0,0 0.76695,-1.69393 1.48423,-3.57455c0.31817,-0.83421 -1.15494,-3.00166 -0.62332,-3.62602c0.56585,-0.66457 1.325,-2.88443 1.62541,-2.90731c0.18101,-0.01378 0.05166,0.33149 0.12548,0.6529c0.19417,0.84516 0.34862,2.28552 0.43002,2.29017c0.26577,0.01519 -0.42392,0.77216 -0.28109,2.28242c0.19718,2.08479 1.17492,5.10733 1.17492,5.10733l-0.04059,0.71017z" data-paper-data="{&quot;index&quot;:null}" fill="url(#color-19)" stroke="#000000" stroke-width="0" stroke-linecap="butt"></path><path d="M214.19814,173.51949v-1.4754c0,0 1.20223,-0.83862 1.78693,-2.4656c0.4473,-1.24468 0.26534,-3.38134 0.50913,-3.38134c0.7157,0 1.65028,5.84693 1.65028,5.84693v1.4754z" data-paper-data="{&quot;index&quot;:null}" fill="url(#color-20)" stroke="#000000" stroke-width="0" stroke-linecap="butt"></path><path d="M222.51663,167.83993v-1.38134c0,0 0.87501,-5.4742 1.54509,-5.4742c0.22826,0 0.05788,2.00045 0.47667,3.16579c0.54741,1.52326 1.67302,2.30843 1.67302,2.30843v1.38134z" data-paper-data="{&quot;index&quot;:null}" fill="url(#color-21)" stroke="#000000" stroke-width="0" stroke-linecap="butt"></path><path d="M235.90866,163.16607l0.64646,-0.86195l2.01121,-0.07183l0.5028,0.93377z" fill="#9b774d" stroke="#000000" stroke-width="0" stroke-linecap="butt"></path><path d="M245.2799,163.6923v-0.89754c0,0 0.73136,-0.51016 1.08705,-1.4999c0.27211,-0.75718 0.16142,-2.05699 0.30972,-2.05699c0.43539,0 1.00393,3.55688 1.00393,3.55688v0.89753z" data-paper-data="{&quot;index&quot;:null}" fill="url(#color-22)" stroke="#000000" stroke-width="0" stroke-linecap="butt"></path><path d="M236.76362,169.77142l0.07256,-0.41481l2.49584,0.05185l0.11609,0.36296z" fill="#caa565" stroke="none" stroke-width="0" stroke-linecap="butt"></path><path d="M209.35,203.94156v-46.9h61.1v46.9z" fill="url(#color-23)" stroke="none" stroke-width="0" stroke-linecap="butt"></path></g></g></svg>