<svg version="1.1" xmlns="http://www.w3.org/2000/svg" xmlns:xlink="http://www.w3.org/1999/xlink" width="64.26533" height="49.5" viewBox="0,0,64.26533,49.5"><g transform="translate(-207.86733,-155.25)"><g data-paper-data="{&quot;isPaintingLayer&quot;:true}" fill-rule="nonzero" stroke-linejoin="miter" stroke-miterlimit="10" stroke-dasharray="" stroke-dashoffset="0" style="mix-blend-mode: normal"><path d="M208.11733,204.5v-49h63.76533v49z" fill-opacity="0.30645" fill="#00ffed" stroke="#000000" stroke-width="0.5" stroke-linecap="butt"></path><path d="M223.96121,194.61106c0,-8.05965 0,-21.97063 0,-26.56791c0,-2.90554 1.04275,-6.2725 2.20077,-6.2725c3.56357,0 22.11252,0 28.61975,0c1.41361,0 2.25895,2.33501 2.25895,5.78651c0,8.13298 0,22.46518 0,27.05392c0,2.78176 -0.86864,5.94851 -2.31711,5.94851c-6.54334,0 -24.91928,0 -28.50341,0c-1.18512,0 -2.25894,-2.41046 -2.25894,-5.94851z" fill-opacity="0.56452" fill="#291800" stroke="#fff4ce" stroke-width="0.5" stroke-linecap="butt"></path><text transform="translate(235.6167,165.71618) scale(0.08426,0.08426)" font-size="40" xml:space="preserve" fill="#fff4ce" fill-rule="nonzero" stroke="none" stroke-width="1" stroke-linecap="butt" stroke-linejoin="miter" stroke-miterlimit="10" stroke-dasharray="" stroke-dashoffset="0" font-family="Impact" font-weight="normal" text-anchor="start" style="mix-blend-mode: normal"><tspan x="0" dy="0">Backdoor</tspan></text><path d="M227.84508,166.94861l26.52664,0.28886" fill="none" stroke="#fff4ce" stroke-width="0.5" stroke-linecap="round"></path><text transform="translate(224.5683,172.78413) scale(0.03591,0.03591)" font-size="40" xml:space="preserve" fill="#fff4ce" fill-rule="nonzero" stroke="none" stroke-width="1" stroke-linecap="butt" stroke-linejoin="miter" stroke-miterlimit="10" stroke-dasharray="" stroke-dashoffset="0" font-family="Serif" font-weight="normal" text-anchor="start" style="mix-blend-mode: normal"><tspan x="0" dy="0">Tis I, the Magician!</tspan><tspan x="0" dy="48px"> </tspan><tspan x="0" dy="48px">Thou has 2 mintues to transverse to door 0 or I shall</tspan><tspan x="0" dy="48px">strike thy legs down.</tspan><tspan x="0" dy="48px"> </tspan><tspan x="0" dy="48px">Pull levers to increase your time here, well get going</tspan><tspan x="0" dy="48px">time is ticking.... -Magician</tspan><tspan x="0" dy="48px"> </tspan><tspan x="0" dy="48px">Backdoor has new-different assets, timer after entering</tspan><tspan x="0" dy="48px">door and Cope is disabled!</tspan></text><path d="M229.93342,199.12931c0,0 -1.78217,-1.49845 -1.78217,-2.33279c0,-0.83285 1.78217,-2.66878 1.78217,-2.66878h22.19085c0,0 1.20727,1.59039 1.20727,2.38133c0,0.86891 -1.20727,2.62023 -1.20727,2.62023z" fill="#00ff3a" stroke="none" stroke-width="0.5" stroke-linecap="butt"></path><text transform="translate(233.44026,198.06543) scale(0.09001,0.09001)" font-size="40" xml:space="preserve" fill="#000000" fill-rule="nonzero" stroke="none" stroke-width="1" stroke-linecap="butt" stroke-linejoin="miter" stroke-miterlimit="10" stroke-dasharray="" stroke-dashoffset="0" font-family="Serif" font-weight="normal" text-anchor="start" style="mix-blend-mode: normal"><tspan x="0" dy="0">Got it!</tspan></text><path d="M230.09715,166.62521v-3.96356h2.65689v3.96356z" fill="#ded5b4" stroke="none" stroke-width="0.5" stroke-linecap="butt"></path><path d="M228.70337,166.49455l0.26133,-3.61511l1.61156,-0.392v4.312z" data-paper-data="{&quot;index&quot;:null}" fill="#fff4ce" stroke="none" stroke-width="0.5" stroke-linecap="butt"></path><path d="M229.48737,164.54543c0,0.1323 -0.10725,0.23956 -0.23956,0.23956c-0.1323,0 -0.23956,-0.10725 -0.23956,-0.23956c0,-0.1323 0.10725,-0.23956 0.23956,-0.23956c0.1323,0 0.23956,0.10725 0.23956,0.23956z" fill="#ded5b4" stroke="none" stroke-width="0.5" stroke-linecap="butt"></path></g></g></svg>