<svg version="1.1" xmlns="http://www.w3.org/2000/svg" xmlns:xlink="http://www.w3.org/1999/xlink" width="255.15921" height="298.85406" viewBox="0,0,255.15921,298.85406"><g transform="translate(-116.75405,-36.537)"><g data-paper-data="{&quot;isPaintingLayer&quot;:true}" fill-rule="nonzero" stroke-linejoin="miter" stroke-miterlimit="10" stroke-dasharray="" stroke-dashoffset="0" style="mix-blend-mode: normal"><path d="M117.75405,288.86672c0,-61.68098 0,-168.14254 0,-203.32586c0,-22.23631 7.98021,-48.00386 16.84266,-48.00386c27.27225,0 169.22845,0 219.0287,0c10.81842,0 17.28785,17.86996 17.28785,44.2845c0,62.24219 0,171.92737 0,207.04528c0,21.28896 -6.64776,45.52428 -17.73302,45.52428c-50.07659,0 -190.7088,0 -218.13833,0c-9.06978,0 -17.28784,-18.44743 -17.28784,-45.52428z" fill-opacity="0.56452" fill="#291800" stroke="#fff4ce" stroke-width="2" stroke-linecap="butt"></path><path d="M121.66699,108.1767v-23.33333h222.57143c0,0 18.09524,8.29178 18.09524,12c0,4.04094 -18.09524,11.33333 -18.09524,11.33333z" fill-opacity="0.48419" fill="#290000" stroke="none" stroke-width="0" stroke-linecap="butt"></path><text transform="translate(175.12094,72.01835) scale(0.64482,0.64482)" font-size="40" xml:space="preserve" fill="#fff4ce" fill-rule="nonzero" stroke="none" stroke-width="1" stroke-linecap="butt" stroke-linejoin="miter" stroke-miterlimit="10" stroke-dasharray="" stroke-dashoffset="0" font-family="Impact" font-weight="normal" text-anchor="start" style="mix-blend-mode: normal"><tspan x="0" dy="0">Announcement</tspan></text><path d="M350.15436,80.66086l-203.01003,-2.21064" fill="none" stroke="#fff4ce" stroke-width="2" stroke-linecap="round"></path><text transform="translate(127.20507,103.79885) scale(0.5,0.5)" font-size="40" xml:space="preserve" fill="#fff4ce" fill-rule="nonzero" stroke="none" stroke-width="1" stroke-linecap="butt" stroke-linejoin="miter" stroke-miterlimit="10" stroke-dasharray="" stroke-dashoffset="0" font-family="Impact" font-weight="normal" text-anchor="start" style="mix-blend-mode: normal"><tspan x="0" dy="0">Updates-</tspan></text><text transform="translate(142.08355,123.04993) scale(0.2332,0.2332)" font-size="40" xml:space="preserve" fill="#fff4ce" fill-rule="nonzero" stroke="none" stroke-width="1" stroke-linecap="butt" stroke-linejoin="miter" stroke-miterlimit="10" stroke-dasharray="" stroke-dashoffset="0" font-family="Monospace" font-weight="normal" text-anchor="start" style="mix-blend-mode: normal"><tspan x="0" dy="0">Player animations/sprite remade!</tspan><tspan x="0" dy="48px">Enjoy the visual appealing player!</tspan></text><path d="M121.39602,252.20527v-23.33333h222.8797c0,0 18.1203,8.29178 18.1203,12c0,4.04094 -18.1203,11.33333 -18.1203,11.33333z" fill-opacity="0.44355" fill="#290000" stroke="none" stroke-width="0" stroke-linecap="butt"></path><text transform="translate(123.87174,248.22313) scale(0.5,0.5)" font-size="40" xml:space="preserve" fill="#fff4ce" fill-rule="nonzero" stroke="none" stroke-width="1" stroke-linecap="butt" stroke-linejoin="miter" stroke-miterlimit="10" stroke-dasharray="" stroke-dashoffset="0" font-family="Impact" font-weight="normal" text-anchor="start" style="mix-blend-mode: normal"><tspan x="0" dy="0">Warnings-</tspan></text><text transform="translate(170.6668,327.51036) scale(0.5,0.5)" font-size="40" xml:space="preserve" fill="#ffcfcf" fill-rule="nonzero" stroke="none" stroke-width="1" stroke-linecap="butt" stroke-linejoin="miter" stroke-miterlimit="10" stroke-dasharray="" stroke-dashoffset="0" font-family="Monospace" font-weight="normal" text-anchor="start" style="mix-blend-mode: normal"><tspan x="0" dy="0">Tap to Close</tspan></text><g><path d="M137.07699,79.29792v-18.73116h8.02764l-3.56784,18.73116z" fill="#fff4ce" stroke="none" stroke-width="0" stroke-linecap="butt"></path><path d="M134.84705,80.18989v-2.10655h8.25063v2.10655z" fill="#fff4ce" stroke="none" stroke-width="0" stroke-linecap="butt"></path><path d="M136.62671,64.24796l-1.625,-9.67605l19.79193,-3.32384l1.625,9.67605z" fill="#fff4ce" stroke="none" stroke-width="0" stroke-linecap="butt"></path><path d="M140.47367,59.01995c0,1.78572 -1.8969,3.23336 -4.23681,3.23336c-2.33992,0 -4.23681,-1.44763 -4.23681,-3.23336c0,-1.78572 1.8969,-3.23336 4.23681,-3.23336c2.33992,0 4.23681,1.44763 4.23681,3.23336z" fill="#fff4ce" stroke="none" stroke-width="0" stroke-linecap="butt"></path><path d="M155.84374,61.53984l-1.77359,-10.56098l11.05263,-6.89213l3.65286,19.05834z" fill="#fff4ce" stroke="none" stroke-width="0" stroke-linecap="butt"></path><path d="M167.05495,65.01683l-3.58236,-21.33131l3.07874,-0.51704l3.58236,21.33131z" fill="#fff4ce" stroke="none" stroke-width="0" stroke-linecap="butt"></path><path d="M173.03025,43.07617l-4.23681,3.56784" fill="none" stroke="#880000" stroke-width="0.5" stroke-linecap="round"></path><path d="M176.1521,63.36826l-3.34484,-4.23681" fill="none" stroke="#880000" stroke-width="0.5" stroke-linecap="round"></path><path d="M176.37506,51.77278l-5.57475,0.66897" fill="none" stroke="#880000" stroke-width="0.5" stroke-linecap="round"></path><path d="M169.90838,52.88773c0,1.72416 -0.7987,3.12186 -1.78392,3.12186c-0.98522,0 -1.78392,-1.3977 -1.78392,-3.12186c0,-1.72416 0.7987,-3.12186 1.78392,-3.12186c0.98522,0 1.78392,1.3977 1.78392,3.12186z" fill="#fff4ce" stroke="none" stroke-width="0" stroke-linecap="butt"></path></g><g stroke="#ffffff" stroke-width="0" stroke-linecap="butt"><path d="M123.71029,132.25576v-11.39572l4.13646,-1.43141l7.57013,0.07626l1.80055,1.99293l1.50776,0.80795l-3.64074,-0.22876l-7.23989,0.05339l-0.99784,3.75113l1.8019,0.82774l6.82224,-1.11788l-0.42334,-3.35404c0,0 0.17303,-0.84724 0.4936,-0.84469c0.64165,0.0051 3.11647,0.87341 3.11647,0.87341l-0.74368,6.4234l-2.16165,-0.39702l1.04118,-0.87729l-0.84889,-0.62751l-1.72004,0.56937l1.48122,0.92281l2.19894,0.32454l-0.42483,4.10787l-3.23212,-0.83055l0.39132,-1.25931l-3.2658,-2.26137l-4.80439,0.24658l-0.10692,2.51023l1.20769,0.62895l6.58315,0.04115l3.2212,0.89306l-2.5811,1.07555l-9.13516,-0.05364z" fill="#f1dbb3"></path><path d="M123.07237,133.98349v-13.40505l4.86581,-1.68381l8.90492,0.08971l2.11803,2.34433l1.77362,0.95041l-4.28268,-0.26911l-8.51645,0.06281l-1.17379,4.41254l2.11961,0.97369l8.02517,-1.315l-0.49799,-3.94544c0,0 0.20353,-0.99664 0.58064,-0.99362c0.75479,0.006 3.66598,1.02742 3.66598,1.02742l-0.8748,7.55599l-2.54282,-0.46702l1.22477,-1.03198l-0.99857,-0.73815l-2.02333,0.66976l1.74239,1.08552l2.58666,0.38176l-0.49973,4.83218l-3.80202,-0.97699l0.46031,-1.48135l-3.84164,-2.6601l-5.65151,0.29006l-0.12577,2.95284l1.42063,0.73984l7.74391,0.04841l3.78918,1.05053l-3.03621,1.26519l-10.74589,-0.06309z" fill="#fff4ce"></path></g><text transform="translate(331.75002,98.59375) scale(0.13434,0.13434)" font-size="40" xml:space="preserve" fill="#fff4ce" fill-rule="nonzero" stroke="none" stroke-width="1" stroke-linecap="butt" stroke-linejoin="miter" stroke-miterlimit="10" stroke-dasharray="" stroke-dashoffset="0" font-family="Sans Serif" font-weight="normal" text-anchor="start" style="mix-blend-mode: normal"><tspan x="0" dy="0">version</tspan><tspan x="0" dy="46.150000000000006px">U.3.8</tspan></text><text transform="translate(140.16688,154.63326) scale(0.2332,0.2332)" font-size="40" xml:space="preserve" fill="#fff4ce" fill-rule="nonzero" stroke="none" stroke-width="1" stroke-linecap="butt" stroke-linejoin="miter" stroke-miterlimit="10" stroke-dasharray="" stroke-dashoffset="0" font-family="Monospace" font-weight="normal" text-anchor="start" style="mix-blend-mode: normal"><tspan x="0" dy="0">Item skins added! Customize your gear</tspan><tspan x="0" dy="48px">to be cooler!</tspan></text><g stroke="#ffffff" stroke-width="0" stroke-linecap="butt"><path d="M123.71029,155.50576v-11.39572l4.13646,-1.43141l7.57013,0.07626l1.80055,1.99293l1.50776,0.80795l-3.64074,-0.22876l-7.23989,0.05338l-0.99784,3.75113l1.8019,0.82774l6.82225,-1.11789l-0.42334,-3.35404c0,0 0.17302,-0.84725 0.4936,-0.8447c0.64165,0.0051 3.11647,0.87341 3.11647,0.87341l-0.74368,6.4234l-2.16165,-0.39702l1.04118,-0.87729l-0.84889,-0.62751l-1.72004,0.56937l1.48122,0.92281l2.19894,0.32454l-0.42482,4.10787l-3.23211,-0.83054l0.39132,-1.25931l-3.2658,-2.26137l-4.80439,0.24658l-0.10691,2.51024l1.20768,0.62894l6.58315,0.04116l3.2212,0.89306l-2.5811,1.07556l-9.13516,-0.05364z" fill="#f1dbb3"></path><path d="M123.07236,157.23349v-13.40505l4.86581,-1.68381l8.90492,0.08971l2.11803,2.34433l1.77362,0.95042l-4.28267,-0.26911l-8.51645,0.06281l-1.17379,4.41254l2.11961,0.97369l8.02517,-1.315l-0.498,-3.94544c0,0 0.20354,-0.99663 0.58064,-0.99362c0.75478,0.006 3.66598,1.02742 3.66598,1.02742l-0.8748,7.55599l-2.54281,-0.46702l1.22476,-1.03198l-0.99857,-0.73815l-2.02333,0.66976l1.74238,1.08552l2.58667,0.38177l-0.49972,4.83218l-3.80202,-0.97699l0.46031,-1.48135l-3.84164,-2.66011l-5.65151,0.29006l-0.12577,2.95284l1.42063,0.73985l7.74392,0.04841l3.78918,1.05053l-3.03621,1.26519l-10.74589,-0.06309z" fill="#fff4ce"></path></g><g stroke="#ffffff" stroke-width="0" stroke-linecap="butt"><path d="M122.21029,177.75576v-11.39572l4.13646,-1.43141l7.57013,0.07626l1.80055,1.99293l1.50776,0.80795l-3.64074,-0.22876l-7.23989,0.05338l-0.99784,3.75113l1.8019,0.82774l6.82225,-1.11789l-0.42334,-3.35404c0,0 0.17302,-0.84725 0.4936,-0.8447c0.64165,0.0051 3.11647,0.87342 3.11647,0.87342l-0.74368,6.42339l-2.16165,-0.39702l1.04118,-0.87729l-0.84889,-0.62751l-1.72004,0.56937l1.48122,0.92281l2.19894,0.32454l-0.42482,4.10788l-3.23211,-0.83055l0.39132,-1.25931l-3.2658,-2.26137l-4.80439,0.24658l-0.10691,2.51023l1.20768,0.62895l6.58315,0.04116l3.2212,0.89306l-2.5811,1.07556l-9.13516,-0.05364z" fill="#f1dbb3"></path><path d="M121.57236,179.48349v-13.40505l4.86581,-1.68381l8.90492,0.08971l2.11803,2.34433l1.77362,0.95041l-4.28267,-0.2691l-8.51645,0.0628l-1.17379,4.41254l2.11961,0.9737l8.02517,-1.315l-0.498,-3.94544c0,0 0.20354,-0.99663 0.58064,-0.99363c0.75478,0.006 3.66598,1.02742 3.66598,1.02742l-0.8748,7.55599l-2.54281,-0.46702l1.22476,-1.03198l-0.99857,-0.73815l-2.02333,0.66976l1.74238,1.08552l2.58667,0.38177l-0.49972,4.83218l-3.80202,-0.97699l0.46031,-1.48135l-3.84164,-2.66011l-5.65151,0.29006l-0.12577,2.95284l1.42063,0.73985l7.74392,0.04841l3.78918,1.05053l-3.03621,1.26519l-10.74589,-0.06309z" fill="#fff4ce"></path></g><g stroke="#ffffff" stroke-width="0" stroke-linecap="butt"><path d="M121.21029,197.75576v-11.39572l4.13645,-1.43141l7.57013,0.07626l1.80055,1.99293l1.50776,0.80795l-3.64074,-0.22876l-7.23989,0.05338l-0.99784,3.75113l1.8019,0.82774l6.82225,-1.11789l-0.42334,-3.35404c0,0 0.17302,-0.84725 0.4936,-0.8447c0.64165,0.0051 3.11647,0.87342 3.11647,0.87342l-0.74368,6.42339l-2.16165,-0.39702l1.04118,-0.87729l-0.84889,-0.62751l-1.72004,0.56937l1.48122,0.92281l2.19894,0.32454l-0.42482,4.10788l-3.23211,-0.83055l0.39132,-1.25931l-3.2658,-2.26137l-4.80439,0.24658l-0.10691,2.51023l1.20768,0.62895l6.58315,0.04116l3.2212,0.89306l-2.5811,1.07556l-9.13516,-0.05364z" fill="#f1dbb3"></path><path d="M120.57237,199.48349v-13.40505l4.86581,-1.68381l8.90492,0.08971l2.11803,2.34433l1.77362,0.95041l-4.28267,-0.2691l-8.51645,0.0628l-1.17379,4.41254l2.11961,0.9737l8.02517,-1.315l-0.498,-3.94544c0,0 0.20354,-0.99663 0.58064,-0.99363c0.75478,0.006 3.66598,1.02742 3.66598,1.02742l-0.8748,7.55599l-2.54281,-0.46702l1.22476,-1.03198l-0.99857,-0.73815l-2.02333,0.66976l1.74238,1.08552l2.58667,0.38177l-0.49972,4.83218l-3.80202,-0.97699l0.46031,-1.48135l-3.84164,-2.66011l-5.65151,0.29006l-0.12577,2.95284l1.42063,0.73985l7.74392,0.04841l3.78918,1.05053l-3.03621,1.26519l-10.74589,-0.06309z" fill="#fff4ce"></path></g><g stroke="#ffffff" stroke-width="0" stroke-linecap="butt"><path d="M121.46029,220.75576v-11.39572l4.13645,-1.43141l7.57013,0.07626l1.80055,1.99293l1.50776,0.80795l-3.64074,-0.22876l-7.23989,0.05338l-0.99784,3.75113l1.8019,0.82774l6.82225,-1.11789l-0.42334,-3.35404c0,0 0.17302,-0.84725 0.4936,-0.8447c0.64165,0.0051 3.11647,0.87342 3.11647,0.87342l-0.74368,6.42339l-2.16165,-0.39702l1.04118,-0.87729l-0.84889,-0.62751l-1.72004,0.56937l1.48122,0.92281l2.19894,0.32454l-0.42482,4.10788l-3.23211,-0.83055l0.39132,-1.25931l-3.2658,-2.26137l-4.80439,0.24658l-0.10691,2.51023l1.20768,0.62895l6.58315,0.04116l3.2212,0.89306l-2.5811,1.07556l-9.13516,-0.05364z" fill="#f1dbb3"></path><path d="M120.82237,222.48349v-13.40505l4.86581,-1.68381l8.90492,0.08971l2.11803,2.34433l1.77362,0.95041l-4.28267,-0.2691l-8.51645,0.0628l-1.17379,4.41254l2.11961,0.9737l8.02517,-1.315l-0.498,-3.94544c0,0 0.20354,-0.99663 0.58064,-0.99363c0.75478,0.006 3.66598,1.02742 3.66598,1.02742l-0.8748,7.55599l-2.54281,-0.46702l1.22476,-1.03198l-0.99857,-0.73815l-2.02333,0.66976l1.74238,1.08552l2.58667,0.38177l-0.49972,4.83218l-3.80202,-0.97699l0.46031,-1.48135l-3.84164,-2.66011l-5.65151,0.29006l-0.12577,2.95284l1.42063,0.73985l7.74392,0.04841l3.78918,1.05053l-3.03621,1.26519l-10.74589,-0.06309z" fill="#fff4ce"></path></g><path d="M123.00011,267.5l-1.25,-8.25c0,0 13.39456,-0.76892 16.10852,-0.46312c0.93729,0.10561 1.64148,2.46312 1.64148,2.46312c0,0 1.75,0.33514 1.75,1.25c0,1.43035 -0.5,4.5 -0.5,4.5z" fill="#ffcfcf" stroke="none" stroke-width="0" stroke-linecap="butt"></path><text transform="translate(145.33347,266.84769) scale(0.23578,0.23578)" font-size="40" xml:space="preserve" fill="#ffcfcf" fill-rule="nonzero" stroke="none" stroke-width="1" stroke-linecap="butt" stroke-linejoin="miter" stroke-miterlimit="10" stroke-dasharray="" stroke-dashoffset="0" font-family="Sans Serif" font-weight="normal" text-anchor="start" style="mix-blend-mode: normal"><tspan x="0" dy="0">Floor 2 is unfinished.</tspan></text><text transform="translate(139.00021,193.88326) scale(0.2332,0.2332)" font-size="40" xml:space="preserve" fill="#fff4ce" fill-rule="nonzero" stroke="none" stroke-width="1" stroke-linecap="butt" stroke-linejoin="miter" stroke-miterlimit="10" stroke-dasharray="" stroke-dashoffset="0" font-family="Monospace" font-weight="normal" text-anchor="start" style="mix-blend-mode: normal"><tspan x="0" dy="0">Celebrate Door's 3rd year anniversary!</tspan></text><text transform="translate(139.66688,175.54993) scale(0.2332,0.2332)" font-size="40" xml:space="preserve" fill="#fff4ce" fill-rule="nonzero" stroke="none" stroke-width="1" stroke-linecap="butt" stroke-linejoin="miter" stroke-miterlimit="10" stroke-dasharray="" stroke-dashoffset="0" font-family="Monospace" font-weight="normal" text-anchor="start" style="mix-blend-mode: normal"><tspan x="0" dy="0">Some visual changes to improve QOL.</tspan></text><path d="M124.00011,284l-1.25,-8.25c0,0 13.39456,-0.76892 16.10852,-0.46312c0.93729,0.10561 1.64148,2.46312 1.64148,2.46312c0,0 1.75,0.33514 1.75,1.25c0,1.43035 -0.5,4.5 -0.5,4.5z" fill="#ffcfcf" stroke="none" stroke-width="0" stroke-linecap="butt"></path><text transform="translate(143.83347,281.34769) scale(0.23578,0.23578)" font-size="40" xml:space="preserve" fill="#ffcfcf" fill-rule="nonzero" stroke="none" stroke-width="1" stroke-linecap="butt" stroke-linejoin="miter" stroke-miterlimit="10" stroke-dasharray="" stroke-dashoffset="0" font-family="Sans Serif" font-weight="normal" text-anchor="start" style="mix-blend-mode: normal"><tspan x="0" dy="0">Floor 2 lacks features and may have bugs.</tspan></text><text transform="translate(141.66688,217.21659) scale(0.2332,0.2332)" font-size="40" xml:space="preserve" fill="#fff4ce" fill-rule="nonzero" stroke="none" stroke-width="1" stroke-linecap="butt" stroke-linejoin="miter" stroke-miterlimit="10" stroke-dasharray="" stroke-dashoffset="0" font-family="Monospace" font-weight="normal" text-anchor="start" style="mix-blend-mode: normal"><tspan x="0" dy="0">Bug fixes.</tspan></text><text transform="translate(326.75,328.22801) scale(0.26355,0.26355)" font-size="40" xml:space="preserve" fill="#fff4ce" fill-rule="nonzero" stroke="none" stroke-width="1" stroke-linecap="butt" stroke-linejoin="miter" stroke-miterlimit="10" stroke-dasharray="" stroke-dashoffset="0" font-family="Monospace" font-weight="normal" text-anchor="start" style="mix-blend-mode: normal"><tspan x="0" dy="0">xAmt8</tspan></text></g></g></svg>