<svg version="1.1" xmlns="http://www.w3.org/2000/svg" xmlns:xlink="http://www.w3.org/1999/xlink" width="92.49858" height="64.58435" viewBox="0,0,92.49858,64.58435"><defs><linearGradient x1="265.31788" y1="155.99261" x2="245.80607" y2="171.31646" gradientUnits="userSpaceOnUse" id="color-1"><stop offset="0" stop-color="#ae5a00"></stop><stop offset="1" stop-color="#ff7a00"></stop></linearGradient></defs><g transform="translate(-189.81321,-147.70783)"><g data-paper-data="{&quot;isPaintingLayer&quot;:true}" fill-rule="nonzero" stroke-width="0.25" stroke-linejoin="miter" stroke-miterlimit="10" stroke-dasharray="" stroke-dashoffset="0" style="mix-blend-mode: normal"><path d="M197.89623,212.16717v-64.33435h84.29056v64.33435z" fill-opacity="0.50832" fill="#66fbff" stroke="#000000" stroke-linecap="butt"></path><path d="M242.50093,167.61891c0,2.19609 -1.62052,3.97638 -3.61953,3.97638c-1.99901,0 -3.61953,-1.78029 -3.61953,-3.97638c0,-2.19609 1.62052,-3.97638 3.61953,-3.97638c1.99901,0 3.61953,1.78029 3.61953,3.97638z" fill="#ffeecf" stroke="#000000" stroke-linecap="butt"></path><path d="M237.42,165.17191c0,0 -0.81567,-0.42665 -0.81567,-0.67972c0,-0.32012 0.81567,-1.08756 0.81567,-1.08756h4.21428c0,0 0.81567,0.774 0.81567,1.08756c0,0.26852 -0.81567,0.67972 -0.81567,0.67972c0,0 -1.18988,0.47581 -1.90323,0.47581c-0.69069,0 -2.31106,-0.47581 -2.31106,-0.47581z" fill="#bb7711" stroke="none" stroke-linecap="butt"></path><path d="M237.82784,166.36142c0,0.35663 -0.45648,0.64574 -1.01958,0.64574c-0.5631,0 -1.01958,-0.2891 -1.01958,-0.64574c0,-0.35663 0.45648,-0.64574 1.01958,-0.64574c0.5631,0 1.01958,0.2891 1.01958,0.64574z" fill="#000000" stroke="none" stroke-linecap="butt"></path><path d="M240.95456,166.25946c0,0.3754 -0.41083,0.67972 -0.91763,0.67972c-0.50679,0 -0.91763,-0.30432 -0.91763,-0.67972c0,-0.3754 0.41083,-0.67972 0.91763,-0.67972c0.50679,0 0.91763,0.30432 0.91763,0.67972z" fill="#000000" stroke="none" stroke-linecap="butt"></path><path d="M239.74466,166.409h-2.07995" fill="none" stroke="#000000" stroke-linecap="round"></path><path d="M240.72346,165.96038l0.28548,-0.53018" fill="none" stroke="#000000" stroke-linecap="round"></path><path d="M234.85065,165.79725l1.01958,0.61175" fill="none" stroke="#000000" stroke-linecap="round"></path><path d="M235.89756,186.73332c-0.30538,-3.75534 -0.83248,-10.23707 -1.00667,-12.37915c-0.11009,-1.35382 0.02759,-2.94421 0.32218,-2.96816c0.90653,-0.07372 5.62518,-0.45744 7.28055,-0.59206c0.35961,-0.02924 0.66312,1.04125 0.7939,2.64946c0.30816,3.78951 0.85122,10.46751 1.02509,12.6056c0.1054,1.29614 0.00442,2.78964 -0.36406,2.8196c-1.66455,0.13536 -6.33919,0.5155 -7.25095,0.58965c-0.30148,0.02452 -0.66598,-1.07641 -0.80004,-2.72494z" fill="#0052ff" stroke="#d6ffcf" stroke-linecap="butt"></path><path d="M239.11773,189.43972c0,0 -0.59144,-12.54198 -0.95253,-15.47558c-0.14272,-1.15947 -1.25818,-2.48497 -1.25818,-2.48497l4.0539,-0.46606c0,0 -1.16706,2.06741 -1.1398,2.90141c0.08654,2.64799 1.73557,15.32686 1.73557,15.32686z" fill="#ffffff" stroke="none" stroke-linecap="butt"></path><path d="M235.65272,198.88618v-10.26382h2.31106v10.26382z" fill="#d69100" stroke="none" stroke-linecap="butt"></path><path d="M240.95456,199.15807v-10.46774h1.90323v10.46774z" fill="#d69100" stroke="none" stroke-linecap="butt"></path><path d="M234.02139,200.3136v-2.71889c0,0 0.7529,0.26811 1.41805,-0.02152c0.73614,-0.32055 1.41065,-1.20198 1.84462,-1.20198c0.50588,0 1.2235,1.2235 1.2235,1.2235v2.71889z" fill="#7c5500" stroke="none" stroke-linecap="butt"></path><path d="M238.09972,197.59471l-1.2235,-1.15553" fill="none" stroke="#000000" stroke-linecap="round"></path><path d="M236.40042,197.18687l1.08756,1.08756" fill="none" stroke="#000000" stroke-linecap="round"></path><path d="M240.75065,200.24563v-2.71889c0,0 0.71762,-1.2235 1.2235,-1.2235c0.43398,0 1.10848,0.88143 1.84462,1.20198c0.66515,0.28963 1.41805,0.02152 1.41805,0.02152v2.71889z" data-paper-data="{&quot;index&quot;:null}" fill="#7c5500" stroke="none" stroke-linecap="butt"></path><path d="M241.15848,197.52673l1.2235,-1.15553" data-paper-data="{&quot;index&quot;:null}" fill="none" stroke="#000000" stroke-linecap="round"></path><path d="M242.85779,197.1189l-1.08756,1.08756" data-paper-data="{&quot;index&quot;:null}" fill="none" stroke="#000000" stroke-linecap="round"></path><path d="M247.62633,168.4256l-3.99505,9.01l-1.73986,-0.77146l3.99505,-9.01z" fill="#ffeecf" stroke="none" stroke-linecap="butt"></path><path d="M233.95049,184.81722l-2.81043,-9.35489l3.61797,-1.3361l2.81043,9.35489z" fill="#ffeecf" stroke="none" stroke-linecap="butt"></path><path d="M245.57516,171.02245l19.51181,-15.32385l0.46182,0.58803l-19.51181,15.32385z" fill="url(#color-1)" stroke="none" stroke-linecap="butt"></path><path d="M269.21557,156.95719l-1.03405,-0.18124c0,0 1.27058,-0.78817 1.34789,-1.22925c0.07354,-0.41955 -0.89478,-1.35588 -0.89478,-1.35588l1.03405,0.18124c0,0 1.01705,1.03835 0.93675,1.49646c-0.06903,0.39385 -1.38986,1.08866 -1.38986,1.08866z" fill="#703a00" stroke="none" stroke-linecap="butt"></path><path d="M189.89074,170.12193c0.04282,0 0.07753,0.05207 0.07753,0.1163c0,0.06423 -0.03471,0.11629 -0.07753,0.11629c-0.04282,0 -0.07753,-0.05207 -0.07753,-0.11629c0,-0.06423 0.03471,-0.1163 0.07753,-0.1163z" fill="#f3e3c5" stroke="none" stroke-linecap="butt"></path><g><path d="M230.62221,176.30166l-0.22506,-1.33454c0,0 2.08959,-2.74882 2.89041,-2.88388c0.88534,-0.14931 2.19354,2.02648 2.19354,2.02648l0.22506,1.33454z" fill="#f3e3c5" stroke="none" stroke-linecap="butt"></path><path d="M230.54118,175.46939l-1.0247,-3.07434c0,0 0.13737,-0.70943 0.33003,-0.76266c0.22637,-0.06254 0.94344,0.41085 0.94344,0.41085l1.0247,3.07434z" fill="#f3e3c5" stroke="none" stroke-linecap="butt"></path><path d="M229.69717,172.53754l-0.06998,-0.41494c0,0 0.16507,-0.2175 0.29163,-0.23885c0.13424,-0.02264 0.49215,0.10666 0.49215,0.10666l0.06998,0.41494z" fill="#f2c4f2" stroke="none" stroke-linecap="butt"></path><g><path d="M231.50771,174.62849l-0.69516,-2.41402c0,0 0.29713,-0.29576 0.43163,-0.33449c0.14864,-0.0428 0.42203,0.08867 0.42203,0.08867l0.69516,2.41402c0,0 -0.13142,0.36815 -0.25766,0.40451c-0.1531,0.04409 -0.596,-0.15868 -0.596,-0.15868z" fill="#ecd2a1" stroke="none" stroke-linecap="butt"></path><path d="M231.44712,172.04128l-0.43351,0.12484" fill="none" stroke="#000000" stroke-linecap="round"></path><path d="M231.79835,173.4162l-0.20411,0.22278l-0.17842,-0.07618" fill="none" stroke="#000000" stroke-linecap="round"></path><path d="M232.12504,174.25177l0.06137,0.21312c0,0 -0.17864,0.15402 -0.26322,0.17838c-0.07975,0.02296 -0.23063,-0.03616 -0.23063,-0.03616l-0.06137,-0.21312z" data-paper-data="{&quot;index&quot;:null}" fill="#f2c4f2" stroke="none" stroke-linecap="butt"></path></g><g><path d="M232.42405,174.60828l-0.8528,-2.96143c0,0 0.28446,-0.33978 0.41896,-0.37851c0.14864,-0.0428 0.43471,0.13268 0.43471,0.13268l0.8528,2.96143c0,0 -0.1115,0.43732 -0.23774,0.47367c-0.1531,0.04409 -0.61592,-0.22785 -0.61592,-0.22785z" fill="#ecd2a1" stroke="none" stroke-linecap="butt"></path><path d="M231.77289,171.6005l0.43351,-0.12484" fill="none" stroke="#000000" stroke-linecap="round"></path><path d="M232.64662,173.15966l-0.19422,0.25713l-0.18612,-0.10289" fill="none" stroke="#000000" stroke-linecap="round"></path><path d="M233.02938,174.18989l0.07529,0.26145c0,0 -0.17245,0.1755 -0.25704,0.19986c-0.07975,0.02296 -0.23681,-0.05764 -0.23681,-0.05764l-0.07529,-0.26145z" data-paper-data="{&quot;index&quot;:null}" fill="#f2c4f2" stroke="none" stroke-linecap="butt"></path></g><g><path d="M233.29339,174.65778l-0.8922,-3.09829c0,0 0.28129,-0.35078 0.41579,-0.38951c0.14864,-0.0428 0.43788,0.14369 0.43788,0.14369l0.8922,3.09829c0,0 -0.10652,0.45461 -0.23276,0.49096c-0.1531,0.04409 -0.6209,-0.24514 -0.6209,-0.24514z" fill="#ecd2a1" stroke="none" stroke-linecap="butt"></path><path d="M232.60296,171.51364l0.43351,-0.12484" fill="none" stroke="#000000" stroke-linecap="round"></path><path d="M233.49895,173.15008l-0.19175,0.26571l-0.18804,-0.10957" fill="none" stroke="#000000" stroke-linecap="round"></path><path d="M233.89572,174.22897l0.07877,0.27353c0,0 -0.17091,0.18087 -0.25549,0.20523c-0.07975,0.02296 -0.23836,-0.06301 -0.23836,-0.06301l-0.07877,-0.27353z" data-paper-data="{&quot;index&quot;:null}" fill="#f2c4f2" stroke="none" stroke-linecap="butt"></path></g><g><path d="M233.9954,173.99037l-0.69516,-2.41402c0,0 0.29713,-0.29576 0.43163,-0.33449c0.14864,-0.0428 0.42203,0.08867 0.42203,0.08867l0.69516,2.41402c0,0 -0.13142,0.36815 -0.25766,0.40451c-0.1531,0.04409 -0.596,-0.15868 -0.596,-0.15868z" fill="#ecd2a1" stroke="none" stroke-linecap="butt"></path><path d="M233.5013,171.52799l0.43351,-0.12484" fill="none" stroke="#000000" stroke-linecap="round"></path><path d="M234.28604,172.77807l-0.20411,0.22278l-0.17842,-0.07618" fill="none" stroke="#000000" stroke-linecap="round"></path><path d="M234.61273,173.61364l0.06137,0.21312c0,0 -0.17864,0.15402 -0.26322,0.17838c-0.07975,0.02296 -0.23063,-0.03616 -0.23063,-0.03616l-0.06137,-0.21312z" data-paper-data="{&quot;index&quot;:null}" fill="#f2c4f2" stroke="none" stroke-linecap="butt"></path></g><path d="M234.87487,173.88363l-0.65205,-1.72158l-0.06562,-0.61605l1.1931,2.08783z" fill="#fee1ac" stroke="none" stroke-linecap="butt"></path></g></g></g></svg>