<svg version="1.1" xmlns="http://www.w3.org/2000/svg" xmlns:xlink="http://www.w3.org/1999/xlink" width="23.16864" height="51.5009" viewBox="0,0,23.16864,51.5009"><g transform="translate(-201.76019,-160.10141)"><g data-paper-data="{&quot;isPaintingLayer&quot;:true}" fill-rule="nonzero" stroke-linejoin="miter" stroke-miterlimit="10" stroke-dasharray="" stroke-dashoffset="0" style="mix-blend-mode: normal"><path d="M214.96817,177.86158c0.10195,0 3.47495,-0.38279 3.54851,0.43876c0.09737,1.08758 -4.65016,7.78161 -4.65016,9.64976c0,2.49639 0,4.05097 0,6.54736c0,3.27936 -0.19182,5.93461 -0.42873,5.93461c-1.65181,0 -6.1777,0 -7.82951,0c-0.23691,0 -0.42956,-2.65526 -0.42956,-5.93461c0,-2.49639 0,-4.05097 0,-6.54736c0,-3.27936 7.1887,-14.67968 7.42562,-14.67968c1.65181,0 0.71202,4.59116 2.36384,4.59116z" fill="#b98585" stroke="none" stroke-width="1" stroke-linecap="butt"></path><path d="M220.39725,175.34796c-0.99197,2.55077 -3.90954,3.7967 -6.51659,2.78285c-2.60705,-1.01385 -3.91632,-3.90355 -2.92435,-6.45433c0.99197,-2.55077 3.90954,-3.7967 6.51659,-2.78285c2.60705,1.01385 3.91632,3.90355 2.92435,6.45433z" fill="#fffad7" stroke="none" stroke-width="0" stroke-linecap="butt"></path><path d="M218.72775,173.16004c0.0547,-0.14067 0.21308,-0.21036 0.35375,-0.15565c0.14067,0.0547 0.21036,0.21308 0.15565,0.35375c-0.0547,0.14067 -0.21308,0.21036 -0.35375,0.15565c-0.14067,-0.0547 -0.21036,-0.21308 -0.15565,-0.35375z" fill="#000000" stroke="none" stroke-width="0.5" stroke-linecap="butt"></path><path d="M204.68016,172.00083l3.81042,11.22413l-2.8702,0.34844l-3.81042,-11.22413z" fill="#fffad7" stroke="none" stroke-width="0" stroke-linecap="butt"></path><path d="M219.90768,179.69514l-4.58684,10.92984l-2.38003,-1.64162l4.58684,-10.92984z" fill="#fffad7" stroke="none" stroke-width="0" stroke-linecap="butt"></path><path d="M203.27705,209.96717l3.43349,-10.45486l2.76949,0.90953l-3.43349,10.45486z" fill="#5cff08" stroke="none" stroke-width="0" stroke-linecap="butt"></path><path d="M216.76483,209.80771l-6.89855,-9.03632l2.20115,-1.68041l6.89855,9.03632z" fill="#5cff08" stroke="none" stroke-width="0" stroke-linecap="butt"></path><g><path d="M211.39673,169.87318c0,0 -0.78564,-0.70755 -0.7672,-1.06682c0.01252,-0.24408 0.86713,-0.8802 0.86713,-0.8802l9.37645,0.48123c0,0 0.73374,0.71798 0.7186,1.01296c-0.01776,0.34589 -0.81853,0.93407 -0.81853,0.93407z" fill="#000000" stroke="none" stroke-width="0" stroke-linecap="butt"></path><path d="M214.90997,165.48134l0.27612,-5.37993l1.74207,0.08941l-0.27612,5.37993z" fill="#00d95b" stroke="none" stroke-width="0" stroke-linecap="butt"></path><path d="M219.14827,166.54913l-1.06199,-1.03571c0,0 2.64573,-1.80699 3.83268,-2.20687c0.9778,-0.32942 3.00987,1.58188 3.00987,1.58188l-0.34645,2.45322c0,0 -0.89608,0.12474 -1.08243,-0.0834c-0.57205,-0.63892 -0.56229,-2.90227 -1.46684,-2.49848c-1.05234,0.46976 -2.88485,1.78936 -2.88485,1.78936z" fill="#d90000" stroke="none" stroke-width="0" stroke-linecap="butt"></path><path d="M224.66209,167.65145c-0.02251,0.43862 -0.4078,0.77534 -0.86056,0.75211c-0.45276,-0.02324 -0.80155,-0.39764 -0.77904,-0.83625c0.02251,-0.43862 0.4078,-0.77534 0.86056,-0.75211c0.45276,0.02324 0.80155,0.39764 0.77904,0.83625z" fill="#ffc500" stroke="none" stroke-width="0" stroke-linecap="butt"></path><path d="M224.27319,168.22228l-0.86705,-1.12332" fill="none" stroke="#000000" stroke-width="0.5" stroke-linecap="round"></path><path d="M224.43615,167.04907l-1.16667,0.71071" fill="none" stroke="#000000" stroke-width="0.5" stroke-linecap="round"></path><path d="M210.43691,163.90775c-0.85846,-0.49427 -1.08046,1.75819 -1.71492,2.33518c-0.20669,0.18797 -1.08529,-0.02785 -1.08529,-0.02785l-0.09347,-2.47581c0,0 2.21707,-1.69322 3.15601,-1.26543c1.13978,0.5193 3.58662,2.58765 3.58662,2.58765l-1.16244,0.92155c0,0 -1.68779,-1.50027 -2.6865,-2.0753z" data-paper-data="{&quot;index&quot;:null}" fill="#0048d9" stroke="none" stroke-width="0" stroke-linecap="butt"></path><path d="M208.38626,165.76299c0.45276,0.02324 0.80155,0.39764 0.77904,0.83625c-0.02251,0.43862 -0.4078,0.77535 -0.86056,0.75211c-0.45276,-0.02324 -0.80155,-0.39764 -0.77904,-0.83626c0.02251,-0.43862 0.4078,-0.77534 0.86056,-0.7521z" data-paper-data="{&quot;index&quot;:null}" fill="#ffc500" stroke="none" stroke-width="0" stroke-linecap="butt"></path><path d="M207.85412,167.12274l0.9775,-1.02865" data-paper-data="{&quot;index&quot;:null}" fill="none" stroke="#000000" stroke-width="0.5" stroke-linecap="round"></path><path d="M208.89991,166.76543l-1.08778,-0.82641" data-paper-data="{&quot;index&quot;:null}" fill="none" stroke="#000000" stroke-width="0.5" stroke-linecap="round"></path><path d="M215.37517,162.42287l-0.19435,-2.21899l1.74733,-0.01307l-0.57947,2.28202z" fill="#00964e" stroke="none" stroke-width="0" stroke-linecap="butt"></path><path d="M216.80588,162.57336c-0.02251,0.43862 -0.4078,0.77535 -0.86056,0.75211c-0.45276,-0.02324 -0.80155,-0.39764 -0.77904,-0.83626c0.02251,-0.43862 0.4078,-0.77534 0.86056,-0.7521c0.45276,0.02324 0.80155,0.39764 0.77904,0.83625z" fill="#ffc500" stroke="none" stroke-width="0" stroke-linecap="butt"></path><path d="M215.54993,162.02086l0.86705,1.12332" fill="none" stroke="#000000" stroke-width="0.5" stroke-linecap="round"></path><path d="M215.41326,162.68169l1.16667,-0.71071" fill="none" stroke="#000000" stroke-width="0.5" stroke-linecap="round"></path><path d="M211.44279,167.97476l0.14463,-2.81806c0,0 3.14295,-0.7634 4.70994,-0.68297c1.55845,0.07998 4.66651,1.1642 4.66651,1.1642l-0.14463,2.81806z" fill="#dadada" stroke="none" stroke-width="0" stroke-linecap="butt"></path><path d="M211.41522,167.511l4.62596,-3.05041l4.63487,3.78257" fill="none" stroke="#4a00f3" stroke-width="0.25" stroke-linecap="round"></path></g><path d="M207.39161,200.26541l0.16489,-14.67534l4.36962,-8.6568" fill="none" stroke="#000000" stroke-width="0.25" stroke-linecap="round"></path><path d="M212.00857,200.26541l0.32978,-14.18066l3.87495,-7.50256" fill="none" stroke="#000000" stroke-width="0.25" stroke-linecap="round"></path><path d="M201.91795,210.15832l0.56594,-1.72326c0,0 0.80362,0.54904 1.49311,0.38815c0.61981,-0.14464 1.11172,-1.00791 1.45075,-0.89657c0.53712,0.17639 0.97263,1.79465 0.97263,1.79465l-0.56594,1.72326z" fill="#bd654c" stroke="#000000" stroke-width="0.25" stroke-linecap="butt"></path><path d="M216.94257,210.09249l-1.10063,-1.4417c0,0 -0.12027,-1.6715 0.32909,-2.01455c0.28363,-0.21653 1.03185,0.43723 1.66478,0.37023c0.70407,-0.07454 1.28273,-0.8571 1.28273,-0.8571l1.10063,1.4417z" data-paper-data="{&quot;index&quot;:null}" fill="#bd654c" stroke="#000000" stroke-width="0.25" stroke-linecap="butt"></path><path d="M216.90634,166.94096c0,0.26706 -0.38488,0.48356 -0.85965,0.48356c-0.47478,0 -0.85965,-0.2165 -0.85965,-0.48356c0,-0.26706 0.38488,-0.48356 0.85965,-0.48356c0.47478,0 0.85965,0.2165 0.85965,0.48356z" fill="#ec00ff" stroke="none" stroke-width="0" stroke-linecap="butt"></path><path d="M216.90001,175.3c0,0.7732 -0.53726,1.4 -1.2,1.4c-0.66274,0 -1.2,-0.6268 -1.2,-1.4c0,-0.7732 0.53726,-1.4 1.2,-1.4c0.66274,0 1.2,0.6268 1.2,1.4z" fill="none" stroke="#000000" stroke-width="0.5" stroke-linecap="butt"></path></g></g></svg>