<svg version="1.1" xmlns="http://www.w3.org/2000/svg" xmlns:xlink="http://www.w3.org/1999/xlink" width="76.27442" height="57.75247" viewBox="0,0,76.27442,57.75247"><defs><radialGradient cx="240" cy="180.00001" r="4.19064" gradientUnits="userSpaceOnUse" id="color-1"><stop offset="0" stop-color="#000000" stop-opacity="0.06452"></stop><stop offset="1" stop-color="#000000"></stop></radialGradient><radialGradient cx="240" cy="180" r="6.2381" gradientUnits="userSpaceOnUse" id="color-2"><stop offset="0" stop-color="#000000" stop-opacity="0.25"></stop><stop offset="1" stop-color="#000000"></stop></radialGradient></defs><g transform="translate(-201.86279,-151.12376)"><g data-paper-data="{&quot;isPaintingLayer&quot;:true}" fill-rule="nonzero" stroke-linecap="butt" stroke-linejoin="miter" stroke-miterlimit="10" stroke-dasharray="" stroke-dashoffset="0" style="mix-blend-mode: normal"><path d="M235.80936,180.00001c0,-2.24577 1.87621,-4.06632 4.19064,-4.06632c2.31443,0 4.19064,1.82056 4.19064,4.06632c0,2.24577 -1.87621,4.06631 -4.19064,4.06631c-2.31443,0 -4.19064,-1.82056 -4.19064,-4.06631zM239.8591,181.15754c0.64082,0 1.1603,-0.51948 1.1603,-1.1603c0,-0.64082 -0.51948,-1.1603 -1.1603,-1.1603c-0.64082,0 -1.1603,0.51948 -1.1603,1.1603c0,0.64082 0.51948,1.1603 1.1603,1.1603z" fill="url(#color-1)" stroke="none" stroke-width="0"></path><path d="M201.86279,208.87623v-57.75247h76.27442v57.75247zM240.26786,185.14286c2.76143,0 5,-2.23857 5,-5c0,-2.76143 -2.23857,-5 -5,-5c-2.76143,0 -5,2.23857 -5,5c0,2.76143 2.23857,5 5,5z" fill="#000000" stroke="none" stroke-width="NaN"></path><path d="" fill="#ffffff" stroke="none" stroke-width="0"></path><path d="M246.2381,180c0,3.39261 -2.79289,6.14286 -6.2381,6.14286c-3.4452,0 -6.2381,-2.75025 -6.2381,-6.14286c0,-3.39261 2.79289,-6.14286 6.2381,-6.14286c3.4452,0 6.2381,2.75025 6.2381,6.14286z" fill="url(#color-2)" stroke="#000000" stroke-width="7"></path></g></g></svg>