<svg version="1.1" xmlns="http://www.w3.org/2000/svg" xmlns:xlink="http://www.w3.org/1999/xlink" width="23.66733" height="24.27586" viewBox="0,0,23.66733,24.27586"><defs><linearGradient x1="239.40156" y1="173.33236" x2="245.14916" y2="175.39071" gradientUnits="userSpaceOnUse" id="color-1"><stop offset="0" stop-color="#4a4a4a"></stop><stop offset="1" stop-color="#dcdcdc"></stop></linearGradient><linearGradient x1="240.63574" y1="179.39928" x2="243.4012" y2="189.1453" gradientUnits="userSpaceOnUse" id="color-2"><stop offset="0" stop-color="#ffe7a2"></stop><stop offset="1" stop-color="#bfae7a"></stop></linearGradient><linearGradient x1="238.19231" y1="172.39159" x2="239.30355" y2="176.3078" gradientUnits="userSpaceOnUse" id="color-3"><stop offset="0" stop-color="#e2e2e2"></stop><stop offset="1" stop-color="#8c8c8c"></stop></linearGradient></defs><g transform="translate(-228.41633,-167.8113)"><g data-paper-data="{&quot;isPaintingLayer&quot;:true}" fill-rule="nonzero" stroke-linejoin="miter" stroke-miterlimit="10" stroke-dasharray="" stroke-dashoffset="0" style="mix-blend-mode: normal"><path d="M231.1187,188.25093c0,-4.18152 0,-11.39886 0,-13.78403c0,-1.50746 0.63722,-3.25432 1.3449,-3.25432c2.17771,0 13.51302,0 17.48961,0c0.86386,0 1.38045,1.21145 1.38045,3.00217c0,4.21957 0,11.65544 0,14.03618c0,1.44324 -0.53083,3.08622 -1.416,3.08622c-3.99866,0 -15.22824,0 -17.41851,0c-0.72423,0 -1.38045,-1.25061 -1.38045,-3.08622z" fill-opacity="0.62097" fill="#291800" stroke="#d6cdad" stroke-width="1.5" stroke-linecap="butt"></path><path d="M229.51407,173.66014c0,-0.97884 0,-2.66832 0,-3.22666c0,-0.35288 0.14917,-0.7618 0.31482,-0.7618c0.50978,0 3.16322,0 4.09409,0c0.20222,0 0.32315,0.28359 0.32315,0.70277c0,0.98775 0,2.72838 0,3.28568c0,0.33784 -0.12426,0.72244 -0.33147,0.72244c-0.93604,0 -3.56473,0 -4.07745,0c-0.16953,0 -0.32315,-0.29275 -0.32315,-0.72244z" fill-opacity="0.47425" fill="#000000" stroke="#fff4ce" stroke-width="0" stroke-linecap="butt"></path><path d="M228.66634,172.75187c0,-0.97884 0,-2.66832 0,-3.22666c0,-0.35287 0.14917,-0.76179 0.31482,-0.76179c0.50977,0 3.16322,0 4.09409,0c0.20222,0 0.32315,0.28359 0.32315,0.70277c0,0.98775 0,2.72838 0,3.28568c0,0.33784 -0.12426,0.72244 -0.33147,0.72244c-0.93604,0 -3.56473,0 -4.07745,0c-0.16953,0 -0.32315,-0.29275 -0.32315,-0.72244z" fill-opacity="0.88705" fill="#291800" stroke="#fff4ce" stroke-width="0.5" stroke-linecap="butt"></path><text transform="translate(229.93381,172.74985) scale(0.11353,0.11353)" font-size="40" xml:space="preserve" fill="#fff4ce" fill-rule="nonzero" stroke="none" stroke-width="1" stroke-linecap="butt" stroke-linejoin="miter" stroke-miterlimit="10" stroke-dasharray="" stroke-dashoffset="0" font-family="Sans Serif" font-weight="normal" text-anchor="start" style="mix-blend-mode: normal"><tspan x="0" dy="0">0</tspan></text><text transform="translate(237.8066,177.95428) rotate(-15.84199) scale(0.03361,0.03361)" font-size="40" xml:space="preserve" fill="#000000" fill-rule="nonzero" stroke="none" stroke-width="1" stroke-linecap="butt" stroke-linejoin="miter" stroke-miterlimit="10" stroke-dasharray="" stroke-dashoffset="0" font-family="Serif" font-weight="normal" text-anchor="start" style="mix-blend-mode: normal"><tspan x="0" dy="0">xAmt8</tspan></text><path d="M239.06417,174.27447c0.20224,-0.56471 0.5513,-1.53941 0.66666,-1.86152c0.07291,-0.20358 0.33857,-0.37461 0.53978,-0.30255c0.61918,0.22174 3.84208,1.37594 4.97271,1.78085c0.24562,0.08796 0.3339,0.30417 0.2473,0.546c-0.20407,0.56985 -0.56371,1.57406 -0.67885,1.89557c-0.0698,0.19491 -0.30019,0.36274 -0.55186,0.27261c-1.13691,-0.40716 -4.32975,-1.55059 -4.9525,-1.77361c-0.20592,-0.07374 -0.33201,-0.30946 -0.24323,-0.55735z" fill="url(#color-1)" stroke="#fff4ce" stroke-width="0" stroke-linecap="butt"></path><path d="M239.70053,180.40259l-0.5449,-0.55155l0.7189,-0.20399l0.24108,0.84961z" fill="#fde5a1" stroke="none" stroke-width="0" stroke-linecap="butt"></path><path d="M236.86409,175.974c0,0 1.00668,-1.81522 1.71293,-1.9961c0.7795,-0.19963 2.76601,0.84902 2.76601,0.84902l0.52028,2.51244c-0.22313,0.31899 -0.38162,0.67091 -0.47054,1.03461l-3.26041,0.83501c-0.01489,-0.02378 -0.0302,-0.04741 -0.04593,-0.07087c-0.19573,-0.29195 -0.43988,-0.53354 -0.71667,-0.72224z" fill="#ffe7a2" stroke="#c2927c" stroke-width="0.5" stroke-linecap="butt"></path><path d="M237.43187,176.51116l-0.15657,-0.5514c0,0 0.79186,-1.43095 1.3724,-1.59579c0.60686,-0.17232 2.19333,0.58329 2.19333,0.58329l0.15657,0.5514z" fill="#000000" stroke="none" stroke-width="0" stroke-linecap="butt"></path><path d="M238.3215,180.04712l-0.17733,-0.62496l3.34534,-0.94925l0.17733,0.62496z" fill="#ffe7a2" stroke="#dfa88e" stroke-width="0.2" stroke-linecap="butt"></path><path d="M242.3882,189.43274l-2.76546,-9.74602l2.026,-0.57488l2.47353,8.71719c-0.15416,0.34512 -0.2817,0.71279 -0.38157,1.0884c-0.0231,0.04942 -0.04515,0.09954 -0.06615,0.15031z" fill="url(#color-2)" stroke="none" stroke-width="0" stroke-linecap="butt"></path><path d="M242.5695,188.21611l-2.1673,-8.74174" fill="none" stroke="#dfa88e" stroke-width="0.2" stroke-linecap="round"></path><path d="M241.09586,179.31286l2.22465,8.65485" fill="none" stroke="#dfa88e" stroke-width="0.2" stroke-linecap="round"></path><path d="M240.97579,186.9438l0.08,0.03305l0.33146,-1.32055l0.55634,1.96064z" fill="#cab781" stroke="none" stroke-width="0" stroke-linecap="butt"></path><path d="M240.55368,185.58063l0.08,0.03305l0.33146,-1.32055l0.55634,1.96064z" fill="#d4c187" stroke="none" stroke-width="0" stroke-linecap="butt"></path><path d="M240.1042,183.87213l0.08,0.03305l0.33146,-1.32055l0.55634,1.96064z" fill="#e0cb8e" stroke="none" stroke-width="0" stroke-linecap="butt"></path><path d="M239.58009,182.1495l0.08,0.03305l0.33146,-1.32055l0.55634,1.96064z" fill="#f5de9b" stroke="none" stroke-width="0" stroke-linecap="butt"></path><path d="M237.96204,175.296c-0.04098,-0.05338 -0.08108,-0.10876 -0.12015,-0.16607c-0.64655,-0.94847 -0.76502,-2.06669 -0.26463,-2.4976c0.50039,-0.43091 1.43017,-0.01134 2.07672,0.93713c0.25108,0.36833 0.42252,0.76226 0.50901,1.13159" fill="none" stroke="url(#color-3)" stroke-width="1.25" stroke-linecap="butt"></path><text transform="translate(240.73388,174.5622) rotate(19.12483) scale(0.0631,0.0631)" font-size="40" xml:space="preserve" fill="#ffffff" fill-rule="nonzero" stroke="none" stroke-width="1" stroke-linecap="butt" stroke-linejoin="miter" stroke-miterlimit="10" stroke-dasharray="" stroke-dashoffset="0" font-family="Serif" font-weight="normal" text-anchor="start" style="mix-blend-mode: normal"><tspan x="0" dy="0">088</tspan></text><path d="M241.40187,188.69424l0.08,0.03305l0.33146,-1.32055l0.55634,1.96064z" fill="#c0ae7a" stroke="none" stroke-width="0" stroke-linecap="butt"></path></g></g></svg>