<svg version="1.1" xmlns="http://www.w3.org/2000/svg" xmlns:xlink="http://www.w3.org/1999/xlink" width="45.25784" height="76.88374" viewBox="0,0,45.25784,76.88374"><defs><linearGradient x1="239.4544" y1="147.48052" x2="239.4544" y2="150.85878" gradientUnits="userSpaceOnUse" id="color-1"><stop offset="0" stop-color="#ad5400"></stop><stop offset="1" stop-color="#d07b00"></stop></linearGradient><linearGradient x1="239.9871" y1="195.52869" x2="239.9871" y2="208.18302" gradientUnits="userSpaceOnUse" id="color-2"><stop offset="0" stop-color="#8e6c39"></stop><stop offset="1" stop-color="#cc9752"></stop></linearGradient><linearGradient x1="251.85458" y1="182.88444" x2="268.46036" y2="179.61746" gradientUnits="userSpaceOnUse" id="color-3"><stop offset="0" stop-color="#000000"></stop><stop offset="1" stop-color="#777777"></stop></linearGradient><linearGradient x1="251.51531" y1="180.99713" x2="268.12109" y2="177.73015" gradientUnits="userSpaceOnUse" id="color-4"><stop offset="0" stop-color="#000000"></stop><stop offset="1" stop-color="#777777"></stop></linearGradient><linearGradient x1="239.22533" y1="205.95994" x2="239.22533" y2="217.70711" gradientUnits="userSpaceOnUse" id="color-5"><stop offset="0" stop-color="#51c9c9" stop-opacity="0"></stop><stop offset="1" stop-color="#51c9c9"></stop></linearGradient></defs><g transform="translate(-223.81383,-140.82337)"><g data-paper-data="{&quot;isPaintingLayer&quot;:true}" fill-rule="nonzero" stroke-linejoin="miter" stroke-miterlimit="10" stroke-dasharray="" stroke-dashoffset="0" style="mix-blend-mode: normal"><g><path d="M247.98562,158.26851c0,4.60952 -3.6033,8.34628 -8.0482,8.34628c-4.4449,0 -8.0482,-3.73676 -8.0482,-8.34628c0,-4.60952 3.6033,-8.34628 8.0482,-8.34628c4.4449,0 8.0482,3.73676 8.0482,8.34628z" fill="#fff3c0" stroke="#000000" stroke-width="0" stroke-linecap="butt"></path><path d="M235.98784,156.25646c0,-0.16462 0.13346,-0.29808 0.29808,-0.29808c0.16462,0 0.29808,0.13346 0.29808,0.29808c0,0.16462 -0.13346,0.29808 -0.29808,0.29808c-0.16462,0 -0.29808,-0.13346 -0.29808,-0.29808z" fill="#000000" stroke="none" stroke-width="0.5" stroke-linecap="butt"></path><path d="M242.69467,156.55454c0,-0.16462 0.13346,-0.29808 0.29808,-0.29808c0.16462,0 0.29808,0.13346 0.29808,0.29808c0,0.16462 -0.13346,0.29808 -0.29808,0.29808c-0.16462,0 -0.29808,-0.13346 -0.29808,-0.29808z" fill="#000000" stroke="none" stroke-width="0.5" stroke-linecap="butt"></path><path d="M232.70895,195.75225v-31.00047h14.45695v31.00047z" fill="#267520" stroke="none" stroke-width="0" stroke-linecap="butt"></path><path d="M235.52966,161.49035l1.98721,0.69552" fill="none" stroke="#000000" stroke-width="1" stroke-linecap="round"></path><path d="M234.33733,152.44854l2.48401,-2.18593c0,0 2.23612,-0.4968 3.2789,-0.4968c1.07588,0 3.08017,0.4968 3.08017,0.4968l2.78209,2.58337z" fill="#000000" stroke="none" stroke-width="0" stroke-linecap="butt"></path><path d="M246.35995,149.16965c0,0.93288 -3.09172,1.68913 -6.90555,1.68913c-3.81383,0 -6.90555,-0.75625 -6.90555,-1.68913c0,-0.93288 3.09172,-1.68913 6.90555,-1.68913c3.81383,0 6.90555,0.75625 6.90555,1.68913z" fill="url(#color-1)" stroke="none" stroke-width="0" stroke-linecap="butt"></path><path d="M233.64181,148.67285v-5.46483c0,0 1.86521,-0.71931 3.64852,-0.48437c0.81771,0.10773 1.51884,-1.90028 2.11439,-1.90028c0.72254,0 2.08408,2.27849 3.01667,2.14377c1.61932,-0.23393 2.8456,0.24089 2.8456,0.24089v5.46483z" fill="#ad5400" stroke="none" stroke-width="0" stroke-linecap="butt"></path><path d="M247.28802,193.61431c0,0 -0.6802,-0.32494 -0.97373,-0.73416c-1.49735,-2.0875 -14.00145,-19.84942 -14.00145,-19.84942l0.7211,-4.94869l14.08094,17.75181z" fill="#bd8a33" stroke="none" stroke-width="0" stroke-linecap="butt"></path><path d="M240.01194,170.04272l-4.0241,-5.51451h7.60108z" fill="#ffffff" stroke="none" stroke-width="0" stroke-linecap="butt"></path><path d="M243.22618,171.28772l-1.20219,-0.72132l1.20219,-0.62514l0.96175,-1.68307l1.25028,1.68307l1.25028,0.57705l-1.25028,0.7694l0.65798,1.43141c0,0 -0.99073,-0.91129 -1.6475,-0.98231c-0.57695,-0.06239 -1.2706,0.94544 -1.2706,0.94544z" fill="#ffd300" stroke="none" stroke-width="0" stroke-linecap="butt"></path><path d="M232.93251,216.74215v-10.13477h4.17314v10.13477z" fill="#fff3c0" stroke="none" stroke-width="0" stroke-linecap="butt"></path><path d="M238.45688,147.34184l-1.20219,-0.72131l1.20219,-0.62514l0.96175,-1.68307l1.25028,1.68307l1.25028,0.57705l-1.25028,0.7694l0.65798,1.43141c0,0 -0.99073,-0.91128 -1.6475,-0.98231c-0.57695,-0.06239 -1.2706,0.94544 -1.2706,0.94544z" fill="#ffd300" stroke="none" stroke-width="0" stroke-linecap="butt"></path><path d="M243.46472,217.23895v-10.13477h4.17314v10.13477z" fill="#fff3c0" stroke="none" stroke-width="0" stroke-linecap="butt"></path><path d="M233.37963,185.84104v-3.57698h2.68273v3.57698c0,0 -0.93595,0.79488 -1.39104,0.79488c-0.43854,0 -1.29169,-0.79488 -1.29169,-0.79488z" fill="#2f9428" stroke="none" stroke-width="0" stroke-linecap="butt"></path><path d="M233.37963,182.36343l2.38465,-0.09936" fill="none" stroke="#000000" stroke-width="0.5" stroke-linecap="round"></path><path d="M232.48539,207.4779v-11.94921h15.00343v11.94921c0,0 -2.47713,1.68099 -4.71064,-0.14797c-3.32178,-2.72013 -6.46594,-9.34752 -3.03947,-9.65817c4.00487,-0.36309 0.6637,6.39758 -2.74762,9.36859c-2.14904,1.87165 -4.5057,0.43756 -4.5057,0.43756z" fill="url(#color-2)" stroke="none" stroke-width="NaN" stroke-linecap="butt"></path><path d="M239.66418,203.88739l0.19872,-8.64436" fill="none" stroke="#000000" stroke-width="0.5" stroke-linecap="round"></path><path d="M239.06802,196.63408l1.58977,-0.09936" fill="none" stroke="#000000" stroke-width="0.5" stroke-linecap="round"></path><path d="M238.96866,197.92576l1.98721,-0.09936" fill="none" stroke="#000000" stroke-width="0.5" stroke-linecap="round"></path><path d="M241.05523,199.11809l-2.18593,0.29808" fill="none" stroke="#000000" stroke-width="0.5" stroke-linecap="round"></path><path d="M238.47186,201.1053l2.18593,-0.29808" fill="none" stroke="#000000" stroke-width="0.5" stroke-linecap="round"></path><path d="M240.55843,202.49634l-2.28529,0.69552" fill="none" stroke="#000000" stroke-width="0.5" stroke-linecap="round"></path><path d="M226.40142,192.11086l2.38699,-13.50238l5.13677,0.9081l-2.38699,13.50238z" fill="#fff3c0" stroke="#000000" stroke-width="0.5" stroke-linecap="butt"></path><path d="M228.79826,181.43891l-2.00775,-9.32491c0,0 5.38731,-4.97666 5.56598,-5.01828c0.87247,-0.20321 0.42782,3.6222 0.42782,3.6222l1.11351,9.62299z" fill="#267520" stroke="#000000" stroke-width="0.5" stroke-linecap="butt"></path><g stroke="#000000" stroke-width="0.5" stroke-linecap="butt"><path d="M244.57908,176.67136l5.03621,1.35929l-2.8921,10.71532c-0.52299,-0.00021 -1.08018,0.00819 -1.72403,0.00135c-0.95914,-0.01018 -2.27524,-0.79373 -3.20703,-1.02667c-0.06208,-0.01552 -0.12309,-0.03055 -0.18311,-0.04511z" fill="#fff3c0"></path><path d="M244.46257,177.10304l2.48556,-9.20907c0,0 -0.98615,-2.56313 -0.17501,-2.3442c0.86423,0.23326 5.21122,3.70349 5.21122,3.70349l-2.48556,9.20907z" fill="#267520"></path></g><g data-paper-data="{&quot;index&quot;:null}"><path d="M223.81383,193.10647c0,0 2.40526,-3.71234 3.57029,-5.13663c1.1938,-1.45947 3.50829,-3.51721 3.50829,-3.51721l2.68301,3.50222c0,0 -1.58133,1.46498 -2.68217,2.44318c-1.17487,1.04399 -2.33127,4.61483 -2.33127,4.61483c0,0 -1.38315,-0.4002 -1.70016,-0.50093c-0.53597,-0.1703 -3.048,-1.40545 -3.048,-1.40545z" fill="#eaad81" stroke="none" stroke-width="0" stroke-linecap="butt"></path><path d="M231.42135,188.14073l-0.73225,-3.72199c0,0 3.14658,0.7192 4.69122,0.41531c1.68751,-0.332 5.0432,-2.33043 5.0432,-2.33043l0.73225,3.72199c0,0 -1.82497,-1.14828 -2.92373,-0.27861c-0.65872,0.52138 -0.83297,2.20724 -1.43186,2.32507c-0.77798,0.15306 -1.52607,-0.19831 -2.70241,-0.49256c-1.3118,-0.32813 -2.67642,0.36122 -2.67642,0.36122z" fill="#eaad81" stroke="none" stroke-width="0" stroke-linecap="butt"></path><path d="M241.01263,186.25376c0.12443,0.63249 -0.57584,1.30284 -1.56411,1.49727c-0.98827,0.19443 -1.89029,-0.16069 -2.01473,-0.79318c-0.12443,-0.63249 0.57584,-1.30284 1.56411,-1.49727c0.98827,-0.19443 1.89029,0.16069 2.01473,0.79318z" fill="none" stroke="#000000" stroke-width="0.5" stroke-linecap="butt"></path><path d="M240.67233,185.27986l-0.45062,-2.29045c0,0 1.61809,-1.95397 3.41219,-2.30694c1.60244,-0.31526 5.76543,-0.54101 7.26808,-0.43735c0.33603,0.02318 0.62884,0.51936 0.62884,0.51936l0.62236,2.65599z" fill="#000000" stroke="#000000" stroke-width="0.5" stroke-linecap="butt"></path><path d="M239.5811,186.5354l-1.54652,0.45295l0.40597,-1.7155" fill="none" stroke="#000000" stroke-width="0.5" stroke-linecap="round"></path><path d="M228.0839,195.59059l-4.15071,-2.4397l1.03502,-1.76091l4.15071,2.4397z" fill="#000000" stroke="none" stroke-width="0" stroke-linecap="butt"></path><path d="M247.45637,181.19434c0.05444,0.27671 -0.67053,0.65235 -1.61927,0.839c-0.94874,0.18665 -1.76197,0.11364 -1.81641,-0.16307c-0.05444,-0.27671 0.67053,-0.65235 1.61927,-0.839c0.94874,-0.18665 1.76197,-0.11364 1.81641,0.16307z" fill="#d4d4d4" stroke="none" stroke-width="NaN" stroke-linecap="butt"></path><path d="M251.97649,183.50409l-0.24382,-1.23931l16.60578,-3.26698l0.24382,1.23931z" fill="url(#color-3)" stroke="#000000" stroke-width="0.5" stroke-linecap="butt"></path><path d="M251.61831,181.52067l-0.206,-1.04709l16.60578,-3.26698l0.206,1.04709z" fill="url(#color-4)" stroke="#000000" stroke-width="0.5" stroke-linecap="butt"></path><path d="M257.59282,182.65312c0,0 -0.78623,-0.44431 -0.84296,-0.73264c-0.05672,-0.28833 0.5026,-0.99736 0.5026,-0.99736l6.43945,-1.26688c0,0 0.75605,0.29092 0.80514,0.54042c0.06153,0.31276 -0.46478,1.18958 -0.46478,1.18958z" fill="#a78100" stroke="#000000" stroke-width="0.5" stroke-linecap="butt"></path><path d="M267.42605,177.3243l-1.5945,0.0142l0.33399,-2.36183" fill="none" stroke="#000000" stroke-width="0.5" stroke-linecap="round"></path><path d="M266.56419,176.49555l-0.5751,-0.38601" fill="none" stroke="#000000" stroke-width="0.5" stroke-linecap="round"></path><path d="M268.44389,177.42354c0.0731,0.37157 0.00327,0.69818 -0.15597,0.7295c-0.15924,0.03133 -0.34759,-0.24449 -0.42069,-0.61605c-0.0731,-0.37157 -0.00327,-0.69818 0.15597,-0.7295c0.15924,-0.03133 0.34759,0.24449 0.42069,0.61605z" fill="#000000" stroke="#000000" stroke-width="0.5" stroke-linecap="butt"></path><path d="M268.82637,179.76575c0.0731,0.37157 0.00327,0.69818 -0.15597,0.72951c-0.15924,0.03133 -0.34759,-0.24449 -0.42069,-0.61605c-0.0731,-0.37157 -0.00327,-0.69818 0.15597,-0.72951c0.15924,-0.03133 0.34759,0.24449 0.42069,0.61605z" fill="#000000" stroke="#000000" stroke-width="0.5" stroke-linecap="butt"></path></g><path d="M227.37336,195.70258l-1.48427,-3.74036l8.72751,-3.4633l1.48427,3.74036z" fill="#fff3c0" stroke="#000000" stroke-width="0.5" stroke-linecap="butt"></path></g><path d="M229.33654,217.70711v-11.74717h19.77758v11.74717z" fill="url(#color-5)" stroke="none" stroke-width="0" stroke-linecap="butt"></path></g></g></svg>