<svg version="1.1" xmlns="http://www.w3.org/2000/svg" xmlns:xlink="http://www.w3.org/1999/xlink" width="63.94978" height="45.24955" viewBox="0,0,63.94978,45.24955"><defs><radialGradient cx="246.02585" cy="182.60022" r="18.42679" gradientUnits="userSpaceOnUse" id="color-1"><stop offset="0" stop-color="#ffde00"></stop><stop offset="1" stop-color="#ffde00" stop-opacity="0"></stop></radialGradient><radialGradient cx="249.5991" cy="177.2112" r="12.3244" gradientUnits="userSpaceOnUse" id="color-2"><stop offset="0" stop-color="#ffbd00" stop-opacity="0"></stop><stop offset="1" stop-color="#ffbd00" stop-opacity="0"></stop></radialGradient><radialGradient cx="248.26815" cy="179.27366" r="7.60765" gradientUnits="userSpaceOnUse" id="color-3"><stop offset="0" stop-color="#f6ff00"></stop><stop offset="1" stop-color="#ffbd00"></stop></radialGradient></defs><g transform="translate(-217.50238,-164.07383)"><g data-paper-data="{&quot;isPaintingLayer&quot;:true}" fill-rule="nonzero" stroke-linecap="butt" stroke-linejoin="miter" stroke-miterlimit="10" stroke-dasharray="" stroke-dashoffset="0" style="mix-blend-mode: normal"><path d="M263.71061,182.60022c0,10.23185 -7.91774,18.52639 -17.68477,18.52639c-9.76703,0 -17.68477,-8.29455 -17.68477,-18.52639c0,-10.23185 7.91774,-18.52639 17.68477,-18.52639c9.76703,0 17.68477,8.29455 17.68477,18.52639z" fill="url(#color-1)" stroke="none" stroke-width="1"></path><path d="M244.04384,172.10668c0.40526,-0.76611 1.20533,-1.24594 2.07758,-1.24594c0.87224,0 1.67241,0.47983 2.07758,1.24594l2.657,5.02378l5.63822,0.9539c0.85974,0.14554 1.56722,0.75196 1.83675,1.57471c0.26954,0.82276 0.05656,1.72595 -0.5527,2.34487l-3.99616,4.05875l0.82767,5.6133c0.12615,0.85604 -0.23686,1.71078 -0.94243,2.21924c-0.70566,0.50855 -1.6374,0.58676 -2.41928,0.20315l-5.12665,-2.51525l-5.12674,2.51525c-0.78171,0.38361 -1.71354,0.30541 -2.41912,-0.20315c-0.70558,-0.50846 -1.06858,-1.36321 -0.94243,-2.21924l0.82758,-5.6133l-3.99607,-4.05875c-0.60935,-0.61892 -0.82224,-1.52212 -0.5527,-2.34487c0.26945,-0.82276 0.97701,-1.42917 1.83675,-1.57471l5.63822,-0.9539z" fill="url(#color-2)" stroke="#ffbd00" stroke-width="1"></path><path d="M244.83898,176.12273c0.25016,-0.4729 0.74403,-0.7691 1.28245,-0.7691c0.53842,0 1.03235,0.29619 1.28245,0.7691l1.64012,3.1011l3.48038,0.58882c0.5307,0.08984 0.96742,0.46417 1.1338,0.97205c0.16638,0.50788 0.03492,1.06541 -0.34118,1.44746l-2.46676,2.5054l0.5109,3.46499c0.07787,0.52841 -0.14621,1.05603 -0.58175,1.3699c-0.43559,0.31392 -1.01074,0.36219 -1.49338,0.1254l-3.1646,-1.55262l-3.16466,1.55262c-0.48254,0.23679 -1.05774,0.18852 -1.49328,-0.1254c-0.43554,-0.31387 -0.65962,-0.84149 -0.58175,-1.3699l0.51085,-3.46499l-2.46671,-2.5054c-0.37615,-0.38205 -0.50755,-0.93958 -0.34117,-1.44746c0.16633,-0.50788 0.60309,-0.8822 1.1338,-0.97205l3.48038,-0.58882z" fill="url(#color-3)" stroke="#000000" stroke-width="0"></path><text transform="translate(217.74513,206.41045) scale(0.24274,0.24274)" font-size="40" xml:space="preserve" fill="#00ffff" fill-rule="nonzero" stroke="none" stroke-width="2" stroke-linecap="butt" stroke-linejoin="miter" stroke-miterlimit="10" stroke-dasharray="" stroke-dashoffset="0" font-family="&quot;ヒラギノ角ゴ Pro W3&quot;, &quot;Hiragino Kaku Gothic Pro&quot;, Osaka, &quot;メイリオ&quot;, Meiryo, &quot;ＭＳ Ｐゴシック&quot;, &quot;MS PGothic&quot;" font-weight="normal" text-anchor="start" style="mix-blend-mode: normal"><tspan x="0" dy="0">back to hotel</tspan></text></g></g></svg>