<svg version="1.1" xmlns="http://www.w3.org/2000/svg" xmlns:xlink="http://www.w3.org/1999/xlink" width="59.34885" height="77.34952" viewBox="0,0,59.34885,77.34952"><defs><linearGradient x1="239.95678" y1="177.79301" x2="260.98749" y2="177.79301" gradientUnits="userSpaceOnUse" id="color-1"><stop offset="0" stop-color="#8d3800"></stop><stop offset="1" stop-color="#d27a00"></stop></linearGradient><linearGradient x1="216.91543" y1="177.73131" x2="237.60925" y2="177.73131" gradientUnits="userSpaceOnUse" id="color-2"><stop offset="0" stop-color="#d27a00"></stop><stop offset="1" stop-color="#8d3800"></stop></linearGradient></defs><g transform="translate(-210.32558,-141.20024)"><g data-paper-data="{&quot;isPaintingLayer&quot;:true}" fill-rule="nonzero" stroke-width="0.5" stroke-linejoin="miter" stroke-miterlimit="10" stroke-dasharray="" stroke-dashoffset="0" style="mix-blend-mode: normal"><path d="M240.17796,152.30565l-0.72369,53.55336" fill="none" stroke="#652800" stroke-linecap="round"></path><path d="M214.70393,149.98983v-4.34216c0,0 15.10038,-4.19743 23.01347,-4.19743c8.53938,0 26.4872,4.19743 26.4872,4.19743v4.34216z" fill="#652800" stroke="#311300" stroke-linecap="butt"></path><path d="M210.32558,218.54976l4.77519,-13.09768h49.52559l5.04806,13.09768z" fill-opacity="0.45161" fill="#000000" stroke="none" stroke-linecap="butt"></path><g stroke-linecap="butt"><path d="M214.55503,206.13203v-56.48373h49.52559v56.48373z" fill="#000000" stroke="none"></path><path d="M216.14301,206.01206v-55.29023c0,0 13.39245,0 20.69765,0c8.21871,0 26.19772,0 26.19772,0v55.29023z" fill="none" stroke="#652800"></path></g><g><path d="M243.61586,163.72916c0.05067,3.03397 -2.39098,5.53494 -5.45356,5.58609c-3.06259,0.05114 -5.58638,-2.3669 -5.63705,-5.40087c-0.05067,-3.03397 2.39098,-5.53494 5.45356,-5.58609c3.06259,-0.05114 5.58638,2.3669 5.63705,5.40087z" fill="#f1ad60" stroke="none" stroke-linecap="butt"></path><path d="M233.61209,191.06025l-0.37043,-22.18122l10.57236,-0.17656l0.37043,22.18122z" fill="#ff6666" stroke="none" stroke-linecap="butt"></path><path d="M235.62476,161.71126c-0.00383,-0.22897 0.1787,-0.4177 0.40768,-0.42153c0.22897,-0.00383 0.4177,0.1787 0.42153,0.40768c0.00383,0.22897 -0.1787,0.4177 -0.40768,0.42153c-0.22897,0.00383 -0.4177,-0.1787 -0.42153,-0.40768z" fill="#000000" stroke="none" stroke-linecap="butt"></path><path d="M239.48358,161.51722c-0.00383,-0.22897 0.1787,-0.4177 0.40768,-0.42153c0.22897,-0.00383 0.4177,0.1787 0.42153,0.40768c0.00383,0.22897 -0.1787,0.4177 -0.40768,0.42153c-0.22897,0.00383 -0.4177,-0.1787 -0.42153,-0.40768z" fill="#000000" stroke="none" stroke-linecap="butt"></path><path d="M240.09828,165.49056c0.37393,0.17923 0.19471,0.55315 0.19471,0.55315l-0.05951,0.02288c-0.08774,2.2898 -3.824,1.00846 -4.68778,-0.0876c0,0 -0.2543,-0.32753 0.07323,-0.58183c0.32753,-0.2543 0.58183,0.07323 0.58183,0.07323c0.39271,0.51537 3.35118,1.6626 3.20352,0.61005l0.14087,-0.39518c0,0 0.17923,-0.37393 0.55315,-0.19471z" fill="#000000" stroke="none" stroke-linecap="butt"></path><path d="M237.83933,171.70527l-1.49784,-2.77433l3.52412,-0.05885l-1.60821,3.03356z" fill="#ffffff" stroke="none" stroke-linecap="butt"></path><path d="M235.2318,201.81587l-0.18521,-11.09062l3.21317,-0.05366l0.18521,11.09062z" fill="#66a6ff" stroke="none" stroke-linecap="butt"></path><path d="M240.41952,202.04027l-0.18521,-11.09062l3.21317,-0.05366l0.18521,11.09062z" fill="#66a6ff" stroke="none" stroke-linecap="butt"></path><path d="M232.88418,204.03234l-0.04847,-2.90222c0,0 0.92036,0.4103 1.83315,-0.19454c0.85065,-0.56367 1.67882,-2.14506 2.17114,-2.15329c0.5747,-0.0096 1.59284,2.25435 1.59284,2.25435l0.04847,2.90222z" fill="#a06140" stroke="none" stroke-linecap="butt"></path><path d="M240.03435,203.80926l-0.04847,-2.90222c0,0 0.94198,-2.29668 1.51668,-2.30628c0.49233,-0.00822 1.37283,1.54463 2.24184,2.07959c0.93246,0.57402 1.83861,0.13322 1.83861,0.13322l0.04847,2.90222z" data-paper-data="{&quot;index&quot;:null}" fill="#a06140" stroke="none" stroke-linecap="butt"></path><path d="M230.11438,186.70638c0,0 0.22459,-5.94598 0.74801,-8.79389c0.51656,-2.8106 2.3722,-8.18313 2.3722,-8.18313l0.50374,5.21254l-2.03198,13.84847z" fill="#f1ad60" stroke="none" stroke-linecap="butt"></path><path d="M246.11836,190.00119l-2.49326,-13.77289l0.32942,-5.22646c0,0 2.034,5.30757 2.64411,8.09937c0.61822,2.82884 1.04123,8.76401 1.04123,8.76401z" data-paper-data="{&quot;index&quot;:null}" fill="#f1ad60" stroke="none" stroke-linecap="butt"></path><path d="M234.55107,173.47089c0.02629,1.57423 -0.37005,2.85736 -0.88526,2.86597c-0.5152,0.0086 -0.95417,-1.26058 -0.98046,-2.83481c-0.02629,-1.57423 0.37005,-2.85736 0.88526,-2.86597c0.5152,-0.0086 0.95417,1.26058 0.98046,2.83481z" fill="#da5757" stroke="none" stroke-linecap="butt"></path><path d="M244.72441,174.23412c0.02629,1.57423 -0.37005,2.85736 -0.88526,2.86597c-0.5152,0.0086 -0.95417,-1.26058 -0.98046,-2.83481c-0.02629,-1.57423 0.37005,-2.85736 0.88526,-2.86597c0.5152,-0.0086 0.95417,1.26058 0.98046,2.83481z" fill="#da5757" stroke="none" stroke-linecap="butt"></path><path d="M238.86175,190.66364l-0.77233,-18.62404" fill="none" stroke="#000000" stroke-linecap="round"></path><path d="M233.4236,159.93379c0,0 -0.0594,0.96289 -0.06286,0.75577c-0.00367,-0.21969 -0.71181,-1.95038 -0.71181,-1.95038c0,0 3.04943,-1.03206 4.66157,-1.05899c1.72518,-0.02881 5.37339,0.8914 5.37339,0.8914l0.10947,2.03591c0,0 -2.49388,-0.42283 -5.04727,-0.27086c-1.64923,0.09816 -3.53729,0.79158 -4.07597,0.80058c-0.21413,0.00357 0.02991,-0.64122 -0.17895,-0.94467c-0.17291,-0.2512 -0.06756,-0.25877 -0.06756,-0.25877z" fill="#000000" stroke="none" stroke-linecap="butt"></path><path d="M238.345,159.44665c0.05645,0.22216 -0.7328,0.6144 -1.76282,0.8761c-1.03002,0.26169 -1.91077,0.29374 -1.96722,0.07158c-0.05645,-0.22216 0.7328,-0.6144 1.76282,-0.8761c1.03002,-0.26169 1.91077,-0.29374 1.96722,-0.07158z" fill="#484343" stroke="none" stroke-linecap="butt"></path><path d="M235.47677,192.49279l0.16854,1.0538" fill="none" stroke="#0035ea" stroke-linecap="round"></path><path d="M236.83504,196.99842l0.1257,-1.51154" fill="none" stroke="#0035ea" stroke-linecap="round"></path><path d="M235.95231,198.37165l-0.17988,-1.73285" fill="none" stroke="#0035ea" stroke-linecap="round"></path><path d="M241.90411,197.74395l-0.09309,-1.05505l-0.03402,-2.03717" fill="none" stroke="#0035ea" stroke-linecap="round"></path><path d="M242.21457,193.73876l0.18856,-2.2673" fill="none" stroke="#0035ea" stroke-linecap="round"></path><path d="M241.1318,192.17193l0.02772,1.65992" fill="none" stroke="#0035ea" stroke-linecap="round"></path><path d="M242.79187,196.67252l0.17106,1.20469" fill="none" stroke="#0035ea" stroke-linecap="round"></path><path d="M236.89396,191.48798l0.09939,1.43231" fill="none" stroke="#0035ea" stroke-linecap="round"></path><path d="M236.28435,200.17743l0.75073,-0.23896" fill="none" stroke="#000000" stroke-linecap="round"></path><path d="M236.90435,201.14822l0.67402,-0.31314" fill="none" stroke="#000000" stroke-linecap="round"></path><path d="M241.34712,200.54572l0.61873,0.89533" fill="none" stroke="#000000" stroke-linecap="round"></path><path d="M242.79203,201.20083l-0.84382,-0.8161" fill="none" stroke="#000000" stroke-linecap="round"></path><path d="M230.7939,177.61247l1.83273,-5.52399l1.62285,2.25117l-1.55613,4.00993z" fill="#da5757" stroke="none" stroke-linecap="butt"></path><path d="M244.75175,179.80482l-1.68916,-3.95574l1.54677,-2.3041l2.01616,5.45972z" data-paper-data="{&quot;index&quot;:null}" fill="#da5757" stroke="none" stroke-linecap="butt"></path><path d="M230.48418,189.0087l0.66582,-2.07857l0.74892,0.18163l-0.489,2.01633c0,0 -0.4399,0.42505 -0.60631,0.40359c-0.13601,-0.01755 -0.31945,-0.52298 -0.31945,-0.52298z" fill="#f1ad60" stroke="none" stroke-linecap="butt"></path><path d="M229.6385,188.24911l0.66582,-2.07858l0.74893,0.18163l-0.48901,2.01634c0,0 -0.4399,0.42505 -0.6063,0.40358c-0.13601,-0.01755 -0.31945,-0.52297 -0.31945,-0.52297z" fill="#f1ad60" stroke="none" stroke-linecap="butt"></path><path d="M228.70396,187.17521l1.80901,-1.22118l0.47605,0.60602l-1.63158,1.28167c0,0 -0.60857,0.06181 -0.72603,-0.05799c-0.09602,-0.09793 0.07255,-0.60852 0.07255,-0.60852z" fill="#f1ad60" stroke="none" stroke-linecap="butt"></path><path d="M232.25058,189.34102l-0.97836,-1.95106l0.66222,-0.39414l1.06116,1.78287c0,0 -0.01698,0.61147 -0.1509,0.71254c-0.10946,0.08262 -0.59413,-0.15022 -0.59413,-0.15022z" fill="#f1ad60" stroke="none" stroke-linecap="butt"></path><path d="M233.08947,188.28798l-1.94041,-0.99931l0.30259,-0.70875l1.90815,0.81465c0,0 0.34674,0.50395 0.29813,0.66454c-0.03972,0.13127 -0.56847,0.22888 -0.56847,0.22888z" fill="#f1ad60" stroke="none" stroke-linecap="butt"></path><path d="M247.2365,191.38864c-0.16558,0.027 -0.61943,-0.38312 -0.61943,-0.38312l-0.55605,-1.99888l0.74244,-0.20654l0.73486,2.05518c0,0 -0.16646,0.51128 -0.30181,0.53336z" data-paper-data="{&quot;index&quot;:null}" fill="#f1ad60" stroke="none" stroke-linecap="butt"></path><path d="M247.759,190.54692c-0.16559,0.027 -0.61943,-0.38312 -0.61943,-0.38312l-0.55606,-1.99888l0.74244,-0.20654l0.73486,2.05518c0,0 -0.16645,0.51128 -0.30181,0.53336z" data-paper-data="{&quot;index&quot;:null}" fill="#f1ad60" stroke="none" stroke-linecap="butt"></path><path d="M249.34915,189.56913c-0.1134,0.12366 -0.72369,0.0822 -0.72369,0.0822l-1.67346,-1.22647l0.45555,-0.62157l1.84878,1.1601c0,0 0.18552,0.50467 0.09283,0.60575z" data-paper-data="{&quot;index&quot;:null}" fill="#f1ad60" stroke="none" stroke-linecap="butt"></path><path d="M245.19522,191.41638c-0.13722,-0.09654 -0.1746,-0.70711 -0.1746,-0.70711l1.00104,-1.81732l0.67501,0.37182l-0.91266,1.98263c0,0 -0.47662,0.24889 -0.58877,0.16997z" data-paper-data="{&quot;index&quot;:null}" fill="#f1ad60" stroke="none" stroke-linecap="butt"></path><path d="M244.33459,190.0122c-0.05393,-0.15887 0.27578,-0.67411 0.27578,-0.67411l1.8799,-0.87792l0.32608,0.69825l-1.90595,1.06355c0,0 -0.53172,-0.0799 -0.5758,-0.20977z" data-paper-data="{&quot;index&quot;:null}" fill="#f1ad60" stroke="none" stroke-linecap="butt"></path></g><g stroke-linecap="butt"><path d="M239.95678,204.9434v-54.30078h21.03071v54.30078z" fill="url(#color-1)" stroke="none"></path><path d="M245.07425,199.10521v-9.84224h10.86296v9.84224z" fill="none" stroke="#7b3100"></path><path d="M245.35279,181.73655v-9.84224h10.86296v9.84224z" fill="none" stroke="#7b3100"></path><path d="M245.5126,163.95503v-9.84224h10.86296v9.84224z" fill="none" stroke="#7b3100"></path><g><path d="M244.46741,179.83797c-1.0698,-0.2683 -1.70684,-1.47723 -1.42287,-2.70023c0.28397,-1.223 1.38142,-1.99694 2.45121,-1.72864c1.0698,0.2683 1.70684,1.47723 1.42286,2.70023c-0.28397,1.223 -1.38141,1.99694 -2.45121,1.72864z" fill="#fff4ce" stroke="#e6ddbb"></path><path d="M245.15888,178.61874c-0.66461,-0.16668 -1.06038,-0.91774 -0.88396,-1.67753c0.17642,-0.75979 0.85821,-1.2406 1.52283,-1.07392c0.66461,0.16668 1.06038,0.91774 0.88396,1.67753c-0.17642,0.75979 -0.85821,1.2406 -1.52283,1.07392z" fill="#e6ddbb" stroke="#e6ddbb"></path><path d="M241.28175,177.89053l1.56767,-0.61933l0.59592,1.62925l-1.56767,0.61933z" fill="#e6ddbb" stroke="none"></path><path d="M242.57574,179.85419c-0.55377,0.80049 -0.98386,-0.10099 -1.17843,-0.51859c-0.30361,-0.65164 -0.24721,-1.29988 0.00069,-1.89947l-0.05526,-0.01386l0.07868,-0.33887v0c0.03751,-0.16157 0.19395,-0.26094 0.34942,-0.22195c0.11238,0.02818 0.19348,0.12094 0.21565,0.23121l0.08293,0.37341l-0.01159,0.00278l0.01701,0.02962c0.00041,0.03284 0.0008,0.06568 0.00121,0.09852c0.04019,0.03465 0.07057,0.07999 0.08804,0.13076c0.0505,0.0559 0.0797,0.13098 0.07866,0.21005l0.00266,0.33739c0.03342,0.21518 0.4206,1.44851 0.33032,1.57901z" fill="#fff4ce" stroke="none"></path></g></g><g stroke-linecap="butt"><path d="M216.91543,204.88171v-54.30078h20.69382v54.30078z" fill="url(#color-2)" stroke="none"></path><path d="M221.0608,164.04638v-9.84224h10.2489v9.84224z" fill="none" stroke="#7b3100"></path><path d="M220.9854,181.76621v-9.84224h10.2489v9.84224z" fill="none" stroke="#7b3100"></path><path d="M220.77862,198.6176v-9.84224h10.2489v9.84224z" fill="none" stroke="#7b3100"></path><g data-paper-data="{&quot;index&quot;:null}"><path d="M231.89218,177.97289c-0.26792,-1.223 0.33311,-2.43193 1.34243,-2.70023c1.00933,-0.26829 2.04474,0.50564 2.31266,1.72864c0.26792,1.223 -0.33311,2.43193 -1.34244,2.70023c-1.00933,0.2683 -2.04474,-0.50564 -2.31266,-1.72864z" fill="#fff4ce" stroke="#e6ddbb"></path><path d="M232.11571,177.40838c-0.16645,-0.75979 0.20694,-1.51085 0.83399,-1.67753c0.62705,-0.16668 1.27031,0.31413 1.43674,1.07392c0.16645,0.75979 -0.20694,1.51085 -0.83399,1.67753c-0.62705,0.16668 -1.2703,-0.31413 -1.43674,-1.07392z" fill="#e6ddbb" stroke="#e6ddbb"></path><path d="M236.64817,179.38335l-1.47906,-0.61933l0.56224,-1.62925l1.47906,0.61933z" fill="#e6ddbb" stroke="none"></path><path d="M235.98958,179.71775c-0.08518,-0.1305 0.28013,-1.36383 0.31166,-1.57901l0.00251,-0.33739c-0.00098,-0.07907 0.02657,-0.15415 0.07422,-0.21005c0.01647,-0.05076 0.04514,-0.0961 0.08306,-0.13076c0.00038,-0.03284 0.00076,-0.06568 0.00114,-0.09852l0.01603,-0.02962l-0.01093,-0.00278l0.07825,-0.3734c0.02091,-0.11027 0.09742,-0.20303 0.20345,-0.23121c0.14667,-0.03899 0.29428,0.06038 0.32967,0.22195v0l0.07424,0.33887l-0.05213,0.01386c0.23388,0.5996 0.2871,1.24783 0.00065,1.89947c-0.18357,0.4176 -0.58934,1.31907 -1.11181,0.51859z" fill="#fff4ce" stroke="none"></path></g></g></g></g></svg>