<svg version="1.1" xmlns="http://www.w3.org/2000/svg" xmlns:xlink="http://www.w3.org/1999/xlink" width="5.69609" height="9.96852" viewBox="0,0,5.69609,9.96852"><defs><linearGradient x1="239.46268" y1="180.16216" x2="238.88553" y2="179.91281" gradientUnits="userSpaceOnUse" id="color-1"><stop offset="0" stop-color="#98e898"></stop><stop offset="1" stop-color="#98e898" stop-opacity="0"></stop></linearGradient><linearGradient x1="240.4679" y1="180.65981" x2="241.09719" y2="180.93169" gradientUnits="userSpaceOnUse" id="color-2"><stop offset="0" stop-color="#98e898"></stop><stop offset="1" stop-color="#98e898" stop-opacity="0"></stop></linearGradient></defs><g transform="translate(-237.15195,-175.01574)"><g data-paper-data="{&quot;isPaintingLayer&quot;:true}" fill-rule="nonzero" stroke-linecap="butt" stroke-linejoin="miter" stroke-miterlimit="10" stroke-dasharray="" stroke-dashoffset="0" style="mix-blend-mode: normal"><path d="M237.72458,184.23368l3.49153,-8.08157l0.96458,0.41673l-3.49153,8.08157z" fill="#98e898" stroke="#000000" stroke-width="0.1"></path><path d="M237.15195,183.92537l3.46715,-8.02513l0.57715,0.24935l-3.46715,8.02513z" data-paper-data="{&quot;index&quot;:null}" fill="url(#color-1)" stroke="none" stroke-width="0"></path><path d="M238.71704,184.71238l3.50172,-8.10514l0.62929,0.27188l-3.50172,8.10514z" fill="url(#color-2)" stroke="none" stroke-width="0"></path><path d="M237.4527,184.41493l0.19235,-0.44523l1.30836,0.56526l-0.19235,0.44523z" fill="#a3a3a3" stroke="none" stroke-width="0"></path><path d="M241.20695,176.09948l0.03375,-0.07813c0,0 0.63195,-0.51427 0.8262,-0.43034c0.18846,0.08142 0.32249,0.92662 0.32249,0.92662l-0.03375,0.07813zM241.88646,176.10421c0.03957,0.0171 0.08768,-0.00613 0.10745,-0.05189c0.01977,-0.04575 0.00372,-0.09671 -0.03586,-0.1138c-0.03957,-0.0171 -0.08768,0.00613 -0.10745,0.05189c-0.01977,0.04575 -0.00372,0.09671 0.03586,0.1138z" fill="#aeccae" stroke="none" stroke-width="0"></path><path d="M241.96538,176.29129l0.3843,-0.8895l0.31284,0.13516l-0.3843,0.8895z" fill="#aeccae" stroke="none" stroke-width="0"></path><path d="M241.77668,175.21758l0.06155,-0.14246c0,0 0.3107,-0.09821 0.44079,-0.04201c0.14193,0.06132 0.37837,0.39592 0.37837,0.39592l-0.06155,0.14246c0,0 -0.25481,-0.23688 -0.39903,-0.29919c-0.12649,-0.05465 -0.42013,-0.05472 -0.42013,-0.05472z" fill="#aeccae" stroke="none" stroke-width="0"></path></g></g></svg>