<svg version="1.1" xmlns="http://www.w3.org/2000/svg" xmlns:xlink="http://www.w3.org/1999/xlink" width="77.90677" height="57.48079" viewBox="0,0,77.90677,57.48079"><defs><linearGradient x1="246.58003" y1="180.37876" x2="255.40618" y2="180.37876" gradientUnits="userSpaceOnUse" id="color-1"><stop offset="0" stop-color="#000000" stop-opacity="0"></stop><stop offset="1" stop-color="#000000"></stop></linearGradient><linearGradient x1="239.87866" y1="180.09792" x2="242.82779" y2="180.09792" gradientUnits="userSpaceOnUse" id="color-2"><stop offset="0" stop-color="#ffec00"></stop><stop offset="1" stop-color="#ffec00" stop-opacity="0"></stop></linearGradient><linearGradient x1="239.78189" y1="180.29581" x2="244.57557" y2="180.29581" gradientUnits="userSpaceOnUse" id="color-3"><stop offset="0" stop-color="#ffc700"></stop><stop offset="1" stop-color="#ffc700" stop-opacity="0"></stop></linearGradient><linearGradient x1="252.98469" y1="180.37859" x2="255.43297" y2="180.37859" gradientUnits="userSpaceOnUse" id="color-4"><stop offset="0" stop-color="#000000" stop-opacity="0"></stop><stop offset="1" stop-color="#000000"></stop></linearGradient></defs><g transform="translate(-199.94102,-152.4743)"><g data-paper-data="{&quot;isPaintingLayer&quot;:true}" fill-rule="nonzero" stroke="none" stroke-linecap="butt" stroke-linejoin="miter" stroke-miterlimit="10" stroke-dasharray="" stroke-dashoffset="0" style="mix-blend-mode: normal"><path d="M246.58003,184.81626v-8.875h8.82615v8.875z" fill="url(#color-1)" stroke-width="0"></path><path d="M239.87866,181.24375v-2.29167l4.54167,-1.08333l-1.00271,4.875z" fill="url(#color-2)" stroke-width="0"></path><path d="" fill="url(#color-3)" stroke-width="0"></path><path d="M205.92661,205.79925v-51.59849h68.14678v51.59849zM241.93615,177.70493c-0.49085,-0.54976 -1.20501,-0.89587 -2,-0.89587c-1.4803,0 -2.68033,1.20003 -2.68033,2.68033c0,1.21511 0.80858,2.24137 1.91703,2.57008c-0.04093,0.1092 -0.06331,0.22746 -0.06331,0.35094c0,0.20052 0.05902,0.38725 0.16063,0.54377c0.03829,0.68928 2.62715,0.70912 2.7689,0.74433c0.5473,0.13594 1.82787,0.46771 3.26209,0.73473l0.21752,0.38065c0.23815,0.41676 2.82666,0.38897 3.09136,0.4221c1.26969,0.1589 2.08698,0.13312 2.55638,-0.00529c0.24411,0.04151 0.5773,-0.11257 1.02647,-0.5703c1.14595,-1.1678 1.25127,-5.74798 0.53399,-8.21025c-0.01965,-0.06747 -0.03993,-0.13335 -0.06081,-0.19753c0.04452,-0.18272 0.02344,-0.37672 -0.07875,-0.58111c-0.05055,-0.1011 -0.14842,-0.18284 -0.28442,-0.24682c-0.13349,-0.21798 -0.28145,-0.38012 -0.44334,-0.47263l-0.51283,0.29305c-1.18327,-0.04627 -2.93203,0.28041 -4.11244,0.78006c-0.07982,-0.02052 -0.1635,-0.03144 -0.24973,-0.03144c-0.5156,0 -0.94006,0.39022 -0.99418,0.89144c-1.39996,0.25508 -2.84963,0.53492 -4.05421,0.81974z" fill="#000000" stroke-width="NaN"></path><path d="" fill="#000000" stroke-width="NaN"></path><path d="" fill="#000000" stroke-width="NaN"></path><path d="" fill="#000000" stroke-width="NaN"></path><path d="M200.07195,209.30041v-56.43331h6.41585v56.43331z" fill="#000000" stroke-width="0"></path><path d="M200.07195,209.95509v-5.63024h77.6449v5.63024z" fill="#000000" stroke-width="0"></path><path d="M271.95565,209.08344v-56.56425h5.76117v56.56425z" fill="#000000" stroke-width="0"></path><path d="M199.94102,158.49734v-6.02304h77.90677v6.02304z" fill="#000000" stroke-width="0"></path><path d="" fill="#000000" stroke-width="0"></path><path d="" fill="#000000" stroke-width="0"></path><path d="" data-paper-data="{&quot;index&quot;:null}" fill="#000000" stroke-width="0"></path><path d="" data-paper-data="{&quot;index&quot;:null}" fill="#000000" stroke-width="0"></path><path d="" data-paper-data="{&quot;index&quot;:null}" fill="#000000" stroke-width="0"></path><path d="" data-paper-data="{&quot;index&quot;:null}" fill="#000000" stroke-width="0"></path><path d="" fill="#000000" stroke-width="0"></path><path d="M236.88129,179.43792c0,-1.64964 1.32975,-2.98694 2.97007,-2.98694c0.52863,0 1.91598,0.59453 2.64721,1.18414c-0.5206,0.11892 -1.00242,0.239 -1.42379,0.35879c-0.17631,-0.15568 -0.40794,-0.25016 -0.66163,-0.25016c-0.55228,0 -1,0.44772 -1,1c0,0.34531 0.17502,0.64975 0.4412,0.82943c-0.10162,0.16325 -0.15806,0.36279 -0.15806,0.57825c0,0.25058 0.01525,0.47964 0.16753,0.65512l-0.07119,0.12458l0.29691,0.51959c-0.40759,0.11955 -0.70719,0.49169 -0.71777,0.93541c-1.41228,-0.23058 -2.49048,-1.46277 -2.49048,-2.94821z" fill="#000000" stroke-width="0"></path><path d="" fill="#000000" stroke-width="0"></path><path d="" fill="#000000" stroke-width="0"></path><path d="M238.87147,184.45209v-7.16667h1.66667c0,0 -0.45833,2.25128 -0.45833,3.41667c0,1.22091 0.45833,3.75 0.45833,3.75z" fill="#000000" stroke-width="0"></path><path d="M239.67208,183.88453l-0.09118,-3.2714l13.71268,2.57173l0.09118,3.2714z" fill="#000000" stroke-width="0"></path><path d="M239.82371,179.43615l0.09118,-2.65361l13.71268,-2.08606l-0.09118,2.6536z" data-paper-data="{&quot;index&quot;:null}" fill="#000000" stroke-width="0"></path><path d="M239.57981,183.74375l0.04167,-3.45833l2.75,2.58333l-1.45833,0.875z" fill="#000000" stroke-width="0"></path><path d="M241.24647,175.86875l1.70833,1.95833l-3,1.5l-0.04166,-3.45833z" data-paper-data="{&quot;index&quot;:null}" fill="#000000" stroke-width="0"></path><path d="M252.98469,183.94756v-7.13793h2.44828v7.13793z" fill="url(#color-4)" stroke-width="0"></path></g></g></svg>