<svg version="1.1" xmlns="http://www.w3.org/2000/svg" xmlns:xlink="http://www.w3.org/1999/xlink" width="54.84585" height="41.52746" viewBox="0,0,54.84585,41.52746"><defs><radialGradient cx="240.00001" cy="180" r="4.27976" gradientUnits="userSpaceOnUse" id="color-1"><stop offset="0" stop-color="#00ff2f"></stop><stop offset="1" stop-color="#000000" stop-opacity="0.25"></stop></radialGradient><radialGradient cx="240" cy="180" r="5.95833" gradientUnits="userSpaceOnUse" id="color-2"><stop offset="0" stop-color="#00ff0a" stop-opacity="0.37903"></stop><stop offset="1" stop-color="#000900" stop-opacity="0.62097"></stop></radialGradient></defs><g transform="translate(-212.57708,-159.23627)"><g data-paper-data="{&quot;isPaintingLayer&quot;:true}" fill-rule="nonzero" stroke-linecap="butt" stroke-linejoin="miter" stroke-miterlimit="10" stroke-dasharray="" stroke-dashoffset="0" style="mix-blend-mode: normal"><path d="" fill="url(#color-1)" stroke="#000000" stroke-width="0"></path><path d="M212.57709,200.76373v-41.52746h54.84585v41.52746zM240.20835,187.375c4.14213,0 7.5,-3.35787 7.5,-7.5c0,-4.14213 -3.35787,-7.5 -7.5,-7.5c-4.14213,0 -7.5,3.35787 -7.5,7.5c0,4.14213 3.35787,7.5 7.5,7.5z" fill="#000000" stroke="none" stroke-width="NaN"></path><path d="" fill="#ffffff" stroke="none" stroke-width="0"></path><path d="M233.73826,173.62821l0.25,-0.16667l0.0044,-0.00157l0.00562,-0.0051l0.00727,0.0005l0.13148,-0.04695l0.11995,-0.10281l0.16667,-0.08334l0.08816,-0.01959l0.26211,-0.26211l0.42292,-0.25375l0.09484,-0.16598l0.31164,-0.07791l0.27545,-0.16527l0.10884,0.02969l0.34683,-0.22072l0.01572,-0.00524l0.05476,-0.03651l0.14878,-0.05313l0.11995,-0.10281l0.3541,-0.17705l0.01393,-0.02438l0.06966,-0.01741l0.06231,-0.03116l0.56075,-0.12461l0.19506,-0.04877l0.07165,-0.04559l0.5,-0.16667l0.38586,-0.02968l0.07727,-0.06914l0.16025,0.01233l0.16719,-0.0418h0.16667l0.16719,0.0418l0.16025,-0.01233l0.07727,0.06914l0.38586,0.02968l0.10234,0.03412l0.26404,0.05281l0.05509,0.02609h0.06096l0.33333,0.08334l0.14135,0.07538l0.32594,0.06519l0.14277,0.06762l0.15751,0.01212l0.11513,0.03838h0.18009l0.14155,-0.02831l0.02856,-0.02555l0.64483,0.0496l0.646,0.03076l0.02516,0.0289l0.08381,0.02793h0.1223l0.02583,-0.00574l0.13975,-0.09317l0.13976,0.03106l0.13976,-0.03106l0.13975,0.09317l0.02583,0.00574h0.028l0.22394,0.05599l0.26882,0.05973l0.17014,-0.0464l0.27545,0.16527l0.31164,0.07791l0.09484,0.16598l0.14636,0.08782l0.073,0.00405l0.07014,0.08183l0.13342,0.08005l0.16666,0.16666l0.20676,0.34461l0.26154,0.30513l0.09371,0.18743l0.02438,0.01393l0.01741,0.06966l0.03116,0.06231l0.02654,0.11946l0.0014,0.00233l-0.00048,0.00178l0.03038,0.13673l0.03621,0.05432l0.1439,0.40291l0.20134,0.3775l0.14338,0.57352l0.05297,0.15891l0.01004,0.13058l0.02098,0.04196l0.12462,0.56075l0.01445,0.05781l0.07991,0.12557l0.08334,0.25l0.03082,0.40069l0.04878,0.19514l0.01467,0.03374l0.01247,0.07481l0.02155,0.08619v0.04309l0.01707,0.10242l0.02131,0.06392l0.00845,0.10991l0.12852,0.24099l0.08334,0.33333v0.30777l0.00138,0.00553l0.04379,0.04894l-0.00743,0.09653l0.0369,0.14758v0.25l-0.07272,0.29089l0.04325,0.04834l-0.03801,0.4941l0.03801,0.49411l-0.05387,0.06019v0.28258l0.01558,0.02336l-0.01558,0.0701v0.06966l-0.13932,0.55729l-0.01865,0.08396v0.13177l-0.00869,0.03476v0.19223l-0.06883,0.27531l0.00107,0.0016l-0.01558,0.0701v0.06966l-0.02339,0.09358l-0.02157,0.28032l-0.07686,0.23058l-0.04484,0.26909v0.04309l-0.02155,0.08619l-0.01246,0.07481l-0.01467,0.03374l-0.03465,0.1386v0.16666l-0.03266,0.13062l-0.0123,0.15995l-0.05833,0.175l-0.025,0.325l-0.08334,0.25l-0.07991,0.12557l-0.02096,0.08385l-0.00977,0.00558l-0.02499,0.11245l-0.25,0.5l-0.14572,0.17002l-0.01915,0.14042l-0.08143,0.20355l-0.03831,0.1916l-0.04306,0.0909l0.02228,0.08172l-0.28973,0.48289l-0.24107,0.50893l-0.08035,0.02678l-0.05175,0.08625l-0.33334,0.33334l-0.34461,0.20676l-0.30513,0.26154l-0.02077,0.01038l-0.01394,0.02438l-0.06966,0.01741l-0.06231,0.03116l-0.16357,0.03635l-0.12488,0.07492l-0.06547,-0.01785l-0.01411,0.02468l-0.54632,0.13658l-0.53033,0.1894l-0.05651,-0.02825l-0.09383,0.02345h-0.30776l-0.29857,0.07465h-1.00355l-0.02336,0.01558l-0.0701,-0.01558h-0.06966l-0.33333,-0.08334h-0.33334l-0.09758,-0.02439l-0.07577,0.03788l-0.53033,-0.1894l-0.54632,-0.13658l-0.01165,-0.02038l-0.00203,-0.00045h-0.06966l-0.55728,-0.13932l-0.28589,-0.06353l-0.11407,-0.00877l-0.11513,-0.03838h-0.17764l-0.20271,-0.05068l-0.20828,0.01666l-1,-0.16667l-0.25923,-0.11271l-0.30372,-0.07593l-0.26882,-0.05974l-0.17014,0.0464l-0.27545,-0.16527l-0.31164,-0.07791l-0.08059,-0.14105l-0.2579,-0.12895l-0.03824,0.00263l-0.47854,-0.43504l-0.3364,-0.28834l-0.15942,-0.09565l-0.24162,-0.24162l-0.04403,-0.02935l-0.33018,-0.3632l-0.36319,-0.33018l-0.02935,-0.04403l-0.24162,-0.24162l-0.20676,-0.34461l-0.26154,-0.30513l-0.08334,-0.16667l-0.03006,-0.13529l-0.06399,-0.09599l-0.0251,-0.07028l-0.01649,-0.0259l-0.02133,-0.06401l-0.09303,-0.10853l-0.16666,-0.33333l-0.03903,-0.17566l-0.09661,-0.1518l-0.02715,-0.08145l-0.00387,-0.00776l-0.00259,-0.01163l-0.04972,-0.14916l-0.00845,-0.10991l-0.12852,-0.24099l-0.08334,-0.33334v-0.20482l-0.066,-0.1939l-0.05361,-0.64326l-0.02551,-0.04421l-0.33333,-1.16666l-0.00899,-0.26949l-0.20891,-0.62674l-0.00752,-0.09774l-0.04613,-0.08649l-0.14338,-0.57352l-0.05297,-0.15891l-0.00752,-0.09774l-0.04613,-0.08649l-0.16666,-0.66666v-0.01042l-0.08334,-0.15625l-0.01677,-0.0671l-0.21061,-0.42121l-0.27951,-1.25779l1.39754,-2.09632l2.43204,0.13512zM239.87501,184.95833c2.76142,0 5,-2.23858 5,-5c0,-2.76142 -2.23858,-5 -5,-5c-2.76142,0 -5,2.23858 -5,5c0,2.76142 2.23858,5 5,5z" fill="#000000" stroke="none" stroke-width="0.5"></path><path d="M234.04167,180c0,-3.29069 2.66764,-5.95833 5.95833,-5.95833c3.29069,0 5.95833,2.66764 5.95833,5.95833c0,3.29069 -2.66764,5.95833 -5.95833,5.95833c-3.29069,0 -5.95833,-2.66764 -5.95833,-5.95833z" fill="url(#color-2)" stroke-opacity="0.71774" stroke="#000000" stroke-width="4"></path></g></g></svg>