<svg version="1.1" xmlns="http://www.w3.org/2000/svg" xmlns:xlink="http://www.w3.org/1999/xlink" width="22.07842" height="34.61838" viewBox="0,0,22.07842,34.61838"><defs><linearGradient x1="234.59863" y1="169.05477" x2="234.59863" y2="171.54607" gradientUnits="userSpaceOnUse" id="color-1"><stop offset="0" stop-color="#e8d697"></stop><stop offset="1" stop-color="#d1ac88"></stop></linearGradient><linearGradient x1="245.68085" y1="169.19777" x2="245.68085" y2="171.68907" gradientUnits="userSpaceOnUse" id="color-2"><stop offset="0" stop-color="#e8d697"></stop><stop offset="1" stop-color="#d1ac88"></stop></linearGradient><linearGradient x1="234.74162" y1="176.77659" x2="234.74162" y2="179.26788" gradientUnits="userSpaceOnUse" id="color-3"><stop offset="0" stop-color="#e8d697"></stop><stop offset="1" stop-color="#d1ac88"></stop></linearGradient><linearGradient x1="245.82385" y1="176.91958" x2="245.82385" y2="179.41088" gradientUnits="userSpaceOnUse" id="color-4"><stop offset="0" stop-color="#e8d697"></stop><stop offset="1" stop-color="#d1ac88"></stop></linearGradient><linearGradient x1="234.59863" y1="184.56989" x2="234.59863" y2="187.06119" gradientUnits="userSpaceOnUse" id="color-5"><stop offset="0" stop-color="#e8d697"></stop><stop offset="1" stop-color="#d1ac88"></stop></linearGradient><linearGradient x1="245.68085" y1="184.71289" x2="245.68085" y2="187.20419" gradientUnits="userSpaceOnUse" id="color-6"><stop offset="0" stop-color="#e8d697"></stop><stop offset="1" stop-color="#d1ac88"></stop></linearGradient></defs><g transform="translate(-228.96079,-162.69081)"><g data-paper-data="{&quot;isPaintingLayer&quot;:true}" fill-rule="nonzero" stroke-linejoin="miter" stroke-miterlimit="10" stroke-dasharray="" stroke-dashoffset="0" style="mix-blend-mode: normal"><text transform="translate(234.62767,191.8572) scale(0.08839,0.08839)" font-size="40" xml:space="preserve" fill="#cc9b39" fill-rule="nonzero" stroke="none" stroke-width="1" stroke-linecap="butt" stroke-linejoin="miter" stroke-miterlimit="10" stroke-dasharray="" stroke-dashoffset="0" font-family="Monospace" font-weight="normal" text-anchor="start" style="mix-blend-mode: normal"><tspan x="0" dy="0">xAmt8</tspan></text><path d="M249.81042,172.36855l-1.82259,-9.51719l3.05138,-0.03186l-0.72531,15.72119z" fill="#4e3b16" stroke="none" stroke-width="0" stroke-linecap="butt"></path><path d="M230.1961,192.19282l-1.2268,-27.43445l2.05391,-0.09184l1.2268,27.43445z" fill="#4e3b16" stroke="none" stroke-width="0" stroke-linecap="butt"></path><path d="M230.44878,192.16989v-27.02129h19.95876v27.02129z" fill="#946000" stroke="none" stroke-width="0" stroke-linecap="butt"></path><path d="M230.30104,165.51574v-2.7478h20.01461v2.7478z" fill="#ab8d55" stroke="none" stroke-width="0" stroke-linecap="butt"></path><path d="M228.96079,164.66541l0.23912,-1.9746l1.39534,0.0782l-0.03094,2.93974z" fill="#ab8d55" stroke="none" stroke-width="0" stroke-linecap="butt"></path><g><g stroke="none" stroke-width="0" stroke-linecap="butt"><path d="M231.16818,173.89607v-0.98889h17.81892v0.98889z" fill="#ab8d55"></path><path d="M231.18511,167.93274v-0.98889h17.69004v0.98889z" fill="#ab8d55"></path><path d="M231.14402,173.68414l0.09253,-6.55791l0.74023,0.57251v5.36084z" data-paper-data="{&quot;index&quot;:null}" fill="#563a00"></path><path d="M231.90686,173.04172v-5.36084h16.29069v5.36084z" fill="#805300"></path><path d="M248.19144,173.06842v-5.36083l0.74023,-0.57251l0.09253,6.55791z" data-paper-data="{&quot;index&quot;:null}" fill="#563a00"></path></g><g><path d="M233.57478,170.88067v-1.13277c0,0 0.64233,-0.69313 0.95453,-0.69313c0.36275,0 1.09316,0.69313 1.09316,0.69313v1.13277c0,0 -0.70955,0.6654 -1.06543,0.6654c-0.32361,0 -0.98226,-0.6654 -0.98226,-0.6654z" fill="url(#color-1)" stroke="none" stroke-width="0" stroke-linecap="butt"></path><path d="M235.52742,169.80946l-0.98308,0.50483l-0.92994,-0.58454" fill="none" stroke="#d3af89" stroke-width="0.25" stroke-linecap="round"></path><path d="M234.11195,170.83063v-0.52767c0,0 0.29921,-0.32287 0.44464,-0.32287c0.16897,0 0.50921,0.32287 0.50921,0.32287v0.52767c0,0 -0.33052,0.30996 -0.4963,0.30996c-0.15074,0 -0.45755,-0.30996 -0.45755,-0.30996z" fill="#fff4ce" stroke="none" stroke-width="0" stroke-linecap="butt"></path></g><g><path d="M244.657,171.02367v-1.13277c0,0 0.64233,-0.69313 0.95454,-0.69313c0.36275,0 1.09316,0.69313 1.09316,0.69313v1.13277c0,0 -0.70956,0.6654 -1.06544,0.6654c-0.32361,0 -0.98226,-0.6654 -0.98226,-0.6654z" fill="url(#color-2)" stroke="none" stroke-width="0" stroke-linecap="butt"></path><path d="M246.60964,169.95246l-0.98308,0.50483l-0.92994,-0.58454" fill="none" stroke="#d3af89" stroke-width="0.25" stroke-linecap="round"></path><path d="M245.19418,170.97364v-0.52766c0,0 0.29921,-0.32287 0.44464,-0.32287c0.16897,0 0.50921,0.32287 0.50921,0.32287v0.52766c0,0 -0.33052,0.30996 -0.4963,0.30996c-0.15074,0 -0.45755,-0.30996 -0.45755,-0.30996z" fill="#fff4ce" stroke="none" stroke-width="0" stroke-linecap="butt"></path></g></g><g><g stroke="none" stroke-width="0" stroke-linecap="butt"><path d="M231.31117,181.61788v-0.98889h17.81892v0.98889z" fill="#ab8d55"></path><path d="M231.32811,175.65456v-0.98889h17.69004v0.98889z" fill="#ab8d55"></path><path d="M231.28701,181.40595l0.09253,-6.55791l0.74023,0.57251v5.36084z" data-paper-data="{&quot;index&quot;:null}" fill="#563a00"></path><path d="M232.04986,180.76352v-5.36084h16.29069v5.36084z" fill="#805300"></path><path d="M248.33443,180.79023v-5.36083l0.74023,-0.57251l0.09253,6.55791z" data-paper-data="{&quot;index&quot;:null}" fill="#563a00"></path></g><g><path d="M233.71778,178.60248v-1.13277c0,0 0.64233,-0.69313 0.95454,-0.69313c0.36275,0 1.09316,0.69313 1.09316,0.69313v1.13277c0,0 -0.70956,0.6654 -1.06544,0.6654c-0.32361,0 -0.98226,-0.6654 -0.98226,-0.6654z" fill="url(#color-3)" stroke="none" stroke-width="0" stroke-linecap="butt"></path><path d="M235.67041,177.53127l-0.98308,0.50482l-0.92994,-0.58454" fill="none" stroke="#d3af89" stroke-width="0.25" stroke-linecap="round"></path><path d="M234.25494,178.55245v-0.52767c0,0 0.29921,-0.32287 0.44464,-0.32287c0.16897,0 0.50921,0.32287 0.50921,0.32287v0.52767c0,0 -0.33052,0.30996 -0.4963,0.30996c-0.15074,0 -0.45755,-0.30996 -0.45755,-0.30996z" fill="#fff4ce" stroke="none" stroke-width="0" stroke-linecap="butt"></path></g><g><path d="M244.8,178.74548v-1.13277c0,0 0.64233,-0.69313 0.95454,-0.69313c0.36275,0 1.09316,0.69313 1.09316,0.69313v1.13277c0,0 -0.70956,0.6654 -1.06544,0.6654c-0.32361,0 -0.98226,-0.6654 -0.98226,-0.6654z" fill="url(#color-4)" stroke="none" stroke-width="0" stroke-linecap="butt"></path><path d="M246.75264,177.67427l-0.98308,0.50483l-0.92994,-0.58454" fill="none" stroke="#d3af89" stroke-width="0.25" stroke-linecap="round"></path><path d="M245.33717,178.69544v-0.52766c0,0 0.29921,-0.32287 0.44464,-0.32287c0.16897,0 0.50921,0.32287 0.50921,0.32287v0.52766c0,0 -0.33052,0.30996 -0.4963,0.30996c-0.15074,0 -0.45755,-0.30996 -0.45755,-0.30996z" fill="#fff4ce" stroke="none" stroke-width="0" stroke-linecap="butt"></path></g></g><g><g stroke="none" stroke-width="0" stroke-linecap="butt"><path d="M231.16818,189.41118v-0.98889h17.81892v0.98889z" fill="#ab8d55"></path><path d="M231.18511,183.44787v-0.98889h17.69004v0.98889z" fill="#ab8d55"></path><path d="M231.14402,189.19925l0.09253,-6.55791l0.74023,0.57251v5.36084z" data-paper-data="{&quot;index&quot;:null}" fill="#563a00"></path><path d="M231.90686,188.55683v-5.36084h16.29069v5.36084z" fill="#805300"></path><path d="M248.19144,188.58354v-5.36083l0.74023,-0.57251l0.09253,6.55791z" data-paper-data="{&quot;index&quot;:null}" fill="#563a00"></path></g><g><path d="M233.57478,186.39579v-1.13277c0,0 0.64233,-0.69313 0.95454,-0.69313c0.36275,0 1.09316,0.69313 1.09316,0.69313v1.13277c0,0 -0.70955,0.6654 -1.06543,0.6654c-0.32361,0 -0.98226,-0.6654 -0.98226,-0.6654z" fill="url(#color-5)" stroke="none" stroke-width="0" stroke-linecap="butt"></path><path d="M235.52742,185.32458l-0.98308,0.50483l-0.92994,-0.58454" fill="none" stroke="#d3af89" stroke-width="0.25" stroke-linecap="round"></path><path d="M234.11195,186.34576v-0.52766c0,0 0.29921,-0.32287 0.44464,-0.32287c0.16897,0 0.50921,0.32287 0.50921,0.32287v0.52766c0,0 -0.33052,0.30996 -0.4963,0.30996c-0.15074,0 -0.45755,-0.30996 -0.45755,-0.30996z" fill="#fff4ce" stroke="none" stroke-width="0" stroke-linecap="butt"></path></g><g><path d="M244.657,186.53879v-1.13277c0,0 0.64233,-0.69313 0.95454,-0.69313c0.36275,0 1.09316,0.69313 1.09316,0.69313v1.13277c0,0 -0.70955,0.6654 -1.06543,0.6654c-0.32361,0 -0.98226,-0.6654 -0.98226,-0.6654z" fill="url(#color-6)" stroke="none" stroke-width="0" stroke-linecap="butt"></path><path d="M246.60964,185.46758l-0.98308,0.50482l-0.92994,-0.58454" fill="none" stroke="#d3af89" stroke-width="0.25" stroke-linecap="round"></path><path d="M245.19418,186.48875v-0.52766c0,0 0.29921,-0.32287 0.44464,-0.32287c0.16897,0 0.50921,0.32287 0.50921,0.32287v0.52766c0,0 -0.33052,0.30996 -0.4963,0.30996c-0.15074,0 -0.45755,-0.30996 -0.45755,-0.30996z" fill="#fff4ce" stroke="none" stroke-width="0" stroke-linecap="butt"></path></g></g><path d="M230.51653,196.71337v-4.76655l3.27701,0.11916c0,0 -1.21859,1.01138 -1.45162,1.66052c-0.30399,0.84682 -0.21668,2.98686 -0.21668,2.98686z" fill="#ad7000" stroke="none" stroke-width="0" stroke-linecap="butt"></path><path d="M229.98029,197.24961v-0.83414h2.68118v0.83414z" fill="#c68d23" stroke="none" stroke-width="0" stroke-linecap="butt"></path><path d="M248.09318,196.77295c0,0 0.08731,-2.14005 -0.21668,-2.98686c-0.23303,-0.64913 -1.45162,-1.66052 -1.45162,-1.66052l3.27701,-0.11916v4.76655z" data-paper-data="{&quot;index&quot;:null}" fill="#ad7000" stroke="none" stroke-width="0" stroke-linecap="butt"></path><path d="M247.55694,197.30919v-0.83414h2.68118v0.83414z" data-paper-data="{&quot;index&quot;:null}" fill="#c68d23" stroke="none" stroke-width="0" stroke-linecap="butt"></path></g></g></svg>