<svg version="1.1" xmlns="http://www.w3.org/2000/svg" xmlns:xlink="http://www.w3.org/1999/xlink" width="28.5" height="12.60478" viewBox="0,0,28.5,12.60478"><g transform="translate(-226.17524,-158.28921)"><g data-paper-data="{&quot;isPaintingLayer&quot;:true}" fill-rule="nonzero" stroke-linejoin="miter" stroke-miterlimit="10" stroke-dasharray="" stroke-dashoffset="0" style="mix-blend-mode: normal"><path d="M226.42524,170.64399v-12.10478h28v12.10478z" fill="#00dfec" stroke="#fff4ce" stroke-width="0.5" stroke-linecap="butt"></path><text transform="translate(236.98703,161.65498) scale(0.0672,0.0672)" font-size="40" xml:space="preserve" fill="#ffffff" fill-rule="nonzero" stroke="none" stroke-width="1" stroke-linecap="butt" stroke-linejoin="miter" stroke-miterlimit="10" stroke-dasharray="" stroke-dashoffset="0" font-family="Marker" font-weight="normal" text-anchor="start" style="mix-blend-mode: normal"><tspan x="0" dy="0">Overdrive</tspan></text><text transform="translate(236.59904,165.44249) scale(0.05393,0.05393)" font-size="40" xml:space="preserve" fill="#ffffff" fill-rule="nonzero" stroke="none" stroke-width="1" stroke-linecap="butt" stroke-linejoin="miter" stroke-miterlimit="10" stroke-dasharray="" stroke-dashoffset="0" font-family="Serif" font-weight="normal" text-anchor="start" style="mix-blend-mode: normal"><tspan x="0" dy="0">"Run at the speed</tspan><tspan x="0" dy="48px">of light! Sort of."</tspan></text><path d="M231.21588,165.95386l-0.21739,-3.04087h2.65315c0,0 -0.23365,1.12649 0.48883,1.70994c0.77668,0.62722 1.64387,0.68119 1.64387,0.99283c0,0.40051 -2.1327,0.55549 -2.1327,0.55549z" fill="none" stroke="#96fffc" stroke-width="0.35" stroke-linecap="butt"></path><path d="M231.31045,163.77955l1.97576,-0.10399" fill="none" stroke="#d3fffe" stroke-width="0.2" stroke-linecap="round"></path><path d="M233.66749,164.75009l-2.35704,0.20798" fill="none" stroke="#d3fffe" stroke-width="0.2" stroke-linecap="round"></path><path d="M231.03315,162.60103l0.06933,-3.91685" fill="none" stroke="#d3fffe" stroke-width="0.2" stroke-linecap="round"></path><path d="M233.52885,158.64951l-0.06933,4.0555" fill="none" stroke="#d3fffe" stroke-width="0.2" stroke-linecap="round"></path><path d="M235.70011,170.45l-0.2,-11.5" fill="none" stroke="#fff4ce" stroke-width="0.5" stroke-linecap="round"></path><path d="M227.82458,168.51908v-4.08695h3.32795c0,0 -0.29309,1.41299 0.61315,2.14484c0.97422,0.78674 3.15269,0.90898 3.15269,1.29988c0,0.50237 -3.76584,0.64223 -3.76584,0.64223z" fill="none" stroke="#96fffc" stroke-width="0.5" stroke-linecap="butt"></path><path d="M228.21588,165.51908l2.47826,-0.13043" fill="none" stroke="#d3fffe" stroke-width="0.25" stroke-linecap="round"></path><path d="M228.21588,166.99734l2.95652,-0.26087" fill="none" stroke="#d3fffe" stroke-width="0.25" stroke-linecap="round"></path><path d="M227.86806,164.04082l0.08695,-4.91304" fill="none" stroke="#d3fffe" stroke-width="0.25" stroke-linecap="round"></path><path d="M230.99849,159.0843l-0.08696,5.08695" fill="none" stroke="#d3fffe" stroke-width="0.25" stroke-linecap="round"></path></g></g></svg>