<svg version="1.1" xmlns="http://www.w3.org/2000/svg" xmlns:xlink="http://www.w3.org/1999/xlink" width="19.5201" height="17.82739" viewBox="0,0,19.5201,17.82739"><defs><radialGradient cx="240.0129" cy="191.89845" r="1.25071" gradientUnits="userSpaceOnUse" id="color-1"><stop offset="0" stop-color="#ffffff" stop-opacity="0.53358"></stop><stop offset="1" stop-color="#46e3ff" stop-opacity="0.59161"></stop></radialGradient><radialGradient cx="243.54758" cy="191.66585" r="1.25071" gradientUnits="userSpaceOnUse" id="color-2"><stop offset="0" stop-color="#ffffff" stop-opacity="0.53358"></stop><stop offset="1" stop-color="#46e3ff" stop-opacity="0.55129"></stop></radialGradient><linearGradient x1="234.30694" y1="198.21823" x2="234.73609" y2="199.76521" gradientUnits="userSpaceOnUse" id="color-3"><stop offset="0" stop-color="#00fdff" stop-opacity="0.41129"></stop><stop offset="1" stop-color="#ffffff" stop-opacity="0.67742"></stop></linearGradient><linearGradient x1="247.56748" y1="199.79138" x2="246.63001" y2="201.09465" gradientUnits="userSpaceOnUse" id="color-4"><stop offset="0" stop-color="#00fdff" stop-opacity="0.41129"></stop><stop offset="1" stop-color="#ffffff" stop-opacity="0.67742"></stop></linearGradient><linearGradient x1="239.15421" y1="194.85229" x2="239.63643" y2="194.64486" gradientUnits="userSpaceOnUse" id="color-5"><stop offset="0" stop-color="#948a00"></stop><stop offset="1" stop-color="#948a00" stop-opacity="0"></stop></linearGradient><linearGradient x1="244.77634" y1="195.22973" x2="244.31602" y2="194.97738" gradientUnits="userSpaceOnUse" id="color-6"><stop offset="0" stop-color="#948a00"></stop><stop offset="1" stop-color="#948a00" stop-opacity="0"></stop></linearGradient></defs><g transform="translate(-230.67599,-190.89384)"><g data-paper-data="{&quot;isPaintingLayer&quot;:true}" fill-rule="nonzero" stroke="none" stroke-linecap="butt" stroke-linejoin="miter" stroke-miterlimit="10" stroke-dasharray="" stroke-dashoffset="0" style="mix-blend-mode: normal"><path d="M242.17007,190.89764c1.78156,0.08491 3.15846,1.56682 3.0754,3.30995c-0.08307,1.74311 -1.59469,3.08736 -3.37625,3.00246c-1.78156,-0.08491 -3.15847,-1.56682 -3.07539,-3.30994c0.08307,-1.74311 1.59468,-3.08737 3.37625,-3.00246z" data-paper-data="{&quot;index&quot;:null}" fill="#000000" stroke-width="0"></path><path d="M244.00995,197.0924c0.14959,0.02102 0.03564,1.7147 -0.25531,3.78535c-0.22149,1.57627 -0.35941,2.55787 -0.5809,4.13415c-0.29095,2.07066 -0.64817,3.73015 -0.79776,3.70913c-1.04299,-0.14655 -3.90073,-0.5481 -4.94373,-0.69466c-0.14959,-0.02102 -0.03513,-1.71463 0.25582,-3.78528c0.22149,-1.57627 0.35941,-2.55787 0.5809,-4.13415c0.29095,-2.07066 0.64765,-3.73022 0.79724,-3.7092c1.04299,0.14655 3.90074,0.5481 4.94373,0.69466z" data-paper-data="{&quot;index&quot;:null}" fill="#000000" stroke-width="1"></path><path d="M249.55427,204.42269l-6.39519,-4.02793l0.64183,-1.72822l6.39519,4.02792z" data-paper-data="{&quot;index&quot;:null}" fill="#000000" stroke-width="0"></path><path d="M230.67599,199.18234l7.5261,-0.69317l0.54184,1.76211l-7.5261,0.69318z" data-paper-data="{&quot;index&quot;:null}" fill="#000000" stroke-width="0"></path><path d="M238.86271,193.81102c0,0 0.17928,-1.12852 0.38487,-1.42465c0.1878,-0.27051 0.89485,-0.89083 0.89485,-0.89083l0.10294,0.74583c0,0 -0.6984,0.21729 -0.87684,0.47432c-0.21107,0.304 -0.30818,1.23254 -0.30818,1.23254z" fill="url(#color-1)" stroke-width="NaN"></path><path d="M244.9863,193.40913c0,0 -0.32816,-0.87404 -0.60907,-1.11498c-0.23751,-0.20372 -0.96813,-0.23784 -0.96813,-0.23784l-0.08849,-0.74768c0,0 0.84064,0.42194 1.0906,0.63634c0.27363,0.2347 0.73174,1.28152 0.73174,1.28152z" data-paper-data="{&quot;index&quot;:null}" fill="url(#color-2)" stroke-width="NaN"></path><path d="M230.70639,199.21707l7.59571,-0.77627l0.08947,0.60542l-7.66234,0.45429z" fill="url(#color-3)" stroke-width="0"></path><path d="M250.07898,202.81929l-6.63053,-3.66294l0.29323,-0.53717l6.37577,4.08766z" data-paper-data="{&quot;index&quot;:null}" fill="url(#color-4)" stroke-width="0"></path><path d="M240.20221,196.78753c0,0 -1.01062,-1.28165 -1.11662,-1.52809c-0.13673,-0.31787 -0.30734,-1.28117 -0.30734,-1.28117l0.48222,-0.20742l1.14932,2.13926z" fill="url(#color-5)" stroke-width="0"></path><path d="M243.42584,196.16332l1.34756,-2.02025l0.46032,0.25234c0,0 -0.26145,0.9427 -0.42779,1.24613c-0.12896,0.23523 -1.25687,1.41497 -1.25687,1.41497z" data-paper-data="{&quot;index&quot;:null}" fill="url(#color-6)" stroke-width="0"></path></g></g></svg>