<svg version="1.1" xmlns="http://www.w3.org/2000/svg" xmlns:xlink="http://www.w3.org/1999/xlink" width="83.01388" height="30.95228" viewBox="0,0,83.01388,30.95228"><g transform="translate(-198.99446,-164.61111)"><g data-paper-data="{&quot;isPaintingLayer&quot;:true}" fill-rule="nonzero" stroke="none" stroke-linecap="butt" stroke-linejoin="miter" stroke-miterlimit="10" stroke-dasharray="" stroke-dashoffset="0" style="mix-blend-mode: normal"><text transform="translate(259.4,193.8) scale(0.09263,0.09263)" font-size="40" xml:space="preserve" fill="#705a4c" fill-rule="nonzero" stroke="none" stroke-width="1" stroke-linecap="butt" stroke-linejoin="miter" stroke-miterlimit="10" stroke-dasharray="" stroke-dashoffset="0" font-family="Marker" font-weight="normal" text-anchor="start" style="mix-blend-mode: normal"><tspan x="0" dy="0">xAmt8</tspan></text><path d="M213.16668,195.33334v-30.66667h53.66667v30.66667z" fill="#a88672" stroke-width="0"></path><path d="M230.13334,179.9c0,8.44382 -6.97068,15.28889 -15.56944,15.28889c-8.59876,0 -15.56944,-6.84507 -15.56944,-15.28889c0,-8.44382 6.97066,-15.28889 15.56944,-15.28889c8.59878,0 15.56944,6.84507 15.56944,15.28889z" fill="#a88672" stroke-width="0"></path><path d="M282.00834,180.0875c0,8.47834 -6.97068,15.35139 -15.56944,15.35139c-8.59876,0 -15.56944,-6.87305 -15.56944,-15.35139c0,-8.47834 6.97067,-15.35139 15.56944,-15.35139c8.59877,0 15.56944,6.87305 15.56944,15.35139z" fill="#5d4a3f" stroke-width="0"></path><path d="M282.00833,180.14975c0,8.51272 -6.91472,15.41364 -15.44444,15.41364c-8.52972,0 -15.44444,-6.90092 -15.44444,-15.41364c0,-8.51272 6.91469,-15.41364 15.44444,-15.41364c8.52975,0 15.44444,6.90092 15.44444,15.41364z" fill="#fff5cf" stroke-width="0"></path></g></g></svg>