<svg version="1.1" xmlns="http://www.w3.org/2000/svg" xmlns:xlink="http://www.w3.org/1999/xlink" width="255.15921" height="78.64482" viewBox="0,0,255.15921,78.64482"><defs><linearGradient x1="150.08379" y1="26.31874" x2="143.94942" y2="26.31874" gradientUnits="userSpaceOnUse" id="color-1"><stop offset="0" stop-color="#d27a00"></stop><stop offset="1" stop-color="#8d3800"></stop></linearGradient><linearGradient x1="224.22477" y1="59.64347" x2="224.45024" y2="124.31573" gradientUnits="userSpaceOnUse" id="color-2"><stop offset="0" stop-color="#fff700"></stop><stop offset="1" stop-color="#fff700" stop-opacity="0"></stop></linearGradient><radialGradient cx="246.50834" cy="55.52407" r="9.41926" gradientUnits="userSpaceOnUse" id="color-3"><stop offset="0" stop-color="#ffd200"></stop><stop offset="1" stop-color="#ffd200" stop-opacity="0"></stop></radialGradient></defs><g transform="translate(-214.14798,-17.08568)"><g data-paper-data="{&quot;isPaintingLayer&quot;:true}" fill-rule="nonzero" stroke-linejoin="miter" stroke-miterlimit="10" stroke-dasharray="" stroke-dashoffset="0" style="mix-blend-mode: normal"><path d="M215.14798,85.32149c0,-12.74828 0,-34.75185 0,-42.02357c0,-4.59582 7.98021,-9.92148 16.84266,-9.92148c27.27225,0 169.22845,0 219.0287,0c10.81842,0 17.28785,3.69338 17.28785,9.15276c0,12.86427 0,35.5341 0,42.7923c0,4.40002 -6.64776,9.409 -17.73302,9.409c-50.07659,0 -190.7088,0 -218.13833,0c-9.06978,0 -17.28784,-3.81273 -17.28784,-9.409z" fill-opacity="0.56452" fill="#291800" stroke="#fff4ce" stroke-width="2" stroke-linecap="butt"></path><text transform="translate(225.5,27.56815) scale(0.25567,0.25567)" font-size="40" xml:space="preserve" fill="#fff4ce" fill-rule="nonzero" stroke="none" stroke-width="1" stroke-linecap="butt" stroke-linejoin="miter" stroke-miterlimit="10" stroke-dasharray="" stroke-dashoffset="0" font-family="Impact" font-weight="normal" text-anchor="start" style="mix-blend-mode: normal"><tspan x="0" dy="0">UNLOCKED ACHIVEMENT</tspan></text><text transform="translate(272.30866,47.89518) scale(0.30293,0.30293)" font-size="40" xml:space="preserve" fill="#fff4ce" fill-rule="nonzero" stroke="none" stroke-width="1" stroke-linecap="butt" stroke-linejoin="miter" stroke-miterlimit="10" stroke-dasharray="" stroke-dashoffset="0" font-family="Sans Serif" font-weight="normal" text-anchor="start" style="mix-blend-mode: normal"><tspan x="0" dy="0">Zen</tspan></text><path d="M274.70702,62.80969c0,13.46649 -11.03605,24.38323 -24.64971,24.38323c-13.61366,0 -24.64971,-10.91674 -24.64971,-24.38323c0,-13.46649 11.03605,-24.38323 24.64971,-24.38323c13.61366,0 24.64971,10.91674 24.64971,24.38323z" fill="#a0a0a0" stroke="none" stroke-width="0" stroke-linecap="butt"></path><text transform="translate(282.43503,61.01093) scale(0.2748,0.2748)" font-size="40" xml:space="preserve" fill="#fff4ce" fill-rule="nonzero" stroke="none" stroke-width="1" stroke-linecap="butt" stroke-linejoin="miter" stroke-miterlimit="10" stroke-dasharray="" stroke-dashoffset="0" font-family="Serif" font-weight="normal" text-anchor="start" style="mix-blend-mode: normal"><tspan x="0" dy="0">Relax in the courtyard. Lets chill</tspan><tspan x="0" dy="48px">for a bit</tspan></text><g data-paper-data="{&quot;index&quot;:null}" stroke-linecap="butt"><path d="" fill="url(#color-1)" stroke="none" stroke-width="0"></path><g data-paper-data="{&quot;index&quot;:null}"><path d="" fill="#fff4ce" stroke="#e6ddbb" stroke-width="2.5"></path><path d="" fill="#e6ddbb" stroke="#e6ddbb" stroke-width="0"></path><path d="" fill="#e6ddbb" stroke="none" stroke-width="0"></path><path d="" fill="#fff4ce" stroke="none" stroke-width="0.5"></path></g></g><path d="" data-paper-data="{&quot;index&quot;:null}" fill="#c1c1c1" stroke="#000000" stroke-width="5" stroke-linecap="butt"></path><path d="" data-paper-data="{&quot;index&quot;:null}" fill="#c1c1c1" stroke="#000000" stroke-width="5" stroke-linecap="butt"></path><path d="" data-paper-data="{&quot;index&quot;:null}" fill="#fff700" stroke="#ffffff" stroke-width="2" stroke-linecap="butt"></path><path d="" data-paper-data="{&quot;index&quot;:null}" fill="#fff700" stroke="#ffffff" stroke-width="2" stroke-linecap="butt"></path><path d="M231.65084,73.52401l-0.10482,-1.2578l0.50612,1.83747z" data-paper-data="{&quot;index&quot;:null}" fill="url(#color-2)" stroke="none" stroke-width="0" stroke-linecap="butt"></path><g><text transform="translate(253.57999,80.89027) rotate(-93.43821) scale(0.09271,0.09271)" font-size="40" xml:space="preserve" fill="#000000" fill-rule="nonzero" stroke="none" stroke-width="1" stroke-linecap="butt" stroke-linejoin="miter" stroke-miterlimit="10" stroke-dasharray="" stroke-dashoffset="0" font-family="Marker" font-weight="normal" text-anchor="start" style="mix-blend-mode: normal"><tspan x="0" dy="0">xAmt8</tspan></text><g><path d="M248.89455,58.78941c0,0.27745 -1.06834,0.50236 -2.38621,0.50236c-1.31787,0 -2.38621,-0.22491 -2.38621,-0.50236c0,-0.27745 1.06834,-0.50236 2.38621,-0.50236c1.31787,0 2.38621,0.22491 2.38621,0.50236z" fill="#000000" stroke="#000000" stroke-width="1" stroke-linecap="butt"></path><path d="M249.89927,85.54011v-39.93766h4.27006v39.93766z" fill="#b17d47" stroke="none" stroke-width="NaN" stroke-linecap="butt"></path><path d="M246.25716,48.23984v-1.00472h7.03305v1.00472z" fill="#050402" stroke="none" stroke-width="0" stroke-linecap="butt"></path><path d="M246.13157,51.00283v-3.51652h1.00472v3.51652z" fill="#050402" stroke="none" stroke-width="0" stroke-linecap="butt"></path><path d="M244.4989,51.50519v-1.00472h4.27006v1.00472z" fill="#050402" stroke="none" stroke-width="0" stroke-linecap="butt"></path><path d="M244.3733,58.66382v-7.28423h4.39565v7.28423z" fill="#ffcc66" stroke="#000000" stroke-width="1" stroke-linecap="butt"></path><path d="M246.38275,51.63077v7.28423" fill="none" stroke="#000000" stroke-width="1" stroke-linecap="round"></path><path d="M244.24772,55.1473h4.64684" fill="none" stroke="#000000" stroke-width="1" stroke-linecap="round"></path><path d="M255.9276,55.52407c0,4.92467 -4.21714,8.9169 -9.41926,8.9169c-5.20212,0 -9.41926,-3.99223 -9.41926,-8.9169c0,-4.92467 4.21714,-8.9169 9.41926,-8.9169c5.20212,0 9.41926,3.99223 9.41926,8.9169z" fill="url(#color-3)" stroke="none" stroke-width="0" stroke-linecap="butt"></path><path d="M252.98415,84.79754c0.21085,1.05422 -0.85881,2.15696 -2.38913,2.46302c-1.53033,0.30607 -2.94183,-0.30044 -3.15267,-1.35466c-0.21085,-1.05422 0.85881,-2.15696 2.38913,-2.46302c1.53033,-0.30607 2.94183,0.30044 3.15267,1.35466z" fill="#b0b0b0" stroke="none" stroke-width="0" stroke-linecap="butt"></path><path d="M254.35681,86.97311c-0.38961,0.63062 -1.44755,0.68336 -2.36297,0.11779c-0.91542,-0.56557 -1.34167,-1.53527 -0.95206,-2.1659c0.38961,-0.63062 1.44755,-0.68336 2.36297,-0.11779c0.91542,0.56557 1.34167,1.53527 0.95206,2.1659z" fill="#c5c5c5" stroke="none" stroke-width="0" stroke-linecap="butt"></path></g></g></g></g></svg>