<svg version="1.1" xmlns="http://www.w3.org/2000/svg" xmlns:xlink="http://www.w3.org/1999/xlink" width="39.05784" height="77.15548" viewBox="0,0,39.05784,77.15548"><defs><linearGradient x1="238.67225" y1="156.45119" x2="264.24786" y2="165.61043" gradientUnits="userSpaceOnUse" id="color-1"><stop offset="0" stop-color="#4a4a4a"></stop><stop offset="1" stop-color="#dcdcdc"></stop></linearGradient><linearGradient x1="244.16407" y1="183.44773" x2="256.4698" y2="226.81547" gradientUnits="userSpaceOnUse" id="color-2"><stop offset="0" stop-color="#ffe7a2"></stop><stop offset="1" stop-color="#bfae7a"></stop></linearGradient><linearGradient x1="233.29133" y1="152.26497" x2="238.23611" y2="169.69131" gradientUnits="userSpaceOnUse" id="color-3"><stop offset="0" stop-color="#e2e2e2"></stop><stop offset="1" stop-color="#8c8c8c"></stop></linearGradient></defs><g transform="translate(-226.85377,-150.93905)"><g data-paper-data="{&quot;isPaintingLayer&quot;:true}" fill-rule="nonzero" stroke-linejoin="miter" stroke-miterlimit="10" stroke-dasharray="" stroke-dashoffset="0" style="mix-blend-mode: normal"><text transform="translate(231.57501,177.01778) rotate(-15.84144) scale(0.14955,0.14955)" font-size="40" xml:space="preserve" fill="#000000" fill-rule="nonzero" stroke="none" stroke-width="1" stroke-linecap="butt" stroke-linejoin="miter" stroke-miterlimit="10" stroke-dasharray="" stroke-dashoffset="0" font-family="Serif" font-weight="normal" text-anchor="start" style="mix-blend-mode: normal"><tspan x="0" dy="0">xAmt8</tspan></text><path d="M237.17092,160.64339c0.89991,-2.51284 2.45316,-6.85004 2.96648,-8.28338c0.32443,-0.90589 1.50657,-1.66692 2.40191,-1.34629c2.7552,0.98671 17.09644,6.12264 22.12754,7.9244c1.09294,0.39141 1.4858,1.35348 1.10042,2.42959c-0.90809,2.53571 -2.50838,7.00423 -3.02074,8.43491c-0.3106,0.86731 -1.33578,1.61412 -2.45568,1.21306c-5.05902,-1.81176 -19.2665,-6.89979 -22.0376,-7.89218c-0.91628,-0.32814 -1.47737,-1.37701 -1.08233,-2.4801z" fill="url(#color-1)" stroke="#fff4ce" stroke-width="0" stroke-linecap="butt"></path><path d="M240.00258,187.91227l-2.42468,-2.45428l3.19897,-0.90772l1.07275,3.78059z" fill="#fde5a1" stroke="none" stroke-width="0" stroke-linecap="butt"></path><path d="M227.381,168.20596c0,0 4.47952,-8.07737 7.62217,-8.88222c3.46859,-0.88832 12.30816,3.77796 12.30816,3.77796l2.31512,11.17983c-0.99288,1.41945 -1.69815,2.98539 -2.09381,4.60379l-14.50816,3.71561c-0.06625,-0.10582 -0.13438,-0.21095 -0.20437,-0.31534c-0.87096,-1.2991 -1.95736,-2.37415 -3.18904,-3.21383z" fill="#ffe7a2" stroke="#c2927c" stroke-width="1" stroke-linecap="butt"></path><path d="M229.90754,170.5962l-0.69672,-2.45362c0,0 3.52361,-6.36742 6.1069,-7.10095c2.70042,-0.76679 9.75984,2.59553 9.75984,2.59553l0.69672,2.45362z" fill="#000000" stroke="none" stroke-width="0" stroke-linecap="butt"></path><path d="M233.86618,186.3305l-0.78909,-2.78092l14.88607,-4.22397l0.78909,2.78092z" fill="#ffe7a2" stroke="#dfa88e" stroke-width="0.2" stroke-linecap="butt"></path><path d="M251.96216,228.09453l-12.30572,-43.36775l9.01527,-2.55811l11.00668,38.78968c-0.68598,1.53573 -1.25351,3.17176 -1.69791,4.84313c-0.10277,0.21989 -0.20092,0.44292 -0.29435,0.66883z" fill="url(#color-2)" stroke="none" stroke-width="0" stroke-linecap="butt"></path><path d="M252.76892,222.68081l-9.64403,-38.89893" fill="none" stroke="#dfa88e" stroke-width="0.2" stroke-linecap="round"></path><path d="M256.11076,221.57544l-9.89924,-38.51227" fill="none" stroke="#dfa88e" stroke-width="0.2" stroke-linecap="round"></path><path d="M245.67723,217.01926l0.35597,0.14707l1.47491,-5.87619l2.47559,8.72444z" fill="#cab781" stroke="none" stroke-width="0" stroke-linecap="butt"></path><path d="M243.79892,210.95343l0.35597,0.14707l1.47491,-5.87619l2.47558,8.72443z" fill="#d4c187" stroke="none" stroke-width="0" stroke-linecap="butt"></path><path d="M241.79882,203.35098l0.35597,0.14707l1.47491,-5.87619l2.47558,8.72443z" fill="#e0cb8e" stroke="none" stroke-width="0" stroke-linecap="butt"></path><path d="M239.46664,195.68564l0.35597,0.14707l1.47491,-5.87619l2.47558,8.72443z" fill="#f5de9b" stroke="none" stroke-width="0" stroke-linecap="butt"></path><path d="M232.26665,165.18901c-0.18235,-0.23753 -0.3608,-0.48395 -0.53463,-0.73898c-2.87699,-4.22051 -3.40419,-9.19633 -1.17753,-11.11381c2.22665,-1.91747 6.36397,-0.05048 9.24096,4.17002c1.11725,1.63898 1.88012,3.39188 2.26498,5.03533" fill="none" stroke="url(#color-3)" stroke-width="1.25" stroke-linecap="butt"></path><text transform="translate(244.60076,161.92373) rotate(19.12454) scale(0.28076,0.28076)" font-size="40" xml:space="preserve" fill="#ffffff" fill-rule="nonzero" stroke="none" stroke-width="1" stroke-linecap="butt" stroke-linejoin="miter" stroke-miterlimit="10" stroke-dasharray="" stroke-dashoffset="0" font-family="Serif" font-weight="normal" text-anchor="start" style="mix-blend-mode: normal"><tspan x="0" dy="0">088</tspan></text><path d="M247.57319,224.80837l0.35597,0.14707l1.47491,-5.87619l2.47559,8.72444z" fill="#c0ae7a" stroke="none" stroke-width="0" stroke-linecap="butt"></path></g></g></svg>