<svg version="1.1" xmlns="http://www.w3.org/2000/svg" xmlns:xlink="http://www.w3.org/1999/xlink" width="228.19311" height="85.12538" viewBox="0,0,228.19311,85.12538"><defs><linearGradient x1="348.7487" y1="220.94359" x2="348.82282" y2="187.51519" gradientUnits="userSpaceOnUse" id="color-1"><stop offset="0" stop-color="#9b9b9b"></stop><stop offset="1" stop-color="#000000"></stop></linearGradient><linearGradient x1="349.18448" y1="154.37559" x2="349.11036" y2="187.80399" gradientUnits="userSpaceOnUse" id="color-2"><stop offset="0" stop-color="#9b9b9b"></stop><stop offset="1" stop-color="#000000"></stop></linearGradient><radialGradient cx="390.88995" cy="174.61889" r="1.60615" gradientUnits="userSpaceOnUse" id="color-3"><stop offset="0" stop-color="#00ffe6"></stop><stop offset="1" stop-color="#00ffe6" stop-opacity="0"></stop></radialGradient><radialGradient cx="318.23197" cy="145.60507" r="6.30983" gradientUnits="userSpaceOnUse" id="color-4"><stop offset="0" stop-color="#ffac00"></stop><stop offset="1" stop-color="#ffac00" stop-opacity="0"></stop></radialGradient><radialGradient cx="311.19555" cy="145.83452" r="6.30983" gradientUnits="userSpaceOnUse" id="color-5"><stop offset="0" stop-color="#ffac00"></stop><stop offset="1" stop-color="#ffac00" stop-opacity="0"></stop></radialGradient></defs><g transform="translate(-181.97051,-138.82493)"><g data-paper-data="{&quot;isPaintingLayer&quot;:true}" fill-rule="nonzero" stroke-linejoin="miter" stroke-miterlimit="10" stroke-dasharray="" stroke-dashoffset="0" style="mix-blend-mode: normal"><path d="M291.48176,155.80412v-16.97918h103.2518v16.97918z" fill="#a5a5a5" stroke="none" stroke-width="NaN" stroke-linecap="butt"></path><g stroke-width="0.5"><path d="M293.49303,187.39249l110.65959,0.24538l-0.07412,33.42842l-110.65959,-0.24538z" data-paper-data="{&quot;index&quot;:null}" fill="url(#color-1)" stroke="none" stroke-linecap="butt"></path><path d="M293.85469,154.25289l110.65959,0.24538l-0.07412,33.42842l-110.65959,-0.24538z" fill="url(#color-2)" stroke="none" stroke-linecap="butt"></path><path d="M381.40399,179.79961l20.4982,-16.95701" fill="none" stroke="#000000" stroke-linecap="round"></path><path d="M381.35606,201.4128l23.00872,20.51162" fill="none" stroke="#000000" stroke-linecap="round"></path><path d="M294.70774,159.43495l17.83879,12.71937l-1.51628,34.00157l-20.49756,16.66884" fill="none" stroke="#000000" stroke-linecap="round"></path><path d="M311.39703,170.71087l73.18392,5.92583l-1.7904,27.66106l-72.04848,1.85749" fill="none" stroke="#000000" stroke-linecap="round"></path></g><path d="M294.52229,205.36498v-41.64489h46.11914v41.64489z" fill="#a76100" stroke="none" stroke-width="0" stroke-linecap="butt"></path><g stroke-width="0.15"><path d="M291.33103,212.70733v-10.66936h5.50676v10.66936z" fill="#c1944d" stroke="none" stroke-linecap="butt"></path><path d="M292.13411,167.16182v-10.66936h5.50676v10.66936z" fill="#c1944d" stroke="none" stroke-linecap="butt"></path><path d="M183.64932,221.80748v-7.64738h110.00454v7.64738z" fill="#6b6b6b" stroke="none" stroke-linecap="butt"></path><g stroke="none" stroke-linecap="butt"><path d="M183.06107,214.94177v-2.84455h110.59279v2.84455z" fill="#ffde00"></path><path d="M183.83501,214.99733l1.92894,-2.97834l1.45423,0.16539l-2.02902,2.8876z" fill="#000000"></path><path d="M186.74136,215.10828l1.92894,-2.97834l1.45423,0.16539l-2.02902,2.8876z" fill="#000000"></path><path d="M189.49474,215.21924l1.92894,-2.97834l1.45423,0.1654l-2.02902,2.8876z" fill="#000000"></path><path d="M192.01868,215.21924l1.92894,-2.97834l1.45423,0.1654l-2.02902,2.8876z" fill="#000000"></path><path d="M195.00151,215.33019l1.92894,-2.97834l1.45423,0.16539l-2.02902,2.8876z" fill="#000000"></path><path d="M198.82565,215.33019l1.92894,-2.97834l1.45423,0.1654l-2.02902,2.8876z" fill="#000000"></path><path d="M201.73199,215.16375l1.92894,-2.97834l1.45423,0.16539l-2.02902,2.8876z" fill="#000000"></path><path d="M204.4089,215.10828l1.92894,-2.97834l1.45423,0.1654l-2.02902,2.8876z" fill="#000000"></path><path d="M207.16227,215.33019l1.92894,-2.97834l1.45423,0.16539l-2.02902,2.8876z" fill="#000000"></path><path d="M210.45104,215.21924l1.92894,-2.97834l1.45423,0.16539l-2.02902,2.8876z" fill="#000000"></path><path d="M214.12221,215.08055l1.92894,-2.97834l1.45423,0.1654l-2.02902,2.8876z" fill="#000000"></path><path d="M217.02855,215.1915l1.92894,-2.97834l1.45423,0.1654l-2.02902,2.8876z" fill="#000000"></path><path d="M219.78194,215.30245l1.92894,-2.97834l1.45423,0.1654l-2.02902,2.8876z" fill="#000000"></path><path d="M222.30588,215.30245l1.92894,-2.97834l1.45423,0.1654l-2.02902,2.8876z" fill="#000000"></path><path d="M225.2887,215.41339l1.92894,-2.97834l1.45423,0.1654l-2.02902,2.8876z" fill="#000000"></path><path d="M229.11285,215.4134l1.92894,-2.97834l1.45423,0.16539l-2.02902,2.8876z" fill="#000000"></path><path d="M232.01919,215.24697l1.92894,-2.97834l1.45423,0.1654l-2.02902,2.8876z" fill="#000000"></path><path d="M234.69608,215.1915l1.92894,-2.97834l1.45423,0.1654l-2.02902,2.8876z" fill="#000000"></path><path d="M237.44947,215.41339l1.92894,-2.97834l1.45423,0.1654l-2.02902,2.8876z" fill="#000000"></path><path d="M240.73823,215.30245l1.92894,-2.97834l1.45423,0.1654l-2.02902,2.8876z" fill="#000000"></path><path d="M244.63885,215.16376l1.92894,-2.97834l1.45423,0.1654l-2.02902,2.8876z" fill="#000000"></path><path d="M247.54519,215.27471l1.92894,-2.97834l1.45423,0.16539l-2.02902,2.8876z" fill="#000000"></path><path d="M250.29858,215.38565l1.92894,-2.97834l1.45423,0.1654l-2.02902,2.8876z" fill="#000000"></path><path d="M252.82251,215.38565l1.92894,-2.97834l1.45423,0.1654l-2.02902,2.8876z" fill="#000000"></path><path d="M255.80534,215.4966l1.92894,-2.97834l1.45423,0.16539l-2.02902,2.8876z" fill="#000000"></path><path d="M259.62949,215.4966l1.92894,-2.97834l1.45423,0.16539l-2.02902,2.8876z" fill="#000000"></path><path d="M262.53583,215.33019l1.92894,-2.97834l1.45423,0.1654l-2.02902,2.8876z" fill="#000000"></path><path d="M265.21273,215.27471l1.92894,-2.97834l1.45423,0.16539l-2.02902,2.8876z" fill="#000000"></path><path d="M267.96612,215.4966l1.92894,-2.97834l1.45423,0.16539l-2.02902,2.8876z" fill="#000000"></path><path d="M271.25487,215.38565l1.92894,-2.97834l1.45423,0.1654l-2.02902,2.8876z" fill="#000000"></path><path d="M274.92605,215.24697l1.92894,-2.97834l1.45423,0.1654l-2.02902,2.8876z" fill="#000000"></path><path d="M277.83239,215.35793l1.92894,-2.97834l1.45423,0.16539l-2.02902,2.8876z" fill="#000000"></path><path d="M280.58578,215.46886l1.92894,-2.97834l1.45423,0.1654l-2.02902,2.8876z" fill="#000000"></path><path d="M283.10971,215.46886l1.92894,-2.97834l1.45423,0.1654l-2.02902,2.8876z" fill="#000000"></path><path d="M286.09254,215.57981l1.92894,-2.97834l1.45423,0.16539l-2.02902,2.8876z" fill="#000000"></path><path d="M289.91668,215.57981l1.92894,-2.97834l1.45423,0.16539l-2.02902,2.8876z" fill="#000000"></path></g><path d="M294.21284,139.20735v14.83676h-110.00454v-14.83676z" data-paper-data="{&quot;index&quot;:null}" fill="#6b6b6b" stroke="none" stroke-linecap="butt"></path><g data-paper-data="{&quot;index&quot;:null}" stroke="none" stroke-linecap="butt"><path d="M184.43776,156.46681v-2.84455h110.59279v2.84455z" fill="#ffde00"></path><path d="M292.90245,156.59702l-2.02902,-2.8876l1.45423,-0.16539l1.92894,2.97834z" fill="#000000"></path><path d="M289.99611,156.70795l-2.02902,-2.8876l1.45423,-0.16539l1.92894,2.97834z" fill="#000000"></path><path d="M287.24273,156.81891l-2.02902,-2.8876l1.45423,-0.16539l1.92894,2.97834z" fill="#000000"></path><path d="M284.7188,156.81891l-2.02902,-2.8876l1.45423,-0.16539l1.92894,2.97834z" fill="#000000"></path><path d="M281.73597,156.92986l-2.02902,-2.8876l1.45423,-0.16539l1.92894,2.97834z" fill="#000000"></path><path d="M277.91183,156.92986l-2.02902,-2.8876l1.45423,-0.1654l1.92894,2.97834z" fill="#000000"></path><path d="M275.00547,156.76343l-2.02902,-2.8876l1.45423,-0.16539l1.92894,2.97834z" fill="#000000"></path><path d="M272.32858,156.70795l-2.02902,-2.8876l1.45423,-0.16539l1.92894,2.97834z" fill="#000000"></path><path d="M269.57519,156.92986l-2.02902,-2.8876l1.45423,-0.16539l1.92894,2.97834z" fill="#000000"></path><path d="M266.28644,156.81891l-2.02902,-2.8876l1.45423,-0.16539l1.92894,2.97834z" fill="#000000"></path><path d="M262.61527,156.68023l-2.02902,-2.8876l1.45423,-0.16539l1.92894,2.97834z" fill="#000000"></path><path d="M259.70891,156.79117l-2.02902,-2.8876l1.45423,-0.1654l1.92894,2.97834z" fill="#000000"></path><path d="M256.95553,156.90212l-2.02902,-2.8876l1.45423,-0.1654l1.92894,2.97834z" fill="#000000"></path><path d="M254.4316,156.90212l-2.02902,-2.8876l1.45423,-0.1654l1.92894,2.97834z" fill="#000000"></path><path d="M251.44877,157.01307l-2.02902,-2.8876l1.45423,-0.16539l1.92894,2.97834z" fill="#000000"></path><path d="M247.62463,157.01307l-2.02902,-2.8876l1.45423,-0.16539l1.92894,2.97834z" fill="#000000"></path><path d="M244.71829,156.84664l-2.02902,-2.8876l1.45423,-0.16539l1.92894,2.97834z" fill="#000000"></path><path d="M242.04138,156.79117l-2.02902,-2.8876l1.45423,-0.1654l1.92894,2.97834z" fill="#000000"></path><path d="M239.28801,157.01307l-2.02902,-2.8876l1.45423,-0.16539l1.92894,2.97834z" fill="#000000"></path><path d="M235.99924,156.90212l-2.02902,-2.8876l1.45423,-0.1654l1.92894,2.97834z" fill="#000000"></path><path d="M232.09861,156.76343l-2.02902,-2.8876l1.45423,-0.16539l1.92894,2.97834z" fill="#000000"></path><path d="M229.19227,156.87438l-2.02902,-2.8876l1.45423,-0.16539l1.92894,2.97834z" fill="#000000"></path><path d="M226.43888,156.98533l-2.02902,-2.8876l1.45423,-0.16539l1.92894,2.97834z" fill="#000000"></path><path d="M223.91495,156.98533l-2.02902,-2.8876l1.45423,-0.16539l1.92894,2.97834z" fill="#000000"></path><path d="M220.93212,157.09628l-2.02902,-2.8876l1.45423,-0.1654l1.92894,2.97834z" fill="#000000"></path><path d="M217.10798,157.09628l-2.02902,-2.8876l1.45423,-0.16539l1.92894,2.97834z" fill="#000000"></path><path d="M214.20163,156.92986l-2.02902,-2.8876l1.45423,-0.1654l1.92894,2.97834z" fill="#000000"></path><path d="M211.52473,156.87438l-2.02902,-2.8876l1.45423,-0.16539l1.92894,2.97834z" fill="#000000"></path><path d="M208.77136,157.09628l-2.02902,-2.8876l1.45423,-0.1654l1.92894,2.97834z" fill="#000000"></path><path d="M205.48259,156.98533l-2.02902,-2.8876l1.45423,-0.16539l1.92894,2.97834z" fill="#000000"></path><path d="M201.81142,156.84664l-2.02902,-2.8876l1.45423,-0.16539l1.92894,2.97834z" fill="#000000"></path><path d="M198.90507,156.9576l-2.02902,-2.8876l1.45423,-0.16539l1.92894,2.97834z" fill="#000000"></path><path d="M196.1517,157.06855l-2.02902,-2.8876l1.45423,-0.16539l1.92894,2.97834z" fill="#000000"></path><path d="M193.62775,157.06855l-2.02902,-2.8876l1.45423,-0.16539l1.92894,2.97834z" fill="#000000"></path><path d="M190.64492,157.1795l-2.02902,-2.8876l1.45423,-0.16539l1.92894,2.97834z" fill="#000000"></path><path d="M186.82078,157.1795l-2.02902,-2.8876l1.45423,-0.16539l1.92894,2.97834z" fill="#000000"></path></g><g><path d="M198.64375,157.29553v-15.14359h9.40739v15.14359z" fill="#cccccc" stroke="#000000" stroke-linecap="butt"></path><path d="M206.98994,150.41209l-1.31934,1.54878l-5.16258,0.05736l-0.97516,-1.31934" fill="none" stroke="#4a4a4a" stroke-linecap="round"></path><path d="M206.58842,153.62436l-1.31934,1.54878h-4.70369l-1.26197,-1.54878" fill="none" stroke="#4a4a4a" stroke-linecap="round"></path><path d="M200.39331,148.1979l2.70291,-4.26774v0l2.63177,4.26774z" fill="#ffd200" stroke="none" stroke-linecap="butt"></path><path d="M202.85987,145.24949l-0.05736,0.97516l0.7457,0.11473l-0.45889,1.08988l-0.51626,-0.40154" fill="none" stroke="#000000" stroke-linecap="round"></path><path d="M203.08933,147.54397l0.63099,-0.34418" fill="none" stroke="#000000" stroke-linecap="round"></path></g><path d="M181.97051,223.95031v-84.89593h4.47425v84.89593z" fill="#a07640" stroke="none" stroke-linecap="butt"></path><g stroke="#dda86a"><path d="M199.45296,208.86628l-1.00322,-5.62247l5.48191,-0.97813l1.00322,5.62247z" fill="#bb794b" stroke-linecap="butt"></path><path d="M204.69895,207.78521l-6.4475,-4.43349" fill="none" stroke-linecap="round"></path><path d="M203.79604,202.72498l-4.26027,6.19903" fill="none" stroke-linecap="round"></path><path d="M200.34416,207.76453l-0.66463,-3.72489l3.58432,-0.63955l0.66463,3.72489z" fill="none" stroke-linecap="butt"></path></g><g stroke="#dda86a"><path d="M203.49531,207.402l0.01056,-5.71126l5.56847,0.0103l-0.01056,5.71126z" fill="#bb794b" stroke-linecap="butt"></path><path d="M208.84987,207.26911l-5.55833,-5.50737" fill="none" stroke-linecap="round"></path><path d="M203.56657,207.47353l5.29281,-5.34455" fill="none" stroke-linecap="round"></path><path d="M204.56789,206.4759l0.00699,-3.78372l3.64093,0.00672l-0.00699,3.78372z" fill="none" stroke-linecap="butt"></path></g><g stroke="#dda86a"><path d="M201.47614,203.48644l-1.6938,-5.45433l5.31797,-1.65144l1.6938,5.45433z" fill="#bb794b" stroke-linecap="butt"></path><path d="M206.54722,201.76215l-6.94825,-3.59834" fill="none" stroke-linecap="round"></path><path d="M201.56549,203.53343l3.45732,-6.68019" fill="none" stroke-linecap="round"></path><path d="M202.22358,202.28252l-1.12214,-3.6135l3.47713,-1.0798l1.12214,3.6135z" fill="none" stroke-linecap="butt"></path></g><path d="M295.36008,140.35459v14.83676h-110.00454v-14.83676z" data-paper-data="{&quot;index&quot;:null}" fill="#6b6b6b" stroke="none" stroke-linecap="butt"></path><g data-paper-data="{&quot;index&quot;:null}" stroke="none" stroke-linecap="butt"><path d="M185.585,157.61405v-2.84455h110.59279v2.84455z" fill="#ffde00"></path><path d="M294.04969,157.74426l-2.02902,-2.8876l1.45423,-0.16539l1.92894,2.97834z" fill="#000000"></path><path d="M291.14335,157.85521l-2.02902,-2.8876l1.45423,-0.16539l1.92894,2.97834z" fill="#000000"></path><path d="M288.38997,157.96616l-2.02902,-2.8876l1.45423,-0.16539l1.92894,2.97834z" fill="#000000"></path><path d="M285.86604,157.96616l-2.02902,-2.8876l1.45423,-0.16539l1.92894,2.97834z" fill="#000000"></path><path d="M282.88321,158.0771l-2.02902,-2.8876l1.45423,-0.16539l1.92894,2.97834z" fill="#000000"></path><path d="M279.05907,158.0771l-2.02902,-2.8876l1.45423,-0.1654l1.92894,2.97834z" fill="#000000"></path><path d="M276.15271,157.91069l-2.02902,-2.8876l1.45423,-0.16539l1.92894,2.97834z" fill="#000000"></path><path d="M273.47582,157.85521l-2.02902,-2.8876l1.45423,-0.16539l1.92894,2.97834z" fill="#000000"></path><path d="M270.72243,158.0771l-2.02902,-2.8876l1.45423,-0.16539l1.92894,2.97834z" fill="#000000"></path><path d="M267.43368,157.96615l-2.02902,-2.8876l1.45423,-0.16539l1.92894,2.97834z" fill="#000000"></path><path d="M263.76251,157.82747l-2.02902,-2.8876l1.45423,-0.16539l1.92894,2.97834z" fill="#000000"></path><path d="M260.85615,157.93842l-2.02902,-2.8876l1.45423,-0.1654l1.92894,2.97834z" fill="#000000"></path><path d="M258.10278,158.04936l-2.02902,-2.8876l1.45423,-0.1654l1.92894,2.97834z" fill="#000000"></path><path d="M255.57884,158.04936l-2.02902,-2.8876l1.45423,-0.1654l1.92894,2.97834z" fill="#000000"></path><path d="M252.59601,158.16031l-2.02902,-2.8876l1.45423,-0.16539l1.92894,2.97834z" fill="#000000"></path><path d="M248.77187,158.16031l-2.02902,-2.8876l1.45423,-0.16539l1.92894,2.97834z" fill="#000000"></path><path d="M245.86553,157.9939l-2.02902,-2.8876l1.45423,-0.16539l1.92894,2.97834z" fill="#000000"></path><path d="M243.18862,157.93842l-2.02902,-2.8876l1.45423,-0.1654l1.92894,2.97834z" fill="#000000"></path><path d="M240.43525,158.16031l-2.02902,-2.8876l1.45423,-0.16539l1.92894,2.97834z" fill="#000000"></path><path d="M237.14648,158.04936l-2.02902,-2.8876l1.45423,-0.1654l1.92894,2.97834z" fill="#000000"></path><path d="M233.24585,157.91069l-2.02902,-2.8876l1.45423,-0.16539l1.92894,2.97834z" fill="#000000"></path><path d="M230.33951,158.02162l-2.02902,-2.8876l1.45423,-0.16539l1.92894,2.97834z" fill="#000000"></path><path d="M227.58614,158.13257l-2.02902,-2.8876l1.45423,-0.16539l1.92894,2.97834z" fill="#000000"></path><path d="M225.06219,158.13257l-2.02902,-2.8876l1.45423,-0.16539l1.92894,2.97834z" fill="#000000"></path><path d="M222.07936,158.24353l-2.02902,-2.8876l1.45423,-0.1654l1.92894,2.97834z" fill="#000000"></path><path d="M218.25523,158.24353l-2.02902,-2.8876l1.45423,-0.16539l1.92894,2.97834z" fill="#000000"></path><path d="M215.34887,158.0771l-2.02902,-2.8876l1.45423,-0.1654l1.92894,2.97834z" fill="#000000"></path><path d="M212.67197,158.02162l-2.02902,-2.8876l1.45423,-0.16539l1.92894,2.97834z" fill="#000000"></path><path d="M209.9186,158.24353l-2.02902,-2.8876l1.45423,-0.1654l1.92894,2.97834z" fill="#000000"></path><path d="M206.62983,158.13257l-2.02902,-2.8876l1.45423,-0.16539l1.92894,2.97834z" fill="#000000"></path><path d="M202.95866,157.9939l-2.02902,-2.8876l1.45423,-0.16539l1.92894,2.97834z" fill="#000000"></path><path d="M200.05231,158.10484l-2.02902,-2.8876l1.45423,-0.16539l1.92894,2.97834z" fill="#000000"></path><path d="M197.29894,158.21579l-2.02902,-2.8876l1.45423,-0.16539l1.92894,2.97834z" fill="#000000"></path><path d="M194.77499,158.21579l-2.02902,-2.8876l1.45423,-0.16539l1.92894,2.97834z" fill="#000000"></path><path d="M191.79218,158.32674l-2.02902,-2.8876l1.45423,-0.16539l1.92894,2.97834z" fill="#000000"></path><path d="M187.96803,158.32674l-2.02902,-2.8876l1.45423,-0.16539l1.92894,2.97834z" fill="#000000"></path></g><g><path d="M327.4555,167.59815l-0.32514,14.83319l-33.70483,-0.7388l0.32514,-14.83319z" data-paper-data="{&quot;index&quot;:null}" fill="#8e8e8e" stroke="#777777" stroke-linecap="butt"></path><path d="M293.60183,184.11967l0.06233,-2.84386l33.60476,0.73661l-0.06233,2.84386z" fill="#ffde00" stroke="none" stroke-linecap="butt"></path><path d="M326.25043,185.46496l-1.96526,-2.93137l1.45751,-0.13349l1.86321,3.0199z" fill="#000000" stroke="none" stroke-linecap="butt"></path><path d="M323.34842,185.23488l-1.96526,-2.93137l1.45751,-0.13349l1.86321,3.0199z" fill="#000000" stroke="none" stroke-linecap="butt"></path><path d="M320.67339,185.12075l-1.96526,-2.93137l1.45751,-0.13349l1.86321,3.0199z" fill="#000000" stroke="none" stroke-linecap="butt"></path><path d="M317.9158,185.28227l-1.96526,-2.93137l1.45751,-0.13349l1.86321,3.0199z" fill="#000000" stroke="none" stroke-linecap="butt"></path><path d="M314.63026,185.09927l-1.96526,-2.93137l1.45751,-0.13349l1.86321,3.0199z" fill="#000000" stroke="none" stroke-linecap="butt"></path><path d="M310.963,184.88016l-1.96526,-2.93137l1.45751,-0.13349l1.86321,3.0199z" fill="#000000" stroke="none" stroke-linecap="butt"></path><path d="M308.05492,184.92739l-1.96526,-2.93137l1.45751,-0.13349l1.86321,3.0199z" fill="#000000" stroke="none" stroke-linecap="butt"></path><path d="M305.29978,184.97798l-1.96526,-2.93137l1.45751,-0.13349l1.86321,3.0199z" fill="#000000" stroke="none" stroke-linecap="butt"></path><path d="M302.77645,184.92268l-1.96526,-2.93137l1.45751,-0.13349l1.86321,3.0199z" fill="#000000" stroke="none" stroke-linecap="butt"></path><path d="M299.7919,184.96822l-1.96526,-2.93137l1.45751,-0.13349l1.86321,3.0199z" fill="#000000" stroke="none" stroke-linecap="butt"></path><path d="M295.96868,184.88442l-1.96526,-2.93137l1.45751,-0.13349l1.86321,3.0199z" fill="#000000" stroke="none" stroke-linecap="butt"></path><path d="M293.45257,181.18946l34.05494,-13.84934" fill="none" stroke="#777777" stroke-linecap="round"></path><path d="M326.83919,181.78037l-33.17245,-15.16338" fill="none" stroke="#777777" stroke-linecap="round"></path></g><g data-paper-data="{&quot;index&quot;:null}"><path d="M292.73566,201.76885l0.23533,-14.83489l33.70868,0.53474l-0.23533,14.83489z" data-paper-data="{&quot;index&quot;:null}" fill="#8e8e8e" stroke="#777777" stroke-linecap="butt"></path><path d="M326.84745,185.04835l-0.04512,2.84419l-33.60861,-0.53314l0.04512,-2.84419z" fill="#ffde00" stroke="none" stroke-linecap="butt"></path><path d="M327.26774,184.50011l-1.97594,2.94736l-1.45142,-0.18844l2.07457,-2.85505z" fill="#000000" stroke="none" stroke-linecap="butt"></path><path d="M324.35911,184.62042l-1.97594,2.94736l-1.45142,-0.18844l2.07457,-2.85504z" fill="#000000" stroke="none" stroke-linecap="butt"></path><path d="M321.68167,184.63342l-1.97594,2.94736l-1.45143,-0.18844l2.07457,-2.85505z" fill="#000000" stroke="none" stroke-linecap="butt"></path><path d="M318.93215,184.36788l-1.97594,2.94736l-1.45143,-0.18844l2.07457,-2.85505z" fill="#000000" stroke="none" stroke-linecap="butt"></path><path d="M315.64205,184.42665l-1.97594,2.94736l-1.45142,-0.18844l2.07457,-2.85505z" fill="#000000" stroke="none" stroke-linecap="butt"></path><path d="M311.96912,184.50709l-1.97594,2.94736l-1.45142,-0.18844l2.07457,-2.85505z" fill="#000000" stroke="none" stroke-linecap="butt"></path><path d="M309.06491,184.35005l-1.97594,2.94736l-1.45143,-0.18844l2.07457,-2.85505z" fill="#000000" stroke="none" stroke-linecap="butt"></path><path d="M306.31364,184.19546l-1.97594,2.94736l-1.45143,-0.18844l2.07457,-2.85505z" fill="#000000" stroke="none" stroke-linecap="butt"></path><path d="M303.79002,184.15542l-1.97594,2.94736l-1.45143,-0.18844l2.07457,-2.85505z" fill="#000000" stroke="none" stroke-linecap="butt"></path><path d="M300.80933,183.99718l-1.97594,2.94736l-1.45143,-0.18844l2.07457,-2.85505z" fill="#000000" stroke="none" stroke-linecap="butt"></path><path d="M296.98566,183.93652l-1.97594,2.94736l-1.45143,-0.18844l2.07457,-2.85505z" fill="#000000" stroke="none" stroke-linecap="butt"></path><path d="M326.48657,202.56338l-33.50756,-15.12568" fill="none" stroke="#777777" stroke-linecap="round"></path><path d="M326.36412,188.1082l-33.7215,13.89966" fill="none" stroke="#777777" stroke-linecap="round"></path></g></g><path d="M311.84495,163.83482v-3.67117h20.76508v3.67117z" fill="#6a3e00" stroke="none" stroke-width="0" stroke-linecap="butt"></path><path d="M321.82596,160.39309v-5.39204h19.04422v5.39204z" fill="#6a3e00" stroke="none" stroke-width="0" stroke-linecap="butt"></path><path d="M338.11681,157.18082v-5.39204h19.04422v5.39204z" fill="#6a3e00" stroke="none" stroke-width="0" stroke-linecap="butt"></path><path d="M356.01379,153.62436v-5.39204h19.04422v5.39204z" fill="#6a3e00" stroke="none" stroke-width="0" stroke-linecap="butt"></path><path d="M372.64879,150.75625v-5.39204h19.04422v5.39204z" fill="#6a3e00" stroke="none" stroke-width="0" stroke-linecap="butt"></path><path d="M387.3335,194.12202v-54.494h22.83012v54.494c0,0 -8.1919,4.81842 -12.16077,4.81842c-3.60641,0 -10.66936,-4.81842 -10.66936,-4.81842z" fill="#bcbcbc" stroke="none" stroke-width="0" stroke-linecap="butt"></path><path d="M387.21877,180.46983v-6.08038c0,0 2.49864,-3.55645 3.67117,-3.55645c1.41886,0 4.2448,3.55645 4.2448,3.55645v6.08038z" fill="#6a6a6a" stroke="none" stroke-width="0" stroke-linecap="butt"></path><path d="M392.38137,174.61889c0,0.88704 -0.66773,1.60615 -1.49142,1.60615c-0.82369,0 -1.49142,-0.71909 -1.49142,-1.60615c0,-0.88704 0.66773,-1.60615 1.49142,-1.60615c0.82369,0 1.49142,0.71909 1.49142,1.60615z" fill="url(#color-3)" stroke="none" stroke-width="0" stroke-linecap="butt"></path><path d="M324.54181,145.60507c0,3.10467 -2.825,5.62149 -6.30983,5.62149c-3.48482,0 -6.30983,-2.51682 -6.30983,-5.62149c0,-3.10467 2.825,-5.62149 6.30983,-5.62149c3.48482,0 6.30983,2.51682 6.30983,5.62149z" fill="url(#color-4)" stroke="none" stroke-width="0" stroke-linecap="butt"></path><path d="M317.50538,145.83452c0,3.10467 -2.825,5.62149 -6.30983,5.62149c-3.48482,0 -6.30983,-2.51682 -6.30983,-5.62149c0,-3.10467 2.825,-5.62149 6.30983,-5.62149c3.48482,0 6.30983,2.51682 6.30983,5.62149z" fill="url(#color-5)" stroke="none" stroke-width="0" stroke-linecap="butt"></path><path d="M311.23379,152.22083v-1.52965h7.18938v1.52965c0,0 -2.56915,0.9178 -3.82414,0.9178c-1.12788,0 -3.36525,-0.9178 -3.36525,-0.9178z" fill="#b7b7b7" stroke="#000000" stroke-width="0.5" stroke-linecap="butt"></path><path d="M311.91079,151.31254l-1.58427,-4.14346l1.07158,-0.40973l1.58427,4.14346z" fill="#dfdfdf" stroke="#000000" stroke-width="0.5" stroke-linecap="butt"></path><path d="M315.57643,150.54208l1.58427,-4.14346l1.07158,0.40973l-1.58427,4.14346z" data-paper-data="{&quot;index&quot;:null}" fill="#dfdfdf" stroke="#000000" stroke-width="0.5" stroke-linecap="butt"></path><path d="M308.17448,147.17296v-2.52393h4.74193v2.52393z" fill="#ffeb00" stroke="none" stroke-width="0" stroke-linecap="butt"></path><path d="M316.20519,147.32593v-2.52393h4.74193v2.52393z" fill="#ffeb00" stroke="none" stroke-width="0" stroke-linecap="butt"></path><path d="M340.87053,205.47971l-0.34418,-41.64489l6.42456,1.83559v41.64489z" fill="#814b00" stroke="none" stroke-width="0" stroke-linecap="butt"></path><path d="M296.35753,211.1012v-5.62149h44.85717l5.39204,1.60615c0,0 -5.57323,4.01534 -5.85093,4.01534c-2.73149,0 -44.39828,0 -44.39828,0z" fill="#814b00" stroke="none" stroke-width="0" stroke-linecap="butt"></path><path d="M403.62503,156.60718l-15.71721,-12.27549" fill="none" stroke="#737373" stroke-width="0.5" stroke-linecap="round"></path><path d="M387.56364,155.11578l15.6025,-11.47242" fill="none" stroke="#737373" stroke-width="0.5" stroke-linecap="round"></path><path d="M387.21947,161.42561l16.29083,13.53746" fill="none" stroke="#737373" stroke-width="0.5" stroke-linecap="round"></path><path d="M387.90782,170.3741l15.37305,-8.14542" fill="none" stroke="#737373" stroke-width="0.5" stroke-linecap="round"></path><path d="M387.56364,183.10848l15.14359,12.16077" fill="none" stroke="#737373" stroke-width="0.5" stroke-linecap="round"></path><path d="M387.10474,192.40116l16.86447,-9.29266" fill="none" stroke="#737373" stroke-width="0.5" stroke-linecap="round"></path></g></g></svg>