<svg version="1.1" xmlns="http://www.w3.org/2000/svg" xmlns:xlink="http://www.w3.org/1999/xlink" width="168.15203" height="146.82439" viewBox="0,0,168.15203,146.82439"><defs><linearGradient x1="246.86433" y1="213.65338" x2="274.75622" y2="249.71025" gradientUnits="userSpaceOnUse" id="color-1"><stop offset="0" stop-color="#0074ff"></stop><stop offset="1" stop-color="#2785ff"></stop></linearGradient></defs><g transform="translate(-155.87212,-107.0625)"><g data-paper-data="{&quot;isPaintingLayer&quot;:true}" fill-rule="nonzero" stroke-linejoin="miter" stroke-miterlimit="10" stroke-dasharray="" stroke-dashoffset="0" style="mix-blend-mode: normal"><path d="M158.22917,252.6875v-98h163.66667v98z" fill="#ffca66" stroke="#cc8000" stroke-width="2" stroke-linecap="butt"></path><g stroke-linecap="butt"><path d="M174.47721,237.59085v-67.8067h131.50391v67.8067z" fill="#00ff6f" stroke="#000000" stroke-width="2"></path><path d="M185.90472,188.01953c-0.71151,-0.23717 -0.47434,-0.94868 -0.47434,-0.94868l0.24064,-0.72191c0.63684,-1.90572 0.6379,-3.67413 2.69533,-4.3406c0,0 0.72761,-0.1819 0.90951,0.54571c0.1819,0.72761 -0.54571,0.90951 -0.54571,0.90951c-1.20351,0.12004 -1.27007,2.25906 -1.63611,3.35973l-0.24064,0.72191c0,0 -0.23717,0.71151 -0.94868,0.47434z" fill="#007834" stroke="none" stroke-width="0.5"></path><path d="M187.89159,188.89459c-0.62404,-0.41603 -0.20801,-1.04006 -0.20801,-1.04006l0.43157,-0.63539c0.34385,-1.06727 0.63671,-2.1328 0.90867,-3.22128c0,0 0.1819,-0.72761 0.90951,-0.54571c0.72761,0.1819 0.54571,0.90951 0.54571,0.90951c-0.2982,1.19212 -0.61925,2.35421 -1.01641,3.51651l-0.53097,0.80842c0,0 -0.41603,0.62404 -1.04006,0.20801z" fill="#007834" stroke="none" stroke-width="0.5"></path><path d="M214.71875,226.29663c-0.72761,0.1819 -0.90951,-0.54571 -0.90951,-0.54571l-0.24219,-0.96887c-0.20719,-0.89676 -0.364,-1.80542 -0.49457,-2.71649c0,0 -0.10607,-0.74246 0.6364,-0.84853c0.74246,-0.10607 0.84853,0.6364 0.84853,0.6364c0.12308,0.86449 0.27046,1.72691 0.46797,2.57748l0.23908,0.95621c0,0 0.1819,0.72761 -0.54571,0.90951z" fill="#007834" stroke="none" stroke-width="0.5"></path><path d="M218.14639,225.11585c-0.75,0 -0.75,-0.75 -0.75,-0.75l0.05364,-0.20273c-0.52474,-1.32394 -0.77199,-2.46221 -0.77555,-3.88807c0,0 0,-0.75 0.75,-0.75c0.75,0 0.75,0.75 0.75,0.75c-0.00351,1.23723 0.20465,2.18387 0.66826,3.33099l0.05364,0.75981c0,0 0,0.75 -0.75,0.75z" fill="#007834" stroke="none" stroke-width="0.5"></path><path d="M271.80805,215.73107c-0.75,0 -0.75,-0.75 -0.75,-0.75l0.03849,-0.47781c0.22366,-0.66375 0.33897,-1.36077 0.45299,-2.05185c0,0 0.1233,-0.7398 0.86309,-0.6165c0.7398,0.1233 0.6165,0.86309 0.6165,0.86309c-0.12916,0.76783 -0.26541,1.54024 -0.50955,2.27959l0.03849,0.00346c0,0 0,0.75 -0.75,0.75z" fill="#007834" stroke="none" stroke-width="0.5"></path><path d="M275.12789,217.19585c-0.53033,-0.53033 0,-1.06066 0,-1.06066l0.12785,-0.09618c0.64049,-1.05236 0.82581,-1.75278 1.11869,-2.92429c0,0 0.1819,-0.72761 0.90951,-0.54571c0.72761,0.1819 0.54571,0.90951 0.54571,0.90951c-0.32563,1.30251 -0.58863,2.1528 -1.28766,3.33223l-0.35342,0.38509c0,0 -0.53033,0.53033 -1.06066,0z" fill="#007834" stroke="none" stroke-width="0.5"></path><path d="M295.43936,189.04152c-0.53033,0.53033 -1.06066,0 -1.06066,0l-0.43791,-0.58906c-0.62957,-2.62337 -2.10454,-5.1347 -3.31211,-7.54682c0,0 -0.33541,-0.67082 0.33541,-1.00623c0.67082,-0.33541 1.00623,0.33541 1.00623,0.33541c1.26358,2.53049 2.71831,5.1124 3.42568,7.85384l0.04336,-0.10779c0,0 0.53033,0.53033 0,1.06066z" fill="#007834" stroke="none" stroke-width="0.5"></path><path d="M296.59349,184.20785c-0.75,0 -0.75,-0.75 -0.75,-0.75l0.12596,-0.06525c-0.84805,-1.27207 -1.63868,-2.56906 -2.42543,-3.88032c0,0 -0.38587,-0.64312 0.25725,-1.02899c0.64312,-0.38587 1.02899,0.25725 1.02899,0.25725c0.77455,1.29091 1.5524,2.56771 2.38727,3.82001l0.12596,0.8973c0,0 0,0.75 -0.75,0.75z" fill="#007834" stroke="none" stroke-width="0.5"></path><path d="M257.61058,183.00467c-0.75,0 -0.75,-0.75 -0.75,-0.75l0.12596,-0.8973c0.33106,-0.49625 0.67919,-0.9811 1.03467,-1.46028c-0.19809,-0.2213 -0.19809,-0.53005 -0.19809,-0.53005l0.01456,-0.38772c0.13489,-0.66351 0.22885,-1.34155 0.22607,-2.01863c0,0 0,-0.75 0.75,-0.75c0.75,0 0.75,0.75 0.75,0.75c-0.00273,0.77561 -0.10522,1.55183 -0.2552,2.3128l0.01456,0.09355c0,0 0,0.06373 -0.01858,0.15404c0.5382,0.44588 0.10921,1.01787 0.10921,1.01787c-0.40581,0.54081 -0.80428,1.08777 -1.17914,1.65047l0.12596,0.06525c0,0 0,0.75 -0.75,0.75z" fill="#007834" stroke="none" stroke-width="0.5"></path><path d="M260.32281,184.80379c-0.62404,-0.41603 -0.20801,-1.04006 -0.20801,-1.04006l0.47896,-0.71841c1.434,-2.20403 3.92803,-6.09833 6.40506,-7.03677c0,0 0.71151,-0.23717 0.94868,0.47434c0.23717,0.71151 -0.47434,0.94868 -0.47434,0.94868c-1.89353,0.47036 -4.5592,4.79819 -5.6267,6.43881l-0.48358,0.7254c0,0 -0.41603,0.62404 -1.04006,0.20801z" fill="#007834" stroke="none" stroke-width="0.5"></path><path d="M181.08856,221.50632c-0.75,0 -0.75,-0.75 -0.75,-0.75c0,-1.3636 0,-3.44911 0,-4.81271c0,0 0,-0.75 0.75,-0.75c0.75,0 0.75,0.75 0.75,0.75c0,1.3636 0,2.7272 0,4.0908v0.72191c0,0 0,0.75 -0.75,0.75z" fill="#007834" stroke="none" stroke-width="0.5"></path><path d="M183.46681,219.07187c0,-0.40602 0.2198,-0.59224 0.42142,-0.67764c0.70144,-2.26336 0.78176,-4.0355 0.78176,-6.54142c0,0 0,-0.75 0.75,-0.75c0.75,0 0.75,0.75 0.75,0.75c0,2.80739 -0.13084,4.82229 -1.00103,7.45623l-0.95215,0.51283c0,0 -0.75,0 -0.75,-0.75z" fill="#007834" stroke="none" stroke-width="0.5"></path><path d="M197.21112,190.88945c0.75,0 0.75,0.75 0.75,0.75v0.48127c0,5.90065 0.99648,10.61069 2.84914,16.12603c0,0 0.23717,0.71151 -0.47434,0.94868c-0.71151,0.23717 -0.94868,-0.47434 -0.94868,-0.47434c-1.8768,-5.68085 -2.92611,-10.52974 -2.92611,-16.60037v-0.48127c0,0 0,-0.75 0.75,-0.75z" fill="#00863a" stroke="none" stroke-width="0.5"></path><path d="M199.09019,191.13612c-0.07198,0.41513 -0.19538,0.81804 -0.40568,1.17409c-0.19879,0.56406 -0.15817,1.28517 -0.59638,1.69218c-2.26085,2.09982 -3.77036,-2.1642 -4.02876,-3.57305c-0.1169,-0.63739 0.39088,-1.64918 -0.19086,-1.93468c-1.19515,-0.58653 -4.84557,-2.13607 -4.44842,-3.99606c0.10876,-0.50937 0.94236,-0.45447 1.44175,-0.60241c1.05107,-0.31135 3.22098,-0.51443 4.41245,0.10936c-0.51478,-1.61768 -1.64197,-3.61486 -0.65941,-4.98689c1.60622,-2.24288 4.82231,-0.28747 5.29935,1.75962c0.12337,0.66552 0.40406,4.73257 0.69613,4.96049c0.17766,0.13864 0.37942,-0.3139 0.6045,-0.30274c1.65285,0.08192 4.40821,1.54008 4.81335,3.24166c0.63485,2.66636 -4.23584,2.66764 -6.93803,2.45844z" fill="#ff0000" stroke="none" stroke-width="0.5"></path><path d="M199.02312,187.29383c-0.00005,0.77403 -0.19744,1.53045 -0.65157,1.82579c-0.16932,0.11012 -0.65562,0.17546 -1.17446,0.15697c-0.60374,0.34273 -1.3077,0.38909 -1.89908,-0.18037c-2.38821,-2.29967 0.97418,-5.95352 3.16534,-3.76235c0.1909,0.1909 0.33947,0.51772 0.43543,0.90374c0.14467,0.10787 0.26552,0.28808 0.26552,0.58913c0,0.20809 -0.05774,0.35845 -0.14117,0.46708z" fill="#ffd200" stroke="none" stroke-width="0.5"></path><path d="M281.72023,233.29944c0.19654,0.39308 0.04758,0.671 -0.10946,0.83374c0.11378,0.22468 0.22718,0.44935 0.28508,0.67166c0.56478,0.53461 0.8384,1.13896 0.56739,1.7458c-0.01825,0.04087 -0.04927,0.07715 -0.09082,0.10935c-0.05564,0.35927 -0.36627,0.63427 -0.74113,0.63427c-0.05572,0 -0.11002,-0.00608 -0.16227,-0.0176l-0.95462,-0.19092c-0.25071,-0.05113 -0.4919,-0.11036 -0.726,-0.17745c-2.29185,0.01707 -4.65096,0.12846 -6.87331,-0.41226c0,0 -0.72761,-0.1819 -0.54571,-0.90951c0.1819,-0.72761 0.90951,-0.54571 0.90951,-0.54571c0.27977,0.07231 0.56307,0.13152 0.84907,0.17988c-0.02294,-0.07193 -0.03532,-0.14858 -0.03532,-0.22812c0,-0.41421 0.33579,-0.75 0.75,-0.75h0.96981c0.03473,0.00046 0.0694,0.00112 0.104,0.00198c-0.75469,-1.71817 2.11869,-1.50363 4.32485,-0.49622l0.47269,-0.78431c0,0 0.67082,-0.33541 1.00623,0.33541zM277.58258,234.18034c0.04956,0.00193 0.09937,0.00411 0.14941,0.00648c-0.42222,-0.29628 -0.5743,-0.39773 -0.14941,-0.00648z" fill="#0074ff" stroke="none" stroke-width="0.5"></path><path d="M255.05857,208.13168c0,7.07004 -6.42612,12.80145 -14.35314,12.80145c-7.92702,0 -14.35314,-5.7314 -14.35314,-12.80145c0,-7.07004 6.42612,-12.80145 14.35314,-12.80145c7.92702,0 14.35314,5.7314 14.35314,12.80145z" fill="#ffd600" stroke="none" stroke-width="0"></path><path d="M237.29015,205.68605c0.21497,0.07332 0.48003,0.25412 0.48003,0.69999c0,0.75 -0.75,0.75 -0.75,0.75l-0.86478,-0.41459c-0.68001,-1.46416 -2.40932,-2.81373 -3.42048,-4.15256c0,0 -0.45,-0.6 0.15,-1.05c0.6,-0.45 1.05,0.15 1.05,0.15c1.02209,1.37111 2.47263,2.57015 3.35524,4.01716z" fill="#000000" stroke="none" stroke-width="0.5"></path><path d="M242.01162,202.45525c-0.53033,0.53033 -1.06066,0 -1.06066,0l-0.38792,-0.38792c-1.00838,-1.01274 -1.70052,-2.05081 -2.95892,-2.79663c0,0 -0.64312,-0.38587 -0.25725,-1.02899c0.38587,-0.64312 1.02899,-0.25725 1.02899,-0.25725c1.36447,0.82723 2.14777,1.92752 3.24784,3.02221l0.38792,0.38792c0,0 0.53033,0.53033 0,1.06066z" fill="#000000" stroke="none" stroke-width="0.5"></path><path d="M249.38215,204.88589c0.53033,0.53033 0,1.06066 0,1.06066l-0.19396,0.19396c-2.55193,2.55193 -5.40804,4.34157 -8.22671,6.47039c0,0 -0.6,0.45 -1.05,-0.15c-0.45,-0.6 0.15,-1.05 0.15,-1.05c2.77692,-2.07004 5.56618,-3.83119 8.06605,-6.33105l0.19396,-0.19396c0,0 0.53033,-0.53033 1.06066,0z" fill="#000000" stroke="none" stroke-width="0.5"></path><path d="M234.72981,223.04007l24.26905,-18.77338l24.33457,31.45821c-1.42609,-0.78293 -3.06381,-1.22821 -4.80553,-1.22821c-2.25214,0 -4.33039,0.7445 -6.00206,2.00082c-9.41786,-0.10293 -17.8841,0.43802 -26.89011,0.64105z" fill="url(#color-1)" stroke="none" stroke-width="0"></path><path d="M253.04081,207.64068l21.58581,-25.43683l6.80288,5.77295l-21.58581,25.43683z" fill="#ffd600" stroke="none" stroke-width="0"></path><path d="M206.66575,222.93954l32.97341,-5.07283l1.35669,8.81847l-32.97341,5.07283z" fill="#ffd600" stroke="none" stroke-width="0"></path></g><path d="M159.35417,251.5625l5.5,-14l6.5,13.75l7.75,-12.5l9.5,12.25l8.5,-12.75l10,13.5l10.75,-13.5l9.75,12.75l9.25,-13.25l10,14.5l13.5,-14l13,12.75l9,-12.25l11.5,11.75l9.75,-12.5l7,12.75l10.25,-12.75" fill="none" stroke="#cc8000" stroke-width="2" stroke-linecap="round"></path><path d="M321.35416,235.3125l-15.25,-6.25l15,-9l-13.75,-2l13.25,-8.75l-14.75,-5.75l14.75,-7.25l-15,-9.5l15,-7.75l-13.5,-4l4.00773,-3.17594" fill="none" stroke="#cc8000" stroke-width="2" stroke-linecap="round"></path><path d="M321.02084,169.3125l-10.25,-12.75l-7,12.75l-9.75,-12.5l-11.5,11.75l-9,-12.25l-13,12.75l-13.5,-14l-10,14.5l-9.25,-13.25l-9.75,12.75l-10.75,-13.5l-10,13.5l-8.5,-12.75l-9.5,12.25l-7.75,-12.5l-6.5,13.75l-5.5,-14" data-paper-data="{&quot;index&quot;:null}" fill="none" stroke="#cc8000" stroke-width="2" stroke-linecap="round"></path><path d="M163.6119,236.0625l-4.00773,-3.17594l13.5,-4l-15,-7.75l15,-9.5l-14.75,-7.25l14.75,-5.75l-13.25,-8.75l13.75,-2l-15,-9l15.25,-6.25" data-paper-data="{&quot;index&quot;:null}" fill="none" stroke="#cc8000" stroke-width="2" stroke-linecap="round"></path><text transform="translate(177.68751,176.5113) scale(0.12885,0.12885)" font-size="40" xml:space="preserve" fill="#000000" fill-rule="nonzero" stroke="none" stroke-width="1" stroke-linecap="butt" stroke-linejoin="miter" stroke-miterlimit="10" stroke-dasharray="" stroke-dashoffset="0" font-family="Sans Serif" font-weight="normal" text-anchor="start" style="mix-blend-mode: normal"><tspan x="0" dy="0">artist: You_are_Super_sus</tspan></text><path d="M184.35417,153.5625l43.5,-43.5l64.75,43.5" fill="none" stroke="#000000" stroke-width="0.5" stroke-linecap="round"></path><path d="M231.60417,110.1875c0,1.58782 -1.28718,2.875 -2.875,2.875c-1.58782,0 -2.875,-1.28718 -2.875,-2.875c0,-1.58782 1.28718,-2.875 2.875,-2.875c1.58782,0 2.875,1.28718 2.875,2.875z" fill="#ababab" stroke="#000000" stroke-width="0.5" stroke-linecap="butt"></path></g></g></svg>