<svg version="1.1" xmlns="http://www.w3.org/2000/svg" xmlns:xlink="http://www.w3.org/1999/xlink" width="101.93526" height="157.30259" viewBox="0,0,101.93526,157.30259"><g transform="translate(-189.03237,-102.01231)"><g data-paper-data="{&quot;isPaintingLayer&quot;:true}" fill-rule="nonzero" stroke-linejoin="miter" stroke-miterlimit="10" stroke-dasharray="" stroke-dashoffset="0" style="mix-blend-mode: normal"><path d="M191.95875,134.09112l97.99332,0.85761l-1.91082,122.66942l-97.99332,-0.85761z" fill="#ffca66" stroke="#cc8000" stroke-width="2" stroke-linecap="butt"></path><path d="M204.6841,255.92812l-12.62947,-10.39816l12.83086,-6.85067l-12.38532,-9.89527l11.88346,-11.36203l-12.14409,-9.1424l12.90091,-12.85026l-13.84143,-13.66253l14.61577,-9.83003l-13.1411,-9.40406l12.86296,-9.60048l-13.37358,-10.90688l13.61583,-9.84171l-0.09941,-0.06796" fill="none" stroke="#cc8000" stroke-width="2" stroke-linecap="round"></path><path d="M207.42807,256.46022l6.42762,-15.17599l8.82426,15.10405l2.1604,-13.72571l8.5947,13.35125l5.92181,-14.68186l7.0773,14.83364l9.67448,-14.88807l7.57435,15.08946l4.15734,-13.45238l3.12894,4.04453" fill="none" stroke="#cc8000" stroke-width="2" stroke-linecap="round"></path><path d="M276.19949,133.97644l12.30507,9.33931l-13.62459,10.59165l12.6353,9.8982l-13.35709,9.09467l14.38226,10.1686l-14.15666,13.33563l12.59735,13.14797l-12.35424,8.85637l11.61494,11.6364l-12.61298,9.6034l12.66741,7.14838l-12.8688,10.10044" data-paper-data="{&quot;index&quot;:null}" fill="none" stroke="#cc8000" stroke-width="2" stroke-linecap="round"></path><path d="M203.97004,138.04269l3.85117,-3.97038l4.59165,13.54578l9.47057,-14.90849l11.14324,15.10989l8.86958,-14.66435l6.66547,14.81613l10.64116,-13.14694l2.19816,13.77241l10.96432,-14.8939l7.256,15.32193" data-paper-data="{&quot;index&quot;:null}" fill="none" stroke="#cc8000" stroke-width="2" stroke-linecap="round"></path><path d="M212.75228,133.58006l32.82312,-31.19821l23.72364,29.89829" fill="none" stroke="#000000" stroke-width="0.5" stroke-linecap="round"></path><path d="M209.6868,239.32006v-90.96496h59.66122v90.96496z" fill="#dadada" stroke="#000000" stroke-width="2" stroke-linecap="butt"></path><path d="M236.04093,238.011c0,1.4227 -1.10508,2.5873 -2.5037,2.68225l-0.0345,0.023l-0.07949,-0.01767c-0.02353,0.00061 -0.04712,0.00091 -0.0708,0.00091c-0.45155,0 -0.87711,-0.11133 -1.25071,-0.30802l-0.52843,-0.26421l-1.25853,-0.20976h-6.01439l-0.02512,0.01675l-0.07537,-0.01675h-0.07491l-0.5993,-0.14982l-0.02957,-0.00657h-4.68864l-1.34425,-0.33606l-0.15535,-0.27186l-0.30703,-0.06141l-0.74391,-1.16899l-0.1564,-0.4692l-0.03314,-0.4309l-0.10482,-0.41928v-2.50237l0.03311,-0.13244l-0.01977,-0.13508l0.15196,-1.5197l0.30983,-4.64753l0.00702,-0.02181l-0.00369,-0.02262l0.1564,-1.87678l0.0427,-0.12543l-0.00862,-0.13223l0.30367,-1.67017l0.14918,-1.04427l0.03588,-0.08806l-0.00323,-0.09504l0.4692,-2.18957l0.06667,-0.13592l0.01161,-0.15094l0.89453,-2.68358l0.28271,-1.2722l0.09051,-0.18102l0.02467,-0.20087l0.70652,-1.83694l0.42514,-1.98399l0.06667,-0.13592l0.01161,-0.15094l0.62559,-1.87678l0.08434,-0.13253l0.02992,-0.15421l1.0294,-2.20588l0.7331,-2.19931l0.08128,-0.12773l0.02821,-0.14874l0.84723,-1.83567l0.72378,-2.60557l0.15751,-0.27772l0.08273,-0.30837l0.54089,-0.9736l0.08619,-0.60332l0.16306,-0.40023l0.09375,-0.42189l0.35745,-0.71489l0.24415,-0.85453l0.24444,-0.4237l0.18982,-0.45082l0.07585,-0.10113l0.04862,-0.29173l0.16013,-0.3683l0.08712,-0.39205l0.31279,-0.62559l0.11056,-0.12898l0.05714,-0.15999l0.05448,-0.08172l0.04346,-0.17381l0.2507,-0.47006l0.20673,-0.49098l0.19083,-0.25444l0.0038,-0.00713l0.00196,-0.00055l0.2726,-0.36347l0.03347,-0.0272l0.01797,-0.0392l0.44767,-0.55958l0.34182,-0.68363l0.28126,-0.32814l0.22235,-0.37059l0.49049,-0.49049l0.35456,-0.47273l0.15018,-0.12203l0.09956,-0.16593l0.10931,-0.10931l0.00656,-0.11814l0.40463,-0.34683l0.34683,-0.40463l0.13392,-0.00744l0.16667,-0.14286l0.31279,-0.1564l1.35263,-0.30058l0.01741,0.0116l0.01871,-0.00936l1.3049,0.46604l0.4692,0.31279l0.05938,0.06533l0.08201,0.00941l0.37442,0.49266l0.41625,0.45787l-0.00568,0.08235l0.05342,0.07029l0.4692,1.09479l0.06018,0.37312l0.13644,0.35246l0.31279,2.50237l-0.00324,0.02672l0.00923,0.02529l0.31279,2.97155l-0.01246,0.08835l0.02509,0.08563l0.15367,3.84185l0.30663,3.37289l-0.01911,0.12282l0.03014,0.12058v10.47865l-0.04693,0.18773l0.01992,0.19249l-0.30041,2.10288l-0.14968,1.94585l-0.06119,0.18358l0.00509,0.19344l-0.24877,1.11949v0.95606l-0.0545,0.21799l0.01792,0.22399l-0.11982,0.7189v0.40308l-0.08027,0.32108v0.33096l-0.12276,0.49104l-0.13678,0.95749l-0.01212,0.02976l0.00256,0.03203l-0.14738,0.88429l-0.12883,1.03067v1.3966l-0.10482,0.41928l-0.03314,0.4309l-0.01843,0.0553v1.26507l0.01675,0.02512l-0.01675,0.07537v0.07491l-0.14982,0.5993l-0.00657,0.02957v0.30951l-0.08027,0.32108v0.33096l-0.07613,0.3045v0.2756l0.01675,0.02512l-0.01675,0.07537v0.07491l-0.14982,0.5993l-0.13401,0.60303l-0.03225,0.0645l0.00329,0.00761l-0.01431,0.034l-0.00895,0.0358l-0.00807,0.0046l-0.17547,0.41676l-0.12925,0.51702l-0.11645,0.06655l-0.08518,0.2023l-0.42442,0.5659l-0.17856,0.26784l-0.03878,0.07756c0.332,0.19366 0.61874,0.45642 0.84052,0.76857l0.06121,0.05247l0.00228,0.04098c0.27318,0.42081 0.43185,0.92284 0.43185,1.46194z" fill="#000000" stroke="none" stroke-width="0.5" stroke-linecap="butt"></path><path d="M247.10783,236.60854l0.00228,-0.04098l0.06121,-0.05247c0.22178,-0.31216 0.50852,-0.57491 0.84052,-0.76857l-0.03878,-0.07756l-0.17856,-0.26783l-0.42442,-0.56589l-0.08518,-0.2023l-0.11645,-0.06655l-0.12926,-0.51702l-0.17548,-0.41676l-0.00807,-0.00461l-0.00895,-0.03579l-0.01431,-0.034l0.00329,-0.00761l-0.03225,-0.0645l-0.13401,-0.60304l-0.14982,-0.5993v-0.07491l-0.01675,-0.07537l0.01675,-0.02513v-0.27559l-0.07613,-0.30451v-0.33096l-0.08027,-0.32108v-0.30951l-0.00657,-0.02957l-0.14982,-0.5993v-0.07491l-0.01674,-0.07539l0.01674,-0.02513v-1.26507l-0.01843,-0.0553l-0.03314,-0.4309l-0.10482,-0.41928v-1.3966l-0.12883,-1.03067l-0.14738,-0.88429l0.00257,-0.03203l-0.01212,-0.02976l-0.13679,-0.95748l-0.12276,-0.49104v-0.33096l-0.08027,-0.32108v-0.40308l-0.11982,-0.71892l0.01792,-0.22398l-0.0545,-0.21799v-0.95606l-0.24877,-1.11949l0.00509,-0.19343l-0.06119,-0.18358l-0.14967,-1.94586l-0.30041,-2.10287l0.01991,-0.19247l-0.04693,-0.18773v-10.47866l0.03014,-0.12058l-0.0191,-0.12282l0.30663,-3.37289l0.15367,-3.84185l0.02508,-0.08563l-0.01246,-0.08837l0.31279,-2.97156l0.00924,-0.02529l-0.00325,-0.02673l0.31279,-2.50236l0.13644,-0.35246l0.06018,-0.37312l0.4692,-1.09478l0.05342,-0.07029l-0.00568,-0.08235l0.41625,-0.45787l0.37442,-0.49266l0.08201,-0.00941l0.05938,-0.06532l0.4692,-0.31279l1.30489,-0.46604l0.01871,0.00936l0.01741,-0.01161l1.35263,0.30058l0.31279,0.1564l0.16665,0.14286l0.13393,0.00744l0.34683,0.40463l0.40463,0.34683l0.00656,0.11814l0.10931,0.1093l0.09956,0.16593l0.15019,0.12203l0.35456,0.47273l0.49049,0.49049l0.22235,0.37059l0.28126,0.32814l0.34182,0.68363l0.44767,0.55958l0.01797,0.0392l0.03347,0.02719l0.2726,0.36348l0.00196,0.00055l0.0038,0.00713l0.19083,0.25443l0.20672,0.49098l0.2507,0.47006l0.04346,0.17381l0.05448,0.08172l0.05714,0.16l0.11056,0.12898l0.31279,0.62559l0.08712,0.39205l0.16014,0.3683l0.04862,0.29173l0.07585,0.10113l0.18982,0.45082l0.24444,0.4237l0.24416,0.85452l0.35744,0.71489l0.09375,0.42189l0.16305,0.40023l0.08619,0.60332l0.54089,0.97361l0.08273,0.30837l0.15751,0.27772l0.72377,2.60557l0.84724,1.83567l0.02821,0.14874l0.08128,0.12771l0.7331,2.19931l1.02942,2.20587l0.02993,0.15422l0.08433,0.13253l0.62559,1.87678l0.01161,0.15094l0.06667,0.13591l0.42514,1.984l0.70652,1.83694l0.02467,0.20088l0.09051,0.18102l0.28271,1.27219l0.89453,2.68358l0.01161,0.15094l0.06667,0.13592l0.46919,2.18957l-0.00322,0.09503l0.03589,0.08808l0.14918,1.04427l0.30367,1.67017l-0.00862,0.13222l0.04269,0.12545l0.15641,1.87678l-0.0037,0.02262l0.00702,0.02182l0.30984,4.64753l0.15198,1.5197l-0.01977,0.13508l0.03311,0.13244v2.50237l-0.10482,0.41927l-0.03314,0.4309l-0.15641,0.4692l-0.74391,1.169l-0.30704,0.06141l-0.15534,0.27186l-1.34425,0.33606h-4.68865l-0.02957,0.00657l-0.5993,0.14982h-0.07491l-0.07539,0.01674l-0.02513,-0.01674h-6.01437l-1.25854,0.20976l-0.52842,0.2642c-0.3736,0.1967 -0.79916,0.30803 -1.25071,0.30803c-0.02368,0 -0.04727,-0.00031 -0.07079,-0.00091l-0.07949,0.01766l-0.03451,-0.023c-1.39862,-0.09495 -2.5037,-1.25954 -2.5037,-2.68224c0,-0.53909 0.15866,-1.04112 0.43185,-1.46193z" data-paper-data="{&quot;index&quot;:null}" fill="#000000" stroke="none" stroke-width="0.5" stroke-linecap="butt"></path><path d="M254.93533,234.25745l-20.48811,-0.93838" fill="none" stroke="#000000" stroke-width="3" stroke-linecap="round"></path><path d="M234.91641,225.49918l16.73456,1.40758" fill="none" stroke="#000000" stroke-width="3" stroke-linecap="round"></path><path d="M252.27656,218.61768l-19.70612,-1.72038" fill="none" stroke="#000000" stroke-width="3" stroke-linecap="round"></path><path d="M236.32399,209.70301l15.48338,-0.31279" fill="none" stroke="#000000" stroke-width="3" stroke-linecap="round"></path><path d="M235.54201,200.31914l18.92413,-0.93838" fill="none" stroke="#000000" stroke-width="3" stroke-linecap="round"></path><path d="M250.24339,190.46608l-14.38859,0.31279" fill="none" stroke="#000000" stroke-width="3" stroke-linecap="round"></path><path d="M248.52301,187.18171l-13.763,-0.93838" fill="none" stroke="#000000" stroke-width="3" stroke-linecap="round"></path><path d="M249.4614,195.93999l-15.01419,0.62559" fill="none" stroke="#000000" stroke-width="3" stroke-linecap="round"></path><path d="M235.22921,203.75989l17.51655,0.4692" fill="none" stroke="#000000" stroke-width="3" stroke-linecap="round"></path><path d="M256.4993,173.80972c0,7.2124 -6.33696,13.05922 -14.154,13.05922c-7.81703,0 -14.154,-5.84681 -14.154,-13.05922c0,-7.2124 6.33696,-13.05922 14.154,-13.05922c7.81703,0 14.154,5.84681 14.154,13.05922z" fill="#ffd69e" stroke="#000000" stroke-width="3" stroke-linecap="butt"></path><path d="M244.30027,208.68642c0,4.79387 -1.36542,8.68007 -3.04976,8.68007c-1.68433,0 -3.04976,-3.8862 -3.04976,-8.68007c0,-4.79387 1.36542,-8.68007 3.04976,-8.68007c1.68433,0 3.04976,3.8862 3.04976,8.68007z" fill="#ffd69e" stroke="#000000" stroke-width="3" stroke-linecap="butt"></path><path d="M228.6544,171.74483c-0.03481,-0.00773 -1.30084,-0.17432 -1.66542,-0.45698c-3.27541,-2.53939 0.06549,-5.94476 0.0577,-5.96661c-1.23905,-3.46857 0.80801,-4.75019 3.08248,-7.13792c0.79482,-0.83439 2.94501,1.146 3.45527,0.11276c1.61758,-3.27554 2.83841,-0.94804 4.60387,-1.43931c0.79757,-0.22194 1.80019,-2.14328 2.97794,-1.47029c0.59794,0.34168 1.14289,1.3748 1.76353,1.07632c2.4499,-1.17824 4.34007,-2.4166 7.18372,-2.07408c3.90044,0.46982 2.41358,3.7434 3.66515,5.79005c0.85677,1.40104 10.04091,6.99491 3.42109,9.08523c-1.97438,0.62344 -4.27899,-0.91467 -5.12454,-2.59348c-0.62457,-1.24006 -6.07489,-0.89793 -7.55515,-1.37802c-1.35407,-0.43916 -1.61129,-3.35346 -2.99975,-3.03952c-2.26475,0.51207 -2.33732,2.59496 -4.16482,3.50872c-1.49786,0.74893 -3.53384,-0.13615 -4.5394,1.44765c-0.90719,1.42887 -1.74891,4.39524 -3.69805,4.22642z" fill="#bd4000" stroke="none" stroke-width="0.5" stroke-linecap="butt"></path><path d="M244.17361,180.92582c0,4.53917 -8.53189,1.98602 -9.68332,-0.02898c-0.79241,-0.46767 -1.324,-1.33025 -1.324,-2.31699c0,-1.48481 1.20368,-2.6885 2.6885,-2.6885c0.55142,0 1.06408,0.16601 1.4907,0.45079c3.27829,0.24595 6.82812,3.32676 6.82812,4.58368z" fill="#000000" stroke="none" stroke-width="0.5" stroke-linecap="butt"></path><path d="M232.85351,168.41399c0,-1.48481 1.20368,-2.6885 2.6885,-2.6885c1.48481,0 2.6885,1.20368 2.6885,2.6885c0,1.48481 -1.20368,2.6885 -2.6885,2.6885c-1.48481,0 -2.6885,-1.20368 -2.6885,-2.6885z" fill="#000000" stroke="none" stroke-width="0.5" stroke-linecap="butt"></path><path d="M241.61177,171.54195c0,-1.48481 1.20368,-2.6885 2.6885,-2.6885c1.48481,0 2.6885,1.20368 2.6885,2.6885c0,1.48481 -1.20368,2.6885 -2.6885,2.6885c-1.48481,0 -2.6885,-1.20368 -2.6885,-2.6885z" fill="#000000" stroke="none" stroke-width="0.5" stroke-linecap="butt"></path><path d="M237.88149,191.15499c3.27271,-3.27271 6.93445,4.1129 6.93445,6.82428c0,3.76396 -5.73838,4.57664 -6.67048,0.84825c-0.2804,-0.42447 -0.44365,-0.93315 -0.44365,-1.47994c0,-0.04281 0.001,-0.08538 0.00298,-0.12769c0.00114,-1.5387 -1.14026,-4.74794 0.17669,-6.06489z" fill="#4e4e4e" stroke="none" stroke-width="0.5" stroke-linecap="butt"></path><path d="M234.38852,184.7282c3.70371,-7.40741 11.81344,0.46294 8.81082,5.79796c-1.36612,2.42732 -3.73736,2.79392 -5.7843,2.00281c-1.16569,-0.00159 -2.15752,-0.74506 -2.52866,-1.78357c-1.34189,-1.55267 -1.87271,-3.73378 -0.53983,-5.8283z" fill="#939393" stroke="none" stroke-width="0.5" stroke-linecap="butt"></path><path d="M213.36079,199.48023c0,-1.48481 1.20368,-2.6885 2.6885,-2.6885c1.48481,0 2.6885,1.20368 2.6885,2.6885c0,1.48481 -1.20368,2.6885 -2.6885,2.6885c-1.48481,0 -2.6885,-1.20368 -2.6885,-2.6885z" fill="#a7a7a7" stroke="none" stroke-width="0.5" stroke-linecap="butt"></path><path d="M213.36079,180.29616c0,-1.48481 1.20368,-2.6885 2.6885,-2.6885c1.48481,0 2.6885,1.20368 2.6885,2.6885c0,1.48481 -1.20368,2.6885 -2.6885,2.6885c-1.48481,0 -2.6885,-1.20368 -2.6885,-2.6885z" fill="#a7a7a7" stroke="none" stroke-width="0.5" stroke-linecap="butt"></path><path d="M213.36079,159.6364c0,-1.48481 1.20368,-2.6885 2.6885,-2.6885c1.48481,0 2.6885,1.20368 2.6885,2.6885c0,1.48481 -1.20368,2.6885 -2.6885,2.6885c-1.48481,0 -2.6885,-1.20368 -2.6885,-2.6885z" fill="#a7a7a7" stroke="none" stroke-width="0.5" stroke-linecap="butt"></path><path d="M260.58311,192.69202c0,-1.48481 1.20368,-2.6885 2.6885,-2.6885c1.48481,0 2.6885,1.20368 2.6885,2.6885c0,1.48481 -1.20368,2.6885 -2.6885,2.6885c-1.48481,0 -2.6885,-1.20368 -2.6885,-2.6885z" fill="#a7a7a7" stroke="none" stroke-width="0.5" stroke-linecap="butt"></path><path d="M260.28797,174.39337c0,-1.48481 1.20368,-2.6885 2.6885,-2.6885c1.48481,0 2.6885,1.20368 2.6885,2.6885c0,1.48481 -1.20368,2.6885 -2.6885,2.6885c-1.48481,0 -2.6885,-1.20368 -2.6885,-2.6885z" fill="#a7a7a7" stroke="none" stroke-width="0.5" stroke-linecap="butt"></path><path d="M260.87825,155.2093c0,-1.48481 1.20368,-2.6885 2.6885,-2.6885c1.48481,0 2.6885,1.20368 2.6885,2.6885c0,1.48481 -1.20368,2.6885 -2.6885,2.6885c-1.48481,0 -2.6885,-1.20368 -2.6885,-2.6885z" fill="#a7a7a7" stroke="none" stroke-width="0.5" stroke-linecap="butt"></path><text transform="translate(212.28753,236.92006) scale(0.09849,0.09849)" font-size="40" xml:space="preserve" fill="#ffffff" fill-rule="nonzero" stroke="none" stroke-width="1" stroke-linecap="butt" stroke-linejoin="miter" stroke-miterlimit="10" stroke-dasharray="" stroke-dashoffset="0" font-family="Sans Serif" font-weight="normal" text-anchor="start" style="mix-blend-mode: normal"><tspan x="0" dy="0">GeorgeBanananananan</tspan></text></g></g></svg>