<svg version="1.1" xmlns="http://www.w3.org/2000/svg" xmlns:xlink="http://www.w3.org/1999/xlink" width="22.14783" height="21.55718" viewBox="0,0,22.14783,21.55718"><defs><linearGradient x1="229.72341" y1="171.09077" x2="233.40829" y2="170.39497" gradientUnits="userSpaceOnUse" id="color-1"><stop offset="0" stop-color="#6c6c6c"></stop><stop offset="1" stop-color="#2c2c2c"></stop></linearGradient><linearGradient x1="234.26015" y1="170.58562" x2="232.92839" y2="172.99164" gradientUnits="userSpaceOnUse" id="color-2"><stop offset="0" stop-color="#a3a3a3"></stop><stop offset="1" stop-color="#6e6e6e"></stop></linearGradient><radialGradient cx="232.31541" cy="174.274" r="2.175" gradientUnits="userSpaceOnUse" id="color-3"><stop offset="0" stop-color="#c6c6c6"></stop><stop offset="1" stop-color="#939393"></stop></radialGradient><linearGradient x1="233.44191" y1="174.98062" x2="237.62386" y2="186.50407" gradientUnits="userSpaceOnUse" id="color-4"><stop offset="0" stop-color="#979797"></stop><stop offset="1" stop-color="#1a1a1a"></stop></linearGradient><radialGradient cx="236.27407" cy="185.87311" r="0.80357" gradientUnits="userSpaceOnUse" id="color-5"><stop offset="0" stop-color="#6c6c6c"></stop><stop offset="1" stop-color="#787878"></stop></radialGradient><radialGradient cx="237.59448" cy="184.74803" r="0.53571" gradientUnits="userSpaceOnUse" id="color-6"><stop offset="0" stop-color="#a3a3a3"></stop><stop offset="1" stop-color="#a8a8a8"></stop></radialGradient><linearGradient x1="236.70491" y1="183.87766" x2="237.67716" y2="186.5567" gradientUnits="userSpaceOnUse" id="color-7"><stop offset="0" stop-color="#c18b4d"></stop><stop offset="1" stop-color="#ad7145"></stop></linearGradient><linearGradient x1="236.1735" y1="183.21946" x2="236.51463" y2="184.15948" gradientUnits="userSpaceOnUse" id="color-8"><stop offset="0" stop-color="#c18b4d"></stop><stop offset="1" stop-color="#ad7145"></stop></linearGradient><linearGradient x1="237.50467" y1="182.41722" x2="238.08461" y2="184.01524" gradientUnits="userSpaceOnUse" id="color-9"><stop offset="0" stop-color="#c18b4d"></stop><stop offset="1" stop-color="#ad7145"></stop></linearGradient></defs><g transform="translate(-229.00676,-165.53171)"><g data-paper-data="{&quot;isPaintingLayer&quot;:true}" fill-rule="nonzero" stroke-width="0" stroke-linecap="butt" stroke-linejoin="miter" stroke-miterlimit="10" stroke-dasharray="" stroke-dashoffset="0" style="mix-blend-mode: normal"><path d="M239.61971,185.17874l0.46836,-1.546l5.07698,1.35193l-0.42025,1.20537z" fill="#9b7f4e" stroke="none"></path><path d="M238.73166,185.38721c0,0 0.99932,-6.94167 1.71294,-9.932c0.61913,-2.59437 3.60045,-6.6357 3.60045,-6.6357l4.19605,-2.84028c0,0 -6.19968,7.55277 -6.90197,10.46227c-0.71821,2.97546 -1.37724,8.98205 -1.37724,8.98205z" fill="#78623c" stroke="none"></path><path d="M240.42642,183.43174c0.00084,0.95269 -0.55812,1.72549 -1.24847,1.72611c-0.69035,0.00062 -1.25068,-0.7712 -1.25153,-1.72389c-0.00084,-0.95269 0.55812,-1.72549 1.24847,-1.72611c0.69035,-0.00062 1.25068,0.7712 1.25153,1.72389z" fill="#7e7e7e" stroke="none"></path><path d="M238.9536,178.54526c1.058,1.63423 1.29556,3.36049 0.5306,3.85572c-0.76496,0.49523 -2.24275,-0.4281 -3.30075,-2.06233c-1.058,-1.63423 -1.29556,-3.36049 -0.5306,-3.85572c0.76496,-0.49523 2.24275,0.4281 3.30075,2.06233z" fill="#acacac" stroke="none"></path><path d="M233.40829,170.39497c0.39452,2.08938 -0.11054,3.93891 -1.1281,4.13105c-1.01755,0.19213 -2.16227,-1.34588 -2.55679,-3.43525c-0.39452,-2.08938 -1.25551,-5.35802 -0.23797,-5.55016c0.24601,-0.04645 0.57931,0.09118 0.94888,0.35611c1.15903,0.83091 2.67485,2.91402 2.97397,4.49825z" fill="url(#color-1)" stroke="none"></path><path d="M235.32224,172.74508c-0.36776,0.6644 -1.43952,0.77479 -2.39385,0.24655c-0.95432,-0.52823 -1.42982,-1.49505 -1.06206,-2.15946c0.36776,-0.6644 1.43952,-0.77479 2.39385,-0.24655c0.95432,0.52823 1.42982,1.49505 1.06206,2.15946z" fill="url(#color-2)" stroke="none"></path><path d="M234.18367,174.43283c-0.10176,1.1969 -1.0207,2.09607 -2.05251,2.00835c-1.03181,-0.08772 -1.78577,-1.12912 -1.68402,-2.32602c0.10176,-1.1969 1.0207,-2.09607 2.05251,-2.00835c1.03181,0.08772 1.78577,1.12912 1.68402,2.32602z" fill="url(#color-3)" stroke="none"></path><path d="M236.01241,187.08888c0,0 -0.31212,-1.08324 -0.87886,-2.02448c-0.25149,-0.41766 -0.76301,-0.37684 -0.96112,-0.93633c-0.42142,-1.19007 -0.22052,-2.92342 -0.63839,-3.94208c-0.14768,-0.36003 -1.04824,-1.03501 -1.14235,-1.29432c-0.45432,-1.25188 -0.56124,-3.32625 -0.56124,-3.32625c0,0 0.25102,-2.88561 0.78246,-3.07848c0.54263,-0.19692 2.44044,1.90885 2.44044,1.90885c0,0 1.30415,1.60448 1.69122,2.67103c0.08215,0.22636 -0.88319,0.20754 -0.78081,0.53219c0.16886,0.53547 1.29423,2.39321 1.56178,3.10667c0.12693,0.33846 0.84178,0.94607 0.95681,1.26962c0.14532,0.40873 0.01002,0.93524 0.10508,1.29359c0.45233,1.70535 0.64789,2.65033 0.64789,2.65033z" fill="url(#color-4)" stroke="#000000"></path><path d="M236.17968,185.07511c0.22526,-0.02664 0.45013,0.30904 0.50225,0.74976c0.05212,0.44072 -0.08823,0.8196 -0.31349,0.84625c-0.22526,0.02664 -0.45013,-0.30904 -0.50225,-0.74976c-0.05212,-0.44072 0.08823,-0.8196 0.31349,-0.84625z" fill="url(#color-5)" stroke="none"></path><path d="M238.11701,184.86612c-0.04565,0.20202 -0.31661,0.3129 -0.6052,0.24768c-0.28859,-0.06521 -0.48552,-0.28185 -0.43987,-0.48387c0.04565,-0.20202 0.31661,-0.3129 0.6052,-0.24768c0.28859,0.06521 0.48552,0.28185 0.43987,0.48387z" fill="url(#color-6)" stroke="none"></path><path d="M237.32465,186.68463l-0.97225,-2.67904l0.70501,-0.25586l0.97225,2.67904z" fill="url(#color-7)" stroke="none"></path><path d="M235.19862,184.63707l-0.34113,-0.94001l2.63204,-0.95519l0.34113,0.94001z" fill="url(#color-8)" stroke="none"></path><path d="M237.73211,184.14317l-0.57994,-1.59802l1.57187,0.22741z" fill="url(#color-9)" stroke="none"></path><path d="M244.62108,185.82196c0,0 1.12983,-4.58603 2.06054,-7.51606c0.80749,-2.54206 3.14875,-9.53603 3.14875,-9.53603l1.32422,-0.85419c0,0 -2.73957,8.58912 -3.65308,11.43937c-0.93421,2.91486 -1.69882,6.47575 -1.69882,6.47575z" fill="#78623c" stroke="none"></path><path d="M240.18708,181.78139l0.56114,-1.57967l5.49034,1.20191l-0.49756,1.23342z" fill="#9b7f4e" stroke="none"></path><path d="M241.05503,178.4077l0.48984,-1.60321l5.53867,0.95484l-0.44183,1.25446z" fill="#9b7f4e" stroke="none"></path><path d="M242.50627,172.70304l0.87274,-1.43127l5.12786,2.30076l-0.73959,1.1054z" fill="#9b7f4e" stroke="none"></path><path d="M245.5854,169.21692l0.1315,-0.83587l4.25536,0.66943l-0.1315,0.83587z" fill="#9b7f4e" stroke="none"></path></g></g></svg>