<svg version="1.1" xmlns="http://www.w3.org/2000/svg" xmlns:xlink="http://www.w3.org/1999/xlink" width="40.02557" height="11.2582" viewBox="0,0,40.02557,11.2582"><defs><linearGradient x1="201.4277" y1="177.95079" x2="204.87808" y2="178.61235" gradientUnits="userSpaceOnUse" id="color-1"><stop offset="0" stop-color="#4066a0"></stop><stop offset="1" stop-color="#1c2c44"></stop></linearGradient><linearGradient x1="204.34132" y1="173.68797" x2="207.7917" y2="174.34953" gradientUnits="userSpaceOnUse" id="color-2"><stop offset="0" stop-color="#4066a0"></stop><stop offset="1" stop-color="#1c2c44"></stop></linearGradient><radialGradient cx="206.0356" cy="174.36221" r="2.33329" gradientUnits="userSpaceOnUse" id="color-3"><stop offset="0" stop-color="#4066a0"></stop><stop offset="1" stop-color="#1c2c44"></stop></radialGradient><radialGradient cx="206.13474" cy="174.20957" r="1.64935" gradientUnits="userSpaceOnUse" id="color-4"><stop offset="0" stop-color="#fff9d8"></stop><stop offset="1" stop-color="#e8dc8e"></stop></radialGradient></defs><g transform="translate(-200.16516,-170.7499)"><g data-paper-data="{&quot;isPaintingLayer&quot;:true}" fill-rule="nonzero" stroke-linecap="butt" stroke-linejoin="miter" stroke-miterlimit="10" stroke-dasharray="" stroke-dashoffset="0" style="mix-blend-mode: normal"><path d="M200.29016,180.33267c0,-2.10068 0,-5.72647 0,-6.92472c0,-0.7573 1.25383,-1.63488 2.64627,-1.63488c4.28492,0 26.58863,0 34.41308,0c1.69976,0 2.71622,0.6086 2.71622,1.50821c0,2.1198 0,5.85537 0,7.05139c0,0.72504 -1.04447,1.55043 -2.78615,1.55043c-7.86787,0 -29.96355,0 -34.27319,0c-1.42502,0 -2.71622,-0.62826 -2.71622,-1.55043z" fill="#291c01" stroke="#fff4ce" stroke-width="0.25"></path><text transform="translate(205.05223,180.27526) scale(0.03299,0.04647)" font-size="40" xml:space="preserve" fill="#dab7b1" fill-rule="nonzero" stroke="none" stroke-width="1" stroke-linecap="butt" stroke-linejoin="miter" stroke-miterlimit="10" stroke-dasharray="" stroke-dashoffset="0" font-family="Sans Serif" font-weight="normal" text-anchor="start" style="mix-blend-mode: normal"><tspan x="0" dy="0">50%</tspan></text><text transform="translate(208.53099,175.34524) scale(0.07065,0.10564)" font-size="40" xml:space="preserve" fill="#e3bba8" fill-rule="nonzero" stroke="none" stroke-width="1" stroke-linecap="butt" stroke-linejoin="miter" stroke-miterlimit="10" stroke-dasharray="" stroke-dashoffset="0" font-family="Sans Serif" font-weight="normal" text-anchor="start" style="mix-blend-mode: normal"><tspan x="0" dy="0">Flashlight</tspan></text><text transform="translate(208.71545,180.10229) scale(0.03969,0.03969)" font-size="40" xml:space="preserve" fill="#dab7b1" fill-rule="nonzero" stroke="none" stroke-width="1" stroke-linecap="butt" stroke-linejoin="miter" stroke-miterlimit="10" stroke-dasharray="" stroke-dashoffset="0" font-family="&quot;Microsoft YaHei&quot;, &quot;微软雅黑&quot;, STXihei, &quot;华文细黑&quot;" font-weight="normal" text-anchor="start" style="mix-blend-mode: normal"><tspan x="0" dy="0">Ranged chargeable light source.</tspan></text><g><text transform="translate(202.13657,180.34516) rotate(-58.55362) scale(0.02423,0.02423)" font-size="40" xml:space="preserve" fill="#ffffff" fill-rule="nonzero" stroke="none" stroke-width="1" stroke-linecap="butt" stroke-linejoin="miter" stroke-miterlimit="10" stroke-dasharray="" stroke-dashoffset="0" font-family="Sans Serif" font-weight="normal" text-anchor="start" style="mix-blend-mode: normal"><tspan x="0" dy="0">xAmt8</tspan></text><g stroke-width="0.5"><path d="M201.086,179.73296l3.01452,-4.367l1.11926,1.46421l-2.84537,4.39943z" fill="url(#color-1)" stroke="none"></path><path d="M203.99962,175.47014l0.04543,-2.00148l3.26588,2.29505l-2.02288,1.20307z" fill="url(#color-2)" stroke="none"></path><path d="M207.86913,175.80525c-0.28129,0.3574 -1.33021,0.00106 -2.34285,-0.79592c-1.01263,-0.79697 -1.60551,-1.73278 -1.32423,-2.09018c0.28129,-0.3574 1.33021,-0.00106 2.34285,0.79592c1.01263,0.79697 1.60551,1.73278 1.32423,2.09018z" fill="url(#color-3)" stroke="#000000"></path><path d="M207.43082,175.22963c-0.19883,0.25264 -0.9403,0.00075 -1.65611,-0.56261c-0.71581,-0.56336 -1.1349,-1.22486 -0.93607,-1.4775c0.19883,-0.25264 0.9403,-0.00075 1.65611,0.56261c0.71581,0.56336 1.1349,1.22486 0.93607,1.4775z" fill="url(#color-4)" stroke="#000000"></path><path d="M202.30913,181.06482c-0.23748,0.15623 -0.64951,-0.05082 -0.92031,-0.46245c-0.27079,-0.41163 -0.2978,-0.87197 -0.06032,-1.0282c0.23748,-0.15623 0.64951,0.05082 0.92031,0.46245c0.27079,0.41163 0.2978,0.87197 0.06032,1.0282z" fill="#395b8e" stroke="none"></path></g></g><text transform="translate(230.80141,178.40483) scale(0.09734,0.13713)" font-size="40" xml:space="preserve" fill="#dab7b1" fill-rule="nonzero" stroke="none" stroke-width="1" stroke-linecap="butt" stroke-linejoin="miter" stroke-miterlimit="10" stroke-dasharray="" stroke-dashoffset="0" font-family="Sans Serif" font-weight="normal" text-anchor="start" style="mix-blend-mode: normal"><tspan x="0" dy="0">1OO</tspan></text></g></g></svg>