<svg version="1.1" xmlns="http://www.w3.org/2000/svg" xmlns:xlink="http://www.w3.org/1999/xlink" width="11.07835" height="17.77954" viewBox="0,0,11.07835,17.77954"><defs><radialGradient cx="237.16564" cy="190.02046" r="1.25071" gradientUnits="userSpaceOnUse" id="color-1"><stop offset="0" stop-color="#ffffff" stop-opacity="0.53358"></stop><stop offset="1" stop-color="#46e3ff" stop-opacity="0.59161"></stop></radialGradient><radialGradient cx="240.61746" cy="190.81609" r="1.25071" gradientUnits="userSpaceOnUse" id="color-2"><stop offset="0" stop-color="#ffffff" stop-opacity="0.53358"></stop><stop offset="1" stop-color="#46e3ff" stop-opacity="0.55129"></stop></radialGradient><linearGradient x1="233.16284" y1="201.87409" x2="234.76356" y2="201.7516" gradientUnits="userSpaceOnUse" id="color-3"><stop offset="0" stop-color="#00fdff" stop-opacity="0.41129"></stop><stop offset="1" stop-color="#ffffff" stop-opacity="0.67742"></stop></linearGradient><linearGradient x1="244.73262" y1="200.44752" x2="243.14487" y2="200.68501" gradientUnits="userSpaceOnUse" id="color-4"><stop offset="0" stop-color="#00fdff" stop-opacity="0.41129"></stop><stop offset="1" stop-color="#ffffff" stop-opacity="0.67742"></stop></linearGradient><linearGradient x1="235.49232" y1="192.60162" x2="236.01387" y2="192.54192" gradientUnits="userSpaceOnUse" id="color-5"><stop offset="0" stop-color="#948a00"></stop><stop offset="1" stop-color="#948a00" stop-opacity="0"></stop></linearGradient><linearGradient x1="240.7673" y1="194.58287" x2="240.39919" y2="194.2086" gradientUnits="userSpaceOnUse" id="color-6"><stop offset="0" stop-color="#948a00"></stop><stop offset="1" stop-color="#948a00" stop-opacity="0"></stop></linearGradient></defs><g transform="translate(-233.40799,-189.49417)"><g data-paper-data="{&quot;isPaintingLayer&quot;:true}" fill-rule="nonzero" stroke="none" stroke-linecap="butt" stroke-linejoin="miter" stroke-miterlimit="10" stroke-dasharray="" stroke-dashoffset="0" style="mix-blend-mode: normal"><path d="M239.51965,189.68358c1.68157,0.59459 2.57312,2.41038 1.99136,4.05564c-0.58176,1.64527 -2.41658,2.49698 -4.09812,1.90241c-1.68157,-0.59459 -2.57312,-2.41039 -1.99137,-4.05563c0.58176,-1.64527 2.41658,-2.49699 4.09813,-1.9024z" data-paper-data="{&quot;index&quot;:null}" fill="#000000" stroke-width="0"></path><path d="M241.0148,195.22251c0.15073,-0.01013 0.38677,1.67088 0.52699,3.75716c0.10672,1.58817 0.17316,2.57718 0.27991,4.16538c0.1402,2.08629 0.13115,3.78377 -0.01956,3.79389c-1.05086,0.07062 -3.93018,0.26408 -4.98107,0.33471c-0.15073,0.01013 -0.38626,-1.67093 -0.52646,-3.75721c-0.10672,-1.58817 -0.17316,-2.57718 -0.27991,-4.16538c-0.1402,-2.08629 -0.13167,-3.78373 0.01906,-3.79386c1.05086,-0.07062 3.93019,-0.26409 4.98107,-0.33471z" data-paper-data="{&quot;index&quot;:null}" fill="#000000" stroke-width="1"></path><path d="M242.80036,205.10187l-1.57543,-7.39194l1.68598,-0.74576l1.57543,7.39192z" data-paper-data="{&quot;index&quot;:null}" fill="#000000" stroke-width="0"></path><path d="M233.40799,205.62286l0.77255,-7.51837l1.83356,-0.19152l-0.77254,7.51837z" data-paper-data="{&quot;index&quot;:null}" fill="#000000" stroke-width="0"></path><path d="M235.51318,191.52052c0,0 0.49683,-1.02902 0.77899,-1.25334c0.25778,-0.20491 1.11356,-0.59523 1.11356,-0.59523l-0.1163,0.74385c0,0 -0.73137,0.00685 -0.97631,0.20159c-0.28968,0.23032 -0.65022,1.0915 -0.65022,1.0915z" fill="url(#color-1)" stroke-width="NaN"></path><path d="M241.49291,192.89995c0,0 -0.06243,-0.93153 -0.26201,-1.24317c-0.16875,-0.26353 -0.85857,-0.50667 -0.85857,-0.50667l0.13067,-0.74147c0,0 0.68343,0.64626 0.861,0.92358c0.1944,0.30359 0.33148,1.438 0.33148,1.438z" data-paper-data="{&quot;index&quot;:null}" fill="url(#color-2)" stroke-width="NaN"></path><path d="M233.44792,205.59973l0.70443,-7.60271l0.61132,0.02907l-1.03322,7.60593z" fill="url(#color-3)" stroke-width="0"></path><path d="M244.31522,204.35923l-2.00109,-7.30594l0.58945,-0.16463l1.51908,7.41969z" data-paper-data="{&quot;index&quot;:null}" fill="url(#color-4)" stroke-width="0"></path><path d="M235.93832,194.75677c0,0 -0.5985,-1.51847 -0.629,-1.785c-0.03935,-0.34378 0.07481,-1.31539 0.07481,-1.31539l0.52155,-0.05969l0.48423,2.3797z" fill="url(#color-5)" stroke-width="0"></path><path d="M239.20508,195.08778l1.87247,-1.54632l0.36811,0.37428c0,0 -0.52195,0.8274 -0.76869,1.07004c-0.19125,0.1881 -1.61124,0.99284 -1.61124,0.99284z" data-paper-data="{&quot;index&quot;:null}" fill="url(#color-6)" stroke-width="0"></path></g></g></svg>