<svg version="1.1" xmlns="http://www.w3.org/2000/svg" xmlns:xlink="http://www.w3.org/1999/xlink" width="41.84982" height="77.72104" viewBox="0,0,41.84982,77.72104"><defs><linearGradient x1="234.69676" y1="147.79436" x2="234.69676" y2="150.91649" gradientUnits="userSpaceOnUse" id="color-1"><stop offset="0" stop-color="#ad5400"></stop><stop offset="1" stop-color="#d07b00"></stop></linearGradient><linearGradient x1="235.18907" y1="192.19964" x2="235.18907" y2="203.89456" gradientUnits="userSpaceOnUse" id="color-2"><stop offset="0" stop-color="#8e6c39"></stop><stop offset="1" stop-color="#cc9752"></stop></linearGradient><linearGradient x1="246.15679" y1="180.51405" x2="261.50357" y2="177.49477" gradientUnits="userSpaceOnUse" id="color-3"><stop offset="0" stop-color="#000000"></stop><stop offset="1" stop-color="#777777"></stop></linearGradient><linearGradient x1="245.84324" y1="178.76982" x2="261.19002" y2="175.75054" gradientUnits="userSpaceOnUse" id="color-4"><stop offset="0" stop-color="#000000"></stop><stop offset="1" stop-color="#777777"></stop></linearGradient></defs><g transform="translate(-220.24201,-141.64193)"><g data-paper-data="{&quot;isPaintingLayer&quot;:true}" fill-rule="nonzero" stroke-linejoin="miter" stroke-miterlimit="10" stroke-dasharray="" stroke-dashoffset="0" style="mix-blend-mode: normal"><path d="M242.58117,157.76443c0,4.26004 -3.33011,7.71349 -7.43801,7.71349c-4.1079,0 -7.43801,-3.45345 -7.43801,-7.71349c0,-4.26004 3.33011,-7.71349 7.43801,-7.71349c4.1079,0 7.43801,3.45345 7.43801,7.71349z" fill="#fff3c0" stroke="#000000" stroke-width="0" stroke-linecap="butt"></path><path d="M231.49303,155.90493c0,-0.15214 0.12334,-0.27548 0.27548,-0.27548c0.15214,0 0.27548,0.12334 0.27548,0.27548c0,0.15214 -0.12334,0.27548 -0.27548,0.27548c-0.15214,0 -0.27548,-0.12334 -0.27548,-0.27548z" fill="#000000" stroke="none" stroke-width="0.5" stroke-linecap="butt"></path><path d="M237.69137,156.18041c0,-0.15214 0.12334,-0.27548 0.27548,-0.27548c0.15214,0 0.27548,0.12334 0.27548,0.27548c0,0.15214 -0.12334,0.27548 -0.27548,0.27548c-0.15214,0 -0.27548,-0.12334 -0.27548,-0.27548z" fill="#000000" stroke="none" stroke-width="0.5" stroke-linecap="butt"></path><path d="M228.46273,192.40625v-28.6501h13.36086v28.6501z" fill="#267520" stroke="none" stroke-width="0" stroke-linecap="butt"></path><path d="M231.06958,160.742l1.83655,0.64279" fill="none" stroke="#000000" stroke-width="1" stroke-linecap="round"></path><path d="M229.96765,152.38572l2.29568,-2.0202c0,0 2.06659,-0.45914 3.0303,-0.45914c0.99431,0 2.84664,0.45914 2.84664,0.45914l2.57116,2.38751z" fill="#000000" stroke="none" stroke-width="0" stroke-linecap="butt"></path><path d="M241.07875,149.35542c0,0.86215 -2.85732,1.56106 -6.38199,1.56106c-3.52468,0 -6.38199,-0.69891 -6.38199,-1.56106c0,-0.86215 2.85732,-1.56106 6.38199,-1.56106c3.52468,0 6.38199,0.69891 6.38199,1.56106z" fill="url(#color-1)" stroke="none" stroke-width="0" stroke-linecap="butt"></path><path d="M229.32487,148.89629v-5.0505c0,0 1.72379,-0.66477 3.3719,-0.44765c0.75571,0.09956 1.40368,-1.75621 1.95408,-1.75621c0.66776,0 1.92607,2.10574 2.78795,1.98123c1.49655,-0.2162 2.62986,0.22262 2.62986,0.22262v5.0505z" fill="#ad5400" stroke="none" stroke-width="0" stroke-linecap="butt"></path><path d="M241.93646,190.43041c0,0 -0.62863,-0.30031 -0.89991,-0.6785c-1.38383,-1.92923 -12.93989,-18.34449 -12.93989,-18.34449l0.66643,-4.57349l13.01336,16.40591z" fill="#bd8a33" stroke="none" stroke-width="0" stroke-linecap="butt"></path><path d="M235.21203,168.64596l-3.719,-5.09641h7.02478z" fill="#ffffff" stroke="none" stroke-width="0" stroke-linecap="butt"></path><path d="M238.18258,169.79656l-1.11105,-0.66663l1.11105,-0.57774l0.88883,-1.55546l1.15548,1.55546l1.15549,0.5333l-1.15549,0.71107l0.6081,1.32289c0,0 -0.91562,-0.84219 -1.52259,-0.90783c-0.53321,-0.05766 -1.17427,0.87376 -1.17427,0.87376z" fill="#ffd300" stroke="none" stroke-width="0" stroke-linecap="butt"></path><path d="M228.66934,211.80476v-9.36638h3.85674v9.36638z" fill="#fff3c0" stroke="none" stroke-width="0" stroke-linecap="butt"></path><path d="M233.77487,147.6662l-1.11105,-0.66662l1.11105,-0.57774l0.88883,-1.55546l1.15548,1.55546l1.15549,0.5333l-1.15549,0.71107l0.6081,1.32289c0,0 -0.91562,-0.84219 -1.52259,-0.90783c-0.53321,-0.05766 -1.17427,0.87376 -1.17427,0.87376z" fill="#ffd300" stroke="none" stroke-width="0" stroke-linecap="butt"></path><path d="M238.40303,212.26389v-9.36638h3.85674v9.36638z" fill="#fff3c0" stroke="none" stroke-width="0" stroke-linecap="butt"></path><path d="M229.08256,183.24649v-3.30578h2.47934v3.30578c0,0 -0.86499,0.73462 -1.28558,0.73462c-0.40529,0 -1.19376,-0.73462 -1.19376,-0.73462z" fill="#2f9428" stroke="none" stroke-width="0" stroke-linecap="butt"></path><path d="M229.08256,180.03254l2.20385,-0.09183" fill="none" stroke="#000000" stroke-width="0.5" stroke-linecap="round"></path><path d="M228.25612,203.2429v-11.04325h13.86591v11.04325c0,0 -2.28932,1.55354 -4.3535,-0.13675c-3.06994,-2.51389 -5.97571,-8.63882 -2.80903,-8.92592c3.70123,-0.33556 0.61338,5.91254 -2.5393,8.65829c-1.9861,1.72974 -4.16409,0.40439 -4.16409,0.40439z" fill="url(#color-2)" stroke="none" stroke-width="NaN" stroke-linecap="butt"></path><path d="M226.07522,213.79052v-2.66299c0,0 1.89756,0.65429 3.21974,0.01973c1.03363,-0.49607 1.46567,-2.31541 2.01442,-2.31541c0.76114,0 1.56106,2.29568 1.56106,2.29568v2.66299z" fill="#b3864a" stroke="none" stroke-width="0" stroke-linecap="butt"></path><path d="M235.07429,191.93564l-0.18365,7.98897" fill="none" stroke="#000000" stroke-width="0.5" stroke-linecap="round"></path><path d="M234.33967,193.22122l1.46923,-0.09183" fill="none" stroke="#000000" stroke-width="0.5" stroke-linecap="round"></path><path d="M234.24784,194.41498l1.83654,-0.09183" fill="none" stroke="#000000" stroke-width="0.5" stroke-linecap="round"></path><path d="M236.17622,195.5169l-2.0202,0.27548" fill="none" stroke="#000000" stroke-width="0.5" stroke-linecap="round"></path><path d="M233.78871,197.35345l2.0202,-0.27548" fill="none" stroke="#000000" stroke-width="0.5" stroke-linecap="round"></path><path d="M233.60505,199.28182l2.11203,-0.64279" fill="none" stroke="#000000" stroke-width="0.5" stroke-linecap="round"></path><path d="M237.64545,214.34148v-3.67309c0,0 0.63732,0.32753 1.18476,-0.35569c0.4321,-0.53927 0.73896,-2.12365 1.11092,-2.12365c0.34473,0 0.8504,1.61207 1.35481,2.02809c0.8856,0.73041 1.76732,0.45124 1.76732,0.45124v3.67309z" fill="#b3864a" stroke="none" stroke-width="0" stroke-linecap="butt"></path><path d="M237.73728,215.53524v-3.67309c0,0 0.63732,0.32753 1.18476,-0.35569c0.4321,-0.53927 0.73896,-2.12365 1.11092,-2.12365c0.34473,0 0.8504,1.61207 1.35481,2.02809c0.8856,0.73041 1.76732,0.45124 1.76732,0.45124v3.67309z" fill="#b3864a" stroke="none" stroke-width="0" stroke-linecap="butt"></path><path d="M237.92094,216.45351v-3.67309c0,0 0.63732,0.32753 1.18476,-0.35569c0.4321,-0.53927 0.73896,-2.12365 1.11092,-2.12365c0.34473,0 0.8504,1.61207 1.35481,2.02809c0.8856,0.73041 1.76732,0.45124 1.76732,0.45124v3.67309z" fill="#b3864a" stroke="none" stroke-width="0" stroke-linecap="butt"></path><path d="M238.28824,217.46361l-0.66903,-3.77804c0,0 2.17524,-0.03752 2.86449,0.07996c0.22771,0.03882 2.42214,0.62842 2.42214,0.62842c0,0 0.11363,-0.11038 0.11056,0.24796c-0.00484,0.56633 -0.1368,2.82169 -0.1368,2.82169c0,0 -1.31869,1.74472 -2.11203,1.74472c-0.73221,0 -2.47934,-1.74472 -2.47934,-1.74472z" fill="#b3864a" stroke="none" stroke-width="0" stroke-linecap="butt"></path><path d="M243.32562,216.03374c0,0 -0.45473,1.47012 -0.82594,2.01832c-0.3316,0.48971 -1.65011,1.07592 -1.65011,1.07592c0,0 -0.23426,0.08506 -0.55135,-0.08196c-0.51326,-0.27034 -1.24353,-0.88235 -1.54863,-1.20324c-0.36348,-0.38229 -0.78929,-1.7041 -0.78929,-1.7041l2.34815,-2.53181l3.01718,2.42686z" fill="#9d4c00" stroke="#000000" stroke-width="0.5" stroke-linecap="round"></path><path d="M222.63343,189.04095l2.20602,-12.47867l4.74732,0.83925l-2.20602,12.47867z" fill="#fff3c0" stroke="#000000" stroke-width="0.5" stroke-linecap="butt"></path><path d="M224.84854,179.17812l-1.85553,-8.61792c0,0 4.97886,-4.59934 5.14398,-4.6378c0.80632,-0.18781 0.39539,3.34758 0.39539,3.34758l1.02909,8.8934z" fill="#267520" stroke="#000000" stroke-width="0.5" stroke-linecap="butt"></path><g stroke="#000000" stroke-width="0.5" stroke-linecap="butt"><path d="M239.4329,174.77203l4.65438,1.25623l-2.67283,9.90292c-0.48334,-0.0002 -0.99828,0.00757 -1.59332,0.00125c-0.88642,-0.00941 -2.10274,-0.73355 -2.96389,-0.94883c-0.05737,-0.01434 -0.11375,-0.02823 -0.16923,-0.04169z" fill="#fff3c0"></path><path d="M239.32522,175.17098l2.29711,-8.51086c0,0 -0.91139,-2.3688 -0.16174,-2.16647c0.79871,0.21557 4.81612,3.4227 4.81612,3.4227l-2.29711,8.51086z" fill="#267520"></path></g><path d="M226.01291,213.73641v-2.75482c0,0 1.13487,0.39354 1.7316,0.39354c0.58361,0 1.81031,-0.39354 1.81031,-0.39354c0,0 0.70838,1.04343 0.70838,1.53483c0,0.41328 -0.70838,1.21999 -0.70838,1.21999z" fill="#9d4c00" stroke="#000000" stroke-width="0.5" stroke-linecap="butt"></path><g data-paper-data="{&quot;index&quot;:null}"><path d="M220.24201,189.96107c0,0 2.2229,-3.43088 3.2996,-4.74719c1.10329,-1.34881 3.2423,-3.25055 3.2423,-3.25055l2.47959,3.23669c0,0 -1.46144,1.35391 -2.47881,2.25795c-1.0858,0.96484 -2.15451,4.26494 -2.15451,4.26494c0,0 -1.27828,-0.36986 -1.57125,-0.46295c-0.49534,-0.15739 -2.81691,-1.29889 -2.81691,-1.29889z" fill="#eaad81" stroke="none" stroke-width="0" stroke-linecap="butt"></path><path d="M227.27276,185.37182l-0.67673,-3.4398c0,0 2.90802,0.66467 4.33555,0.38382c1.55957,-0.30683 4.66084,-2.15374 4.66084,-2.15374l0.67673,3.4398c0,0 -1.68661,-1.06122 -2.70207,-0.25748c-0.60878,0.48185 -0.76982,2.0399 -1.3233,2.14879c-0.719,0.14145 -1.41036,-0.18327 -2.49752,-0.45522c-1.21235,-0.30326 -2.4735,0.33383 -2.4735,0.33383z" fill="#eaad81" stroke="none" stroke-width="0" stroke-linecap="butt"></path><path d="M236.13685,183.62792c0.115,0.58454 -0.53218,1.20406 -1.44552,1.38375c-0.91334,0.17969 -1.74698,-0.14851 -1.86198,-0.73305c-0.115,-0.58454 0.53218,-1.20406 1.44552,-1.38375c0.91334,-0.17969 1.74698,0.14851 1.86198,0.73305z" fill="none" stroke="#000000" stroke-width="0.5" stroke-linecap="butt"></path><path d="M235.82235,182.72785l-0.41645,-2.1168c0,0 1.49541,-1.80583 3.15349,-2.13203c1.48094,-0.29136 5.32831,-0.49999 6.71704,-0.40419c0.31056,0.02142 0.58116,0.47999 0.58116,0.47999l0.57518,2.45462z" fill="#000000" stroke="#000000" stroke-width="0.5" stroke-linecap="butt"></path><path d="M234.81385,183.8882l-1.42927,0.41861l0.37519,-1.58544" fill="none" stroke="#000000" stroke-width="0.5" stroke-linecap="round"></path><path d="M224.18834,192.25685l-3.83602,-2.25472l0.95655,-1.6274l3.83602,2.25472z" fill="#000000" stroke="none" stroke-width="0" stroke-linecap="butt"></path><path d="M242.09204,178.95209c0.05031,0.25574 -0.61969,0.60289 -1.4965,0.77539c-0.87681,0.1725 -1.62838,0.10502 -1.6787,-0.15071c-0.05031,-0.25574 0.61969,-0.60289 1.4965,-0.77539c0.87681,-0.1725 1.62838,-0.10502 1.6787,0.15071z" fill="#d4d4d4" stroke="none" stroke-width="NaN" stroke-linecap="butt"></path><path d="M246.26946,181.08672l-0.22533,-1.14535l15.34677,-3.01928l0.22533,1.14535z" fill="url(#color-3)" stroke="#000000" stroke-width="0.5" stroke-linecap="butt"></path><path d="M245.93843,179.25367l-0.19038,-0.9677l15.34677,-3.01928l0.19038,0.9677z" fill="url(#color-4)" stroke="#000000" stroke-width="0.5" stroke-linecap="butt"></path><path d="M251.45997,180.30027c0,0 -0.72662,-0.41062 -0.77905,-0.67709c-0.05242,-0.26647 0.46449,-0.92174 0.46449,-0.92174l5.95123,-1.17083c0,0 0.69873,0.26887 0.7441,0.49944c0.05686,0.28904 -0.42954,1.09939 -0.42954,1.09939z" fill="#a78100" stroke="#000000" stroke-width="0.5" stroke-linecap="butt"></path><path d="M260.54767,175.37546l-1.47361,0.01313l0.30867,-2.18276" fill="none" stroke="#000000" stroke-width="0.5" stroke-linecap="round"></path><path d="M259.75116,174.60954l-0.5315,-0.35675" fill="none" stroke="#000000" stroke-width="0.5" stroke-linecap="round"></path><path d="M261.48835,175.46718c0.06756,0.3434 0.00302,0.64524 -0.14415,0.67419c-0.14717,0.02895 -0.32124,-0.22595 -0.3888,-0.56934c-0.06756,-0.3434 -0.00302,-0.64524 0.14415,-0.67419c0.14717,-0.02895 0.32124,0.22595 0.3888,0.56934z" fill="#000000" stroke="#000000" stroke-width="0.5" stroke-linecap="butt"></path><path d="M261.84183,177.63181c0.06756,0.3434 0.00302,0.64524 -0.14415,0.6742c-0.14717,0.02895 -0.32124,-0.22595 -0.3888,-0.56935c-0.06756,-0.3434 -0.00302,-0.64524 0.14415,-0.6742c0.14717,-0.02895 0.32124,0.22595 0.3888,0.56935z" fill="#000000" stroke="#000000" stroke-width="0.5" stroke-linecap="butt"></path></g><path d="M223.53167,192.36035l-1.37174,-3.45678l8.06582,-3.20072l1.37174,3.45678z" fill="#fff3c0" stroke="#000000" stroke-width="0.5" stroke-linecap="butt"></path></g></g></svg>