<svg version="1.1" xmlns="http://www.w3.org/2000/svg" xmlns:xlink="http://www.w3.org/1999/xlink" width="163.5" height="69" viewBox="0,0,163.5,69"><g transform="translate(-158.25,-145.5)"><g data-paper-data="{&quot;isPaintingLayer&quot;:true}" fill-rule="nonzero" stroke-linejoin="miter" stroke-miterlimit="10" stroke-dasharray="" stroke-dashoffset="0" style="mix-blend-mode: normal"><text transform="translate(222.625,183.4375) scale(0.29957,0.29957)" font-size="40" xml:space="preserve" fill="#ffffff" fill-rule="nonzero" stroke="none" stroke-width="1" stroke-linecap="butt" stroke-linejoin="miter" stroke-miterlimit="10" stroke-dasharray="" stroke-dashoffset="0" font-family="Sans Serif" font-weight="normal" text-anchor="start" style="mix-blend-mode: normal"><tspan x="0" dy="0">xAmt8</tspan></text><path d="M160.25,212.5v-65h159v65z" fill="#1f85b1" stroke="#ffffff" stroke-width="4" stroke-linecap="butt"></path><path d="M163.25,180.875l156.5,-1" fill="none" stroke="#ffffff" stroke-width="4" stroke-linecap="round"></path><path d="M239.5,150.625l1,28.25" fill="none" stroke="#ffffff" stroke-width="4" stroke-linecap="round"></path><path d="M172.875,167.625l1.5,3.25" fill="none" stroke="#33fffe" stroke-width="1" stroke-linecap="round"></path><path d="M189.125,160.375l2.5,3.25" fill="none" stroke="#33fffe" stroke-width="1" stroke-linecap="round"></path><path d="M212.875,155.125l1.75,2.5" fill="none" stroke="#33fffe" stroke-width="1" stroke-linecap="round"></path><path d="M224.875,167.125l2.5,3" fill="none" stroke="#33fffe" stroke-width="1" stroke-linecap="round"></path><path d="M179.625,193.125l2.25,3.25" fill="none" stroke="#33fffe" stroke-width="1" stroke-linecap="round"></path><path d="M169.375,203.125l1,2.25" fill="none" stroke="#33fffe" stroke-width="1" stroke-linecap="round"></path><path d="M196.375,203.375l1.25,1.5" fill="none" stroke="#33fffe" stroke-width="1" stroke-linecap="round"></path><path d="M219.125,190.625l3.25,3.5" fill="none" stroke="#33fffe" stroke-width="1" stroke-linecap="round"></path><path d="M244.875,187.375l1.5,2.25" fill="none" stroke="#33fffe" stroke-width="1" stroke-linecap="round"></path><path d="M245.625,203.625l2,2.75" fill="none" stroke="#33fffe" stroke-width="1" stroke-linecap="round"></path><path d="M269.125,203.125l1.25,1.75" fill="none" stroke="#33fffe" stroke-width="1" stroke-linecap="round"></path><path d="M282.125,191.875l2,2.25" fill="none" stroke="#33fffe" stroke-width="1" stroke-linecap="round"></path><path d="M307.875,189.125l-2.5,-3" fill="none" stroke="#33fffe" stroke-width="1" stroke-linecap="round"></path><path d="M315.375,206.125l-1.75,-1.75" fill="none" stroke="#33fffe" stroke-width="1" stroke-linecap="round"></path><path d="M249.625,164.875l2.75,3.25" fill="none" stroke="#33fffe" stroke-width="1" stroke-linecap="round"></path><path d="M270.125,156.375l0.5,1.75" fill="none" stroke="#33fffe" stroke-width="1" stroke-linecap="round"></path><path d="M283.875,165.875l3.75,3.5" fill="none" stroke="#33fffe" stroke-width="1" stroke-linecap="round"></path><path d="M301.125,167.625l-1.25,-1.5" fill="none" stroke="#33fffe" stroke-width="1" stroke-linecap="round"></path></g></g></svg>