<svg version="1.1" xmlns="http://www.w3.org/2000/svg" xmlns:xlink="http://www.w3.org/1999/xlink" width="111.91593" height="84.64157" viewBox="0,0,111.91593,84.64157"><defs><radialGradient cx="230.17493" cy="139.24753" r="1.54006" gradientUnits="userSpaceOnUse" id="color-1"><stop offset="0" stop-color="#edff2a"></stop><stop offset="1" stop-color="#edff2a" stop-opacity="0"></stop></radialGradient><linearGradient x1="286.94774" y1="205.3827" x2="280.91253" y2="213.46989" gradientUnits="userSpaceOnUse" id="color-2"><stop offset="0" stop-color="#f5d95e" stop-opacity="0.76745"></stop><stop offset="1" stop-color="#f5d95e" stop-opacity="0"></stop></linearGradient><linearGradient x1="292.72047" y1="205.47361" x2="286.68525" y2="213.5608" gradientUnits="userSpaceOnUse" id="color-3"><stop offset="0" stop-color="#f5d95e" stop-opacity="0.76745"></stop><stop offset="1" stop-color="#f5d95e" stop-opacity="0"></stop></linearGradient></defs><g transform="translate(-183.73863,-136.67926)"><g data-paper-data="{&quot;isPaintingLayer&quot;:true}" fill-rule="nonzero" stroke-linejoin="miter" stroke-miterlimit="10" stroke-dasharray="" stroke-dashoffset="0" style="mix-blend-mode: normal"><path d="M224.5,202.35714c0,1.38071 -0.95939,2.5 -2.14286,2.5c-1.18347,0 -2.14286,-1.11929 -2.14286,-2.5c0,-1.38071 0.95939,-2.5 2.14286,-2.5c1.18347,0 2.14286,1.11929 2.14286,2.5z" fill="#cecece" stroke="none" stroke-width="0" stroke-linecap="butt"></path><path d="M190.64286,202.42857c0,1.34126 -1.34315,2.42857 -3,2.42857c-1.65685,0 -3,-1.08731 -3,-2.42857c0,-1.34126 1.34315,-2.42857 3,-2.42857c1.65685,0 3,1.08731 3,2.42857z" fill="#a3a3a3" stroke="none" stroke-width="0" stroke-linecap="butt"></path><path d="M188.04893,207.99112c-0.4332,2.64732 -1.54181,4.66945 -2.47616,4.51655c-0.93435,-0.15289 -1.34061,-2.42291 -0.90741,-5.07023c0.4332,-2.64732 1.54181,-4.66945 2.47616,-4.51655c0.93435,0.15289 1.34061,2.42291 0.90741,5.07023z" fill="#636363" stroke="none" stroke-width="0" stroke-linecap="butt"></path><path d="M225.72769,214.27889c0.23473,1.02275 -2.5423,2.53288 -6.20267,3.37297c-3.66037,0.84008 -6.81797,0.692 -7.0527,-0.33075c-0.23473,-1.02275 2.5423,-2.53288 6.20267,-3.37296c3.66037,-0.84008 6.81797,-0.69201 7.0527,0.33074z" fill="#696969" stroke="none" stroke-width="0" stroke-linecap="butt"></path><path d="M213.9,214.5c0,1.87777 -1.11929,3.4 -2.5,3.4c-1.38071,0 -2.5,-1.52223 -2.5,-3.4c0,-1.87777 1.11929,-3.4 2.5,-3.4c1.38071,0 2.5,1.52223 2.5,3.4z" fill="#c2c2c2" stroke="none" stroke-width="0" stroke-linecap="butt"></path><path d="M209.3,215c0,1.82254 -3.08924,3.3 -6.9,3.3c-3.81077,0 -6.9,-1.47746 -6.9,-3.3c0,-1.82254 3.08924,-3.3 6.9,-3.3c3.81077,0 6.9,1.47746 6.9,3.3z" fill="#a5a5a5" stroke="none" stroke-width="0" stroke-linecap="butt"></path><path d="M197.83185,213.94358c-0.91164,2.19287 -3.09763,3.36901 -4.88252,2.62697c-1.7849,-0.74203 -2.49281,-3.12125 -1.58116,-5.31412c0.91164,-2.19287 3.09763,-3.36901 4.88252,-2.62698c1.7849,0.74203 2.49281,3.12125 1.58116,5.31413z" fill="#d2d2d2" stroke="none" stroke-width="0" stroke-linecap="butt"></path><path d="M193.5,213.9c0,1.76731 -2.05949,3.2 -4.6,3.2c-2.54051,0 -4.6,-1.43269 -4.6,-3.2c0,-1.76731 2.05949,-3.2 4.6,-3.2c2.54051,0 4.6,1.43269 4.6,3.2z" fill="#4a4a4a" stroke="none" stroke-width="0" stroke-linecap="butt"></path><path d="M228.3,198.09999v18.6h-4.2v-18.6z" data-paper-data="{&quot;index&quot;:null}" fill="#ababab" stroke="none" stroke-width="0" stroke-linecap="butt"></path><path d="M268.1,197.89999v18.6h-4.2v-18.6z" data-paper-data="{&quot;index&quot;:null}" fill="#ababab" stroke="none" stroke-width="0" stroke-linecap="butt"></path><path d="M199.5,196.69999v4.2h-15v-4.2z" data-paper-data="{&quot;index&quot;:null}" fill="#ababab" stroke="none" stroke-width="NaN" stroke-linecap="butt"></path><path d="M286.5,161.3v-4.2h7.2v4.2z" data-paper-data="{&quot;index&quot;:null}" fill="#ababab" stroke="none" stroke-width="NaN" stroke-linecap="butt"></path><path d="M184.5,160.5v-4.2h15v4.2z" fill="#ababab" stroke="none" stroke-width="NaN" stroke-linecap="butt"></path><path d="M183.73866,221.32083v-5.51584h110.58727v5.51584z" fill="#757575" stroke="none" stroke-width="0.5" stroke-linecap="butt"></path><path d="M293.91806,175.60087v-3.02982h1.04879v3.02982z" fill="#b7b7b7" stroke="none" stroke-width="0.5" stroke-linecap="butt"></path><path d="M183.8833,140.8744v-4.19514h110.79222v4.19514c0,0 -17.74587,1.78289 -35.29823,1.36315c-3.35227,-0.08016 -5.87351,-1.67883 -9.09468,-2.17927c-1.25514,-0.195 -2.7066,0.83614 -3.98858,0.74266c-3.95662,-0.28851 -7.71989,-1.3432 -10.66903,-1.3432c-0.64516,0 -1.89591,2.08524 -2.58308,2.08891c-18.05212,0.09642 -49.15862,-0.67224 -49.15862,-0.67224z" fill="#686868" stroke="none" stroke-width="0.5" stroke-linecap="butt"></path><path d="M183.73863,219.77805v-80.90803h1.86451v80.90803z" fill="#686868" stroke="none" stroke-width="0.5" stroke-linecap="butt"></path><path d="M289.62987,142.37661c0,0.22593 -0.20351,0.40909 -0.45455,0.40909c-0.25104,0 -0.45455,-0.18316 -0.45455,-0.40909c0,-0.22593 0.20351,-0.40909 0.45455,-0.40909c0.25104,0 0.45455,0.18316 0.45455,0.40909z" fill="#b5c7c7" stroke="none" stroke-width="0" stroke-linecap="butt"></path><path d="M224.1,159.1v-18.6h4.2v18.6z" fill="#ababab" stroke="none" stroke-width="0" stroke-linecap="butt"></path><path d="M215.7,160.5v-4.2h12v4.2z" fill="#ababab" stroke="none" stroke-width="NaN" stroke-linecap="butt"></path><path d="M252.7,160.7v-4.2h15v4.2z" data-paper-data="{&quot;index&quot;:null}" fill="#ababab" stroke="none" stroke-width="NaN" stroke-linecap="butt"></path><path d="M223.7,160.3v-4.2h12v4.2z" data-paper-data="{&quot;index&quot;:null}" fill="#ababab" stroke="none" stroke-width="NaN" stroke-linecap="butt"></path><path d="M263.9,159.3v-18.6h4.2v18.6z" fill="#ababab" stroke="none" stroke-width="0" stroke-linecap="butt"></path><path d="M259.7,160.89999v-4.2h13.2v4.2z" data-paper-data="{&quot;index&quot;:null}" fill="#ababab" stroke="none" stroke-width="NaN" stroke-linecap="butt"></path><path d="M293.7,195.89999v4.2h-7.2v-4.2z" data-paper-data="{&quot;index&quot;:null}" fill="#ababab" stroke="none" stroke-width="NaN" stroke-linecap="butt"></path><path d="M227.7,196.69999v4.2h-12v-4.2z" data-paper-data="{&quot;index&quot;:null}" fill="#ababab" stroke="none" stroke-width="NaN" stroke-linecap="butt"></path><path d="M267.7,196.49999v4.2h-15v-4.2z" data-paper-data="{&quot;index&quot;:null}" fill="#ababab" stroke="none" stroke-width="NaN" stroke-linecap="butt"></path><path d="M235.7,196.89999v4.2h-12v-4.2z" data-paper-data="{&quot;index&quot;:null}" fill="#ababab" stroke="none" stroke-width="NaN" stroke-linecap="butt"></path><path d="M272.9,196.29999v4.2h-13.2v-4.2z" data-paper-data="{&quot;index&quot;:null}" fill="#ababab" stroke="none" stroke-width="NaN" stroke-linecap="butt"></path><g stroke-linecap="butt"><path d="M229.21466,138.21478v-0.36237c0,0 0.75229,-0.61602 1.09067,-0.61602c0.31169,0 0.86612,0.61602 0.86612,0.61602v0.36237z" fill="#0c481d" stroke="none" stroke-width="0"></path><path d="M229.34677,148.04286l0.3986,-1.40115h1.05086l0.57979,1.40115z" fill="#0c481d" stroke="none" stroke-width="0"></path><path d="M229.64874,146.85912l0.25366,-6.98161l0.60394,-0.03624l0.32613,7.01784z" fill="#0c481d" stroke="none" stroke-width="0"></path><path d="M229.60269,140.05191l-0.21742,-1.73106h1.62235l-0.18118,1.69482z" fill="#f6e72a" stroke="#0c481d" stroke-width="0.5"></path><path d="M229.61439,137.60329v-0.47561h1.28414v0.47561z" fill="#b3b3ac" stroke="none" stroke-width="0"></path><path d="M231.17144,146.09627c0,0.09006 -0.39748,0.16307 -0.8878,0.16307c-0.49032,0 -0.8878,-0.07301 -0.8878,-0.16307c0,-0.09006 0.39748,-0.16307 0.8878,-0.16307c0.49032,0 0.8878,0.07301 0.8878,0.16307z" fill="#0c481d" stroke="none" stroke-width="0"></path><path d="M231.09896,145.71578c0,0.10006 -0.34881,0.18118 -0.77909,0.18118c-0.43028,0 -0.77909,-0.08112 -0.77909,-0.18118c0,-0.10006 0.34881,-0.18118 0.77909,-0.18118c0.43028,0 0.77909,0.08112 0.77909,0.18118z" fill="#0c481d" stroke="none" stroke-width="0"></path><path d="M230.84531,140.22592c0,0.11007 -0.28392,0.1993 -0.63414,0.1993c-0.35023,0 -0.63414,-0.08923 -0.63414,-0.1993c0,-0.11007 0.28392,-0.1993 0.63414,-0.1993c0.35023,0 0.63414,0.08923 0.63414,0.1993z" fill="#0c481d" stroke="none" stroke-width="0"></path><path d="M231.64252,139.24753c0,0.85055 -0.65706,1.54006 -1.46759,1.54006c-0.81053,0 -1.46759,-0.68951 -1.46759,-1.54006c0,-0.85055 0.65706,-1.54006 1.46759,-1.54006c0.81053,0 1.46759,0.68951 1.46759,1.54006z" fill="url(#color-1)" stroke="none" stroke-width="0"></path></g><path d="M238.29167,137l3.16667,1.75l0.91667,1.33333" fill="none" stroke="#49a532" stroke-width="0.5" stroke-linecap="round"></path><path d="M241.54167,138.66667l1.83333,0.66667" fill="none" stroke="#49a532" stroke-width="0.5" stroke-linecap="round"></path><path d="M248.95833,137.08333l-2,1.58333l-1.16667,-0.58333" fill="none" stroke="#49a532" stroke-width="0.5" stroke-linecap="round"></path><path d="M246.875,139.58333l-0.16667,-0.91667l1.5,0.08333" fill="none" stroke="#49a532" stroke-width="0.5" stroke-linecap="round"></path><path d="M246.45833,138.91667l-1.16667,1.5" fill="none" stroke="#49a532" stroke-width="0.5" stroke-linecap="round"></path><path d="M233.04167,141.5v-3h27.08333v3z" fill-opacity="0.05777" fill="#686868" stroke="none" stroke-width="0" stroke-linecap="butt"></path><g><g data-paper-data="{&quot;index&quot;:null}"><path d="M227.87093,154.02075l2.46388,-4.14731l4.32763,2.57101l-2.46388,4.14731z" fill="#b17e37" stroke="#916842" stroke-width="0.5" stroke-linecap="butt"></path><path d="M229.36071,153.79445l1.49975,-2.52445l2.52445,1.49975l-1.49975,2.52445z" fill="#825d28" stroke="#916842" stroke-width="0" stroke-linecap="butt"></path><path d="M234.85437,152.4636l-1.35767,0.27769" fill="none" stroke="#d4a158" stroke-width="0.15" stroke-linecap="round"></path><path d="M230.32758,150.04533l0.54945,1.35649" fill="none" stroke="#d4a158" stroke-width="0.15" stroke-linecap="round"></path><path d="M228.14618,153.89966l1.22237,-0.14121" fill="none" stroke="#d4a158" stroke-width="0.15" stroke-linecap="round"></path><path d="M231.80532,155.31453l0.49949,0.89308" fill="none" stroke="#d4a158" stroke-width="0.15" stroke-linecap="round"></path><path d="M229.91295,150.34888l0.20405,-0.34346l4.67968,2.78016l-0.20405,0.34346z" fill="#caa784" stroke="none" stroke-width="NaN" stroke-linecap="butt"></path><path d="M231.00226,153.78415l0.35708,-0.60106l0.36731,0.21822l-0.35708,0.60106z" fill="#ff6666" stroke="none" stroke-width="NaN" stroke-linecap="butt"></path><path d="M231.05253,153.09117l0.93103,-0.35044l0.00394,0.9059z" fill="#ff6666" stroke="none" stroke-width="0" stroke-linecap="butt"></path></g><path d="M228.97155,152.73416l1.42215,0.26331l0.31067,1.0154l0.6372,0.04622" fill="none" stroke="#000000" stroke-width="0.5" stroke-linecap="round"></path><path d="M229.78866,154.7151l-0.01451,-3.33194l2.98593,2.10625l-0.86335,-1.34374l0.96555,-0.50646" fill="none" stroke="#43c500" stroke-width="0.25" stroke-linecap="round"></path><path d="M234.03087,152.74887l-0.71628,1.48537l-2.05572,0.52346" fill="none" stroke="#43c500" stroke-width="0.25" stroke-linecap="round"></path><path d="M232.26271,154.60632l-0.14412,0.66213" fill="none" stroke="#43c500" stroke-width="0.25" stroke-linecap="round"></path></g><path d="M258.47641,144.38255v-2.14286c0,0 1.27985,-0.92857 2.07143,-0.92857c0.80348,0 2.71429,0.92857 2.71429,0.92857v2.14286z" fill-opacity="0.63842" fill="#904f3a" stroke="none" stroke-width="NaN" stroke-linecap="butt"></path><g data-paper-data="{&quot;index&quot;:null}"><path d="M286.15741,206.38084v-0.90909h8v0.90909z" fill="#f5c900" stroke="none" stroke-width="0" stroke-linecap="butt"></path><path d="M292.20286,206.69902l-1.86363,1.09091" data-paper-data="{&quot;index&quot;:null}" fill="none" stroke="#000000" stroke-width="0.15" stroke-linecap="round"></path><path d="M289.65741,207.88084l-1.86364,-1.09091" fill="none" stroke="#000000" stroke-width="0.15" stroke-linecap="round"></path><path d="M290.12461,213.66374l-0.10688,-0.52251l2.67789,-0.54775l0.10688,0.52251z" fill="#000000" stroke="none" stroke-width="0" stroke-linecap="butt"></path><path d="M289.64345,215.9286v-2.8h0.6l-0.2,3.06667z" fill="#000000" stroke="none" stroke-width="0" stroke-linecap="butt"></path><path d="M287.35845,213.26789l0.06249,-0.46246l2.84085,0.38389l-0.06249,0.46247z" fill="#000000" stroke="none" stroke-width="0" stroke-linecap="butt"></path><path d="M289.57679,213.86194v-7.6h0.8v7.6z" fill="#f5c900" stroke="none" stroke-width="0" stroke-linecap="butt"></path><path d="M289.57679,209.86194v-0.4h0.8v0.4z" fill="#000000" stroke="none" stroke-width="0" stroke-linecap="butt"></path><path d="M289.93013,206.57343c-0.11562,0 -0.26914,-0.18182 -0.26914,-0.18182v-0.94737h0.78948v0.94737c0,0 -0.37828,0.18182 -0.52034,0.18182z" fill="#040400" stroke="none" stroke-width="0" stroke-linecap="butt"></path><path d="M291.39784,206.50405v-2.05263h3v2.05263z" fill="#f5e49a" stroke="#000000" stroke-width="0.5" stroke-linecap="butt"></path><path d="M293.79378,206.15357l0.04545,-1.5" fill="none" stroke="#000000" stroke-width="0.25" stroke-linecap="round"></path><path d="M292.93013,204.65357l-0.04545,1.59091" fill="none" stroke="#000000" stroke-width="0.25" stroke-linecap="round"></path><path d="M292.02104,204.74448l-0.04545,1.36364" fill="none" stroke="#000000" stroke-width="0.25" stroke-linecap="round"></path><path d="M294.20286,205.51721c0,0 -0.86459,0.30364 -1.26927,0.31891c-0.39825,0.01503 -1.13982,-0.228 -1.13982,-0.228" fill="none" stroke="#000000" stroke-width="0.25" stroke-linecap="round"></path><path d="M285.57726,206.5495v-2.05263h3v2.05263z" data-paper-data="{&quot;index&quot;:null}" fill="#f5e49a" stroke="#000000" stroke-width="0.5" stroke-linecap="butt"></path><path d="M286.13587,204.69902l0.04546,1.5" data-paper-data="{&quot;index&quot;:null}" fill="none" stroke="#000000" stroke-width="0.25" stroke-linecap="round"></path><path d="M287.04496,204.69902l0.04546,1.59091" data-paper-data="{&quot;index&quot;:null}" fill="none" stroke="#000000" stroke-width="0.25" stroke-linecap="round"></path><path d="M287.95405,204.78993l0.04546,1.36364" data-paper-data="{&quot;index&quot;:null}" fill="none" stroke="#000000" stroke-width="0.25" stroke-linecap="round"></path><path d="M288.18133,205.65357c0,0 -0.74157,0.24303 -1.13982,0.228c-0.40468,-0.01527 -1.26927,-0.31891 -1.26927,-0.31891" data-paper-data="{&quot;index&quot;:null}" fill="none" stroke="#000000" stroke-width="0.25" stroke-linecap="round"></path><path d="M279.56466,212.46402l6.03522,-8.08719c0,0 2.22038,-0.07705 2.68669,0.27094c0.42919,0.32029 0.00904,1.7408 0.00904,1.7408l-6.03522,8.08719z" fill="url(#color-2)" stroke="none" stroke-width="0" stroke-linecap="butt"></path><path d="M285.33739,212.55494l6.03521,-8.08719c0,0 2.22038,-0.07706 2.68669,0.27093c0.42918,0.32029 0.00904,1.7408 0.00904,1.7408l-6.03521,8.08719z" fill="url(#color-3)" stroke="none" stroke-width="0" stroke-linecap="butt"></path></g><path d="M272.29741,199.07887l0.15947,-2.32708l14.38856,1.16933l-0.15947,2.32708z" fill="#b77749" stroke="none" stroke-width="NaN" stroke-linecap="butt"></path><path d="M272.0223,199.24116l7.16842,-1.9487l0.78697,2.89494l-7.16842,1.9487z" fill="#b77749" stroke="none" stroke-width="0" stroke-linecap="butt"></path><path d="M282.93331,199.70934l-0.7163,-0.89053l4.56396,-3.67101l0.7163,0.89053z" fill="#b77749" stroke="none" stroke-width="0" stroke-linecap="butt"></path><path d="M274.5,206.28571c0,1.57796 -1.21523,2.85714 -2.71429,2.85714c-1.49906,0 -2.71429,-1.27919 -2.71429,-2.85714c0,-1.57796 1.21523,-2.85714 2.71429,-2.85714c1.49906,0 2.71429,1.27919 2.71429,2.85714z" fill="#656565" stroke="none" stroke-width="0" stroke-linecap="butt"></path><path d="M275.25926,209.36123c-0.33988,0.66804 -1.49899,0.76005 -2.58895,0.20551c-1.08996,-0.55454 -1.69802,-1.54564 -1.35814,-2.21368c0.33988,-0.66804 1.49899,-0.76005 2.58895,-0.20551c1.08996,0.55454 1.69802,1.54564 1.35814,2.21368z" fill="#9b9b9b" stroke="none" stroke-width="0" stroke-linecap="butt"></path><path d="M293.16393,220.90067v-84.11628h2.49063v84.11628z" fill="#686868" stroke="none" stroke-width="0.5" stroke-linecap="butt"></path></g></g></svg>