<svg version="1.1" xmlns="http://www.w3.org/2000/svg" xmlns:xlink="http://www.w3.org/1999/xlink" width="16.34692" height="33.56279" viewBox="0,0,16.34692,33.56279"><defs><linearGradient x1="244.04386" y1="167.66986" x2="236.09898" y2="167.66986" gradientUnits="userSpaceOnUse" id="color-1"><stop offset="0" stop-color="#ffe108"></stop><stop offset="1" stop-color="#ffc908"></stop></linearGradient><linearGradient x1="243.79857" y1="167.70014" x2="239.83154" y2="167.70014" gradientUnits="userSpaceOnUse" id="color-2"><stop offset="0" stop-color="#ffe108"></stop><stop offset="1" stop-color="#ffe108" stop-opacity="0"></stop></linearGradient><radialGradient cx="240.03666" cy="164.72423" r="2.09288" gradientUnits="userSpaceOnUse" id="color-3"><stop offset="0" stop-color="#fff399"></stop><stop offset="1" stop-color="#fff399" stop-opacity="0"></stop></radialGradient><linearGradient x1="239.7408" y1="191.31816" x2="236.14495" y2="191.33231" gradientUnits="userSpaceOnUse" id="color-4"><stop offset="0" stop-color="#08ff7d"></stop><stop offset="1" stop-color="#06ce5c"></stop></linearGradient><linearGradient x1="244.07805" y1="191.39174" x2="240.54402" y2="191.39174" gradientUnits="userSpaceOnUse" id="color-5"><stop offset="0" stop-color="#08ff7d"></stop><stop offset="1" stop-color="#06ce5c"></stop></linearGradient></defs><g transform="translate(-231.82654,-163.25136)"><g data-paper-data="{&quot;isPaintingLayer&quot;:true}" fill-rule="nonzero" stroke-linejoin="miter" stroke-miterlimit="10" stroke-dasharray="" stroke-dashoffset="0" style="mix-blend-mode: normal"><path d="M235.43895,184.9676l-0.04905,-14.75859h1.91841l-0.99102,15.8515z" data-paper-data="{&quot;index&quot;:null}" fill="#0067b5" stroke="none" stroke-width="0" stroke-linecap="butt"></path><path d="M236.12636,172.607l-0.79221,-2.45795l8.25225,0.2398l0.59417,2.21815z" data-paper-data="{&quot;index&quot;:null}" fill="#0067b5" stroke="none" stroke-width="0" stroke-linecap="butt"></path><path d="M236.03658,186.26093v-13.65714h8.20658v13.65714z" data-paper-data="{&quot;index&quot;:null}" fill="#0090ff" stroke="none" stroke-width="0" stroke-linecap="butt"></path><path d="M243.95986,183.96922l0.17727,-10.83008l3.35497,0.05492c0,0 0.6408,0.29481 0.6336,0.73445c-0.02038,1.24469 0.14428,7.34089 -0.04213,9.40834c-0.03889,0.43131 -0.76871,0.68728 -0.76871,0.68728z" data-paper-data="{&quot;index&quot;:null}" fill="#ffe108" stroke="none" stroke-width="0" stroke-linecap="butt"></path><path d="M235.84,165.84807c0,0 0.02872,-1.61569 1.23871,-2.12088c0.95195,-0.39746 4.00296,-0.63961 5.73608,-0.12579c1.25558,0.37223 1.44489,1.38249 1.44489,1.85766c0,1.13111 -0.23712,4.30954 -0.23712,4.30954c0,0 0.14498,1.02931 -0.64115,1.5735c-0.79236,0.5485 -2.5185,0.61185 -3.18887,0.60101c-0.81932,-0.01324 -2.56144,-0.07146 -3.5343,-0.72972c-0.65625,-0.44404 -0.76108,-1.57614 -0.76108,-1.57614z" fill="#d8bf06" stroke="none" stroke-width="0" stroke-linecap="butt"></path><text transform="translate(244.04243,168.42331) rotate(-180) scale(0.0646,-0.06459) skewX(0)" font-size="40" xml:space="preserve" fill="#fbff66" fill-rule="nonzero" stroke="none" stroke-width="1" stroke-linecap="butt" stroke-linejoin="miter" stroke-miterlimit="10" stroke-dasharray="" stroke-dashoffset="0" font-family="Sans Serif" font-weight="normal" text-anchor="start" style="mix-blend-mode: normal"><tspan x="0" dy="0">xamt8</tspan></text><path d="M236.09898,165.98014c0,0 0.02709,-1.53492 1.16885,-2.01486c0.89827,-0.37759 3.77722,-0.60764 5.41261,-0.1195c1.18478,0.35363 1.36341,1.31339 1.36341,1.76481c0,1.07457 -0.22375,4.09411 -0.22375,4.09411c0,0 0.13682,0.97786 -0.60498,1.49484c-0.74767,0.52107 -2.37647,0.58127 -3.00905,0.57097c-0.77312,-0.01258 -2.41699,-0.06788 -3.33499,-0.69324c-0.61924,-0.42184 -0.71816,-1.49734 -0.71816,-1.49734z" fill="url(#color-1)" stroke="none" stroke-width="0" stroke-linecap="butt"></path><path d="M239.90954,163.59918c0.90123,-0.00913 1.82692,0.06834 2.52561,0.27688c1.18478,0.35363 1.36341,1.31339 1.36341,1.76481c0,1.07457 -0.22375,4.09411 -0.22375,4.09411c0,0 0.13682,0.97786 -0.60499,1.49485c-0.74767,0.52107 -2.37647,0.58127 -3.00905,0.57097c-0.13112,-0.00214 -0.1861,-8.20025 -0.05123,-8.20163z" fill="url(#color-2)" stroke="none" stroke-width="0" stroke-linecap="butt"></path><path d="M237.65689,163.47014c-0.31545,-0.4473 1.45364,-0.10883 2.91655,0.13286c1.45695,0.24071 2.88824,0.50593 2.6312,0.67166c-0.49246,0.31752 -1.7255,0.80915 -1.7255,0.80915c0,0 -0.62495,0.86802 -1.29372,0.90419c-0.35827,0.01937 -0.68159,-0.58025 -1.03444,-0.82959c-0.28539,-0.20168 -1.04747,-1.43483 -1.17482,-1.6154z" fill="url(#color-3)" stroke="none" stroke-width="0" stroke-linecap="butt"></path><path d="M235.30691,170.68209l0.68669,1.962" data-paper-data="{&quot;index&quot;:null}" fill="none" stroke="#003e6d" stroke-width="0.15" stroke-linecap="round"></path><g stroke="#000000"><path d="M236.16055,196.68918l-0.03121,-10.71373l3.59585,-0.01415l0.03121,10.71373z" data-paper-data="{&quot;index&quot;:null}" fill="url(#color-4)" stroke-width="0" stroke-linecap="butt"></path><path d="M239.82575,186.14254l-0.14342,10.52184l-3.53971,-0.05351l0.14265,-10.79161" data-paper-data="{&quot;index&quot;:null}" fill="none" stroke-width="0.15" stroke-linecap="round"></path></g><g stroke="#000000"><path d="M240.54402,196.74864v-10.71379h3.53402v10.71379z" data-paper-data="{&quot;index&quot;:null}" fill="url(#color-5)" stroke-width="0" stroke-linecap="butt"></path><path d="M244.17635,186.21649l-0.17108,10.52122l-3.47866,-0.06744l0.17109,-10.79099" data-paper-data="{&quot;index&quot;:null}" fill="none" stroke-width="0.15" stroke-linecap="round"></path></g><path d="M232.68513,184.02413c0,0 -0.72982,-0.25597 -0.76871,-0.68728c-0.18641,-2.06745 -0.02175,-8.16365 -0.04213,-9.40834c-0.0072,-0.43964 0.6336,-0.73445 0.6336,-0.73445l3.35497,-0.05492l0.17727,10.83008z" data-paper-data="{&quot;index&quot;:null}" fill="#ffe108" stroke="none" stroke-width="0" stroke-linecap="butt"></path></g></g></svg>