<svg version="1.1" xmlns="http://www.w3.org/2000/svg" xmlns:xlink="http://www.w3.org/1999/xlink" width="26.35571" height="53.76303" viewBox="0,0,26.35571,53.76303"><defs><linearGradient x1="231.28544" y1="175.40328" x2="252.93194" y2="201.22791" gradientUnits="userSpaceOnUse" id="color-1"><stop offset="0" stop-color="#ae5a00"></stop><stop offset="1" stop-color="#ff7a00"></stop></linearGradient></defs><g transform="translate(-228.48399,-149.63007)"><g data-paper-data="{&quot;isPaintingLayer&quot;:true}" fill-rule="nonzero" stroke-width="0.5" stroke-linejoin="miter" stroke-miterlimit="10" stroke-dasharray="" stroke-dashoffset="0" style="mix-blend-mode: normal"><path d="M248.86598,155.94204c-0.40606,2.95497 -2.91574,5.05083 -5.60552,4.68121c-2.68978,-0.36962 -4.54112,-3.06473 -4.13506,-6.01971c0.40606,-2.95497 2.91574,-5.05083 5.60553,-4.68121c2.68978,0.36962 4.54111,3.06473 4.13505,6.01971z" fill="#ffeecf" stroke="#000000" stroke-linecap="butt"></path><path d="M241.76031,152.03345c0,0 -1.06714,-0.65139 -1.04443,-0.99437c0.02873,-0.43383 1.20302,-1.40071 1.20302,-1.40071l5.71135,0.37816c0,0 1.03597,1.12214 1.00783,1.54709c-0.0241,0.3639 -1.16641,0.84799 -1.16641,0.84799c0,0 -1.65527,0.53805 -2.62202,0.47405c-0.93605,-0.06198 -3.08933,-0.85222 -3.08933,-0.85222z" fill="#bb7711" stroke="none" stroke-linecap="butt"></path><path d="M244.02239,153.66248c-0.06594,0.47987 -0.73363,0.78449 -1.49131,0.68036c-0.75769,-0.10412 -1.31845,-0.57752 -1.25251,-1.05741c0.06594,-0.47987 0.73363,-0.78448 1.49131,-0.68036c0.75769,0.10412 1.31845,0.57752 1.25251,1.05741z" fill="#000000" stroke="none" stroke-linecap="butt"></path><path d="M247.03661,153.8269c-0.06941,0.50512 -0.67848,0.83864 -1.3604,0.74493c-0.68192,-0.0937 -1.17845,-0.57915 -1.10904,-1.08428c0.06941,-0.50512 0.67848,-0.83864 1.3604,-0.74493c0.68192,0.0937 1.17845,0.57915 1.10904,1.08428z" fill="#000000" stroke="none" stroke-linecap="butt"></path><path d="M246.62373,153.85385l-2.7987,-0.38459" fill="none" stroke="#000000" stroke-linecap="round"></path><path d="M246.78094,153.38174l0.48218,-0.66062" fill="none" stroke="#000000" stroke-linecap="round"></path><path d="M241.08278,153.43405l-1.25879,-1.01166" fill="none" stroke="#000000" stroke-linecap="round"></path><path d="M236.44647,180.44067c0.28346,-5.1095 0.77268,-13.92852 0.93438,-16.84302c0.10218,-1.84199 0.58151,-3.9565 0.98233,-3.93427c1.23343,0.06842 7.6536,0.42459 9.90589,0.54954c0.48928,0.02714 0.69974,1.52367 0.57836,3.71178c-0.28603,5.15599 -0.79008,14.24204 -0.95147,17.15113c-0.09783,1.76353 -0.50986,3.75444 -1.0112,3.72663c-2.26478,-0.12564 -8.62508,-0.47848 -9.86562,-0.5473c-0.41019,-0.02275 -0.69709,-1.57151 -0.57267,-3.81449z" fill="#0052ff" stroke="#d6ffcf" stroke-linecap="butt"></path><path d="M240.27899,184.67769c0,0 1.52321,-16.98535 1.57977,-20.99945c0.02235,-1.58651 -1.23349,-3.57631 -1.23349,-3.57631l5.54094,0.12247c0,0 -1.95261,2.56604 -2.07013,3.69327c-0.37317,3.57905 -0.49865,20.94412 -0.49865,20.94412z" fill="#ffffff" stroke="none" stroke-linecap="butt"></path><path d="M231.36022,195.689l6.72811,-12.20928l2.74911,1.51494l-6.72811,12.20928z" fill="#d69100" stroke="none" stroke-linecap="butt"></path><path d="M245.53602,198.79636l-1.28491,-14.15915l2.57439,-0.23362l1.28491,14.15915z" fill="#d69100" stroke="none" stroke-linecap="butt"></path><path d="M228.48399,196.31761l1.78229,-3.23424c0,0 0.71984,0.81247 1.70093,0.90396c1.0858,0.10125 2.46595,-0.5051 2.98218,-0.22062c0.60178,0.33161 0.65338,2.25743 0.65338,2.25743l-1.78229,3.23424z" fill="#7c5500" stroke="none" stroke-linecap="butt"></path><path d="M235.11763,195.7568l-0.69794,-2.17659" fill="none" stroke="#000000" stroke-linecap="round"></path><path d="M233.94437,196.16433l-0.58079,-2.00663" fill="none" stroke="#000000" stroke-linecap="round"></path><path d="M245.39369,200.29247l-0.33374,-3.6777c0,0 0.82051,-1.74305 1.50477,-1.80514c0.58701,-0.05327 1.60758,1.0562 2.64267,1.39942c0.93525,0.31013 1.92076,-0.14495 1.92076,-0.14495l0.33374,3.6777z" data-paper-data="{&quot;index&quot;:null}" fill="#7c5500" stroke="none" stroke-linecap="butt"></path><path d="M247.12618,195.77285l1.16755,-1.96505" data-paper-data="{&quot;index&quot;:null}" fill="none" stroke="#000000" stroke-linecap="round"></path><path d="M246.52253,197.40905l1.33759,-1.60458" data-paper-data="{&quot;index&quot;:null}" fill="none" stroke="#000000" stroke-linecap="round"></path><path d="M252.61436,179.94475l-6.81116,-11.52411l2.22535,-1.31526l6.81115,11.5241z" fill="#ffeecf" stroke="none" stroke-linecap="butt"></path><path d="M229.33277,175.95229l7.4494,-11.12222l2.14773,1.43851l-7.4494,11.12222z" fill="#ffeecf" stroke="none" stroke-linecap="butt"></path><path d="M252.54281,201.55409l-21.64651,-25.82462l0.77828,-0.65237l21.64651,25.82462z" fill="url(#color-1)" stroke="none" stroke-linecap="butt"></path><path d="M250.48743,203.17286l-0.91595,-1.09275c0,0 2.00961,0.2923 2.47573,-0.0984c0.44337,-0.37163 0.25614,-2.19149 0.25614,-2.19149l0.91596,1.09275c0,0 0.14863,1.96849 -0.33549,2.37429c-0.4162,0.34887 -2.3964,-0.08439 -2.3964,-0.08439z" fill="#703a00" stroke="none" stroke-linecap="butt"></path></g></g></svg>