<svg version="1.1" xmlns="http://www.w3.org/2000/svg" xmlns:xlink="http://www.w3.org/1999/xlink" width="44.2648" height="31.44484" viewBox="0,0,44.2648,31.44484"><defs><linearGradient x1="244.06871" y1="163.97684" x2="244.06871" y2="195.42168" gradientUnits="userSpaceOnUse" id="color-1"><stop offset="0" stop-color="#51c9c9" stop-opacity="0"></stop><stop offset="1" stop-color="#51c9c9"></stop></linearGradient></defs><g transform="translate(-221.93631,-163.97684)"><g data-paper-data="{&quot;isPaintingLayer&quot;:true}" fill-rule="nonzero" stroke-linejoin="miter" stroke-miterlimit="10" stroke-dasharray="" stroke-dashoffset="0" style="mix-blend-mode: normal"><g><g><path d="M231.85714,169.79516l1.77703,2.69164l-0.8946,0.59061l-1.77703,-2.69164c0,0 0.02179,-0.64538 0.18072,-0.7503c0.13554,-0.08948 0.71388,0.15968 0.71388,0.15968z" fill="#b76000" stroke="none" stroke-width="0" stroke-linecap="butt"></path><path d="M232.90678,171.70504l-0.58855,0.38856" fill="none" stroke="#994f00" stroke-width="0.2" stroke-linecap="round"></path><path d="M232.32652,170.82614l-0.5596,0.33001" fill="none" stroke="#994f00" stroke-width="0.2" stroke-linecap="round"></path><path d="M231.74627,169.94723l0.23573,0.35706l-0.61209,0.4041l-0.23573,-0.35706c0,0 0.12419,-0.35805 0.2262,-0.42539c0.10201,-0.06735 0.38589,0.02129 0.38589,0.02129z" fill="#ffd8e6" stroke="#994f00" stroke-width="0.2" stroke-linecap="butt"></path></g><g><path d="M230.35291,170.15726l2.06716,3.13109l-0.8946,0.59061l-2.06716,-3.13109c0,0 -0.02558,-0.71713 0.13335,-0.82205c0.13554,-0.08948 0.76125,0.23144 0.76125,0.23144z" fill="#b76000" stroke="none" stroke-width="0" stroke-linecap="butt"></path><path d="M231.00939,172.75166l0.58855,-0.38856" fill="none" stroke="#994f00" stroke-width="0.2" stroke-linecap="round"></path><path d="M230.92295,171.3407l-0.56256,0.32553" fill="none" stroke="#994f00" stroke-width="0.2" stroke-linecap="round"></path><path d="M230.24796,170.3183l0.27422,0.41535l-0.61209,0.4041l-0.27422,-0.41535c0,0 0.10346,-0.38944 0.20548,-0.45679c0.10201,-0.06735 0.40662,0.05268 0.40662,0.05268z" fill="#ffd8e6" stroke="#994f00" stroke-width="0.2" stroke-linecap="butt"></path></g><g><path d="M228.90383,170.46391l2.26058,3.42406l-0.8946,0.59061l-2.26058,-3.42406c0,0 -0.05716,-0.76496 0.10177,-0.86988c0.13554,-0.08948 0.79283,0.27927 0.79283,0.27927z" fill="#b76000" stroke="none" stroke-width="0" stroke-linecap="butt"></path><path d="M229.69057,173.25561l0.58855,-0.38856" fill="none" stroke="#994f00" stroke-width="0.2" stroke-linecap="round"></path><path d="M229.54097,171.74899l-0.56453,0.32254" fill="none" stroke="#994f00" stroke-width="0.2" stroke-linecap="round"></path><path d="M228.80283,170.63093l0.29987,0.45421l-0.61209,0.4041l-0.29987,-0.45421c0,0 0.08965,-0.41036 0.19166,-0.47771c0.10201,-0.06735 0.42043,0.07361 0.42043,0.07361z" fill="#ffd8e6" stroke="#994f00" stroke-width="0.2" stroke-linecap="butt"></path></g><g><path d="M228.16157,171.84115l1.87374,2.83812l-0.8946,0.59061l-1.87374,-2.83812c0,0 0.006,-0.6693 0.16493,-0.77422c0.13554,-0.08948 0.72967,0.1836 0.72967,0.1836z" fill="#b76000" stroke="none" stroke-width="0" stroke-linecap="butt"></path><path d="M229.27634,173.84969l-0.58855,0.38856" fill="none" stroke="#994f00" stroke-width="0.2" stroke-linecap="round"></path><path d="M228.10392,173.25148l0.56058,-0.32852" fill="none" stroke="#994f00" stroke-width="0.2" stroke-linecap="round"></path><path d="M228.05267,171.99621l0.24855,0.37649l-0.61209,0.4041l-0.24855,-0.37649c0,0 0.11728,-0.36851 0.21929,-0.43586c0.10201,-0.06735 0.3928,0.03176 0.3928,0.03176z" fill="#ffd8e6" stroke="#994f00" stroke-width="0.2" stroke-linecap="butt"></path></g><g><path d="M233.50792,172.22608l9.3655,14.18577l-4.40909,2.9109l-9.3655,-14.18577z" fill="#b76000" stroke="none" stroke-width="0" stroke-linecap="butt"></path><path d="M241.09651,184.06782l4.49291,6.80534l-4.02569,2.65778l-4.49291,-6.80534c0,0 2.74165,0.52962 3.47201,0.04743c0.57295,-0.37826 0.55368,-2.70521 0.55368,-2.70521z" fill="#4a4a4a" stroke="#949494" stroke-width="1" stroke-linecap="butt"></path><g><path d="M227.43581,174.76958l3.26033,1.31481l-0.47117,0.93366l-3.26033,-1.31481c0,0 -0.36802,-0.5402 -0.28432,-0.70607c0.07138,-0.14146 0.75548,-0.2276 0.75548,-0.2276z" fill="#b76000" stroke="none" stroke-width="0" stroke-linecap="butt"></path><path d="M229.24408,176.42288l0.30997,-0.61426" fill="none" stroke="#994f00" stroke-width="0.2" stroke-linecap="round"></path><path d="M228.48945,175.3793l-0.31845,0.5517" fill="none" stroke="#994f00" stroke-width="0.2" stroke-linecap="round"></path><path d="M227.42485,174.94997l0.43249,0.17441l-0.32237,0.63883l-0.43249,-0.17441c0,0 -0.10062,-0.35599 -0.04689,-0.46246c0.05373,-0.10647 0.36927,-0.17636 0.36927,-0.17636z" fill="#ffd8e6" stroke="#994f00" stroke-width="0.2" stroke-linecap="butt"></path></g></g></g><path d="M221.93631,195.42168v-31.44484h44.2648v31.44484z" fill="url(#color-1)" stroke="none" stroke-width="0" stroke-linecap="butt"></path></g></g></svg>