<svg version="1.1" xmlns="http://www.w3.org/2000/svg" xmlns:xlink="http://www.w3.org/1999/xlink" width="10.9" height="10.9" viewBox="0,0,10.9,10.9"><g transform="translate(-234.55,-174.55)"><g data-paper-data="{&quot;isPaintingLayer&quot;:true}" fill-rule="nonzero" stroke="none" stroke-linecap="butt" stroke-linejoin="miter" stroke-miterlimit="10" stroke-dasharray="" stroke-dashoffset="0" style="mix-blend-mode: normal"><path d="M234.55,185.45v-10.9h10.9v10.9z" fill="#1f264e" stroke-width="0"></path><path d="M234.74559,175.86277c0,-0.10985 0.08905,-0.19891 0.19891,-0.19891c0.10985,0 0.19891,0.08905 0.19891,0.19891c0,0.10985 -0.08905,0.19891 -0.19891,0.19891c-0.10985,0 -0.19891,-0.08905 -0.19891,-0.19891z" fill="#232b57" stroke-width="0.5"></path><path d="M238.25958,178.48169c0,-0.10985 0.08905,-0.19891 0.19891,-0.19891c0.10985,0 0.19891,0.08905 0.19891,0.19891c0,0.10985 -0.08905,0.19891 -0.19891,0.19891c-0.10985,0 -0.19891,-0.08905 -0.19891,-0.19891z" fill="#232b57" stroke-width="0.5"></path><path d="M239.85082,176.39319c0,-0.10985 0.08905,-0.19891 0.19891,-0.19891c0.10985,0 0.19891,0.08905 0.19891,0.19891c0,0.10985 -0.08905,0.19891 -0.19891,0.19891c-0.10985,0 -0.19891,-0.08905 -0.19891,-0.19891z" fill="#232b57" stroke-width="0.5"></path><path d="M241.47521,177.71922c0,-0.10985 0.08905,-0.19891 0.19891,-0.19891c0.10985,0 0.19891,0.08905 0.19891,0.19891c0,0.10985 -0.08905,0.19891 -0.19891,0.19891c-0.10985,0 -0.19891,-0.08905 -0.19891,-0.19891z" fill="#232b57" stroke-width="0.5"></path><path d="M241.50837,178.18333c0,-0.10985 0.08905,-0.19891 0.19891,-0.19891c0.10985,0 0.19891,0.08905 0.19891,0.19891c0,0.10985 -0.08905,0.19891 -0.19891,0.19891c-0.10985,0 -0.19891,-0.08905 -0.19891,-0.19891z" fill="#232b57" stroke-width="0.5"></path><path d="M241.80672,182.02883c-0.19891,0 -0.19891,-0.19891 -0.19891,-0.19891l0.00271,-0.06585c0.02365,-0.14184 0.04527,-0.28403 0.06559,-0.42639c0,0 0.02813,-0.1969 0.22504,-0.16877c0.1969,0.02813 0.16877,0.22504 0.16877,0.22504c-0.02078,0.14541 -0.04287,0.29064 -0.06701,0.43553l0.00271,0.00045c0,0 0,0.19891 -0.19891,0.19891z" fill="#232b57" stroke-width="0.5"></path><path d="M236.66834,183.32172c0,-0.19891 0.19891,-0.19891 0.19891,-0.19891l0.06585,0.00271c0.0663,0.01105 0.1326,0.0221 0.19891,0.03315c0,0 0.1962,0.0327 0.1635,0.2289c-0.0327,0.1962 -0.2289,0.1635 -0.2289,0.1635c-0.0663,-0.01105 -0.1326,-0.0221 -0.19891,-0.03315l-0.00045,0.00271c0,0 -0.19891,0 -0.19891,-0.19891z" fill="#232b57" stroke-width="0.5"></path><path d="M235.87272,183.32172c0,-0.10985 0.08905,-0.19891 0.19891,-0.19891c0.10985,0 0.19891,0.08905 0.19891,0.19891c0,0.10985 -0.08905,0.19891 -0.19891,0.19891c-0.10985,0 -0.19891,-0.08905 -0.19891,-0.19891z" fill="#232b57" stroke-width="0.5"></path><path d="M242.40344,184.58145c0.1252,0 0.1716,0.07881 0.18878,0.13722c0.03302,0.01651 0.06605,0.03302 0.09907,0.04954c0,0 0.1779,0.08895 0.08895,0.26686c-0.08895,0.1779 -0.26686,0.08895 -0.26686,0.08895c-0.0663,-0.03315 -0.1326,-0.0663 -0.19891,-0.09945l-0.10995,-0.24421c0,0 0,-0.19891 0.19891,-0.19891z" fill="#232b57" stroke-width="0.5"></path><path d="M242.60234,184.41569c0,-0.10985 0.08905,-0.19891 0.19891,-0.19891c0.10985,0 0.19891,0.08905 0.19891,0.19891c0,0.10985 -0.08905,0.19891 -0.19891,0.19891c-0.10985,0 -0.19891,-0.08905 -0.19891,-0.19891z" fill="#232b57" stroke-width="0.5"></path><path d="M243.71947,183.82372c0.19417,-0.04315 0.23732,0.15102 0.23732,0.15102l0.0663,0.29836c0,0 0.04315,0.19417 -0.15102,0.23732c-0.19417,0.04315 -0.23732,-0.15102 -0.23732,-0.15102l-0.0663,-0.29836c0,0 -0.04315,-0.19417 0.15102,-0.23732z" fill="#232b57" stroke-width="0.5"></path><path d="M243.60272,180.87241c0.19504,0.03901 0.15603,0.23405 0.15603,0.23405l-0.03129,0.09862c0.0347,0.26702 0.15916,0.46126 0.27936,0.70165c0,0 0.08895,0.1779 -0.08895,0.26686c-0.1779,0.08895 -0.26686,-0.08895 -0.26686,-0.08895c-0.14077,-0.28154 -0.26958,-0.51045 -0.31736,-0.82329l0.03502,-0.23289c0,0 0.03901,-0.19504 0.23405,-0.15603z" fill="#232b57" stroke-width="0.5"></path><path d="M243.02482,178.84789c0.19737,0.02467 0.1727,0.22204 0.1727,0.22204l-0.03243,0.22251c0.08798,0.25967 0.14345,0.50793 0.29892,0.73647c0,0 0.11033,0.1655 -0.05517,0.27583c-0.1655,0.11033 -0.27583,-0.05517 -0.27583,-0.05517c-0.18924,-0.28846 -0.26579,-0.59267 -0.3641,-0.92107l0.03387,-0.30791c0,0 0.02467,-0.19737 0.22204,-0.1727z" fill="#232b57" stroke-width="0.5"></path><path d="M243.09112,176.85883c0.19737,0.02467 0.1727,0.22204 0.1727,0.22204l-0.03694,0.19484c0.05694,0.07791 0.11388,0.15581 0.17082,0.23373c0,0 0.11033,0.1655 -0.05517,0.27583c-0.1655,0.11033 -0.27583,-0.05517 -0.27583,-0.05517c-0.07566,-0.121 -0.15133,-0.242 -0.22699,-0.36299l0.02937,-0.33558c0,0 0.02467,-0.19737 0.22204,-0.1727z" fill="#232b57" stroke-width="0.5"></path><path d="M242.86755,176.55894c0,-0.10985 0.08905,-0.19891 0.19891,-0.19891c0.10985,0 0.19891,0.08905 0.19891,0.19891c0,0.10985 -0.08905,0.19891 -0.19891,0.19891c-0.10985,0 -0.19891,-0.08905 -0.19891,-0.19891z" fill="#232b57" stroke-width="0.5"></path><path d="M244.55824,176.62524c0,-0.10985 0.08905,-0.19891 0.19891,-0.19891c0.10985,0 0.19891,0.08905 0.19891,0.19891c0,0.10985 -0.08905,0.19891 -0.19891,0.19891c-0.10985,0 -0.19891,-0.08905 -0.19891,-0.19891z" fill="#232b57" stroke-width="0.5"></path><path d="M236.10477,176.55894c0,-0.10985 0.08905,-0.19891 0.19891,-0.19891c0.10985,0 0.19891,0.08905 0.19891,0.19891c0,0.10985 -0.08905,0.19891 -0.19891,0.19891c-0.10985,0 -0.19891,-0.08905 -0.19891,-0.19891z" fill="#11152c" stroke-width="0.5"></path><path d="M237.69601,178.97895c0,-0.10985 0.08905,-0.19891 0.19891,-0.19891c0.10985,0 0.19891,0.08905 0.19891,0.19891c0,0.10985 -0.08905,0.19891 -0.19891,0.19891c-0.10985,0 -0.19891,-0.08905 -0.19891,-0.19891z" fill="#11152c" stroke-width="0.5"></path><path d="M241.0774,178.68059c0,-0.10985 0.08905,-0.19891 0.19891,-0.19891c0.10985,0 0.19891,0.08905 0.19891,0.19891c0,0.10985 -0.08905,0.19891 -0.19891,0.19891c-0.10985,0 -0.19891,-0.08905 -0.19891,-0.19891z" fill="#11152c" stroke-width="0.5"></path><path d="M241.60782,175.73017c0,-0.10985 0.08905,-0.19891 0.19891,-0.19891c0.10985,0 0.19891,0.08905 0.19891,0.19891c0,0.10985 -0.08905,0.19891 -0.19891,0.19891c-0.10985,0 -0.19891,-0.08905 -0.19891,-0.19891z" fill="#11152c" stroke-width="0.5"></path><path d="M237.66286,183.25541c0,-0.10985 0.08905,-0.19891 0.19891,-0.19891c0.10985,0 0.19891,0.08905 0.19891,0.19891c0,0.10985 -0.08905,0.19891 -0.19891,0.19891c-0.10985,0 -0.19891,-0.08905 -0.19891,-0.19891z" fill="#11152c" stroke-width="0.5"></path><path d="M243.29851,183.81898c0,-0.10985 0.08905,-0.19891 0.19891,-0.19891c0.10985,0 0.19891,0.08905 0.19891,0.19891c0,0.10985 -0.08905,0.19891 -0.19891,0.19891c-0.10985,0 -0.19891,-0.08905 -0.19891,-0.19891z" fill="#11152c" stroke-width="0.5"></path><path d="M245.02235,178.41539c0,-0.10985 0.08905,-0.19891 0.19891,-0.19891c0.10985,0 0.19891,0.08905 0.19891,0.19891c0,0.10985 -0.08905,0.19891 -0.19891,0.19891c-0.10985,0 -0.19891,-0.08905 -0.19891,-0.19891z" fill="#11152c" stroke-width="0.5"></path><path d="M235.1434,181.39897c0,-0.10985 0.08905,-0.19891 0.19891,-0.19891c0.10985,0 0.19891,0.08905 0.19891,0.19891c0,0.10985 -0.08905,0.19891 -0.19891,0.19891c-0.10985,0 -0.19891,-0.08905 -0.19891,-0.19891z" fill="#11152c" stroke-width="0.5"></path></g></g></svg>