<svg version="1.1" xmlns="http://www.w3.org/2000/svg" xmlns:xlink="http://www.w3.org/1999/xlink" width="28.5" height="12.60478" viewBox="0,0,28.5,12.60478"><g transform="translate(-195.80024,-172.66421)"><g data-paper-data="{&quot;isPaintingLayer&quot;:true}" fill-rule="nonzero" stroke-linejoin="miter" stroke-miterlimit="10" stroke-dasharray="" stroke-dashoffset="0" style="mix-blend-mode: normal"><path d="M196.05024,185.01899v-12.10478h28v12.10478z" fill="#882f92" stroke="#fff4ce" stroke-width="0.5" stroke-linecap="butt"></path><text transform="translate(206.68895,176.02998) scale(0.0672,0.0672)" font-size="40" xml:space="preserve" fill="#ffffff" fill-rule="nonzero" stroke="none" stroke-width="1" stroke-linecap="butt" stroke-linejoin="miter" stroke-miterlimit="10" stroke-dasharray="" stroke-dashoffset="0" font-family="Serif" font-weight="normal" text-anchor="start" style="mix-blend-mode: normal"><tspan x="0" dy="0">Delusional</tspan></text><text transform="translate(206.29067,179.67961) scale(0.04825,0.04825)" font-size="40" xml:space="preserve" fill="#ffffff" fill-rule="nonzero" stroke="none" stroke-width="1" stroke-linecap="butt" stroke-linejoin="miter" stroke-miterlimit="10" stroke-dasharray="" stroke-dashoffset="0" font-family="Serif" font-weight="normal" text-anchor="start" style="mix-blend-mode: normal"><tspan x="0" dy="0">"Hear random sounds</tspan><tspan x="0" dy="48px">see weird visions."</tspan></text><path d="M205.1251,173.325l0.2,11.5" fill="none" stroke="#fff4ce" stroke-width="0.5" stroke-linecap="round"></path><g stroke-linecap="butt"><path d="M198.48336,181.65728l-0.00012,0.00925l0.0758,0.29327c-0.82757,0.13664 -0.33344,-0.89575 0.21489,-0.53099c0.70926,0.47181 -0.09524,0.91141 -0.51448,1.07372c-0.61022,0.00467 -1.26356,-1.11348 -0.70963,-1.60634c0.52392,-0.46615 2.51602,-0.15165 2.53875,0.57188c-0.17051,1.30279 -0.92383,1.7598 -1.87173,1.91718c-0.04719,-0.09246 -0.09663,-0.18359 -0.14822,-0.27331c0.86712,-0.11825 1.57158,-0.50042 1.70866,-1.66564c0.04948,-0.42625 -1.73997,-0.50602 -2.0322,-0.30669c-0.27908,0.19036 0.13786,1.05207 0.45536,1.0565c0.71298,-0.29723 0.28818,-0.53049 0.28291,-0.53884z" fill="#d9c7ff" stroke="none" stroke-width="0.5"></path><path d="M202.22646,181.86522l-0.00012,0.00925l0.0758,0.29327c-0.82757,0.13664 -0.33344,-0.89575 0.21489,-0.53099c0.70926,0.47181 -0.09524,0.91141 -0.51448,1.07372c-0.61022,0.00467 -1.26355,-1.11348 -0.70963,-1.60634c0.52392,-0.46614 2.51602,-0.15164 2.53875,0.57188c-0.17052,1.30279 -0.92383,1.7598 -1.87173,1.91718c-0.04719,-0.09246 -0.09663,-0.18359 -0.14823,-0.27331c0.86712,-0.11825 1.57158,-0.50042 1.70866,-1.66564c0.04947,-0.42625 -1.73997,-0.50603 -2.0322,-0.30669c-0.27908,0.19036 0.13786,1.05207 0.45536,1.0565c0.71298,-0.29723 0.28818,-0.53049 0.28291,-0.53884z" fill="#d9c7ff" stroke="none" stroke-width="0.5"></path><path d="M196.3924,182.53182c0.20628,-1.7359 1.98061,-3.09227 4.13893,-3.09227c2.12881,0 3.88406,1.31953 4.1296,3.02128" fill="none" stroke="#d9c7ff" stroke-width="0.5"></path><text transform="translate(199.95952,178.49078) scale(0.09814,0.09814)" font-size="40" xml:space="preserve" fill="#d9c7ff" fill-rule="nonzero" stroke="none" stroke-width="1" stroke-linecap="butt" stroke-linejoin="miter" stroke-miterlimit="10" stroke-dasharray="" stroke-dashoffset="0" font-family="Serif" font-weight="normal" text-anchor="start" style="mix-blend-mode: normal"><tspan x="0" dy="0">?</tspan></text></g></g></g></svg>