<svg version="1.1" xmlns="http://www.w3.org/2000/svg" xmlns:xlink="http://www.w3.org/1999/xlink" width="114.7031" height="87.3583" viewBox="0,0,114.7031,87.3583"><defs><linearGradient x1="285.70099" y1="208.25809" x2="292.4112" y2="208.25809" gradientUnits="userSpaceOnUse" id="color-1"><stop offset="0" stop-color="#9e7f4a"></stop><stop offset="1" stop-color="#d88e65"></stop></linearGradient><radialGradient cx="292.06552" cy="209.08568" r="3.81262" gradientUnits="userSpaceOnUse" id="color-2"><stop offset="0" stop-color="#cf6734"></stop><stop offset="1" stop-color="#cf8634"></stop></radialGradient><linearGradient x1="286.99079" y1="150.21684" x2="293.70101" y2="150.21684" gradientUnits="userSpaceOnUse" id="color-3"><stop offset="0" stop-color="#9e7f4a"></stop><stop offset="1" stop-color="#d88e65"></stop></linearGradient><radialGradient cx="293.35533" cy="151.04444" r="3.81262" gradientUnits="userSpaceOnUse" id="color-4"><stop offset="0" stop-color="#cf6734"></stop><stop offset="1" stop-color="#cf8634"></stop></radialGradient></defs><g transform="translate(-182.64845,-136.32085)"><g data-paper-data="{&quot;isPaintingLayer&quot;:true}" fill-rule="nonzero" stroke-linejoin="miter" stroke-miterlimit="10" stroke-dasharray="" stroke-dashoffset="0" style="mix-blend-mode: normal"><path d="" data-paper-data="{&quot;index&quot;:null}" fill="#000000" stroke="none" stroke-width="0.25" stroke-linecap="butt"></path><path d="" fill="#e6e6e6" stroke="#000000" stroke-width="0.25" stroke-linecap="butt"></path><path d="" fill="#8e6544" stroke="none" stroke-width="0.25" stroke-linecap="butt"></path><path d="M194.6732,196.66466v-20.29994h63.90399v20.29994z" fill="#c7c7c7" stroke="none" stroke-width="0" stroke-linecap="butt"></path><path d="M193.96966,195.67765v-17.82277h66.01458v17.82277z" fill="#6c461a" stroke="none" stroke-width="0" stroke-linecap="butt"></path><path d="M193.03162,217.25257v-3.40039h100.01853v3.40039z" fill="#bdbdbd" stroke="none" stroke-width="0" stroke-linecap="butt"></path><path d="M291.69274,223.58762v-84.80591h4.22119v84.80591z" fill="#915e23" stroke="none" stroke-width="0" stroke-linecap="butt"></path><path d="M183.11458,222.18056v-85.63616h11.96002v85.63616z" fill="#915e23" stroke="none" stroke-width="0" stroke-linecap="butt"></path><path d="M182.91159,223.47174v-7.72385h114.14333v7.72385z" fill="#bb792d" stroke="none" stroke-width="NaN" stroke-linecap="butt"></path><path d="M182.64845,153.16656v-16.84571h113.37608v16.84571z" fill="#b18654" stroke="none" stroke-width="0" stroke-linecap="butt"></path><g stroke-width="0" stroke-linecap="butt"><path d="M182.94769,150.30185v-13.51962h63.78673v13.51962z" fill="#ffd600" stroke="#000000"></path><path d="M184.75277,137.83715l2.48577,0.16708c0,0 1.39481,1.10105 1.35902,1.6336c-0.0431,0.64128 -1.5998,1.9488 -1.5998,1.9488l-2.48576,-0.16708c0,0 -1.0851,-1.33823 -1.04201,-1.9795c0.0358,-0.53254 1.2828,-1.60291 1.2828,-1.60291z" fill="#bf9f00" stroke="none"></path><path d="M190.01499,142.29333l2.48577,0.16708c0,0 1.39481,1.10105 1.35902,1.6336c-0.0431,0.64128 -1.5998,1.9488 -1.5998,1.9488l-2.48576,-0.16708c0,0 -1.0851,-1.33822 -1.04201,-1.9795c0.0358,-0.53254 1.2828,-1.60291 1.2828,-1.60291z" fill="#bf9f00" stroke="none"></path><path d="M195.13063,137.95645l2.48577,0.16708c0,0 1.3948,1.10105 1.35902,1.6336c-0.0431,0.64128 -1.5998,1.9488 -1.5998,1.9488l-2.48576,-0.16708c0,0 -1.0851,-1.33822 -1.04201,-1.9795c0.0358,-0.53254 1.2828,-1.60291 1.2828,-1.60291z" fill="#bf9f00" stroke="none"></path><path d="M184.93172,145.85659l2.48577,0.16708c0,0 1.3948,1.10105 1.35902,1.6336c-0.0431,0.64128 -1.5998,1.9488 -1.5998,1.9488l-2.48576,-0.16708c0,0 -1.0851,-1.33822 -1.04201,-1.9795c0.0358,-0.53254 1.2828,-1.60291 1.2828,-1.60291z" fill="#bf9f00" stroke="none"></path><path d="M194.00426,145.91623l2.48577,0.16708c0,0 1.3948,1.10105 1.35902,1.6336c-0.0431,0.64128 -1.5998,1.9488 -1.5998,1.9488l-2.48576,-0.16708c0,0 -1.0851,-1.33822 -1.04201,-1.9795c0.0358,-0.53254 1.2828,-1.60291 1.2828,-1.60291z" fill="#bf9f00" stroke="none"></path><path d="M200.63992,137.97009l2.48576,0.16708c0,0 1.3948,1.10105 1.35902,1.6336c-0.0431,0.64128 -1.5998,1.9488 -1.5998,1.9488l-2.48577,-0.16708c0,0 -1.0851,-1.33822 -1.04201,-1.9795c0.0358,-0.53254 1.2828,-1.60291 1.2828,-1.60291z" fill="#bf9f00" stroke="none"></path><path d="M205.90213,142.42626l2.48577,0.16708c0,0 1.39481,1.10105 1.35902,1.6336c-0.0431,0.64128 -1.5998,1.9488 -1.5998,1.9488l-2.48577,-0.16708c0,0 -1.0851,-1.33822 -1.04201,-1.9795c0.0358,-0.53254 1.2828,-1.60291 1.2828,-1.60291z" fill="#bf9f00" stroke="none"></path><path d="M211.01778,138.08937l2.48577,0.16708c0,0 1.3948,1.10105 1.35901,1.6336c-0.0431,0.64128 -1.5998,1.9488 -1.5998,1.9488l-2.48577,-0.16708c0,0 -1.0851,-1.33822 -1.04201,-1.9795c0.0358,-0.53254 1.2828,-1.60291 1.2828,-1.60291z" fill="#bf9f00" stroke="none"></path><path d="M200.81887,145.9895l2.48577,0.16708c0,0 1.39481,1.10105 1.35902,1.6336c-0.0431,0.64128 -1.5998,1.9488 -1.5998,1.9488l-2.48576,-0.16708c0,0 -1.0851,-1.33822 -1.04201,-1.9795c0.0358,-0.53254 1.2828,-1.60291 1.2828,-1.60291z" fill="#bf9f00" stroke="none"></path><path d="M209.89141,146.04915l2.48577,0.16708c0,0 1.3948,1.10105 1.35902,1.6336c-0.0431,0.64128 -1.5998,1.9488 -1.5998,1.9488l-2.48576,-0.16708c0,0 -1.0851,-1.33822 -1.04201,-1.9795c0.0358,-0.53254 1.2828,-1.60292 1.2828,-1.60292z" fill="#bf9f00" stroke="none"></path><path d="M216.38052,138.103l2.48577,0.16708c0,0 1.39481,1.10106 1.35902,1.6336c-0.0431,0.64128 -1.5998,1.9488 -1.5998,1.9488l-2.48576,-0.16708c0,0 -1.0851,-1.33822 -1.04201,-1.9795c0.0358,-0.53254 1.2828,-1.60291 1.2828,-1.60291z" fill="#bf9f00" stroke="none"></path><path d="M221.64272,142.55918l2.48577,0.16708c0,0 1.39481,1.10105 1.35902,1.6336c-0.0431,0.64128 -1.5998,1.9488 -1.5998,1.9488l-2.48576,-0.16708c0,0 -1.0851,-1.33822 -1.04201,-1.9795c0.0358,-0.53254 1.2828,-1.60291 1.2828,-1.60291z" fill="#bf9f00" stroke="none"></path><path d="M226.75838,138.22231l2.48576,0.16708c0,0 1.3948,1.10106 1.35902,1.6336c-0.0431,0.64128 -1.5998,1.9488 -1.5998,1.9488l-2.48576,-0.16708c0,0 -1.0851,-1.33822 -1.04201,-1.9795c0.0358,-0.53254 1.2828,-1.60291 1.2828,-1.60291z" fill="#bf9f00" stroke="none"></path><path d="M216.55947,146.12242l2.48576,0.16708c0,0 1.39481,1.10105 1.35902,1.6336c-0.0431,0.64128 -1.5998,1.9488 -1.5998,1.9488l-2.48577,-0.16708c0,0 -1.0851,-1.33822 -1.04201,-1.9795c0.0358,-0.53254 1.2828,-1.60291 1.2828,-1.60291z" fill="#bf9f00" stroke="none"></path><path d="M225.63199,146.18207l2.48577,0.16708c0,0 1.3948,1.10105 1.35902,1.6336c-0.0431,0.64128 -1.5998,1.9488 -1.5998,1.9488l-2.48577,-0.16708c0,0 -1.0851,-1.33822 -1.04201,-1.9795c0.0358,-0.53254 1.2828,-1.60292 1.2828,-1.60292z" fill="#bf9f00" stroke="none"></path><path d="M232.41422,138.23592l2.48577,0.16708c0,0 1.3948,1.10105 1.35902,1.6336c-0.0431,0.64128 -1.5998,1.9488 -1.5998,1.9488l-2.48577,-0.16708c0,0 -1.0851,-1.33822 -1.04201,-1.9795c0.0358,-0.53254 1.2828,-1.60291 1.2828,-1.60291z" fill="#bf9f00" stroke="none"></path><path d="M237.67642,142.69211l2.48576,0.16708c0,0 1.39481,1.10105 1.35902,1.6336c-0.0431,0.64128 -1.5998,1.9488 -1.5998,1.9488l-2.48576,-0.16708c0,0 -1.0851,-1.33822 -1.04201,-1.9795c0.0358,-0.53254 1.2828,-1.60291 1.2828,-1.60291z" fill="#bf9f00" stroke="none"></path><path d="M242.79208,138.35523l2.48577,0.16708c0,0 1.3948,1.10105 1.35902,1.6336c-0.0431,0.64128 -1.5998,1.9488 -1.5998,1.9488l-2.48576,-0.16708c0,0 -1.0851,-1.33822 -1.04201,-1.9795c0.0358,-0.53254 1.2828,-1.60291 1.2828,-1.60291z" fill="#bf9f00" stroke="none"></path><path d="M232.59317,146.25535l2.48576,0.16708c0,0 1.39481,1.10105 1.35902,1.6336c-0.0431,0.64128 -1.5998,1.9488 -1.5998,1.9488l-2.48577,-0.16708c0,0 -1.0851,-1.33822 -1.04201,-1.9795c0.0358,-0.53254 1.2828,-1.60291 1.2828,-1.60291z" fill="#bf9f00" stroke="none"></path><path d="M241.66569,146.315l2.48576,0.16708c0,0 1.3948,1.10105 1.35902,1.6336c-0.0431,0.64128 -1.5998,1.9488 -1.5998,1.9488l-2.48577,-0.16708c0,0 -1.0851,-1.33822 -1.04201,-1.9795c0.0358,-0.53254 1.2828,-1.60291 1.2828,-1.60291z" fill="#bf9f00" stroke="none"></path></g><g stroke-width="0" stroke-linecap="butt"><path d="M246.61717,150.30185v-13.51962h49.72461c-0.45124,0.66075 -0.45124,1.44235 -0.45124,1.44235c0,3.98432 0,8.03206 0,12.07727z" fill="#ffd600" stroke="#000000"></path><path d="" fill="#ffd600" stroke="#000000"></path><path d="" fill="#ffd600" stroke="#000000"></path><path d="" fill="#ffd600" stroke="#000000"></path><path d="M248.42226,137.83715l2.48577,0.16708c0,0 1.39481,1.10105 1.35902,1.6336c-0.0431,0.64128 -1.5998,1.9488 -1.5998,1.9488l-2.48576,-0.16708c0,0 -1.0851,-1.33823 -1.04201,-1.9795c0.0358,-0.53254 1.2828,-1.60291 1.2828,-1.60291z" fill="#bf9f00" stroke="none"></path><path d="M253.68445,142.29333l2.48576,0.16708c0,0 1.39481,1.10105 1.35902,1.6336c-0.0431,0.64128 -1.5998,1.9488 -1.5998,1.9488l-2.48576,-0.16708c0,0 -1.0851,-1.33822 -1.04201,-1.9795c0.0358,-0.53254 1.2828,-1.60291 1.2828,-1.60291z" fill="#bf9f00" stroke="none"></path><path d="M258.80011,137.95645l2.48577,0.16708c0,0 1.3948,1.10105 1.35902,1.6336c-0.0431,0.64128 -1.5998,1.9488 -1.5998,1.9488l-2.48576,-0.16708c0,0 -1.0851,-1.33822 -1.04201,-1.9795c0.0358,-0.53254 1.2828,-1.60292 1.2828,-1.60292z" fill="#bf9f00" stroke="none"></path><path d="M248.60121,145.85659l2.48577,0.16708c0,0 1.3948,1.10105 1.35902,1.6336c-0.0431,0.64128 -1.5998,1.9488 -1.5998,1.9488l-2.48576,-0.16708c0,0 -1.0851,-1.33822 -1.04201,-1.9795c0.0358,-0.53254 1.2828,-1.60291 1.2828,-1.60291z" fill="#bf9f00" stroke="none"></path><path d="M257.67374,145.91623l2.48576,0.16708c0,0 1.3948,1.10105 1.35902,1.6336c-0.0431,0.64128 -1.5998,1.9488 -1.5998,1.9488l-2.48576,-0.16708c0,0 -1.0851,-1.33822 -1.04201,-1.9795c0.0358,-0.53254 1.2828,-1.60291 1.2828,-1.60291z" fill="#bf9f00" stroke="none"></path><path d="M264.30941,137.97009l2.48576,0.16708c0,0 1.3948,1.10105 1.35902,1.6336c-0.0431,0.64128 -1.5998,1.9488 -1.5998,1.9488l-2.48577,-0.16708c0,0 -1.0851,-1.33822 -1.04201,-1.9795c0.0358,-0.53254 1.2828,-1.60291 1.2828,-1.60291z" fill="#bf9f00" stroke="none"></path><path d="M269.57161,142.42626l2.48577,0.16708c0,0 1.39481,1.10105 1.35902,1.6336c-0.0431,0.64128 -1.5998,1.9488 -1.5998,1.9488l-2.48577,-0.16708c0,0 -1.0851,-1.33822 -1.04201,-1.9795c0.0358,-0.53254 1.2828,-1.60291 1.2828,-1.60291z" fill="#bf9f00" stroke="none"></path><path d="M274.68727,138.08937l2.48577,0.16708c0,0 1.3948,1.10105 1.35901,1.6336c-0.0431,0.64128 -1.5998,1.9488 -1.5998,1.9488l-2.48577,-0.16708c0,0 -1.0851,-1.33822 -1.04201,-1.9795c0.0358,-0.53254 1.2828,-1.60291 1.2828,-1.60291z" fill="#bf9f00" stroke="none"></path><path d="M264.48836,145.9895l2.48577,0.16708c0,0 1.39481,1.10105 1.35902,1.6336c-0.0431,0.64128 -1.5998,1.9488 -1.5998,1.9488l-2.48576,-0.16708c0,0 -1.0851,-1.33823 -1.04201,-1.9795c0.0358,-0.53254 1.2828,-1.60291 1.2828,-1.60291z" fill="#bf9f00" stroke="none"></path><path d="M273.56088,146.04915l2.48577,0.16708c0,0 1.3948,1.10105 1.35902,1.6336c-0.0431,0.64128 -1.5998,1.9488 -1.5998,1.9488l-2.48576,-0.16708c0,0 -1.0851,-1.33822 -1.04201,-1.9795c0.0358,-0.53254 1.2828,-1.60291 1.2828,-1.60291z" fill="#bf9f00" stroke="none"></path><path d="M280.05,138.103l2.48577,0.16708c0,0 1.39481,1.10106 1.35902,1.6336c-0.0431,0.64128 -1.5998,1.9488 -1.5998,1.9488l-2.48576,-0.16708c0,0 -1.0851,-1.33822 -1.04201,-1.9795c0.0358,-0.53254 1.2828,-1.60291 1.2828,-1.60291z" fill="#bf9f00" stroke="none"></path><path d="M285.31221,142.55918l2.48577,0.16708c0,0 1.3948,1.10105 1.35902,1.6336c-0.0431,0.64128 -1.5998,1.9488 -1.5998,1.9488l-2.48576,-0.16708c0,0 -1.0851,-1.33822 -1.04201,-1.9795c0.0358,-0.53254 1.2828,-1.60291 1.2828,-1.60291z" fill="#bf9f00" stroke="none"></path><path d="M290.42787,138.22231l2.48576,0.16708c0,0 1.39481,1.10106 1.35902,1.6336c-0.0431,0.64128 -1.5998,1.9488 -1.5998,1.9488l-2.48576,-0.16708c0,0 -1.0851,-1.33822 -1.04201,-1.9795c0.0358,-0.53254 1.2828,-1.60291 1.2828,-1.60291z" fill="#bf9f00" stroke="none"></path><path d="M280.22895,146.12242l2.48576,0.16708c0,0 1.3948,1.10105 1.35902,1.6336c-0.0431,0.64128 -1.5998,1.9488 -1.5998,1.9488l-2.48577,-0.16708c0,0 -1.0851,-1.33822 -1.04201,-1.9795c0.0358,-0.53254 1.2828,-1.60291 1.2828,-1.60291z" fill="#bf9f00" stroke="none"></path><path d="M289.30148,146.18207l2.48576,0.16708c0,0 1.39481,1.10105 1.35902,1.6336c-0.0431,0.64128 -1.5998,1.9488 -1.5998,1.9488l-2.48577,-0.16708c0,0 -1.0851,-1.33823 -1.04201,-1.9795c0.0358,-0.53254 1.2828,-1.60292 1.2828,-1.60292z" fill="#bf9f00" stroke="none"></path><path d="M295.8429,141.81834c0,0 -1.0851,-1.33822 -1.04201,-1.9795c0.0269,-0.40026 0.73802,-1.10435 1.08965,-1.42944c0,1.13284 0,2.27072 0,3.41213z" fill="#bf9f00" stroke="none"></path><path d="" fill="#bf9f00" stroke="none"></path><path d="" fill="#bf9f00" stroke="none"></path><path d="M294.97985,147.85827c0.02288,-0.34023 0.54011,-0.89998 0.9107,-1.25989c0,1.02266 0,2.04646 0,3.0703c-0.28747,-0.38025 -0.94442,-1.30866 -0.9107,-1.81041z" fill="#bf9f00" stroke="none"></path><path d="" fill="#bf9f00" stroke="none"></path></g><g stroke-width="0" stroke-linecap="butt"><path d="M246.49992,216.04663h49.79713c0.53192,1.27182 0.63706,2.71735 0.77746,4.07978c0.04402,0.42712 0.18753,0.83746 0.23451,1.2642c0.01862,0.16914 0.0325,0.34058 0.04253,0.51377c-0.01681,0.00281 -0.03364,0.00545 -0.05051,0.00792c-0.93552,0.13679 -1.92769,-0.12613 -2.86957,0.00665c-0.31958,0.04506 -0.61979,0.19791 -0.93804,0.25284c-0.70474,0.12164 -1.48493,-0.10076 -2.1997,0.0137c-0.24451,0.03916 -0.4595,0.21039 -0.70353,0.25284c-1.10957,0.193 -2.48195,-0.03265 -3.61103,-0.03265c-1.72968,0 -3.53045,0.16901 -5.24802,0.00489c-2.21181,-0.21135 -4.42419,-0.4301 -6.62604,-0.73969c-0.82015,-0.11532 -1.61134,-0.43013 -2.43448,-0.51709c-2.51622,-0.26586 -5.20671,-0.01231 -7.73541,-0.01231c-6.1451,0 -12.2902,0 -18.4353,0z" fill="#ffd600" stroke="#000000"></path><path d="" fill="#ffd600" stroke="#000000"></path><path d="" fill="#ffd600" stroke="#000000"></path><path d="" fill="#ffd600" stroke="#000000"></path><path d="M248.305,217.18401l2.48577,0.18014c0,0 1.39481,1.18712 1.35902,1.76129c-0.03676,0.58947 -1.17373,1.7011 -1.50815,2.01604c-0.42193,0 -0.84387,0 -1.2658,0l-1.31161,-0.09505c0,0 -1.0851,-1.44282 -1.04201,-2.13423c0.0358,-0.57417 1.2828,-1.7282 1.2828,-1.7282z" fill="#bf9f00" stroke="none"></path><path d="" fill="#bf9f00" stroke="none"></path><path d="M258.68286,217.31263l2.48577,0.18014c0,0 1.3948,1.18712 1.35902,1.76129c-0.03277,0.52565 -0.94045,1.46653 -1.37374,1.88741c-0.91222,0 -1.82443,0 -2.73665,0c-0.16164,-0.22046 -1.05639,-1.47158 -1.01717,-2.10064c0.0358,-0.57417 1.2828,-1.7282 1.2828,-1.7282z" fill="#bf9f00" stroke="none"></path><path d="" fill="#bf9f00" stroke="none"></path><path d="" fill="#bf9f00" stroke="none"></path><path d="M264.19215,217.32732l2.48576,0.18013c0,0 1.3948,1.18712 1.35902,1.76129c-0.03163,0.50737 -0.87836,1.40158 -1.32686,1.84164c-0.59749,0.01755 -1.19049,0.03107 -1.77484,0.03107c-0.33981,0 -0.67963,0 -1.01944,0c-0.18685,-0.25632 -1.04484,-1.46967 -1.00642,-2.08595c0.0358,-0.57417 1.2828,-1.7282 1.2828,-1.7282z" fill="#bf9f00" stroke="none"></path><path d="" fill="#bf9f00" stroke="none"></path><path d="M274.57002,217.45594l2.48577,0.18014c0,0 1.3948,1.18712 1.35901,1.76129c-0.0431,0.69139 -1.5998,2.10113 -1.5998,2.10113l-2.48577,-0.18014c0,0 -1.0851,-1.44281 -1.04201,-2.1342c0.0358,-0.57417 1.2828,-1.7282 1.2828,-1.7282z" fill="#bf9f00" stroke="none"></path><path d="" fill="#bf9f00" stroke="none"></path><path d="" fill="#bf9f00" stroke="none"></path><path d="M279.93275,217.47063l2.48577,0.18013c0,0 1.39481,1.18712 1.35902,1.76129c-0.0431,0.69139 -1.5998,2.10113 -1.5998,2.10113l-2.48576,-0.18014c0,0 -1.0851,-1.44282 -1.04201,-2.13423c0.0358,-0.57417 1.2828,-1.7282 1.2828,-1.7282z" fill="#bf9f00" stroke="none"></path><path d="M285.19495,222.27511l1.80194,0.13059c-0.00592,-0.00001 -0.01182,-0.00002 -0.01773,-0.00002c-0.64792,0 -1.30581,0.02371 -1.96557,0.04475c0.10951,-0.1088 0.18124,-0.17519 0.18137,-0.17532z" fill="#bf9f00" stroke="none"></path><path d="M285.19495,222.27511z" fill="#bf9f00" stroke="none"></path><path d="M290.31061,217.59926l2.48576,0.18013c0,0 1.3948,1.18712 1.35902,1.76129c-0.0431,0.69139 -1.5998,2.10113 -1.5998,2.10113l-2.48576,-0.18013c0,0 -1.0851,-1.44282 -1.04201,-2.13423c0.0358,-0.57417 1.2828,-1.7282 1.2828,-1.7282z" fill="#bf9f00" stroke="none"></path><path d="" fill="#bf9f00" stroke="none"></path><path d="" fill="#bf9f00" stroke="none"></path><path d="M295.96644,217.61395l0.79979,0.05796c0.15436,0.81176 0.22514,1.64771 0.30828,2.45452c0.04402,0.42712 0.18753,0.83746 0.23451,1.2642c0.00738,0.06696 0.01399,0.13428 0.01995,0.20194l-1.60332,-0.11618c0,0 -1.0851,-1.44281 -1.04201,-2.13423c0.0358,-0.57417 1.2828,-1.7282 1.2828,-1.7282z" fill="#bf9f00" stroke="none"></path><path d="" fill="#bf9f00" stroke="none"></path><path d="" fill="#bf9f00" stroke="none"></path><path d="" fill="#bf9f00" stroke="none"></path><path d="" fill="#bf9f00" stroke="none"></path></g><g stroke-width="0" stroke-linecap="butt"><path d="M197.01829,216.04663h49.79713c0.53192,1.27182 0.63706,2.71735 0.77746,4.07978c0.04402,0.42712 0.18753,0.83746 0.23451,1.2642c0.01862,0.16914 0.0325,0.34058 0.04253,0.51377c-0.01681,0.00281 -0.03364,0.00545 -0.05051,0.00792c-0.93552,0.13679 -1.92769,-0.12613 -2.86957,0.00665c-0.31958,0.04506 -0.61979,0.19791 -0.93804,0.25284c-0.70474,0.12164 -1.48493,-0.10076 -2.1997,0.0137c-0.24451,0.03916 -0.4595,0.21039 -0.70353,0.25284c-1.10957,0.193 -2.48195,-0.03265 -3.61103,-0.03265c-1.72968,0 -3.53045,0.16901 -5.24802,0.00489c-2.21181,-0.21135 -4.42419,-0.4301 -6.62604,-0.73969c-0.82015,-0.11532 -1.61134,-0.43013 -2.43448,-0.51709c-2.51622,-0.26586 -5.20671,-0.01231 -7.73541,-0.01231c-6.1451,0 -12.2902,0 -18.4353,0z" fill="#ffd600" stroke="#000000"></path><path d="" fill="#ffd600" stroke="#000000"></path><path d="" fill="#ffd600" stroke="#000000"></path><path d="" fill="#ffd600" stroke="#000000"></path><path d="M198.82338,217.18401l2.48577,0.18014c0,0 1.39481,1.18712 1.35902,1.76129c-0.03676,0.58947 -1.17373,1.7011 -1.50815,2.01604c-0.42193,0 -0.84387,0 -1.2658,0l-1.31161,-0.09505c0,0 -1.0851,-1.44282 -1.04201,-2.13423c0.0358,-0.57417 1.2828,-1.7282 1.2828,-1.7282z" fill="#bf9f00" stroke="none"></path><path d="" fill="#bf9f00" stroke="none"></path><path d="M209.20124,217.31263l2.48577,0.18014c0,0 1.3948,1.18712 1.35902,1.76129c-0.03277,0.52565 -0.94045,1.46653 -1.37374,1.88741c-0.91222,0 -1.82443,0 -2.73665,0c-0.16164,-0.22046 -1.05639,-1.47158 -1.01717,-2.10064c0.0358,-0.57417 1.2828,-1.7282 1.2828,-1.7282z" fill="#bf9f00" stroke="none"></path><path d="" fill="#bf9f00" stroke="none"></path><path d="" fill="#bf9f00" stroke="none"></path><path d="M214.71053,217.32732l2.48576,0.18013c0,0 1.3948,1.18712 1.35902,1.76129c-0.03163,0.50737 -0.87836,1.40158 -1.32686,1.84164c-0.59749,0.01755 -1.19049,0.03107 -1.77484,0.03107c-0.33981,0 -0.67963,0 -1.01944,0c-0.18685,-0.25632 -1.04484,-1.46967 -1.00642,-2.08595c0.0358,-0.57417 1.2828,-1.7282 1.2828,-1.7282z" fill="#bf9f00" stroke="none"></path><path d="" fill="#bf9f00" stroke="none"></path><path d="M225.0884,217.45594l2.48577,0.18014c0,0 1.3948,1.18712 1.35901,1.76129c-0.0431,0.69139 -1.5998,2.10113 -1.5998,2.10113l-2.48577,-0.18014c0,0 -1.0851,-1.44281 -1.04201,-2.1342c0.0358,-0.57417 1.2828,-1.7282 1.2828,-1.7282z" fill="#bf9f00" stroke="none"></path><path d="" fill="#bf9f00" stroke="none"></path><path d="" fill="#bf9f00" stroke="none"></path><path d="M230.45112,217.47063l2.48577,0.18013c0,0 1.39481,1.18712 1.35902,1.76129c-0.0431,0.69139 -1.5998,2.10113 -1.5998,2.10113l-2.48576,-0.18014c0,0 -1.0851,-1.44282 -1.04201,-2.13423c0.0358,-0.57417 1.2828,-1.7282 1.2828,-1.7282z" fill="#bf9f00" stroke="none"></path><path d="M235.71334,222.27511l1.80194,0.13059c-0.00592,-0.00001 -0.01182,-0.00002 -0.01773,-0.00002c-0.64792,0 -1.30581,0.02371 -1.96557,0.04475c0.10951,-0.1088 0.18124,-0.17519 0.18137,-0.17532z" fill="#bf9f00" stroke="none"></path><path d="M235.71334,222.27511z" fill="#bf9f00" stroke="none"></path><path d="M240.82898,217.59926l2.48576,0.18013c0,0 1.3948,1.18712 1.35902,1.76129c-0.0431,0.69139 -1.5998,2.10113 -1.5998,2.10113l-2.48576,-0.18013c0,0 -1.0851,-1.44282 -1.04201,-2.13423c0.0358,-0.57417 1.2828,-1.7282 1.2828,-1.7282z" fill="#bf9f00" stroke="none"></path><path d="" fill="#bf9f00" stroke="none"></path><path d="" fill="#bf9f00" stroke="none"></path><path d="M246.48482,217.61395l0.79979,0.05796c0.15436,0.81176 0.22514,1.64771 0.30828,2.45452c0.04402,0.42712 0.18753,0.83746 0.23451,1.2642c0.00738,0.06696 0.01399,0.13428 0.01995,0.20194l-1.60332,-0.11618c0,0 -1.0851,-1.44281 -1.04201,-2.13423c0.0358,-0.57417 1.2828,-1.7282 1.2828,-1.7282z" fill="#bf9f00" stroke="none"></path><path d="" fill="#bf9f00" stroke="none"></path><path d="" fill="#bf9f00" stroke="none"></path><path d="" fill="#bf9f00" stroke="none"></path><path d="" fill="#bf9f00" stroke="none"></path></g><g stroke-width="0" stroke-linecap="butt"><path d="M195.02496,193.09994v-13.51962h63.78673v13.51962z" fill="#ffd600" stroke="#000000"></path><path d="M196.83005,180.63524l2.48577,0.16708c0,0 1.39481,1.10105 1.35902,1.6336c-0.0431,0.64128 -1.5998,1.9488 -1.5998,1.9488l-2.48576,-0.16708c0,0 -1.0851,-1.33823 -1.04201,-1.9795c0.0358,-0.53254 1.2828,-1.60291 1.2828,-1.60291z" fill="#bf9f00" stroke="none"></path><path d="M202.09225,185.09142l2.48577,0.16708c0,0 1.39481,1.10105 1.35902,1.6336c-0.0431,0.64128 -1.5998,1.9488 -1.5998,1.9488l-2.48576,-0.16708c0,0 -1.0851,-1.33822 -1.04201,-1.9795c0.0358,-0.53254 1.2828,-1.60291 1.2828,-1.60291z" fill="#bf9f00" stroke="none"></path><path d="M207.2079,180.75454l2.48577,0.16708c0,0 1.3948,1.10105 1.35902,1.6336c-0.0431,0.64128 -1.5998,1.9488 -1.5998,1.9488l-2.48576,-0.16708c0,0 -1.0851,-1.33822 -1.04201,-1.9795c0.0358,-0.53254 1.2828,-1.60291 1.2828,-1.60291z" fill="#bf9f00" stroke="none"></path><path d="M197.00899,188.65466l2.48577,0.16708c0,0 1.3948,1.10105 1.35902,1.6336c-0.0431,0.64128 -1.5998,1.9488 -1.5998,1.9488l-2.48576,-0.16708c0,0 -1.0851,-1.33822 -1.04201,-1.9795c0.0358,-0.53254 1.2828,-1.60291 1.2828,-1.60291z" fill="#bf9f00" stroke="none"></path><path d="M206.08153,188.7143l2.48577,0.16708c0,0 1.3948,1.10105 1.35902,1.6336c-0.0431,0.64128 -1.5998,1.9488 -1.5998,1.9488l-2.48576,-0.16708c0,0 -1.0851,-1.33822 -1.04201,-1.9795c0.0358,-0.53254 1.2828,-1.60291 1.2828,-1.60291z" fill="#bf9f00" stroke="none"></path><path d="M212.71719,180.76816l2.48576,0.16708c0,0 1.3948,1.10105 1.35902,1.6336c-0.0431,0.64128 -1.5998,1.9488 -1.5998,1.9488l-2.48577,-0.16708c0,0 -1.0851,-1.33822 -1.04201,-1.9795c0.0358,-0.53254 1.2828,-1.60291 1.2828,-1.60291z" fill="#bf9f00" stroke="none"></path><path d="M217.9794,185.22434l2.48577,0.16708c0,0 1.39481,1.10105 1.35902,1.6336c-0.0431,0.64128 -1.5998,1.9488 -1.5998,1.9488l-2.48577,-0.16708c0,0 -1.0851,-1.33822 -1.04201,-1.9795c0.0358,-0.53254 1.2828,-1.60291 1.2828,-1.60291z" fill="#bf9f00" stroke="none"></path><path d="M223.09505,180.88746l2.48577,0.16708c0,0 1.3948,1.10105 1.35901,1.6336c-0.0431,0.64128 -1.5998,1.9488 -1.5998,1.9488l-2.48577,-0.16708c0,0 -1.0851,-1.33822 -1.04201,-1.9795c0.0358,-0.53254 1.2828,-1.60291 1.2828,-1.60291z" fill="#bf9f00" stroke="none"></path><path d="M212.89614,188.78758l2.48577,0.16708c0,0 1.39481,1.10105 1.35902,1.6336c-0.0431,0.64128 -1.5998,1.9488 -1.5998,1.9488l-2.48576,-0.16708c0,0 -1.0851,-1.33822 -1.04201,-1.9795c0.0358,-0.53254 1.2828,-1.60291 1.2828,-1.60291z" fill="#bf9f00" stroke="none"></path><path d="M221.96867,188.84724l2.48577,0.16708c0,0 1.3948,1.10105 1.35902,1.6336c-0.0431,0.64128 -1.5998,1.9488 -1.5998,1.9488l-2.48576,-0.16708c0,0 -1.0851,-1.33822 -1.04201,-1.9795c0.0358,-0.53254 1.2828,-1.60292 1.2828,-1.60292z" fill="#bf9f00" stroke="none"></path><path d="M228.45778,180.9011l2.48577,0.16708c0,0 1.39481,1.10106 1.35902,1.6336c-0.0431,0.64128 -1.5998,1.9488 -1.5998,1.9488l-2.48576,-0.16708c0,0 -1.0851,-1.33822 -1.04201,-1.9795c0.0358,-0.53254 1.2828,-1.60291 1.2828,-1.60291z" fill="#bf9f00" stroke="none"></path><path d="M233.72,185.35726l2.48577,0.16708c0,0 1.39481,1.10105 1.35902,1.6336c-0.0431,0.64128 -1.5998,1.9488 -1.5998,1.9488l-2.48576,-0.16708c0,0 -1.0851,-1.33822 -1.04201,-1.9795c0.0358,-0.53254 1.2828,-1.60291 1.2828,-1.60291z" fill="#bf9f00" stroke="none"></path><path d="M238.83565,181.02038l2.48576,0.16708c0,0 1.3948,1.10106 1.35902,1.6336c-0.0431,0.64128 -1.5998,1.9488 -1.5998,1.9488l-2.48576,-0.16708c0,0 -1.0851,-1.33822 -1.04201,-1.9795c0.0358,-0.53254 1.2828,-1.60291 1.2828,-1.60291z" fill="#bf9f00" stroke="none"></path><path d="M228.63673,188.92051l2.48576,0.16708c0,0 1.39481,1.10105 1.35902,1.6336c-0.0431,0.64128 -1.5998,1.9488 -1.5998,1.9488l-2.48577,-0.16708c0,0 -1.0851,-1.33822 -1.04201,-1.9795c0.0358,-0.53254 1.2828,-1.60291 1.2828,-1.60291z" fill="#bf9f00" stroke="none"></path><path d="M237.70926,188.98016l2.48577,0.16708c0,0 1.3948,1.10105 1.35902,1.6336c-0.0431,0.64128 -1.5998,1.9488 -1.5998,1.9488l-2.48577,-0.16708c0,0 -1.0851,-1.33822 -1.04201,-1.9795c0.0358,-0.53254 1.2828,-1.60292 1.2828,-1.60292z" fill="#bf9f00" stroke="none"></path><path d="M244.49148,181.03401l2.48577,0.16708c0,0 1.3948,1.10105 1.35902,1.6336c-0.0431,0.64128 -1.5998,1.9488 -1.5998,1.9488l-2.48577,-0.16708c0,0 -1.0851,-1.33822 -1.04201,-1.9795c0.0358,-0.53254 1.2828,-1.60291 1.2828,-1.60291z" fill="#bf9f00" stroke="none"></path><path d="M249.75369,185.49019l2.48576,0.16708c0,0 1.39481,1.10105 1.35902,1.6336c-0.0431,0.64128 -1.5998,1.9488 -1.5998,1.9488l-2.48576,-0.16708c0,0 -1.0851,-1.33822 -1.04201,-1.9795c0.0358,-0.53254 1.2828,-1.60291 1.2828,-1.60291z" fill="#bf9f00" stroke="none"></path><path d="M254.86935,181.15332l2.48577,0.16708c0,0 1.3948,1.10105 1.35902,1.6336c-0.0431,0.64128 -1.5998,1.9488 -1.5998,1.9488l-2.48576,-0.16708c0,0 -1.0851,-1.33822 -1.04201,-1.9795c0.0358,-0.53254 1.2828,-1.60291 1.2828,-1.60291z" fill="#bf9f00" stroke="none"></path><path d="M244.67044,189.05343l2.48576,0.16708c0,0 1.39481,1.10105 1.35902,1.6336c-0.0431,0.64128 -1.5998,1.9488 -1.5998,1.9488l-2.48577,-0.16708c0,0 -1.0851,-1.33822 -1.04201,-1.9795c0.0358,-0.53254 1.2828,-1.60291 1.2828,-1.60291z" fill="#bf9f00" stroke="none"></path><path d="M253.74296,189.11309l2.48576,0.16708c0,0 1.3948,1.10105 1.35902,1.6336c-0.0431,0.64128 -1.5998,1.9488 -1.5998,1.9488l-2.48577,-0.16708c0,0 -1.0851,-1.33822 -1.04201,-1.9795c0.0358,-0.53254 1.2828,-1.60291 1.2828,-1.60291z" fill="#bf9f00" stroke="none"></path></g><g stroke-width="0.1"><path d="M292.4112,208.25809c0,0.34589 -1.50214,0.62628 -3.3551,0.62628c-1.85297,0 -3.3551,-0.28039 -3.3551,-0.62628c0,-0.34589 1.50214,-0.62628 3.3551,-0.62628c1.85297,0 3.3551,0.28039 3.3551,0.62628z" fill="url(#color-1)" stroke="none" stroke-linecap="butt"></path><path d="M286.59569,215.09436l-1.28104,-6.4052l7.62524,-0.24401l-1.22004,6.64921z" fill="url(#color-2)" stroke="#000000" stroke-linecap="butt"></path><path d="M285.15198,208.85184v-0.61002h8.05225v0.61002z" fill="#cea234" stroke="none" stroke-linecap="butt"></path><path d="M288.25778,207.74157c0,0 0.34218,-3.19795 0.41164,-4.43706c0.04988,-0.89007 -0.03383,-2.30324 -0.03383,-2.30324l0.79179,0.04438c0,0 -0.27604,2.7445 -0.34372,3.95207c-0.05604,0.99966 -0.03408,2.78821 -0.03408,2.78821z" fill="#108d00" stroke="none" stroke-linecap="butt"></path><g stroke="none" stroke-linecap="butt"><path d="M288.5515,205.96293l0.4946,-1.0482l1.32404,0.62476c0,0 0.09,0.43205 0.01484,0.61575c-0.07111,0.17382 -0.45428,0.45849 -0.45428,0.45849z" data-paper-data="{&quot;index&quot;:null}" fill="#108d00"></path><path d="M288.80223,205.47418l0.05206,-0.11033l0.90477,0.42691l-0.05206,0.11033z" fill="#14ab00"></path><path d="M289.48109,206.38808l0.46857,-0.99304l0.09273,0.04375l-0.46857,0.99304z" fill="#14ab00"></path><path d="M289.75696,205.93817l0.04166,-0.08827l0.61789,0.29156l-0.04166,0.08827z" fill="#14ab00"></path></g><g data-paper-data="{&quot;index&quot;:null}" stroke="none" stroke-linecap="butt"><path d="M287.40565,205.02966c0,0 -0.32124,-0.35307 -0.35757,-0.53733c-0.03839,-0.19473 0.13306,-0.60138 0.13306,-0.60138l1.41953,-0.3583l0.28366,1.12379z" data-paper-data="{&quot;index&quot;:null}" fill="#108d00"></path><path d="M287.76232,204.3734l-0.02986,-0.1183l0.97001,-0.24484l0.02986,0.1183z" fill="#14ab00"></path><path d="M287.79088,204.91984l-0.26873,-1.06465l0.09942,-0.0251l0.26873,1.06465z" fill="#14ab00"></path><path d="M287.04372,204.56736l-0.02389,-0.09464l0.66245,-0.16721l0.02389,0.09464z" fill="#14ab00"></path></g><g data-paper-data="{&quot;index&quot;:null}" stroke="none" stroke-linecap="butt"><path d="M287.41719,202.85385c0,0 -0.30646,-0.36596 -0.3352,-0.55157c-0.03037,-0.19615 0.15765,-0.59541 0.15765,-0.59541l1.43305,-0.2997l0.23726,1.13449z" data-paper-data="{&quot;index&quot;:null}" fill="#108d00"></path><path d="M287.8005,202.2128l-0.02497,-0.11942l0.97925,-0.2048l0.02497,0.11942z" fill="#14ab00"></path><path d="M287.80659,202.75995l-0.22477,-1.07478l0.10036,-0.02099l0.22477,1.07478z" fill="#14ab00"></path><path d="M287.07453,202.37708l-0.01998,-0.09554l0.66875,-0.13985l0.01998,0.09554z" fill="#14ab00"></path></g><g data-paper-data="{&quot;index&quot;:null}" stroke="none" stroke-linecap="butt"><path d="M288.98631,203.40996l0.2207,-1.13784l1.43727,0.27877c0,0 0.19381,0.39648 0.1663,0.59305c-0.02602,0.18599 -0.32711,0.5564 -0.32711,0.5564z" data-paper-data="{&quot;index&quot;:null}" fill="#108d00"></path><path d="M289.1087,202.87445l0.02323,-0.11978l0.98213,0.1905l-0.02323,0.11978z" fill="#14ab00"></path><path d="M289.99206,203.5926l0.20908,-1.07795l0.10066,0.01953l-0.20908,1.07795z" fill="#14ab00"></path><path d="M290.1484,203.08853l0.01858,-0.09581l0.67072,0.13009l-0.01858,0.09582z" fill="#14ab00"></path></g><path d="M289.03908,201.60765l-0.38349,-0.57524l2.04424,-0.96971l0.05815,0.16856z" fill="#108d00" stroke="none" stroke-linecap="butt"></path><g data-paper-data="{&quot;index&quot;:null}" stroke="none" stroke-linecap="butt"><path d="M289.78203,201.03093l0.23143,-0.57991l0.73252,0.29234c0,0 0.06262,0.22936 0.02826,0.3306c-0.03251,0.0958 -0.22917,0.26149 -0.22917,0.26149z" data-paper-data="{&quot;index&quot;:null}" fill="#108d00"></path><path d="M289.90077,200.75988l0.02437,-0.06104l0.50056,0.19976l-0.02437,0.06104z" fill="#14ab00"></path><path d="M290.29588,201.22893l0.21925,-0.54939l0.0513,0.02048l-0.21925,0.54939z" fill="#14ab00"></path><path d="M290.4294,200.97792l0.0195,-0.04883l0.34184,0.13643l-0.01949,0.04883z" fill="#14ab00"></path></g><g data-paper-data="{&quot;index&quot;:null}" stroke="none" stroke-linecap="butt"><path d="M288.70271,200.53336c0,0 0.04921,-0.18125 0.10266,-0.23225c0.05649,-0.05392 0.22766,-0.08303 0.22766,-0.08303l0.41906,0.39521l-0.31286,0.33176z" data-paper-data="{&quot;index&quot;:null}" fill="#108d00"></path><path d="M288.99586,200.51292l0.03293,-0.03493l0.28636,0.27006l-0.03293,0.03492z" fill="#14ab00"></path><path d="M288.82061,200.63795l0.29641,-0.31429l0.02935,0.02767l-0.29641,0.31429z" fill="#14ab00"></path><path d="M288.77955,200.31551l0.02635,-0.02794l0.19556,0.18442l-0.02635,0.02794z" fill="#14ab00"></path></g><path d="M285.79975,210.54836c0,0 -0.06927,0.05201 -0.09228,-0.00432c-0.04648,-0.11378 -0.16988,-0.63742 -0.16988,-0.63742l1.57748,-1.0534l0.36382,0.51973z" fill="#d5d5d5" stroke="none" stroke-linecap="butt"></path><path d="M286.73323,209.38921l0.36382,-0.51973l1.67915,1.17541l-0.36382,0.51973z" data-paper-data="{&quot;index&quot;:null}" fill="#d5d5d5" stroke="none" stroke-linecap="butt"></path><path d="M288.46349,210.56869l-0.36382,-0.51973l1.67915,-1.17541l0.36382,0.51973z" fill="#d5d5d5" stroke="none" stroke-linecap="butt"></path><path d="M289.43764,209.38921l0.36382,-0.51973l1.67916,1.17541l-0.36382,0.51973z" data-paper-data="{&quot;index&quot;:null}" fill="#d5d5d5" stroke="none" stroke-linecap="butt"></path><path d="M291.18418,210.54429l-0.36382,-0.51973l2.0655,-1.13474l-0.02253,0.47908z" data-paper-data="{&quot;index&quot;:null}" fill="#d5d5d5" stroke="none" stroke-linecap="butt"></path><path d="M286.04376,212.23607l-0.18081,-0.6214l1.53681,-1.09408l0.36382,0.51973z" fill="#d5d5d5" stroke="none" stroke-linecap="butt"></path><path d="M287.03825,211.05661l0.36382,-0.51973l1.67915,1.17541l-0.36382,0.51973z" data-paper-data="{&quot;index&quot;:null}" fill="#d5d5d5" stroke="none" stroke-linecap="butt"></path><path d="M288.7685,212.23607l-0.36382,-0.51973l1.67916,-1.17541l0.36382,0.51973z" fill="#d5d5d5" stroke="none" stroke-linecap="butt"></path><path d="M289.74266,211.05661l0.36382,-0.51973l1.67916,1.17541l-0.36382,0.51973z" data-paper-data="{&quot;index&quot;:null}" fill="#d5d5d5" stroke="none" stroke-linecap="butt"></path><path d="M291.46449,212.21167l-0.37979,-0.51973l1.45045,-0.89941c0.00227,0.13295 -0.0869,0.29536 -0.06519,0.43057c-0.00035,0.01171 -0.0642,0.0438 -0.0642,0.05561c0,0.09611 0.01161,0.18962 0.03353,0.27931z" data-paper-data="{&quot;index&quot;:null}" fill="#d5d5d5" stroke="none" stroke-linecap="butt"></path><path d="M286.51143,214.49315l-0.20114,-0.72308l1.59781,-1.09408l0.36382,0.51973z" fill="#d5d5d5" stroke="none" stroke-linecap="butt"></path><path d="M287.52626,213.212l0.36382,-0.51973l1.67915,1.17541l-0.36382,0.51973z" data-paper-data="{&quot;index&quot;:null}" fill="#d5d5d5" stroke="none" stroke-linecap="butt"></path><path d="M289.25652,214.39148l-0.36382,-0.51973l1.67916,-1.17541l0.36382,0.51973z" fill="#d5d5d5" stroke="none" stroke-linecap="butt"></path><path d="M290.23067,213.212l0.37639,-0.51973l1.45078,0.90437c-0.05566,0.08895 -0.05782,0.24633 -0.08866,0.34823c-0.03296,0.10888 -0.02961,0.16308 -0.02961,0.28225c0,0.00712 -0.14719,0.03456 -0.14706,0.04166z" data-paper-data="{&quot;index&quot;:null}" fill="#d5d5d5" stroke="none" stroke-linecap="butt"></path><path d="M291.85759,214.09162c0.02332,-0.14402 0.03118,-0.32025 0.10025,-0.4427l-0.08011,0.27974z" data-paper-data="{&quot;index&quot;:null}" fill="#ffffff" stroke="none" stroke-linecap="butt"></path><path d="M292.49834,208.34131l-0.06972,0.122l0.08714,0.13944l-0.36601,0.19172" fill="none" stroke="#000000" stroke-linecap="round"></path><path d="M292.4112,208.8119l-0.10458,-0.10458" fill="none" stroke="#000000" stroke-linecap="round"></path></g><g stroke-width="0.1"><path d="M293.70101,150.21684c0,0.34589 -1.50214,0.62628 -3.3551,0.62628c-1.85297,0 -3.3551,-0.28039 -3.3551,-0.62628c0,-0.34589 1.50214,-0.62628 3.3551,-0.62628c1.85297,0 3.3551,0.28039 3.3551,0.62628z" fill="url(#color-3)" stroke="none" stroke-linecap="butt"></path><path d="M287.88548,157.05313l-1.28104,-6.4052l7.62524,-0.24401l-1.22004,6.64921z" fill="url(#color-4)" stroke="#000000" stroke-linecap="butt"></path><path d="M286.44178,150.8106v-0.61002h8.05225v0.61002z" fill="#cea234" stroke="none" stroke-linecap="butt"></path><path d="M289.54759,149.70034c0,0 0.34218,-3.19795 0.41164,-4.43706c0.04988,-0.89007 -0.03383,-2.30324 -0.03383,-2.30324l0.79179,0.04438c0,0 -0.27604,2.7445 -0.34372,3.95207c-0.05604,0.99966 -0.03408,2.78821 -0.03408,2.78821z" fill="#108d00" stroke="none" stroke-linecap="butt"></path><g stroke="none" stroke-linecap="butt"><path d="M289.8413,147.9217l0.4946,-1.0482l1.32404,0.62476c0,0 0.09,0.43205 0.01484,0.61575c-0.07111,0.17382 -0.45428,0.45849 -0.45428,0.45849z" data-paper-data="{&quot;index&quot;:null}" fill="#108d00"></path><path d="M290.09203,147.43293l0.05206,-0.11033l0.90477,0.42691l-0.05206,0.11033z" fill="#14ab00"></path><path d="M290.7709,148.34683l0.46857,-0.99304l0.09273,0.04375l-0.46857,0.99304z" fill="#14ab00"></path><path d="M291.04676,147.89692l0.04166,-0.08827l0.61789,0.29156l-0.04166,0.08827z" fill="#14ab00"></path></g><g data-paper-data="{&quot;index&quot;:null}" stroke="none" stroke-linecap="butt"><path d="M288.69546,146.98843c0,0 -0.32124,-0.35307 -0.35757,-0.53733c-0.03839,-0.19473 0.13306,-0.60138 0.13306,-0.60138l1.41953,-0.3583l0.28366,1.12379z" data-paper-data="{&quot;index&quot;:null}" fill="#108d00"></path><path d="M289.05213,146.33216l-0.02986,-0.1183l0.97001,-0.24484l0.02986,0.1183z" fill="#14ab00"></path><path d="M289.08069,146.87861l-0.26873,-1.06465l0.09942,-0.0251l0.26873,1.06465z" fill="#14ab00"></path><path d="M288.33352,146.52614l-0.02389,-0.09464l0.66245,-0.16721l0.02389,0.09464z" fill="#14ab00"></path></g><g data-paper-data="{&quot;index&quot;:null}" stroke="none" stroke-linecap="butt"><path d="M288.70699,144.81261c0,0 -0.30646,-0.36596 -0.3352,-0.55157c-0.03037,-0.19615 0.15765,-0.59541 0.15765,-0.59541l1.43305,-0.2997l0.23726,1.13449z" data-paper-data="{&quot;index&quot;:null}" fill="#108d00"></path><path d="M289.0903,144.17155l-0.02497,-0.11942l0.97925,-0.2048l0.02497,0.11942z" fill="#14ab00"></path><path d="M289.09641,144.7187l-0.22477,-1.07478l0.10036,-0.02099l0.22477,1.07478z" fill="#14ab00"></path><path d="M288.36435,144.33583l-0.01998,-0.09554l0.66875,-0.13985l0.01998,0.09554z" fill="#14ab00"></path></g><g data-paper-data="{&quot;index&quot;:null}" stroke="none" stroke-linecap="butt"><path d="M290.27612,145.36872l0.2207,-1.13784l1.43727,0.27877c0,0 0.19381,0.39648 0.1663,0.59305c-0.02602,0.18599 -0.32711,0.5564 -0.32711,0.5564z" data-paper-data="{&quot;index&quot;:null}" fill="#108d00"></path><path d="M290.39851,144.83321l0.02323,-0.11978l0.98213,0.1905l-0.02323,0.11978z" fill="#14ab00"></path><path d="M291.28185,145.55136l0.20908,-1.07795l0.10066,0.01953l-0.20908,1.07795z" fill="#14ab00"></path><path d="M291.4382,145.0473l0.01858,-0.09581l0.67072,0.13009l-0.01858,0.09582z" fill="#14ab00"></path></g><path d="M290.32889,143.56641l-0.38349,-0.57524l2.04424,-0.96971l0.05815,0.16856z" fill="#108d00" stroke="none" stroke-linecap="butt"></path><g data-paper-data="{&quot;index&quot;:null}" stroke="none" stroke-linecap="butt"><path d="M291.07184,142.9897l0.23143,-0.57991l0.73252,0.29234c0,0 0.06262,0.22936 0.02826,0.3306c-0.03251,0.0958 -0.22917,0.26149 -0.22917,0.26149z" data-paper-data="{&quot;index&quot;:null}" fill="#108d00"></path><path d="M291.19057,142.71864l0.02437,-0.06104l0.50056,0.19976l-0.02437,0.06104z" fill="#14ab00"></path><path d="M291.5857,143.1877l0.21925,-0.54939l0.0513,0.02048l-0.21925,0.54939z" fill="#14ab00"></path><path d="M291.71921,142.93669l0.0195,-0.04883l0.34184,0.13643l-0.01949,0.04883z" fill="#14ab00"></path></g><g data-paper-data="{&quot;index&quot;:null}" stroke="none" stroke-linecap="butt"><path d="M289.99252,142.49213c0,0 0.04921,-0.18125 0.10266,-0.23225c0.05649,-0.05392 0.22766,-0.08303 0.22766,-0.08303l0.41906,0.39521l-0.31286,0.33176z" data-paper-data="{&quot;index&quot;:null}" fill="#108d00"></path><path d="M290.28567,142.47169l0.03293,-0.03493l0.28636,0.27006l-0.03293,0.03492z" fill="#14ab00"></path><path d="M290.11041,142.59671l0.29641,-0.31429l0.02935,0.02767l-0.29641,0.31429z" fill="#14ab00"></path><path d="M290.06936,142.27428l0.02635,-0.02794l0.19556,0.18442l-0.02635,0.02794z" fill="#14ab00"></path></g><path d="M287.08954,152.50711c0,0 -0.06927,0.05201 -0.09228,-0.00432c-0.04648,-0.11378 -0.16988,-0.63742 -0.16988,-0.63742l1.57748,-1.0534l0.36382,0.51973z" fill="#d5d5d5" stroke="none" stroke-linecap="butt"></path><path d="M288.02304,151.34797l0.36382,-0.51973l1.67915,1.17541l-0.36382,0.51973z" data-paper-data="{&quot;index&quot;:null}" fill="#d5d5d5" stroke="none" stroke-linecap="butt"></path><path d="M289.75329,152.52745l-0.36382,-0.51973l1.67915,-1.17541l0.36382,0.51973z" fill="#d5d5d5" stroke="none" stroke-linecap="butt"></path><path d="M290.72746,151.34797l0.36382,-0.51973l1.67916,1.17541l-0.36382,0.51973z" data-paper-data="{&quot;index&quot;:null}" fill="#d5d5d5" stroke="none" stroke-linecap="butt"></path><path d="M292.47399,152.50305l-0.36382,-0.51973l2.0655,-1.13474l-0.02253,0.47908z" data-paper-data="{&quot;index&quot;:null}" fill="#d5d5d5" stroke="none" stroke-linecap="butt"></path><path d="M287.33356,154.19484l-0.18081,-0.6214l1.53681,-1.09408l0.36382,0.51973z" fill="#d5d5d5" stroke="none" stroke-linecap="butt"></path><path d="M288.32805,153.01536l0.36382,-0.51973l1.67915,1.17541l-0.36382,0.51973z" data-paper-data="{&quot;index&quot;:null}" fill="#d5d5d5" stroke="none" stroke-linecap="butt"></path><path d="M290.05832,154.19483l-0.36382,-0.51973l1.67916,-1.17541l0.36382,0.51973z" fill="#d5d5d5" stroke="none" stroke-linecap="butt"></path><path d="M291.03246,153.01536l0.36382,-0.51973l1.67916,1.17541l-0.36382,0.51973z" data-paper-data="{&quot;index&quot;:null}" fill="#d5d5d5" stroke="none" stroke-linecap="butt"></path><path d="M292.7543,154.17044l-0.37979,-0.51973l1.45045,-0.89941c0.00227,0.13295 -0.0869,0.29536 -0.06519,0.43057c-0.00035,0.01171 -0.0642,0.0438 -0.0642,0.05561c0,0.09611 0.01161,0.18962 0.03353,0.27931z" data-paper-data="{&quot;index&quot;:null}" fill="#d5d5d5" stroke="none" stroke-linecap="butt"></path><path d="M287.80123,156.4519l-0.20114,-0.72308l1.59781,-1.09408l0.36382,0.51973z" fill="#d5d5d5" stroke="none" stroke-linecap="butt"></path><path d="M288.81606,155.17077l0.36382,-0.51973l1.67915,1.17541l-0.36382,0.51973z" data-paper-data="{&quot;index&quot;:null}" fill="#d5d5d5" stroke="none" stroke-linecap="butt"></path><path d="M290.54632,156.35023l-0.36382,-0.51973l1.67916,-1.17541l0.36382,0.51973z" fill="#d5d5d5" stroke="none" stroke-linecap="butt"></path><path d="M291.52048,155.17077l0.37639,-0.51973l1.45078,0.90437c-0.05566,0.08895 -0.05782,0.24633 -0.08866,0.34823c-0.03296,0.10888 -0.02961,0.16308 -0.02961,0.28225c0,0.00712 -0.14719,0.03456 -0.14706,0.04166z" data-paper-data="{&quot;index&quot;:null}" fill="#d5d5d5" stroke="none" stroke-linecap="butt"></path><path d="M293.14739,156.05038c0.02332,-0.14402 0.03118,-0.32025 0.10025,-0.4427l-0.08011,0.27974z" data-paper-data="{&quot;index&quot;:null}" fill="#ffffff" stroke="none" stroke-linecap="butt"></path><path d="M293.78815,150.30008l-0.06972,0.122l0.08714,0.13944l-0.36601,0.19172" fill="none" stroke="#000000" stroke-linecap="round"></path><path d="M293.701,150.77066l-0.10458,-0.10458" fill="none" stroke="#000000" stroke-linecap="round"></path></g><path d="M214.51445,214.20634l0.0028,8.65795c-0.31208,-0.0188 -0.62817,-0.08919 -0.93973,-0.08919c-0.6993,0 -3.8491,-0.0033 -4.00805,0.01828c-0.77184,0.10473 -1.51233,0.45779 -2.2752,0.64338c-0.35685,0.08682 -0.7166,0.16118 -1.07512,0.24239l-0.00306,-9.46824z" data-paper-data="{&quot;index&quot;:null}" fill="#000000" stroke="none" stroke-width="0.25" stroke-linecap="butt"></path><path d="M214.74777,215.20149l0.00052,1.38734l-0.4407,0.00021l-0.00052,-1.38734z" fill="#e6e6e6" stroke="#000000" stroke-width="0.25" stroke-linecap="butt"></path><path d="M223.06511,214.20229l0.00263,8.23354c-1.35019,-0.16407 -2.70624,-0.16926 -4.0965,-0.16926c-0.58827,0 -2.26734,-0.00527 -2.48624,0.04002c-0.48844,0.10107 -0.9245,0.47787 -1.40706,0.61997c-0.10187,0.03 -0.20479,0.04574 -0.30839,0.05185l-0.0028,-8.7715z" fill="#8e6544" stroke="none" stroke-width="0.25" stroke-linecap="butt"></path><path d="M222.36688,217.57776l0.00178,4.71403l-6.72603,0.00318l-0.00178,-4.71403z" fill="none" stroke="#513a27" stroke-width="0.25" stroke-linecap="butt"></path><path d="" fill="#d59866" stroke="none" stroke-width="0.25" stroke-linecap="butt"></path><path d="" fill="#ab7a52" stroke="none" stroke-width="0.25" stroke-linecap="butt"></path><path d="" fill="#ab7a52" stroke="none" stroke-width="0.25" stroke-linecap="butt"></path><path d="" fill="#dadada" stroke="none" stroke-width="0.25" stroke-linecap="butt"></path><path d="" fill="#fff4ce" stroke="#e6ddbb" stroke-width="0.25" stroke-linecap="butt"></path><path d="" fill="#e6ddbb" stroke="#e6ddbb" stroke-width="0.25" stroke-linecap="butt"></path><path d="" fill="#e6ddbb" stroke="none" stroke-width="0.25" stroke-linecap="butt"></path><path d="" fill="#fff4ce" stroke="none" stroke-width="0.25" stroke-linecap="butt"></path></g></g></svg>