<svg version="1.1" xmlns="http://www.w3.org/2000/svg" xmlns:xlink="http://www.w3.org/1999/xlink" width="33.43017" height="274.44927" viewBox="0,0,33.43017,274.44927"><defs><radialGradient cx="241.52218" cy="179.19057" r="88.36018" gradientUnits="userSpaceOnUse" id="color-1"><stop offset="0" stop-color="#9800ff" stop-opacity="0.50132"></stop><stop offset="1" stop-color="#9800ff" stop-opacity="0"></stop></radialGradient><linearGradient x1="247.76502" y1="150.56269" x2="244.99377" y2="164.14021" gradientUnits="userSpaceOnUse" id="color-2"><stop offset="0" stop-color="#8e47b1"></stop><stop offset="1" stop-color="#573e9b"></stop></linearGradient></defs><g transform="translate(-221.51475,-41.96593)"><g data-paper-data="{&quot;isPaintingLayer&quot;:true}" fill-rule="nonzero" stroke-linecap="butt" stroke-linejoin="miter" stroke-miterlimit="10" stroke-dasharray="" stroke-dashoffset="0" style="mix-blend-mode: normal"><path d="M248.68652,179.19057c0,75.78708 -3.20759,137.22464 -7.16434,137.22464c-3.95675,0 -7.16434,-61.43756 -7.16434,-137.22464c0,-75.78707 3.20758,-137.22463 7.16434,-137.22463c3.95675,0 7.16434,61.43756 7.16434,137.22463z" fill="url(#color-1)" stroke="none" stroke-width="0"></path><path d="M242.25916,196.6434l3.14412,-1.0694l1.80662,1.65947c0,0 0.27175,0.27996 -0.24869,0.90379c-0.2032,0.24357 4.15996,1.53865 3.72738,1.84905c-0.15796,0.11334 -2.12065,1.26671 -3.62806,1.09252c-1.06924,-0.12356 -1.83036,-1.59334 -1.90854,-1.54968c-0.328,0.18318 -0.24283,0.97786 -0.24283,0.97786z" fill="#bb6fdb" stroke="none" stroke-width="0"></path><path d="M228.27196,194.21477l1.26367,3.0712l-1.5434,1.90674c0,0 -0.26244,0.2887 -0.91756,-0.19176c-0.24713,-0.18124 -4.87562,0.68499 -5.2046,0.28578c-0.1353,-0.16417 -0.8605,-1.73573 0.26109,-2.24892c0.73583,-0.33668 3.49014,0.32017 3.44136,0.24438c-0.20331,-0.31592 -0.9911,-0.18128 -0.9911,-0.18128z" fill="#bb6fdb" stroke="none" stroke-width="0"></path><path d="M242.7903,197.73848l-5.41333,-14.52398l3.51387,-1.30967l5.41333,14.52398z" fill="#4d006e" stroke="none" stroke-width="0"></path><path d="M226.28896,195.56303l9.47227,-12.26891l2.96828,2.29168l-9.47227,12.26891z" fill="#4d006e" stroke="none" stroke-width="0"></path><path d="M251.65095,181.13145l-4.74876,-12.9431l2.36736,-1.06282l4.74876,12.94311z" data-paper-data="{&quot;index&quot;:null}" fill="#aa65c7" stroke="none" stroke-width="0"></path><path d="M251.87033,182.10467l-0.50075,-1.525l2.22508,-0.98567l0.50075,1.525z" data-paper-data="{&quot;index&quot;:null}" fill="#8d54a5" stroke="none" stroke-width="0"></path><path d="M251.75325,184.77239l-0.19296,-3.52747l1.21417,-0.15629l0.19296,3.52747z" data-paper-data="{&quot;index&quot;:null}" fill="#8d54a5" stroke="none" stroke-width="0"></path><path d="M250.47258,182.07922l1.25966,-1.73361l0.64438,0.53655l-1.25966,1.73361z" data-paper-data="{&quot;index&quot;:null}" fill="#8d54a5" stroke="none" stroke-width="0"></path><path d="M253.16936,185.34117l-0.52188,-4.21709l0.52747,-0.11027l0.52188,4.21709z" data-paper-data="{&quot;index&quot;:null}" fill="#8d54a5" stroke="none" stroke-width="0"></path><path d="M253.80088,183.55404l-0.45249,-2.73139l0.67359,-0.17343l0.45249,2.73139z" data-paper-data="{&quot;index&quot;:null}" fill="#8d54a5" stroke="none" stroke-width="0"></path><path d="M253.53125,180.65013l0.47942,-0.7742l0.93425,0.6489l-0.47942,0.7742z" data-paper-data="{&quot;index&quot;:null}" fill="#8d54a5" stroke="none" stroke-width="0"></path><path d="M229.17736,178.52515l7.1928,-11.76174l2.11323,1.50607l-7.1928,11.76174z" fill="#aa65c7" stroke="none" stroke-width="0"></path><path d="M228.89599,179.54004l0.78985,-1.39732l1.9888,1.40256l-0.78985,1.39732z" fill="#8d54a5" stroke="none" stroke-width="0"></path><path d="M229.31688,183.1904l0.8804,-3.42128l1.16001,0.39117l-0.8804,3.42128z" fill="#8d54a5" stroke="none" stroke-width="0"></path><path d="M231.52343,181.59141l-0.89556,-1.94681l0.737,-0.39989l0.89556,1.94681z" fill="#8d54a5" stroke="none" stroke-width="0"></path><path d="M228.48114,183.65034l1.33807,-4.0331l0.49563,0.21149l-1.33807,4.0331z" fill="#8d54a5" stroke="none" stroke-width="0"></path><path d="M228.08112,181.68355l0.97891,-2.58978l0.62655,0.30206l-0.97891,2.58978z" fill="#8d54a5" stroke="none" stroke-width="0"></path><path d="M228.49779,179.64408l-0.31842,-0.85313l1.04329,-0.45326l0.31842,0.85313z" fill="#8d54a5" stroke="none" stroke-width="0"></path><path d="M236.96886,183.76021l4.1163,-20.16754l7.14974,1.4593l-4.1163,20.16754z" fill-opacity="0.52552" fill="#5e0087" stroke="none" stroke-width="0"></path><path d="M235.49468,183.45933c0,0 -1.06351,-1.83503 -0.65169,-5.05942c0.03668,-0.28722 1.66328,-0.85397 1.69768,-1.15824c0.12915,-1.14244 -0.14649,-2.55589 0.02489,-3.84963c0.14319,-1.08097 0.10538,-4.85514 0.29761,-5.72687c0.10844,-0.49172 2.84457,-1.83801 2.92086,-2.21177c0.5105,-2.50117 0.64355,-6.16246 0.64355,-6.16246l10.24552,2.09117c0,0 -0.06112,3.61633 -1.2197,7.04924c-0.82247,2.43698 -2.75821,4.54062 -3.11126,6.27037c-0.78936,3.86744 -0.60192,10.84878 -0.60192,10.84878c0,0 -1.63437,1.61127 -2.34815,1.57634c-2.15478,-0.10544 -5.47281,-1.98192 -6.80392,-2.25361c-0.80952,-0.16523 -1.09344,-1.4139 -1.09344,-1.4139zM241.42482,180.4068c-0.35437,-0.66994 -3.85517,-0.25013 -2.54865,0.90442c-0.02245,0.03037 -0.03902,0.06664 -0.04725,0.10698c-0.02249,0.11019 0.02416,0.21679 0.10824,0.26601l0.19999,0.12401l0.02871,-0.05335c0.20467,0.15034 0.41332,0.18497 0.75568,0.14047c0.32715,0.11157 0.71585,0.19676 1.1073,0.216c0.06173,0.01856 0.12268,0.03469 0.18247,0.04827l0.22113,0.04513c0.09966,0.02034 0.19881,-0.03548 0.24693,-0.13022c0.56385,-0.1007 1.05974,-0.39962 1.28936,-1.03023c0.23592,-0.64787 -1.7314,-2.35164 -1.98293,-2.91742c0,0 -0.09909,-0.21947 -0.30299,-0.10169c-0.2039,0.11777 -0.10481,0.33724 -0.10481,0.33724c0.33442,0.73089 0.91524,1.24593 1.38557,1.87394c0.03528,0.04711 0.34771,0.52913 0.50703,0.63383c-0.27495,0.13601 -1.09927,0.67733 -1.27858,0.76088c-0.00593,0.00277 -0.01183,0.0055 -0.01767,0.00818c-0.03904,-0.01074 -0.0772,-0.023 -0.11463,-0.03647c-0.11886,-0.06094 -0.24704,-0.12097 -0.37914,-0.17792c-0.04314,-0.02352 -0.08599,-0.04742 -0.1289,-0.07113c0.59186,-0.10592 1.15793,-0.40858 0.87316,-0.94693zM241.60159,170.51251l0.05042,-0.04288c1.0917,-0.50698 2.53144,-1.33326 3.71459,-2.273l0.0099,0.02191l0.40592,-0.23446c0.06066,-0.03433 0.10795,-0.09723 0.12391,-0.17542c0.02599,-0.12732 -0.04034,-0.24984 -0.15004,-0.28461l-0.21597,-0.07189c-0.81877,-0.46132 0.15444,-0.97067 0.61599,-0.86825c0,0 0.22113,0.04513 0.27113,-0.19982c0.05,-0.24495 -0.17114,-0.29008 -0.17114,-0.29008c-0.88089,-0.16851 -2.03502,0.98797 -1.07483,1.70826c-1.2586,0.17102 -2.71377,1.75559 -3.69158,2.20967l-0.13032,0.09033c0,0 -0.19171,0.1413 -0.0707,0.34641c0.121,0.20512 0.31272,0.06383 0.31272,0.06383z" fill="#7300a5" stroke="none" stroke-width="0"></path><path d="M239.78159,180.85958l-0.01616,-0.00155l0.00268,-0.00595l-0.11788,-0.0601c0.25517,0.0254 0.5511,0.05256 0.81411,0.0427c-0.26718,0.0768 -0.54681,0.12373 -0.68275,0.0249z" fill="#7300a5" stroke="none" stroke-width="0"></path><path d="M239.16106,180.94584c-0.23502,-0.16668 -0.15341,-0.20065 0.07773,-0.1899c-0.03506,0.03505 -0.06107,0.0818 -0.07211,0.13586c-0.00371,0.01819 -0.00554,0.03629 -0.00563,0.05404z" fill="#7300a5" stroke="none" stroke-width="0"></path><path d="M241.13543,161.98695l1.69985,-8.3283l8.24665,1.68319l-1.69985,8.3283z" fill-opacity="0.50132" fill="#5e0087" stroke="none" stroke-width="0"></path><path d="M251.8544,159.99985c-0.59959,2.93763 -3.67119,4.79133 -6.86063,4.14035c-3.18943,-0.65098 -5.28892,-3.56013 -4.68933,-6.49776c0.59959,-2.93763 4.04503,-7.77688 7.23446,-7.1259c3.18943,0.65098 4.91508,6.54567 4.31549,9.48331zM249.51028,158.92587l-0.0853,-0.01246c-0.42093,0.00137 -1.12598,-0.00035 -0.83384,0.41301l-0.36568,-0.01782c-0.10356,-0.00679 -0.20013,0.05167 -0.24299,0.14452l-0.20674,0.02811c-0.10483,0.01176 -0.19479,0.08958 -0.21702,0.19851c-0.02249,0.11019 0.03125,0.21824 0.12505,0.26944l0.42107,0.24282c0.14642,0.10251 0.54797,0.38375 0.63914,0.44699c1.71171,1.18713 -1.63029,0.29126 -1.57794,1.34472c0.00279,0.05619 0.03473,0.11392 0.08637,0.16945c-0.58747,0.08589 -1.00384,0.38905 -1.48311,0.89196c0,0 -0.17222,0.18122 0.009,0.35344c0.18122,0.17222 0.35344,-0.009 0.35344,-0.009c0.48929,-0.51643 0.87521,-0.80865 1.59342,-0.7612l0.26456,0.05073l0.47029,0.09599c0.13528,0.02761 0.26733,-0.05967 0.29495,-0.19495c0.02184,-0.10702 -0.02822,-0.21203 -0.11707,-0.26489l-0.26315,-0.16502l-0.00965,0.0154c-0.06491,-0.06573 -0.13414,-0.1274 -0.20509,-0.17684c0.03471,-0.00418 0.06581,-0.00807 0.09104,-0.01113c0.28263,-0.03427 1.62136,-0.29613 1.58551,-0.80773c-0.03902,-0.55687 -0.74333,-0.94993 -1.2349,-1.25256c0.01566,-0.02484 0.02718,-0.05287 0.0334,-0.08334c0.00033,-0.0016 0.00063,-0.0032 0.00093,-0.0048l0.04648,0.00226l0.25642,0.01526c0.12373,0.00935 0.238,-0.07459 0.26347,-0.19935c0.00666,-0.03261 0.00664,-0.06502 0.00088,-0.09583c0.05184,-0.07458 0.14606,-0.13908 0.21977,-0.13814l-0.01272,0.00235c0,0 0.24495,0.05 0.29495,-0.19495c0.05,-0.24495 -0.19495,-0.29495 -0.19495,-0.29495zM244.0886,158.93417l0.1896,-0.1881c0.08116,-0.1131 0.13154,-0.28724 0.14154,-0.45014c0.03049,0.0031 0.06108,0.00564 0.09174,0.00764l-0.00854,0.07189l0.44053,0.05231c0.12875,0.01666 0.25041,-0.06876 0.27678,-0.19798c0.02038,-0.09986 -0.02184,-0.19796 -0.09975,-0.25359l-0.24889,-0.18603c-0.66032,-0.49333 -2.22025,-2.95667 -0.95233,-2.98264c0,0 0.24926,-0.01922 0.23004,-0.26848c-0.01922,-0.24926 -0.26848,-0.23004 -0.26848,-0.23004c-1.69078,0.18544 -0.69697,2.32117 0.20816,3.40286l-0.24176,-0.0894c-0.01307,-0.00509 -0.02673,-0.00913 -0.04093,-0.01203c-0.13528,-0.02761 -0.26733,0.05967 -0.29495,0.19495c-0.01763,0.08637 0.01158,0.17143 0.07021,0.22882l0.18538,0.18685l0.0514,-0.05099c0.08311,0.12524 0.14165,0.21841 0.10773,0.22104l-0.1896,0.1881c0,0 -0.17748,0.17607 -0.00139,0.35355c0.17607,0.17748 0.35355,0.00139 0.35355,0.00139z" fill="url(#color-2)" stroke="none" stroke-width="0"></path><path d="M234.02256,187.88949l0.88728,-0.23024c0,0 0.55956,0.36998 0.62269,0.61325c0.06245,0.24067 -0.24592,0.83866 -0.24592,0.83866l-0.88728,0.23024z" fill="#9c35c8" stroke="none" stroke-width="0"></path><path d="M241.52077,191.22066l-0.03439,-0.91602c0,0 0.48419,-0.46718 0.73265,-0.4765c0.25116,-0.00942 0.76629,0.42025 0.76629,0.42025l0.03439,0.91602z" data-paper-data="{&quot;index&quot;:null}" fill="#9c35c8" stroke="none" stroke-width="0"></path><path d="M248.61399,164.1382c-0.00339,0.00148 -0.00679,0.00295 -0.0102,0.00441" fill="none" stroke="#00e82d" stroke-width="0.15"></path><path d="M245.54802,163.23727c-0.01139,-0.01811 -0.02247,-0.03636 -0.03323,-0.05474" fill="none" stroke="#00e82d" stroke-width="0.15"></path><path d="M245.94396,162.70109c0.44431,-0.92307 1.68081,-1.27901 2.7975,-0.79316c0.27987,0.12176 0.52618,0.28507 0.73232,0.47648" fill="none" stroke="#00e82d" stroke-width="0.15"></path></g></g></svg>