<svg version="1.1" xmlns="http://www.w3.org/2000/svg" xmlns:xlink="http://www.w3.org/1999/xlink" width="59.493" height="77.53679" viewBox="0,0,59.493,77.53679"><defs><linearGradient x1="245.17101" y1="178.35941" x2="262.02052" y2="178.35941" gradientUnits="userSpaceOnUse" id="color-1"><stop offset="0" stop-color="#8d3800"></stop><stop offset="1" stop-color="#d27a00"></stop></linearGradient><linearGradient x1="216.44907" y1="178.43433" x2="233.41869" y2="178.43433" gradientUnits="userSpaceOnUse" id="color-2"><stop offset="0" stop-color="#d27a00"></stop><stop offset="1" stop-color="#8d3800"></stop></linearGradient></defs><g transform="translate(-210.2535,-141.10661)"><g data-paper-data="{&quot;isPaintingLayer&quot;:true}" fill-rule="nonzero" stroke-width="0.5" stroke-linejoin="miter" stroke-miterlimit="10" stroke-dasharray="" stroke-dashoffset="0" style="mix-blend-mode: normal"><path d="M240.17839,152.23838l-0.72545,53.68344" fill="none" stroke="#652800" stroke-linecap="round"></path><path d="M214.64248,149.91694v-4.35271c0,0 15.13706,-4.20762 23.06937,-4.20762c8.56012,0 26.55154,4.20762 26.55154,4.20762v4.35271z" fill="#652800" stroke="#311300" stroke-linecap="butt"></path><path d="M210.2535,218.64339l4.78679,-13.12949h49.64588l5.06032,13.12949z" fill-opacity="0.45161" fill="#000000" stroke="none" stroke-linecap="butt"></path><g stroke-linecap="butt"><path d="M214.49323,206.1955v-56.62092h49.64588v56.62092z" fill="#000000" stroke="none"></path><path d="M216.08506,206.07524v-55.42452c0,0 13.42498,0 20.74792,0c8.23867,0 26.26136,0 26.26136,0v55.42452z" fill="none" stroke="#652800"></path></g><g stroke-linecap="butt"><path d="M245.17101,205.57574v-54.43267h16.84951v54.43267z" fill="url(#color-1)" stroke="none"></path><path d="M249.27106,199.72337v-9.86614h8.70325v9.86614z" fill="none" stroke="#7b3100"></path><path d="M249.49422,182.31253v-9.86615h8.70325v9.86615z" fill="none" stroke="#7b3100"></path><path d="M249.62226,164.48782v-9.86614h8.70325v9.86614z" fill="none" stroke="#7b3100"></path><g><path d="M248.78486,180.40934c-0.85711,-0.26895 -1.36749,-1.48081 -1.13998,-2.70679c0.22751,-1.22597 1.10677,-2.00179 1.96388,-1.73284c0.85711,0.26895 1.36749,1.48081 1.13998,2.70679c-0.22751,1.22597 -1.10677,2.00179 -1.96388,1.73284z" fill="#fff4ce" stroke="#e6ddbb"></path><path d="M249.33886,179.18715c-0.53248,-0.16709 -0.84956,-0.91996 -0.70822,-1.6816c0.14134,-0.76164 0.68759,-1.24362 1.22007,-1.07653c0.53248,0.16709 0.84956,0.91996 0.70822,1.6816c-0.14134,0.76164 -0.68759,1.24362 -1.22007,1.07653z" fill="#e6ddbb" stroke="#e6ddbb"></path><path d="M246.23256,178.45717l1.256,-0.62084l0.47745,1.63321l-1.256,0.62084z" fill="#e6ddbb" stroke="none"></path><path d="M247.26928,180.42559c-0.44367,0.80243 -0.78825,-0.10123 -0.94414,-0.51985c-0.24325,-0.65323 -0.19806,-1.30303 0.00055,-1.90409l-0.04427,-0.01389l0.06304,-0.3397v0c0.03006,-0.16196 0.1554,-0.26157 0.27995,-0.22249c0.09003,0.02825 0.15501,0.12123 0.17276,0.23177l0.06645,0.37431l-0.00928,0.00279l0.01362,0.02969c0.00032,0.03292 0.00065,0.06584 0.00097,0.09876c0.0322,0.03474 0.05654,0.08019 0.07053,0.13108c0.04046,0.05604 0.06386,0.1313 0.06302,0.21056l0.00213,0.33821c0.02677,0.2157 0.33698,1.45203 0.26465,1.58285z" fill="#fff4ce" stroke="none"></path></g></g><g stroke-linecap="butt"><path d="M216.44907,205.65067v-54.43267h16.96963v54.43267z" fill="url(#color-2)" stroke="none"></path><path d="M219.8484,164.71615v-9.86615h8.40444v9.86615z" fill="none" stroke="#7b3100"></path><path d="M219.78658,182.47902v-9.86614h8.40444v9.86614z" fill="none" stroke="#7b3100"></path><path d="M219.61701,199.37135v-9.86615h8.40444v9.86615z" fill="none" stroke="#7b3100"></path><g data-paper-data="{&quot;index&quot;:null}"><path d="M228.7305,178.67649c-0.2197,-1.22597 0.27316,-2.43784 1.10084,-2.70678c0.82768,-0.26895 1.67675,0.50687 1.89646,1.73284c0.2197,1.22597 -0.27316,2.43784 -1.10084,2.70679c-0.82768,0.26895 -1.67675,-0.50687 -1.89646,-1.73284z" fill="#fff4ce" stroke="#e6ddbb"></path><path d="M228.91381,178.11061c-0.13649,-0.76164 0.1697,-1.51452 0.6839,-1.6816c0.5142,-0.16709 1.04169,0.31489 1.17818,1.07653c0.13649,0.76164 -0.1697,1.51452 -0.6839,1.6816c-0.5142,0.16709 -1.04169,-0.31489 -1.17818,-1.07653z" fill="#e6ddbb" stroke="#e6ddbb"></path><path d="M232.63058,180.09037l-1.21287,-0.62084l0.46106,-1.6332l1.21287,0.62084z" fill="#e6ddbb" stroke="none"></path><path d="M232.09051,180.42559c-0.06985,-0.13082 0.22971,-1.36715 0.25557,-1.58285l0.00206,-0.33821c-0.0008,-0.07926 0.02179,-0.15452 0.06086,-0.21056c0.01351,-0.05088 0.03701,-0.09634 0.06811,-0.13108c0.00031,-0.03292 0.00063,-0.06584 0.00094,-0.09876l0.01315,-0.02969l-0.00896,-0.00279l0.06416,-0.37431c0.01714,-0.11054 0.07989,-0.20352 0.16683,-0.23177c0.12028,-0.03908 0.24132,0.06053 0.27034,0.22249v0l0.06087,0.33969l-0.04275,0.01389c0.19179,0.60106 0.23543,1.25086 0.00053,1.90409c-0.15053,0.41861 -0.48328,1.32228 -0.91172,0.51985z" fill="#fff4ce" stroke="none"></path></g></g><path d="M239.614,157.83406c3.42813,0 6.20718,2.75308 6.20718,6.14918c0,3.3961 -2.77905,6.14918 -6.20718,6.14918c-3.42813,0 -6.20719,-2.75308 -6.20719,-6.14918c0,-3.3961 2.77906,-6.14917 6.20719,-6.14917z" data-paper-data="{&quot;index&quot;:null}" fill="#f1ad60" stroke="none" stroke-linecap="butt"></path><path d="M233.17621,194.17745v-24.82875h11.83427v24.82875z" data-paper-data="{&quot;index&quot;:null}" fill="#ff6666" stroke="none" stroke-linecap="butt"></path><path d="M239.90406,206.34555v-12.41438h3.59669v12.41438z" data-paper-data="{&quot;index&quot;:null}" fill="#66a6ff" stroke="none" stroke-linecap="butt"></path><path d="M234.10295,206.69363v-12.41437h3.59669v12.41437z" data-paper-data="{&quot;index&quot;:null}" fill="#66a6ff" stroke="none" stroke-linecap="butt"></path><path d="M239.90406,208.78202v-3.24862c0,0 1.09704,-2.55249 1.74033,-2.55249c0.55109,0 1.5074,1.75417 2.46985,2.36905c1.03276,0.65979 2.05501,0.18344 2.05501,0.18344v3.24862z" data-paper-data="{&quot;index&quot;:null}" fill="#a06140" stroke="none" stroke-linecap="butt"></path><path d="M231.89853,208.66601v-3.24862c0,0 1.02226,0.47635 2.05501,-0.18344c0.96246,-0.61488 1.91877,-2.36905 2.46986,-2.36905c0.64329,0 1.74033,2.55249 1.74033,2.55249v3.24862z" data-paper-data="{&quot;index&quot;:null}" fill="#a06140" stroke="none" stroke-linecap="butt"></path><path d="M247.20246,191.70352l-2.53269,-15.4591l0.4663,-5.84249c0,0 2.17695,5.97744 2.80753,9.11298c0.63896,3.17716 1.0014,9.82679 1.0014,9.82679z" data-paper-data="{&quot;index&quot;:null}" fill="#f1ad60" stroke="none" stroke-linecap="butt"></path><path d="M229.35483,190.96601c0,0 0.36244,-6.64963 1.0014,-9.82679c0.63058,-3.13555 2.80752,-9.11299 2.80752,-9.11299l0.46631,5.8425l-2.53268,15.45911z" data-paper-data="{&quot;index&quot;:null}" fill="#f1ad60" stroke="none" stroke-linecap="butt"></path><path d="M244.77699,171.42288c0.5767,0 1.0442,1.42849 1.0442,3.19061c0,1.76213 -0.46751,3.19061 -1.0442,3.19061c-0.5767,0 -1.0442,-1.42848 -1.0442,-3.19061c0,-1.76213 0.4675,-3.19061 1.0442,-3.19061z" data-paper-data="{&quot;index&quot;:null}" fill="#da5757" stroke="none" stroke-linecap="butt"></path><path d="M233.40682,172.46708c0.5767,0 1.0442,1.42849 1.0442,3.19061c0,1.76213 -0.4675,3.19061 -1.0442,3.19061c-0.5767,0 -1.0442,-1.42848 -1.0442,-3.19061c0,-1.76213 0.46751,-3.19061 1.0442,-3.19061z" data-paper-data="{&quot;index&quot;:null}" fill="#da5757" stroke="none" stroke-linecap="butt"></path><path d="M244.26354,159.8364c-0.22805,0.34347 0.05709,1.06047 -0.1826,1.06047c-0.49489,0 0.22402,2.24963 -1.32661,2.02706c-0.33869,-0.04862 -2.71478,-0.89843 -3.04596,-0.9126c-0.73897,-0.03161 -1.67638,1.91381 -2.35837,1.94789c-1.05175,0.05255 -3.30362,1.07882 -3.93773,0.13308c-0.54618,-0.8146 0.44943,-3.61771 0.44943,-3.61771l0.08445,-2.28033c0,0 4.06533,-1.09794 5.99642,-1.09794c1.80456,0 5.23631,1.09794 5.23631,1.09794c0,0 -0.7601,1.94996 -0.7601,2.19587c0,0.23185 -0.08446,-0.84457 -0.08446,-0.84457c0,0 0.11803,0.0065 -0.07077,0.29084z" data-paper-data="{&quot;index&quot;:null}" fill="#000000" stroke="none" stroke-linecap="butt"></path><path d="M241.42786,158.93215c1.15753,0.2736 2.04806,0.69779 1.98905,0.94745c-0.05901,0.24966 -1.04521,0.23026 -2.20274,-0.04334c-1.15753,-0.2736 -2.04806,-0.69779 -1.98905,-0.94745c0.05901,-0.24966 1.04521,-0.23026 2.20274,0.04334z" data-paper-data="{&quot;index&quot;:null}" fill="#484343" stroke="none" stroke-linecap="butt"></path><path d="M242.88347,197.09957l0.16891,-1.18239" data-paper-data="{&quot;index&quot;:null}" fill="none" stroke="#0035ea" stroke-linecap="round"></path><path d="M241.61661,200.98457l-0.16891,-1.68914" data-paper-data="{&quot;index&quot;:null}" fill="none" stroke="#0035ea" stroke-linecap="round"></path><path d="M242.79901,200.56228l-0.16891,1.9425" data-paper-data="{&quot;index&quot;:null}" fill="none" stroke="#0035ea" stroke-linecap="round"></path><path d="M236.04248,198.45087v2.28033l-0.08446,1.18239" data-paper-data="{&quot;index&quot;:null}" fill="none" stroke="#0035ea" stroke-linecap="round"></path><path d="M235.53575,197.43739l-0.25337,-2.53369" data-paper-data="{&quot;index&quot;:null}" fill="none" stroke="#0035ea" stroke-linecap="round"></path><path d="M236.71814,197.52184v-1.85804" data-paper-data="{&quot;index&quot;:null}" fill="none" stroke="#0035ea" stroke-linecap="round"></path><path d="M234.94454,200.73119l-0.16891,1.35131" data-paper-data="{&quot;index&quot;:null}" fill="none" stroke="#0035ea" stroke-linecap="round"></path><path d="M241.4477,194.81924l-0.08446,1.60468" data-paper-data="{&quot;index&quot;:null}" fill="none" stroke="#0035ea" stroke-linecap="round"></path><path d="M241.4477,204.27836l0.84457,0.25337" data-paper-data="{&quot;index&quot;:null}" fill="none" stroke="#000000" stroke-linecap="round"></path><path d="M241.61661,205.62968l-0.76011,-0.33783" data-paper-data="{&quot;index&quot;:null}" fill="none" stroke="#000000" stroke-linecap="round"></path><path d="M236.63368,205.03849l-0.67565,1.01348" data-paper-data="{&quot;index&quot;:null}" fill="none" stroke="#000000" stroke-linecap="round"></path><path d="M235.029,205.79859l0.92902,-0.92902" data-paper-data="{&quot;index&quot;:null}" fill="none" stroke="#000000" stroke-linecap="round"></path><path d="M245.90285,180.03825l-1.81632,-4.45822l1.77397,-2.54949l2.15414,6.14736z" data-paper-data="{&quot;index&quot;:null}" fill="#da5757" stroke="none" stroke-linecap="butt"></path><path d="M230.32434,181.03172l2.15414,-6.14736l1.77397,2.54949l-1.81632,4.45822z" data-paper-data="{&quot;index&quot;:null}" fill="#da5757" stroke="none" stroke-linecap="butt"></path><path d="M248.57422,191.92501c0,0 -0.19583,0.56903 -0.34771,0.59121c-0.18581,0.02712 -0.68602,-0.44031 -0.68602,-0.44031l-0.5849,-2.24723l0.83468,-0.21725l0.78393,2.31358z" data-paper-data="{&quot;index&quot;:null}" fill="#f1ad60" stroke="none" stroke-linecap="butt"></path><path d="M249.50637,191.05919c0,0 -0.19583,0.56903 -0.3477,0.5912c-0.18581,0.02713 -0.68602,-0.4403 -0.68602,-0.4403l-0.5849,-2.24724l0.83469,-0.21725l0.78393,2.31359z" data-paper-data="{&quot;index&quot;:null}" fill="#f1ad60" stroke="none" stroke-linecap="butt"></path><path d="M250.62466,190.51959c-0.1292,0.13626 -0.81138,0.07846 -0.81138,0.07846l-1.84976,-1.40376l0.52139,-0.68706l2.04719,1.33275c0,0 0.19817,0.56822 0.09255,0.6796z" data-paper-data="{&quot;index&quot;:null}" fill="#f1ad60" stroke="none" stroke-linecap="butt"></path><path d="M246.60375,192.32991c0,0 -0.53802,0.26962 -0.66205,0.1792c-0.15175,-0.1106 -0.18217,-0.79455 -0.18217,-0.79455l1.15417,-2.01495l0.74842,0.42869l-1.05837,2.20161z" data-paper-data="{&quot;index&quot;:null}" fill="#f1ad60" stroke="none" stroke-linecap="butt"></path><path d="M245.6453,191.16719c0,0 -0.59352,-0.09935 -0.64043,-0.24551c-0.05739,-0.17879 0.3212,-0.74922 0.3212,-0.74922l2.12009,-0.94729l0.35185,0.78747l-2.15273,1.15454z" data-paper-data="{&quot;index&quot;:null}" fill="#f1ad60" stroke="none" stroke-linecap="butt"></path><path d="M229.52435,194.31014l0.78393,-2.31357l0.83468,0.21725l-0.58489,2.24723c0,0 -0.50021,0.46743 -0.68602,0.44031c-0.15188,-0.02218 -0.3477,-0.59121 -0.3477,-0.59121z" data-paper-data="{&quot;index&quot;:null}" fill="#f1ad60" stroke="none" stroke-linecap="butt"></path><path d="M229.27164,193.96919c-0.15188,-0.02218 -0.3477,-0.59121 -0.3477,-0.59121l0.78393,-2.31357l0.83468,0.21725l-0.5849,2.24723c0,0 -0.50021,0.46743 -0.68602,0.44031z" data-paper-data="{&quot;index&quot;:null}" fill="#f1ad60" stroke="none" stroke-linecap="butt"></path><path d="M227.56646,192.22512l2.04719,-1.33275l0.52139,0.68706l-1.84976,1.40376c0,0 -0.68217,0.05781 -0.81138,-0.07846c-0.10562,-0.11138 0.09256,-0.6796 0.09256,-0.6796z" data-paper-data="{&quot;index&quot;:null}" fill="#f1ad60" stroke="none" stroke-linecap="butt"></path><path d="M232.15686,194.89424c-0.12403,0.09041 -0.66204,-0.1792 -0.66204,-0.1792l-1.05837,-2.2016l0.74842,-0.4287l1.15417,2.01495c0,0 -0.03042,0.68395 -0.18217,0.79455z" data-paper-data="{&quot;index&quot;:null}" fill="#f1ad60" stroke="none" stroke-linecap="butt"></path><path d="M233.09369,193.30682c-0.0469,0.14615 -0.64042,0.24551 -0.64042,0.24551l-2.15272,-1.15454l0.35185,-0.78747l2.1201,0.9473c0,0 0.37859,0.57041 0.32121,0.74921z" data-paper-data="{&quot;index&quot;:null}" fill="#f1ad60" stroke="none" stroke-linecap="butt"></path><path d="M236.28967,160.97888c1.12997,-0.37135 2.11093,-0.47482 2.19102,-0.2311c0.08009,0.24372 -0.77099,0.74233 -1.90096,1.11368c-1.12997,0.37135 -2.11093,0.47482 -2.19102,0.2311c-0.08009,-0.24372 0.77099,-0.74233 1.90096,-1.11368z" data-paper-data="{&quot;index&quot;:null}" fill="#484343" stroke="none" stroke-linecap="butt"></path><path d="M244.56051,169.51968l-5.8025,8.75465l-4.88632,-8.95825" fill="none" stroke="#da5757" stroke-linecap="round"></path><path d="M233.46449,193.74768l5.29351,-6.41329l5.9043,6.82049" fill="none" stroke="#da5757" stroke-linecap="round"></path></g></g></svg>