<svg version="1.1" xmlns="http://www.w3.org/2000/svg" xmlns:xlink="http://www.w3.org/1999/xlink" width="139.31498" height="167.79878" viewBox="0,0,139.31498,167.79878"><g transform="translate(-170.34251,-96.10061)"><g data-paper-data="{&quot;isPaintingLayer&quot;:true}" fill-rule="nonzero" stroke-linejoin="miter" stroke-miterlimit="10" stroke-dasharray="" stroke-dashoffset="0" style="mix-blend-mode: normal"><path d="M215.57473,241.25064c0.04793,-11.12025 9.18658,-20.09575 20.41172,-20.04736c11.22514,0.04838 20.28607,9.10233 20.23814,20.22258c-0.04793,11.12025 -9.18658,20.09575 -20.41172,20.04736c-11.22514,-0.04838 -20.28607,-9.10233 -20.23814,-20.22258z" fill="#f1ad60" stroke="none" stroke-width="0" stroke-linecap="butt"></path><path d="M254.33235,141.88068l-0.35043,81.29971l-38.75033,-0.16703l0.35043,-81.29971z" fill="#ff6666" stroke="none" stroke-width="0" stroke-linecap="butt"></path><path d="M237.35378,212.47118l5.27446,10.28037l-12.91678,-0.05568l6.12597,-10.99105z" fill="#ffffff" stroke="none" stroke-width="0" stroke-linecap="butt"></path><path d="M268.19946,108.08754l-16.0843,37.33279l-10.81604,-4.65993l16.0843,-37.33279z" fill="#66a6ff" stroke="none" stroke-width="0" stroke-linecap="butt"></path><path d="M214.2332,105.37949l17.69118,36.59869l-10.60335,5.12549l-17.69118,-36.59869z" fill="#66a6ff" stroke="none" stroke-width="0" stroke-linecap="butt"></path><path d="M279.381,104.21792l-4.20897,9.76933c0,0 -2.45699,-2.75694 -6.41755,-2.11089c-3.69097,0.60211 -8.83955,4.63828 -10.49679,3.92428c-1.93452,-0.83346 -1.92651,-9.93071 -1.92651,-9.93071l4.20897,-9.76933z" fill="#a06140" stroke="none" stroke-width="0" stroke-linecap="butt"></path><path d="M212.79062,98.9034l4.62947,9.57723c0,0 0.40327,9.0883 -1.49321,10.00503c-1.62468,0.78534 -6.94374,-3.02333 -10.65741,-3.46448c-3.98486,-0.47339 -6.31974,2.38771 -6.31974,2.38771l-4.62947,-9.57723z" data-paper-data="{&quot;index&quot;:null}" fill="#a06140" stroke="none" stroke-width="0" stroke-linecap="butt"></path><path d="M301.76328,192.10906c0,0 -19.51918,9.72173 -29.59861,13.04052c-9.94739,3.27533 -30.48706,6.74368 -30.48706,6.74368l15.88083,-10.77605l48.11148,-17.78908z" fill="#f1ad60" stroke="none" stroke-width="0" stroke-linecap="butt"></path><path d="M180.50778,148.78788l29.01083,42.30292l6.74445,17.96768c0,0 -14.76761,-14.69099 -20.9983,-23.10867c-6.31341,-8.52937 -16.63725,-27.73688 -16.63725,-27.73688z" data-paper-data="{&quot;index&quot;:null}" fill="#f1ad60" stroke="none" stroke-width="0" stroke-linecap="butt"></path><path d="M244.45311,207.52631c0.02487,-5.76994 1.57584,-10.44079 3.46418,-10.43266c1.88834,0.00814 3.39899,4.69219 3.37412,10.46213c-0.02487,5.76994 -1.57584,10.44079 -3.46418,10.43266c-1.88834,-0.00814 -3.39899,-4.69219 -3.37412,-10.46213z" fill="#da5757" stroke="none" stroke-width="0" stroke-linecap="butt"></path><path d="M212.3218,202.67549c0.02487,-5.76994 1.57584,-10.44079 3.46418,-10.43266c1.88834,0.00814 3.39899,4.69219 3.37412,10.46213c-0.02487,5.76994 -1.57584,10.44079 -3.46418,10.43266c-1.88834,-0.00814 -3.39899,-4.69219 -3.37412,-10.46213z" fill="#da5757" stroke="none" stroke-width="0" stroke-linecap="butt"></path><path d="M236.46322,211.22694l-1.39598,-68.29725" fill="none" stroke="#000000" stroke-width="0.25" stroke-linecap="round"></path><path d="M252.62662,255.94138c0,0 0.29176,-3.52345 0.28849,-2.76427c-0.00347,0.80521 2.4579,7.20093 2.4579,7.20093c0,0 -11.25245,3.54668 -17.16135,3.52121c-6.3232,-0.02726 -19.61928,-3.67975 -19.61928,-3.67975l-0.24435,-7.46794c0,0 9.10495,1.74122 18.47216,1.38098c6.05027,-0.23268 13.02144,-2.628 14.99585,-2.61949c0.78485,0.00338 -0.15895,2.34712 0.58295,3.475c0.6142,0.93371 0.22763,0.95331 0.22763,0.95331z" fill="#000000" stroke="none" stroke-width="0" stroke-linecap="butt"></path><path d="M234.55728,257.34737c-0.18971,-0.81833 2.73225,-2.19472 6.52634,-3.07427c3.7941,-0.87954 7.0236,-0.92914 7.21331,-0.11081c0.18971,0.81833 -2.73225,2.19472 -6.52634,3.07427c-3.7941,0.87954 -7.0236,0.92914 -7.21331,0.11081z" fill="#484343" stroke="none" stroke-width="0" stroke-linecap="butt"></path><path d="M247.07408,132.61429l0.5364,3.87405" fill="none" stroke="#0035ea" stroke-width="0.05" stroke-linecap="round"></path><path d="M242.40379,125.40386l0.57693,-5.52855" fill="none" stroke="#0035ea" stroke-width="0.05" stroke-linecap="round"></path><path d="M246.84642,121.27473l-0.52567,-6.36293" fill="none" stroke="#0035ea" stroke-width="0.05" stroke-linecap="round"></path><path d="M215.91061,121.9534l1.93395,3.36544l3.2496,6.72261" fill="none" stroke="#0035ea" stroke-width="0.05" stroke-linecap="round"></path><path d="M223.90822,143.582l-2.86369,-7.83063" fill="none" stroke="#0035ea" stroke-width="0.05" stroke-linecap="round"></path><path d="M224.40995,133.81744l2.64782,5.47767" fill="none" stroke="#0035ea" stroke-width="0.05" stroke-linecap="round"></path><path d="M212.18411,123.14038l2.42365,3.74306" fill="none" stroke="#0035ea" stroke-width="0.05" stroke-linecap="round"></path><path d="M242.34061,140.06082l-0.25389,-5.25558" fill="none" stroke="#0035ea" stroke-width="0.05" stroke-linecap="round"></path><path d="M245.24316,108.26993l-2.76904,0.81773" fill="none" stroke="#000000" stroke-width="0.1" stroke-linecap="round"></path><path d="M243.04627,104.66527l-2.49369,1.09546" fill="none" stroke="#000000" stroke-width="0.1" stroke-linecap="round"></path><path d="M210.01317,109.75308l3.43617,2.02497" fill="none" stroke="#000000" stroke-width="0.1" stroke-linecap="round"></path><path d="M211.69816,113.2389l-4.06275,-1.41493" fill="none" stroke="#000000" stroke-width="0.1" stroke-linecap="round"></path><path d="M268.77768,207.16803l-20.9866,3.80807l4.39016,-9.1739l15.63092,-2.03828z" fill="#da5757" stroke="none" stroke-width="0" stroke-linecap="butt"></path><path d="M202.92537,181.46058l11.58543,10.68916l-1.71235,10.02506l-14.93637,-15.22642z" data-paper-data="{&quot;index&quot;:null}" fill="#da5757" stroke="none" stroke-width="0" stroke-linecap="butt"></path><path d="M308.51892,186.87562l-7.85504,1.50945l-0.73128,-2.72786l7.34428,-1.96884c0,0 2.13982,0.6683 2.36309,1.24121c0.18248,0.4683 -1.12101,1.94609 -1.12101,1.94609z" fill="#f1ad60" stroke="none" stroke-width="0" stroke-linecap="butt"></path><path d="M307.56122,190.92988l-7.85507,1.50946l-0.73129,-2.72789l7.3443,-1.96885c0,0 2.13982,0.6683 2.36306,1.24122c0.18248,0.4683 -1.12099,1.94608 -1.12099,1.94608z" fill="#f1ad60" stroke="none" stroke-width="0" stroke-linecap="butt"></path><path d="M305.74866,195.82207l-7.10534,-3.67351l1.11302,-2.59563l6.98823,2.99657c0,0 1.26777,1.84883 1.08875,2.43706c-0.14632,0.48084 -2.08467,0.8355 -2.08467,0.8355z" fill="#f1ad60" stroke="none" stroke-width="0" stroke-linecap="butt"></path><path d="M306.48515,180.61045l-4.55691,6.57385l-2.4309,-1.43764l3.87053,-6.54474c0,0 1.99656,-1.01944 2.55687,-0.76624c0.45802,0.20693 0.56043,2.17481 0.56043,2.17481z" fill="#f1ad60" stroke="none" stroke-width="0" stroke-linecap="butt"></path><path d="M301.62464,179.76187l0.19412,7.99643l-2.81111,0.27167l-0.73142,-7.56832c0,0 1.01186,-2.00042 1.61374,-2.12617c0.49197,-0.10282 1.73469,1.42641 1.73469,1.42641z" fill="#f1ad60" stroke="none" stroke-width="0" stroke-linecap="butt"></path><path d="M174.68679,145.82784c0.51305,-0.33884 2.64603,0.35099 2.64603,0.35099l4.85964,5.84795l-2.17208,1.80501l-5.54194,-5.76776c0,0 -0.21102,-1.95921 0.20835,-2.23619z" data-paper-data="{&quot;index&quot;:null}" fill="#f1ad60" stroke="none" stroke-width="0" stroke-linecap="butt"></path><path d="M174.20353,149.42624c0.51308,-0.33886 2.64603,0.35099 2.64603,0.35099l4.85967,5.84794l-2.17208,1.80501l-5.54194,-5.76776c0,0 -0.21105,-1.95919 0.20835,-2.23619z" data-paper-data="{&quot;index&quot;:null}" fill="#f1ad60" stroke="none" stroke-width="0" stroke-linecap="butt"></path><path d="M170.35515,155.08226c0.19346,-0.58366 2.29605,-1.36118 2.29605,-1.36118l7.43589,1.58822l-0.58991,2.7619l-7.92235,-1.10313c0,0 -1.37783,-1.40874 -1.21968,-1.88581z" data-paper-data="{&quot;index&quot;:null}" fill="#f1ad60" stroke="none" stroke-width="0" stroke-linecap="butt"></path><path d="M181.4696,142.67081c0.60367,0.11678 1.64522,2.1019 1.64522,2.1019l-0.61859,7.57839l-2.81485,-0.22978l0.07497,-7.99841c0,0 1.2198,-1.54759 1.71324,-1.45209z" data-paper-data="{&quot;index&quot;:null}" fill="#f1ad60" stroke="none" stroke-width="0" stroke-linecap="butt"></path><path d="M186.45476,146.07333c0.41879,0.45019 0.08997,2.66768 0.08997,2.66768l-4.96699,5.75709l-2.13835,-1.84489l4.77543,-6.41681c0,0 1.89759,-0.53106 2.23992,-0.16306z" data-paper-data="{&quot;index&quot;:null}" fill="#f1ad60" stroke="none" stroke-width="0" stroke-linecap="butt"></path><path d="M219.92227,243.35965l5.93609,6.47574" fill="none" stroke="#000000" stroke-width="0.5" stroke-linecap="round"></path><path d="M219.38263,249.83539l4.85681,-6.47574" fill="none" stroke="#000000" stroke-width="0.5" stroke-linecap="round"></path><path d="M246.90451,250.91468l-4.31716,-6.47574" fill="none" stroke="#000000" stroke-width="0.5" stroke-linecap="round"></path><path d="M242.58736,249.83539l3.77751,-4.85681" fill="none" stroke="#000000" stroke-width="0.5" stroke-linecap="round"></path><path d="M247.9838,231.48746l-7.01538,4.85681l-11.33254,-1.61894l-4.85681,-4.85681" fill="none" stroke="#000000" stroke-width="0.5" stroke-linecap="round"></path></g></g></svg>