<svg version="1.1" xmlns="http://www.w3.org/2000/svg" xmlns:xlink="http://www.w3.org/1999/xlink" width="40.1008" height="63.65407" viewBox="0,0,40.1008,63.65407"><defs><radialGradient cx="285.62083" cy="187.76863" r="18.64586" gradientUnits="userSpaceOnUse" id="color-1"><stop offset="0" stop-color="#dafeff"></stop><stop offset="1" stop-color="#dafeff" stop-opacity="0"></stop></radialGradient><radialGradient cx="285.62083" cy="187.76863" r="18.64586" gradientUnits="userSpaceOnUse" id="color-2"><stop offset="0" stop-color="#000000" stop-opacity="0"></stop><stop offset="1" stop-color="#000000" stop-opacity="0"></stop></radialGradient><radialGradient cx="285.42457" cy="187.61656" r="18.64586" gradientUnits="userSpaceOnUse" id="color-3"><stop offset="0" stop-color="#dafeff"></stop><stop offset="1" stop-color="#dafeff" stop-opacity="0"></stop></radialGradient><radialGradient cx="285.42457" cy="187.61656" r="18.64586" gradientUnits="userSpaceOnUse" id="color-4"><stop offset="0" stop-color="#000000" stop-opacity="0"></stop><stop offset="1" stop-color="#000000" stop-opacity="0"></stop></radialGradient><linearGradient x1="292.71031" y1="171.40541" x2="280.34239" y2="206.65469" gradientUnits="userSpaceOnUse" id="color-5"><stop offset="0" stop-color="#af957e"></stop><stop offset="1" stop-color="#ad8764"></stop></linearGradient><linearGradient x1="291.40641" y1="171.39014" x2="279.03848" y2="206.63942" gradientUnits="userSpaceOnUse" id="color-6"><stop offset="0" stop-color="#c9ab91"></stop><stop offset="1" stop-color="#c99d74"></stop></linearGradient><linearGradient x1="273.22169" y1="175.52617" x2="298.39261" y2="184.18148" gradientUnits="userSpaceOnUse" id="color-7"><stop offset="0" stop-color="#c9ab91"></stop><stop offset="1" stop-color="#c99d74"></stop></linearGradient><radialGradient cx="284.74138" cy="175.56231" r="3.44935" gradientUnits="userSpaceOnUse" id="color-8"><stop offset="0" stop-color="#56fff7"></stop><stop offset="1" stop-color="#56fff7" stop-opacity="0"></stop></radialGradient><radialGradient cx="289.4749" cy="174.76873" r="1.92347" gradientUnits="userSpaceOnUse" id="color-9"><stop offset="0" stop-color="#56fff7"></stop><stop offset="1" stop-color="#56fff7" stop-opacity="0"></stop></radialGradient><radialGradient cx="289.68092" cy="176.67142" r="1.64869" gradientUnits="userSpaceOnUse" id="color-10"><stop offset="0" stop-color="#56fff7"></stop><stop offset="1" stop-color="#56fff7" stop-opacity="0"></stop></radialGradient><radialGradient cx="279.45387" cy="180.44634" r="3.41791" gradientUnits="userSpaceOnUse" id="color-11"><stop offset="0" stop-color="#56fff7"></stop><stop offset="1" stop-color="#56fff7" stop-opacity="0"></stop></radialGradient><radialGradient cx="294.63397" cy="181.11334" r="3.6866" gradientUnits="userSpaceOnUse" id="color-12"><stop offset="0" stop-color="#56fff7"></stop><stop offset="1" stop-color="#56fff7" stop-opacity="0"></stop></radialGradient><radialGradient cx="285.10554" cy="192.91273" r="5.14233" gradientUnits="userSpaceOnUse" id="color-13"><stop offset="0" stop-color="#56fff7"></stop><stop offset="1" stop-color="#56fff7" stop-opacity="0"></stop></radialGradient><radialGradient cx="286.45921" cy="205.53505" r="3.92544" gradientUnits="userSpaceOnUse" id="color-14"><stop offset="0" stop-color="#56fff7"></stop><stop offset="1" stop-color="#56fff7" stop-opacity="0"></stop></radialGradient></defs><g transform="translate(-265.89052,-155.99803)"><g data-paper-data="{&quot;isPaintingLayer&quot;:true}" fill-rule="nonzero" stroke-linejoin="miter" stroke-miterlimit="10" stroke-dasharray="" stroke-dashoffset="0" style="mix-blend-mode: normal"><path d="M266.39052,209.54372c0,-13.01839 0,-35.4882 0,-42.91399c0,-4.69319 1.23255,-10.1317 2.60137,-10.1317c4.21224,0 26.13758,0 33.8293,0c1.67093,0 2.67013,3.77164 2.67013,9.34669c0,13.13684 0,36.28702 0,43.69901c0,4.49325 -1.02676,9.60837 -2.73889,9.60837c-7.73441,0 -29.45524,0 -33.69178,0c-1.40084,0 -2.67013,-3.89352 -2.67013,-9.60837z" fill="#3d3d3c" stroke="#fff4ce" stroke-width="1" stroke-linecap="butt"></path><text transform="translate(268.15626,162.73575) scale(0.14027,0.14027)" font-size="40" xml:space="preserve" fill="#fff4ce" fill-rule="nonzero" stroke="none" stroke-width="1" stroke-linecap="butt" stroke-linejoin="miter" stroke-miterlimit="10" stroke-dasharray="" stroke-dashoffset="0" font-family="Impact" font-weight="normal" text-anchor="start" style="mix-blend-mode: normal"><tspan x="0" dy="0">Activated Cross</tspan></text><text transform="translate(268.34209,212.76459) scale(0.0925,0.0925)" font-size="40" xml:space="preserve" fill="#fff4ce" fill-rule="nonzero" stroke="none" stroke-width="1" stroke-linecap="butt" stroke-linejoin="miter" stroke-miterlimit="10" stroke-dasharray="" stroke-dashoffset="0" font-family="Serif" font-weight="normal" text-anchor="start" style="mix-blend-mode: normal"><tspan x="0" dy="0">"Hotel + kinda thing..."</tspan></text><g><path d="M303.21509,193.94194c-2.87827,8.20323 -13.08879,12.08938 -22.80584,8.67995c-9.71705,-3.40942 -15.26096,-12.82334 -12.38269,-21.02657c2.87827,-8.20323 13.08879,-12.08938 22.80584,-8.67995c9.71705,3.40942 15.26096,12.82334 12.38269,21.02657z" fill="url(#color-1)" stroke="url(#color-2)" stroke-width="0" stroke-linecap="butt"></path><path d="M303.01884,193.78988c-2.87827,8.20323 -13.08879,12.08938 -22.80584,8.67995c-9.71705,-3.40942 -15.26096,-12.82333 -12.38268,-21.02656c2.87827,-8.20323 13.08878,-12.08938 22.80583,-8.67996c9.71705,3.40942 15.26096,12.82334 12.38269,21.02658z" fill="url(#color-3)" stroke="url(#color-4)" stroke-width="0" stroke-linecap="butt"></path><g><g><path d="M281.44561,206.37493c0,0 -2.24024,-0.67275 -2.16595,-2.09617c0.01664,-0.31891 2.01683,-0.32792 2.04822,-0.70297c0.56382,-6.73874 1.39223,-22.39193 1.45911,-28.78006c0.01303,-1.24484 -1.24541,-2.10932 -1.22718,-2.56307c0.02521,-0.62718 1.31155,-1.33744 1.31155,-1.33744c0,0 1.2132,0.41932 1.99568,-0.03344c0.2884,-0.16688 0.38745,-0.50648 0.65276,-0.77657c0.40773,-0.41509 0.95419,-0.75516 1.20324,-0.74701c0.42836,0.01401 0.83202,0.4541 1.22365,0.98095c0.31841,0.42835 0.61084,0.93171 1.04763,1.16751c0.23848,0.12876 0.34416,-0.13871 0.57424,-0.1628c0.58401,-0.06116 1.20631,-0.17005 1.20631,-0.17005c0,0 1.70246,0.81055 1.66965,1.62698c-0.00657,0.1634 -1.40445,0.84091 -1.4203,1.091c-0.27344,4.31501 -1.34749,21.54525 -1.46569,29.52223c-0.00873,0.58907 2.17861,1.19268 2.1552,1.67114c-0.08115,1.65967 -2.36464,1.56835 -2.36464,1.56835c0,0 -0.41614,-0.08217 -0.99006,-0.14415c-0.33141,-0.0358 -0.7655,-0.17085 -1.07334,-0.00618c-0.78014,0.41734 -1.15669,1.88802 -1.7903,1.86729c-0.28291,-0.00926 -0.56759,0.02958 -0.87095,-0.37304c-0.22593,-0.29986 -0.45877,-1.02062 -0.72742,-1.24738c-0.07388,-0.06236 -0.16095,-0.20836 -0.23901,-0.25036c-0.42592,-0.22915 -0.96248,0.08095 -1.34547,0.092c-0.54524,0.01574 -0.86696,-0.19678 -0.86696,-0.19678z" fill="url(#color-5)" stroke="#000000" stroke-width="0" stroke-linecap="butt"></path><path d="M280.14169,206.35963c0,0 -2.24024,-0.67275 -2.16595,-2.09617c0.01664,-0.31891 2.01684,-0.32792 2.04822,-0.70297c0.56382,-6.73874 1.39223,-22.39193 1.45911,-28.78006c0.01303,-1.24484 -1.24541,-2.10932 -1.22718,-2.56307c0.02521,-0.62718 1.31155,-1.33744 1.31155,-1.33744c0,0 1.2132,0.41931 1.99567,-0.03344c0.2884,-0.16688 0.38745,-0.50648 0.65276,-0.77657c0.40773,-0.41509 0.95419,-0.75515 1.20324,-0.74701c0.42836,0.01401 0.83202,0.4541 1.22365,0.98095c0.31841,0.42835 0.61084,0.93171 1.04763,1.16751c0.23848,0.12876 0.34416,-0.1387 0.57424,-0.1628c0.58401,-0.06116 1.20631,-0.17005 1.20631,-0.17005c0,0 1.70246,0.81054 1.66965,1.62697c-0.00657,0.1634 -1.40445,0.84091 -1.42029,1.091c-0.27344,4.31501 -1.34749,21.54525 -1.46569,29.52223c-0.00873,0.58907 2.1786,1.19269 2.1552,1.67114c-0.08115,1.65967 -2.36464,1.56836 -2.36464,1.56836c0,0 -0.41615,-0.08217 -0.99006,-0.14415c-0.33141,-0.0358 -0.7655,-0.17085 -1.07334,-0.00618c-0.78014,0.41734 -1.15669,1.88802 -1.7903,1.86729c-0.28291,-0.00926 -0.56759,0.02958 -0.87095,-0.37304c-0.22593,-0.29986 -0.45877,-1.02062 -0.72742,-1.24738c-0.07388,-0.06236 -0.16095,-0.20836 -0.239,-0.25036c-0.42592,-0.22915 -0.96248,0.08096 -1.34547,0.09201c-0.54524,0.01574 -0.86696,-0.19678 -0.86696,-0.19678z" fill="url(#color-6)" stroke="#000000" stroke-width="0" stroke-linecap="butt"></path><path d="M284.9871,173.23609l-2.24171,-0.07902" fill="none" stroke="#a75900" stroke-width="0.5" stroke-linecap="round"></path><path d="M285.11831,171.86704l1.45936,0.06983" fill="none" stroke="#a75900" stroke-width="0.5" stroke-linecap="round"></path><path d="M280.94574,171.81811l1.14331,0.22427" fill="none" stroke="#a75900" stroke-width="0.5" stroke-linecap="round"></path><path d="M287.18225,175.6867l1.59234,-0.06039" fill="none" stroke="#a75900" stroke-width="0.5" stroke-linecap="round"></path><path d="M281.79395,179.1027l0.98788,0.16973" fill="none" stroke="#a75900" stroke-width="0.5" stroke-linecap="round"></path><path d="M285.30162,179.80278l1.6148,0.12437" fill="none" stroke="#a75900" stroke-width="0.5" stroke-linecap="round"></path><path d="M285.53324,186.60572l-2.15882,-0.31525" fill="none" stroke="#a75900" stroke-width="0.5" stroke-linecap="round"></path><path d="M286.75438,190.83724l-0.59928,-0.03339" fill="none" stroke="#a75900" stroke-width="0.5" stroke-linecap="round"></path><path d="M282.51599,183.51286l0.96543,-0.01503" fill="none" stroke="#a75900" stroke-width="0.5" stroke-linecap="round"></path><path d="M288.04257,183.68312l-0.98788,-0.16973" fill="none" stroke="#a75900" stroke-width="0.5" stroke-linecap="round"></path><path d="M283.82357,189.9858l-1.48699,0.00891" fill="none" stroke="#a75900" stroke-width="0.5" stroke-linecap="round"></path><path d="M284.98604,195.87715l-3.19679,-0.591" fill="none" stroke="#a75900" stroke-width="0.5" stroke-linecap="round"></path><path d="M285.70445,193.82969l1.2262,-0.01198" fill="none" stroke="#a75900" stroke-width="0.5" stroke-linecap="round"></path><path d="M283.04134,193.95659l-1.01034,-0.35449" fill="none" stroke="#a75900" stroke-width="0.5" stroke-linecap="round"></path><path d="M283.38347,200.44453l-0.98788,-0.16974" fill="none" stroke="#a75900" stroke-width="0.5" stroke-linecap="round"></path><path d="M286.92911,200.53882l1.24867,0.1728" fill="none" stroke="#a75900" stroke-width="0.5" stroke-linecap="round"></path><path d="M282.47685,202.77974l1.03796,0.27574" fill="none" stroke="#a75900" stroke-width="0.5" stroke-linecap="round"></path><path d="M285.35242,203.78867l0.72709,0.16667" fill="none" stroke="#a75900" stroke-width="0.5" stroke-linecap="round"></path><path d="M285.61661,202.28939l0.57165,0.11213" fill="none" stroke="#a75900" stroke-width="0.5" stroke-linecap="round"></path><path d="M281.02619,204.92404l-1.19341,-0.33028" fill="none" stroke="#a75900" stroke-width="0.5" stroke-linecap="round"></path><path d="M284.22473,206.75386l-0.46631,-0.16361" fill="none" stroke="#a75900" stroke-width="0.5" stroke-linecap="round"></path><path d="M290.95928,174.624l-0.7271,-0.16667" fill="none" stroke="#703c00" stroke-width="0.5" stroke-linecap="round"></path><path d="M287.5465,170.41949l0.5164,0.26963" fill="none" stroke="#703c00" stroke-width="0.5" stroke-linecap="round"></path><path d="M286.24051,207.2695l-0.53654,-0.1293" fill="none" stroke="#703c00" stroke-width="0.5" stroke-linecap="round"></path><path d="M290.88048,205.6546l0.59181,-0.0282" fill="none" stroke="#703c00" stroke-width="0.5" stroke-linecap="round"></path><path d="M289.50106,203.28382l-0.48472,-0.11111" fill="none" stroke="#703c00" stroke-width="0.5" stroke-linecap="round"></path><path d="M289.42378,198.36284l-0.3811,-0.07476" fill="none" stroke="#703c00" stroke-width="0.5" stroke-linecap="round"></path><path d="M289.18635,190.08383l0.32929,0.05658" fill="none" stroke="#703c00" stroke-width="0.5" stroke-linecap="round"></path><path d="M289.3704,184.25219l0.86928,0.01019" fill="none" stroke="#703c00" stroke-width="0.5" stroke-linecap="round"></path><path d="M289.86092,185.8394l-0.45134,-0.04043" fill="none" stroke="#703c00" stroke-width="0.5" stroke-linecap="round"></path><path d="M290.35811,179.11528l-0.50315,-0.05862" fill="none" stroke="#703c00" stroke-width="0.5" stroke-linecap="round"></path><path d="M291.38377,172.04592l0.64361,-0.01002" fill="none" stroke="#703c00" stroke-width="0.5" stroke-linecap="round"></path><path d="M291.76949,172.77091l0.45134,0.04043" fill="none" stroke="#703c00" stroke-width="0.5" stroke-linecap="round"></path><path d="M286.82312,169.62028l0.60333,0.27065" fill="none" stroke="#703c00" stroke-width="0.5" stroke-linecap="round"></path></g><g><g stroke="#000000" stroke-width="0" stroke-linecap="butt"><path d="M298.86115,184.32364c0,0 -0.47831,1.68174 -1.49438,1.64933c-0.22765,-0.00726 -0.23577,-1.49896 -0.5035,-1.51631c-4.81049,-0.31169 -15.98424,-0.67675 -20.54405,-0.62347c-0.88856,0.01038 -1.50456,0.96297 -1.82845,0.95668c-0.44768,-0.00867 -0.95576,-0.95662 -0.95576,-0.95662c0,0 0.29828,-0.91164 -0.02555,-1.48794c-0.11936,-0.21243 -0.36185,-0.2808 -0.55486,-0.47431c-0.29663,-0.29741 -0.53984,-0.69949 -0.53423,-0.88538c0.00964,-0.3197 0.32343,-0.62789 0.69916,-0.9285c0.30548,-0.2444 0.66452,-0.47064 0.83247,-0.80023c0.0917,-0.17995 -0.09929,-0.25445 -0.1167,-0.42566c-0.04416,-0.4346 -0.1224,-0.89698 -0.1224,-0.89698c0,0 0.57711,-1.28287 1.1599,-1.27158c0.11664,0.00225 0.60142,1.03392 0.77994,1.04171c3.08023,0.13425 15.37985,0.65706 21.0738,0.61639c0.42047,-0.00301 0.84947,-1.64417 1.19101,-1.63445c1.18472,0.03372 1.12148,1.73834 1.12148,1.73834c0,0 -0.0583,0.31171 -0.10206,0.74077c-0.02527,0.24776 -0.12131,0.57371 -0.0035,0.80066c0.29855,0.57512 1.34861,0.83223 1.33436,1.30514c-0.00636,0.21115 0.02159,0.42286 -0.26553,0.65562c-0.21384,0.17335 -0.72812,0.35866 -0.88975,0.56269c-0.04444,0.05611 -0.14859,0.12342 -0.17849,0.1823c-0.1632,0.32137 0.0586,0.71656 0.06682,1.00202c0.0117,0.40641 -0.13973,0.64979 -0.13973,0.64979z" fill="#ad907c"></path><path d="M298.19195,183.36318c0,0 -0.47831,1.68174 -1.49437,1.64933c-0.22765,-0.00726 -0.23577,-1.49896 -0.5035,-1.51631c-4.81049,-0.31169 -15.98424,-0.67675 -20.54405,-0.62347c-0.88856,0.01038 -1.50456,0.96296 -1.82845,0.95668c-0.44768,-0.00867 -0.95576,-0.95662 -0.95576,-0.95662c0,0 0.29828,-0.91164 -0.02555,-1.48794c-0.11936,-0.21243 -0.36185,-0.2808 -0.55486,-0.47431c-0.29663,-0.29741 -0.53983,-0.6995 -0.53422,-0.88538c0.00964,-0.3197 0.32343,-0.62789 0.69916,-0.9285c0.30548,-0.2444 0.66452,-0.47063 0.83247,-0.80022c0.0917,-0.17995 -0.09929,-0.25445 -0.1167,-0.42566c-0.04416,-0.4346 -0.1224,-0.89697 -0.1224,-0.89697c0,0 0.57711,-1.28287 1.1599,-1.27158c0.11664,0.00225 0.60142,1.03392 0.77994,1.04171c3.08023,0.13425 15.37985,0.65706 21.0738,0.61639c0.42047,-0.00301 0.84947,-1.64417 1.19101,-1.63445c1.18472,0.03372 1.12147,1.73834 1.12147,1.73834c0,0 -0.0583,0.31171 -0.10206,0.74077c-0.02527,0.24776 -0.12131,0.57371 -0.0035,0.80066c0.29855,0.57512 1.34862,0.83222 1.33436,1.30514c-0.00636,0.21116 0.02159,0.42286 -0.26553,0.65562c-0.21384,0.17335 -0.72812,0.35866 -0.88975,0.56269c-0.04444,0.05611 -0.14859,0.12342 -0.17849,0.1823c-0.1632,0.32137 0.0586,0.71656 0.06682,1.00202c0.0117,0.40641 -0.13973,0.64979 -0.13973,0.64979z" fill="url(#color-7)"></path></g><path d="M277.91775,178.351l-1.47118,-0.2463" fill="none" stroke="#a75900" stroke-width="0.5" stroke-linecap="round"></path><path d="M284.71798,178.8255l-1.75386,-0.15531" fill="none" stroke="#a75900" stroke-width="0.5" stroke-linecap="round"></path><path d="M278.89527,180.94007l-1.13177,-0.23558" fill="none" stroke="#a75900" stroke-width="0.5" stroke-linecap="round"></path><path d="M286.18375,182.40929l-1.33521,-0.12209" fill="none" stroke="#a75900" stroke-width="0.5" stroke-linecap="round"></path><path d="M286.80374,181.12975l0.93903,0.00966" fill="none" stroke="#a75900" stroke-width="0.5" stroke-linecap="round"></path><path d="M291.9165,180.61164l-1.0975,-0.05463" fill="none" stroke="#a75900" stroke-width="0.5" stroke-linecap="round"></path><path d="M294.24961,182.04433l-1.01827,-0.03214" fill="none" stroke="#a75900" stroke-width="0.5" stroke-linecap="round"></path><path d="M295.97465,178.68119l0.8598,-0.01283" fill="none" stroke="#a75900" stroke-width="0.5" stroke-linecap="round"></path><path d="M298.05932,180.38585l0.57713,0.07818" fill="none" stroke="#a75900" stroke-width="0.5" stroke-linecap="round"></path><path d="M297.04528,182.75215l0.67884,0.02143" fill="none" stroke="#a75900" stroke-width="0.5" stroke-linecap="round"></path><path d="M273.2932,179.86385l0.67884,0.02143" fill="none" stroke="#a75900" stroke-width="0.5" stroke-linecap="round"></path><path d="M274.78369,178.23208l0.49789,0.05569" fill="none" stroke="#a75900" stroke-width="0.5" stroke-linecap="round"></path><path d="M275.50315,182.03214l-0.81483,-0.14564" fill="none" stroke="#a75900" stroke-width="0.5" stroke-linecap="round"></path><path d="M293.75821,179.25076l-0.87157,-0.24736" fill="none" stroke="#a75900" stroke-width="0.5" stroke-linecap="round"></path><path d="M275.22366,183.922l-0.71311,-0.20239" fill="none" stroke="#5e3200" stroke-width="0.5" stroke-linecap="round"></path><path d="M277.30411,183.2282l1.60717,0.37051" fill="none" stroke="#5e3200" stroke-width="0.5" stroke-linecap="round"></path><path d="M300.16544,181.41167l-0.49789,-0.05569" fill="none" stroke="#5e3200" stroke-width="0.5" stroke-linecap="round"></path><path d="M298.84745,178.21227l-0.47541,-0.13493" fill="none" stroke="#5e3200" stroke-width="0.5" stroke-linecap="round"></path><path d="M298.56463,184.63884l-0.72383,0.13704" fill="none" stroke="#5e3200" stroke-width="0.5" stroke-linecap="round"></path><path d="M291.40142,183.63326l1.35769,0.04286" fill="none" stroke="#5e3200" stroke-width="0.5" stroke-linecap="round"></path><path d="M294.98837,183.96633l0.67884,0.02143" fill="none" stroke="#5e3200" stroke-width="0.5" stroke-linecap="round"></path><path d="M282.61067,183.53561l1.23349,0.17884" fill="none" stroke="#5e3200" stroke-width="0.5" stroke-linecap="round"></path><path d="M288.08642,183.54858l0.59961,-0.00106" fill="none" stroke="#5e3200" stroke-width="0.5" stroke-linecap="round"></path></g></g><path d="M281.30256,176.22635l-0.0201,-1.21401l6.89775,-0.11414l0.0201,1.21401z" fill="#dafeff" stroke="url(#color-8)" stroke-width="0.5" stroke-linecap="butt"></path><path d="M288.00121,176.12146l-0.49222,-0.98274l3.43961,-1.72279l0.49222,0.98275z" fill="#dafeff" stroke="url(#color-9)" stroke-width="0.5" stroke-linecap="butt"></path><path d="M288.00642,176.2064l0.61392,-0.9117l2.73508,1.84174l-0.61391,0.91169z" fill="#dafeff" stroke="url(#color-10)" stroke-width="0.5" stroke-linecap="butt"></path><path d="M277.36202,183.66806l3.04056,-6.96661l1.14312,0.52319l-3.04057,6.96663z" fill="#dafeff" stroke="url(#color-11)" stroke-width="0.5" stroke-linecap="butt"></path><path d="M296.01076,185.02112l-3.95293,-7.18294l1.19936,-0.63265l3.95293,7.18294z" fill="#dafeff" stroke="url(#color-12)" stroke-width="0.5" stroke-linecap="butt"></path><path d="M280.05828,191.7658l0.38989,-1.11122l9.70462,3.40506l-0.38989,1.11122z" fill="#dafeff" stroke="url(#color-13)" stroke-width="0.5" stroke-linecap="butt"></path><path d="M283.48092,208.14258l-0.5677,-0.84816l6.52429,-4.36692l0.5677,0.84816z" fill="#dafeff" stroke="url(#color-14)" stroke-width="0.5" stroke-linecap="butt"></path></g><text transform="translate(267.71042,216.81334) scale(0.06908,0.06908)" font-size="40" xml:space="preserve" fill="#9efaff" fill-rule="nonzero" stroke="none" stroke-width="1" stroke-linecap="butt" stroke-linejoin="miter" stroke-miterlimit="10" stroke-dasharray="" stroke-dashoffset="0" font-family="Serif" font-weight="normal" text-anchor="start" style="mix-blend-mode: normal"><tspan x="0" dy="0">Crucifixation color is light blue.</tspan></text></g></g></svg>