<svg version="1.1" xmlns="http://www.w3.org/2000/svg" xmlns:xlink="http://www.w3.org/1999/xlink" width="76.0243" height="79.33213" viewBox="0,0,76.0243,79.33213"><defs><linearGradient x1="260.47951" y1="224.75001" x2="336.97951" y2="224.75001" gradientUnits="userSpaceOnUse" id="color-1"><stop offset="0" stop-color="#00ffb5"></stop><stop offset="1" stop-color="#00ffb5" stop-opacity="0"></stop></linearGradient><linearGradient x1="243.38019" y1="205.17192" x2="243.38019" y2="229.135" gradientUnits="userSpaceOnUse" id="color-2"><stop offset="0" stop-color="#00ffb5"></stop><stop offset="1" stop-color="#00ffb5" stop-opacity="0"></stop></linearGradient><linearGradient x1="231.5441" y1="182.1972" x2="202.76418" y2="183.19535" gradientUnits="userSpaceOnUse" id="color-3"><stop offset="0" stop-color="#00ffb5"></stop><stop offset="1" stop-color="#00ffb5" stop-opacity="0"></stop></linearGradient><linearGradient x1="249.21492" y1="183.52695" x2="278.01215" y2="183.52695" gradientUnits="userSpaceOnUse" id="color-4"><stop offset="0" stop-color="#00ffb5"></stop><stop offset="1" stop-color="#00ffb5" stop-opacity="0"></stop></linearGradient><radialGradient cx="242.39527" cy="186.68391" r="30.72774" gradientUnits="userSpaceOnUse" id="color-5"><stop offset="0" stop-color="#dadada"></stop><stop offset="1" stop-color="#5d5d5d"></stop></radialGradient><radialGradient cx="240.41255" cy="186.68391" r="30.72774" gradientUnits="userSpaceOnUse" id="color-6"><stop offset="0" stop-color="#dadada"></stop><stop offset="1" stop-color="#5d5d5d"></stop></radialGradient><radialGradient cx="236.98081" cy="160.03117" r="10.06962" gradientUnits="userSpaceOnUse" id="color-7"><stop offset="0" stop-color="#505050"></stop><stop offset="1" stop-color="#000000"></stop></radialGradient><linearGradient x1="240.79468" y1="193.77607" x2="240.79468" y2="219.54106" gradientUnits="userSpaceOnUse" id="color-8"><stop offset="0" stop-color="#51c9c9" stop-opacity="0"></stop><stop offset="1" stop-color="#51c9c9"></stop></linearGradient></defs><g transform="translate(-201.98785,-140.20893)"><g data-paper-data="{&quot;isPaintingLayer&quot;:true}" fill-rule="nonzero" stroke-linejoin="miter" stroke-miterlimit="10" stroke-dasharray="" stroke-dashoffset="0" style="mix-blend-mode: normal"><path d="" fill="url(#color-1)" stroke="none" stroke-width="0" stroke-linecap="butt"></path><g stroke="none" stroke-linecap="butt"><path d="" fill="#6b4d2b" stroke-width="0"></path><path d="" fill="#98793d" stroke-width="NaN"></path></g><g data-paper-data="{&quot;index&quot;:null}" stroke="none" stroke-linecap="butt"><path d="" fill="#6b4d2b" stroke-width="0"></path><path d="" fill="#98793d" stroke-width="NaN"></path></g><path d="M229.2639,205.17192h28.23258l0.90287,13.59049c-3.89544,0.07708 -7.79175,0.10879 -11.68767,0.07948c-3.50078,-0.45593 -7.01021,-0.83803 -10.51986,-1.13881c-2.8108,-0.24089 -5.58955,-0.32779 -8.36496,-0.52099z" fill="url(#color-2)" stroke="none" stroke-width="0" stroke-linecap="butt"></path><path d="M203.54052,205.57974l-1.55267,-44.76877l34.38064,-18.70711l-5.32656,75.26932c-1.75462,-0.09455 -3.50351,-0.19144 -5.25387,-0.35596c-0.10934,-0.0152 -0.21866,-0.03053 -0.32796,-0.04597c-1.22418,-0.17296 -2.65712,-1.08837 -3.68849,-0.41217h-1.34619c-1.50273,0 -2.7998,0.88054 -3.40339,2.1538z" data-paper-data="{&quot;index&quot;:null}" fill="url(#color-3)" stroke="none" stroke-width="0" stroke-linecap="butt"></path><path d="M243.00376,143.62491l35.00839,17.5042v44.79569l-12.10297,12.63692c-4.98262,0.16499 -9.96799,0.27216 -14.95347,0.28872z" fill="url(#color-4)" stroke="none" stroke-width="0" stroke-linecap="butt"></path><g><g><path d="M252.1637,167.92813l-28.20927,48.63603c-0.78454,-0.23997 -1.55749,-0.41508 -2.18282,-0.00509h-1.34619c-0.42842,0 -0.84013,0.07157 -1.22381,0.20341l-0.92826,-1.88681l28.90654,-49.83819z" fill="url(#color-5)" stroke="none" stroke-width="0" stroke-linecap="butt"></path><path d="M263.59339,150.1359c0,0 -4.47997,5.81009 -6.13017,8.65522c-1.33266,2.29766 -3.02357,7.12687 -3.02357,7.12687l-6.64509,-3.85421l9.15374,-15.78209c0,0 3.11832,-0.41149 4.2861,0.26583c1.02988,0.59734 2.35899,3.58838 2.35899,3.58838z" fill="#c1832d" stroke="#000000" stroke-width="0" stroke-linecap="butt"></path><path d="M244.52601,161.00056c0.73171,-1.26156 3.83513,-0.82829 6.93168,0.96774c3.09655,1.79602 5.01363,4.27468 4.28191,5.53624c-0.73171,1.26156 -3.83513,0.82829 -6.93168,-0.96774c-3.09655,-1.79602 -5.01363,-4.27468 -4.28191,-5.53624z" fill="#c1832d" stroke="none" stroke-width="0" stroke-linecap="butt"></path><path d="M262.88735,151.11397l-6.10933,-3.82097" fill="none" stroke="#906221" stroke-width="1" stroke-linecap="round"></path><path d="M254.16148,151.32574l5.9349,3.16477" fill="none" stroke="#906221" stroke-width="1" stroke-linecap="round"></path><path d="M251.59893,156.22234l5.72724,3.04433" fill="none" stroke="#906221" stroke-width="1" stroke-linecap="round"></path><path d="M255.50703,164.31694l-6.99395,-5.16662" fill="none" stroke="#906221" stroke-width="1" stroke-linecap="round"></path><path d="M243.9404,161.77097l11.00593,6.38352" fill="none" stroke="#906221" stroke-width="1" stroke-linecap="round"></path></g><g data-paper-data="{&quot;index&quot;:null}"><path d="M235.62794,165.03747l28.90654,49.83819l-1.86199,3.78476c-0.85505,0.02375 -1.71017,0.04559 -2.56534,0.06535l-29.46302,-50.79763z" fill="url(#color-6)" stroke="none" stroke-width="0" stroke-linecap="butt"></path><path d="M221.57342,146.54753c1.16778,-0.67732 4.2861,-0.26583 4.2861,-0.26583l9.15374,15.78209l-6.64509,3.85421c0,0 -1.69091,-4.82921 -3.02357,-7.12687c-1.6502,-2.84514 -6.13017,-8.65522 -6.13017,-8.65522c0,0 1.32911,-2.99104 2.35899,-3.58838z" fill="#c1832d" stroke="#000000" stroke-width="0" stroke-linecap="butt"></path><path d="M233.9999,166.53679c-3.09655,1.79602 -6.19996,2.22929 -6.93168,0.96774c-0.73171,-1.26156 1.18537,-3.74022 4.28191,-5.53624c3.09655,-1.79602 6.19996,-2.22929 6.93168,-0.96774c0.73171,1.26156 -1.18537,3.74022 -4.28191,5.53624z" fill="#c1832d" stroke="none" stroke-width="0" stroke-linecap="butt"></path><path d="M226.02981,147.293l-6.10933,3.82097" fill="none" stroke="#906221" stroke-width="1" stroke-linecap="round"></path><path d="M228.64634,151.32574l-5.9349,3.16477" fill="none" stroke="#906221" stroke-width="1" stroke-linecap="round"></path><path d="M225.48165,159.26667l5.72724,-3.04433" fill="none" stroke="#906221" stroke-width="1" stroke-linecap="round"></path><path d="M227.30078,164.31695l6.99395,-5.16662" fill="none" stroke="#906221" stroke-width="1" stroke-linecap="round"></path><path d="M227.86149,168.1545l11.00593,-6.38352" fill="none" stroke="#906221" stroke-width="1" stroke-linecap="round"></path></g></g><g data-paper-data="{&quot;index&quot;:null}"><g><path d="M259.3664,187.29011c-0.1499,0.04334 -0.56394,-0.28609 -0.56394,-0.28609l-0.73403,-2.53876l0.84379,-0.24396l0.73403,2.53876c0,0 -0.15201,0.49309 -0.27985,0.53005z" fill="#b76000" stroke="none" stroke-width="0" stroke-linecap="butt"></path><path d="M259.01312,185.09041l-0.55512,0.1605" fill="none" stroke="#994f00" stroke-width="0.2" stroke-linecap="round"></path><path d="M259.2528,185.9194l-0.50322,0.17357" fill="none" stroke="#994f00" stroke-width="0.2" stroke-linecap="round"></path><path d="M259.30065,187.00033c-0.09622,0.02782 -0.3855,-0.08504 -0.3855,-0.08504l-0.09737,-0.33678l0.57733,-0.16692l0.09737,0.33677c0,0 -0.0956,0.22414 -0.19182,0.25196z" fill="#ffd8e6" stroke="#994f00" stroke-width="0.2" stroke-linecap="butt"></path></g><g><path d="M258.36066,188.10337c-0.1499,0.04334 -0.58351,-0.35376 -0.58351,-0.35376l-0.85387,-2.95325l0.84379,-0.24396l0.85387,2.95325c0,0 -0.13244,0.56076 -0.26028,0.59773z" fill="#b76000" stroke="none" stroke-width="0" stroke-linecap="butt"></path><path d="M257.35199,185.71735l0.55512,-0.1605" fill="none" stroke="#994f00" stroke-width="0.2" stroke-linecap="round"></path><path d="M258.18592,186.52117l-0.502,0.1778" fill="none" stroke="#994f00" stroke-width="0.2" stroke-linecap="round"></path><path d="M258.28147,187.76707c-0.09622,0.02782 -0.39406,-0.11464 -0.39406,-0.11464l-0.11327,-0.39176l0.57733,-0.16692l0.11327,0.39176c0,0 -0.08704,0.25375 -0.18326,0.28157z" fill="#ffd8e6" stroke="#994f00" stroke-width="0.2" stroke-linecap="butt"></path></g><g><path d="M257.41229,188.88916c-0.1499,0.04334 -0.59655,-0.39888 -0.59655,-0.39888l-0.93377,-3.22958l0.84379,-0.24396l0.93377,3.22958c0,0 -0.1194,0.60588 -0.24723,0.64284z" fill="#b76000" stroke="none" stroke-width="0" stroke-linecap="butt"></path><path d="M256.33678,186.27192l0.55512,-0.1605" fill="none" stroke="#994f00" stroke-width="0.2" stroke-linecap="round"></path><path d="M256.69561,187.34659l0.50118,-0.18062" fill="none" stroke="#994f00" stroke-width="0.2" stroke-linecap="round"></path><path d="M257.32414,188.52184c-0.09622,0.02782 -0.39977,-0.13438 -0.39977,-0.13438l-0.12387,-0.42841l0.57733,-0.16692l0.12387,0.42841c0,0 -0.08134,0.27349 -0.17756,0.30131z" fill="#ffd8e6" stroke="#994f00" stroke-width="0.2" stroke-linecap="butt"></path></g><g><path d="M256.13284,188.52981c-0.1499,0.04334 -0.57046,-0.30865 -0.57046,-0.30865l-0.77398,-2.67692l0.84379,-0.24396l0.77398,2.67692c0,0 -0.14549,0.51565 -0.27332,0.55261z" fill="#b76000" stroke="none" stroke-width="0" stroke-linecap="butt"></path><path d="M255.19102,186.37499l0.55512,-0.1605" fill="none" stroke="#994f00" stroke-width="0.2" stroke-linecap="round"></path><path d="M255.49606,187.26357l0.50281,-0.17498" fill="none" stroke="#994f00" stroke-width="0.2" stroke-linecap="round"></path><path d="M256.06262,188.22452c-0.09622,0.02782 -0.38836,-0.09491 -0.38836,-0.09491l-0.10267,-0.3551l0.57733,-0.16692l0.10267,0.3551c0,0 -0.09275,0.23401 -0.18897,0.26183z" fill="#ffd8e6" stroke="#994f00" stroke-width="0.2" stroke-linecap="butt"></path></g><g><path d="M254.84903,185.641l-3.86857,-13.38003l4.15866,-1.20239l3.86857,13.38003z" fill="#b76000" stroke="none" stroke-width="0" stroke-linecap="butt"></path><path d="M253.67519,172.31996c-0.68888,0.19918 -1.81578,2.19037 -1.81578,2.19037l-1.85587,-6.4188l3.79704,-1.09784l1.85587,6.4188c0,0 -1.44086,-1.24878 -1.98126,-1.09254z" fill="#4a4a4a" stroke="#949494" stroke-width="1" stroke-linecap="butt"></path><g><path d="M253.65078,187.22349c-0.14792,-0.03596 -0.28919,-0.55258 -0.28919,-0.55258l0.91293,-2.73197l0.83266,0.20242l-0.91293,2.73197c0,0 -0.41732,0.38082 -0.54347,0.35016z" fill="#b76000" stroke="none" stroke-width="0" stroke-linecap="butt"></path><path d="M254.67214,185.00014l-0.5478,-0.13317" fill="none" stroke="#994f00" stroke-width="0.2" stroke-linecap="round"></path><path d="M254.37404,185.89222l-0.51329,-0.09464" fill="none" stroke="#994f00" stroke-width="0.2" stroke-linecap="round"></path><path d="M253.7697,186.92083c-0.09495,-0.02308 -0.26347,-0.27504 -0.26347,-0.27504l0.1211,-0.3624l0.56971,0.1385l-0.1211,0.36241c0,0 -0.21129,0.15963 -0.30624,0.13654z" fill="#ffd8e6" stroke="#994f00" stroke-width="0.2" stroke-linecap="butt"></path></g></g></g><g><g><path d="M223.2767,185.25432l0.73403,-2.53876l0.84379,0.24396l-0.73403,2.53876c0,0 -0.41404,0.32943 -0.56394,0.28609c-0.12784,-0.03696 -0.27985,-0.53005 -0.27985,-0.53005z" fill="#b76000" stroke="none" stroke-width="0" stroke-linecap="butt"></path><path d="M223.90983,183.58467l0.55512,0.1605" fill="none" stroke="#994f00" stroke-width="0.2" stroke-linecap="round"></path><path d="M223.67014,184.41365l0.50322,0.17357" fill="none" stroke="#994f00" stroke-width="0.2" stroke-linecap="round"></path><path d="M223.43046,185.24264l0.09737,-0.33678l0.57733,0.16692l-0.09737,0.33678c0,0 -0.28928,0.11286 -0.3855,0.08504c-0.09622,-0.02782 -0.19182,-0.25196 -0.19182,-0.25196z" fill="#ffd8e6" stroke="#994f00" stroke-width="0.2" stroke-linecap="butt"></path></g><g><path d="M224.302,185.99991l0.85387,-2.95325l0.84379,0.24396l-0.85387,2.95325c0,0 -0.43361,0.3971 -0.58351,0.35376c-0.12784,-0.03696 -0.26028,-0.59773 -0.26028,-0.59773z" fill="#b76000" stroke="none" stroke-width="0" stroke-linecap="butt"></path><path d="M225.57096,184.21161l-0.55512,-0.1605" fill="none" stroke="#994f00" stroke-width="0.2" stroke-linecap="round"></path><path d="M224.73702,185.01544l0.502,0.1778" fill="none" stroke="#994f00" stroke-width="0.2" stroke-linecap="round"></path><path d="M224.4582,185.97976l0.11327,-0.39176l0.57733,0.16692l-0.11327,0.39176c0,0 -0.29784,0.14247 -0.39406,0.11465c-0.09622,-0.02782 -0.18326,-0.28157 -0.18326,-0.28157z" fill="#ffd8e6" stroke="#994f00" stroke-width="0.2" stroke-linecap="butt"></path></g><g><path d="M225.26341,186.74058l0.93377,-3.22958l0.84379,0.24396l-0.93377,3.22958c0,0 -0.44665,0.44222 -0.59655,0.39888c-0.12784,-0.03696 -0.24723,-0.64284 -0.24723,-0.64284z" fill="#b76000" stroke="none" stroke-width="0" stroke-linecap="butt"></path><path d="M226.58617,184.76618l-0.55512,-0.1605" fill="none" stroke="#994f00" stroke-width="0.2" stroke-linecap="round"></path><path d="M225.72614,185.66024l0.50118,0.18062" fill="none" stroke="#994f00" stroke-width="0.2" stroke-linecap="round"></path><path d="M225.42124,186.71479l0.12387,-0.42841l0.57733,0.16692l-0.12387,0.42841c0,0 -0.30355,0.1622 -0.39977,0.13438c-0.09622,-0.02782 -0.17756,-0.30131 -0.17756,-0.30131z" fill="#ffd8e6" stroke="#994f00" stroke-width="0.2" stroke-linecap="butt"></path></g><g><path d="M226.51677,186.47146l0.77398,-2.67692l0.84379,0.24396l-0.77398,2.67692c0,0 -0.42056,0.35199 -0.57046,0.30865c-0.12784,-0.03696 -0.27332,-0.55261 -0.27332,-0.55261z" fill="#b76000" stroke="none" stroke-width="0" stroke-linecap="butt"></path><path d="M227.17681,184.70875l0.55512,0.1605" fill="none" stroke="#994f00" stroke-width="0.2" stroke-linecap="round"></path><path d="M227.42689,185.75783l-0.50281,-0.17497" fill="none" stroke="#994f00" stroke-width="0.2" stroke-linecap="round"></path><path d="M226.67134,186.45695l0.10267,-0.3551l0.57733,0.16692l-0.10267,0.3551c0,0 -0.29214,0.12273 -0.38836,0.09491c-0.09622,-0.02782 -0.18897,-0.26183 -0.18897,-0.26183z" fill="#ffd8e6" stroke="#994f00" stroke-width="0.2" stroke-linecap="butt"></path></g><g><path d="M223.91525,182.93286l3.86857,-13.38003l4.15866,1.20239l-3.86857,13.38003z" fill="#b76000" stroke="none" stroke-width="0" stroke-linecap="butt"></path><path d="M227.2665,171.90676l1.85587,-6.4188l3.79704,1.09784l-1.85587,6.4188c0,0 -1.1269,-1.99119 -1.81578,-2.19037c-0.5404,-0.15625 -1.98126,1.09253 -1.98126,1.09253z" fill="#4a4a4a" stroke="#949494" stroke-width="1" stroke-linecap="butt"></path><g><path d="M228.72869,185.3676l-0.91293,-2.73197l0.83266,-0.20242l0.91293,2.73197c0,0 -0.14127,0.51661 -0.28919,0.55257c-0.12615,0.03067 -0.54347,-0.35016 -0.54347,-0.35016z" fill="#b76000" stroke="none" stroke-width="0" stroke-linecap="butt"></path><path d="M228.7986,183.36123l-0.5478,0.13317" fill="none" stroke="#994f00" stroke-width="0.2" stroke-linecap="round"></path><path d="M228.5489,184.38648l0.51329,-0.09464" fill="none" stroke="#994f00" stroke-width="0.2" stroke-linecap="round"></path><path d="M228.847,185.27855l-0.1211,-0.3624l0.56971,-0.1385l0.1211,0.3624c0,0 -0.16852,0.25196 -0.26347,0.27504c-0.09495,0.02308 -0.30624,-0.13654 -0.30624,-0.13654z" fill="#ffd8e6" stroke="#994f00" stroke-width="0.2" stroke-linecap="butt"></path></g></g></g><path d="M253.82625,165.36399c0,2.15695 -1.66785,3.90551 -3.72525,3.90551c-2.0574,0 -3.72525,-1.74856 -3.72525,-3.90551c0,-2.15695 1.66785,-3.90551 3.72525,-3.90551c2.0574,0 3.72525,1.74855 3.72525,3.90551z" fill="#000000" stroke="#949494" stroke-width="1" stroke-linecap="butt"></path><path d="M236.69848,164.98756c0,2.15695 -1.66785,3.90551 -3.72525,3.90551c-2.0574,0 -3.72525,-1.74856 -3.72525,-3.90551c0,-2.15695 1.66785,-3.90551 3.72525,-3.90551c2.0574,0 3.72525,1.74855 3.72525,3.90551z" fill="#000000" stroke="#949494" stroke-width="1" stroke-linecap="butt"></path><path d="M232.32531,199.85176c0,-9.75631 0,-26.59575 0,-32.16083c0,-3.51719 0.57976,-7.59296 1.22362,-7.59296c1.98134,0 12.29453,0 15.91253,0c0.78596,0 1.25597,2.82656 1.25597,7.00464c0,9.84508 0,27.19441 0,32.74913c0,3.36736 -0.48296,7.20075 -1.28832,7.20075c-3.63809,0 -13.85508,0 -15.84784,0c-0.65892,0 -1.25597,-2.9179 -1.25597,-7.20075z" fill="#000000" stroke="#fff7d9" stroke-width="0.5" stroke-linecap="butt"></path><path d="M249.77958,161.59964c0,2.59874 -3.6516,4.70543 -8.15608,4.70543c-4.50448,0 -8.15608,-2.10669 -8.15608,-4.70543c0,-2.59874 3.6516,-4.70543 8.15608,-4.70543c4.50448,0 8.15608,2.10669 8.15608,4.70543z" fill="#858585" stroke="#fff7d9" stroke-width="0" stroke-linecap="butt"></path><path d="M251.66175,155.20026c0,5.5613 -4.29765,10.06962 -9.59908,10.06962c-5.30142,0 -9.59908,-4.50832 -9.59908,-10.06962c0,-5.5613 4.29765,-10.06962 9.59908,-10.06962c5.30142,0 9.59908,4.50832 9.59908,10.06962z" fill="url(#color-7)" stroke="none" stroke-width="0" stroke-linecap="butt"></path><path d="M237.73368,152.377c0,0 -1.25478,-0.9847 -1.25478,-1.50574c0,-0.47929 1.25478,-1.50574 1.25478,-1.50574h9.1599c0,0 1.00383,1.25478 1.00383,1.75669c0,0.50191 -1.00383,1.25478 -1.00383,1.25478z" fill="#b76000" stroke="none" stroke-width="0" stroke-linecap="butt"></path><path d="M239.23941,150.74579c0,-0.2079 0.16854,-0.37643 0.37643,-0.37643c0.2079,0 0.37643,0.16854 0.37643,0.37643c0,0.2079 -0.16854,0.37643 -0.37643,0.37643c-0.2079,0 -0.37643,-0.16854 -0.37643,-0.37643z" fill="#000000" stroke="none" stroke-width="0.5" stroke-linecap="butt"></path><path d="M244.5095,150.87127c0,-0.2079 0.16854,-0.37643 0.37643,-0.37643c0.2079,0 0.37643,0.16854 0.37643,0.37643c0,0.2079 -0.16854,0.37643 -0.37643,0.37643c-0.2079,0 -0.37643,-0.16854 -0.37643,-0.37643z" fill="#000000" stroke="none" stroke-width="0.5" stroke-linecap="butt"></path><path d="M239.8417,164.42291l-0.07529,-1.35516" fill="none" stroke="#8a8a8a" stroke-width="0.5" stroke-linecap="round"></path><path d="M241.42273,163.21832v1.20459" fill="none" stroke="#8a8a8a" stroke-width="0.5" stroke-linecap="round"></path><path d="M243.15433,163.21832l0.15057,1.1293" fill="none" stroke="#8a8a8a" stroke-width="0.5" stroke-linecap="round"></path><g><path d="M234.51777,148.04345l-0.51768,-2.29505l11.75068,-2.65053l0.51768,2.29505z" fill="#cccccc" stroke="none" stroke-width="0" stroke-linecap="butt"></path><path d="M235.71147,147.86101l-0.63668,-2.48045" fill="none" stroke="#000000" stroke-width="0.5" stroke-linecap="round"></path><path d="M238.7629,147.01837l-0.47323,-2.44015" fill="none" stroke="#000000" stroke-width="0.5" stroke-linecap="round"></path><path d="M241.66081,144.12653l0.60354,2.33357" fill="none" stroke="#000000" stroke-width="0.5" stroke-linecap="round"></path><path d="M244.12469,143.41641l0.79074,2.13699" fill="none" stroke="#000000" stroke-width="0.5" stroke-linecap="round"></path><path d="M234.07974,145.75937l-0.28162,-1.24851c0,0 2.66599,-3.61131 4.27453,-3.97414c2.10154,-0.47403 7.25582,1.3733 7.25582,1.3733l0.28162,1.24851z" fill="#616161" stroke="#000000" stroke-width="0.5" stroke-linecap="butt"></path></g><path d="M236.12656,162.5083c0.2177,0.53988 0.19097,1.05947 -0.05969,1.16055c-0.25066,0.10107 -0.63033,-0.25465 -0.84803,-0.79453c-0.2177,-0.53988 -0.19097,-1.05947 0.05969,-1.16054c0.25066,-0.10107 0.63033,0.25465 0.84803,0.79453z" fill="none" stroke="#ffd200" stroke-width="1" stroke-linecap="butt"></path><path d="M236.5971,163.68466c0.2177,0.53988 0.19097,1.05947 -0.05969,1.16055c-0.25066,0.10107 -0.63033,-0.25465 -0.84803,-0.79453c-0.2177,-0.53988 -0.19097,-1.05947 0.05969,-1.16054c0.25066,-0.10107 0.63033,0.25465 0.84803,0.79453z" fill="none" stroke="#ffd200" stroke-width="1" stroke-linecap="butt"></path><path d="M237.1147,165.00218c0.2177,0.53988 0.19097,1.05947 -0.05969,1.16055c-0.25066,0.10107 -0.63033,-0.25465 -0.84803,-0.79453c-0.2177,-0.53988 -0.19097,-1.05947 0.05969,-1.16054c0.25066,-0.10107 0.63033,0.25465 0.84803,0.79453z" fill="none" stroke="#ffd200" stroke-width="1" stroke-linecap="butt"></path><path d="M237.77346,166.27264c0.2177,0.53988 0.19097,1.05947 -0.05969,1.16055c-0.25066,0.10107 -0.63033,-0.25465 -0.84803,-0.79453c-0.2177,-0.53988 -0.19097,-1.05947 0.05969,-1.16054c0.25066,-0.10107 0.63033,0.25465 0.84803,0.79453z" fill="none" stroke="#ffd200" stroke-width="1" stroke-linecap="butt"></path><path d="M238.19695,167.49605c0.2177,0.53988 0.19097,1.05947 -0.05969,1.16055c-0.25066,0.10107 -0.63033,-0.25465 -0.84803,-0.79453c-0.2177,-0.53988 -0.19097,-1.05947 0.05969,-1.16054c0.25066,-0.10107 0.63033,0.25465 0.84803,0.79453z" fill="none" stroke="#ffd200" stroke-width="1" stroke-linecap="butt"></path><path d="M248.67741,162.09021c0.25066,0.10107 0.27738,0.62066 0.05969,1.16054c-0.2177,0.53988 -0.59737,0.8956 -0.84803,0.79453c-0.25066,-0.10107 -0.27738,-0.62066 -0.05969,-1.16055c0.2177,-0.53988 0.59737,-0.8956 0.84803,-0.79453z" data-paper-data="{&quot;index&quot;:null}" fill="none" stroke="#ffd200" stroke-width="1" stroke-linecap="butt"></path><path d="M247.92455,163.36067c0.25066,0.10107 0.27738,0.62066 0.05969,1.16054c-0.2177,0.53988 -0.59737,0.89561 -0.84803,0.79453c-0.25066,-0.10107 -0.27738,-0.62066 -0.05969,-1.16055c0.2177,-0.53988 0.59737,-0.8956 0.84803,-0.79453z" data-paper-data="{&quot;index&quot;:null}" fill="none" stroke="#ffd200" stroke-width="1" stroke-linecap="butt"></path><path d="M247.40695,164.67819c0.25066,0.10107 0.27738,0.62066 0.05969,1.16054c-0.2177,0.53988 -0.59737,0.89561 -0.84803,0.79453c-0.25066,-0.10107 -0.27738,-0.62066 -0.05969,-1.16055c0.2177,-0.53988 0.59737,-0.8956 0.84803,-0.79453z" data-paper-data="{&quot;index&quot;:null}" fill="none" stroke="#ffd200" stroke-width="1" stroke-linecap="butt"></path><path d="M246.74819,165.94866c0.25066,0.10107 0.27738,0.62066 0.05969,1.16054c-0.2177,0.53988 -0.59737,0.89561 -0.84803,0.79453c-0.25066,-0.10107 -0.27738,-0.62066 -0.05969,-1.16055c0.2177,-0.53988 0.59737,-0.8956 0.84803,-0.79453z" data-paper-data="{&quot;index&quot;:null}" fill="none" stroke="#ffd200" stroke-width="1" stroke-linecap="butt"></path><path d="M246.3247,167.21912c0.25066,0.10107 0.27738,0.62066 0.05969,1.16054c-0.2177,0.53988 -0.59737,0.89561 -0.84803,0.79453c-0.25066,-0.10107 -0.27738,-0.62066 -0.05969,-1.16055c0.2177,-0.53988 0.59737,-0.8956 0.84803,-0.79453z" data-paper-data="{&quot;index&quot;:null}" fill="none" stroke="#ffd200" stroke-width="1" stroke-linecap="butt"></path><text transform="translate(237.34312,169.5739) scale(0.05748,0.05748)" font-size="40" xml:space="preserve" fill="#ffffff" fill-rule="nonzero" stroke="#ffd200" stroke-width="1" stroke-linecap="butt" stroke-linejoin="miter" stroke-miterlimit="10" stroke-dasharray="" stroke-dashoffset="0" font-family="Sans Serif" font-weight="normal" text-anchor="start" style="mix-blend-mode: normal"><tspan x="0" dy="0">HITMAN</tspan></text><path d="M232.74592,203.52502v-2.82326h17.41009v2.82326z" fill="#906800" stroke="none" stroke-width="0" stroke-linecap="butt"></path><path d="M239.61585,203.43091v-2.72915h2.91737v2.72915z" fill="none" stroke="#949494" stroke-width="1" stroke-linecap="butt"></path><path d="M250.72066,193.83184l-17.88063,-21.08032" fill="none" stroke="#949494" stroke-width="1" stroke-linecap="round"></path><path d="M232.79664,204.33882l4.84559,0.68412l-1.78628,12.65207c-1.64162,-0.13388 -3.27268,-0.21869 -4.89892,-0.30641z" fill="#4163a2" stroke="none" stroke-width="NaN" stroke-linecap="butt"></path><path d="M235.51242,215.62038c-0.10657,0.75481 -1.08299,1.24105 -2.18089,1.08604c-1.0979,-0.15501 -1.90154,-0.89256 -1.79498,-1.64737c0.10657,-0.75481 1.08299,-1.24105 2.18089,-1.08604c1.0979,0.15501 1.90154,0.89256 1.79498,1.64737z" fill="#2e4572" stroke="none" stroke-width="0" stroke-linecap="butt"></path><path d="M241.82461,206.50076l4.77962,-1.05023l2.94486,13.40214c-0.94582,-0.00015 -1.89164,-0.00366 -2.83743,-0.01078c-0.74533,-0.09707 -1.49106,-0.1908 -2.2371,-0.2811z" fill="#4163a2" stroke="none" stroke-width="NaN" stroke-linecap="butt"></path><path d="M248.30735,216.12486c0.1636,0.74453 -0.58169,1.541 -1.66465,1.77896c-1.08296,0.23796 -2.09349,-0.1727 -2.25709,-0.91723c-0.1636,-0.74453 0.58169,-1.54101 1.66465,-1.77896c1.08296,-0.23796 2.09349,0.1727 2.25709,0.91723z" fill="#2e4572" stroke="none" stroke-width="0" stroke-linecap="butt"></path><path d="M228.30655,219.54106v-25.76499h24.97626v25.76499z" fill="url(#color-8)" stroke="none" stroke-width="0" stroke-linecap="butt"></path></g></g></svg>