<svg version="1.1" xmlns="http://www.w3.org/2000/svg" xmlns:xlink="http://www.w3.org/1999/xlink" width="36.68919" height="37.5" viewBox="0,0,36.68919,37.5"><defs><radialGradient cx="240" cy="180" r="18.75" gradientUnits="userSpaceOnUse" id="color-1"><stop offset="0" stop-color="#66edff"></stop><stop offset="1" stop-color="#66edff" stop-opacity="0"></stop></radialGradient><linearGradient x1="239.25402" y1="175.02547" x2="239.25402" y2="189.21705" gradientUnits="userSpaceOnUse" id="color-2"><stop offset="0" stop-color="#b16150"></stop><stop offset="1" stop-color="#5c3328"></stop></linearGradient><linearGradient x1="235.28223" y1="180.06246" x2="240.89483" y2="180.06246" gradientUnits="userSpaceOnUse" id="color-3"><stop offset="0" stop-color="#cda89a"></stop><stop offset="1" stop-color="#fefcd7"></stop></linearGradient><linearGradient x1="237.65775" y1="174.89439" x2="243.50098" y2="174.89439" gradientUnits="userSpaceOnUse" id="color-4"><stop offset="0" stop-color="#ab5e4d"></stop><stop offset="1" stop-color="#4f2d24"></stop></linearGradient><linearGradient x1="236.47372" y1="172.86404" x2="245.60785" y2="172.86404" gradientUnits="userSpaceOnUse" id="color-5"><stop offset="0" stop-color="#fdf3d5"></stop><stop offset="1" stop-color="#e5a586"></stop></linearGradient><radialGradient cx="240" cy="180" r="11.40203" gradientUnits="userSpaceOnUse" id="color-6"><stop offset="0" stop-color="#00ffeb" stop-opacity="0.43544"></stop><stop offset="1" stop-color="#00ffeb" stop-opacity="0"></stop></radialGradient></defs><g transform="translate(-221.65541,-161.25)"><g data-paper-data="{&quot;isPaintingLayer&quot;:true}" fill-rule="nonzero" stroke-linejoin="miter" stroke-miterlimit="10" stroke-dasharray="" stroke-dashoffset="0" style="mix-blend-mode: normal"><path d="M258.34459,180c0,10.35534 -8.21316,18.75 -18.34459,18.75c-10.13144,0 -18.34459,-8.39466 -18.34459,-18.75c0,-10.35534 8.21316,-18.75 18.34459,-18.75c10.13144,0 18.34459,8.39466 18.34459,18.75z" fill="url(#color-1)" stroke="none" stroke-width="NaN" stroke-linecap="butt"></path><g><text transform="translate(238.95739,187.87918) rotate(13.621) scale(0.0251,0.0251)" font-size="40" xml:space="preserve" fill="#a45a4a" fill-rule="nonzero" stroke="none" stroke-width="1" stroke-linecap="butt" stroke-linejoin="miter" stroke-miterlimit="10" stroke-dasharray="" stroke-dashoffset="0" font-family="Handwriting" font-weight="normal" text-anchor="start" style="mix-blend-mode: normal"><tspan x="0" dy="0">xAmt8</tspan></text><path d="M234.49232,185.93575c0.46004,-2.69978 1.25406,-7.35961 1.51647,-8.89959c0.16584,-0.97328 0.60928,-2.05754 0.88832,-2.00912c0.85866,0.14899 5.32812,0.9245 6.89606,1.19656c0.34061,0.0591 0.41102,0.87661 0.21401,2.03278c-0.46422,2.72434 -1.28229,7.52527 -1.54421,9.06238c-0.15878,0.93182 -0.54884,1.95628 -0.89786,1.89572c-1.57665,-0.27357 -6.00442,-1.04185 -6.86803,-1.1917c-0.28556,-0.04955 -0.40671,-0.90189 -0.20477,-2.08705z" fill="url(#color-2)" stroke="#fff4ce" stroke-width="0" stroke-linecap="butt"></path><path d="M235.29596,180.97586c0.13013,-0.76208 0.35473,-2.07744 0.42896,-2.51213c0.04691,-0.27473 0.2635,-0.57048 0.44366,-0.54536c0.5544,0.0773 3.44016,0.47967 4.45252,0.62083c0.21992,0.03066 0.31374,0.26979 0.25801,0.59614c-0.13131,0.76901 -0.36272,2.12419 -0.43681,2.55808c-0.04491,0.26303 -0.23118,0.54362 -0.45653,0.5122c-1.01798,-0.14194 -3.87682,-0.54056 -4.43442,-0.6183c-0.18437,-0.02571 -0.31251,-0.27692 -0.25539,-0.61146z" fill="url(#color-3)" stroke="#fff4ce" stroke-width="0" stroke-linecap="butt"></path><path d="M239.93184,181.68178c0.14277,-0.75981 0.38919,-2.07126 0.47062,-2.50466c0.05147,-0.27392 0.16387,-0.58636 0.22246,-0.58083c0.1803,0.01701 1.11876,0.10554 1.44799,0.1366c0.07152,0.00675 0.07293,0.23091 0.01179,0.5563c-0.14407,0.76673 -0.39795,2.11788 -0.47923,2.55047c-0.04928,0.26224 -0.14932,0.55664 -0.2226,0.54973c-0.33105,-0.03123 -1.26077,-0.11893 -1.4421,-0.13604c-0.05996,-0.00566 -0.07159,-0.23803 -0.00891,-0.57157z" fill="#d5977b" stroke="#fff4ce" stroke-width="0" stroke-linecap="butt"></path><path d="M238.56993,175.16496l-2.57686,12.9702" fill="none" stroke-opacity="0.09917" stroke="#000000" stroke-width="0.5" stroke-linecap="round"></path><path d="M237.65775,175.2706l0.23575,-1.58595l5.60748,0.83355l-0.23575,1.58595z" fill="url(#color-4)" stroke="#000000" stroke-width="0.5" stroke-linecap="butt"></path><path d="M237.59773,173.89019l0.07897,-0.54403l6.22232,0.90324l-0.07897,0.54403c0,0 -0.12392,-0.22119 -0.53584,-0.29858c-1.35568,-0.25468 -4.47974,-0.64063 -5.14877,-0.73774c-0.25879,-0.03757 -0.53771,0.13308 -0.53771,0.13308z" fill="#ab5e4d" stroke="#000000" stroke-width="0.5" stroke-linecap="butt"></path><path d="M241.10914,175.68463l-2.302,12.84995" fill="none" stroke-opacity="0.09917" stroke="#000000" stroke-width="0.5" stroke-linecap="round"></path><path d="M240.86863,173.82929l-0.24051,1.92406" fill="none" stroke-opacity="0.09917" stroke="#000000" stroke-width="0.5" stroke-linecap="round"></path><path d="M236.47372,173.50544l0.30675,-2.1404c0,0 0.814,-0.62359 1.10162,-0.57989c0.3736,0.05676 1.28974,0.15452 2.35496,0.27741c1.60911,0.18564 3.55841,0.42861 4.49155,0.67427c0.30896,0.08133 0.87925,0.9694 0.87925,0.9694l-0.3526,2.23891c0,0 -0.20479,-0.42441 -0.55489,-0.50216c-1.65644,-0.36789 -6.49048,-1.05795 -7.45047,-1.21534c-0.31516,-0.05167 -0.77616,0.27782 -0.77616,0.27782z" fill="url(#color-5)" stroke="#000000" stroke-width="0" stroke-linecap="butt"></path></g><path d="M231.38514,191.40203v-22.80405h17.22973v22.80405z" fill="url(#color-6)" stroke="none" stroke-width="0" stroke-linecap="butt"></path></g></g></svg>