<svg version="1.1" xmlns="http://www.w3.org/2000/svg" xmlns:xlink="http://www.w3.org/1999/xlink" width="8.33393" height="21.33036" viewBox="0,0,8.33393,21.33036"><g transform="translate(-236.21732,-165.48413)"><g data-paper-data="{&quot;isPaintingLayer&quot;:true}" fill-rule="nonzero" stroke="none" stroke-width="0" stroke-linecap="butt" stroke-linejoin="miter" stroke-miterlimit="10" stroke-dasharray="" stroke-dashoffset="0" style="mix-blend-mode: normal"><path d="M238.44442,186.35775l0.00051,-1.61539l5.25093,-0.17648l-0.05312,1.27542z" fill="#9b7f4e"></path><path d="M237.65482,186.81449c0,0 -1.05406,-6.93357 -1.23712,-10.00241c-0.15883,-2.66249 1.52421,-7.39409 1.52421,-7.39409l3.19356,-3.93386c0,0 -3.7464,9.02467 -3.57591,12.01287c0.17437,3.05594 1.28329,8.99595 1.28329,8.99595z" fill="#78623c"></path><path d="M238.71057,184.45198c0.27673,0.91161 -0.03444,1.81318 -0.69501,2.01372c-0.66058,0.20054 -1.42043,-0.3759 -1.69719,-1.28751c-0.27673,-0.91161 0.03444,-1.81318 0.69501,-2.01372c0.66058,-0.20054 1.42043,0.3759 1.69719,1.28751z" fill="#7e7e7e"></path><path d="M243.41772,185.52484c0,0 -0.24687,-4.7167 -0.20468,-7.79071c0.03662,-2.66697 0.25183,-10.03928 0.25183,-10.03928l1.02005,-1.20112c0,0 -0.13444,9.01444 -0.18327,12.0071c-0.04992,3.0605 0.24959,6.69022 0.24959,6.69022z" fill="#78623c"></path><path d="M238.00349,182.94169l0.07956,-1.67449l5.60312,-0.43979l-0.11899,1.32467z" fill="#9b7f4e"></path><path d="M237.8571,179.46121l0.0045,-1.67637l5.57782,-0.69027l-0.05955,1.32866z" fill="#9b7f4e"></path><path d="M237.59387,173.58074l0.42078,-1.6227l5.57445,0.71694l-0.38772,1.27223z" fill="#9b7f4e"></path><path d="M239.53133,169.35223l-0.11624,-0.83813l4.26686,-0.59176l0.11624,0.83813z" fill="#9b7f4e"></path></g></g></svg>