<svg version="1.1" xmlns="http://www.w3.org/2000/svg" xmlns:xlink="http://www.w3.org/1999/xlink" width="54.97785" height="56.5031" viewBox="0,0,54.97785,56.5031"><defs><linearGradient x1="241.69004" y1="157.84507" x2="241.69004" y2="201.99507" gradientUnits="userSpaceOnUse" id="color-1"><stop offset="0" stop-color="#af957e"></stop><stop offset="1" stop-color="#ad8764"></stop></linearGradient><linearGradient x1="240.22992" y1="158.33824" x2="240.22992" y2="202.48824" gradientUnits="userSpaceOnUse" id="color-2"><stop offset="0" stop-color="#c9ab91"></stop><stop offset="1" stop-color="#c99d74"></stop></linearGradient><linearGradient x1="221.5685" y1="170.06639" x2="253.02624" y2="169.86966" gradientUnits="userSpaceOnUse" id="color-3"><stop offset="0" stop-color="#c9ab91"></stop><stop offset="1" stop-color="#c99d74"></stop></linearGradient></defs><g transform="translate(-209.86823,-148.23634)"><g data-paper-data="{&quot;isPaintingLayer&quot;:true}" fill-rule="nonzero" stroke-linejoin="miter" stroke-miterlimit="10" stroke-dasharray="" stroke-dashoffset="0" style="mix-blend-mode: normal"><path d="M216.15397,196.45829c0,-9.86526 0,-26.89275 0,-32.51997c0,-3.55647 1.50337,-7.67776 3.17295,-7.67776c5.13777,0 31.88059,0 41.26234,0c2.03805,0 3.25682,2.85812 3.25682,7.08287c0,9.95502 0,27.49809 0,33.11485c0,3.40496 -1.25235,7.28116 -3.34069,7.28116c-9.43383,0 -35.92722,0 -41.09461,0c-1.70864,0 -3.25682,-2.95049 -3.25682,-7.28116z" fill-opacity="0.62097" fill="#291800" stroke="#d6cdad" stroke-width="2" stroke-linecap="butt"></path><g><text transform="translate(233.44645,166.97269) rotate(71.31914) scale(0.1831,0.1831)" font-size="40" xml:space="preserve" fill="#c99f79" fill-rule="nonzero" stroke="none" stroke-width="1" stroke-linecap="butt" stroke-linejoin="miter" stroke-miterlimit="10" stroke-dasharray="" stroke-dashoffset="0" font-family="Curly" font-weight="normal" text-anchor="start" style="mix-blend-mode: normal"><tspan x="0" dy="0">xAmt8</tspan></text><g><path d="M242.8109,201.25136c0,0 -2.76158,0.12634 -3.23572,-1.49015c-0.10623,-0.36216 2.12089,-1.15489 2.00913,-1.58542c-2.00805,-7.73576 -7.20923,-25.51657 -9.63427,-32.66687c-0.47256,-1.39336 -2.21427,-1.86502 -2.37148,-2.37818c-0.2173,-0.7093 0.93933,-2.00474 0.93933,-2.00474c0,0 1.51705,-0.00709 2.21252,-0.81819c0.25634,-0.29896 0.2339,-0.71644 0.42409,-1.12147c0.29229,-0.62246 0.76863,-1.21554 1.04957,-1.30391c0.48319,-0.15198 1.10557,0.18085 1.74848,0.61516c0.52272,0.35311 1.04579,0.80003 1.62517,0.8921c0.31635,0.05027 0.32953,-0.28935 0.57669,-0.40626c0.62735,-0.29672 1.27875,-0.66166 1.27875,-0.66166c0,0 2.21576,0.23777 2.49864,1.1611c0.05662,0.18479 -1.23722,1.48735 -1.15703,1.77246c1.3835,4.91915 6.92782,24.55484 9.91736,33.49712c0.22076,0.66035 2.8963,0.47762 3.05742,1.02035c0.55892,1.88264 -2.02338,2.67433 -2.02338,2.67433c0,0 -0.49624,0.0712 -1.16053,0.22664c-0.3836,0.08976 -0.92055,0.10901 -1.19942,0.41311c-0.70672,0.77068 -0.55119,2.55815 -1.26591,2.78297c-0.31913,0.10038 -0.62142,0.25509 -1.11726,-0.07522c-0.3693,-0.24601 -0.911,-0.9587 -1.29932,-1.10646c-0.10679,-0.04063 -0.26102,-0.16939 -0.36451,-0.18567c-0.56466,-0.08889 -1.04169,0.4669 -1.46448,0.62908c-0.60191,0.2309 -1.04384,0.11978 -1.04384,0.11978z" fill="url(#color-1)" stroke="#000000" stroke-width="0" stroke-linecap="butt"></path><path d="M241.35076,201.74453c0,0 -2.76158,0.12634 -3.23572,-1.49015c-0.10623,-0.36216 2.12089,-1.15489 2.00913,-1.58542c-2.00805,-7.73576 -7.20923,-25.51657 -9.63427,-32.66687c-0.47256,-1.39336 -2.21427,-1.86502 -2.37148,-2.37818c-0.2173,-0.7093 0.93933,-2.00474 0.93933,-2.00474c0,0 1.51705,-0.00709 2.21252,-0.81819c0.25634,-0.29896 0.2339,-0.71644 0.42409,-1.12147c0.29229,-0.62246 0.76863,-1.21554 1.04957,-1.30391c0.48319,-0.15198 1.10557,0.18085 1.74848,0.61516c0.52272,0.35311 1.04579,0.80003 1.62517,0.8921c0.31635,0.05027 0.32953,-0.28935 0.57669,-0.40626c0.62735,-0.29672 1.27875,-0.66166 1.27875,-0.66166c0,0 2.21576,0.23777 2.49864,1.1611c0.05662,0.18479 -1.23722,1.48735 -1.15703,1.77246c1.3835,4.91915 6.92782,24.55484 9.91736,33.49712c0.22076,0.66035 2.8963,0.47762 3.05742,1.02035c0.55892,1.88264 -2.02338,2.67433 -2.02338,2.67433c0,0 -0.49624,0.0712 -1.16053,0.22664c-0.3836,0.08976 -0.92055,0.10901 -1.19942,0.41311c-0.70672,0.77068 -0.55119,2.55815 -1.26591,2.78297c-0.31913,0.10038 -0.62142,0.25509 -1.11726,-0.07522c-0.3693,-0.24601 -0.911,-0.9587 -1.29932,-1.10646c-0.10679,-0.04063 -0.26102,-0.16939 -0.36451,-0.18567c-0.56466,-0.08889 -1.04169,0.4669 -1.46448,0.62908c-0.60191,0.2309 -1.04384,0.11978 -1.04384,0.11978z" fill="url(#color-2)" stroke="#000000" stroke-width="0" stroke-linecap="butt"></path><path d="M231.26242,163.69777l2.53091,-0.78907" fill="none" stroke="#a75900" stroke-width="0.5" stroke-linecap="round"></path><path d="M235.05876,160.83741l-1.65482,0.49316" fill="none" stroke="#a75900" stroke-width="0.5" stroke-linecap="round"></path><path d="M228.73149,162.9087l1.3628,-0.19727" fill="none" stroke="#a75900" stroke-width="0.5" stroke-linecap="round"></path><path d="M237.20032,164.78273l1.75216,-0.69043" fill="none" stroke="#a75900" stroke-width="0.5" stroke-linecap="round"></path><path d="M232.52786,170.7007l1.16811,-0.19727" fill="none" stroke="#a75900" stroke-width="0.5" stroke-linecap="round"></path><path d="M236.7136,170.1089l1.84951,-0.49316" fill="none" stroke="#a75900" stroke-width="0.5" stroke-linecap="round"></path><path d="M239.63388,177.60501l-2.53091,0.49316" fill="none" stroke="#a75900" stroke-width="0.5" stroke-linecap="round"></path><path d="M242.6515,181.84623l-0.6814,0.19727" fill="none" stroke="#a75900" stroke-width="0.5" stroke-linecap="round"></path><path d="M236.12955,174.94193l-1.07077,0.39453" fill="none" stroke="#a75900" stroke-width="0.5" stroke-linecap="round"></path><path d="M240.12059,173.56107l1.16811,-0.19727" fill="none" stroke="#a75900" stroke-width="0.5" stroke-linecap="round"></path><path d="M239.04981,182.04349l-1.65482,0.5918" fill="none" stroke="#a75900" stroke-width="0.5" stroke-linecap="round"></path><path d="M242.6515,188.15874l-3.79636,0.5918" fill="none" stroke="#a75900" stroke-width="0.5" stroke-linecap="round"></path><path d="M242.6515,185.59427l1.3628,-0.49316" fill="none" stroke="#a75900" stroke-width="0.5" stroke-linecap="round"></path><path d="M238.46577,186.77787h1.26545" fill="none" stroke="#a75900" stroke-width="0.5" stroke-linecap="round"></path><path d="M242.65149,193.87945l-1.16811,0.19727" fill="none" stroke="#a75900" stroke-width="0.5" stroke-linecap="round"></path><path d="M248.10269,192.30132l-1.46014,0.2959" fill="none" stroke="#a75900" stroke-width="0.5" stroke-linecap="round"></path><path d="M242.55415,196.83844l1.26545,-0.09864" fill="none" stroke="#a75900" stroke-width="0.5" stroke-linecap="round"></path><path d="M246.15582,196.83844l0.87608,-0.09864" fill="none" stroke="#a75900" stroke-width="0.5" stroke-linecap="round"></path><path d="M245.8638,195.06305l0.6814,-0.09864" fill="none" stroke="#a75900" stroke-width="0.5" stroke-linecap="round"></path><path d="M240.31528,199.89606l1.46014,-0.09864" fill="none" stroke="#a75900" stroke-width="0.5" stroke-linecap="round"></path><path d="M246.05848,200.58649h-0.58405" fill="none" stroke="#a75900" stroke-width="0.5" stroke-linecap="round"></path><path d="M240.99667,162.11963l-0.87608,0.09864" fill="none" stroke="#703c00" stroke-width="0.5" stroke-linecap="round"></path><path d="M236.2269,158.86476l-0.6814,-0.09864" fill="none" stroke="#703c00" stroke-width="0.5" stroke-linecap="round"></path><path d="M248.50827,200.37279l-0.64896,0.06575" fill="none" stroke="#703c00" stroke-width="0.5" stroke-linecap="round"></path><path d="M253.69988,196.49322l-0.64896,0.26303" fill="none" stroke="#703c00" stroke-width="0.5" stroke-linecap="round"></path><path d="M250.58491,194.65207l-0.58405,0.06575" fill="none" stroke="#703c00" stroke-width="0.5" stroke-linecap="round"></path><path d="M248.11891,189.26014l0.45426,-0.06575" fill="none" stroke="#703c00" stroke-width="0.5" stroke-linecap="round"></path><path d="M245.45821,179.98864l-0.38937,0.06575" fill="none" stroke="#703c00" stroke-width="0.5" stroke-linecap="round"></path><path d="M243.96563,173.15008l-0.97343,0.32878" fill="none" stroke="#703c00" stroke-width="0.5" stroke-linecap="round"></path><path d="M243.64114,175.1885l0.51916,-0.13151" fill="none" stroke="#703c00" stroke-width="0.5" stroke-linecap="round"></path><path d="M242.08365,167.36362l-0.58405,0.13151" fill="none" stroke="#703c00" stroke-width="0.5" stroke-linecap="round"></path><path d="M241.17513,158.81543l-0.71385,0.26303" fill="none" stroke="#703c00" stroke-width="0.5" stroke-linecap="round"></path><path d="M241.6943,159.6045l-0.51916,0.13151" fill="none" stroke="#703c00" stroke-width="0.5" stroke-linecap="round"></path><path d="M235.20479,158.22363l-0.77874,-0.06575" fill="none" stroke="#703c00" stroke-width="0.5" stroke-linecap="round"></path></g><g><g stroke="#000000" stroke-width="0" stroke-linecap="butt"><path d="M253.60439,169.84485c0,0 0.12465,2.06266 -1.02118,2.4241c-0.25672,0.08098 -0.84948,-1.57941 -1.15484,-1.49399c-5.4867,1.53472 -18.09065,5.49984 -23.15498,7.34349c-0.98687,0.35927 -1.3011,1.66263 -1.66476,1.78237c-0.50266,0.16551 -1.44019,-0.69286 -1.44019,-0.69286c0,0 -0.02408,-1.13338 -0.61072,-1.64937c-0.21623,-0.19019 -0.51341,-0.17156 -0.80439,-0.31185c-0.44718,-0.2156 -0.87573,-0.56885 -0.94222,-0.77835c-0.11435,-0.36032 0.115,-0.82679 0.41638,-1.30906c0.24504,-0.3921 0.55693,-0.78489 0.61526,-1.21816c0.03185,-0.23657 -0.2103,-0.24491 -0.2967,-0.42905c-0.21929,-0.46739 -0.48748,-0.95243 -0.48748,-0.95243c0,0 0.14162,-1.6565 0.79597,-1.87194c0.13096,-0.04312 1.07527,0.91771 1.27742,0.85654c3.48765,-1.05555 17.40893,-5.28531 23.74299,-7.55869c0.46774,-0.16788 0.30399,-2.16599 0.68868,-2.2888c1.33441,-0.42596 1.93089,1.49978 1.93089,1.49978c0,0 0.05695,0.37044 0.17604,0.86605c0.06876,0.28619 0.08921,0.68728 0.30939,0.89427c0.55799,0.52457 1.82964,0.4004 1.99879,0.93338c0.07552,0.23798 0.18955,0.46314 -0.03958,0.83506c-0.17065,0.27701 -0.67167,0.68489 -0.77208,0.97568c-0.02761,0.07997 -0.11741,0.19577 -0.12772,0.27315c-0.05626,0.42226 0.34574,0.77619 0.4666,1.09133c0.17207,0.44866 0.09844,0.77934 0.09844,0.77934z" fill="#ad907c"></path><path d="M252.48227,169.03558c0,0 0.12465,2.06266 -1.02118,2.4241c-0.25672,0.08098 -0.84948,-1.57941 -1.15484,-1.49399c-5.4867,1.53472 -18.09065,5.49984 -23.15498,7.34349c-0.98687,0.35927 -1.3011,1.66263 -1.66476,1.78237c-0.50266,0.16551 -1.44019,-0.69286 -1.44019,-0.69286c0,0 -0.02408,-1.13338 -0.61072,-1.64937c-0.21623,-0.19019 -0.51341,-0.17156 -0.80439,-0.31185c-0.44718,-0.2156 -0.87573,-0.56885 -0.94222,-0.77835c-0.11435,-0.36032 0.115,-0.82679 0.41638,-1.30906c0.24504,-0.3921 0.55693,-0.78489 0.61526,-1.21816c0.03185,-0.23657 -0.2103,-0.24491 -0.2967,-0.42905c-0.21929,-0.46739 -0.48748,-0.95243 -0.48748,-0.95243c0,0 0.14162,-1.6565 0.79597,-1.87194c0.13096,-0.04312 1.07527,0.91771 1.27742,0.85654c3.48765,-1.05555 17.40893,-5.28531 23.74299,-7.55869c0.46774,-0.16788 0.30399,-2.16599 0.68868,-2.2888c1.33441,-0.42596 1.93089,1.49978 1.93089,1.49978c0,0 0.05695,0.37044 0.17604,0.86605c0.06876,0.28619 0.08921,0.68728 0.30939,0.89427c0.55799,0.52457 1.82964,0.40039 1.99879,0.93338c0.07552,0.23798 0.18955,0.46314 -0.03958,0.83506c-0.17065,0.27701 -0.67167,0.68489 -0.77208,0.97568c-0.02761,0.07997 -0.11741,0.19577 -0.12772,0.27315c-0.05626,0.42226 0.34574,0.77619 0.4666,1.09133c0.17207,0.44866 0.09844,0.77934 0.09844,0.77934z" fill="url(#color-3)"></path></g><path d="M226.17388,171.68012l1.73706,-0.30099" fill="none" stroke="#a75900" stroke-width="0.5" stroke-linecap="round"></path><path d="M233.66361,169.76048l2.0167,-0.51309" fill="none" stroke="#a75900" stroke-width="0.5" stroke-linecap="round"></path><path d="M230.01417,173.88399l-1.35434,0.18012" fill="none" stroke="#a75900" stroke-width="0.5" stroke-linecap="round"></path><path d="M238.71726,172.67053l-1.53681,0.3863" fill="none" stroke="#a75900" stroke-width="0.5" stroke-linecap="round"></path><path d="M238.90803,171.001l1.05101,-0.35667" fill="none" stroke="#a75900" stroke-width="0.5" stroke-linecap="round"></path><path d="M244.40713,168.42258l-1.24532,0.36852" fill="none" stroke="#a75900" stroke-width="0.5" stroke-linecap="round"></path><path d="M247.56965,169.10741l-1.14817,0.3626" fill="none" stroke="#a75900" stroke-width="0.5" stroke-linecap="round"></path><path d="M249.13129,164.33105l-0.95385,0.35074" fill="none" stroke="#a75900" stroke-width="0.5" stroke-linecap="round"></path><path d="M251.16934,165.76713l0.67421,-0.13865" fill="none" stroke="#a75900" stroke-width="0.5" stroke-linecap="round"></path><path d="M251.72984,168.56112l-0.76544,0.24173" fill="none" stroke="#a75900" stroke-width="0.5" stroke-linecap="round"></path><path d="M223.34554,174.87585l0.76544,-0.24173" fill="none" stroke="#a75900" stroke-width="0.5" stroke-linecap="round"></path><path d="M224.94631,172.34014l-0.57704,0.13271" fill="none" stroke="#a75900" stroke-width="0.5" stroke-linecap="round"></path><path d="M225.69287,176.58564l0.96569,-0.15642" fill="none" stroke="#a75900" stroke-width="0.5" stroke-linecap="round"></path><path d="M244.85974,166.24946l1.06879,-0.06518" fill="none" stroke="#a75900" stroke-width="0.5" stroke-linecap="round"></path><path d="M226.21188,178.69949l0.87445,-0.05333" fill="none" stroke="#5e3200" stroke-width="0.5" stroke-linecap="round"></path><path d="M231.07234,176.84269l-1.93732,0.21567" fill="none" stroke="#5e3200" stroke-width="0.5" stroke-linecap="round"></path><path d="M253.34247,166.21972l0.57704,-0.13271" fill="none" stroke="#5e3200" stroke-width="0.5" stroke-linecap="round"></path><path d="M250.61475,163.07029l0.58298,-0.03556" fill="none" stroke="#5e3200" stroke-width="0.5" stroke-linecap="round"></path><path d="M252.64344,170.74844l0.75359,-0.43606" fill="none" stroke="#5e3200" stroke-width="0.5" stroke-linecap="round"></path><path d="M245.01504,171.99387l1.53089,-0.48346" fill="none" stroke="#5e3200" stroke-width="0.5" stroke-linecap="round"></path><path d="M249.14559,170.96177l0.76544,-0.24173" fill="none" stroke="#5e3200" stroke-width="0.5" stroke-linecap="round"></path><path d="M235.17327,175.32477l1.44558,-0.28321" fill="none" stroke="#5e3200" stroke-width="0.5" stroke-linecap="round"></path><path d="M241.95326,172.9608l-0.66828,0.2358" fill="none" stroke="#5e3200" stroke-width="0.5" stroke-linecap="round"></path></g></g><g stroke-linecap="butt"><path d="M212.36824,162.03501c0,-2.30933 0,-6.29523 0,-7.61249c0,-0.83253 0.35192,-1.79726 0.74274,-1.79726c1.20269,0 7.46283,0 9.65897,0c0.47708,0 0.76238,0.66905 0.76238,1.65801c0,2.33034 0,6.43694 0,7.75175c0,0.79706 -0.29315,1.70443 -0.78201,1.70443c-2.20834,0 -8.41009,0 -9.61971,0c-0.39997,0 -0.76238,-0.69067 -0.76238,-1.70443z" fill-opacity="0.47425" fill="#000000" stroke="#fff4ce" stroke-width="0"></path><path d="M210.36824,159.89216c0,-2.30933 0,-6.29523 0,-7.61249c0,-0.83253 0.35192,-1.79726 0.74274,-1.79726c1.20269,0 7.46283,0 9.65897,0c0.47708,0 0.76238,0.66904 0.76238,1.658c0,2.33034 0,6.43695 0,7.75176c0,0.79706 -0.29315,1.70443 -0.78201,1.70443c-2.20834,0 -8.41009,0 -9.61971,0c-0.39997,0 -0.76238,-0.69067 -0.76238,-1.70443z" fill-opacity="0.88705" fill="#291800" stroke="#fff4ce" stroke-width="1"></path><text transform="translate(213.35853,159.88738) scale(0.26784,0.26784)" font-size="40" xml:space="preserve" fill="#fff4ce" fill-rule="nonzero" stroke="none" stroke-width="1" stroke-linecap="butt" stroke-linejoin="miter" stroke-miterlimit="10" stroke-dasharray="" stroke-dashoffset="0" font-family="Sans Serif" font-weight="normal" text-anchor="start" style="mix-blend-mode: normal"><tspan x="0" dy="0">1</tspan></text></g></g></g></svg>