<svg version="1.1" xmlns="http://www.w3.org/2000/svg" xmlns:xlink="http://www.w3.org/1999/xlink" width="31.51432" height="13.60524" viewBox="0,0,31.51432,13.60524"><g transform="translate(-224.03197,-191.0837)"><g data-paper-data="{&quot;isPaintingLayer&quot;:true}" fill-rule="nonzero" stroke-width="0.5" stroke-linecap="butt" stroke-linejoin="miter" stroke-miterlimit="10" stroke-dasharray="" stroke-dashoffset="0" style="mix-blend-mode: normal"><path d="M224.03198,199.91871v-8.83501h31.51432v8.83501z" fill="#b34848" stroke="none"></path><path d="M229.53447,201.97336c0,1.24823 -0.89584,2.26012 -2.00091,2.26012c-1.10507,0 -2.00091,-1.01189 -2.00091,-2.26012c0,-1.24823 0.89584,-2.26012 2.00091,-2.26012c1.10507,0 2.00091,1.01189 2.00091,2.26012z" fill="#989898" stroke="#000000"></path><path d="M254.29572,202.17882c0,1.24823 -0.89584,2.26012 -2.00091,2.26012c-1.10507,0 -2.00091,-1.01189 -2.00091,-2.26012c0,-1.24823 0.89584,-2.26012 2.00091,-2.26012c1.10507,0 2.00091,1.01189 2.00091,2.26012z" fill="#989898" stroke="#000000"></path></g></g></svg>