<svg version="1.1" xmlns="http://www.w3.org/2000/svg" xmlns:xlink="http://www.w3.org/1999/xlink" width="58.34885" height="76.05043" viewBox="0,0,58.34885,76.05043"><defs><linearGradient x1="247.08359" y1="177.98855" x2="260.79222" y2="177.98855" gradientUnits="userSpaceOnUse" id="color-1"><stop offset="0" stop-color="#8d3800"></stop><stop offset="1" stop-color="#d27a00"></stop></linearGradient><linearGradient x1="217.3044" y1="177.9279" x2="232.74045" y2="177.9279" gradientUnits="userSpaceOnUse" id="color-2"><stop offset="0" stop-color="#d27a00"></stop><stop offset="1" stop-color="#8d3800"></stop></linearGradient></defs><g transform="translate(-210.82558,-141.84979)"><g data-paper-data="{&quot;isPaintingLayer&quot;:true}" fill-rule="nonzero" stroke-width="0.5" stroke-linejoin="miter" stroke-miterlimit="10" stroke-dasharray="" stroke-dashoffset="0" style="mix-blend-mode: normal"><path d="M240.17496,152.77229l-0.7115,52.65101" fill="none" stroke="#652800" stroke-linecap="round"></path><path d="M215.13015,150.49549v-4.269c0,0 14.84595,-4.1267 22.62571,-4.1267c8.3955,0 26.04091,4.1267 26.04091,4.1267v4.269z" fill="#652800" stroke="#311300" stroke-linecap="butt"></path><path d="M210.82558,217.90021l4.69473,-12.87699h48.69111l4.96301,12.87699z" fill-opacity="0.45161" fill="#000000" stroke="none" stroke-linecap="butt"></path><g stroke-linecap="butt"><path d="M214.98377,205.69172v-55.53201h48.69111v55.53201z" fill="#000000" stroke="none"></path><path d="M216.54499,205.57376v-54.35861c0,0 13.16679,0 20.34891,0c8.08023,0 25.75631,0 25.75631,0v54.35861z" fill="none" stroke="#652800"></path></g><g><path d="M241.75822,163.86133c0.35609,2.96194 -1.77901,5.65445 -4.76889,6.0139c-2.98987,0.35945 -5.70232,-1.75027 -6.05841,-4.71221c-0.35609,-2.96194 1.77901,-5.65445 4.76889,-6.0139c2.98987,-0.35945 5.70232,1.75027 6.05841,4.71221z" fill="#f1ad60" stroke="none" stroke-linecap="butt"></path><path d="M234.73652,191.60038l-2.60338,-21.65459l10.32135,-1.24086l2.60338,21.65459z" fill="#ff6666" stroke="none" stroke-linecap="butt"></path><path d="M233.73948,162.69533c-0.02688,-0.22354 0.13256,-0.42655 0.3561,-0.45342c0.22354,-0.02688 0.42655,0.13256 0.45342,0.3561c0.02688,0.22354 -0.13256,0.42655 -0.3561,0.45342c-0.22354,0.02688 -0.42655,-0.13256 -0.45342,-0.3561z" fill="#000000" stroke="none" stroke-linecap="butt"></path><path d="M237.49359,162.11569c-0.02688,-0.22354 0.13256,-0.42655 0.3561,-0.45342c0.22354,-0.02688 0.42655,0.13256 0.45342,0.3561c0.02688,0.22354 -0.13256,0.42655 -0.3561,0.45342c-0.22354,0.02688 -0.42655,-0.13256 -0.45342,-0.3561z" fill="#000000" stroke="none" stroke-linecap="butt"></path><path d="M238.49618,165.93929c0.38379,0.13749 0.2463,0.52128 0.2463,0.52128l-0.05589,0.02839c0.14555,2.24817 -3.63777,1.37259 -4.59324,0.38797c0,0 -0.28178,-0.29461 0.01283,-0.5764c0.29461,-0.28178 0.5764,0.01283 0.5764,0.01283c0.43612,0.46433 3.44526,1.28734 3.1945,0.27292l0.09783,-0.4007c0,0 0.13749,-0.38379 0.52128,-0.2463z" fill="#000000" stroke="none" stroke-linecap="butt"></path><path d="M236.91497,172.24517l-1.74512,-2.56181l3.44045,-0.41362l-1.26624,3.12915z" fill="#ffffff" stroke="none" stroke-linecap="butt"></path><path d="M237.40722,201.95514l-1.30169,-10.8273l3.13688,-0.37712l1.30169,10.8273z" fill="#66a6ff" stroke="none" stroke-linecap="butt"></path><path d="M242.5032,201.65044l-1.30169,-10.8273l3.13688,-0.37712l1.30169,10.8273z" fill="#66a6ff" stroke="none" stroke-linecap="butt"></path><path d="M235.33533,204.35992l-0.34063,-2.83331c0,0 0.94152,0.30826 1.77306,-0.37546c0.77494,-0.63719 1.42506,-2.26738 1.9057,-2.32516c0.56105,-0.06745 1.78548,2.04369 1.78548,2.04369l0.34063,2.83331z" fill="#a06140" stroke="none" stroke-linecap="butt"></path><path d="M242.30526,203.41933l-0.34063,-2.83331c0,0 0.68915,-2.3412 1.25021,-2.40865c0.48064,-0.05779 1.49862,1.37186 2.40251,1.80722c0.9699,0.46715 1.81152,-0.05549 1.81152,-0.05549l0.34063,2.83331z" data-paper-data="{&quot;index&quot;:null}" fill="#a06140" stroke="none" stroke-linecap="butt"></path><path d="M230.87606,187.69593c0,0 -0.38113,-5.83753 -0.15699,-8.67552c0.2212,-2.80081 1.49308,-8.24233 1.49308,-8.24233l1.01929,5.04668l-0.58797,13.74834z" fill="#f1ad60" stroke="none" stroke-linecap="butt"></path><path d="M246.85997,189.30108l-3.82984,-13.21722l-0.20591,-5.14447c0,0 2.52539,4.98501 3.40413,7.65358c0.89041,2.70399 1.90375,8.46552 1.90375,8.46552z" data-paper-data="{&quot;index&quot;:null}" fill="#f1ad60" stroke="none" stroke-linecap="butt"></path><path d="M233.87763,174.30409c0.18477,1.53685 -0.07319,2.83174 -0.57616,2.8922c-0.50297,0.06047 -1.06049,-1.13638 -1.24525,-2.67323c-0.18477,-1.53685 0.07319,-2.83174 0.57616,-2.8922c0.50297,-0.06047 1.06049,1.13638 1.24525,2.67323z" fill="#da5757" stroke="none" stroke-linecap="butt"></path><path d="M243.90371,174.0226c0.18477,1.53685 -0.07319,2.83174 -0.57616,2.8922c-0.50297,0.06047 -1.06049,-1.13638 -1.24525,-2.67323c-0.18477,-1.53685 0.07319,-2.83174 0.57616,-2.8922c0.50297,-0.06047 1.06049,1.13638 1.24525,2.67323z" fill="#da5757" stroke="none" stroke-linecap="butt"></path><path d="M239.83033,190.68211l-2.63701,-18.13525" fill="none" stroke="#000000" stroke-linecap="round"></path><path d="M231.40728,161.17946c0,0 0.0392,0.94766 0.01489,0.74545c-0.02578,-0.21447 -0.89317,-1.83545 -0.89317,-1.83545c0,0 2.8779,-1.31741 4.45176,-1.50662c1.68422,-0.20248 5.34494,0.32883 5.34494,0.32883l0.31276,1.97995c0,0 -2.4816,-0.16153 -4.96332,0.24508c-1.60294,0.26263 -3.37929,1.13152 -3.90519,1.19474c-0.20905,0.02513 -0.03554,-0.6301 -0.27045,-0.90575c-0.19448,-0.22819 -0.09222,-0.24623 -0.09222,-0.24623z" fill="#000000" stroke="none" stroke-linecap="butt"></path><path d="M236.17092,160.20582c0.07765,0.21156 -0.65456,0.67489 -1.63542,1.03488c-0.98086,0.35999 -1.83895,0.48032 -1.9166,0.26876c-0.07765,-0.21156 0.65456,-0.67489 1.63542,-1.03488c0.98086,-0.35999 1.83895,-0.48032 1.9166,-0.26876z" fill="#484343" stroke="none" stroke-linecap="butt"></path><path d="M236.70482,192.81293l0.27129,1.01353" fill="none" stroke="#0035ea" stroke-linecap="round"></path><path d="M238.48837,197.08195l-0.02979,-1.49091" fill="none" stroke="#0035ea" stroke-linecap="round"></path><path d="M237.41286,196.83763l0.35099,1.67645" fill="none" stroke="#0035ea" stroke-linecap="round"></path><path d="M243.52096,197.29888l-0.19763,-1.02237l-0.2391,-1.98881" fill="none" stroke="#0035ea" stroke-linecap="round"></path><path d="M243.37522,191.1143l0.04468,2.23635" fill="none" stroke="#0035ea" stroke-linecap="round"></path><path d="M242.20271,191.92778l0.19482,1.62051" fill="none" stroke="#0035ea" stroke-linecap="round"></path><path d="M244.2809,196.16138l0.28901,1.16084" fill="none" stroke="#0035ea" stroke-linecap="round"></path><path d="M237.98923,191.68709l0.24191,1.39068" fill="none" stroke="#0035ea" stroke-linecap="round"></path><path d="M238.98105,199.93695l-0.71003,0.30954" fill="none" stroke="#000000" stroke-linecap="round"></path><path d="M238.97543,201.13322l0.62752,-0.37434" fill="none" stroke="#000000" stroke-linecap="round"></path><path d="M243.25934,200.09513l0.69555,0.81307" fill="none" stroke="#000000" stroke-linecap="round"></path><path d="M244.73858,200.5898l-0.90767,-0.71284" fill="none" stroke="#000000" stroke-linecap="round"></path><path d="M230.62177,178.73394l1.23418,-5.58734l1.8145,2.03755l-1.11666,4.07872z" fill="#da5757" stroke="none" stroke-linecap="butt"></path><path d="M244.49329,179.46767l-2.05158,-3.69783l1.27986,-2.40957l2.52332,5.1356z" data-paper-data="{&quot;index&quot;:null}" fill="#da5757" stroke="none" stroke-linecap="butt"></path><path d="M231.47032,189.91011l0.44113,-2.1l0.75075,0.10196l-0.2745,2.02127c0,0 -0.38725,0.46012 -0.55215,0.45595c-0.13479,-0.00342 -0.36524,-0.47917 -0.36524,-0.47917z" fill="#f1ad60" stroke="none" stroke-linecap="butt"></path><path d="M230.56655,189.25272l0.44113,-2.10001l0.75076,0.10196l-0.2745,2.02128c0,0 -0.38725,0.46012 -0.55215,0.45594c-0.13479,-0.00342 -0.36524,-0.47916 -0.36524,-0.47916z" fill="#f1ad60" stroke="none" stroke-linecap="butt"></path><path d="M229.54411,188.29693l1.64573,-1.37702l0.52678,0.54455l-1.4661,1.41825c0,0 -0.5889,0.12194 -0.71587,0.01665c-0.10379,-0.08607 0.00947,-0.60243 0.00947,-0.60243z" fill="#f1ad60" stroke="none" stroke-linecap="butt"></path><path d="M233.23134,190.05663l-1.15391,-1.80918l0.60779,-0.45236l1.21789,1.63634c0,0 0.04518,0.5997 -0.07557,0.71207c-0.0987,0.09186 -0.5962,-0.08687 -0.5962,-0.08687z" fill="#f1ad60" stroke="none" stroke-linecap="butt"></path><path d="M233.94534,188.94206l-1.99858,-0.78122l0.2243,-0.72369l1.94838,0.60389c0,0 0.39001,0.4578 0.3587,0.61976c-0.02558,0.13238 -0.53281,0.28127 -0.53281,0.28127z" fill="#f1ad60" stroke="none" stroke-linecap="butt"></path><path d="M248.09363,190.54497c-0.15921,0.04314 -0.64448,-0.31209 -0.64448,-0.31209l-0.74575,-1.89861l0.70519,-0.27699l0.9263,1.9356c0,0 -0.11113,0.51683 -0.24126,0.55209z" data-paper-data="{&quot;index&quot;:null}" fill="#f1ad60" stroke="none" stroke-linecap="butt"></path><path d="M248.51956,189.66902c-0.15921,0.04314 -0.64448,-0.31209 -0.64448,-0.31209l-0.74576,-1.89861l0.70519,-0.27699l0.9263,1.9356c0,0 -0.11112,0.51682 -0.24126,0.55209z" data-paper-data="{&quot;index&quot;:null}" fill="#f1ad60" stroke="none" stroke-linecap="butt"></path><path d="M249.97584,188.55213c-0.0984,0.13239 -0.69942,0.1535 -0.69942,0.1535l-1.76047,-1.03034l0.3827,-0.65389l1.92521,0.94772c0,0 0.23242,0.4748 0.15198,0.58301z" data-paper-data="{&quot;index&quot;:null}" fill="#f1ad60" stroke="none" stroke-linecap="butt"></path><path d="M246.10017,190.77833c-0.14395,-0.08055 -0.24219,-0.67387 -0.24219,-0.67387l0.79534,-1.87838l0.69769,0.29542l-0.69222,2.03112c0,0 -0.44096,0.29156 -0.55861,0.22571z" data-paper-data="{&quot;index&quot;:null}" fill="#f1ad60" stroke="none" stroke-linecap="butt"></path><path d="M245.11665,189.49208c-0.06879,-0.14992 0.20158,-0.68711 0.20158,-0.68711l1.74973,-1.04849l0.38944,0.6499l-1.75646,1.23266c0,0 -0.52806,-0.02442 -0.58429,-0.14697z" data-paper-data="{&quot;index&quot;:null}" fill="#f1ad60" stroke="none" stroke-linecap="butt"></path></g><g stroke-linecap="butt"><path d="M247.08359,204.68147v-53.38584h13.70863v53.38584z" fill="url(#color-1)" stroke="none"></path><path d="M250.41936,198.94165v-9.6764h7.08089v9.6764z" fill="none" stroke="#7b3100"></path><path d="M250.60092,181.86565v-9.6764h7.08089v9.6764z" fill="none" stroke="#7b3100"></path><path d="M250.70509,164.38374v-9.6764h7.08089v9.6764z" fill="none" stroke="#7b3100"></path><g><path d="M250.02379,179.99906c-0.69733,-0.26378 -1.11258,-1.45234 -0.92748,-2.65473c0.1851,-1.20239 0.90046,-1.96329 1.5978,-1.69952c0.69733,0.26378 1.11258,1.45234 0.92748,2.65473c-0.1851,1.20239 -0.90046,1.96329 -1.59779,1.69952z" fill="#fff4ce" stroke="#e6ddbb"></path><path d="M250.47452,178.80037c-0.43322,-0.16387 -0.6912,-0.90227 -0.5762,-1.64926c0.11499,-0.74699 0.55941,-1.2197 0.99264,-1.05583c0.43322,0.16387 0.6912,0.90227 0.5762,1.64926c-0.11499,0.74699 -0.55941,1.2197 -0.99264,1.05583z" fill="#e6ddbb" stroke="#e6ddbb"></path><path d="M247.94726,178.08443l1.02187,-0.6089l0.38845,1.6018l-1.02187,0.6089z" fill="#e6ddbb" stroke="none"></path><path d="M248.79073,180.015c-0.36097,0.787 -0.64131,-0.09928 -0.76814,-0.50985c-0.1979,-0.64066 -0.16114,-1.27797 0.00045,-1.86747l-0.03602,-0.01363l0.05129,-0.33316v0c0.02445,-0.15885 0.12643,-0.25654 0.22776,-0.21821c0.07325,0.02771 0.12612,0.1189 0.14057,0.22732l0.05406,0.36711l-0.00755,0.00273l0.01108,0.02912c0.00027,0.03229 0.00053,0.06457 0.00079,0.09686c0.0262,0.03407 0.046,0.07865 0.05738,0.12856c0.03292,0.05496 0.05195,0.12878 0.05127,0.20651l0.00174,0.33171c0.02178,0.21155 0.27416,1.4241 0.21532,1.55241z" fill="#fff4ce" stroke="none"></path></g></g><g stroke-linecap="butt"><path d="M217.3044,204.62082v-53.38584h15.43605v53.38584z" fill="url(#color-2)" stroke="none"></path><path d="M220.39653,164.47355v-9.6764h7.64492v9.6764z" fill="none" stroke="#7b3100"></path><path d="M220.34029,181.8948v-9.6764h7.64492v9.6764z" fill="none" stroke="#7b3100"></path><path d="M220.18605,198.46226v-9.6764h7.64492v9.6764z" fill="none" stroke="#7b3100"></path><g data-paper-data="{&quot;index&quot;:null}"><path d="M228.47594,178.16541c-0.19985,-1.20239 0.24847,-2.39095 1.00135,-2.65473c0.75289,-0.26377 1.52523,0.49712 1.72507,1.69952c0.19985,1.20239 -0.24848,2.39095 -1.00136,2.65473c-0.75289,0.26378 -1.52522,-0.49712 -1.72507,-1.69952z" fill="#fff4ce" stroke="#e6ddbb"></path><path d="M228.64268,177.61041c-0.12416,-0.74699 0.15436,-1.48539 0.6221,-1.64926c0.46773,-0.16387 0.94756,0.30884 1.07171,1.05583c0.12416,0.74699 -0.15436,1.48539 -0.6221,1.64926c-0.46773,0.16387 -0.94755,-0.30884 -1.0717,-1.05583z" fill="#e6ddbb" stroke="#e6ddbb"></path><path d="M232.02356,179.55209l-1.10327,-0.6089l0.41939,-1.6018l1.10327,0.6089z" fill="#e6ddbb" stroke="none"></path><path d="M231.53229,179.88087c-0.06353,-0.1283 0.20896,-1.34085 0.23248,-1.55241l0.00187,-0.33171c-0.00073,-0.07773 0.01982,-0.15155 0.05536,-0.20651c0.01229,-0.04991 0.03367,-0.09448 0.06196,-0.12856c0.00028,-0.03229 0.00057,-0.06457 0.00085,-0.09686l0.01196,-0.02912l-0.00815,-0.00273l0.05837,-0.36711c0.0156,-0.10841 0.07267,-0.19961 0.15176,-0.22732c0.10941,-0.03833 0.21951,0.05937 0.24591,0.21821v0l0.05538,0.33316l-0.03889,0.01363c0.17446,0.5895 0.21415,1.2268 0.00049,1.86747c-0.13693,0.41056 -0.43961,1.29685 -0.82933,0.50985z" fill="#fff4ce" stroke="none"></path></g></g></g></g></svg>