<svg version="1.1" xmlns="http://www.w3.org/2000/svg" xmlns:xlink="http://www.w3.org/1999/xlink" width="132.93404" height="257.24579" viewBox="0,0,132.93404,257.24579"><defs><linearGradient x1="70.37956" y1="159.15607" x2="124.37956" y2="159.15607" gradientUnits="userSpaceOnUse" id="color-1"><stop offset="0" stop-color="#c6634f"></stop><stop offset="1" stop-color="#ffbc66"></stop></linearGradient><radialGradient cx="159.03623" cy="277.34153" r="20.42666" gradientUnits="userSpaceOnUse" id="color-2"><stop offset="0" stop-color="#ffffff"></stop><stop offset="1" stop-color="#ad4545"></stop></radialGradient></defs><g transform="translate(-37.06783,-97.19916)"><g data-paper-data="{&quot;isPaintingLayer&quot;:true}" fill-rule="nonzero" stroke-linejoin="miter" stroke-miterlimit="10" stroke-dasharray="" stroke-dashoffset="0" style="mix-blend-mode: normal"><path d="M65.14645,353.01186v-151.43636h59.15483v151.43636z" fill="#b98585" stroke="none" stroke-width="0" stroke-linecap="butt"></path><path d="M126.74509,193.74201c-6.10998,15.71134 -24.08062,23.38555 -40.1386,17.14082c-16.05797,-6.24476 -24.12234,-24.0437 -18.01236,-39.75508c6.10998,-15.71134 24.08062,-23.38556 40.13858,-17.14083c16.05797,6.24476 24.12234,24.0437 18.01236,39.7551z" fill="#fffad7" stroke="none" stroke-width="0" stroke-linecap="butt"></path><path d="M83.33522,172.57547c0.33695,-0.86645 1.31247,-1.29568 2.17892,-0.95873c0.86645,0.33695 1.29568,1.31247 0.95873,2.17892c-0.33695,0.86645 -1.31246,1.29568 -2.17892,0.95873c-0.86645,-0.33695 -1.29568,-1.31247 -0.95873,-2.17892z" fill="#000000" stroke="none" stroke-width="0.5" stroke-linecap="butt"></path><path d="M105.20936,197.61121c0.54601,1.59226 -1.04625,2.13828 -1.04625,2.13828l-0.90392,0.25685c-7.32544,4.68703 -15.90619,2.98907 -21.99201,-2.87988c0,0 -1.20045,-1.17998 -0.02047,-2.38041c1.17998,-1.20044 2.38043,-0.02046 2.38043,-0.02046c4.79403,4.83165 11.94757,6.31572 17.80028,2.45617l1.64369,-0.61675c0,0 1.59227,-0.54602 2.13828,1.04624z" fill="#000000" stroke="none" stroke-width="0.5" stroke-linecap="butt"></path><path d="M42.29336,283.60217l14.47297,-71.56081l16.36077,7.03375l-14.47296,71.56081z" fill="#fffad7" stroke="none" stroke-width="0" stroke-linecap="butt"></path><path d="M147.63849,293.51528l-33.47189,-64.88493l17.16445,-4.74645l33.47191,64.88493z" fill="#fffad7" stroke="none" stroke-width="0" stroke-linecap="butt"></path><path d="M111.13799,174.35012c0.33695,-0.86645 1.31247,-1.29568 2.17892,-0.95873c0.86645,0.33695 1.29568,1.31247 0.95873,2.17892c-0.33695,0.86645 -1.31246,1.29568 -2.17892,0.95873c-0.86645,-0.33695 -1.29568,-1.31247 -0.95873,-2.17892z" fill="#000000" stroke="none" stroke-width="0.5" stroke-linecap="butt"></path><path d="M75.79432,351.82877l3.54929,-146.70397" fill="none" stroke="#000000" stroke-width="0.5" stroke-linecap="round"></path><path d="M110.69567,209.26563l0.59155,144.92932" fill="none" stroke="#000000" stroke-width="0.5" stroke-linecap="round"></path><path d="M70.37956,166.48941l4.33333,-10l31,-6.66667l18.66667,18.66667z" fill="url(#color-1)" stroke="none" stroke-width="NaN" stroke-linecap="butt"></path><path d="M75.37956,160.15607l36.33333,6.66667" fill="none" stroke="#000000" stroke-width="0.5" stroke-linecap="round"></path><path d="M89.04622,154.82274l27,7" fill="none" stroke="#000000" stroke-width="0.5" stroke-linecap="round"></path><g><path d="M69.47368,163.44849c0,0 -5.7729,-3.01393 -6.21465,-5.1853c-0.30014,-1.47514 3.82062,-6.58202 3.82062,-6.58202l56.66888,-11.52923c0,0 5.47933,3.15587 5.842,4.93865c0.42529,2.09046 -3.44797,6.82868 -3.44797,6.82868z" fill="#000000" stroke="none" stroke-width="0" stroke-linecap="butt"></path><path d="M83.6852,131.85615l-6.61511,-32.51494l10.52865,-2.14203l6.61511,32.51494z" fill="#00d95b" stroke="none" stroke-width="0" stroke-linecap="butt"></path><path d="M110.60614,131.71649l-7.92527,-4.54702c0,0 13.00651,-14.84169 19.47249,-19.04977c5.32663,-3.46659 20.38301,4.81344 20.38301,4.81344l1.70097,15.16535c0,0 -5.15346,2.12019 -6.58472,1.16483c-4.39346,-2.93261 -7.81111,-16.4483 -12.58656,-12.65057c-5.55569,4.4182 -14.45992,15.10375 -14.45992,15.10375z" fill="#d90000" stroke="none" stroke-width="0" stroke-linecap="butt"></path><path d="M145.18859,129.82402c0.53931,2.65088 -1.24178,5.25111 -3.97814,5.80786c-2.73636,0.55671 -5.39188,-1.14094 -5.93118,-3.79178c-0.53931,-2.65088 1.24179,-5.25111 3.97814,-5.80787c2.73636,-0.55671 5.39187,1.14094 5.93118,3.79179z" fill="#ffc500" stroke="none" stroke-width="0" stroke-linecap="butt"></path><path d="M136.84844,128.45724l6.897,5.36899" fill="none" stroke="#000000" stroke-width="0.5" stroke-linecap="round"></path><path d="M137.0481,132.6089l5.86764,-6.03102" fill="none" stroke="#000000" stroke-width="0.5" stroke-linecap="round"></path><path d="M54.58713,129.33919c-5.87974,-1.6299 -3.74474,12.14675 -6.64313,16.56284c-0.94422,1.43866 -6.51646,1.50057 -6.51646,1.50057l-4.35971,-14.62445c0,0 10.62429,-13.50476 16.88199,-12.39495c7.59619,1.34717 25.36785,9.92706 25.36785,9.92706l-5.51864,7.28218c0,0 -12.37155,-6.35701 -19.21187,-8.25326z" data-paper-data="{&quot;index&quot;:null}" fill="#0048d9" stroke="none" stroke-width="0" stroke-linecap="butt"></path><path d="M45.20432,143.55484c2.73636,-0.55671 5.39187,1.14091 5.93118,3.79179c0.53931,2.65088 -1.24177,5.25116 -3.97813,5.80787c-2.73636,0.55671 -5.39188,-1.14094 -5.93119,-3.79182c-0.53931,-2.65088 1.24178,-5.25111 3.97814,-5.80782z" data-paper-data="{&quot;index&quot;:null}" fill="#ffc500" stroke="none" stroke-width="0" stroke-linecap="butt"></path><path d="M44.11836,152.48285l4.25096,-7.63701" data-paper-data="{&quot;index&quot;:null}" fill="none" stroke="#000000" stroke-width="0.5" stroke-linecap="round"></path><path d="M42.05,145.48654l7.75767,3.25895" data-paper-data="{&quot;index&quot;:null}" fill="none" stroke="#000000" stroke-width="0.5" stroke-linecap="round"></path><path d="M81.76308,112.89816l-4.56704,-12.93762l10.40264,-2.76138l0.04808,14.50197z" fill="#00964e" stroke="none" stroke-width="0" stroke-linecap="butt"></path><path d="M90.52828,111.5986c0.53931,2.65088 -1.24177,5.25116 -3.97813,5.80787c-2.73636,0.55671 -5.39188,-1.14095 -5.93119,-3.79182c-0.53931,-2.65088 1.24178,-5.25111 3.97814,-5.80782c2.73636,-0.55671 5.39187,1.14091 5.93118,3.79179z" fill="#ffc500" stroke="none" stroke-width="0" stroke-linecap="butt"></path><path d="M82.18812,110.23182l6.897,5.36899" fill="none" stroke="#000000" stroke-width="0.5" stroke-linecap="round"></path><path d="M88.25543,108.35245l-5.86764,6.03104" fill="none" stroke="#000000" stroke-width="0.5" stroke-linecap="round"></path><path d="M66.83295,152.05384l-3.46506,-17.03163c0,0 17.57511,-9.38033 27.04559,-11.3071c9.41884,-1.91627 29.62329,-0.22213 29.62329,-0.22213l3.46508,17.03164z" fill="#dadada" stroke="none" stroke-width="0" stroke-linecap="butt"></path><path d="M65.95628,149.32988l22.90888,-25.29971l33.45567,15.44484" fill="none" stroke="#4a00f3" stroke-width="0.25" stroke-linecap="round"></path></g><path d="M98.29467,138.45248c0,1.64494 -2.37062,2.97843 -5.29498,2.97843c-2.92435,0 -5.29498,-1.3335 -5.29498,-2.97843c0,-1.64494 2.37063,-2.97843 5.29498,-2.97843c2.92435,0 5.29498,1.33349 5.29498,2.97843z" fill="#ec00ff" stroke="none" stroke-width="0" stroke-linecap="butt"></path><g stroke-linecap="butt"><path d="M169.75187,288.392c0,11.28132 -8.2458,20.42666 -18.41746,20.42666c-10.1717,0 -18.41745,-9.14534 -18.41745,-20.42666c0,-11.28131 8.24579,-20.42665 18.41745,-20.42665c10.1717,0 18.41746,9.14534 18.41746,20.42665z" fill="url(#color-2)" stroke="#000000" stroke-width="0.5"></path><path d="M158.41844,275.21915c0,1.41602 -1.1479,2.56391 -2.56391,2.56391c-1.41602,0 -2.56392,-1.1479 -2.56392,-2.56391c0,-1.41602 1.14791,-2.56392 2.56392,-2.56392c1.41602,0 2.56391,1.1479 2.56391,2.56392z" fill="#000000" stroke="none" stroke-width="0"></path><path d="M163.90486,278.46212c0,1.41602 -1.1479,2.56391 -2.56391,2.56391c-1.41602,0 -2.56392,-1.1479 -2.56392,-2.56391c0,-1.41602 1.1479,-2.56392 2.56392,-2.56392c1.41602,0 2.56391,1.14791 2.56391,2.56392z" fill="#000000" stroke="none" stroke-width="0"></path><path d="M158.81515,281.70513c0,1.41602 -1.1479,2.56391 -2.56391,2.56391c-1.41602,0 -2.56392,-1.1479 -2.56392,-2.56391c0,-1.41602 1.14791,-2.56391 2.56392,-2.56391c1.41602,0 2.56391,1.1479 2.56391,2.56391z" fill="#000000" stroke="none" stroke-width="0"></path></g></g></g></svg>