<svg version="1.1" xmlns="http://www.w3.org/2000/svg" xmlns:xlink="http://www.w3.org/1999/xlink" width="113.97814" height="84.54754" viewBox="0,0,113.97814,84.54754"><defs><linearGradient x1="209.80417" y1="172.99208" x2="212.06334" y2="175.06427" gradientUnits="userSpaceOnUse" id="color-1"><stop offset="0" stop-color="#d27a00"></stop><stop offset="1" stop-color="#8d3800"></stop></linearGradient><linearGradient x1="212.05679" y1="175.06952" x2="214.34465" y2="177.16802" gradientUnits="userSpaceOnUse" id="color-2"><stop offset="0" stop-color="#8d3800"></stop><stop offset="1" stop-color="#d27a00"></stop></linearGradient><radialGradient cx="202.71017" cy="199.3238" r="1.38822" gradientUnits="userSpaceOnUse" id="color-3"><stop offset="0" stop-color="#f8ff21"></stop><stop offset="1" stop-color="#ffb900"></stop></radialGradient><radialGradient cx="205.19858" cy="188.44349" r="3.33052" gradientUnits="userSpaceOnUse" id="color-4"><stop offset="0" stop-color="#cc9500"></stop><stop offset="1" stop-color="#ffb900"></stop></radialGradient><linearGradient x1="203.92557" y1="196.32828" x2="202.84273" y2="198.9971" gradientUnits="userSpaceOnUse" id="color-5"><stop offset="0" stop-color="#080000"></stop><stop offset="1" stop-color="#909090"></stop></linearGradient><radialGradient cx="210.10468" cy="197.67596" r="0.90126" gradientUnits="userSpaceOnUse" id="color-6"><stop offset="0" stop-color="#fff85d"></stop><stop offset="1" stop-color="#fff85d" stop-opacity="0"></stop></radialGradient><linearGradient x1="209.32037" y1="198.86568" x2="209.77355" y2="199.04956" gradientUnits="userSpaceOnUse" id="color-7"><stop offset="0" stop-color="#fff3d5"></stop><stop offset="1" stop-color="#ffd3c2"></stop></linearGradient><radialGradient cx="208.30742" cy="196.46571" r="0.90126" gradientUnits="userSpaceOnUse" id="color-8"><stop offset="0" stop-color="#fff85d"></stop><stop offset="1" stop-color="#fff85d" stop-opacity="0"></stop></radialGradient><linearGradient x1="207.52312" y1="197.65543" x2="207.97629" y2="197.83931" gradientUnits="userSpaceOnUse" id="color-9"><stop offset="0" stop-color="#fff3d5"></stop><stop offset="1" stop-color="#ffd3c2"></stop></linearGradient><radialGradient cx="200.76637" cy="193.35301" r="0.90126" gradientUnits="userSpaceOnUse" id="color-10"><stop offset="0" stop-color="#fff85d"></stop><stop offset="1" stop-color="#fff85d" stop-opacity="0"></stop></radialGradient><linearGradient x1="199.98207" y1="194.54273" x2="200.43524" y2="194.7266" gradientUnits="userSpaceOnUse" id="color-11"><stop offset="0" stop-color="#fff3d5"></stop><stop offset="1" stop-color="#ffd3c2"></stop></linearGradient><radialGradient cx="198.48326" cy="192.75414" r="0.90126" gradientUnits="userSpaceOnUse" id="color-12"><stop offset="0" stop-color="#fff85d"></stop><stop offset="1" stop-color="#fff85d" stop-opacity="0"></stop></radialGradient><linearGradient x1="197.69895" y1="193.94386" x2="198.15213" y2="194.12773" gradientUnits="userSpaceOnUse" id="color-13"><stop offset="0" stop-color="#fff3d5"></stop><stop offset="1" stop-color="#ffd3c2"></stop></linearGradient><radialGradient cx="204.69" cy="179.1798" r="1.38822" gradientUnits="userSpaceOnUse" id="color-14"><stop offset="0" stop-color="#f8ff21"></stop><stop offset="1" stop-color="#ffb900"></stop></radialGradient><radialGradient cx="196.41807" cy="171.68658" r="3.33052" gradientUnits="userSpaceOnUse" id="color-15"><stop offset="0" stop-color="#cc9500"></stop><stop offset="1" stop-color="#ffb900"></stop></radialGradient><linearGradient x1="202.67205" y1="176.65429" x2="204.46991" y2="178.90436" gradientUnits="userSpaceOnUse" id="color-16"><stop offset="0" stop-color="#080000"></stop><stop offset="1" stop-color="#909090"></stop></linearGradient><radialGradient cx="206.87043" cy="171.92447" r="0.90126" gradientUnits="userSpaceOnUse" id="color-17"><stop offset="0" stop-color="#fff85d"></stop><stop offset="1" stop-color="#fff85d" stop-opacity="0"></stop></radialGradient><linearGradient x1="207.52435" y1="173.19055" x2="207.90642" y2="172.88527" gradientUnits="userSpaceOnUse" id="color-18"><stop offset="0" stop-color="#fff3d5"></stop><stop offset="1" stop-color="#ffd3c2"></stop></linearGradient><radialGradient cx="204.93563" cy="172.89987" r="0.90126" gradientUnits="userSpaceOnUse" id="color-19"><stop offset="0" stop-color="#fff85d"></stop><stop offset="1" stop-color="#fff85d" stop-opacity="0"></stop></radialGradient><linearGradient x1="205.58955" y1="174.16595" x2="205.97162" y2="173.86066" gradientUnits="userSpaceOnUse" id="color-20"><stop offset="0" stop-color="#fff3d5"></stop><stop offset="1" stop-color="#ffd3c2"></stop></linearGradient><radialGradient cx="198.53158" cy="177.95402" r="0.90126" gradientUnits="userSpaceOnUse" id="color-21"><stop offset="0" stop-color="#fff85d"></stop><stop offset="1" stop-color="#fff85d" stop-opacity="0"></stop></radialGradient><linearGradient x1="199.18549" y1="179.2201" x2="199.56757" y2="178.91482" gradientUnits="userSpaceOnUse" id="color-22"><stop offset="0" stop-color="#fff3d5"></stop><stop offset="1" stop-color="#ffd3c2"></stop></linearGradient><radialGradient cx="196.89231" cy="179.65227" r="0.90126" gradientUnits="userSpaceOnUse" id="color-23"><stop offset="0" stop-color="#fff85d"></stop><stop offset="1" stop-color="#fff85d" stop-opacity="0"></stop></radialGradient><linearGradient x1="197.54622" y1="180.91835" x2="197.92829" y2="180.61307" gradientUnits="userSpaceOnUse" id="color-24"><stop offset="0" stop-color="#fff3d5"></stop><stop offset="1" stop-color="#ffd3c2"></stop></linearGradient><linearGradient x1="202.953" y1="189.78976" x2="202.953" y2="198.51755" gradientUnits="userSpaceOnUse" id="color-25"><stop offset="0" stop-color="#ffb466" stop-opacity="0"></stop><stop offset="1" stop-color="#ffb466"></stop></linearGradient><radialGradient cx="203.16303" cy="193.05685" r="3.9205" gradientUnits="userSpaceOnUse" id="color-26"><stop offset="0" stop-color="#ffb466"></stop><stop offset="1" stop-color="#ffb466" stop-opacity="0"></stop></radialGradient><linearGradient x1="206.14146" y1="174.85607" x2="201.13325" y2="182.00394" gradientUnits="userSpaceOnUse" id="color-27"><stop offset="0" stop-color="#ffb466" stop-opacity="0"></stop><stop offset="1" stop-color="#ffb466"></stop></linearGradient><radialGradient cx="204.43874" cy="177.65226" r="3.9205" gradientUnits="userSpaceOnUse" id="color-28"><stop offset="0" stop-color="#ffb466"></stop><stop offset="1" stop-color="#ffb466" stop-opacity="0"></stop></radialGradient><linearGradient x1="220.70212" y1="180.28715" x2="219.10421" y2="188.71286" gradientUnits="userSpaceOnUse" id="color-29"><stop offset="0" stop-color="#ffb466" stop-opacity="0"></stop><stop offset="1" stop-color="#ffb466"></stop></linearGradient><radialGradient cx="219.48187" cy="184.05601" r="3.9205" gradientUnits="userSpaceOnUse" id="color-30"><stop offset="0" stop-color="#ffb466"></stop><stop offset="1" stop-color="#ffb466" stop-opacity="0"></stop></radialGradient><linearGradient x1="194.44989" y1="197.79202" x2="192.66887" y2="204.50164" gradientUnits="userSpaceOnUse" id="color-31"><stop offset="0" stop-color="#ffb466" stop-opacity="0"></stop><stop offset="1" stop-color="#ffb466"></stop></linearGradient><radialGradient cx="193.94466" cy="200.3465" r="3.11832" gradientUnits="userSpaceOnUse" id="color-32"><stop offset="0" stop-color="#ffb466"></stop><stop offset="1" stop-color="#ffb466" stop-opacity="0"></stop></radialGradient><radialGradient cx="197.19907" cy="160.15715" r="0.00029" gradientUnits="userSpaceOnUse" id="color-33"><stop offset="0" stop-color="#c47f4e"></stop><stop offset="1" stop-color="#99693d"></stop></radialGradient></defs><g transform="translate(-183.01093,-137.72623)"><g data-paper-data="{&quot;isPaintingLayer&quot;:true}" fill-rule="nonzero" stroke-linejoin="miter" stroke-miterlimit="10" stroke-dasharray="" stroke-dashoffset="0" style="mix-blend-mode: normal"><g><path d="M208.16867,188.93798v-6.30081h9.24119v6.30081z" fill="#505050" stroke="none" stroke-width="0.15" stroke-linecap="butt"></path><text transform="translate(211.60679,173.83679) rotate(42.5271) scale(0.01835,0.01835)" font-size="40" xml:space="preserve" fill="#ffffff" fill-rule="nonzero" stroke="none" stroke-width="0.3" stroke-linecap="butt" stroke-linejoin="miter" stroke-miterlimit="10" stroke-dasharray="" stroke-dashoffset="0" font-family="Sans Serif" font-weight="normal" text-anchor="start" style="mix-blend-mode: normal"><tspan x="0" dy="0">xAmt8</tspan></text><path d="M207.33607,175.68289l4.93618,-5.38161l2.25917,2.07218l-4.93618,5.38161z" fill="url(#color-1)" stroke="none" stroke-width="0.15" stroke-linecap="butt"></path><path d="M209.5887,177.76032l4.93618,-5.38161l2.28786,2.0985l-4.93618,5.38161z" fill="url(#color-2)" stroke="none" stroke-width="0.15" stroke-linecap="butt"></path><path d="M207.23566,175.69297l5.02613,-5.47967c0,0 1.32729,1.21743 2.05129,1.88151c0.81454,0.74712 2.59639,2.38149 2.59639,2.38149l-5.02613,5.47967z" fill="none" stroke="#652800" stroke-width="0.15" stroke-linecap="butt"></path><path d="M209.58582,177.79578l4.93996,-5.24175" fill="none" stroke="#652800" stroke-width="0.15" stroke-linecap="round"></path><path d="M211.50074,172.0509l0.8947,-0.97544l1.11888,1.02628l-0.8947,0.97544z" fill="none" stroke="#7b3100" stroke-width="0.15" stroke-linecap="butt"></path><path d="M209.8817,173.79952l0.8947,-0.97544l1.11888,1.02628l-0.8947,0.97544z" fill="none" stroke="#7b3100" stroke-width="0.15" stroke-linecap="butt"></path><path d="M208.32726,175.44891l0.8947,-0.97544l1.11888,1.02628l-0.8947,0.97544z" fill="none" stroke="#7b3100" stroke-width="0.15" stroke-linecap="butt"></path><path d="M210.74005,177.72608l0.8947,-0.97544l1.11888,1.02628l-0.8947,0.97544z" fill="none" stroke="#7b3100" stroke-width="0.15" stroke-linecap="butt"></path><path d="M212.34762,176.03103l0.8947,-0.97544l1.11888,1.02628l-0.8947,0.97544z" fill="none" stroke="#7b3100" stroke-width="0.15" stroke-linecap="butt"></path><path d="M213.9805,174.28385l0.8947,-0.97544l1.11888,1.02628l-0.8947,0.97544z" fill="none" stroke="#7b3100" stroke-width="0.15" stroke-linecap="butt"></path><path d="M212.21163,170.00882l0.39472,-0.43034c0,0 1.87813,0.95669 2.66237,1.67603c0.84632,0.77627 2.24351,2.8238 2.24351,2.8238l-0.39472,0.43034z" fill="#652800" stroke="#311300" stroke-width="0.15" stroke-linecap="butt"></path><g stroke-width="0.15" stroke-linecap="butt"><path d="M212.42902,175.75922c-0.0858,-0.12766 -0.04152,-0.30766 0.09891,-0.40204c0.14043,-0.09438 0.32382,-0.0674 0.40962,0.06026c0.0858,0.12766 0.04152,0.30766 -0.09891,0.40204c-0.14043,0.09438 -0.32382,0.0674 -0.40962,-0.06026z" fill="#fff4ce" stroke="#e6ddbb"></path><path d="M212.61107,175.70371c-0.0533,-0.07931 -0.02579,-0.19113 0.06145,-0.24977c0.08724,-0.05863 0.20117,-0.04187 0.25448,0.03744c0.0533,0.07931 0.02579,0.19113 -0.06145,0.24977c-0.08724,0.05863 -0.20117,0.04187 -0.25448,-0.03744z" fill="#e6ddbb" stroke="#e6ddbb"></path><path d="M212.27793,175.26525l0.21777,0.08673l-0.08673,0.21777l-0.21777,-0.08673z" fill="#e6ddbb" stroke="none"></path><path d="M212.2327,175.58212c-0.12981,0.02702 -0.09216,-0.10296 -0.07424,-0.16273c0.02796,-0.09327 0.0927,-0.15218 0.17274,-0.18819l-0.00443,-0.00659l0.03891,-0.02615v0c0.01855,-0.01247 0.0437,-0.00754 0.05617,0.01101c0.00901,0.01341 0.00894,0.03026 0.00119,0.04329l-0.0254,0.04484l-0.00145,-0.00082l-0.00094,0.00454c-0.00294,0.00329 -0.00589,0.00659 -0.00883,0.00988c0.00099,0.00723 0,0.01459 -0.00282,0.02128c0.00012,0.01031 -0.0037,0.02051 -0.01099,0.02825l-0.0304,0.03369c-0.01612,0.02448 -0.08835,0.18329 -0.10952,0.1877z" fill="#fff4ce" stroke="none"></path></g><g data-paper-data="{&quot;index&quot;:null}" stroke-width="0.15" stroke-linecap="butt"><path d="M211.41724,174.51573c0.08193,-0.14804 0.25744,-0.20767 0.39202,-0.13319c0.13458,0.07448 0.17726,0.25486 0.09533,0.4029c-0.08193,0.14804 -0.25744,0.20767 -0.39202,0.13319c-0.13458,-0.07448 -0.17726,-0.25486 -0.09533,-0.4029z" fill="#fff4ce" stroke="#e6ddbb"></path><path d="M211.49296,174.48217c0.0509,-0.09197 0.15993,-0.12901 0.24354,-0.08274c0.08361,0.04627 0.11013,0.15833 0.05923,0.2503c-0.0509,0.09197 -0.15993,0.12901 -0.24354,0.08274c-0.08361,-0.04627 -0.11013,-0.15833 -0.05923,-0.2503z" fill="#e6ddbb" stroke="#e6ddbb"></path><path d="M211.80824,175.13176l-0.10517,-0.20949l0.20949,-0.10517l0.10517,0.20949z" fill="#e6ddbb" stroke="none"></path><path d="M211.70594,175.09895c0.00256,-0.02146 0.15456,-0.10711 0.17756,-0.12529l0.03094,-0.03319c0.00708,-0.00794 0.01691,-0.01262 0.0272,-0.01339c0.00641,-0.00338 0.01366,-0.005 0.02095,-0.00464c0.00303,-0.00322 0.00605,-0.00643 0.00908,-0.00965l0.00444,-0.00133l-0.00094,-0.00137l0.04249,-0.02917c0.01231,-0.00884 0.02909,-0.01036 0.04323,-0.00254c0.01956,0.01082 0.02664,0.03545 0.01581,0.05501v0l-0.0227,0.04102l-0.00695,-0.00385c-0.02897,0.08284 -0.08209,0.15242 -0.1726,0.18832c-0.058,0.023 -0.18425,0.07171 -0.16852,-0.05994z" fill="#fff4ce" stroke="none"></path></g><g><text transform="translate(201.4759,199.02513) rotate(22.084) scale(0.0194,0.0194)" font-size="40" xml:space="preserve" fill="#ffffff" fill-rule="nonzero" stroke="none" stroke-width="0.3" stroke-linecap="butt" stroke-linejoin="miter" stroke-miterlimit="10" stroke-dasharray="" stroke-dashoffset="0" font-family="Sans Serif" font-weight="normal" text-anchor="start" style="mix-blend-mode: normal"><tspan x="0" dy="0">xAmt8</tspan></text><text transform="translate(204.80101,189.30613) rotate(22.08379) scale(0.03743,0.03743)" font-size="40" xml:space="preserve" fill="#000000" fill-rule="nonzero" stroke="none" stroke-width="0.3" stroke-linecap="butt" stroke-linejoin="miter" stroke-miterlimit="10" stroke-dasharray="" stroke-dashoffset="0" font-family="Marker" font-weight="normal" text-anchor="start" style="mix-blend-mode: normal"><tspan x="0" dy="0">xAmt8</tspan></text><path d="M207.06869,199.18983l-1.16821,1.23816l-2.16436,-0.87817" fill="none" stroke="#ffb900" stroke-width="0.15" stroke-linecap="round"></path><path d="M209.04309,200.41896l-1.01256,1.2062l-4.31215,-1.79717" fill="none" stroke="#ffb900" stroke-width="0.15" stroke-linecap="round"></path><path d="M201.69919,198.81305l-2.16436,-0.87817l0.02477,-1.7021" data-paper-data="{&quot;index&quot;:null}" fill="none" stroke="#ffb900" stroke-width="0.15" stroke-linecap="round"></path><path d="M201.5181,199.02493l-4.34529,-1.7155l0.11414,-1.57072" data-paper-data="{&quot;index&quot;:null}" fill="none" stroke="#ffb900" stroke-width="0.15" stroke-linecap="round"></path><path d="M203.99654,199.84573c-0.14641,0.36086 -0.84103,0.41972 -1.55147,0.13146c-0.71044,-0.28825 -1.16767,-0.81446 -1.02126,-1.17532c0.14641,-0.36086 0.84103,-0.41972 1.55147,-0.13146c0.71044,0.28825 1.16767,0.81446 1.02126,1.17532z" fill="url(#color-3)" stroke="none" stroke-width="0.15" stroke-linecap="butt"></path><path d="M202.45944,199.17252l3.54512,-8.73742l0.3318,0.13462l-3.54512,8.73742z" fill="#ffb900" stroke="none" stroke-width="0.15" stroke-linecap="butt"></path><path d="M206.42267,192.45958c-0.19217,0.47363 -0.7319,0.70179 -1.20553,0.50962c-0.47363,-0.19217 -0.70179,-0.7319 -0.50962,-1.20553c0.19217,-0.47363 0.7319,-0.70179 1.20553,-0.50962c0.47363,0.19217 0.70179,0.7319 0.50962,1.20553z" fill="none" stroke="#ffb900" stroke-width="0.15" stroke-linecap="butt"></path><path d="M205.46123,194.34692c-0.15557,0.38341 -0.5925,0.56812 -0.97591,0.41255c-0.38341,-0.15557 -0.56812,-0.59249 -0.41255,-0.97591c0.15557,-0.38341 0.5925,-0.56812 0.9759,-0.41255c0.38341,0.15557 0.56812,0.5925 0.41255,0.97591z" fill="none" stroke="#ffb900" stroke-width="0.15" stroke-linecap="butt"></path><path d="M204.63293,195.7889c-0.12354,0.30447 -0.47051,0.45115 -0.77498,0.32762c-0.30447,-0.12354 -0.45115,-0.47051 -0.32762,-0.77498c0.12354,-0.30447 0.47051,-0.45115 0.77498,-0.32762c0.30447,0.12354 0.45115,0.47051 0.32762,0.77498z" fill="none" stroke="#ffb900" stroke-width="0.15" stroke-linecap="butt"></path><path d="M209.99905,190.51084c-0.17289,0.42611 -1.94231,1.1374 -3.64675,0.44584c-1.70444,-0.69156 -2.69846,-2.52409 -2.52557,-2.9502c0.17289,-0.42611 1.69477,-0.21092 3.39921,0.48064c1.70444,0.69156 2.94601,1.59761 2.77312,2.02372z" fill="url(#color-4)" stroke="#000000" stroke-width="0.15" stroke-linecap="butt"></path><path d="M203.14455,196.31913l0.10721,-0.26424l1.34762,0.54678l-0.10721,0.26424c0,0 -0.65612,1.40256 -1.15548,1.97921c-0.1598,0.18453 -0.45032,0.16969 -0.50717,0.14662c-0.06821,-0.02768 -0.30949,-0.22933 -0.26715,-0.60385c0.08959,-0.79253 0.58218,-2.06875 0.58218,-2.06875z" fill="none" stroke="url(#color-5)" stroke-width="0.15" stroke-linecap="butt"></path><path d="M209.50828,200.67905c-0.03203,0.07894 -0.29568,0.04649 -0.58887,-0.07247c-0.2932,-0.11896 -0.50492,-0.27939 -0.47289,-0.35833c0.03203,-0.07894 0.29568,-0.04649 0.58887,0.07247c0.2932,0.11896 0.50492,0.27939 0.47289,0.35833z" fill="#ffc72d" stroke="none" stroke-width="0.15" stroke-linecap="butt"></path><path d="M207.54216,199.4295c-0.04576,0.11277 -0.26568,0.13 -0.49122,0.03849c-0.22554,-0.09151 -0.37128,-0.25711 -0.32552,-0.36988c0.04576,-0.11277 0.26568,-0.13 0.49122,-0.03849c0.22554,0.09151 0.37128,0.25711 0.32552,0.36988z" fill="#ffc72d" stroke="none" stroke-width="0.15" stroke-linecap="butt"></path><path d="M199.94648,196.34762c-0.02745,0.06766 -0.23254,0.04833 -0.45808,-0.04318c-0.22554,-0.09151 -0.38612,-0.22054 -0.35866,-0.2882c0.02745,-0.06766 0.23254,-0.04833 0.45808,0.04318c0.22554,0.09151 0.38612,0.22054 0.35866,0.2882z" fill="#ffc72d" stroke="none" stroke-width="0.15" stroke-linecap="butt"></path><path d="M197.73124,195.82929c-0.0366,0.09022 -0.25825,0.08546 -0.49506,-0.01063c-0.23681,-0.09608 -0.39911,-0.24711 -0.36251,-0.33732c0.0366,-0.09022 0.25825,-0.08546 0.49506,0.01063c0.23681,0.09608 0.39911,0.24711 0.36251,0.33732z" fill="#ffc72d" stroke="none" stroke-width="0.15" stroke-linecap="butt"></path><g><text transform="translate(208.66607,199.94567) rotate(22.08649) scale(0.00786,0.00786)" font-size="40" xml:space="preserve" fill="#66d6ff" fill-rule="nonzero" stroke="none" stroke-width="0.3" stroke-linecap="butt" stroke-linejoin="miter" stroke-miterlimit="10" stroke-dasharray="" stroke-dashoffset="0" font-family="Sans Serif" font-weight="normal" text-anchor="start" style="mix-blend-mode: normal"><tspan x="0" dy="0">xAmt8</tspan></text><g stroke-width="0.15"><path d="M210.88155,197.99117c-0.18714,0.46123 -0.68667,0.69402 -1.11572,0.51993c-0.42906,-0.17409 -0.62517,-0.68911 -0.43802,-1.15035c0.18714,-0.46123 0.68667,-0.69402 1.11572,-0.51993c0.42906,0.17409 0.62517,0.68911 0.43803,1.15035z" fill="url(#color-6)" stroke="none" stroke-linecap="butt"></path><path d="M208.73705,200.34053l-0.03417,-0.43609l0.85982,0.33378l-0.21709,0.34922z" fill="#a76a00" stroke="none" stroke-linecap="butt"></path><path d="M208.69237,199.93033l0.03152,-0.07769l0.86751,0.35198l-0.03152,0.07769z" fill="#643f00" stroke="none" stroke-linecap="butt"></path><path d="M208.68749,199.86803l-0.08389,-0.35071l1.2612,0.49664l-0.2839,0.21656z" fill="#a76a00" stroke="none" stroke-linecap="butt"></path><path d="M209.38875,200.40855c-0.00482,-0.06155 0.05673,-0.06638 0.05673,-0.06638l0.0623,-0.00488c0.08489,-0.00665 0.19609,0.00944 0.2061,-0.10715c0.00342,-0.03994 -0.02351,-0.07666 -0.03374,-0.11542c0,0 -0.01576,-0.05969 0.04394,-0.07545c0.0597,-0.01576 0.07545,0.04394 0.07545,0.04394c0.00512,0.01939 0.0387,0.1434 0.03758,0.15479c-0.01886,0.1909 -0.16783,0.21049 -0.31968,0.22239l-0.0623,0.00488c0,0 -0.06155,0.00483 -0.06637,-0.05673z" fill="#a76a00" stroke="none" stroke-linecap="butt"></path><path d="M208.99729,199.66198c0,0 0.52372,-0.97364 0.65199,-1.24448c0.05975,-0.12616 0.08482,-0.31134 0.08482,-0.31134c0,0 0.15188,0.10686 0.2173,0.13341c0.05262,0.02135 0.14524,0.01369 0.14524,0.01369c0,0 -0.32953,0.6635 -0.4458,0.95008c-0.09462,0.2332 -0.20038,0.64251 -0.20038,0.64251z" fill="url(#color-7)" stroke="none" stroke-linecap="butt"></path><path d="M210.02606,197.83256l-0.1289,0.35485" fill="none" stroke="#000000" stroke-linecap="round"></path><path d="M210.17186,197.73338c-0.03917,0.09654 -0.1086,0.15951 -0.15508,0.14065c-0.04648,-0.01886 -0.05241,-0.11241 -0.01324,-0.20894c0.03917,-0.09654 0.14012,-0.2372 0.18661,-0.21834c0.04648,0.01886 0.02089,0.19009 -0.01828,0.28663z" fill="#ffd75c" stroke="#000000" stroke-linecap="butt"></path></g></g><g><text transform="translate(206.86882,198.73542) rotate(22.08649) scale(0.00786,0.00786)" font-size="40" xml:space="preserve" fill="#66d6ff" fill-rule="nonzero" stroke="none" stroke-width="0.3" stroke-linecap="butt" stroke-linejoin="miter" stroke-miterlimit="10" stroke-dasharray="" stroke-dashoffset="0" font-family="Sans Serif" font-weight="normal" text-anchor="start" style="mix-blend-mode: normal"><tspan x="0" dy="0">xAmt8</tspan></text><g stroke-width="0.15"><path d="M209.0843,196.78092c-0.18714,0.46123 -0.68667,0.69402 -1.11572,0.51993c-0.42906,-0.17409 -0.62517,-0.68912 -0.43802,-1.15035c0.18714,-0.46123 0.68667,-0.69402 1.11572,-0.51993c0.42906,0.17409 0.62517,0.68911 0.43802,1.15035z" fill="url(#color-8)" stroke="none" stroke-linecap="butt"></path><path d="M206.93979,199.13028l-0.03417,-0.43609l0.85982,0.33378l-0.21709,0.34922z" fill="#a76a00" stroke="none" stroke-linecap="butt"></path><path d="M206.89511,198.72008l0.03152,-0.07769l0.86751,0.35198l-0.03152,0.07769z" fill="#643f00" stroke="none" stroke-linecap="butt"></path><path d="M206.89023,198.65778l-0.08389,-0.35071l1.2612,0.49664l-0.2839,0.21656z" fill="#a76a00" stroke="none" stroke-linecap="butt"></path><path d="M207.59149,199.1983c-0.00482,-0.06155 0.05673,-0.06637 0.05673,-0.06637l0.0623,-0.00488c0.08489,-0.00665 0.19609,0.00944 0.2061,-0.10715c0.00342,-0.03994 -0.02351,-0.07666 -0.03374,-0.11542c0,0 -0.01576,-0.05969 0.04394,-0.07545c0.0597,-0.01576 0.07545,0.04394 0.07545,0.04394c0.00512,0.01939 0.0387,0.1434 0.03758,0.15479c-0.01886,0.19091 -0.16783,0.21049 -0.31968,0.22239l-0.0623,0.00488c0,0 -0.06155,0.00483 -0.06637,-0.05673z" fill="#a76a00" stroke="none" stroke-linecap="butt"></path><path d="M207.20003,198.45173c0,0 0.52372,-0.97364 0.65199,-1.24448c0.05975,-0.12616 0.08482,-0.31134 0.08482,-0.31134c0,0 0.15188,0.10686 0.2173,0.13341c0.05262,0.02135 0.14524,0.01369 0.14524,0.01369c0,0 -0.32953,0.6635 -0.4458,0.95008c-0.09462,0.2332 -0.20038,0.64251 -0.20038,0.64251z" fill="url(#color-9)" stroke="none" stroke-linecap="butt"></path><path d="M208.09991,196.97716l0.1289,-0.35485" fill="none" stroke="#000000" stroke-linecap="round"></path><path d="M208.3746,196.52313c-0.03917,0.09654 -0.1086,0.15951 -0.15508,0.14065c-0.04648,-0.01886 -0.05241,-0.11241 -0.01324,-0.20894c0.03917,-0.09654 0.14012,-0.2372 0.1866,-0.21834c0.04648,0.01886 0.02089,0.19009 -0.01828,0.28663z" fill="#ffd75c" stroke="#000000" stroke-linecap="butt"></path></g></g><g><text transform="translate(199.32777,195.62272) rotate(22.08649) scale(0.00786,0.00786)" font-size="40" xml:space="preserve" fill="#66d6ff" fill-rule="nonzero" stroke="none" stroke-width="0.3" stroke-linecap="butt" stroke-linejoin="miter" stroke-miterlimit="10" stroke-dasharray="" stroke-dashoffset="0" font-family="Sans Serif" font-weight="normal" text-anchor="start" style="mix-blend-mode: normal"><tspan x="0" dy="0">xAmt8</tspan></text><g stroke-width="0.15"><path d="M201.54325,193.66822c-0.18714,0.46123 -0.68667,0.69402 -1.11572,0.51993c-0.42906,-0.17409 -0.62517,-0.68911 -0.43802,-1.15035c0.18714,-0.46123 0.68667,-0.69402 1.11572,-0.51993c0.42906,0.17409 0.62517,0.68911 0.43803,1.15035z" fill="url(#color-10)" stroke="none" stroke-linecap="butt"></path><path d="M199.39875,196.01757l-0.03417,-0.43609l0.85982,0.33378l-0.21709,0.34922z" fill="#a76a00" stroke="none" stroke-linecap="butt"></path><path d="M199.35406,195.60738l0.03152,-0.07769l0.86751,0.35198l-0.03152,0.07769z" fill="#643f00" stroke="none" stroke-linecap="butt"></path><path d="M199.34918,195.54508l-0.08389,-0.35071l1.2612,0.49664l-0.2839,0.21656z" fill="#a76a00" stroke="none" stroke-linecap="butt"></path><path d="M200.05044,196.0856c-0.00482,-0.06155 0.05673,-0.06638 0.05673,-0.06638l0.0623,-0.00488c0.08489,-0.00665 0.19609,0.00944 0.2061,-0.10715c0.00342,-0.03994 -0.02351,-0.07666 -0.03374,-0.11542c0,0 -0.01576,-0.05969 0.04394,-0.07545c0.0597,-0.01576 0.07545,0.04394 0.07545,0.04394c0.00512,0.01939 0.0387,0.1434 0.03758,0.15479c-0.01886,0.19091 -0.16783,0.21049 -0.31968,0.22239l-0.0623,0.00488c0,0 -0.06155,0.00483 -0.06638,-0.05673z" fill="#a76a00" stroke="none" stroke-linecap="butt"></path><path d="M199.65898,195.33903c0,0 0.52372,-0.97364 0.65199,-1.24448c0.05975,-0.12616 0.08482,-0.31134 0.08482,-0.31134c0,0 0.15188,0.10686 0.2173,0.13341c0.05262,0.02135 0.14524,0.01369 0.14524,0.01369c0,0 -0.32953,0.6635 -0.4458,0.95008c-0.09462,0.2332 -0.20038,0.64251 -0.20038,0.64251z" fill="url(#color-11)" stroke="none" stroke-linecap="butt"></path><path d="M200.55886,193.86445l0.1289,-0.35485" fill="none" stroke="#000000" stroke-linecap="round"></path><path d="M200.83356,193.41043c-0.03917,0.09654 -0.1086,0.15951 -0.15508,0.14065c-0.04648,-0.01886 -0.05241,-0.11241 -0.01324,-0.20894c0.03917,-0.09654 0.14012,-0.2372 0.1866,-0.21834c0.04648,0.01886 0.02089,0.19009 -0.01828,0.28663z" fill="#ffd75c" stroke="#000000" stroke-linecap="butt"></path></g></g><g><text transform="translate(197.04465,195.02385) rotate(22.08649) scale(0.00786,0.00786)" font-size="40" xml:space="preserve" fill="#66d6ff" fill-rule="nonzero" stroke="none" stroke-width="0.3" stroke-linecap="butt" stroke-linejoin="miter" stroke-miterlimit="10" stroke-dasharray="" stroke-dashoffset="0" font-family="Sans Serif" font-weight="normal" text-anchor="start" style="mix-blend-mode: normal"><tspan x="0" dy="0">xAmt8</tspan></text><g stroke-width="0.15"><path d="M199.26013,193.06935c-0.18714,0.46123 -0.68667,0.69402 -1.11572,0.51993c-0.42906,-0.17409 -0.62517,-0.68911 -0.43803,-1.15035c0.18714,-0.46123 0.68667,-0.69402 1.11572,-0.51993c0.42906,0.17409 0.62517,0.68911 0.43802,1.15035z" fill="url(#color-12)" stroke="none" stroke-linecap="butt"></path><path d="M197.11563,195.4187l-0.03417,-0.43609l0.85982,0.33378l-0.21709,0.34922z" fill="#a76a00" stroke="none" stroke-linecap="butt"></path><path d="M197.07095,195.00851l0.03152,-0.07769l0.86751,0.35198l-0.03152,0.07769z" fill="#643f00" stroke="none" stroke-linecap="butt"></path><path d="M197.06606,194.94621l-0.08389,-0.35071l1.2612,0.49664l-0.2839,0.21656z" fill="#a76a00" stroke="none" stroke-linecap="butt"></path><path d="M197.76732,195.48673c-0.00482,-0.06155 0.05673,-0.06638 0.05673,-0.06638l0.0623,-0.00488c0.08489,-0.00665 0.19609,0.00944 0.2061,-0.10715c0.00342,-0.03994 -0.02351,-0.07666 -0.03374,-0.11542c0,0 -0.01576,-0.05969 0.04394,-0.07545c0.0597,-0.01576 0.07545,0.04394 0.07545,0.04394c0.00512,0.01939 0.0387,0.1434 0.03758,0.15479c-0.01886,0.19091 -0.16783,0.21049 -0.31968,0.22239l-0.0623,0.00488c0,0 -0.06155,0.00483 -0.06638,-0.05673z" fill="#a76a00" stroke="none" stroke-linecap="butt"></path><path d="M197.37586,194.74016c0,0 0.52372,-0.97364 0.65199,-1.24448c0.05975,-0.12616 0.08482,-0.31134 0.08482,-0.31134c0,0 0.15188,0.10686 0.2173,0.13341c0.05262,0.02135 0.14524,0.01369 0.14524,0.01369c0,0 -0.32953,0.6635 -0.4458,0.95008c-0.09462,0.2332 -0.20038,0.64251 -0.20038,0.64251z" fill="url(#color-13)" stroke="none" stroke-linecap="butt"></path><path d="M198.40464,192.91074l-0.1289,0.35485" fill="none" stroke="#000000" stroke-linecap="round"></path><path d="M198.55043,192.81156c-0.03917,0.09654 -0.1086,0.15951 -0.15508,0.14065c-0.04648,-0.01886 -0.05241,-0.11241 -0.01324,-0.20894c0.03917,-0.09654 0.14012,-0.2372 0.18661,-0.21834c0.04648,0.01886 0.02089,0.19009 -0.01828,0.28663z" fill="#ffd75c" stroke="#000000" stroke-linecap="butt"></path></g></g></g><g><text transform="translate(203.82567,180.11016) rotate(-38.62456) scale(0.0194,0.0194)" font-size="40" xml:space="preserve" fill="#ffffff" fill-rule="nonzero" stroke="none" stroke-width="0.3" stroke-linecap="butt" stroke-linejoin="miter" stroke-miterlimit="10" stroke-dasharray="" stroke-dashoffset="0" font-family="Sans Serif" font-weight="normal" text-anchor="start" style="mix-blend-mode: normal"><tspan x="0" dy="0">xAmt8</tspan></text><text transform="translate(196.97592,172.45534) rotate(-38.62549) scale(0.03743,0.03743)" font-size="40" xml:space="preserve" fill="#000000" fill-rule="nonzero" stroke="none" stroke-width="0.3" stroke-linecap="butt" stroke-linejoin="miter" stroke-miterlimit="10" stroke-dasharray="" stroke-dashoffset="0" font-family="Marker" font-weight="normal" text-anchor="start" style="mix-blend-mode: normal"><tspan x="0" dy="0">xAmt8</tspan></text><path d="M206.70546,175.31295l0.50835,1.6246l-1.82477,1.45804" fill="none" stroke="#ffb900" stroke-width="0.15" stroke-linecap="round"></path><path d="M208.74339,174.1923l0.55662,1.47322l-3.67704,2.88164" fill="none" stroke="#ffb900" stroke-width="0.15" stroke-linecap="round"></path><path d="M203.74994,179.81166l-1.82477,1.45804l-1.47238,-0.85432" data-paper-data="{&quot;index&quot;:null}" fill="none" stroke="#ffb900" stroke-width="0.15" stroke-linecap="round"></path><path d="M203.84615,180.07326l-3.62202,2.9505l-1.31407,-0.86799" data-paper-data="{&quot;index&quot;:null}" fill="none" stroke="#ffb900" stroke-width="0.15" stroke-linecap="round"></path><path d="M205.77452,178.31323c0.2431,0.30424 -0.0454,0.93885 -0.64437,1.41744c-0.59897,0.47859 -1.2816,0.61993 -1.52469,0.31569c-0.2431,-0.30424 0.0454,-0.93885 0.64437,-1.41744c0.59897,-0.47859 1.2816,-0.61993 1.52469,-0.31569z" fill="url(#color-14)" stroke="none" stroke-width="0.15" stroke-linecap="butt"></path><path d="M204.43539,179.32447l-5.88602,-7.36649l0.27974,-0.22352l5.88602,7.36649z" fill="#ffb900" stroke="none" stroke-width="0.15" stroke-linecap="butt"></path><path d="M200.51959,172.58375c0.31906,0.39931 0.25401,0.98167 -0.14531,1.30073c-0.39931,0.31906 -0.98167,0.25401 -1.30073,-0.14531c-0.31906,-0.39931 -0.25401,-0.98167 0.14531,-1.30073c0.39931,-0.31906 0.98167,-0.25401 1.30073,0.14531z" fill="none" stroke="#ffb900" stroke-width="0.15" stroke-linecap="butt"></path><path d="M201.69528,174.34562c0.25829,0.32325 0.20562,0.79469 -0.11763,1.05297c-0.32325,0.25829 -0.79468,0.20562 -1.05297,-0.11763c-0.25829,-0.32325 -0.20562,-0.79469 0.11763,-1.05297c0.32325,-0.25829 0.79469,-0.20562 1.05297,0.11763z" fill="none" stroke="#ffb900" stroke-width="0.15" stroke-linecap="butt"></path><path d="M202.54768,175.77349c0.20511,0.2567 0.16329,0.63107 -0.09341,0.83618c-0.2567,0.20511 -0.63107,0.16329 -0.83619,-0.09341c-0.20511,-0.2567 -0.16329,-0.63107 0.09341,-0.83619c0.2567,-0.20511 0.63107,-0.16329 0.83619,0.09341z" fill="none" stroke="#ffb900" stroke-width="0.15" stroke-linecap="butt"></path><path d="M200.56965,168.51122c0.28705,0.35925 0.04176,2.25045 -1.39525,3.39866c-1.43701,1.14821 -3.52157,1.11862 -3.80862,0.75937c-0.28705,-0.35925 0.64517,-1.58129 2.08218,-2.7295c1.43701,-1.14821 2.83464,-1.78778 3.12169,-1.42853z" fill="url(#color-15)" stroke="#000000" stroke-width="0.15" stroke-linecap="butt"></path><path d="M202.28197,177.33099l-0.17801,-0.22278l1.13618,-0.90783l0.17801,0.22278c0,0 0.90226,1.25841 1.16088,1.97605c0.08276,0.22964 -0.07232,0.47577 -0.12025,0.51407c-0.0575,0.04595 -0.35142,0.15772 -0.65735,-0.06243c-0.64738,-0.46587 -1.51946,-1.51985 -1.51946,-1.51985z" fill="none" stroke="url(#color-16)" stroke-width="0.15" stroke-linecap="butt"></path><path d="M209.19781,173.91382c0.05318,0.06655 -0.1041,0.28062 -0.3513,0.47814c-0.24719,0.19751 -0.49069,0.30368 -0.54387,0.23713c-0.05318,-0.06655 0.1041,-0.28062 0.3513,-0.47814c0.24719,-0.19751 0.49069,-0.30368 0.54387,-0.23713z" fill="#ffc72d" stroke="none" stroke-width="0.15" stroke-linecap="butt"></path><path d="M207.14613,175.01726c0.07597,0.09507 -0.0166,0.29532 -0.20675,0.44725c-0.19015,0.15193 -0.40588,0.19803 -0.48184,0.10295c-0.07597,-0.09507 0.0166,-0.29532 0.20675,-0.44725c0.19015,-0.15193 0.40588,-0.19803 0.48184,-0.10295z" fill="#ffc72d" stroke="none" stroke-width="0.15" stroke-linecap="butt"></path><path d="M200.74223,180.13414c0.04558,0.05705 -0.07162,0.22646 -0.26177,0.37839c-0.19015,0.15193 -0.38125,0.22886 -0.42683,0.17181c-0.04558,-0.05705 0.07162,-0.22646 0.26177,-0.37839c0.19015,-0.15193 0.38125,-0.22886 0.42683,-0.17181z" fill="#ffc72d" stroke="none" stroke-width="0.15" stroke-linecap="butt"></path><path d="M199.20641,181.8126c0.06077,0.07606 -0.05181,0.26704 -0.25147,0.42657c-0.19966,0.15953 -0.41078,0.2272 -0.47155,0.15114c-0.06077,-0.07606 0.05181,-0.26704 0.25147,-0.42657c0.19966,-0.15953 0.41078,-0.2272 0.47155,-0.15114z" fill="#ffc72d" stroke="none" stroke-width="0.15" stroke-linecap="butt"></path><g><text transform="translate(208.14616,174.28956) rotate(-38.62819) scale(0.00786,0.00786)" font-size="40" xml:space="preserve" fill="#66d6ff" fill-rule="nonzero" stroke="none" stroke-width="0.3" stroke-linecap="butt" stroke-linejoin="miter" stroke-miterlimit="10" stroke-dasharray="" stroke-dashoffset="0" font-family="Sans Serif" font-weight="normal" text-anchor="start" style="mix-blend-mode: normal"><tspan x="0" dy="0">xAmt8</tspan></text><g stroke-width="0.15"><path d="M207.52541,171.40112c0.31071,0.38886 0.26935,0.93841 -0.09238,1.22745c-0.36173,0.28904 -0.90686,0.20811 -1.21758,-0.18076c-0.31071,-0.38886 -0.26935,-0.93841 0.09238,-1.22745c0.36173,-0.28904 0.90686,-0.20811 1.21758,0.18076z" fill="url(#color-17)" stroke="none" stroke-linecap="butt"></path><path d="M208.52526,174.42083l-0.39706,-0.18354l0.71176,-0.5866l0.19837,0.36019z" fill="#a76a00" stroke="none" stroke-linecap="butt"></path><path d="M208.14565,174.25912l-0.05233,-0.0655l0.73139,-0.5844l0.05233,0.0655z" fill="#643f00" stroke="none" stroke-linecap="butt"></path><path d="M208.08892,174.2329l-0.34692,-0.09841l1.05016,-0.85699l0.04998,0.35355z" fill="#a76a00" stroke="none" stroke-linecap="butt"></path><path d="M208.90342,173.88573c-0.05604,-0.02591 -0.03014,-0.08195 -0.03014,-0.08195l0.02622,-0.05672c0.03573,-0.07729 0.10417,-0.16641 0.00738,-0.23217c-0.03315,-0.02253 -0.07836,-0.017 -0.11717,-0.02704c0,0 -0.05977,-0.01546 -0.04431,-0.07524c0.01546,-0.05977 0.07523,-0.04431 0.07523,-0.04431c0.01942,0.00502 0.14401,0.0364 0.15339,0.04295c0.15727,0.10984 0.10147,0.24935 0.03756,0.3876l-0.02622,0.05672c0,0 -0.0259,0.05604 -0.08195,0.03013z" fill="#a76a00" stroke="none" stroke-linecap="butt"></path><path d="M208.06078,173.86191c0,0 -0.59294,-0.9331 -0.76641,-1.17747c-0.0808,-0.11383 -0.23004,-0.2263 -0.23004,-0.2263c0,0 0.16751,-0.08019 0.22266,-0.12426c0.04436,-0.03545 0.083,-0.11997 0.083,-0.11997c0,0 0.41746,0.612 0.61052,0.85361c0.1571,0.19661 0.46234,0.48909 0.46234,0.48909z" fill="url(#color-18)" stroke="none" stroke-linecap="butt"></path><path d="M207.21497,172.35566l-0.24642,-0.28602" fill="none" stroke="#000000" stroke-linecap="round"></path><path d="M206.95337,171.89397c0.06503,0.08139 0.08599,0.17275 0.0468,0.20406c-0.03919,0.03131 -0.12368,-0.00928 -0.18871,-0.09067c-0.06503,-0.08139 -0.13832,-0.23825 -0.09913,-0.26956c0.03919,-0.03131 0.17601,0.07478 0.24104,0.15617z" fill="#ffd75c" stroke="#000000" stroke-linecap="butt"></path></g></g><g><text transform="translate(206.21137,175.26496) rotate(-38.62819) scale(0.00786,0.00786)" font-size="40" xml:space="preserve" fill="#66d6ff" fill-rule="nonzero" stroke="none" stroke-width="0.3" stroke-linecap="butt" stroke-linejoin="miter" stroke-miterlimit="10" stroke-dasharray="" stroke-dashoffset="0" font-family="Sans Serif" font-weight="normal" text-anchor="start" style="mix-blend-mode: normal"><tspan x="0" dy="0">xAmt8</tspan></text><g stroke-width="0.15"><path d="M205.59061,172.37652c0.31071,0.38886 0.26935,0.93841 -0.09238,1.22745c-0.36173,0.28904 -0.90686,0.20811 -1.21758,-0.18076c-0.31071,-0.38886 -0.26935,-0.93841 0.09238,-1.22745c0.36173,-0.28904 0.90686,-0.20811 1.21758,0.18076z" fill="url(#color-19)" stroke="none" stroke-linecap="butt"></path><path d="M206.59046,175.39623l-0.39706,-0.18354l0.71176,-0.5866l0.19837,0.36019z" fill="#a76a00" stroke="none" stroke-linecap="butt"></path><path d="M206.21085,175.23452l-0.05233,-0.0655l0.7314,-0.58441l0.05233,0.0655z" fill="#643f00" stroke="none" stroke-linecap="butt"></path><path d="M206.15413,175.2083l-0.34692,-0.09841l1.05016,-0.85699l0.04998,0.35355z" fill="#a76a00" stroke="none" stroke-linecap="butt"></path><path d="M206.96862,174.86113c-0.05604,-0.02591 -0.03013,-0.08195 -0.03013,-0.08195l0.02622,-0.05672c0.03573,-0.07729 0.10417,-0.16641 0.00738,-0.23217c-0.03315,-0.02253 -0.07836,-0.017 -0.11717,-0.02704c0,0 -0.05977,-0.01546 -0.04431,-0.07523c0.01546,-0.05977 0.07523,-0.04431 0.07523,-0.04431c0.01942,0.00502 0.14401,0.0364 0.15339,0.04295c0.15727,0.10984 0.10147,0.24935 0.03756,0.3876l-0.02622,0.05672c0,0 -0.0259,0.05604 -0.08195,0.03013z" fill="#a76a00" stroke="none" stroke-linecap="butt"></path><path d="M206.12598,174.83731c0,0 -0.59294,-0.9331 -0.76641,-1.17747c-0.0808,-0.11383 -0.23004,-0.2263 -0.23004,-0.2263c0,0 0.16751,-0.08019 0.22266,-0.12425c0.04436,-0.03545 0.083,-0.11998 0.083,-0.11998c0,0 0.41746,0.612 0.61052,0.85362c0.1571,0.19661 0.46234,0.48909 0.46234,0.48909z" fill="url(#color-20)" stroke="none" stroke-linecap="butt"></path><path d="M205.28017,173.33106l-0.24642,-0.28602" fill="none" stroke="#000000" stroke-linecap="round"></path><path d="M205.01857,172.86937c0.06503,0.08139 0.08598,0.17275 0.04679,0.20407c-0.03919,0.03131 -0.12367,-0.00928 -0.18871,-0.09067c-0.06503,-0.08139 -0.13832,-0.23825 -0.09913,-0.26956c0.03919,-0.03131 0.17601,0.07478 0.24105,0.15617z" fill="#ffd75c" stroke="#000000" stroke-linecap="butt"></path></g></g><g><text transform="translate(199.80731,180.31911) rotate(-38.62819) scale(0.00786,0.00786)" font-size="40" xml:space="preserve" fill="#66d6ff" fill-rule="nonzero" stroke="none" stroke-width="0.3" stroke-linecap="butt" stroke-linejoin="miter" stroke-miterlimit="10" stroke-dasharray="" stroke-dashoffset="0" font-family="Sans Serif" font-weight="normal" text-anchor="start" style="mix-blend-mode: normal"><tspan x="0" dy="0">xAmt8</tspan></text><g stroke-width="0.15"><path d="M199.18656,177.43067c0.31071,0.38886 0.26935,0.93841 -0.09238,1.22745c-0.36173,0.28904 -0.90686,0.20811 -1.21758,-0.18076c-0.31071,-0.38886 -0.26935,-0.93841 0.09238,-1.22745c0.36173,-0.28904 0.90686,-0.20811 1.21758,0.18076z" fill="url(#color-21)" stroke="none" stroke-linecap="butt"></path><path d="M200.18641,180.45038l-0.39706,-0.18354l0.71176,-0.5866l0.19837,0.36019z" fill="#a76a00" stroke="none" stroke-linecap="butt"></path><path d="M199.8068,180.28867l-0.05233,-0.0655l0.73139,-0.5844l0.05233,0.0655z" fill="#643f00" stroke="none" stroke-linecap="butt"></path><path d="M199.75007,180.26245l-0.34692,-0.09841l1.05016,-0.85699l0.04998,0.35355z" fill="#a76a00" stroke="none" stroke-linecap="butt"></path><path d="M200.56457,179.91528c-0.05604,-0.02591 -0.03014,-0.08195 -0.03014,-0.08195l0.02622,-0.05672c0.03573,-0.07729 0.10417,-0.16641 0.00738,-0.23217c-0.03315,-0.02253 -0.07836,-0.017 -0.11717,-0.02704c0,0 -0.05977,-0.01546 -0.04431,-0.07523c0.01546,-0.05977 0.07523,-0.04431 0.07523,-0.04431c0.01942,0.00502 0.14401,0.0364 0.15339,0.04295c0.15727,0.10984 0.10147,0.24935 0.03756,0.3876l-0.02622,0.05672c0,0 -0.0259,0.05604 -0.08195,0.03014z" fill="#a76a00" stroke="none" stroke-linecap="butt"></path><path d="M199.72193,179.89146c0,0 -0.59294,-0.9331 -0.76641,-1.17747c-0.0808,-0.11383 -0.23004,-0.2263 -0.23004,-0.2263c0,0 0.16751,-0.08019 0.22266,-0.12425c0.04436,-0.03545 0.083,-0.11997 0.083,-0.11997c0,0 0.41746,0.612 0.61052,0.85361c0.1571,0.19661 0.46234,0.48909 0.46234,0.48909z" fill="url(#color-22)" stroke="none" stroke-linecap="butt"></path><path d="M198.87612,178.38521l-0.24642,-0.28602" fill="none" stroke="#000000" stroke-linecap="round"></path><path d="M198.61452,177.92352c0.06503,0.08139 0.08599,0.17275 0.0468,0.20407c-0.03919,0.03131 -0.12368,-0.00929 -0.18871,-0.09067c-0.06503,-0.08139 -0.13832,-0.23825 -0.09913,-0.26956c0.03919,-0.03131 0.17601,0.07478 0.24104,0.15617z" fill="#ffd75c" stroke="#000000" stroke-linecap="butt"></path></g></g><g><text transform="translate(198.16804,182.01737) rotate(-38.62819) scale(0.00786,0.00786)" font-size="40" xml:space="preserve" fill="#66d6ff" fill-rule="nonzero" stroke="none" stroke-width="0.3" stroke-linecap="butt" stroke-linejoin="miter" stroke-miterlimit="10" stroke-dasharray="" stroke-dashoffset="0" font-family="Sans Serif" font-weight="normal" text-anchor="start" style="mix-blend-mode: normal"><tspan x="0" dy="0">xAmt8</tspan></text><g stroke-width="0.15"><path d="M197.54729,179.12892c0.31071,0.38886 0.26935,0.93841 -0.09238,1.22745c-0.36173,0.28904 -0.90686,0.20811 -1.21758,-0.18076c-0.31071,-0.38886 -0.26935,-0.93841 0.09238,-1.22745c0.36173,-0.28904 0.90686,-0.20811 1.21758,0.18076z" fill="url(#color-23)" stroke="none" stroke-linecap="butt"></path><path d="M198.54714,182.14864l-0.39706,-0.18354l0.71176,-0.5866l0.19837,0.36019z" fill="#a76a00" stroke="none" stroke-linecap="butt"></path><path d="M198.16752,181.98692l-0.05233,-0.0655l0.73139,-0.5844l0.05233,0.0655z" fill="#643f00" stroke="none" stroke-linecap="butt"></path><path d="M198.1108,181.96071l-0.34692,-0.09841l1.05016,-0.85699l0.04998,0.35355z" fill="#a76a00" stroke="none" stroke-linecap="butt"></path><path d="M198.92529,181.61353c-0.05604,-0.02591 -0.03014,-0.08195 -0.03014,-0.08195l0.02622,-0.05672c0.03573,-0.07729 0.10417,-0.16641 0.00738,-0.23217c-0.03315,-0.02253 -0.07836,-0.017 -0.11717,-0.02704c0,0 -0.05977,-0.01546 -0.04431,-0.07524c0.01546,-0.05977 0.07523,-0.04431 0.07523,-0.04431c0.01942,0.00502 0.14401,0.0364 0.15339,0.04295c0.15727,0.10984 0.10147,0.24935 0.03756,0.3876l-0.02622,0.05672c0,0 -0.0259,0.05604 -0.08195,0.03014z" fill="#a76a00" stroke="none" stroke-linecap="butt"></path><path d="M198.08265,181.58971c0,0 -0.59294,-0.9331 -0.7664,-1.17747c-0.0808,-0.11383 -0.23004,-0.2263 -0.23004,-0.2263c0,0 0.16751,-0.08019 0.22266,-0.12425c0.04436,-0.03545 0.083,-0.11998 0.083,-0.11998c0,0 0.41746,0.612 0.61052,0.85361c0.1571,0.19661 0.46234,0.48909 0.46234,0.48909z" fill="url(#color-24)" stroke="none" stroke-linecap="butt"></path><path d="M196.99042,179.79745l0.24642,0.28602" fill="none" stroke="#000000" stroke-linecap="round"></path><path d="M196.97525,179.62177c0.06503,0.08139 0.08598,0.17275 0.04679,0.20407c-0.03919,0.03131 -0.12368,-0.00928 -0.18871,-0.09067c-0.06503,-0.08139 -0.13832,-0.23825 -0.09913,-0.26956c0.03919,-0.03131 0.17601,0.07478 0.24105,0.15617z" fill="#ffd75c" stroke="#000000" stroke-linecap="butt"></path></g></g></g><path d="M209.22302,184.99163c-0.13536,-0.21317 -0.28369,-0.42161 -0.28412,-0.66453c-0.00146,-0.83147 0.77083,-0.97656 1.36453,-0.91813c0.17254,0.01698 0.36193,-0.04733 0.51952,0.02494c0.22725,0.10422 0.56781,0.58384 0.78405,0.74955c0.43579,0.33397 0.72619,0.31005 0.9525,0.85816c0.02971,0.07196 -0.13046,0.15684 -0.08279,0.21839c0.04096,0.05289 0.10614,-0.09429 0.17253,-0.10253c0.28157,-0.03494 1.14232,0.01418 1.38905,0.0946c0.35263,0.11494 0.41618,0.39325 0.69389,0.59329c0.32877,0.23682 0.84606,0.18614 1.18692,0.38325c0.00711,0.00411 0.01419,0.00826 0.02125,0.01244l0.00146,-0.00329l0.62278,0.27679c0.12638,0.05281 0.21518,0.17759 0.21518,0.32312c0,0.16963 -0.12066,0.31108 -0.28084,0.34321l-0.62335,0.13852l-0.00032,-0.00144l-0.00538,0.00266c-1.05364,0.19768 -2.10633,0.39565 -3.16525,0.56278c-0.26869,0.04241 -0.71635,0.15415 -0.98203,0.03746c-0.12725,-0.05589 -0.15644,-0.23747 -0.26978,-0.31791c-0.2732,-0.19388 -0.61871,-0.25936 -0.93791,-0.36106c-0.20675,-0.06587 -0.44333,-0.05646 -0.62847,-0.16963c-0.20551,-0.12561 -0.38841,-0.30777 -0.50098,-0.5207c-0.06908,-0.13066 0.0337,-0.30172 -0.00868,-0.44332c-0.03082,-0.10294 -0.16827,-0.15028 -0.19976,-0.25302c-0.06542,-0.21339 -0.1381,-0.44868 -0.08154,-0.66459c0.02044,-0.07801 0.06907,-0.14114 0.12753,-0.19906z" fill="#000000" stroke="none" stroke-width="0.15" stroke-linecap="butt"></path><path d="M198.14876,186.29439c0.2486,-0.04433 0.49773,-0.10246 0.72264,-0.01066c0.76982,0.3142 0.61096,1.08378 0.33157,1.61089c-0.08119,0.15319 -0.09357,0.35281 -0.22024,0.47118c-0.18266,0.17069 -0.75565,0.30376 -0.99104,0.44093c-0.47438,0.27644 -0.56245,0.55419 -1.15545,0.55555c-0.07785,0.00018 -0.0956,-0.18023 -0.17063,-0.15948c-0.06448,0.01783 0.04695,0.13399 0.02938,0.19854c-0.07454,0.27376 -0.44665,1.05148 -0.61469,1.24923c-0.24017,0.28262 -0.52178,0.2358 -0.81225,0.41681c-0.34388,0.21429 -0.49331,0.71211 -0.80504,0.95267c-0.0065,0.00502 -0.01302,0.00999 -0.01958,0.01494l0.00248,0.0026l-0.49244,0.47114c-0.09682,0.09688 -0.24597,0.13168 -0.38061,0.07645c-0.15694,-0.06438 -0.24202,-0.2297 -0.21095,-0.39008l0.10841,-0.62929l0.00145,0.00025l-0.00041,-0.00599c0.21699,-1.04983 0.43334,-2.0989 0.68059,-3.14203c0.06274,-0.26468 0.12925,-0.72126 0.33804,-0.92278c0.1,-0.09652 0.27907,-0.05461 0.39651,-0.12895c0.28306,-0.17917 0.47477,-0.47399 0.69,-0.73071c0.13941,-0.16628 0.22049,-0.38873 0.39545,-0.51707c0.19421,-0.14246 0.43215,-0.24254 0.67187,-0.26589c0.1471,-0.01432 0.26636,0.14569 0.41345,0.16021c0.10694,0.01056 0.2029,-0.09864 0.30991,-0.08879c0.22225,0.02046 0.46753,0.04252 0.64581,0.17679c0.06442,0.04852 0.10437,0.11746 0.13577,0.19354z" fill="#000000" stroke="none" stroke-width="0.15" stroke-linecap="butt"></path><path d="M213.81036,201.2733c0.03339,-0.07771 0.06791,-0.15586 0.10272,-0.23439c-0.01024,-0.0854 0.0098,-0.15554 0.0098,-0.15554c0.14049,-0.49141 0.28133,-0.93791 0.5067,-1.34888c0.06741,-0.28032 0.14484,-0.55407 0.29018,-0.81819c0.24303,-0.44164 0.39378,-0.5742 0.76237,-0.92467c0.08746,-0.08316 0.21237,-0.13282 0.27417,-0.23648c0.09701,-0.16274 -0.19107,-0.82913 -0.15799,-0.99361c0.02876,-0.14301 0.17735,-0.23397 0.24134,-0.36506c0.1631,-0.33412 0.07228,-0.43608 0.27487,-0.75984c0.04739,-0.07573 0.16167,-0.11787 0.21881,-0.18265l-0.11035,-0.08276c-0.08687,-0.0637 -0.14328,-0.1665 -0.14328,-0.28248c0,-0.19333 0.15672,-0.35005 0.35005,-0.35005h0.49006v0.05645l0.13396,-0.0298c0.15649,0.15649 0.36315,0.27538 0.46948,0.46948c0.06862,0.12527 -0.0047,0.28764 0.02213,0.42793c0.08123,0.42484 0.21493,0.77349 0.14116,1.22477c-0.02588,0.15832 -0.12187,0.30161 -0.1372,0.46131c-0.01727,0.18002 0.12259,0.37956 0.04104,0.54097c-0.08387,0.16599 -0.97039,0.68433 -1.0968,0.77394c-0.48205,0.3417 -1.04575,0.74996 -1.38417,1.24185c-0.00074,0.00107 -0.00148,0.00215 -0.00222,0.00323c-0.02891,0.12302 -0.0556,0.24781 -0.08794,0.37497c-0.14276,0.56137 -0.4293,1.11649 -0.64479,1.65583l-0.67505,-0.20001c0,0 0,-0.16275 0.11097,-0.2663z" fill="#000000" stroke="none" stroke-width="0.15" stroke-linecap="butt"></path><g stroke="none" stroke-linecap="butt"><text transform="translate(215.83772,177.39745) rotate(-4.75808) scale(0.03071,0.03071)" font-size="40" xml:space="preserve" fill="#ffffff" fill-rule="nonzero" stroke="none" stroke-width="0.3" stroke-linecap="butt" stroke-linejoin="miter" stroke-miterlimit="10" stroke-dasharray="" stroke-dashoffset="0" font-family="Sans Serif" font-weight="normal" text-anchor="start" style="mix-blend-mode: normal"><tspan x="0" dy="0">xAmt8</tspan></text><g stroke-width="0.15"><path d="M215.26415,180.71793l-0.58071,-6.97677l4.4312,-0.36883l0.58071,6.97677z" fill="#9c603e"></path><path d="M215.05252,175.51418l-0.03662,-0.43998l3.92836,-0.32698l0.03662,0.43998z" fill="#c57a4f"></path><path d="M215.18482,175.10762l-0.10725,-1.2885l0.3457,-0.02877l0.10725,1.2885z" fill="#c44f4f"></path><path d="M215.65361,175.03695l-0.10202,-1.22565l0.32998,-0.02747l0.10202,1.22565z" fill="#c4a200"></path><path d="M216.68306,175.01361l-0.83462,-0.9875l0.31311,-0.26463l0.83462,0.9875z" fill="#33ff00"></path><path d="M217.63219,174.85644l-0.02616,-0.31427l1.19422,-0.0994l0.02616,0.31427z" fill="#00ff9f"></path><path d="M218.12458,174.49901l-0.02877,-0.3457l1.03709,-0.08632l0.02877,0.3457z" fill="#00a8ff"></path><path d="M215.31681,177.73896l-0.03662,-0.43998l3.92836,-0.32698l0.03662,0.43998z" data-paper-data="{&quot;index&quot;:null}" fill="#c57a4f"></path><path d="M218.24349,177.06815l-0.10202,-1.22565l0.32998,-0.02747l0.10202,1.22565z" data-paper-data="{&quot;index&quot;:null}" fill="#ffd500"></path><path d="M217.20177,176.97863l0.65987,-1.1119l0.35255,0.20923l-0.65987,1.1119z" data-paper-data="{&quot;index&quot;:null}" fill="#9b00ff"></path><path d="M215.38102,177.27476l-0.02616,-0.31427l1.19422,-0.0994l0.02616,0.31427z" data-paper-data="{&quot;index&quot;:null}" fill="#008a55"></path><path d="M215.01048,177.00498l-0.02877,-0.3457l1.03709,-0.08632l0.02877,0.3457z" data-paper-data="{&quot;index&quot;:null}" fill="#0022ff"></path><path d="M218.70617,177.2828l-0.12398,-1.48955l0.39963,-0.03327l0.12398,1.48955z" data-paper-data="{&quot;index&quot;:null}" fill="#c44f9e"></path><path d="M215.40731,180.0233l-0.03662,-0.43998l3.92836,-0.32698l0.03662,0.43998z" data-paper-data="{&quot;index&quot;:null}" fill="#c57a4f"></path><path d="M215.45114,180.19404l-0.03662,-0.43998l3.92836,-0.32698l0.03662,0.43998z" data-paper-data="{&quot;index&quot;:null}" fill="#c57a4f"></path><path d="M216.05222,179.7168l-0.10202,-1.22565l0.32998,-0.02747l0.10202,1.22565z" data-paper-data="{&quot;index&quot;:null}" fill="#ffd500"></path><path d="M217.08168,179.69346l-0.83462,-0.9875l0.31311,-0.26463l0.83462,0.9875z" data-paper-data="{&quot;index&quot;:null}" fill="#00ffdd"></path><path d="M218.04728,179.54401l-0.02616,-0.31427l1.19422,-0.0994l0.02616,0.31427z" data-paper-data="{&quot;index&quot;:null}" fill="#8a8a8a"></path><path d="M218.5232,179.17886l-0.02877,-0.3457l1.03709,-0.08632l0.02877,0.3457z" data-paper-data="{&quot;index&quot;:null}" fill="#520077"></path><path d="M215.56174,180.01078l-0.12398,-1.48955l0.39963,-0.03327l0.12398,1.48955z" data-paper-data="{&quot;index&quot;:null}" fill="#ffb766"></path></g></g><path d="M213.34934,185.43753l3.9205,-2.73035" fill="none" stroke="#000000" stroke-width="0.15" stroke-linecap="round"></path><path d="M214.04943,187.88785l3.22041,1.05014" fill="none" stroke="#000000" stroke-width="0.15" stroke-linecap="round"></path><path d="M208.23868,188.93798l1.75023,-2.17028" fill="none" stroke="#000000" stroke-width="0.15" stroke-linecap="round"></path><path d="M207.95864,182.42715l1.75023,1.89024" fill="none" stroke="#000000" stroke-width="0.15" stroke-linecap="round"></path><path d="M219.70469,189.57679l-0.27089,-1.03924l0.34105,-0.10529l0.27089,1.03924z" fill="#e6e6e6" stroke="#000000" stroke-width="0.15" stroke-linecap="butt"></path><path d="M217.5512,181.30233l-0.27089,-1.03924l0.34105,-0.10529l0.27089,1.03924z" fill="#e6e6e6" stroke="#000000" stroke-width="0.15" stroke-linecap="butt"></path><path d="M217.32235,189.72397l-1.05373,-11.27869l6.65744,-0.92194l1.05373,11.27869z" fill="#8e6544" stroke="none" stroke-width="0.15" stroke-linecap="butt"></path><path d="M217.28121,182.44551l-0.3536,-3.7848l5.4661,-0.75696l0.3536,3.7848z" fill="none" stroke="#513a27" stroke-width="0.15" stroke-linecap="butt"></path><path d="M217.91705,188.49148l-0.33945,-3.6334l5.39603,-0.74725l0.33945,3.6334z" fill="none" stroke="#513a27" stroke-width="0.15" stroke-linecap="butt"></path><text transform="translate(219.72592,180.95877) rotate(-17.15623) scale(0.02179,0.02339) skewX(-2.73417)" font-size="40" xml:space="preserve" fill="#ffffff" fill-rule="nonzero" stroke="none" stroke-width="0.3" stroke-linecap="butt" stroke-linejoin="miter" stroke-miterlimit="10" stroke-dasharray="" stroke-dashoffset="0" font-family="Sans Serif" font-weight="normal" text-anchor="start" style="mix-blend-mode: normal"><tspan x="0" dy="0">xAmt8</tspan></text><path d="M223.06599,179.60706c0.10061,0.38599 -0.69552,0.96985 -1.7782,1.30409c-1.08268,0.33424 -2.04193,0.29229 -2.14254,-0.09369c-0.10061,-0.38599 0.69552,-0.96985 1.7782,-1.30409c1.08268,-0.33424 2.04193,-0.29229 2.14254,0.09369z" fill="#d59866" stroke="none" stroke-width="0.15" stroke-linecap="butt"></path><path d="M219.30465,180.72851c-0.02648,-0.10157 0.02772,-0.20728 0.12106,-0.23609c0.09334,-0.02881 0.19046,0.03017 0.21694,0.13175c0.02648,0.10157 -0.02772,0.20728 -0.12106,0.23609c-0.09334,0.02881 -0.19046,-0.03017 -0.21694,-0.13175z" fill="#ab7a52" stroke="none" stroke-width="0.15" stroke-linecap="butt"></path><g stroke="none" stroke-width="0.15" stroke-linecap="butt"><path d="M197.56231,198.51755v-8.72779c0,0 1.67131,1.0268 2.75369,1.0268c0.95783,0 2.85059,-1.59883 4.58318,-1.84965c0.46593,-0.06745 1.01333,1.40104 1.43081,1.47041c1.20616,0.20043 2.01371,-0.64757 2.01371,-0.64757v8.72779z" fill="url(#color-25)"></path><path d="M206.24343,193.05685c0,2.91276 -1.37914,5.27401 -3.0804,5.27401c-1.70125,0 -3.0804,-2.36126 -3.0804,-5.27401c0,-2.91276 1.37914,-5.27401 3.0804,-5.27401c1.70125,0 3.0804,2.36126 3.0804,5.27401z" fill="url(#color-26)"></path></g><path d="M196.71838,178.91064l5.00821,-7.14787c0,0 0.77957,1.79997 1.66601,2.42106c0.78445,0.54963 3.25202,0.32633 4.8149,1.11511c0.42029,0.21212 0.02595,1.72889 0.32805,2.02527c0.87281,0.85627 2.02077,0.62517 2.02077,0.62517l-5.00821,7.14787z" fill="url(#color-27)" stroke="none" stroke-width="0.15" stroke-linecap="butt"></path><path d="M206.96151,179.41987c-1.67141,2.38548 -4.15584,3.52792 -5.54913,2.5517c-1.39329,-0.97622 -1.16784,-3.70142 0.50357,-6.08691c1.67141,-2.38548 4.15584,-3.52792 5.54913,-2.5517c1.39329,0.97622 1.16784,3.70142 -0.50357,6.08691z" fill="url(#color-28)" stroke="none" stroke-width="0.15" stroke-linecap="butt"></path><path d="M215.45112,187.30688l1.59792,-8.4257c0,0 0.9446,1.42717 1.67809,1.70947c0.64909,0.24982 2.22447,-0.80001 3.4445,-0.59026c0.32809,0.05641 0.43019,1.61684 0.7004,1.7927c0.78068,0.50808 1.48318,-0.09994 1.48318,-0.09994l-1.59792,8.4257z" fill="url(#color-29)" stroke="none" stroke-width="0.15" stroke-linecap="butt"></path><path d="M222.45565,184.85943c-0.7597,2.81194 -2.70696,4.73177 -4.34933,4.28805c-1.64237,-0.44371 -2.35793,-3.08295 -1.59823,-5.89489c0.7597,-2.81194 2.70696,-4.73177 4.34933,-4.28805c1.64237,0.44371 2.35793,3.08295 1.59823,5.89489z" fill="url(#color-30)" stroke="none" stroke-width="0.15" stroke-linecap="butt"></path><g stroke="none" stroke-width="0.15" stroke-linecap="butt"><path d="M188.5247,203.4016l1.78102,-6.70962c0,0 1.07532,1.13042 1.90741,1.35129c0.73635,0.19546 2.51769,-0.64742 3.90083,-0.48669c0.37195,0.04322 0.49311,1.28385 0.7999,1.42238c0.88635,0.40021 1.68021,-0.0869 1.68021,-0.0869l-1.78102,6.70962z" fill="url(#color-31)"></path><path d="M196.31276,200.97509c-0.59439,2.23923 -2.13646,3.77304 -3.44433,3.42588c-1.30787,-0.34716 -1.88626,-2.44384 -1.29187,-4.68307c0.59439,-2.23923 2.13646,-3.77304 3.44433,-3.42588c1.30787,0.34716 1.88626,2.44384 1.29187,4.68307z" fill="url(#color-32)"></path></g></g><path d="M184.02145,222.15664v-83.82285h11.8093v83.82285z" fill="#9b6425" stroke="none" stroke-width="0.15" stroke-linecap="butt"></path><path d="M184.28413,222.27377v-10.2894h112.70494v10.2894z" fill="#9b6425" stroke="none" stroke-width="0.15" stroke-linecap="butt"></path><path d="M184.14009,154.35966v-16.63343h111.94736v16.63343z" fill="#b77a4b" stroke="none" stroke-width="0.15" stroke-linecap="butt"></path><g stroke-linecap="butt"><path d="M195.87617,182.15601l-12.85128,-0.02125l0.01355,-8.19376l12.85128,0.02125z" data-paper-data="{&quot;index&quot;:null}" fill="#000000" stroke="none" stroke-width="0.15"></path><g data-paper-data="{&quot;index&quot;:null}"><path d="M195.00173,182.38458l-1.21841,-0.00201l0.00072,-0.43514l1.21841,0.00201z" fill="#e6e6e6" stroke="#000000" stroke-width="0.15"></path><path d="M185.30189,182.37243l-1.21841,-0.00201l0.00072,-0.43514l1.21841,0.00201z" fill="#e6e6e6" stroke="#000000" stroke-width="0.15"></path><path d="M195.86221,190.59892l-12.85128,-0.02125l0.01355,-8.19376l12.85128,0.02125z" fill="#8e6544" stroke="none" stroke-width="0.15"></path><path d="M187.61169,189.89527l-4.31251,-0.00713l0.01112,-6.72751l4.31251,0.00713z" fill="none" stroke="#513a27" stroke-width="0.15"></path><path d="M194.5117,189.90668l-4.14001,-0.00684l0.01098,-6.64126l4.14001,0.00684z" fill="none" stroke="#513a27" stroke-width="0.15"></path><text transform="translate(185.6539,184.61173) rotate(90.09489) scale(0.02656,-0.02656)" font-size="40" xml:space="preserve" fill="#ffffff" fill-rule="nonzero" stroke="none" stroke-width="0.3" stroke-linecap="butt" stroke-linejoin="miter" stroke-miterlimit="10" stroke-dasharray="" stroke-dashoffset="0" font-family="Sans Serif" font-weight="normal" text-anchor="start" style="mix-blend-mode: normal"><tspan x="0" dy="0">xAmt8</tspan></text><path d="M184.48359,186.46884c0.00228,-1.38141 0.37098,-2.50065 0.82351,-2.4999c0.45253,0.00075 0.81752,1.1212 0.81524,2.50261c-0.00228,1.38141 -0.37098,2.50065 -0.82351,2.4999c-0.45253,-0.00075 -0.81752,-1.1212 -0.81524,-2.50261z" fill="#d59866" stroke="none" stroke-width="0.15"></path><path d="M185.47889,184.40047c-0.0002,0.11909 -0.09689,0.21546 -0.21598,0.21527c-0.11909,-0.0002 -0.21546,-0.09689 -0.21527,-0.21598c0.0002,-0.11909 0.09689,-0.21546 0.21598,-0.21527c0.11909,0.0002 0.21546,0.09689 0.21527,0.21598z" fill="#ab7a52" stroke="none" stroke-width="0.15"></path><path d="M185.47205,188.54048c-0.0002,0.11909 -0.09689,0.21546 -0.21598,0.21527c-0.11909,-0.0002 -0.21546,-0.09689 -0.21527,-0.21598c0.0002,-0.11909 0.09689,-0.21546 0.21598,-0.21527c0.11909,0.0002 0.21546,0.09689 0.21527,0.21598z" fill="#ab7a52" stroke="none" stroke-width="0.15"></path><path d="M188.44701,188.9479c0.00118,-0.71452 0.18235,-1.29345 0.40464,-1.29309c0.22229,0.00037 0.40154,0.5799 0.40036,1.29442c-0.00118,0.71452 -0.18235,1.29345 -0.40464,1.29309c-0.22229,-0.00037 -0.40154,-0.5799 -0.40036,-1.29442z" fill="#dadada" stroke="none" stroke-width="0.15"></path><path d="M188.53275,190.27985c-0.38838,0.08549 -0.76621,-0.13143 -0.84393,-0.4845c-0.07771,-0.35307 0.17412,-0.70858 0.5625,-0.79407c0.38838,-0.08549 0.76621,0.13143 0.84393,0.4845c0.07772,0.35307 -0.17412,0.70858 -0.5625,0.79407z" fill="#fff4ce" stroke="#e6ddbb" stroke-width="0.15"></path><path d="M188.35592,190.19845c-0.24128,0.05311 -0.47601,-0.08165 -0.5243,-0.301c-0.04828,-0.21934 0.10818,-0.44021 0.34945,-0.49332c0.24128,-0.05311 0.47601,0.08165 0.5243,0.301c0.04828,0.21934 -0.10818,0.44021 -0.34945,0.49332z" fill="#e6ddbb" stroke="#e6ddbb" stroke-width="0.15"></path><path d="M189.01181,188.63319l-0.20609,0.51094l-0.51094,-0.20609l0.20609,-0.51094z" fill="#e6ddbb" stroke="none" stroke-width="0.15"></path><path d="M189.11288,188.86459c-0.04184,0.02882 -0.42904,-0.10619 -0.49682,-0.11854l-0.10661,-0.00302c-0.02499,-0.00016 -0.04853,-0.01023 -0.06586,-0.02717c-0.01593,-0.00606 -0.03005,-0.01632 -0.04074,-0.02975c-0.01038,-0.00034 -0.02075,-0.00068 -0.03113,-0.00102l-0.00925,-0.00577l-0.00096,0.00379l-0.11746,-0.02962c-0.0347,-0.00798 -0.06348,-0.03521 -0.07164,-0.07229c-0.01129,-0.05131 0.02114,-0.10206 0.07245,-0.11335v0l0.10761,-0.02369l0.00402,0.01823c0.19113,-0.0776 0.39635,-0.092 0.60028,0.01186c0.13068,0.06656 0.41273,0.21355 0.15609,0.39034z" fill="#fff4ce" stroke="none" stroke-width="0.15"></path></g></g><path d="M209.96259,181.86609z" fill="url(#color-33)" stroke="none" stroke-width="0.15" stroke-linecap="butt"></path><path d="M290.65946,212.31556v-58.35182h5.90465v58.35182z" fill="#de876b" stroke="none" stroke-width="0.15" stroke-linecap="butt"></path><path d="M219.10901,171.90924v-17.9455h3.93643v17.9455z" fill="#bb8a4b" stroke="none" stroke-width="0.15" stroke-linecap="butt"></path><path d="M218.76168,212.66289v-22.34504h3.93643v22.34504z" fill="#bb8a4b" stroke="none" stroke-width="0.15" stroke-linecap="butt"></path><g stroke="#000000" stroke-width="0.15" stroke-linecap="butt"><path d="M199.62445,144.03727l4.70599,-3.22778l3.22778,4.70599l-4.70599,3.22778z" fill="#9966ff"></path><path d="M198.14624,151.97105l4.70599,-3.22778l3.22778,4.70599l-4.70599,3.22778z" fill="#9966ff"></path><path d="M202.92908,148.85531l4.70599,-3.22778l3.22778,4.70599l-4.70599,3.22778z" fill="#000000"></path><path d="M194.88326,147.45396l4.70599,-3.22778l3.22778,4.70599l-4.70599,3.22778z" fill="#000000"></path></g><g stroke="#000000" stroke-width="0.15" stroke-linecap="butt"><path d="M193.8304,206.78512l4.53877,1.32933l-1.32933,4.53877l-4.53877,-1.32933z" fill="#9966ff"></path><path d="M187.9623,209.99456l4.53877,1.32933l-1.32933,4.53877l-4.53877,-1.32933z" fill="#9966ff"></path><path d="M192.46942,211.43195l4.53877,1.32933l-1.32933,4.53877l-4.53877,-1.32933z" fill="#000000"></path><path d="M189.15192,205.5322l4.53877,1.32933l-1.32933,4.53877l-4.53877,-1.32933z" fill="#000000"></path></g><path d="M230.79569,170.28835v-6.48354h1.73666v6.48354z" fill="#c18c00" stroke="#000000" stroke-width="0.15" stroke-linecap="butt"></path><path d="M226.97504,163.80482v-4.51532h10.30419v4.51532z" fill="#c18c00" stroke="#000000" stroke-width="0.15" stroke-linecap="butt"></path><text transform="translate(226.97504,162.96707) scale(0.09808,0.09808)" font-size="40" xml:space="preserve" fill="#ffffff" fill-rule="nonzero" stroke="none" stroke-width="0.3" stroke-linecap="butt" stroke-linejoin="miter" stroke-miterlimit="10" stroke-dasharray="" stroke-dashoffset="0" font-family="Handwriting" font-weight="normal" text-anchor="start" style="mix-blend-mode: normal"><tspan x="0" dy="0">xAMt8</tspan></text><path d="M248.97275,213.47333v-5.67309h2.08399v5.67309z" fill="#ffffff" stroke="none" stroke-width="0.15" stroke-linecap="butt"></path><path d="M266.91825,214.05222v-5.78887h1.62088v5.78887z" fill="#ffffff" stroke="none" stroke-width="0.15" stroke-linecap="butt"></path><path d="M248.27809,208.26335v-2.19977h20.95571v2.19977z" fill="#ffffff" stroke="#000000" stroke-width="0.15" stroke-linecap="butt"></path><path d="M250.56468,208.21181l1.38426,-2.67305l1.33653,0.69213l-1.38426,2.67305z" fill="#ff7777" stroke="none" stroke-width="0.15" stroke-linecap="butt"></path><path d="M259.13221,208.21181l1.38426,-2.67305l1.33653,0.69213l-1.38426,2.67305z" fill="#ff7777" stroke="none" stroke-width="0.15" stroke-linecap="butt"></path><path d="M254.38534,208.55914l1.38426,-2.67305l1.33653,0.69213l-1.38426,2.67305z" fill="#ff7777" stroke="none" stroke-width="0.15" stroke-linecap="butt"></path><path d="M264.68953,207.98026l1.38426,-2.67305l1.33653,0.69213l-1.38426,2.67305z" fill="#ff7777" stroke="none" stroke-width="0.15" stroke-linecap="butt"></path><path d="M219.16275,190.83992v-19.45061h4.05221v19.45061z" fill="#00fff9" stroke="none" stroke-width="0.15" stroke-linecap="butt"></path><path d="M220.4363,183.43017c0,0 -0.57889,-1.72387 -0.57889,-2.66288c0,-1.0544 0.57889,-3.35755 0.57889,-3.35755h1.38933c0,0 -0.92622,2.41893 -0.92622,3.47332c0,0.93901 0.92622,2.5471 0.92622,2.5471z" fill="#00bdba" stroke="none" stroke-width="0.15" stroke-linecap="butt"></path><path d="M220.9573,176.02041c0,-0.03197 0.02592,-0.05789 0.05789,-0.05789c0.03197,0 0.05789,0.02592 0.05789,0.05789c0,0.03197 -0.02592,0.05789 -0.05789,0.05789c-0.03197,0 -0.05789,-0.02592 -0.05789,-0.05789z" fill="#00bdba" stroke="none" stroke-width="0.15" stroke-linecap="butt"></path><path d="M221.65197,177.6413c0,-0.03197 0.02592,-0.05789 0.05789,-0.05789c0.03197,0 0.05789,0.02592 0.05789,0.05789c0,0.03197 -0.02592,0.05789 -0.05789,0.05789c-0.03197,0 -0.05789,-0.02592 -0.05789,-0.05789z" fill="#00bdba" stroke="none" stroke-width="0.15" stroke-linecap="butt"></path><path d="M221.53619,175.78886c0,-0.03197 0.02592,-0.05789 0.05789,-0.05789c0.03197,0 0.05789,0.02592 0.05789,0.05789c0,0.03197 -0.02592,0.05789 -0.05789,0.05789c-0.03197,0 -0.05789,-0.02592 -0.05789,-0.05789z" fill="#00bdba" stroke="none" stroke-width="0.15" stroke-linecap="butt"></path><path d="M220.14686,184.93527c0,-0.03197 0.02592,-0.05789 0.05789,-0.05789c0.03197,0 0.05789,0.02592 0.05789,0.05789c0,0.03197 -0.02592,0.05789 -0.05789,0.05789c-0.03197,0 -0.05789,-0.02592 -0.05789,-0.05789z" fill="#00bdba" stroke="none" stroke-width="0.15" stroke-linecap="butt"></path><path d="M221.88352,184.93527c0,-0.03197 0.02592,-0.05789 0.05789,-0.05789c0.03197,0 0.05789,0.02592 0.05789,0.05789c0,0.03197 -0.02592,0.05789 -0.05789,0.05789c-0.03197,0 -0.05789,-0.02592 -0.05789,-0.05789z" fill="#00bdba" stroke="none" stroke-width="0.15" stroke-linecap="butt"></path><path d="M220.34947,176.13619c0,-0.09591 0.07775,-0.17367 0.17367,-0.17367c0.08228,0 0.15119,0.05722 0.16912,0.13404c0.01801,-0.01156 0.03944,-0.01826 0.06243,-0.01826c0.06394,0 0.11578,0.05184 0.11578,0.11578c0,0.06394 -0.05184,0.11578 -0.11578,0.11578c-0.04337,0 -0.08117,-0.02385 -0.101,-0.05914c-0.03183,0.03625 -0.07852,0.05914 -0.13055,0.05914c-0.09591,0 -0.17367,-0.07775 -0.17367,-0.17367z" fill="#00bdba" stroke="none" stroke-width="0.15" stroke-linecap="butt"></path><path d="M221.44936,176.02041c0,-0.09591 0.07775,-0.17367 0.17367,-0.17367c0.09591,0 0.17367,0.07775 0.17367,0.17367c0,0.09591 -0.07775,0.17367 -0.17367,0.17367c-0.09591,0 -0.17367,-0.07775 -0.17367,-0.17367z" fill="#00bdba" stroke="none" stroke-width="0.15" stroke-linecap="butt"></path><path d="M222.2598,177.06241c0,-0.09591 0.07775,-0.17367 0.17367,-0.17367c0.09591,0 0.17367,0.07775 0.17367,0.17367c0,0.09591 -0.07775,0.17367 -0.17367,0.17367c-0.09591,0 -0.17367,-0.07775 -0.17367,-0.17367z" fill="#00bdba" stroke="none" stroke-width="0.15" stroke-linecap="butt"></path><path d="M222.37558,178.6254c0,-0.09591 0.07775,-0.17367 0.17367,-0.17367c0.09591,0 0.17367,0.07775 0.17367,0.17367c0,0.09591 -0.07775,0.17367 -0.17367,0.17367c-0.09591,0 -0.17367,-0.07775 -0.17367,-0.17367z" fill="#00bdba" stroke="none" stroke-width="0.15" stroke-linecap="butt"></path><path d="M222.37558,180.24629c0,-0.09591 0.07775,-0.17367 0.17367,-0.17367c0.09591,0 0.17367,0.07775 0.17367,0.17367c0,0.09591 -0.07775,0.17367 -0.17367,0.17367c-0.09591,0 -0.17367,-0.07775 -0.17367,-0.17367z" fill="#00bdba" stroke="none" stroke-width="0.15" stroke-linecap="butt"></path><path d="M222.2598,181.51984c0,-0.09591 0.07775,-0.17367 0.17367,-0.17367c0.09591,0 0.17367,0.07775 0.17367,0.17367c0,0.09591 -0.07775,0.17367 -0.17367,0.17367c-0.09591,0 -0.17367,-0.07775 -0.17367,-0.17367z" fill="#00bdba" stroke="none" stroke-width="0.15" stroke-linecap="butt"></path><path d="M222.20191,183.02495c0,-0.09591 0.07775,-0.17367 0.17367,-0.17367c0.09591,0 0.17367,0.07775 0.17367,0.17367c0,0.09591 -0.07775,0.17367 -0.17367,0.17367c-0.09591,0 -0.17367,-0.07775 -0.17367,-0.17367z" fill="#00bdba" stroke="none" stroke-width="0.15" stroke-linecap="butt"></path><path d="M221.2178,184.12483c0,-0.09591 0.07775,-0.17367 0.17367,-0.17367c0.09591,0 0.17367,0.07775 0.17367,0.17367c0,0.09591 -0.07775,0.17367 -0.17367,0.17367c-0.09591,0 -0.17367,-0.07775 -0.17367,-0.17367z" fill="#00bdba" stroke="none" stroke-width="0.15" stroke-linecap="butt"></path><path d="M219.65481,183.54594c0,-0.09591 0.07775,-0.17367 0.17367,-0.17367c0.09591,0 0.17367,0.07775 0.17367,0.17367c0,0.09591 -0.07775,0.17367 -0.17367,0.17367c-0.09591,0 -0.17367,-0.07775 -0.17367,-0.17367z" fill="#00bdba" stroke="none" stroke-width="0.15" stroke-linecap="butt"></path><path d="M219.53903,182.44606c0,-0.09591 0.07775,-0.17367 0.17367,-0.17367c0.09591,0 0.17367,0.07775 0.17367,0.17367c0,0.09591 -0.07775,0.17367 -0.17367,0.17367c-0.09591,0 -0.17367,-0.07775 -0.17367,-0.17367z" fill="#00bdba" stroke="none" stroke-width="0.15" stroke-linecap="butt"></path><path d="M219.30747,180.82517c0,-0.09591 0.07775,-0.17367 0.17367,-0.17367c0.09591,0 0.17367,0.07775 0.17367,0.17367c0,0.09591 -0.07775,0.17367 -0.17367,0.17367c-0.09591,0 -0.17367,-0.07775 -0.17367,-0.17367z" fill="#00bdba" stroke="none" stroke-width="0.15" stroke-linecap="butt"></path><path d="M219.53903,178.33596c0,-0.09591 0.07775,-0.17367 0.17367,-0.17367c0.09591,0 0.17367,0.07775 0.17367,0.17367c0,0.09591 -0.07775,0.17367 -0.17367,0.17367c-0.09591,0 -0.17367,-0.07775 -0.17367,-0.17367z" fill="#00bdba" stroke="none" stroke-width="0.15" stroke-linecap="butt"></path></g></g></svg>