<svg version="1.1" xmlns="http://www.w3.org/2000/svg" xmlns:xlink="http://www.w3.org/1999/xlink" width="108.17328" height="194.59221" viewBox="0,0,108.17328,194.59221"><g transform="translate(-188.93681,-82.84574)"><g data-paper-data="{&quot;isPaintingLayer&quot;:true}" fill-rule="nonzero" stroke="none" stroke-linecap="butt" stroke-linejoin="miter" stroke-miterlimit="10" stroke-dasharray="" stroke-dashoffset="0" style="mix-blend-mode: normal"><path d="M223.25,222v-90h39v90z" fill="#0067ff" stroke-width="0"></path><path d="M237.25,155.5v-21.5h12.5v21.5c0,0 -4.39784,11 -6.57895,11c-1.96242,0 -5.92105,-11 -5.92105,-11z" fill="#ffffff" stroke-width="0"></path><path d="M264.5792,121.53234c-3.55902,7.99414 -4.54415,21.50209 -12.63099,23.05985c-5.18337,0.99847 -16.93036,-7.76039 -22.15285,-10.08546c-13.37036,-5.95253 -19.47474,-21.41232 -13.63452,-34.53041c5.84022,-13.11809 21.41348,-18.92692 34.78384,-12.9744c13.37036,5.95253 19.47475,21.41233 13.63453,34.53042z" fill="#ffdcb0" stroke-width="NaN"></path><path d="M218.73138,97.34574l1.5,-4.5c0,0 15.36945,-10 22,-10c5.96574,0 16.5,10 16.5,10l6,4.5c0,0 -6.48362,0.42834 -10.24377,2.4245c-2.62394,1.39298 -4.62602,4.5755 -7.25623,4.5755c-2.37716,0 -2.50956,-4.73986 -6.32977,-5.73851c-7.93043,-2.07312 -22.17023,-1.26149 -22.17023,-1.26149z" fill="#a75c00" stroke-width="0"></path><path d="M228.75,107c0,-0.55228 0.44771,-1 1,-1c0.55229,0 1,0.44772 1,1c0,0.55228 -0.44771,1 -1,1c-0.55229,0 -1,-0.44772 -1,-1z" fill="#000000" stroke-width="0.5"></path><path d="M234.25,103c0,1 -1,1 -1,1h-0.5c-0.96223,0 -3.84761,-0.51732 -4.61732,-0.07612c-0.70296,0.40293 -1.21446,1.10089 -1.93547,1.47055c0,0 -0.89443,0.44721 -1.34164,-0.44721c-0.44721,-0.89443 0.44721,-1.34164 0.44721,-1.34164c0.77112,-0.37265 1.28643,-1.17159 2.06453,-1.52945c1.26099,-0.57996 3.9848,-0.07612 5.38268,-0.07612h0.5c0,0 1,0 1,1z" fill="#000000" stroke-width="0.5"></path><path d="M256.25,108.5c0,-0.55228 0.44772,-1 1,-1c0.55228,0 1,0.44772 1,1c0,0.55228 -0.44772,1 -1,1c-0.55228,0 -1,-0.44772 -1,-1z" fill="#000000" stroke-width="0.5"></path><path d="M261.95711,105.70711c-0.70711,0.70711 -1.41421,0 -1.41421,0l0.20711,-0.20711c-2.25676,0 -3.87049,0.95368 -6,1c0,0 -1,0 -1,-1c0,-1 1,-1 1,-1c1.21988,0.04237 1.59268,-0.68185 2.77025,-0.97325c0.92799,-0.22963 2.26675,-0.02675 3.22975,-0.02675l1.20711,0.79289c0,0 0.70711,0.70711 0,1.41421z" fill="#000000" stroke-width="0.5"></path><path d="M250.25,136.5c0,0 0,1 -1,1c-1,0 -1,-1 -1,-1c0.04407,-2.02586 1.06354,-2.4867 2.01219,-3.68305c0.11391,-0.81695 0.98781,-0.81695 0.98781,-0.81695h1c0.55228,0 1,0.44772 1,1c0,0.55228 -0.44772,1 -1,1h-0.53484c-0.52849,1.19775 -1.51836,0.96808 -1.46516,2.5z" fill="#d2b491" stroke-width="0.5"></path><path d="M253.19721,136.10557c0.89443,0.44721 0.44721,1.34164 0.44721,1.34164l-0.5,1c-0.81419,1.51275 -0.33237,1.78507 -1.68732,3.25989c0,0 -0.70711,0.70711 -1.41421,0c-0.70711,-0.70711 0,-1.41421 0,-1.41421c1.02073,-0.88044 0.70816,-1.46859 1.31268,-2.74011l0.5,-1c0,0 0.44721,-0.89443 1.34164,-0.44721z" fill="#d2b491" stroke-width="0.5"></path><path d="M217.95711,119.70711c-0.70711,0.70711 -1.41421,0 -1.41421,0l-0.79289,-1.20711c0,-3.18245 -0.76219,-7.57034 0.60557,-10.44721c0,0 0.44721,-0.89443 1.34164,-0.44721c0.89443,0.44721 0.44721,1.34164 0.44721,1.34164c-1.25972,2.34053 -0.39443,6.87881 -0.39443,9.55279l0.20711,-0.20711c0,0 0.70711,0.70711 0,1.41421z" fill="#d2b491" stroke-width="0.5"></path><g data-paper-data="{&quot;index&quot;:null}" stroke-width="0"><path d="M204.6956,167.57352l20.84248,-23.61866l8.62269,7.60915l-20.84248,23.61866z" fill="#0067ff"></path><path d="M194.42404,176.1493l11.17236,-10.74375l8.66432,9.00996l-11.17236,10.74375z" fill="#ffdcb0"></path><path d="M201.62997,179.37407l-11.50548,-9.22964l1.87721,-2.34009l11.50548,9.22964z" fill="#ffdcb0"></path><path d="M203.31968,172.87278l-12.48295,7.85736l-1.59811,-2.53892l12.48295,-7.85736z" fill="#ffdcb0"></path><path d="M201.96871,176.62056l-11.04313,9.77812l-1.98877,-2.24607l11.04313,-9.77812z" fill="#ffdcb0"></path><path d="M204.89485,180.00254l-11.04313,9.77812l-1.98877,-2.24607l11.04313,-9.77812z" fill="#ffdcb0"></path><path d="M207.88409,178.19023l-7.72399,12.56592l-2.55579,-1.57099l7.72399,-12.56592z" fill="#ffdcb0"></path></g><path d="M218.61162,265.14018l6.39435,-44.8801l11.55003,1.64561l-6.39435,44.8801z" fill="#ad7f45" stroke-width="0"></path><path d="M254.77204,267.19347l-11.26216,-43.91212l11.30091,-2.89835l11.26216,43.91212z" fill="#ad7f45" stroke-width="0"></path><path d="M232.39503,243.13111c-0.57668,0.81696 -1.39365,0.24029 -1.39365,0.24029l-1.09509,-0.83925c-0.29477,-0.8664 -0.28935,-1.82413 -0.63763,-2.67044c-0.20134,-0.48925 -2.1433,-0.65289 -2.46882,-0.34445c-0.37087,0.3514 -0.18043,1.00808 -0.32795,1.49722c0,0 -0.28874,0.95741 -1.24615,0.66867c-0.95741,-0.28874 -0.66867,-1.24615 -0.66867,-1.24615c0.12469,-0.41344 0.61933,-2.14607 0.82702,-2.33241c1.32435,-1.18823 4.61914,-0.9028 5.57543,0.68894c0.45138,0.75134 0.36718,1.71425 0.568,2.56744l0.62723,0.3765c0,0 0.81696,0.57668 0.24029,1.39365z" fill="#6a4e2b" stroke-width="0.5"></path><path d="M257.86723,241.74003c-0.68133,0.73198 -1.4133,0.05065 -1.4133,0.05065l-0.64225,-0.61154c-0.31848,-0.46029 -0.95996,-0.58075 -1.46923,-0.81297c-0.40517,-0.18476 -0.80166,-0.98094 -1.14179,-0.69353c-0.81412,0.68795 -0.65398,1.83968 -1.64097,2.70283c0,0 -0.77799,0.62827 -1.40627,-0.14973c-0.62827,-0.77799 0.14973,-1.40627 0.14973,-1.40627c1.1946,-0.82655 0.3862,-2.08629 1.95501,-2.91084c1.56649,-0.82333 4.16892,0.93846 5.1095,2.01397l0.44891,0.40412c0,0 0.73198,0.68133 0.05065,1.4133z" fill="#6a4e2b" stroke-width="0.5"></path><path d="M205.85738,271.68552l1.58432,-11.55859c0,0 4.98092,2.06479 9.65118,0.72409c3.48188,-0.99955 6.57219,-5.56584 8.47219,-5.30541c2.82695,0.38748 5.98457,7.88574 5.98457,7.88574l-1.58432,11.55859z" fill="#b7b7b7" stroke-width="0"></path><path d="M257.61956,277.43795l-4.08336,-10.92873c0,0 1.43433,-8.00858 4.10722,-9.00725c1.79645,-0.67122 5.8139,3.10516 9.43027,3.31588c4.85066,0.28262 9.25672,-2.82535 9.25672,-2.82535l4.08336,10.92873z" data-paper-data="{&quot;index&quot;:null}" fill="#b7b7b7" stroke-width="0"></path><path d="M272.11193,187.37893l-17.75192,-26.02153l9.49992,-6.48086l17.75192,26.02153z" fill="#0067ff" stroke-width="0"></path><path d="M283.26431,195.74374l-11.96334,-9.85538l7.94788,-9.64785l11.96334,9.85538z" fill="#ffdcb0" stroke-width="0"></path><path d="M282.8602,188.19517l10.98923,9.83866l-2.00109,2.2351l-10.98923,-9.83866z" fill="#ffdcb0" stroke-width="0"></path><path d="M283.73546,182.13798l13.37462,6.21949l-1.26499,2.72027l-13.37462,-6.21949z" fill="#ffdcb0" stroke-width="0"></path><path d="M285.88121,184.89766l10.98923,9.83866l-2.00109,2.2351l-10.98923,-9.83866z" fill="#ffdcb0" stroke-width="0"></path><path d="M274.03219,190.7987l2.42358,14.54952l-2.95923,0.49293l-2.42358,-14.54952z" fill="#ffdcb0" stroke-width="0"></path><path d="M285.6344,188.2133l-7.83763,12.49536l-2.54143,-1.5941l7.83763,-12.49536z" fill="#ffdcb0" stroke-width="0"></path><path d="M230.67083,123.44023c0.99558,-0.09397 1.08955,0.9016 1.08955,0.9016l0.10216,1.08229c0.05185,0.5493 -0.35053,1.23432 0.00621,1.65521c0.57673,0.68046 2.44978,-0.12039 2.85916,-0.54536c0,0 0.74008,-0.67252 1.4126,0.06756c0.67252,0.74008 -0.06756,1.4126 -0.06756,1.4126c-1.42136,1.19976 -4.23248,1.96357 -5.79917,0.27188c-0.20441,-0.22072 -0.35891,-2.21325 -0.4024,-2.67395l-0.10216,-1.0823c0,0 -0.09397,-0.99557 0.9016,-1.08955z" fill="#000000" stroke-width="0.5"></path><path d="M258.23124,124.48624c-1,0 -1,-1 -1,-1c0,-2.43083 0,-6.32016 0,-8.75099c0,0 0,-1 1,-1c1,0 1,1 1,1c0,2.43083 0,4.86166 0,7.29249v1.4585c0,0 0,1 -1,1z" fill="#ffb9b9" stroke-width="0.5"></path><path d="M284.32617,186.32717c0.42418,0.7782 0.74765,1.44328 1.02686,2.14015l0.1379,-0.07761l0.95375,1.69473c0.27086,0.4813 0.10027,1.09105 -0.38103,1.36192c-0.34789,0.19578 -0.7629,0.16092 -1.06853,-0.0552l-0.88261,-0.59679l0.05676,-0.08395l-0.2321,-0.0669c-1.17552,-2.02996 -2.32366,-4.07439 -3.47411,-6.11864c0,0 -0.49044,-0.87147 0.38103,-1.36192c0.87147,-0.49044 1.36192,0.38103 1.36192,0.38103c0.49625,0.88179 0.99382,1.76268 1.48853,2.64512l0.36577,-0.34148c0.08194,0.1456 0.16042,0.28681 0.23576,0.42443l0.00268,-0.00075c0,0 0.0113,0.02008 0.02742,0.05586z" fill="#ffb9b9" stroke-width="0.5"></path></g></g></svg>