<svg version="1.1" xmlns="http://www.w3.org/2000/svg" xmlns:xlink="http://www.w3.org/1999/xlink" width="111.91593" height="84.64157" viewBox="0,0,111.91593,84.64157"><defs><radialGradient cx="193.22728" cy="146.54548" r="2.31818" gradientUnits="userSpaceOnUse" id="color-1"><stop offset="0" stop-color="#f4c700"></stop><stop offset="1" stop-color="#f4c700" stop-opacity="0"></stop></radialGradient><radialGradient cx="279.77273" cy="146.8182" r="2.31818" gradientUnits="userSpaceOnUse" id="color-2"><stop offset="0" stop-color="#f4c700"></stop><stop offset="1" stop-color="#f4c700" stop-opacity="0"></stop></radialGradient><radialGradient cx="209.56061" cy="146.98992" r="2.31818" gradientUnits="userSpaceOnUse" id="color-3"><stop offset="0" stop-color="#f4c700"></stop><stop offset="1" stop-color="#f4c700" stop-opacity="0"></stop></radialGradient><radialGradient cx="224.22728" cy="146.7677" r="2.31818" gradientUnits="userSpaceOnUse" id="color-4"><stop offset="0" stop-color="#f4c700"></stop><stop offset="1" stop-color="#f4c700" stop-opacity="0"></stop></radialGradient><radialGradient cx="240.56061" cy="147.21214" r="2.31818" gradientUnits="userSpaceOnUse" id="color-5"><stop offset="0" stop-color="#f4c700"></stop><stop offset="1" stop-color="#f4c700" stop-opacity="0"></stop></radialGradient><radialGradient cx="259.33839" cy="147.10103" r="2.31818" gradientUnits="userSpaceOnUse" id="color-6"><stop offset="0" stop-color="#f4c700"></stop><stop offset="1" stop-color="#f4c700" stop-opacity="0"></stop></radialGradient></defs><g transform="translate(-183.73863,-136.67926)"><g data-paper-data="{&quot;isPaintingLayer&quot;:true}" fill-rule="nonzero" stroke-linejoin="miter" stroke-miterlimit="10" stroke-dasharray="" stroke-dashoffset="0" style="mix-blend-mode: normal"><path d="M271.80302,152.634c1.57657,1.71219 0.38446,5.37472 -2.66267,8.18049c-3.04712,2.80577 -6.79537,3.69228 -8.37194,1.98009c-1.57657,-1.71219 -0.38446,-5.37472 2.66267,-8.18049c3.04712,-2.80577 6.79537,-3.69228 8.37194,-1.98009z" fill="#b5b5b5" stroke="none" stroke-width="0" stroke-linecap="butt"></path><path d="M231.72684,182.33819c0.69738,1.09926 -0.22249,2.93262 -2.0546,4.09493c-1.8321,1.1623 -3.88266,1.21341 -4.58004,0.11414c-0.69738,-1.09926 0.22249,-2.93262 2.0546,-4.09493c1.8321,-1.1623 3.88266,-1.21341 4.58004,-0.11414z" fill="#484848" stroke="none" stroke-width="0" stroke-linecap="butt"></path><path d="M239.83969,179.57042c2.21594,1.71303 0.94156,7.07399 -2.84642,11.97403c-3.78798,4.90004 -8.65511,7.48362 -10.87106,5.77059c-2.21594,-1.71303 -0.94156,-7.07399 2.84642,-11.97403c3.78798,-4.90004 8.65511,-7.48362 10.87106,-5.77059z" fill="#b7b7b7" stroke="none" stroke-width="0" stroke-linecap="butt"></path><path d="M239.16627,201.22037c-1.77794,3.95843 -7.33252,5.31988 -12.40651,3.04089c-5.07399,-2.27899 -7.74596,-7.33542 -5.96802,-11.29385c1.77794,-3.95843 7.33252,-5.31988 12.40651,-3.04089c5.07399,2.27899 7.74596,7.33542 5.96802,11.29385z" fill="#6d6d6d" stroke="none" stroke-width="0" stroke-linecap="butt"></path><path d="M183.73866,221.32083v-5.51584h110.58727v5.51584z" fill="#757575" stroke="none" stroke-width="0.5" stroke-linecap="butt"></path><path d="M293.91806,175.60087v-3.02982h1.04879v3.02982z" fill="#b7b7b7" stroke="none" stroke-width="0.5" stroke-linecap="butt"></path><path d="M183.8833,140.8744v-4.19514h110.79222v4.19514z" fill="#686868" stroke="none" stroke-width="0.5" stroke-linecap="butt"></path><path d="M183.73863,219.77805v-80.90803h1.86451v80.90803z" fill="#686868" stroke="none" stroke-width="0.5" stroke-linecap="butt"></path><path d="M185.41667,161.08336v-19.5h3.5v19.5z" fill="#8c6139" stroke="#704d38" stroke-width="0.5" stroke-linecap="butt"></path><path d="M188.75,143.41669v-1.83333h99.66667v1.83333z" fill="#8c6139" stroke="#704d38" stroke-width="0.5" stroke-linecap="butt"></path><path d="M287.99243,159.94699v-18.33334h5v18.33334z" fill="#8c6139" stroke="#704d38" stroke-width="0.5" stroke-linecap="butt"></path><path d="M193.08334,143.41669v1.5" fill="none" stroke="#17100c" stroke-width="0.5" stroke-linecap="round"></path><path d="M194.09091,146.40911c0,0.72801 -0.38666,1.31818 -0.86364,1.31818c-0.47698,0 -0.86364,-0.59017 -0.86364,-1.31818c0,-0.72801 0.38666,-1.31818 0.86364,-1.31818c0.47698,0 0.86364,0.59017 0.86364,1.31818z" fill="#dcc55a" stroke="#17100c" stroke-width="0.25" stroke-linecap="butt"></path><path d="M192.27273,146.27275h1.63636" fill="none" stroke="#17100c" stroke-width="0.25" stroke-linecap="round"></path><path d="M193.09091,147.54548l0.09091,-2.09091" fill="none" stroke="#17100c" stroke-width="0.25" stroke-linecap="round"></path><path d="M195.54546,146.54548c0,1.10457 -1.03789,2 -2.31818,2c-1.28029,0 -2.31818,-0.89543 -2.31818,-2c0,-1.10457 1.03789,-2 2.31818,-2c1.28029,0 2.31818,0.89543 2.31818,2z" fill="url(#color-1)" stroke="none" stroke-width="0" stroke-linecap="butt"></path><g><path d="M279.62879,143.68941v1.5" fill="none" stroke="#17100c" stroke-width="0.5" stroke-linecap="round"></path><path d="M280.63636,146.68184c0,0.72801 -0.38666,1.31818 -0.86364,1.31818c-0.47697,0 -0.86364,-0.59017 -0.86364,-1.31818c0,-0.72801 0.38666,-1.31818 0.86364,-1.31818c0.47698,0 0.86364,0.59017 0.86364,1.31818z" fill="#dcc55a" stroke="#17100c" stroke-width="0.25" stroke-linecap="butt"></path><path d="M278.81818,146.54547h1.63636" fill="none" stroke="#17100c" stroke-width="0.25" stroke-linecap="round"></path><path d="M279.72727,145.72729l-0.09091,2.09091" fill="none" stroke="#17100c" stroke-width="0.25" stroke-linecap="round"></path><path d="M282.09091,146.8182c0,1.10457 -1.03789,2 -2.31818,2c-1.28029,0 -2.31818,-0.89543 -2.31818,-2c0,-1.10457 1.03789,-2 2.31818,-2c1.2803,0 2.31818,0.89543 2.31818,2z" fill="url(#color-2)" stroke="none" stroke-width="0" stroke-linecap="butt"></path></g><path d="M209.41667,143.86113v1.5" fill="none" stroke="#17100c" stroke-width="0.5" stroke-linecap="round"></path><path d="M210.42424,146.85355c0,0.72801 -0.38666,1.31818 -0.86364,1.31818c-0.47698,0 -0.86364,-0.59017 -0.86364,-1.31818c0,-0.72801 0.38666,-1.31818 0.86364,-1.31818c0.47698,0 0.86364,0.59017 0.86364,1.31818z" fill="#dcc55a" stroke="#17100c" stroke-width="0.25" stroke-linecap="butt"></path><path d="M210.24242,146.71719h-1.63636" fill="none" stroke="#17100c" stroke-width="0.25" stroke-linecap="round"></path><path d="M209.51515,145.89901l-0.09091,2.09091" fill="none" stroke="#17100c" stroke-width="0.25" stroke-linecap="round"></path><path d="M211.87879,146.98992c0,1.10457 -1.03789,2 -2.31818,2c-1.28029,0 -2.31818,-0.89543 -2.31818,-2c0,-1.10457 1.03789,-2 2.31818,-2c1.28029,0 2.31818,0.89543 2.31818,2z" fill="url(#color-3)" stroke="none" stroke-width="0" stroke-linecap="butt"></path><path d="M225.09091,146.63133c0,0.72801 -0.38666,1.31818 -0.86364,1.31818c-0.47698,0 -0.86364,-0.59017 -0.86364,-1.31818c0,-0.72801 0.38666,-1.31818 0.86364,-1.31818c0.47698,0 0.86364,0.59017 0.86364,1.31818z" fill="#dcc55a" stroke="#17100c" stroke-width="0.25" stroke-linecap="butt"></path><path d="M223.27273,146.49497h1.63636" fill="none" stroke="#17100c" stroke-width="0.25" stroke-linecap="round"></path><path d="M224.18182,145.67679l-0.09091,2.09091" fill="none" stroke="#17100c" stroke-width="0.25" stroke-linecap="round"></path><path d="M226.54546,146.7677c0,1.10457 -1.03789,2 -2.31818,2c-1.28029,0 -2.31818,-0.89543 -2.31818,-2c0,-1.10457 1.03789,-2 2.31818,-2c1.28029,0 2.31818,0.89543 2.31818,2z" fill="url(#color-4)" stroke="none" stroke-width="0" stroke-linecap="butt"></path><path d="M240.30556,144.08335v1.5" fill="none" stroke="#17100c" stroke-width="0.5" stroke-linecap="round"></path><path d="M241.42425,147.07577c0,0.72801 -0.38666,1.31818 -0.86364,1.31818c-0.47698,0 -0.86364,-0.59017 -0.86364,-1.31818c0,-0.72801 0.38666,-1.31818 0.86364,-1.31818c0.47698,0 0.86364,0.59017 0.86364,1.31818z" fill="#dcc55a" stroke="#17100c" stroke-width="0.25" stroke-linecap="butt"></path><path d="M239.60606,146.93941h1.63636" fill="none" stroke="#17100c" stroke-width="0.25" stroke-linecap="round"></path><path d="M240.42424,148.21214l0.09091,-2.09091" fill="none" stroke="#17100c" stroke-width="0.25" stroke-linecap="round"></path><path d="M242.87879,147.21214c0,1.10457 -1.03789,2 -2.31818,2c-1.28029,0 -2.31818,-0.89543 -2.31818,-2c0,-1.10457 1.03789,-2 2.31818,-2c1.28029,0 2.31818,0.89543 2.31818,2z" fill="url(#color-5)" stroke="none" stroke-width="0" stroke-linecap="butt"></path><path d="M224.08334,144.08335v1.5" fill="none" stroke="#17100c" stroke-width="0.5" stroke-linecap="round"></path><path d="M259.59344,143.97224v1.5" data-paper-data="{&quot;index&quot;:null}" fill="none" stroke="#17100c" stroke-width="0.5" stroke-linecap="round"></path><path d="M259.3384,145.64648c0.47698,0 0.86364,0.59017 0.86364,1.31818c0,0.72801 -0.38666,1.31818 -0.86364,1.31818c-0.47698,0 -0.86364,-0.59017 -0.86364,-1.31818c0,-0.72801 0.38666,-1.31818 0.86364,-1.31818z" data-paper-data="{&quot;index&quot;:null}" fill="#dcc55a" stroke="#17100c" stroke-width="0.25" stroke-linecap="butt"></path><path d="M260.29294,146.8283h-1.63636" data-paper-data="{&quot;index&quot;:null}" fill="none" stroke="#17100c" stroke-width="0.25" stroke-linecap="round"></path><path d="M259.47476,148.10103l-0.09091,-2.09091" data-paper-data="{&quot;index&quot;:null}" fill="none" stroke="#17100c" stroke-width="0.25" stroke-linecap="round"></path><path d="M259.33839,145.10103c1.28029,0 2.31818,0.89543 2.31818,2c0,1.10457 -1.03789,2 -2.31818,2c-1.28029,0 -2.31818,-0.89543 -2.31818,-2c0,-1.10457 1.03789,-2 2.31818,-2z" data-paper-data="{&quot;index&quot;:null}" fill="url(#color-6)" stroke="none" stroke-width="0" stroke-linecap="butt"></path><g><path d="M187.95853,207.90753l0.0879,-5.4993l5.4993,0.0879l-0.0879,5.4993z" fill="#b17e37" stroke="#784000" stroke-width="0.5" stroke-linecap="butt"></path><path d="M193.32819,203.59281l-5.10095,0.01847" fill="none" stroke="#845a2a" stroke-width="0.15" stroke-linecap="round"></path><path d="M188.19687,205.51104l4.99777,0.1799" fill="none" stroke="#845a2a" stroke-width="0.15" stroke-linecap="round"></path><path d="M188.27448,206.91246l4.89617,0.27829" fill="none" stroke="#845a2a" stroke-width="0.15" stroke-linecap="round"></path></g><g><path d="M193.44004,208.21816l-0.56138,-5.47128l5.47128,-0.56138l0.56138,5.47128z" fill="#b17e37" stroke="#784000" stroke-width="0.5" stroke-linecap="butt"></path><path d="M193.20011,203.92021l5.06316,-0.62003" fill="none" stroke="#845a2a" stroke-width="0.15" stroke-linecap="round"></path><path d="M193.39404,205.81029l4.9841,-0.41087" fill="none" stroke="#845a2a" stroke-width="0.15" stroke-linecap="round"></path><path d="M193.63641,207.19276l4.89482,-0.30118" fill="none" stroke="#845a2a" stroke-width="0.15" stroke-linecap="round"></path></g><g><path d="M190.39439,202.30697l1.39546,-5.32004l5.32003,1.39547l-1.39547,5.32003z" fill="#b17e37" stroke="#784000" stroke-width="0.5" stroke-linecap="butt"></path><path d="M191.67884,198.19843l4.95849,1.19725" fill="none" stroke="#845a2a" stroke-width="0.15" stroke-linecap="round"></path><path d="M191.19678,200.03626l4.81102,1.36533" fill="none" stroke="#845a2a" stroke-width="0.15" stroke-linecap="round"></path><path d="M190.93829,201.41582l4.68891,1.43668" fill="none" stroke="#845a2a" stroke-width="0.15" stroke-linecap="round"></path></g><path d="M228.63309,201.17704c0,2.95867 -2.59035,5.35714 -5.78571,5.35714c-3.19536,0 -5.78571,-2.39847 -5.78571,-5.35714c0,-2.95867 2.59035,-5.35714 5.78571,-5.35714c3.19536,0 5.78571,2.39847 5.78571,5.35714z" fill="#8c8c8c" stroke="none" stroke-width="NaN" stroke-linecap="butt"></path><path d="M228.50654,204.33181c0.67082,0.61093 0.69785,1.67364 0.06035,2.37363c-0.63749,0.69999 -1.69809,0.77219 -2.36891,0.16126c-0.67082,-0.61093 -0.69785,-1.67364 -0.06035,-2.37363c0.63749,-0.69999 1.69809,-0.77219 2.36891,-0.16126z" fill="#9d9d9d" stroke="none" stroke-width="0" stroke-linecap="butt"></path><path d="M242.88387,189.32684c-0.22764,1.84007 -2.06254,3.12758 -4.09836,2.87572c-2.03582,-0.25185 -3.50165,-1.9477 -3.27401,-3.78777c0.22764,-1.84007 2.06254,-3.12758 4.09836,-2.87572c2.03582,0.25185 3.50165,1.9477 3.27401,3.78777z" fill="#8e8e8e" stroke="none" stroke-width="0" stroke-linecap="butt"></path><path d="M278.35714,151.14286c0,4.53662 -3.86954,8.21429 -8.64286,8.21429c-4.77332,0 -8.64286,-3.67766 -8.64286,-8.21429c0,-4.53662 3.86954,-8.21429 8.64286,-8.21429c4.77332,0 8.64286,3.67766 8.64286,8.21429z" fill="#969696" stroke="none" stroke-width="0" stroke-linecap="butt"></path><path d="M293.16393,220.90067v-84.11628h2.49063v84.11628z" fill="#686868" stroke="none" stroke-width="0.5" stroke-linecap="butt"></path></g></g></svg>