<svg version="1.1" xmlns="http://www.w3.org/2000/svg" xmlns:xlink="http://www.w3.org/1999/xlink" width="35.20758" height="51.06842" viewBox="0,0,35.20758,51.06842"><g transform="translate(-222.39621,-154.84268)"><g data-paper-data="{&quot;isPaintingLayer&quot;:true}" fill-rule="nonzero" stroke-linejoin="miter" stroke-miterlimit="10" stroke-dasharray="" stroke-dashoffset="0" style="mix-blend-mode: normal"><path d="M222.51651,205.15732v-48.75286h35.08728v48.75286z" fill="#8e6544" stroke="none" stroke-width="0" stroke-linecap="butt"></path><path d="M239.9986,204.78799l-0.12312,-47.52173" fill="none" stroke="#6d5335" stroke-width="2" stroke-linecap="round"></path><path d="M249.35521,157.02003l0.12311,47.89107" fill="none" stroke="#6d5335" stroke-width="2" stroke-linecap="round"></path><path d="M230.64199,204.66487v-48.01418" fill="none" stroke="#6d5335" stroke-width="2" stroke-linecap="round"></path><path d="M222.39621,161.04834v-1.2303h34.91716v1.2303z" fill="#4e3826" stroke="none" stroke-width="0" stroke-linecap="butt"></path><path d="M222.53701,170.47431v-8.40275h35.03433v8.40275z" fill="#6f5035" stroke="none" stroke-width="0" stroke-linecap="butt"></path><path d="M222.5338,172.65771v-1.2303h34.91716v1.2303z" fill="#4e3826" stroke="none" stroke-width="0" stroke-linecap="butt"></path><path d="M232.02617,169.20781l-0.04432,-5.51075c0,0 0.16067,-0.62674 0.33019,-0.63315c1.2389,-0.04681 15.14965,-0.11744 17.77225,-0.12188c0.26759,-0.00045 0.68039,0.57722 0.68039,0.57722c0,0 -0.00787,4.86103 -0.00243,5.61658c0.00132,0.18198 -0.57385,0.56098 -0.57385,0.56098c0,0 -16.07471,0.09996 -17.74611,0.05644c-0.26497,-0.0069 -0.41611,-0.54542 -0.41611,-0.54542z" fill="#b39071" stroke="none" stroke-width="0" stroke-linecap="butt"></path><path d="M234.42966,168.81686l-0.03482,-4.24765c0,0 0.12622,-0.48309 0.25938,-0.48803c0.97323,-0.03609 11.90105,-0.09052 13.96127,-0.09394c0.2102,-0.00035 0.53449,0.44491 0.53449,0.44491c0,0 -0.00616,3.74684 -0.00191,4.32922c0.00102,0.14026 -0.4508,0.4324 -0.4508,0.4324c0,0 -12.62774,0.07704 -13.94075,0.04351c-0.20814,-0.00533 -0.32688,-0.42041 -0.32688,-0.42041z" fill="#c59e7c" stroke="none" stroke-width="0" stroke-linecap="butt"></path><path d="M222.41389,191.47359v-1.2303h34.91716v1.2303z" fill="#4e3826" stroke="none" stroke-width="0" stroke-linecap="butt"></path><path d="M222.41389,197.34838v-5.34403h35.03433v5.34403z" fill="#6f5035" stroke="none" stroke-width="0" stroke-linecap="butt"></path><path d="M222.41069,199.25018v-1.2303h34.91716v1.2303z" fill="#4e3826" stroke="none" stroke-width="0" stroke-linecap="butt"></path><path d="M223.34753,182.71992l1.66203,-1.53892l1.66203,1.4158l-1.47736,2.09293z" fill="#3c2b1d" stroke="none" stroke-width="0" stroke-linecap="butt"></path><path d="M223.59375,184.68973c0,-0.84992 0.68899,-1.53892 1.53892,-1.53892c0.84992,0 1.53892,0.68899 1.53892,1.53892c0,0.84992 -0.68899,1.53892 -1.53892,1.53892c-0.84992,0 -1.53892,-0.68899 -1.53892,-1.53892z" fill="none" stroke="#bd972c" stroke-width="1" stroke-linecap="butt"></path><path d="M225.00955,182.59682l0.06156,0.86179" fill="none" stroke="#3c2b1d" stroke-width="1" stroke-linecap="round"></path><path d="M222.39911,157.56058v-2.24522h8.50821v2.24522z" fill="#8e6544" stroke="none" stroke-width="NaN" stroke-linecap="butt"></path><path d="M230.43464,157.44241v-1.65437h9.6899v1.65437z" fill="#8e6544" stroke="none" stroke-width="0" stroke-linecap="butt"></path><path d="M239.65187,157.20607v-2.36339h9.80807v2.36339z" fill="#8e6544" stroke="none" stroke-width="0" stroke-linecap="butt"></path><path d="M249.34177,157.0879v-1.5362h7.91736v1.5362z" fill="#8e6544" stroke="none" stroke-width="0" stroke-linecap="butt"></path></g></g></svg>