<svg version="1.1" xmlns="http://www.w3.org/2000/svg" xmlns:xlink="http://www.w3.org/1999/xlink" width="61.32308" height="47.14541" viewBox="0,0,61.32308,47.14541"><defs><radialGradient cx="261.45195" cy="172.41682" r="8.20232" gradientUnits="userSpaceOnUse" id="color-1"><stop offset="0" stop-color="#3c3c3c"></stop><stop offset="1" stop-color="#656565"></stop></radialGradient><radialGradient cx="219.32969" cy="176.47099" r="6.92975" gradientUnits="userSpaceOnUse" id="color-2"><stop offset="0" stop-color="#3c3c3c"></stop><stop offset="1" stop-color="#656565"></stop></radialGradient><linearGradient x1="237.98355" y1="187.78498" x2="237.8811" y2="192.54859" gradientUnits="userSpaceOnUse" id="color-3"><stop offset="0" stop-color="#ffffff" stop-opacity="0"></stop><stop offset="1" stop-color="#ffffff"></stop></linearGradient><radialGradient cx="267.29519" cy="188.21011" r="9.13488" gradientUnits="userSpaceOnUse" id="color-4"><stop offset="0" stop-color="#b3b0b4"></stop><stop offset="1" stop-color="#79787a"></stop></radialGradient><radialGradient cx="259.14238" cy="174.75852" r="5.08583" gradientUnits="userSpaceOnUse" id="color-5"><stop offset="0" stop-color="#b3b0b4"></stop><stop offset="1" stop-color="#79787a"></stop></radialGradient><radialGradient cx="254.93801" cy="187.82058" r="6.83738" gradientUnits="userSpaceOnUse" id="color-6"><stop offset="0" stop-color="#79787a"></stop><stop offset="1" stop-color="#464546"></stop></radialGradient><radialGradient cx="216.53584" cy="187.84393" r="7.90244" gradientUnits="userSpaceOnUse" id="color-7"><stop offset="0" stop-color="#b3b0b4"></stop><stop offset="1" stop-color="#79787a"></stop></radialGradient><radialGradient cx="223.01297" cy="165.24018" r="5.81309" gradientUnits="userSpaceOnUse" id="color-8"><stop offset="0" stop-color="#b3b0b4"></stop><stop offset="1" stop-color="#79787a"></stop></radialGradient><radialGradient cx="264.05062" cy="163.52696" r="4.14267" gradientUnits="userSpaceOnUse" id="color-9"><stop offset="0" stop-color="#b3b0b4"></stop><stop offset="1" stop-color="#79787a"></stop></radialGradient><linearGradient x1="240.25" y1="192.70835" x2="240.25" y2="202.79168" gradientUnits="userSpaceOnUse" id="color-10"><stop offset="0" stop-color="#b4b4b4"></stop><stop offset="1" stop-color="#9d9d9d"></stop></linearGradient><linearGradient x1="261.20833" y1="198.16668" x2="256.375" y2="198.16668" gradientUnits="userSpaceOnUse" id="color-11"><stop offset="0" stop-color="#656565"></stop><stop offset="1" stop-color="#b1b1b1"></stop></linearGradient><linearGradient x1="218.375" y1="198.00001" x2="223.20834" y2="198.00001" gradientUnits="userSpaceOnUse" id="color-12"><stop offset="0" stop-color="#656565"></stop><stop offset="1" stop-color="#b1b1b1"></stop></linearGradient><linearGradient x1="220.75" y1="194.37501" x2="220.75" y2="202.62501" gradientUnits="userSpaceOnUse" id="color-13"><stop offset="0" stop-color="#bebebe"></stop><stop offset="1" stop-color="#000000"></stop></linearGradient><linearGradient x1="223" y1="193.62501" x2="223" y2="202.62501" gradientUnits="userSpaceOnUse" id="color-14"><stop offset="0" stop-color="#bebebe"></stop><stop offset="1" stop-color="#000000"></stop></linearGradient><linearGradient x1="256.08333" y1="193.70835" x2="256.08333" y2="202.70835" gradientUnits="userSpaceOnUse" id="color-15"><stop offset="0" stop-color="#bebebe"></stop><stop offset="1" stop-color="#000000"></stop></linearGradient><linearGradient x1="259.34615" y1="195.6763" x2="259.34615" y2="202.84297" gradientUnits="userSpaceOnUse" id="color-16"><stop offset="0" stop-color="#bebebe"></stop><stop offset="1" stop-color="#000000"></stop></linearGradient><linearGradient x1="238.33334" y1="193.04168" x2="238.33334" y2="194.29168" gradientUnits="userSpaceOnUse" id="color-17"><stop offset="0" stop-color="#bebebe"></stop><stop offset="1" stop-color="#000000"></stop></linearGradient><linearGradient x1="240.46989" y1="195.10229" x2="241.36345" y2="194.89774" gradientUnits="userSpaceOnUse" id="color-18"><stop offset="0" stop-color="#ff6262"></stop><stop offset="1" stop-color="#ead2d2"></stop></linearGradient><radialGradient cx="218.09881" cy="165.28576" r="5.42067" gradientUnits="userSpaceOnUse" id="color-19"><stop offset="0" stop-color="#79787a"></stop><stop offset="1" stop-color="#464546"></stop></radialGradient><radialGradient cx="252.08711" cy="161.24918" r="4.17839" gradientUnits="userSpaceOnUse" id="color-20"><stop offset="0" stop-color="#79787a"></stop><stop offset="1" stop-color="#464546"></stop></radialGradient><radialGradient cx="267.32038" cy="159.96249" r="2.53525" gradientUnits="userSpaceOnUse" id="color-21"><stop offset="0" stop-color="#b3b0b4"></stop><stop offset="1" stop-color="#79787a"></stop></radialGradient><radialGradient cx="266.17462" cy="173.92262" r="4.17841" gradientUnits="userSpaceOnUse" id="color-22"><stop offset="0" stop-color="#b3b0b4"></stop><stop offset="1" stop-color="#79787a"></stop></radialGradient><linearGradient x1="239.97692" y1="157.19541" x2="239.97692" y2="204.09541" gradientUnits="userSpaceOnUse" id="color-23"><stop offset="0" stop-color="#000000" stop-opacity="0.84677"></stop><stop offset="1" stop-color="#000000" stop-opacity="0"></stop></linearGradient></defs><g transform="translate(-209.25,-156.95)"><g data-paper-data="{&quot;isPaintingLayer&quot;:true}" fill-rule="nonzero" stroke-linejoin="miter" stroke-miterlimit="10" stroke-dasharray="" stroke-dashoffset="0" style="mix-blend-mode: normal"><path d="M209.71327,202.18406v-45.00651h60.57347v45.00651z" fill="#5d5d5d" stroke="none" stroke-width="0" stroke-linecap="butt"></path><path d="M248.97308,202.55l-12,-45.3l33.6,-0.3v45.6z" data-paper-data="{&quot;index&quot;:null}" fill="#4a4a4a" stroke="none" stroke-width="0" stroke-linecap="butt"></path><path d="M209.25,202.65v-45.6l27.9,-0.1l-6.3,45.7z" fill="#4a4a4a" stroke="none" stroke-width="0" stroke-linecap="butt"></path><path d="M268.9473,175.74812c-0.60707,1.36591 -2.62764,0.76631 -4.35064,1.08472c-1.77557,0.32812 -3.27582,1.53966 -5.37671,0.60591c-0.78871,-0.35055 -2.49698,3.90527 -3.14373,3.4366c-2.7478,-1.99113 -3.1175,-9.54472 -2.11969,-11.7898c1.23267,-2.77353 5.58774,-3.53044 9.72733,-1.69063c4.13958,1.83983 6.49609,5.57967 5.26342,8.35319z" fill="url(#color-1)" stroke="none" stroke-width="0" stroke-linecap="butt"></path><path d="M226.25945,176.47099c0,3.71888 -3.10255,6.73363 -6.92975,6.73363c-3.8272,0 -6.92975,-3.01474 -6.92975,-6.73363c0,-2.97922 1.20662,-6.4218 3.96634,-7.3093c0.68516,-0.22035 2.20221,0.57564 2.96341,0.57564c0.45612,0 3.12469,-4.92569 3.55621,-4.84396c3.1892,0.60403 3.37356,8.30192 3.37356,11.57759z" fill="url(#color-2)" stroke="none" stroke-width="0" stroke-linecap="butt"></path><path d="M227.30831,202.57246l9.08334,-36.00001l1.11667,-0.55l-7.3,36.41667z" fill="#9f8250" stroke="none" stroke-width="0" stroke-linecap="butt"></path><path d="M247.47498,202.55579l-8.76666,-36.28334l1.11667,0.41667l10.08333,36.13333z" data-paper-data="{&quot;index&quot;:null}" fill="#9f8250" stroke="none" stroke-width="0" stroke-linecap="butt"></path><path d="M232.54301,190.50687l0.32337,-1.6l11.12358,0.2l0.51738,1.4z" fill="#caa565" stroke="none" stroke-width="0" stroke-linecap="butt"></path><path d="M236.91074,192.52771l-2.70145,-5.70647l7.47267,-0.0158l-2.83047,5.764z" fill="url(#color-3)" stroke="none" stroke-width="0" stroke-linecap="butt"></path><path d="M233.40846,186.34564l0.27574,-1.1926l9.48504,0.14908l0.44117,1.04352z" fill="#caa565" stroke="none" stroke-width="0" stroke-linecap="butt"></path><path d="M234.777,181.04094l0.20147,-1.18512l6.93033,0.14814l0.32233,1.03698z" fill="#caa565" stroke="none" stroke-width="0" stroke-linecap="butt"></path><path d="M235.28318,178.00521l0.16686,-1.06189l5.73996,0.13274l0.26698,0.92916z" fill="#caa565" stroke="none" stroke-width="0" stroke-linecap="butt"></path><path d="M235.69938,175.57083l0.1462,-0.63704l5.02892,0.07963l0.23391,0.55741z" fill="#caa565" stroke="none" stroke-width="0" stroke-linecap="butt"></path><path d="M236.01355,174.15551l0.12927,-0.58766l4.44688,0.07345l0.20684,0.51421z" fill="#caa565" stroke="none" stroke-width="0" stroke-linecap="butt"></path><path d="M236.30273,172.90692l0.11543,-0.41481l3.97079,0.05185l0.1847,0.36296z" fill="#caa565" stroke="none" stroke-width="0" stroke-linecap="butt"></path><path d="M236.59895,171.36238l0.0949,-0.41481l3.26454,0.05185l0.15184,0.36296z" fill="#caa565" stroke="none" stroke-width="0" stroke-linecap="butt"></path><path d="M236.81259,169.22457l0.72191,-3.1284c0,0 1.25308,0.19449 1.25743,0.36313c0.01169,0.45313 0.65722,2.76527 0.65722,2.76527z" fill-opacity="0.49326" fill="#caa565" stroke="none" stroke-width="0" stroke-linecap="butt"></path><path d="M261.97788,197.24367v-2.80352c0,0 2.28448,-1.59355 3.39549,-4.68509c0.84993,-2.36511 0.50419,-6.42515 0.96745,-6.42515c1.35997,0 3.13584,11.11022 3.13584,11.11022v2.80352z" data-paper-data="{&quot;index&quot;:null}" fill="url(#color-4)" stroke="#000000" stroke-width="0" stroke-linecap="butt"></path><path d="M257.92785,179.78791v-1.56085c0,0 0.98872,-6.18559 1.74588,-6.18559c0.25792,0 0.06542,2.26043 0.53862,3.5772c0.61856,1.72121 1.89044,2.60841 1.89044,2.60841v1.56087z" data-paper-data="{&quot;index&quot;:null}" fill="url(#color-5)" stroke="#000000" stroke-width="0" stroke-linecap="butt"></path><path d="M251.81859,198.63254l0.0559,-0.97807c0,0 1.05627,-2.33295 2.04415,-4.92302c0.4382,-1.14891 -1.59063,-4.13401 -0.85846,-4.9939c0.77931,-0.91528 1.82484,-3.97256 2.23858,-4.00407c0.24929,-0.01897 0.07115,0.45654 0.17282,0.8992c0.26742,1.16399 0.48014,3.14772 0.59224,3.15411c0.36603,0.02092 -0.58384,1.06345 -0.38713,3.14345c0.27156,2.87126 1.61815,7.03402 1.61815,7.03402l-0.0559,0.97807z" data-paper-data="{&quot;index&quot;:null}" fill="url(#color-6)" stroke="#000000" stroke-width="0" stroke-linecap="butt"></path><path d="M211.93593,195.65871v-2.42529c0,0 1.97623,-1.37854 2.93738,-4.05298c0.73528,-2.04602 0.43617,-5.55829 0.83691,-5.55829c1.17648,0 2.71275,9.61125 2.71275,9.61125v2.42529z" data-paper-data="{&quot;index&quot;:null}" fill="url(#color-7)" stroke="#000000" stroke-width="0" stroke-linecap="butt"></path><path d="M221.62477,171.13968v-1.83088c0,0 1.13011,-7.25571 1.99554,-7.25571c0.2948,0 0.07476,2.65147 0.61563,4.19605c0.707,2.01899 2.16076,3.05968 2.16076,3.05968v1.83088z" data-paper-data="{&quot;index&quot;:null}" fill="url(#color-8)" stroke="#000000" stroke-width="0" stroke-linecap="butt"></path><path d="M261.6392,167.62369v-1.27141c0,0 1.036,-0.72266 1.53985,-2.12467c0.38545,-1.07258 0.22866,-2.91382 0.43873,-2.91382c0.61675,0 1.42211,5.03848 1.42211,5.03848v1.27139z" data-paper-data="{&quot;index&quot;:null}" fill="url(#color-9)" stroke="#000000" stroke-width="0" stroke-linecap="butt"></path><path d="M236.88127,170.5103l0.07256,-0.41481l2.49584,0.05185l0.11609,0.36296z" fill="#caa565" stroke="none" stroke-width="0" stroke-linecap="butt"></path><g><path d="M209.95834,202.79168l8.75,-10.08334l41.74999,0.33334l10.08334,9.75c0,0 -9.28964,0 -16.16667,0c-0.22494,0 -0.44729,0 -0.66666,0c-11.1658,0 -43.75,0 -43.75,0z" fill="url(#color-10)" stroke="none" stroke-width="0" stroke-linecap="butt"></path><path d="M256.375,202.87501v-9.41667h4.83333v9.41667z" data-paper-data="{&quot;index&quot;:null}" fill="url(#color-11)" stroke="none" stroke-width="0" stroke-linecap="butt"></path><path d="M218.375,202.70835v-9.41667h4.83334v9.41667z" fill="url(#color-12)" stroke="none" stroke-width="0" stroke-linecap="butt"></path><path d="M264.78781,202.47304l-6.23681,-9.02413l2.41119,-0.50525l6.40347,8.02412z" data-paper-data="{&quot;index&quot;:null}" fill="#767676" stroke="none" stroke-width="0" stroke-linecap="butt"></path><path d="M212.38434,200.30111l6.40347,-8.02412l2.41118,0.50525l-6.23681,9.02413z" fill="#767676" stroke="none" stroke-width="0" stroke-linecap="butt"></path><g fill="#ffe116" stroke="#efc800" stroke-width="0.5" stroke-linecap="butt"><path d="M209.67202,202.52597l1.41406,-7.43133l8.50267,1.38895l-1.43618,6.12995z"></path><path d="M261.68075,202.6699l-1.8001,-7.26042l8.23924,0.23319l2.04142,6.88329z" data-paper-data="{&quot;index&quot;:null}"></path></g><path d="M218.54167,193.5521v-1.1875h42.5v1.1875z" fill="#767676" stroke="none" stroke-width="0" stroke-linecap="butt"></path><path d="M220.20834,194.37501l1.08333,8.25" fill="none" stroke="url(#color-13)" stroke-width="0.25" stroke-linecap="round"></path><path d="M223.20834,202.62501l-0.41667,-9" fill="none" stroke="url(#color-14)" stroke-width="0.25" stroke-linecap="round"></path><path d="M256.875,202.54168l1.83333,-8.83333" fill="none" stroke="url(#color-15)" stroke-width="0.25" stroke-linecap="round"></path><path d="M259.05449,202.84297l0.58333,-7.16667" fill="none" stroke="url(#color-16)" stroke-width="0.25" stroke-linecap="round"></path><path d="M235.95834,194.29168v-1.25c0,0 1.86818,-1.25 2.66666,-1.25c0.7846,0 2.08334,1.25 2.08334,1.25v1.25z" fill="#c3c8c3" stroke="url(#color-17)" stroke-width="0.25" stroke-linecap="butt"></path><path d="M236.625,195.20835v-1.83334h0.75v1.83334z" fill="#828282" stroke="none" stroke-width="0" stroke-linecap="butt"></path><path d="M239.29167,195.12501v-1.58334h0.66667v1.58334z" fill="#828282" stroke="none" stroke-width="0" stroke-linecap="butt"></path><path d="M240.96267,197.25494c0,0 -0.08308,-1.53835 -0.24823,-2.25983c-0.16334,-0.71353 -0.73731,-2.04547 -0.73731,-2.04547l0.89355,-0.20455c0,0 0.55655,1.25581 0.71613,1.95292c0.16845,0.73588 0.26942,2.35237 0.26942,2.35237z" fill="url(#color-18)" stroke="none" stroke-width="0" stroke-linecap="butt"></path><path d="M241.29167,202.70835c0,0 -0.33601,-1.14338 -0.12542,-2.2421c0.15614,-0.81458 0.87542,-1.56707 0.87542,-2.0079c0,-0.54572 -0.75,-1.5 -0.75,-1.5h0.41667c0,0 0.75,0.42631 0.75,1c0,0.53155 -0.61106,1.58631 -0.8019,2.65742c-0.18403,1.03284 0.0519,2.09258 0.0519,2.09258z" fill="#444343" stroke="none" stroke-width="0" stroke-linecap="butt"></path></g><path d="M216.27465,174.10309l-0.04432,-0.77541c0,0 1.06758,-3.30025 1.28287,-5.57659c0.15596,-1.64902 -0.5971,-2.47555 -0.30691,-2.49213c0.08889,-0.00508 0.25753,-1.57778 0.46953,-2.50059c0.08061,-0.35093 -0.06061,-0.72792 0.13701,-0.71288c0.32801,0.02498 1.15691,2.44881 1.77475,3.17443c0.58046,0.68172 -1.02798,3.04832 -0.68059,3.95918c0.78316,2.05341 1.62059,3.90297 1.62059,3.90297l0.04432,0.77541z" data-paper-data="{&quot;index&quot;:null}" fill="url(#color-19)" stroke="#000000" stroke-width="0" stroke-linecap="butt"></path><path d="M250.1808,167.85647l0.03416,-0.59771c0,0 0.6455,-1.42569 1.2492,-3.00851c0.26779,-0.70211 -0.97206,-2.52634 -0.52462,-3.05182c0.47625,-0.55933 1.11518,-2.42768 1.36802,-2.44693c0.15235,-0.0116 0.04348,0.27899 0.10561,0.54951c0.16343,0.71133 0.29342,1.9236 0.36192,1.92751c0.22368,0.01278 -0.35679,0.64989 -0.23658,1.92099c0.16595,1.75465 0.98887,4.29856 0.98887,4.29856l-0.03416,0.59771z" data-paper-data="{&quot;index&quot;:null}" fill="url(#color-20)" stroke="#000000" stroke-width="0" stroke-linecap="butt"></path><path d="M266.71497,162.4696v-0.77807c0,0 0.49287,-3.08346 0.87031,-3.08346c0.12855,0 0.03261,1.1268 0.2685,1.7832c0.30835,0.858 0.94236,1.30026 0.94236,1.30026v0.77809z" data-paper-data="{&quot;index&quot;:null}" fill="url(#color-21)" stroke="#000000" stroke-width="0" stroke-linecap="butt"></path><path d="M263.74241,178.05469v-1.28237c0,0 1.04495,-0.72891 1.55314,-2.14302c0.38877,-1.08183 0.23063,-2.93895 0.44252,-2.93895c0.62207,0 1.43437,5.08196 1.43437,5.08196v1.28237z" data-paper-data="{&quot;index&quot;:null}" fill="url(#color-22)" stroke="#000000" stroke-width="0" stroke-linecap="butt"></path><path d="M232.25457,158.91254l2.41552,-1.52806l7.51496,-0.12734l1.87872,1.65537z" fill="#9b774d" stroke="#000000" stroke-width="0" stroke-linecap="butt"></path><path d="M238.04333,163.3188l-0.07105,1.20777v-1.27882l0.07105,1.49195l-0.1421,-1.98927v-3.97854" fill="none" stroke="#000000" stroke-width="0.1" stroke-linecap="round"></path><path d="M238.54063,164.53039c0,0.58856 -0.27036,1.06568 -0.6039,1.06568c-0.33352,0 -0.6039,-0.47713 -0.6039,-1.06568c0,-0.58856 0.27036,-1.06568 0.6039,-1.06568c0.33352,0 0.6039,0.47713 0.6039,1.06568z" fill="#ffffff" stroke="#000000" stroke-width="0.1" stroke-linecap="butt"></path><path d="M237.61705,165.17365h0.71045" fill="none" stroke="#000000" stroke-width="0.1" stroke-linecap="round"></path><path d="M237.86952,165.66179l0.11672,-2.45108" fill="none" stroke="#000000" stroke-width="0.1" stroke-linecap="round"></path><path d="M209.42692,204.09541v-46.9h61.1v46.9z" fill="url(#color-23)" stroke="none" stroke-width="0" stroke-linecap="butt"></path></g></g></svg>