<svg version="1.1" xmlns="http://www.w3.org/2000/svg" xmlns:xlink="http://www.w3.org/1999/xlink" width="107.66667" height="106.57176" viewBox="0,0,107.66667,106.57176"><defs><radialGradient cx="240" cy="180" r="53.83334" gradientUnits="userSpaceOnUse" id="color-1"><stop offset="0" stop-color="#00ffff"></stop><stop offset="1" stop-color="#00ffff" stop-opacity="0"></stop></radialGradient></defs><g transform="translate(-186.16666,-126.71412)"><g data-paper-data="{&quot;isPaintingLayer&quot;:true}" fill-rule="nonzero" stroke-width="0" stroke-linejoin="miter" stroke-miterlimit="10" stroke-dasharray="" stroke-dashoffset="0" style="mix-blend-mode: normal"><path d="M293.83334,180c0,29.42898 -24.10201,53.28588 -53.83334,53.28588c-29.73133,0 -53.83334,-23.8569 -53.83334,-53.28588c0,-29.42898 24.10201,-53.28588 53.83334,-53.28588c29.73133,0 53.83334,23.8569 53.83334,53.28588z" fill="url(#color-1)" stroke="none" stroke-linecap="butt"></path><g><g><path d="M236.48179,211.73445c0,0 -2.03156,-1.10766 -1.99732,-3.6718c0.00766,-0.57448 1.80758,-0.68232 1.82723,-1.35846c0.35301,-12.14885 0.73987,-40.34698 0.6537,-51.84231c-0.01679,-2.24007 -1.16917,-3.73763 -1.16316,-4.55476c0.00831,-1.12945 1.14972,-2.46613 1.14972,-2.46613c0,0 1.10145,0.69878 1.79528,-0.15156c0.25574,-0.31343 0.33708,-0.92891 0.56967,-1.42696c0.35744,-0.76542 0.84144,-1.40224 1.06576,-1.399c0.38582,0.00559 0.7592,0.77882 1.12373,1.70869c0.29638,0.75602 0.57108,1.64817 0.96958,2.05239c0.21758,0.2207 0.30655,-0.26531 0.51306,-0.31918c0.52418,-0.13677 1.08175,-0.36117 1.08175,-0.36117c0,0 1.55073,1.38019 1.53992,2.85046c-0.00217,0.29426 -1.2447,1.57713 -1.25322,2.02778c-0.14721,7.77523 -0.71901,38.82175 -0.6426,53.17778c0.00565,1.06013 1.98801,2.04585 1.97792,2.90766c-0.03501,2.98946 -2.09216,2.9298 -2.09216,2.9298c0,0 -0.3764,-0.12876 -0.89432,-0.21398c-0.29908,-0.04921 -0.69284,-0.27229 -0.96611,0.03805c-0.69254,0.78652 -0.99772,3.44954 -1.56844,3.44127c-0.25483,-0.0037 -0.51015,0.07921 -0.79238,-0.6312c-0.2102,-0.52911 -0.43627,-1.8151 -0.68324,-2.21073c-0.06791,-0.1088 -0.14962,-0.36746 -0.22084,-0.43944c-0.38857,-0.39273 -0.86435,0.18973 -1.20877,0.22714c-0.49034,0.05328 -0.78474,-0.3143 -0.78474,-0.3143z" fill="#a9ffff" stroke="#000000" stroke-linecap="butt"></path><path d="M235.30794,211.76668c0,0 -2.03156,-1.10766 -1.99732,-3.6718c0.00766,-0.57448 1.80758,-0.68232 1.82723,-1.35846c0.35301,-12.14885 0.73987,-40.34698 0.6537,-51.84231c-0.01679,-2.24007 -1.16917,-3.73763 -1.16316,-4.55476c0.00831,-1.12945 1.14972,-2.46613 1.14972,-2.46613c0,0 1.10145,0.69878 1.79528,-0.15156c0.25574,-0.31343 0.33708,-0.92891 0.56967,-1.42696c0.35744,-0.76542 0.84144,-1.40224 1.06576,-1.399c0.38582,0.00559 0.7592,0.77882 1.12373,1.70869c0.29638,0.75602 0.57108,1.64817 0.96958,2.05239c0.21758,0.2207 0.30655,-0.26531 0.51306,-0.31918c0.52418,-0.13677 1.08175,-0.36117 1.08175,-0.36117c0,0 1.55073,1.38019 1.53992,2.85046c-0.00217,0.29426 -1.2447,1.57713 -1.25322,2.02778c-0.14721,7.77523 -0.71901,38.82175 -0.6426,53.17778c0.00565,1.06013 1.98801,2.04587 1.97792,2.90766c-0.03501,2.98946 -2.09216,2.9298 -2.09216,2.9298c0,0 -0.3764,-0.12876 -0.89432,-0.21398c-0.29908,-0.04921 -0.69284,-0.27229 -0.96611,0.03805c-0.69254,0.78652 -0.99772,3.44954 -1.56844,3.44127c-0.25483,-0.0037 -0.51015,0.07921 -0.79238,-0.6312c-0.2102,-0.52911 -0.43627,-1.8151 -0.68324,-2.21073c-0.06791,-0.1088 -0.14962,-0.36746 -0.22084,-0.43944c-0.38857,-0.39273 -0.86435,0.18973 -1.20877,0.22714c-0.49034,0.05328 -0.78474,-0.3143 -0.78474,-0.3143z" fill="#bcf4f4" stroke="#000000" stroke-linecap="butt"></path><path d="M238.90966,151.95531l-2.01929,-0.03945" fill="#a9ffff" stroke="#a75900" stroke-linecap="round"></path><path d="M240.31135,149.54515l-1.31497,-0.05878" fill="#a9ffff" stroke="#a75900" stroke-linecap="round"></path><path d="M235.24007,149.58944l1.0341,0.35109" fill="#a9ffff" stroke="#a75900" stroke-linecap="round"></path><path d="M240.94139,156.26346l1.43167,-0.18159" fill="#a9ffff" stroke="#a75900" stroke-linecap="round"></path><path d="M237.0633,162.91574l-0.89295,-0.26009" fill="#a9ffff" stroke="#a75900" stroke-linecap="round"></path><path d="M239.34318,163.75441l1.45613,0.14978" fill="#a9ffff" stroke="#a75900" stroke-linecap="round"></path><path d="M239.70754,175.98235l-1.95011,-0.46826" fill="#a9ffff" stroke="#a75900" stroke-linecap="round"></path><path d="M240.36339,183.50633l0.5401,0.03261" fill="#a9ffff" stroke="#a75900" stroke-linecap="round"></path><path d="M237.78972,170.48524l-0.86851,0.07126" fill="#a9ffff" stroke="#a75900" stroke-linecap="round"></path><path d="M241.00592,170.34954l0.89295,0.26009" fill="#a9ffff" stroke="#a75900" stroke-linecap="round"></path><path d="M236.90829,182.22557l1.33803,-0.08416" fill="#a9ffff" stroke="#a75900" stroke-linecap="round"></path><path d="M236.53695,191.76995l2.89056,0.91679" fill="#a9ffff" stroke="#a75900" stroke-linecap="round"></path><path d="M240.02713,188.97045l1.10328,-0.07771" fill="#a9ffff" stroke="#a75900" stroke-linecap="round"></path><path d="M236.71592,188.72927l0.9174,0.59147" fill="#a9ffff" stroke="#a75900" stroke-linecap="round"></path><path d="M237.19696,200.71683l0.89295,0.26009" fill="#a9ffff" stroke="#a75900" stroke-linecap="round"></path><path d="M242.41077,201.23782l-1.12772,-0.25364" fill="#a9ffff" stroke="#a75900" stroke-linecap="round"></path><path d="M238.26794,205.66797l-0.94046,-0.44852" fill="#a9ffff" stroke="#a75900" stroke-linecap="round"></path><path d="M240.59671,207.16938l-0.65818,-0.26654" fill="#a9ffff" stroke="#a75900" stroke-linecap="round"></path><path d="M240.14194,204.19355l0.51704,0.17555" fill="#a9ffff" stroke="#a75900" stroke-linecap="round"></path><path d="M236.07106,209.14351l-1.08159,-0.53952" fill="#a9ffff" stroke="#a75900" stroke-linecap="round"></path><path d="M238.9916,212.28886l-0.42341,-0.27298" fill="#a9ffff" stroke="#a75900" stroke-linecap="round"></path><path d="M243.65808,153.91208l0.65818,0.26654" fill="#a9ffff" stroke="#703c00" stroke-linecap="round"></path><path d="M241.14851,146.77102l0.47092,0.46141" fill="#a9ffff" stroke="#703c00" stroke-linecap="round"></path><path d="M240.33171,212.91616l0.48584,0.20803" fill="#a9ffff" stroke="#703c00" stroke-linecap="round"></path><path d="M244.95638,210.00646l0.53196,-0.07785" fill="#a9ffff" stroke="#703c00" stroke-linecap="round"></path><path d="M243.66062,205.80459l-0.43879,-0.17769" fill="#a9ffff" stroke="#703c00" stroke-linecap="round"></path><path d="M243.4783,196.95529l-0.34469,-0.11704" fill="#a9ffff" stroke="#703c00" stroke-linecap="round"></path><path d="M243.07492,182.07213l0.29766,0.08671" fill="#a9ffff" stroke="#703c00" stroke-linecap="round"></path><path d="M243.10693,171.57259l0.78256,-0.02148" fill="#a9ffff" stroke="#703c00" stroke-linecap="round"></path><path d="M243.17764,174.35341l0.40711,0.05207" fill="#a9ffff" stroke="#703c00" stroke-linecap="round"></path><path d="M243.42397,162.20361l0.45416,0.0824" fill="#a9ffff" stroke="#703c00" stroke-linecap="round"></path><path d="M244.63921,149.52124l0.57901,-0.04751" fill="#a9ffff" stroke="#703c00" stroke-linecap="round"></path><path d="M245.00297,150.8078l0.40711,0.05207" fill="#a9ffff" stroke="#703c00" stroke-linecap="round"></path><path d="M241.02836,145.82562l-0.54917,-0.45926" fill="#a9ffff" stroke="#703c00" stroke-linecap="round"></path></g><g><g stroke="#000000" stroke-linecap="butt"><path d="M251.64998,171.2664c0,0 -0.39192,3.04738 -1.30711,3.03561c-0.20504,-0.00265 -0.24653,-2.68585 -0.48788,-2.7048c-4.33645,-0.34041 -14.40085,-0.48533 -18.50334,-0.18063c-0.79943,0.05937 -1.33199,1.80127 -1.62363,1.80483c-0.40311,0.00492 -0.88207,-1.67719 -0.88207,-1.67719c0,0 0.24755,-1.6537 -0.05709,-2.67563c-0.11229,-0.37668 -0.33209,-0.48859 -0.51023,-0.82789c-0.27378,-0.52145 -0.50186,-1.23365 -0.50107,-1.56833c0.00135,-0.5756 0.2767,-1.1444 0.60794,-1.70242c0.26933,-0.45369 0.58727,-0.87712 0.73086,-1.47774c0.07841,-0.32794 -0.09519,-0.4532 -0.11478,-0.76044c-0.04969,-0.77982 -0.1307,-1.60807 -0.1307,-1.60807c0,0 0.48999,-2.33433 1.01474,-2.3407c0.10503,-0.00127 0.56495,1.83249 0.7258,1.83832c2.77519,0.10044 13.85647,0.47758 18.97994,0.14361c0.37834,-0.02466 0.72683,-2.99677 1.03442,-2.99494c1.06699,0.00641 1.04914,3.0759 1.04914,3.0759c0,0 -0.04533,0.56344 -0.07488,1.33731c-0.01707,0.44687 -0.09602,1.03767 0.0152,1.44054c0.28186,1.02098 1.23279,1.43541 1.23079,2.28683c-0.0009,0.38017 0.02912,0.75975 -0.22395,1.19162c-0.18849,0.32167 -0.64707,0.67859 -0.78786,1.05304c-0.03871,0.10297 -0.1309,0.22882 -0.15647,0.33614c-0.13952,0.58562 0.06916,1.2864 0.08309,1.7996c0.01984,0.73061 -0.11085,1.17539 -0.11085,1.17539z" fill="#a9ffff"></path><path d="M251.02571,169.56917c0,0 -0.39192,3.04738 -1.30711,3.03561c-0.20504,-0.00265 -0.24653,-2.68585 -0.48788,-2.7048c-4.33645,-0.34041 -14.40085,-0.48533 -18.50334,-0.18063c-0.79943,0.05937 -1.33199,1.80127 -1.62363,1.80483c-0.40311,0.00492 -0.88207,-1.67719 -0.88207,-1.67719c0,0 0.24755,-1.6537 -0.05709,-2.67563c-0.11229,-0.37668 -0.33209,-0.48859 -0.51023,-0.82789c-0.27378,-0.52145 -0.50186,-1.23366 -0.50107,-1.56833c0.00135,-0.5756 0.2767,-1.1444 0.60794,-1.70242c0.26933,-0.45369 0.58727,-0.87712 0.73086,-1.47774c0.07841,-0.32794 -0.09519,-0.4532 -0.11478,-0.76044c-0.04969,-0.77982 -0.1307,-1.60807 -0.1307,-1.60807c0,0 0.48999,-2.33433 1.01474,-2.3407c0.10503,-0.00127 0.56495,1.83249 0.7258,1.83832c2.77519,0.10044 13.85647,0.47758 18.97994,0.14361c0.37834,-0.02466 0.72683,-2.99677 1.03442,-2.99494c1.06699,0.00641 1.04914,3.0759 1.04914,3.0759c0,0 -0.04533,0.56344 -0.07488,1.33731c-0.01707,0.44687 -0.09602,1.03767 0.0152,1.44054c0.28186,1.02098 1.23279,1.4354 1.23079,2.28683c-0.0009,0.38017 0.02912,0.75975 -0.22395,1.19162c-0.18849,0.32167 -0.64707,0.67859 -0.78786,1.05304c-0.03871,0.10297 -0.1309,0.22882 -0.15647,0.33614c-0.13952,0.58562 0.06916,1.2864 0.08309,1.7996c0.01984,0.73061 -0.11085,1.17539 -0.11085,1.17539z" fill="#bcf4f4"></path></g><path d="M231.335,161.10518l1.32966,0.3757" fill="#a9ffff" stroke="#a75900" stroke-linecap="round"></path><path d="M238.79555,162.02302l-1.58198,-0.19905" fill="#a9ffff" stroke="#a75900" stroke-linecap="round"></path><path d="M232.57977,165.72185l1.02395,0.37199" fill="#a9ffff" stroke="#a75900" stroke-linecap="round"></path><path d="M240.19681,168.40312l-1.20444,-0.1585" fill="#a9ffff" stroke="#a75900" stroke-linecap="round"></path><path d="M241.57079,166.04724l-0.84533,0.02564" fill="#a9ffff" stroke="#a75900" stroke-linecap="round"></path><path d="M245.31494,164.90658l-0.98897,-0.04802" fill="#a9ffff" stroke="#a75900" stroke-linecap="round"></path><path d="M246.53035,167.36597l0.91715,0.01118" fill="#a9ffff" stroke="#a75900" stroke-linecap="round"></path><path d="M248.92292,161.24782l0.7735,-0.06246" fill="#a9ffff" stroke="#a75900" stroke-linecap="round"></path><path d="M251.35932,164.33322l-0.52119,-0.1142" fill="#a9ffff" stroke="#a75900" stroke-linecap="round"></path><path d="M250.59118,168.52992l-0.61143,-0.00747" fill="#a9ffff" stroke="#a75900" stroke-linecap="round"></path><path d="M228.53737,164.41434l0.61143,0.00747" fill="#a9ffff" stroke="#a75900" stroke-linecap="round"></path><path d="M229.84139,161.4105l0.44936,0.07738" fill="#a9ffff" stroke="#a75900" stroke-linecap="round"></path><path d="M229.83929,167.98919l0.73666,0.22468" fill="#a9ffff" stroke="#a75900" stroke-linecap="round"></path><path d="M246.94123,162.37404l-0.79007,-0.40508" fill="#a9ffff" stroke="#a75900" stroke-linecap="round"></path><path d="M229.72129,171.29508l0.64641,0.33143" fill="#a9ffff" stroke="#5e3200" stroke-linecap="round"></path><path d="M232.22416,170.28308l1.45489,0.59294" fill="#a9ffff" stroke="#5e3200" stroke-linecap="round"></path><path d="M252.75707,165.968l-0.44936,-0.07738" fill="#a9ffff" stroke="#5e3200" stroke-linecap="round"></path><path d="M251.06666,160.0517l0.43095,0.22095" fill="#a9ffff" stroke="#5e3200" stroke-linecap="round"></path><path d="M250.74206,172.12669l0.64828,-0.27969" fill="#a9ffff" stroke="#5e3200" stroke-linecap="round"></path><path d="M244.92061,170.36606l1.22287,0.01492" fill="#a9ffff" stroke="#5e3200" stroke-linecap="round"></path><path d="M248.76783,170.80844l-0.61143,-0.00747" fill="#a9ffff" stroke="#5e3200" stroke-linecap="round"></path><path d="M238.12115,170.8583l-1.1142,-0.26523" fill="#a9ffff" stroke="#5e3200" stroke-linecap="round"></path><path d="M242.47488,170.33623l-0.53961,0.02937" fill="#a9ffff" stroke="#5e3200" stroke-linecap="round"></path></g></g></g></g></svg>