<svg version="1.1" xmlns="http://www.w3.org/2000/svg" xmlns:xlink="http://www.w3.org/1999/xlink" width="401.82781" height="56.38214" viewBox="0,0,401.82781,56.38214"><defs><linearGradient x1="245.3361" y1="32.84875" x2="445.66391" y2="32.84875" gradientUnits="userSpaceOnUse" id="color-1"><stop offset="0" stop-color="#ffcee3"></stop><stop offset="1" stop-color="#fff4ce"></stop></linearGradient><linearGradient x1="48.8361" y1="33.84875" x2="249.16391" y2="33.84875" gradientUnits="userSpaceOnUse" id="color-2"><stop offset="0" stop-color="#fff4ce"></stop><stop offset="1" stop-color="#ffcee3"></stop></linearGradient><linearGradient x1="225.06934" y1="33.54176" x2="273.56934" y2="33.54176" gradientUnits="userSpaceOnUse" id="color-3"><stop offset="0" stop-color="#000000" stop-opacity="0"></stop><stop offset="1" stop-color="#000000" stop-opacity="0"></stop></linearGradient><linearGradient x1="425.55655" y1="39.00636" x2="421.04628" y2="34.09348" gradientUnits="userSpaceOnUse" id="color-4"><stop offset="0" stop-color="#ffffff"></stop><stop offset="1" stop-color="#e4e4e4"></stop></linearGradient><linearGradient x1="428.73615" y1="34.97059" x2="424.22588" y2="30.0577" gradientUnits="userSpaceOnUse" id="color-5"><stop offset="0" stop-color="#ffffff"></stop><stop offset="1" stop-color="#e4e4e4"></stop></linearGradient><radialGradient cx="393.69843" cy="23.89623" r="16.27278" gradientUnits="userSpaceOnUse" id="color-6"><stop offset="0" stop-color="#f2d1d1"></stop><stop offset="1" stop-color="#ff5959"></stop></radialGradient><radialGradient cx="393.69843" cy="23.89623" r="16.27278" gradientUnits="userSpaceOnUse" id="color-7"><stop offset="0" stop-color="#f2d1d1"></stop><stop offset="1" stop-color="#ff5959"></stop></radialGradient><linearGradient x1="408.17417" y1="23.76707" x2="408.17417" y2="39.13746" gradientUnits="userSpaceOnUse" id="color-8"><stop offset="0" stop-color="#fe5f5f"></stop><stop offset="1" stop-color="#fca1a1"></stop></linearGradient><linearGradient x1="413.60407" y1="23.91096" x2="413.60407" y2="51.2727" gradientUnits="userSpaceOnUse" id="color-9"><stop offset="0" stop-color="#ff5959" stop-opacity="0.41124"></stop><stop offset="1" stop-color="#970000" stop-opacity="0.39541"></stop></linearGradient><linearGradient x1="415.28714" y1="20.16434" x2="415.28714" y2="29.13054" gradientUnits="userSpaceOnUse" id="color-10"><stop offset="0" stop-color="#c10000" stop-opacity="0.24444"></stop><stop offset="1" stop-color="#ff5959"></stop></linearGradient><linearGradient x1="395.08539" y1="16.50482" x2="418.46878" y2="15.10558" gradientUnits="userSpaceOnUse" id="color-11"><stop offset="0" stop-color="#ffffff"></stop><stop offset="1" stop-color="#ffecab"></stop></linearGradient><linearGradient x1="393.0579" y1="37.82809" x2="393.0579" y2="44.49735" gradientUnits="userSpaceOnUse" id="color-12"><stop offset="0" stop-color="#ffffff"></stop><stop offset="1" stop-color="#e4e4e4"></stop></linearGradient><linearGradient x1="390.10447" y1="33.9481" x2="390.10447" y2="40.61736" gradientUnits="userSpaceOnUse" id="color-13"><stop offset="0" stop-color="#ffffff"></stop><stop offset="1" stop-color="#e4e4e4"></stop></linearGradient><linearGradient x1="387.84598" y1="29.89439" x2="387.84598" y2="36.56364" gradientUnits="userSpaceOnUse" id="color-14"><stop offset="0" stop-color="#ffffff"></stop><stop offset="1" stop-color="#e4e4e4"></stop></linearGradient><linearGradient x1="423.02259" y1="31.78" x2="427.53285" y2="26.8671" gradientUnits="userSpaceOnUse" id="color-15"><stop offset="0" stop-color="#ffffff"></stop><stop offset="1" stop-color="#e4e4e4"></stop></linearGradient></defs><g transform="translate(-46.33611,-5.15769)"><g data-paper-data="{&quot;isPaintingLayer&quot;:true}" stroke-linecap="butt" stroke-dasharray="" stroke-dashoffset="0" style="mix-blend-mode: normal"><path d="M245.33612,50.31344c0,-10.46851 0,-28.5372 0,-34.50852c0,-3.77395 6.31484,-8.14723 13.32779,-8.14723c21.58083,0 133.91243,0 173.31994,0c8.56074,0 13.68007,3.03289 13.68007,7.51598c0,10.56376 0,29.17956 0,35.13977c0,3.61317 -5.26045,7.72639 -14.03234,7.72639c-39.62619,0 -150.91009,0 -172.61539,0c-7.17702,0 -13.68007,-3.1309 -13.68007,-7.72639z" fill="#291800" fill-rule="nonzero" stroke="url(#color-1)" stroke-width="5" stroke-linejoin="miter" stroke-miterlimit="10"></path><path d="M48.83612,51.31344c0,-10.46851 0,-28.5372 0,-34.50852c0,-3.77395 6.31483,-8.14723 13.32778,-8.14723c21.58083,0 133.91243,0 173.31994,0c8.56073,0 13.68007,3.03289 13.68007,7.51598c0,10.56376 0,29.17956 0,35.13977c0,3.61317 -5.26045,7.72639 -14.03234,7.72639c-39.62618,0 -150.91008,0 -172.61539,0c-7.17702,0 -13.68007,-3.1309 -13.68007,-7.72639z" fill="#291800" fill-rule="nonzero" stroke="url(#color-2)" stroke-width="5" stroke-linejoin="miter" stroke-miterlimit="10"></path><text transform="translate(56.73435,42.00005) scale(0.71669,0.71669)" font-size="40" xml:space="preserve" fill="#fff4ce" fill-rule="nonzero" stroke="none" stroke-width="1" stroke-linecap="butt" stroke-linejoin="miter" stroke-miterlimit="10" stroke-dasharray="" stroke-dashoffset="0" font-family="&quot;ヒラギノ角ゴ Pro W3&quot;, &quot;Hiragino Kaku Gothic Pro&quot;, Osaka, &quot;メイリオ&quot;, Meiryo, &quot;ＭＳ Ｐゴシック&quot;, &quot;MS PGothic&quot;" font-weight="normal" text-anchor="start" style="mix-blend-mode: normal"><tspan x="0" dy="0">Revive</tspan></text><path d="M225.06934,56.29176v-45.5h48.5v45.5z" fill="#291800" fill-rule="nonzero" stroke="url(#color-3)" stroke-width="0" stroke-linejoin="miter" stroke-miterlimit="10"></path><g><path d="M424.40363,33.12781c0.49779,-0.18463 1.51889,0.31613 1.51889,0.31613l1.82545,3.86505c0,0 -1.80018,0.81371 -2.00194,0.6743c-0.59577,-0.41168 -1.60437,-1.12929 -2.51917,-0.78999c-1.16104,0.43063 -2.37041,2.08078 -2.37041,2.08078c0,0 -0.46385,2.32674 -0.42349,2.83502c0.01622,0.20429 -0.34117,-0.19246 -0.40645,-0.17107c-0.43546,0.14269 -1.48465,-3.02273 -1.62906,-3.23625c-0.25304,-0.37416 0.20025,-2.3604 0.20025,-2.3604c0,0 4.6093,-2.76974 5.80593,-3.21357z" data-paper-data="{&quot;index&quot;:null}" fill="url(#color-4)" fill-rule="nonzero" stroke="#000000" stroke-width="0" stroke-linejoin="miter" stroke-miterlimit="10"></path><path d="M427.58323,29.09203c0.49779,-0.18463 1.51889,0.31613 1.51889,0.31613l0.76595,4.68049c0,0 -0.74069,-0.00172 -0.94245,-0.14114c-0.59577,-0.41168 -1.60437,-1.12929 -2.51917,-0.78999c-1.16104,0.43063 -3.19634,1.26675 -3.19634,1.26675c0,0 0.42157,1.64943 0.19388,1.72403c-0.43546,0.14269 -1.68255,-1.26878 -1.82696,-1.4823c-0.25304,-0.37416 0.20025,-2.3604 0.20025,-2.3604c0,0 4.6093,-2.76974 5.80593,-3.21357z" data-paper-data="{&quot;index&quot;:null}" fill="url(#color-5)" fill-rule="nonzero" stroke="#000000" stroke-width="0" stroke-linejoin="miter" stroke-miterlimit="10"></path><path d="M408.46391,52.71439c0,0 -5.37667,-3.44838 -7.60857,-6.04309c-1.81286,-2.10754 -4.37207,-6.21552 -4.37207,-6.21552c0.24517,0.00031 0.90735,0.76506 1.15253,0.76543c2.43627,0.0037 4.86804,1.88705 7.20037,1.90053c0.31836,0.00184 0.63655,0.00517 0.95459,0.00989c3.346,0.4431 7.24308,-0.95078 10.59767,-1.0314c0.27417,0.01994 -0.49409,-1.21074 -0.22002,-1.19036z" fill-opacity="0.50417" fill="#000000" fill-rule="nonzero" stroke="none" stroke-width="1" stroke-linejoin="miter" stroke-miterlimit="10"></path><path d="M390.61312,28.34182c0,-4.51315 3.66433,-8.17748 8.17748,-8.17748c4.11899,0 7.53064,3.05184 8.0953,7.01506c0.56465,-3.96321 3.97629,-7.01506 8.0953,-7.01506c4.51316,0 8.17748,3.66433 8.17748,8.17748v0.00083c0,4.2625 -1.69314,8.35084 -4.70736,11.36465l-11.56541,11.5654l-11.5654,-11.5654c-3.01422,-3.0138 -4.70736,-7.10213 -4.70736,-11.36465z" fill="url(#color-6)" fill-rule="evenodd" stroke="none" stroke-width="1" stroke-linejoin="round" stroke-miterlimit="2"></path><path d="M398.76405,43.14682l0.12222,-0.04074c-0.02618,0.02954 -0.05187,0.05952 -0.07704,0.08995l-0.04892,-0.04892z" fill="url(#color-7)" fill-rule="nonzero" stroke="none" stroke-width="1" stroke-linejoin="miter" stroke-miterlimit="10"></path><path d="M393.27941,37.20843c2.36128,-0.12033 4.58847,-1.10924 6.53561,-2.46995c1.29148,-0.90252 2.59471,-1.79411 3.93258,-2.62647c0.33578,-0.20891 0.81101,-0.80009 1.23165,-0.84698c0.25229,-0.02812 1.59677,1.24168 2.03791,1.39067c1.45306,0.49072 2.22999,0.42981 3.66999,0.18653c2.83006,-0.47812 6.40531,-4.91511 8.30665,-6.81645c0.75259,-0.7526 1.94802,-1.41947 2.76476,-2.25871c0.66852,0.98792 1.1268,2.12949 1.31039,3.36026c-0.31516,0.0167 -0.60697,0.07355 -0.80512,0.29545c-1.37533,1.54025 -2.12042,3.5189 -3.42298,5.12141c-1.06983,1.31618 -3.65697,2.94829 -5.29069,3.46163c-2.60477,0.81845 -5.2383,-1.50537 -7.79809,-1.40862c-2.03831,0.07704 -3.83739,0.71542 -5.7529,1.26963c-1.23837,0.35829 -2.64479,0.52602 -3.58646,1.56284c-0.40998,0.4514 -0.54021,0.92369 -0.93399,1.36691c-0.08509,0.09577 -0.17363,0.17526 -0.26505,0.24289c-0.14862,0.02345 -0.29411,0.05631 -0.43584,0.09797c-0.55052,-0.60715 -1.05088,-1.25232 -1.4984,-1.92903z" fill="url(#color-8)" fill-rule="nonzero" stroke="none" stroke-width="1" stroke-linejoin="miter" stroke-miterlimit="10"></path><path d="M423.15868,28.34182v0.00083c0,4.2625 -1.69314,8.35084 -4.70736,11.36465l-11.56541,11.5654l-2.83644,-2.83644l0.234,-0.03191l0.5791,-0.23164l0.22808,-0.16472l0.26916,-0.08192l0.46467,-0.27881l0.00278,-0.00139l0.09325,-0.02331l0.52467,-0.27982l0.0725,-0.02589l0.00634,-0.00049l0.34746,-0.11582l0.036,-0.02291l0.09768,-0.03489l0.34746,-0.23164l0.03612,-0.03973l0.06106,-0.03886l0.26529,-0.01474l0.29055,-0.33898l0.37666,-0.23969l0.02739,-0.13696l0.07513,-0.0167l0.46328,-0.23164l0.42408,-0.3635l0.47895,-0.28737l1.03074,-1.03074l0.06119,-0.04079l0.4589,-0.50479l0.50479,-0.4589l0.04079,-0.06119l0.10418,-0.10418l0.17806,-0.29676l0.25608,-0.2328l0.23164,-0.34746l0.13364,-0.37419l0.6771,-1.01566l0.06752,-0.18904l0.08753,-0.07502l0.22157,-0.13294l0.5791,-0.5791l0.04994,-0.08323l0.63833,-0.54714l0.00296,-0.05318l0.16266,-0.244l0.00306,-0.00358l0.18543,-0.11126l0.23164,-0.23164l0.11126,-0.18543l0.11373,-0.09748l0.00341,-0.0613l0.35071,-0.35071l0.28737,-0.47895l0.3635,-0.42408l0.11582,-0.23164l0.05052,-0.22734l0.01066,-0.01776l0.19941,-0.23265l0.01511,-0.00906l0.46328,-0.46328l0.15385,-0.25641l0.0332,-0.00934l0.13575,-0.25454l0.32806,-0.38274l0.11582,-0.23164l0.05052,-0.22734l0.10414,-0.17356l-0.0193,-0.07078l0.12773,-0.23949l0.11582,-0.46328v-0.01448l0.11582,-0.21716l0.02331,-0.09325l0.06107,-0.12213l0.08301,-0.37354l0.18007,-0.33764l0.01618,-0.06471l0.08311,-0.12466l0.06682,-0.18709l0.049,-0.04455l0.0723,-0.10845l0.02862,-0.03338l0.01908,-0.03816l0.11165,-0.16747l0.07385,-0.20677l0.14289,-0.16671l0.25299,-0.50598l0.58194,-0.64014l-0.00309,-0.04477l0.02722,-0.01556l0.0242,-0.09682l0.0433,-0.08659l0.13898,-0.62543l0.10709,-0.21418l0.03389,-0.01936l0.0242,-0.09682l0.0433,-0.08659l0.17319,-0.77936l0.19363,-0.77454v-0.09682l0.02165,-0.09742l-0.00149,-0.00223l0.09566,-0.38263v-0.09682l0.02165,-0.09742l-0.02165,-0.03247v-2.32134l-0.01803,-0.07214c0.82556,1.27708 1.30495,2.79844 1.30495,4.43086z" fill="url(#color-9)" fill-rule="nonzero" stroke="none" stroke-width="1" stroke-linejoin="miter" stroke-miterlimit="10"></path><path d="M414.9812,20.16434c4.51316,0 8.17748,3.66433 8.17748,8.17748v0.00083c0,0.26337 -0.00646,0.52607 -0.0193,0.7879c-0.25945,-0.2514 -0.54403,-0.47646 -0.85234,-0.66888c-0.88132,-0.55004 -1.90123,-0.56879 -2.84603,-0.84874c-2.40695,-1.78405 -6.09893,-2.39136 -8.16418,-0.69681c-0.10014,0.01724 -0.19972,0.03661 -0.29861,0.05858c-0.07703,0.01712 -0.16952,0.0334 -0.27165,0.05009c-0.77916,-0.20743 -1.59821,-0.42313 -2.42096,-0.54063c-0.26349,-0.42085 -0.55904,-0.84124 -0.87,-1.24962c1.22399,-2.97396 4.15186,-5.0702 7.5656,-5.0702z" fill="url(#color-10)" fill-rule="nonzero" stroke="none" stroke-width="1" stroke-linejoin="miter" stroke-miterlimit="10"></path><path d="M418.46878,15.10558c0.08191,1.36886 -5.08624,2.79177 -11.54338,3.17816c-6.45715,0.38639 -11.7581,-0.41005 -11.84001,-1.77891c-0.08191,-1.36886 5.08623,-2.79177 11.54338,-3.17816c6.45715,-0.38639 11.7581,0.41005 11.84001,1.77891z" fill="none" fill-rule="nonzero" stroke="url(#color-11)" stroke-width="4" stroke-linejoin="miter" stroke-miterlimit="10"></path><path d="M391.29752,43.74451c0,0 -3.12492,-1.04079 -3.19155,-1.48754c-0.05791,-0.38825 0.61364,-1.15798 0.61364,-1.15798c0,0 0.67331,0.71956 1.44133,0.69444c0.84121,-0.02751 1.80761,-0.80962 2.40693,-1.05424c1.20926,-0.49358 1.57283,-2.91111 1.57283,-2.91111l2.94853,3.85005c0,0 -0.41353,1.05943 -0.9051,1.26007c-1.18165,0.4823 -4.88661,0.80631 -4.88661,0.80631z" fill="url(#color-12)" fill-rule="nonzero" stroke="#000000" stroke-width="0" stroke-linejoin="miter" stroke-miterlimit="10"></path><path d="M386.78052,40.61736c0,0 -1.67716,-1.15661 -1.74379,-1.60336c-0.03803,-0.25495 -0.0739,-2.13808 0.34338,-2.32746c0.21818,-0.09902 1.0231,1.40112 1.0231,1.40112c0,0 2.06475,-0.7605 3.21125,-1.22846c0.90334,-0.36871 1.16103,-1.57943 1.32149,-2.2856c0.05434,-0.23915 0.5988,-0.74133 0.5988,-0.74133l2.60107,3.96587c0,0 -0.41353,1.05943 -0.9051,1.26007c-1.18165,0.4823 -6.45019,1.55915 -6.45019,1.55915z" fill="url(#color-13)" fill-rule="nonzero" stroke="#000000" stroke-width="0" stroke-linejoin="miter" stroke-miterlimit="10"></path><path d="M384.52202,36.56364c0,0 -1.67716,-1.15661 -1.74379,-1.60336c-0.03803,-0.25495 -1.40584,-3.29629 -0.98856,-3.48567c0.06255,-0.02839 0.05751,-0.56235 0.18372,-0.40089c0.31401,0.40172 2.22923,1.80201 2.22923,1.80201c0,0 2.00684,0.39771 3.15334,-0.07025c0.90334,-0.36871 1.16103,-1.57943 1.32149,-2.2856c0.05434,-0.23915 1.93074,-0.85715 1.93074,-0.85715l1.26913,4.08169c0,0 -0.41353,1.05943 -0.9051,1.26007c-1.18165,0.4823 -6.45019,1.55915 -6.45019,1.55915z" fill="url(#color-14)" fill-rule="nonzero" stroke="#000000" stroke-width="0" stroke-linejoin="miter" stroke-miterlimit="10"></path><path d="M428.55214,25.25338c0,0 3.72651,-2.59358 3.85335,-1.05018c0.02108,0.25651 0.71283,-0.3818 0.67677,-0.32848c-0.04244,0.06275 -0.80047,2.673 -0.78123,2.35866c0.08048,-1.31461 -2.07541,0.04832 -2.07541,0.04832c0,0 -1.80459,5.03726 -2.38733,4.53637c-0.63828,-0.54863 -1.8791,-0.62604 -2.48602,-0.85115c-1.2246,-0.45421 -3.12734,1.08079 -3.12734,1.08079l0.43167,-4.83016c0,0 1.0211,-0.50076 1.51889,-0.31612c1.19663,0.44383 4.37664,-0.64806 4.37664,-0.64806z" data-paper-data="{&quot;index&quot;:null}" fill="url(#color-15)" fill-rule="nonzero" stroke="#000000" stroke-width="0" stroke-linejoin="miter" stroke-miterlimit="10"></path><text transform="translate(402.01371,45.2226) scale(0.04972,0.04972)" font-size="40" xml:space="preserve" fill="#ff6666" fill-rule="nonzero" stroke="none" stroke-width="1" stroke-linecap="butt" stroke-linejoin="miter" stroke-miterlimit="10" stroke-dasharray="" stroke-dashoffset="0" font-family="Marker" font-weight="normal" text-anchor="start" style="mix-blend-mode: normal"><tspan x="0" dy="0">xAmt8</tspan></text></g><text transform="translate(228.17738,39.98416) scale(0.4063,0.4063)" font-size="40" xml:space="preserve" fill="#00ff0a" fill-rule="nonzero" stroke="none" stroke-width="1" stroke-linecap="butt" stroke-linejoin="miter" stroke-miterlimit="10" stroke-dasharray="" stroke-dashoffset="0" font-family="Sans Serif" font-weight="normal" text-anchor="start" style="mix-blend-mode: normal"><tspan x="0" dy="0">You Have 1 Revive</tspan></text></g></g></svg>