<svg version="1.1" xmlns="http://www.w3.org/2000/svg" xmlns:xlink="http://www.w3.org/1999/xlink" width="19.13267" height="19.81325" viewBox="0,0,19.13267,19.81325"><defs><linearGradient x1="241.31953" y1="173.96542" x2="241.72911" y2="184.84954" gradientUnits="userSpaceOnUse" id="color-1"><stop offset="0" stop-color="#d06f3e"></stop><stop offset="1" stop-color="#dfaf90"></stop></linearGradient></defs><g transform="translate(-231.66034,-169.8755)"><g data-paper-data="{&quot;isPaintingLayer&quot;:true}" fill-rule="nonzero" stroke-width="0.15" stroke-linejoin="miter" stroke-miterlimit="10" stroke-dasharray="" stroke-dashoffset="0" style="mix-blend-mode: normal"><path d="M242.59202,187.8218l-0.14768,-3.90421l1.31509,-0.04974l0.14768,3.90421z" data-paper-data="{&quot;index&quot;:null}" fill="#ce9d52" stroke="none" stroke-linecap="butt"></path><path d="M244.07382,187.82747c0.01159,0.30643 -0.485,0.57395 -1.10918,0.59755c-0.62418,0.02361 -1.13956,-0.20563 -1.15115,-0.51206c-0.01159,-0.3064 0.485,-0.57395 1.10918,-0.59755c0.62418,-0.02361 1.13956,0.20563 1.15115,0.51206z" data-paper-data="{&quot;index&quot;:null}" fill="#ce9d52" stroke="none" stroke-linecap="butt"></path><path d="M241.74875,188.87003l0.60597,-0.6076l0.20062,0.19481c0,0 -0.24036,0.24752 -0.32714,0.33686c-0.02446,0.02518 -0.05406,0.05564 -0.07993,0.08229c-0.03479,0.0358 -0.06283,0.06473 -0.06283,0.06473z" data-paper-data="{&quot;index&quot;:null}" fill="#e5e5e5" stroke="none" stroke-linecap="butt"></path><path d="M242.50042,189.26639l0.19258,-0.83621l0.27333,0.05913c0,0 -0.07297,0.33725 -0.09929,0.45896c-0.00742,0.0343 -0.0164,0.07582 -0.02425,0.1121c-0.01056,0.04876 -0.0191,0.08815 -0.0191,0.08815z" data-paper-data="{&quot;index&quot;:null}" fill="#e5e5e5" stroke="none" stroke-linecap="butt"></path><path d="M243.2494,189.26814l-0.16541,-0.84203l0.27367,-0.05756c0,0 0.07101,0.33764 0.09664,0.45951c0.00721,0.03436 0.01598,0.0759 0.02361,0.11224c0.01026,0.04885 0.01855,0.08829 0.01855,0.08829z" data-paper-data="{&quot;index&quot;:null}" fill="#e5e5e5" stroke="none" stroke-linecap="butt"></path><path d="M244.018,189.05067l-0.43639,-0.73886l0.23887,-0.14541c0,0 0.17939,0.29472 0.24413,0.4011c0.01824,0.02998 0.04032,0.06623 0.05963,0.09798c0.02594,0.04261 0.04687,0.07706 0.04687,0.07706z" data-paper-data="{&quot;index&quot;:null}" fill="#e5e5e5" stroke="none" stroke-linecap="butt"></path><path d="M243.21776,187.84617c0.00344,0.09087 -0.12267,0.1694 -0.28172,0.17541c-0.15905,0.00602 -0.29076,-0.06275 -0.29419,-0.15363c-0.00344,-0.09087 0.12269,-0.1694 0.28175,-0.17541c0.15903,-0.00602 0.29073,0.06275 0.29417,0.15363z" data-paper-data="{&quot;index&quot;:null}" fill="#674100" stroke="#674100" stroke-linecap="butt"></path><path d="M241.88869,187.99529l0.78734,-0.09568l-0.26417,0.42196" data-paper-data="{&quot;index&quot;:null}" fill="none" stroke="#674100" stroke-linecap="round"></path><path d="M242.82785,187.99275l-0.0161,0.44553" data-paper-data="{&quot;index&quot;:null}" fill="none" stroke="#674100" stroke-linecap="round"></path><path d="M243.27248,188.42085l-0.313,-0.43308" data-paper-data="{&quot;index&quot;:null}" fill="none" stroke="#674100" stroke-linecap="round"></path><path d="M243.65929,188.19199l-0.49026,-0.32749" data-paper-data="{&quot;index&quot;:null}" fill="none" stroke="#674100" stroke-linecap="round"></path><path d="M243.95295,184.52762l-0.00814,-0.987c0,0 1.27241,0.44192 1.77209,0.4378c0.16202,-0.00134 0.16048,-1.00124 0.34204,-1.10576c0.21439,-0.12342 0.60012,0.64559 0.60012,0.64559c0,0 0.20739,0.21135 0.20869,0.36842c0.00141,0.17074 -0.20055,0.61856 -0.20055,0.61856z" data-paper-data="{&quot;index&quot;:null}" fill="#dfaf90" stroke="none" stroke-linecap="butt"></path><path d="M238.73802,188.18657l0.22328,-3.90062l1.31388,0.07521l-0.22328,3.90062z" data-paper-data="{&quot;index&quot;:null}" fill="#ce9d52" stroke="none" stroke-linecap="butt"></path><path d="M244.70502,179.28782c0.07213,1.91649 0.61522,3.98165 -0.22336,4.98417c-0.47653,0.56972 -2.04664,2.06624 -2.68319,2.09019c-0.8719,0.03279 -2.6607,-1.02074 -3.27184,-1.97124c-0.62017,-0.96454 -0.1261,-3.34991 -0.18308,-4.86373c-0.1131,-3.00559 1.21929,-5.49568 2.97599,-5.56178c1.7567,-0.06611 3.27244,2.31681 3.38554,5.32237z" data-paper-data="{&quot;index&quot;:null}" fill="url(#color-1)" stroke="none" stroke-linecap="butt"></path><path d="M242.18095,178.92565c0.05327,1.41609 -0.31932,2.5797 -0.83224,2.59901c-0.51292,0.01931 -0.97194,-1.11301 -1.02521,-2.52911c-0.05327,-1.41609 0.31932,-2.5797 0.83224,-2.59901c0.51292,-0.01931 0.97194,1.11301 1.02521,2.52911z" data-paper-data="{&quot;index&quot;:null}" fill="#c8a582" stroke="none" stroke-linecap="butt"></path><g data-paper-data="{&quot;index&quot;:null}" stroke-linecap="butt"><path d="M241.55213,170.63216c1.52153,-0.12226 2.84976,0.95798 2.96667,2.41279c0.11688,1.45479 -1.0218,2.73328 -2.54332,2.85554c-1.52153,0.12226 -2.84976,-0.95798 -2.96667,-2.41279c-0.11688,-1.45479 1.02181,-2.73328 2.54335,-2.85553z" fill="#b8814a" stroke="none"></path><path d="M239.49945,171.67707l-0.40572,-0.88081c0,0 0.12945,-0.77807 0.35199,-0.88055c0.24089,-0.11097 1.04268,0.23817 1.04268,0.23817l0.40572,0.88084z" fill="#b8814a" stroke="none"></path><path d="M242.91238,170.83689l0.56359,-0.78918c0,0 0.7398,-0.27354 0.93918,-0.13114c0.21581,0.15412 0.31036,1.0235 0.31036,1.0235l-0.56359,0.7892z" fill="#b8814a" stroke="none"></path><path d="M243.16241,170.92152l0.36609,-0.51261c0,0 0.48053,-0.17764 0.61004,-0.08517c0.14017,0.10012 0.20159,0.66482 0.20159,0.66482l-0.36608,0.51258z" fill="#c8a582" stroke="none"></path><path d="M239.61651,171.32146l-0.18025,-0.60358c0,0 0.15448,-0.48847 0.30697,-0.53402c0.16506,-0.04927 0.6487,0.2486 0.6487,0.2486l0.18025,0.60358z" fill="#c8a582" stroke="none"></path><path d="M240.47832,171.64677c0.25584,-0.02055 0.48059,0.17919 0.50202,0.44612c0.02145,0.26693 -0.16854,0.49996 -0.42435,0.52053c-0.25581,0.02055 -0.48059,-0.17917 -0.50202,-0.44611c-0.02145,-0.26693 0.16857,-0.49998 0.42438,-0.52055z" fill="#000000" stroke="none"></path><path d="M240.77209,171.94336c0.00648,0.08071 -0.04863,0.151 -0.12314,0.15698c-0.07451,0.00598 -0.14017,-0.05458 -0.14666,-0.1353c-0.00648,-0.08071 0.04866,-0.15101 0.12315,-0.15701c0.07451,-0.00598 0.14015,0.0546 0.14663,0.13531z" fill="#ffffff" stroke="none"></path><path d="M240.20647,172.03118c0.02966,-0.00237 0.05566,0.01973 0.05803,0.0494c0.0024,0.02965 -0.0197,0.05563 -0.04937,0.05801c-0.02965,0.0024 -0.05566,-0.01971 -0.05803,-0.04938c-0.00238,-0.02964 0.01973,-0.05566 0.0494,-0.05803z" fill="#ffffff" stroke="none"></path><path d="M240.40423,172.2495c0.02964,-0.00238 0.05566,0.01973 0.05803,0.0494c0.00237,0.02966 -0.01973,0.05566 -0.0494,0.05803c-0.02966,0.0024 -0.05566,-0.01971 -0.05803,-0.04938c-0.0024,-0.02965 0.01971,-0.05566 0.04938,-0.05803z" fill="#ffffff" stroke="none"></path><path d="M240.77764,172.30062c0.00238,0.02964 -0.01973,0.05566 -0.0494,0.05803c-0.02966,0.00237 -0.05566,-0.01973 -0.05803,-0.0494c-0.00237,-0.02966 0.01973,-0.05566 0.0494,-0.05803c0.02964,-0.00238 0.05566,0.01973 0.05803,0.0494z" fill="#ffffff" stroke="none"></path><g stroke="none"><path d="M243.38888,172.00487c0.02145,0.26693 -0.16857,0.49998 -0.42438,0.52055c-0.25584,0.02056 -0.48059,-0.17917 -0.50202,-0.44611c-0.02145,-0.26693 0.16854,-0.49999 0.42435,-0.52056c0.25581,-0.02057 0.48057,0.17917 0.50202,0.44611z" fill="#000000"></path><path d="M243.05743,172.01233c-0.07451,0.00598 -0.14017,-0.05458 -0.14666,-0.1353c-0.00648,-0.08071 0.04863,-0.151 0.12315,-0.15698c0.07451,-0.00598 0.14017,0.05458 0.14666,0.1353c0.00648,0.08071 -0.04866,0.15099 -0.12315,0.15698z" fill="#ffffff"></path><path d="M242.67297,171.9926c0.00238,0.02964 -0.01973,0.05566 -0.0494,0.05803c-0.02964,0.00238 -0.05563,-0.01973 -0.058,-0.0494c-0.0024,-0.02966 0.01971,-0.05566 0.04938,-0.05803c0.02964,-0.00238 0.05566,0.01973 0.05803,0.0494z" fill="#ffffff"></path><path d="M242.81265,172.16153c0.02966,-0.0024 0.05566,0.01971 0.05803,0.04938c0.00238,0.02964 -0.01973,0.05566 -0.0494,0.05803c-0.02964,0.00238 -0.05563,-0.01973 -0.058,-0.0494c-0.00237,-0.02966 0.01973,-0.05566 0.0494,-0.05803z" fill="#ffffff"></path><path d="M243.1861,172.21259c0.00238,0.02964 -0.01973,0.05566 -0.0494,0.05803c-0.02964,0.00238 -0.05563,-0.01973 -0.058,-0.0494c-0.00238,-0.02964 0.01973,-0.05566 0.0494,-0.05803c0.02964,-0.00238 0.05563,0.01973 0.058,0.0494z" fill="#ffffff"></path></g><path d="M241.24371,173.33745l-0.03884,-0.48333c0,0 0.19197,-0.19231 0.28404,-0.19972c0.09207,-0.0074 0.26835,0.15532 0.26835,0.15532l0.03883,0.48336z" fill="#000000" stroke="none"></path><path d="M241.41885,173.07547c0.14113,0.14167 0.1851,0.36719 0.09366,0.56641c-0.11639,0.25353 -0.40799,0.36848 -0.65138,0.25678c-0.05749,-0.02639 -0.10714,-0.06303 -0.14791,-0.107" fill="none" stroke="#000000"></path><path d="M242.46862,173.76285c-0.03322,0.04989 -0.07637,0.094 -0.12891,0.12923c-0.22241,0.14915 -0.52866,0.08222 -0.68403,-0.14946c-0.12208,-0.18205 -0.11468,-0.41168 0.00203,-0.57406" data-paper-data="{&quot;index&quot;:null}" fill="none" stroke="#000000"></path></g><path d="M240.2126,188.33278c-0.01753,0.30615 -0.53724,0.52536 -1.16084,0.48966c-0.6236,-0.0357 -1.11492,-0.31278 -1.09739,-0.61893c0.01752,-0.30612 0.53725,-0.52536 1.16085,-0.48966c0.6236,0.0357 1.1149,0.31278 1.09738,0.61893z" data-paper-data="{&quot;index&quot;:null}" fill="#ce9d52" stroke="none" stroke-linecap="butt"></path><path d="M237.4979,188.95668l0.3902,-0.76426l0.25073,0.12384c0,0 -0.1528,0.3094 -0.20795,0.42104c-0.01555,0.03146 -0.03435,0.06955 -0.05081,0.10284c-0.0221,0.04474 -0.03994,0.08086 -0.03994,0.08086z" data-paper-data="{&quot;index&quot;:null}" fill="#e5e5e5" stroke="none" stroke-linecap="butt"></path><path d="M237.7992,189.1501l0.66084,-0.54739l0.18123,0.21299c0,0 -0.26276,0.22361 -0.35764,0.30431c-0.02674,0.02275 -0.05906,0.05027 -0.08736,0.07434c-0.03803,0.03234 -0.06871,0.05845 -0.06871,0.05845z" data-paper-data="{&quot;index&quot;:null}" fill="#e5e5e5" stroke="none" stroke-linecap="butt"></path><path d="M238.50978,189.616l0.27102,-0.8142l0.2665,0.08479c0,0 -0.10463,0.3288 -0.14237,0.44747c-0.01064,0.03345 -0.02352,0.07392 -0.03478,0.1093c-0.01511,0.04754 -0.02734,0.08594 -0.02734,0.08594z" data-paper-data="{&quot;index&quot;:null}" fill="#e5e5e5" stroke="none" stroke-linecap="butt"></path><path d="M239.2553,189.68874l-0.08483,-0.85391l0.27789,-0.03134c0,0 0.03867,0.34285 0.05263,0.46661c0.00392,0.03489 0.00868,0.07707 0.01283,0.11397c0.00558,0.0496 0.01012,0.08965 0.01012,0.08965z" data-paper-data="{&quot;index&quot;:null}" fill="#e5e5e5" stroke="none" stroke-linecap="butt"></path><path d="M239.35865,188.2702c-0.0052,0.09078 -0.13818,0.157 -0.29709,0.1479c-0.15891,-0.0091 -0.28349,-0.09004 -0.2783,-0.18084c0.0052,-0.0908 0.13821,-0.15702 0.29712,-0.14793c0.15891,0.0091 0.28346,0.09007 0.27827,0.18086z" data-paper-data="{&quot;index&quot;:null}" fill="#674100" stroke="#674100" stroke-linecap="butt"></path><path d="M238.02142,188.29261l0.79286,-0.02058l-0.303,0.39497" data-paper-data="{&quot;index&quot;:null}" fill="none" stroke="#674100" stroke-linecap="round"></path><path d="M238.95659,188.37915l-0.05828,0.44196" data-paper-data="{&quot;index&quot;:null}" fill="none" stroke="#674100" stroke-linecap="round"></path><path d="M239.35861,188.84744l-0.2705,-0.46078" data-paper-data="{&quot;index&quot;:null}" fill="none" stroke="#674100" stroke-linecap="round"></path><path d="M239.3084,188.28381l0.45697,0.37251" data-paper-data="{&quot;index&quot;:null}" fill="none" stroke="#674100" stroke-linecap="round"></path><g><path d="M247.7753,181.79707l-5.48986,-3.44797l1.16142,-1.84921l5.48986,3.44797z" data-paper-data="{&quot;index&quot;:null}" fill="#ce9d52" stroke="none" stroke-linecap="butt"></path><path d="M249.16864,179.77111c0.43084,0.27059 0.33319,1.2015 -0.21802,2.07915c-0.55126,0.87771 -1.34728,1.36983 -1.77817,1.0992c-0.43084,-0.27059 -0.33329,-1.20148 0.21792,-2.07913c0.55126,-0.87771 1.34737,-1.36985 1.77827,-1.09922z" data-paper-data="{&quot;index&quot;:null}" fill="#ce9d52" stroke="none" stroke-linecap="butt"></path><path d="M247.90139,184.21599l-0.79825,-1.17905l0.38076,-0.26522c0,0 0.32727,0.46974 0.4454,0.63929c0.03331,0.0478 0.07352,0.10563 0.1088,0.1562c0.04727,0.06789 0.0855,0.12278 0.0855,0.12278z" data-paper-data="{&quot;index&quot;:null}" fill="#e5e5e5" stroke="none" stroke-linecap="butt"></path><path d="M248.42378,183.93312l-0.2663,-1.39868l0.45467,-0.09286c0,0 0.11449,0.56094 0.15586,0.76341c0.01157,0.05705 0.02579,0.12604 0.03808,0.18648c0.01657,0.08111 0.02992,0.14665 0.02992,0.14665z" data-paper-data="{&quot;index&quot;:null}" fill="#e5e5e5" stroke="none" stroke-linecap="butt"></path><path d="M249.66988,183.27341l-0.96621,-1.04582l0.33655,-0.31939c0,0 0.39403,0.41532 0.5363,0.56516c0.04011,0.04227 0.08851,0.09337 0.13099,0.13802c0.05696,0.06005 0.103,0.1086 0.103,0.1086z" data-paper-data="{&quot;index&quot;:null}" fill="#e5e5e5" stroke="none" stroke-linecap="butt"></path><path d="M250.37261,182.24816l-1.30889,-0.56056l0.17693,-0.42893c0,0 0.52924,0.21834 0.72025,0.29716c0.05386,0.0222 0.11896,0.04903 0.17593,0.07259c0.07654,0.03159 0.13835,0.05708 0.13835,0.05708z" data-paper-data="{&quot;index&quot;:null}" fill="#e5e5e5" stroke="none" stroke-linecap="butt"></path><path d="M250.79301,180.9914l-1.42082,-0.09264l0.0241,-0.46342c0,0 0.57172,0.02959 0.77807,0.04032c0.05814,0.00304 0.1285,0.00664 0.19008,0.00984c0.0827,0.00428 0.14947,0.00776 0.14947,0.00776z" data-paper-data="{&quot;index&quot;:null}" fill="#e5e5e5" stroke="none" stroke-linecap="butt"></path><path d="M248.39381,180.96207c0.12782,0.08028 0.11751,0.32658 -0.02294,0.55022c-0.14042,0.22357 -0.35787,0.33978 -0.48563,0.25954c-0.12776,-0.08024 -0.11755,-0.32652 0.02291,-0.55015c0.14042,-0.22357 0.35791,-0.33984 0.48567,-0.2596z" data-paper-data="{&quot;index&quot;:null}" fill="#674100" stroke="#674100" stroke-linecap="butt"></path><path d="M247.35555,182.9234l0.60493,-1.16871l0.33141,0.75663" data-paper-data="{&quot;index&quot;:null}" fill="none" stroke="#674100" stroke-linecap="round"></path><path d="M248.82572,182.07225l-0.59561,-0.43865" data-paper-data="{&quot;index&quot;:null}" fill="none" stroke="#674100" stroke-linecap="round"></path><path d="M249.23262,181.42437l-0.88629,0.02417" data-paper-data="{&quot;index&quot;:null}" fill="none" stroke="#674100" stroke-linecap="round"></path><path d="M248.37333,181.04602l0.9073,-0.36584" data-paper-data="{&quot;index&quot;:null}" fill="none" stroke="#674100" stroke-linecap="round"></path></g><g data-paper-data="{&quot;index&quot;:null}"><path d="M233.71634,179.12057l6.16946,-1.99119l0.67072,2.07813l-6.16946,1.99119z" data-paper-data="{&quot;index&quot;:null}" fill="#ce9d52" stroke="none" stroke-linecap="butt"></path><path d="M234.98817,180.39515c0.31833,0.9863 0.18383,1.91257 -0.30035,2.06883c-0.48424,0.15629 -1.1347,-0.51656 -1.45305,-1.50292c-0.31833,-0.9863 -0.18392,-1.91261 0.30026,-2.06888c0.48424,-0.15629 1.1348,0.51661 1.45314,1.50297z" data-paper-data="{&quot;index&quot;:null}" fill="#ce9d52" stroke="none" stroke-linecap="butt"></path><path d="M233.5837,182.94772c0,0 0.05056,-0.0438 0.11308,-0.09797c0.04664,-0.04033 0.09984,-0.08649 0.1439,-0.12463c0.15622,-0.13528 0.589,-0.51005 0.589,-0.51005l0.3038,0.35075l-1.0638,0.9464z" data-paper-data="{&quot;index&quot;:null}" fill="#e5e5e5" stroke="none" stroke-linecap="butt"></path><path d="M232.93058,182.62524c0,0 0.02907,-0.06024 0.06508,-0.13478c0.02679,-0.05557 0.05753,-0.11893 0.08279,-0.17139c0.08992,-0.18607 0.3389,-0.70159 0.3389,-0.70159l0.41784,0.20188l-0.60226,1.29016z" data-paper-data="{&quot;index&quot;:null}" fill="#e5e5e5" stroke="none" stroke-linecap="butt"></path><path d="M232.18733,181.59247c0,0 0.05657,-0.03572 0.12655,-0.07992c0.05216,-0.03283 0.11166,-0.07044 0.16093,-0.10154c0.17477,-0.11022 0.65887,-0.41583 0.65887,-0.41583l0.24762,0.39239l-1.19383,0.77593z" data-paper-data="{&quot;index&quot;:null}" fill="#e5e5e5" stroke="none" stroke-linecap="butt"></path><path d="M231.99149,180.47546c0,0 0.06617,-0.0095 0.14813,-0.02129c0.06101,-0.00881 0.13072,-0.01881 0.18838,-0.02707c0.20452,-0.0294 0.77122,-0.11081 0.77122,-0.11081l0.06594,0.45927l-1.40657,0.22127z" data-paper-data="{&quot;index&quot;:null}" fill="#e5e5e5" stroke="none" stroke-linecap="butt"></path><path d="M232.05344,179.26114c0,0 0.06557,0.01306 0.14678,0.02926c0.06047,0.01205 0.12955,0.02587 0.18666,0.03723c0.20264,0.04037 0.76407,0.15236 0.76407,0.15236l-0.09067,0.4551l-1.39994,-0.2598z" data-paper-data="{&quot;index&quot;:null}" fill="#e5e5e5" stroke="none" stroke-linecap="butt"></path><path d="M234.39987,180.60829c0.08112,0.25132 0.03041,0.49255 -0.11316,0.53888c-0.14358,0.04634 -0.32575,-0.11979 -0.40684,-0.37104c-0.08112,-0.25132 -0.03051,-0.49259 0.11315,-0.53895c0.14358,-0.04634 0.32577,0.11986 0.40686,0.37112z" data-paper-data="{&quot;index&quot;:null}" fill="#674100" stroke="#674100" stroke-linecap="butt"></path><path d="M233.7106,181.76388l0.5074,-0.65183l0.29876,1.28162" data-paper-data="{&quot;index&quot;:null}" fill="none" stroke="#674100" stroke-linecap="round"></path><path d="M233.30123,181.20696l0.68523,-0.27862" data-paper-data="{&quot;index&quot;:null}" fill="none" stroke="#674100" stroke-linecap="round"></path><path d="M233.06624,180.47887l0.85309,0.2415" data-paper-data="{&quot;index&quot;:null}" fill="none" stroke="#674100" stroke-linecap="round"></path><path d="M233.9922,180.32359l-0.78939,-0.57783" data-paper-data="{&quot;index&quot;:null}" fill="none" stroke="#674100" stroke-linecap="round"></path></g></g></g></svg>