<svg version="1.1" xmlns="http://www.w3.org/2000/svg" xmlns:xlink="http://www.w3.org/1999/xlink" width="73.95042" height="110.4949" viewBox="0,0,73.95042,110.4949"><g transform="translate(-196.35756,-117.94797)"><g data-paper-data="{&quot;isPaintingLayer&quot;:true}" fill-rule="nonzero" stroke-linejoin="miter" stroke-miterlimit="10" stroke-dasharray="" stroke-dashoffset="0" style="mix-blend-mode: normal"><g data-paper-data="{&quot;index&quot;:null}"><text transform="translate(231.57522,209.53135) rotate(-180) scale(0.09454,-0.09453) skewX(0)" font-size="40" xml:space="preserve" fill="#684700" fill-rule="nonzero" stroke="none" stroke-width="1" stroke-linecap="butt" stroke-linejoin="miter" stroke-miterlimit="10" stroke-dasharray="" stroke-dashoffset="0" font-family="Impact" font-weight="normal" text-anchor="start" style="mix-blend-mode: normal"><tspan x="0" dy="0">xAmt8</tspan></text><path d="M198.15671,227.91042c0,0 0,-92.70619 0,-101.22948c0,-1.23206 -0.30367,-4.83484 -0.30367,-4.83484l22.47217,2.71961v103.34471z" fill="#684700" stroke="#000000" stroke-width="0.5" stroke-linecap="butt"></path><path d="M207.40728,228.19287v-99.60634h61.34293v99.60634z" fill="#906200" stroke="#001701" stroke-width="0.5" stroke-linecap="butt"></path><path d="M208.79773,148.54728l13.98266,-9.53363l34.32105,0.63557l11.59925,8.89806z" fill="#a0844f" stroke="none" stroke-width="NaN" stroke-linecap="butt"></path><path d="M260.83447,158.95163l0.19557,8.21358" fill="none" stroke="#000000" stroke-width="0.25" stroke-linecap="round"></path><path d="M206.40546,129.13437l-9.41401,-8.1993l58.30615,-2.73309l14.27286,10.9324z" fill="#906200" stroke="#000000" stroke-width="0.5" stroke-linecap="butt"></path><g stroke="none" stroke-width="0" stroke-linecap="butt"><path d="M207.60316,158.70317v-1.46412h60.52829v1.46412z" fill="#ab8d55"></path><path d="M207.98347,149.87411v-1.46412h60.09047v1.46412z" fill="#ab8d55"></path><path d="M210.28517,157.43825v-7.93704h55.33711v7.93704z" fill="#805300"></path><path d="M207.38557,158.58806l0.32967,-10.05989l2.6371,0.87824v8.22355z" data-paper-data="{&quot;index&quot;:null}" fill="#563a00"></path><path d="M265.5447,157.76299v-8.18775l2.6371,-0.87441l0.32967,10.01608z" data-paper-data="{&quot;index&quot;:null}" fill="#563a00"></path></g><g stroke="none" stroke-width="0" stroke-linecap="butt"><path d="M207.85739,185.90579v-1.46412h60.5283v1.46412z" fill="#ab8d55"></path><path d="M208.23771,177.07673v-1.46412h60.09046v1.46412z" fill="#ab8d55"></path><path d="M210.53938,184.64086v-7.93704h55.33711v7.93704z" fill="#805300"></path><path d="M207.63981,185.79068l0.32967,-10.05989l2.6371,0.87824v8.22356z" data-paper-data="{&quot;index&quot;:null}" fill="#563a00"></path><path d="M265.79894,184.96559v-8.18774l2.63709,-0.87441l0.32968,10.01608z" data-paper-data="{&quot;index&quot;:null}" fill="#563a00"></path></g><g stroke="none" stroke-width="0" stroke-linecap="butt"><path d="M207.34893,212.34571v-1.46412h60.52829v1.46412z" fill="#ab8d55"></path><path d="M207.72925,203.51666v-1.46412h60.09047v1.46412z" fill="#ab8d55"></path><path d="M210.03093,211.08079v-7.93704h55.3371v7.93704z" fill="#805300"></path><path d="M207.13134,212.23059l0.32968,-10.0599l2.6371,0.87824v8.22356z" data-paper-data="{&quot;index&quot;:null}" fill="#563a00"></path><path d="M265.29047,211.40552v-8.18773l2.6371,-0.87442l0.32967,10.0161z" data-paper-data="{&quot;index&quot;:null}" fill="#563a00"></path></g><g stroke-linecap="butt"><path d="M253.12766,147.8281v-16.71868l2.80315,5.99167l-0.10012,5.50847z" fill="#ffffff" stroke="#000000" stroke-width="0"></path><path d="M248.14086,147.66543v-16.59354h5.56872v16.59354z" fill="#c34a4a" stroke="#000000" stroke-width="0.25"></path><text transform="translate(250.00404,135.37698) rotate(89.56483) scale(0.0582,-0.0582)" font-size="40" xml:space="preserve" fill="#000000" fill-rule="nonzero" stroke="none" stroke-width="1" stroke-linecap="butt" stroke-linejoin="miter" stroke-miterlimit="10" stroke-dasharray="" stroke-dashoffset="0" font-family="Monospace" font-weight="normal" text-anchor="start" style="mix-blend-mode: normal"><tspan x="0" dy="0">doors</tspan><tspan x="0" dy="46.150000000000006px">guide</tspan></text></g><path d="M218.95278,146.48009l8.03486,-12.31829l4.13397,2.69645l-8.03487,12.31828z" fill="#60a1fb" stroke="#000000" stroke-width="0.25" stroke-linecap="butt"></path><text transform="translate(226.22274,138.78627) rotate(122.67698) scale(0.05332,-0.05332)" font-size="40" xml:space="preserve" fill="#000000" fill-rule="nonzero" stroke="none" stroke-width="1" stroke-linecap="butt" stroke-linejoin="miter" stroke-miterlimit="10" stroke-dasharray="" stroke-dashoffset="0" font-family="Monospace" font-weight="normal" text-anchor="start" style="mix-blend-mode: normal"><tspan x="0" dy="0">doors</tspan><tspan x="0" dy="46.150000000000006px">guide</tspan></text><path d="M208.41637,175.62278l13.98265,-9.53363l34.32106,0.63557l11.59926,8.89805z" fill="#a0844f" stroke="none" stroke-width="NaN" stroke-linecap="butt"></path><path d="M262.1052,174.81189v-13.73384l2.30269,4.92194l-0.08224,4.52502z" fill="#ffffff" stroke="#000000" stroke-width="0" stroke-linecap="butt"></path><path d="M257.06691,175.62677v-15.04605h5.0494v15.04605z" fill="#ffde00" stroke="#000000" stroke-width="0.25" stroke-linecap="butt"></path><text transform="translate(259.12879,162.19352) rotate(89.56361) scale(0.05504,-0.05504)" font-size="40" xml:space="preserve" fill="#000000" fill-rule="nonzero" stroke="none" stroke-width="1" stroke-linecap="butt" stroke-linejoin="miter" stroke-miterlimit="10" stroke-dasharray="" stroke-dashoffset="0" font-family="Handwriting" font-weight="normal" text-anchor="start" style="mix-blend-mode: normal"><tspan x="0" dy="0">Blinds man</tspan><tspan x="0" dy="46.150000000000006px">autobiography</tspan></text><path d="M251.48411,175.28356v-14.21378l2.38315,5.09394l-0.08512,4.68315z" fill="#ffffff" stroke="#000000" stroke-width="0" stroke-linecap="butt"></path><path d="M246.58168,175.00498v-14.06932h4.7216v14.06932z" fill="#8a61ff" stroke="#000000" stroke-width="0.25" stroke-linecap="butt"></path><text transform="translate(248.63126,164.98976) rotate(89.56169) scale(0.05063,-0.05063)" font-size="40" xml:space="preserve" fill="#000000" fill-rule="nonzero" stroke="none" stroke-width="1" stroke-linecap="butt" stroke-linejoin="miter" stroke-miterlimit="10" stroke-dasharray="" stroke-dashoffset="0" font-family="Monospace" font-weight="normal" text-anchor="start" style="mix-blend-mode: normal"><tspan x="0" dy="0">doors</tspan><tspan x="0" dy="46.150000000000006px">guide</tspan></text><path d="M241.7014,175.39911v-13.77925l2.3103,4.93823l-0.08251,4.53999z" fill="#ffffff" stroke="#000000" stroke-width="0" stroke-linecap="butt"></path><path d="M236.9985,175.57452v-14.06932h4.72161v14.06932z" fill="#ff50f9" stroke="#000000" stroke-width="0.25" stroke-linecap="butt"></path><text transform="translate(238.86652,165.28689) rotate(89.56169) scale(0.05063,-0.05063)" font-size="40" xml:space="preserve" fill="#000000" fill-rule="nonzero" stroke="none" stroke-width="1" stroke-linecap="butt" stroke-linejoin="miter" stroke-miterlimit="10" stroke-dasharray="" stroke-dashoffset="0" font-family="Monospace" font-weight="normal" text-anchor="start" style="mix-blend-mode: normal"><tspan x="0" dy="0">doors</tspan><tspan x="0" dy="46.150000000000006px">guide</tspan></text><path d="M237.30653,161.59806v-2.30293c0,0 0.47356,0.55589 0.71484,0.55589c0.20894,0 0.64986,-0.55589 0.64986,-0.55589v2.30293z" fill="#e60000" stroke="none" stroke-width="0" stroke-linecap="butt"></path><g><path d="M215.04933,168.94364l16.39751,0.95012l-0.31884,5.50294l-16.39751,-0.95012z" fill="#c58e59" stroke="#000000" stroke-width="0.25" stroke-linecap="butt"></path><text transform="translate(227.08593,171.48845) rotate(-177.12967) scale(0.0576,-0.0576)" font-size="40" xml:space="preserve" fill="#000000" fill-rule="nonzero" stroke="none" stroke-width="1" stroke-linecap="butt" stroke-linejoin="miter" stroke-miterlimit="10" stroke-dasharray="" stroke-dashoffset="0" font-family="Monospace" font-weight="normal" text-anchor="start" style="mix-blend-mode: normal"><tspan x="0" dy="0">doors</tspan><tspan x="0" dy="46.150000000000006px">guide</tspan></text><path d="M215.25872,168.8692l2.74264,-2.39884l10.28954,0.58871l3.38097,2.90761z" fill="#ffffff" stroke="none" stroke-width="0" stroke-linecap="butt"></path><path d="M217.52314,167.03117l11.34746,0.82703" fill="none" stroke="#b5b5b5" stroke-width="0.05" stroke-linecap="round"></path><path d="M230.56526,169.064l-14.0847,-0.73694" fill="none" stroke="#b5b5b5" stroke-width="0.05" stroke-linecap="round"></path></g><path d="M208.54349,201.80848l13.98265,-9.53362l34.32106,0.63557l11.59925,8.89806z" fill="#a0844f" stroke="none" stroke-width="NaN" stroke-linecap="butt"></path><path d="M241.70275,195.06192l19.15349,-0.1294l0.04344,6.42782l-19.15349,0.12942z" fill="#00ffff" stroke="#000000" stroke-width="0.25" stroke-linecap="butt"></path><text transform="translate(255.7744,198.00655) rotate(179.17205) scale(0.06716,-0.06716)" font-size="40" xml:space="preserve" fill="#000000" fill-rule="nonzero" stroke="none" stroke-width="1" stroke-linecap="butt" stroke-linejoin="miter" stroke-miterlimit="10" stroke-dasharray="" stroke-dashoffset="0" font-family="Monospace" font-weight="normal" text-anchor="start" style="mix-blend-mode: normal"><tspan x="0" dy="0">MR BEE</tspan><tspan x="0" dy="46.150000000000006px">LORE</tspan></text><path d="M241.68656,195.08663l3.01095,-2.99813l12.01837,-0.08993l4.15345,3.12896z" fill="#ffffff" stroke="none" stroke-width="0" stroke-linecap="butt"></path><path d="M228.74959,198.29394l12.73342,-11.90519l3.99533,4.27328l-12.73342,11.90519z" fill="#c34a4a" stroke="#000000" stroke-width="0.25" stroke-linecap="butt"></path><text transform="translate(239.20896,190.64698) rotate(133.58982) scale(0.06716,-0.06716)" font-size="40" xml:space="preserve" fill="#000000" fill-rule="nonzero" stroke="none" stroke-width="1" stroke-linecap="butt" stroke-linejoin="miter" stroke-miterlimit="10" stroke-dasharray="" stroke-dashoffset="0" font-family="Monospace" font-weight="normal" text-anchor="start" style="mix-blend-mode: normal"><tspan x="0" dy="0">doors</tspan><tspan x="0" dy="46.150000000000006px">guide</tspan></text><path d="M216.7061,201.92834l-5.02268,-13.97611l4.14334,4.16665l1.57118,4.63492z" fill="#ffffff" stroke="#000000" stroke-width="0" stroke-linecap="butt"></path><path d="M212.19497,203.58397l-4.98508,-13.87151l4.65521,-1.67297l4.98509,13.8715z" fill="#0035c5" stroke="#000000" stroke-width="0.25" stroke-linecap="butt"></path><text transform="translate(209.66951,191.87118) rotate(69.79335) scale(0.05169,-0.05169)" font-size="40" xml:space="preserve" fill="#ffffff" fill-rule="nonzero" stroke="none" stroke-width="1" stroke-linecap="butt" stroke-linejoin="miter" stroke-miterlimit="10" stroke-dasharray="" stroke-dashoffset="0" font-family="Sans Serif" font-weight="normal" text-anchor="start" style="mix-blend-mode: normal"><tspan x="0" dy="0">"vending</tspan><tspan x="0" dy="46.150000000000006px">machine"</tspan></text><path d="M256.58597,192.013l0.54478,-6.53735" fill="none" stroke="#000000" stroke-width="0.25" stroke-linecap="round"></path><path d="M257.03995,129.36345l-0.0908,10.26" fill="none" stroke="#000000" stroke-width="0.25" stroke-linecap="round"></path><path d="M244.59279,148.10049v-16.71869l2.80314,5.99167l-0.10012,5.50846z" fill="#ffffff" stroke="#000000" stroke-width="0" stroke-linecap="butt"></path><path d="M239.60599,147.9378v-16.59353h5.56872v16.59353z" fill="#ffad00" stroke="#000000" stroke-width="0.25" stroke-linecap="butt"></path><text transform="translate(241.46918,135.64937) rotate(89.56483) scale(0.0582,-0.0582)" font-size="40" xml:space="preserve" fill="#000000" fill-rule="nonzero" stroke="none" stroke-width="1" stroke-linecap="butt" stroke-linejoin="miter" stroke-miterlimit="10" stroke-dasharray="" stroke-dashoffset="0" font-family="Monospace" font-weight="normal" text-anchor="start" style="mix-blend-mode: normal"><tspan x="0" dy="0">doors</tspan><tspan x="0" dy="46.150000000000006px">guide</tspan></text><path d="M236.14873,148.28207v-16.71869l2.80314,5.99167l-0.10012,5.50846z" fill="#ffffff" stroke="#000000" stroke-width="0" stroke-linecap="butt"></path><path d="M231.16192,148.1194v-16.59354h5.56871v16.59354z" fill="#00b118" stroke="#000000" stroke-width="0.25" stroke-linecap="butt"></path><text transform="translate(233.02511,135.83096) rotate(89.56483) scale(0.0582,-0.0582)" font-size="40" xml:space="preserve" fill="#000000" fill-rule="nonzero" stroke="none" stroke-width="1" stroke-linecap="butt" stroke-linejoin="miter" stroke-miterlimit="10" stroke-dasharray="" stroke-dashoffset="0" font-family="Monospace" font-weight="normal" text-anchor="start" style="mix-blend-mode: normal"><tspan x="0" dy="0">doors</tspan><tspan x="0" dy="46.150000000000006px">guide</tspan></text><path d="M231.25375,146.79638v-1.27115h5.53859v1.27115z" fill="#da7f00" stroke="none" stroke-width="0" stroke-linecap="butt"></path><path d="M222.55331,185.40623l-0.12712,7.11844" fill="none" stroke="#000000" stroke-width="0.25" stroke-linecap="round"></path><path d="M220.39234,158.45783v7.62691" fill="none" stroke="#000000" stroke-width="0.25" stroke-linecap="round"></path><path d="M222.9933,139.10213v-9.68029" fill="none" stroke="#000000" stroke-width="0.25" stroke-linecap="round"></path></g></g></g></svg>