<svg version="1.1" xmlns="http://www.w3.org/2000/svg" xmlns:xlink="http://www.w3.org/1999/xlink" width="14.60714" height="35.42634" viewBox="0,0,14.60714,35.42634"><g transform="translate(-232.69643,-162.28683)"><g data-paper-data="{&quot;isPaintingLayer&quot;:true}" fill-rule="nonzero" stroke-linejoin="miter" stroke-miterlimit="10" stroke-dasharray="" stroke-dashoffset="0" style="mix-blend-mode: normal"><path d="M233.25061,185.51079l0.66894,-1.5313l0.55627,0.19664l-0.52942,1.49766c0,0 -0.36814,0.28949 -0.49321,0.26019c-0.10223,-0.02395 -0.20259,-0.4232 -0.20259,-0.4232z" data-paper-data="{&quot;index&quot;:null}" fill="#f1ad60" stroke="none" stroke-width="0" stroke-linecap="butt"></path><path d="M232.89867,186.10926l0.66894,-1.53131l0.55628,0.19664l-0.52942,1.49767c0,0 -0.36814,0.28949 -0.49321,0.26019c-0.10223,-0.02395 -0.20259,-0.42319 -0.20259,-0.42319z" data-paper-data="{&quot;index&quot;:null}" fill="#f1ad60" stroke="none" stroke-width="0" stroke-linecap="butt"></path><path d="M232.71158,184.82195c-0.06551,-0.08206 0.10263,-0.45782 0.10263,-0.45782l1.47289,-0.78928l0.3154,0.49863l-1.34246,0.84916c0,0 -0.46833,-0.0003 -0.54846,-0.10069z" data-paper-data="{&quot;index&quot;:null}" fill="#f1ad60" stroke="none" stroke-width="0" stroke-linecap="butt"></path><path d="M234.49243,187.22193l-0.59328,-1.56218l0.53506,-0.24864l0.66944,1.44053c0,0 -0.06053,0.4644 -0.1704,0.53096c-0.0898,0.05441 -0.44082,-0.16067 -0.44082,-0.16067z" data-paper-data="{&quot;index&quot;:null}" fill="#f1ad60" stroke="none" stroke-width="0" stroke-linecap="butt"></path><path d="M234.98032,186.17449l-1.40011,-0.91218l0.28564,-0.51626l1.38992,0.76902c0,0 0.22486,0.41082 0.17534,0.52935c-0.04047,0.09688 -0.45079,0.13007 -0.45079,0.13007z" data-paper-data="{&quot;index&quot;:null}" fill="#f1ad60" stroke="none" stroke-width="0" stroke-linecap="butt"></path><path d="M233.6063,183.65803c0,0 0.92132,-4.46144 1.67661,-6.54573c0.7454,-2.05699 2.82583,-5.8792 2.82583,-5.8792l-0.27863,3.99969l-3.28518,10.20013z" fill="#f1ad60" stroke="none" stroke-width="0" stroke-linecap="butt"></path><path d="M235.26912,176.8771l2.08228,-3.93948l0.94081,1.90504l-1.68201,2.83118z" fill="#da5757" stroke="none" stroke-width="0" stroke-linecap="butt"></path><path d="M240.37042,162.86896c2.34509,0 4.24616,1.8833 4.24616,4.20647c0,2.32317 -1.90107,4.20647 -4.24616,4.20647c-2.34509,0 -4.24616,-1.8833 -4.24616,-4.20647c0,-2.32317 1.90107,-4.20647 4.24616,-4.20647z" data-paper-data="{&quot;index&quot;:null}" fill="#f1ad60" stroke="none" stroke-width="0" stroke-linecap="butt"></path><path d="M236.60921,187.79224v-16.98463h8.09548v16.98463z" fill="#ff6666" stroke="none" stroke-width="0" stroke-linecap="butt"></path><path d="M237.27166,165.69928c0,-0.17533 0.14214,-0.31747 0.31747,-0.31747c0.17533,0 0.31747,0.14214 0.31747,0.31747c0,0.17533 -0.14214,0.31747 -0.31747,0.31747c-0.17533,0 -0.31747,-0.14214 -0.31747,-0.31747z" fill="#000000" stroke="none" stroke-width="0.5" stroke-linecap="butt"></path><path d="M238.49098,173.02989l-1.11114,-2.14292h2.69849l-1.26988,2.30166z" fill="#ffffff" stroke="none" stroke-width="0" stroke-linecap="butt"></path><path d="M237.71161,196.04645v-8.49232h2.46039v8.49232z" fill="#66a6ff" stroke="none" stroke-width="0" stroke-linecap="butt"></path><path d="M241.67998,196.28456v-8.49232h2.46039v8.49232z" fill="#66a6ff" stroke="none" stroke-width="0" stroke-linecap="butt"></path><path d="M235.88616,197.71317v-2.22229c0,0 0.6993,0.32586 1.40578,-0.12548c0.65839,-0.42062 1.31257,-1.6206 1.68956,-1.6206c0.44006,0 1.19051,1.74608 1.19051,1.74608v2.22229z" fill="#a06140" stroke="none" stroke-width="0" stroke-linecap="butt"></path><path d="M241.36251,197.63381v-2.22229c0,0 0.75045,-1.74608 1.19051,-1.74608c0.37699,0 1.03117,1.19998 1.68956,1.6206c0.70647,0.45134 1.40577,0.12548 1.40577,0.12548v2.22229z" data-paper-data="{&quot;index&quot;:null}" fill="#a06140" stroke="none" stroke-width="0" stroke-linecap="butt"></path><path d="M244.80365,187.6985l-1.73253,-10.57513l0.31899,-3.99668c0,0 1.48919,4.08899 1.92055,6.23393c0.43709,2.1734 0.68503,6.72223 0.68503,6.72223z" data-paper-data="{&quot;index&quot;:null}" fill="#f1ad60" stroke="none" stroke-width="0" stroke-linecap="butt"></path><path d="M237.2566,175.62775c0,0.95543 -0.25348,1.72996 -0.56617,1.72996c-0.31269,0 -0.56617,-0.77453 -0.56617,-1.72996c0,-0.95543 0.25348,-1.72996 0.56617,-1.72996c0.31269,0 0.56617,0.77453 0.56617,1.72996z" fill="#da5757" stroke="none" stroke-width="0" stroke-linecap="butt"></path><path d="M244.28633,175.12341c0,1.20542 -0.31981,2.1826 -0.71431,2.1826c-0.3945,0 -0.71431,-0.97719 -0.71431,-2.1826c0,-1.20542 0.31981,-2.1826 0.71431,-2.1826c0.3945,0 0.71431,0.97719 0.71431,2.1826z" fill="#da5757" stroke="none" stroke-width="0" stroke-linecap="butt"></path><path d="M240.2798,173.28903l0.35313,14.26672" fill="none" stroke="#000000" stroke-width="0.25" stroke-linecap="round"></path><path d="M236.86284,163.96229c0,0 -0.05778,0.73635 -0.05778,0.57774c0,-0.16822 -0.51996,-1.50213 -0.51996,-1.50213c0,0 2.34756,-0.75107 3.582,-0.75107c1.321,0 4.10198,0.75107 4.10198,0.75107l0.05777,1.55991c0,0 -1.90368,-0.35556 -3.86026,-0.27187c-1.26375,0.05406 -2.71794,0.56074 -3.13042,0.56074c-0.16397,0 0.03109,-0.49048 -0.12491,-0.72544c-0.12915,-0.19451 -0.04841,-0.19895 -0.04841,-0.19895z" fill="#000000" stroke="none" stroke-width="0" stroke-linecap="butt"></path><path d="M240.63644,163.65229c0.04037,0.17079 -0.56882,0.46096 -1.36065,0.64812c-0.79183,0.18716 -1.46646,0.20043 -1.50683,0.02964c-0.04037,-0.17079 0.56882,-0.46096 1.36065,-0.64812c0.79183,-0.18716 1.46646,-0.20043 1.50683,-0.02964z" fill="#484343" stroke="none" stroke-width="0" stroke-linecap="butt"></path><path d="M238.01833,188.9127l0.11555,0.80884" fill="none" stroke="#0035ea" stroke-width="0.05" stroke-linecap="round"></path><path d="M239.00049,192.37916l0.11555,-1.15549" fill="none" stroke="#0035ea" stroke-width="0.05" stroke-linecap="round"></path><path d="M238.3072,193.41909l-0.11555,-1.32881" fill="none" stroke="#0035ea" stroke-width="0.05" stroke-linecap="round"></path><path d="M242.87137,193.01467l-0.05777,-0.80884v-1.55991" fill="none" stroke="#0035ea" stroke-width="0.05" stroke-linecap="round"></path><path d="M243.16024,189.95263l0.17333,-1.73323" fill="none" stroke="#0035ea" stroke-width="0.05" stroke-linecap="round"></path><path d="M242.3514,190.01041v-1.27103" fill="none" stroke="#0035ea" stroke-width="0.05" stroke-linecap="round"></path><path d="M243.68021,193.13022l-0.11555,-0.92439" fill="none" stroke="#0035ea" stroke-width="0.05" stroke-linecap="round"></path><path d="M239.11604,188.16163l0.05777,1.09771" fill="none" stroke="#0035ea" stroke-width="0.05" stroke-linecap="round"></path><path d="M238.5383,194.80567l0.57774,-0.17333" fill="none" stroke="#000000" stroke-width="0.1" stroke-linecap="round"></path><path d="M239.00049,195.55674l0.51997,-0.2311" fill="none" stroke="#000000" stroke-width="0.1" stroke-linecap="round"></path><path d="M242.40917,195.15232l0.4622,0.69329" fill="none" stroke="#000000" stroke-width="0.1" stroke-linecap="round"></path><path d="M243.50689,195.67229l-0.63552,-0.63552" fill="none" stroke="#000000" stroke-width="0.1" stroke-linecap="round"></path><path d="M244.02713,179.52744l-1.24249,-3.04974l1.21352,-1.74403l1.47359,4.20523z" data-paper-data="{&quot;index&quot;:null}" fill="#da5757" stroke="none" stroke-width="0" stroke-linecap="butt"></path><path d="M245.64186,188.7749c-0.1271,0.01855 -0.46928,-0.3012 -0.46928,-0.3012l-0.40011,-1.53727l0.57098,-0.14861l0.53626,1.58265c0,0 -0.13396,0.38926 -0.23785,0.40443z" data-paper-data="{&quot;index&quot;:null}" fill="#f1ad60" stroke="none" stroke-width="0" stroke-linecap="butt"></path><path d="M246.0526,188.13724c-0.12711,0.01855 -0.46928,-0.3012 -0.46928,-0.3012l-0.40011,-1.53727l0.57098,-0.14861l0.53626,1.58265c0,0 -0.13395,0.38926 -0.23785,0.40443z" data-paper-data="{&quot;index&quot;:null}" fill="#f1ad60" stroke="none" stroke-width="0" stroke-linecap="butt"></path><path d="M247.28237,187.40906c-0.08838,0.09322 -0.55504,0.05367 -0.55504,0.05367l-1.26537,-0.96027l0.35667,-0.47l1.40042,0.9117c0,0 0.13556,0.3887 0.06332,0.4649z" data-paper-data="{&quot;index&quot;:null}" fill="#f1ad60" stroke="none" stroke-width="0" stroke-linecap="butt"></path><path d="M244.07889,188.77004c-0.10381,-0.07566 -0.12462,-0.54353 -0.12462,-0.54353l0.78953,-1.37837l0.51197,0.29326l-0.724,1.50605c0,0 -0.36804,0.18444 -0.45288,0.12259z" data-paper-data="{&quot;index&quot;:null}" fill="#f1ad60" stroke="none" stroke-width="0" stroke-linecap="butt"></path><path d="M243.43802,187.68412c-0.03925,-0.12231 0.21973,-0.51251 0.21973,-0.51251l1.4503,-0.64802l0.24069,0.53868l-1.47262,0.78979c0,0 -0.40601,-0.06796 -0.4381,-0.16794z" data-paper-data="{&quot;index&quot;:null}" fill="#f1ad60" stroke="none" stroke-width="0" stroke-linecap="butt"></path><path d="M243.96971,164.83131c0,0.26922 0.4771,0.90528 0.03482,0.90528c-0.44229,0 -1.63648,-0.63607 -1.63648,-0.90528c0,-0.26922 0.35854,-0.48746 0.80083,-0.48746c0.44229,0 0.80083,0.21824 0.80083,0.48746z" fill="#000000" stroke="none" stroke-width="0" stroke-linecap="butt"></path><path d="M238.73611,168.31354c0.07386,0.07386 0,0.14772 0,0.14772l-0.05831,0.05146c-0.30818,0.58354 -1.29009,0.85796 -1.83594,0.58503c0,0 -0.09343,-0.04671 -0.04671,-0.14014c0.04671,-0.09343 0.14014,-0.04671 0.14014,-0.04671c0.4353,0.21765 1.3054,-0.00179 1.55718,-0.49459l0.09592,-0.10277c0,0 0.07386,-0.07386 0.14772,0z" data-paper-data="{&quot;index&quot;:null}" fill="#000000" stroke="none" stroke-width="0.5" stroke-linecap="butt"></path></g></g></svg>