<svg version="1.1" xmlns="http://www.w3.org/2000/svg" xmlns:xlink="http://www.w3.org/1999/xlink" width="27.06333" height="33.21451" viewBox="0,0,27.06333,33.21451"><g transform="translate(-228,-168)"><g data-paper-data="{&quot;isPaintingLayer&quot;:true}" fill-rule="nonzero" stroke-linejoin="miter" stroke-miterlimit="10" stroke-dasharray="" stroke-dashoffset="0" style="mix-blend-mode: normal"><path d="M228,180c0,-6.62742 5.37258,-12 12,-12c6.62742,0 12,5.37258 12,12c0,6.62742 -5.37258,12 -12,12c-6.62742,0 -12,-5.37258 -12,-12z" fill-opacity="0.46907" fill="#00fdff" stroke="none" stroke-width="0" stroke-linecap="butt"></path><path d="M247.51999,184.28155c-1.1528,2.83089 -3.95996,4.82951 -7.23997,4.82951c-4.30782,0 -7.8,-3.44741 -7.8,-7.7c0,-4.25259 3.49218,-7.7 7.8,-7.7c1.13977,0 2.22245,0.24133 3.19845,0.67506" fill="none" stroke="#fff4ce" stroke-width="2" stroke-linecap="butt"></path><path d="M240.84437,176.66044l2.23493,-2.13514" fill="none" stroke="#fff4ce" stroke-width="2" stroke-linecap="round"></path><path d="M243.62475,173.02408l-2.23493,-2.13513" data-paper-data="{&quot;index&quot;:null}" fill="none" stroke="#fff4ce" stroke-width="2" stroke-linecap="round"></path><text transform="translate(228.31251,198.76789) scale(0.23301,0.23301)" font-size="40" xml:space="preserve" fill="#fbfbfb" fill-rule="nonzero" stroke="none" stroke-width="1" stroke-linecap="butt" stroke-linejoin="miter" stroke-miterlimit="10" stroke-dasharray="" stroke-dashoffset="0" font-family="Serif" font-weight="normal" text-anchor="start" style="mix-blend-mode: normal"><tspan x="0" dy="0">Reload</tspan></text></g></g></svg>