<svg version="1.1" xmlns="http://www.w3.org/2000/svg" xmlns:xlink="http://www.w3.org/1999/xlink" width="45.14767" height="88.03517" viewBox="0,0,45.14767,88.03517"><defs><radialGradient cx="241.12575" cy="235.02635" r="1.56951" gradientUnits="userSpaceOnUse" id="color-1"><stop offset="0" stop-color="#00ffde" stop-opacity="0.39516"></stop><stop offset="1" stop-color="#00b2de" stop-opacity="0.34677"></stop></radialGradient><radialGradient cx="221.65984" cy="229.77962" r="1.56951" gradientUnits="userSpaceOnUse" id="color-2"><stop offset="0" stop-color="#00ffde" stop-opacity="0.39516"></stop><stop offset="1" stop-color="#00b2de" stop-opacity="0.34677"></stop></radialGradient><radialGradient cx="260.09559" cy="234.77034" r="1.5695" gradientUnits="userSpaceOnUse" id="color-3"><stop offset="0" stop-color="#00ffde" stop-opacity="0.39516"></stop><stop offset="1" stop-color="#00b2de" stop-opacity="0.34677"></stop></radialGradient><radialGradient cx="240.89854" cy="258.47779" r="1.56951" gradientUnits="userSpaceOnUse" id="color-4"><stop offset="0" stop-color="#00ffde" stop-opacity="0.39516"></stop><stop offset="1" stop-color="#00b2de" stop-opacity="0.34677"></stop></radialGradient><radialGradient cx="240.89925" cy="207.81143" r="1.56951" gradientUnits="userSpaceOnUse" id="color-5"><stop offset="0" stop-color="#00ffde" stop-opacity="0.39516"></stop><stop offset="1" stop-color="#00b2de" stop-opacity="0.34677"></stop></radialGradient><linearGradient x1="239.10105" y1="211.1898" x2="239.10105" y2="261.27852" gradientUnits="userSpaceOnUse" id="color-6"><stop offset="0" stop-color="#33ffff" stop-opacity="0"></stop><stop offset="1" stop-color="#33ffff" stop-opacity="0.25132"></stop></linearGradient></defs><g transform="translate(-217.7788,-175.79017)"><g data-paper-data="{&quot;isPaintingLayer&quot;:true}" fill-rule="nonzero" stroke-linejoin="miter" stroke-miterlimit="10" stroke-dasharray="" stroke-dashoffset="0" style="mix-blend-mode: normal"><text transform="translate(237.71843,236.69137) rotate(5.60684) scale(0.05112,0.08476) skewX(5.93268)" font-size="40" xml:space="preserve" fill-opacity="0.24326" fill="#9effff" fill-rule="nonzero" stroke="none" stroke-width="1" stroke-linecap="butt" stroke-linejoin="miter" stroke-miterlimit="10" stroke-dasharray="" stroke-dashoffset="0" font-family="Sans Serif" font-weight="normal" text-anchor="start" style="mix-blend-mode: normal"><tspan x="0" dy="0">xamt8</tspan></text><path d="M222.06311,227.59273c1.94815,-5.50687 5.16286,-13.07708 5.16286,-13.07708c0,0 4.59359,-3.2268 11.79014,-3.2266" fill="none" stroke="#43f2ff" stroke-width="1" stroke-linecap="butt"></path><path d="M243.28369,211.71012c6.77209,1.51009 11.68929,7.06931 11.68929,7.06931c0,0 5.69911,14.03767 5.5633,17.8875c-0.40993,11.61952 -8.03649,20.53723 -17.6294,21.3624" fill="none" stroke="#43f2ff" stroke-width="1" stroke-linecap="butt"></path><path d="M237.72626,257.69011c-9.3602,-2.03012 -16.52695,-11.48159 -17.09706,-22.54349" fill="none" stroke="#43f2ff" stroke-width="1" stroke-linecap="butt"></path><path d="M257.81718,239.34738c-1.66278,9.54777 -9.10698,16.23862 -17.77025,15.38814c-9.60168,-0.94261 -17.06487,-10.79186 -16.66949,-21.99893c0.08885,-2.51837 5.76179,-15.87741 5.76179,-15.87741c0,0 4.89543,-3.43882 12.33949,-2.70803c6.72926,0.66062 11.82458,6.42124 11.82458,6.42124c0,0 2.91844,7.18851 4.22614,12.05265" fill="none" stroke="#43f2ff" stroke-width="1" stroke-linecap="butt"></path><path d="M225.13716,241.85606l-1.9523,3.50125" fill="none" stroke="#43f2ff" stroke-width="1" stroke-linecap="round"></path><path d="M254.87552,252.86505l-2.17223,-3.90616" fill="none" stroke="#43f2ff" stroke-width="1" stroke-linecap="round"></path><path d="M226.33003,244.291l21.06668,-28.1003l-7.39333,38.07438l-5.12984,-39.72642l19.77816,31.80847l-30.77675,-14.31485l34.07938,2.54912l-31.48994,9.7982" fill="none" stroke="#43f2ff" stroke-width="0.5" stroke-linecap="round"></path><path d="M257.14627,236.04989c0.08573,-2.43016 1.33621,-4.28426 2.79302,-4.14124c1.45681,0.14301 2.56828,2.22899 2.48254,4.65915c-0.08573,2.43016 -1.33621,4.28426 -2.79302,4.14124c-1.45681,-0.14301 -2.56828,-2.22899 -2.48254,-4.65915z" fill="none" stroke="#43f2ff" stroke-width="1" stroke-linecap="butt"></path><path d="M237.4421,258.65844c0.08573,-2.43015 1.33621,-4.28425 2.79302,-4.14124c1.4568,0.14301 2.56828,2.229 2.48254,4.65915c-0.08573,2.43015 -1.33621,4.28426 -2.79302,4.14124c-1.4568,-0.14301 -2.56828,-2.229 -2.48254,-4.65915z" fill="none" stroke="#43f2ff" stroke-width="1" stroke-linecap="butt"></path><path d="M218.2788,230.85799c0.08573,-2.43015 1.33621,-4.28426 2.79302,-4.14124c1.45681,0.14301 2.56828,2.229 2.48254,4.65915c-0.08573,2.43015 -1.33621,4.28426 -2.79302,4.14124c-1.45681,-0.14301 -2.56828,-2.229 -2.48254,-4.65915z" fill="none" stroke="#43f2ff" stroke-width="1" stroke-linecap="butt"></path><path d="M238.69479,209.02177c0.08573,-2.43016 1.33621,-4.28426 2.79302,-4.14124c1.45681,0.14301 2.56828,2.22899 2.48254,4.65915c-0.08573,2.43016 -1.33621,4.28426 -2.79302,4.14124c-1.45681,-0.14301 -2.56828,-2.22899 -2.48254,-4.65915z" fill="none" stroke="#43f2ff" stroke-width="1" stroke-linecap="butt"></path><path d="M240.4577,233.87451c0.05726,-0.15741 0.16256,-0.24919 0.27344,-0.2383c0.11089,0.01088 0.20902,0.12263 0.2548,0.29015l0.3002,1.09855l0.70966,0.27266c0.10821,0.0416 0.19361,0.17903 0.22173,0.35687c0.02811,0.17785 -0.00572,0.36673 -0.08781,0.49038l-0.5384,0.81087l0.06323,1.20074c0.00963,0.18312 -0.04291,0.35985 -0.13641,0.45888c-0.09352,0.09905 -0.21254,0.104 -0.30908,0.01289l-0.63293,-0.5974l-0.67059,0.46943c-0.10225,0.0716 -0.22012,0.04338 -0.30602,-0.07327c-0.0859,-0.11664 -0.12565,-0.30244 -0.10321,-0.4824l0.1472,-1.18008l-0.47766,-0.91062c-0.07283,-0.13886 -0.09314,-0.33306 -0.05272,-0.50418c0.04041,-0.17112 0.1349,-0.29089 0.24528,-0.31103l0.72392,-0.13192z" fill="url(#color-1)" stroke="#000000" stroke-width="0" stroke-linecap="butt"></path><path d="M221.20137,228.37117c0.08046,-0.12604 0.19665,-0.16737 0.30173,-0.10729c0.10508,0.06007 0.18166,0.21162 0.19884,0.39349l0.11266,1.19259l0.63985,0.58004c0.09756,0.08847 0.15775,0.25906 0.15625,0.44297c-0.0015,0.18391 -0.06446,0.35075 -0.16341,0.43317l-0.64901,0.54041l-0.13206,1.18507c-0.02015,0.18072 -0.09918,0.32748 -0.20517,0.38108c-0.10601,0.0536 -0.22148,0.00514 -0.29984,-0.12581l-0.51375,-0.85858l-0.72148,0.15235c-0.11001,0.02325 -0.21904,-0.05665 -0.28305,-0.20745c-0.064,-0.15078 -0.07245,-0.34756 -0.0219,-0.5109l0.33147,-1.07105l-0.31382,-1.0909c-0.04786,-0.16636 -0.0362,-0.36252 0.03024,-0.5093c0.06643,-0.14679 0.17672,-0.21991 0.28629,-0.18994l0.71862,0.19665z" fill="url(#color-2)" stroke="#000000" stroke-width="0" stroke-linecap="butt"></path><path d="M259.24169,234.03574c0.02404,-0.17969 0.1062,-0.32287 0.21335,-0.37175c0.10715,-0.04889 0.22156,0.00459 0.29707,0.13887l0.49517,0.8805l0.72464,-0.12055c0.1105,-0.01836 0.21778,0.06625 0.27853,0.21973c0.06076,0.15349 0.06493,0.3505 0.01089,0.51147l-0.35451,1.05565l0.29028,1.10384c0.04426,0.16835 0.02838,0.36384 -0.0412,0.50757c-0.0696,0.14376 -0.18142,0.21201 -0.29036,0.17723l-0.71426,-0.22807l-0.54525,0.80275c-0.08313,0.12242 -0.20022,0.15862 -0.30398,0.09396c-0.10375,-0.06464 -0.17706,-0.21945 -0.19033,-0.40193l-0.08694,-1.19661l-0.62725,-0.60772c-0.09565,-0.09268 -0.15214,-0.26581 -0.14668,-0.44952c0.00545,-0.18369 0.07199,-0.34761 0.17271,-0.42562l0.66053,-0.51147z" fill="url(#color-3)" stroke="#000000" stroke-width="0" stroke-linecap="butt"></path><path d="M240.71362,256.90506c0.09938,-0.08013 0.21766,-0.06157 0.30715,0.04819c0.08949,0.10976 0.1354,0.29258 0.11917,0.47469l-0.10636,1.1942l0.50654,0.87278c0.07723,0.13311 0.10407,0.32592 0.06966,0.50065c-0.03441,0.17473 -0.1244,0.30252 -0.2336,0.33179l-0.7162,0.1918l-0.33853,1.0649c-0.05164,0.16239 -0.15336,0.263 -0.26411,0.26124c-0.11077,-0.00176 -0.21227,-0.10562 -0.26355,-0.26967l-0.33626,-1.07564l-0.71576,-0.21464c-0.10914,-0.03271 -0.19885,-0.16336 -0.23288,-0.33918c-0.03403,-0.17582 -0.0068,-0.3678 0.07073,-0.49843l0.50835,-0.85661l-0.10382,-1.19755c-0.01583,-0.18261 0.03046,-0.36399 0.12018,-0.47089c0.08971,-0.10691 0.20806,-0.12166 0.30725,-0.03838l0.65046,0.54625z" fill="url(#color-4)" stroke="#000000" stroke-width="0" stroke-linecap="butt"></path><path d="M239.96745,208.20205c-0.05319,-0.16133 -0.04829,-0.35936 0.01272,-0.51421c0.06101,-0.15484 0.16804,-0.24091 0.27792,-0.22344l0.72048,0.11449l0.49589,-0.88963c0.07563,-0.13564 0.18964,-0.19047 0.29606,-0.14233c0.10641,0.04815 0.18763,0.19135 0.21089,0.37172l0.15243,1.183l0.65527,0.50802c0.09992,0.07749 0.1655,0.24166 0.17026,0.42624c0.00477,0.18462 -0.05208,0.35915 -0.1476,0.45319l-0.62627,0.61663l-0.09092,1.20362c-0.01384,0.18353 -0.08736,0.33983 -0.19082,0.40575c-0.10346,0.06592 -0.21982,0.03064 -0.30209,-0.09164l-0.53949,-0.80187l-0.71145,0.23583c-0.10849,0.03596 -0.2195,-0.03162 -0.28821,-0.17548c-0.06871,-0.14383 -0.08375,-0.3402 -0.03911,-0.50982l0.29286,-1.11224z" fill="url(#color-5)" stroke="#000000" stroke-width="0" stroke-linecap="butt"></path><path d="M231.06058,212.75589l1.30122,2.33546" fill="none" stroke="#43f2ff" stroke-width="1" stroke-linecap="round"></path><path d="M237.30949,211.26199l0.19744,2.92956" fill="none" stroke="#43f2ff" stroke-width="1" stroke-linecap="round"></path><path d="M250.62174,217.58641l1.72092,-1.03527" fill="none" stroke="#43f2ff" stroke-width="1" stroke-linecap="round"></path><path d="M254.81814,223.11626l1.83729,-0.92349" fill="none" stroke="#43f2ff" stroke-width="1" stroke-linecap="round"></path><path d="M259.02508,230.05206l-1.89019,0.71759" fill="none" stroke="#43f2ff" stroke-width="1" stroke-linecap="round"></path><path d="M224.37076,221.6325l1.40348,2.84725" fill="none" stroke="#43f2ff" stroke-width="1" stroke-linecap="round"></path><path d="M232.50234,252.03229l-1.56578,1.75295" fill="none" stroke="#43f2ff" stroke-width="1" stroke-linecap="round"></path><path d="M247.92349,253.1448l0.43018,3.15311" fill="none" stroke="#43f2ff" stroke-width="1" stroke-linecap="round"></path><g fill="none" stroke="#c1ffff" stroke-width="0.5" stroke-linecap="butt"><g><path d="M226.97322,200.01555c-0.33231,2.09676 -1.24633,3.51223 -2.04154,3.16153c-0.79522,-0.3507 -1.17047,-2.33475 -0.83817,-4.43151c0.33231,-2.09676 1.24633,-3.51223 2.04154,-3.16153c0.79522,0.3507 1.17047,2.33475 0.83817,4.43151z"></path><path d="M228.09799,193.19891c-0.33231,2.09676 -1.24633,3.51223 -2.04154,3.16153c-0.79522,-0.3507 -1.17047,-2.33475 -0.83817,-4.43151c0.33231,-2.09676 1.24633,-3.51223 2.04154,-3.16153c0.79522,0.3507 1.17047,2.33475 0.83817,4.43151z"></path><path d="M229.394,187.25642c-0.48848,2.0099 -1.50241,3.22133 -2.26468,2.70581c-0.76226,-0.51552 -0.98421,-2.56278 -0.49573,-4.57268c0.48848,-2.0099 1.50242,-3.22133 2.26468,-2.70581c0.76226,0.51552 0.98421,2.56277 0.49572,4.57268z"></path><path d="M231.02616,180.73155c-0.48848,2.0099 -1.50241,3.22133 -2.26468,2.70581c-0.76226,-0.51552 -0.98421,-2.56278 -0.49573,-4.57268c0.48848,-2.0099 1.50242,-3.22132 2.26468,-2.70581c0.76226,0.51552 0.98421,2.56278 0.49572,4.57268z"></path></g><g><path d="M222.61565,226.24293c-0.2283,2.13509 -1.0698,3.67061 -1.87956,3.42968c-0.80975,-0.24094 -1.28111,-2.1671 -1.0528,-4.3022c0.2283,-2.13509 1.0698,-3.67061 1.87956,-3.42968c0.80975,0.24094 1.2811,2.1671 1.0528,4.3022z"></path><path d="M223.40216,219.29559c-0.2283,2.13509 -1.0698,3.67061 -1.87956,3.42968c-0.80975,-0.24094 -1.28111,-2.1671 -1.0528,-4.3022c0.2283,-2.13509 1.0698,-3.67061 1.87956,-3.42968c0.80975,0.24094 1.2811,2.1671 1.0528,4.3022z"></path><path d="M224.40224,213.19608c-0.38822,2.06985 -1.33931,3.41566 -2.12431,3.00595c-0.785,-0.40971 -1.10666,-2.41979 -0.71844,-4.48965c0.38822,-2.06985 1.33931,-3.41566 2.12431,-3.00595c0.785,0.40971 1.10666,2.41979 0.71843,4.48964z"></path><path d="M225.70876,206.47024c-0.38822,2.06985 -1.33931,3.41566 -2.12431,3.00595c-0.785,-0.40971 -1.10666,-2.41979 -0.71844,-4.48965c0.38822,-2.06985 1.33931,-3.41566 2.12431,-3.00595c0.785,0.40971 1.10666,2.41979 0.71843,4.48965z"></path></g></g><g data-paper-data="{&quot;index&quot;:null}" fill="none" stroke="#c1ffff" stroke-width="0.5" stroke-linecap="butt"><g><path d="M253.97157,201.03684c0.79318,-0.36324 1.7152,1.03774 2.05938,3.12917c0.34418,2.09142 -0.01982,4.08131 -0.813,4.44454c-0.79318,0.36324 -1.7152,-1.03775 -2.05938,-3.12917c-0.34418,-2.09142 0.01981,-4.08131 0.81299,-4.44454z"></path><path d="M252.8082,194.23826c0.79318,-0.36324 1.7152,1.03774 2.05938,3.12917c0.34418,2.09142 -0.01982,4.08131 -0.813,4.44454c-0.79318,0.36324 -1.7152,-1.03775 -2.05938,-3.12917c-0.34418,-2.09142 0.01981,-4.08131 0.81299,-4.44454z"></path><path d="M251.13532,188.18073c0.75931,-0.52753 1.78007,0.66785 2.27992,2.66995c0.49985,2.0021 0.28953,4.05277 -0.46978,4.5803c-0.75931,0.52753 -1.78007,-0.66785 -2.27992,-2.66995c-0.49985,-2.0021 -0.28953,-4.05276 0.46977,-4.58029z"></path><path d="M249.46623,181.6819c0.75931,-0.52753 1.78007,0.66785 2.27993,2.66995c0.49985,2.0021 0.28953,4.05277 -0.46977,4.5803c-0.75931,0.52753 -1.78007,-0.66785 -2.27992,-2.66995c-0.49985,-2.0021 -0.28953,-4.05277 0.46977,-4.5803z"></path></g><g><path d="M258.69304,227.32021c0.80835,-0.25371 1.65852,1.26846 1.89893,3.39986c0.2404,2.1314 -0.22001,4.0649 -1.02836,4.31862c-0.80835,0.25371 -1.65852,-1.26846 -1.89893,-3.39986c-0.2404,-2.1314 0.22001,-4.0649 1.02836,-4.31862z"></path><path d="M257.86717,220.3856c0.80835,-0.25371 1.65852,1.26846 1.89893,3.39986c0.2404,2.1314 -0.22001,4.0649 -1.02836,4.31862c-0.80835,0.25371 -1.65852,-1.26846 -1.89893,-3.39986c-0.2404,-2.1314 0.22001,-4.0649 1.02836,-4.31862z"></path><path d="M256.49713,214.11998c0.78264,-0.42208 1.74133,0.90866 2.14127,2.97229c0.39994,2.06363 0.0897,4.0787 -0.69295,4.50078c-0.78264,0.42208 -1.74132,-0.90866 -2.14126,-2.9723c-0.39994,-2.06363 -0.0897,-4.0787 0.69295,-4.50078z"></path><path d="M255.15253,207.41505c0.78264,-0.42208 1.74133,0.90866 2.14127,2.97229c0.39994,2.06363 0.0897,4.0787 -0.69295,4.50078c-0.78264,0.42208 -1.74132,-0.90866 -2.14126,-2.9723c-0.39994,-2.06363 -0.0897,-4.0787 0.69295,-4.50078z"></path></g></g><g data-paper-data="{&quot;index&quot;:null}" fill="none" stroke="#c1ffff" stroke-width="0.5" stroke-linecap="butt"><g><path d="M238.76048,178.88492c0.02011,0.10143 0.03886,0.20472 0.05614,0.30977c0.34418,2.09142 -0.01981,4.08131 -0.81299,4.44454c-0.79318,0.36324 -1.7152,-1.03775 -2.05938,-3.12917c-0.03103,-0.18857 -0.05631,-0.37632 -0.07603,-0.56213"></path></g><g><path d="M241.47871,202.34889c0.80835,-0.25371 1.65852,1.26846 1.89893,3.39986c0.2404,2.1314 -0.22001,4.06491 -1.02836,4.31862c-0.80835,0.25371 -1.65852,-1.26846 -1.89893,-3.39986c-0.2404,-2.1314 0.22001,-4.06491 1.02836,-4.31862z"></path><path d="M240.65284,195.41426c0.80835,-0.25371 1.65852,1.26846 1.89893,3.39986c0.2404,2.1314 -0.22001,4.06491 -1.02836,4.31862c-0.80835,0.25371 -1.65852,-1.26846 -1.89893,-3.39986c-0.2404,-2.1314 0.22001,-4.06491 1.02836,-4.31862z"></path><path d="M239.28281,189.14864c0.78264,-0.42208 1.74133,0.90866 2.14127,2.97229c0.39994,2.06363 0.0897,4.0787 -0.69295,4.50078c-0.78264,0.42208 -1.74132,-0.90866 -2.14126,-2.97229c-0.39994,-2.06363 -0.0897,-4.0787 0.69295,-4.50078z"></path><path d="M237.9382,182.44372c0.78264,-0.42208 1.74133,0.90866 2.14127,2.9723c0.39994,2.06363 0.0897,4.0787 -0.69295,4.50078c-0.78264,0.42208 -1.74132,-0.90866 -2.14126,-2.97229c-0.39994,-2.06363 -0.0897,-4.0787 0.69295,-4.50078z"></path></g></g><g fill="none" stroke="#c1ffff" stroke-width="0.5" stroke-linecap="butt"><g><path d="M245.24431,227.24992c-0.18886,2.14579 -1.00168,3.72373 -1.81549,3.52441c-0.8138,-0.19932 -1.32042,-2.1004 -1.13156,-4.24619c0.18886,-2.14579 1.00169,-3.72372 1.81549,-3.52441c0.8138,0.19932 1.32042,2.1004 1.13156,4.24619z"></path><path d="M245.90247,220.26554c-0.18886,2.14579 -1.00168,3.72373 -1.81549,3.52441c-0.8138,-0.19932 -1.32042,-2.1004 -1.13156,-4.24619c0.18886,-2.14579 1.00169,-3.72372 1.81549,-3.52441c0.8138,0.19932 1.32042,2.1004 1.13156,4.24619z"></path><path d="M246.78971,214.11763c-0.3499,2.08878 -1.27575,3.48271 -2.06793,3.11344c-0.79218,-0.36928 -1.15072,-2.36192 -0.80081,-4.45069c0.3499,-2.08878 1.27575,-3.48271 2.06794,-3.11343c0.79218,0.36928 1.15071,2.36191 0.80081,4.45069z"></path><path d="M247.9717,207.32799c-0.3499,2.08878 -1.27575,3.48271 -2.06793,3.11344c-0.79218,-0.36928 -1.15072,-2.36192 -0.80081,-4.4507c0.3499,-2.08878 1.27576,-3.48271 2.06794,-3.11343c0.79218,0.36928 1.15071,2.36192 0.8008,4.45069z"></path></g><g><path d="M242.68224,254.12832c-0.08294,2.16438 -0.81561,3.848 -1.63645,3.76047c-0.82085,-0.08753 -1.41906,-1.91306 -1.33612,-4.07744c0.08294,-2.16438 0.81561,-3.848 1.63646,-3.76047c0.82085,0.08753 1.41906,1.91306 1.33612,4.07744z"></path><path d="M242.99547,247.07751c-0.08294,2.16438 -0.81561,3.848 -1.63645,3.76047c-0.82085,-0.08753 -1.41906,-1.91306 -1.33612,-4.07744c0.08294,-2.16438 0.81561,-3.848 1.63646,-3.76047c0.82085,0.08753 1.41906,1.91306 1.33612,4.07744z"></path><path d="M243.57807,240.82909c-0.24623,2.12954 -1.10058,3.64521 -1.90822,3.38534c-0.80764,-0.25987 -1.26274,-2.19688 -1.01651,-4.32642c0.24623,-2.12954 1.10058,-3.64521 1.90823,-3.38534c0.80764,0.25987 1.26274,2.19687 1.01651,4.32642z"></path><path d="M244.42294,233.90085c-0.24623,2.12954 -1.10058,3.64521 -1.90822,3.38534c-0.80764,-0.25987 -1.26274,-2.19688 -1.01651,-4.32642c0.24623,-2.12954 1.10058,-3.64522 1.90823,-3.38534c0.80764,0.25987 1.26274,2.19688 1.01651,4.32642z"></path></g></g><g fill="none" stroke-linecap="butt"><g stroke="none" stroke-width="1" font-family="sans-serif" font-weight="normal" font-size="12" text-anchor="start"></g><g stroke="#c1ffff" stroke-width="0.5"><path d="M248.21146,200.56119c-0.08458,2.1642 -0.81853,3.84628 -1.63931,3.75702c-0.82078,-0.08926 -1.4176,-1.91606 -1.33302,-4.08026c0.08458,-2.1642 0.81853,-3.84628 1.63932,-3.75701c0.82078,0.08926 1.4176,1.91605 1.33302,4.08026z"></path><path d="M248.53004,193.51105c-0.08458,2.1642 -0.81853,3.84628 -1.63931,3.75701c-0.82078,-0.08926 -1.4176,-1.91605 -1.33302,-4.08026c0.08458,-2.1642 0.81853,-3.84628 1.63932,-3.75702c0.82078,0.08926 1.4176,1.91606 1.33302,4.08026z"></path><path d="M248.87371,183.93773c0.28676,0.81928 0.39367,2.03772 0.24368,3.32613c-0.24786,2.12902 -1.10334,3.64288 -1.91079,3.38131c-0.80744,-0.26158 -1.26108,-2.19954 -1.01322,-4.32856c0.09862,-0.84715 0.29346,-1.5969 0.54318,-2.17615"></path></g></g><path d="M218.3226,229.8228l8.16725,-18.63301c0,0 10.18148,3.20568 14.5329,3.20568c4.03161,0 10.68949,-3.20568 10.68949,-3.20568c0,0 10.08896,18.10125 10.08896,27.04791c0,7.48895 -9.72864,17.03017 -9.72864,17.03017c0,0 -8.68847,8.41491 -12.85141,8.41491c-2.12394,0 -9.27989,-6.48097 -13.97834,-14.9557c-4.68763,-8.45523 -6.92022,-18.90428 -6.92022,-18.90428z" fill="url(#color-6)" stroke="none" stroke-width="0" stroke-linecap="butt"></path></g></g></svg>