<svg version="1.1" xmlns="http://www.w3.org/2000/svg" xmlns:xlink="http://www.w3.org/1999/xlink" width="111.22822" height="84.64157" viewBox="0,0,111.22822,84.64157"><defs><radialGradient cx="217.13157" cy="204.37975" r="11.17967" gradientUnits="userSpaceOnUse" id="color-1"><stop offset="0" stop-color="#79787a"></stop><stop offset="1" stop-color="#b3b0b4"></stop></radialGradient><radialGradient cx="227.6688" cy="207.09785" r="9.57152" gradientUnits="userSpaceOnUse" id="color-2"><stop offset="0" stop-color="#79787a"></stop><stop offset="1" stop-color="#b3b0b4"></stop></radialGradient><linearGradient x1="209.82865" y1="140.4859" x2="215.86386" y2="148.57309" gradientUnits="userSpaceOnUse" id="color-3"><stop offset="0" stop-color="#f5d95e" stop-opacity="0.76745"></stop><stop offset="1" stop-color="#f5d95e" stop-opacity="0"></stop></linearGradient><linearGradient x1="204.05592" y1="140.57681" x2="210.09114" y2="148.664" gradientUnits="userSpaceOnUse" id="color-4"><stop offset="0" stop-color="#f5d95e" stop-opacity="0.76745"></stop><stop offset="1" stop-color="#f5d95e" stop-opacity="0"></stop></linearGradient></defs><g transform="translate(-183.73863,-136.67926)"><g data-paper-data="{&quot;isPaintingLayer&quot;:true}" fill-rule="nonzero" stroke-linejoin="miter" stroke-miterlimit="10" stroke-dasharray="" stroke-dashoffset="0" style="mix-blend-mode: normal"><path d="M224.09076,164.76003c0,1.77064 -1.13986,3.20602 -2.54596,3.20602c-1.40609,0 -2.54596,-1.43539 -2.54596,-3.20602c0,-1.77064 1.13986,-3.20602 2.54596,-3.20602c1.40609,0 2.54596,1.43539 2.54596,3.20602z" fill="#88888b" stroke="none" stroke-width="0" stroke-linecap="butt"></path><path d="M254.64227,172.96368c0,1.30194 -0.92878,2.35737 -2.07449,2.35737c-1.14571,0 -2.07449,-1.05543 -2.07449,-2.35737c0,-1.30194 0.92878,-2.35737 2.07449,-2.35737c1.14571,0 2.07449,1.05543 2.07449,2.35737z" fill="#b6b6ba" stroke="none" stroke-width="0" stroke-linecap="butt"></path><path d="M256.15099,168.909c0,1.97895 -1.4776,3.5832 -3.30032,3.5832c-1.82272,0 -3.30032,-1.60425 -3.30032,-3.5832c0,-1.97895 1.4776,-3.5832 3.30032,-3.5832c1.82272,0 3.30032,1.60425 3.30032,3.5832z" fill="#7f7f81" stroke="none" stroke-width="NaN" stroke-linecap="butt"></path><path d="M214.46181,215.43536v-3.43105c0,0 2.17341,-13.59715 3.83779,-13.59715c0.56695,0 0.14379,4.96885 1.18399,7.86335c1.35971,3.78357 4.15556,5.73381 4.15556,5.73381v3.43105z" data-paper-data="{&quot;index&quot;:null}" fill="url(#color-1)" stroke="#000000" stroke-width="0.5" stroke-linecap="butt"></path><path d="M222.09731,216.56316v-2.93751c0,0 2.39368,-1.6697 3.5578,-4.90902c0.89057,-2.47814 0.52828,-6.73224 1.01368,-6.73224c1.42497,0 3.28574,11.64125 3.28574,11.64125v2.93751z" data-paper-data="{&quot;index&quot;:null}" fill="url(#color-2)" stroke="#000000" stroke-width="0.5" stroke-linecap="butt"></path><path d="M200.40899,140.52776h11.50397v10.18384z" fill="#aaaaaa" stroke="none" stroke-width="NaN" stroke-linecap="butt"></path><path d="M183.73866,221.32083v-5.51584h110.58727v5.51584z" fill="#757575" stroke="none" stroke-width="0.5" stroke-linecap="butt"></path><path d="M293.91806,175.60087v-3.02982h1.04879v3.02982z" fill="#b7b7b7" stroke="none" stroke-width="0.5" stroke-linecap="butt"></path><path d="M292.97767,216.48724v-76.7131h1.86451v76.7131z" fill="#686868" stroke="none" stroke-width="0.5" stroke-linecap="butt"></path><path d="M183.73863,219.77805v-80.90803h1.86451v80.90803z" fill="#686868" stroke="none" stroke-width="0.5" stroke-linecap="butt"></path><path d="M183.8833,140.8744v-4.19514h110.79222v4.19514z" fill="#686868" stroke="none" stroke-width="0.5" stroke-linecap="butt"></path><path d="M211.20776,169.57705v-28.76491h10.16691v28.76491z" fill="#a1a1a1" stroke="none" stroke-width="NaN" stroke-linecap="butt"></path><path d="M252.61931,192.88655v-52.0744h11.40677v52.0744z" fill="#a1a1a1" stroke="none" stroke-width="0" stroke-linecap="butt"></path><g><path d="M202.61898,141.48404v-0.90909h8v0.90909z" fill="#f5c900" stroke="none" stroke-width="0" stroke-linecap="butt"></path><path d="M206.43716,142.89313l-1.86363,-1.09091" data-paper-data="{&quot;index&quot;:null}" fill="none" stroke="#000000" stroke-width="0.15" stroke-linecap="round"></path><path d="M208.98262,141.89313l-1.86364,1.09091" fill="none" stroke="#000000" stroke-width="0.15" stroke-linecap="round"></path><path d="M203.97389,148.21919l0.10688,-0.52251l2.67789,0.54775l-0.10688,0.52251z" fill="#000000" stroke="none" stroke-width="0" stroke-linecap="butt"></path><path d="M206.73294,151.29847l-0.2,-3.06667h0.6v2.8z" fill="#000000" stroke="none" stroke-width="0" stroke-linecap="butt"></path><path d="M206.57709,148.75499l-0.06249,-0.46247l2.84085,-0.38389l0.06249,0.46246z" fill="#000000" stroke="none" stroke-width="0" stroke-linecap="butt"></path><path d="M206.3996,148.96514v-7.6h0.8v7.6z" fill="#f5c900" stroke="none" stroke-width="0" stroke-linecap="butt"></path><path d="M206.3996,144.96514v-0.4h0.8v0.4z" fill="#000000" stroke="none" stroke-width="0" stroke-linecap="butt"></path><path d="M206.32592,141.49481v-0.94737h0.78948v0.94737c0,0 -0.15352,0.18182 -0.26914,0.18182c-0.14206,0 -0.52034,-0.18182 -0.52034,-0.18182z" fill="#040400" stroke="none" stroke-width="0" stroke-linecap="butt"></path><path d="M202.37855,141.60725v-2.05263h3v2.05263z" fill="#f5e49a" stroke="#000000" stroke-width="0.5" stroke-linecap="butt"></path><path d="M202.98261,141.25677l-0.04545,-1.5" fill="none" stroke="#000000" stroke-width="0.25" stroke-linecap="round"></path><path d="M203.89171,141.34768l-0.04545,-1.59091" fill="none" stroke="#000000" stroke-width="0.25" stroke-linecap="round"></path><path d="M204.8008,141.21132l-0.04545,-1.36364" fill="none" stroke="#000000" stroke-width="0.25" stroke-linecap="round"></path><path d="M204.98262,140.71132c0,0 -0.74157,0.24303 -1.13982,0.228c-0.40468,-0.01527 -1.26927,-0.31891 -1.26927,-0.31891" fill="none" stroke="#000000" stroke-width="0.25" stroke-linecap="round"></path><path d="M208.19913,141.6527v-2.05263h3v2.05263z" data-paper-data="{&quot;index&quot;:null}" fill="#f5e49a" stroke="#000000" stroke-width="0.5" stroke-linecap="butt"></path><path d="M210.59506,141.30222l0.04546,-1.5" data-paper-data="{&quot;index&quot;:null}" fill="none" stroke="#000000" stroke-width="0.25" stroke-linecap="round"></path><path d="M209.73143,139.80222l-0.04546,1.59091" data-paper-data="{&quot;index&quot;:null}" fill="none" stroke="#000000" stroke-width="0.25" stroke-linecap="round"></path><path d="M208.77688,141.25677l0.04546,-1.36364" data-paper-data="{&quot;index&quot;:null}" fill="none" stroke="#000000" stroke-width="0.25" stroke-linecap="round"></path><path d="M211.00415,140.66586c0,0 -0.86459,0.30364 -1.26927,0.31891c-0.39825,0.01503 -1.13982,-0.228 -1.13982,-0.228" data-paper-data="{&quot;index&quot;:null}" fill="none" stroke="#000000" stroke-width="0.25" stroke-linecap="round"></path><path d="M214.516,149.57896l-6.03522,-8.08719c0,0 -0.42015,-1.42051 0.00904,-1.7408c0.46631,-0.34799 2.68669,-0.27094 2.68669,-0.27094l6.03522,8.08719z" fill="url(#color-3)" stroke="none" stroke-width="0" stroke-linecap="butt"></path><path d="M208.74327,149.66987l-6.03521,-8.08719c0,0 -0.42014,-1.42051 0.00904,-1.7408c0.46631,-0.34799 2.68669,-0.27093 2.68669,-0.27093l6.03521,8.08719z" fill="url(#color-4)" stroke="none" stroke-width="0" stroke-linecap="butt"></path></g><g data-paper-data="{&quot;index&quot;:null}"><path d="M186.05871,149.72419l0.18397,-5.49692l5.49693,0.18397l-0.18399,5.49694z" fill="#b17e37" stroke="#784000" stroke-width="0.5" stroke-linecap="butt"></path><path d="M191.49957,145.60389l-5.09381,-0.27054" fill="none" stroke="#845a2a" stroke-width="0.15" stroke-linecap="round"></path><path d="M186.43545,147.43552l5.00055,0.06731" fill="none" stroke="#845a2a" stroke-width="0.15" stroke-linecap="round"></path><path d="M186.38529,148.93468l4.90394,-0.03598" fill="none" stroke="#845a2a" stroke-width="0.15" stroke-linecap="round"></path></g><g data-paper-data="{&quot;index&quot;:null}"><path d="M188.81317,144.53051l-0.57809,-5.46953l5.46954,-0.57809l0.57807,5.46955z" fill="#b17e37" stroke="#784000" stroke-width="0.5" stroke-linecap="butt"></path><path d="M193.63186,139.69728l-5.08228,0.43659" fill="none" stroke="#845a2a" stroke-width="0.15" stroke-linecap="round"></path><path d="M188.86975,142.21173l4.9618,-0.62498" fill="none" stroke="#845a2a" stroke-width="0.15" stroke-linecap="round"></path><path d="M189.02742,143.70341l4.85184,-0.7139" fill="none" stroke="#845a2a" stroke-width="0.15" stroke-linecap="round"></path></g><g data-paper-data="{&quot;index&quot;:null}"><path d="M263.50723,177.64522v-4.82399h5.03373v4.82399z" fill="#b17e37" stroke="#916842" stroke-width="0.5" stroke-linecap="butt"></path><path d="M264.67245,176.68975v-2.93634h2.93634v2.93634z" fill="#825d28" stroke="#916842" stroke-width="0" stroke-linecap="butt"></path><path d="M268.71575,172.73967l-1.02539,0.93217" fill="none" stroke="#d4a158" stroke-width="0.15" stroke-linecap="round"></path><path d="M263.5888,172.9727l1.16521,0.88557" fill="none" stroke="#d4a158" stroke-width="0.15" stroke-linecap="round"></path><path d="M263.68202,177.40053l0.97878,-0.74574" fill="none" stroke="#d4a158" stroke-width="0.15" stroke-linecap="round"></path><path d="M267.55053,176.74801l0.88557,0.51269" fill="none" stroke="#d4a158" stroke-width="0.15" stroke-linecap="round"></path><path d="M263.38738,173.44545v-0.3995h5.44322v0.3995z" fill="#caa784" stroke="none" stroke-width="NaN" stroke-linecap="butt"></path><path d="M266.07847,175.84247v-0.69913h0.42724v0.69913z" fill="#ff6666" stroke="none" stroke-width="NaN" stroke-linecap="butt"></path><path d="M265.76775,175.22102l0.62144,-0.77681l0.46608,0.77681z" fill="#ff6666" stroke="none" stroke-width="0" stroke-linecap="butt"></path></g><g data-paper-data="{&quot;index&quot;:null}"><path d="M287.55478,161.14601v-4.82399h5.03373v4.82399z" fill="#b17e37" stroke="#916842" stroke-width="0.5" stroke-linecap="butt"></path><path d="M288.72,160.19054v-2.93634h2.93634v2.93634z" fill="#825d28" stroke="#916842" stroke-width="0" stroke-linecap="butt"></path><path d="M292.7633,156.24046l-1.02539,0.93217" fill="none" stroke="#d4a158" stroke-width="0.15" stroke-linecap="round"></path><path d="M288.80156,157.35906l-1.16521,-0.88557" fill="none" stroke="#d4a158" stroke-width="0.15" stroke-linecap="round"></path><path d="M287.72957,160.90132l0.97878,-0.74574" fill="none" stroke="#d4a158" stroke-width="0.15" stroke-linecap="round"></path><path d="M292.48365,160.76149l-0.88557,-0.51269" fill="none" stroke="#d4a158" stroke-width="0.15" stroke-linecap="round"></path><path d="M287.43493,156.94624v-0.3995h5.44322v0.3995z" fill="#caa784" stroke="none" stroke-width="NaN" stroke-linecap="butt"></path><path d="M290.12602,159.34326v-0.69913h0.42724v0.69913z" fill="#ff6666" stroke="none" stroke-width="NaN" stroke-linecap="butt"></path><path d="M289.8153,158.72181l0.62144,-0.77681l0.46608,0.77681z" fill="#ff6666" stroke="none" stroke-width="0" stroke-linecap="butt"></path></g></g></g></svg>