<svg version="1.1" xmlns="http://www.w3.org/2000/svg" xmlns:xlink="http://www.w3.org/1999/xlink" width="9.82706" height="22.70912" viewBox="0,0,9.82706,22.70912"><defs><linearGradient x1="237.31818" y1="164.54545" x2="237.31818" y2="171" gradientUnits="userSpaceOnUse" id="color-1"><stop offset="0" stop-color="#b1b1b1" stop-opacity="0"></stop><stop offset="1" stop-color="#b1b1b1"></stop></linearGradient><linearGradient x1="235.19989" y1="176.32952" x2="238.56884" y2="176.32952" gradientUnits="userSpaceOnUse" id="color-2"><stop offset="0" stop-color="#fff3d5"></stop><stop offset="1" stop-color="#ffd3c2"></stop></linearGradient></defs><g transform="translate(-232.3122,-164.54545)"><g data-paper-data="{&quot;isPaintingLayer&quot;:true}" fill-rule="nonzero" stroke="none" stroke-linecap="butt" stroke-linejoin="miter" stroke-miterlimit="10" stroke-dasharray="" stroke-dashoffset="0" style="mix-blend-mode: normal"><path d="M239.13636,167.77273c0,1.78237 -0.81403,3.22727 -1.81818,3.22727c-1.00415,0 -1.81818,-1.4449 -1.81818,-3.22727c0,-1.78237 0.81403,-3.22727 1.81818,-3.22727c1.00415,0 1.81818,1.4449 1.81818,3.22727z" fill="url(#color-1)" stroke-width="0"></path><text transform="translate(234.09204,185.30024) scale(0.05639,0.05639)" font-size="40" xml:space="preserve" fill="#66d6ff" fill-rule="nonzero" stroke="none" stroke-width="1" stroke-linecap="butt" stroke-linejoin="miter" stroke-miterlimit="10" stroke-dasharray="" stroke-dashoffset="0" font-family="Sans Serif" font-weight="normal" text-anchor="start" style="mix-blend-mode: normal"><tspan x="0" dy="0">xAmt8</tspan></text><path d="M235.29614,187.25457l-1.34758,-2.69517l6.35289,-0.09625l-0.48128,2.79142z" fill="#a76a00" stroke-width="0.25"></path><path d="M233.94856,184.75192v-0.57754h6.44915v0.57754z" fill="#643f00" stroke-width="0.25"></path><path d="M233.75604,184.3669l-1.44384,-2.02137l9.33683,-0.09626l-1.25133,2.11764z" fill="#a76a00" stroke-width="0.25"></path><path d="M239.63228,186.00094c-0.1902,-0.3804 0.19021,-0.57061 0.19021,-0.57061l0.38502,-0.19251c0.52466,-0.26233 1.27618,-0.44762 1.03805,-1.21772c-0.08157,-0.26379 -0.34863,-0.42845 -0.5143,-0.64935c0,0 -0.25518,-0.34024 0.08506,-0.59542c0.34025,-0.25518 0.59542,0.08506 0.59542,0.08506c0.08289,0.11052 0.61847,0.81513 0.64077,0.89074c0.37405,1.26743 -0.52617,1.77829 -1.4646,2.24751l-0.38502,0.19251c0,0 -0.38041,0.1902 -0.57061,-0.1902z" fill="#a76a00" stroke-width="0.25"></path><path d="M235.19989,182.24927c0,0 0.82139,-7.57139 0.93869,-9.63243c0.05463,-0.96002 -0.2649,-2.20705 -0.2649,-2.20705c0,0 1.24629,0.28877 1.73261,0.28877c0.39121,0 0.96256,-0.28877 0.96256,-0.28877c0,0 -0.38502,5.08873 -0.38502,7.2192c0,1.73363 0.38502,4.62028 0.38502,4.62028z" fill="url(#color-2)" stroke-width="0.25"></path></g></g></svg>