<svg version="1.1" xmlns="http://www.w3.org/2000/svg" xmlns:xlink="http://www.w3.org/1999/xlink" width="29.39493" height="57.1838" viewBox="0,0,29.39493,57.1838"><g transform="translate(-225.30253,-151.5331)"><g data-paper-data="{&quot;isPaintingLayer&quot;:true}" fill-rule="nonzero" stroke-width="0.5" stroke-linejoin="miter" stroke-miterlimit="10" stroke-dasharray="" stroke-dashoffset="0" style="mix-blend-mode: normal"><g><path d="M226.66885,207.82006c0,0 -1.11632,-19.66776 -1.11632,-28.82194c0,-8.17789 1.11632,-23.50527 1.11632,-23.50527h2.08704c0,0 1.359,14.47273 1.359,22.38597c0,9.30324 -1.359,29.94123 -1.359,29.94123z" fill-opacity="0.68933" fill="#ffffff" stroke="#000000" stroke-linecap="butt"></path><path d="M226.99328,207.95997l0.08004,-47.01054" fill="none" stroke="#c1c1c1" stroke-linecap="round"></path><path d="M228.27394,160.24987l-0.08004,46.87062" fill="none" stroke="#c1c1c1" stroke-linecap="round"></path></g><g><path d="M251.00143,208.32879c0,0 -1.11632,-19.41439 -1.11632,-28.45064c0,-8.07254 1.11632,-23.20246 1.11632,-23.20246h2.08704c0,0 1.359,14.28629 1.359,22.09758c0,9.18339 -1.359,29.55552 -1.359,29.55552z" fill-opacity="0.68933" fill="#ffffff" stroke="#000000" stroke-linecap="butt"></path><path d="M251.32585,208.4669l0.08004,-46.40493" fill="none" stroke="#c1c1c1" stroke-linecap="round"></path><path d="M252.52647,207.63824l0.08004,-46.26682" fill="none" stroke="#c1c1c1" stroke-linecap="round"></path></g><path d="M226.73537,157.52057v-1.49687c0,0 8.64401,-4.4906 12.90767,-4.4906c4.46843,0 13.31744,4.4906 13.31744,4.4906v1.49687z" fill-opacity="0.71062" fill="#513721" stroke="none" stroke-linecap="butt"></path></g></g></svg>