<svg version="1.1" xmlns="http://www.w3.org/2000/svg" xmlns:xlink="http://www.w3.org/1999/xlink" width="29.08885" height="22.99417" viewBox="0,0,29.08885,22.99417"><defs><linearGradient x1="242.65839" y1="174.58069" x2="242.65839" y2="177.66493" gradientUnits="userSpaceOnUse" id="color-1"><stop offset="0" stop-color="#ad5400"></stop><stop offset="1" stop-color="#d07b00"></stop></linearGradient><linearGradient x1="243.14473" y1="218.44718" x2="243.14473" y2="230.00019" gradientUnits="userSpaceOnUse" id="color-2"><stop offset="0" stop-color="#8e6c39"></stop><stop offset="1" stop-color="#cc9752"></stop></linearGradient><linearGradient x1="257.28168" y1="223.6043" x2="264.60351" y2="237.21053" gradientUnits="userSpaceOnUse" id="color-3"><stop offset="0" stop-color="#000000"></stop><stop offset="1" stop-color="#777777"></stop></linearGradient><linearGradient x1="258.83671" y1="222.80008" x2="266.15854" y2="236.40632" gradientUnits="userSpaceOnUse" id="color-4"><stop offset="0" stop-color="#000000"></stop><stop offset="1" stop-color="#777777"></stop></linearGradient><linearGradient x1="240.18572" y1="169.15992" x2="240.18572" y2="187.78644" gradientUnits="userSpaceOnUse" id="color-5"><stop offset="0" stop-color="#57dada" stop-opacity="0"></stop><stop offset="1" stop-color="#57dada"></stop></linearGradient><radialGradient cx="240" cy="188.45602" r="14.54009" gradientUnits="userSpaceOnUse" id="color-6"><stop offset="0" stop-color="#00b3ff"></stop><stop offset="1" stop-color="#00fff1"></stop></radialGradient></defs><g transform="translate(-225.45124,-168.50292)"><g data-paper-data="{&quot;isPaintingLayer&quot;:true}" fill-rule="nonzero" stroke-linejoin="miter" stroke-miterlimit="10" stroke-dasharray="" stroke-dashoffset="0" style="mix-blend-mode: normal"><g><path d="M250.44713,184.42978c0,0.02601 -0.00013,0.05199 -0.00038,0.07794c-1.93703,0.17509 -3.73739,1.16072 -5.67422,1.45505c-2.24959,0.34186 -4.47089,0.11956 -6.79019,0.24116c-0.66398,0.03481 -1.32752,0.09357 -1.99069,0.16491c-0.15663,-0.61912 -0.24003,-1.26899 -0.24003,-1.93907c0,-4.20835 3.2897,-7.6199 7.34776,-7.6199c4.05805,0 7.34776,3.41154 7.34776,7.6199z" fill="#fff3c0" stroke="#000000" stroke-width="0" stroke-linecap="butt"></path><path d="M239.49353,182.59285c0,-0.1503 0.12184,-0.27214 0.27214,-0.27214c0.1503,0 0.27214,0.12184 0.27214,0.27214c0,0.1503 -0.12184,0.27214 -0.27214,0.27214c-0.1503,0 -0.27214,-0.12184 -0.27214,-0.27214z" fill="#000000" stroke="none" stroke-width="0.5" stroke-linecap="butt"></path><path d="M245.61666,182.86498c0,-0.1503 0.12184,-0.27214 0.27214,-0.27214c0.1503,0 0.27214,0.12184 0.27214,0.27214c0,0.1503 -0.12184,0.27214 -0.27214,0.27214c-0.1503,0 -0.27214,-0.12184 -0.27214,-0.27214z" fill="#000000" stroke="none" stroke-width="0.5" stroke-linecap="butt"></path><path d="" fill="#267520" stroke="none" stroke-width="0" stroke-linecap="butt"></path><path d="M237.98667,179.11634l2.26783,-1.99569c0,0 2.04151,-0.45357 2.99353,-0.45357c0.98225,0 2.8121,0.45357 2.8121,0.45357l2.53996,2.35854z" fill="#000000" stroke="none" stroke-width="0" stroke-linecap="butt"></path><path d="M248.96294,176.12281c0,0.85169 -2.82265,1.54212 -6.30456,1.54212c-3.48191,0 -6.30456,-0.69043 -6.30456,-1.54212c0,-0.85169 2.82265,-1.54212 6.30456,-1.54212c3.48191,0 6.30456,0.69043 6.30456,1.54212z" fill="url(#color-1)" stroke="none" stroke-width="0" stroke-linecap="butt"></path><path d="M237.35168,175.66924v-4.98922c0,0 1.70288,-0.65671 3.33099,-0.44222c0.74654,0.09835 1.38665,-1.7349 1.93037,-1.7349c0.65966,0 1.9027,2.08019 2.75412,1.95719c1.47839,-0.21357 2.59795,0.21992 2.59795,0.21992v4.98922z" fill="#ad5400" stroke="none" stroke-width="0" stroke-linecap="butt"></path><path d="" fill="#bd8a33" stroke="none" stroke-width="0" stroke-linecap="butt"></path><path d="" fill="#ffffff" stroke="none" stroke-width="0" stroke-linecap="butt"></path><path d="" fill="#ffd300" stroke="none" stroke-width="0" stroke-linecap="butt"></path><path d="M241.74769,174.45408l-1.09756,-0.65854l1.09756,-0.57073l0.87805,-1.53659l1.14146,1.53659l1.14147,0.52683l-1.14147,0.70244l0.60072,1.30683c0,0 -0.90451,-0.83197 -1.50412,-0.89682c-0.52674,-0.05696 -1.16002,0.86315 -1.16002,0.86315z" fill="#ffd300" stroke="none" stroke-width="0" stroke-linecap="butt"></path><path d="" fill="#2f9428" stroke="none" stroke-width="0" stroke-linecap="butt"></path><path d="" fill="url(#color-2)" stroke="none" stroke-width="NaN" stroke-linecap="butt"></path><path d="M230.46636,182.42533l1.27294,4.46293c-0.4732,0.05231 -0.94628,0.09861 -1.41928,0.13478c-1.14679,0.08768 -2.29415,0.17653 -3.43918,0.28659l-1.11537,-3.91052z" fill="#fff3c0" stroke="#000000" stroke-width="0.5" stroke-linecap="butt"></path><path d="" fill="#fff3c0" stroke="#000000" stroke-width="0.5" stroke-linecap="butt"></path><path d="" data-paper-data="{&quot;index&quot;:null}" fill="#267520" stroke="#000000" stroke-width="0.5" stroke-linecap="butt"></path><g stroke="#000000" stroke-width="0.5" stroke-linecap="butt"><path d="" fill="#fff3c0"></path><path d="" fill="#267520"></path></g><g data-paper-data="{&quot;index&quot;:null}" stroke-linecap="butt"><path d="" fill="#eaad81" stroke="none" stroke-width="0"></path><path d="" fill="#eaad81" stroke="none" stroke-width="0"></path><path d="" fill="#000000" stroke="#000000" stroke-width="0.5"></path><path d="" fill="#000000" stroke="none" stroke-width="0"></path><path d="" fill="#d4d4d4" stroke="none" stroke-width="NaN"></path><path d="" fill="url(#color-3)" stroke="#000000" stroke-width="0.5"></path><path d="" fill="url(#color-4)" stroke="#000000" stroke-width="0.5"></path><path d="" fill="#a78100" stroke="#000000" stroke-width="0.5"></path><path d="" fill="#000000" stroke="#000000" stroke-width="0.5"></path><path d="" fill="#000000" stroke="#000000" stroke-width="0.5"></path></g><path d="M238.29546,181.68665l2.24515,-0.47624" fill="none" stroke="#000000" stroke-width="0.5" stroke-linecap="round"></path><path d="M244.96287,181.27845l2.38122,0.27214" fill="none" stroke="#000000" stroke-width="0.5" stroke-linecap="round"></path><path d="M239.99633,185.90481c0.33997,0 0.65462,0.09663 0.91125,0.26076c-0.60499,-0.00175 -1.21314,-0.00663 -1.82688,0.00281c0.25743,-0.16584 0.57373,-0.26357 0.91563,-0.26357z" fill="#ff6666" stroke="#000000" stroke-width="0.5" stroke-linecap="butt"></path></g><path d="M227.8314,187.78644v-18.62652h24.70865v18.62652z" fill="url(#color-5)" stroke="none" stroke-width="0" stroke-linecap="butt"></path><path d="M254.54009,188.45602c0,1.67953 -6.50982,3.04106 -14.54009,3.04106c-8.03027,0 -14.54009,-1.36153 -14.54009,-3.04106c0,-1.67953 6.50982,-3.04106 14.54009,-3.04106c8.03027,0 14.54009,1.36153 14.54009,3.04106z" fill="url(#color-6)" stroke="none" stroke-width="0" stroke-linecap="butt"></path></g></g></svg>