<svg version="1.1" xmlns="http://www.w3.org/2000/svg" xmlns:xlink="http://www.w3.org/1999/xlink" width="26.90541" height="27.5" viewBox="0,0,26.90541,27.5"><defs><radialGradient cx="240" cy="180" r="13.75" gradientUnits="userSpaceOnUse" id="color-1"><stop offset="0" stop-color="#66edff"></stop><stop offset="1" stop-color="#66edff" stop-opacity="0"></stop></radialGradient><linearGradient x1="238.07555" y1="182.21529" x2="240.72166" y2="182.21529" gradientUnits="userSpaceOnUse" id="color-2"><stop offset="0" stop-color="#baa2a2"></stop><stop offset="1" stop-color="#646464"></stop></linearGradient><linearGradient x1="240.17976" y1="176.6351" x2="241.05485" y2="176.95568" gradientUnits="userSpaceOnUse" id="color-3"><stop offset="0" stop-color="#baa2a2"></stop><stop offset="1" stop-color="#646464"></stop></linearGradient><radialGradient cx="240" cy="180" r="8.36149" gradientUnits="userSpaceOnUse" id="color-4"><stop offset="0" stop-color="#00ffeb" stop-opacity="0.54834"></stop><stop offset="1" stop-color="#00ffeb" stop-opacity="0"></stop></radialGradient></defs><g transform="translate(-226.5473,-166.25)"><g data-paper-data="{&quot;isPaintingLayer&quot;:true}" fill-rule="nonzero" stroke-linejoin="miter" stroke-miterlimit="10" stroke-dasharray="" stroke-dashoffset="0" style="mix-blend-mode: normal"><path d="M253.4527,180c0,7.59392 -6.02298,13.75 -13.4527,13.75c-7.42972,0 -13.4527,-6.15608 -13.4527,-13.75c0,-7.59392 6.02298,-13.75 13.4527,-13.75c7.42972,0 13.4527,6.15608 13.4527,13.75z" fill="url(#color-1)" stroke="none" stroke-width="NaN" stroke-linecap="butt"></path><g><g stroke="none" stroke-width="0" stroke-linecap="butt"><path d="M238.07555,185.07785l0.91315,-6.34722c0,0 0.47943,-0.11595 0.733,-0.0166c0.31192,0.1222 0.99996,0.69553 0.99996,0.69553l-0.91315,6.34722z" fill="url(#color-2)"></path><path d="M239.30435,179.02474l1.75082,-4.77927l2.73897,0.89408c0,0 -2.07188,-0.6079 -2.53326,-0.07109c-0.66642,0.77539 -1.08146,4.27686 -1.08146,4.27686z" fill="url(#color-3)"></path></g><g><path d="M241.84395,185.04621l-4.18702,-8.01515l0.74214,-0.38769l4.18702,8.01515z" fill="#c1c1c1" stroke="none" stroke-width="0" stroke-linecap="butt"></path><path d="M237.55497,177.17704l-0.26555,-0.61496l3.3054,-1.42733l0.26555,0.61496z" fill="#c1c1c1" stroke="none" stroke-width="0" stroke-linecap="butt"></path><path d="M241.19747,175.27565c0.10037,0.33198 0.05614,0.63908 -0.09879,0.68592c-0.15492,0.04684 -0.36188,-0.18432 -0.46225,-0.5163c-0.10037,-0.33198 -0.05614,-0.63908 0.09878,-0.68592c0.15492,-0.04684 0.36188,0.18432 0.46225,0.5163z" fill="#c1c1c1" stroke="none" stroke-width="0" stroke-linecap="butt"></path><path d="M241.59277,184.87875l-2.84733,-6.59173l-0.59754,-1.81111l2.7636,5.16832z" fill="#9d9d9d" stroke="none" stroke-width="0" stroke-linecap="butt"></path><path d="M239.95406,181.34718l-0.41865,-2.17699" fill="none" stroke="#ffffff" stroke-width="2.5" stroke-linecap="round"></path></g></g><path d="M233.68243,188.36149v-16.72297h12.63514v16.72297z" fill="url(#color-4)" stroke="none" stroke-width="0" stroke-linecap="butt"></path></g></g></svg>