<svg version="1.1" xmlns="http://www.w3.org/2000/svg" xmlns:xlink="http://www.w3.org/1999/xlink" width="60.16666" height="78.41194" viewBox="0,0,60.16666,78.41194"><defs><linearGradient x1="256.01807" y1="178.34082" x2="262.26987" y2="178.34082" gradientUnits="userSpaceOnUse" id="color-1"><stop offset="0" stop-color="#8d3800"></stop><stop offset="1" stop-color="#d27a00"></stop></linearGradient><linearGradient x1="216.04407" y1="178.41659" x2="223.80049" y2="178.41659" gradientUnits="userSpaceOnUse" id="color-2"><stop offset="0" stop-color="#d27a00"></stop><stop offset="1" stop-color="#8d3800"></stop></linearGradient><linearGradient x1="244.93135" y1="162.78191" x2="233.47274" y2="162.78191" gradientUnits="userSpaceOnUse" id="color-3"><stop offset="0" stop-color="#ffe108"></stop><stop offset="1" stop-color="#ffc908"></stop></linearGradient><linearGradient x1="244.57758" y1="162.82558" x2="238.85608" y2="162.82558" gradientUnits="userSpaceOnUse" id="color-4"><stop offset="0" stop-color="#ffe108"></stop><stop offset="1" stop-color="#ffe108" stop-opacity="0"></stop></linearGradient><radialGradient cx="239.15192" cy="158.53353" r="3.01848" gradientUnits="userSpaceOnUse" id="color-5"><stop offset="0" stop-color="#fff399"></stop><stop offset="1" stop-color="#fff399" stop-opacity="0"></stop></radialGradient><linearGradient x1="236.53941" y1="196.24572" x2="231.56506" y2="194.77855" gradientUnits="userSpaceOnUse" id="color-6"><stop offset="0" stop-color="#08ff7d"></stop><stop offset="1" stop-color="#06ce5c"></stop></linearGradient><linearGradient x1="247.10329" y1="194.1157" x2="242.82834" y2="196.89134" gradientUnits="userSpaceOnUse" id="color-7"><stop offset="0" stop-color="#08ff7d"></stop><stop offset="1" stop-color="#06ce5c"></stop></linearGradient></defs><g transform="translate(-209.91667,-140.66903)"><g data-paper-data="{&quot;isPaintingLayer&quot;:true}" fill-rule="nonzero" stroke-linejoin="miter" stroke-miterlimit="10" stroke-dasharray="" stroke-dashoffset="0" style="mix-blend-mode: normal"><path d="M240.18041,151.92402l-0.73366,54.29132" fill="none" stroke="#652800" stroke-width="0.5" stroke-linecap="round"></path><path d="M214.35535,149.57629v-4.402c0,0 15.30846,-4.25526 23.3306,-4.25526c8.65706,0 26.8522,4.25526 26.8522,4.25526v4.402z" fill="#652800" stroke="#311300" stroke-width="0.5" stroke-linecap="butt"></path><path d="M209.91667,219.08097l4.841,-13.27816h50.20804l5.11762,13.27816z" fill-opacity="0.45161" fill="#000000" stroke="none" stroke-width="0.5" stroke-linecap="butt"></path><g stroke-width="0.5" stroke-linecap="butt"><path d="M214.20441,206.49212v-57.26207h50.20804v57.26207z" fill="#000000" stroke="none"></path><path d="M215.81427,206.37049v-56.05212c0,0 13.57699,0 20.98286,0c8.33196,0 26.55873,0 26.55873,0v56.05212z" fill="none" stroke="#652800"></path></g><g stroke-width="0.5" stroke-linecap="butt"><path d="M256.01807,205.86535v-55.04904h6.2518v55.04904z" fill="url(#color-1)" stroke="none"></path><path d="M257.53934,199.94671v-9.97787h3.22923v9.97787z" fill="none" stroke="#7b3100"></path><path d="M257.62214,182.33871v-9.97787h3.22923v9.97787z" fill="none" stroke="#7b3100"></path><path d="M257.66965,164.31216v-9.97787h3.22923v9.97787z" fill="none" stroke="#7b3100"></path><g><path d="M257.35895,180.41396c-0.31802,-0.27199 -0.5074,-1.49758 -0.42298,-2.73744c0.08442,-1.23986 0.41066,-2.02446 0.72867,-1.75246c0.31802,0.27199 0.5074,1.49758 0.42298,2.73744c-0.08442,1.23986 -0.41066,2.02446 -0.72867,1.75246z" fill="#fff4ce" stroke="#e6ddbb"></path><path d="M257.5645,179.17793c-0.19757,-0.16898 -0.31522,-0.93038 -0.26278,-1.70065c0.05244,-0.77026 0.25512,-1.2577 0.45269,-1.08872c0.19757,0.16898 0.31522,0.93038 0.26278,1.70065c-0.05244,0.77026 -0.25512,1.2577 -0.45269,1.08872z" fill="#e6ddbb" stroke="#e6ddbb"></path><path d="M256.41194,178.43969l0.46602,-0.62786l0.17715,1.6517l-0.46602,0.62786z" fill="#e6ddbb" stroke="none"></path><path d="M256.79661,180.43041c-0.16462,0.81152 -0.29247,-0.10238 -0.35031,-0.52573c-0.09025,-0.66062 -0.07349,-1.31778 0.00021,-1.92565l-0.01642,-0.01405l0.02339,-0.34355v0c0.01115,-0.1638 0.05766,-0.26454 0.10387,-0.22501c0.03341,0.02857 0.05751,0.12261 0.06411,0.2344l0.02465,0.37856l-0.00345,0.00282l0.00505,0.03003c0.00012,0.03329 0.00024,0.06658 0.00036,0.09988c0.01195,0.03513 0.02098,0.0811 0.02616,0.13256c0.01502,0.05667 0.0237,0.13279 0.02339,0.21294l0.00079,0.34204c0.00994,0.21814 0.12503,1.46847 0.0982,1.60077z" fill="#fff4ce" stroke="none"></path></g></g><g stroke-width="0.5" stroke-linecap="butt"><path d="M216.04407,205.94112v-55.04904h7.75642v55.04904z" fill="url(#color-2)" stroke="none"></path><path d="M217.59783,164.54309v-9.97787h3.84147v9.97787z" fill="none" stroke="#7b3100"></path><path d="M217.56957,182.50708v-9.97787h3.84147v9.97787z" fill="none" stroke="#7b3100"></path><path d="M217.49206,199.59069v-9.97787h3.84147v9.97787z" fill="none" stroke="#7b3100"></path><g data-paper-data="{&quot;index&quot;:null}"><path d="M221.65763,178.6615c-0.10042,-1.23986 0.12486,-2.46544 0.50317,-2.73743c0.37831,-0.27199 0.7664,0.51261 0.86682,1.75246c0.10042,1.23986 -0.12486,2.46544 -0.50317,2.73744c-0.37831,0.27199 -0.7664,-0.51261 -0.86682,-1.75246z" fill="#fff4ce" stroke="#e6ddbb"></path><path d="M221.74141,178.08921c-0.06239,-0.77027 0.07757,-1.53167 0.3126,-1.70065c0.23503,-0.16898 0.47613,0.31846 0.53852,1.08872c0.06239,0.77027 -0.07757,1.53167 -0.3126,1.70065c-0.23503,0.16898 -0.47613,-0.31846 -0.53852,-1.08872z" fill="#e6ddbb" stroke="#e6ddbb"></path><path d="M223.44026,180.09139l-0.55438,-0.62786l0.21074,-1.65169l0.55438,0.62786z" fill="#e6ddbb" stroke="none"></path><path d="M223.19341,180.43041c-0.03192,-0.1323 0.105,-1.38263 0.11682,-1.60077l0.00094,-0.34204c-0.00037,-0.08016 0.00996,-0.15627 0.02782,-0.21294c0.00617,-0.05147 0.01692,-0.09743 0.03113,-0.13256c0.00014,-0.03329 0.00029,-0.06658 0.00043,-0.09988l0.00601,-0.03003l-0.00409,-0.00282l0.02933,-0.37855c0.00784,-0.11179 0.03652,-0.20583 0.07625,-0.2344c0.05497,-0.03952 0.1103,0.06122 0.12356,0.22501v0l0.02783,0.34354l-0.01954,0.01405c0.08767,0.60786 0.10761,1.26502 0.00025,1.92565c-0.06881,0.42335 -0.2209,1.33725 -0.41672,0.52573z" fill="#fff4ce" stroke="none"></path></g></g><path d="M232.52081,187.7298l-0.07074,-21.28577h2.76685l-1.42932,22.86204z" data-paper-data="{&quot;index&quot;:null}" fill="#0067b5" stroke="none" stroke-width="0" stroke-linecap="butt"></path><path d="M233.51223,169.90256l-1.14258,-3.54501l11.90192,0.34586l0.85694,3.19916z" data-paper-data="{&quot;index&quot;:null}" fill="#0067b5" stroke="none" stroke-width="0" stroke-linecap="butt"></path><path d="M233.38275,189.59513v-19.6972h11.83605v19.6972z" data-paper-data="{&quot;index&quot;:null}" fill="#0090ff" stroke="none" stroke-width="0" stroke-linecap="butt"></path><path d="M256.42684,183.67259l-13.41691,-8.00193l2.47886,-4.15632c0,0 0.82904,-0.5896 1.37369,-0.26477c1.54199,0.91966 9.28427,5.09319 11.73594,6.81155c0.51146,0.35848 0.30729,1.4551 0.30729,1.4551z" data-paper-data="{&quot;index&quot;:null}" fill="#ffe108" stroke="none" stroke-width="0" stroke-linecap="butt"></path><path d="M233.09923,160.1544c0,0 0.04142,-2.33025 1.78654,-3.05886c1.37296,-0.57324 5.77333,-0.92249 8.27294,-0.18142c1.81088,0.53686 2.08391,1.99391 2.08391,2.67923c0,1.63136 -0.34199,6.2155 -0.34199,6.2155c0,0 0.2091,1.48454 -0.9247,2.2694c-1.14279,0.79108 -3.63234,0.88245 -4.59919,0.86682c-1.18168,-0.01909 -3.69427,-0.10307 -5.09739,-1.05245c-0.94648,-0.64042 -1.09768,-2.2732 -1.09768,-2.2732z" fill="#d8bf06" stroke="none" stroke-width="0" stroke-linecap="butt"></path><text transform="translate(244.92929,163.86858) rotate(-180) scale(0.09317,-0.09315)" font-size="40" xml:space="preserve" fill="#fbff66" fill-rule="nonzero" stroke="none" stroke-width="1" stroke-linecap="butt" stroke-linejoin="miter" stroke-miterlimit="10" stroke-dasharray="" stroke-dashoffset="0" font-family="Sans Serif" font-weight="normal" text-anchor="start" style="mix-blend-mode: normal"><tspan x="0" dy="0">xamt8</tspan></text><path d="M233.47274,160.34488c0,0 0.03907,-2.21375 1.68579,-2.90596c1.29554,-0.54459 5.44774,-0.87637 7.80641,-0.17235c1.70876,0.51003 1.9664,1.89426 1.9664,2.54532c0,1.54981 -0.32271,5.90479 -0.32271,5.90479c0,0 0.19733,1.41033 -0.87254,2.15595c-1.07834,0.75152 -3.4275,0.83835 -4.33985,0.82349c-1.11505,-0.01815 -3.48593,-0.0979 -4.80993,-0.99983c-0.8931,-0.60841 -1.03578,-2.15956 -1.03578,-2.15956z" fill="url(#color-3)" stroke="none" stroke-width="0" stroke-linecap="butt"></path><path d="M238.96857,156.91091c1.29981,-0.01317 2.6349,0.09857 3.6426,0.39934c1.70876,0.51003 1.9664,1.89426 1.9664,2.54532c0,1.54981 -0.32271,5.90479 -0.32271,5.90479c0,0 0.19733,1.41034 -0.87255,2.15597c-1.07834,0.75152 -3.4275,0.83834 -4.33984,0.82349c-0.18911,-0.00308 -0.26841,-11.82692 -0.07389,-11.82891z" fill="url(#color-4)" stroke="none" stroke-width="0" stroke-linecap="butt"></path><path d="M235.71966,156.7248c-0.45496,-0.64513 2.09653,-0.15696 4.20643,0.19162c2.1013,0.34716 4.1656,0.72968 3.79488,0.96871c-0.71025,0.45794 -2.48863,1.16701 -2.48863,1.16701c0,0 -0.90134,1.25191 -1.86588,1.30408c-0.51672,0.02794 -0.98303,-0.83687 -1.49194,-1.19649c-0.41161,-0.29087 -1.51073,-2.0694 -1.6944,-2.32983z" fill="url(#color-5)" stroke="none" stroke-width="0" stroke-linecap="butt"></path><path d="M233.32076,169.95606l-0.99039,-2.82972" data-paper-data="{&quot;index&quot;:null}" fill="none" stroke="#003e6d" stroke-width="0.15" stroke-linecap="round"></path><g stroke="#000000"><path d="M229.3718,202.18675l4.38651,-14.81639l4.97434,1.46717l-4.3865,14.81639z" data-paper-data="{&quot;index&quot;:null}" fill="url(#color-6)" stroke-width="0" stroke-linecap="butt"></path><path d="M238.79666,189.12953l-4.54846,14.47905l-4.8688,-1.53744l4.65893,-14.85212" data-paper-data="{&quot;index&quot;:null}" fill="none" stroke-width="0.15" stroke-linecap="round"></path></g><g stroke="#000000"><path d="M247.03568,203.37134l-8.41467,-12.95998l4.27494,-2.77564l8.41467,12.95998z" data-paper-data="{&quot;index&quot;:null}" fill="url(#color-7)" stroke-width="0" stroke-linecap="butt"></path><path d="M243.15753,187.77823l8.05648,12.8614l-4.26094,2.65058l-8.26834,-13.18773" data-paper-data="{&quot;index&quot;:null}" fill="none" stroke-width="0.15" stroke-linecap="round"></path></g><path d="M217.79488,179.99333c0,0 -0.31348,-1.07051 0.15932,-1.47863c2.26633,-1.95633 9.5494,-6.88769 10.99102,-7.95784c0.5092,-0.37799 1.39336,0.12521 1.39336,0.12521l2.88449,3.88581l-12.54368,9.3113z" data-paper-data="{&quot;index&quot;:null}" fill="#ffe108" stroke="none" stroke-width="0" stroke-linecap="butt"></path></g></g></svg>