<svg version="1.1" xmlns="http://www.w3.org/2000/svg" xmlns:xlink="http://www.w3.org/1999/xlink" width="26.10758" height="27.61701" viewBox="0,0,26.10758,27.61701"><g transform="translate(-215.19621,-165.81651)"><g data-paper-data="{&quot;isPaintingLayer&quot;:true}" fill-rule="nonzero" stroke-linecap="butt" stroke-linejoin="miter" stroke-miterlimit="10" stroke-dasharray="" stroke-dashoffset="0" style="mix-blend-mode: normal"><text transform="translate(217.9375,179.13189) scale(0.14729,0.14729)" font-size="40" xml:space="preserve" fill="#000000" fill-rule="nonzero" stroke="none" stroke-width="1" stroke-linecap="butt" stroke-linejoin="miter" stroke-miterlimit="10" stroke-dasharray="" stroke-dashoffset="0" font-family="Sans Serif" font-weight="normal" text-anchor="start" style="mix-blend-mode: normal"><tspan x="0" dy="0">xAmt8</tspan></text><path d="M237.17809,176.4901c0,5.20449 -4.64099,9.42359 -10.36594,9.42359c-5.72495,0 -10.36594,-4.21908 -10.36594,-9.42359c0,-5.20449 4.64099,-9.42359 10.36594,-9.42359c5.72495,0 10.36594,4.21907 10.36594,9.42359z" fill="#fff4ce" stroke="#e6ddbb" stroke-width="2.5"></path><path d="M231.01777,174.61273c0,3.23333 -2.88323,5.85445 -6.43988,5.85445c-3.55665,0 -6.43988,-2.62112 -6.43988,-5.85445c0,-3.23333 2.88323,-5.85445 6.43988,-5.85445c3.55665,0 6.43988,2.62112 6.43988,5.85445z" fill="#e6ddbb" stroke="#e6ddbb" stroke-width="0"></path><path d="M232.0977,193.21409l-4.47875,-6.54586l6.54586,-4.47875l4.47875,6.54586z" fill="#e6ddbb" stroke="none" stroke-width="0"></path><path d="M239.3484,185.16924c4.15527,1.69131 0.64475,4.63082 -0.98665,5.97104c-2.54572,2.09135 -5.47574,2.52403 -8.40307,2.02442v0.26882h-1.58628v0c-0.75631,0 -1.36944,-0.61313 -1.36944,-1.36944c0,-0.54668 0.32034,-1.01855 0.78354,-1.23815l1.55975,-0.77987l0.02514,0.05029l0.11217,-0.10979c0.14483,-0.0369 0.28964,-0.07383 0.43446,-0.11073c0.10869,-0.22175 0.27558,-0.40981 0.48074,-0.54425c0.19126,-0.29185 0.49097,-0.50623 0.84189,-0.58584l1.48949,-0.37237c0.91476,-0.38331 5.94087,-3.47986 6.61828,-3.20411z" fill="#fff4ce" stroke="none" stroke-width="0.5"></path></g></g></svg>