<svg version="1.1" xmlns="http://www.w3.org/2000/svg" xmlns:xlink="http://www.w3.org/1999/xlink" width="17.68269" height="19.4797" viewBox="0,0,17.68269,19.4797"><defs><radialGradient cx="242.46154" cy="172.41111" r="1.30555" gradientUnits="userSpaceOnUse" id="color-1"><stop offset="0" stop-color="#c2c2c2"></stop><stop offset="1" stop-color="#787878"></stop></radialGradient><radialGradient cx="243.73077" cy="174.68803" r="1.80555" gradientUnits="userSpaceOnUse" id="color-2"><stop offset="0" stop-color="#c2c2c2"></stop><stop offset="1" stop-color="#787878"></stop></radialGradient><radialGradient cx="237.50213" cy="172.00855" r="1.16667" gradientUnits="userSpaceOnUse" id="color-3"><stop offset="0" stop-color="#c2c2c2"></stop><stop offset="1" stop-color="#787878"></stop></radialGradient><radialGradient cx="236.36325" cy="172.14744" r="0.97222" gradientUnits="userSpaceOnUse" id="color-4"><stop offset="0" stop-color="#c2c2c2"></stop><stop offset="1" stop-color="#787878"></stop></radialGradient><radialGradient cx="239.61325" cy="172.50855" r="1.27778" gradientUnits="userSpaceOnUse" id="color-5"><stop offset="0" stop-color="#c2c2c2"></stop><stop offset="1" stop-color="#787878"></stop></radialGradient><radialGradient cx="240.80769" cy="173.84188" r="1.80555" gradientUnits="userSpaceOnUse" id="color-6"><stop offset="0" stop-color="#c2c2c2"></stop><stop offset="1" stop-color="#787878"></stop></radialGradient><radialGradient cx="238.14102" cy="174.0641" r="1.80555" gradientUnits="userSpaceOnUse" id="color-7"><stop offset="0" stop-color="#c2c2c2"></stop><stop offset="1" stop-color="#787878"></stop></radialGradient><radialGradient cx="235.36325" cy="173.78633" r="1.80556" gradientUnits="userSpaceOnUse" id="color-8"><stop offset="0" stop-color="#c2c2c2"></stop><stop offset="1" stop-color="#787878"></stop></radialGradient><linearGradient x1="239.20545" y1="176.38889" x2="239.20545" y2="189.13889" gradientUnits="userSpaceOnUse" id="color-9"><stop offset="0" stop-color="#8b8b8b"></stop><stop offset="1" stop-color="#787878"></stop></linearGradient></defs><g transform="translate(-230.12339,-170.84188)"><g data-paper-data="{&quot;isPaintingLayer&quot;:true}" fill-rule="nonzero" stroke-linecap="butt" stroke-linejoin="miter" stroke-miterlimit="10" stroke-dasharray="" stroke-dashoffset="0" style="mix-blend-mode: normal"><path d="M231.42628,190.16773v-2.46154h0.61538v2.46154z" fill="#363636" stroke="none" stroke-width="0"></path><path d="M231.42628,190.32158v-0.84615h14.84615v0.84615z" fill="#363636" stroke="none" stroke-width="0"></path><path d="M245.65704,190.09081v-1.92308h0.53846c0,0 0.53846,0.73957 0.53846,1.07692c0,0.29904 -0.53846,0.84615 -0.53846,0.84615z" fill="#363636" stroke="none" stroke-width="0"></path><path d="M243.7671,172.41111c0,0.6212 -0.58452,1.12478 -1.30555,1.12478c-0.72104,0 -1.30555,-0.50359 -1.30555,-1.12478c0,-0.6212 0.58452,-1.12478 1.30555,-1.12478c0.72104,0 1.30555,0.50359 1.30555,1.12478z" fill="url(#color-1)" stroke="none" stroke-width="0"></path><path d="M245.53633,174.68803c0,0.85911 -0.80838,1.55555 -1.80555,1.55555c-0.99718,0 -1.80555,-0.69645 -1.80555,-1.55555c0,-0.85911 0.80838,-1.55555 1.80555,-1.55555c0.99718,0 1.80555,0.69645 1.80555,1.55555z" fill="url(#color-2)" stroke="none" stroke-width="0"></path><text transform="translate(233.7825,179.79588) scale(0.09219,0.09219)" font-size="40" xml:space="preserve" fill="#9966ff" fill-rule="nonzero" stroke="none" stroke-width="1" stroke-linecap="butt" stroke-linejoin="miter" stroke-miterlimit="10" stroke-dasharray="" stroke-dashoffset="0" font-family="Sans Serif" font-weight="normal" text-anchor="start" style="mix-blend-mode: normal"><tspan x="0" dy="0">xamt8</tspan></text><path d="M238.61325,172.00855c0,0.64433 -0.49746,1.16667 -1.11111,1.16667c-0.61365,0 -1.11111,-0.52233 -1.11111,-1.16667c0,-0.64433 0.49746,-1.16667 1.11111,-1.16667c0.61365,0 1.11111,0.52233 1.11111,1.16667z" fill="url(#color-3)" stroke="none" stroke-width="0"></path><path d="M237.05769,172.14744c0,0.53694 -0.31091,0.97222 -0.69444,0.97222c-0.38353,0 -0.69444,-0.43528 -0.69444,-0.97222c0,-0.53694 0.31091,-0.97222 0.69444,-0.97222c0.38353,0 0.69444,0.43528 0.69444,0.97222z" fill="url(#color-4)" stroke="none" stroke-width="0"></path><path d="M240.89102,172.50855c0,0.64433 -0.57208,1.16667 -1.27778,1.16667c-0.7057,0 -1.27778,-0.52233 -1.27778,-1.16667c0,-0.64433 0.57208,-1.16667 1.27778,-1.16667c0.7057,0 1.27778,0.52233 1.27778,1.16667z" fill="url(#color-5)" stroke="none" stroke-width="0"></path><path d="M242.61325,173.84188c0,0.85911 -0.80838,1.55555 -1.80555,1.55555c-0.99718,0 -1.80555,-0.69645 -1.80555,-1.55555c0,-0.85911 0.80838,-1.55555 1.80555,-1.55555c0.99718,0 1.80555,0.69645 1.80555,1.55555z" fill="url(#color-6)" stroke="none" stroke-width="0"></path><path d="M239.94658,174.0641c0,0.85911 -0.80838,1.55555 -1.80555,1.55555c-0.99718,0 -1.80555,-0.69645 -1.80555,-1.55555c0,-0.85911 0.80838,-1.55555 1.80555,-1.55555c0.99718,0 1.80555,0.69645 1.80555,1.55555z" fill="url(#color-7)" stroke="none" stroke-width="0"></path><path d="M237.1688,173.78633c0,0.85911 -0.80837,1.55556 -1.80556,1.55556c-0.99718,0 -1.80556,-0.69645 -1.80556,-1.55556c0,-0.85911 0.80837,-1.55556 1.80556,-1.55556c0.99718,0 1.80556,0.69645 1.80556,1.55556z" fill="url(#color-8)" stroke="none" stroke-width="0"></path><path d="M247.80608,187.51869c0,1.3993 -0.72753,2.53365 -1.625,2.53365c-0.89747,0 -1.625,-1.13436 -1.625,-2.53365c0,-1.3993 0.72753,-2.53365 1.625,-2.53365c0.89747,0 1.625,1.13436 1.625,2.53365z" fill="#000000" stroke="none" stroke-width="0"></path><path d="M233.37339,187.22061c0,1.3993 -0.72754,2.53365 -1.625,2.53365c-0.89746,0 -1.625,-1.13436 -1.625,-2.53365c0,-1.3993 0.72754,-2.53365 1.625,-2.53365c0.89746,0 1.625,1.13436 1.625,2.53365z" fill="#000000" stroke="none" stroke-width="0"></path><path d="M231.55675,189.13889l1.5,-14.875l12.54741,0.49038l1.25,14.38462z" fill="url(#color-9)" stroke="none" stroke-width="0"></path><path d="M232.72916,177.36966v-2.61538h13.25v2.61538z" fill="#4d4d4d" stroke="none" stroke-width="0"></path><path d="M234.32692,175.88462c0,0.24546 -0.18655,0.44445 -0.41667,0.44445c-0.23012,0 -0.41666,-0.19898 -0.41666,-0.44445c0,-0.24546 0.18654,-0.44445 0.41666,-0.44445c0.23012,0 0.41667,0.19898 0.41667,0.44445z" fill="#c2c2c2" stroke="#000000" stroke-width="0"></path><path d="M237.01923,176.03846c0,0.24546 -0.18655,0.44445 -0.41667,0.44445c-0.23012,0 -0.41666,-0.19898 -0.41666,-0.44445c0,-0.24546 0.18654,-0.44445 0.41666,-0.44445c0.23012,0 0.41667,0.19898 0.41667,0.44445z" fill="#c2c2c2" stroke="#000000" stroke-width="0"></path><path d="M240.48077,176.11538c0,0.24546 -0.18655,0.44445 -0.41667,0.44445c-0.23012,0 -0.41666,-0.19898 -0.41666,-0.44445c0,-0.24546 0.18654,-0.44445 0.41666,-0.44445c0.23012,0 0.41667,0.19898 0.41667,0.44445z" fill="#c2c2c2" stroke="#000000" stroke-width="0"></path><path d="M244.32693,175.88462c0,0.24546 -0.18655,0.44445 -0.41667,0.44445c-0.23012,0 -0.41666,-0.19898 -0.41666,-0.44445c0,-0.24546 0.18654,-0.44445 0.41666,-0.44445c0.23012,0 0.41667,0.19898 0.41667,0.44445z" fill="#c2c2c2" stroke="#000000" stroke-width="0"></path></g></g></svg>