<svg version="1.1" xmlns="http://www.w3.org/2000/svg" xmlns:xlink="http://www.w3.org/1999/xlink" width="88.5" height="12.60478" viewBox="0,0,88.5,12.60478"><g transform="translate(-195.97525,-186.86421)"><g data-paper-data="{&quot;isPaintingLayer&quot;:true}" fill-rule="nonzero" stroke-linejoin="miter" stroke-miterlimit="10" stroke-dasharray="" stroke-dashoffset="0" style="mix-blend-mode: normal"><path d="M196.22525,199.21899v-12.10478h88v12.10478z" fill="#af4646" stroke="#fff4ce" stroke-width="0.5" stroke-linecap="butt"></path><text transform="translate(206.47047,194.01749) scale(0.05393,0.05393)" font-size="40" xml:space="preserve" fill="#ffc1c1" fill-rule="nonzero" stroke="none" stroke-width="1" stroke-linecap="butt" stroke-linejoin="miter" stroke-miterlimit="10" stroke-dasharray="" stroke-dashoffset="0" font-family="Serif" font-weight="normal" text-anchor="start" style="mix-blend-mode: normal"><tspan x="0" dy="0">"Prepare to suffer. Get chased, start at 10 hp, cope/dark room chance + ranger/hitman</tspan><tspan x="0" dy="48px">come quicker, landmines and jester shows more often."</tspan></text><path d="M205.30012,187.525l0.2,11.5" fill="none" stroke="#fff4ce" stroke-width="0.5" stroke-linecap="round"></path><text transform="translate(206.3052,191.645) scale(0.09295,0.09295)" font-size="40" xml:space="preserve" fill="#ff6666" fill-rule="nonzero" stroke="none" stroke-width="1" stroke-linecap="butt" stroke-linejoin="miter" stroke-miterlimit="10" stroke-dasharray="" stroke-dashoffset="0" font-family="Impact" font-weight="normal" text-anchor="start" style="mix-blend-mode: normal"><tspan x="0" dy="0">Hardcore</tspan></text><g fill="#ffffff" stroke-width="0.2"><g><path d="M200.69698,196.16409l-0.89173,-1.71136l3.04695,0.00383l-1.01457,1.63496z" stroke="none" stroke-linecap="butt"></path><path d="M198.7881,194.39506c0,0 -0.80514,-0.52459 -0.89524,-0.8783c-0.05202,-0.20422 0.2823,-0.55533 0.29899,-0.91303c0.03073,-0.6587 -0.20674,-1.36117 -0.20674,-1.36117c0,0 1.99367,-1.23776 3.01331,-1.2648c0.27665,-0.00734 0.62735,0.05969 0.9967,0.16379c-0.32364,0.11967 -0.62535,0.29445 -0.52768,0.72929c0.03224,0.14354 0.23987,0.32901 0.33318,0.41991c0.00919,0.00895 0.01763,0.01971 0.02605,0.03065c-0.00086,0.00152 -0.00174,0.00307 -0.00261,0.00466c-0.05457,0.09894 -0.10386,0.21353 -0.09294,0.326c0.00106,0.01098 0.0023,0.02129 0.0037,0.03096c-0.12745,0.01988 -0.28739,0.0016 -0.36674,0.10046c-0.07498,0.09342 0.00738,0.23947 0.01107,0.3592l-0.01274,0.01188c0,0 0,0.24823 0.24823,0.24823c0.15099,0 0.21013,-0.09184 0.23331,-0.16379c0.03926,-0.01132 0.09199,-0.03497 0.16151,-0.07488c0.13982,-0.08029 0.29366,-0.18414 0.34799,-0.33595c0.02772,-0.07746 -0.05085,-0.15084 -0.10869,-0.21998c0.2007,-0.13217 0.19489,-0.22258 0.07411,-0.48788c-0.01279,-0.02809 -0.30864,-0.31586 -0.3355,-0.34319c-0.01941,-0.01975 -0.07311,-0.04491 -0.05301,-0.06395c0.11767,-0.11142 0.28908,-0.12684 0.43661,-0.17582c0,0 0.17184,-0.05728 0.17301,-0.22077c0.91754,0.32224 1.78428,0.75778 1.78428,0.75778c0,0 -0.27947,1.20688 -0.27789,2.03877c0.00047,0.24571 0.37284,0.44949 0.35076,0.59129c-0.04914,0.31573 -0.61523,0.85435 -0.61523,0.85435c0,0 -0.39661,0.40289 -0.70416,0.42798c-0.55513,0.04528 -1.29815,-0.51677 -2.04097,-0.57315c-0.56896,-0.04318 -1.1847,0.42143 -1.43395,0.41327c-0.25491,-0.00835 -0.8187,-0.43178 -0.8187,-0.43178zM200.20989,193.80586l-0.06067,-0.11706c-0.10609,-0.15801 -0.16468,-0.35318 -0.27629,-0.50451c-0.01866,-0.02529 -0.04109,-0.04731 -0.06458,-0.06843c0.05184,-0.03771 0.10298,-0.07613 0.14416,-0.12445c0.0527,-0.06185 0.07633,-0.14347 0.11449,-0.21521l0.08222,-0.12247c0,0 0.13769,-0.20654 -0.06885,-0.34423c-0.20654,-0.13769 -0.34423,0.06885 -0.34423,0.06885l-0.09853,0.14866c-0.02887,0.06374 -0.0639,0.11214 -0.10278,0.15396c-0.00327,-0.00619 -0.00662,-0.01232 -0.01009,-0.0184c-0.10173,-0.17828 -0.15713,-0.30573 -0.19723,-0.51153c0,0 -0.04868,-0.2434 -0.29209,-0.19472c-0.2434,0.04868 -0.19472,0.29209 -0.19472,0.29209c0.05167,0.25295 0.12773,0.44158 0.25465,0.66335c0.01652,0.02886 0.04599,0.09013 0.07756,0.15577c-0.06171,0.11216 -0.10594,0.23384 -0.1904,0.33047c-0.09277,0.10614 -0.2002,0.19849 -0.29987,0.29816c0,0 -0.17552,0.17552 0,0.35104c0.17552,0.17552 0.35104,0 0.35104,0c0.04363,-0.04363 0.32132,-0.32093 0.33275,-0.33447c0.05326,-0.06304 0.09069,-0.13446 0.12656,-0.20649c0.09377,0.1379 0.15003,0.31746 0.24313,0.45793l0.0297,0.06369c0,0 0.11101,0.22202 0.33303,0.11101c0.22202,-0.11101 0.11101,-0.33303 0.11101,-0.33303z" stroke="none" stroke-linecap="butt"></path><path d="M204.32104,193.99443l-1.45652,0.92729" stroke="#ffffff" stroke-linecap="round"></path><path d="M201.88467,195.93214l0.90076,-1.10909" stroke="#ffffff" stroke-linecap="round"></path><path d="M204.06319,194.28962l-0.88095,0.55735" stroke="#ffffff" stroke-linecap="round"></path><path d="M203.01057,194.86875l0.48471,0.0905" stroke="#ffffff" stroke-linecap="round"></path><path d="M201.65997,196.80781l-0.00378,-0.79227l0.29263,-0.00776l0.02145,0.80903c0,0 -0.11473,0.16772 -0.17108,0.16608c-0.04398,-0.00128 -0.13921,-0.17508 -0.13921,-0.17508z" stroke="#e4d0a2" stroke-linecap="butt"></path><path d="M201.74916,196.92807c-0.00127,-0.0481 0.03668,-0.08813 0.08478,-0.0894c0.0481,-0.00127 0.08813,0.03668 0.0894,0.08478c0.00127,0.0481 -0.03668,0.08813 -0.08478,0.0894c-0.0481,0.00127 -0.08813,-0.03668 -0.0894,-0.08478z" stroke="none" stroke-linecap="butt"></path></g><path d="M200.25278,196.39374l-0.89173,-1.71136l3.04695,0.00383l-1.01457,1.63496z" stroke="none" stroke-linecap="butt"></path><path d="M198.3439,194.62473c0,0 -0.80514,-0.52459 -0.89524,-0.8783c-0.05202,-0.20422 0.2823,-0.55533 0.29899,-0.91303c0.03073,-0.6587 -0.20674,-1.36117 -0.20674,-1.36117c0,0 1.99367,-1.23776 3.01331,-1.2648c0.28415,-0.00753 0.64642,0.06338 1.02679,0.17234c-0.10883,0.11382 -0.1636,0.26833 -0.11357,0.49108c0.03224,0.14354 0.23987,0.32901 0.33318,0.41991c0.00919,0.00895 0.01763,0.01971 0.02605,0.03065c-0.00086,0.00152 -0.00174,0.00307 -0.00261,0.00466c-0.05457,0.09894 -0.10386,0.21353 -0.09294,0.326c0.00106,0.01098 0.0023,0.02129 0.0037,0.03096c-0.12745,0.01988 -0.28739,0.0016 -0.36674,0.10046c-0.07498,0.09342 0.00738,0.23947 0.01107,0.3592l-0.01274,0.01188c0,0 0,0.24823 0.24823,0.24823c0.15099,0 0.21013,-0.09184 0.23331,-0.16379c0.03926,-0.01132 0.09199,-0.03497 0.16151,-0.07488c0.13982,-0.08029 0.29366,-0.18414 0.34799,-0.33595c0.02772,-0.07746 -0.05085,-0.15084 -0.10869,-0.21998c0.2007,-0.13217 0.19489,-0.22258 0.07411,-0.48788c-0.01279,-0.02809 -0.30864,-0.31586 -0.3355,-0.34319c-0.01941,-0.01975 -0.07311,-0.04491 -0.05301,-0.06395c0.07496,-0.07098 0.17173,-0.103 0.27024,-0.12956c0.87763,0.31749 1.67946,0.72041 1.67946,0.72041c0,0 -0.27947,1.20688 -0.27789,2.03877c0.00047,0.24571 0.37284,0.44949 0.35076,0.59129c-0.04914,0.31573 -0.61523,0.85435 -0.61523,0.85435c0,0 -0.39661,0.40289 -0.70416,0.42798c-0.55513,0.04528 -1.29815,-0.51677 -2.04097,-0.57315c-0.56896,-0.04318 -1.1847,0.42143 -1.43395,0.41327c-0.25491,-0.00835 -0.8187,-0.43178 -0.8187,-0.43178zM200.20989,193.80586l-0.06067,-0.11706c-0.10609,-0.15801 -0.16468,-0.35318 -0.27629,-0.50451c-0.01866,-0.02529 -0.04109,-0.04731 -0.06458,-0.06843c0.05184,-0.03771 0.10298,-0.07613 0.14416,-0.12445c0.0527,-0.06185 0.07633,-0.14347 0.11449,-0.21521l0.08222,-0.12247c0,0 0.13769,-0.20654 -0.06885,-0.34423c-0.20654,-0.13769 -0.34423,0.06885 -0.34423,0.06885l-0.09853,0.14866c-0.02887,0.06374 -0.0639,0.11214 -0.10278,0.15396c-0.00327,-0.00619 -0.00662,-0.01232 -0.01009,-0.0184c-0.10173,-0.17828 -0.15713,-0.30573 -0.19723,-0.51153c0,0 -0.04868,-0.2434 -0.29209,-0.19472c-0.2434,0.04868 -0.19472,0.29209 -0.19472,0.29209c0.05167,0.25295 0.12773,0.44158 0.25465,0.66335c0.01652,0.02886 0.04599,0.09013 0.07756,0.15577c-0.06171,0.11216 -0.10594,0.23384 -0.1904,0.33047c-0.09277,0.10614 -0.2002,0.19849 -0.29987,0.29816c0,0 -0.17552,0.17552 0,0.35104c0.17552,0.17552 0.35104,0 0.35104,0c0.04363,-0.04363 0.32132,-0.32093 0.33275,-0.33447c0.05326,-0.06304 0.09069,-0.13446 0.12656,-0.20649c0.09377,0.1379 0.15003,0.31746 0.24313,0.45793l0.0297,0.06369c0,0 0.11101,0.22202 0.33303,0.11101c0.22202,-0.11101 0.11101,-0.33303 0.11101,-0.33303z" stroke="none" stroke-linecap="butt"></path><path d="M201.65065,191.65945l-0.47189,-0.24139l0.4047,-0.34943c0.07379,0.08791 0.16401,0.17035 0.21715,0.22211c0.00173,0.00168 0.00343,0.00343 0.00511,0.00523z" stroke="#e4d0a2" stroke-linecap="butt"></path><path d="M202.0889,190.63222l-0.07362,0.17257c-0.01403,-0.01383 -0.02395,-0.02362 -0.02793,-0.02768c-0.00821,-0.00836 -0.02256,-0.01768 -0.03486,-0.0271z" stroke="#e4d0a2" stroke-linecap="butt"></path><path d="M201.56608,191.66169l0.03597,0.03411" stroke="#e4d0a2" stroke-linecap="round"></path><path d="M198.52144,194.15654c0,0 -0.08859,-0.36298 -0.09386,-0.56154c-0.00574,-0.21637 0.06072,-0.68784 0.06072,-0.68784c0,0 0.20424,-0.31659 0.3908,-0.49839c0.04963,0.17817 0.11757,0.33056 0.21625,0.50299c0.01652,0.02886 0.04599,0.09013 0.07756,0.15577c-0.06171,0.11216 -0.10594,0.23384 -0.1904,0.33047c-0.09277,0.10614 -0.2002,0.19849 -0.29987,0.29816c0,0 -0.17552,0.17552 0,0.35104c0.17552,0.17552 0.35104,0 0.35104,0c0.04363,-0.04363 0.32132,-0.32093 0.33275,-0.33447c0.05326,-0.06304 0.09069,-0.13446 0.12656,-0.20649c0.09377,0.1379 0.15003,0.31746 0.24313,0.45793l0.0297,0.06369c0,0 0.04259,0.08519 0.12778,0.12364c-0.16374,0.09515 -0.64574,0.3646 -0.86239,0.37034c-0.18264,0.00484 -0.50979,-0.36532 -0.50979,-0.36532z" stroke="#e4d0a2" stroke-linecap="butt"></path><path d="M200.03936,193.4733c0.00014,0.0052 0.00022,0.01053 0.00024,0.01597c-0.05099,-0.10575 -0.09912,-0.21339 -0.16667,-0.30498c-0.01866,-0.02529 -0.04109,-0.04731 -0.06458,-0.06843c0.05087,-0.03699 0.10105,-0.07468 0.14182,-0.12173c0.03527,0.13584 0.08578,0.35076 0.08919,0.47916z" stroke="#e4d0a2" stroke-linecap="butt"></path><path d="M199.52475,192.66258c-0.04818,-0.08443 -0.08597,-0.15747 -0.11666,-0.23282c0.06768,0.04703 0.13605,0.10091 0.19975,0.15444c-0.02208,0.03709 -0.04665,0.06844 -0.07299,0.09677c-0.00327,-0.00619 -0.00662,-0.01232 -0.01009,-0.0184z" stroke="#e4d0a2" stroke-linecap="butt"></path><path d="M198.12686,194.41889l1.32661,0.55726" stroke="#ffffff" stroke-linecap="round"></path><path d="M200.5521,195.15522l-0.01224,-0.46159c0,0 0.23638,-0.94639 0.33777,-0.94908c0.13215,-0.0035 0.38759,0.92984 0.38759,0.92984l0.01224,0.46159c0,0 -0.27619,-0.66419 -0.40731,-0.66071c-0.10463,0.00277 -0.31804,0.67995 -0.31804,0.67995z" stroke="#e4d0a2" stroke-linecap="butt"></path><path d="M202.29211,194.35947c-0.07014,0.00186 -0.30324,0.60949 -0.41613,0.7835c-0.05415,0.08347 -0.05694,0.07666 -0.11049,0.05495c-0.25376,-0.10287 0.03303,-1.06483 0.03303,-1.06483c0,0 -0.32677,-0.45378 -0.33251,-0.67016c-0.00527,-0.19855 0.091,-0.60968 0.091,-0.60968c0,0 0.54306,-0.62167 0.80493,-0.62861c0.19216,-0.0051 0.62294,0.59075 0.62294,0.59075c0,0 0.09136,0.46729 0.0971,0.68366c0.00527,0.19855 -0.06396,0.56572 -0.06396,0.56572c0,0 -0.30707,0.38698 -0.48971,0.39183z" data-paper-data="{&quot;index&quot;:null}" stroke="#e4d0a2" stroke-linecap="butt"></path><path d="M202.34123,195.05271l-0.90076,1.10909" stroke="#ffffff" stroke-linecap="round"></path><path d="M201.39157,196.26645l-1.17097,0.01383l-0.94928,-1.37009" stroke="#ffffff" stroke-linecap="round"></path><path d="M199.22287,195.03205l-0.74976,-0.34185" stroke="#ffffff" stroke-linecap="round"></path><path d="M202.73805,195.07664l0.88095,-0.55735" stroke="#ffffff" stroke-linecap="round"></path><path d="M203.05108,195.18891l-0.48471,-0.0905" stroke="#ffffff" stroke-linecap="round"></path><path d="M200.15462,197.03995l-0.00378,-0.79227l0.29263,-0.00776l0.02145,0.80903c0,0 -0.11473,0.16772 -0.17108,0.16608c-0.04398,-0.00128 -0.13921,-0.17508 -0.13921,-0.17508z" stroke="#e4d0a2" stroke-linecap="butt"></path><path d="M200.55145,197.03798l-0.00378,-0.79227l0.29263,-0.00776l0.02145,0.80903c0,0 -0.11473,0.16772 -0.17108,0.16608c-0.04398,-0.00128 -0.13921,-0.17508 -0.13921,-0.17508z" stroke="#e4d0a2" stroke-linecap="butt"></path><path d="M200.87681,197.05229l-0.00378,-0.79227l0.29263,-0.00776l0.02145,0.80903c0,0 -0.11473,0.16772 -0.17108,0.16608c-0.04398,-0.00128 -0.13921,-0.17508 -0.13921,-0.17508z" stroke="#e4d0a2" stroke-linecap="butt"></path><path d="M201.21578,197.03747l-0.00378,-0.79227l0.29263,-0.00776l0.02145,0.80903c0,0 -0.11473,0.16772 -0.17108,0.16608c-0.04398,-0.00128 -0.13921,-0.17508 -0.13921,-0.17508z" stroke="#e4d0a2" stroke-linecap="butt"></path><path d="M200.3281,197.16925l-0.11498,0.00305" stroke="#ffffff" stroke-linecap="round"></path><path d="M200.40081,197.16733c0.00231,0.08709 -0.08478,0.0894 -0.08478,0.0894l-0.11498,0.00305c0,0 -0.08709,0.00231 -0.0894,-0.08478c-0.00231,-0.08709 0.08478,-0.0894 0.08478,-0.0894l0.11498,-0.00305c0,0 0.08709,-0.00231 0.0894,0.08478z" stroke="none" stroke-linecap="butt"></path><path d="M200.64344,197.16089c-0.00127,-0.0481 0.03668,-0.08813 0.08478,-0.0894c0.0481,-0.00127 0.08813,0.03668 0.0894,0.08478c0.00127,0.0481 -0.03668,0.08813 -0.08478,0.0894c-0.0481,0.00127 -0.08813,-0.03668 -0.0894,-0.08478z" stroke="none" stroke-linecap="butt"></path><path d="M200.97401,197.15213c-0.00127,-0.0481 0.03668,-0.08813 0.08478,-0.0894c0.0481,-0.00127 0.08813,0.03668 0.0894,0.08478c0.00127,0.0481 -0.03668,0.08813 -0.08478,0.0894c-0.0481,0.00127 -0.08813,-0.03668 -0.0894,-0.08478z" stroke="none" stroke-linecap="butt"></path><path d="M201.30496,197.15773c-0.00127,-0.0481 0.03668,-0.08813 0.08478,-0.0894c0.0481,-0.00127 0.08813,0.03668 0.0894,0.08478c0.00127,0.0481 -0.03668,0.08813 -0.08478,0.0894c-0.0481,0.00127 -0.08813,-0.03668 -0.0894,-0.08478z" stroke="none" stroke-linecap="butt"></path></g></g></g></svg>