<svg version="1.1" xmlns="http://www.w3.org/2000/svg" xmlns:xlink="http://www.w3.org/1999/xlink" width="77.82792" height="58.93116" viewBox="0,0,77.82792,58.93116"><defs><radialGradient cx="239.10567" cy="180.09887" r="38.91396" gradientUnits="userSpaceOnUse" id="color-1"><stop offset="0" stop-color="#00ff15" stop-opacity="0"></stop><stop offset="1" stop-color="#00ff15"></stop></radialGradient><radialGradient cx="240.81298" cy="168.94625" r="0.68485" gradientUnits="userSpaceOnUse" id="color-2"><stop offset="0" stop-color="#10ff31"></stop><stop offset="1" stop-color="#737373"></stop></radialGradient><linearGradient x1="240.38409" y1="170.45352" x2="240.38409" y2="175.7313" gradientUnits="userSpaceOnUse" id="color-3"><stop offset="0" stop-color="#ffd200"></stop><stop offset="1" stop-color="#ffd200" stop-opacity="0"></stop></linearGradient></defs><g transform="translate(-200.19171,-150.59241)"><g data-paper-data="{&quot;isPaintingLayer&quot;:true}" fill-rule="nonzero" stroke-linejoin="miter" stroke-miterlimit="10" stroke-dasharray="" stroke-dashoffset="0" style="mix-blend-mode: normal"><path d="M200.19171,209.52357v-58.84939h77.82792v58.84939z" fill="url(#color-1)" stroke="none" stroke-width="NaN" stroke-linecap="butt"></path><text transform="translate(219.33198,181.75683) rotate(-2.03614) scale(0.22407,0.22407)" font-size="40" xml:space="preserve" fill="#730f0f" fill-rule="nonzero" stroke="none" stroke-width="1" stroke-linecap="butt" stroke-linejoin="miter" stroke-miterlimit="10" stroke-dasharray="" stroke-dashoffset="0" font-family="Marker" font-weight="normal" text-anchor="start" style="mix-blend-mode: normal"><tspan x="0" dy="0">I see you</tspan></text><text transform="translate(220.25058,182.41286) rotate(-2.03583) scale(0.22407,0.22407)" font-size="40" xml:space="preserve" fill="#ff0000" fill-rule="nonzero" stroke="none" stroke-width="1" stroke-linecap="butt" stroke-linejoin="miter" stroke-miterlimit="10" stroke-dasharray="" stroke-dashoffset="0" font-family="Marker" font-weight="normal" text-anchor="start" style="mix-blend-mode: normal"><tspan x="0" dy="0">I see you</tspan></text><path d="M237.56002,171.61636v-4.89708h5.82106v4.89708z" fill="#000000" stroke="none" stroke-width="0" stroke-linecap="butt"></path><path d="M237.59013,171.48424l0.60428,-1.32942h4.59256l0.64457,1.41z" fill="#5f5f5f" stroke="none" stroke-width="0" stroke-linecap="butt"></path><path d="M238.33054,170.1951l-0.564,-1.85314l5.5997,-0.08057l-0.564,1.93371z" fill="#3b3b3b" stroke="none" stroke-width="0" stroke-linecap="butt"></path><path d="M241.21583,169.26853c0,0.35599 -0.30662,0.64457 -0.68485,0.64457c-0.37823,0 -0.68485,-0.28858 -0.68485,-0.64457c0,-0.35599 0.30662,-0.64457 0.68485,-0.64457c0.37823,0 0.68485,0.28858 0.68485,0.64457z" fill="url(#color-2)" stroke="none" stroke-width="0" stroke-linecap="butt"></path><path d="M238.63756,166.69026v-3.0617h3.46456v3.0617z" fill="#777c78" stroke="none" stroke-width="0" stroke-linecap="butt"></path><path d="M238.63756,163.95084v-1.65171h5.63998v1.65171z" fill="#777c78" stroke="none" stroke-width="0" stroke-linecap="butt"></path><path d="M242.34383,163.87027v-13.15066h2.01428v13.15066z" fill="#777c78" stroke="none" stroke-width="0" stroke-linecap="butt"></path><path d="M224.68964,176.7313l15.22222,-6.27778h0.94444l19.33333,6.11111z" fill="url(#color-3)" stroke="none" stroke-width="0" stroke-linecap="butt"></path><path d="M238.80075,165.17574h3.27778" fill="none" stroke="#000000" stroke-width="0.5" stroke-linecap="round"></path><path d="M242.30075,150.84241h2.11111" fill="none" stroke="#000000" stroke-width="0.5" stroke-linecap="round"></path></g></g></svg>