<svg version="1.1" xmlns="http://www.w3.org/2000/svg" xmlns:xlink="http://www.w3.org/1999/xlink" width="61.4" height="46.9" viewBox="0,0,61.4,46.9"><defs><radialGradient cx="260.98917" cy="178.63421" r="9.31721" gradientUnits="userSpaceOnUse" id="color-1"><stop offset="0" stop-color="#3c3c3c"></stop><stop offset="1" stop-color="#656565"></stop></radialGradient><radialGradient cx="219.4217" cy="191.05132" r="9.70518" gradientUnits="userSpaceOnUse" id="color-2"><stop offset="0" stop-color="#3c3c3c"></stop><stop offset="1" stop-color="#656565"></stop></radialGradient><linearGradient x1="238.29412" y1="188" x2="238.29412" y2="192.76471" gradientUnits="userSpaceOnUse" id="color-3"><stop offset="0" stop-color="#ffffff" stop-opacity="0"></stop><stop offset="1" stop-color="#ffffff"></stop></linearGradient><linearGradient x1="240.25" y1="192.70835" x2="240.25" y2="202.79168" gradientUnits="userSpaceOnUse" id="color-4"><stop offset="0" stop-color="#b4b4b4"></stop><stop offset="1" stop-color="#9d9d9d"></stop></linearGradient><linearGradient x1="261.20833" y1="198.16668" x2="256.375" y2="198.16668" gradientUnits="userSpaceOnUse" id="color-5"><stop offset="0" stop-color="#656565"></stop><stop offset="1" stop-color="#b1b1b1"></stop></linearGradient><linearGradient x1="218.375" y1="198.00001" x2="223.20834" y2="198.00001" gradientUnits="userSpaceOnUse" id="color-6"><stop offset="0" stop-color="#656565"></stop><stop offset="1" stop-color="#b1b1b1"></stop></linearGradient><linearGradient x1="220.75" y1="194.37501" x2="220.75" y2="202.62501" gradientUnits="userSpaceOnUse" id="color-7"><stop offset="0" stop-color="#bebebe"></stop><stop offset="1" stop-color="#000000"></stop></linearGradient><linearGradient x1="223" y1="193.62501" x2="223" y2="202.62501" gradientUnits="userSpaceOnUse" id="color-8"><stop offset="0" stop-color="#bebebe"></stop><stop offset="1" stop-color="#000000"></stop></linearGradient><linearGradient x1="256.08333" y1="193.70835" x2="256.08333" y2="202.70835" gradientUnits="userSpaceOnUse" id="color-9"><stop offset="0" stop-color="#bebebe"></stop><stop offset="1" stop-color="#000000"></stop></linearGradient><linearGradient x1="259.5" y1="195.29168" x2="259.5" y2="202.45835" gradientUnits="userSpaceOnUse" id="color-10"><stop offset="0" stop-color="#bebebe"></stop><stop offset="1" stop-color="#000000"></stop></linearGradient><linearGradient x1="238.33334" y1="193.04168" x2="238.33334" y2="194.29168" gradientUnits="userSpaceOnUse" id="color-11"><stop offset="0" stop-color="#bebebe"></stop><stop offset="1" stop-color="#000000"></stop></linearGradient><linearGradient x1="240.46989" y1="195.10229" x2="241.36345" y2="194.89774" gradientUnits="userSpaceOnUse" id="color-12"><stop offset="0" stop-color="#ff6262"></stop><stop offset="1" stop-color="#ead2d2"></stop></linearGradient><radialGradient cx="217.58474" cy="177.09554" r="6.95627" gradientUnits="userSpaceOnUse" id="color-13"><stop offset="0" stop-color="#79787a"></stop><stop offset="1" stop-color="#464546"></stop></radialGradient><radialGradient cx="257.27153" cy="177.36506" r="5.88801" gradientUnits="userSpaceOnUse" id="color-14"><stop offset="0" stop-color="#b3b0b4"></stop><stop offset="1" stop-color="#79787a"></stop></radialGradient><radialGradient cx="265.40604" cy="181.84509" r="4.9436" gradientUnits="userSpaceOnUse" id="color-15"><stop offset="0" stop-color="#b3b0b4"></stop><stop offset="1" stop-color="#79787a"></stop></radialGradient><radialGradient cx="224.90206" cy="177.02103" r="6.39356" gradientUnits="userSpaceOnUse" id="color-16"><stop offset="0" stop-color="#b3b0b4"></stop><stop offset="1" stop-color="#79787a"></stop></radialGradient><radialGradient cx="263.14036" cy="168.22481" r="3.98182" gradientUnits="userSpaceOnUse" id="color-17"><stop offset="0" stop-color="#b3b0b4"></stop><stop offset="1" stop-color="#79787a"></stop></radialGradient><radialGradient cx="268.02308" cy="164.50285" r="3.08015" gradientUnits="userSpaceOnUse" id="color-18"><stop offset="0" stop-color="#b3b0b4"></stop><stop offset="1" stop-color="#79787a"></stop></radialGradient><radialGradient cx="258.15766" cy="163.11774" r="4.1574" gradientUnits="userSpaceOnUse" id="color-19"><stop offset="0" stop-color="#79787a"></stop><stop offset="1" stop-color="#464546"></stop></radialGradient><radialGradient cx="215.61343" cy="165.18083" r="4.28238" gradientUnits="userSpaceOnUse" id="color-20"><stop offset="0" stop-color="#b3b0b4"></stop><stop offset="1" stop-color="#79787a"></stop></radialGradient><radialGradient cx="224.41816" cy="161.31959" r="3.45091" gradientUnits="userSpaceOnUse" id="color-21"><stop offset="0" stop-color="#b3b0b4"></stop><stop offset="1" stop-color="#79787a"></stop></radialGradient><linearGradient x1="240" y1="156.55" x2="240" y2="203.45" gradientUnits="userSpaceOnUse" id="color-22"><stop offset="0" stop-color="#000000" stop-opacity="0.84677"></stop><stop offset="1" stop-color="#000000" stop-opacity="0"></stop></linearGradient></defs><g transform="translate(-209.25,-156.55)"><g data-paper-data="{&quot;isPaintingLayer&quot;:true}" fill-rule="nonzero" stroke-linejoin="miter" stroke-miterlimit="10" stroke-dasharray="" stroke-dashoffset="0" style="mix-blend-mode: normal"><path d="M209.71327,202.18406v-45.00651h60.57347v45.00651z" fill="#5d5d5d" stroke="none" stroke-width="0" stroke-linecap="butt"></path><path d="M249.05,202.55l-12,-45.3l33.6,-0.3v45.6z" data-paper-data="{&quot;index&quot;:null}" fill="#4a4a4a" stroke="none" stroke-width="0" stroke-linecap="butt"></path><path d="M209.25,202.65v-45.6l27.9,-0.1l-6.3,45.7z" fill="#4a4a4a" stroke="none" stroke-width="0" stroke-linecap="butt"></path><path d="M269.50334,182.41829c-0.68958,1.55157 -2.9848,0.87047 -4.94199,1.23214c-2.01692,0.37273 -3.72106,1.74892 -6.10753,0.68827c-0.89592,-0.39819 -2.83637,4.4361 -3.57104,3.90373c-3.12129,-2.26177 -3.54124,-10.84206 -2.40779,-13.39231c1.40022,-3.15051 6.34726,-4.01031 11.04951,-1.92042c4.70225,2.08989 7.37907,6.33807 5.97885,9.48858z" fill="url(#color-1)" stroke="none" stroke-width="0" stroke-linecap="butt"></path><path d="M227.30831,202.57246l9.08334,-36.00001l1.11667,-0.55l-7.3,36.41667z" fill="#9f8250" stroke="none" stroke-width="0" stroke-linecap="butt"></path><path d="M229.12689,191.05132c0,5.20833 -4.34516,9.43051 -9.70518,9.43051c-5.36002,0 -9.70518,-4.22218 -9.70518,-9.43051c0,-4.17242 1.68989,-8.99378 5.55489,-10.23671c0.95958,-0.30859 3.08421,0.8062 4.15029,0.8062c0.63879,0 4.37615,-6.89846 4.98048,-6.78401c4.4665,0.84595 4.7247,11.6269 4.7247,16.21451z" fill="url(#color-2)" stroke="none" stroke-width="0" stroke-linecap="butt"></path><path d="M247.47498,202.55579l-8.76666,-36.28334l1.11667,0.41667l10.08333,36.13333z" data-paper-data="{&quot;index&quot;:null}" fill="#9f8250" stroke="none" stroke-width="0" stroke-linecap="butt"></path><path d="M233.75333,184.12334l0.24865,-1.6l8.55352,0.2l0.39784,1.4z" fill="#caa565" stroke="none" stroke-width="0" stroke-linecap="butt"></path><path d="M232.48667,190.52334l0.33334,-1.6l11.46667,0.2l0.53333,1.4z" fill="#caa565" stroke="none" stroke-width="0" stroke-linecap="butt"></path><path d="M237.32353,192.76471l-2.82353,-5.64706l7.47059,-0.17647l-2.70588,5.82353z" fill="url(#color-3)" stroke="none" stroke-width="0" stroke-linecap="butt"></path><g><path d="M209.95834,202.79168l8.75,-10.08334l41.74999,0.33334l10.08334,9.75c0,0 -9.28964,0 -16.16667,0c-0.22494,0 -0.44729,0 -0.66666,0c-11.1658,0 -43.75,0 -43.75,0z" fill="url(#color-4)" stroke="none" stroke-width="0" stroke-linecap="butt"></path><path d="M256.375,202.87501v-9.41667h4.83333v9.41667z" data-paper-data="{&quot;index&quot;:null}" fill="url(#color-5)" stroke="none" stroke-width="0" stroke-linecap="butt"></path><path d="M218.375,202.70835v-9.41667h4.83334v9.41667z" fill="url(#color-6)" stroke="none" stroke-width="0" stroke-linecap="butt"></path><path d="M264.78781,202.47304l-6.23681,-9.02413l2.41119,-0.50525l6.40347,8.02412z" data-paper-data="{&quot;index&quot;:null}" fill="#767676" stroke="none" stroke-width="0" stroke-linecap="butt"></path><path d="M212.38434,200.30111l6.40347,-8.02412l2.41118,0.50525l-6.23681,9.02413z" fill="#767676" stroke="none" stroke-width="0" stroke-linecap="butt"></path><g fill="#ffe116" stroke="#efc800" stroke-width="0.5" stroke-linecap="butt"><path d="M209.67202,202.52597l0.1754,-5.77918l9.39723,1.27131l-1.09207,4.59543z"></path><path d="M261.68075,202.6699l-1.50874,-4.25722l9.39723,-1.27131l0.59207,5.38459z" data-paper-data="{&quot;index&quot;:null}"></path></g><path d="M218.54167,193.5521v-1.1875h42.5v1.1875z" fill="#767676" stroke="none" stroke-width="0" stroke-linecap="butt"></path><path d="M221.29167,202.62501l-1.08333,-8.25" fill="none" stroke="url(#color-7)" stroke-width="0.25" stroke-linecap="round"></path><path d="M222.79167,193.62501l0.41667,9" fill="none" stroke="url(#color-8)" stroke-width="0.25" stroke-linecap="round"></path><path d="M258.70833,193.70835l-1.83333,8.83333" fill="none" stroke="url(#color-9)" stroke-width="0.25" stroke-linecap="round"></path><path d="M259.79167,195.29168l-0.58333,7.16667" fill="none" stroke="url(#color-10)" stroke-width="0.25" stroke-linecap="round"></path><path d="M235.95834,194.29168v-1.25c0,0 1.86818,-1.25 2.66666,-1.25c0.7846,0 2.08334,1.25 2.08334,1.25v1.25z" fill="#c3c8c3" stroke="url(#color-11)" stroke-width="0.25" stroke-linecap="butt"></path><path d="M236.625,195.20835v-1.83334h0.75v1.83334z" fill="#828282" stroke="none" stroke-width="0" stroke-linecap="butt"></path><path d="M239.29167,195.12501v-1.58334h0.66667v1.58334z" fill="#828282" stroke="none" stroke-width="0" stroke-linecap="butt"></path><path d="M240.96267,197.25494c0,0 -0.08308,-1.53835 -0.24823,-2.25983c-0.16334,-0.71353 -0.73731,-2.04547 -0.73731,-2.04547l0.89355,-0.20455c0,0 0.55655,1.25581 0.71613,1.95292c0.16845,0.73588 0.26942,2.35237 0.26942,2.35237z" fill="url(#color-12)" stroke="none" stroke-width="0" stroke-linecap="butt"></path><path d="M241.29167,202.70835c0,0 -0.33601,-1.14338 -0.12542,-2.2421c0.15614,-0.81458 0.87542,-1.56707 0.87542,-2.0079c0,-0.54572 -0.75,-1.5 -0.75,-1.5h0.41667c0,0 0.75,0.42631 0.75,1c0,0.53155 -0.61106,1.58631 -0.8019,2.65742c-0.18403,1.03284 0.0519,2.09258 0.0519,2.09258z" fill="#444343" stroke="none" stroke-width="0" stroke-linecap="butt"></path></g><path d="M234.88667,178.92334l0.18559,-1.1926l6.38414,0.14908l0.29694,1.04352z" fill="#caa565" stroke="none" stroke-width="0" stroke-linecap="butt"></path><path d="M235.55333,176.10852l0.15256,-0.63704l5.24781,0.07963l0.24408,0.55741z" fill="#caa565" stroke="none" stroke-width="0" stroke-linecap="butt"></path><path d="M235.81259,174.36778l0.13253,-0.63704l4.55912,0.07963l0.21205,0.55741z" fill="#caa565" stroke="none" stroke-width="0" stroke-linecap="butt"></path><path d="M236.14593,172.81223l0.11252,-0.63704l3.87043,0.07963l0.18003,0.55741z" fill="#caa565" stroke="none" stroke-width="0" stroke-linecap="butt"></path><path d="M236.40519,171.55297l0.10329,-0.41482l3.55318,0.05185l0.16527,0.36297z" fill="#caa565" stroke="none" stroke-width="0" stroke-linecap="butt"></path><path d="M236.55333,170.70112l0.09028,-0.41481l3.10554,0.05185l0.14445,0.36296z" fill="#caa565" stroke="none" stroke-width="0" stroke-linecap="butt"></path><path d="M236.55333,170.10852l0.09228,-0.41481l3.17441,0.05185l0.14765,0.36296z" fill="#caa565" stroke="none" stroke-width="0" stroke-linecap="butt"></path><path d="M236.81259,169.22457l0.72191,-3.1284c0,0 1.25308,0.19449 1.25743,0.36313c0.01169,0.45313 0.65722,2.76527 0.65722,2.76527z" fill-opacity="0.49326" fill="#caa565" stroke="none" stroke-width="0" stroke-linecap="butt"></path><path d="M215.24381,188.41071l-0.05687,-0.99508c0,0 1.37001,-4.23517 1.64629,-7.15636c0.20014,-2.11616 -0.76625,-3.17683 -0.39386,-3.19811c0.11407,-0.00652 0.33049,-2.02474 0.60255,-3.20897c0.10345,-0.45034 -0.07779,-0.93414 0.17583,-0.91483c0.42093,0.03206 1.48465,3.14253 2.27751,4.07371c0.7449,0.87485 -1.3192,3.91188 -0.87339,5.08076c1.00503,2.63511 2.07968,5.00863 2.07968,5.00863l0.05687,0.99508z" data-paper-data="{&quot;index&quot;:null}" fill="url(#color-13)" stroke="#000000" stroke-width="0" stroke-linecap="butt"></path><path d="M255.86544,183.18774v-1.80704c0,0 1.14467,-7.16123 2.02125,-7.16123c0.2986,0 0.07573,2.61695 0.62357,4.14141c0.71612,1.9927 2.18861,3.01984 2.18861,3.01984v1.80704z" data-paper-data="{&quot;index&quot;:null}" fill="url(#color-14)" stroke="#000000" stroke-width="0" stroke-linecap="butt"></path><path d="M262.52843,186.73386v-1.5172c0,0 1.23631,-0.86239 1.83757,-2.53547c0.45997,-1.27994 0.27285,-3.47715 0.52355,-3.47715c0.73598,0 1.69705,6.01261 1.69705,6.01261v1.5172z" data-paper-data="{&quot;index&quot;:null}" fill="url(#color-15)" stroke="#000000" stroke-width="0" stroke-linecap="butt"></path><path d="M223.37524,183.34365v-1.96219c0,0 1.24295,-7.7761 2.19479,-7.7761c0.32424,0 0.08223,2.84164 0.67711,4.497c0.77761,2.16379 2.37652,3.27912 2.37652,3.27912v1.96219z" data-paper-data="{&quot;index&quot;:null}" fill="url(#color-16)" stroke="#000000" stroke-width="0" stroke-linecap="butt"></path><path d="M260.82259,172.16246v-1.22203c0,0 0.99578,-0.69461 1.48007,-2.04219c0.37048,-1.03093 0.21977,-2.80067 0.4217,-2.80067c0.59279,0 1.36689,4.84285 1.36689,4.84285v1.22203z" data-paper-data="{&quot;index&quot;:null}" fill="url(#color-17)" stroke="#000000" stroke-width="0" stroke-linecap="butt"></path><path d="M267.28752,167.54882v-0.9453c0,0 0.5988,-3.7462 1.05736,-3.7462c0.1562,0 0.03962,1.36899 0.32621,2.16647c0.37462,1.04242 1.14491,1.57974 1.14491,1.57974v0.94531z" data-paper-data="{&quot;index&quot;:null}" fill="url(#color-18)" stroke="#000000" stroke-width="0" stroke-linecap="butt"></path><path d="M256.26092,169.69186l0.03399,-0.59471c0,0 0.64226,-1.41853 1.24292,-2.9934c0.26644,-0.69858 -0.96717,-2.51365 -0.52198,-3.0365c0.47385,-0.55652 1.10958,-2.41548 1.36115,-2.43464c0.15158,-0.01154 0.04326,0.2776 0.10508,0.54675c0.1626,0.70775 0.29194,1.91394 0.36011,1.91783c0.22256,0.01272 -0.355,0.64662 -0.23539,1.91134c0.16512,1.74584 0.9839,4.27698 0.9839,4.27698l-0.03399,0.59471z" data-paper-data="{&quot;index&quot;:null}" fill="url(#color-19)" stroke="#000000" stroke-width="0" stroke-linecap="butt"></path><path d="M213.12071,169.41571v-1.31427c0,0 1.07094,-0.74704 1.59178,-2.19634c0.39845,-1.10875 0.23636,-3.01207 0.45353,-3.01207c0.63754,0 1.47006,5.2084 1.47006,5.2084v1.31427z" data-paper-data="{&quot;index&quot;:null}" fill="url(#color-20)" stroke="#000000" stroke-width="0" stroke-linecap="butt"></path><path d="M223.59406,164.73222v-1.05909c0,0 0.67088,-4.19714 1.18464,-4.19714c0.17501,0 0.04438,1.53377 0.36547,2.42725c0.41971,1.1679 1.28273,1.7699 1.28273,1.7699v1.05909z" data-paper-data="{&quot;index&quot;:null}" fill="url(#color-21)" stroke="#000000" stroke-width="0" stroke-linecap="butt"></path><path d="M209.45,203.45v-46.9h61.1v46.9z" fill="url(#color-22)" stroke="none" stroke-width="0" stroke-linecap="butt"></path></g></g></svg>