<svg version="1.1" xmlns="http://www.w3.org/2000/svg" xmlns:xlink="http://www.w3.org/1999/xlink" width="32.28649" height="33" viewBox="0,0,32.28649,33"><defs><radialGradient cx="242.10676" cy="179.75" r="16.5" gradientUnits="userSpaceOnUse" id="color-1"><stop offset="0" stop-color="#66edff"></stop><stop offset="1" stop-color="#66edff" stop-opacity="0"></stop></radialGradient><linearGradient x1="237.28976" y1="182.99147" x2="244.2342" y2="182.99147" gradientUnits="userSpaceOnUse" id="color-2"><stop offset="0" stop-color="#4066a0"></stop><stop offset="1" stop-color="#1c2c44"></stop></linearGradient><linearGradient x1="241.35927" y1="173.6316" x2="248.30371" y2="173.6316" gradientUnits="userSpaceOnUse" id="color-3"><stop offset="0" stop-color="#4066a0"></stop><stop offset="1" stop-color="#1c2c44"></stop></linearGradient><radialGradient cx="244.89932" cy="174.30985" r="4.61212" gradientUnits="userSpaceOnUse" id="color-4"><stop offset="0" stop-color="#4066a0"></stop><stop offset="1" stop-color="#1c2c44"></stop></radialGradient><radialGradient cx="245.03497" cy="173.97663" r="3.2602" gradientUnits="userSpaceOnUse" id="color-5"><stop offset="0" stop-color="#fff9d8"></stop><stop offset="1" stop-color="#e8dc8e"></stop></radialGradient><radialGradient cx="242.10676" cy="179.75" r="10.03378" gradientUnits="userSpaceOnUse" id="color-6"><stop offset="0" stop-color="#00ffeb" stop-opacity="0.50802"></stop><stop offset="1" stop-color="#00ffeb" stop-opacity="0"></stop></radialGradient></defs><g transform="translate(-225.96351,-163.25)"><g data-paper-data="{&quot;isPaintingLayer&quot;:true}" fill-rule="nonzero" stroke-linecap="butt" stroke-linejoin="miter" stroke-miterlimit="10" stroke-dasharray="" stroke-dashoffset="0" style="mix-blend-mode: normal"><path d="M258.25,179.75c0,9.1127 -7.22758,16.5 -16.14324,16.5c-8.91566,0 -16.14324,-7.3873 -16.14324,-16.5c0,-9.1127 7.22758,-16.5 16.14324,-16.5c8.91566,0 16.14324,7.3873 16.14324,16.5z" fill="url(#color-1)" stroke="none" stroke-width="NaN"></path><g><text transform="translate(239.5571,187.37581) rotate(-69.41175) scale(0.04789,0.04789)" font-size="40" xml:space="preserve" fill="#ffffff" fill-rule="nonzero" stroke="none" stroke-width="1" stroke-linecap="butt" stroke-linejoin="miter" stroke-miterlimit="10" stroke-dasharray="" stroke-dashoffset="0" font-family="Sans Serif" font-weight="normal" text-anchor="start" style="mix-blend-mode: normal"><tspan x="0" dy="0">xAmt8</tspan></text><g><path d="M237.28976,186.57838l4.22662,-9.59969l2.71782,2.42587l-3.88617,9.59969z" fill="url(#color-2)" stroke="none" stroke-width="NaN"></path><path d="M241.35927,177.2185l-0.65679,-3.90237l7.19428,3.23977l-3.47921,3.08847z" fill="url(#color-3)" stroke="none" stroke-width="NaN"></path><path d="M248.99588,176.42876c-0.41303,0.79852 -2.58195,0.49717 -4.84442,-0.67307c-2.26247,-1.17024 -3.76173,-2.76623 -3.34871,-3.56475c0.41303,-0.79852 2.58195,-0.49717 4.84442,0.67307c2.26247,1.17024 3.76173,2.76623 3.34871,3.56475z" fill="url(#color-4)" stroke="#000000" stroke-width="2.5"></path><path d="M247.93073,175.47444c-0.29196,0.56446 -1.82511,0.35144 -3.4244,-0.47577c-1.59929,-0.82722 -2.65909,-1.95538 -2.36713,-2.51984c0.29196,-0.56446 1.82512,-0.35144 3.4244,0.47577c1.59929,0.82722 2.65909,1.95539 2.36712,2.51984z" fill="url(#color-5)" stroke="#000000" stroke-width="2.5"></path><path d="M240.15997,188.70866c-0.40287,0.39167 -1.27982,0.1431 -1.95873,-0.5552c-0.6789,-0.6983 -0.90268,-1.58191 -0.49981,-1.97358c0.40287,-0.39167 1.27981,-0.1431 1.95872,0.55519c0.6789,0.6983 0.90269,1.58191 0.49982,1.97359z" fill="#395b8e" stroke="none" stroke-width="NaN"></path></g></g><path d="M234.52567,189.78379v-20.06757h15.16217v20.06757z" fill="url(#color-6)" stroke="none" stroke-width="0"></path></g></g></svg>