<svg version="1.1" xmlns="http://www.w3.org/2000/svg" xmlns:xlink="http://www.w3.org/1999/xlink" width="58.03954" height="75.64861" viewBox="0,0,58.03954,75.64861"><defs><linearGradient x1="242.47802" y1="177.99921" x2="260.52448" y2="177.99921" gradientUnits="userSpaceOnUse" id="color-1"><stop offset="0" stop-color="#8d3800"></stop><stop offset="1" stop-color="#d27a00"></stop></linearGradient><linearGradient x1="217.42471" y1="177.93888" x2="235.92929" y2="177.93888" gradientUnits="userSpaceOnUse" id="color-2"><stop offset="0" stop-color="#d27a00"></stop><stop offset="1" stop-color="#8d3800"></stop></linearGradient></defs><g transform="translate(-210.98023,-142.0507)"><g data-paper-data="{&quot;isPaintingLayer&quot;:true}" fill-rule="nonzero" stroke-width="0.5" stroke-linejoin="miter" stroke-miterlimit="10" stroke-dasharray="" stroke-dashoffset="0" style="mix-blend-mode: normal"><path d="M240.17403,152.91662l-0.70773,52.37191" fill="none" stroke="#652800" stroke-linecap="round"></path><path d="M215.26199,150.65189v-4.24637c0,0 14.76725,-4.10483 22.50577,-4.10483c8.35099,0 25.90286,4.10483 25.90286,4.10483v4.24637z" fill="#652800" stroke="#311300" stroke-linecap="butt"></path><path d="M210.98023,217.6993l4.66985,-12.80873h48.43299l4.9367,12.80873z" fill-opacity="0.45161" fill="#000000" stroke="none" stroke-linecap="butt"></path><g stroke-linecap="butt"><path d="M215.11638,205.55553v-55.23763h48.43299v55.23763z" fill="#000000" stroke="none"></path><path d="M216.66932,205.4382v-54.07046c0,0 13.097,0 20.24104,0c8.03739,0 25.61977,0 25.61977,0v54.07046z" fill="none" stroke="#652800"></path></g><g><path d="M241.7489,163.94688c0.3542,2.94623 -1.76958,5.62447 -4.74361,5.98202c-2.97402,0.35754 -5.67209,-1.74099 -6.02629,-4.68723c-0.3542,-2.94623 1.76958,-5.62447 4.74361,-5.98202c2.97402,-0.35754 5.67209,1.74099 6.02629,4.68723z" fill="#f1ad60" stroke="none" stroke-linecap="butt"></path><path d="M234.76442,191.53889l-2.58958,-21.5398l10.26663,-1.23428l2.58958,21.5398z" fill="#ff6666" stroke="none" stroke-linecap="butt"></path><path d="M233.77267,162.78706c-0.02673,-0.22235 0.13186,-0.42429 0.35421,-0.45102c0.22235,-0.02673 0.42429,0.13186 0.45102,0.35421c0.02673,0.22235 -0.13186,0.42429 -0.35421,0.45102c-0.22235,0.02673 -0.42429,-0.13186 -0.45102,-0.35421z" fill="#000000" stroke="none" stroke-linecap="butt"></path><path d="M237.50688,162.21049c-0.02673,-0.22235 0.13186,-0.42429 0.35421,-0.45102c0.22235,-0.02673 0.42429,0.13186 0.45102,0.35421c0.02673,0.22235 -0.13186,0.42429 -0.35421,0.45102c-0.22235,0.02673 -0.42429,-0.13186 -0.45102,-0.35421z" fill="#000000" stroke="none" stroke-linecap="butt"></path><path d="M238.50415,166.01383c0.38175,0.13676 0.245,0.51851 0.245,0.51851l-0.05559,0.02824c0.14478,2.23625 -3.61849,1.36531 -4.56889,0.38591c0,0 -0.28029,-0.29305 0.01276,-0.57334c0.29305,-0.28029 0.57334,0.01276 0.57334,0.01276c0.43381,0.46187 3.42699,1.28052 3.17757,0.27148l0.09731,-0.39858c0,0 0.13676,-0.38175 0.51851,-0.245z" fill="#000000" stroke="none" stroke-linecap="butt"></path><path d="M236.93133,172.28628l-1.73587,-2.54823l3.42221,-0.41143l-1.25953,3.11256z" fill="#ffffff" stroke="none" stroke-linecap="butt"></path><path d="M237.42097,201.83875l-1.29479,-10.7699l3.12025,-0.37512l1.29479,10.7699z" fill="#66a6ff" stroke="none" stroke-linecap="butt"></path><path d="M242.48993,201.53567l-1.29479,-10.7699l3.12025,-0.37512l1.29479,10.7699z" fill="#66a6ff" stroke="none" stroke-linecap="butt"></path><path d="M235.36006,204.23079l-0.33882,-2.81829c0,0 0.93653,0.30663 1.76367,-0.37347c0.77083,-0.63381 1.41751,-2.25536 1.8956,-2.31283c0.55808,-0.06709 1.77602,2.03286 1.77602,2.03286l0.33882,2.81829z" fill="#a06140" stroke="none" stroke-linecap="butt"></path><path d="M242.29304,203.29519l-0.33882,-2.81829c0,0 0.6855,-2.32879 1.24358,-2.39588c0.4781,-0.05748 1.49068,1.36459 2.38978,1.79764c0.96476,0.46467 1.80192,-0.05519 1.80192,-0.05519l0.33882,2.81829z" data-paper-data="{&quot;index&quot;:null}" fill="#a06140" stroke="none" stroke-linecap="butt"></path><path d="M230.92443,187.65514c0,0 -0.37911,-5.80659 -0.15616,-8.62953c0.22002,-2.78596 1.48517,-8.19864 1.48517,-8.19864l1.01389,5.01993l-0.58485,13.67546z" fill="#f1ad60" stroke="none" stroke-linecap="butt"></path><path d="M246.8236,189.25178l-3.80953,-13.14716l-0.20482,-5.1172c0,0 2.51201,4.95858 3.38609,7.61301c0.88569,2.68966 1.89366,8.42064 1.89366,8.42064z" data-paper-data="{&quot;index&quot;:null}" fill="#f1ad60" stroke="none" stroke-linecap="butt"></path><path d="M233.91009,174.33428c0.18379,1.52871 -0.0728,2.81672 -0.57311,2.87687c-0.5003,0.06015 -1.05487,-1.13035 -1.23865,-2.65906c-0.18379,-1.52871 0.0728,-2.81672 0.57311,-2.87687c0.5003,-0.06015 1.05487,1.13035 1.23865,2.65906z" fill="#da5757" stroke="none" stroke-linecap="butt"></path><path d="M243.88301,174.05429c0.18379,1.52871 -0.0728,2.81672 -0.57311,2.87687c-0.5003,0.06015 -1.05487,-1.13035 -1.23865,-2.65906c-0.18379,-1.52871 0.0728,-2.81672 0.57311,-2.87687c0.5003,-0.06015 1.05487,1.13035 1.23865,2.65906z" fill="#da5757" stroke="none" stroke-linecap="butt"></path><path d="M239.83123,190.62549l-2.62303,-18.03912" fill="none" stroke="#000000" stroke-linecap="round"></path><path d="M231.45283,161.27923c0,0 0.03899,0.94264 0.01481,0.7415c-0.02565,-0.21333 -0.88844,-1.82572 -0.88844,-1.82572c0,0 2.86264,-1.31042 4.42816,-1.49863c1.67529,-0.20141 5.31661,0.32709 5.31661,0.32709l0.3111,1.96946c0,0 -2.46845,-0.16067 -4.93701,0.24378c-1.59444,0.26123 -3.36138,1.12552 -3.88449,1.18841c-0.20794,0.025 -0.03535,-0.62676 -0.26902,-0.90095c-0.19345,-0.22698 -0.09173,-0.24493 -0.09173,-0.24493z" fill="#000000" stroke="none" stroke-linecap="butt"></path><path d="M236.19121,160.31075c0.07724,0.21043 -0.65109,0.67131 -1.62675,1.0294c-0.97566,0.35808 -1.8292,0.47777 -1.90644,0.26734c-0.07724,-0.21043 0.65109,-0.67131 1.62675,-1.0294c0.97566,-0.35808 1.8292,-0.47777 1.90644,-0.26734z" fill="#484343" stroke="none" stroke-linecap="butt"></path><path d="M236.72229,192.74501l0.26986,1.00815" fill="none" stroke="#0035ea" stroke-linecap="round"></path><path d="M238.49638,196.9914l-0.02964,-1.483" fill="none" stroke="#0035ea" stroke-linecap="round"></path><path d="M237.7757,198.41594l-0.34913,-1.66757" fill="none" stroke="#0035ea" stroke-linecap="round"></path><path d="M243.5023,197.20717l-0.19659,-1.01695l-0.23783,-1.97827" fill="none" stroke="#0035ea" stroke-linecap="round"></path><path d="M243.40178,193.27988l-0.04445,-2.22449" fill="none" stroke="#0035ea" stroke-linecap="round"></path><path d="M242.19104,191.86455l0.19379,1.61192" fill="none" stroke="#0035ea" stroke-linecap="round"></path><path d="M244.2582,196.07571l0.28747,1.15469" fill="none" stroke="#0035ea" stroke-linecap="round"></path><path d="M237.99989,191.62514l0.24063,1.38331" fill="none" stroke="#0035ea" stroke-linecap="round"></path><path d="M238.28019,200.13916l0.70627,-0.3079" fill="none" stroke="#000000" stroke-linecap="round"></path><path d="M238.98086,201.02119l0.62419,-0.37235" fill="none" stroke="#000000" stroke-linecap="round"></path><path d="M243.24206,199.9886l0.69186,0.80876" fill="none" stroke="#000000" stroke-linecap="round"></path><path d="M244.71346,200.48066l-0.90286,-0.70906" fill="none" stroke="#000000" stroke-linecap="round"></path><path d="M230.67149,178.74065l1.22764,-5.55772l1.80489,2.02675l-1.11074,4.0571z" fill="#da5757" stroke="none" stroke-linecap="butt"></path><path d="M244.46947,179.4705l-2.0407,-3.67822l1.27307,-2.39679l2.50995,5.10837z" data-paper-data="{&quot;index&quot;:null}" fill="#da5757" stroke="none" stroke-linecap="butt"></path><path d="M231.51554,189.85758l0.43879,-2.08887l0.74677,0.10142l-0.27304,2.01055c0,0 -0.3852,0.45768 -0.54923,0.45353c-0.13407,-0.0034 -0.36331,-0.47663 -0.36331,-0.47663z" fill="#f1ad60" stroke="none" stroke-linecap="butt"></path><path d="M230.61656,189.20367l0.43879,-2.08888l0.74678,0.10142l-0.27304,2.01056c0,0 -0.3852,0.45768 -0.54923,0.45352c-0.13407,-0.0034 -0.36331,-0.47662 -0.36331,-0.47662z" fill="#f1ad60" stroke="none" stroke-linecap="butt"></path><path d="M229.59954,188.25295l1.637,-1.36973l0.52399,0.54167l-1.45833,1.41073c0,0 -0.58578,0.12129 -0.71208,0.01656c-0.10324,-0.08561 0.00942,-0.59923 0.00942,-0.59923z" fill="#f1ad60" stroke="none" stroke-linecap="butt"></path><path d="M233.26722,190.00332l-1.1478,-1.79959l0.60457,-0.44996l1.21144,1.62766c0,0 0.04494,0.59652 -0.07517,0.7083c-0.09817,0.09137 -0.59304,-0.08641 -0.59304,-0.08641z" fill="#f1ad60" stroke="none" stroke-linecap="butt"></path><path d="M233.97743,188.89466l-1.98799,-0.77708l0.22311,-0.71985l1.93805,0.60069c0,0 0.38794,0.45537 0.3568,0.61647c-0.02544,0.13168 -0.52999,0.27978 -0.52999,0.27978z" fill="#f1ad60" stroke="none" stroke-linecap="butt"></path><path d="M248.05073,190.48907c-0.15836,0.04291 -0.64106,-0.31043 -0.64106,-0.31043l-0.7418,-1.88855l0.70146,-0.27553l0.92139,1.92534c0,0 -0.11054,0.51409 -0.23998,0.54916z" data-paper-data="{&quot;index&quot;:null}" fill="#f1ad60" stroke="none" stroke-linecap="butt"></path><path d="M248.4744,189.61776c-0.15837,0.04291 -0.64106,-0.31043 -0.64106,-0.31043l-0.7418,-1.88855l0.70146,-0.27553l0.92139,1.92534c0,0 -0.11053,0.51408 -0.23998,0.54916z" data-paper-data="{&quot;index&quot;:null}" fill="#f1ad60" stroke="none" stroke-linecap="butt"></path><path d="M249.92296,188.5068c-0.09788,0.13169 -0.69571,0.15269 -0.69571,0.15269l-1.75114,-1.02488l0.38067,-0.65042l1.91501,0.94269c0,0 0.23119,0.47228 0.15118,0.57992z" data-paper-data="{&quot;index&quot;:null}" fill="#f1ad60" stroke="none" stroke-linecap="butt"></path><path d="M246.06783,190.7212c-0.14318,-0.08012 -0.24091,-0.6703 -0.24091,-0.6703l0.79113,-1.86842l0.69399,0.29385l-0.68855,2.02035c0,0 -0.43862,0.29002 -0.55565,0.22451z" data-paper-data="{&quot;index&quot;:null}" fill="#f1ad60" stroke="none" stroke-linecap="butt"></path><path d="M245.08953,189.44176c-0.06843,-0.14913 0.20052,-0.68346 0.20052,-0.68346l1.74046,-1.04293l0.38738,0.64646l-1.74714,1.22613c0,0 -0.52526,-0.02429 -0.5812,-0.14619z" data-paper-data="{&quot;index&quot;:null}" fill="#f1ad60" stroke="none" stroke-linecap="butt"></path></g><g stroke-linecap="butt"><path d="M242.47802,204.55064v-53.10284h18.04646v53.10284z" fill="url(#color-1)" stroke="none"></path><path d="M246.86932,198.84124v-9.62511h9.32151v9.62511z" fill="none" stroke="#7b3100"></path><path d="M247.10834,181.85576v-9.62511h9.32151v9.62511z" fill="none" stroke="#7b3100"></path><path d="M247.24547,164.46652v-9.62511h9.32151v9.62511z" fill="none" stroke="#7b3100"></path><g><path d="M246.34859,179.99906c-0.91799,-0.26238 -1.46464,-1.44464 -1.22096,-2.64066c0.24367,-1.19602 1.1854,-1.95288 2.10339,-1.69051c0.91799,0.26238 1.46464,1.44464 1.22096,2.64066c-0.24367,1.19602 -1.18539,1.95289 -2.10338,1.69051z" fill="#fff4ce" stroke="#e6ddbb"></path><path d="M246.94194,178.80673c-0.5703,-0.163 -0.90991,-0.89749 -0.75852,-1.64052c0.15138,-0.74303 0.73643,-1.21323 1.30674,-1.05023c0.5703,0.163 0.90991,0.89749 0.75852,1.64052c-0.15138,0.74303 -0.73643,1.21323 -1.30674,1.05023z" fill="#e6ddbb" stroke="#e6ddbb"></path><path d="M243.61498,178.09459l1.34522,-0.60567l0.51136,1.59331l-1.34522,0.60567z" fill="#e6ddbb" stroke="none"></path><path d="M244.72535,180.01492c-0.47519,0.78283 -0.84425,-0.09876 -1.01121,-0.50715c-0.26053,-0.63727 -0.21213,-1.2712 0.00059,-1.85757l-0.04742,-0.01355l0.06751,-0.3314v0c0.03219,-0.158 0.16643,-0.25518 0.29983,-0.21705c0.09643,0.02756 0.16603,0.11827 0.18505,0.22611l0.07117,0.36517l-0.00995,0.00272l0.01459,0.02897c0.00035,0.03212 0.00069,0.06423 0.00104,0.09635c0.03448,0.03389 0.06056,0.07823 0.07554,0.12787c0.04333,0.05467 0.06839,0.12809 0.0675,0.20541l0.00228,0.32995c0.02868,0.21043 0.36092,1.41655 0.28345,1.54418z" fill="#fff4ce" stroke="none"></path></g></g><g stroke-linecap="butt"><path d="M217.42471,204.4903v-53.10284h18.50459v53.10284z" fill="url(#color-2)" stroke="none"></path><path d="M221.13153,164.55585v-9.62511h9.16466v9.62511z" fill="none" stroke="#7b3100"></path><path d="M221.06411,181.88476v-9.62511h9.16466v9.62511z" fill="none" stroke="#7b3100"></path><path d="M220.8792,198.36439v-9.62511h9.16466v9.62511z" fill="none" stroke="#7b3100"></path><g data-paper-data="{&quot;index&quot;:null}"><path d="M230.81704,178.17513c-0.23958,-1.19602 0.29787,-2.37828 1.20042,-2.64065c0.90255,-0.26238 1.82842,0.49449 2.068,1.69051c0.23958,1.19602 -0.29787,2.37828 -1.20042,2.64066c-0.90255,0.26238 -1.82842,-0.49449 -2.068,-1.69051z" fill="#fff4ce" stroke="#e6ddbb"></path><path d="M231.01693,177.62308c-0.14884,-0.74303 0.18505,-1.47752 0.74576,-1.64052c0.56071,-0.163 1.13592,0.3072 1.28475,1.05023c0.14884,0.74303 -0.18505,1.47752 -0.74576,1.64052c-0.56071,0.163 -1.13592,-0.3072 -1.28475,-1.05023z" fill="#e6ddbb" stroke="#e6ddbb"></path><path d="M235.06989,179.55447l-1.32258,-0.60567l0.50276,-1.5933l1.32258,0.60567z" fill="#e6ddbb" stroke="none"></path><path d="M234.48097,179.8815c-0.07616,-0.12762 0.25049,-1.33375 0.27869,-1.54418l0.00224,-0.32995c-0.00088,-0.07732 0.02376,-0.15075 0.06637,-0.20541c0.01473,-0.04964 0.04036,-0.09398 0.07427,-0.12787c0.00034,-0.03212 0.00068,-0.06423 0.00102,-0.09634l0.01434,-0.02897l-0.00977,-0.00272l0.06997,-0.36517c0.0187,-0.10784 0.08712,-0.19855 0.18192,-0.22611c0.13116,-0.03813 0.26315,0.05905 0.2948,0.21705v0l0.06638,0.33139l-0.04662,0.01355c0.20914,0.58637 0.25672,1.2203 0.00058,1.85757c-0.16415,0.40838 -0.527,1.28997 -0.99419,0.50715z" fill="#fff4ce" stroke="none"></path></g></g></g></g></svg>