<svg version="1.1" xmlns="http://www.w3.org/2000/svg" xmlns:xlink="http://www.w3.org/1999/xlink" width="113.61766" height="85.47797" viewBox="0,0,113.61766,85.47797"><g transform="translate(-183.2442,-137.22351)"><g data-paper-data="{&quot;isPaintingLayer&quot;:true}" fill-rule="nonzero" stroke-linecap="butt" stroke-linejoin="miter" stroke-miterlimit="10" stroke-dasharray="" stroke-dashoffset="0" style="mix-blend-mode: normal"><path d="" data-paper-data="{&quot;index&quot;:null}" fill="#000000" stroke="none" stroke-width="0.25"></path><path d="" fill="#e6e6e6" stroke="#000000" stroke-width="0.25"></path><path d="" fill="#8e6544" stroke="none" stroke-width="0.25"></path><path d="" fill="#d59866" stroke="none" stroke-width="0.25"></path><path d="" fill="#ab7a52" stroke="none" stroke-width="0.25"></path><path d="" fill="#ab7a52" stroke="none" stroke-width="0.25"></path><path d="" fill="#dadada" stroke="none" stroke-width="0.25"></path><path d="" fill="#fff4ce" stroke="#e6ddbb" stroke-width="0.25"></path><path d="" fill="#e6ddbb" stroke="#e6ddbb" stroke-width="0.25"></path><path d="" fill="#e6ddbb" stroke="none" stroke-width="0.25"></path><path d="" fill="#fff4ce" stroke="none" stroke-width="0.25"></path><path d="M291.99747,222.00761v-83.29102h4.40816v83.29102z" fill="#915e23" stroke="none" stroke-width="0.15"></path><path d="M184.37505,222.56103l0.73127,-83.98201l5.2811,0.14046l-0.73127,83.98201z" fill="#d18732" stroke="none" stroke-width="0.15"></path><path d="M184.37675,222.35698v-9.84554h111.99766v9.84554z" fill="#6a55ba" stroke="none" stroke-width="0.15"></path><path d="M184.23242,154.88986v-16.66601h112.16663v16.66601z" fill="#5453b0" stroke="none" stroke-width="0.15"></path><path d="M189.65555,177.10164l-6.27239,-0.01037c0.14367,-0.48575 0.39209,-0.95044 0.4203,-1.45417c0.01368,-0.24418 -0.18849,-0.45537 -0.23201,-0.69603c-0.00706,-0.03905 0.09741,0.07417 0.11295,0.03765c0.14427,-0.33916 0.25474,-0.69552 0.32111,-1.05806c0.04178,-0.22822 -0.03409,-0.46653 0,-0.69603c0.05384,-0.36247 0.26197,-0.70122 0.26197,-1.06766c0,-0.36644 -0.20813,-0.70519 -0.26197,-1.06766c-0.03409,-0.22949 0.04191,-0.46783 0,-0.69603c-0.02775,-0.15111 -0.18792,-0.26061 -0.20376,-0.41343c-0.03,-0.28949 0.2539,-0.52549 0.34667,-0.80135c0,0 0.03758,-0.11274 0.07022,-0.2957l5.45049,0.00901z" data-paper-data="{&quot;index&quot;:null}" fill="#000000" stroke="none" stroke-width="0.15"></path><path d="M188.7794,177.33065l-1.22079,-0.00202l0.00072,-0.436l1.22079,0.00202z" fill="#e6e6e6" stroke="#000000" stroke-width="0.15"></path><path d="M189.64156,185.56108l-5.87821,-0.00972c0.1273,-1.48413 0.05204,-2.99268 0.01015,-4.48569c-0.34611,-1.14329 -0.67214,-2.45175 -0.46402,-3.66489c0.00344,-0.02005 0.00716,-0.04005 0.01114,-0.05999l6.33451,0.01047z" fill="#8e6544" stroke="none" stroke-width="0.15"></path><path d="M188.28841,184.86749l-4.14812,-0.00686l0.011,-6.65427l4.14812,0.00686z" fill="none" stroke="#513a27" stroke-width="0.15"></path><g stroke="#000000" stroke-width="0.15"><path d="M202.48393,144.37495l1.8498,-5.60666l5.60666,1.8498l-1.8498,5.60666z" fill="#9966ff"></path><path d="M206.2408,151.83141l1.8498,-5.60666l5.60666,1.8498l-1.8498,5.60666z" fill="#9966ff"></path><path d="M208.22408,146.26879l1.8498,-5.60666l5.60666,1.8498l-1.8498,5.60666z" fill="#000000"></path><path d="M200.72359,150.15914l1.8498,-5.60666l5.60666,1.8498l-1.8498,5.60666z" fill="#000000"></path></g><g stroke="#000000" stroke-width="0.15"><path d="M274.82701,145.40006l3.65015,-2.21428l2.21428,3.65015l-3.65015,2.21428z" fill="#9966ff"></path><path d="M273.39114,151.26448l3.65015,-2.21428l2.21428,3.65015l-3.65015,2.21428z" fill="#9966ff"></path><path d="M277.09401,149.13712l3.65015,-2.21428l2.21428,3.65015l-3.65015,2.21428z" fill="#000000"></path><path d="M271.14268,147.75397l3.65015,-2.21428l2.21428,3.65015l-3.65015,2.21428z" fill="#000000"></path></g><g stroke="#000000" stroke-width="0.15"><path d="M228.18905,148.79904l-0.78419,-4.19662l4.19662,-0.7842l0.7842,4.19662z" fill="#9966ff"></path><path d="M233.16987,152.21146l-0.7842,-4.19662l4.19662,-0.78419l0.7842,4.19662z" fill="#9966ff"></path><path d="M232.48559,147.99617l-0.7842,-4.19662l4.19662,-0.7842l0.78419,4.19662z" fill="#000000"></path><path d="M229.09183,153.07691l-0.78419,-4.19662l4.19662,-0.7842l0.7842,4.19662z" fill="#000000"></path></g><g stroke="#000000" stroke-width="0.15"><path d="M242.22219,138.82012l1.42176,-1.27871c0.07421,-0.01242 0.11636,-0.02296 0.11636,-0.02296c1.47197,-0.40864 3.03739,-0.11311 4.55397,-0.16189l1.68692,1.87565l-4.09555,3.68346z" fill="#9966ff"></path><path d="M241.8101,146.59913l4.09555,-3.68346l3.68346,4.09555l-4.09555,3.68346z" fill="#9966ff"></path><path d="M245.99335,143.01318l4.09555,-3.68346l3.68346,4.09555l-4.09555,3.68346z" fill="#000000"></path><path d="M238.11683,142.68879l4.09555,-3.68346l3.68346,4.09555l-4.09555,3.68346z" fill="#000000"></path></g><g stroke="#000000" stroke-width="0.15"><path d="M290.29642,145.49503l-2.13557,-2.1619l2.1619,-2.13557l2.13557,2.1619z" fill="#9966ff"></path><path d="M294.5939,145.52135l-2.13557,-2.1619l2.1619,-2.13557l2.13557,2.1619z" fill="#9966ff"></path><path d="M292.5098,143.30861l-2.13558,-2.1619l2.1619,-2.13558l2.13557,2.1619z" fill="#000000"></path><path d="M292.53432,147.65756l-2.13557,-2.1619l2.1619,-2.13557l2.13557,2.1619z" fill="#000000"></path></g><g stroke="#000000" stroke-width="0.15"><path d="M209.22468,217.57011l0.28024,-4.26005l4.26005,0.28024l-0.28024,4.26005z" fill="#9966ff"></path><path d="M213.2045,222.1104l0.28024,-4.26005l4.26006,0.28024l-0.28024,4.26005z" fill="#9966ff"></path><path d="M213.58617,217.85702l0.28024,-4.26006l4.26006,0.28024l-0.28024,4.26006z" fill="#000000"></path><path d="M209.0392,221.93827l0.28024,-4.26006l4.26005,0.28024l-0.28024,4.26005z" fill="#000000"></path></g><g stroke="#000000" stroke-width="0.15"><path d="M273.71938,220.8073l-1.15609,1.49494c-0.82236,-0.31013 -1.87775,-0.29747 -2.68471,-0.49547l-1.40078,0.34397l-0.74734,-0.57794l2.61172,-3.37721z" fill="#9966ff"></path><path d="M272.95389,214.81837l-2.61172,3.37721l-3.37721,-2.61172l2.61172,-3.37721z" fill="#9966ff"></path><path d="M270.26176,218.1334l-2.61172,3.37721l-3.37721,-2.61172l2.61172,-3.37721z" fill="#000000"></path><path d="M276.31287,217.2875l-2.61172,3.37721l-3.37721,-2.61172l2.61172,-3.37721z" fill="#000000"></path></g></g></g></svg>