<svg version="1.1" xmlns="http://www.w3.org/2000/svg" xmlns:xlink="http://www.w3.org/1999/xlink" width="76.00895" height="169.57552" viewBox="0,0,76.00895,169.57552"><g transform="translate(-201.99552,-95.21224)"><g data-paper-data="{&quot;isPaintingLayer&quot;:true}" fill-rule="nonzero" stroke-linejoin="miter" stroke-miterlimit="10" stroke-dasharray="" stroke-dashoffset="0" style="mix-blend-mode: normal"><path d="M258.47597,117.76307c0,11.12035 -9.09988,20.13516 -20.32512,20.13516c-11.22524,0 -20.32512,-9.01481 -20.32512,-20.13516c0,-11.12035 9.09988,-20.13516 20.32512,-20.13516c11.22524,0 20.32512,9.01481 20.32512,20.13516z" fill="#f1ad60" stroke="none" stroke-width="0" stroke-linecap="butt"></path><path d="M220.14703,217.29917v-81.30047h38.75069v81.30047z" fill="#ff6666" stroke="none" stroke-width="0" stroke-linecap="butt"></path><path d="M229.31797,109.87997c0,-0.83926 0.68037,-1.51964 1.51964,-1.51964c0.83926,0 1.51964,0.68037 1.51964,1.51964c0,0.83926 -0.68037,1.51964 -1.51964,1.51964c-0.83926,0 -1.51964,-0.68037 -1.51964,-1.51964z" fill="#000000" stroke="none" stroke-width="0.5" stroke-linecap="butt"></path><path d="M243.46957,109.40508c0,-0.83926 0.68037,-1.51964 1.51964,-1.51964c0.83926,0 1.51964,0.68037 1.51964,1.51964c0,0.83926 -0.68037,1.51964 -1.51964,1.51964c-0.83926,0 -1.51964,-0.68037 -1.51964,-1.51964z" fill="#000000" stroke="none" stroke-width="0.5" stroke-linecap="butt"></path><path d="M245.47883,124.00206c1.35919,0.67961 0.67961,2.0388 0.67961,2.0388l-0.21947,0.08021c-0.46163,8.38507 -14.07386,3.46127 -17.17188,-0.60785c0,0 -0.91178,-1.21571 0.30393,-2.12749c1.21571,-0.91178 2.12749,0.30393 2.12749,0.30393c1.40746,1.91249 12.17787,6.29728 11.70119,2.43142l0.54035,-1.43943c0,0 0.67961,-1.35919 2.0388,-0.67961z" fill="#000000" stroke="none" stroke-width="0.5" stroke-linecap="butt"></path><path d="M236.82117,146.63614l-5.31872,-10.25754h12.9169l-6.07854,11.01735z" fill="#ffffff" stroke="none" stroke-width="0" stroke-linecap="butt"></path><path d="M225.4239,256.80968v-40.65024h11.77717v40.65024z" fill="#66a6ff" stroke="none" stroke-width="0" stroke-linecap="butt"></path><path d="M244.41934,257.94943v-40.65024h11.77717v40.65024z" fill="#66a6ff" stroke="none" stroke-width="0" stroke-linecap="butt"></path><path d="M216.686,264.78776v-10.63745c0,0 3.34733,1.55978 6.72904,-0.60065c3.15151,-2.01339 6.2829,-7.75734 8.08741,-7.75734c2.10643,0 5.69863,8.35799 5.69863,8.35799v10.63745z" fill="#a06140" stroke="none" stroke-width="0" stroke-linecap="butt"></path><path d="M242.89971,264.40788v-10.63745c0,0 3.5922,-8.35799 5.69863,-8.35799c1.80454,0 4.9359,5.74395 8.08744,7.75734c3.38167,2.16043 6.729,0.60065 6.729,0.60065v10.63745z" data-paper-data="{&quot;index&quot;:null}" fill="#a06140" stroke="none" stroke-width="0" stroke-linecap="butt"></path><path d="M207.59697,201.13141c0,0 1.1868,-21.77388 3.27904,-32.17733c2.06482,-10.26717 9.19312,-29.83998 9.19312,-29.83998l1.52687,19.13093l-8.29316,50.62005z" fill="#f1ad60" stroke="none" stroke-width="0" stroke-linecap="butt"></path><path d="M266.03809,214.18379l-8.29313,-50.62005l1.5269,-19.13096c0,0 7.1283,19.57281 9.19309,29.84001c2.09223,10.40345 3.27904,32.17733 3.27904,32.17733z" data-paper-data="{&quot;index&quot;:null}" fill="#f1ad60" stroke="none" stroke-width="0" stroke-linecap="butt"></path><path d="M224.66409,152.90463c0,5.76999 -1.53082,10.44749 -3.41918,10.44749c-1.88836,0 -3.41918,-4.6775 -3.41918,-10.44749c0,-5.76999 1.53082,-10.44749 3.41918,-10.44749c1.88836,0 3.41918,4.6775 3.41918,10.44749z" fill="#da5757" stroke="none" stroke-width="0" stroke-linecap="butt"></path><path d="M261.89514,156.32384c0,5.76999 -1.53082,10.44749 -3.41918,10.44749c-1.88836,0 -3.41918,-4.6775 -3.41918,-10.44749c0,-5.76999 1.53082,-10.44749 3.41918,-10.44749c1.88836,0 3.41918,4.6775 3.41918,10.44749z" fill="#da5757" stroke="none" stroke-width="0" stroke-linecap="butt"></path><path d="M237.71708,147.87653l1.69035,68.2906" fill="none" stroke="#000000" stroke-width="0.25" stroke-linecap="round"></path><path d="M221.3611,103.23217c0,0 -0.27657,3.52467 -0.27657,2.76549c0,-0.80522 -2.48892,-7.19027 -2.48892,-7.19027c0,0 11.23706,-3.59515 17.14601,-3.59515c6.32326,0 19.63496,3.59515 19.63496,3.59515l0.27654,7.46682c0,0 -9.11237,-1.70196 -18.47794,-1.30135c-6.04921,0.25876 -13.00999,2.6841 -14.98442,2.6841c-0.78486,0 0.14883,-2.34778 -0.59792,-3.47246c-0.61822,-0.93105 -0.23174,-0.95232 -0.23174,-0.95232z" fill="#000000" stroke="none" stroke-width="0" stroke-linecap="butt"></path><path d="M239.42421,101.74831c0.19324,0.8175 -2.72276,2.20648 -6.51303,3.10237c-3.79027,0.89589 -7.01953,0.95941 -7.21277,0.1419c-0.19324,-0.8175 2.72276,-2.20648 6.51303,-3.10237c3.79027,-0.89589 7.01953,-0.95941 7.21277,-0.1419z" fill="#484343" stroke="none" stroke-width="0" stroke-linecap="butt"></path><path d="M226.89208,222.66248l0.55309,3.8717" fill="none" stroke="#0035ea" stroke-width="0.05" stroke-linecap="round"></path><path d="M232.1465,233.72442l-0.55309,5.53099" fill="none" stroke="#0035ea" stroke-width="0.05" stroke-linecap="round"></path><path d="M227.72171,237.87266l0.55309,6.36061" fill="none" stroke="#0035ea" stroke-width="0.05" stroke-linecap="round"></path><path d="M250.12217,242.29741l-0.27654,-3.87167v-7.46682" fill="none" stroke="#0035ea" stroke-width="0.05" stroke-linecap="round"></path><path d="M252.33454,219.3439l-0.82966,8.29645" fill="none" stroke="#0035ea" stroke-width="0.05" stroke-linecap="round"></path><path d="M247.63322,221.83282v6.08407" fill="none" stroke="#0035ea" stroke-width="0.05" stroke-linecap="round"></path><path d="M253.99383,242.85052l-0.55309,-4.42478" fill="none" stroke="#0035ea" stroke-width="0.05" stroke-linecap="round"></path><path d="M232.1465,219.06732l0.27654,5.25444" fill="none" stroke="#0035ea" stroke-width="0.05" stroke-linecap="round"></path><path d="M229.381,250.87043l2.76549,-0.82966" fill="none" stroke="#000000" stroke-width="0.1" stroke-linecap="round"></path><path d="M231.59341,254.46558l2.48895,-1.1062" fill="none" stroke="#000000" stroke-width="0.1" stroke-linecap="round"></path><path d="M250.12217,255.84833l-2.21241,-3.31858" fill="none" stroke="#000000" stroke-width="0.1" stroke-linecap="round"></path><path d="M250.12217,251.97663l3.04204,3.04204" fill="none" stroke="#000000" stroke-width="0.1" stroke-linecap="round"></path><path d="M210.64339,167.85055l7.05363,-20.12921l5.80877,8.34818l-5.94746,14.59822z" fill="#da5757" stroke="none" stroke-width="0" stroke-linecap="butt"></path><path d="M261.65443,176.73801l-5.94746,-14.59822l5.80877,-8.34818l7.05363,20.12921z" data-paper-data="{&quot;index&quot;:null}" fill="#da5757" stroke="none" stroke-width="0" stroke-linecap="butt"></path><path d="M208.81113,209.59033l2.56694,-7.57568l2.73312,0.71137l-1.91523,7.35844c0,0 -1.63792,1.53058 -2.24635,1.44177c-0.49732,-0.07261 -1.13854,-1.93589 -1.13854,-1.93589z" fill="#f1ad60" stroke="none" stroke-width="0" stroke-linecap="butt"></path><path d="M205.75882,206.75527l2.56694,-7.57571l2.73315,0.71137l-1.91523,7.35847c0,0 -1.63792,1.53058 -2.24635,1.44174c-0.49732,-0.07261 -1.13854,-1.93586 -1.13854,-1.93586z" fill="#f1ad60" stroke="none" stroke-width="0" stroke-linecap="butt"></path><path d="M202.4001,202.76304l6.70341,-4.36403l1.70728,2.24973l-6.05696,4.59653c0,0 -2.23374,0.18926 -2.65681,-0.25691c-0.34584,-0.36471 0.30308,-2.22532 0.30308,-2.22532z" fill="#f1ad60" stroke="none" stroke-width="0" stroke-linecap="butt"></path><path d="M215.26332,210.91615l-3.46559,-7.20906l2.45065,-1.40372l3.77927,6.59786c0,0 -0.09963,2.23955 -0.59652,2.60171c-0.40614,0.29606 -2.16785,-0.58679 -2.16785,-0.58679z" fill="#f1ad60" stroke="none" stroke-width="0" stroke-linecap="butt"></path><path d="M218.4017,207.10889l-7.04901,-3.78049l1.15213,-2.57852l6.94212,3.10185c0,0 1.23969,1.86781 1.05177,2.45327c-0.15357,0.47856 -2.09704,0.80389 -2.09704,0.80389z" fill="#f1ad60" stroke="none" stroke-width="0" stroke-linecap="butt"></path><path d="M270.05036,219.33621c-0.6084,0.08881 -2.24632,-1.44177 -2.24632,-1.44177l-1.9152,-7.35844l2.73312,-0.71137l2.56694,7.57568c0,0 -0.64123,1.86329 -1.13854,1.93589z" data-paper-data="{&quot;index&quot;:null}" fill="#f1ad60" stroke="none" stroke-width="0" stroke-linecap="butt"></path><path d="M272.01643,216.2839c-0.60843,0.08881 -2.24632,-1.44177 -2.24632,-1.44177l-1.91523,-7.35844l2.73312,-0.71137l2.56694,7.57568c0,0 -0.64119,1.86329 -1.13854,1.93589z" data-paper-data="{&quot;index&quot;:null}" fill="#f1ad60" stroke="none" stroke-width="0" stroke-linecap="butt"></path><path d="M277.90298,212.79834c-0.42307,0.4462 -2.65681,0.25691 -2.65681,0.25691l-6.05696,-4.59653l1.70728,-2.24973l6.70341,4.36403c0,0 0.64891,1.86061 0.30308,2.22532z" data-paper-data="{&quot;index&quot;:null}" fill="#f1ad60" stroke="none" stroke-width="0" stroke-linecap="butt"></path><path d="M262.56886,219.31293c-0.49689,-0.36216 -0.59652,-2.60171 -0.59652,-2.60171l3.77927,-6.59786l2.45065,1.40375l-3.46556,7.20903c0,0 -1.76168,0.88285 -2.16782,0.58679z" data-paper-data="{&quot;index&quot;:null}" fill="#f1ad60" stroke="none" stroke-width="0" stroke-linecap="butt"></path><path d="M259.50123,214.11499c-0.18789,-0.58545 1.05177,-2.45324 1.05177,-2.45324l6.94215,-3.10188l1.15213,2.57852l-7.04898,3.78049c0,0 -1.94346,-0.32532 -2.09704,-0.80389z" data-paper-data="{&quot;index&quot;:null}" fill="#f1ad60" stroke="none" stroke-width="0" stroke-linecap="butt"></path></g></g></svg>