<svg version="1.1" xmlns="http://www.w3.org/2000/svg" xmlns:xlink="http://www.w3.org/1999/xlink" width="13.83487" height="17.77517" viewBox="0,0,13.83487,17.77517"><defs><radialGradient cx="238.13083" cy="192.18226" r="1.25071" gradientUnits="userSpaceOnUse" id="color-1"><stop offset="0" stop-color="#ffffff" stop-opacity="0.53358"></stop><stop offset="1" stop-color="#46e3ff" stop-opacity="0.59161"></stop></radialGradient><radialGradient cx="241.64033" cy="191.70115" r="1.25071" gradientUnits="userSpaceOnUse" id="color-2"><stop offset="0" stop-color="#ffffff" stop-opacity="0.53358"></stop><stop offset="1" stop-color="#46e3ff" stop-opacity="0.55129"></stop></radialGradient><linearGradient x1="233.83612" y1="201.9878" x2="235.34637" y2="202.5323" gradientUnits="userSpaceOnUse" id="color-3"><stop offset="0" stop-color="#00fdff" stop-opacity="0.41129"></stop><stop offset="1" stop-color="#ffffff" stop-opacity="0.67742"></stop></linearGradient><linearGradient x1="245.4537" y1="202.13181" x2="244.00419" y2="202.82193" gradientUnits="userSpaceOnUse" id="color-4"><stop offset="0" stop-color="#00fdff" stop-opacity="0.41129"></stop><stop offset="1" stop-color="#ffffff" stop-opacity="0.67742"></stop></linearGradient><linearGradient x1="237.48243" y1="195.18926" x2="237.94883" y2="194.94837" gradientUnits="userSpaceOnUse" id="color-5"><stop offset="0" stop-color="#948a00"></stop><stop offset="1" stop-color="#948a00" stop-opacity="0"></stop></linearGradient><linearGradient x1="243.11718" y1="195.16957" x2="242.64022" y2="194.9503" gradientUnits="userSpaceOnUse" id="color-6"><stop offset="0" stop-color="#948a00"></stop><stop offset="1" stop-color="#948a00" stop-opacity="0"></stop></linearGradient></defs><g transform="translate(-232.52291,-191.03104)"><g data-paper-data="{&quot;isPaintingLayer&quot;:true}" fill-rule="nonzero" stroke="none" stroke-linecap="butt" stroke-linejoin="miter" stroke-miterlimit="10" stroke-dasharray="" stroke-dashoffset="0" style="mix-blend-mode: normal"><path d="M240.21212,191.03192c1.78312,-0.04084 3.26103,1.34035 3.30099,3.085c0.03996,1.74464 -1.37315,3.19206 -3.15627,3.23291c-1.78312,0.04084 -3.26103,-1.34035 -3.30099,-3.08499c-0.03996,-1.74464 1.37315,-3.19207 3.15627,-3.23291z" data-paper-data="{&quot;index&quot;:null}" fill="#000000" stroke-width="0"></path><path d="M242.51394,197.09903c0.1506,0.01178 0.14102,1.70926 -0.02205,3.79389c-0.12413,1.58691 -0.20144,2.57513 -0.32557,4.16205c-0.16307,2.08463 -0.41756,3.76295 -0.56816,3.75117c-1.05003,-0.08214 -3.92705,-0.30719 -4.97709,-0.38933c-0.1506,-0.01178 -0.1405,-1.70922 0.02257,-3.79385c0.12413,-1.58691 0.20144,-2.57513 0.32557,-4.16205c0.16307,-2.08463 0.41704,-3.76299 0.56764,-3.75121c1.05003,0.08214 3.92705,0.30719 4.97709,0.38933z" data-paper-data="{&quot;index&quot;:null}" fill="#000000" stroke-width="1"></path><path d="M244.96252,207.14729l-3.66229,-6.61138l1.39528,-1.20495l3.66228,6.61138z" data-paper-data="{&quot;index&quot;:null}" fill="#000000" stroke-width="0"></path><path d="M232.52291,205.50757l3.78679,-6.54086l1.75093,0.57698l-3.78679,6.54086z" data-paper-data="{&quot;index&quot;:null}" fill="#000000" stroke-width="0"></path><path d="M237.11828,194.17112c0,0 0.09931,-1.13834 0.28352,-1.44822c0.16827,-0.28307 0.82984,-0.95167 0.82984,-0.95167l0.15524,0.73672c0,0 -0.68135,0.26596 -0.84124,0.53493c-0.18911,0.31812 -0.22055,1.25119 -0.22055,1.25119z" fill="url(#color-1)" stroke-width="NaN"></path><path d="M243.19832,193.3387c0,0 -0.38894,-0.84874 -0.68612,-1.06928c-0.25128,-0.18647 -0.98248,-0.16902 -0.98248,-0.16902l-0.14096,-0.73959c0,0 0.86828,0.36166 1.13272,0.55791c0.28949,0.21484 0.82023,1.22677 0.82023,1.22677z" data-paper-data="{&quot;index&quot;:null}" fill="url(#color-2)" stroke-width="NaN"></path><path d="M232.56882,205.50286l3.75925,-6.64571l0.54566,0.27712l-4.06047,6.51387z" fill="url(#color-3)" stroke-width="0"></path><path d="M246.19501,205.99526l-4.04439,-6.40501l0.51581,-0.32935l3.61648,6.65436z" data-paper-data="{&quot;index&quot;:null}" fill="url(#color-4)" stroke-width="0"></path><path d="M238.66419,197.04584c0,0 -1.09842,-1.20725 -1.22152,-1.44561c-0.15879,-0.30745 -0.39685,-1.25633 -0.39685,-1.25633l0.46641,-0.24089l1.29721,2.05295z" fill="url(#color-5)" stroke-width="0"></path><path d="M241.83583,196.19602l1.20185,-2.11019l0.47695,0.21928c0,0 -0.19437,0.95878 -0.33891,1.27318c-0.11206,0.24374 -1.15404,1.50002 -1.15404,1.50002z" data-paper-data="{&quot;index&quot;:null}" fill="url(#color-6)" stroke-width="0"></path></g></g></svg>