<svg version="1.1" xmlns="http://www.w3.org/2000/svg" xmlns:xlink="http://www.w3.org/1999/xlink" width="15.3086" height="15.3086" viewBox="0,0,15.3086,15.3086"><defs><linearGradient x1="240" y1="172.69891" x2="240" y2="187.3011" gradientUnits="userSpaceOnUse" id="color-1"><stop offset="0" stop-color="#d15353"></stop><stop offset="1" stop-color="#843535"></stop></linearGradient><linearGradient x1="237.14853" y1="178.36953" x2="243.08951" y2="178.36953" gradientUnits="userSpaceOnUse" id="color-2"><stop offset="0" stop-color="#ffffff"></stop><stop offset="1" stop-color="#f1f1f1"></stop></linearGradient></defs><g transform="translate(-232.3457,-172.3457)"><g data-paper-data="{&quot;isPaintingLayer&quot;:true}" fill-rule="nonzero" stroke-linecap="butt" stroke-linejoin="miter" stroke-miterlimit="10" stroke-dasharray="" stroke-dashoffset="0" style="mix-blend-mode: normal"><g><text transform="translate(235.68325,180.82431) scale(0.07145,0.07145)" font-size="40" xml:space="preserve" fill="#0a0711" fill-rule="nonzero" stroke="none" stroke-width="1" stroke-linecap="butt" stroke-linejoin="miter" stroke-miterlimit="10" stroke-dasharray="" stroke-dashoffset="0" font-family="Sans Serif" font-weight="normal" text-anchor="start" style="mix-blend-mode: normal"><tspan x="0" dy="0">xamt8</tspan></text><path d="M240.3245,187.3011l-7.62559,-6.9766l6.9766,-7.62559l7.62559,6.9766z" fill="url(#color-1)" stroke="#c9a974" stroke-width="0.5"></path><path d="M237.61765,183.29412l-0.52941,-0.58824c0,0 6.11765,-0.00747 6.11765,0.05882c0,0.08559 -0.23529,0.52941 -0.23529,0.52941z" fill="#ffffff" stroke="none" stroke-width="0"></path><path d="M237.32829,181.33891l-0.17976,-2.07393c0,0 0.95921,-1.37698 1.22943,-2.18731c0.2885,-0.86514 0.45033,-2.84987 0.45033,-2.84987l1.81436,1.50546c0,0 0.51204,1.61227 0.44103,1.89185c-0.01317,0.05185 0.71125,-1.41791 0.72308,-1.2259c0.00895,0.14532 0.41039,0.65194 0.71233,1.29093c0.357,0.75549 0.61913,1.67392 0.56279,2.08221c-0.03377,0.24473 -0.18981,1.06372 -0.55027,1.69848c-0.34428,0.60626 -0.88966,1.03472 -1.08397,1.04037c-0.44871,0.01304 -0.1261,-2.24558 -0.1261,-2.24558l-1.32658,-1.98227c0,0 -1.03004,1.23126 -1.19608,1.89542c-0.18397,0.73587 0.14052,2.3268 0.14052,2.3268z" fill="url(#color-2)" stroke="none" stroke-width="0"></path></g></g></g></svg>