<svg version="1.1" xmlns="http://www.w3.org/2000/svg" xmlns:xlink="http://www.w3.org/1999/xlink" width="22.12801" height="34.69611" viewBox="0,0,22.12801,34.69611"><defs><linearGradient x1="234.72982" y1="176.76936" x2="234.72982" y2="179.26624" gradientUnits="userSpaceOnUse" id="color-1"><stop offset="0" stop-color="#e8d697"></stop><stop offset="1" stop-color="#d1ac88"></stop></linearGradient><linearGradient x1="245.83692" y1="176.91266" x2="245.83692" y2="179.40956" gradientUnits="userSpaceOnUse" id="color-2"><stop offset="0" stop-color="#e8d697"></stop><stop offset="1" stop-color="#d1ac88"></stop></linearGradient><linearGradient x1="234.58649" y1="184.58016" x2="234.58649" y2="187.07704" gradientUnits="userSpaceOnUse" id="color-3"><stop offset="0" stop-color="#e8d697"></stop><stop offset="1" stop-color="#d1ac88"></stop></linearGradient><linearGradient x1="245.69361" y1="184.72347" x2="245.69361" y2="187.22036" gradientUnits="userSpaceOnUse" id="color-4"><stop offset="0" stop-color="#e8d697"></stop><stop offset="1" stop-color="#d1ac88"></stop></linearGradient><linearGradient x1="235.7808" y1="171.53826" x2="235.7808" y2="174.03515" gradientUnits="userSpaceOnUse" id="color-5"><stop offset="0" stop-color="#e8d697"></stop><stop offset="1" stop-color="#d1ac88"></stop></linearGradient><linearGradient x1="246.88792" y1="171.68158" x2="246.88792" y2="174.17846" gradientUnits="userSpaceOnUse" id="color-6"><stop offset="0" stop-color="#e8d697"></stop><stop offset="1" stop-color="#d1ac88"></stop></linearGradient></defs><g transform="translate(-228.936,-162.65194)"><g data-paper-data="{&quot;isPaintingLayer&quot;:true}" fill-rule="nonzero" stroke-linejoin="miter" stroke-miterlimit="10" stroke-dasharray="" stroke-dashoffset="0" style="mix-blend-mode: normal"><text transform="translate(234.6156,191.88381) scale(0.08859,0.08859)" font-size="40" xml:space="preserve" fill="#cc9b39" fill-rule="nonzero" stroke="none" stroke-width="1" stroke-linecap="butt" stroke-linejoin="miter" stroke-miterlimit="10" stroke-dasharray="" stroke-dashoffset="0" font-family="Monospace" font-weight="normal" text-anchor="start" style="mix-blend-mode: normal"><tspan x="0" dy="0">xAmt8</tspan></text><path d="M249.83245,172.35141l-1.82668,-9.53856l3.05824,-0.03194l-0.72693,15.75649z" fill="#4e3b16" stroke="none" stroke-width="0" stroke-linecap="butt"></path><path d="M230.17409,192.2202l-1.22956,-27.49604l2.05853,-0.09204l1.22955,27.49604z" fill="#4e3b16" stroke="none" stroke-width="0" stroke-linecap="butt"></path><path d="M230.42733,192.19722v-27.08197h20.00357v27.08197z" fill="#946000" stroke="none" stroke-width="0" stroke-linecap="butt"></path><path d="M230.27927,165.48321v-2.75397h20.05956v2.75397z" fill="#ab8d55" stroke="none" stroke-width="0" stroke-linecap="butt"></path><path d="M228.936,164.63098l0.23966,-1.97904l1.39847,0.07837l-0.031,2.94635z" fill="#ab8d55" stroke="none" stroke-width="0" stroke-linecap="butt"></path><g fill="#000000"><g stroke="none" stroke-width="0" stroke-linecap="butt"><path d="M231.14835,173.88236v-0.99111h17.85894v0.99111z"></path><path d="M231.16533,167.90565v-0.99111h17.72976v0.99111z"></path><path d="M231.12413,173.66995l0.09274,-6.57264l0.74189,0.5738v5.37288z" data-paper-data="{&quot;index&quot;:null}"></path><path d="M231.88868,173.02609v-5.37288h16.32727v5.37288z"></path><path d="M248.20983,173.05285v-5.37288l0.74189,-0.5738l0.09274,6.57264z" data-paper-data="{&quot;index&quot;:null}"></path></g><g><path d="M233.56035,170.86019v-1.13532c0,0 0.64377,-0.69469 0.95667,-0.69469c0.36356,0 1.09562,0.69469 1.09562,0.69469v1.13532c0,0 -0.71114,0.6669 -1.06783,0.6669c-0.32433,0 -0.98447,-0.6669 -0.98447,-0.6669z" stroke="none" stroke-width="0" stroke-linecap="butt"></path><path d="M235.51737,169.78658l-0.9853,0.50597l-0.93203,-0.58585" stroke="#d3af89" stroke-width="0.25" stroke-linecap="round"></path><path d="M234.09872,170.81005v-0.52886c0,0 0.29989,-0.32359 0.44564,-0.32359c0.16935,0 0.51036,0.32359 0.51036,0.32359v0.52886c0,0 -0.33127,0.31066 -0.49742,0.31066c-0.15109,0 -0.45858,-0.31066 -0.45858,-0.31066z" stroke="none" stroke-width="0" stroke-linecap="butt"></path></g><g><path d="M244.66747,171.00351v-1.13532c0,0 0.64377,-0.69469 0.95669,-0.69469c0.36356,0 1.09562,0.69469 1.09562,0.69469v1.13532c0,0 -0.71114,0.6669 -1.06783,0.6669c-0.32433,0 -0.98447,-0.6669 -0.98447,-0.6669z" stroke="none" stroke-width="0" stroke-linecap="butt"></path><path d="M246.62448,169.9299l-0.98529,0.50597l-0.93203,-0.58585" stroke="#d3af89" stroke-width="0.25" stroke-linecap="round"></path><path d="M245.20584,170.95336v-0.52885c0,0 0.29989,-0.32359 0.44564,-0.32359c0.16935,0 0.51036,0.32359 0.51036,0.32359v0.52885c0,0 -0.33127,0.31066 -0.49742,0.31066c-0.15109,0 -0.45858,-0.31066 -0.45858,-0.31066z" stroke="none" stroke-width="0" stroke-linecap="butt"></path></g></g><g><g stroke="none" stroke-width="0" stroke-linecap="butt"><path d="M231.29167,181.6215v-0.99111h17.85894v0.99111z" fill="#ab8d55"></path><path d="M231.30863,175.6448v-0.99112h17.72976v0.99112z" fill="#ab8d55"></path><path d="M231.26745,181.40911l0.09274,-6.57264l0.74189,0.5738v5.37288z" data-paper-data="{&quot;index&quot;:null}" fill="#563a00"></path><path d="M232.032,180.76524v-5.37288h16.32726v5.37288z" fill="#805300"></path><path d="M248.35314,180.792v-5.37288l0.74189,-0.5738l0.09274,6.57264z" data-paper-data="{&quot;index&quot;:null}" fill="#563a00"></path></g><g><path d="M233.70367,178.59934v-1.13531c0,0 0.64377,-0.69469 0.95669,-0.69469c0.36356,0 1.09562,0.69469 1.09562,0.69469v1.13531c0,0 -0.71114,0.6669 -1.06783,0.6669c-0.32433,0 -0.98447,-0.6669 -0.98447,-0.6669z" fill="url(#color-1)" stroke="none" stroke-width="0" stroke-linecap="butt"></path><path d="M235.66068,177.52572l-0.98529,0.50597l-0.93203,-0.58585" fill="none" stroke="#d3af89" stroke-width="0.25" stroke-linecap="round"></path><path d="M234.24204,178.5492v-0.52886c0,0 0.29989,-0.32359 0.44564,-0.32359c0.16935,0 0.51036,0.32359 0.51036,0.32359v0.52886c0,0 -0.33126,0.31066 -0.49741,0.31066c-0.15109,0 -0.45858,-0.31066 -0.45858,-0.31066z" fill="#fff4ce" stroke="none" stroke-width="0" stroke-linecap="butt"></path></g><g><path d="M244.81077,178.74266v-1.13532c0,0 0.64377,-0.69468 0.95669,-0.69468c0.36356,0 1.09562,0.69468 1.09562,0.69468v1.13532c0,0 -0.71114,0.6669 -1.06783,0.6669c-0.32433,0 -0.98447,-0.6669 -0.98447,-0.6669z" fill="url(#color-2)" stroke="none" stroke-width="0" stroke-linecap="butt"></path><path d="M246.7678,177.66904l-0.98529,0.50597l-0.93203,-0.58584" fill="none" stroke="#d3af89" stroke-width="0.25" stroke-linecap="round"></path><path d="M245.34915,178.69252v-0.52885c0,0 0.29989,-0.32359 0.44564,-0.32359c0.16935,0 0.51036,0.32359 0.51036,0.32359v0.52885c0,0 -0.33126,0.31066 -0.49741,0.31066c-0.15109,0 -0.45858,-0.31066 -0.45858,-0.31066z" fill="#fff4ce" stroke="none" stroke-width="0" stroke-linecap="butt"></path></g></g><g><g stroke="none" stroke-width="0" stroke-linecap="butt"><path d="M231.14835,189.43231v-0.99112h17.85894v0.99112z" fill="#ab8d55"></path><path d="M231.16533,183.4556v-0.99111h17.72976v0.99111z" fill="#ab8d55"></path><path d="M231.12413,189.21992l0.09274,-6.57264l0.74189,0.5738v5.37288z" data-paper-data="{&quot;index&quot;:null}" fill="#563a00"></path><path d="M231.88868,188.57604v-5.37288h16.32727v5.37288z" fill="#805300"></path><path d="M248.20983,188.60281v-5.37288l0.74189,-0.5738l0.09274,6.57264z" data-paper-data="{&quot;index&quot;:null}" fill="#563a00"></path></g><g><path d="M233.56035,186.41015v-1.13532c0,0 0.64377,-0.69468 0.95669,-0.69468c0.36356,0 1.09562,0.69468 1.09562,0.69468v1.13532c0,0 -0.71114,0.6669 -1.06783,0.6669c-0.32433,0 -0.98446,-0.6669 -0.98446,-0.6669z" fill="url(#color-3)" stroke="none" stroke-width="0" stroke-linecap="butt"></path><path d="M235.51737,185.33653l-0.9853,0.50597l-0.93203,-0.58584" fill="none" stroke="#d3af89" stroke-width="0.25" stroke-linecap="round"></path><path d="M234.09872,186.36v-0.52885c0,0 0.29989,-0.32359 0.44564,-0.32359c0.16935,0 0.51036,0.32359 0.51036,0.32359v0.52885c0,0 -0.33127,0.31066 -0.49742,0.31066c-0.15109,0 -0.45858,-0.31066 -0.45858,-0.31066z" fill="#fff4ce" stroke="none" stroke-width="0" stroke-linecap="butt"></path></g><g><path d="M244.66747,186.55347v-1.13532c0,0 0.64377,-0.69468 0.95669,-0.69468c0.36356,0 1.09562,0.69468 1.09562,0.69468v1.13532c0,0 -0.71114,0.6669 -1.06783,0.6669c-0.32433,0 -0.98447,-0.6669 -0.98447,-0.6669z" fill="url(#color-4)" stroke="none" stroke-width="0" stroke-linecap="butt"></path><path d="M246.62448,185.47985l-0.98529,0.50597l-0.93203,-0.58585" fill="none" stroke="#d3af89" stroke-width="0.25" stroke-linecap="round"></path><path d="M245.20584,186.50331v-0.52885c0,0 0.29989,-0.32359 0.44564,-0.32359c0.16935,0 0.51036,0.32359 0.51036,0.32359v0.52885c0,0 -0.33127,0.31066 -0.49742,0.31066c-0.15109,0 -0.45858,-0.31066 -0.45858,-0.31066z" fill="#fff4ce" stroke="none" stroke-width="0" stroke-linecap="butt"></path></g></g><path d="M230.49523,196.7509v-4.77726l3.28436,0.11943c0,0 -1.22133,1.01366 -1.45487,1.66424c-0.30467,0.84871 -0.21716,2.99357 -0.21716,2.99357z" fill="#ad7000" stroke="none" stroke-width="0" stroke-linecap="butt"></path><path d="M229.95779,197.28834v-0.83602h2.6872v0.83602z" fill="#c68d23" stroke="none" stroke-width="0" stroke-linecap="butt"></path><path d="M248.11134,196.81062c0,0 0.0875,-2.14485 -0.21717,-2.99356c-0.23355,-0.6506 -1.45487,-1.66425 -1.45487,-1.66425l3.28436,-0.11943v4.77726z" data-paper-data="{&quot;index&quot;:null}" fill="#ad7000" stroke="none" stroke-width="0" stroke-linecap="butt"></path><path d="M247.5739,197.34806v-0.83602h2.6872v0.83602z" data-paper-data="{&quot;index&quot;:null}" fill="#c68d23" stroke="none" stroke-width="0" stroke-linecap="butt"></path><g><g stroke="none" stroke-width="0" stroke-linecap="butt"><path d="M232.34266,176.39042v-0.99112h17.85894v0.99112z" fill="#ab8d55"></path><path d="M232.35963,170.41371v-0.99111h17.72976v0.99111z" fill="#ab8d55"></path><path d="M232.31844,176.17801l0.09274,-6.57264l0.74189,0.5738v5.37288z" data-paper-data="{&quot;index&quot;:null}" fill="#563a00"></path><path d="M233.083,175.53414v-5.37288h16.32727v5.37288z" fill="#805300"></path><path d="M249.40414,175.56091v-5.37288l0.74189,-0.5738l0.09274,6.57264z" data-paper-data="{&quot;index&quot;:null}" fill="#563a00"></path></g><g><path d="M234.75467,173.36825v-1.13532c0,0 0.64377,-0.69469 0.95667,-0.69469c0.36356,0 1.09562,0.69469 1.09562,0.69469v1.13532c0,0 -0.71114,0.66689 -1.06783,0.66689c-0.32433,0 -0.98447,-0.66689 -0.98447,-0.66689z" fill="url(#color-5)" stroke="none" stroke-width="0" stroke-linecap="butt"></path><path d="M236.71169,172.29464l-0.9853,0.50597l-0.93203,-0.58585" fill="none" stroke="#d3af89" stroke-width="0.25" stroke-linecap="round"></path><path d="M235.29304,173.31811v-0.52886c0,0 0.29989,-0.32359 0.44564,-0.32359c0.16935,0 0.51036,0.32359 0.51036,0.32359v0.52886c0,0 -0.33127,0.31066 -0.49742,0.31066c-0.15109,0 -0.45858,-0.31066 -0.45858,-0.31066z" fill="#fff4ce" stroke="none" stroke-width="0" stroke-linecap="butt"></path></g><g><path d="M245.86177,173.51157v-1.13532c0,0 0.64377,-0.69468 0.95669,-0.69468c0.36356,0 1.09562,0.69468 1.09562,0.69468v1.13532c0,0 -0.71114,0.6669 -1.06783,0.6669c-0.32433,0 -0.98447,-0.6669 -0.98447,-0.6669z" fill="url(#color-6)" stroke="none" stroke-width="0" stroke-linecap="butt"></path><path d="M247.81879,172.43796l-0.98529,0.50597l-0.93203,-0.58585" fill="none" stroke="#d3af89" stroke-width="0.25" stroke-linecap="round"></path><path d="M246.40016,173.46142v-0.52885c0,0 0.29989,-0.32359 0.44564,-0.32359c0.16935,0 0.51036,0.32359 0.51036,0.32359v0.52885c0,0 -0.33127,0.31066 -0.49742,0.31066c-0.15109,0 -0.45858,-0.31066 -0.45858,-0.31066z" fill="#fff4ce" stroke="none" stroke-width="0" stroke-linecap="butt"></path></g></g></g></g></svg>