<svg version="1.1" xmlns="http://www.w3.org/2000/svg" xmlns:xlink="http://www.w3.org/1999/xlink" width="111.91593" height="84.64157" viewBox="0,0,111.91593,84.64157"><defs><radialGradient cx="223.16343" cy="149.16246" r="10.19744" gradientUnits="userSpaceOnUse" id="color-1"><stop offset="0" stop-color="#79787a"></stop><stop offset="1" stop-color="#b3b0b4"></stop></radialGradient><radialGradient cx="283.85652" cy="152.16829" r="7.75611" gradientUnits="userSpaceOnUse" id="color-2"><stop offset="0" stop-color="#79787a"></stop><stop offset="1" stop-color="#464546"></stop></radialGradient><radialGradient cx="290.54148" cy="149.31334" r="9.17392" gradientUnits="userSpaceOnUse" id="color-3"><stop offset="0" stop-color="#79787a"></stop><stop offset="1" stop-color="#b3b0b4"></stop></radialGradient><radialGradient cx="277.33047" cy="147.14263" r="7.58353" gradientUnits="userSpaceOnUse" id="color-4"><stop offset="0" stop-color="#79787a"></stop><stop offset="1" stop-color="#b3b0b4"></stop></radialGradient><radialGradient cx="271.58266" cy="148.8109" r="9.88291" gradientUnits="userSpaceOnUse" id="color-5"><stop offset="0" stop-color="#787a7a"></stop><stop offset="1" stop-color="#7a787a"></stop></radialGradient><radialGradient cx="263.71474" cy="150.04765" r="10.67811" gradientUnits="userSpaceOnUse" id="color-6"><stop offset="0" stop-color="#79787a"></stop><stop offset="1" stop-color="#b3b0b4"></stop></radialGradient><radialGradient cx="250.83279" cy="150.91428" r="12.0099" gradientUnits="userSpaceOnUse" id="color-7"><stop offset="0" stop-color="#79787a"></stop><stop offset="1" stop-color="#b3b0b4"></stop></radialGradient><radialGradient cx="236.35145" cy="146.45714" r="6.59187" gradientUnits="userSpaceOnUse" id="color-8"><stop offset="0" stop-color="#79787a"></stop><stop offset="1" stop-color="#b3b0b4"></stop></radialGradient><radialGradient cx="243.49152" cy="153.96786" r="8.87129" gradientUnits="userSpaceOnUse" id="color-9"><stop offset="0" stop-color="#79787a"></stop><stop offset="1" stop-color="#464546"></stop></radialGradient><radialGradient cx="214.46753" cy="149.40373" r="9.57152" gradientUnits="userSpaceOnUse" id="color-10"><stop offset="0" stop-color="#79787a"></stop><stop offset="1" stop-color="#b3b0b4"></stop></radialGradient><radialGradient cx="202.48296" cy="149.29999" r="10.53444" gradientUnits="userSpaceOnUse" id="color-11"><stop offset="0" stop-color="#79787a"></stop><stop offset="1" stop-color="#b3b0b4"></stop></radialGradient><radialGradient cx="195.86987" cy="147.135" r="7.58353" gradientUnits="userSpaceOnUse" id="color-12"><stop offset="0" stop-color="#79787a"></stop><stop offset="1" stop-color="#b3b0b4"></stop></radialGradient><radialGradient cx="191.06815" cy="146.73574" r="9.17392" gradientUnits="userSpaceOnUse" id="color-13"><stop offset="0" stop-color="#79787a"></stop><stop offset="1" stop-color="#b3b0b4"></stop></radialGradient></defs><g transform="translate(-183.73863,-136.67926)"><g data-paper-data="{&quot;isPaintingLayer&quot;:true}" fill-rule="nonzero" stroke-linecap="butt" stroke-linejoin="miter" stroke-miterlimit="10" stroke-dasharray="" stroke-dashoffset="0" style="mix-blend-mode: normal"><path d="M229.09926,139.07819v3.1296c0,0 -2.55022,1.77888 -3.79047,5.23004c-0.9488,2.64019 -0.56282,7.17249 -1.07997,7.17249c-1.51816,0 -3.5006,-12.40253 -3.5006,-12.40253v-3.1296z" data-paper-data="{&quot;index&quot;:null}" fill="url(#color-1)" stroke="#000000" stroke-width="0.5"></path><path d="M287.18223,138.37275v1.23174c0,0 -1.79449,5.12873 -2.28787,8.7134c-0.35742,2.5968 0.65086,3.97358 0.23497,3.97358c-0.12738,0 -0.49671,2.47482 -0.87489,3.91672c-0.14381,0.54834 0.02716,1.15803 -0.25392,1.11632c-0.46653,-0.06923 -1.45273,-3.98192 -2.27607,-5.18672c-0.77354,-1.13191 1.71736,-4.73343 1.29546,-6.20703c-0.95113,-3.32204 -1.99639,-6.32626 -1.99639,-6.32626v-1.23174z" data-paper-data="{&quot;index&quot;:null}" fill="url(#color-2)" stroke="#000000" stroke-width="0.5"></path><path d="M292.73226,140.24122v2.81549c0,0 -1.78347,11.15768 -3.14925,11.15768c-0.46524,0 -0.118,-4.07739 -0.97157,-6.45258c-1.11576,-3.10476 -3.41001,-4.7051 -3.41001,-4.7051v-2.81549z" data-paper-data="{&quot;index&quot;:null}" fill="url(#color-3)" stroke="#000000" stroke-width="0.5"></path><path d="M281.74477,139.64325v2.32739c0,0 -1.89652,1.3229 -2.81885,3.88942c-0.7056,1.96343 -0.41855,5.33396 -0.80314,5.33396c-1.12901,0 -2.60329,-9.22338 -2.60329,-9.22338v-2.32739z" data-paper-data="{&quot;index&quot;:null}" fill="url(#color-4)" stroke="#000000" stroke-width="0.5"></path><path d="M273.94275,139.03765v3.03308c0,0 -1.92131,12.01998 -3.39264,12.01998c-0.50119,0 -0.12712,-4.3925 -1.04666,-6.95126c-1.202,-3.34471 -3.67355,-5.06873 -3.67355,-5.06873v-3.03308z" data-paper-data="{&quot;index&quot;:null}" fill="url(#color-5)" stroke="#000000" stroke-width="0.5"></path><path d="M266.26473,139.48804v3.27712c0,0 -2.0759,12.98713 -3.66561,12.98713c-0.54152,0 -0.13734,-4.74593 -1.13087,-7.51058c-1.29871,-3.61383 -3.96913,-5.47657 -3.96913,-5.47657v-3.27712z" data-paper-data="{&quot;index&quot;:null}" fill="url(#color-6)" stroke="#000000" stroke-width="0.5"></path><path d="M257.82364,139.03766v3.68585c0,0 -3.00349,2.09505 -4.46417,6.15961c-1.11744,3.10945 -0.66285,8.4473 -1.27192,8.4473c-1.78799,0 -4.12279,-14.60691 -4.12279,-14.60691v-3.68585z" data-paper-data="{&quot;index&quot;:null}" fill="url(#color-7)" stroke="#000000" stroke-width="0.5"></path><path d="M237.92562,139.93842v2.02305c0,0 -1.2815,8.01729 -2.26288,8.01729c-0.3343,0 -0.08479,-2.92979 -0.69812,-4.63647c-0.80172,-2.23091 -2.45024,-3.38082 -2.45024,-3.38082v-2.02305z" data-paper-data="{&quot;index&quot;:null}" fill="url(#color-8)" stroke="#000000" stroke-width="0.5"></path><path d="M246.73184,139.73154v1.2711c0,0 -1.19555,3.10021 -2.28343,6.5284c-0.48256,1.52068 2.36648,5.23727 1.48172,6.40535c-0.94172,1.24329 -2.06971,5.281 -2.60332,5.35244c-0.32149,0.04305 -0.12594,-0.58612 -0.29043,-1.15198c-0.43255,-1.48797 -0.85498,-4.04186 -1.00068,-4.04186c-0.47569,0 0.67756,-1.42077 0.26875,-4.10054c-0.56432,-3.69921 -2.61682,-8.9918 -2.61682,-8.9918v-1.2711z" data-paper-data="{&quot;index&quot;:null}" fill="url(#color-9)" stroke="#000000" stroke-width="0.5"></path><path d="M216.75326,139.93843v2.93751c0,0 -1.86077,11.64125 -3.28574,11.64125c-0.4854,0 -0.12311,-4.2541 -1.01368,-6.73224c-1.16412,-3.23932 -3.5578,-4.90902 -3.5578,-4.90902v-2.93751z" data-paper-data="{&quot;index&quot;:null}" fill="url(#color-10)" stroke="#000000" stroke-width="0.5"></path><path d="M208.61496,138.88244v3.23303c0,0 -2.6345,1.83767 -3.91573,5.40288c-0.98016,2.72744 -0.58142,7.40952 -1.11566,7.40952c-1.56833,0 -3.61629,-12.8124 -3.61629,-12.8124v-3.23303z" data-paper-data="{&quot;index&quot;:null}" fill="url(#color-11)" stroke="#000000" stroke-width="0.5"></path><path d="M200.28417,139.63563v2.3274c0,0 -1.89652,1.3229 -2.81885,3.88942c-0.70559,1.96343 -0.41855,5.33396 -0.80314,5.33396c-1.12901,0 -2.6033,-9.22338 -2.6033,-9.22338v-2.3274z" data-paper-data="{&quot;index&quot;:null}" fill="url(#color-12)" stroke="#000000" stroke-width="0.5"></path><path d="M193.25893,137.66362v2.81549c0,0 -1.78347,11.15768 -3.14925,11.15768c-0.46524,0 -0.118,-4.07739 -0.97157,-6.45258c-1.11576,-3.10476 -3.41001,-4.7051 -3.41001,-4.7051v-2.81549z" data-paper-data="{&quot;index&quot;:null}" fill="url(#color-13)" stroke="#000000" stroke-width="0.5"></path><path d="M183.73866,221.32083v-5.51584h110.58727v5.51584z" fill="#757575" stroke="none" stroke-width="0.5"></path><path d="M293.91806,175.60087v-3.02982h1.04879v3.02982z" fill="#b7b7b7" stroke="none" stroke-width="0.5"></path><path d="M293.16393,220.90067v-84.11628h2.49063v84.11628z" fill="#686868" stroke="none" stroke-width="0.5"></path><path d="M183.73863,219.77805v-80.90803h1.86451v80.90803z" fill="#686868" stroke="none" stroke-width="0.5"></path><path d="M183.8833,140.8744v-4.19514h110.79222v4.19514z" fill="#686868" stroke="none" stroke-width="0.5"></path><path d="M187.72549,164.76848v-1.81679l20.59034,1.81679h-4.54199z" fill-opacity="0.00939" fill="#bd0404" stroke="none" stroke-width="0"></path><path d="M188.33108,214.12474v-50.56746h1.81679v50.56746z" fill-opacity="0.00939" fill="#bd0404" stroke="none" stroke-width="0"></path><path d="M188.02828,212.61075v-4.23919h15.13996v4.23919z" fill-opacity="0.00939" fill="#bd0404" stroke="none" stroke-width="0"></path><path d="M202.56264,212.30795v-32.70231h4.84479v32.70231z" fill-opacity="0.00939" fill="#bd0404" stroke="none" stroke-width="0"></path><path d="M207.71023,168.09927v-4.23919l26.71228,8.17558l0.53964,6.05598z" fill-opacity="0.00939" fill="#bd0404" stroke="none" stroke-width="0"></path><path d="M206.04865,185.51404v-4.23918l26.71228,8.17558l0.53964,6.05598z" fill-opacity="0.00939" fill="#bd0404" stroke="none" stroke-width="0"></path><path d="M232.23696,211.70235v-22.40714h5.75318v22.40714z" fill-opacity="0.00939" fill="#bd0404" stroke="none" stroke-width="0"></path><path d="M231.63136,209.88555v-3.33079h33.61071v3.33079z" fill-opacity="0.00939" fill="#bd0404" stroke="none" stroke-width="0"></path><path d="M233.14536,177.48604v-17.56235h1.81679v17.56235z" fill-opacity="0.00939" fill="#bd0404" stroke="none" stroke-width="0"></path><path d="M229.81457,161.13489v-2.42239h39.06109v2.42239z" fill-opacity="0.00939" fill="#bd0404" stroke="none" stroke-width="0"></path><path d="M262.41471,209.27995v-33.9135h3.86007v33.9135z" fill-opacity="0.00939" fill="#bd0404" stroke="none" stroke-width="0"></path><path d="M265.62645,177.05048l-0.64627,-2.12345l15.92585,-4.847l0.64627,2.12345z" fill-opacity="0.00939" fill="#bd0404" stroke="none" stroke-width="0"></path><path d="M265.78683,161.32104l-0.44075,-2.17541l16.3156,-3.30564l0.44075,2.17542z" fill-opacity="0.00939" fill="#bd0404" stroke="none" stroke-width="0"></path><path d="M281.04245,157.85892v-2.42239h12.11197v2.42239z" fill-opacity="0.05777" fill="#bd0404" stroke="none" stroke-width="0"></path><path d="M280.98762,197.16799v-25.13233h0.9084v25.13233z" fill-opacity="0.00939" fill="#bd0404" stroke="none" stroke-width="0"></path><path d="M280.38202,197.77359v-3.33079h12.11197v3.33079z" fill-opacity="0.00939" fill="#bd0404" stroke="none" stroke-width="0"></path></g></g></svg>