<svg version="1.1" xmlns="http://www.w3.org/2000/svg" xmlns:xlink="http://www.w3.org/1999/xlink" width="255.15921" height="78.64482" viewBox="0,0,255.15921,78.64482"><defs><linearGradient x1="150.08379" y1="26.31874" x2="143.94942" y2="26.31874" gradientUnits="userSpaceOnUse" id="color-1"><stop offset="0" stop-color="#d27a00"></stop><stop offset="1" stop-color="#8d3800"></stop></linearGradient><linearGradient x1="251.97824" y1="41.39183" x2="251.97824" y2="85.54183" gradientUnits="userSpaceOnUse" id="color-2"><stop offset="0" stop-color="#af957e"></stop><stop offset="1" stop-color="#ad8764"></stop></linearGradient><linearGradient x1="250.5181" y1="41.885" x2="250.5181" y2="86.035" gradientUnits="userSpaceOnUse" id="color-3"><stop offset="0" stop-color="#c9ab91"></stop><stop offset="1" stop-color="#c99d74"></stop></linearGradient><linearGradient x1="231.85668" y1="53.61315" x2="263.31442" y2="53.41642" gradientUnits="userSpaceOnUse" id="color-4"><stop offset="0" stop-color="#c9ab91"></stop><stop offset="1" stop-color="#c99d74"></stop></linearGradient></defs><g transform="translate(-214.14798,-17.08568)"><g data-paper-data="{&quot;isPaintingLayer&quot;:true}" fill-rule="nonzero" stroke-linejoin="miter" stroke-miterlimit="10" stroke-dasharray="" stroke-dashoffset="0" style="mix-blend-mode: normal"><path d="M215.14798,85.32149c0,-12.74828 0,-34.75185 0,-42.02357c0,-4.59582 7.98021,-9.92148 16.84266,-9.92148c27.27225,0 169.22845,0 219.0287,0c10.81842,0 17.28785,3.69338 17.28785,9.15276c0,12.86427 0,35.5341 0,42.7923c0,4.40002 -6.64776,9.409 -17.73302,9.409c-50.07659,0 -190.7088,0 -218.13833,0c-9.06978,0 -17.28784,-3.81273 -17.28784,-9.409z" fill-opacity="0.56452" fill="#291800" stroke="#fff4ce" stroke-width="2" stroke-linecap="butt"></path><text transform="translate(225.5,27.56815) scale(0.25567,0.25567)" font-size="40" xml:space="preserve" fill="#fff4ce" fill-rule="nonzero" stroke="none" stroke-width="1" stroke-linecap="butt" stroke-linejoin="miter" stroke-miterlimit="10" stroke-dasharray="" stroke-dashoffset="0" font-family="Impact" font-weight="normal" text-anchor="start" style="mix-blend-mode: normal"><tspan x="0" dy="0">UNLOCKED ACHIVEMENT</tspan></text><text transform="translate(272.30866,47.89518) scale(0.30293,0.30293)" font-size="40" xml:space="preserve" fill="#fff4ce" fill-rule="nonzero" stroke="none" stroke-width="1" stroke-linecap="butt" stroke-linejoin="miter" stroke-miterlimit="10" stroke-dasharray="" stroke-dashoffset="0" font-family="Sans Serif" font-weight="normal" text-anchor="start" style="mix-blend-mode: normal"><tspan x="0" dy="0">God's wrath</tspan></text><path d="M274.70702,62.80969c0,13.46649 -11.03605,24.38323 -24.64971,24.38323c-13.61366,0 -24.64971,-10.91674 -24.64971,-24.38323c0,-13.46649 11.03605,-24.38323 24.64971,-24.38323c13.61366,0 24.64971,10.91674 24.64971,24.38323z" fill="#a0a0a0" stroke="none" stroke-width="0" stroke-linecap="butt"></path><text transform="translate(282.43503,61.01093) scale(0.2748,0.2748)" font-size="40" xml:space="preserve" fill="#fff4ce" fill-rule="nonzero" stroke="none" stroke-width="1" stroke-linecap="butt" stroke-linejoin="miter" stroke-miterlimit="10" stroke-dasharray="" stroke-dashoffset="0" font-family="Serif" font-weight="normal" text-anchor="start" style="mix-blend-mode: normal"><tspan x="0" dy="0">Use the crucfix.</tspan></text><g data-paper-data="{&quot;index&quot;:null}" stroke-linecap="butt"><path d="" fill="url(#color-1)" stroke="none" stroke-width="0"></path><g data-paper-data="{&quot;index&quot;:null}"><path d="" fill="#fff4ce" stroke="#e6ddbb" stroke-width="2.5"></path><path d="" fill="#e6ddbb" stroke="#e6ddbb" stroke-width="0"></path><path d="" fill="#e6ddbb" stroke="none" stroke-width="0"></path><path d="" fill="#fff4ce" stroke="none" stroke-width="0.5"></path></g></g><g><text transform="translate(243.73463,50.51945) rotate(71.31964) scale(0.1831,0.1831)" font-size="40" xml:space="preserve" fill="#c99f79" fill-rule="nonzero" stroke="none" stroke-width="1" stroke-linecap="butt" stroke-linejoin="miter" stroke-miterlimit="10" stroke-dasharray="" stroke-dashoffset="0" font-family="Curly" font-weight="normal" text-anchor="start" style="mix-blend-mode: normal"><tspan x="0" dy="0">xAmt8</tspan></text><g><path d="M253.09908,84.79812c0,0 -2.76158,0.12634 -3.23572,-1.49015c-0.10623,-0.36216 2.12089,-1.15489 2.00913,-1.58542c-2.00805,-7.73576 -7.20923,-25.51657 -9.63427,-32.66687c-0.47256,-1.39336 -2.21427,-1.86502 -2.37148,-2.37818c-0.2173,-0.7093 0.93933,-2.00474 0.93933,-2.00474c0,0 1.51705,-0.00709 2.21252,-0.81819c0.25634,-0.29896 0.2339,-0.71644 0.42409,-1.12147c0.29229,-0.62246 0.76863,-1.21554 1.04957,-1.30391c0.48319,-0.15198 1.10557,0.18085 1.74848,0.61516c0.52272,0.35311 1.04579,0.80003 1.62517,0.8921c0.31635,0.05027 0.32953,-0.28935 0.57669,-0.40626c0.62735,-0.29672 1.27875,-0.66166 1.27875,-0.66166c0,0 2.21576,0.23777 2.49864,1.1611c0.05662,0.18479 -1.23722,1.48735 -1.15703,1.77246c1.3835,4.91915 6.92782,24.55484 9.91736,33.49712c0.22076,0.66035 2.8963,0.47762 3.05742,1.02035c0.55892,1.88264 -2.02338,2.67433 -2.02338,2.67433c0,0 -0.49624,0.0712 -1.16053,0.22664c-0.3836,0.08976 -0.92055,0.10901 -1.19942,0.41311c-0.70672,0.77068 -0.55119,2.55815 -1.26591,2.78297c-0.31913,0.10038 -0.62142,0.25509 -1.11726,-0.07522c-0.3693,-0.24601 -0.911,-0.9587 -1.29932,-1.10646c-0.10679,-0.04063 -0.26102,-0.16939 -0.36451,-0.18567c-0.56466,-0.08889 -1.04169,0.4669 -1.46448,0.62908c-0.60191,0.2309 -1.04384,0.11978 -1.04384,0.11978z" fill="url(#color-2)" stroke="#000000" stroke-width="0" stroke-linecap="butt"></path><path d="M251.63894,85.29129c0,0 -2.76158,0.12634 -3.23572,-1.49015c-0.10623,-0.36216 2.12089,-1.15489 2.00913,-1.58542c-2.00805,-7.73576 -7.20923,-25.51657 -9.63427,-32.66687c-0.47256,-1.39336 -2.21427,-1.86502 -2.37148,-2.37818c-0.2173,-0.7093 0.93933,-2.00474 0.93933,-2.00474c0,0 1.51705,-0.00709 2.21252,-0.81819c0.25634,-0.29896 0.2339,-0.71644 0.42409,-1.12147c0.29229,-0.62246 0.76863,-1.21554 1.04957,-1.30391c0.48319,-0.15198 1.10557,0.18085 1.74848,0.61516c0.52272,0.35311 1.04579,0.80003 1.62517,0.8921c0.31635,0.05027 0.32953,-0.28935 0.57669,-0.40626c0.62735,-0.29672 1.27875,-0.66166 1.27875,-0.66166c0,0 2.21576,0.23777 2.49864,1.1611c0.05662,0.18479 -1.23722,1.48735 -1.15703,1.77246c1.3835,4.91915 6.92782,24.55484 9.91736,33.49712c0.22076,0.66035 2.8963,0.47762 3.05742,1.02035c0.55892,1.88264 -2.02338,2.67433 -2.02338,2.67433c0,0 -0.49624,0.0712 -1.16053,0.22664c-0.3836,0.08976 -0.92055,0.10901 -1.19942,0.41311c-0.70672,0.77068 -0.55119,2.55815 -1.26591,2.78297c-0.31913,0.10038 -0.62142,0.25509 -1.11726,-0.07522c-0.3693,-0.24601 -0.911,-0.9587 -1.29932,-1.10646c-0.10679,-0.04063 -0.26102,-0.16939 -0.36451,-0.18567c-0.56466,-0.08889 -1.04169,0.4669 -1.46448,0.62908c-0.60191,0.2309 -1.04384,0.11978 -1.04384,0.11978z" fill="url(#color-3)" stroke="#000000" stroke-width="0" stroke-linecap="butt"></path><path d="M244.08151,46.45546l-2.53091,0.78907" fill="none" stroke="#a75900" stroke-width="0.5" stroke-linecap="round"></path><path d="M245.34696,44.38417l-1.65482,0.49316" fill="none" stroke="#a75900" stroke-width="0.5" stroke-linecap="round"></path><path d="M240.38249,46.25819l-1.3628,0.19727" fill="none" stroke="#a75900" stroke-width="0.5" stroke-linecap="round"></path><path d="M247.4885,48.32949l1.75216,-0.69043" fill="none" stroke="#a75900" stroke-width="0.5" stroke-linecap="round"></path><path d="M243.98416,54.05019l-1.16811,0.19727" fill="none" stroke="#a75900" stroke-width="0.5" stroke-linecap="round"></path><path d="M247.00178,53.65566l1.84951,-0.49316" fill="none" stroke="#a75900" stroke-width="0.5" stroke-linecap="round"></path><path d="M247.39115,61.64493l2.53091,-0.49316" fill="none" stroke="#a75900" stroke-width="0.5" stroke-linecap="round"></path><path d="M252.25828,65.59026l0.6814,-0.19727" fill="none" stroke="#a75900" stroke-width="0.5" stroke-linecap="round"></path><path d="M246.41773,58.48869l-1.07077,0.39453" fill="none" stroke="#a75900" stroke-width="0.5" stroke-linecap="round"></path><path d="M250.40878,57.10783l1.16811,-0.19727" fill="none" stroke="#a75900" stroke-width="0.5" stroke-linecap="round"></path><path d="M249.33801,65.59025l-1.65482,0.5918" fill="none" stroke="#a75900" stroke-width="0.5" stroke-linecap="round"></path><path d="M252.93968,71.7055l-3.79636,0.5918" fill="none" stroke="#a75900" stroke-width="0.5" stroke-linecap="round"></path><path d="M254.30248,68.64787l-1.3628,0.49316" fill="none" stroke="#a75900" stroke-width="0.5" stroke-linecap="round"></path><path d="M250.0194,70.32463h-1.26545" fill="none" stroke="#a75900" stroke-width="0.5" stroke-linecap="round"></path><path d="M251.77157,77.62348l1.16811,-0.19727" fill="none" stroke="#a75900" stroke-width="0.5" stroke-linecap="round"></path><path d="M258.39087,75.84808l-1.46014,0.2959" fill="none" stroke="#a75900" stroke-width="0.5" stroke-linecap="round"></path><path d="M252.84234,80.3852l1.26545,-0.09864" fill="none" stroke="#a75900" stroke-width="0.5" stroke-linecap="round"></path><path d="M257.32009,80.28656l-0.87608,0.09864" fill="none" stroke="#a75900" stroke-width="0.5" stroke-linecap="round"></path><path d="M256.15198,78.60981l0.6814,-0.09864" fill="none" stroke="#a75900" stroke-width="0.5" stroke-linecap="round"></path><path d="M252.0636,83.34418l-1.46014,0.09864" fill="none" stroke="#a75900" stroke-width="0.5" stroke-linecap="round"></path><path d="M256.34667,84.13325h-0.58405" fill="none" stroke="#a75900" stroke-width="0.5" stroke-linecap="round"></path><path d="M250.40877,45.76503l0.87608,-0.09864" fill="none" stroke="#703c00" stroke-width="0.5" stroke-linecap="round"></path><path d="M246.51508,42.41152l-0.6814,-0.09864" fill="none" stroke="#703c00" stroke-width="0.5" stroke-linecap="round"></path><path d="M258.14751,83.9853l0.64896,-0.06575" fill="none" stroke="#703c00" stroke-width="0.5" stroke-linecap="round"></path><path d="M263.98807,80.03998l-0.64896,0.26303" fill="none" stroke="#703c00" stroke-width="0.5" stroke-linecap="round"></path><path d="M260.87309,78.19883l-0.58405,0.06575" fill="none" stroke="#703c00" stroke-width="0.5" stroke-linecap="round"></path><path d="M258.40709,72.8069l0.45426,-0.06575" fill="none" stroke="#703c00" stroke-width="0.5" stroke-linecap="round"></path><path d="M255.74639,63.5354l-0.38937,0.06575" fill="none" stroke="#703c00" stroke-width="0.5" stroke-linecap="round"></path><path d="M253.28038,57.02562l0.97343,-0.32878" fill="none" stroke="#703c00" stroke-width="0.5" stroke-linecap="round"></path><path d="M253.92932,58.73526l0.51916,-0.13151" fill="none" stroke="#703c00" stroke-width="0.5" stroke-linecap="round"></path><path d="M252.37185,50.91038l-0.58405,0.13151" fill="none" stroke="#703c00" stroke-width="0.5" stroke-linecap="round"></path><path d="M251.46332,42.36219l-0.71385,0.26303" fill="none" stroke="#703c00" stroke-width="0.5" stroke-linecap="round"></path><path d="M251.46332,43.28277l0.51916,-0.13151" fill="none" stroke="#703c00" stroke-width="0.5" stroke-linecap="round"></path><path d="M244.71423,41.70464l0.77874,0.06575" fill="none" stroke="#703c00" stroke-width="0.5" stroke-linecap="round"></path></g><g><g stroke="#000000" stroke-width="0" stroke-linecap="butt"><path d="M263.89257,53.39161c0,0 0.12465,2.06266 -1.02118,2.4241c-0.25672,0.08098 -0.84948,-1.57941 -1.15484,-1.49399c-5.4867,1.53472 -18.09065,5.49984 -23.15498,7.34349c-0.98687,0.35927 -1.3011,1.66263 -1.66476,1.78237c-0.50266,0.16551 -1.44019,-0.69286 -1.44019,-0.69286c0,0 -0.02408,-1.13338 -0.61072,-1.64937c-0.21623,-0.19019 -0.51341,-0.17156 -0.80439,-0.31185c-0.44718,-0.2156 -0.87573,-0.56885 -0.94222,-0.77835c-0.11435,-0.36032 0.115,-0.82679 0.41638,-1.30906c0.24504,-0.3921 0.55693,-0.78489 0.61526,-1.21816c0.03185,-0.23657 -0.2103,-0.24491 -0.2967,-0.42905c-0.21929,-0.46739 -0.48748,-0.95243 -0.48748,-0.95243c0,0 0.14162,-1.6565 0.79597,-1.87194c0.13096,-0.04312 1.07527,0.91771 1.27742,0.85654c3.48765,-1.05555 17.40893,-5.28531 23.74299,-7.55869c0.46774,-0.16788 0.30399,-2.16599 0.68868,-2.2888c1.33441,-0.42596 1.93089,1.49978 1.93089,1.49978c0,0 0.05695,0.37044 0.17604,0.86605c0.06876,0.28619 0.08921,0.68728 0.30939,0.89427c0.55799,0.52457 1.82964,0.4004 1.99879,0.93338c0.07552,0.23798 0.18955,0.46314 -0.03958,0.83506c-0.17065,0.27701 -0.67167,0.68489 -0.77208,0.97568c-0.02761,0.07997 -0.11741,0.19577 -0.12772,0.27315c-0.05626,0.42226 0.34574,0.77619 0.4666,1.09133c0.17207,0.44866 0.09844,0.77934 0.09844,0.77934z" fill="#ad907c"></path><path d="M262.77045,52.58234c0,0 0.12465,2.06266 -1.02118,2.4241c-0.25672,0.08098 -0.84948,-1.57941 -1.15484,-1.49399c-5.4867,1.53472 -18.09065,5.49984 -23.15498,7.34349c-0.98687,0.35927 -1.3011,1.66263 -1.66476,1.78237c-0.50266,0.16551 -1.44019,-0.69286 -1.44019,-0.69286c0,0 -0.02408,-1.13338 -0.61072,-1.64937c-0.21623,-0.19019 -0.51341,-0.17156 -0.80439,-0.31185c-0.44718,-0.2156 -0.87573,-0.56885 -0.94222,-0.77835c-0.11435,-0.36032 0.115,-0.82679 0.41638,-1.30906c0.24504,-0.3921 0.55693,-0.78489 0.61526,-1.21816c0.03185,-0.23657 -0.2103,-0.24491 -0.2967,-0.42905c-0.21929,-0.46739 -0.48748,-0.95243 -0.48748,-0.95243c0,0 0.14162,-1.6565 0.79597,-1.87194c0.13096,-0.04312 1.07527,0.91771 1.27742,0.85654c3.48765,-1.05555 17.40893,-5.28531 23.74299,-7.55869c0.46774,-0.16788 0.30399,-2.16599 0.68868,-2.2888c1.33441,-0.42596 1.93089,1.49978 1.93089,1.49978c0,0 0.05695,0.37044 0.17604,0.86605c0.06876,0.28619 0.08921,0.68728 0.30939,0.89427c0.55799,0.52457 1.82964,0.40039 1.99879,0.93338c0.07552,0.23798 0.18955,0.46314 -0.03958,0.83506c-0.17065,0.27701 -0.67167,0.68489 -0.77208,0.97568c-0.02761,0.07997 -0.11741,0.19577 -0.12772,0.27315c-0.05626,0.42226 0.34574,0.77619 0.4666,1.09133c0.17207,0.44866 0.09844,0.77934 0.09844,0.77934z" fill="url(#color-4)"></path></g><path d="M238.19912,54.92589l-1.73706,0.30099" fill="none" stroke="#a75900" stroke-width="0.5" stroke-linecap="round"></path><path d="M245.96851,52.79415l-2.0167,0.51309" fill="none" stroke="#a75900" stroke-width="0.5" stroke-linecap="round"></path><path d="M238.94802,57.61087l1.35434,-0.18012" fill="none" stroke="#a75900" stroke-width="0.5" stroke-linecap="round"></path><path d="M249.00546,56.21729l-1.53681,0.3863" fill="none" stroke="#a75900" stroke-width="0.5" stroke-linecap="round"></path><path d="M250.24722,54.19109l-1.05101,0.35667" fill="none" stroke="#a75900" stroke-width="0.5" stroke-linecap="round"></path><path d="M254.69531,51.96934l-1.24532,0.36852" fill="none" stroke="#a75900" stroke-width="0.5" stroke-linecap="round"></path><path d="M257.85783,52.65417l-1.14817,0.3626" fill="none" stroke="#a75900" stroke-width="0.5" stroke-linecap="round"></path><path d="M259.41948,47.87781l-0.95385,0.35074" fill="none" stroke="#a75900" stroke-width="0.5" stroke-linecap="round"></path><path d="M262.13173,49.17524l-0.67421,0.13865" fill="none" stroke="#a75900" stroke-width="0.5" stroke-linecap="round"></path><path d="M261.25258,52.34961l0.76544,-0.24173" fill="none" stroke="#a75900" stroke-width="0.5" stroke-linecap="round"></path><path d="M234.39918,58.18088l-0.76544,0.24173" fill="none" stroke="#a75900" stroke-width="0.5" stroke-linecap="round"></path><path d="M234.65746,56.01961l0.57704,-0.13271" fill="none" stroke="#a75900" stroke-width="0.5" stroke-linecap="round"></path><path d="M236.94674,59.97598l-0.96569,0.15642" fill="none" stroke="#a75900" stroke-width="0.5" stroke-linecap="round"></path><path d="M256.21671,49.73104l-1.06879,0.06518" fill="none" stroke="#a75900" stroke-width="0.5" stroke-linecap="round"></path><path d="M236.50007,62.24625l0.87445,-0.05333" fill="none" stroke="#5e3200" stroke-width="0.5" stroke-linecap="round"></path><path d="M241.36052,60.38945l-1.93732,0.21567" fill="none" stroke="#5e3200" stroke-width="0.5" stroke-linecap="round"></path><path d="M264.20769,49.63377l-0.57704,0.13271" fill="none" stroke="#5e3200" stroke-width="0.5" stroke-linecap="round"></path><path d="M261.48593,46.58149l-0.58298,0.03556" fill="none" stroke="#5e3200" stroke-width="0.5" stroke-linecap="round"></path><path d="M263.68521,53.85914l-0.75359,0.43606" fill="none" stroke="#5e3200" stroke-width="0.5" stroke-linecap="round"></path><path d="M256.83411,55.05717l-1.53089,0.48346" fill="none" stroke="#5e3200" stroke-width="0.5" stroke-linecap="round"></path><path d="M260.19922,54.2668l-0.76544,0.24173" fill="none" stroke="#5e3200" stroke-width="0.5" stroke-linecap="round"></path><path d="M245.46145,58.87153l1.44558,-0.28321" fill="none" stroke="#5e3200" stroke-width="0.5" stroke-linecap="round"></path><path d="M252.24144,56.50756l-0.66828,0.2358" fill="none" stroke="#5e3200" stroke-width="0.5" stroke-linecap="round"></path></g></g></g></g></svg>