<svg version="1.1" xmlns="http://www.w3.org/2000/svg" xmlns:xlink="http://www.w3.org/1999/xlink" width="33.92904" height="42.67491" viewBox="0,0,33.92904,42.67491"><defs><radialGradient cx="239.57096" cy="158.82509" r="16.66667" gradientUnits="userSpaceOnUse" id="color-1"><stop offset="0" stop-color="#ded2aa"></stop><stop offset="1" stop-color="#dec176"></stop></radialGradient></defs><g transform="translate(-222.9043,-145.15842)"><g data-paper-data="{&quot;isPaintingLayer&quot;:true}" fill-rule="nonzero" stroke-linejoin="miter" stroke-miterlimit="10" stroke-dasharray="" stroke-dashoffset="0" style="mix-blend-mode: normal"><path d="M226.23763,174.82509v-7h28.33333v7z" fill="#ababab" stroke="none" stroke-width="0" stroke-linecap="butt"></path><path d="M223.66667,187.33333v-12.55556h32.66667v12.55556z" fill="#a96a00" stroke="#000000" stroke-width="1" stroke-linecap="butt"></path><path d="M222.9043,168.04731v-3.11111c0,0 11.27182,-15.33333 17,-15.33333c5.35822,0 16.33333,15.33333 16.33333,15.33333v3.11111z" fill="url(#color-1)" stroke="none" stroke-width="0" stroke-linecap="butt"></path><path d="M238.9043,150.15842v-3.66667h1.55556v3.66667z" fill="#dec176" stroke="#000000" stroke-width="0" stroke-linecap="butt"></path><path d="M241.9043,146.10286c0,0.5216 -1.0198,0.94444 -2.27778,0.94444c-1.25798,0 -2.27778,-0.42284 -2.27778,-0.94444c0,-0.5216 1.0198,-0.94444 2.27778,-0.94444c1.25798,0 2.27778,0.42284 2.27778,0.94444z" fill="#dec176" stroke="none" stroke-width="0" stroke-linecap="butt"></path><path d="M226.68207,169.71398l4.22222,1.88889l5.22222,-1.55556l4.11111,1.77778l4.11111,-1.66667l4.88889,2.22222l2.55556,-2.55556l2.88889,2.77778" fill="none" stroke="#000000" stroke-width="0.5" stroke-linecap="round"></path></g></g></svg>