<svg version="1.1" xmlns="http://www.w3.org/2000/svg" xmlns:xlink="http://www.w3.org/1999/xlink" width="60.11471" height="78.59444" viewBox="0,0,60.11471,78.59444"><defs><linearGradient x1="216.20296" y1="178.41798" x2="239.29231" y2="178.41798" gradientUnits="userSpaceOnUse" id="color-1"><stop offset="0" stop-color="#d27a00"></stop><stop offset="1" stop-color="#8d3800"></stop></linearGradient><linearGradient x1="239.28272" y1="178.48046" x2="262.66522" y2="178.48046" gradientUnits="userSpaceOnUse" id="color-2"><stop offset="0" stop-color="#8d3800"></stop><stop offset="1" stop-color="#d27a00"></stop></linearGradient><linearGradient x1="245.0682" y1="164.42401" x2="233.60959" y2="164.42401" gradientUnits="userSpaceOnUse" id="color-3"><stop offset="0" stop-color="#ffe108"></stop><stop offset="1" stop-color="#ffc908"></stop></linearGradient><linearGradient x1="244.71442" y1="164.46768" x2="238.99292" y2="164.46768" gradientUnits="userSpaceOnUse" id="color-4"><stop offset="0" stop-color="#ffe108"></stop><stop offset="1" stop-color="#ffe108" stop-opacity="0"></stop></linearGradient><radialGradient cx="239.28876" cy="160.17563" r="3.01848" gradientUnits="userSpaceOnUse" id="color-5"><stop offset="0" stop-color="#fff399"></stop><stop offset="1" stop-color="#fff399" stop-opacity="0"></stop></radialGradient><linearGradient x1="238.86205" y1="198.53109" x2="233.67589" y2="198.55149" gradientUnits="userSpaceOnUse" id="color-6"><stop offset="0" stop-color="#08ff7d"></stop><stop offset="1" stop-color="#06ce5c"></stop></linearGradient><linearGradient x1="245.11751" y1="198.63721" x2="240.0205" y2="198.63721" gradientUnits="userSpaceOnUse" id="color-7"><stop offset="0" stop-color="#08ff7d"></stop><stop offset="1" stop-color="#06ce5c"></stop></linearGradient></defs><g transform="translate(-209.94265,-140.45281)"><g data-paper-data="{&quot;isPaintingLayer&quot;:true}" fill-rule="nonzero" stroke-linejoin="miter" stroke-miterlimit="10" stroke-dasharray="" stroke-dashoffset="0" style="mix-blend-mode: normal"><path d="M213.95035,207.02205v-57.21262h50.16468v57.21262z" fill="#000000" stroke="none" stroke-width="1" stroke-linecap="butt"></path><path d="M216.20296,205.91874v-55.0015h23.08933v55.0015z" fill="url(#color-1)" stroke="none" stroke-width="1" stroke-linecap="butt"></path><path d="M239.28272,205.98124v-55.0015h23.38255v55.0015z" fill="url(#color-2)" stroke="none" stroke-width="1" stroke-linecap="butt"></path><path d="M215.69696,206.48593v-56.00372c0,0 13.56527,0 20.96474,0c8.32476,0 26.53579,0 26.53579,0v56.00372z" fill="none" stroke="#652800" stroke-width="0.5" stroke-linecap="butt"></path><path d="M240.18029,151.94831l-0.73303,54.24443" fill="none" stroke="#652800" stroke-width="1" stroke-linecap="round"></path><path d="M220.82822,164.55647v-9.96924h11.43531v9.96924z" fill="none" stroke="#7b3100" stroke-width="1" stroke-linecap="butt"></path><path d="M220.74406,182.50496v-9.96924h11.43531v9.96924z" fill="none" stroke="#7b3100" stroke-width="1" stroke-linecap="butt"></path><path d="M220.51339,199.57378v-9.96924h11.43531v9.96924z" fill="none" stroke="#7b3100" stroke-width="1" stroke-linecap="butt"></path><path d="M245.49898,199.92951v-9.96924h11.43531v9.96924z" fill="none" stroke="#7b3100" stroke-width="1" stroke-linecap="butt"></path><path d="M245.79215,182.33673v-9.96924h11.43531v9.96924z" fill="none" stroke="#7b3100" stroke-width="1" stroke-linecap="butt"></path><path d="M245.9604,164.32573v-9.96924h11.43531v9.96924z" fill="none" stroke="#7b3100" stroke-width="1" stroke-linecap="butt"></path><path d="M214.37754,149.60259v-4.39819c0,0 15.29524,-4.25159 23.31045,-4.25159c8.64958,0 26.829,4.25159 26.829,4.25159v4.39819z" fill="#652800" stroke="#311300" stroke-width="1" stroke-linecap="butt"></path><g stroke-width="1" stroke-linecap="butt"><path d="M244.86017,180.41364c-1.12617,-0.27176 -1.79677,-1.49629 -1.49783,-2.73507c0.29894,-1.23878 1.45421,-2.0227 2.58037,-1.75095c1.12617,0.27176 1.79677,1.49629 1.49783,2.73507c-0.29894,1.23878 -1.45421,2.02271 -2.58037,1.75095z" fill="#fff4ce" stroke="#e6ddbb"></path><path d="M245.58807,179.17867c-0.69964,-0.16883 -1.11625,-0.92958 -0.93053,-1.69918c0.18572,-0.7696 0.90343,-1.25661 1.60307,-1.08778c0.69964,0.16883 1.11625,0.92958 0.93053,1.69918c-0.18572,0.7696 -0.90343,1.25661 -1.60307,1.08778z" fill="#e6ddbb" stroke="#e6ddbb"></path><path d="M241.50667,178.44106l1.65027,-0.62732l0.62732,1.65027l-1.65027,0.62732z" fill="#e6ddbb" stroke="none"></path><path d="M242.86879,180.43005c-0.58295,0.81082 -1.03568,-0.10229 -1.24051,-0.52527c-0.3196,-0.66005 -0.26023,-1.31665 0.00072,-1.92398l-0.05818,-0.01403l0.08283,-0.34324v0c0.03948,-0.16365 0.20418,-0.26431 0.36783,-0.22481c0.1183,0.02855 0.20368,0.12249 0.227,0.23419l0.08732,0.37823l-0.01219,0.00282l0.0179,0.03c0.00042,0.03326 0.00085,0.06653 0.00127,0.0998c0.0423,0.03509 0.07429,0.08103 0.09266,0.13245c0.05317,0.05662 0.0839,0.13267 0.08281,0.21276l0.0028,0.34174c0.03518,0.21796 0.44277,1.46721 0.34773,1.59939z" fill="#fff4ce" stroke="none"></path></g><g data-paper-data="{&quot;index&quot;:null}" stroke-width="1" stroke-linecap="butt"><path d="M232.91346,178.66268c-0.29894,-1.23878 0.37167,-2.46331 1.49784,-2.73507c1.12617,-0.27176 2.28144,0.51217 2.58037,1.75095c0.29894,1.23878 -0.37167,2.46331 -1.49784,2.73507c-1.12617,0.27176 -2.28144,-0.51217 -2.58037,-1.75095z" fill="#fff4ce" stroke="#e6ddbb"></path><path d="M233.16284,178.09087c-0.18572,-0.7696 0.2309,-1.53035 0.93053,-1.69918c0.69962,-0.16883 1.41735,0.31819 1.60307,1.08778c0.18572,0.7696 -0.2309,1.53035 -0.93053,1.69918c-0.69962,0.16883 -1.41735,-0.31819 -1.60307,-1.08778z" fill="#e6ddbb" stroke="#e6ddbb"></path><path d="M238.21997,180.09132l-1.65027,-0.62732l0.62732,-1.65027l1.65027,0.62732z" fill="#e6ddbb" stroke="none"></path><path d="M237.48517,180.43005c-0.09504,-0.13218 0.31255,-1.38143 0.34774,-1.59939l0.0028,-0.34174c-0.00109,-0.08008 0.02964,-0.15614 0.08281,-0.21276c0.01838,-0.05141 0.05037,-0.09734 0.09266,-0.13245c0.00042,-0.03326 0.00085,-0.06652 0.00127,-0.09979l0.01789,-0.03l-0.01219,-0.00282l0.08732,-0.37822c0.02333,-0.11169 0.1087,-0.20565 0.227,-0.23419c0.16365,-0.03948 0.32835,0.06116 0.36784,0.22481v0l0.08283,0.34324l-0.05818,0.01403c0.26096,0.60733 0.32032,1.26394 0.00072,1.92398c-0.20482,0.42299 -0.65757,1.33609 -1.24051,0.52527z" fill="#fff4ce" stroke="none"></path></g><path d="M209.94265,219.04725l4.83682,-13.26669h50.16468l5.11321,13.26669z" fill-opacity="0.45161" fill="#000000" stroke="none" stroke-width="1" stroke-linecap="butt"></path><g><path d="M232.65765,189.37191l-0.07074,-21.28577h2.76685l-1.42931,22.86204z" data-paper-data="{&quot;index&quot;:null}" fill="#0067b5" stroke="none" stroke-width="0" stroke-linecap="butt"></path><path d="M233.64907,171.54466l-1.14258,-3.54501l11.90192,0.34585l0.85695,3.19916z" data-paper-data="{&quot;index&quot;:null}" fill="#0067b5" stroke="none" stroke-width="0" stroke-linecap="butt"></path><path d="M233.51959,191.23723v-19.69719h11.83605v19.69719z" data-paper-data="{&quot;index&quot;:null}" fill="#0090ff" stroke="none" stroke-width="0" stroke-linecap="butt"></path><path d="M247.19025,188.18183l-2.25232,-15.4587l4.78884,-0.69772c0,0 0.98042,0.27149 1.07185,0.89903c0.25885,1.77665 1.90313,10.41712 2.1159,13.40346c0.04439,0.62301 -0.93539,1.15619 -0.93539,1.15619z" data-paper-data="{&quot;index&quot;:null}" fill="#ffe108" stroke="none" stroke-width="0" stroke-linecap="butt"></path><path d="M233.23607,161.79651c0,0 0.04142,-2.33025 1.78655,-3.05887c1.37296,-0.57324 5.77332,-0.92249 8.27294,-0.18142c1.81088,0.53685 2.08391,1.99391 2.08391,2.67924c0,1.63136 -0.34199,6.21549 -0.34199,6.21549c0,0 0.2091,1.48454 -0.92471,2.2694c-1.14279,0.79108 -3.63234,0.88245 -4.59919,0.86681c-1.18168,-0.0191 -3.69427,-0.10306 -5.09739,-1.05245c-0.94649,-0.64042 -1.09768,-2.27321 -1.09768,-2.27321z" fill="#d8bf06" stroke="none" stroke-width="0" stroke-linecap="butt"></path><text transform="translate(245.06613,165.51068) rotate(-180) scale(0.09317,-0.09316)" font-size="40" xml:space="preserve" fill="#fbff66" fill-rule="nonzero" stroke="none" stroke-width="1" stroke-linecap="butt" stroke-linejoin="miter" stroke-miterlimit="10" stroke-dasharray="" stroke-dashoffset="0" font-family="Sans Serif" font-weight="normal" text-anchor="start" style="mix-blend-mode: normal"><tspan x="0" dy="0">xamt8</tspan></text><path d="M233.60959,161.98699c0,0 0.03907,-2.21376 1.68579,-2.90596c1.29554,-0.54458 5.44775,-0.87638 7.80641,-0.17235c1.70876,0.51003 1.9664,1.89425 1.9664,2.54532c0,1.54981 -0.32271,5.90479 -0.32271,5.90479c0,0 0.19733,1.41033 -0.87254,2.15595c-1.07834,0.75152 -3.4275,0.83834 -4.33984,0.82349c-1.11504,-0.01814 -3.48594,-0.0979 -4.80993,-0.99983c-0.89311,-0.6084 -1.03578,-2.15956 -1.03578,-2.15956z" fill="url(#color-3)" stroke="none" stroke-width="0" stroke-linecap="butt"></path><path d="M239.10542,158.55302c1.29981,-0.01317 2.6349,0.09856 3.64259,0.39933c1.70876,0.51003 1.9664,1.89425 1.9664,2.54532c0,1.54981 -0.32271,5.90479 -0.32271,5.90479c0,0 0.19733,1.41033 -0.87255,2.15597c-1.07834,0.75152 -3.4275,0.83834 -4.33984,0.82349c-0.18911,-0.00309 -0.26841,-11.82692 -0.07389,-11.82891z" fill="url(#color-4)" stroke="none" stroke-width="0" stroke-linecap="butt"></path><path d="M235.8565,158.36691c-0.45496,-0.64512 2.09653,-0.15696 4.20643,0.19162c2.10131,0.34717 4.1656,0.72968 3.79488,0.96871c-0.71026,0.45795 -2.48863,1.16701 -2.48863,1.16701c0,0 -0.90134,1.25191 -1.86589,1.30408c-0.51672,0.02794 -0.98303,-0.83687 -1.49193,-1.19649c-0.41161,-0.29088 -1.51073,-2.0694 -1.6944,-2.32983z" fill="url(#color-5)" stroke="none" stroke-width="0" stroke-linecap="butt"></path><path d="M233.4576,171.59816l-0.99039,-2.82972" data-paper-data="{&quot;index&quot;:null}" fill="none" stroke="#003e6d" stroke-width="0.15" stroke-linecap="round"></path><g stroke="#000000"><path d="M233.69839,206.27751l-0.04501,-15.45202l5.18616,-0.02041l0.04501,15.45202z" data-paper-data="{&quot;index&quot;:null}" fill="url(#color-6)" stroke-width="0" stroke-linecap="butt"></path><path d="M238.98457,191.06648l-0.20685,15.17526l-5.10519,-0.07718l0.20574,-15.56434" data-paper-data="{&quot;index&quot;:null}" fill="none" stroke-width="0.15" stroke-linecap="round"></path></g><g stroke="#000000"><path d="M240.0205,206.36327v-15.45211h5.09699v15.45211z" data-paper-data="{&quot;index&quot;:null}" fill="url(#color-7)" stroke-width="0" stroke-linecap="butt"></path><path d="M245.25928,191.17313l-0.24674,15.17437l-5.01714,-0.09727l0.24676,-15.56345" data-paper-data="{&quot;index&quot;:null}" fill="none" stroke-width="0.15" stroke-linecap="round"></path></g><path d="M226.66537,187.10916c0,0 -0.96216,-0.56435 -0.89781,-1.18561c0.30848,-2.97797 2.22917,-11.56123 2.54489,-13.32866c0.11151,-0.62428 1.10015,-0.86417 1.10015,-0.86417l4.76398,0.85102l-2.74719,15.37847z" data-paper-data="{&quot;index&quot;:null}" fill="#ffe108" stroke="none" stroke-width="0" stroke-linecap="butt"></path></g></g></g></svg>