<svg version="1.1" xmlns="http://www.w3.org/2000/svg" xmlns:xlink="http://www.w3.org/1999/xlink" width="59.29634" height="38.74743" viewBox="0,0,59.29634,38.74743"><defs><radialGradient cx="241.32459" cy="221.16661" r="41.05645" gradientUnits="userSpaceOnUse" id="color-1"><stop offset="0" stop-color="#dadada"></stop><stop offset="1" stop-color="#5d5d5d"></stop></radialGradient><radialGradient cx="238.67541" cy="221.16661" r="41.05645" gradientUnits="userSpaceOnUse" id="color-2"><stop offset="0" stop-color="#dadada"></stop><stop offset="1" stop-color="#5d5d5d"></stop></radialGradient><radialGradient cx="239.75702" cy="187.95517" r="13.45438" gradientUnits="userSpaceOnUse" id="color-3"><stop offset="0" stop-color="#505050"></stop><stop offset="1" stop-color="#000000"></stop></radialGradient><linearGradient x1="239.01833" y1="162.2391" x2="239.01833" y2="196.66464" gradientUnits="userSpaceOnUse" id="color-4"><stop offset="0" stop-color="#51c9c9" stop-opacity="0"></stop><stop offset="1" stop-color="#51c9c9"></stop></linearGradient></defs><g transform="translate(-210.35183,-160.51785)"><g data-paper-data="{&quot;isPaintingLayer&quot;:true}" fill-rule="nonzero" stroke-linejoin="miter" stroke-miterlimit="10" stroke-dasharray="" stroke-dashoffset="0" style="mix-blend-mode: normal"><g><g><path d="M247.71748,192.24402l3.7494,2.17468c-1.70664,0.07719 -3.4137,0.13853 -5.12102,0.19016z" fill="url(#color-1)" stroke="none" stroke-width="0" stroke-linecap="butt"></path><path d="M269.64817,172.33349c0,0 -5.98585,7.76307 -8.19074,11.56456c-1.78062,3.06998 -4.0399,9.52247 -4.0399,9.52247l-8.87875,-5.14974l12.23064,-21.08702c0,0 4.1665,-0.54981 5.72681,0.35519c1.37606,0.79812 3.15194,4.79456 3.15194,4.79456z" fill="#c1832d" stroke="#000000" stroke-width="0" stroke-linecap="butt"></path><path d="M244.17155,186.85015c0.97767,-1.68561 5.12426,-1.1067 9.26166,1.29303c3.05938,1.77446 5.25708,4.04764 5.79935,5.79327c-2.98069,0.2437 -5.96328,0.41051 -8.94704,0.53323c-0.13086,-0.07229 -0.26181,-0.14641 -0.39275,-0.22236c-4.13741,-2.39973 -6.69889,-5.71155 -5.72122,-7.39717z" fill="#c1832d" stroke="none" stroke-width="0" stroke-linecap="butt"></path><path d="M268.7048,173.64033l-8.1629,-5.10534" fill="none" stroke="#906221" stroke-width="1" stroke-linecap="round"></path><path d="M264.97568,178.15184l-7.92983,-4.22856" fill="none" stroke="#906221" stroke-width="1" stroke-linecap="round"></path><path d="M261.27431,184.53344l-7.65237,-4.06763" fill="none" stroke="#906221" stroke-width="1" stroke-linecap="round"></path><path d="M249.49882,184.37799l9.34488,6.90331" fill="none" stroke="#906221" stroke-width="1" stroke-linecap="round"></path><path d="M243.38909,187.87952l11.01614,6.38944" fill="none" stroke="#906221" stroke-width="1" stroke-linecap="round"></path></g><g data-paper-data="{&quot;index&quot;:null}"><path d="M232.28252,192.24402l1.54231,2.65912c-2.15287,0.0515 -4.30565,0.11142 -6.45807,0.19206z" fill="url(#color-2)" stroke="none" stroke-width="0" stroke-linecap="butt"></path><path d="M213.50377,167.53893c1.56031,-0.90499 5.72681,-0.35519 5.72681,-0.35519l12.23064,21.08702l-8.87875,5.14974c0,0 -2.25928,-6.45249 -4.0399,-9.52247c-2.20489,-3.80149 -8.19074,-11.56456 -8.19074,-11.56456c0,0 1.77588,-3.99643 3.15194,-4.79456z" fill="#c1832d" stroke="#000000" stroke-width="0" stroke-linecap="butt"></path><path d="M230.10724,194.24732c-0.51066,0.29619 -1.02147,0.56464 -1.52643,0.80452c-1.82401,0.0621 -3.6478,0.1374 -5.4712,0.2334c-0.75404,0.0397 -1.54712,0.05477 -2.35726,0.06362c-0.69483,-1.73533 1.82847,-4.89378 5.81445,-7.20567c4.13741,-2.39973 8.284,-2.97864 9.26166,-1.29303c0.97767,1.68562 -1.58381,4.99744 -5.72122,7.39717z" fill="#c1832d" stroke="none" stroke-width="0" stroke-linecap="butt"></path><path d="M219.4581,168.53499l-8.1629,5.10534" fill="none" stroke="#906221" stroke-width="1" stroke-linecap="round"></path><path d="M215.02432,178.15184l7.92983,-4.22856" fill="none" stroke="#906221" stroke-width="1" stroke-linecap="round"></path><path d="M218.72569,184.53344l7.65237,-4.06763" fill="none" stroke="#906221" stroke-width="1" stroke-linecap="round"></path><path d="M221.1563,191.2813l9.34488,-6.90331" fill="none" stroke="#906221" stroke-width="1" stroke-linecap="round"></path><path d="M236.6109,187.87952l-12.69761,7.36471" fill="none" stroke="#906221" stroke-width="1" stroke-linecap="round"></path></g></g><g data-paper-data="{&quot;index&quot;:null}" stroke-linecap="butt"><g><path d="" fill="#b76000" stroke="none" stroke-width="0"></path><path d="" fill="#ffd8e6" stroke="#994f00" stroke-width="0.2"></path></g><g><path d="" fill="#b76000" stroke="none" stroke-width="0"></path><path d="" fill="#ffd8e6" stroke="#994f00" stroke-width="0.2"></path></g><g><path d="" fill="#b76000" stroke="none" stroke-width="0"></path><path d="" fill="#ffd8e6" stroke="#994f00" stroke-width="0.2"></path></g><g><path d="" fill="#b76000" stroke="none" stroke-width="0"></path><path d="" fill="#ffd8e6" stroke="#994f00" stroke-width="0.2"></path></g><g><path d="M265.5376,178.09928c1.18988,2.41979 2.39062,4.82342 3.60162,7.21528l-3.63171,8.0102c-0.97583,0.10105 -1.9539,0.20396 -2.93603,0.30474c-1.41514,0.14521 -2.83077,0.27031 -4.24681,0.37882z" fill="#b76000" stroke="none" stroke-width="0"></path><path d="" fill="#4a4a4a" stroke="#949494" stroke-width="1"></path><g><path d="" fill="#b76000" stroke="none" stroke-width="0"></path><path d="" fill="#ffd8e6" stroke="#994f00" stroke-width="0.2"></path></g></g></g><g stroke-linecap="butt"><g><path d="" fill="#b76000" stroke="none" stroke-width="0"></path><path d="" fill="#ffd8e6" stroke="#994f00" stroke-width="0.2"></path></g><g><path d="" fill="#b76000" stroke="none" stroke-width="0"></path><path d="" fill="#ffd8e6" stroke="#994f00" stroke-width="0.2"></path></g><g><path d="" fill="#b76000" stroke="none" stroke-width="0"></path><path d="" fill="#ffd8e6" stroke="#994f00" stroke-width="0.2"></path></g><g><path d="" fill="#b76000" stroke="none" stroke-width="0"></path><path d="" fill="#ffd8e6" stroke="#994f00" stroke-width="0.2"></path></g><g><path d="" fill="#b76000" stroke="none" stroke-width="0"></path><path d="M223.59018,192.84593l5.07336,1.46686l-0.21499,0.74357c-1.77992,0.06122 -3.55961,0.13519 -5.33894,0.22887c-0.0756,0.00398 -0.15159,0.00771 -0.22795,0.01122z" fill="#4a4a4a" stroke="#949494" stroke-width="1"></path><g><path d="" fill="#b76000" stroke="none" stroke-width="0"></path><path d="" fill="#ffd8e6" stroke="#994f00" stroke-width="0.2"></path></g></g></g><path d="M256.59793,192.68029c0,2.88198 -2.22848,5.21829 -4.97745,5.21829c-2.74896,0 -4.97744,-2.33631 -4.97744,-5.21829c0,-2.88198 2.22848,-5.21829 4.97744,-5.21829c2.74896,0 4.97745,2.3363 4.97745,5.21829z" fill="#000000" stroke="#949494" stroke-width="1" stroke-linecap="butt"></path><path d="M233.71291,192.17732c0,2.88198 -2.22848,5.21829 -4.97745,5.21829c-2.74896,0 -4.97744,-2.33631 -4.97744,-5.21829c0,-2.88198 2.22848,-5.21829 4.97744,-5.21829c2.74896,0 4.97745,2.3363 4.97745,5.21829z" fill="#000000" stroke="#949494" stroke-width="1" stroke-linecap="butt"></path><path d="M229.50468,185.64418c2.64734,0 16.42716,0 21.2613,0c1.01011,0 1.62965,3.4942 1.67542,8.72868c-8.18354,0.40014 -16.37718,0.40904 -24.56588,0.70366c0.07225,-4.5198 0.81207,-9.43234 1.62915,-9.43234z" fill="#000000" stroke="#fff7d9" stroke-width="2" stroke-linecap="butt"></path><path d="M251.19103,187.65061c0,3.47227 -4.87904,6.28709 -10.89763,6.28709c-6.0186,0 -10.89763,-2.81483 -10.89763,-6.28709c0,-3.47227 4.87904,-6.28709 10.89763,-6.28709c6.0186,0 10.89763,2.81483 10.89763,6.28709z" fill="#858585" stroke="#fff7d9" stroke-width="0" stroke-linecap="butt"></path><path d="M252.89765,172.02518c3.96692,6.28317 2.32724,14.44222 -3.66232,18.22377c-5.98956,3.78154 -14.06088,1.75358 -18.02779,-4.52958c-3.96692,-6.28317 -2.32724,-14.44222 3.66232,-18.22377c5.98956,-3.78154 14.06088,-1.75358 18.02779,4.52958z" fill="url(#color-3)" stroke="none" stroke-width="0" stroke-linecap="butt"></path><path d="M235.27654,177.54148c0,0 -2.04734,-0.59183 -2.30814,-1.23732c-0.2399,-0.59377 0.80081,-2.49343 0.80081,-2.49343l11.34768,-4.58479c0,0 1.87164,1.05203 2.12286,1.67383c0.25122,0.62179 -0.61553,2.05692 -0.61553,2.05692z" fill="#b76000" stroke="none" stroke-width="0" stroke-linecap="butt"></path><path d="M236.32544,174.767c-0.10406,-0.25755 0.02038,-0.5507 0.27792,-0.65476c0.25755,-0.10406 0.5507,0.02038 0.65476,0.27792c0.10406,0.25755 -0.02038,0.5507 -0.27792,0.65476c-0.25755,0.10406 -0.5507,-0.02038 -0.65476,-0.27792z" fill="#000000" stroke="none" stroke-width="0.5" stroke-linecap="butt"></path><path d="M242.91705,172.28462c-0.10406,-0.25755 0.02038,-0.5507 0.27792,-0.65476c0.25755,-0.10406 0.5507,0.02038 0.65476,0.27792c0.10406,0.25755 -0.02038,0.5507 -0.27792,0.65476c-0.25755,0.10406 -0.5507,-0.02038 -0.65476,-0.27792z" fill="#000000" stroke="none" stroke-width="0.5" stroke-linecap="butt"></path><path d="M237.91268,191.42287l-0.10059,-1.81068" fill="none" stroke="#8a8a8a" stroke-width="0.5" stroke-linecap="round"></path><path d="M240.02514,191.42287v-1.6095" fill="none" stroke="#8a8a8a" stroke-width="0.5" stroke-linecap="round"></path><path d="M242.3388,189.81337l0.20119,1.5089" fill="none" stroke="#8a8a8a" stroke-width="0.5" stroke-linecap="round"></path><g><path d="M229.12346,173.78253l-1.79007,-2.5841l13.23058,-9.16513l1.79006,2.5841z" fill="#cccccc" stroke="none" stroke-width="0" stroke-linecap="butt"></path><path d="M228.48068,170.20483l2.03028,2.75422" fill="none" stroke="#000000" stroke-width="0.5" stroke-linecap="round"></path><path d="M233.86943,170.38781l-1.80762,-2.78609" fill="none" stroke="#000000" stroke-width="0.5" stroke-linecap="round"></path><path d="M236.01204,165.3548l1.91571,2.58883" fill="none" stroke="#000000" stroke-width="0.5" stroke-linecap="round"></path><path d="M238.70897,163.24183l2.04923,2.2516" fill="none" stroke="#000000" stroke-width="0.5" stroke-linecap="round"></path><path d="M227.43757,171.17216l-0.9738,-1.40575c0,0 1.49518,-5.80824 3.3063,-7.06286c2.36621,-1.63913 9.6762,-1.93043 9.6762,-1.93043l0.9738,1.40575z" fill="#616161" stroke="#000000" stroke-width="0.5" stroke-linecap="butt"></path></g><path d="M232.94874,188.8647c0.29087,0.72136 0.25516,1.4156 -0.07976,1.55065c-0.33492,0.13505 -0.84221,-0.34025 -1.13308,-1.0616c-0.29087,-0.72136 -0.25516,-1.4156 0.07976,-1.55064c0.33492,-0.13505 0.84221,0.34025 1.13308,1.0616z" fill="none" stroke="#ffd200" stroke-width="1" stroke-linecap="butt"></path><path d="M233.57745,190.43647c0.29087,0.72135 0.25516,1.4156 -0.07976,1.55065c-0.33492,0.13505 -0.84221,-0.34025 -1.13308,-1.0616c-0.29087,-0.72135 -0.25516,-1.4156 0.07976,-1.55064c0.33492,-0.13505 0.84221,0.34025 1.13308,1.0616z" fill="none" stroke="#ffd200" stroke-width="1" stroke-linecap="butt"></path><path d="M234.26903,192.19686c0.29087,0.72135 0.25516,1.4156 -0.07976,1.55065c-0.33492,0.13505 -0.84221,-0.34025 -1.13308,-1.0616c-0.29087,-0.72135 -0.25516,-1.4156 0.07976,-1.55064c0.33492,-0.13505 0.84221,0.34025 1.13308,1.0616z" fill="none" stroke="#ffd200" stroke-width="1" stroke-linecap="butt"></path><path d="M235.14922,193.89437c0.29087,0.72135 0.25516,1.4156 -0.07976,1.55065c-0.33492,0.13505 -0.84221,-0.34025 -1.13308,-1.0616c-0.29087,-0.72135 -0.25516,-1.4156 0.07976,-1.55064c0.33492,-0.13505 0.84221,0.34025 1.13308,1.0616z" fill="none" stroke="#ffd200" stroke-width="1" stroke-linecap="butt"></path><path d="M235.71506,195.52902c0.29087,0.72135 0.25516,1.4156 -0.07976,1.55065c-0.33492,0.13505 -0.84221,-0.34025 -1.13308,-1.0616c-0.29087,-0.72135 -0.25516,-1.4156 0.07976,-1.55064c0.33492,-0.13505 0.84221,0.34025 1.13308,1.0616z" fill="none" stroke="#ffd200" stroke-width="1" stroke-linecap="butt"></path><path d="M249.71839,188.30607c0.33492,0.13505 0.37062,0.82929 0.07976,1.55064c-0.29087,0.72136 -0.79816,1.19665 -1.13308,1.0616c-0.33492,-0.13505 -0.37062,-0.82929 -0.07976,-1.55065c0.29087,-0.72136 0.79816,-1.19665 1.13308,-1.0616z" data-paper-data="{&quot;index&quot;:null}" fill="none" stroke="#ffd200" stroke-width="1" stroke-linecap="butt"></path><path d="M248.71245,190.00358c0.33492,0.13505 0.37062,0.82929 0.07976,1.55064c-0.29087,0.72135 -0.79816,1.19665 -1.13308,1.0616c-0.33492,-0.13505 -0.37062,-0.82929 -0.07976,-1.55065c0.29087,-0.72135 0.79816,-1.19665 1.13308,-1.0616z" data-paper-data="{&quot;index&quot;:null}" fill="none" stroke="#ffd200" stroke-width="1" stroke-linecap="butt"></path><path d="M248.02087,191.76397c0.33492,0.13505 0.37062,0.82929 0.07976,1.55064c-0.29087,0.72135 -0.79816,1.19665 -1.13308,1.0616c-0.33492,-0.13505 -0.37062,-0.82929 -0.07976,-1.55065c0.29087,-0.72135 0.79816,-1.19665 1.13308,-1.0616z" data-paper-data="{&quot;index&quot;:null}" fill="none" stroke="#ffd200" stroke-width="1" stroke-linecap="butt"></path><path d="M247.14068,193.46148c0.33492,0.13505 0.37062,0.82929 0.07976,1.55064c-0.29087,0.72135 -0.79816,1.19665 -1.13308,1.0616c-0.33492,-0.13505 -0.37062,-0.82929 -0.07976,-1.55065c0.29087,-0.72135 0.79816,-1.19665 1.13308,-1.0616z" data-paper-data="{&quot;index&quot;:null}" fill="none" stroke="#ffd200" stroke-width="1" stroke-linecap="butt"></path><path d="M246.57484,195.159c0.33492,0.13505 0.37062,0.82929 0.07976,1.55064c-0.29087,0.72135 -0.79816,1.19665 -1.13308,1.0616c-0.33492,-0.13505 -0.37062,-0.82929 -0.07976,-1.55065c0.29087,-0.72135 0.79816,-1.19665 1.13308,-1.0616z" data-paper-data="{&quot;index&quot;:null}" fill="none" stroke="#ffd200" stroke-width="1" stroke-linecap="butt"></path><text transform="translate(234.57423,198.3053) scale(0.0768,0.0768)" font-size="40" xml:space="preserve" fill="#ffffff" fill-rule="nonzero" stroke="#ffd200" stroke-width="1" stroke-linecap="butt" stroke-linejoin="miter" stroke-miterlimit="10" stroke-dasharray="" stroke-dashoffset="0" font-family="Sans Serif" font-weight="normal" text-anchor="start" style="mix-blend-mode: normal"><tspan x="0" dy="0">HITMAN</tspan></text><path d="M214.78798,196.66464v-34.42553h48.46072v34.42553z" fill="url(#color-4)" stroke="none" stroke-width="0" stroke-linecap="butt"></path></g></g></svg>