<svg version="1.1" xmlns="http://www.w3.org/2000/svg" xmlns:xlink="http://www.w3.org/1999/xlink" width="73.92018" height="71.33407" viewBox="0,0,73.92018,71.33407"><g transform="translate(-202.84993,-146.66128)"><g data-paper-data="{&quot;isPaintingLayer&quot;:true}" fill-rule="nonzero" stroke-linejoin="miter" stroke-miterlimit="10" stroke-dasharray="" stroke-dashoffset="0" style="mix-blend-mode: normal"><path d="M206.26396,153.81303v-1.4448h6.79055v1.4448c0,0 -2.42663,0.86688 -3.612,0.86688c-1.06531,0 -3.17856,-0.86688 -3.17856,-0.86688z" fill="#b7b7b7" stroke="#000000" stroke-width="0.5" stroke-linecap="butt"></path><path d="M206.9034,152.64029l-1.49638,-3.9136l1.01214,-0.38699l1.49638,3.9136z" fill="#dfdfdf" stroke="#000000" stroke-width="0.5" stroke-linecap="butt"></path><path d="M210.68054,152.54226l1.49638,-3.9136l1.01214,0.38699l-1.49638,3.9136z" data-paper-data="{&quot;index&quot;:null}" fill="#dfdfdf" stroke="#000000" stroke-width="0.5" stroke-linecap="butt"></path><path d="M203.37437,149.0452v-2.38392h4.47888v2.38392z" fill="#f2f2f2" stroke="none" stroke-width="0.5" stroke-linecap="butt"></path><path d="M210.95956,149.18968v-2.38392h4.47887v2.38392z" fill="#f2f2f2" stroke="none" stroke-width="0.5" stroke-linecap="butt"></path><path d="M267.59565,155.33007v-1.4448h6.79055v1.4448c0,0 -2.42663,0.86688 -3.612,0.86688c-1.06531,0 -3.17856,-0.86688 -3.17856,-0.86688z" fill="#b7b7b7" stroke="#000000" stroke-width="0.5" stroke-linecap="butt"></path><path d="M268.23508,154.15733l-1.49638,-3.9136l1.01214,-0.38699l1.49638,3.9136z" fill="#dfdfdf" stroke="#000000" stroke-width="0.5" stroke-linecap="butt"></path><path d="M272.01222,154.0593l1.49638,-3.9136l1.01214,0.38699l-1.49638,3.9136z" data-paper-data="{&quot;index&quot;:null}" fill="#dfdfdf" stroke="#000000" stroke-width="0.5" stroke-linecap="butt"></path><path d="M264.70605,150.56224v-2.38392h4.47888v2.38392z" fill="#f2f2f2" stroke="none" stroke-width="0.5" stroke-linecap="butt"></path><path d="M272.29124,150.70672v-2.38392h4.47887v2.38392z" fill="#f2f2f2" stroke="none" stroke-width="0.5" stroke-linecap="butt"></path><path d="M266.07861,216.87847v-1.4448h6.79055v1.4448c0,0 -2.42663,0.86688 -3.612,0.86688c-1.06531,0 -3.17856,-0.86688 -3.17856,-0.86688z" fill="#b7b7b7" stroke="#000000" stroke-width="0.5" stroke-linecap="butt"></path><path d="M266.71805,215.70573l-1.49638,-3.9136l1.01214,-0.38699l1.49638,3.9136z" fill="#dfdfdf" stroke="#000000" stroke-width="0.5" stroke-linecap="butt"></path><path d="M270.49518,215.6077l1.49638,-3.9136l1.01214,0.38699l-1.49638,3.9136z" data-paper-data="{&quot;index&quot;:null}" fill="#dfdfdf" stroke="#000000" stroke-width="0.5" stroke-linecap="butt"></path><path d="M263.18901,212.11064v-2.38392h4.47888v2.38392z" fill="#f2f2f2" stroke="none" stroke-width="0.5" stroke-linecap="butt"></path><path d="M270.7742,212.25512v-2.38392h4.47887v2.38392z" fill="#f2f2f2" stroke="none" stroke-width="0.5" stroke-linecap="butt"></path><path d="M205.83052,216.66175v-1.4448h6.79055v1.4448c0,0 -2.42663,0.86688 -3.612,0.86688c-1.06531,0 -3.17856,-0.86688 -3.17856,-0.86688z" fill="#b7b7b7" stroke="#000000" stroke-width="0.5" stroke-linecap="butt"></path><path d="M206.46996,215.48901l-1.49638,-3.9136l1.01214,-0.38699l1.49638,3.9136z" fill="#dfdfdf" stroke="#000000" stroke-width="0.5" stroke-linecap="butt"></path><path d="M210.2471,215.39098l1.49638,-3.9136l1.01214,0.38699l-1.49638,3.9136z" data-paper-data="{&quot;index&quot;:null}" fill="#dfdfdf" stroke="#000000" stroke-width="0.5" stroke-linecap="butt"></path><path d="M202.94093,211.89392v-2.38392h4.47888v2.38392z" fill="#f2f2f2" stroke="none" stroke-width="0.5" stroke-linecap="butt"></path><path d="M210.52612,212.0384v-2.38392h4.47887v2.38392z" fill="#f2f2f2" stroke="none" stroke-width="0.5" stroke-linecap="butt"></path><path d="M203.1875,209.80556l1.625,1l-1.375,0.125l1.5,0.25" fill="none" stroke="#000000" stroke-width="0.15" stroke-linecap="round"></path><path d="M211.9375,210.93056l0.375,-0.875l0.125,1.25l0.75,-0.75" fill="none" stroke="#000000" stroke-width="0.15" stroke-linecap="round"></path><path d="M272.6875,210.43056l1,1.25" fill="none" stroke="#000000" stroke-width="0.15" stroke-linecap="round"></path><path d="M274.1875,210.43056l-1.5,1.25" fill="none" stroke="#000000" stroke-width="0.15" stroke-linecap="round"></path><path d="M263.6875,211.55556l1.125,-0.75" fill="none" stroke="#000000" stroke-width="0.15" stroke-linecap="round"></path><path d="M265.0625,211.55556l-1.5,-1.75" fill="none" stroke="#000000" stroke-width="0.15" stroke-linecap="round"></path><path d="M205.5625,148.05555l0.875,-0.5" fill="none" stroke="#000000" stroke-width="0.15" stroke-linecap="round"></path><path d="M211.6875,147.55555l0.75,0.375l0.75,-0.375l0.75,0.75l-1.375,0.375" fill="none" stroke="#000000" stroke-width="0.15" stroke-linecap="round"></path><path d="M213.3125,147.68055l0.75,0.125" fill="none" stroke="#000000" stroke-width="0.15" stroke-linecap="round"></path><path d="M265.9375,149.18055l1.375,1v-0.875" fill="none" stroke="#000000" stroke-width="0.15" stroke-linecap="round"></path><path d="M273.5625,148.68055l1.125,0.875l-2.25,0.875" fill="none" stroke="#000000" stroke-width="0.15" stroke-linecap="round"></path><path d="M273.9375,149.93055l1.5,0.625" fill="none" stroke="#000000" stroke-width="0.15" stroke-linecap="round"></path></g></g></svg>