<svg version="1.1" xmlns="http://www.w3.org/2000/svg" xmlns:xlink="http://www.w3.org/1999/xlink" width="181.96744" height="259.48721" viewBox="0,0,181.96744,259.48721"><defs><linearGradient x1="70.37956" y1="159.15607" x2="124.37956" y2="159.15607" gradientUnits="userSpaceOnUse" id="color-1"><stop offset="0" stop-color="#c6634f"></stop><stop offset="1" stop-color="#ffbc66"></stop></linearGradient><radialGradient cx="195.43136" cy="210.85387" r="20.42666" gradientUnits="userSpaceOnUse" id="color-2"><stop offset="0" stop-color="#ffffff"></stop><stop offset="1" stop-color="#ad4545"></stop></radialGradient></defs><g transform="translate(-21.43761,-94.95774)"><g data-paper-data="{&quot;isPaintingLayer&quot;:true}" fill-rule="nonzero" stroke-linejoin="miter" stroke-miterlimit="10" stroke-dasharray="" stroke-dashoffset="0" style="mix-blend-mode: normal"><path d="M65.14645,353.01186v-151.43636h59.15483v151.43636z" fill="#b98585" stroke="none" stroke-width="0" stroke-linecap="butt"></path><path d="M126.74509,193.74201c-6.10998,15.71134 -24.08062,23.38555 -40.1386,17.14082c-16.05797,-6.24476 -24.12234,-24.0437 -18.01236,-39.75508c6.10998,-15.71134 24.08062,-23.38556 40.13858,-17.14083c16.05797,6.24476 24.12234,24.0437 18.01236,39.7551z" fill="#fffad7" stroke="none" stroke-width="0" stroke-linecap="butt"></path><path d="M103.94216,192.98145c1.11743,1.25888 -0.14145,2.37632 -0.14145,2.37632l-0.73513,0.58534c-4.9535,7.14794 -13.52586,8.88777 -21.4033,5.8173c0,0 -1.56245,-0.62625 -0.93619,-2.18868c0.62625,-1.56244 2.1887,-0.93619 2.1887,-0.93619c6.28568,2.61108 13.45864,1.22387 17.37203,-4.59297l1.27908,-1.20252c0,0 1.25888,-1.11744 2.37631,0.14144z" fill="#000000" stroke="none" stroke-width="0.5" stroke-linecap="butt"></path><path d="M32.99258,285.66409l28.08369,-67.3923l14.68496,10.07474l-28.08368,67.39231z" fill="#fffad7" stroke="none" stroke-width="0" stroke-linecap="butt"></path><path d="M186.06457,232.1367l-68.68258,24.76134l-2.47698,-17.63552l68.6826,-24.76136z" fill="#fffad7" stroke="none" stroke-width="0" stroke-linecap="butt"></path><path d="M75.79432,351.82877l3.54929,-146.70397" fill="none" stroke="#000000" stroke-width="0.5" stroke-linecap="round"></path><path d="M110.69567,209.26563l0.59155,144.92932" fill="none" stroke="#000000" stroke-width="0.5" stroke-linecap="round"></path><path d="M70.37956,166.48941l4.33333,-10l31,-6.66667l18.66667,18.66667z" fill="url(#color-1)" stroke="none" stroke-width="NaN" stroke-linecap="butt"></path><path d="M75.37956,160.15607l36.33333,6.66667" fill="none" stroke="#000000" stroke-width="0.5" stroke-linecap="round"></path><path d="M89.04622,154.82274l27,7" fill="none" stroke="#000000" stroke-width="0.5" stroke-linecap="round"></path><g><path d="M63.74685,171.65381c0,0 -6.5053,-0.30208 -7.82051,-2.08539c-0.89353,-1.2115 0.69293,-7.57892 0.69293,-7.57892l46.5412,-34.32494c0,0 6.29882,0.55447 7.37863,2.01865c1.26621,1.71687 -0.25106,7.64568 -0.25106,7.64568z" fill="#000000" stroke="none" stroke-width="0" stroke-linecap="butt"></path><path d="M63.33001,137.01468l-19.69463,-26.70399l8.64701,-6.3773l19.69463,26.70399z" fill="#00d95b" stroke="none" stroke-width="0" stroke-linecap="butt"></path><path d="M87.68776,125.54924l-9.10315,-0.786c0,0 5.54542,-18.9392 9.6375,-25.47921c3.37103,-5.38762 20.51421,-4.21941 20.51421,-4.21941l7.93019,13.03815c0,0 -3.78106,4.09353 -5.48155,3.82987c-5.21993,-0.80933 -14.01229,-11.62823 -16.74394,-6.17243c-3.17797,6.34717 -6.75326,19.78904 -6.75326,19.78904z" fill="#d90000" stroke="none" stroke-width="0" stroke-linecap="butt"></path><path d="M118.25605,109.26712c1.60566,2.17713 1.08544,5.28564 -1.16187,6.94312c-2.24733,1.65744 -5.37085,1.23619 -6.97648,-0.94091c-1.60566,-2.17713 -1.08543,-5.28564 1.16187,-6.94312c2.24733,-1.65744 5.37084,-1.23619 6.97648,0.94092z" fill="#ffc500" stroke="none" stroke-width="0" stroke-linecap="butt"></path><path d="M118.63283,113.50485l-8.51675,-1.9646" fill="none" stroke="#000000" stroke-width="0.5" stroke-linecap="round"></path><path d="M112.04579,115.22161l2.7816,-7.94136" fill="none" stroke="#000000" stroke-width="0.5" stroke-linecap="round"></path><path d="M35.87871,146.98761c-6.01927,0.9982 1.71968,12.59402 0.95092,17.82006c-0.25043,1.70252 -5.27824,4.10563 -5.27824,4.10563l-10.11378,-11.42774c0,0 3.94791,-16.72328 10.09091,-18.35238c7.45696,-1.97757 27.18912,-1.68105 27.18912,-1.68105l-1.9381,8.92913c0,0 -13.89816,-0.55489 -20.90082,0.60631z" data-paper-data="{&quot;index&quot;:null}" fill="#0048d9" stroke="none" stroke-width="0" stroke-linecap="butt"></path><path d="M33.35622,163.83275c2.24733,-1.65744 5.37082,-1.23621 6.97648,0.94092c1.60566,2.17713 1.08547,5.28568 -1.16186,6.94312c-2.24733,1.65744 -5.37085,1.23619 -6.9765,-0.94093c-1.60566,-2.17713 -1.08544,-5.28564 1.16188,-6.94308z" data-paper-data="{&quot;index&quot;:null}" fill="#ffc500" stroke="none" stroke-width="0" stroke-linecap="butt"></path><path d="M36.13164,172.38761l0.6389,-8.71702" data-paper-data="{&quot;index&quot;:null}" fill="none" stroke="#000000" stroke-width="0.5" stroke-linecap="round"></path><path d="M39.71757,166.60166l-8.40863,0.31166" data-paper-data="{&quot;index&quot;:null}" fill="none" stroke="#000000" stroke-width="0.5" stroke-linecap="round"></path><path d="M53.60183,120.62985l-9.59135,-9.8105l8.27186,-6.88596l6.15165,13.13265z" fill="#00964e" stroke="none" stroke-width="0" stroke-linecap="butt"></path><path d="M61.00427,115.75939c1.60566,2.17713 1.08547,5.28568 -1.16186,6.94312c-2.24733,1.65744 -5.37085,1.23618 -6.9765,-0.94093c-1.60566,-2.17713 -1.08544,-5.28564 1.16188,-6.94308c2.24733,-1.65744 5.37082,-1.23621 6.97648,0.94092z" fill="#ffc500" stroke="none" stroke-width="0" stroke-linecap="butt"></path><path d="M61.38105,119.99713l-8.51675,-1.9646" fill="none" stroke="#000000" stroke-width="0.5" stroke-linecap="round"></path><path d="M57.57562,113.77252l-2.7816,7.94138" fill="none" stroke="#000000" stroke-width="0.5" stroke-linecap="round"></path><path d="M56.55248,162.4314l-10.31623,-13.9878c0,0 11.98928,-15.91013 19.76722,-21.64651c7.73553,-5.70511 26.77398,-12.67843 26.77398,-12.67843l10.31626,13.98779z" fill="#dadada" stroke="none" stroke-width="0" stroke-linecap="butt"></path><path d="M54.61007,160.33009l10.12183,-32.5951l36.84858,-0.08306" fill="none" stroke="#4a00f3" stroke-width="0.25" stroke-linecap="round"></path></g><g stroke-linecap="butt"><path d="M201.87657,224.83232c-3.74074,10.64308 -14.55251,16.53681 -24.1487,13.16402c-9.59623,-3.3728 -14.343,-14.73493 -10.60226,-25.378c3.74074,-10.64307 14.55249,-16.53681 24.14869,-13.16402c9.59623,3.3728 14.34301,14.73493 10.60227,25.378z" fill="url(#color-2)" stroke="#000000" stroke-width="0.5"></path><path d="M195.55228,208.64671c-0.46953,1.33591 -1.93312,2.03823 -3.26902,1.5687c-1.33591,-0.46953 -2.03824,-1.93312 -1.56871,-3.26902c0.46953,-1.33591 1.93313,-2.03823 3.26903,-1.5687c1.33591,0.46953 2.03823,1.93312 1.56869,3.26902z" fill="#000000" stroke="none" stroke-width="0"></path><path d="M199.65298,213.52543c-0.46953,1.33591 -1.93312,2.03823 -3.26902,1.5687c-1.33591,-0.46953 -2.03824,-1.93312 -1.56871,-3.26902c0.46953,-1.33591 1.93312,-2.03824 3.26903,-1.5687c1.33591,0.46953 2.03822,1.93313 1.56869,3.26902z" fill="#000000" stroke="none" stroke-width="0"></path><path d="M193.77588,214.89729c-0.46953,1.33591 -1.93312,2.03823 -3.26902,1.5687c-1.33591,-0.46953 -2.03824,-1.93312 -1.56871,-3.26902c0.46953,-1.33591 1.93313,-2.03822 3.26902,-1.56869c1.33591,0.46953 2.03823,1.93312 1.5687,3.26902z" fill="#000000" stroke="none" stroke-width="0"></path></g><path d="M76.37956,172.15607l9.66667,5.66667l-7.33333,2" fill="none" stroke="#000000" stroke-width="0.5" stroke-linecap="round"></path><path d="M107.04622,178.15607l-6,-1.66667l7,-4" fill="none" stroke="#000000" stroke-width="0.5" stroke-linecap="round"></path></g></g></svg>