<svg version="1.1" xmlns="http://www.w3.org/2000/svg" xmlns:xlink="http://www.w3.org/1999/xlink" width="67.17076" height="54.28889" viewBox="0,0,67.17076,54.28889"><defs><radialGradient cx="218.7147" cy="167.70983" r="2.76471" gradientUnits="userSpaceOnUse" id="color-1"><stop offset="0" stop-color="#00f1ff"></stop><stop offset="1" stop-color="#00f1ff" stop-opacity="0"></stop></radialGradient><radialGradient cx="226.96898" cy="168.60109" r="2.76471" gradientUnits="userSpaceOnUse" id="color-2"><stop offset="0" stop-color="#ffec66"></stop><stop offset="1" stop-color="#ffec66" stop-opacity="0"></stop></radialGradient><radialGradient cx="231.71898" cy="167.28859" r="2.76471" gradientUnits="userSpaceOnUse" id="color-3"><stop offset="0" stop-color="#ff6666"></stop><stop offset="1" stop-color="#ff6666" stop-opacity="0"></stop></radialGradient></defs><g transform="translate(-203.27778,-160.3)"><g data-paper-data="{&quot;isPaintingLayer&quot;:true}" fill-rule="nonzero" stroke-linejoin="miter" stroke-miterlimit="10" stroke-dasharray="" stroke-dashoffset="0" style="mix-blend-mode: normal"><text transform="translate(232.82996,174.26571) scale(0.12909,0.12909)" font-size="40" xml:space="preserve" fill="#232323" fill-rule="nonzero" stroke="none" stroke-width="1" stroke-linecap="butt" stroke-linejoin="miter" stroke-miterlimit="10" stroke-dasharray="" stroke-dashoffset="0" font-family="Sans Serif" font-weight="normal" text-anchor="start" style="mix-blend-mode: normal"><tspan x="0" dy="0">xamt8</tspan></text><path d="M219.53518,207.87193l-0.83822,-11.35926l0.99008,-0.05127l1.94933,11.35926z" fill="#e7e7e7" stroke="none" stroke-width="0" stroke-linecap="butt"></path><path d="M258.38889,205.05556v-9.22222h8v9.22222z" fill="#8c8c8c" stroke="none" stroke-width="0" stroke-linecap="butt"></path><path d="M228.94444,203.5v-7.88889h30v7.88889z" fill="#afafaf" stroke="none" stroke-width="0" stroke-linecap="butt"></path><path d="M232.83333,202.40196c0,3.44366 -2.63655,6.23529 -5.88889,6.23529c-3.25234,0 -5.88889,-2.79164 -5.88889,-6.23529c0,-3.44366 2.63655,-6.23529 5.88889,-6.23529c3.25234,0 5.88889,2.79164 5.88889,6.23529z" fill="#d4d4d4" stroke="none" stroke-width="0" stroke-linecap="butt"></path><path d="M210.9,195.18889v-13l52.71111,0.77778l3.55556,12z" fill="#c6c6c6" stroke="none" stroke-width="0" stroke-linecap="butt"></path><path d="M211.23334,183.6l2.54585,-19.4l44.67356,0.2425l5.0917,19.1575z" fill="#787878" stroke="none" stroke-width="0" stroke-linecap="butt"></path><path d="M211.7,164.5l3.4,-4l42.2,-0.2l3.35556,3.97778c0,0 -1.39583,6.8838 -1.78185,8.7875c-0.18582,0.91642 -0.41291,2.03636 -0.41291,2.03636c0,0 -36.48051,1.19835 -42.16079,1.19835c-2.42251,0 -4.6,-11.8 -4.6,-11.8z" fill="#cacaca" stroke="none" stroke-width="0" stroke-linecap="butt"></path><path d="M209.3,195.7l2.8,-32l2.8,0.2l-2.4,31.8z" fill="#b7b7b7" stroke="none" stroke-width="0" stroke-linecap="butt"></path><path d="M215.3,173.7v-6l42.48889,0.11111l0.44444,5.77778z" fill="#dadada" stroke="none" stroke-width="0" stroke-linecap="butt"></path><path d="M266.71296,194.32009l-10.30052,-30.28063l3.9037,-0.35499l10.1324,29.59674z" data-paper-data="{&quot;index&quot;:null}" fill="#b7b7b7" stroke="none" stroke-width="0" stroke-linecap="butt"></path><path d="M219.7,187.7c0,0.7732 -0.71634,1.4 -1.6,1.4c-0.88366,0 -1.6,-0.6268 -1.6,-1.4c0,-0.7732 0.71634,-1.4 1.6,-1.4c0.88366,0 1.6,0.6268 1.6,1.4z" fill="#969696" stroke="none" stroke-width="0" stroke-linecap="butt"></path><path d="M223.9,187.5c0,0.7732 -0.76112,1.4 -1.7,1.4c-0.93888,0 -1.7,-0.6268 -1.7,-1.4c0,-0.7732 0.76112,-1.4 1.7,-1.4c0.93888,0 1.7,0.6268 1.7,1.4z" fill="#969696" stroke="none" stroke-width="0" stroke-linecap="butt"></path><path d="M228.7,187.4c0,0.93888 -0.76112,1.7 -1.7,1.7c-0.93888,0 -1.7,-0.76112 -1.7,-1.7c0,-0.93888 0.76112,-1.7 1.7,-1.7c0.93888,0 1.7,0.76112 1.7,1.7z" fill="#969696" stroke="none" stroke-width="0" stroke-linecap="butt"></path><path d="M222.3,191.6c0,0.71797 -0.6268,1.3 -1.4,1.3c-0.7732,0 -1.4,-0.58203 -1.4,-1.3c0,-0.71797 0.6268,-1.3 1.4,-1.3c0.7732,0 1.4,0.58203 1.4,1.3z" fill="#969696" stroke="none" stroke-width="0" stroke-linecap="butt"></path><path d="M226.7,191.5c0,0.66274 -0.67157,1.2 -1.5,1.2c-0.82843,0 -1.5,-0.53726 -1.5,-1.2c0,-0.66274 0.67157,-1.2 1.5,-1.2c0.82843,0 1.5,0.53726 1.5,1.2z" fill="#969696" stroke="none" stroke-width="0" stroke-linecap="butt"></path><path d="M231.7,191.4c0,0.71797 -0.67157,1.3 -1.5,1.3c-0.82843,0 -1.5,-0.58203 -1.5,-1.3c0,-0.71797 0.67157,-1.3 1.5,-1.3c0.82843,0 1.5,0.58203 1.5,1.3z" fill="#969696" stroke="none" stroke-width="0" stroke-linecap="butt"></path><g stroke="none" stroke-width="0" stroke-linecap="butt"><path d="M221.025,170.85c0,1.04934 -0.89543,1.9 -2,1.9c-1.10457,0 -2,-0.85066 -2,-1.9c0,-1.04934 0.89543,-1.9 2,-1.9c1.10457,0 2,0.85066 2,1.9z" fill="#6b6b6b"></path><path d="M220.55,170.35c0,1.04934 -0.89543,1.9 -2,1.9c-1.10457,0 -2,-0.85066 -2,-1.9c0,-1.04934 0.89543,-1.9 2,-1.9c1.10457,0 2,0.85066 2,1.9z" fill="#000000"></path></g><g stroke="none" stroke-width="0" stroke-linecap="butt"><path d="M227.15,170.85c0,1.04934 -0.89543,1.9 -2,1.9c-1.10457,0 -2,-0.85066 -2,-1.9c0,-1.04934 0.89543,-1.9 2,-1.9c1.10457,0 2,0.85066 2,1.9z" fill="#6b6b6b"></path><path d="M226.675,170.35c0,1.04934 -0.89543,1.9 -2,1.9c-1.10457,0 -2,-0.85066 -2,-1.9c0,-1.04934 0.89543,-1.9 2,-1.9c1.10457,0 2,0.85066 2,1.9z" fill="#000000"></path></g><g stroke="none" stroke-width="0" stroke-linecap="butt"><path d="M232.65,171.225c0,1.04934 -0.89543,1.9 -2,1.9c-1.10457,0 -2,-0.85066 -2,-1.9c0,-1.04934 0.89543,-1.9 2,-1.9c1.10457,0 2,0.85066 2,1.9z" fill="#6b6b6b"></path><path d="M232.175,170.725c0,1.04934 -0.89543,1.9 -2,1.9c-1.10457,0 -2,-0.85066 -2,-1.9c0,-1.04934 0.89543,-1.9 2,-1.9c1.10457,0 2,0.85066 2,1.9z" fill="#000000"></path></g><path d="M236.62917,171.81528v-1.75h14.5v1.75z" fill="#000000" stroke="none" stroke-width="0" stroke-linecap="butt"></path><path d="M240.94444,191.83333v-5.66667h15.66667v5.66667z" fill="#ccbdbd" stroke="none" stroke-width="0" stroke-linecap="butt"></path><path d="M204.38889,195.72222v-1.22222h8v1.22222z" fill="#b7b7b7" stroke="none" stroke-width="0" stroke-linecap="butt"></path><path d="M204.83333,195.16667v-2.66667h2.22222v2.66667z" fill="#b7b7b7" stroke="none" stroke-width="0" stroke-linecap="butt"></path><path d="M206.83333,191.88889c0,0.58297 -0.47259,1.05556 -1.05556,1.05556c-0.58297,0 -1.05556,-0.47259 -1.05556,-1.05556c0,-0.58297 0.47259,-1.05556 1.05556,-1.05556c0.58297,0 1.05556,0.47259 1.05556,1.05556z" fill="#b7b7b7" stroke="none" stroke-width="0" stroke-linecap="butt"></path><path d="M266.16667,209.26444v-16.98667h4.11111v16.98667c0,0 -3.63968,1.96 -4.22222,1.96c-0.74667,0 0.11111,-1.96 0.11111,-1.96z" fill="#b7b7b7" stroke="none" stroke-width="0" stroke-linecap="butt"></path><path d="M204.27778,208.51778v-13.62667h3.22222v13.62667z" fill="#b7b7b7" stroke="none" stroke-width="0" stroke-linecap="butt"></path><path d="M203.27778,209.17111v-0.84h5.11111v0.84z" fill="#b7b7b7" stroke="none" stroke-width="0" stroke-linecap="butt"></path><path d="M203.94444,213.27778v-4.48h3.33333c0,0 0.3652,0.74144 -0.59647,1.4981c-0.57211,0.45015 0.35058,1.30102 0.04091,1.76857c-0.27397,0.41366 0.55556,1.21333 0.55556,1.21333z" fill="#b7b7b7" stroke="none" stroke-width="0" stroke-linecap="butt"></path><path d="M209.94444,207.77111v-13.25333h2.55556v13.25333z" fill="#b7b7b7" stroke="none" stroke-width="0" stroke-linecap="butt"></path><path d="M211.81612,209.88949l-2.05917,-2.31938l2.31581,-1.45072l2.05917,2.31938z" fill="#b7b7b7" stroke="none" stroke-width="0" stroke-linecap="butt"></path><path d="M211.72222,209.82444v-2.05333h48.88889v2.05333z" fill="#b7b7b7" stroke="none" stroke-width="0" stroke-linecap="butt"></path><path d="M268.83333,209.40667c0,2.86206 -2.26345,5.18222 -5.05556,5.18222c-2.79211,0 -5.05556,-2.32016 -5.05556,-5.18222c0,-2.86206 2.26345,-5.18222 5.05556,-5.18222c2.79211,0 5.05556,2.32016 5.05556,5.18222z" fill="#000000" stroke="none" stroke-width="0" stroke-linecap="butt"></path><path d="M265.5,209.33111c0,1.01866 -0.77107,1.84444 -1.72222,1.84444c-0.95116,0 -1.72222,-0.82579 -1.72222,-1.84444c0,-1.01866 0.77107,-1.84444 1.72222,-1.84444c0.95116,0 1.72222,0.82579 1.72222,1.84444z" fill="#636363" stroke="none" stroke-width="0" stroke-linecap="butt"></path><path d="M203.72222,209.63778h3.44444" fill="none" stroke="#000000" stroke-width="0.5" stroke-linecap="round"></path><path d="M203.72222,211.31778l2.88889,0.09333" fill="none" stroke="#000000" stroke-width="0.5" stroke-linecap="round"></path><path d="M212.27778,196.05556v-1.77778h54.11111v1.77778z" fill="#808080" stroke="none" stroke-width="0" stroke-linecap="butt"></path><path d="M229.5,202.33333c0,0.95116 -1.0198,1.72222 -2.27778,1.72222c-1.25798,0 -2.27778,-0.77107 -2.27778,-1.72222c0,-0.95116 1.0198,-1.72222 2.27778,-1.72222c1.25798,0 2.27778,0.77107 2.27778,1.72222z" fill="#afafaf" stroke="none" stroke-width="0" stroke-linecap="butt"></path><g stroke="none" stroke-width="0" stroke-linecap="butt"><path d="M239.22505,164.04798c0,0.12006 -0.39905,0.21739 -0.8913,0.21739c-0.49225,0 -0.8913,-0.09733 -0.8913,-0.21739c0,-0.12006 0.39905,-0.21739 0.8913,-0.21739c0.49225,0 0.8913,0.09733 0.8913,0.21739z" fill="#ff7777"></path><path d="M237.82639,171.4984v-5.07692h1.15385v5.07692z" fill="#96929d"></path><path d="M237.72831,166.50994l-0.26957,-2.44348h1.7087l-0.18913,2.44348z" fill="#ffb5b5"></path><path d="M237.39896,165.0045v-0.30435h1.69565l0.13043,0.34783z" fill="#ff7777"></path><path d="M237.70331,166.04798v-0.21739h1.30435v0.21739z" fill="#ff7777"></path></g><g><path d="M221.47941,167.70983c0,1.37421 -1.2378,2.48824 -2.76471,2.48824c-1.5269,0 -2.76471,-1.11402 -2.76471,-2.48824c0,-1.37421 1.2378,-2.48824 2.76471,-2.48824c1.5269,0 2.76471,1.11402 2.76471,2.48824z" fill="url(#color-1)" stroke="none" stroke-width="0" stroke-linecap="butt"></path><text transform="translate(218.72728,168.98978) rotate(-87.04847) scale(0.02329,0.02329)" font-size="40" xml:space="preserve" fill="#232323" fill-rule="nonzero" stroke="none" stroke-width="1" stroke-linecap="butt" stroke-linejoin="miter" stroke-miterlimit="10" stroke-dasharray="" stroke-dashoffset="0" font-family="Sans Serif" font-weight="normal" text-anchor="start" style="mix-blend-mode: normal"><tspan x="0" dy="0">xamt8</tspan></text><path d="M219.72375,167.19218c0,0.33932 0.014,1.34814 -0.09474,1.61528c-0.19757,0.4854 -1.78988,0.19241 -1.78988,0.19241c0,0 -0.34615,-0.85181 -0.34615,-1.80769c0,-0.95588 0.49937,-1.73077 1.11538,-1.73077c0.61601,0 1.11538,0.77489 1.11538,1.73077z" fill="#66fffd" stroke="#000000" stroke-width="0.15" stroke-linecap="butt"></path><path d="M218.41606,165.61526l0.15385,2.92308" fill="none" stroke="#000000" stroke-width="0.15" stroke-linecap="round"></path><path d="M219.26221,166.53834l-1.61538,-0.07692" fill="none" stroke="#000000" stroke-width="0.15" stroke-linecap="round"></path><path d="M217.56991,167.46142l2,-0.07692" fill="none" stroke="#000000" stroke-width="0.15" stroke-linecap="round"></path><path d="M220.10837,169.15372c0,0.21242 -0.67157,0.38462 -1.5,0.38462c-0.82843,0 -1.5,-0.1722 -1.5,-0.38462c0,-0.21242 0.67157,-0.38462 1.5,-0.38462c0.82843,0 1.5,0.1722 1.5,0.38462z" fill="#8e6939" stroke="none" stroke-width="0" stroke-linecap="butt"></path><path d="M217.80068,170.38449v-1.23077h1.76923v1.23077z" fill="#8e6939" stroke="none" stroke-width="0" stroke-linecap="butt"></path><path d="M217.8776,171.15372v-0.92308h1.61538v0.92308c0,0 -0.67247,-0.29412 -0.95475,-0.29412c-0.25296,0 -0.66063,0.29412 -0.66063,0.29412z" fill="#929292" stroke="none" stroke-width="0" stroke-linecap="butt"></path></g><g><path d="M227.76512,168.42412c0,1.37421 -1.2378,2.48824 -2.76471,2.48824c-1.5269,0 -2.76471,-1.11402 -2.76471,-2.48824c0,-1.37421 1.2378,-2.48824 2.76471,-2.48824c1.5269,0 2.76471,1.11402 2.76471,2.48824z" fill="url(#color-2)" stroke="none" stroke-width="0" stroke-linecap="butt"></path><text transform="translate(225.01299,169.70407) rotate(-87.04669) scale(0.02329,0.02329)" font-size="40" xml:space="preserve" fill="#232323" fill-rule="nonzero" stroke="none" stroke-width="1" stroke-linecap="butt" stroke-linejoin="miter" stroke-miterlimit="10" stroke-dasharray="" stroke-dashoffset="0" font-family="Sans Serif" font-weight="normal" text-anchor="start" style="mix-blend-mode: normal"><tspan x="0" dy="0">xamt8</tspan></text><path d="M226.00946,167.90647c0,0.33932 0.014,1.34814 -0.09474,1.61528c-0.19757,0.4854 -1.78988,0.19241 -1.78988,0.19241c0,0 -0.34615,-0.85181 -0.34615,-1.80769c0,-0.95588 0.49937,-1.73077 1.11538,-1.73077c0.61601,0 1.11538,0.77489 1.11538,1.73077z" fill="#ffec66" stroke="#000000" stroke-width="0.15" stroke-linecap="butt"></path><path d="M224.85562,169.25263l-0.15385,-2.92308" fill="none" stroke="#000000" stroke-width="0.15" stroke-linecap="round"></path><path d="M225.54792,167.25263l-1.61538,-0.07692" fill="none" stroke="#000000" stroke-width="0.15" stroke-linecap="round"></path><path d="M225.85562,168.09879l-2,0.07692" fill="none" stroke="#000000" stroke-width="0.15" stroke-linecap="round"></path><path d="M226.39408,169.86801c0,0.21242 -0.67157,0.38462 -1.5,0.38462c-0.82843,0 -1.5,-0.1722 -1.5,-0.38462c0,-0.21242 0.67157,-0.38462 1.5,-0.38462c0.82843,0 1.5,0.1722 1.5,0.38462z" fill="#8e6939" stroke="none" stroke-width="0" stroke-linecap="butt"></path><path d="M224.08639,171.09878v-1.23077h1.76923v1.23077z" fill="#8e6939" stroke="none" stroke-width="0" stroke-linecap="butt"></path><path d="M224.16331,171.86801v-0.92308h1.61538v0.92308c0,0 -0.67247,-0.29412 -0.95475,-0.29412c-0.25296,0 -0.66063,0.29412 -0.66063,0.29412z" fill="#929292" stroke="none" stroke-width="0" stroke-linecap="butt"></path></g><g><path d="M233.14013,168.42412c0,1.37421 -1.2378,2.48824 -2.76471,2.48824c-1.5269,0 -2.76471,-1.11402 -2.76471,-2.48824c0,-1.37421 1.2378,-2.48824 2.76471,-2.48824c1.5269,0 2.76471,1.11402 2.76471,2.48824z" fill="url(#color-3)" stroke="none" stroke-width="0" stroke-linecap="butt"></path><text transform="translate(230.388,169.70407) rotate(-87.04669) scale(0.02329,0.02329)" font-size="40" xml:space="preserve" fill="#232323" fill-rule="nonzero" stroke="none" stroke-width="1" stroke-linecap="butt" stroke-linejoin="miter" stroke-miterlimit="10" stroke-dasharray="" stroke-dashoffset="0" font-family="Sans Serif" font-weight="normal" text-anchor="start" style="mix-blend-mode: normal"><tspan x="0" dy="0">xamt8</tspan></text><path d="M231.38447,167.90647c0,0.33932 0.014,1.34814 -0.09474,1.61528c-0.19757,0.4854 -1.78988,0.19241 -1.78988,0.19241c0,0 -0.34615,-0.85181 -0.34615,-1.80769c0,-0.95588 0.49937,-1.73077 1.11538,-1.73077c0.61601,0 1.11538,0.77489 1.11538,1.73077z" fill="#ff6666" stroke="#000000" stroke-width="0.15" stroke-linecap="butt"></path><path d="M230.07678,166.32955l0.15385,2.92308" fill="none" stroke="#000000" stroke-width="0.15" stroke-linecap="round"></path><path d="M230.92293,167.25263l-1.61538,-0.07692" fill="none" stroke="#000000" stroke-width="0.15" stroke-linecap="round"></path><path d="M231.23063,168.09879l-2,0.07692" fill="none" stroke="#000000" stroke-width="0.15" stroke-linecap="round"></path><path d="M231.76909,169.86801c0,0.21242 -0.67157,0.38462 -1.5,0.38462c-0.82843,0 -1.5,-0.1722 -1.5,-0.38462c0,-0.21242 0.67157,-0.38462 1.5,-0.38462c0.82843,0 1.5,0.1722 1.5,0.38462z" fill="#8e6939" stroke="none" stroke-width="0" stroke-linecap="butt"></path><path d="M229.4614,171.09878v-1.23077h1.76923v1.23077z" fill="#8e6939" stroke="none" stroke-width="0" stroke-linecap="butt"></path><path d="M229.53832,171.86801v-0.92308h1.61538v0.92308c0,0 -0.67247,-0.29412 -0.95475,-0.29412c-0.25296,0 -0.66063,0.29412 -0.66063,0.29412z" fill="#929292" stroke="none" stroke-width="0" stroke-linecap="butt"></path></g></g></g></svg>