<svg version="1.1" xmlns="http://www.w3.org/2000/svg" xmlns:xlink="http://www.w3.org/1999/xlink" width="59.56534" height="77.88076" viewBox="0,0,59.56534,77.88076"><defs><linearGradient x1="216.42043" y1="178.43243" x2="239.29876" y2="178.43243" gradientUnits="userSpaceOnUse" id="color-1"><stop offset="0" stop-color="#d27a00"></stop><stop offset="1" stop-color="#8d3800"></stop></linearGradient><linearGradient x1="239.28923" y1="178.49434" x2="262.45809" y2="178.49434" gradientUnits="userSpaceOnUse" id="color-2"><stop offset="0" stop-color="#8d3800"></stop><stop offset="1" stop-color="#d27a00"></stop></linearGradient></defs><g transform="translate(-210.21733,-140.80962)"><g data-paper-data="{&quot;isPaintingLayer&quot;:true}" fill-rule="nonzero" stroke-linejoin="miter" stroke-miterlimit="10" stroke-dasharray="" stroke-dashoffset="0" style="mix-blend-mode: normal"><text transform="translate(230.5957,173.98463) scale(0.13693,0.13693)" font-size="40" xml:space="preserve" fill="#ffffff" fill-rule="nonzero" stroke="none" stroke-width="2" stroke-linecap="butt" stroke-linejoin="miter" stroke-miterlimit="10" stroke-dasharray="" stroke-dashoffset="0" font-family="Sans Serif" font-weight="normal" text-anchor="start" style="mix-blend-mode: normal"><tspan x="0" dy="0">xAmt8</tspan></text><path d="M216.42043,205.68186v-54.49886h22.87833v54.49886z" fill="url(#color-1)" stroke="none" stroke-width="1" stroke-linecap="butt"></path><path d="M239.28923,205.74377v-54.49886h23.16886v54.49886z" fill="url(#color-2)" stroke="none" stroke-width="1" stroke-linecap="butt"></path><path d="M215.91905,206.24387v-55.49192c0,0 13.4413,0 20.77315,0c8.24869,0 26.29329,0 26.29329,0v55.49192z" fill="none" stroke="#652800" stroke-width="1" stroke-linecap="butt"></path><path d="M240.17861,152.20463l-0.72633,53.74872" fill="none" stroke="#652800" stroke-width="1" stroke-linecap="round"></path><path d="M221.00339,164.69757v-9.87814h11.33081v9.87814z" fill="none" stroke="#7b3100" stroke-width="1" stroke-linecap="butt"></path><path d="M220.92004,182.48204v-9.87814h11.33081v9.87814z" fill="none" stroke="#7b3100" stroke-width="1" stroke-linecap="butt"></path><path d="M220.69142,199.3949v-9.87814h11.33081v9.87814z" fill="none" stroke="#7b3100" stroke-width="1" stroke-linecap="butt"></path><path d="M245.4487,199.74735v-9.87814h11.33081v9.87814z" fill="none" stroke="#7b3100" stroke-width="1" stroke-linecap="butt"></path><path d="M245.73923,182.31534v-9.87814h11.33081v9.87814z" fill="none" stroke="#7b3100" stroke-width="1" stroke-linecap="butt"></path><path d="M245.90593,164.46895v-9.87814h11.33081v9.87814z" fill="none" stroke="#7b3100" stroke-width="1" stroke-linecap="butt"></path><path d="M214.61165,149.88036v-4.358c0,0 15.15546,-4.21274 23.09742,-4.21274c8.57053,0 26.58383,4.21274 26.58383,4.21274v4.358z" fill="#652800" stroke="#311300" stroke-width="1" stroke-linecap="butt"></path><g stroke-width="1" stroke-linecap="butt"><path d="M244.81572,180.40983c-1.11587,-0.26928 -1.78035,-1.48262 -1.48414,-2.71008c0.2962,-1.22746 1.44092,-2.00422 2.55679,-1.73495c1.11587,0.26928 1.78035,1.48262 1.48414,2.71008c-0.2962,1.22746 -1.44091,2.00422 -2.55679,1.73495z" fill="#fff4ce" stroke="#e6ddbb"></path><path d="M245.53696,179.18616c-0.69324,-0.16729 -1.10605,-0.92108 -0.92203,-1.68365c0.18402,-0.76256 0.89518,-1.24513 1.58841,-1.07784c0.69324,0.16729 1.10605,0.92108 0.92203,1.68365c-0.18402,0.76256 -0.89518,1.24513 -1.58841,1.07784z" fill="#e6ddbb" stroke="#e6ddbb"></path><path d="M241.49286,178.45529l1.63519,-0.62159l0.62159,1.63519l-1.63519,0.62159z" fill="#e6ddbb" stroke="none"></path><path d="M242.84257,180.42611c-0.57762,0.80341 -1.02623,-0.10135 -1.22918,-0.52048c-0.31668,-0.65402 -0.25785,-1.30462 0.00072,-1.9064l-0.05764,-0.01391l0.08207,-0.34011v0c0.03913,-0.16216 0.20231,-0.26189 0.36447,-0.22276c0.11721,0.02828 0.20181,0.12138 0.22492,0.23206l0.08651,0.37477l-0.01208,0.00279l0.01774,0.02973c0.00042,0.03296 0.00084,0.06592 0.00126,0.09888c0.04192,0.03478 0.07361,0.08029 0.09182,0.13124c0.05268,0.05611 0.08313,0.13146 0.08205,0.21081l0.00277,0.33862c0.03486,0.21596 0.43872,1.45379 0.34456,1.58477z" fill="#fff4ce" stroke="none"></path></g><g data-paper-data="{&quot;index&quot;:null}" stroke-width="1" stroke-linecap="butt"><path d="M232.97817,178.67488c-0.2962,-1.22746 0.36828,-2.4408 1.48415,-2.71008c1.11587,-0.26927 2.26059,0.50749 2.55679,1.73495c0.2962,1.22746 -0.36828,2.4408 -1.48415,2.71008c-1.11587,0.26928 -2.26059,-0.50749 -2.55679,-1.73495z" fill="#fff4ce" stroke="#e6ddbb"></path><path d="M233.2253,178.10832c-0.18402,-0.76257 0.22879,-1.51636 0.92203,-1.68365c0.69324,-0.16729 1.4044,0.31528 1.58842,1.07784c0.18402,0.76257 -0.22879,1.51636 -0.92203,1.68365c-0.69324,0.16729 -1.4044,-0.31528 -1.58842,-1.07784z" fill="#e6ddbb" stroke="#e6ddbb"></path><path d="M238.23623,180.09048l-1.63519,-0.62159l0.62159,-1.63519l1.63519,0.62159z" fill="#e6ddbb" stroke="none"></path><path d="M237.50811,180.42611c-0.09417,-0.13098 0.3097,-1.36881 0.34456,-1.58477l0.00277,-0.33862c-0.00108,-0.07935 0.02937,-0.15471 0.08205,-0.21081c0.01821,-0.05095 0.0499,-0.09645 0.09182,-0.13124c0.00042,-0.03296 0.00084,-0.06592 0.00127,-0.09888l0.01773,-0.02973l-0.01208,-0.00279l0.08651,-0.37477c0.02311,-0.11067 0.10771,-0.20377 0.22492,-0.23206c0.16216,-0.03913 0.32534,0.0606 0.36447,0.22276v0l0.08207,0.34011l-0.05764,0.01391c0.25857,0.60179 0.3174,1.25238 0.00072,1.9064c-0.20295,0.41912 -0.65156,1.32388 -1.22918,0.52048z" fill="#fff4ce" stroke="none"></path></g><path d="M210.21733,218.69038l4.79261,-13.14545h49.70625l5.06648,13.14545z" fill-opacity="0.45161" fill="#000000" stroke="none" stroke-width="1" stroke-linecap="butt"></path></g></g></svg>