<svg version="1.1" xmlns="http://www.w3.org/2000/svg" xmlns:xlink="http://www.w3.org/1999/xlink" width="34.99289" height="51.62906" viewBox="0,0,34.99289,51.62906"><g transform="translate(-222.37855,-154.18547)"><g data-paper-data="{&quot;isPaintingLayer&quot;:true}" fill-rule="nonzero" stroke-linecap="butt" stroke-linejoin="miter" stroke-miterlimit="10" stroke-dasharray="" stroke-dashoffset="0" style="mix-blend-mode: normal"><path d="M222.62855,202.53565v-4.89486h1.74817v4.89486z" fill="#e6e6e6" stroke="#000000" stroke-width="0.5"></path><path d="M222.6442,163.56727v-4.89486h1.74817v4.89486z" fill="#e6e6e6" stroke="#000000" stroke-width="0.5"></path><path d="M224.45358,205.81453v-51.62906h32.91786v51.62906z" fill="#8e6544" stroke="none" stroke-width="0"></path><path d="M227.57214,172.89667v-17.32519h27.02729v17.32519z" fill="none" stroke="#513a27" stroke-width="1.5"></path><path d="M227.91863,200.61697v-16.63218h26.68079v16.63218z" fill="none" stroke="#513a27" stroke-width="1.5"></path><text transform="translate(233.38623,164.9963) scale(0.10672,0.10672)" font-size="40" xml:space="preserve" fill="#ffffff" fill-rule="nonzero" stroke="none" stroke-width="1" stroke-linecap="butt" stroke-linejoin="miter" stroke-miterlimit="10" stroke-dasharray="" stroke-dashoffset="0" font-family="Sans Serif" font-weight="normal" text-anchor="start" style="mix-blend-mode: normal"><tspan x="0" dy="0">xAmt8</tspan></text><path d="M250.90336,163.59882c0,1.818 -4.49892,3.29179 -10.04861,3.29179c-5.5497,0 -10.04861,-1.47378 -10.04861,-3.29179c0,-1.818 4.49892,-3.29179 10.04861,-3.29179c5.5497,0 10.04861,1.47378 10.04861,3.29179z" fill="#d59866" stroke="none" stroke-width="0"></path><path d="M231.67242,163.42557c0,-0.47842 0.38784,-0.86626 0.86626,-0.86626c0.47842,0 0.86626,0.38784 0.86626,0.86626c0,0.47842 -0.38784,0.86626 -0.86626,0.86626c-0.47842,0 -0.86626,-0.38784 -0.86626,-0.86626z" fill="#ab7a52" stroke="none" stroke-width="0.5"></path><path d="M248.30458,163.42557c0,-0.47842 0.38784,-0.86626 0.86626,-0.86626c0.47842,0 0.86626,0.38784 0.86626,0.86626c0,0.47842 -0.38784,0.86626 -0.86626,0.86626c-0.47842,0 -0.86626,-0.38784 -0.86626,-0.86626z" fill="#ab7a52" stroke="none" stroke-width="0.5"></path><path d="M255.98544,177.86322c0,0.89305 -2.32702,1.61702 -5.19756,1.61702c-2.87053,0 -5.19756,-0.72396 -5.19756,-1.61702c0,-0.89305 2.32702,-1.61702 5.19756,-1.61702c2.87053,0 5.19756,0.72396 5.19756,1.61702z" fill="#dadada" stroke="none" stroke-width="0"></path><path d="M252.94444,178.854c-1.4179,-0.31456 -2.28684,-1.83394 -1.94082,-3.39363c0.34602,-1.55969 1.77595,-2.56907 3.19385,-2.25451c1.4179,0.31456 2.28684,1.83394 1.94082,3.39363c-0.34602,1.55969 -1.77595,2.56908 -3.19385,2.25451z" fill="#fff4ce" stroke="#e6ddbb" stroke-width="1"></path><path d="M253.82821,177.40338c-0.88088,-0.19542 -1.42071,-1.13934 -1.20575,-2.10831c0.21497,-0.96896 1.10332,-1.59604 1.98419,-1.40062c0.88088,0.19542 1.42071,1.13934 1.20575,2.10831c-0.21497,0.96896 -1.10332,1.59604 -1.98419,1.40062z" fill="#e6ddbb" stroke="#e6ddbb" stroke-width="0"></path><path d="M248.69525,176.45912l2.05403,-0.82455l0.82455,2.05403l-2.05403,0.82455z" fill="#e6ddbb" stroke="none" stroke-width="0"></path><path d="M250.44874,178.92071c-0.71192,1.02983 -1.30058,-0.10423 -1.5671,-0.62968c-0.4159,-0.81995 -0.35668,-1.64434 -0.04365,-2.41167l-0.07324,-0.01625l0.09587,-0.43216v0c0.04571,-0.20605 0.24981,-0.33603 0.45586,-0.29032c0.14894,0.03304 0.25813,0.14883 0.28996,0.2883l0.1182,0.47207l-0.01522,0.00381l0.02313,0.03719c0.0013,0.04168 0.00261,0.08337 0.00391,0.12505c0.05384,0.04302 0.09499,0.09985 0.11922,0.16387c0.06795,0.06975 0.10824,0.16436 0.10872,0.26477l0.01143,0.4283c0.04914,0.27238 0.58898,1.82883 0.47291,1.99673z" fill="#fff4ce" stroke="none" stroke-width="0.5"></path></g></g></svg>