<svg version="1.1" xmlns="http://www.w3.org/2000/svg" xmlns:xlink="http://www.w3.org/1999/xlink" width="61.39597" height="88.03517" viewBox="0,0,61.39597,88.03517"><defs><radialGradient cx="241.28615" cy="235.02635" r="2.14716" gradientUnits="userSpaceOnUse" id="color-1"><stop offset="0" stop-color="#00ffde" stop-opacity="0.39516"></stop><stop offset="1" stop-color="#00b2de" stop-opacity="0.34677"></stop></radialGradient><radialGradient cx="214.65593" cy="229.77962" r="2.14716" gradientUnits="userSpaceOnUse" id="color-2"><stop offset="0" stop-color="#00ffde" stop-opacity="0.39516"></stop><stop offset="1" stop-color="#00b2de" stop-opacity="0.34677"></stop></radialGradient><radialGradient cx="267.23773" cy="234.77034" r="2.14715" gradientUnits="userSpaceOnUse" id="color-3"><stop offset="0" stop-color="#00ffde" stop-opacity="0.39516"></stop><stop offset="1" stop-color="#00b2de" stop-opacity="0.34677"></stop></radialGradient><radialGradient cx="240.97532" cy="258.47779" r="2.14716" gradientUnits="userSpaceOnUse" id="color-4"><stop offset="0" stop-color="#00ffde" stop-opacity="0.39516"></stop><stop offset="1" stop-color="#00b2de" stop-opacity="0.34677"></stop></radialGradient><radialGradient cx="240.97628" cy="207.81143" r="2.14716" gradientUnits="userSpaceOnUse" id="color-5"><stop offset="0" stop-color="#00ffde" stop-opacity="0.39516"></stop><stop offset="1" stop-color="#00b2de" stop-opacity="0.34677"></stop></radialGradient><linearGradient x1="238.51627" y1="211.1898" x2="238.51627" y2="261.27852" gradientUnits="userSpaceOnUse" id="color-6"><stop offset="0" stop-color="#33ffff" stop-opacity="0"></stop><stop offset="1" stop-color="#33ffff" stop-opacity="0.25132"></stop></linearGradient></defs><g transform="translate(-209.53051,-175.79016)"><g data-paper-data="{&quot;isPaintingLayer&quot;:true}" fill-rule="nonzero" stroke-linejoin="miter" stroke-miterlimit="10" stroke-dasharray="" stroke-dashoffset="0" style="mix-blend-mode: normal"><text transform="translate(236.62479,236.69137) rotate(4.10453) scale(0.06978,0.08495) skewX(1.63274)" font-size="40" xml:space="preserve" fill-opacity="0.24326" fill="#9effff" fill-rule="nonzero" stroke="none" stroke-width="1" stroke-linecap="butt" stroke-linejoin="miter" stroke-miterlimit="10" stroke-dasharray="" stroke-dashoffset="0" font-family="Sans Serif" font-weight="normal" text-anchor="start" style="mix-blend-mode: normal"><tspan x="0" dy="0">xamt8</tspan></text><path d="M215.20761,227.59273c2.66516,-5.50687 7.06302,-13.07708 7.06302,-13.07708c0,0 6.28424,-3.2268 16.12943,-3.2266" fill="none" stroke="#43f2ff" stroke-width="1" stroke-linecap="butt"></path><path d="M244.2383,211.71012c9.26452,1.51009 15.99146,7.06931 15.99146,7.06931c0,0 7.79664,14.03767 7.61084,17.8875c-0.5608,11.61952 -10.99427,20.53723 -24.1178,21.3624" fill="none" stroke="#43f2ff" stroke-width="1" stroke-linecap="butt"></path><path d="M236.63549,257.69011c-12.80517,-2.03012 -22.60959,-11.48159 -23.38953,-22.54349" fill="none" stroke="#43f2ff" stroke-width="1" stroke-linecap="butt"></path><path d="M264.12076,239.34738c-2.27475,9.54777 -12.45875,16.23862 -24.31048,15.38814c-13.13552,-0.94261 -23.3455,-10.79186 -22.8046,-21.99893c0.12155,-2.51837 7.88238,-15.87741 7.88238,-15.87741c0,0 6.69716,-3.43882 16.88096,-2.70803c9.20592,0.66062 16.17655,6.42124 16.17655,6.42124c0,0 3.99256,7.18851 5.78155,12.05265" fill="none" stroke="#43f2ff" stroke-width="1" stroke-linecap="butt"></path><path d="M216.74222,245.35731l2.67083,-3.50125" fill="none" stroke="#43f2ff" stroke-width="1" stroke-linecap="round"></path><path d="M257.12473,248.95889l2.97171,3.90616" fill="none" stroke="#43f2ff" stroke-width="1" stroke-linecap="round"></path><path d="M221.04495,244.291l28.82015,-28.1003l-10.1144,38.07438l-7.01785,-39.72642l27.0574,31.80847l-42.10395,-14.31485l46.62209,2.54912l-43.07962,9.7982" fill="none" stroke="#43f2ff" stroke-width="0.5" stroke-linecap="round"></path><path d="M263.20292,236.04989c0.11728,-2.43016 1.828,-4.28426 3.82097,-4.14124c1.99298,0.14301 3.51352,2.22899 3.39623,4.65915c-0.11728,2.43016 -1.828,4.28426 -3.82097,4.14124c-1.99298,-0.14301 -3.51352,-2.22899 -3.39623,-4.65915z" fill="none" stroke="#43f2ff" stroke-width="1" stroke-linecap="butt"></path><path d="M236.24675,258.65844c0.11728,-2.43015 1.828,-4.28425 3.82097,-4.14124c1.99297,0.14301 3.51352,2.229 3.39623,4.65915c-0.11728,2.43015 -1.828,4.28426 -3.82097,4.14124c-1.99297,-0.14301 -3.51352,-2.229 -3.39623,-4.65915z" fill="none" stroke="#43f2ff" stroke-width="1" stroke-linecap="butt"></path><path d="M210.03051,230.85799c0.11728,-2.43015 1.828,-4.28426 3.82097,-4.14124c1.99298,0.14301 3.51352,2.229 3.39623,4.65915c-0.11728,2.43015 -1.828,4.28426 -3.82097,4.14124c-1.99298,-0.14301 -3.51352,-2.229 -3.39623,-4.65915z" fill="none" stroke="#43f2ff" stroke-width="1" stroke-linecap="butt"></path><path d="M237.96049,209.02177c0.11728,-2.43016 1.828,-4.28426 3.82097,-4.14124c1.99298,0.14301 3.51352,2.22899 3.39623,4.65915c-0.11728,2.43016 -1.828,4.28426 -3.82097,4.14124c-1.99298,-0.14301 -3.51352,-2.22899 -3.39623,-4.65915z" fill="none" stroke="#43f2ff" stroke-width="1" stroke-linecap="butt"></path><path d="M240.37222,233.87451c0.07833,-0.15741 0.22239,-0.24919 0.37408,-0.2383c0.1517,0.01088 0.28595,0.12263 0.34858,0.29015l0.41069,1.09855l0.97084,0.27266c0.14803,0.0416 0.26487,0.17903 0.30333,0.35687c0.03845,0.17785 -0.00782,0.36673 -0.12013,0.49038l-0.73655,0.81087l0.0865,1.20074c0.01318,0.18312 -0.0587,0.35985 -0.18662,0.45888c-0.12794,0.09905 -0.29077,0.104 -0.42284,0.01289l-0.86588,-0.5974l-0.91739,0.46943c-0.13988,0.0716 -0.30114,0.04338 -0.41865,-0.07327c-0.11751,-0.11664 -0.17189,-0.30244 -0.14119,-0.4824l0.20138,-1.18008l-0.65346,-0.91062c-0.09964,-0.13886 -0.12742,-0.33306 -0.07213,-0.50418c0.05528,-0.17112 0.18455,-0.29089 0.33556,-0.31103l0.99036,-0.13192z" fill="url(#color-1)" stroke="#000000" stroke-width="0" stroke-linecap="butt"></path><path d="M214.02872,228.37117c0.11007,-0.12604 0.26903,-0.16737 0.41278,-0.10729c0.14376,0.06007 0.24852,0.21162 0.27202,0.39349l0.15412,1.19259l0.87534,0.58004c0.13347,0.08847 0.21581,0.25906 0.21376,0.44297c-0.00205,0.18391 -0.08818,0.35075 -0.22355,0.43317l-0.88787,0.54041l-0.18066,1.18507c-0.02757,0.18072 -0.13568,0.32748 -0.28068,0.38108c-0.14503,0.0536 -0.303,0.00514 -0.4102,-0.12581l-0.70283,-0.85858l-0.98702,0.15235c-0.1505,0.02325 -0.29965,-0.05665 -0.38722,-0.20745c-0.08756,-0.15078 -0.09911,-0.34756 -0.02996,-0.5109l0.45347,-1.07105l-0.42932,-1.0909c-0.06547,-0.16636 -0.04953,-0.36252 0.04137,-0.5093c0.09088,-0.14679 0.24176,-0.21991 0.39166,-0.18994l0.98311,0.19665z" fill="url(#color-2)" stroke="#000000" stroke-width="0" stroke-linecap="butt"></path><path d="M266.06956,234.03574c0.03289,-0.17969 0.14528,-0.32287 0.29187,-0.37175c0.14658,-0.04889 0.3031,0.00459 0.4064,0.13887l0.67742,0.8805l0.99134,-0.12055c0.15117,-0.01836 0.29793,0.06625 0.38104,0.21973c0.08312,0.15349 0.08883,0.3505 0.0149,0.51147l-0.48498,1.05565l0.39711,1.10384c0.06055,0.16835 0.03883,0.36384 -0.05637,0.50757c-0.09521,0.14376 -0.24819,0.21201 -0.39722,0.17723l-0.97714,-0.22807l-0.74593,0.80275c-0.11373,0.12242 -0.27391,0.15862 -0.41586,0.09396c-0.14193,-0.06464 -0.24223,-0.21945 -0.26038,-0.40193l-0.11894,-1.19661l-0.8581,-0.60772c-0.13085,-0.09268 -0.20814,-0.26581 -0.20066,-0.44952c0.00746,-0.18369 0.09849,-0.34761 0.23628,-0.42562l0.90364,-0.51147z" fill="url(#color-3)" stroke="#000000" stroke-width="0" stroke-linecap="butt"></path><path d="M240.72234,256.90506c0.13595,-0.08013 0.29777,-0.06157 0.4202,0.04819c0.12243,0.10976 0.18523,0.29258 0.16303,0.47469l-0.14551,1.1942l0.69297,0.87278c0.10566,0.13311 0.14237,0.32592 0.0953,0.50065c-0.04707,0.17473 -0.17018,0.30252 -0.31958,0.33179l-0.97979,0.1918l-0.46312,1.0649c-0.07064,0.16239 -0.20981,0.263 -0.36131,0.26124c-0.15154,-0.00176 -0.29039,-0.10562 -0.36055,-0.26967l-0.46002,-1.07564l-0.97919,-0.21464c-0.14931,-0.03271 -0.27204,-0.16336 -0.31859,-0.33918c-0.04656,-0.17582 -0.0093,-0.3678 0.09676,-0.49843l0.69545,-0.85661l-0.14203,-1.19755c-0.02166,-0.18261 0.04167,-0.36399 0.16441,-0.47089c0.12273,-0.10691 0.28463,-0.12166 0.42033,-0.03838l0.88986,0.54625z" fill="url(#color-4)" stroke="#000000" stroke-width="0" stroke-linecap="butt"></path><path d="M239.70154,208.20205c-0.07276,-0.16133 -0.06606,-0.35936 0.0174,-0.51421c0.08346,-0.15484 0.22989,-0.24091 0.3802,-0.22344l0.98565,0.11449l0.6784,-0.88963c0.10346,-0.13564 0.25944,-0.19047 0.40502,-0.14233c0.14558,0.04815 0.25669,0.19135 0.2885,0.37172l0.20853,1.183l0.89644,0.50802c0.1367,0.07749 0.22641,0.24166 0.23292,0.42624c0.00652,0.18462 -0.07125,0.35915 -0.20193,0.45319l-0.85677,0.61663l-0.12438,1.20362c-0.01894,0.18353 -0.11951,0.33983 -0.26105,0.40575c-0.14154,0.06592 -0.30073,0.03064 -0.41327,-0.09164l-0.73805,-0.80187l-0.9733,0.23583c-0.14842,0.03596 -0.30029,-0.03162 -0.39428,-0.17548c-0.094,-0.14383 -0.11457,-0.3402 -0.0535,-0.50982l0.40064,-1.11224z" fill="url(#color-5)" stroke="#000000" stroke-width="0" stroke-linecap="butt"></path><path d="M229.29668,215.09135l-1.78013,-2.33546" fill="none" stroke="#43f2ff" stroke-width="1" stroke-linecap="round"></path><path d="M236.06533,211.26199l0.2701,2.92956" fill="none" stroke="#43f2ff" stroke-width="1" stroke-linecap="round"></path><path d="M254.27708,217.58641l2.3543,-1.03527" fill="none" stroke="#43f2ff" stroke-width="1" stroke-linecap="round"></path><path d="M262.53144,222.19277l-2.5135,0.92349" fill="none" stroke="#43f2ff" stroke-width="1" stroke-linecap="round"></path><path d="M263.18735,230.76965l2.58587,-0.71759" fill="none" stroke="#43f2ff" stroke-width="1" stroke-linecap="round"></path><path d="M218.36458,221.6325l1.92002,2.84725" fill="none" stroke="#43f2ff" stroke-width="1" stroke-linecap="round"></path><path d="M227.34689,253.78524l2.14205,-1.75295" fill="none" stroke="#43f2ff" stroke-width="1" stroke-linecap="round"></path><path d="M251.17426,256.29791l-0.5885,-3.15311" fill="none" stroke="#43f2ff" stroke-width="1" stroke-linecap="round"></path><g fill="none" stroke="#c1ffff" stroke-width="0.5" stroke-linecap="butt"><g><path d="M221.92487,200.01555c-0.45461,2.09676 -1.70503,3.51223 -2.79292,3.16153c-1.08789,-0.3507 -1.60125,-2.33475 -1.14666,-4.43151c0.45461,-2.09676 1.70504,-3.51223 2.79292,-3.16153c1.08789,0.3507 1.60125,2.33475 1.14665,4.43151z"></path><path d="M223.4636,193.19891c-0.45461,2.09676 -1.70503,3.51223 -2.79292,3.16153c-1.08789,-0.3507 -1.60125,-2.33475 -1.14666,-4.43151c0.45461,-2.09676 1.70504,-3.51223 2.79292,-3.16153c1.08789,0.3507 1.60125,2.33475 1.14665,4.43151z"></path><path d="M225.2366,187.25642c-0.66826,2.0099 -2.05536,3.22133 -3.09818,2.70581c-1.04281,-0.51552 -1.34644,-2.56278 -0.67818,-4.57268c0.66826,-2.0099 2.05537,-3.22133 3.09818,-2.70581c1.04281,0.51552 1.34644,2.56277 0.67817,4.57268z"></path><path d="M227.46946,180.73155c-0.66826,2.0099 -2.05536,3.22133 -3.09818,2.70581c-1.04281,-0.51552 -1.34644,-2.56278 -0.67818,-4.57268c0.66826,-2.0099 2.05537,-3.22132 3.09818,-2.70581c1.04281,0.51552 1.34644,2.56278 0.67817,4.57268z"></path></g><g><path d="M215.96351,226.24293c-0.31233,2.13509 -1.46354,3.67061 -2.57132,3.42968c-1.10778,-0.24094 -1.75261,-2.1671 -1.44028,-4.3022c0.31233,-2.13509 1.46354,-3.67061 2.57132,-3.42968c1.10778,0.24094 1.7526,2.1671 1.44028,4.3022z"></path><path d="M217.03949,219.29559c-0.31233,2.13509 -1.46354,3.67061 -2.57132,3.42968c-1.10778,-0.24094 -1.75261,-2.1671 -1.44028,-4.3022c0.31233,-2.13509 1.46354,-3.67061 2.57132,-3.42968c1.10778,0.24094 1.7526,2.1671 1.44028,4.3022z"></path><path d="M218.40765,213.19608c-0.5311,2.06985 -1.83223,3.41566 -2.90615,3.00595c-1.07392,-0.40971 -1.51396,-2.41979 -0.98286,-4.48965c0.5311,-2.06985 1.83224,-3.41566 2.90615,-3.00595c1.07392,0.40971 1.51396,2.41979 0.98285,4.48964z"></path><path d="M220.19502,206.47024c-0.5311,2.06985 -1.83223,3.41566 -2.90615,3.00595c-1.07392,-0.40971 -1.51396,-2.41979 -0.98286,-4.48965c0.5311,-2.06985 1.83224,-3.41566 2.90615,-3.00595c1.07392,0.40971 1.51396,2.41979 0.98285,4.48965z"></path></g></g><g data-paper-data="{&quot;index&quot;:null}" fill="none" stroke="#c1ffff" stroke-width="0.5" stroke-linecap="butt"><g><path d="M258.8598,201.03684c1.08511,-0.36324 2.34647,1.03774 2.81732,3.12917c0.47085,2.09142 -0.02711,4.08131 -1.11222,4.44454c-1.08511,0.36324 -2.34647,-1.03775 -2.81732,-3.12917c-0.47085,-2.09142 0.0271,-4.08131 1.11221,-4.44454z"></path><path d="M257.26825,194.23826c1.08511,-0.36324 2.34647,1.03774 2.81732,3.12917c0.47085,2.09142 -0.02711,4.08131 -1.11222,4.44454c-1.08511,0.36324 -2.34647,-1.03775 -2.81732,-3.12917c-0.47085,-2.09142 0.0271,-4.08131 1.11221,-4.44454z"></path><path d="M254.97968,188.18073c1.03877,-0.52753 2.43521,0.66785 3.11903,2.66995c0.68382,2.0021 0.39609,4.05277 -0.64268,4.5803c-1.03877,0.52753 -2.43521,-0.66785 -3.11903,-2.66995c-0.68382,-2.0021 -0.39609,-4.05276 0.64267,-4.58029z"></path><path d="M252.69629,181.6819c1.03877,-0.52753 2.43521,0.66785 3.11904,2.66995c0.68382,2.0021 0.39609,4.05277 -0.64267,4.5803c-1.03877,0.52753 -2.43521,-0.66785 -3.11903,-2.66995c-0.68382,-2.0021 -0.39609,-4.05277 0.64267,-4.5803z"></path></g><g><path d="M265.31897,227.32021c1.10586,-0.25371 2.26893,1.26846 2.59782,3.39986c0.32888,2.1314 -0.30099,4.0649 -1.40684,4.31862c-1.10586,0.25371 -2.26893,-1.26846 -2.59782,-3.39986c-0.32888,-2.1314 0.30099,-4.0649 1.40684,-4.31862z"></path><path d="M264.18915,220.3856c1.10586,-0.25371 2.26893,1.26846 2.59782,3.39986c0.32888,2.1314 -0.30099,4.0649 -1.40684,4.31862c-1.10586,0.25371 -2.26893,-1.26846 -2.59782,-3.39986c-0.32888,-2.1314 0.30099,-4.0649 1.40684,-4.31862z"></path><path d="M262.31488,214.11998c1.07069,-0.42208 2.38221,0.90866 2.92935,2.97229c0.54714,2.06363 0.12271,4.0787 -0.94799,4.50078c-1.07069,0.42208 -2.3822,-0.90866 -2.92934,-2.9723c-0.54714,-2.06363 -0.12271,-4.0787 0.94798,-4.50078z"></path><path d="M260.4754,207.41505c1.07069,-0.42208 2.38221,0.90866 2.92935,2.97229c0.54714,2.06363 0.12271,4.0787 -0.94799,4.50078c-1.07069,0.42208 -2.3822,-0.90866 -2.92934,-2.9723c-0.54714,-2.06363 -0.12271,-4.0787 0.94798,-4.50078z"></path></g></g><g data-paper-data="{&quot;index&quot;:null}" fill="none" stroke="#c1ffff" stroke-width="0.5" stroke-linecap="butt"><g><path d="M238.05035,178.88492c0.02751,0.10143 0.05316,0.20472 0.0768,0.30977c0.47085,2.09142 -0.0271,4.08131 -1.11221,4.44454c-1.08511,0.36324 -2.34647,-1.03775 -2.81732,-3.12917c-0.04245,-0.18857 -0.07703,-0.37632 -0.10401,-0.56213"></path></g><g><path d="M241.76902,202.34889c1.10586,-0.25371 2.26893,1.26846 2.59782,3.39986c0.32888,2.1314 -0.30099,4.06491 -1.40684,4.31862c-1.10586,0.25371 -2.26893,-1.26846 -2.59782,-3.39986c-0.32888,-2.1314 0.30099,-4.06491 1.40684,-4.31862z"></path><path d="M240.63918,195.41426c1.10586,-0.25371 2.26893,1.26846 2.59782,3.39986c0.32888,2.1314 -0.30099,4.06491 -1.40684,4.31862c-1.10586,0.25371 -2.26893,-1.26846 -2.59782,-3.39986c-0.32888,-2.1314 0.30099,-4.06491 1.40684,-4.31862z"></path><path d="M238.76492,189.14864c1.07069,-0.42208 2.38221,0.90866 2.92935,2.97229c0.54714,2.06363 0.12271,4.0787 -0.94799,4.50078c-1.07069,0.42208 -2.3822,-0.90866 -2.92934,-2.97229c-0.54714,-2.06363 -0.12271,-4.0787 0.94798,-4.50078z"></path><path d="M236.92544,182.44372c1.07069,-0.42208 2.38221,0.90866 2.92935,2.9723c0.54714,2.06363 0.12271,4.0787 -0.94799,4.50078c-1.07069,0.42208 -2.3822,-0.90866 -2.92934,-2.97229c-0.54714,-2.06363 -0.12271,-4.0787 0.94798,-4.50078z"></path></g></g><g fill="none" stroke="#c1ffff" stroke-width="0.5" stroke-linecap="butt"><g><path d="M246.92052,227.24992c-0.25837,2.14579 -1.37034,3.72373 -2.48367,3.52441c-1.11332,-0.19932 -1.80639,-2.1004 -1.54803,-4.24619c0.25837,-2.14579 1.37035,-3.72372 2.48367,-3.52441c1.11332,0.19932 1.80639,2.1004 1.54802,4.24619z"></path><path d="M247.82091,220.26554c-0.25837,2.14579 -1.37034,3.72373 -2.48367,3.52441c-1.11332,-0.19932 -1.80639,-2.1004 -1.54803,-4.24619c0.25837,-2.14579 1.37035,-3.72372 2.48367,-3.52441c1.11332,0.19932 1.80639,2.1004 1.54802,4.24619z"></path><path d="M249.03469,214.11763c-0.47868,2.08878 -1.74528,3.48271 -2.82902,3.11344c-1.08374,-0.36928 -1.57423,-2.36192 -1.09554,-4.45069c0.47868,-2.08878 1.74528,-3.48271 2.82903,-3.11343c1.08374,0.36928 1.57422,2.36191 1.09554,4.45069z"></path><path d="M250.65171,207.32799c-0.47868,2.08878 -1.74528,3.48271 -2.82902,3.11344c-1.08374,-0.36928 -1.57423,-2.36192 -1.09555,-4.4507c0.47868,-2.08878 1.74529,-3.48271 2.82903,-3.11343c1.08374,0.36928 1.57422,2.36192 1.09553,4.45069z"></path></g><g><path d="M243.4155,254.12832c-0.11346,2.16438 -1.11579,3.848 -2.23874,3.76047c-1.12296,-0.08753 -1.94133,-1.91306 -1.82787,-4.07744c0.11346,-2.16438 1.11579,-3.848 2.23875,-3.76047c1.12296,0.08753 1.94133,1.91306 1.82787,4.07744z"></path><path d="M243.84401,247.07751c-0.11346,2.16438 -1.11579,3.848 -2.23874,3.76047c-1.12296,-0.08753 -1.94133,-1.91306 -1.82787,-4.07744c0.11346,-2.16438 1.11579,-3.848 2.23875,-3.76047c1.12296,0.08753 1.94133,1.91306 1.82787,4.07744z"></path><path d="M244.64103,240.82909c-0.33686,2.12954 -1.50564,3.64521 -2.61053,3.38534c-1.10489,-0.25987 -1.72749,-2.19688 -1.39063,-4.32642c0.33686,-2.12954 1.50564,-3.64521 2.61054,-3.38534c1.10489,0.25987 1.72749,2.19687 1.39063,4.32642z"></path><path d="M245.79685,233.90085c-0.33686,2.12954 -1.50564,3.64521 -2.61053,3.38534c-1.10489,-0.25987 -1.72749,-2.19688 -1.39063,-4.32642c0.33686,-2.12954 1.50564,-3.64522 2.61054,-3.38534c1.10489,0.25987 1.72749,2.19688 1.39063,4.32642z"></path></g></g><g fill="none" stroke-linecap="butt"><g stroke="none" stroke-width="1" font-family="sans-serif" font-weight="normal" font-size="12" text-anchor="start"></g><g stroke="#c1ffff" stroke-width="0.5"><path d="M250.97971,200.56119c-0.11571,2.1642 -1.11978,3.84628 -2.24265,3.75702c-1.12287,-0.08926 -1.93934,-1.91606 -1.82363,-4.08026c0.11571,-2.1642 1.11978,-3.84628 2.24266,-3.75701c1.12287,0.08926 1.93934,1.91605 1.82363,4.08026z"></path><path d="M251.41555,193.51105c-0.11571,2.1642 -1.11978,3.84628 -2.24265,3.75701c-1.12287,-0.08926 -1.93934,-1.91605 -1.82363,-4.08026c0.11571,-2.1642 1.11978,-3.84628 2.24266,-3.75702c1.12287,0.08926 1.93934,1.91606 1.82363,4.08026z"></path><path d="M251.8857,183.93773c0.3923,0.81928 0.53856,2.03772 0.33336,3.32613c-0.33908,2.12902 -1.50942,3.64288 -2.61405,3.38131c-1.10462,-0.26158 -1.72521,-2.19954 -1.38613,-4.32856c0.13492,-0.84715 0.40146,-1.5969 0.74309,-2.17615"></path></g></g><path d="M210.09043,229.8228l11.17316,-18.63301c0,0 13.92872,3.20568 19.88165,3.20568c5.51542,0 14.6237,-3.20568 14.6237,-3.20568c0,0 13.80214,18.10125 13.80214,27.04791c0,7.48895 -13.30921,17.03017 -13.30921,17.03017c0,0 -11.88621,8.41491 -17.58129,8.41491c-2.90565,0 -12.6953,-6.48097 -19.12299,-14.9557c-6.41288,-8.45523 -9.46716,-18.90428 -9.46716,-18.90428z" fill="url(#color-6)" stroke="none" stroke-width="0" stroke-linecap="butt"></path></g></g></svg>