<svg version="1.1" xmlns="http://www.w3.org/2000/svg" xmlns:xlink="http://www.w3.org/1999/xlink" width="171.2367" height="207.96035" viewBox="0,0,171.2367,207.96035"><defs><linearGradient x1="215.57183" y1="155.30496" x2="212.76269" y2="165.83923" gradientUnits="userSpaceOnUse" id="color-1"><stop offset="0" stop-color="#ffffff"></stop><stop offset="1" stop-color="#cecece"></stop></linearGradient><linearGradient x1="276.45623" y1="160.30495" x2="279.26537" y2="170.83922" gradientUnits="userSpaceOnUse" id="color-2"><stop offset="0" stop-color="#ffffff"></stop><stop offset="1" stop-color="#cecece"></stop></linearGradient><linearGradient x1="239.24613" y1="145.72191" x2="239.24613" y2="154.60813" gradientUnits="userSpaceOnUse" id="color-3"><stop offset="0" stop-color="#ffffff"></stop><stop offset="1" stop-color="#cecece"></stop></linearGradient><linearGradient x1="238.57689" y1="165.11306" x2="238.57689" y2="173.99929" gradientUnits="userSpaceOnUse" id="color-4"><stop offset="0" stop-color="#ffffff"></stop><stop offset="1" stop-color="#cecece"></stop></linearGradient><linearGradient x1="237.90765" y1="194.09832" x2="237.90765" y2="202.98455" gradientUnits="userSpaceOnUse" id="color-5"><stop offset="0" stop-color="#ffffff"></stop><stop offset="1" stop-color="#cecece"></stop></linearGradient><linearGradient x1="228.73455" y1="237.03537" x2="228.73455" y2="242.4361" gradientUnits="userSpaceOnUse" id="color-6"><stop offset="0" stop-color="#ffffff"></stop><stop offset="1" stop-color="#cecece"></stop></linearGradient><linearGradient x1="246.96288" y1="236.02966" x2="248.41633" y2="241.23113" gradientUnits="userSpaceOnUse" id="color-7"><stop offset="0" stop-color="#ffffff"></stop><stop offset="1" stop-color="#cecece"></stop></linearGradient></defs><g transform="translate(-160.39568,-67.02959)"><g data-paper-data="{&quot;isPaintingLayer&quot;:true}" fill-rule="nonzero" stroke-linejoin="miter" stroke-miterlimit="10" stroke-dasharray="" stroke-dashoffset="0" style="mix-blend-mode: normal"><g><g data-paper-data="{&quot;index&quot;:null}" stroke="none" stroke-width="0" stroke-linecap="butt"><path d="M183.6881,158.086l2.80914,-10.53427l58.14917,15.50644l-2.80914,10.53427z" fill="url(#color-1)"></path><path d="M186.69324,150.32385v-23.54916h6.10534v23.54916z" fill="#ffffff"></path><path d="M182.77217,159.71334l-22.37649,-7.33864l1.90261,-5.80131l22.37649,7.33864z" fill="#ffffff"></path><path d="M190.52608,156.7043l1.10984,23.523l-6.09855,0.28773l-1.10983,-23.523z" fill="#ffffff"></path><path d="M185.3827,160.84671l-21.26965,10.10767l-2.62051,-5.51435l21.26966,-10.10767z" fill="#ffffff"></path><path d="M181.23493,154.78825l-10.16882,-21.24049l5.50679,-2.63636l10.16882,21.24049z" fill="#ffffff"></path></g><g data-paper-data="{&quot;index&quot;:null}" stroke="none" stroke-width="0" stroke-linecap="butt"><path d="M250.19078,178.59245l-2.80913,-10.53427l58.14916,-15.50644l2.80914,10.53427z" fill="url(#color-2)"></path><path d="M299.22948,155.32384v-23.54916h6.10534v23.54916z" fill="#ffffff"></path><path d="M307.35328,158.91203l22.37649,-7.33864l1.90261,5.80131l-22.37649,7.33864z" fill="#ffffff"></path><path d="M307.60052,161.99203l-1.10983,23.523l-6.09855,-0.28773l1.10984,-23.523z" fill="#ffffff"></path><path d="M309.26586,160.33236l21.26966,10.10766l-2.6205,5.51436l-21.26965,-10.10767z" fill="#ffffff"></path><path d="M305.28634,157.15189l10.16881,-21.24049l5.50679,2.63636l-10.16882,21.24049z" fill="#ffffff"></path></g><path d="M232.408,222v-90h12.83427v90z" fill="#ffffff" stroke="none" stroke-width="0" stroke-linecap="butt"></path><path d="M266.32358,121.53234c-3.55902,7.99414 -4.54415,21.50209 -12.63099,23.05985c-5.18337,0.99847 -16.93036,-7.76039 -22.15285,-10.08546c-13.37036,-5.95253 -19.47474,-21.41232 -13.63452,-34.53041c5.84022,-13.11809 21.41348,-18.92692 34.78384,-12.9744c13.37036,5.95253 19.47475,21.41233 13.63453,34.53042z" fill="#ffffff" stroke="none" stroke-width="NaN" stroke-linecap="butt"></path><path d="M205.85738,271.68552l1.58432,-11.55859c0,0 4.98092,2.06479 9.65118,0.72409c3.48188,-0.99955 6.57219,-5.56584 8.47219,-5.30541c2.82695,0.38748 5.98457,7.88574 5.98457,7.88574l-1.58432,11.55859z" fill="#000000" stroke="none" stroke-width="0" stroke-linecap="butt"></path><path d="M217.91276,98.42847v-13.08287c0,0 15.60049,-18.31601 23.11307,-18.31601c8.38216,0 24.85745,18.31601 24.85745,18.31601v13.08287c0,0 15.20363,6.10534 9.15801,6.10534c-8.84988,0 -57.12852,-6.10534 -57.12852,-6.10534z" fill="#6e3d00" stroke="none" stroke-width="0" stroke-linecap="butt"></path><path d="M236.66487,106.49624c0,2.28806 -2.34296,4.14291 -5.23315,4.14291c-2.89019,0 -5.23315,-1.85484 -5.23315,-4.14291c0,-2.28806 2.34296,-4.14291 5.23315,-4.14291c2.89019,0 5.23315,1.85484 5.23315,4.14291z" fill="#d4d4d4" stroke="none" stroke-width="0" stroke-linecap="butt"></path><path d="M261.72526,109.31576c0,2.28807 -2.34296,4.14291 -5.23314,4.14291c-2.89019,0 -5.23315,-1.85484 -5.23315,-4.14291c0,-2.28807 2.34297,-4.14291 5.23315,-4.14291c2.89018,0 5.23314,1.85484 5.23314,4.14291z" fill="#d4d4d4" stroke="none" stroke-width="0" stroke-linecap="butt"></path><path d="M257.16136,125.4664l-10.46629,4.79705l-13.95506,-11.77458" fill="none" stroke="#000000" stroke-width="2.5" stroke-linecap="round"></path><path d="M225.63342,154.60813c0,0 -3.48876,-3.19607 -3.48876,-4.72038c0,-1.43198 3.48876,-4.16584 3.48876,-4.16584h28.09761c0,0 2.61657,2.73386 2.61657,4.16584c0,1.52432 -2.61657,4.72038 -2.61657,4.72038z" fill="url(#color-3)" stroke="none" stroke-width="0" stroke-linecap="butt"></path><path d="M224.96418,173.99929c0,0 -3.48877,-3.19607 -3.48877,-4.72038c0,-1.43198 3.48877,-4.16584 3.48877,-4.16584h28.09761c0,0 2.61657,2.73386 2.61657,4.16584c0,1.52432 -2.61657,4.72038 -2.61657,4.72038z" fill="url(#color-4)" stroke="none" stroke-width="0" stroke-linecap="butt"></path><path d="M224.29494,202.98455c0,0 -3.48876,-3.19607 -3.48876,-4.72038c0,-1.43198 3.48876,-4.16584 3.48876,-4.16584h28.09761c0,0 2.61657,2.73386 2.61657,4.16584c0,1.52432 -2.61657,4.72038 -2.61657,4.72038z" fill="url(#color-5)" stroke="none" stroke-width="0" stroke-linecap="butt"></path><path d="M246.89325,273.44851l-1.58432,-11.55859c0,0 3.15762,-7.49826 5.98457,-7.88574c1.9,-0.26043 4.99031,4.30586 8.47219,5.30541c4.67026,1.3407 9.65118,-0.72409 9.65118,-0.72409l1.58432,11.55859z" data-paper-data="{&quot;index&quot;:null}" fill="#000000" stroke="none" stroke-width="0" stroke-linecap="butt"></path><path d="M222.51241,256.92687l6.5781,-36.03657l4.71907,0.86142l-6.5781,36.03657z" fill="#ffffff" stroke="none" stroke-width="0" stroke-linecap="butt"></path><path d="M251.28152,259.89919l-11.15574,-34.89204l4.5692,-1.46087l11.15575,34.89205z" fill="#ffffff" stroke="none" stroke-width="0" stroke-linecap="butt"></path><path d="M222.58514,242.4361c0,0 -1.57601,-1.94245 -1.57601,-2.86888c0,-0.87031 1.57601,-2.53185 1.57601,-2.53185h12.69281c0,0 1.18201,1.66154 1.18201,2.53185c0,0.92643 -1.18201,2.86888 -1.18201,2.86888z" fill="url(#color-6)" stroke="none" stroke-width="0" stroke-linecap="butt"></path><path d="M242.4938,242.88607c0,0 -2.04063,-1.44665 -2.28995,-2.3389c-0.23422,-0.8382 0.8365,-2.86258 0.8365,-2.86258l12.22452,-3.41591c0,0 1.58556,1.28213 1.81978,2.12033c0.24932,0.89225 -0.36633,3.08114 -0.36633,3.08114z" fill="url(#color-7)" stroke="none" stroke-width="0" stroke-linecap="butt"></path></g></g></g></svg>