<svg version="1.1" xmlns="http://www.w3.org/2000/svg" xmlns:xlink="http://www.w3.org/1999/xlink" width="15.35973" height="21.54109" viewBox="0,0,15.35973,21.54109"><defs><linearGradient x1="237.21713" y1="171.28136" x2="237.14671" y2="172.62623" gradientUnits="userSpaceOnUse" id="color-1"><stop offset="0" stop-color="#f86b00"></stop><stop offset="1" stop-color="#ff8800"></stop></linearGradient><linearGradient x1="238.97845" y1="171.32176" x2="238.92428" y2="172.35623" gradientUnits="userSpaceOnUse" id="color-2"><stop offset="0" stop-color="#f86b00"></stop><stop offset="1" stop-color="#ff8800"></stop></linearGradient><linearGradient x1="240.59003" y1="171.25057" x2="240.52503" y2="172.49194" gradientUnits="userSpaceOnUse" id="color-3"><stop offset="0" stop-color="#f86b00"></stop><stop offset="1" stop-color="#ff8800"></stop></linearGradient><linearGradient x1="237.34277" y1="172.84395" x2="237.27235" y2="174.18877" gradientUnits="userSpaceOnUse" id="color-4"><stop offset="0" stop-color="#f86b00"></stop><stop offset="1" stop-color="#ff8800"></stop></linearGradient><linearGradient x1="239.10409" y1="172.8843" x2="239.04992" y2="173.91877" gradientUnits="userSpaceOnUse" id="color-5"><stop offset="0" stop-color="#f86b00"></stop><stop offset="1" stop-color="#ff8800"></stop></linearGradient><linearGradient x1="240.71567" y1="172.81312" x2="240.65066" y2="174.05449" gradientUnits="userSpaceOnUse" id="color-6"><stop offset="0" stop-color="#f86b00"></stop><stop offset="1" stop-color="#ff8800"></stop></linearGradient><linearGradient x1="237.37037" y1="174.29763" x2="237.29995" y2="175.64245" gradientUnits="userSpaceOnUse" id="color-7"><stop offset="0" stop-color="#f86b00"></stop><stop offset="1" stop-color="#ff8800"></stop></linearGradient><linearGradient x1="239.13169" y1="174.33799" x2="239.07752" y2="175.3725" gradientUnits="userSpaceOnUse" id="color-8"><stop offset="0" stop-color="#f86b00"></stop><stop offset="1" stop-color="#ff8800"></stop></linearGradient><linearGradient x1="240.74328" y1="174.2668" x2="240.67827" y2="175.50817" gradientUnits="userSpaceOnUse" id="color-9"><stop offset="0" stop-color="#f86b00"></stop><stop offset="1" stop-color="#ff8800"></stop></linearGradient><linearGradient x1="238.01015" y1="184.85992" x2="237.93973" y2="186.20473" gradientUnits="userSpaceOnUse" id="color-10"><stop offset="0" stop-color="#f86b00"></stop><stop offset="1" stop-color="#ff8800"></stop></linearGradient><linearGradient x1="239.77151" y1="184.90027" x2="239.71734" y2="185.93474" gradientUnits="userSpaceOnUse" id="color-11"><stop offset="0" stop-color="#f86b00"></stop><stop offset="1" stop-color="#ff8800"></stop></linearGradient><linearGradient x1="241.38305" y1="184.82908" x2="241.31804" y2="186.07045" gradientUnits="userSpaceOnUse" id="color-12"><stop offset="0" stop-color="#f86b00"></stop><stop offset="1" stop-color="#ff8800"></stop></linearGradient><linearGradient x1="237.92348" y1="186.51508" x2="237.85305" y2="187.8599" gradientUnits="userSpaceOnUse" id="color-13"><stop offset="0" stop-color="#f86b00"></stop><stop offset="1" stop-color="#ff8800"></stop></linearGradient><linearGradient x1="239.68484" y1="186.55542" x2="239.63066" y2="187.5899" gradientUnits="userSpaceOnUse" id="color-14"><stop offset="0" stop-color="#f86b00"></stop><stop offset="1" stop-color="#ff8800"></stop></linearGradient><linearGradient x1="241.29637" y1="186.48424" x2="241.23137" y2="187.72561" gradientUnits="userSpaceOnUse" id="color-15"><stop offset="0" stop-color="#f86b00"></stop><stop offset="1" stop-color="#ff8800"></stop></linearGradient><linearGradient x1="237.96467" y1="187.71012" x2="237.89424" y2="189.05498" gradientUnits="userSpaceOnUse" id="color-16"><stop offset="0" stop-color="#f86b00"></stop><stop offset="1" stop-color="#ff8800"></stop></linearGradient><linearGradient x1="239.72598" y1="187.75051" x2="239.67181" y2="188.78499" gradientUnits="userSpaceOnUse" id="color-17"><stop offset="0" stop-color="#f86b00"></stop><stop offset="1" stop-color="#ff8800"></stop></linearGradient><linearGradient x1="241.33757" y1="187.67929" x2="241.27256" y2="188.92069" gradientUnits="userSpaceOnUse" id="color-18"><stop offset="0" stop-color="#f86b00"></stop><stop offset="1" stop-color="#ff8800"></stop></linearGradient><linearGradient x1="243.27246" y1="176.96175" x2="247.7403" y2="177.63352" gradientUnits="userSpaceOnUse" id="color-19"><stop offset="0" stop-color="#7df8ff" stop-opacity="0.59003"></stop><stop offset="1" stop-color="#7df8ff" stop-opacity="0"></stop></linearGradient></defs><g transform="translate(-232.28025,-170.27878)"><g data-paper-data="{&quot;isPaintingLayer&quot;:true}" fill-rule="nonzero" stroke-linecap="butt" stroke-linejoin="miter" stroke-miterlimit="10" stroke-dasharray="" stroke-dashoffset="0" style="mix-blend-mode: normal"><path d="M236.57079,190.69296c0.02809,-0.53637 1.28939,-0.90631 2.81721,-0.8263c1.52782,0.08001 2.74358,0.57966 2.71549,1.11603c-0.02809,0.53637 -1.28939,0.90631 -2.81721,0.8263c-1.52782,-0.08001 -2.74358,-0.57966 -2.71549,-1.11603z" fill="#ffa63f" stroke="none" stroke-width="0"></path><text transform="translate(239.42115,172.41283) rotate(92.99766) scale(0.09473,-0.09473)" font-size="40" xml:space="preserve" fill="#9966ff" fill-rule="nonzero" stroke="none" stroke-width="1" stroke-linecap="butt" stroke-linejoin="miter" stroke-miterlimit="10" stroke-dasharray="" stroke-dashoffset="0" font-family="Sans Serif" font-weight="normal" text-anchor="start" style="mix-blend-mode: normal"><tspan x="0" dy="0">xamt8</tspan></text><path d="M236.39713,184.46425l-1.86206,-0.09751c0,0 -0.39065,-1.44938 -0.46311,-2.8991c-0.02197,-0.43961 0.13073,-1.09515 0.14865,-1.43743c0.06814,-1.3012 0.75326,-4.04276 0.75326,-4.04276l1.86206,0.09751z" fill="#ab4a00" stroke="none" stroke-width="0"></path><path d="M236.88182,185.80484l-2.78356,-1.09913l0.58663,-0.9202l2.78356,1.09909z" data-paper-data="{&quot;index&quot;:null}" fill="#e66909" stroke="none" stroke-width="0"></path><path d="M236.97065,175.57212l-2.23087,0.83654l-0.36369,-0.96996l2.23087,-0.8365z" fill="#e66909" stroke="none" stroke-width="0"></path><path d="M242.14267,191.0207c0,0 -1.57448,-0.88477 -2.46807,-0.9503c-0.97654,-0.0716 -3.16451,0.53729 -3.16451,0.53729l-0.30831,-8.76392c0,0 -0.7359,-3.65998 -0.62988,-4.57039c0.045,-0.38645 1.7557,-0.6778 1.82533,-0.63427c0.12597,0.07871 0.55275,0.02638 0.6727,0.52812c0.19501,0.81562 0.10312,2.34732 0.49231,2.71389c0.86258,0.81254 1.72265,1.6538 2.08298,1.6213c0.84632,-0.07631 2.47116,-1.18523 2.47116,-1.18523z" fill="#ff8800" stroke="none" stroke-width="0"></path><path d="M237.759,178.50343c0.08116,-1.54991 1.49638,-2.73567 3.16099,-2.6485c1.66461,0.08717 2.94823,1.41429 2.86706,2.96416c-0.08116,1.54991 -1.49637,2.73567 -3.16098,2.6485c-1.66461,-0.08717 -2.94823,-1.4143 -2.86707,-2.96417z" fill="#e56300" stroke="#000000" stroke-width="0"></path><path d="M237.67219,179.01313c-0.03522,-1.50139 0.86355,-2.74023 2.00745,-2.76709c0.22017,-0.00517 0.4334,0.03494 0.63441,0.1138c-0.63005,0.63675 -1.01059,1.51874 -0.98791,2.48496c0.02477,1.05635 0.52623,1.98954 1.29392,2.59876c-0.24762,0.14763 -0.52233,0.23264 -0.81285,0.23946c-1.14389,0.02685 -2.09979,-1.1685 -2.13501,-2.66989z" fill="#ffa63f" stroke="none" stroke-width="0"></path><path d="M239.46682,178.67637c0.29482,-0.62753 1.03886,-0.81268 1.66186,-0.41357c0.62299,0.39911 0.67515,0.8071 0.38033,1.43463c-0.29486,0.62753 -0.67957,0.71348 -1.30257,0.31437c-0.62295,-0.39911 -1.03443,-0.70786 -0.73961,-1.33539z" fill="#00ccff" stroke="#000000" stroke-width="0"></path><path d="M241.38898,175.4598c0,0 -2.80043,1.63632 -3.84463,1.96009c-0.77241,0.23949 -1.9119,-0.09213 -1.9119,-0.09213l0.38076,-6.28086c0,0 1.58247,-0.82647 2.40232,-0.76484c0.89758,0.06747 2.77106,1.15377 2.77106,1.15377z" fill="#ff8800" stroke="none" stroke-width="0"></path><path d="M239.84112,179.36334c0.00691,-0.13198 0.15005,-0.23175 0.31973,-0.22286c0.16967,0.00889 0.30162,0.12306 0.29471,0.25504c-0.00691,0.13198 -0.15006,0.23175 -0.31973,0.22286c-0.16967,-0.00889 -0.30162,-0.12306 -0.29471,-0.25504z" fill="#7df8ff" stroke="none" stroke-width="0"></path><path d="M240.34907,176.8022c1.01894,-0.15422 2.00851,0.43644 2.2905,1.41484c0.25625,0.88901 -0.15251,1.81796 -0.93809,2.28918" fill="none" stroke="#af4c00" stroke-width="0.2"></path><g stroke="none" stroke-width="0"><path d="M237.71147,172.24088l-1.10789,0.35691l0.04605,-0.87933l1.1106,-0.40865z" fill="url(#color-1)"></path><path d="M239.46737,172.38467l-1.08622,-0.05688l0.05417,-1.03448l1.08622,0.05688z" fill="url(#color-2)"></path><path d="M241.01071,171.63568c0,0 0.02526,0.38892 0.03566,0.54958c0.00812,0.12546 0.02174,0.33517 0.02174,0.33517l-1.02093,-0.31281l-0.00028,-0.98548l0.96381,0.41351z" fill="url(#color-3)"></path></g><g stroke="none" stroke-width="0"><path d="M237.8371,173.80346l-1.10789,0.35691l0.04605,-0.87933l1.1106,-0.40865z" fill="url(#color-4)"></path><path d="M239.593,173.94721l-1.08622,-0.05688l0.05417,-1.03448l1.08622,0.05688z" fill="url(#color-5)"></path><path d="M241.13635,173.19823c0,0 0.02526,0.38892 0.03566,0.54958c0.00812,0.12546 0.02174,0.33516 0.02174,0.33516l-1.02093,-0.31281l-0.00028,-0.98548l0.96381,0.41351z" fill="url(#color-6)"></path></g><g stroke="none" stroke-width="0"><path d="M237.86471,175.25714l-1.10789,0.35691l0.04605,-0.87933l1.1106,-0.40865z" fill="url(#color-7)"></path><path d="M239.62061,175.4009l-1.08622,-0.05688l0.05417,-1.03447l1.08622,0.05688z" fill="url(#color-8)"></path><path d="M241.16396,174.65191c0,0 0.02526,0.38892 0.03567,0.54958c0.00812,0.12546 0.02174,0.33516 0.02174,0.33516l-1.02093,-0.31281l-0.00028,-0.98548l0.96381,0.41351z" fill="url(#color-9)"></path></g><g stroke="none" stroke-width="0"><path d="M238.50452,185.81943l-1.10789,0.35691l0.04605,-0.87932l1.1106,-0.40865z" fill="url(#color-10)"></path><path d="M240.26043,185.96318l-1.08622,-0.05688l0.05417,-1.03447l1.08622,0.05688z" fill="url(#color-11)"></path><path d="M241.80377,185.21419c0,0 0.02526,0.38892 0.03566,0.54958c0.00812,0.12546 0.02174,0.33517 0.02174,0.33517l-1.02093,-0.31281l-0.00028,-0.98549l0.96381,0.41351z" fill="url(#color-12)"></path></g><g stroke="none" stroke-width="0"><path d="M238.41785,187.47458l-1.10789,0.35691l0.04605,-0.87932l1.1106,-0.40865z" fill="url(#color-13)"></path><path d="M240.17375,187.61834l-1.08622,-0.05688l0.05417,-1.03448l1.08622,0.05688z" fill="url(#color-14)"></path><path d="M241.71709,186.86935c0,0 0.02526,0.38892 0.03566,0.54958c0.00812,0.12546 0.02174,0.33517 0.02174,0.33517l-1.02093,-0.31282l-0.00028,-0.98548l0.96381,0.41351z" fill="url(#color-15)"></path></g><g stroke="none" stroke-width="0"><path d="M238.459,188.66963l-1.10789,0.35691l0.04605,-0.87933l1.1106,-0.40865z" fill="url(#color-16)"></path><path d="M240.2149,188.81343l-1.08622,-0.05688l0.05417,-1.03448l1.08622,0.05688z" fill="url(#color-17)"></path><path d="M241.75825,188.06443c0,0 0.02526,0.38892 0.03566,0.54958c0.00812,0.12546 0.02174,0.33517 0.02174,0.33517l-1.02093,-0.31281l-0.00028,-0.98548l0.96382,0.41351z" fill="url(#color-18)"></path></g><path d="M234.66407,185.56639c0,0 -0.16255,0.51014 -0.3245,0.50166c-0.18765,-0.00983 -0.73583,-0.55719 -0.73583,-0.55719c0,0 -1.41099,-3.13998 -1.3192,-4.89279c0.09747,-1.86135 1.88801,-5.96924 1.88801,-5.96924c0,0 0.39275,-0.44625 0.58043,-0.43642c0.16196,0.00848 0.47994,0.49195 0.47994,0.49195c0,0 -0.94488,3.94117 -1.04309,5.81656c-0.09082,1.73423 0.47425,5.04547 0.47425,5.04547z" fill="#e66909" stroke="none" stroke-width="0"></path><path d="M247.3112,190.50525l-6.53743,-10.25937c0,0 0.97593,-0.11691 0.88446,-0.98959c-0.10288,-0.98159 -1.23626,-1.25881 -1.23626,-1.25881l7.21801,-6.7651z" fill="url(#color-19)" stroke="none" stroke-width="0"></path><path d="M234.41603,185.60263c0,0 -0.09936,0.51345 -0.18577,0.50893c-0.10012,-0.00524 -0.37998,-0.53855 -0.37998,-0.53855c0,0 -0.67816,-3.10161 -0.58637,-4.85441c0.09747,-1.86135 1.15518,-6.00761 1.15518,-6.00761c0,0 0.22092,-0.45524 0.32107,-0.45c0.08641,0.00453 0.24471,0.47963 0.24471,0.47963c0,0 -0.60136,3.95916 -0.69957,5.83455c-0.09082,1.73423 0.13074,5.02748 0.13074,5.02748z" fill="#ca5c08" stroke="none" stroke-width="0"></path></g></g></svg>