<svg version="1.1" xmlns="http://www.w3.org/2000/svg" xmlns:xlink="http://www.w3.org/1999/xlink" width="38.02255" height="27.07813" viewBox="0,0,38.02255,27.07813"><defs><linearGradient x1="242.28436" y1="166.28043" x2="238.58316" y2="166.88344" gradientUnits="userSpaceOnUse" id="color-1"><stop offset="0" stop-color="#6c6c6c"></stop><stop offset="1" stop-color="#2c2c2c"></stop></linearGradient><linearGradient x1="237.84743" y1="167.35325" x2="239.92009" y2="169.16062" gradientUnits="userSpaceOnUse" id="color-2"><stop offset="0" stop-color="#a3a3a3"></stop><stop offset="1" stop-color="#6e6e6e"></stop></linearGradient><radialGradient cx="240.93376" cy="170.15694" r="2.175" gradientUnits="userSpaceOnUse" id="color-3"><stop offset="0" stop-color="#c6c6c6"></stop><stop offset="1" stop-color="#939393"></stop></radialGradient><linearGradient x1="240.1159" y1="171.20547" x2="240.1159" y2="183.46429" gradientUnits="userSpaceOnUse" id="color-4"><stop offset="0" stop-color="#979797"></stop><stop offset="1" stop-color="#1a1a1a"></stop></linearGradient><radialGradient cx="241.16947" cy="182.41071" r="0.80357" gradientUnits="userSpaceOnUse" id="color-5"><stop offset="0" stop-color="#6c6c6c"></stop><stop offset="1" stop-color="#787878"></stop></radialGradient><radialGradient cx="239.54447" cy="181.80357" r="0.53571" gradientUnits="userSpaceOnUse" id="color-6"><stop offset="0" stop-color="#a3a3a3"></stop><stop offset="1" stop-color="#a8a8a8"></stop></radialGradient><linearGradient x1="240.08376" y1="180.68194" x2="240.08376" y2="183.53194" gradientUnits="userSpaceOnUse" id="color-7"><stop offset="0" stop-color="#c18b4d"></stop><stop offset="1" stop-color="#ad7145"></stop></linearGradient><linearGradient x1="240.35876" y1="179.88194" x2="240.35876" y2="180.88194" gradientUnits="userSpaceOnUse" id="color-8"><stop offset="0" stop-color="#c18b4d"></stop><stop offset="1" stop-color="#ad7145"></stop></linearGradient><linearGradient x1="238.83376" y1="179.58194" x2="238.83376" y2="181.28194" gradientUnits="userSpaceOnUse" id="color-9"><stop offset="0" stop-color="#c18b4d"></stop><stop offset="1" stop-color="#ad7145"></stop></linearGradient></defs><g transform="translate(-221.05561,-160.97609)"><g data-paper-data="{&quot;isPaintingLayer&quot;:true}" fill-rule="nonzero" stroke-width="0" stroke-linecap="butt" stroke-linejoin="miter" stroke-miterlimit="10" stroke-dasharray="" stroke-dashoffset="0" style="mix-blend-mode: normal"><path d="M254.87518,185.48478v-10.38461h0.76923v10.38461z" data-paper-data="{&quot;index&quot;:null}" fill="#c5764f" stroke="none"></path><path d="M225.79826,186.40786v-10.38462h0.61538v10.38462z" data-paper-data="{&quot;index&quot;:null}" fill="#c5764f" stroke="none"></path><path d="M233.25979,186.48478v-1.23077h13.61538v1.23077z" data-paper-data="{&quot;index&quot;:null}" fill="#9b7f4e" stroke="none"></path><path d="M242.34612,183.20701l0.96766,-1.29348l4.31122,3.00278l-0.80624,0.9897z" data-paper-data="{&quot;index&quot;:null}" fill="#9b7f4e" stroke="none"></path><path d="M241.44023,183.10002c0,0 3.30745,-6.18435 4.99838,-8.75186c1.46703,-2.22753 5.64816,-5.00939 5.64816,-5.00939l4.91327,-1.23847c0,0 -8.40431,4.98474 -10.05702,7.48014c-1.69017,2.55196 -4.35875,7.97342 -4.35875,7.97342z" data-paper-data="{&quot;index&quot;:null}" fill="#78623c" stroke="none"></path><path d="M245.70304,187.5178c0,0 3.75151,-5.92549 5.62596,-8.36226c1.62624,-2.1141 6.21298,-7.88983 6.21298,-7.88983l1.53618,-0.35121c0,0 -5.50531,7.13931 -7.33635,9.50696c-1.87254,2.42132 -4.93104,7.63276 -4.93104,7.63276z" data-paper-data="{&quot;index&quot;:null}" fill="#78623c" stroke="none"></path><path d="M244.03842,180.20701l1.06637,-1.29348l4.75098,3.00278l-0.88848,0.9897z" data-paper-data="{&quot;index&quot;:null}" fill="#9b7f4e" stroke="none"></path><path d="M246.0052,177.3318l1.00737,-1.33993l4.88069,2.787l-0.84327,1.02849z" data-paper-data="{&quot;index&quot;:null}" fill="#9b7f4e" stroke="none"></path><path d="M249.31545,172.46442l1.30865,-1.0477l4.03538,3.91206l-1.07232,0.78678z" data-paper-data="{&quot;index&quot;:null}" fill="#9b7f4e" stroke="none"></path><path d="M253.39913,170.23782l0.40876,-0.74087l3.77172,2.08095l-0.40876,0.74087z" data-paper-data="{&quot;index&quot;:null}" fill="#9b7f4e" stroke="none"></path><path d="M233.315,185.59832l-0.80624,-0.9897l4.31123,-3.00278l0.96767,1.29348z" data-paper-data="{&quot;index&quot;:null}" fill="#9b7f4e" stroke="none"></path><path d="M237.5495,183.24618c0,0 -2.66858,-5.42146 -4.35875,-7.97342c-1.6527,-2.49539 -10.05702,-7.48014 -10.05702,-7.48014l4.91327,1.23847c0,0 4.18114,2.78186 5.64817,5.00939c1.69093,2.56751 4.99838,8.75186 4.99838,8.75186z" data-paper-data="{&quot;index&quot;:null}" fill="#78623c" stroke="none"></path><path d="M243.3096,170.16614c0.59281,0.18605 0.68125,1.58635 0.19754,3.12766c-0.48371,1.54131 -1.35641,2.63997 -1.94922,2.45393c-0.59281,-0.18605 -0.68125,-1.58635 -0.19754,-3.12766c0.48371,-1.54131 1.35641,-2.63997 1.94922,-2.45393z" data-paper-data="{&quot;index&quot;:null}" fill="#515151" stroke="none"></path><path d="M237.02174,179.4849c0.64915,-0.23493 1.43821,0.30083 1.76242,1.19666c0.3242,0.89583 0.06078,1.81249 -0.58837,2.04742c-0.64915,0.23493 -1.43821,-0.30083 -1.76242,-1.19666c-0.3242,-0.89583 -0.06078,-1.81249 0.58837,-2.04742z" data-paper-data="{&quot;index&quot;:null}" fill="#7e7e7e" stroke="none"></path><path d="M238.55007,173.3719c0.88801,0.20457 1.2536,1.90832 0.81657,3.80544c-0.43703,1.89712 -1.51119,3.2692 -2.3992,3.06463c-0.88801,-0.20457 -1.2536,-1.90832 -0.81657,-3.80544c0.43703,-1.89712 1.51119,-3.2692 2.3992,-3.06463z" data-paper-data="{&quot;index&quot;:null}" fill="#acacac" stroke="none"></path><path d="M241.63813,177.25095c0.61757,-0.06818 1.27296,1.27835 1.46384,3.00754c0.19088,1.72919 -0.15501,3.18625 -0.77258,3.25442c-0.61757,0.06818 -1.27296,-1.27835 -1.46384,-3.00754c-0.19088,-1.72919 0.15501,-3.18625 0.77258,-3.25442z" data-paper-data="{&quot;index&quot;:null}" fill="#747474" stroke="none"></path><path d="M239.84421,161.64049c0.25702,-0.37512 0.52337,-0.61819 0.77047,-0.65845c1.02205,-0.16651 1.32777,3.19977 1.66968,5.2984c0.34191,2.09862 -0.20946,3.93488 -1.23152,4.1014c-1.02205,0.16651 -2.12777,-1.39977 -2.46968,-3.4984c-0.25925,-1.59124 0.455,-4.0665 1.26105,-5.24295z" data-paper-data="{&quot;index&quot;:null}" fill="url(#color-1)" stroke="none"></path><path d="M237.84742,167.35326c0.71688,-0.82211 1.762,-1.08396 2.33435,-0.58487c0.57235,0.49909 0.45519,1.57013 -0.26168,2.39223c-0.71688,0.82211 -1.762,1.08396 -2.33435,0.58487c-0.57235,-0.49909 -0.45519,-1.57013 0.26168,-2.39223z" data-paper-data="{&quot;index&quot;:null}" fill="url(#color-2)" stroke="none"></path><path d="M240.02126,168.18261c0.93999,-0.43445 2.11055,0.09729 2.61451,1.18768c0.50396,1.09039 0.15049,2.32652 -0.7895,2.76097c-0.93999,0.43445 -2.11055,-0.09729 -2.61451,-1.18768c-0.50396,-1.09039 -0.15049,-2.32652 0.7895,-2.76097z" data-paper-data="{&quot;index&quot;:null}" fill="url(#color-3)" stroke="none"></path><path d="M238.40161,183.46429c0,0 -0.13855,-0.95501 -0.29511,-2.71237c-0.03289,-0.36928 -0.33969,-0.81805 -0.34252,-1.25184c-0.00225,-0.34338 0.46245,-1.15842 0.4663,-1.51987c0.00811,-0.76194 0.43223,-2.89215 0.40829,-3.4531c-0.01451,-0.3401 -0.91552,0.00691 -0.91552,-0.2339c0,-1.13462 0.67857,-3.08775 0.67857,-3.08775c0,0 1.0656,-2.62688 1.64286,-2.62688c0.56535,0 1.78571,2.62688 1.78571,2.62688c0,0 0.60714,1.98641 0.60714,3.31818c0,0.27586 -0.61627,1.21757 -0.63228,1.60638c-0.0453,1.1001 0.73486,2.66094 0.7447,3.92338c0.00463,0.59352 -0.49013,0.72964 -0.58405,1.20804c-0.21164,1.07811 -0.13551,2.20285 -0.13551,2.20285z" data-paper-data="{&quot;index&quot;:null}" fill="url(#color-4)" stroke="#000000"></path><path d="M241.56934,182.31692c0.10135,0.43207 0.00449,0.82433 -0.21635,0.87613c-0.22084,0.0518 -0.48202,-0.25647 -0.58337,-0.68854c-0.10135,-0.43207 -0.00449,-0.82433 0.21635,-0.87613c0.22084,-0.0518 0.48202,0.25647 0.58337,0.68854z" data-paper-data="{&quot;index&quot;:null}" fill="url(#color-5)" stroke="none"></path><path d="M239.34199,181.48793c0.24903,-0.15976 0.54156,-0.14795 0.65339,0.02637c0.11183,0.17432 0.00061,0.44515 -0.24842,0.6049c-0.24903,0.15976 -0.54156,0.14795 -0.65339,-0.02637c-0.11183,-0.17432 -0.00061,-0.44515 0.24842,-0.6049z" data-paper-data="{&quot;index&quot;:null}" fill="url(#color-6)" stroke="none"></path><path d="M239.70876,183.53194v-2.85h0.75v2.85z" data-paper-data="{&quot;index&quot;:null}" fill="url(#color-7)" stroke="none"></path><path d="M238.95876,180.88194v-1h2.8v1z" data-paper-data="{&quot;index&quot;:null}" fill="url(#color-8)" stroke="none"></path><path d="M237.80876,180.33194l1.4,-0.75v1.7z" data-paper-data="{&quot;index&quot;:null}" fill="url(#color-9)" stroke="none"></path><path d="M233.323,187.74653c0,0 -3.0585,-5.21145 -4.93104,-7.63276c-1.83104,-2.36764 -7.33635,-9.50695 -7.33635,-9.50695l1.53618,0.35121c0,0 4.58674,5.77573 6.21298,7.88983c1.87444,2.43676 5.62596,8.36226 5.62596,8.36226z" data-paper-data="{&quot;index&quot;:null}" fill="#78623c" stroke="none"></path><path d="M231.16649,182.59832l-0.88848,-0.9897l4.75098,-3.00278l1.06637,1.29348z" data-paper-data="{&quot;index&quot;:null}" fill="#9b7f4e" stroke="none"></path><path d="M229.08378,179.49966l-0.84327,-1.02849l4.88069,-2.78701l1.00737,1.33994z" data-paper-data="{&quot;index&quot;:null}" fill="#9b7f4e" stroke="none"></path><path d="M226.54661,175.80787l-1.07232,-0.78678l4.03538,-3.91206l1.30865,1.04769z" data-paper-data="{&quot;index&quot;:null}" fill="#9b7f4e" stroke="none"></path><path d="M222.96292,172.01108l-0.40876,-0.74087l3.77172,-2.08095l0.40876,0.74087z" data-paper-data="{&quot;index&quot;:null}" fill="#9b7f4e" stroke="none"></path></g></g></svg>