<svg version="1.1" xmlns="http://www.w3.org/2000/svg" xmlns:xlink="http://www.w3.org/1999/xlink" width="41.0691" height="19.30809" viewBox="0,0,41.0691,19.30809"><g transform="translate(-221.70263,-169.76223)"><g data-paper-data="{&quot;isPaintingLayer&quot;:true}" fill-rule="nonzero" stroke="none" stroke-width="0" stroke-linecap="butt" stroke-linejoin="miter" stroke-miterlimit="10" stroke-dasharray="" stroke-dashoffset="0" style="mix-blend-mode: normal"><path d="M228.48589,172.08791l-0.86843,0.78797l-1.93053,-2.12764l0.86843,-0.78797z" data-paper-data="{&quot;index&quot;:null}" fill="#8f7754"></path><path d="M222.79837,175.58161l0.32316,-1.39154l3.40927,0.79174l-0.32316,1.39154z" fill="#8f7754"></path><path d="M222.09705,181.90933l-0.29136,-1.39855l3.42643,-0.71384l0.29137,1.39855z" fill="#8f7754"></path><path d="M223.3652,186.16741l-0.26223,-1.25869l3.14672,-0.65557l0.26223,1.25869z" fill="#8f7754"></path><path d="M226.09702,188.57488l0.80125,-2.63961l1.11958,0.48186l-0.80125,2.6396z" fill="#8f7754"></path><path d="M233.67649,188.71029v-2.35715h1.19047v2.35715z" fill="#8f7754"></path><path d="M229.53363,188.71029v-2.35715h1.19047v2.35715z" fill="#8f7754"></path><path d="M241.60506,188.63886v-2.35715h1.19047v2.35715z" fill="#8f7754"></path><path d="M245.31935,188.71029v-2.35715h1.19047v2.35715z" fill="#8f7754"></path><path d="M237.46221,188.63886v-2.35715h1.19048v2.35715z" fill="#8f7754"></path><path d="M253.4622,188.63886v-2.35715h1.19047v2.35715z" fill="#8f7754"></path><path d="M261.10625,186.12668v0.54166h-34.66369v-0.54166z" fill="#b29469"></path><path d="M260.9634,188.48382v0.54166h-34.44941v-0.54166z" fill="#b29469"></path><path d="M260.62887,188.99601v-3h0.5c0,0 1.14286,1.21715 1.14286,1.64151c0,0.5451 -1.14286,1.35849 -1.14286,1.35849zM261.34315,187.55261c0.13807,0 0.25,-0.0887 0.25,-0.19811c0,-0.10941 -0.11193,-0.19811 -0.25,-0.19811c-0.13807,0 -0.25,0.0887 -0.25,0.19811c0,0.10941 0.11193,0.19811 0.25,0.19811z" fill="#64533b"></path><path d="M257.17649,188.71029v-2.35714h1.19048v2.35714z" fill="#8f7754"></path><path d="M249.31935,188.63886v-2.35715h1.19047v2.35715z" fill="#8f7754"></path><path d="M222.98602,189.06622c0,0 -1.28493,-9.36712 -1.28339,-9.41281c0.0916,-2.71096 2.49767,-7.8717 2.49767,-7.8717c0,0 0.72475,-1.07464 1.21095,-1.35165c0.4195,-0.239 1.99034,-0.66783 1.99034,-0.66783c0,0 0.42613,0.26628 0.09993,0.58557c-0.6914,0.67675 -2.54013,1.90912 -3.37574,3.57931c-1.07458,2.14784 -1.35406,5.06783 -1.35406,6.42542c0,1.95037 0.45363,5.0991 1.19428,7.05174c0.3777,0.99579 2.59144,1.15705 2.59144,1.15705c0,0 0.70184,0.33973 0.0675,0.46528c-0.31608,0.06256 -3.63893,0.03961 -3.63893,0.03961z" fill="#b29469"></path><path d="M225.98602,186.56622c0,0 -1.14285,-5.73606 -1.14285,-8.8491c0,-2.67794 1.92856,-5.57827 1.92856,-5.57827l1.14286,0.14286c0,0 -2,2.65947 -2,5.57082c0,1.95037 0.31077,5.0991 1.05142,7.05175c0.3777,0.99579 2.59144,1.15705 2.59144,1.15705c0,0 0.70184,0.33973 0.0675,0.46528c-0.31608,0.06256 -3.63893,0.03961 -3.63893,0.03961z" fill="#b29469"></path><path d="M235.36697,170.32904v2.35715h-1.19047v-2.35715z" data-paper-data="{&quot;index&quot;:null}" fill="#8f7754"></path><path d="M231.22411,170.32904v2.35715h-1.19047v-2.35715z" data-paper-data="{&quot;index&quot;:null}" fill="#8f7754"></path><path d="M243.29554,170.40047v2.35715h-1.19047v-2.35715z" data-paper-data="{&quot;index&quot;:null}" fill="#8f7754"></path><path d="M247.00983,170.32904v2.35715h-1.19047v-2.35715z" data-paper-data="{&quot;index&quot;:null}" fill="#8f7754"></path><path d="M239.1527,170.40047v2.35715h-1.19048v-2.35715z" data-paper-data="{&quot;index&quot;:null}" fill="#8f7754"></path><path d="M255.15268,170.40047v2.35715h-1.19047v-2.35715z" data-paper-data="{&quot;index&quot;:null}" fill="#8f7754"></path><path d="M226.94257,172.91265v-0.54166h34.66369v0.54166z" data-paper-data="{&quot;index&quot;:null}" fill="#b29469"></path><path d="M227.014,170.55551v-0.54166h34.44941v0.54166z" data-paper-data="{&quot;index&quot;:null}" fill="#b29469"></path><path d="M261.62888,170.04332c0,0 1.14286,0.81339 1.14286,1.35849c0,0.42436 -1.14286,1.64151 -1.14286,1.64151h-0.5v-3zM261.59316,171.68483c0,0.10941 0.11193,0.19811 0.25,0.19811c0.13807,0 0.25,-0.0887 0.25,-0.19811c0,-0.10941 -0.11193,-0.19811 -0.25,-0.19811c-0.13807,0 -0.25,0.0887 -0.25,0.19811z" data-paper-data="{&quot;index&quot;:null}" fill="#64533b"></path><path d="M258.86698,170.32904v2.35714h-1.19048v-2.35714z" data-paper-data="{&quot;index&quot;:null}" fill="#8f7754"></path><path d="M251.00982,170.40047v2.35715h-1.19047v-2.35715z" data-paper-data="{&quot;index&quot;:null}" fill="#8f7754"></path></g></g></svg>