<svg version="1.1" xmlns="http://www.w3.org/2000/svg" xmlns:xlink="http://www.w3.org/1999/xlink" width="69.35685" height="74.67622" viewBox="0,0,69.35685,74.67622"><defs><radialGradient cx="264.27237" cy="166.23964" r="33.35854" gradientUnits="userSpaceOnUse" id="color-1"><stop offset="0" stop-color="#ffffff"></stop><stop offset="1" stop-color="#ad4545"></stop></radialGradient></defs><g transform="translate(-207.32663,-145.11136)"><g data-paper-data="{&quot;isPaintingLayer&quot;:true}" fill-rule="nonzero" stroke-linecap="butt" stroke-linejoin="miter" stroke-miterlimit="10" stroke-dasharray="" stroke-dashoffset="0" style="mix-blend-mode: normal"><g><path d="M269.23368,190.83839c-4.39009,19.41688 -21.57709,32.07611 -38.38825,28.27517c-16.81116,-3.80094 -26.88042,-22.62271 -22.49033,-42.03959c4.39009,-19.41688 21.57709,-32.07611 38.38825,-28.27517c16.81116,3.80094 26.88042,22.62271 22.49034,42.0396z" fill-opacity="0.56447" fill="#000000" stroke="none" stroke-width="NaN"></path><g><path d="M273.77744,189.51113c-6.87215,17.09373 -24.93738,25.92791 -40.3497,19.73173c-15.41239,-6.1962 -22.33555,-25.07645 -15.4634,-42.17016c6.87216,-17.0937 24.93734,-25.92791 40.34969,-19.73173c15.41239,6.1962 22.33557,25.07644 15.46341,42.17015z" fill="url(#color-1)" stroke="#000000" stroke-width="0.5"></path><path d="M264.62916,162.64743c-0.86258,2.14558 -3.30118,3.18564 -5.44675,2.32306c-2.14558,-0.86258 -3.18567,-3.30116 -2.32308,-5.44674c0.86258,-2.14558 3.30119,-3.18564 5.44676,-2.32306c2.14558,0.86258 3.18564,3.30118 2.32305,5.44675z" fill="#000000" stroke="none" stroke-width="0"></path><path d="M270.96681,170.90337c-0.86258,2.14558 -3.30117,3.18564 -5.44675,2.32307c-2.14558,-0.86258 -3.18567,-3.30117 -2.32308,-5.44674c0.86258,-2.14558 3.30117,-3.18567 5.44676,-2.32306c2.14558,0.86258 3.18563,3.30118 2.32306,5.44674z" fill="#000000" stroke="none" stroke-width="0"></path><path d="M261.27926,172.7168c-0.86258,2.14558 -3.30117,3.18563 -5.44675,2.32306c-2.14558,-0.86258 -3.18567,-3.30116 -2.32308,-5.44674c0.86258,-2.14558 3.30118,-3.18562 5.44674,-2.32305c2.14558,0.86258 3.18564,3.30117 2.32307,5.44675z" fill="#000000" stroke="none" stroke-width="0"></path></g></g></g></g></svg>