<svg version="1.1" xmlns="http://www.w3.org/2000/svg" xmlns:xlink="http://www.w3.org/1999/xlink" width="63.80643" height="141.66667" viewBox="0,0,63.80643,141.66667"><defs><radialGradient cx="240" cy="180" r="79.77424" gradientUnits="userSpaceOnUse" id="color-1"><stop offset="0" stop-color="#00ffb7" stop-opacity="0.37097"></stop><stop offset="1" stop-color="#00ffb7" stop-opacity="0"></stop></radialGradient><linearGradient x1="242.83696" y1="200.299" x2="242.83696" y2="220.41097" gradientUnits="userSpaceOnUse" id="color-2"><stop offset="0" stop-color="#00ffb5"></stop><stop offset="1" stop-color="#00ffb5" stop-opacity="0"></stop></linearGradient><linearGradient x1="232.90305" y1="181.01655" x2="208.74835" y2="181.85428" gradientUnits="userSpaceOnUse" id="color-3"><stop offset="0" stop-color="#00ffb5"></stop><stop offset="1" stop-color="#00ffb5" stop-opacity="0"></stop></linearGradient><linearGradient x1="247.734" y1="182.13259" x2="271.90322" y2="182.13259" gradientUnits="userSpaceOnUse" id="color-4"><stop offset="0" stop-color="#00ffb5"></stop><stop offset="1" stop-color="#00ffb5" stop-opacity="0"></stop></linearGradient><radialGradient cx="242.01033" cy="184.7822" r="25.78949" gradientUnits="userSpaceOnUse" id="color-5"><stop offset="0" stop-color="#dadada"></stop><stop offset="1" stop-color="#5d5d5d"></stop></radialGradient><radialGradient cx="240.34626" cy="184.7822" r="25.78949" gradientUnits="userSpaceOnUse" id="color-6"><stop offset="0" stop-color="#dadada"></stop><stop offset="1" stop-color="#5d5d5d"></stop></radialGradient><radialGradient cx="237.46602" cy="162.41282" r="8.45133" gradientUnits="userSpaceOnUse" id="color-7"><stop offset="0" stop-color="#505050"></stop><stop offset="1" stop-color="#000000"></stop></radialGradient></defs><g transform="translate(-208.09678,-113.5)"><g data-paper-data="{&quot;isPaintingLayer&quot;:true}" fill-rule="nonzero" stroke-linejoin="miter" stroke-miterlimit="10" stroke-dasharray="" stroke-dashoffset="0" style="mix-blend-mode: normal"><path d="M262.90547,180c0,56.8393 -6.58846,74.91667 -19.2388,74.91667c-12.65034,0 -26.57214,-18.07736 -26.57214,-74.91667c0,-56.8393 11.25513,-66.25 23.90547,-66.25c12.65034,0 21.90547,9.41069 21.90547,66.25z" fill="url(#color-1)" stroke-opacity="0.01613" stroke="#00ff77" stroke-width="0.5" stroke-linecap="butt"></path><path d="M225.61836,245.1866l5.37094,-44.8876h23.69532l3.00141,45.17907z" fill="url(#color-2)" stroke="none" stroke-width="0.5" stroke-linecap="butt"></path><path d="M209.39992,200.64127l-1.30314,-37.57398l28.85533,-15.70069l-5.30383,74.94811z" data-paper-data="{&quot;index&quot;:null}" fill="url(#color-3)" stroke="none" stroke-width="0.5" stroke-linecap="butt"></path><path d="M250.41946,223.36244l-7.89844,-74.71924l29.38219,14.6911v37.59657z" fill="url(#color-4)" stroke="none" stroke-width="0.5" stroke-linecap="butt"></path><g stroke-width="0.5"><g><path d="M250.20887,169.04065l-25.87837,44.61727l-2.56547,-5.21468l24.26097,-41.82869z" fill="url(#color-5)" stroke="none" stroke-linecap="butt"></path><path d="M259.8017,154.10781c0,0 -3.75999,4.87635 -5.14499,7.26424c-1.11849,1.9284 -2.53765,5.98151 -2.53765,5.98151l-5.57716,-3.2348l7.68264,-13.24575c0,0 2.61718,-0.34536 3.59728,0.22311c0.86437,0.50134 1.97988,3.01169 1.97988,3.01169z" fill="#c1832d" stroke="#000000" stroke-linecap="butt"></path><path d="M243.79864,163.22641c0.61412,-1.05881 3.21879,-0.69517 5.81769,0.81221c2.5989,1.50738 4.20789,3.5877 3.59377,4.64651c-0.61412,1.05881 -3.21879,0.69517 -5.81769,-0.81221c-2.5989,-1.50738 -4.20789,-3.5877 -3.59377,-4.64651z" fill="#c1832d" stroke="none" stroke-linecap="butt"></path><path d="M259.20913,154.9287l-5.1275,-3.20691" fill="none" stroke="#906221" stroke-linecap="round"></path><path d="M256.86669,157.7626l-4.9811,-2.65616" fill="none" stroke="#906221" stroke-linecap="round"></path><path d="M249.73487,159.21611l4.80682,2.55507" fill="none" stroke="#906221" stroke-linecap="round"></path><path d="M247.14495,161.67353l5.86996,4.33629" fill="none" stroke="#906221" stroke-linecap="round"></path><path d="M252.54431,169.23064l-9.23717,-5.35763" fill="none" stroke="#906221" stroke-linecap="round"></path></g><g data-paper-data="{&quot;index&quot;:null}"><path d="M236.33058,166.61456l24.26097,41.82869l-2.56547,5.21468l-25.87837,-44.61727z" fill="url(#color-6)" stroke="none" stroke-linecap="butt"></path><path d="M224.53476,151.09613c0.9801,-0.56847 3.59728,-0.22311 3.59728,-0.22311l7.68264,13.24575l-5.57716,3.2348c0,0 -1.41916,-4.05311 -2.53765,-5.98151c-1.385,-2.38789 -5.14499,-7.26424 -5.14499,-7.26424c0,0 1.11551,-2.51035 1.97988,-3.01169z" fill="#c1832d" stroke="#000000" stroke-linecap="butt"></path><path d="M234.96418,167.87292c-2.5989,1.50739 -5.20357,1.87102 -5.81769,0.81221c-0.61412,-1.05881 0.99487,-3.13913 3.59377,-4.64651c2.5989,-1.50739 5.20357,-1.87102 5.81769,-0.81221c0.61412,1.05881 -0.99487,3.13913 -3.59377,4.64651z" fill="#c1832d" stroke="none" stroke-linecap="butt"></path><path d="M223.14746,154.92871l5.1275,-3.20691" fill="none" stroke="#906221" stroke-linecap="round"></path><path d="M230.47099,155.10644l-4.9811,2.65616" fill="none" stroke="#906221" stroke-linecap="round"></path><path d="M232.62171,159.21611l-4.80682,2.55507" fill="none" stroke="#906221" stroke-linecap="round"></path><path d="M229.34168,166.00983l5.86996,-4.33629" fill="none" stroke="#906221" stroke-linecap="round"></path><path d="M239.04944,163.87301l-9.23717,5.35763" fill="none" stroke="#906221" stroke-linecap="round"></path></g></g><g data-paper-data="{&quot;index&quot;:null}" stroke-width="0.5"><g><path d="M256.25402,185.29098c-0.12581,0.03638 -0.47331,-0.24011 -0.47331,-0.24011l-0.61607,-2.13076l0.70818,-0.20476l0.61607,2.13076c0,0 -0.12758,0.41385 -0.23487,0.44487z" fill="#b76000" stroke="none" stroke-linecap="butt"></path><path d="M255.49161,183.5795l0.46591,-0.13471" fill="none" stroke="#994f00" stroke-linecap="round"></path><path d="M256.15868,184.14055l-0.42235,0.14567" fill="none" stroke="#994f00" stroke-linecap="round"></path><path d="M256.19885,185.04777c-0.08076,0.02335 -0.32355,-0.07137 -0.32355,-0.07137l-0.08172,-0.28265l0.48455,-0.1401l0.08172,0.28265c0,0 -0.08024,0.18812 -0.161,0.21147z" fill="#ffd8e6" stroke="#994f00" stroke-linecap="butt"></path></g><g><path d="M255.40992,185.97353c-0.12581,0.03638 -0.48973,-0.29691 -0.48973,-0.29691l-0.71665,-2.47863l0.70818,-0.20476l0.71664,2.47863c0,0 -0.11116,0.47064 -0.21845,0.50166z" fill="#b76000" stroke="none" stroke-linecap="butt"></path><path d="M255.02926,183.83626l-0.46591,0.13471" fill="none" stroke="#994f00" stroke-linecap="round"></path><path d="M255.26327,184.64561l-0.42132,0.14922" fill="none" stroke="#994f00" stroke-linecap="round"></path><path d="M255.34346,185.69128c-0.08076,0.02335 -0.33073,-0.09622 -0.33073,-0.09622l-0.09507,-0.3288l0.48454,-0.1401l0.09507,0.3288c0,0 -0.07305,0.21297 -0.15381,0.23631z" fill="#ffd8e6" stroke="#994f00" stroke-linecap="butt"></path></g><g><path d="M254.61397,186.63304c-0.12581,0.03638 -0.50068,-0.33477 -0.50068,-0.33477l-0.7837,-2.71055l0.70818,-0.20476l0.7837,2.71055c0,0 -0.10021,0.50851 -0.2075,0.53953z" fill="#b76000" stroke="none" stroke-linecap="butt"></path><path d="M253.71129,184.43642l0.46591,-0.13471" fill="none" stroke="#994f00" stroke-linecap="round"></path><path d="M254.4331,185.18679l-0.42064,0.15159" fill="none" stroke="#994f00" stroke-linecap="round"></path><path d="M254.53998,186.32475c-0.08076,0.02335 -0.33552,-0.11279 -0.33552,-0.11279l-0.10396,-0.35956l0.48455,-0.1401l0.10396,0.35956c0,0 -0.06826,0.22953 -0.14902,0.25288z" fill="#ffd8e6" stroke="#994f00" stroke-linecap="butt"></path></g><g><path d="M253.54014,186.33144c-0.12581,0.03638 -0.47878,-0.25904 -0.47878,-0.25904l-0.64959,-2.24671l0.70818,-0.20476l0.64959,2.24671c0,0 -0.12211,0.43278 -0.2294,0.4638z" fill="#b76000" stroke="none" stroke-linecap="butt"></path><path d="M253.21558,184.38822l-0.46591,0.13471" fill="none" stroke="#994f00" stroke-linecap="round"></path><path d="M253.00568,185.2687l0.42201,-0.14686" fill="none" stroke="#994f00" stroke-linecap="round"></path><path d="M253.48119,186.07521c-0.08076,0.02335 -0.32594,-0.07966 -0.32594,-0.07966l-0.08617,-0.29803l0.48454,-0.1401l0.08617,0.29803c0,0 -0.07784,0.1964 -0.1586,0.21975z" fill="#ffd8e6" stroke="#994f00" stroke-linecap="butt"></path></g><g><path d="M252.46265,183.90689l-3.24685,-11.22973l3.49032,-1.00916l3.24685,11.22973z" fill="#b76000" stroke="none" stroke-linecap="butt"></path><path d="M251.47745,172.72668c-0.57817,0.16717 -1.52396,1.83836 -1.52396,1.83836l-1.55761,-5.38723l3.18681,-0.9214l1.55761,5.38724c0,0 -1.2093,-1.04809 -1.66285,-0.91696z" fill="#4a4a4a" stroke="#949494" stroke-linecap="butt"></path><g><path d="M251.45697,185.23506c-0.12415,-0.03018 -0.24272,-0.46377 -0.24272,-0.46377l0.76621,-2.29292l0.69884,0.16989l-0.76621,2.29292c0,0 -0.35025,0.31962 -0.45613,0.29388z" fill="#b76000" stroke="none" stroke-linecap="butt"></path><path d="M252.31418,183.36903l-0.45977,-0.11177" fill="none" stroke="#994f00" stroke-linecap="round"></path><path d="M252.06399,184.11774l-0.4308,-0.07943" fill="none" stroke="#994f00" stroke-linecap="round"></path><path d="M251.55677,184.98104c-0.07969,-0.01937 -0.22113,-0.23084 -0.22113,-0.23084l0.10164,-0.30416l0.47815,0.11624l-0.10164,0.30417c0,0 -0.17733,0.13397 -0.25703,0.1146z" fill="#ffd8e6" stroke="#994f00" stroke-linecap="butt"></path></g></g></g><g stroke-width="0.5"><g><path d="M225.9643,183.58236l0.61607,-2.13076l0.70818,0.20476l-0.61607,2.13076c0,0 -0.3475,0.27649 -0.47331,0.24011c-0.10729,-0.03102 -0.23487,-0.44487 -0.23487,-0.44487z" fill="#b76000" stroke="none" stroke-linecap="butt"></path><path d="M226.96159,182.31574l-0.46591,-0.13471" fill="none" stroke="#994f00" stroke-linecap="round"></path><path d="M226.71687,183.02247l-0.42235,-0.14568" fill="none" stroke="#994f00" stroke-linecap="round"></path><path d="M226.09336,183.57255l0.08172,-0.28265l0.48454,0.1401l-0.08172,0.28265c0,0 -0.24279,0.09472 -0.32355,0.07137c-0.08076,-0.02335 -0.161,-0.21147 -0.161,-0.21147z" fill="#ffd8e6" stroke="#994f00" stroke-linecap="butt"></path></g><g><path d="M226.82483,184.20812l0.71665,-2.47863l0.70818,0.20476l-0.71665,2.47863c0,0 -0.36392,0.33329 -0.48973,0.29691c-0.10729,-0.03102 -0.21845,-0.50166 -0.21845,-0.50166z" fill="#b76000" stroke="none" stroke-linecap="butt"></path><path d="M227.42395,182.57251l0.46591,0.13471" fill="none" stroke="#994f00" stroke-linecap="round"></path><path d="M227.18994,183.38187l0.42132,0.14922" fill="none" stroke="#994f00" stroke-linecap="round"></path><path d="M226.95593,184.19121l0.09507,-0.3288l0.48454,0.1401l-0.09507,0.3288c0,0 -0.24998,0.11957 -0.33073,0.09622c-0.08076,-0.02335 -0.15381,-0.23632 -0.15381,-0.23632z" fill="#ffd8e6" stroke="#994f00" stroke-linecap="butt"></path></g><g><path d="M227.63173,184.82976l0.7837,-2.71055l0.70818,0.20476l-0.7837,2.71055c0,0 -0.37487,0.37115 -0.50068,0.33477c-0.10729,-0.03102 -0.2075,-0.53953 -0.2075,-0.53953z" fill="#b76000" stroke="none" stroke-linecap="butt"></path><path d="M228.74191,183.17267l-0.46591,-0.13471" fill="none" stroke="#994f00" stroke-linecap="round"></path><path d="M228.0201,183.92304l0.42064,0.15159" fill="none" stroke="#994f00" stroke-linecap="round"></path><path d="M227.7642,184.80812l0.10396,-0.35956l0.48454,0.1401l-0.10396,0.35956c0,0 -0.25477,0.13613 -0.33552,0.11279c-0.08076,-0.02335 -0.14902,-0.25288 -0.14902,-0.25288z" fill="#ffd8e6" stroke="#994f00" stroke-linecap="butt"></path></g><g><path d="M228.68366,184.60388l0.64959,-2.24671l0.70818,0.20476l-0.64959,2.24671c0,0 -0.35297,0.29542 -0.47878,0.25904c-0.10729,-0.03102 -0.2294,-0.4638 -0.2294,-0.4638z" fill="#b76000" stroke="none" stroke-linecap="butt"></path><path d="M229.70354,183.25917l-0.46591,-0.13471" fill="none" stroke="#994f00" stroke-linecap="round"></path><path d="M229.02551,183.85809l0.42201,0.14685" fill="none" stroke="#994f00" stroke-linecap="round"></path><path d="M228.8134,184.59171l0.08617,-0.29803l0.48454,0.1401l-0.08617,0.29803c0,0 -0.24519,0.10301 -0.32594,0.07966c-0.08076,-0.02335 -0.1586,-0.21975 -0.1586,-0.21975z" fill="#ffd8e6" stroke="#994f00" stroke-linecap="butt"></path></g><g><path d="M226.50023,181.63398l3.24685,-11.22973l3.49032,1.00916l-3.24685,11.22973z" fill="#b76000" stroke="none" stroke-linecap="butt"></path><path d="M229.3129,172.37988l1.55761,-5.38723l3.18681,0.9214l-1.55761,5.38723c0,0 -0.9458,-1.67119 -1.52397,-1.83836c-0.45355,-0.13114 -1.66285,0.91695 -1.66285,0.91695z" fill="#4a4a4a" stroke="#949494" stroke-linecap="butt"></path><g><path d="M230.5401,183.67743l-0.76621,-2.29292l0.69884,-0.16989l0.76621,2.29292c0,0 -0.11857,0.43359 -0.24272,0.46377c-0.10588,0.02574 -0.45613,-0.29388 -0.45613,-0.29388z" fill="#b76000" stroke="none" stroke-linecap="butt"></path><path d="M230.13902,182.10527l0.45977,-0.11177" fill="none" stroke="#994f00" stroke-linecap="round"></path><path d="M230.38921,182.85398l0.4308,-0.07943" fill="none" stroke="#994f00" stroke-linecap="round"></path><path d="M230.6394,183.60269l-0.10164,-0.30416l0.47816,-0.11624l0.10164,0.30416c0,0 -0.14144,0.21147 -0.22113,0.23084c-0.07969,0.01937 -0.25702,-0.1146 -0.25702,-0.1146z" fill="#ffd8e6" stroke="#994f00" stroke-linecap="butt"></path></g></g></g><path d="M251.60423,166.8886c0,1.81031 -1.39981,3.27785 -3.12657,3.27785c-1.72675,0 -3.12657,-1.46755 -3.12657,-3.27785c0,-1.81031 1.39981,-3.27785 3.12657,-3.27785c1.72675,0 3.12657,1.46754 3.12657,3.27785z" fill="#000000" stroke="#949494" stroke-width="0.5" stroke-linecap="butt"></path><path d="M237.22907,166.57266c0,1.81031 -1.39981,3.27785 -3.12657,3.27785c-1.72675,0 -3.12657,-1.46755 -3.12657,-3.27785c0,-1.81031 1.39981,-3.27785 3.12657,-3.27785c1.72675,0 3.12657,1.46754 3.12657,3.27785z" fill="#000000" stroke="#949494" stroke-width="0.5" stroke-linecap="butt"></path><path d="M233.55871,195.83384c0,-8.18838 0,-22.32155 0,-26.99226c0,-2.95194 0.48659,-6.3727 1.02697,-6.3727c1.66292,0 10.31867,0 13.35522,0c0.65965,0 1.05412,2.3723 1.05412,5.87893c0,8.26288 0,22.824 0,27.48602c0,2.82619 -0.40534,6.04352 -1.08127,6.04352c-3.05341,0 -11.62843,0 -13.30094,0c-0.55303,0 -1.05412,-2.44896 -1.05412,-6.04352z" fill="#000000" stroke="#fff7d9" stroke-width="0.5" stroke-linecap="butt"></path><path d="M248.2079,163.72922c0,2.18109 -3.06475,3.94922 -6.84532,3.94922c-3.78056,0 -6.84532,-1.76813 -6.84532,-3.94922c0,-2.18109 3.06475,-3.94922 6.84532,-3.94922c3.78056,0 6.84532,1.76813 6.84532,3.94922z" fill="#858585" stroke="#fff7d9" stroke-width="0.5" stroke-linecap="butt"></path><path d="M249.78759,158.35829c0,4.66754 -3.60698,8.45133 -8.05641,8.45133c-4.44943,0 -8.05641,-3.78379 -8.05641,-8.45133c0,-4.66754 3.60698,-8.45133 8.05641,-8.45133c4.44943,0 8.05641,3.78379 8.05641,8.45133z" fill="url(#color-7)" stroke="none" stroke-width="0.5" stroke-linecap="butt"></path><path d="M238.0979,155.98875c0,0 -1.05312,-0.82645 -1.05312,-1.26375c0,-0.40226 1.05312,-1.26375 1.05312,-1.26375h7.68781c0,0 0.8425,1.05312 0.8425,1.47438c0,0.42125 -0.8425,1.05312 -0.8425,1.05312z" fill="#b76000" stroke="none" stroke-width="0.5" stroke-linecap="butt"></path><path d="M239.36165,154.61969c0,-0.17449 0.14145,-0.31594 0.31594,-0.31594c0.17449,0 0.31594,0.14145 0.31594,0.31594c0,0.17449 -0.14145,0.31594 -0.31594,0.31594c-0.17449,0 -0.31594,-0.14145 -0.31594,-0.31594z" fill="#000000" stroke="none" stroke-width="0.5" stroke-linecap="butt"></path><path d="M243.78478,154.725c0,-0.17449 0.14145,-0.31594 0.31594,-0.31594c0.17449,0 0.31594,0.14145 0.31594,0.31594c0,0.17449 -0.14145,0.31594 -0.31594,0.31594c-0.17449,0 -0.31594,-0.14145 -0.31594,-0.31594z" fill="#000000" stroke="none" stroke-width="0.5" stroke-linecap="butt"></path><path d="M239.86715,166.09876l-0.06319,-1.13738" fill="none" stroke="#8a8a8a" stroke-width="0.5" stroke-linecap="round"></path><path d="M241.19408,165.08775v1.011" fill="none" stroke="#8a8a8a" stroke-width="0.5" stroke-linecap="round"></path><path d="M242.6474,165.08775l0.12638,0.94781" fill="none" stroke="#8a8a8a" stroke-width="0.5" stroke-linecap="round"></path><g stroke-width="0.5"><path d="M235.39882,152.35163l-0.43449,-1.92621l9.86223,-2.22456l0.43448,1.92621z" fill="#cccccc" stroke="none" stroke-linecap="butt"></path><path d="M235.86632,150.11671l0.53436,2.08182" fill="none" stroke="#000000" stroke-linecap="round"></path><path d="M238.56454,149.44331l0.39718,2.04799" fill="none" stroke="#000000" stroke-linecap="round"></path><path d="M241.3939,149.0642l0.50655,1.95854" fill="none" stroke="#000000" stroke-linecap="round"></path><path d="M243.46181,148.46821l0.66366,1.79355" fill="none" stroke="#000000" stroke-linecap="round"></path><path d="M235.03119,150.43463l-0.23636,-1.04786c0,0 2.23754,-3.03093 3.58757,-3.33545c1.7638,-0.39785 6.08974,1.1526 6.08974,1.1526l0.23636,1.04786z" fill="#616161" stroke="#000000" stroke-linecap="butt"></path></g><path d="M236.74906,164.49185c0.18271,0.45312 0.16028,0.88921 -0.0501,0.97404c-0.21038,0.08483 -0.52903,-0.21373 -0.71174,-0.66684c-0.18271,-0.45312 -0.16028,-0.8892 0.0501,-0.97403c0.21038,-0.08483 0.52903,0.21373 0.71174,0.66684z" fill="none" stroke="#ffd200" stroke-width="0.5" stroke-linecap="butt"></path><path d="M237.14398,165.47914c0.18271,0.45311 0.16028,0.88921 -0.0501,0.97404c-0.21038,0.08483 -0.52903,-0.21373 -0.71174,-0.66684c-0.18271,-0.45311 -0.16028,-0.8892 0.0501,-0.97403c0.21038,-0.08483 0.52903,0.21373 0.71174,0.66684z" fill="none" stroke="#ffd200" stroke-width="0.5" stroke-linecap="butt"></path><path d="M237.5784,166.58493c0.18271,0.45311 0.16028,0.88921 -0.0501,0.97404c-0.21038,0.08483 -0.52903,-0.21373 -0.71174,-0.66684c-0.18271,-0.45311 -0.16028,-0.8892 0.0501,-0.97403c0.21038,-0.08483 0.52903,0.21373 0.71174,0.66684z" fill="none" stroke="#ffd200" stroke-width="0.5" stroke-linecap="butt"></path><path d="M238.13129,167.65122c0.18271,0.45311 0.16028,0.88921 -0.0501,0.97404c-0.21038,0.08483 -0.52903,-0.21373 -0.71174,-0.66684c-0.18271,-0.45311 -0.16028,-0.8892 0.0501,-0.97403c0.21038,-0.08483 0.52903,0.21373 0.71174,0.66684z" fill="none" stroke="#ffd200" stroke-width="0.5" stroke-linecap="butt"></path><path d="M238.48672,168.67802c0.18271,0.45311 0.16028,0.88921 -0.0501,0.97404c-0.21038,0.08483 -0.52903,-0.21373 -0.71174,-0.66684c-0.18271,-0.45311 -0.16028,-0.8892 0.0501,-0.97403c0.21038,-0.08483 0.52903,0.21373 0.71174,0.66684z" fill="none" stroke="#ffd200" stroke-width="0.5" stroke-linecap="butt"></path><path d="M247.28287,164.14094c0.21038,0.08483 0.2328,0.52092 0.0501,0.97403c-0.18271,0.45312 -0.50136,0.75167 -0.71174,0.66684c-0.21038,-0.08483 -0.2328,-0.52092 -0.0501,-0.97404c0.18271,-0.45312 0.50136,-0.75167 0.71174,-0.66684z" data-paper-data="{&quot;index&quot;:null}" fill="none" stroke="#ffd200" stroke-width="0.5" stroke-linecap="butt"></path><path d="M246.65099,165.20723c0.21038,0.08483 0.2328,0.52092 0.0501,0.97403c-0.18271,0.45311 -0.50136,0.75167 -0.71174,0.66684c-0.21038,-0.08483 -0.2328,-0.52092 -0.0501,-0.97404c0.18271,-0.45311 0.50136,-0.75167 0.71174,-0.66684z" data-paper-data="{&quot;index&quot;:null}" fill="none" stroke="#ffd200" stroke-width="0.5" stroke-linecap="butt"></path><path d="M246.21658,166.31302c0.21038,0.08483 0.2328,0.52092 0.0501,0.97403c-0.18271,0.45311 -0.50136,0.75167 -0.71174,0.66684c-0.21038,-0.08483 -0.2328,-0.52092 -0.0501,-0.97404c0.18271,-0.45311 0.50136,-0.75167 0.71174,-0.66684z" data-paper-data="{&quot;index&quot;:null}" fill="none" stroke="#ffd200" stroke-width="0.5" stroke-linecap="butt"></path><path d="M245.66369,167.3793c0.21038,0.08483 0.2328,0.52092 0.0501,0.97403c-0.18271,0.45311 -0.50136,0.75167 -0.71174,0.66684c-0.21038,-0.08483 -0.2328,-0.52092 -0.0501,-0.97404c0.18271,-0.45311 0.50136,-0.75167 0.71174,-0.66684z" data-paper-data="{&quot;index&quot;:null}" fill="none" stroke="#ffd200" stroke-width="0.5" stroke-linecap="butt"></path><path d="M245.30826,168.44559c0.21038,0.08483 0.2328,0.52092 0.0501,0.97403c-0.18271,0.45311 -0.50136,0.75167 -0.71174,0.66684c-0.21038,-0.08483 -0.2328,-0.52092 -0.0501,-0.97404c0.18271,-0.45311 0.50136,-0.75167 0.71174,-0.66684z" data-paper-data="{&quot;index&quot;:null}" fill="none" stroke="#ffd200" stroke-width="0.5" stroke-linecap="butt"></path><text transform="translate(237.77011,170.42194) scale(0.04824,0.04824)" font-size="40" xml:space="preserve" fill="#ffffff" fill-rule="nonzero" stroke="#ffd200" stroke-width="1" stroke-linecap="butt" stroke-linejoin="miter" stroke-miterlimit="10" stroke-dasharray="" stroke-dashoffset="0" font-family="Sans Serif" font-weight="normal" text-anchor="start" style="mix-blend-mode: normal"><tspan x="0" dy="0">HITMAN</tspan></text><path d="M233.91173,198.91677v-2.36953h14.61211v2.36953z" fill="#906800" stroke="none" stroke-width="0.5" stroke-linecap="butt"></path><path d="M239.67759,198.83779v-2.29055h2.44852v2.29055z" fill="none" stroke="#949494" stroke-width="0.5" stroke-linecap="butt"></path><path d="M248.99775,190.78138l-15.00704,-17.6925" fill="none" stroke="#949494" stroke-width="0.5" stroke-linecap="round"></path><path d="M231.23064,218.89128l2.72366,-19.2915l4.06686,0.57418l-2.72366,19.2915z" fill="#4163a2" stroke="none" stroke-width="0.5" stroke-linecap="butt"></path><path d="M236.23362,209.06829c-0.08944,0.63351 -0.90894,1.0416 -1.8304,0.9115c-0.92146,-0.1301 -1.59595,-0.74912 -1.50651,-1.38262c0.08944,-0.63351 0.90894,-1.0416 1.8304,-0.9115c0.92146,0.1301 1.59595,0.74912 1.50651,1.38262z" fill="#2e4572" stroke="none" stroke-width="0.5" stroke-linecap="butt"></path><path d="M245.71261,220.44314l-4.18123,-19.02886l4.01149,-0.88145l4.18123,19.02886z" fill="#4163a2" stroke="none" stroke-width="0.5" stroke-linecap="butt"></path><path d="M246.97229,209.49169c0.13731,0.62488 -0.48821,1.29335 -1.39712,1.49306c-0.90892,0.19972 -1.75705,-0.14495 -1.89435,-0.76983c-0.13731,-0.62488 0.48821,-1.29335 1.39713,-1.49307c0.90892,-0.19972 1.75705,0.14495 1.89435,0.76983z" fill="#2e4572" stroke="none" stroke-width="0.5" stroke-linecap="butt"></path><g stroke-width="0.5"><path d="M235.75825,222.01842c0.06151,0.72443 -1.76786,1.47125 -4.08602,1.66809c-2.31816,0.19684 -4.24726,-0.23086 -4.30877,-0.95529c-0.06151,-0.72443 1.76786,-1.47125 4.08602,-1.66809c2.31816,-0.19684 4.24726,0.23086 4.30877,0.95529z" fill="#6b4d2b" stroke="none" stroke-linecap="butt"></path><path d="M227.49066,222.98465l-0.37422,-4.40727c0,0 1.7889,0.77056 3.20321,0.10821c1.34032,-0.6277 2.28874,-2.68836 3.01962,-2.75042c0.81597,-0.06929 2.06703,1.93832 2.06703,1.93832l0.37422,4.40727z" fill="#98793d" stroke="none" stroke-linecap="butt"></path><path d="M233.20267,218.0606l0.99787,0.54942" fill="none" stroke="#000000" stroke-linecap="round"></path><path d="M234.53119,217.52503l-1.14736,-1.06518" fill="none" stroke="#000000" stroke-linecap="round"></path></g><g data-paper-data="{&quot;index&quot;:null}" stroke-width="0.5"><path d="M248.91848,220.85082c2.32395,0.10878 4.18034,0.78569 4.14634,1.51193c-0.03399,0.72624 -1.94549,1.22679 -4.26944,1.11801c-2.32395,-0.10878 -4.18034,-0.78569 -4.14634,-1.51193c0.03399,-0.72624 1.94549,-1.22679 4.26944,-1.11801z" fill="#6b4d2b" stroke="none" stroke-linecap="butt"></path><path d="M244.63672,222.23183l0.20681,-4.41829c0,0 1.17402,-2.0536 1.99203,-2.01532c0.73272,0.0343 1.75859,2.05751 3.12176,2.63392c1.43841,0.60823 3.1968,-0.22961 3.1968,-0.22961l-0.20681,4.41829z" fill="#98793d" stroke="none" stroke-linecap="butt"></path><path d="M246.07636,218.50381l0.97632,-0.58687" fill="none" stroke="#000000" stroke-linecap="round"></path><path d="M246.81095,216.32421l-1.10614,1.10793" fill="none" stroke="#000000" stroke-linecap="round"></path></g></g></g></svg>