<svg version="1.1" xmlns="http://www.w3.org/2000/svg" xmlns:xlink="http://www.w3.org/1999/xlink" width="456.36285" height="336.46794" viewBox="0,0,456.36285,336.46794"><defs><linearGradient x1="85.97155" y1="174.84435" x2="76.03851" y2="173.3457" gradientUnits="userSpaceOnUse" id="color-1"><stop offset="0" stop-color="#f6ff1c" stop-opacity="0"></stop><stop offset="1" stop-color="#f6ff1c"></stop></linearGradient><linearGradient x1="66.81216" y1="172.47048" x2="76.68785" y2="173.57561" gradientUnits="userSpaceOnUse" id="color-2"><stop offset="0" stop-color="#f6ff1c" stop-opacity="0"></stop><stop offset="1" stop-color="#f6ff1c"></stop></linearGradient><linearGradient x1="76.55644" y1="167.38291" x2="76.55644" y2="186.92183" gradientUnits="userSpaceOnUse" id="color-3"><stop offset="0" stop-color="#b16150"></stop><stop offset="1" stop-color="#5c3328"></stop></linearGradient><linearGradient x1="71.08809" y1="174.31783" x2="78.81549" y2="174.31783" gradientUnits="userSpaceOnUse" id="color-4"><stop offset="0" stop-color="#cda89a"></stop><stop offset="1" stop-color="#fefcd7"></stop></linearGradient><linearGradient x1="74.3587" y1="167.20244" x2="82.40363" y2="167.20244" gradientUnits="userSpaceOnUse" id="color-5"><stop offset="0" stop-color="#ab5e4d"></stop><stop offset="1" stop-color="#4f2d24"></stop></linearGradient><linearGradient x1="72.72853" y1="164.40706" x2="85.30437" y2="164.40706" gradientUnits="userSpaceOnUse" id="color-6"><stop offset="0" stop-color="#fdf3d5"></stop><stop offset="1" stop-color="#e5a586"></stop></linearGradient></defs><g transform="translate(-11.81861,-11.76603)"><g data-paper-data="{&quot;isPaintingLayer&quot;:true}" stroke-dasharray="" stroke-dashoffset="0" style="mix-blend-mode: normal"><path d="M12.81877,295.94146c0,-69.49646 0,-189.44767 0,-229.08899c0,-25.05376 14.32257,-54.08644 30.22864,-54.08644c48.94749,0 303.72644,0 393.10634,0c19.4165,0 31.02771,20.13421 31.02771,49.8957c0,70.12879 0,193.71206 0,233.27962c0,23.98648 -11.93116,51.29262 -31.82675,51.29262c-89.87607,0 -342.27869,0 -391.50839,0c-16.2782,0 -31.02771,-20.78487 -31.02771,-51.29262z" fill-opacity="0.62097" fill="#291800" fill-rule="nonzero" stroke="#d84646" stroke-width="2" stroke-linecap="butt" stroke-linejoin="miter" stroke-miterlimit="10"></path><text transform="translate(130.62097,70.01835) scale(1.18649,1.18649)" font-size="40" xml:space="preserve" fill="#fff4ce" fill-rule="nonzero" stroke="none" stroke-width="1" stroke-linecap="butt" stroke-linejoin="miter" stroke-miterlimit="10" stroke-dasharray="" stroke-dashoffset="0" font-family="Impact" font-weight="normal" text-anchor="start" style="mix-blend-mode: normal"><tspan x="0" dy="0">Admin Panel</tspan></text><path d="M13.66701,98.1767v-23.33333h222.57143c0,0 18.09524,8.29178 18.09524,12c0,4.04094 -18.09524,11.33333 -18.09524,11.33333z" fill-opacity="0.48419" fill="#290000" fill-rule="nonzero" stroke="none" stroke-width="0" stroke-linecap="butt" stroke-linejoin="miter" stroke-miterlimit="10"></path><text transform="translate(17.12095,94.86573) scale(0.61281,0.61281)" font-size="40" xml:space="preserve" fill="#fff4ce" fill-rule="nonzero" stroke="none" stroke-width="1" stroke-linecap="butt" stroke-linejoin="miter" stroke-miterlimit="10" stroke-dasharray="" stroke-dashoffset="0" font-family="Impact" font-weight="normal" text-anchor="start" style="mix-blend-mode: normal"><tspan x="0" dy="0">Quick Action</tspan></text><path d="M14.66701,161.1767v-23.33333h222.57143c0,0 18.09524,8.29178 18.09524,12c0,4.04094 -18.09524,11.33333 -18.09524,11.33333z" fill-opacity="0.48419" fill="#290000" fill-rule="nonzero" stroke="none" stroke-width="0" stroke-linecap="butt" stroke-linejoin="miter" stroke-miterlimit="10"></path><text transform="translate(14.12097,156.36573) scale(0.61281,0.61281)" font-size="40" xml:space="preserve" fill="#fff4ce" fill-rule="nonzero" stroke="none" stroke-width="1" stroke-linecap="butt" stroke-linejoin="miter" stroke-miterlimit="10" stroke-dasharray="" stroke-dashoffset="0" font-family="Impact" font-weight="normal" text-anchor="start" style="mix-blend-mode: normal"><tspan x="0" dy="0">Statistics</tspan></text><path d="M12.66701,261.1767v-23.33333h222.57143c0,0 18.09524,8.29178 18.09524,12c0,4.04094 -18.09524,11.33333 -18.09524,11.33333z" fill-opacity="0.48419" fill="#290000" fill-rule="nonzero" stroke="none" stroke-width="0" stroke-linecap="butt" stroke-linejoin="miter" stroke-miterlimit="10"></path><text transform="translate(14.12096,255.86573) scale(0.61281,0.61281)" font-size="40" xml:space="preserve" fill="#fff4ce" fill-rule="nonzero" stroke="none" stroke-width="1" stroke-linecap="butt" stroke-linejoin="miter" stroke-miterlimit="10" stroke-dasharray="" stroke-dashoffset="0" font-family="Impact" font-weight="normal" text-anchor="start" style="mix-blend-mode: normal"><tspan x="0" dy="0">Modify</tspan></text><text transform="translate(159.66549,210.40739) scale(0.20887,0.20887)" font-size="40" xml:space="preserve" fill="#000000" fill-rule="nonzero" stroke="none" stroke-width="1" stroke-linecap="butt" stroke-linejoin="miter" stroke-miterlimit="10" stroke-dasharray="" stroke-dashoffset="0" font-family="Sans Serif" font-weight="normal" text-anchor="start" style="mix-blend-mode: normal"><tspan x="0" dy="0">xAmt8</tspan></text><text transform="translate(409.52834,28.90774) scale(0.2662,0.2662)" font-size="40" xml:space="preserve" fill="#ff7a7a" fill-rule="nonzero" stroke="none" stroke-width="1" stroke-linecap="butt" stroke-linejoin="miter" stroke-miterlimit="10" stroke-dasharray="" stroke-dashoffset="0" font-family="Sans Serif" font-weight="normal" text-anchor="start" style="mix-blend-mode: normal"><tspan x="0" dy="0">xAmt8</tspan></text><g fill-rule="nonzero" stroke-width="0" stroke-linejoin="miter" stroke-miterlimit="10"><path d="M71.92391,185.97846l8.22921,-25.26552l9.93304,1.49865l-8.22921,25.26552z" data-paper-data="{&quot;index&quot;:null}" fill="url(#color-1)" stroke="none" stroke-linecap="butt"></path><path d="M63.7299,184.8404l6.16451,-24.73983l9.87569,1.10514l-6.16451,24.73983z" fill="url(#color-2)" stroke="none" stroke-linecap="butt"></path><g stroke="#ffc500"><text transform="translate(76.14803,185.07986) rotate(13.61406) scale(0.03456,0.03456)" font-size="40" xml:space="preserve" fill="#a45a4a" fill-rule="nonzero" stroke="#ffc500" stroke-width="0" stroke-linecap="butt" stroke-linejoin="miter" stroke-miterlimit="10" stroke-dasharray="" stroke-dashoffset="0" font-family="Handwriting" font-weight="normal" text-anchor="start" style="mix-blend-mode: normal"><tspan x="0" dy="0">xAmt8</tspan></text><path d="M70.00053,182.40415c0.63338,-3.71705 1.72659,-10.13269 2.08787,-12.25293c0.22833,-1.34001 0.83885,-2.83282 1.22303,-2.76616c1.1822,0.20513 7.33574,1.27285 9.49448,1.64742c0.46895,0.08137 0.5659,1.20692 0.29466,2.79873c-0.63914,3.75087 -1.76546,10.36077 -2.12606,12.47706c-0.21861,1.28293 -0.75564,2.6934 -1.23617,2.61003c-2.17072,-0.37665 -8.26687,-1.43441 -9.45588,-1.64072c-0.39316,-0.06822 -0.55996,-1.24172 -0.28193,-2.87344z" fill="url(#color-3)" stroke-linecap="butt"></path><path d="M71.10698,175.57539c0.17916,-1.04923 0.48839,-2.8602 0.59059,-3.45869c0.0646,-0.37825 0.36279,-0.78543 0.61083,-0.75085c0.7633,0.10643 4.73639,0.6604 6.13021,0.85475c0.30278,0.04222 0.43195,0.37145 0.35523,0.82077c-0.18079,1.05878 -0.49938,2.92458 -0.60139,3.52196c-0.06183,0.36213 -0.31828,0.74845 -0.62855,0.70519c-1.40156,-0.19542 -5.33759,-0.74423 -6.1053,-0.85127c-0.25384,-0.03539 -0.43027,-0.38127 -0.35162,-0.84186z" fill="url(#color-4)" stroke-linecap="butt"></path><path d="M77.48966,176.54729c0.19656,-1.04611 0.53583,-2.8517 0.64795,-3.4484c0.07086,-0.37712 0.22562,-0.80729 0.30628,-0.79968c0.24823,0.02341 1.5403,0.14531 1.99358,0.18807c0.09847,0.00929 0.10041,0.31792 0.01623,0.76591c-0.19835,1.05563 -0.5479,2.91589 -0.65981,3.51148c-0.06784,0.36106 -0.20559,0.76639 -0.30647,0.75687c-0.4558,-0.04299 -1.73582,-0.16375 -1.98548,-0.1873c-0.08255,-0.00779 -0.09857,-0.32771 -0.01228,-0.78693z" fill="#d5977b" stroke-linecap="butt"></path><path d="M72.06676,185.4323l3.54782,-17.85734" fill="none" stroke-linecap="round"></path><path d="M74.3587,167.7204l0.32458,-2.18353l7.72037,1.14762l-0.32458,2.18353z" fill="url(#color-5)" stroke-linecap="butt"></path><path d="M74.27606,165.81986l0.10873,-0.74902l8.56687,1.24358l-0.10873,0.74902c0,0 -0.17061,-0.30453 -0.73774,-0.41108c-1.86649,-0.35064 -6.16769,-0.88201 -7.08882,-1.01572c-0.35631,-0.05173 -0.74033,0.18323 -0.74033,0.18323z" fill="#ab5e4d" stroke-linecap="butt"></path><path d="M79.11055,168.29045l-3.16938,17.69177" fill="none" stroke-linecap="round"></path><path d="M78.77942,165.73601l-0.33113,2.64904" fill="none" stroke-linecap="round"></path><path d="M72.72853,165.29014l0.42234,-2.9469c0,0 1.12071,-0.85857 1.51671,-0.7984c0.51438,0.07816 1.77571,0.21275 3.24229,0.38193c2.21543,0.25559 4.8992,0.59012 6.18395,0.92834c0.42538,0.11198 1.21055,1.33467 1.21055,1.33467l-0.48545,3.08252c0,0 -0.28196,-0.58432 -0.76398,-0.69137c-2.28058,-0.50651 -8.93607,-1.45659 -10.25779,-1.67328c-0.43392,-0.07114 -1.06862,0.3825 -1.06862,0.3825z" fill="url(#color-6)" stroke-linecap="butt"></path></g></g><g fill-rule="nonzero" stroke-linecap="butt" stroke-linejoin="miter" stroke-miterlimit="10"><path d="M227.48606,171.23612c0,4.71585 -4.20526,8.53883 -9.3927,8.53883c-5.18745,0 -9.3927,-3.82296 -9.3927,-8.53883c0,-4.71585 4.20526,-8.53883 9.3927,-8.53883c5.18745,0 9.3927,3.82295 9.3927,8.53883z" fill="#fff4ce" stroke="#e6ddbb" stroke-width="2.5"></path><path d="M221.90412,169.53501c0,2.92976 -2.61253,5.30478 -5.83525,5.30478c-3.22272,0 -5.83525,-2.37503 -5.83525,-5.30478c0,-2.92976 2.61253,-5.30478 5.83525,-5.30478c3.22272,0 5.83525,2.37503 5.83525,5.30478z" fill="#e6ddbb" stroke="#e6ddbb" stroke-width="0"></path><path d="M222.88266,186.38992l-4.05825,-5.93128l5.93128,-4.05825l4.05825,5.93128z" fill="#e6ddbb" stroke="none" stroke-width="0"></path><path d="M229.45261,179.10039c3.76514,1.53251 0.58422,4.19604 -0.89401,5.41043c-2.3067,1.895 -4.96163,2.28706 -7.61412,1.83435v0.24358h-1.43735v0c-0.6853,0 -1.24086,-0.55556 -1.24086,-1.24086c0,-0.49536 0.29026,-0.92292 0.70997,-1.1219l1.41331,-0.70665l0.02278,0.04557l0.10164,-0.09948c0.13123,-0.03344 0.26244,-0.0669 0.39367,-0.10034c0.09848,-0.20093 0.2497,-0.37134 0.4356,-0.49315c0.1733,-0.26445 0.44487,-0.4587 0.76285,-0.53084l1.34965,-0.33741c0.82888,-0.34732 5.38309,-3.15314 5.9969,-2.90328z" fill="#fff4ce" stroke="none" stroke-width="0.5"></path></g><path d="M354.18614,167.33343c0,-3.57128 2.89961,-6.47089 6.47089,-6.47089c3.25939,0 5.95904,2.41494 6.40586,5.55106c0.44681,-3.13611 3.14647,-5.55106 6.40586,-5.55106c3.57129,0 6.47089,2.89961 6.47089,6.47089v0.00066c0,3.37295 -1.33979,6.60807 -3.72496,8.99292l-9.15179,9.15177l-9.15177,-9.15177c-2.38517,-2.38484 -3.72496,-5.61996 -3.72496,-8.99292z" fill="#09b522" fill-rule="evenodd" stroke="#00b012" stroke-width="2" stroke-linecap="butt" stroke-linejoin="round" stroke-miterlimit="2"></path></g></g></svg>