<svg version="1.1" xmlns="http://www.w3.org/2000/svg" xmlns:xlink="http://www.w3.org/1999/xlink" width="22.32403" height="22.97959" viewBox="0,0,22.32403,22.97959"><defs><linearGradient x1="233.32792" y1="168.2742" x2="237.07762" y2="168.22691" gradientUnits="userSpaceOnUse" id="color-1"><stop offset="0" stop-color="#6c6c6c"></stop><stop offset="1" stop-color="#2c2c2c"></stop></linearGradient><linearGradient x1="237.88361" y1="168.56217" x2="236.15539" y2="170.70127" gradientUnits="userSpaceOnUse" id="color-2"><stop offset="0" stop-color="#a3a3a3"></stop><stop offset="1" stop-color="#6e6e6e"></stop></linearGradient><radialGradient cx="235.32964" cy="171.85813" r="2.175" gradientUnits="userSpaceOnUse" id="color-3"><stop offset="0" stop-color="#c6c6c6"></stop><stop offset="1" stop-color="#939393"></stop></radialGradient><linearGradient x1="236.31678" y1="172.74912" x2="238.44043" y2="184.8226" gradientUnits="userSpaceOnUse" id="color-4"><stop offset="0" stop-color="#979797"></stop><stop offset="1" stop-color="#1a1a1a"></stop></linearGradient><radialGradient cx="237.22027" cy="183.96746" r="0.80357" gradientUnits="userSpaceOnUse" id="color-5"><stop offset="0" stop-color="#6c6c6c"></stop><stop offset="1" stop-color="#787878"></stop></radialGradient><radialGradient cx="238.71553" cy="183.08799" r="0.53571" gradientUnits="userSpaceOnUse" id="color-6"><stop offset="0" stop-color="#a3a3a3"></stop><stop offset="1" stop-color="#a8a8a8"></stop></radialGradient><linearGradient x1="237.99009" y1="182.07675" x2="238.48381" y2="184.88366" gradientUnits="userSpaceOnUse" id="color-7"><stop offset="0" stop-color="#c18b4d"></stop><stop offset="1" stop-color="#ad7145"></stop></linearGradient><linearGradient x1="237.58066" y1="181.33648" x2="237.75389" y2="182.32136" gradientUnits="userSpaceOnUse" id="color-8"><stop offset="0" stop-color="#c18b4d"></stop><stop offset="1" stop-color="#ad7145"></stop></linearGradient><linearGradient x1="239.03063" y1="180.77683" x2="239.32513" y2="182.45113" gradientUnits="userSpaceOnUse" id="color-9"><stop offset="0" stop-color="#c18b4d"></stop><stop offset="1" stop-color="#ad7145"></stop></linearGradient></defs><g transform="translate(-232.66114,-162.76662)"><g data-paper-data="{&quot;isPaintingLayer&quot;:true}" fill-rule="nonzero" stroke-width="0" stroke-linecap="butt" stroke-linejoin="miter" stroke-miterlimit="10" stroke-dasharray="" stroke-dashoffset="0" style="mix-blend-mode: normal"><path d="M251.73397,184.03652l-1.21264,-8.87353l0.40854,-0.09249l1.21264,8.87353z" fill="#c5764f" stroke="none"></path><path d="M240.6356,183.86284l0.72896,-1.44156l4.76623,2.21053l-0.6226,1.1144z" fill="#9b7f4e" stroke="none"></path><path d="M239.72487,183.91441c0,0 2.1861,-6.66381 3.40668,-9.48543c1.05896,-2.44799 4.69497,-5.91211 4.69497,-5.91211l4.62444,-2.07089c0,0 -7.41372,6.3653 -8.60915,9.10927c-1.22253,2.80617 -2.91158,8.60795 -2.91158,8.60795z" fill="#78623c" stroke="none"></path><path d="M235.33617,174.35792c0.7434,1.43421 0.89888,2.82866 0.34727,3.11459c-0.55162,0.28592 -1.60145,-0.64494 -2.34485,-2.07916c-0.7434,-1.43421 -0.89888,-2.82866 -0.34727,-3.11459c0.55162,-0.28592 1.60145,0.64494 2.34485,2.07916z" fill="#515151" stroke="none"></path><path d="M241.7326,182.28189c-0.16412,0.93845 -0.84844,1.6028 -1.52847,1.48388c-0.68003,-0.11892 -1.09827,-0.97609 -0.93416,-1.91454c0.16412,-0.93845 0.84844,-1.6028 1.52847,-1.48388c0.68003,0.11892 1.09827,0.97609 0.93416,1.91454z" fill="#7e7e7e" stroke="none"></path><path d="M241.12806,177.21421c0.75907,1.79273 0.69416,3.53405 -0.14499,3.88936c-0.83915,0.35531 -2.13476,-0.80994 -2.89383,-2.60267c-0.75907,-1.79273 -0.69416,-3.53405 0.14499,-3.88936c0.83915,-0.35531 2.13476,0.80994 2.89383,2.60267z" fill="#acacac" stroke="none"></path><path d="M237.18953,182.03828c0.11156,1.73611 -0.30065,3.17582 -0.9207,3.21566c-0.62004,0.03985 -1.21312,-1.33526 -1.32468,-3.07138c-0.11156,-1.73611 0.30065,-3.17582 0.9207,-3.21566c0.62004,-0.03985 1.21312,1.33526 1.32468,3.07138z" fill="#747474" stroke="none"></path><path d="M237.07762,168.22691c0.02681,2.12613 -0.79085,3.86028 -1.8263,3.87334c-1.03545,0.01305 -1.89659,-1.69993 -1.9234,-3.82605c-0.02681,-2.12613 -0.30887,-5.49448 0.72657,-5.50754c0.25034,-0.00315 0.55477,0.1901 0.87289,0.51502c0.99766,1.01903 2.12992,3.33313 2.15024,4.94522z" fill="url(#color-1)" stroke="none"></path><path d="M238.55577,170.8729c-0.47724,0.59069 -1.55192,0.51385 -2.40038,-0.17164c-0.84845,-0.68548 -1.14938,-1.72003 -0.67214,-2.31073c0.47724,-0.59069 1.55192,-0.51385 2.40038,0.17164c0.84845,0.68548 1.14938,1.72003 0.67214,2.31073z" fill="url(#color-2)" stroke="none"></path><path d="M237.14218,172.33803c-0.30745,1.16121 -1.36819,1.88769 -2.36923,1.62265c-1.00104,-0.26504 -1.56331,-1.42125 -1.25586,-2.58246c0.30745,-1.16121 1.36819,-1.88769 2.36923,-1.62265c1.00104,0.26504 1.56331,1.42125 1.25586,2.58246z" fill="url(#color-3)" stroke="none"></path><path d="M236.75206,185.11957c0,0 -0.11986,-1.12092 -0.51507,-2.14607c-0.17538,-0.4549 -0.68624,-0.50325 -0.78449,-1.0886c-0.20901,-1.24506 0.28897,-2.91745 0.05378,-3.99307c-0.08312,-0.38016 -0.85321,-1.20087 -0.901,-1.47256c-0.23071,-1.31163 0.02314,-3.37319 0.02314,-3.37319c0,0 0.74684,-2.79857 1.30364,-2.89651c0.56853,-0.1 2.07309,2.30256 2.07309,2.30256c0,0 1.00666,1.80605 1.20322,2.92351c0.04172,0.23717 -0.90578,0.05149 -0.86116,0.38896c0.0736,0.55662 0.86033,2.58115 1.00031,3.33016c0.06641,0.35532 0.66527,1.07753 0.72254,1.41611c0.07236,0.42772 -0.15206,0.92285 -0.12048,1.29225c0.15024,1.75791 0.17923,2.72248 0.17923,2.72248z" fill="url(#color-4)" stroke="#000000"></path><path d="M237.26547,183.16517c0.22647,0.01276 0.38982,0.38231 0.36485,0.8254c-0.02497,0.44309 -0.2288,0.79195 -0.45527,0.77919c-0.22647,-0.01276 -0.38982,-0.38231 -0.36485,-0.8254c0.02497,-0.44309 0.2288,-0.79195 0.45527,-0.77919z" fill="url(#color-5)" stroke="none"></path><path d="M239.20972,183.29477c-0.07994,0.19106 -0.366,0.25336 -0.63894,0.13916c-0.27294,-0.11419 -0.42939,-0.36166 -0.34945,-0.55272c0.07994,-0.19106 0.366,-0.25336 0.63894,-0.13916c0.27294,0.11419 0.42939,0.36166 0.34945,0.55272z" fill="url(#color-6)" stroke="none"></path><path d="M238.11447,184.94862l-0.49372,-2.80691l0.73866,-0.12993l0.49372,2.80691z" fill="url(#color-7)" stroke="none"></path><path d="M236.37506,182.56389l-0.17323,-0.98488l2.75767,-0.48506l0.17323,0.98488z" fill="url(#color-8)" stroke="none"></path><path d="M238.9558,182.51609l-0.2945,-1.6743l1.50876,0.49613z" fill="url(#color-9)" stroke="none"></path><path d="M245.45007,185.36227c0,0 1.90678,-4.32115 3.33074,-7.04579c1.23542,-2.36386 4.75225,-8.84684 4.75225,-8.84684l1.45211,-0.61202c0,0 -4.1853,7.98508 -5.5785,10.63412c-1.42477,2.70909 -2.79436,6.08382 -2.79436,6.08382z" fill="#78623c" stroke="none"></path><path d="M241.78261,180.61503l0.82617,-1.45866l5.19933,2.13435l-0.7036,1.12865z" fill="#9b7f4e" stroke="none"></path><path d="M243.22157,177.44257l0.76002,-1.49419l5.2897,1.89937l-0.65235,1.15902z" fill="#9b7f4e" stroke="none"></path><path d="M245.63858,172.07533l1.10737,-1.25855l4.65207,3.15384l-0.91981,0.96065z" fill="#9b7f4e" stroke="none"></path><path d="M249.27479,169.17497l0.27424,-0.80048l4.07519,1.39609l-0.27424,0.80048z" fill="#9b7f4e" stroke="none"></path></g></g></svg>