<svg version="1.1" xmlns="http://www.w3.org/2000/svg" xmlns:xlink="http://www.w3.org/1999/xlink" width="25.54821" height="58.72499" viewBox="0,0,25.54821,58.72499"><defs><linearGradient x1="233.51034" y1="172.29369" x2="238.70704" y2="205.58749" gradientUnits="userSpaceOnUse" id="color-1"><stop offset="0" stop-color="#ae5a00"></stop><stop offset="1" stop-color="#ff7a00"></stop></linearGradient></defs><g transform="translate(-229.39658,-149.29311)"><g data-paper-data="{&quot;isPaintingLayer&quot;:true}" fill-rule="nonzero" stroke-width="0.5" stroke-linejoin="miter" stroke-miterlimit="10" stroke-dasharray="" stroke-dashoffset="0" style="mix-blend-mode: normal"><path d="M248.90933,154.74521c0.31913,2.96562 -1.61052,5.60524 -4.30999,5.89573c-2.69947,0.2905 -5.14655,-1.87812 -5.46569,-4.84375c-0.31913,-2.96562 1.61052,-5.60524 4.31,-5.89573c2.69947,-0.2905 5.14654,1.87812 5.46568,4.84375z" fill="#ffeecf" stroke="#000000" stroke-linecap="butt"></path><path d="M241.07038,152.66713c0,0 -1.19281,-0.37458 -1.25355,-0.7129c-0.07682,-0.42793 0.8294,-1.64965 0.8294,-1.64965l5.63378,-1.01147c0,0 1.27618,0.83893 1.35143,1.25811c0.06444,0.35896 -0.92727,1.10444 -0.92727,1.10444c0,0 -1.47647,0.92165 -2.43009,1.09286c-0.92334,0.16577 -3.20369,-0.08141 -3.20369,-0.08141z" fill="#bb7711" stroke="none" stroke-linecap="butt"></path><path d="M243.65875,153.70205c0.05183,0.4816 -0.5226,0.93837 -1.28301,1.02017c-0.76042,0.08183 -1.41886,-0.24224 -1.4707,-0.72385c-0.05183,-0.4816 0.5226,-0.93836 1.28301,-1.02017c0.76042,-0.08183 1.41886,0.24224 1.4707,0.72385z" fill="#000000" stroke="none" stroke-linecap="butt"></path><path d="M246.62355,153.13412c0.05455,0.50694 -0.45601,0.9776 -1.14039,1.05125c-0.68437,0.07365 -1.28339,-0.2776 -1.33794,-0.78455c-0.05455,-0.50694 0.45601,-0.9776 1.14039,-1.05125c0.68437,-0.07365 1.28339,0.2776 1.33794,0.78455z" fill="#000000" stroke="none" stroke-linecap="butt"></path><path d="M246.22938,153.25992l-2.80879,0.30225" fill="none" stroke="#000000" stroke-linecap="round"></path><path d="M246.57648,152.00636l-0.30848,0.75747" fill="none" stroke="#000000" stroke-linecap="round"></path><path d="M240.75091,154.18985l-1.46575,-0.67794" fill="none" stroke="#000000" stroke-linecap="round"></path><path d="M236.58449,180.50128c0.19781,-5.11353 0.53919,-13.93951 0.65203,-16.85631c0.0713,-1.84344 0.51513,-3.96569 0.91627,-3.95018c1.2344,0.04774 7.65964,0.29629 9.91371,0.38348c0.48967,0.01894 0.72517,1.51173 0.64047,3.70157c-0.1996,5.16006 -0.55133,14.25328 -0.66396,17.16466c-0.06827,1.76492 -0.44688,3.76246 -0.94862,3.74305c-2.26657,-0.08767 -8.63189,-0.33389 -9.87341,-0.38192c-0.41051,-0.01587 -0.72332,-1.55961 -0.6365,-3.80436z" fill="#0052ff" stroke="#d6ffcf" stroke-linecap="butt"></path><path d="M240.48747,184.67349c0,0 1.23839,-17.00849 1.22769,-21.02297c-0.00424,-1.58666 -1.29324,-3.55514 -1.29324,-3.55514l5.54221,0.02961c0,0 -1.90934,2.5984 -2.00796,3.72744c-0.31315,3.5848 -0.14765,20.94953 -0.14765,20.94953z" fill="#ffffff" stroke="none" stroke-linecap="butt"></path><path d="M234.12412,197.70835l2.91361,-13.63249l3.06957,0.65605l-2.91361,13.63249z" fill="#d69100" stroke="none" stroke-linecap="butt"></path><path d="M247.34258,198.30688l-5.01996,-13.3016l2.41847,-0.91272l5.01996,13.3016z" fill="#d69100" stroke="none" stroke-linecap="butt"></path><path d="M231.55217,199.14117l0.77183,-3.61125c0,0 0.92388,0.56984 1.88956,0.37397c1.06875,-0.21678 2.21485,-1.19603 2.79125,-1.07284c0.67193,0.1436 1.27774,1.97238 1.27774,1.97238l-0.77183,3.61125z" fill="#7c5500" stroke="none" stroke-linecap="butt"></path><path d="M236.44383,194.80554l1.29704,1.88211" fill="none" stroke="#000000" stroke-linecap="round"></path><path d="M235.59961,195.66354l1.13578,1.75325" fill="none" stroke="#000000" stroke-linecap="round"></path><path d="M247.60502,199.78665l-1.30388,-3.45496c0,0 0.32516,-1.89888 0.96797,-2.14147c0.55146,-0.20812 1.83128,0.58847 2.92044,0.64276c0.98411,0.04907 1.81227,-0.6527 1.81227,-0.6527l1.30388,3.45496z" data-paper-data="{&quot;index&quot;:null}" fill="#7c5500" stroke="none" stroke-linecap="butt"></path><path d="M247.8376,193.51191l-0.6003,2.2055" data-paper-data="{&quot;index&quot;:null}" fill="none" stroke="#000000" stroke-linecap="round"></path><path d="M247.92272,196.70648l0.86044,-1.90354" data-paper-data="{&quot;index&quot;:null}" fill="none" stroke="#000000" stroke-linecap="round"></path><path d="M252.7418,179.73453l-7.0033,-11.40837l2.203,-1.35236l7.00329,11.40836z" fill="#ffeecf" stroke="none" stroke-linecap="butt"></path><path d="M229.39658,176.13273l7.26199,-11.24548l2.17153,1.40232l-7.26199,11.24548z" fill="#ffeecf" stroke="none" stroke-linecap="butt"></path><path d="M238.20536,205.6658l-5.19671,-33.29379l1.00338,-0.15662l5.19671,33.29379z" fill="url(#color-1)" stroke="none" stroke-linecap="butt"></path><path d="M236.98743,207.79786l-0.91595,-1.09275c0,0 2.00961,0.2923 2.47573,-0.0984c0.44337,-0.37163 0.25614,-2.19149 0.25614,-2.19149l0.91596,1.09275c0,0 0.14863,1.96849 -0.33549,2.37429c-0.4162,0.34887 -2.3964,-0.08439 -2.3964,-0.08439z" fill="#703a00" stroke="none" stroke-linecap="butt"></path></g></g></svg>