<svg version="1.1" xmlns="http://www.w3.org/2000/svg" xmlns:xlink="http://www.w3.org/1999/xlink" width="21.37541" height="29.39443" viewBox="0,0,21.37541,29.39443"><g transform="translate(-231.92513,-162.83993)"><g data-paper-data="{&quot;isPaintingLayer&quot;:true}" fill-rule="nonzero" stroke-linejoin="miter" stroke-miterlimit="10" stroke-dasharray="" stroke-dashoffset="0" style="mix-blend-mode: normal"><g><text transform="translate(241.49971,167.81914) rotate(104.49301) scale(0.12003,0.12003)" font-size="40" xml:space="preserve" fill="#c99f79" fill-rule="nonzero" stroke="none" stroke-width="1" stroke-linecap="butt" stroke-linejoin="miter" stroke-miterlimit="10" stroke-dasharray="" stroke-dashoffset="0" font-family="Curly" font-weight="normal" text-anchor="start" style="mix-blend-mode: normal"><tspan x="0" dy="0">xAmt8</tspan></text><g><path d="M234.34265,189.98604c0,0 -1.56054,-0.92121 -1.24088,-1.97821c0.07161,-0.23681 1.57793,0.12706 1.67103,-0.14925c1.6729,-4.96471 5.19677,-16.58626 6.43089,-21.37931c0.24049,-0.93401 -0.54598,-1.81752 -0.44818,-2.15547c0.13519,-0.46712 1.23446,-0.76304 1.23446,-0.76304c0,0 0.83492,0.54025 1.50744,0.34467c0.24788,-0.07208 0.38532,-0.3092 0.63494,-0.46321c0.38364,-0.23669 0.85773,-0.39125 1.04357,-0.33897c0.31963,0.08992 0.54174,0.49578 0.73871,0.96468c0.16015,0.38123 0.28685,0.81406 0.57172,1.0724c0.15554,0.14105 0.28459,-0.04056 0.46214,-0.01606c0.45065,0.06221 0.93895,0.09562 0.93895,0.09562c0,0 1.13046,0.92521 0.95449,1.53329c-0.03521,0.1217 -1.21232,0.37231 -1.27059,0.55751c-1.00531,3.19528 -5.00622,15.95764 -6.57336,21.93639c-0.11573,0.4415 1.41782,1.30091 1.31156,1.65649c-0.3686,1.23344 -2.06942,0.7416 -2.06942,0.7416c0,0 -0.29781,-0.13893 -0.71806,-0.29191c-0.24267,-0.08834 -0.54419,-0.27037 -0.80627,-0.20355c-0.66419,0.16936 -1.21999,1.20591 -1.69279,1.0729c-0.21111,-0.05939 -0.43246,-0.08293 -0.58603,-0.44201c-0.11439,-0.26744 -0.15598,-0.85278 -0.31605,-1.07313c-0.04402,-0.06059 -0.08246,-0.18656 -0.1334,-0.23262c-0.27793,-0.2513 -0.73903,-0.11746 -1.02917,-0.18012c-0.41307,-0.0892 -0.6157,-0.30869 -0.6157,-0.30869z" fill="#757575" stroke="#000000" stroke-width="0" stroke-linecap="butt"></path><path d="M233.3646,189.7329c0,0 -1.56054,-0.92121 -1.24088,-1.97821c0.07161,-0.23681 1.57793,0.12706 1.67103,-0.14925c1.6729,-4.96471 5.19677,-16.58626 6.43089,-21.37931c0.24049,-0.93401 -0.54598,-1.81752 -0.44818,-2.15547c0.13519,-0.46712 1.23446,-0.76304 1.23446,-0.76304c0,0 0.83492,0.54025 1.50744,0.34467c0.24788,-0.07208 0.38532,-0.3092 0.63494,-0.46321c0.38364,-0.23669 0.85773,-0.39125 1.04357,-0.33897c0.31963,0.08992 0.54174,0.49578 0.73871,0.96468c0.16015,0.38123 0.28685,0.81406 0.57172,1.0724c0.15554,0.14105 0.28459,-0.04056 0.46214,-0.01606c0.45065,0.06221 0.93895,0.09562 0.93895,0.09562c0,0 1.13046,0.92521 0.95449,1.53329c-0.03521,0.1217 -1.21232,0.37231 -1.27059,0.55751c-1.00531,3.19528 -5.00622,15.95764 -6.57336,21.93639c-0.11573,0.4415 1.41782,1.30091 1.31156,1.65649c-0.3686,1.23344 -2.06942,0.7416 -2.06942,0.7416c0,0 -0.29781,-0.13893 -0.71806,-0.29191c-0.24267,-0.08834 -0.54419,-0.27037 -0.80627,-0.20355c-0.66419,0.16936 -1.21999,1.20591 -1.69279,1.0729c-0.21111,-0.05939 -0.43246,-0.08293 -0.58603,-0.44201c-0.11439,-0.26744 -0.15598,-0.85278 -0.31605,-1.07313c-0.04402,-0.06059 -0.08246,-0.18656 -0.1334,-0.23262c-0.27793,-0.2513 -0.73903,-0.11746 -1.02917,-0.18012c-0.41307,-0.0892 -0.6157,-0.30869 -0.6157,-0.30869z" fill="#c1c1c1" stroke="#000000" stroke-width="0" stroke-linecap="butt"></path><path d="M243.14771,165.71372l-1.67169,-0.47485" fill="none" stroke="#757575" stroke-width="0.5" stroke-linecap="round"></path><path d="M244.58496,165.03114l-1.08485,-0.32297" fill="none" stroke="#757575" stroke-width="0.5" stroke-linecap="round"></path><path d="M240.37038,163.89813l0.8185,0.38058" fill="none" stroke="#757575" stroke-width="0.5" stroke-linecap="round"></path><path d="M245.55389,168.21364l-1.20902,-0.24964" fill="none" stroke="#757575" stroke-width="0.5" stroke-linecap="round"></path><path d="M240.3702,169.84588l-0.71168,-0.31075" fill="none" stroke="#a75900" stroke-width="0.5" stroke-linecap="round"></path><path d="M243.35911,171.10459l-1.19168,-0.39281" fill="none" stroke="#a75900" stroke-width="0.5" stroke-linecap="round"></path><path d="M241.081,175.8722l-1.56555,-0.63721" fill="none" stroke="#757575" stroke-width="0.5" stroke-linecap="round"></path><path d="M240.77083,179.14548l0.44463,0.13617" fill="none" stroke="#757575" stroke-width="0.5" stroke-linecap="round"></path><path d="M240.11345,173.15408l-0.72902,-0.1676" fill="none" stroke="#a75900" stroke-width="0.5" stroke-linecap="round"></path><path d="M243.51022,174.13869l-0.71168,-0.31075" fill="none" stroke="#a75900" stroke-width="0.5" stroke-linecap="round"></path><path d="M238.0483,177.82917l1.12024,0.26884" fill="none" stroke="#757575" stroke-width="0.5" stroke-linecap="round"></path><path d="M238.95128,182.7452l-2.29526,-1.03697" fill="none" stroke="#757575" stroke-width="0.5" stroke-linecap="round"></path><path d="M239.87111,181.33812l0.92463,0.21823" fill="none" stroke="#a75900" stroke-width="0.5" stroke-linecap="round"></path><path d="M237.14995,180.48619l0.69432,0.45389" fill="none" stroke="#757575" stroke-width="0.5" stroke-linecap="round"></path><path d="M236.89935,185.88403l-0.71168,-0.31075" fill="none" stroke="#757575" stroke-width="0.5" stroke-linecap="round"></path><path d="M239.54908,186.61202l0.90729,0.36137" fill="none" stroke="#757575" stroke-width="0.5" stroke-linecap="round"></path><path d="M235.78461,187.47266l0.7297,0.39977" fill="none" stroke="#757575" stroke-width="0.5" stroke-linecap="round"></path><path d="M237.76077,188.76451l0.51607,0.26012" fill="none" stroke="#757575" stroke-width="0.5" stroke-linecap="round"></path><path d="M238.23735,187.68564l0.40925,0.19028" fill="none" stroke="#757575" stroke-width="0.5" stroke-linecap="round"></path><path d="M233.45947,188.34726l0.83653,0.46961" fill="none" stroke="#757575" stroke-width="0.5" stroke-linecap="round"></path><path d="M236.363,190.78608l-0.32045,-0.20949" fill="none" stroke="#a75900" stroke-width="0.5" stroke-linecap="round"></path><path d="M247.38308,167.86448l-0.51607,-0.26012" fill="none" stroke="#757575" stroke-width="0.5" stroke-linecap="round"></path><path d="M245.93347,164.36776l-0.33849,-0.29853" fill="none" stroke="#757575" stroke-width="0.5" stroke-linecap="round"></path><path d="M237.78381,191.54751l-0.37965,-0.19669" fill="none" stroke="#757575" stroke-width="0.5" stroke-linecap="round"></path><path d="M241.57346,191.19256l0.45041,0.08845" fill="none" stroke="#757575" stroke-width="0.5" stroke-linecap="round"></path><path d="M240.97514,189.15352l-0.34404,-0.17341" fill="none" stroke="#757575" stroke-width="0.5" stroke-linecap="round"></path><path d="M241.82891,185.43743l-0.27283,-0.12686" fill="none" stroke="#757575" stroke-width="0.5" stroke-linecap="round"></path><path d="M243.42173,179.26914l-0.23722,-0.10359" fill="none" stroke="#757575" stroke-width="0.5" stroke-linecap="round"></path><path d="M245.05565,174.98159l-0.65203,-0.16876" fill="none" stroke="#757575" stroke-width="0.5" stroke-linecap="round"></path><path d="M244.14646,175.98365l0.33203,0.11405" fill="none" stroke="#757575" stroke-width="0.5" stroke-linecap="round"></path><path d="M246.09855,171.13163l-0.36762,-0.13733" fill="none" stroke="#703c00" stroke-width="0.5" stroke-linecap="round"></path><path d="M248.66615,166.11554l-0.48602,-0.11173" fill="none" stroke="#757575" stroke-width="0.5" stroke-linecap="round"></path><path d="M248.66798,166.73471l-0.33203,-0.11405" fill="none" stroke="#757575" stroke-width="0.5" stroke-linecap="round"></path><path d="M245.19891,163.33398l0.4037,0.3154" fill="none" stroke="#757575" stroke-width="0.5" stroke-linecap="round"></path></g><g><g stroke="#000000" stroke-width="0" stroke-linecap="butt"><path d="M251.52978,176.62533c0,0 -0.67145,1.17645 -1.42978,0.96378c-0.1699,-0.04765 0.10041,-1.17128 -0.09777,-1.23395c-3.56093,-1.12591 -11.89867,-3.47114 -15.33866,-4.27606c-0.67034,-0.15685 -1.31024,0.44557 -1.55272,0.38083c-0.33516,-0.08949 -0.54169,-0.89673 -0.54169,-0.89673c0,0 0.39331,-0.6305 0.25651,-1.12403c-0.05042,-0.18191 -0.22016,-0.27828 -0.3295,-0.45962c-0.16802,-0.27869 -0.27646,-0.62623 -0.2378,-0.76502c0.0665,-0.23872 0.35965,-0.4124 0.69799,-0.56891c0.27509,-0.12725 0.58711,-0.23089 0.77451,-0.4477c0.10233,-0.11838 -0.02755,-0.20981 -0.0089,-0.34183c0.04732,-0.3351 0.07415,-0.69743 0.07415,-0.69743c0,0 0.67186,-0.85809 1.10816,-0.7416c0.08733,0.02331 0.26082,0.88921 0.39367,0.92816c2.29222,0.6718 11.44769,3.34433 15.73848,4.36889c0.31685,0.07566 0.94369,-1.0794 1.19882,-1.0088c0.88495,0.24492 0.5215,1.51547 0.5215,1.51547c0,0 -0.10162,0.22368 -0.21404,0.53833c-0.06493,0.18169 -0.19756,0.40909 -0.151,0.60164c0.118,0.48796 0.86027,0.87595 0.76191,1.22906c-0.04393,0.15766 -0.06212,0.32211 -0.32124,0.44398c-0.19298,0.09078 -0.61419,0.13487 -0.77359,0.25841c-0.04383,0.03397 -0.13464,0.0653 -0.16805,0.10406c-0.18233,0.21151 -0.08871,0.5499 -0.13543,0.76615c-0.06652,0.30788 -0.22552,0.46292 -0.22552,0.46292z" fill="#757575"></path><path d="M251.20437,175.77882c0,0 -0.67145,1.17645 -1.42978,0.96378c-0.1699,-0.04765 0.10041,-1.17128 -0.09777,-1.23395c-3.56093,-1.12591 -11.89867,-3.47114 -15.33866,-4.27606c-0.67034,-0.15685 -1.31024,0.44557 -1.55272,0.38083c-0.33516,-0.08949 -0.54169,-0.89673 -0.54169,-0.89673c0,0 0.39331,-0.6305 0.25651,-1.12403c-0.05042,-0.18191 -0.22016,-0.27828 -0.3295,-0.45962c-0.16802,-0.27869 -0.27646,-0.62623 -0.2378,-0.76502c0.0665,-0.23872 0.35965,-0.4124 0.69799,-0.56891c0.27509,-0.12725 0.58711,-0.23089 0.77451,-0.4477c0.10233,-0.11838 -0.02755,-0.20981 -0.0089,-0.34183c0.04732,-0.3351 0.07415,-0.69743 0.07415,-0.69743c0,0 0.67186,-0.85809 1.10816,-0.7416c0.08733,0.02331 0.26082,0.88921 0.39367,0.92816c2.29222,0.6718 11.44769,3.34433 15.73848,4.36889c0.31685,0.07566 0.94369,-1.0794 1.19882,-1.0088c0.88495,0.24492 0.5215,1.51547 0.5215,1.51547c0,0 -0.10162,0.22368 -0.21404,0.53833c-0.06493,0.18169 -0.19756,0.40909 -0.151,0.60164c0.118,0.48796 0.86028,0.87594 0.76191,1.22906c-0.04393,0.15766 -0.06212,0.32211 -0.32124,0.44398c-0.19298,0.09078 -0.61419,0.13487 -0.77359,0.25841c-0.04383,0.03397 -0.13464,0.0653 -0.16805,0.10406c-0.18233,0.21151 -0.08871,0.5499 -0.13543,0.76615c-0.06652,0.30788 -0.22552,0.46292 -0.22552,0.46292z" fill="#c1c1c1"></path></g><path d="M236.88198,168.25137l-1.06105,-0.45791" fill="none" stroke="#757575" stroke-width="0.5" stroke-linecap="round"></path><path d="M241.90948,169.86847l-1.29056,-0.44183" fill="none" stroke="#757575" stroke-width="0.5" stroke-linecap="round"></path><path d="M237.13751,170.38013l-0.8077,-0.38695" fill="none" stroke="#757575" stroke-width="0.5" stroke-linecap="round"></path><path d="M242.34799,172.83596l-0.98178,-0.33927" fill="none" stroke="#757575" stroke-width="0.5" stroke-linecap="round"></path><path d="M243.05149,171.98837l0.7046,0.18129" fill="none" stroke="#757575" stroke-width="0.5" stroke-linecap="round"></path><path d="M246.1781,172.30159l0.81546,0.24448" fill="none" stroke="#757575" stroke-width="0.5" stroke-linecap="round"></path><path d="M247.7231,173.84328l0.76004,0.21288" fill="none" stroke="#757575" stroke-width="0.5" stroke-linecap="round"></path><path d="M251.05319,171.99559l-0.64917,-0.14968" fill="none" stroke="#757575" stroke-width="0.5" stroke-linecap="round"></path><path d="M251.65631,173.51456l0.41966,0.16575" fill="none" stroke="#757575" stroke-width="0.5" stroke-linecap="round"></path><path d="M250.45502,175.10669l0.50669,0.14192" fill="none" stroke="#757575" stroke-width="0.5" stroke-linecap="round"></path><path d="M233.6295,168.67435l-0.50669,-0.14192" fill="none" stroke="#757575" stroke-width="0.5" stroke-linecap="round"></path><path d="M234.54643,167.58114l0.36421,0.13416" fill="none" stroke="#757575" stroke-width="0.5" stroke-linecap="round"></path><path d="M234.38344,170.57305l-0.58597,-0.26055" fill="none" stroke="#757575" stroke-width="0.5" stroke-linecap="round"></path><path d="M248.63116,171.86366l-0.6098,-0.34759" fill="none" stroke="#757575" stroke-width="0.5" stroke-linecap="round"></path><path d="M233.82297,171.94288l-0.49893,-0.28439" fill="none" stroke="#757575" stroke-width="0.5" stroke-linecap="round"></path><path d="M235.51656,171.80652l1.14033,0.57655" fill="none" stroke="#757575" stroke-width="0.5" stroke-linecap="round"></path><path d="M252.68633,174.54235l0.36421,0.13416" fill="none" stroke="#757575" stroke-width="0.5" stroke-linecap="round"></path><path d="M252.31934,171.83593l0.33262,0.18959" fill="none" stroke="#757575" stroke-width="0.5" stroke-linecap="round"></path><path d="M251.24832,176.80747l-0.56988,-0.03105" fill="none" stroke="#757575" stroke-width="0.5" stroke-linecap="round"></path><path d="M246.04616,174.72361l1.01338,0.28383" fill="none" stroke="#757575" stroke-width="0.5" stroke-linecap="round"></path><path d="M248.6827,175.63886l0.50669,0.14192" fill="none" stroke="#757575" stroke-width="0.5" stroke-linecap="round"></path><path d="M240.34618,173.38425l-0.89474,-0.36311" fill="none" stroke="#757575" stroke-width="0.5" stroke-linecap="round"></path><path d="M244.0194,174.15593l-0.45125,-0.11032" fill="none" stroke="#757575" stroke-width="0.5" stroke-linecap="round"></path></g></g></g></g></svg>