<svg version="1.1" xmlns="http://www.w3.org/2000/svg" xmlns:xlink="http://www.w3.org/1999/xlink" width="180.5463" height="45.02587" viewBox="0,0,180.5463,45.02587"><defs><radialGradient cx="319.60715" cy="24.0705" r="23.24549" gradientUnits="userSpaceOnUse" id="color-1"><stop offset="0" stop-color="#ffdfac" stop-opacity="0.6216"></stop><stop offset="1" stop-color="#ffdfac" stop-opacity="0"></stop></radialGradient><radialGradient cx="319.01126" cy="24.01292" r="13.99446" gradientUnits="userSpaceOnUse" id="color-2"><stop offset="0" stop-color="#ffffff"></stop><stop offset="1" stop-color="#fffbf9"></stop></radialGradient><linearGradient x1="319.01126" y1="10.01845" x2="319.01126" y2="38.00739" gradientUnits="userSpaceOnUse" id="color-3"><stop offset="0" stop-color="#beab9c" stop-opacity="0.26191"></stop><stop offset="1" stop-color="#bfb19d" stop-opacity="0.48028"></stop></linearGradient></defs><g transform="translate(-157.66982,-0.82501)"><g data-paper-data="{&quot;isPaintingLayer&quot;:true}" fill-rule="nonzero" stroke-linejoin="miter" stroke-miterlimit="10" stroke-dasharray="" stroke-dashoffset="0" style="mix-blend-mode: normal"><path d="M327,44.85088l-164,-1.4386" fill="none" stroke="#f8edc8" stroke-width="2" stroke-linecap="round"></path><g stroke-linecap="butt"><text transform="translate(321.10474,37.51023) rotate(-89.95547) scale(0.12867,0.12867)" font-size="40" xml:space="preserve" fill="#fffdfc" fill-rule="nonzero" stroke="none" stroke-width="1" stroke-linecap="butt" stroke-linejoin="miter" stroke-miterlimit="10" stroke-dasharray="" stroke-dashoffset="0" font-family="Serif" font-weight="normal" text-anchor="start" style="mix-blend-mode: normal"><tspan x="0" dy="0">xAmt8</tspan></text><text transform="translate(274.80065,31.32677) rotate(-89.95537) scale(0.16046,0.16046)" font-size="40" xml:space="preserve" fill="#fffdfc" fill-rule="nonzero" stroke="none" stroke-width="1" stroke-linecap="butt" stroke-linejoin="miter" stroke-miterlimit="10" stroke-dasharray="" stroke-dashoffset="0" font-family="Serif" font-weight="normal" text-anchor="start" style="mix-blend-mode: normal"><tspan x="0" dy="0">xAmt8</tspan></text><text transform="translate(187.35284,31.62121) rotate(-89.95537) scale(0.16046,0.16046)" font-size="40" xml:space="preserve" fill="#fffdfc" fill-rule="nonzero" stroke="none" stroke-width="1" stroke-linecap="butt" stroke-linejoin="miter" stroke-miterlimit="10" stroke-dasharray="" stroke-dashoffset="0" font-family="Serif" font-weight="normal" text-anchor="start" style="mix-blend-mode: normal"><tspan x="0" dy="0">xAmt8</tspan></text><text transform="translate(210.45427,13.07359) scale(0.16046,0.16046)" font-size="40" xml:space="preserve" fill="#fffdfc" fill-rule="nonzero" stroke="none" stroke-width="1" stroke-linecap="butt" stroke-linejoin="miter" stroke-miterlimit="10" stroke-dasharray="" stroke-dashoffset="0" font-family="Serif" font-weight="normal" text-anchor="start" style="mix-blend-mode: normal"><tspan x="0" dy="0">xAmt8</tspan></text><text transform="translate(157.75006,13.9569) scale(0.16046,0.16046)" font-size="40" xml:space="preserve" fill="#fffdfc" fill-rule="nonzero" stroke="none" stroke-width="1" stroke-linecap="butt" stroke-linejoin="miter" stroke-miterlimit="10" stroke-dasharray="" stroke-dashoffset="0" font-family="Serif" font-weight="normal" text-anchor="start" style="mix-blend-mode: normal"><tspan x="0" dy="0">xAmt8</tspan></text><path d="M157.79912,37.40004v-29.50697l4.60393,-0.41854c0,0 0.46835,12.76723 0.65901,18.21997c0.14616,4.18032 1.85222,11.49626 1.85222,11.49626z" fill="#ffd8b7" stroke="none" stroke-width="0"></path><path d="M157.79912,12.07847v-4.8132l17.16008,0.62781l-0.20927,6.48734l-13.24901,1.61121z" fill="#ffd8b7" stroke="none" stroke-width="0"></path><path d="M161.98451,25.4717v-4.8132h10.882l-0.20927,6.69662z" fill="#ffd8b7" stroke="none" stroke-width="0"></path><path d="M185.42266,37.66163v-6.90588l15.48593,-1.04635l0.20927,7.95223z" fill="#ffd8b7" stroke="none" stroke-width="0"></path><path d="M181.65582,33.89479v-25.11231h6.48734v25.11231z" fill="#ffd8b7" stroke="none" stroke-width="0"></path><path d="M181.46608,33.9698l2.11504,-2.59573l4.54252,3.70131l-2.11504,2.59573z" fill="#ffd8b7" stroke="none" stroke-width="0"></path><path d="M183.95778,13.17713v-4.60393l7.11515,0.41854l-0.23718,4.18539z" fill="#ffd8b7" stroke="none" stroke-width="0"></path><path d="M183.73756,14.50144l2.10139,-4.79116l4.40786,1.93327l-2.10139,4.79116z" fill="#ffd8b7" stroke="none" stroke-width="0"></path><path d="M208.33765,35.98748v-25.0286h7.32443v25.0286z" fill="#ffd8b7" stroke="none" stroke-width="0"></path><path d="M211.37205,38.70798l0.34207,-8.78931l17.44581,2.00898v6.78033z" fill="#ffd8b7" stroke="none" stroke-width="0"></path><path d="M211.69829,38.79393l-3.2916,-3.09107l1.81157,-1.91033l3.40575,3.54766z" fill="#ffd8b7" stroke="none" stroke-width="0"></path><path d="M223.40505,37.03382v-25.53085h7.32442v25.53085z" fill="#ffd8b7" stroke="none" stroke-width="0"></path><path d="M210.82795,15.50002v-7.95223h17.82974v7.95223z" fill="#ffd8b7" stroke="none" stroke-width="0"></path><path d="M229.06486,12.24188l-2.84113,-2.84113l2.40352,-1.90127l2.21332,2.9667c0,0 -0.17728,1.18177 -0.38561,1.3901c-0.32767,0.32767 -1.3901,0.38561 -1.3901,0.38561z" fill="#ffd8b7" stroke="none" stroke-width="0"></path><path d="M208.19117,11.4402c0,0 1.59127,-0.68545 2.09366,-1.54554c0.52395,-0.89699 0.13059,-1.8917 0.82564,-1.8917c1.36151,0 0.09417,3.43725 0.09417,3.43725z" fill="#ffd8b7" stroke="none" stroke-width="0"></path><path d="M213.52992,16.14377l4.21622,-1.84922l3.18715,0.3106l-5.89037,4.98826z" fill="#ffd8b7" stroke="none" stroke-width="0"></path><path d="M213.82334,32.4665l0.85594,-3.66831l11.82012,2.75803l-0.85594,3.66831z" fill="#ffd8b7" stroke="none" stroke-width="0"></path><path d="M238.78633,35.67356v-25.0286h7.32443v25.0286z" fill="#ffd8b7" stroke="none" stroke-width="0"></path><path d="M241.82074,38.39408l0.34207,-8.78931l17.44581,2.00898v6.78033z" fill="#ffd8b7" stroke="none" stroke-width="0"></path><path d="M242.14699,38.48003l-3.2916,-3.09107l1.81157,-1.91033l3.40575,3.54766z" fill="#ffd8b7" stroke="none" stroke-width="0"></path><path d="M253.85374,36.71993v-25.53085h7.32442v25.53085z" fill="#ffd8b7" stroke="none" stroke-width="0"></path><path d="M241.27663,15.18611v-7.95223h17.82974v7.95223z" fill="#ffd8b7" stroke="none" stroke-width="0"></path><path d="M259.51352,11.92798l-2.84113,-2.84113l2.40352,-1.90127l2.21332,2.9667c0,0 -0.17728,1.18177 -0.38561,1.3901c-0.32767,0.32767 -1.3901,0.38561 -1.3901,0.38561z" fill="#ffd8b7" stroke="none" stroke-width="0"></path><path d="M238.63984,11.12629c0,0 1.59127,-0.68545 2.09366,-1.54554c0.52395,-0.89699 0.13059,-1.8917 0.82564,-1.8917c1.36151,0 0.09417,3.43725 0.09417,3.43725z" fill="#ffd8b7" stroke="none" stroke-width="0"></path><path d="M243.9786,15.82987l4.21622,-1.84922l3.18715,0.3106l-5.89037,4.98826z" fill="#ffd8b7" stroke="none" stroke-width="0"></path><path d="M244.27202,32.1526l0.85594,-3.66831l11.82012,2.75803l-0.85594,3.66831z" fill="#ffd8b7" stroke="none" stroke-width="0"></path><path d="M269.74994,38.38997l-0.64432,-29.56585l12.56283,-2.10188l9.06859,5.32782c0,0 -4.09326,2.34032 -5.70025,2.6114c-1.10417,0.18627 -3.01273,-1.14163 -3.01273,-1.14163l-5.58586,-0.26443l-0.64504,5.74753l3.72227,-0.18356l2.54898,-5.04362l8.86771,-1.67363l-6.09452,10.34262l6.39515,9.0723l-3.99737,4.97184l-9.07978,-7.9355l-2.33261,9.81056z" fill="#ffd8b7" stroke="#ffffff" stroke-width="0"></path><path d="M306.40009,22.37375l-4.83574,-17.13719l17.98556,-4.41155l14.1886,4.02029l4.29227,16.18777c0,0 -4.46059,2.43577 -6.55976,4.72944c-2.28265,2.49415 -2.5459,2.70427 -2.5459,2.70427l9.29101,5.46709l-3.46766,10.59149l-30.85606,0.40715l5.75228,-17.47246l10.25693,-6.05072l-7.92519,2.43707z" fill="url(#color-1)" stroke="none" stroke-width="0"></path><path d="M311.06025,22.99143l-2.91126,-10.31708l10.82783,-2.65589l8.54195,2.42033l2.58407,9.74551c0,0 -1.55797,3.00383 -2.82173,4.38469c-1.37422,1.50155 -5.12003,4.29291 -5.12003,4.29291l8.05334,-0.91094l-1.06268,8.0163l-21.34362,0.04013l5.92292,-11.0314l9.35231,-6.82005l-4.5662,-1.71016z" fill="url(#color-2)" stroke="url(#color-3)" stroke-width="0.5"></path></g></g></g></svg>