<svg version="1.1" xmlns="http://www.w3.org/2000/svg" xmlns:xlink="http://www.w3.org/1999/xlink" width="28.19212" height="35.38571" viewBox="0,0,28.19212,35.38571"><g transform="translate(-225.90394,-165.96585)"><g data-paper-data="{&quot;isPaintingLayer&quot;:true}" fill-rule="nonzero" stroke-linecap="butt" stroke-linejoin="miter" stroke-miterlimit="10" stroke-dasharray="" stroke-dashoffset="0" style="mix-blend-mode: normal"><path d="M226.15395,189.5564c0,-5.7282 0,-15.6151 0,-18.88251c0,-2.06504 0.87292,-4.45804 1.84235,-4.45804c2.98321,0 18.51126,0 23.95871,0c1.18338,0 1.89105,1.65955 1.89105,4.11262c0,5.78032 0,15.96659 0,19.22792c0,1.97707 -0.72717,4.22776 -1.93975,4.22776c-5.47769,0 -20.86091,0 -23.86132,0c-0.99211,0 -1.89105,-1.71318 -1.89105,-4.22776z" fill-opacity="0.62097" fill="#291800" stroke="#fff4ce" stroke-width="0.5"></path><text transform="translate(233.33008,185.76875) scale(0.5,0.5)" font-size="40" xml:space="preserve" fill="#fff4ce" fill-rule="nonzero" stroke="none" stroke-width="1" stroke-linecap="butt" stroke-linejoin="miter" stroke-miterlimit="10" stroke-dasharray="" stroke-dashoffset="0" font-family="&quot;Microsoft YaHei&quot;, &quot;微软雅黑&quot;, STXihei, &quot;华文细黑&quot;" font-weight="normal" text-anchor="start" style="mix-blend-mode: normal"><tspan x="0" dy="0">C</tspan></text><text transform="translate(226.78571,198.84916) scale(0.1564,0.1564)" font-size="40" xml:space="preserve" fill="#00e4ff" fill-rule="nonzero" stroke="none" stroke-width="1" stroke-linecap="butt" stroke-linejoin="miter" stroke-miterlimit="10" stroke-dasharray="" stroke-dashoffset="0" font-family="Curly" font-weight="normal" text-anchor="start" style="mix-blend-mode: normal"><tspan x="0" dy="0">To crouch</tspan></text></g></g></svg>