<svg version="1.1" xmlns="http://www.w3.org/2000/svg" xmlns:xlink="http://www.w3.org/1999/xlink" width="59.33238" height="77.32812" viewBox="0,0,59.33238,77.32812"><defs><linearGradient x1="250.06732" y1="178.36384" x2="261.96106" y2="178.36384" gradientUnits="userSpaceOnUse" id="color-1"><stop offset="0" stop-color="#8d3800"></stop><stop offset="1" stop-color="#d27a00"></stop></linearGradient><linearGradient x1="216.51265" y1="178.43856" x2="229.89017" y2="178.43856" gradientUnits="userSpaceOnUse" id="color-2"><stop offset="0" stop-color="#d27a00"></stop><stop offset="1" stop-color="#8d3800"></stop></linearGradient><linearGradient x1="245.20504" y1="163.19243" x2="233.74643" y2="163.19243" gradientUnits="userSpaceOnUse" id="color-3"><stop offset="0" stop-color="#ffe108"></stop><stop offset="1" stop-color="#ffc908"></stop></linearGradient><linearGradient x1="244.85127" y1="163.2361" x2="239.12976" y2="163.2361" gradientUnits="userSpaceOnUse" id="color-4"><stop offset="0" stop-color="#ffe108"></stop><stop offset="1" stop-color="#ffe108" stop-opacity="0"></stop></linearGradient><radialGradient cx="239.4256" cy="158.94406" r="3.01848" gradientUnits="userSpaceOnUse" id="color-5"><stop offset="0" stop-color="#fff399"></stop><stop offset="1" stop-color="#fff399" stop-opacity="0"></stop></radialGradient><linearGradient x1="238.99889" y1="197.29951" x2="233.81273" y2="197.31992" gradientUnits="userSpaceOnUse" id="color-6"><stop offset="0" stop-color="#08ff7d"></stop><stop offset="1" stop-color="#06ce5c"></stop></linearGradient><linearGradient x1="245.25435" y1="197.40563" x2="240.15735" y2="197.40563" gradientUnits="userSpaceOnUse" id="color-7"><stop offset="0" stop-color="#08ff7d"></stop><stop offset="1" stop-color="#06ce5c"></stop></linearGradient></defs><g transform="translate(-210.33381,-141.21094)"><g data-paper-data="{&quot;isPaintingLayer&quot;:true}" fill-rule="nonzero" stroke-linejoin="miter" stroke-miterlimit="10" stroke-dasharray="" stroke-dashoffset="0" style="mix-blend-mode: normal"><path d="M240.17791,152.31334l-0.72349,53.5385" fill="none" stroke="#652800" stroke-width="0.5" stroke-linecap="round"></path><path d="M214.71095,149.99817v-4.34097c0,0 15.0962,-4.19626 23.00708,-4.19626c8.53701,0 26.47985,4.19626 26.47985,4.19626v4.34097z" fill="#652800" stroke="#311300" stroke-width="0.5" stroke-linecap="butt"></path><path d="M210.33381,218.53906l4.77387,-13.09405h49.51185l5.04666,13.09405z" fill-opacity="0.45161" fill="#000000" stroke="none" stroke-width="0.5" stroke-linecap="butt"></path><g stroke-width="0.5" stroke-linecap="butt"><path d="M214.5621,206.12478v-56.46805h49.51184v56.46805z" fill="#000000" stroke="none"></path><path d="M216.14962,206.00484v-55.27489c0,0 13.38873,0 20.6919,0c8.21642,0 26.19045,0 26.19045,0v55.27489z" fill="none" stroke="#652800"></path></g><g stroke-width="0.5" stroke-linecap="butt"><path d="M250.06732,205.5067v-54.28571h11.89374v54.28571z" fill="url(#color-1)" stroke="none"></path><path d="M252.96146,199.67013v-9.8395h6.14346v9.8395z" fill="none" stroke="#7b3100"></path><path d="M253.11898,182.30629v-9.83951h6.14347v9.83951z" fill="none" stroke="#7b3100"></path><path d="M253.20937,164.5297v-9.83951h6.14347v9.83951z" fill="none" stroke="#7b3100"></path><g><path d="M252.61826,180.40823c-0.60501,-0.26822 -0.96529,-1.47681 -0.80468,-2.69949c0.16061,-1.22266 0.78126,-1.99639 1.38627,-1.72816c0.60502,0.26822 0.96529,1.47681 0.80469,2.69948c-0.1606,1.22266 -0.78124,1.99639 -1.38626,1.72817z" fill="#fff4ce" stroke="#e6ddbb"></path><path d="M253.00933,179.18934c-0.37587,-0.16664 -0.59969,-0.91748 -0.49991,-1.67706c0.09978,-0.75958 0.48537,-1.24027 0.86122,-1.07363c0.37587,0.16664 0.59969,0.91748 0.49991,1.67706c-0.09978,0.75958 -0.48535,1.24027 -0.86122,1.07363z" fill="#e6ddbb" stroke="#e6ddbb"></path><path d="M250.81664,178.46133l0.88658,-0.61916l0.33702,1.62879l-0.88659,0.61916z" fill="#e6ddbb" stroke="none"></path><path d="M251.54844,180.42445c-0.31318,0.80026 -0.55641,-0.10097 -0.66645,-0.51844c-0.17171,-0.65146 -0.1398,-1.29952 0.00039,-1.89895l-0.03126,-0.01386l0.0445,-0.33877v0c0.02122,-0.16153 0.10968,-0.26086 0.19761,-0.22189c0.06355,0.02817 0.10942,0.12091 0.12195,0.23115l0.0469,0.37329l-0.00655,0.00278l0.00962,0.02961c0.00023,0.03283 0.00046,0.06566 0.00069,0.0985c0.02273,0.03464 0.0399,0.07998 0.04978,0.13073c0.02856,0.05589 0.04507,0.13094 0.04449,0.20999l0.00152,0.3373c0.01889,0.21511 0.23786,1.44811 0.1868,1.57857z" fill="#fff4ce" stroke="none"></path></g></g><g stroke-width="0.5" stroke-linecap="butt"><path d="M216.51265,205.58142v-54.2857h13.3775v54.2857z" fill="url(#color-2)" stroke="none"></path><path d="M219.19242,164.75742v-9.83952h6.62539v9.83952z" fill="none" stroke="#7b3100"></path><path d="M219.14369,182.47234v-9.8395h6.62539v9.8395z" fill="none" stroke="#7b3100"></path><path d="M219.01,199.31906v-9.83951h6.62539v9.83951z" fill="none" stroke="#7b3100"></path><g data-paper-data="{&quot;index&quot;:null}"><path d="M226.19437,178.68008c-0.1732,-1.22266 0.21533,-2.43125 0.86781,-2.69948c0.65248,-0.26822 1.32182,0.5055 1.49502,1.72816c0.1732,1.22266 -0.21534,2.43126 -0.86782,2.69949c-0.65248,0.26822 -1.32181,-0.5055 -1.49501,-1.72816z" fill="#fff4ce" stroke="#e6ddbb"></path><path d="M226.33887,178.11571c-0.1076,-0.75958 0.13378,-1.51044 0.53914,-1.67706c0.40535,-0.16664 0.82119,0.31405 0.92879,1.07363c0.1076,0.75958 -0.13378,1.51044 -0.53914,1.67706c-0.40535,0.16664 -0.82119,-0.31405 -0.92879,-1.07363z" fill="#e6ddbb" stroke="#e6ddbb"></path><path d="M229.26887,180.09013l-0.95613,-0.61916l0.36347,-1.62879l0.95612,0.61916z" fill="#e6ddbb" stroke="none"></path><path d="M228.84312,180.42446c-0.05507,-0.13047 0.18108,-1.36346 0.20147,-1.57857l0.00161,-0.3373c-0.00063,-0.07905 0.01718,-0.15411 0.04797,-0.20999c0.01065,-0.05075 0.02918,-0.09607 0.05369,-0.13073c0.00024,-0.03283 0.0005,-0.06566 0.00073,-0.09849l0.01037,-0.02961l-0.00706,-0.00278l0.05058,-0.37329c0.01352,-0.11023 0.06298,-0.20297 0.13151,-0.23115c0.09482,-0.03897 0.19024,0.06036 0.21312,0.22189v0l0.04798,0.33878l-0.0337,0.01385c0.1512,0.59943 0.1856,1.24748 0.00042,1.89895c-0.11867,0.41747 -0.38097,1.3187 -0.71873,0.51843z" fill="#fff4ce" stroke="none"></path></g></g><path d="M232.79449,188.14033l-0.07074,-21.28577h2.76685l-1.42932,22.86204z" data-paper-data="{&quot;index&quot;:null}" fill="#0067b5" stroke="none" stroke-width="0" stroke-linecap="butt"></path><path d="M233.78592,170.31309l-1.14258,-3.54501l11.90192,0.34586l0.85694,3.19916z" data-paper-data="{&quot;index&quot;:null}" fill="#0067b5" stroke="none" stroke-width="0" stroke-linecap="butt"></path><path d="M233.65643,190.00565v-19.6972h11.83605v19.6972z" data-paper-data="{&quot;index&quot;:null}" fill="#0090ff" stroke="none" stroke-width="0" stroke-linecap="butt"></path><path d="M253.25063,185.27094l-9.48088,-12.41602l3.84627,-2.937c0,0 0.98881,-0.23917 1.37367,0.26485c1.08962,1.42697 6.72566,8.17948 8.36287,10.68607c0.34155,0.52292 -0.25563,1.46505 -0.25563,1.46505z" data-paper-data="{&quot;index&quot;:null}" fill="#ffe108" stroke="none" stroke-width="0" stroke-linecap="butt"></path><path d="M233.37291,160.56493c0,0 0.04142,-2.33025 1.78654,-3.05886c1.37296,-0.57324 5.77333,-0.92249 8.27294,-0.18142c1.81088,0.53686 2.08391,1.99391 2.08391,2.67923c0,1.63136 -0.34199,6.2155 -0.34199,6.2155c0,0 0.2091,1.48454 -0.9247,2.2694c-1.14279,0.79108 -3.63234,0.88245 -4.59919,0.86682c-1.18168,-0.01909 -3.69427,-0.10307 -5.09739,-1.05245c-0.94648,-0.64042 -1.09768,-2.2732 -1.09768,-2.2732z" fill="#d8bf06" stroke="none" stroke-width="0" stroke-linecap="butt"></path><text transform="translate(245.20298,164.2791) rotate(-180) scale(0.09317,-0.09315)" font-size="40" xml:space="preserve" fill="#fbff66" fill-rule="nonzero" stroke="none" stroke-width="1" stroke-linecap="butt" stroke-linejoin="miter" stroke-miterlimit="10" stroke-dasharray="" stroke-dashoffset="0" font-family="Sans Serif" font-weight="normal" text-anchor="start" style="mix-blend-mode: normal"><tspan x="0" dy="0">xamt8</tspan></text><path d="M233.74643,160.75541c0,0 0.03907,-2.21375 1.68579,-2.90596c1.29554,-0.54459 5.44774,-0.87637 7.80641,-0.17235c1.70876,0.51003 1.9664,1.89426 1.9664,2.54532c0,1.54981 -0.32271,5.90479 -0.32271,5.90479c0,0 0.19733,1.41033 -0.87254,2.15595c-1.07834,0.75152 -3.4275,0.83835 -4.33985,0.82349c-1.11505,-0.01815 -3.48593,-0.0979 -4.80993,-0.99983c-0.8931,-0.60841 -1.03578,-2.15956 -1.03578,-2.15956z" fill="url(#color-3)" stroke="none" stroke-width="0" stroke-linecap="butt"></path><path d="M239.24226,157.32144c1.29981,-0.01317 2.6349,0.09857 3.6426,0.39934c1.70876,0.51003 1.9664,1.89426 1.9664,2.54532c0,1.54981 -0.32271,5.90479 -0.32271,5.90479c0,0 0.19733,1.41034 -0.87255,2.15597c-1.07834,0.75152 -3.4275,0.83834 -4.33984,0.82349c-0.18911,-0.00308 -0.26841,-11.82692 -0.07389,-11.82891z" fill="url(#color-4)" stroke="none" stroke-width="0" stroke-linecap="butt"></path><path d="M235.99334,157.13533c-0.45496,-0.64513 2.09653,-0.15696 4.20643,0.19162c2.1013,0.34716 4.1656,0.72968 3.79488,0.96871c-0.71025,0.45794 -2.48863,1.16701 -2.48863,1.16701c0,0 -0.90134,1.25191 -1.86588,1.30408c-0.51672,0.02794 -0.98303,-0.83687 -1.49194,-1.19649c-0.41161,-0.29087 -1.51073,-2.0694 -1.6944,-2.32983z" fill="url(#color-5)" stroke="none" stroke-width="0" stroke-linecap="butt"></path><path d="M233.59444,170.36658l-0.99039,-2.82972" data-paper-data="{&quot;index&quot;:null}" fill="none" stroke="#003e6d" stroke-width="0.15" stroke-linecap="round"></path><g stroke="#000000"><path d="M233.83523,205.04593l-0.04501,-15.45202l5.18616,-0.02041l0.04501,15.45202z" data-paper-data="{&quot;index&quot;:null}" fill="url(#color-6)" stroke-width="0" stroke-linecap="butt"></path><path d="M239.12141,189.8349l-0.20685,15.17526l-5.10519,-0.07718l0.20574,-15.56435" data-paper-data="{&quot;index&quot;:null}" fill="none" stroke-width="0.15" stroke-linecap="round"></path></g><g stroke="#000000"><path d="M240.15735,205.13169v-15.45211h5.09698v15.45211z" data-paper-data="{&quot;index&quot;:null}" fill="url(#color-7)" stroke-width="0" stroke-linecap="butt"></path><path d="M245.39612,189.94156l-0.24674,15.17437l-5.01714,-0.09727l0.24676,-15.56345" data-paper-data="{&quot;index&quot;:null}" fill="none" stroke-width="0.15" stroke-linecap="round"></path></g><path d="M219.49557,181.11698c0,0 -0.3774,-1.04968 0.06996,-1.48554c2.14437,-2.0893 9.11715,-7.45042 10.4917,-8.60547c0.48551,-0.40798 1.39837,0.04104 1.39837,0.04104l3.11332,3.705l-11.96001,10.05z" data-paper-data="{&quot;index&quot;:null}" fill="#ffe108" stroke="none" stroke-width="0" stroke-linecap="butt"></path></g></g></svg>