<svg version="1.1" xmlns="http://www.w3.org/2000/svg" xmlns:xlink="http://www.w3.org/1999/xlink" width="21.09024" height="16.25034" viewBox="0,0,21.09024,16.25034"><defs><linearGradient x1="239.26361" y1="173.03508" x2="239.03994" y2="175.47938" gradientUnits="userSpaceOnUse" id="color-1"><stop offset="0" stop-color="#dab03b"></stop><stop offset="1" stop-color="#ffce46"></stop></linearGradient><linearGradient x1="245.70553" y1="182.16813" x2="232.00061" y2="187.25392" gradientUnits="userSpaceOnUse" id="color-2"><stop offset="0" stop-color="#ddb958"></stop><stop offset="1" stop-color="#c2a34e"></stop></linearGradient><radialGradient cx="248.33714" cy="182.11378" r="5.83562" gradientUnits="userSpaceOnUse" id="color-3"><stop offset="0" stop-color="#ffffff" stop-opacity="0.59003"></stop><stop offset="1" stop-color="#ffffff" stop-opacity="0"></stop></radialGradient></defs><g transform="translate(-229.45488,-171.87483)"><g data-paper-data="{&quot;isPaintingLayer&quot;:true}" fill-rule="nonzero" stroke="none" stroke-linecap="butt" stroke-linejoin="miter" stroke-miterlimit="10" stroke-dasharray="" stroke-dashoffset="0" style="mix-blend-mode: normal"><text transform="translate(236.53199,175.77118) rotate(69.64048) scale(0.0879,0.0879)" font-size="40" xml:space="preserve" fill="#cacaca" fill-rule="nonzero" stroke="none" stroke-width="1" stroke-linecap="butt" stroke-linejoin="miter" stroke-miterlimit="10" stroke-dasharray="" stroke-dashoffset="0" font-family="Sans Serif" font-weight="normal" text-anchor="start" style="mix-blend-mode: normal"><tspan x="0" dy="0">xamt8</tspan></text><path d="M247.24074,187.57688c-1.30928,-0.04835 -2.36713,-3.07421 -2.36277,-6.75846c0.00436,-3.68425 1.06928,-6.63173 2.37857,-6.58338c1.30928,0.04835 2.36713,3.07421 2.36276,6.75846c-0.00436,3.68425 -1.06928,6.63173 -2.37857,6.58338z" fill="#ffffff" stroke-width="0"></path><path d="M239.7907,173.58604l2.87549,-1.43229l0.38747,0.59709l-2.87549,1.43229z" fill="#000000" stroke-width="0"></path><path d="M242.4176,172.63933c0,0 0.51916,-0.77303 0.79629,-0.76443c0.30484,0.00945 0.95754,0.81881 0.95754,0.81881l-0.07442,2.39996l-1.75381,-0.05438z" fill="#000000" stroke-width="0"></path><path d="M232.71119,172.11416l14.01755,2.09417l-0.22367,2.4443l-14.81749,-1.79732c0,0 -0.75584,-0.89358 -0.73619,-1.42401c0.0169,-0.45615 1.7598,-1.31715 1.7598,-1.31715z" fill="url(#color-1)" stroke-width="0"></path><path d="M230.8924,181.59953l15.12334,1.40454l1.15563,4.68573l-14.31739,-0.02904c0,0 -1.64923,-2.31478 -1.8252,-3.09542c-0.21759,-0.96524 -0.13638,-2.96581 -0.13638,-2.96581z" fill="url(#color-2)" stroke-width="0"></path><path d="M231.0736,174.2863l15.3267,0.32666l-0.21843,10.24857l-15.3267,-0.32666c0,0 -1.35166,-4.16239 -1.31315,-5.96926c0.02111,-0.99053 0.61895,-2.42322 1.0613,-3.35296c0.26251,-0.55174 0.47027,-0.92637 0.47027,-0.92637z" fill="#e7c25c" stroke-width="NaN"></path><path d="M230.65272,174.42071l15.3267,0.32666l-0.11686,5.48259c-0.34557,-0.04123 -0.69682,-0.05185 -1.04983,-0.03009c-2.54622,-0.27686 -4.91346,0.55889 -7.54447,0.09363c-2.85332,-0.50457 -5.06767,-0.97223 -7.81339,-1.22192c0.00002,-0.00097 0.08662,-0.03407 0.08664,-0.03503c0.02111,-0.99053 0.19855,-2.75974 0.64091,-3.68948c0.26251,-0.55174 0.47027,-0.92637 0.47027,-0.92637z" fill="#ffdd7f" stroke-width="NaN"></path><path d="M244.29213,174.51133l2.29835,0.21908l-0.90614,10.20913l-2.62235,-0.29585z" fill="#f2d074" stroke-width="0"></path><path d="M237.10028,175.60497l5.45689,0.85317l0.16976,1.00816l-5.87728,-1.18969z" fill="#000000" stroke-width="0"></path><path d="M247.56426,188.12459c-1.30928,-0.04835 -2.36713,-3.07421 -2.36277,-6.75846c0.00436,-3.68425 0.49806,-7.10928 1.80734,-7.06094c1.30928,0.04835 2.93835,3.55177 2.93399,7.23601c-0.00436,3.68425 -1.06928,6.63173 -2.37857,6.58338zM246.7269,181.14883c0.22557,0.60784 0.34312,6.05003 0.95096,5.82447c0.19803,-0.07349 0.95661,-0.30885 1.19805,-1.02424c0.49963,-1.48042 0.70141,-5.19475 0.54933,-5.60455c-0.13329,-0.35917 -0.61529,-3.27934 -1.06463,-4.1291c-0.31108,-0.58831 -0.68206,0.17599 -0.93073,0.26827c-0.60784,0.22557 -0.92856,4.05732 -0.70299,4.66516z" fill="#252525" stroke-width="0"></path><path d="M248.60586,187.9432c-1.21024,-0.05614 -2.31165,-2.71158 -2.46006,-5.93108c-0.14841,-3.2195 0.71237,-5.78392 1.92261,-5.72778c1.21024,0.05614 2.31165,2.71158 2.46007,5.93109c0.14841,3.2195 -0.71237,5.78392 -1.92262,5.72778z" fill="url(#color-3)" stroke-width="0"></path></g></g></svg>