<svg version="1.1" xmlns="http://www.w3.org/2000/svg" xmlns:xlink="http://www.w3.org/1999/xlink" width="33.51435" height="40.84259" viewBox="0,0,33.51435,40.84259"><g transform="translate(-223.20374,-161.25)"><g data-paper-data="{&quot;isPaintingLayer&quot;:true}" fill-rule="nonzero" stroke="none" stroke-linecap="butt" stroke-linejoin="miter" stroke-miterlimit="10" stroke-dasharray="" stroke-dashoffset="0" style="mix-blend-mode: normal"><g><path d="M239.10255,165.5127v-4.2627h1.22974v4.2627z" fill="#ffdfa0" stroke-width="NaN"></path><path d="M223.20375,193.96373v-14.67162h1.49326v14.67162z" fill="#eec268" stroke-width="0"></path><path d="M225.5754,202.0926v-19.8265h1.49326v19.8265z" fill="#eec268" stroke-width="0"></path><path d="M255.08919,193.56721v-14.67162h1.49326v14.67162z" data-paper-data="{&quot;index&quot;:null}" fill="#eec268" stroke-width="0"></path><path d="M253.06891,201.7952v-19.8265h1.49326v19.8265z" data-paper-data="{&quot;index&quot;:null}" fill="#eec268" stroke-width="0"></path><path d="M225.67787,184.84567l-2.08273,-4.25092l1.61427,-1.00736l2.08273,4.25092z" fill="#eec268" stroke-width="0"></path><path d="M253.0211,182.94612l2.08273,-4.25092l1.61427,1.00736l-2.08272,4.25093z" data-paper-data="{&quot;index&quot;:null}" fill="#eec268" stroke-width="0"></path><path d="M223.73078,180.38258v-1.48699c0,0 10.70999,-14.57248 16.07448,-14.57248c5.26202,0 15.81096,14.57248 15.81096,14.57248v1.48699c0,0 -10.54847,-12.98636 -15.8988,-12.98636c-5.27714,0 -15.98664,12.98636 -15.98664,12.98636z" fill="#eec268" stroke-width="0"></path><path d="M225.48756,184.54614v-1.36819c0,0 9.85437,-13.40829 14.79029,-13.40829c4.84164,0 14.54782,13.40829 14.54782,13.40829v1.36819c0,0 -9.70574,-11.94888 -14.62864,-11.94888c-4.85555,0 -14.70947,11.94888 -14.70947,11.94888z" fill="#eec268" stroke-width="0"></path><path d="M238.75121,171.46065v-5.15489h1.93246v5.15489z" fill="#eec268" stroke-width="0"></path><path d="M241.29852,161.79523c0,0.30112 -0.72755,0.54523 -1.62502,0.54523c-0.89747,0 -1.62502,-0.2441 -1.62502,-0.54523c0,-0.30112 0.72754,-0.54523 1.62502,-0.54523c0.89747,0 1.62502,0.2441 1.62502,0.54523z" fill="#ffdfa0" stroke-width="0"></path></g></g></g></svg>