<svg version="1.1" xmlns="http://www.w3.org/2000/svg" xmlns:xlink="http://www.w3.org/1999/xlink" width="255.15921" height="78.64482" viewBox="0,0,255.15921,78.64482"><defs><linearGradient x1="150.08379" y1="26.31874" x2="143.94942" y2="26.31874" gradientUnits="userSpaceOnUse" id="color-1"><stop offset="0" stop-color="#d27a00"></stop><stop offset="1" stop-color="#8d3800"></stop></linearGradient><linearGradient x1="224.22477" y1="59.64347" x2="224.45024" y2="124.31573" gradientUnits="userSpaceOnUse" id="color-2"><stop offset="0" stop-color="#fff700"></stop><stop offset="1" stop-color="#fff700" stop-opacity="0"></stop></linearGradient><linearGradient x1="234.2624" y1="63.21472" x2="263.59367" y2="65.60623" gradientUnits="userSpaceOnUse" id="color-3"><stop offset="0" stop-color="#bd00ff"></stop><stop offset="1" stop-color="#000000"></stop></linearGradient></defs><g transform="translate(-214.14798,-17.08568)"><g data-paper-data="{&quot;isPaintingLayer&quot;:true}" fill-rule="nonzero" stroke-linecap="butt" stroke-linejoin="miter" stroke-miterlimit="10" stroke-dasharray="" stroke-dashoffset="0" style="mix-blend-mode: normal"><path d="M215.14798,85.32149c0,-12.74828 0,-34.75185 0,-42.02357c0,-4.59582 7.98021,-9.92148 16.84266,-9.92148c27.27225,0 169.22845,0 219.0287,0c10.81842,0 17.28785,3.69338 17.28785,9.15276c0,12.86427 0,35.5341 0,42.7923c0,4.40002 -6.64776,9.409 -17.73302,9.409c-50.07659,0 -190.7088,0 -218.13833,0c-9.06978,0 -17.28784,-3.81273 -17.28784,-9.409z" fill-opacity="0.56452" fill="#291800" stroke="#fff4ce" stroke-width="2"></path><text transform="translate(225.5,27.56815) scale(0.25567,0.25567)" font-size="40" xml:space="preserve" fill="#fff4ce" fill-rule="nonzero" stroke="none" stroke-width="1" stroke-linecap="butt" stroke-linejoin="miter" stroke-miterlimit="10" stroke-dasharray="" stroke-dashoffset="0" font-family="Impact" font-weight="normal" text-anchor="start" style="mix-blend-mode: normal"><tspan x="0" dy="0">UNLOCKED ACHIVEMENT</tspan></text><text transform="translate(272.02612,47.89518) scale(0.30293,0.30293)" font-size="40" xml:space="preserve" fill="#fff4ce" fill-rule="nonzero" stroke="none" stroke-width="1" stroke-linecap="butt" stroke-linejoin="miter" stroke-miterlimit="10" stroke-dasharray="" stroke-dashoffset="0" font-family="Sans Serif" font-weight="normal" text-anchor="start" style="mix-blend-mode: normal"><tspan x="0" dy="0">Phew!</tspan></text><path d="M274.70702,62.80969c0,13.46649 -11.03605,24.38323 -24.64971,24.38323c-13.61366,0 -24.64971,-10.91674 -24.64971,-24.38323c0,-13.46649 11.03605,-24.38323 24.64971,-24.38323c13.61366,0 24.64971,10.91674 24.64971,24.38323z" fill="#a0a0a0" stroke="none" stroke-width="0"></path><text transform="translate(282.43503,61.01093) scale(0.2748,0.2748)" font-size="40" xml:space="preserve" fill="#fff4ce" fill-rule="nonzero" stroke="none" stroke-width="1" stroke-linecap="butt" stroke-linejoin="miter" stroke-miterlimit="10" stroke-dasharray="" stroke-dashoffset="0" font-family="Serif" font-weight="normal" text-anchor="start" style="mix-blend-mode: normal"><tspan x="0" dy="0">Evade Corrupted. I needed to stretch</tspan><tspan x="0" dy="48px">my legs.</tspan></text><g data-paper-data="{&quot;index&quot;:null}"><path d="" fill="url(#color-1)" stroke="none" stroke-width="0"></path><g data-paper-data="{&quot;index&quot;:null}"><path d="" fill="#fff4ce" stroke="#e6ddbb" stroke-width="2.5"></path><path d="" fill="#e6ddbb" stroke="#e6ddbb" stroke-width="0"></path><path d="" fill="#e6ddbb" stroke="none" stroke-width="0"></path><path d="" fill="#fff4ce" stroke="none" stroke-width="0.5"></path></g></g><path d="" data-paper-data="{&quot;index&quot;:null}" fill="#c1c1c1" stroke="#000000" stroke-width="5"></path><path d="" data-paper-data="{&quot;index&quot;:null}" fill="#c1c1c1" stroke="#000000" stroke-width="5"></path><path d="" data-paper-data="{&quot;index&quot;:null}" fill="#fff700" stroke="#ffffff" stroke-width="2"></path><path d="" data-paper-data="{&quot;index&quot;:null}" fill="#fff700" stroke="#ffffff" stroke-width="2"></path><path d="M231.65084,73.52401l-0.10482,-1.2578l0.50612,1.83747z" data-paper-data="{&quot;index&quot;:null}" fill="url(#color-2)" stroke="none" stroke-width="0"></path><path d="M263.59367,65.60623c-0.67892,8.3267 -7.79531,14.54147 -15.89492,13.88107c-8.09961,-0.66039 -14.11527,-7.94588 -13.43635,-16.27257c0.67892,-8.3267 7.79531,-14.54147 15.89491,-13.88107c8.09961,0.6604 14.11527,7.94587 13.43636,16.27258z" fill="url(#color-3)" stroke="none" stroke-width="0"></path><path d="M254.91242,58.13772c-0.12344,1.51395 -2.6781,2.5411 -5.70598,2.29423c-3.02788,-0.24688 -5.38242,-1.67431 -5.25897,-3.18825c0.12344,-1.51395 2.6781,-2.5411 5.70598,-2.29423c3.02788,0.24688 5.38242,1.6743 5.25897,3.18825z" fill="#ffffff" stroke="none" stroke-width="0"></path><path d="M248.62246,57.44092c0.06172,-0.75697 0.7254,-1.32059 1.48238,-1.25887c0.75698,0.06172 1.32059,0.7254 1.25887,1.48238c-0.06172,0.75697 -0.7254,1.32059 -1.48238,1.25887c-0.75698,-0.06172 -1.32059,-0.7254 -1.25887,-1.48237z" fill="#000000" stroke="none" stroke-width="0.5"></path><path d="M253.9402,58.00742c-0.20861,0.17923 -0.38785,-0.02938 -0.38785,-0.02938l-0.18356,-0.21789c-0.50678,-0.79433 -0.99834,-0.77955 -1.8629,-1.08719c0,0 -0.25911,-0.09221 -0.16691,-0.35132c0.0922,-0.25912 0.35132,-0.16691 0.35132,-0.16691c0.96377,0.34295 1.55906,0.39552 2.14222,1.30957l0.13705,0.15528c0,0 0.17923,0.20861 -0.02938,0.38785z" fill="#ff0000" stroke="none" stroke-width="0.5"></path><path d="M255.09337,63.81079c0,1.481 -0.49255,2.68158 -1.10013,2.68158c-0.60759,0 -1.10013,-1.20058 -1.10013,-2.68158c0,-1.481 0.63006,-4.19426 1.23765,-4.19426c0.60759,0 0.96262,2.71327 0.96262,4.19426z" fill="#006bff" stroke="none" stroke-width="0"></path><path d="M238.07079,85.38099v-10.75789h22.86053v10.75789z" fill="#9966ff" stroke="none" stroke-width="0"></path></g></g></svg>