<svg version="1.1" xmlns="http://www.w3.org/2000/svg" xmlns:xlink="http://www.w3.org/1999/xlink" width="10.34212" height="17.62767" viewBox="0,0,10.34212,17.62767"><defs><radialGradient cx="237.32457" cy="192.06165" r="1.25071" gradientUnits="userSpaceOnUse" id="color-1"><stop offset="0" stop-color="#ffffff" stop-opacity="0.53358"></stop><stop offset="1" stop-color="#46e3ff" stop-opacity="0.59161"></stop></radialGradient><radialGradient cx="240.84416" cy="191.66104" r="1.25071" gradientUnits="userSpaceOnUse" id="color-2"><stop offset="0" stop-color="#ffffff" stop-opacity="0.53358"></stop><stop offset="1" stop-color="#46e3ff" stop-opacity="0.55129"></stop></radialGradient><linearGradient x1="234.03885" y1="203.8512" x2="235.62053" y2="203.57622" gradientUnits="userSpaceOnUse" id="color-3"><stop offset="0" stop-color="#00fdff" stop-opacity="0.41129"></stop><stop offset="1" stop-color="#ffffff" stop-opacity="0.67742"></stop></linearGradient><linearGradient x1="244.99271" y1="202.501" x2="243.42224" y2="202.83413" gradientUnits="userSpaceOnUse" id="color-4"><stop offset="0" stop-color="#00fdff" stop-opacity="0.41129"></stop><stop offset="1" stop-color="#ffffff" stop-opacity="0.67742"></stop></linearGradient><linearGradient x1="236.60747" y1="195.05301" x2="237.07927" y2="194.82287" gradientUnits="userSpaceOnUse" id="color-5"><stop offset="0" stop-color="#948a00"></stop><stop offset="1" stop-color="#948a00" stop-opacity="0"></stop></linearGradient><linearGradient x1="242.24119" y1="195.16237" x2="241.76939" y2="194.93224" gradientUnits="userSpaceOnUse" id="color-6"><stop offset="0" stop-color="#948a00"></stop><stop offset="1" stop-color="#948a00" stop-opacity="0"></stop></linearGradient></defs><g transform="translate(-234.6413,-190.95928)"><g data-paper-data="{&quot;isPaintingLayer&quot;:true}" fill-rule="nonzero" stroke="none" stroke-linecap="butt" stroke-linejoin="miter" stroke-miterlimit="10" stroke-dasharray="" stroke-dashoffset="0" style="mix-blend-mode: normal"><path d="M239.43165,190.95928c1.78359,0 3.22948,1.41468 3.22948,3.15978c0,1.7451 -1.44589,3.15978 -3.22948,3.15978c-1.78359,0 -3.22948,-1.41468 -3.22948,-3.15978c0,-1.7451 1.44589,-3.15978 3.22948,-3.15978z" data-paper-data="{&quot;index&quot;:null}" fill="#000000" stroke-width="0"></path><path d="M241.88106,196.84407c0.15106,0 0.27389,1.69306 0.27389,3.78406c0,1.59176 0,2.583 0,4.17476c0,2.091 -0.12283,3.78406 -0.27389,3.78406c-1.05324,0 -3.93905,0 -4.99229,0c-0.15106,0 -0.27337,-1.69306 -0.27337,-3.78406c0,-1.59176 0,-2.583 0,-4.17476c0,-2.091 0.12231,-3.78406 0.27337,-3.78406c1.05324,0 3.93905,0 4.99229,0z" data-paper-data="{&quot;index&quot;:null}" fill="#000000" stroke-width="1"></path><path d="M243.34566,207.26372l-2.01986,-7.28306l1.63776,-0.84642l2.01986,7.28306z" data-paper-data="{&quot;index&quot;:null}" fill="#000000" stroke-width="0"></path><path d="M234.6413,207.55935l0.05012,-7.55779l1.80686,-0.36597l-0.05012,7.55779z" data-paper-data="{&quot;index&quot;:null}" fill="#000000" stroke-width="0"></path><path d="M236.26673,194.0268c0,0 0.12535,-1.13577 0.31661,-1.44135c0.17471,-0.27914 0.85142,-0.93242 0.85142,-0.93242l0.13833,0.74008c0,0 -0.68726,0.25029 -0.85327,0.51553c-0.19635,0.3137 -0.24915,1.24582 -0.24915,1.24582z" fill="url(#color-1)" stroke-width="NaN"></path><path d="M242.36424,193.33384c0,0 -0.3694,-0.85742 -0.66146,-1.08471c-0.24694,-0.19218 -0.97835,-0.19148 -0.97835,-0.19148l-0.12399,-0.74262c0,0 0.85977,0.38145 1.11965,0.5837c0.2845,0.22141 0.79192,1.24523 0.79192,1.24523z" data-paper-data="{&quot;index&quot;:null}" fill="url(#color-2)" stroke-width="NaN"></path><path d="M234.67886,207.53251l-0.02573,-7.63523l0.61129,-0.02951l-0.30125,7.66989z" fill="url(#color-3)" stroke-width="0"></path><path d="M244.81279,206.43081l-2.43955,-7.17147l0.57839,-0.20001l1.9653,7.31417z" data-paper-data="{&quot;index&quot;:null}" fill="url(#color-4)" stroke-width="0"></path><path d="M237.7464,196.93617c0,0 -1.07048,-1.23209 -1.18809,-1.4732c-0.1517,-0.311 -0.36798,-1.26509 -0.36798,-1.26509l0.4718,-0.23014l1.24986,2.08211z" fill="url(#color-5)" stroke-width="0"></path><path d="M240.93667,196.15921l1.24986,-2.08211l0.4718,0.23014c0,0 -0.21628,0.95408 -0.36798,1.26509c-0.11761,0.2411 -1.18809,1.4732 -1.18809,1.4732z" data-paper-data="{&quot;index&quot;:null}" fill="url(#color-6)" stroke-width="0"></path></g></g></svg>