<svg version="1.1" xmlns="http://www.w3.org/2000/svg" xmlns:xlink="http://www.w3.org/1999/xlink" width="112.01058" height="84.64157" viewBox="0,0,112.01058,84.64157"><defs><linearGradient x1="192.8719" y1="201.95413" x2="198.90711" y2="210.04132" gradientUnits="userSpaceOnUse" id="color-1"><stop offset="0" stop-color="#f5d95e" stop-opacity="0.76745"></stop><stop offset="1" stop-color="#f5d95e" stop-opacity="0"></stop></linearGradient><linearGradient x1="187.09917" y1="202.04504" x2="193.13439" y2="210.13223" gradientUnits="userSpaceOnUse" id="color-2"><stop offset="0" stop-color="#f5d95e" stop-opacity="0.76745"></stop><stop offset="1" stop-color="#f5d95e" stop-opacity="0"></stop></linearGradient></defs><g transform="translate(-183.64398,-136.67926)"><g data-paper-data="{&quot;isPaintingLayer&quot;:true}" fill-rule="nonzero" stroke-linejoin="miter" stroke-miterlimit="10" stroke-dasharray="" stroke-dashoffset="0" style="mix-blend-mode: normal"><path d="M199.75,140.91669c0,1.01252 -2.94746,1.83333 -6.58333,1.83333c-3.63587,0 -6.58333,-0.82081 -6.58333,-1.83333c0,-1.01252 2.94746,-1.83333 6.58333,-1.83333c3.63587,0 6.58333,0.82081 6.58333,1.83333z" fill="#96949b" stroke="none" stroke-width="0" stroke-linecap="butt"></path><path d="M188.75,141.25002c0,1.01252 -0.7835,1.83333 -1.75,1.83333c-0.9665,0 -1.75,-0.82081 -1.75,-1.83333c0,-1.01252 0.7835,-1.83333 1.75,-1.83333c0.9665,0 1.75,0.82081 1.75,1.83333z" fill="#b4b2b9" stroke="none" stroke-width="0" stroke-linecap="butt"></path><path d="M197.15553,140.84841c0.08105,-1.37774 4.46533,-2.24058 9.7926,-1.92721c5.32726,0.31337 9.58015,1.68428 9.49911,3.06202c-0.08105,1.37774 -4.46533,2.24059 -9.7926,1.92722c-5.32726,-0.31337 -9.58015,-1.68429 -9.49911,-3.06203z" data-paper-data="{&quot;index&quot;:null}" fill="#484848" stroke="none" stroke-width="0" stroke-linecap="butt"></path><path d="M213.37444,143.13772c-0.21819,-1.2695 1.92047,-2.69661 4.77684,-3.18755c2.85637,-0.49094 5.3488,0.14021 5.56699,1.40971c0.2182,1.2695 -1.92047,2.69661 -4.77684,3.18755c-2.85637,0.49094 -5.3488,-0.14021 -5.56699,-1.40971z" data-paper-data="{&quot;index&quot;:null}" fill="#696969" stroke="none" stroke-width="0" stroke-linecap="butt"></path><path d="M221.6311,142.29571c-0.0283,-1.10374 3.6769,-2.09408 8.27579,-2.212c4.59889,-0.11792 8.34997,0.68124 8.37827,1.78498c0.0283,1.10374 -3.6769,2.09408 -8.27579,2.212c-4.59889,0.11792 -8.34997,-0.68124 -8.37827,-1.78498z" data-paper-data="{&quot;index&quot;:null}" fill="#a3a3a3" stroke="none" stroke-width="0" stroke-linecap="butt"></path><path d="M235.65814,143.09186c-0.12615,-1.18944 2.62717,-2.45652 6.14972,-2.83013c3.52256,-0.3736 6.48042,0.28775 6.60657,1.47718c0.12615,1.18944 -2.62717,2.45652 -6.14973,2.83013c-3.52256,0.3736 -6.48041,-0.28775 -6.60656,-1.47718z" data-paper-data="{&quot;index&quot;:null}" fill="#696969" stroke="none" stroke-width="0" stroke-linecap="butt"></path><path d="M244.41462,140.04281c0.24656,-1.21739 3.29745,-1.62686 6.81436,-0.91458c3.51691,0.71229 6.16805,2.2766 5.92149,3.49399c-0.24656,1.21739 -3.29746,1.62686 -6.81437,0.91458c-3.51691,-0.71229 -6.16804,-2.2766 -5.92148,-3.49399z" data-paper-data="{&quot;index&quot;:null}" fill="#a9a9a9" stroke="none" stroke-width="0" stroke-linecap="butt"></path><path d="M253.78126,142.91518c0,-1.47213 2.57326,-2.66553 5.74754,-2.66553c3.17428,0 5.74753,1.1934 5.74753,2.66553c0,1.47213 -2.57325,2.66553 -5.74753,2.66553c-3.17428,0 -5.74754,-1.1934 -5.74754,-2.66553z" data-paper-data="{&quot;index&quot;:null}" fill="#7e7e7e" stroke="none" stroke-width="0" stroke-linecap="butt"></path><path d="M259.77869,142.0822c0,-1.65615 7.79437,-2.99871 17.40921,-2.99871c9.61484,0 17.40921,1.34257 17.40921,2.99871c0,1.65615 -7.79437,2.99872 -17.40921,2.99872c-9.61484,0 -17.40921,-1.34257 -17.40921,-2.99872z" data-paper-data="{&quot;index&quot;:null}" fill="#444444" stroke="none" stroke-width="0" stroke-linecap="butt"></path><path d="M294.09739,140.74944v4.83127h-108.78674v-4.83127z" data-paper-data="{&quot;index&quot;:null}" fill-opacity="0.00806" fill="#a1a1a1" stroke="none" stroke-width="0" stroke-linecap="butt"></path><path d="M293.43029,214.61017c0,1.1041 -1.41716,1.99914 -3.16532,1.99914c-1.74815,0 -3.16531,-0.89504 -3.16531,-1.99914c0,-1.1041 1.41715,-1.99914 3.16531,-1.99914c1.74815,0 3.16532,0.89505 3.16532,1.99914z" fill="#b1b1b1" stroke="none" stroke-width="0" stroke-linecap="butt"></path><path d="M288.25552,215.98294c-0.58472,1.82041 -3.10527,2.79342 -5.62979,2.17327c-2.52452,-0.62015 -4.09704,-2.59862 -3.51232,-4.41904c0.58472,-1.82041 3.10527,-2.79342 5.62979,-2.17327c2.52452,0.62015 4.09704,2.59862 3.51232,4.41904z" fill="#a1a1a1" stroke="none" stroke-width="0" stroke-linecap="butt"></path><path d="M281.08556,216.01055c-0.08105,1.37774 -4.46533,2.24058 -9.7926,1.92721c-5.32726,-0.31337 -9.58015,-1.68428 -9.49911,-3.06202c0.08105,-1.37774 4.46533,-2.24059 9.7926,-1.92722c5.32726,0.31337 9.58015,1.68429 9.49911,3.06203z" fill="#484848" stroke="none" stroke-width="0" stroke-linecap="butt"></path><path d="M264.86665,213.72124c0.21819,1.2695 -1.92047,2.69661 -4.77684,3.18755c-2.85637,0.49094 -5.3488,-0.14021 -5.56699,-1.40971c-0.2182,-1.2695 1.92047,-2.69661 4.77684,-3.18755c2.85637,-0.49094 5.3488,0.14021 5.56699,1.40971z" fill="#696969" stroke="none" stroke-width="0" stroke-linecap="butt"></path><path d="M256.60999,214.56325c0.0283,1.10374 -3.6769,2.09408 -8.27579,2.212c-4.59889,0.11792 -8.34997,-0.68124 -8.37827,-1.78498c-0.0283,-1.10374 3.6769,-2.09408 8.27579,-2.212c4.59889,-0.11792 8.34997,0.68124 8.37827,1.78498z" fill="#a3a3a3" stroke="none" stroke-width="0" stroke-linecap="butt"></path><path d="M242.58295,213.7671c0.12615,1.18944 -2.62717,2.45652 -6.14972,2.83013c-3.52256,0.3736 -6.48042,-0.28775 -6.60657,-1.47718c-0.12615,-1.18944 2.62717,-2.45652 6.14973,-2.83013c3.52256,-0.3736 6.48041,0.28775 6.60656,1.47718z" fill="#696969" stroke="none" stroke-width="0" stroke-linecap="butt"></path><path d="M233.82647,216.81615c-0.24656,1.21739 -3.29745,1.62686 -6.81436,0.91458c-3.51691,-0.71229 -6.16805,-2.2766 -5.92149,-3.49399c0.24656,-1.21739 3.29746,-1.62686 6.81437,-0.91458c3.51691,0.71229 6.16804,2.2766 5.92148,3.49399z" fill="#a9a9a9" stroke="none" stroke-width="0" stroke-linecap="butt"></path><path d="M224.45983,213.94378c0,1.47213 -2.57326,2.66553 -5.74754,2.66553c-3.17428,0 -5.74753,-1.1934 -5.74753,-2.66553c0,-1.47213 2.57325,-2.66553 5.74753,-2.66553c3.17428,0 5.74754,1.1934 5.74754,2.66553z" fill="#7e7e7e" stroke="none" stroke-width="0" stroke-linecap="butt"></path><path d="M218.4624,214.77676c0,1.65615 -7.79437,2.99871 -17.40921,2.99871c-9.61484,0 -17.40921,-1.34257 -17.40921,-2.99871c0,-1.65615 7.79437,-2.99872 17.40921,-2.99872c9.61484,0 17.40921,1.34257 17.40921,2.99872z" fill="#444444" stroke="none" stroke-width="0" stroke-linecap="butt"></path><path d="M183.73866,221.32083v-5.51584h110.58727v5.51584z" fill="#757575" stroke="none" stroke-width="0.5" stroke-linecap="butt"></path><path d="M293.91806,175.60087v-3.02982h1.04879v3.02982z" fill="#b7b7b7" stroke="none" stroke-width="0.5" stroke-linecap="butt"></path><path d="M183.8833,140.8744v-4.19514h110.79222v4.19514z" fill="#686868" stroke="none" stroke-width="0.5" stroke-linecap="butt"></path><path d="M183.73863,219.77805v-80.90803h1.86451v80.90803z" fill="#686868" stroke="none" stroke-width="0.5" stroke-linecap="butt"></path><path d="M200.03714,215.85579v-21.45499h1.17885v21.45499z" fill="#999999" stroke="none" stroke-width="0" stroke-linecap="butt"></path><path d="M199.14291,162.38505v-21.45499h1.17884v21.45499z" fill="#999999" stroke="none" stroke-width="0" stroke-linecap="butt"></path><path d="M200.33403,201.56653l21.45155,0.38412l-0.02111,1.17866l-21.45155,-0.38412z" fill="#999999" stroke="none" stroke-width="0" stroke-linecap="butt"></path><path d="M200.17172,155.75709l21.45155,0.38412l-0.02111,1.17866l-21.45155,-0.38412z" fill="#999999" stroke="none" stroke-width="0" stroke-linecap="butt"></path><path d="M274.02471,215.52474v-21.45499h1.17885v21.45499z" data-paper-data="{&quot;index&quot;:null}" fill="#999999" stroke="none" stroke-width="0" stroke-linecap="butt"></path><path d="M274.91895,162.054v-21.45499h1.17884v21.45499z" data-paper-data="{&quot;index&quot;:null}" fill="#999999" stroke="none" stroke-width="0" stroke-linecap="butt"></path><path d="M274.92778,202.41414l-21.45155,0.38412l-0.02111,-1.17866l21.45155,-0.38412z" data-paper-data="{&quot;index&quot;:null}" fill="#999999" stroke="none" stroke-width="0" stroke-linecap="butt"></path><path d="M275.0901,156.6047l-21.45155,0.38412l-0.02111,-1.17866l21.45155,-0.38412z" data-paper-data="{&quot;index&quot;:null}" fill="#999999" stroke="none" stroke-width="0" stroke-linecap="butt"></path><path d="M184.1437,216.10952v-4.83127h108.78674v4.83127z" fill-opacity="0.00806" fill="#a1a1a1" stroke="none" stroke-width="0" stroke-linecap="butt"></path><g><path d="M202.49202,210.90004v-4.82399h5.03373v4.82399z" fill="#b17e37" stroke="#916842" stroke-width="0.5" stroke-linecap="butt"></path><path d="M203.42419,209.94457v-2.93634h2.93634v2.93634z" fill="#825d28" stroke="#916842" stroke-width="0" stroke-linecap="butt"></path><path d="M202.31724,205.99449l1.02539,0.93217" fill="none" stroke="#d4a158" stroke-width="0.15" stroke-linecap="round"></path><path d="M206.27897,207.11309l1.16522,-0.88556" fill="none" stroke="#d4a158" stroke-width="0.15" stroke-linecap="round"></path><path d="M207.35097,210.65535l-0.97878,-0.74574" fill="none" stroke="#d4a158" stroke-width="0.15" stroke-linecap="round"></path><path d="M203.48246,210.00283l-0.88556,0.5127" fill="none" stroke="#d4a158" stroke-width="0.15" stroke-linecap="round"></path><path d="M202.20238,206.70027v-0.3995h5.44322v0.3995z" fill="#caa784" stroke="none" stroke-width="NaN" stroke-linecap="butt"></path><path d="M204.52727,209.09729v-0.69913h0.42724v0.69913z" fill="#ff6666" stroke="none" stroke-width="NaN" stroke-linecap="butt"></path><path d="M204.1777,208.47584l0.46609,-0.77681l0.62144,0.77681z" fill="#ff6666" stroke="none" stroke-width="0" stroke-linecap="butt"></path></g><g><path d="M208.38091,211.01115v-4.82399h5.03373v4.82399z" fill="#b17e37" stroke="#916842" stroke-width="0.5" stroke-linecap="butt"></path><path d="M209.31308,210.05568v-2.93634h2.93634v2.93634z" fill="#825d28" stroke="#916842" stroke-width="0" stroke-linecap="butt"></path><path d="M208.20613,206.1056l1.02539,0.93217" fill="none" stroke="#d4a158" stroke-width="0.15" stroke-linecap="round"></path><path d="M212.16786,207.2242l1.16522,-0.88557" fill="none" stroke="#d4a158" stroke-width="0.15" stroke-linecap="round"></path><path d="M212.26108,210.02072l0.97878,0.74574" fill="none" stroke="#d4a158" stroke-width="0.15" stroke-linecap="round"></path><path d="M209.37135,210.11394l-0.88556,0.51269" fill="none" stroke="#d4a158" stroke-width="0.15" stroke-linecap="round"></path><path d="M208.09127,206.81138v-0.3995h5.44322v0.3995z" fill="#caa784" stroke="none" stroke-width="NaN" stroke-linecap="butt"></path><path d="M210.41616,209.2084v-0.69913h0.42724v0.69913z" fill="#ff6666" stroke="none" stroke-width="NaN" stroke-linecap="butt"></path><path d="M210.06659,208.58695l0.46609,-0.77681l0.62144,0.77681z" fill="#ff6666" stroke="none" stroke-width="0" stroke-linecap="butt"></path></g><g data-paper-data="{&quot;index&quot;:null}"><path d="M205.04445,206.12226v-4.82399h5.03373v4.82399z" fill="#b17e37" stroke="#916842" stroke-width="0.5" stroke-linecap="butt"></path><path d="M206.20967,205.16679v-2.93634h2.93634v2.93634z" fill="#825d28" stroke="#916842" stroke-width="0" stroke-linecap="butt"></path><path d="M210.25297,201.21671l-1.02539,0.93217" fill="none" stroke="#d4a158" stroke-width="0.15" stroke-linecap="round"></path><path d="M205.12602,201.44974l1.16521,0.88557" fill="none" stroke="#d4a158" stroke-width="0.15" stroke-linecap="round"></path><path d="M205.21924,205.87757l0.97878,-0.74574" fill="none" stroke="#d4a158" stroke-width="0.15" stroke-linecap="round"></path><path d="M209.08775,205.22505l0.88557,0.51269" fill="none" stroke="#d4a158" stroke-width="0.15" stroke-linecap="round"></path><path d="M204.9246,201.92249v-0.3995h5.44322v0.3995z" fill="#caa784" stroke="none" stroke-width="NaN" stroke-linecap="butt"></path><path d="M207.61569,204.31951v-0.69913h0.42724v0.69913z" fill="#ff6666" stroke="none" stroke-width="NaN" stroke-linecap="butt"></path><path d="M207.30497,203.69806l0.62144,-0.77681l0.46608,0.77681z" fill="#ff6666" stroke="none" stroke-width="0" stroke-linecap="butt"></path></g><g><path d="M185.66223,202.95227v-0.90909h8v0.90909z" fill="#f5c900" stroke="none" stroke-width="0" stroke-linecap="butt"></path><path d="M189.48041,204.36136l-1.86363,-1.09091" data-paper-data="{&quot;index&quot;:null}" fill="none" stroke="#000000" stroke-width="0.15" stroke-linecap="round"></path><path d="M192.02587,203.36136l-1.86364,1.09091" fill="none" stroke="#000000" stroke-width="0.15" stroke-linecap="round"></path><path d="M187.01714,209.68742l0.10688,-0.52251l2.67789,0.54775l-0.10688,0.52251z" fill="#000000" stroke="none" stroke-width="0" stroke-linecap="butt"></path><path d="M189.77619,212.7667l-0.2,-3.06667h0.6v2.8z" fill="#000000" stroke="none" stroke-width="0" stroke-linecap="butt"></path><path d="M189.62034,210.22322l-0.06249,-0.46247l2.84085,-0.38389l0.06249,0.46246z" fill="#000000" stroke="none" stroke-width="0" stroke-linecap="butt"></path><path d="M189.44285,210.43337v-7.6h0.8v7.6z" fill="#f5c900" stroke="none" stroke-width="0" stroke-linecap="butt"></path><path d="M189.44285,206.43337v-0.4h0.8v0.4z" fill="#000000" stroke="none" stroke-width="0" stroke-linecap="butt"></path><path d="M189.36917,202.96304v-0.94737h0.78948v0.94737c0,0 -0.15352,0.18182 -0.26914,0.18182c-0.14206,0 -0.52034,-0.18182 -0.52034,-0.18182z" fill="#040400" stroke="none" stroke-width="0" stroke-linecap="butt"></path><path d="M185.4218,203.07548v-2.05263h3v2.05263z" fill="#f5e49a" stroke="#000000" stroke-width="0.5" stroke-linecap="butt"></path><path d="M186.02586,202.725l-0.04545,-1.5" fill="none" stroke="#000000" stroke-width="0.25" stroke-linecap="round"></path><path d="M186.93496,202.81591l-0.04545,-1.59091" fill="none" stroke="#000000" stroke-width="0.25" stroke-linecap="round"></path><path d="M187.84405,202.67955l-0.04545,-1.36364" fill="none" stroke="#000000" stroke-width="0.25" stroke-linecap="round"></path><path d="M188.02587,202.17955c0,0 -0.74157,0.24303 -1.13982,0.228c-0.40468,-0.01527 -1.26927,-0.31891 -1.26927,-0.31891" fill="none" stroke="#000000" stroke-width="0.25" stroke-linecap="round"></path><path d="M191.24238,203.12093v-2.05263h3v2.05263z" data-paper-data="{&quot;index&quot;:null}" fill="#f5e49a" stroke="#000000" stroke-width="0.5" stroke-linecap="butt"></path><path d="M193.63831,202.77045l0.04546,-1.5" data-paper-data="{&quot;index&quot;:null}" fill="none" stroke="#000000" stroke-width="0.25" stroke-linecap="round"></path><path d="M192.77468,201.27045l-0.04546,1.59091" data-paper-data="{&quot;index&quot;:null}" fill="none" stroke="#000000" stroke-width="0.25" stroke-linecap="round"></path><path d="M191.82013,202.725l0.04546,-1.36364" data-paper-data="{&quot;index&quot;:null}" fill="none" stroke="#000000" stroke-width="0.25" stroke-linecap="round"></path><path d="M194.0474,202.13409c0,0 -0.86459,0.30364 -1.26927,0.31891c-0.39825,0.01503 -1.13982,-0.228 -1.13982,-0.228" data-paper-data="{&quot;index&quot;:null}" fill="none" stroke="#000000" stroke-width="0.25" stroke-linecap="round"></path><path d="M197.55925,211.04719l-6.03522,-8.08719c0,0 -0.42015,-1.42051 0.00904,-1.7408c0.46631,-0.34799 2.68669,-0.27094 2.68669,-0.27094l6.03522,8.08719z" fill="url(#color-1)" stroke="none" stroke-width="0" stroke-linecap="butt"></path><path d="M191.78652,211.1381l-6.03521,-8.08719c0,0 -0.42014,-1.42051 0.00904,-1.7408c0.46631,-0.34799 2.68669,-0.27093 2.68669,-0.27093l6.03521,8.08719z" fill="url(#color-2)" stroke="none" stroke-width="0" stroke-linecap="butt"></path></g><g><path d="M285.89764,200.6356l0.82393,-5.43794l5.43794,0.82393l-0.82393,5.43794z" fill="#b17e37" stroke="#784000" stroke-width="0.5" stroke-linecap="butt"></path><path d="M286.73955,196.41409l5.05743,0.66514" fill="none" stroke="#845a2a" stroke-width="0.15" stroke-linecap="round"></path><path d="M286.45492,198.29265l4.9286,0.8479" fill="none" stroke="#845a2a" stroke-width="0.15" stroke-linecap="round"></path><path d="M286.34406,199.69183l4.81474,0.93179" fill="none" stroke="#845a2a" stroke-width="0.15" stroke-linecap="round"></path></g><path d="M293.16393,220.90067v-84.11628h2.49063v84.11628z" fill="#686868" stroke="none" stroke-width="0.5" stroke-linecap="butt"></path></g></g></svg>