<svg version="1.1" xmlns="http://www.w3.org/2000/svg" xmlns:xlink="http://www.w3.org/1999/xlink" width="109.58333" height="136.33333" viewBox="0,0,109.58333,136.33333"><defs><linearGradient x1="243.21847" y1="141.51811" x2="243.53492" y2="159.13467" gradientUnits="userSpaceOnUse" id="color-1"><stop offset="0" stop-color="#e4d0a2"></stop><stop offset="1" stop-color="#80745b"></stop></linearGradient><linearGradient x1="240.77466" y1="96.43175" x2="241.69853" y2="147.86351" gradientUnits="userSpaceOnUse" id="color-2"><stop offset="0" stop-color="#e4d0a2"></stop><stop offset="1" stop-color="#80745b"></stop></linearGradient><linearGradient x1="266.14421" y1="137.66778" x2="266.30631" y2="146.6909" gradientUnits="userSpaceOnUse" id="color-3"><stop offset="0" stop-color="#e4d0a2"></stop><stop offset="1" stop-color="#80745b"></stop></linearGradient><linearGradient x1="253.26975" y1="145.90159" x2="253.46767" y2="156.9203" gradientUnits="userSpaceOnUse" id="color-4"><stop offset="0" stop-color="#e4d0a2"></stop><stop offset="1" stop-color="#80745b"></stop></linearGradient><linearGradient x1="266.47108" y1="140.59069" x2="266.56845" y2="146.0126" gradientUnits="userSpaceOnUse" id="color-5"><stop offset="0" stop-color="#e4d0a2"></stop><stop offset="1" stop-color="#80745b"></stop></linearGradient><linearGradient x1="262.71731" y1="145.8964" x2="262.7491" y2="147.66623" gradientUnits="userSpaceOnUse" id="color-6"><stop offset="0" stop-color="#e4d0a2"></stop><stop offset="1" stop-color="#80745b"></stop></linearGradient><linearGradient x1="247.81642" y1="157.80739" x2="247.99355" y2="167.66847" gradientUnits="userSpaceOnUse" id="color-7"><stop offset="0" stop-color="#e4d0a2"></stop><stop offset="1" stop-color="#80745b"></stop></linearGradient><linearGradient x1="248.15133" y1="166.20969" x2="248.18312" y2="167.97947" gradientUnits="userSpaceOnUse" id="color-8"><stop offset="0" stop-color="#e4d0a2"></stop><stop offset="1" stop-color="#80745b"></stop></linearGradient><radialGradient cx="224.34233" cy="110.97467" r="33.04975" gradientUnits="userSpaceOnUse" id="color-9"><stop offset="0" stop-color="#ffffff"></stop><stop offset="1" stop-color="#ffe9b6"></stop></radialGradient></defs><g transform="translate(-185.75,-59.65232)"><g data-paper-data="{&quot;isPaintingLayer&quot;:true}" fill-rule="nonzero" stroke-linejoin="miter" stroke-miterlimit="10" stroke-dasharray="" stroke-dashoffset="0" style="mix-blend-mode: normal"><path d="M185.75,194.30769v-28.61538c0,0 4.4881,-61.78525 22.65211,-91.59379c6.16944,-10.12454 28.51309,-13.90621 33.09789,-13.90621c5.33729,0 23.6192,5.69044 30.52803,18.64623c16.49908,30.93988 22.22197,86.85377 22.22197,86.85377v28.61538z" fill="#c1854d" stroke="none" stroke-width="0" stroke-linecap="butt"></path><path d="M186,195.98566v-10.33334h109.33333v10.33334z" fill="#af4c00" stroke="#ffffff" stroke-width="0" stroke-linecap="butt"></path><path d="M215,68.65233l1.33333,115.66667" fill="none" stroke="#af4c00" stroke-width="2" stroke-linecap="round"></path><path d="M234.66667,60.65233l-0.66667,125.33333" fill="none" stroke="#af4c00" stroke-width="2" stroke-linecap="round"></path><path d="M251.66667,63.31899l7.33333,124.66667" fill="none" stroke="#af4c00" stroke-width="2" stroke-linecap="round"></path><path d="M272,186.65233l-1,-108.66667" fill="none" stroke="#af4c00" stroke-width="2" stroke-linecap="round"></path><path d="M286.66667,121.65233l2,66" fill="none" stroke="#af4c00" stroke-width="2" stroke-linecap="round"></path><path d="M188.66666,188.65232l-1.33333,-36.33333" fill="none" stroke="#af4c00" stroke-width="2" stroke-linecap="round"></path><path d="M201.33333,90.98566l-1,94.33333" fill="none" stroke="#af4c00" stroke-width="2" stroke-linecap="round"></path><g><text transform="translate(213.5212,134.92295) scale(0.46904,0.46904)" font-size="40" xml:space="preserve" fill="#ffffff" fill-rule="nonzero" stroke="none" stroke-width="1" stroke-linecap="butt" stroke-linejoin="miter" stroke-miterlimit="10" stroke-dasharray="" stroke-dashoffset="0" font-family="Curly" font-weight="normal" text-anchor="start" style="mix-blend-mode: normal"><tspan x="0" dy="0">xAmt8</tspan></text><g><path d="M236.66015,159.2582l-8.90992,-17.4622l30.95188,0.3036l-10.44851,16.52052z" fill="url(#color-1)" stroke="none" stroke-width="0" stroke-linecap="butt"></path><path d="M217.42264,141.12185c0,0 -8.13342,-5.39898 -9.01792,-8.99996c-0.51066,-2.07908 2.91599,-5.61679 3.11656,-9.24895c0.3694,-6.68872 -1.98196,-13.84536 -1.98196,-13.84536c0,0 20.36006,-12.40048 30.72032,-12.58658c11.0756,-0.19895 33.73059,11.4288 33.73059,11.4288c0,0 -2.9438,12.23567 -3.00006,20.68652c-0.01661,2.49602 3.74837,4.59847 3.51185,6.03703c-0.52664,3.20306 -6.32397,8.62539 -6.32397,8.62539c0,0 -4.06394,4.05832 -7.19032,4.28644c-5.64322,0.41172 -13.14227,-5.36237 -20.68331,-5.99963c-5.77604,-0.48808 -12.07126,4.17812 -14.60254,4.07358c-2.58877,-0.10696 -8.2792,-4.45732 -8.2792,-4.45732z" fill="url(#color-2)" stroke="none" stroke-width="NaN" stroke-linecap="butt"></path><path d="M258.78702,146.82598l14.87647,-9.29326" fill="url(#color-3)" stroke="#ffffff" stroke-width="1" stroke-linecap="round"></path><path d="M257.99205,145.81675l-9.24666,11.18836" fill="url(#color-4)" stroke="#ffffff" stroke-width="1" stroke-linecap="round"></path><path d="M271.01847,140.509l-8.99744,5.58526" fill="url(#color-5)" stroke="#ffffff" stroke-width="1" stroke-linecap="round"></path><path d="M265.19122,147.26203l-4.91606,-0.96144" fill="url(#color-6)" stroke="#ffffff" stroke-width="1" stroke-linecap="round"></path><path d="M246.3868,165.88107l0.03038,-8.04855l2.9733,-0.0534l0.14768,8.22033c0,0 -1.18005,1.69383 -1.75237,1.67228c-0.44662,-0.01679 -1.39897,-1.79063 -1.39897,-1.79063z" fill="url(#color-7)" stroke="#e4d0a2" stroke-width="0.5" stroke-linecap="butt"></path><path d="M247.28233,167.11049c-0.00877,-0.48873 0.3803,-0.89203 0.869,-0.90081c0.48873,-0.00877 0.89203,0.3803 0.90081,0.869c0.00877,0.48873 -0.3803,0.89203 -0.869,0.90081c-0.48873,0.00877 -0.89203,-0.3803 -0.90081,-0.869z" fill="url(#color-8)" stroke="none" stroke-width="0.5" stroke-linecap="butt"></path></g><path d="M232.12788,161.55256l-8.90992,-17.4622l30.95188,0.3036l-10.44851,16.52052z" fill="#ffe9b6" stroke="none" stroke-width="0" stroke-linecap="butt"></path><path d="M212.89038,143.41626c0,0 -8.13342,-5.39898 -9.01792,-8.99996c-0.51066,-2.07908 2.91599,-5.61679 3.11656,-9.24895c0.3694,-6.68872 -1.98196,-13.84536 -1.98196,-13.84536c0,0 20.36006,-12.40048 30.72032,-12.58658c11.0756,-0.19895 33.73059,11.4288 33.73059,11.4288c0,0 -2.9438,12.23567 -3.00006,20.68652c-0.01661,2.49602 3.74837,4.59847 3.51185,6.03703c-0.52664,3.20306 -6.32397,8.62539 -6.32397,8.62539c0,0 -4.06394,4.05832 -7.19032,4.28644c-5.64322,0.41172 -13.14227,-5.36237 -20.68331,-5.99963c-5.77604,-0.48808 -12.07126,4.17812 -14.60254,4.07358c-2.58877,-0.10696 -8.2792,-4.45732 -8.2792,-4.45732z" fill="url(#color-9)" stroke="none" stroke-width="NaN" stroke-linecap="butt"></path><path d="M251.28052,103.18395l-4.54116,10.39706l-4.7727,-2.49314" fill="none" stroke="#e4d0a2" stroke-width="1" stroke-linecap="round"></path><path d="M248.94174,116.55011l-3.06172,-2.95367" fill="none" stroke="#e4d0a2" stroke-width="1" stroke-linecap="round"></path><path d="M214.7346,138.67568c0,0 -0.86842,-3.69502 -0.90466,-5.71248c-0.0395,-2.19849 0.6766,-6.98212 0.6766,-6.98212c0,0 4.10271,-6.24166 6.05518,-6.27672c2.66082,-0.04779 8.45293,6.01611 8.45293,6.01611c0,0 1.16261,4.12891 1.19888,6.14643c0.0395,2.19849 -0.97084,6.54822 -0.97084,6.54822c0,0 -6.68677,3.96794 -9.36118,4.01598c-1.85575,0.03331 -5.14693,-3.75535 -5.14693,-3.75535z" fill="#80745b" stroke="#e4d0a2" stroke-width="1" stroke-linecap="butt"></path><path d="M210.70344,141.30649l13.42792,5.77615" fill="none" stroke="#ffffff" stroke-width="1" stroke-linecap="round"></path><path d="M235.27609,148.99705l-0.08427,-4.6901c0,0 2.4835,-9.59333 3.5136,-9.61183c1.34278,-0.02412 3.85655,9.47943 3.85655,9.47943l0.08427,4.6901c0,0 -2.74793,-6.77113 -4.08027,-6.74722c-1.06307,0.01908 -3.28986,6.87962 -3.28986,6.87962z" fill="#80745b" stroke="#e4d0a2" stroke-width="0.5" stroke-linecap="butt"></path><path d="M253.02098,141.06472c-0.7127,0.01281 -3.13337,6.16511 -4.29528,7.92295c-0.5573,0.84317 -0.58502,0.77382 -1.12715,0.54863c-2.56881,-1.06708 0.42808,-10.81414 0.42808,-10.81414c0,0 -3.28003,-4.63812 -3.31952,-6.83663c-0.03624,-2.01745 0.97733,-6.1855 0.97733,-6.1855c0,0 5.57063,-6.26803 8.23141,-6.31581c1.95248,-0.03507 6.27672,6.05522 6.27672,6.05522c0,0 0.88743,4.7548 0.92696,6.9533c0.03624,2.01745 -0.6989,5.74128 -0.6989,5.74128c0,0 -3.153,3.90445 -5.00872,3.93778z" data-paper-data="{&quot;index&quot;:null}" fill="#80745b" stroke="#e4d0a2" stroke-width="1" stroke-linecap="butt"></path><path d="M253.45976,148.11115l-9.24666,11.18836" fill="none" stroke="#ffffff" stroke-width="1" stroke-linecap="round"></path><path d="M243.70725,160.35835l-11.89636,0.03875l-9.5242,-14.0004" fill="none" stroke="#ffffff" stroke-width="1" stroke-linecap="round"></path><path d="M214.19726,144.09259l7.58669,3.53778" fill="none" stroke="#ffffff" stroke-width="1" stroke-linecap="round"></path><path d="M257.48877,148.38869l8.99744,-5.58526" fill="none" stroke="#ffffff" stroke-width="1" stroke-linecap="round"></path><path d="M255.7429,148.59499l4.91606,0.96144" fill="none" stroke="#ffffff" stroke-width="1" stroke-linecap="round"></path><path d="M231.07462,168.1084l0.03038,-8.04855l2.9733,-0.0534l0.14768,8.22033c0,0 -1.18005,1.69383 -1.75237,1.67228c-0.44662,-0.01679 -1.39897,-1.79063 -1.39897,-1.79063z" fill="#ffe9b6" stroke="#e4d0a2" stroke-width="0.5" stroke-linecap="butt"></path><path d="M235.10603,168.1229l0.03038,-8.04855l2.9733,-0.0534l0.14768,8.22033c0,0 -1.18005,1.69383 -1.75237,1.67228c-0.44662,-0.01679 -1.39897,-1.79063 -1.39897,-1.79063z" fill="#ffe9b6" stroke="#e4d0a2" stroke-width="0.5" stroke-linecap="butt"></path><path d="M238.40991,168.29653l0.03038,-8.04855l2.9733,-0.0534l0.14768,8.22033c0,0 -1.18005,1.69383 -1.75237,1.67228c-0.44662,-0.01679 -1.39897,-1.79063 -1.39897,-1.79063z" fill="#ffe9b6" stroke="#e4d0a2" stroke-width="0.5" stroke-linecap="butt"></path><path d="M241.85454,168.17547l0.03038,-8.04855l2.9733,-0.0534l0.14768,8.22033c0,0 -1.18005,1.69383 -1.75237,1.67228c-0.44662,-0.01679 -1.39897,-1.79063 -1.39897,-1.79063z" fill="#ffe9b6" stroke="#e4d0a2" stroke-width="0.5" stroke-linecap="butt"></path><path d="M239.38858,169.31921c-0.00877,-0.48873 0.3803,-0.89203 0.869,-0.90081c0.48873,-0.00877 0.89203,0.3803 0.90081,0.869c0.00877,0.48873 -0.3803,0.89203 -0.869,0.90081c-0.48873,0.00877 -0.89203,-0.3803 -0.90081,-0.869z" fill="#ffffff" stroke="none" stroke-width="0.5" stroke-linecap="butt"></path></g></g></g></svg>