<svg version="1.1" xmlns="http://www.w3.org/2000/svg" xmlns:xlink="http://www.w3.org/1999/xlink" width="59.22982" height="77.1949" viewBox="0,0,59.22982,77.1949"><defs><linearGradient x1="250.04991" y1="178.36666" x2="261.92311" y2="178.36666" gradientUnits="userSpaceOnUse" id="color-1"><stop offset="0" stop-color="#8d3800"></stop><stop offset="1" stop-color="#d27a00"></stop></linearGradient><linearGradient x1="216.55325" y1="178.44125" x2="229.90763" y2="178.44125" gradientUnits="userSpaceOnUse" id="color-2"><stop offset="0" stop-color="#d27a00"></stop><stop offset="1" stop-color="#8d3800"></stop></linearGradient></defs><g transform="translate(-210.38509,-141.27755)"><g data-paper-data="{&quot;isPaintingLayer&quot;:true}" fill-rule="nonzero" stroke-width="0.5" stroke-linejoin="miter" stroke-miterlimit="10" stroke-dasharray="" stroke-dashoffset="0" style="mix-blend-mode: normal"><path d="M240.1776,152.36119l-0.72224,53.44596" fill="none" stroke="#652800" stroke-linecap="round"></path><path d="M214.75466,150.05002v-4.33346c0,0 15.0701,-4.18901 22.96732,-4.18901c8.52226,0 26.43408,4.18901 26.43408,4.18901v4.33346z" fill="#652800" stroke="#311300" stroke-linecap="butt"></path><path d="M210.38509,218.47245l4.76562,-13.07141h49.42626l5.03794,13.07141z" fill-opacity="0.45161" fill="#000000" stroke="none" stroke-linecap="butt"></path><g stroke-linecap="butt"><path d="M214.60607,206.07962v-56.37045h49.42626v56.37045z" fill="#000000" stroke="none"></path><path d="M216.19085,205.95989v-55.17934c0,0 13.36559,0 20.65614,0c8.20222,0 26.14518,0 26.14518,0v55.17934z" fill="none" stroke="#652800"></path></g><g stroke-linecap="butt"><path d="M250.04991,205.4626v-54.19188h11.8732v54.19188z" fill="url(#color-1)" stroke="none"></path><path d="M252.93906,199.63612v-9.8225h6.13284v9.8225z" fill="none" stroke="#7b3100"></path><path d="M253.09631,182.3023v-9.8225h6.13284v9.8225z" fill="none" stroke="#7b3100"></path><path d="M253.18654,164.55644v-9.8225h6.13284v9.8225z" fill="none" stroke="#7b3100"></path><g><path d="M252.59645,180.40752c-0.60397,-0.26776 -0.96362,-1.47426 -0.8033,-2.69481c0.16032,-1.22055 0.7799,-1.99293 1.38387,-1.72518c0.60397,0.26776 0.96362,1.47426 0.8033,2.69481c-0.16032,1.22055 -0.7799,1.99294 -1.38387,1.72518z" fill="#fff4ce" stroke="#e6ddbb"></path><path d="M252.98683,179.19074c-0.37522,-0.16635 -0.59865,-0.91589 -0.49905,-1.67416c0.0996,-0.75827 0.48452,-1.23812 0.85973,-1.07177c0.37522,0.16635 0.59865,0.91589 0.49905,1.67416c-0.0996,0.75827 -0.48452,1.23812 -0.85973,1.07177z" fill="#e6ddbb" stroke="#e6ddbb"></path><path d="M250.79794,178.46399l0.88505,-0.61809l0.33644,1.62598l-0.88505,0.61809z" fill="#e6ddbb" stroke="none"></path><path d="M251.52848,180.42371c-0.31264,0.79888 -0.55545,-0.10078 -0.6653,-0.51755c-0.17141,-0.65034 -0.13956,-1.29727 0.00039,-1.89566l-0.0312,-0.01383l0.04442,-0.33819v0c0.02118,-0.16124 0.1095,-0.26042 0.19727,-0.22151c0.06344,0.02813 0.10923,0.1207 0.12174,0.23075l0.04682,0.37266l-0.00654,0.00277l0.0096,0.02956c0.00023,0.03277 0.00046,0.06555 0.00068,0.09832c0.02269,0.03458 0.03984,0.07983 0.0497,0.1305c0.02851,0.05579 0.045,0.13072 0.04441,0.20963l0.0015,0.33671c0.01887,0.21475 0.23746,1.44561 0.18649,1.57585z" fill="#fff4ce" stroke="none"></path></g></g><g stroke-linecap="butt"><path d="M216.55325,205.5372v-54.19188h13.35439v54.19188z" fill="url(#color-2)" stroke="none"></path><path d="M219.22838,164.78377v-9.8225h6.61394v9.8225z" fill="none" stroke="#7b3100"></path><path d="M219.17973,182.46805v-9.8225h6.61394v9.8225z" fill="none" stroke="#7b3100"></path><path d="M219.04628,199.28565v-9.8225h6.61394v9.8225z" fill="none" stroke="#7b3100"></path><g data-paper-data="{&quot;index&quot;:null}"><path d="M226.21822,178.68235c-0.1729,-1.22055 0.21497,-2.42705 0.86632,-2.69481c0.65135,-0.26776 1.31953,0.50463 1.49243,1.72518c0.1729,1.22055 -0.21497,2.42705 -0.86632,2.69481c-0.65135,0.26776 -1.31953,-0.50463 -1.49243,-1.72518z" fill="#fff4ce" stroke="#e6ddbb"></path><path d="M226.36248,178.11897c-0.10741,-0.75827 0.13355,-1.50782 0.5382,-1.67416c0.40465,-0.16635 0.81977,0.3135 0.92718,1.07177c0.10741,0.75827 -0.13355,1.50782 -0.5382,1.67416c-0.40465,0.16635 -0.81977,-0.3135 -0.92718,-1.07177z" fill="#e6ddbb" stroke="#e6ddbb"></path><path d="M229.28742,180.08997l-0.95448,-0.61809l0.36283,-1.62598l0.95448,0.61809z" fill="#e6ddbb" stroke="none"></path><path d="M228.86241,180.42371c-0.05497,-0.13024 0.18077,-1.3611 0.20112,-1.57585l0.00162,-0.33671c-0.00063,-0.07891 0.01715,-0.15384 0.04789,-0.20963c0.01063,-0.05066 0.02913,-0.09591 0.0536,-0.1305c0.00025,-0.03277 0.00049,-0.06554 0.00074,-0.09832l0.01035,-0.02956l-0.00705,-0.00277l0.05049,-0.37265c0.01349,-0.11005 0.06287,-0.20262 0.13129,-0.23075c0.09465,-0.03891 0.18991,0.06026 0.21275,0.22151v0l0.04791,0.33819l-0.03365,0.01383c0.15093,0.5984 0.18527,1.24533 0.00042,1.89566c-0.11846,0.41676 -0.38032,1.31643 -0.71749,0.51755z" fill="#fff4ce" stroke="none"></path></g></g><g><path d="M238.59346,157.44358c3.41297,0 6.17973,2.7409 6.17973,6.12198c0,3.38108 -2.76676,6.12198 -6.17973,6.12198c-3.41297,0 -6.17973,-2.7409 -6.17973,-6.12198c0,-3.38108 2.76676,-6.12197 6.17973,-6.12197z" data-paper-data="{&quot;index&quot;:null}" fill="#f1ad60" stroke="none" stroke-linecap="butt"></path><path d="M232.18416,193.6262v-24.71892h11.78192v24.71892z" data-paper-data="{&quot;index&quot;:null}" fill="#ff6666" stroke="none" stroke-linecap="butt"></path><path d="M244.40726,205.19184l-6.09561,-10.75173l3.11499,-1.76602l6.09561,10.75173z" data-paper-data="{&quot;index&quot;:null}" fill="#66a6ff" stroke="none" stroke-linecap="butt"></path><path d="M231.24098,204.55408l2.16714,-12.16798l3.5253,0.62786l-2.16714,12.16798z" data-paper-data="{&quot;index&quot;:null}" fill="#66a6ff" stroke="none" stroke-linecap="butt"></path><path d="M245.60359,207.30199l-1.59511,-2.81353c0,0 -0.30319,-2.7493 0.25395,-3.06516c0.47728,-0.27059 2.16683,0.77909 3.3023,0.83904c1.21841,0.06433 1.86986,-0.85017 1.86986,-0.85017l1.59511,2.81353z" data-paper-data="{&quot;index&quot;:null}" fill="#a06140" stroke="none" stroke-linecap="butt"></path><path d="M228.736,206.10249l0.5671,-3.18414c0,0 0.91881,0.64535 2.04624,0.17894c1.0507,-0.43467 2.29424,-1.98708 2.8344,-1.89088c0.63053,0.1123 1.26021,2.80564 1.26021,2.80564l-0.5671,3.18414z" data-paper-data="{&quot;index&quot;:null}" fill="#a06140" stroke="none" stroke-linecap="butt"></path><path d="M263.27412,180.72123l-15.18284,-3.5656l-5.19528,-2.65667c0,0 6.3273,0.27725 9.45138,0.89295c3.16554,0.62388 9.41913,2.82617 9.41913,2.82617z" data-paper-data="{&quot;index&quot;:null}" fill="#f1ad60" stroke="none" stroke-linecap="butt"></path><path d="M220.81431,185.31879c0,0 4.15399,-5.16738 6.51545,-7.36589c2.33052,-2.16972 7.56168,-5.73995 7.56168,-5.73995l-3.01511,4.9958l-11.02405,11.03188z" data-paper-data="{&quot;index&quot;:null}" fill="#f1ad60" stroke="none" stroke-linecap="butt"></path><path d="M243.73361,170.97229c0.57415,0 1.03958,1.42217 1.03958,3.17649c0,1.75433 -0.46544,3.1765 -1.03958,3.1765c-0.57415,0 -1.03958,-1.42216 -1.03958,-3.1765c0,-1.75433 0.46543,-3.17649 1.03958,-3.17649z" data-paper-data="{&quot;index&quot;:null}" fill="#da5757" stroke="none" stroke-linecap="butt"></path><path d="M232.41374,172.01188c0.57415,0 1.03958,1.42217 1.03958,3.17649c0,1.75433 -0.46543,3.1765 -1.03958,3.1765c-0.57415,0 -1.03958,-1.42216 -1.03958,-3.1765c0,-1.75433 0.46544,-3.17649 1.03958,-3.17649z" data-paper-data="{&quot;index&quot;:null}" fill="#da5757" stroke="none" stroke-linecap="butt"></path><path d="M243.22243,159.43707c-0.22704,0.34195 0.05684,1.05578 -0.18179,1.05578c-0.4927,0 0.22303,2.23968 -1.32074,2.01809c-0.33719,-0.0484 -2.70277,-0.89446 -3.03248,-0.90856c-0.7357,-0.03147 -1.66896,1.90535 -2.34793,1.93927c-1.04709,0.05232 -3.289,1.07404 -3.92031,0.13249c-0.54377,-0.811 0.44744,-3.60171 0.44744,-3.60171l0.08408,-2.27024c0,0 4.04734,-1.09308 5.96989,-1.09308c1.79658,0 5.21314,1.09308 5.21314,1.09308c0,0 -0.75674,1.94134 -0.75674,2.18616c0,0.23082 -0.08409,-0.84083 -0.08409,-0.84083c0,0 0.1175,0.00647 -0.07046,0.28955z" data-paper-data="{&quot;index&quot;:null}" fill="#000000" stroke="none" stroke-linecap="butt"></path><path d="M240.3993,158.53681c1.15241,0.27239 2.039,0.6947 1.98025,0.94326c-0.05875,0.24856 -1.04059,0.22924 -2.193,-0.04315c-1.15241,-0.27239 -2.039,-0.6947 -1.98025,-0.94325c0.05875,-0.24856 1.04059,-0.22924 2.193,0.04314z" data-paper-data="{&quot;index&quot;:null}" fill="#484343" stroke="none" stroke-linecap="butt"></path><path d="M242.01662,195.35823l-0.16816,1.17716" data-paper-data="{&quot;index&quot;:null}" fill="none" stroke="#0035ea" stroke-linecap="round"></path><path d="M244.18193,198.90871l-1.13836,-1.24916" data-paper-data="{&quot;index&quot;:null}" fill="none" stroke="#0035ea" stroke-linecap="round"></path><path d="M244.88233,200.52694l-0.8075,-1.76528" data-paper-data="{&quot;index&quot;:null}" fill="none" stroke="#0035ea" stroke-linecap="round"></path><path d="M234.58093,196.8135l-0.39807,2.23507l-0.28919,1.14418" data-paper-data="{&quot;index&quot;:null}" fill="none" stroke="#0035ea" stroke-linecap="round"></path><path d="M234.53325,196.87173l-0.25225,-2.52249" data-paper-data="{&quot;index&quot;:null}" fill="none" stroke="#0035ea" stroke-linecap="round"></path><path d="M235.71041,196.9558v-1.84982" data-paper-data="{&quot;index&quot;:null}" fill="none" stroke="#0035ea" stroke-linecap="round"></path><path d="M232.70527,200.1519l0.40145,-1.295" data-paper-data="{&quot;index&quot;:null}" fill="none" stroke="#0035ea" stroke-linecap="round"></path><path d="M240.41905,194.26515l-0.08408,1.59758" data-paper-data="{&quot;index&quot;:null}" fill="none" stroke="#0035ea" stroke-linecap="round"></path><path d="M244.72915,202.64356l0.85587,-0.19525" data-paper-data="{&quot;index&quot;:null}" fill="none" stroke="#000000" stroke-linecap="round"></path><path d="M245.53895,203.73096l-0.82419,0.08064" data-paper-data="{&quot;index&quot;:null}" fill="none" stroke="#000000" stroke-linecap="round"></path><path d="M233.17126,204.24898l0.83916,-0.87541" data-paper-data="{&quot;index&quot;:null}" fill="none" stroke="#000000" stroke-linecap="round"></path><path d="M232.3049,203.83846l1.07276,-0.7484" data-paper-data="{&quot;index&quot;:null}" fill="none" stroke="#000000" stroke-linecap="round"></path><path d="M249.21873,178.00902l-4.42977,-1.82957l-0.56677,-3.03982l5.86319,2.77107z" data-paper-data="{&quot;index&quot;:null}" fill="#da5757" stroke="none" stroke-linecap="butt"></path><path d="M227.36638,177.84745l5.31138,-3.72088l-0.04559,3.09186l-4.05744,2.55096z" data-paper-data="{&quot;index&quot;:null}" fill="#da5757" stroke="none" stroke-linecap="butt"></path><path d="M264.00089,179.54414c0,0 0.44864,0.39708 0.41113,0.54521c-0.04591,0.18122 -0.66652,0.46301 -0.66652,0.46301l-2.28972,-0.31899l0.11848,-0.85046l2.42663,0.16126z" data-paper-data="{&quot;index&quot;:null}" fill="#f1ad60" stroke="none" stroke-linecap="butt"></path><path d="M263.56008,178.35673c0,0 0.44864,0.39708 0.41112,0.54521c-0.0459,0.18123 -0.66652,0.46301 -0.66652,0.46301l-2.28972,-0.319l0.11848,-0.85047l2.42663,0.16126z" data-paper-data="{&quot;index&quot;:null}" fill="#f1ad60" stroke="none" stroke-linecap="butt"></path><path d="M263.49025,177.12253c0.07604,0.17078 -0.23724,0.7761 -0.23724,0.7761l-1.99632,1.16587l-0.43304,-0.74149l2.0063,-1.37452c0,0 0.59814,0.03442 0.66029,0.17402z" data-paper-data="{&quot;index&quot;:null}" fill="#f1ad60" stroke="none" stroke-linecap="butt"></path><path d="M263.62189,181.5107c0,0 0.0428,0.5976 -0.08764,0.67719c-0.15958,0.09738 -0.80018,-0.13544 -0.80018,-0.13544l-1.41296,-1.82977l0.67963,-0.52482l1.62115,1.81285z" data-paper-data="{&quot;index&quot;:null}" fill="#f1ad60" stroke="none" stroke-linecap="butt"></path><path d="M262.18711,181.94877c0,0 -0.31769,0.50795 -0.46999,0.49536c-0.18631,-0.0154 -0.56654,-0.58109 -0.56654,-0.58109l-0.06276,-2.31097l0.85837,-0.02331l0.24091,2.42002z" data-paper-data="{&quot;index&quot;:null}" fill="#f1ad60" stroke="none" stroke-linecap="butt"></path><path d="M219.00976,188.12175l1.97729,-1.41592l0.5489,0.66033l-1.7778,1.47783c0,0 -0.67594,0.0876 -0.81046,-0.04222c-0.10996,-0.10612 0.06206,-0.68002 0.06206,-0.68002z" data-paper-data="{&quot;index&quot;:null}" fill="#f1ad60" stroke="none" stroke-linecap="butt"></path><path d="M219.00334,187.69928c-0.10996,-0.10612 0.06206,-0.68002 0.06206,-0.68002l1.97729,-1.41592l0.5489,0.66033l-1.7778,1.47782c0,0 -0.67593,0.0876 -0.81046,-0.04222z" data-paper-data="{&quot;index&quot;:null}" fill="#f1ad60" stroke="none" stroke-linecap="butt"></path><path d="M218.63693,185.29873l2.42946,0.11078l0.02276,0.85838l-2.31102,0.06127c0,0 -0.58526,-0.34933 -0.61064,-0.53455c-0.02075,-0.1514 0.46944,-0.49588 0.46944,-0.49588z" data-paper-data="{&quot;index&quot;:null}" fill="#f1ad60" stroke="none" stroke-linecap="butt"></path><path d="M220.79964,190.12261c-0.1528,0.0011 -0.43137,-0.52932 -0.43137,-0.52932l0.42234,-2.39502l0.85418,0.08784l-0.23648,2.2997c0,0 -0.42171,0.53547 -0.60866,0.53681z" data-paper-data="{&quot;index&quot;:null}" fill="#f1ad60" stroke="none" stroke-linecap="butt"></path><path d="M222.47897,189.38273c-0.12279,0.09097 -0.66048,-0.17329 -0.66048,-0.17329l-1.07065,-2.18362l0.74177,-0.43256l1.16459,1.99707c0,0 -0.02501,0.68113 -0.17523,0.79241z" data-paper-data="{&quot;index&quot;:null}" fill="#f1ad60" stroke="none" stroke-linecap="butt"></path><path d="M235.28384,160.57449c1.12497,-0.36971 2.10159,-0.47272 2.18133,-0.23008c0.07974,0.24264 -0.76758,0.73905 -1.89255,1.10875c-1.12497,0.36971 -2.10159,0.47272 -2.18133,0.23008c-0.07974,-0.24264 0.76758,-0.73905 1.89255,-1.10875z" data-paper-data="{&quot;index&quot;:null}" fill="#484343" stroke="none" stroke-linecap="butt"></path><path d="M243.51809,169.07752l-5.77684,8.71593l-4.8647,-8.91862" fill="none" stroke="#da5757" stroke-linecap="round"></path><path d="M232.47115,193.19834l5.2701,-6.38492l5.87818,6.79031" fill="none" stroke="#da5757" stroke-linecap="round"></path></g></g></g></svg>