<svg version="1.1" xmlns="http://www.w3.org/2000/svg" xmlns:xlink="http://www.w3.org/1999/xlink" width="213.7105" height="83.74652" viewBox="0,0,213.7105,83.74652"><defs><radialGradient cx="240" cy="173.86082" r="86.62273" gradientUnits="userSpaceOnUse" id="color-1"><stop offset="0" stop-color="#ff0000"></stop><stop offset="1" stop-color="#ff0000" stop-opacity="0"></stop></radialGradient><linearGradient x1="239.23622" y1="197.58417" x2="239.23622" y2="210.25233" gradientUnits="userSpaceOnUse" id="color-2"><stop offset="0" stop-color="#8e6c39"></stop><stop offset="1" stop-color="#cc9752"></stop></linearGradient></defs><g transform="translate(-133.14475,-138.12674)"><g data-paper-data="{&quot;isPaintingLayer&quot;:true}" fill-rule="nonzero" stroke-linejoin="miter" stroke-miterlimit="10" stroke-dasharray="" stroke-dashoffset="0" style="mix-blend-mode: normal"><path d="M231.09309,221.87326l-1.09416,-5.37133l6.61469,-0.59681l-1.19363,5.96814z" fill="#b16e47" stroke="none" stroke-width="0.5" stroke-linecap="butt"></path><path d="M234.10646,144.76613v-5.41002c0,0 1.39257,0.65576 2.38726,0.65576c0.66259,0 2.09568,-2.33022 3.31246,-1.80918c0.8353,0.35768 1.69852,1.58821 2.48618,1.75857c1.67256,0.36176 3.00437,-0.60515 3.00437,-0.60515v5.41002z" fill="#956a49" stroke="none" stroke-width="0.5" stroke-linecap="butt"></path><path d="M240.09315,195.49517c-58.87645,0.19181 -106.64696,-9.33873 -106.6984,-21.28706c-0.05145,-11.94832 47.63564,-21.78984 106.5121,-21.98165c58.87645,-0.19181 106.64696,9.33873 106.6984,21.28706c0.05145,11.94832 -47.63564,21.78984 -106.5121,21.98165z" fill="url(#color-1)" stroke-opacity="0.69355" stroke="#ff0000" stroke-width="0.5" stroke-linecap="butt"></path><path d="M228.5613,169.01849c0,0 -2.83843,-0.24203 -3.07692,-1.1679c-0.17732,-0.68839 1.77433,-3.88916 1.77433,-3.88916l13.43733,-3.46113l1.30257,5.05706z" fill="#fff3c0" stroke="none" stroke-width="0.5" stroke-linecap="butt"></path><path d="M247.31098,153.12153c0,4.61456 -3.60724,8.3554 -8.05699,8.3554c-4.44975,0 -8.05699,-3.74084 -8.05699,-8.3554c0,-4.61456 3.60724,-8.3554 8.05699,-8.3554c4.44975,0 8.05699,3.74084 8.05699,8.3554z" fill="#fff3c0" stroke="#000000" stroke-width="0.5" stroke-linecap="butt"></path><path d="M232.31602,197.65878v-37.45008h14.47274v37.45008z" fill="#267520" stroke="none" stroke-width="0.5" stroke-linecap="butt"></path><path d="M225.55183,168.37452c0,0 2.2637,-0.80936 3.10428,-1.22071c0.57495,-0.28136 1.4523,-0.7107 1.4523,-0.7107l4.1973,8.57709c0,0 -1.50132,1.9188 -2.34223,2.3303c-0.53677,0.26268 -2.21434,-0.10049 -2.21434,-0.10049z" fill="#fff3c0" stroke="none" stroke-width="0.5" stroke-linecap="butt"></path><path d="M247.31098,151.60061c0,3.93938 -2.71202,-0.76424 -7.16177,-0.76424c-4.44975,0 -8.95221,4.70361 -8.95221,0.76424c0,-3.93938 3.60724,-7.13288 8.05699,-7.13288c4.44975,0 8.05699,3.1935 8.05699,7.13288z" fill="#000000" stroke="#000000" stroke-width="0.5" stroke-linecap="butt"></path><path d="M232.60135,148.02014l2.70936,-0.83365" fill="none" stroke="#636363" stroke-width="0.5" stroke-linecap="round"></path><path d="M242.60516,146.76966h-5.0019" fill="none" stroke="#636363" stroke-width="0.5" stroke-linecap="round"></path><path d="M235.72755,150.31268l2.50095,-1.04206" fill="none" stroke="#636363" stroke-width="0.5" stroke-linecap="round"></path><path d="M244.48087,149.47902l-2.08413,0.20841" fill="none" stroke="#636363" stroke-width="0.5" stroke-linecap="round"></path><path d="M248.23229,151.77156l-2.08413,0.20841" fill="none" stroke="#636363" stroke-width="0.5" stroke-linecap="round"></path><text transform="translate(232.16682,187.85359) scale(0.08735,0.08735)" font-size="40" xml:space="preserve" fill="#bd3333" fill-rule="nonzero" stroke="none" stroke-width="1" stroke-linecap="butt" stroke-linejoin="miter" stroke-miterlimit="10" stroke-dasharray="" stroke-dashoffset="0" font-family="Sans Serif" font-weight="normal" text-anchor="start" style="mix-blend-mode: normal"><tspan x="0" dy="0">RANGER</tspan></text><path d="M246.93797,146.55657c0,0.82402 -3.54043,1.49204 -7.90778,1.49204c-4.36735,0 -7.90778,-0.66801 -7.90778,-1.49204c0,-0.82402 3.54043,-1.49204 7.90778,-1.49204c4.36735,0 7.90778,0.66801 7.90778,1.49204z" fill="#af7c56" stroke="none" stroke-width="0.5" stroke-linecap="butt"></path><path d="M233.95726,145.51215v-4.92371c0,0 1.39257,0.59681 2.38726,0.59681c0.66259,0 2.09568,-2.12075 3.31246,-1.64655c0.8353,0.32553 1.69852,1.44544 2.48618,1.60049c1.67256,0.32924 3.00437,-0.55076 3.00437,-0.55076v4.92371z" fill="#af7c56" stroke="none" stroke-width="0.5" stroke-linecap="butt"></path><path d="M230.02231,178.07005l-1.50359,-2.57758l4.89739,-2.85682l1.50359,2.57758c0,0 -1.47515,1.48218 -2.31728,1.97342c-0.78654,0.45881 -2.58012,0.88339 -2.58012,0.88339z" fill="#267520" stroke="none" stroke-width="0.5" stroke-linecap="butt"></path><path d="M246.28184,163.45698l0.52594,1.9792c0.17041,1.02853 0.28786,2.07137 0.45658,2.95767c0.16583,0.87118 0.32125,1.74508 0.47232,2.62035l-15.36135,14.14568l-0.56243,-1.83693c-0.11398,-1.75702 -0.25985,-3.54285 -0.7397,-5.24558z" fill="#bd8a33" stroke="none" stroke-width="0.5" stroke-linecap="butt"></path><path d="M242.12082,218.82081v-10.14584h4.1777v10.14584z" data-paper-data="{&quot;index&quot;:null}" fill="#fff3c0" stroke="none" stroke-width="0.5" stroke-linecap="butt"></path><path d="M231.5771,219.31815v-10.14584h4.1777v10.14584z" data-paper-data="{&quot;index&quot;:null}" fill="#fff3c0" stroke="none" stroke-width="0.5" stroke-linecap="butt"></path><path d="M246.74614,209.54644c0,0 -2.35924,1.43565 -4.51062,-0.43804c-3.41505,-2.97424 -6.75986,-9.74231 -2.75062,-9.37882c3.43021,0.31099 0.28262,6.94562 -3.0428,9.66872c-2.23595,1.83096 -4.71579,0.14813 -4.71579,0.14813v-11.96226h15.01982v11.96226z" data-paper-data="{&quot;index&quot;:null}" fill="url(#color-2)" stroke="none" stroke-width="0.5" stroke-linecap="butt"></path><path d="M241.74782,220.97182v-2.8846c0,0 0.86649,-2.48672 1.69097,-2.48672c0.59441,0 1.06241,1.97075 2.18206,2.5081c1.43221,0.68736 3.48768,-0.02137 3.48768,-0.02137v2.8846z" data-paper-data="{&quot;index&quot;:null}" fill="#b3864a" stroke="none" stroke-width="0.5" stroke-linecap="butt"></path><path d="M239.55949,205.952l-0.19894,-8.65381" data-paper-data="{&quot;index&quot;:null}" fill="none" stroke="#000000" stroke-width="0.5" stroke-linecap="round"></path><path d="M238.16693,201.17749l2.18832,0.29841" data-paper-data="{&quot;index&quot;:null}" fill="none" stroke="#000000" stroke-width="0.5" stroke-linecap="round"></path><path d="M238.56481,202.86847l2.18831,0.29841" data-paper-data="{&quot;index&quot;:null}" fill="none" stroke="#000000" stroke-width="0.5" stroke-linecap="round"></path><path d="M238.66427,204.55944l2.28779,0.69628" data-paper-data="{&quot;index&quot;:null}" fill="none" stroke="#000000" stroke-width="0.5" stroke-linecap="round"></path><path d="M245.33936,220.91321c0,0 -0.76733,-0.87385 -0.76733,-1.32152c0,-0.53229 0.76733,-1.66256 0.76733,-1.66256c0,0 1.32878,0.42629 1.96096,0.42629c0.64639,0 1.8757,-0.42629 1.8757,-0.42629v2.98407z" data-paper-data="{&quot;index&quot;:null}" fill="#9d4c00" stroke="#000000" stroke-width="0.5" stroke-linecap="butt"></path><path d="M231.6153,220.72937v-4.77451h3.28248v4.77451z" fill="#ffffff" stroke="none" stroke-width="0.5" stroke-linecap="butt"></path><path d="M230.52114,221.82353v-2.98407h5.27186v2.98407z" fill="#b16e47" stroke="none" stroke-width="0.5" stroke-linecap="butt"></path><path d="M235.32052,204.67134l-0.44761,1.79044l-2.23805,0.1492l-0.89522,-3.13327" fill="none" stroke="#000000" stroke-width="0.5" stroke-linecap="round"></path><path d="M245.76476,202.8809l-0.1492,2.68566l-2.38726,0.44761l-0.74602,-2.23805" fill="none" stroke="#000000" stroke-width="0.5" stroke-linecap="round"></path></g></g></svg>