<svg version="1.1" xmlns="http://www.w3.org/2000/svg" xmlns:xlink="http://www.w3.org/1999/xlink" width="23.66733" height="24.27586" viewBox="0,0,23.66733,24.27586"><g transform="translate(-228.41633,-167.81129)"><g data-paper-data="{&quot;isPaintingLayer&quot;:true}" fill-rule="nonzero" stroke-linejoin="miter" stroke-miterlimit="10" stroke-dasharray="" stroke-dashoffset="0" style="mix-blend-mode: normal"><path d="M231.1187,188.25093c0,-4.18152 0,-11.39886 0,-13.78403c0,-1.50746 0.63722,-3.25432 1.3449,-3.25432c2.17771,0 13.51302,0 17.48961,0c0.86386,0 1.38045,1.21145 1.38045,3.00217c0,4.21957 0,11.65544 0,14.03618c0,1.44324 -0.53083,3.08622 -1.416,3.08622c-3.99866,0 -15.22824,0 -17.41851,0c-0.72423,0 -1.38045,-1.25061 -1.38045,-3.08622z" fill-opacity="0.62097" fill="#291800" stroke="#d6cdad" stroke-width="1.5" stroke-linecap="butt"></path><path d="M229.51407,173.66014c0,-0.97884 0,-2.66832 0,-3.22666c0,-0.35288 0.14917,-0.7618 0.31482,-0.7618c0.50978,0 3.16322,0 4.09409,0c0.20222,0 0.32315,0.28359 0.32315,0.70277c0,0.98775 0,2.72838 0,3.28568c0,0.33784 -0.12426,0.72244 -0.33147,0.72244c-0.93604,0 -3.56473,0 -4.07745,0c-0.16953,0 -0.32315,-0.29275 -0.32315,-0.72244z" fill-opacity="0.47425" fill="#000000" stroke="#fff4ce" stroke-width="0" stroke-linecap="butt"></path><path d="M228.66634,172.75187c0,-0.97884 0,-2.66832 0,-3.22666c0,-0.35287 0.14917,-0.76179 0.31482,-0.76179c0.50977,0 3.16322,0 4.09409,0c0.20222,0 0.32315,0.28359 0.32315,0.70277c0,0.98775 0,2.72838 0,3.28568c0,0.33784 -0.12426,0.72244 -0.33147,0.72244c-0.93604,0 -3.56473,0 -4.07745,0c-0.16953,0 -0.32315,-0.29275 -0.32315,-0.72244z" fill-opacity="0.88705" fill="#291800" stroke="#fff4ce" stroke-width="0.5" stroke-linecap="butt"></path><text transform="translate(229.93381,172.74985) scale(0.11353,0.11353)" font-size="40" xml:space="preserve" fill="#fff4ce" fill-rule="nonzero" stroke="none" stroke-width="1" stroke-linecap="butt" stroke-linejoin="miter" stroke-miterlimit="10" stroke-dasharray="" stroke-dashoffset="0" font-family="Sans Serif" font-weight="normal" text-anchor="start" style="mix-blend-mode: normal"><tspan x="0" dy="0">0</tspan></text><path d="M237.16245,189.52055v-15.68295h8.71948v15.68295z" fill="#ffffff" stroke="none" stroke-width="NaN" stroke-linecap="butt"></path><path d="M245.34655,175.27403l-1.65307,0.67818l-0.67818,-0.55102l-1.52591,0.38148l-0.72057,-0.46625l-1.865,0.2967l-0.89011,-0.6358" fill="none" stroke="#000000" stroke-width="0.5" stroke-linecap="round"></path><path d="M244.75314,178.07153l-0.80534,0.9325l-0.46625,-0.89011l-1.44114,1.35636l-1.27159,-0.89011l-1.48352,0.76295l-1.2292,-0.97489" fill="none" stroke="#000000" stroke-width="0.5" stroke-linecap="round"></path><path d="M245.38894,182.26778l-1.73784,0.46625l-0.97489,-1.39875l-1.65307,1.82261l-0.55102,-1.14443l-2.28886,0.6358l-0.55102,-0.76295" fill="none" stroke="#000000" stroke-width="0.5" stroke-linecap="round"></path><path d="M245.21939,185.27721l-0.76295,1.05966l-0.46625,-0.67818l-1.2292,0.50864l-1.01727,-0.97489l-1.69545,1.2292l-0.42386,-0.97489l-1.35636,0.9325l-0.38148,-1.39875" fill="none" stroke="#000000" stroke-width="0.5" stroke-linecap="round"></path></g></g></svg>