<svg version="1.1" xmlns="http://www.w3.org/2000/svg" xmlns:xlink="http://www.w3.org/1999/xlink" width="16.01444" height="17.88128" viewBox="0,0,16.01444,17.88128"><defs><radialGradient cx="237.24896" cy="192.65069" r="1.25071" gradientUnits="userSpaceOnUse" id="color-1"><stop offset="0" stop-color="#ffffff" stop-opacity="0.53358"></stop><stop offset="1" stop-color="#46e3ff" stop-opacity="0.59161"></stop></radialGradient><radialGradient cx="240.19622" cy="190.68558" r="1.25071" gradientUnits="userSpaceOnUse" id="color-2"><stop offset="0" stop-color="#ffffff" stop-opacity="0.53358"></stop><stop offset="1" stop-color="#46e3ff" stop-opacity="0.55129"></stop></radialGradient><linearGradient x1="234.31192" y1="201.46328" x2="235.83206" y2="201.9795" gradientUnits="userSpaceOnUse" id="color-3"><stop offset="0" stop-color="#00fdff" stop-opacity="0.41129"></stop><stop offset="1" stop-color="#ffffff" stop-opacity="0.67742"></stop></linearGradient><linearGradient x1="247.31271" y1="199.41051" x2="246.06369" y2="200.41913" gradientUnits="userSpaceOnUse" id="color-4"><stop offset="0" stop-color="#00fdff" stop-opacity="0.41129"></stop><stop offset="1" stop-color="#ffffff" stop-opacity="0.67742"></stop></linearGradient><linearGradient x1="237.97851" y1="195.63904" x2="238.29294" y2="195.21868" gradientUnits="userSpaceOnUse" id="color-5"><stop offset="0" stop-color="#948a00"></stop><stop offset="1" stop-color="#948a00" stop-opacity="0"></stop></linearGradient><linearGradient x1="243.03922" y1="193.16115" x2="242.51439" y2="193.17212" gradientUnits="userSpaceOnUse" id="color-6"><stop offset="0" stop-color="#948a00"></stop><stop offset="1" stop-color="#948a00" stop-opacity="0"></stop></linearGradient></defs><g transform="translate(-233.06464,-190.34234)"><g data-paper-data="{&quot;isPaintingLayer&quot;:true}" fill-rule="nonzero" stroke="none" stroke-linecap="butt" stroke-linejoin="miter" stroke-miterlimit="10" stroke-dasharray="" stroke-dashoffset="0" style="mix-blend-mode: normal"><path d="M238.61913,190.7071c1.58635,-0.81528 3.51899,-0.21796 4.31669,1.33416c0.79769,1.55211 0.15832,3.47128 -1.42802,4.28656c-1.58635,0.81528 -3.519,0.21796 -4.31669,-1.33415c-0.79769,-1.55211 -0.15832,-3.47129 1.42802,-4.28657z" data-paper-data="{&quot;index&quot;:null}" fill="#000000" stroke-width="0"></path><path d="M242.87994,195.81164c0.14894,-0.02523 0.55278,1.62354 0.902,3.68516c0.26583,1.5694 0.43137,2.54672 0.69721,4.11614c0.34922,2.06163 0.51085,3.75142 0.36192,3.77664c-1.03844,0.17591 -3.88372,0.65784 -4.92219,0.83375c-0.14894,0.02523 -0.55228,-1.62363 -0.9015,-3.68525c-0.26583,-1.5694 -0.43137,-2.54672 -0.69721,-4.11614c-0.34922,-2.06163 -0.51137,-3.75133 -0.36243,-3.77656c1.03844,-0.17591 3.88373,-0.65784 4.92219,-0.83375z" data-paper-data="{&quot;index&quot;:null}" fill="#000000" stroke-width="1"></path><path d="M248.00267,204.40254l-5.10084,-5.57711l1.07641,-1.49668l5.10084,5.57709z" data-paper-data="{&quot;index&quot;:null}" fill="#000000" stroke-width="0"></path><path d="M233.06464,205.00695l3.66405,-6.6104l1.76138,0.5442l-3.66404,6.61041z" data-paper-data="{&quot;index&quot;:null}" fill="#000000" stroke-width="0"></path><path d="M237.20637,194.88207c0,0 -0.40766,-1.06747 -0.37724,-1.42668c0.0278,-0.32813 0.33107,-1.21849 0.33107,-1.21849l0.46132,0.595c0,0 -0.49686,0.53675 -0.52326,0.84855c-0.03123,0.36877 0.34787,1.22194 0.34787,1.22194z" fill="url(#color-1)" stroke-width="NaN"></path><path d="M242.31284,191.47858c0,0 -0.72047,-0.59375 -1.08413,-0.66241c-0.30749,-0.05806 -0.95769,0.2769 -0.95769,0.2769l-0.44973,-0.60382c0,0 0.93906,-0.05374 1.26264,0.00735c0.35424,0.06689 1.27354,0.74554 1.27354,0.74554z" data-paper-data="{&quot;index&quot;:null}" fill="url(#color-2)" stroke-width="NaN"></path><path d="M233.11045,205.00139l3.63456,-6.71471l0.55074,0.26689l-3.93817,6.58852z" fill="url(#color-3)" stroke-width="0"></path><path d="M248.93309,202.99522l-5.4244,-5.28744l0.42497,-0.44038l5.0663,5.62957z" data-paper-data="{&quot;index&quot;:null}" fill="url(#color-4)" stroke-width="0"></path><path d="M239.85229,196.79335c0,0 -1.5153,-0.60651 -1.73012,-0.76722c-0.27708,-0.20726 -0.90556,-0.95699 -0.90556,-0.95699l0.31444,-0.42035l2.06339,1.28056z" fill="url(#color-5)" stroke-width="0"></path><path d="M242.33461,194.64404l0.15991,-2.42316l0.52485,-0.01096c0,0 0.24376,0.94742 0.25098,1.2934c0.0056,0.2682 -0.3833,1.85336 -0.3833,1.85336z" data-paper-data="{&quot;index&quot;:null}" fill="url(#color-6)" stroke-width="0"></path></g></g></svg>