<svg version="1.1" xmlns="http://www.w3.org/2000/svg" xmlns:xlink="http://www.w3.org/1999/xlink" width="98.33334" height="97.33334" viewBox="0,0,98.33334,97.33334"><defs><radialGradient cx="240" cy="180" r="49.16667" gradientUnits="userSpaceOnUse" id="color-1"><stop offset="0" stop-color="#00ffff"></stop><stop offset="1" stop-color="#00ffff" stop-opacity="0"></stop></radialGradient></defs><g transform="translate(-190.83333,-131.33333)"><g data-paper-data="{&quot;isPaintingLayer&quot;:true}" fill-rule="nonzero" stroke-width="0" stroke-linejoin="miter" stroke-miterlimit="10" stroke-dasharray="" stroke-dashoffset="0" style="mix-blend-mode: normal"><path d="M289.16667,180c0,26.87786 -22.01267,48.66667 -49.16667,48.66667c-27.154,0 -49.16667,-21.78881 -49.16667,-48.66667c0,-26.87786 22.01267,-48.66667 49.16667,-48.66667c27.154,0 49.16667,21.78881 49.16667,48.66667z" fill="url(#color-1)" stroke="none" stroke-linecap="butt"></path><g><g><path d="M237.57723,211.73445c0,0 -1.39901,-1.10766 -1.37543,-3.6718c0.00527,-0.57448 1.24477,-0.68232 1.2583,-1.35846c0.2431,-12.14885 0.5095,-40.34698 0.45016,-51.84231c-0.01156,-2.24007 -0.80513,-3.73763 -0.80099,-4.55476c0.00572,-1.12945 0.79174,-2.46613 0.79174,-2.46613c0,0 0.7585,0.69878 1.2363,-0.15156c0.17611,-0.31343 0.23213,-0.92891 0.3923,-1.42696c0.24615,-0.76542 0.57945,-1.40224 0.73392,-1.399c0.26569,0.00559 0.52281,0.77882 0.77384,1.70869c0.2041,0.75602 0.39327,1.64817 0.66769,2.05239c0.14983,0.2207 0.2111,-0.26531 0.35331,-0.31918c0.36097,-0.13677 0.74493,-0.36117 0.74493,-0.36117c0,0 1.06789,1.38019 1.06044,2.85046c-0.00149,0.29426 -0.85715,1.57713 -0.86301,2.02778c-0.10137,7.77523 -0.49514,38.82175 -0.44252,53.17778c0.00389,1.06013 1.36902,2.04585 1.36207,2.90766c-0.02411,2.98946 -1.44074,2.9298 -1.44074,2.9298c0,0 -0.2592,-0.12876 -0.61586,-0.21398c-0.20596,-0.04921 -0.47711,-0.27229 -0.6653,0.03805c-0.47691,0.78652 -0.68707,3.44954 -1.08008,3.44127c-0.17549,-0.0037 -0.35131,0.07921 -0.54566,-0.6312c-0.14475,-0.52911 -0.30043,-1.8151 -0.4705,-2.21073c-0.04677,-0.1088 -0.10303,-0.36746 -0.15208,-0.43944c-0.26758,-0.39273 -0.59522,0.18973 -0.8324,0.22714c-0.33767,0.05328 -0.5404,-0.3143 -0.5404,-0.3143z" fill="#a9ffff" stroke="#000000" stroke-linecap="butt"></path><path d="M236.76887,211.76668c0,0 -1.39901,-1.10766 -1.37543,-3.6718c0.00527,-0.57448 1.24477,-0.68232 1.2583,-1.35846c0.2431,-12.14885 0.5095,-40.34698 0.45016,-51.84231c-0.01156,-2.24007 -0.80513,-3.73763 -0.80099,-4.55476c0.00572,-1.12945 0.79174,-2.46613 0.79174,-2.46613c0,0 0.7585,0.69878 1.2363,-0.15156c0.17611,-0.31343 0.23213,-0.92891 0.3923,-1.42696c0.24615,-0.76542 0.57945,-1.40224 0.73392,-1.399c0.26569,0.00559 0.52281,0.77882 0.77384,1.70869c0.2041,0.75602 0.39327,1.64817 0.66769,2.05239c0.14983,0.2207 0.2111,-0.26531 0.35331,-0.31918c0.36097,-0.13677 0.74493,-0.36117 0.74493,-0.36117c0,0 1.06789,1.38019 1.06044,2.85046c-0.00149,0.29426 -0.85715,1.57713 -0.86301,2.02778c-0.10137,7.77523 -0.49514,38.82175 -0.44252,53.17778c0.00389,1.06013 1.36902,2.04587 1.36207,2.90766c-0.02411,2.98946 -1.44074,2.9298 -1.44074,2.9298c0,0 -0.2592,-0.12876 -0.61586,-0.21398c-0.20596,-0.04921 -0.47711,-0.27229 -0.6653,0.03805c-0.47691,0.78652 -0.68707,3.44954 -1.08008,3.44127c-0.17549,-0.0037 -0.35131,0.07921 -0.54566,-0.6312c-0.14475,-0.52911 -0.30043,-1.8151 -0.4705,-2.21073c-0.04677,-0.1088 -0.10303,-0.36746 -0.15208,-0.43944c-0.26758,-0.39273 -0.59522,0.18973 -0.8324,0.22714c-0.33767,0.05328 -0.5404,-0.3143 -0.5404,-0.3143z" fill="#bcf4f4" stroke="#000000" stroke-linecap="butt"></path><path d="M239.24915,151.95531l-1.39056,-0.03945" fill="#a9ffff" stroke="#a75900" stroke-linecap="round"></path><path d="M240.2144,149.54515l-0.90554,-0.05878" fill="#a9ffff" stroke="#a75900" stroke-linecap="round"></path><path d="M236.72214,149.58944l0.71212,0.35109" fill="#a9ffff" stroke="#a75900" stroke-linecap="round"></path><path d="M240.64827,156.26346l0.9859,-0.18159" fill="#a9ffff" stroke="#a75900" stroke-linecap="round"></path><path d="M237.97768,162.91574l-0.61492,-0.26009" fill="#a9ffff" stroke="#a75900" stroke-linecap="round"></path><path d="M239.54769,163.75441l1.00274,0.14978" fill="#a9ffff" stroke="#a75900" stroke-linecap="round"></path><path d="M239.7986,175.98235l-1.34292,-0.46826" fill="#a9ffff" stroke="#a75900" stroke-linecap="round"></path><path d="M240.25024,183.50633l0.37193,0.03261" fill="#a9ffff" stroke="#a75900" stroke-linecap="round"></path><path d="M238.47792,170.48524l-0.59809,0.07126" fill="#a9ffff" stroke="#a75900" stroke-linecap="round"></path><path d="M240.69271,170.34954l0.61492,0.26009" fill="#a9ffff" stroke="#a75900" stroke-linecap="round"></path><path d="M237.87093,182.22557l0.92142,-0.08416" fill="#a9ffff" stroke="#a75900" stroke-linecap="round"></path><path d="M237.61522,191.76995l1.99054,0.91679" fill="#a9ffff" stroke="#a75900" stroke-linecap="round"></path><path d="M240.01868,188.97045l0.75976,-0.07771" fill="#a9ffff" stroke="#a75900" stroke-linecap="round"></path><path d="M237.73846,188.72927l0.63175,0.59147" fill="#a9ffff" stroke="#a75900" stroke-linecap="round"></path><path d="M238.06972,200.71683l0.61492,0.26009" fill="#a9ffff" stroke="#a75900" stroke-linecap="round"></path><path d="M241.66014,201.23782l-0.77659,-0.25364" fill="#a9ffff" stroke="#a75900" stroke-linecap="round"></path><path d="M238.80724,205.66797l-0.64763,-0.44852" fill="#a9ffff" stroke="#a75900" stroke-linecap="round"></path><path d="M240.41091,207.16938l-0.45325,-0.26654" fill="#a9ffff" stroke="#a75900" stroke-linecap="round"></path><path d="M240.09774,204.19355l0.35605,0.17555" fill="#a9ffff" stroke="#a75900" stroke-linecap="round"></path><path d="M237.29439,209.14351l-0.74482,-0.53952" fill="#a9ffff" stroke="#a75900" stroke-linecap="round"></path><path d="M239.30558,212.28886l-0.29158,-0.27298" fill="#a9ffff" stroke="#a75900" stroke-linecap="round"></path><path d="M242.51908,153.91208l0.45325,0.26654" fill="#a9ffff" stroke="#703c00" stroke-linecap="round"></path><path d="M240.7909,146.77102l0.32429,0.46141" fill="#a9ffff" stroke="#703c00" stroke-linecap="round"></path><path d="M240.22843,212.91616l0.33457,0.20803" fill="#a9ffff" stroke="#703c00" stroke-linecap="round"></path><path d="M243.41314,210.00646l0.36633,-0.07785" fill="#a9ffff" stroke="#703c00" stroke-linecap="round"></path><path d="M242.52083,205.80459l-0.30217,-0.17769" fill="#a9ffff" stroke="#703c00" stroke-linecap="round"></path><path d="M242.39528,196.95529l-0.23737,-0.11704" fill="#a9ffff" stroke="#703c00" stroke-linecap="round"></path><path d="M242.1175,182.07213l0.20498,0.08671" fill="#a9ffff" stroke="#703c00" stroke-linecap="round"></path><path d="M242.13954,171.57259l0.5389,-0.02148" fill="#a9ffff" stroke="#703c00" stroke-linecap="round"></path><path d="M242.18824,174.35341l0.28035,0.05207" fill="#a9ffff" stroke="#703c00" stroke-linecap="round"></path><path d="M242.35787,162.20361l0.31275,0.0824" fill="#a9ffff" stroke="#703c00" stroke-linecap="round"></path><path d="M243.19473,149.52124l0.39873,-0.04751" fill="#a9ffff" stroke="#703c00" stroke-linecap="round"></path><path d="M243.44522,150.8078l0.28035,0.05207" fill="#a9ffff" stroke="#703c00" stroke-linecap="round"></path><path d="M240.70816,145.82562l-0.37818,-0.45926" fill="#a9ffff" stroke="#703c00" stroke-linecap="round"></path></g><g><g stroke="#000000" stroke-linecap="butt"><path d="M248.0226,171.2664c0,0 -0.26989,3.04738 -0.90012,3.03561c-0.1412,-0.00265 -0.16977,-2.68585 -0.33597,-2.7048c-2.98624,-0.34041 -9.91695,-0.48533 -12.74207,-0.18063c-0.55052,0.05937 -0.91726,1.80127 -1.11809,1.80483c-0.2776,0.00492 -0.60743,-1.67719 -0.60743,-1.67719c0,0 0.17047,-1.6537 -0.03931,-2.67563c-0.07733,-0.37668 -0.22869,-0.48859 -0.35136,-0.82789c-0.18853,-0.52145 -0.3456,-1.23365 -0.34506,-1.56833c0.00093,-0.5756 0.19055,-1.1444 0.41865,-1.70242c0.18547,-0.45369 0.40442,-0.87712 0.5033,-1.47774c0.054,-0.32794 -0.06555,-0.4532 -0.07904,-0.76044c-0.03422,-0.77982 -0.09,-1.60807 -0.09,-1.60807c0,0 0.33742,-2.33433 0.69879,-2.3407c0.07233,-0.00127 0.38905,1.83249 0.49981,1.83832c1.9111,0.10044 9.54207,0.47758 13.07028,0.14361c0.26054,-0.02466 0.50052,-2.99677 0.71234,-2.99494c0.73477,0.00641 0.72248,3.0759 0.72248,3.0759c0,0 -0.03122,0.56344 -0.05157,1.33731c-0.01176,0.44687 -0.06612,1.03767 0.01047,1.44054c0.1941,1.02098 0.84894,1.43541 0.84757,2.28683c-0.00062,0.38017 0.02005,0.75975 -0.15422,1.19162c-0.1298,0.32167 -0.4456,0.67859 -0.54255,1.05304c-0.02666,0.10297 -0.09014,0.22882 -0.10775,0.33614c-0.09608,0.58562 0.04763,1.2864 0.05722,1.7996c0.01366,0.73061 -0.07634,1.17539 -0.07634,1.17539z" fill="#a9ffff"></path><path d="M247.5927,169.56917c0,0 -0.26989,3.04738 -0.90012,3.03561c-0.1412,-0.00265 -0.16977,-2.68585 -0.33597,-2.7048c-2.98624,-0.34041 -9.91695,-0.48533 -12.74207,-0.18063c-0.55052,0.05937 -0.91726,1.80127 -1.11809,1.80483c-0.2776,0.00492 -0.60743,-1.67719 -0.60743,-1.67719c0,0 0.17047,-1.6537 -0.03931,-2.67563c-0.07733,-0.37668 -0.22869,-0.48859 -0.35136,-0.82789c-0.18853,-0.52145 -0.3456,-1.23366 -0.34506,-1.56833c0.00093,-0.5756 0.19055,-1.1444 0.41865,-1.70242c0.18547,-0.45369 0.40442,-0.87712 0.5033,-1.47774c0.054,-0.32794 -0.06555,-0.4532 -0.07904,-0.76044c-0.03422,-0.77982 -0.09,-1.60807 -0.09,-1.60807c0,0 0.33742,-2.33433 0.69879,-2.3407c0.07233,-0.00127 0.38905,1.83249 0.49981,1.83832c1.9111,0.10044 9.54207,0.47758 13.07028,0.14361c0.26054,-0.02466 0.50052,-2.99677 0.71234,-2.99494c0.73477,0.00641 0.72248,3.0759 0.72248,3.0759c0,0 -0.03122,0.56344 -0.05157,1.33731c-0.01176,0.44687 -0.06612,1.03767 0.01047,1.44054c0.1941,1.02098 0.84894,1.4354 0.84757,2.28683c-0.00062,0.38017 0.02005,0.75975 -0.15422,1.19162c-0.1298,0.32167 -0.4456,0.67859 -0.54255,1.05304c-0.02666,0.10297 -0.09014,0.22882 -0.10775,0.33614c-0.09608,0.58562 0.04763,1.2864 0.05722,1.7996c0.01366,0.73061 -0.07634,1.17539 -0.07634,1.17539z" fill="#bcf4f4"></path></g><path d="M234.03296,161.10518l0.91565,0.3757" fill="#a9ffff" stroke="#a75900" stroke-linecap="round"></path><path d="M239.17057,162.02302l-1.08941,-0.19905" fill="#a9ffff" stroke="#a75900" stroke-linecap="round"></path><path d="M234.89016,165.72185l0.70513,0.37199" fill="#a9ffff" stroke="#a75900" stroke-linecap="round"></path><path d="M240.13553,168.40312l-0.82942,-0.1585" fill="#a9ffff" stroke="#a75900" stroke-linecap="round"></path><path d="M241.0817,166.04724l-0.58212,0.02564" fill="#a9ffff" stroke="#a75900" stroke-linecap="round"></path><path d="M243.66006,164.90658l-0.68104,-0.04802" fill="#a9ffff" stroke="#a75900" stroke-linecap="round"></path><path d="M244.49703,167.36597l0.63158,0.01118" fill="#a9ffff" stroke="#a75900" stroke-linecap="round"></path><path d="M246.14465,161.24782l0.53266,-0.06246" fill="#a9ffff" stroke="#a75900" stroke-linecap="round"></path><path d="M247.82244,164.33322l-0.35891,-0.1142" fill="#a9ffff" stroke="#a75900" stroke-linecap="round"></path><path d="M247.29347,168.52992l-0.42105,-0.00747" fill="#a9ffff" stroke="#a75900" stroke-linecap="round"></path><path d="M232.10641,164.41434l0.42105,0.00747" fill="#a9ffff" stroke="#a75900" stroke-linecap="round"></path><path d="M233.00441,161.4105l0.30945,0.07738" fill="#a9ffff" stroke="#a75900" stroke-linecap="round"></path><path d="M233.00296,167.98919l0.50729,0.22468" fill="#a9ffff" stroke="#a75900" stroke-linecap="round"></path><path d="M244.77998,162.37404l-0.54407,-0.40508" fill="#a9ffff" stroke="#a75900" stroke-linecap="round"></path><path d="M232.9217,171.29508l0.44514,0.33143" fill="#a9ffff" stroke="#5e3200" stroke-linecap="round"></path><path d="M234.64527,170.28308l1.00189,0.59294" fill="#a9ffff" stroke="#5e3200" stroke-linecap="round"></path><path d="M248.78498,165.968l-0.30945,-0.07738" fill="#a9ffff" stroke="#5e3200" stroke-linecap="round"></path><path d="M247.6209,160.0517l0.29677,0.22095" fill="#a9ffff" stroke="#5e3200" stroke-linecap="round"></path><path d="M247.39737,172.12669l0.44643,-0.27969" fill="#a9ffff" stroke="#5e3200" stroke-linecap="round"></path><path d="M243.38851,170.36606l0.84211,0.01492" fill="#a9ffff" stroke="#5e3200" stroke-linecap="round"></path><path d="M246.03784,170.80844l-0.42105,-0.00747" fill="#a9ffff" stroke="#5e3200" stroke-linecap="round"></path><path d="M238.70615,170.8583l-0.76728,-0.26523" fill="#a9ffff" stroke="#5e3200" stroke-linecap="round"></path><path d="M241.70429,170.33623l-0.3716,0.02937" fill="#a9ffff" stroke="#5e3200" stroke-linecap="round"></path></g></g></g></g></svg>