<svg version="1.1" xmlns="http://www.w3.org/2000/svg" xmlns:xlink="http://www.w3.org/1999/xlink" width="63.2662" height="19.80351" viewBox="0,0,63.2662,19.80351"><defs><radialGradient cx="240.09858" cy="185.53208" r="30.46108" gradientUnits="userSpaceOnUse" id="color-1"><stop offset="0" stop-color="#6eb79d"></stop><stop offset="1" stop-color="#4d806e"></stop></radialGradient><linearGradient x1="230.04248" y1="176.30045" x2="250.67349" y2="176.30045" gradientUnits="userSpaceOnUse" id="color-2"><stop offset="0" stop-color="#4d4d4d"></stop><stop offset="1" stop-color="#dcdcdc"></stop></linearGradient><linearGradient x1="223.33739" y1="180.81348" x2="255.57336" y2="180.81348" gradientUnits="userSpaceOnUse" id="color-3"><stop offset="0" stop-color="#4d806e"></stop><stop offset="1" stop-color="#73b76e"></stop></linearGradient></defs><g transform="translate(-208.3669,-170.09825)"><g data-paper-data="{&quot;isPaintingLayer&quot;:true}" fill-rule="nonzero" stroke="none" stroke-width="0" stroke-linecap="butt" stroke-linejoin="miter" stroke-miterlimit="10" stroke-dasharray="" stroke-dashoffset="0" style="mix-blend-mode: normal"><path d="M236.1802,174.79181v-3.61043c0,0 2.9529,-1.08313 4.51304,-1.08313c1.68032,0 5.23512,1.08313 5.23512,1.08313v3.61043z" fill="#141414"></path><path d="M270.55966,185.53208c0,2.41331 -13.63789,4.36968 -30.46108,4.36968c-16.82319,0 -30.46109,-1.95637 -30.46109,-4.36968c0,-2.41331 13.6379,-4.36968 30.46109,-4.36968c16.82319,0 30.46108,1.95637 30.46108,4.36968z" fill="url(#color-1)"></path><path d="M250.67349,176.30045c0,1.42428 -4.61841,2.57889 -10.31551,2.57889c-5.6971,0 -10.3155,-1.15461 -10.3155,-2.57889c0,-1.42428 4.6184,-2.57887 10.3155,-2.57887c5.6971,0 10.31551,1.15459 10.31551,2.57887z" fill="url(#color-2)"></path><path d="M223.33739,184.55286v-7.47874h32.23597v7.47874z" fill="url(#color-3)"></path><path d="M208.3669,186.96599l1.59284,-5.72162c0,0 18.59672,-0.79727 29.49102,-0.79727c11.2452,0 29.84618,1.11583 29.84618,1.11583l2.33617,5.40305z" fill="#4d806e"></path></g></g></svg>