<svg version="1.1" xmlns="http://www.w3.org/2000/svg" xmlns:xlink="http://www.w3.org/1999/xlink" width="294.8" height="227" viewBox="0,0,294.8,227"><g transform="translate(-92.6,-66.5)"><g data-paper-data="{&quot;isPaintingLayer&quot;:true}" fill-rule="nonzero" stroke-linejoin="miter" stroke-miterlimit="10" stroke-dasharray="" stroke-dashoffset="0" style="mix-blend-mode: normal"><path d="M93.6,292.5v-225h292.8v225z" fill-opacity="0.30645" fill="#00ffed" stroke="#000000" stroke-width="2" stroke-linecap="butt"></path><path d="M101.65404,240.1665c0,-36.06439 0,-98.3117 0,-118.88311c0,-13.00136 8.72198,-28.06754 18.40826,-28.06754c29.80742,0 184.95947,0 239.3889,0c11.82401,0 18.89486,10.44842 18.89486,25.8928c0,36.39253 0,100.52466 0,121.05779c0,12.44751 -7.26568,26.61771 -19.38145,26.61771c-54.73159,0 -208.43653,0 -238.41581,0c-9.91289,0 -18.89486,-10.78607 -18.89486,-26.61771z" fill-opacity="0.62097" fill="#291800" stroke="#fff4ce" stroke-width="2" stroke-linecap="butt"></path><text transform="translate(122.75,148.98875) scale(0.3493,0.3493)" font-size="40" xml:space="preserve" fill="#fff4ce" fill-rule="nonzero" stroke="none" stroke-width="1" stroke-linecap="butt" stroke-linejoin="miter" stroke-miterlimit="10" stroke-dasharray="" stroke-dashoffset="0" font-family="Serif" font-weight="normal" text-anchor="start" style="mix-blend-mode: normal"><tspan x="0" dy="0">The host left the game.</tspan><tspan x="0" dy="46.150000000000006px"> Play solo as the server resets.</tspan></text><path d="M120.75,120.25l241.5,2" fill="none" stroke="#fff4ce" stroke-width="2" stroke-linecap="round"></path><text transform="translate(188.75,112.25) scale(0.5,0.5)" font-size="40" xml:space="preserve" fill="#ffffff" fill-rule="nonzero" stroke="none" stroke-width="1" stroke-linecap="butt" stroke-linejoin="miter" stroke-miterlimit="10" stroke-dasharray="" stroke-dashoffset="0" font-family="Serif" font-weight="normal" text-anchor="start" style="mix-blend-mode: normal"><tspan x="0" dy="0">Disconnected</tspan></text><text transform="translate(115.75,260.98235) scale(0.30651,0.30651)" font-size="40" xml:space="preserve" fill="#00ff3c" fill-rule="nonzero" stroke="none" stroke-width="1" stroke-linecap="butt" stroke-linejoin="miter" stroke-miterlimit="10" stroke-dasharray="" stroke-dashoffset="0" font-family="Sans Serif" font-weight="normal" text-anchor="start" style="mix-blend-mode: normal"><tspan x="0" dy="0">xAmt8</tspan></text><text transform="translate(279.75,261.00219) scale(0.30479,0.30479)" font-size="40" xml:space="preserve" fill="#ffffff" fill-rule="nonzero" stroke="none" stroke-width="1" stroke-linecap="butt" stroke-linejoin="miter" stroke-miterlimit="10" stroke-dasharray="" stroke-dashoffset="0" font-family="Sans Serif" font-weight="normal" text-anchor="start" style="mix-blend-mode: normal"><tspan x="0" dy="0">ID: 03</tspan></text></g></g></svg>