<svg version="1.1" xmlns="http://www.w3.org/2000/svg" xmlns:xlink="http://www.w3.org/1999/xlink" width="104" height="93" viewBox="0,0,104,93"><g transform="translate(-191.375,-133.125)"><g data-paper-data="{&quot;isPaintingLayer&quot;:true}" fill-rule="nonzero" stroke="none" stroke-width="0" stroke-linecap="butt" stroke-linejoin="miter" stroke-miterlimit="10" stroke-dasharray="" stroke-dashoffset="0" style="mix-blend-mode: normal"><path d="M222.875,193.625c0,0 -31.5,-14.32466 -31.5,-18.75c0,-3.05612 31.5,-5.25 31.5,-5.25c0,0 13.38016,-36.5 19.25,-36.5c3.74648,0 24.93343,7.17962 28.58693,17.78963c0.82467,2.3949 -8.94129,5.70871 -10.9127,8.66064c-3.56116,5.33239 -0.92423,10.04972 -0.92423,10.04972c0,0 36.5,26.12714 36.5,28.5c0,4.35188 -36.5,-4.5 -36.5,-4.5c0,0 -12.73745,32.5 -19,32.5c-5.6806,0 -17,-32.5 -17,-32.5z" fill="#ffa566"></path><path d="M228.85293,190.1028c0,0 -19.54451,-18.86286 -18.38329,-22.13667c0.80193,-2.26088 24.68093,4.38176 24.68093,4.38176c0,0 19.47613,-23.49129 23.81857,-21.95103c2.7716,0.98308 16.56151,11.85396 16.48024,20.66181c-0.01834,1.98811 -8.11263,1.87702 -10.34565,3.54353c-4.03373,3.01039 -3.3208,7.19214 -3.3208,7.19214c0,0 20.14646,28.90619 19.52382,30.66161c-1.14194,3.21947 -25.82145,-12.9067 -25.82145,-12.9067c0,0 -17.95106,20.70078 -22.58401,19.05748c-4.20244,-1.4906 -4.04835,-28.50393 -4.04835,-28.50393z" fill="#ff6666"></path><path d="M232.17802,183.9408c0,0 -9.43394,-21.85109 -7.38961,-24.10609c1.4118,-1.5573 18.47663,11.8765 18.47663,11.8765c0,0 23.6796,-12.4181 26.67068,-9.70647c1.90908,1.73072 9.38855,15.17672 6.34886,22.27101c-0.68612,1.60133 -7.19337,-1.22155 -9.56161,-0.62805c-4.27799,1.0721 -5.11352,4.69405 -5.11352,4.69405c0,0 6.52951,30.17503 5.43334,31.38416c-2.01039,2.21757 -16.52037,-19.15457 -16.52037,-19.15457c0,0 -21.50426,10.67673 -24.69544,7.78369c-2.89465,-2.6242 6.35105,-24.41422 6.35105,-24.41422z" fill="#ffd566"></path></g></g></svg>