<svg version="1.1" xmlns="http://www.w3.org/2000/svg" xmlns:xlink="http://www.w3.org/1999/xlink" width="110.24407" height="83.95102" viewBox="0,0,110.24407,83.95102"><defs><linearGradient x1="225.08636" y1="205.99043" x2="249.88093" y2="206.71045" gradientUnits="userSpaceOnUse" id="color-1"><stop offset="0" stop-color="#e1e1e1"></stop><stop offset="1" stop-color="#fdfdfd"></stop></linearGradient><linearGradient x1="225.2275" y1="209.24358" x2="228.94288" y2="209.35148" gradientUnits="userSpaceOnUse" id="color-2"><stop offset="0" stop-color="#ffffff"></stop><stop offset="1" stop-color="#bcbcbc"></stop></linearGradient><linearGradient x1="225.66884" y1="202.75395" x2="229.28281" y2="203.62277" gradientUnits="userSpaceOnUse" id="color-3"><stop offset="0" stop-color="#ffffff"></stop><stop offset="1" stop-color="#bcbcbc"></stop></linearGradient><linearGradient x1="262.30296" y1="206.74172" x2="287.1063" y2="207.03036" gradientUnits="userSpaceOnUse" id="color-4"><stop offset="0" stop-color="#e1e1e1"></stop><stop offset="1" stop-color="#fdfdfd"></stop></linearGradient><linearGradient x1="262.50068" y1="209.99193" x2="266.21736" y2="210.03518" gradientUnits="userSpaceOnUse" id="color-5"><stop offset="0" stop-color="#ffffff"></stop><stop offset="1" stop-color="#bcbcbc"></stop></linearGradient><linearGradient x1="262.82906" y1="203.4956" x2="266.45759" y2="204.30143" gradientUnits="userSpaceOnUse" id="color-6"><stop offset="0" stop-color="#ffffff"></stop><stop offset="1" stop-color="#bcbcbc"></stop></linearGradient></defs><g transform="translate(-184.87797,-137.96199)"><g data-paper-data="{&quot;isPaintingLayer&quot;:true}" fill-rule="nonzero" stroke-linecap="butt" stroke-linejoin="miter" stroke-miterlimit="10" stroke-dasharray="" stroke-dashoffset="0" style="mix-blend-mode: normal"><path d="M186.36815,168.12083v-5.26567h46.38445v5.26567z" fill="#a2a2a2" stroke="none" stroke-width="0.25"></path><path d="M292.74206,218.04721v-72.7443h2.16965v72.7443z" fill="#c78300" stroke="#000000" stroke-width="0.25"></path><path d="M185.23525,218.05219v-70.40401h2.69311v70.40401z" fill="#c78300" stroke="#000000" stroke-width="0.25"></path><path d="M185.00298,148.81336v-10.72637h109.99407v10.72637z" fill="#e4e4e4" stroke="#000000" stroke-width="0.25"></path><g><text transform="translate(247.05522,213.03629) rotate(-88.33663) scale(0.1141,0.1141)" font-size="40" xml:space="preserve" fill="#d48989" fill-rule="nonzero" stroke="none" stroke-width="0.5" stroke-linecap="butt" stroke-linejoin="miter" stroke-miterlimit="10" stroke-dasharray="" stroke-dashoffset="0" font-family="Serif" font-weight="normal" text-anchor="start" style="mix-blend-mode: normal"><tspan x="0" dy="0">xAmt8</tspan></text><path d="M249.34622,213.97773l-25.7648,-0.74819l0.42262,-14.55334l25.7648,0.74819z" fill="#976a37" stroke="#b17a57" stroke-width="0.25"></path><path d="M223.69861,212.90926l-2.58726,-0.07513l0.02504,-0.86242l2.58726,0.07513z" fill="#9f6726" stroke="none" stroke-width="0.25"></path><path d="M224.24642,199.91539l-2.58726,-0.07513l0.02504,-0.86242l2.58726,0.07513z" fill="#9f6726" stroke="none" stroke-width="0.25"></path><path d="M222.3003,212.76076l-0.86242,-0.02504l0.39758,-13.69092l0.86242,0.02504z" fill="#9f6726" stroke="none" stroke-width="0.25"></path><path d="M223.6409,211.18129l-1.94044,-0.05635l0.02191,-0.75462l1.94044,0.05635z" fill="#9f6726" stroke="none" stroke-width="0.25"></path><path d="M223.60509,208.6987l-1.29363,-0.03757l0.02817,-0.97022l1.29363,0.03757z" fill="#9f6726" stroke="none" stroke-width="0.25"></path><path d="M224.23176,205.69589l-2.04825,-0.05948l0.02504,-0.86242l2.04825,0.05948z" fill="#9f6726" stroke="none" stroke-width="0.25"></path><path d="M224.31942,202.67741l-1.83264,-0.05322l0.02504,-0.86242l1.83264,0.05322z" fill="#9f6726" stroke="none" stroke-width="0.25"></path><path d="M251.01647,212.19204l-1.83264,-0.05322l0.03131,-1.07803l1.83264,0.05322z" fill="#bb792d" stroke="none" stroke-width="0.25"></path><path d="M251.43906,203.51027l-1.83264,-0.05322l0.03131,-1.07802l1.83264,0.05322z" fill="#bb792d" stroke="none" stroke-width="0.25"></path><path d="M249.6978,213.0169l-24.79458,-0.72002l0.36627,-12.61289l24.79458,0.72002z" fill="url(#color-1)" stroke="none" stroke-width="0.25"></path><path d="M228.3094,211.61913c-0.72484,0.00767 -1.9759,0.0209 -2.38936,0.02527c-0.13145,0.00139 -0.4244,0.11949 -0.53364,0.06285c-0.10791,-0.05596 -0.0329,-0.28616 -0.03376,-0.36735c-0.00532,-0.50272 -0.03299,-3.11942 -0.0427,-4.0374c-0.00107,-0.1016 -0.05822,-0.37752 0.03573,-0.43334c0.09045,-0.05374 0.32904,0.11077 0.4813,0.10916c0.73143,-0.00774 2.02038,-0.02137 2.43306,-0.02573c0.10387,-0.0011 0.32129,-0.11276 0.41466,-0.0744c0.13149,0.05402 0.12251,0.27613 0.12377,0.39562c0.00976,0.92307 0.03718,3.51538 0.04253,4.02099c0.00105,0.09938 0.10078,0.32266 -0.02755,0.38379c-0.08756,0.0417 -0.375,-0.06082 -0.50405,-0.05946z" fill="url(#color-2)" stroke="#fff4ce" stroke-width="0.25"></path><path d="M228.197,205.71193c-0.71095,-0.1414 -1.93806,-0.38545 -2.34359,-0.4661c-0.12893,-0.02564 -0.4399,0.02976 -0.53517,-0.04812c-0.09411,-0.07693 0.02659,-0.28682 0.04243,-0.36644c0.09807,-0.49309 0.60852,-3.05968 0.7876,-3.96007c0.01982,-0.09966 0.02058,-0.38143 0.12398,-0.41676c0.09956,-0.03401 0.29927,0.17601 0.44861,0.20571c0.71742,0.14269 1.98168,0.39413 2.38646,0.47463c0.10189,0.02026 0.3376,-0.04435 0.4211,0.01236c0.11759,0.07988 0.06317,0.29541 0.03986,0.41261c-0.18007,0.90539 -0.68576,3.44804 -0.7844,3.94397c-0.01939,0.09748 0.03236,0.33648 -0.10581,0.36994c-0.09426,0.02283 -0.35451,-0.13656 -0.48108,-0.16174z" fill="url(#color-3)" stroke="#fff4ce" stroke-width="0.25"></path><path d="M249.29859,213.0053l-15.38503,-0.44677c0,0 1.13707,-1.81262 1.16851,-2.89494c0.02174,-0.74852 -1.31654,-2.12956 -1.43715,-3.58452c-0.09059,-1.09278 1.17907,-2.26478 1.30103,-3.26972c0.19838,-1.63455 -0.66611,-2.86372 -0.66611,-2.86372l15.38503,0.44677z" fill="#7be3e3" stroke="#535353" stroke-width="0.25"></path><path d="M237.75365,212.7091l-0.57296,-0.01664c0,0 0.22504,-0.69677 0.24414,-1.35457c0.01829,-0.62967 -0.3106,-2.06644 -0.29338,-3.69344c0.01509,-1.42568 0.42447,-3.09154 0.50928,-4.42128c0.11078,-1.73696 -0.09902,-2.96272 -0.09902,-2.96272l0.57296,0.01664z" fill="#8affff" stroke="none" stroke-width="0.25"></path><path d="M241.00754,212.68944l-0.57296,-0.01664c0,0 0.22504,-0.69677 0.24414,-1.35457c0.01829,-0.62967 -0.3106,-2.06644 -0.29338,-3.69344c0.01509,-1.42568 0.42448,-3.09154 0.50928,-4.42128c0.11078,-1.73696 -0.09903,-2.96272 -0.09903,-2.96272l0.57296,0.01664z" fill="#8affff" stroke="none" stroke-width="0.25"></path><path d="M244.71598,212.74006l-0.57296,-0.01664c0,0 0.22504,-0.69677 0.24414,-1.35457c0.01829,-0.62967 -0.3106,-2.06644 -0.29338,-3.69344c0.01509,-1.42568 0.42448,-3.09154 0.50928,-4.42128c0.11078,-1.73696 -0.09903,-2.96272 -0.09903,-2.96272l0.57296,0.01664z" fill="#8affff" stroke="none" stroke-width="0.25"></path><path d="M247.50204,213.10634l-0.57296,-0.01664c0,0 0.22504,-0.69677 0.24414,-1.35457c0.01829,-0.62967 -0.3106,-2.06644 -0.29338,-3.69344c0.01509,-1.42568 0.42448,-3.09154 0.50928,-4.42128c0.11078,-1.73696 -0.09903,-2.96272 -0.09903,-2.96272l0.57296,0.01664z" fill="#8affff" stroke="none" stroke-width="0.25"></path></g><path d="M185.34461,221.91301v-7.07439h109.53901v7.07439z" fill="#af8746" stroke="none" stroke-width="0.25"></path><g><text transform="translate(284.39106,213.4044) rotate(-89.33306) scale(0.1141,0.1141)" font-size="40" xml:space="preserve" fill="#d48989" fill-rule="nonzero" stroke="none" stroke-width="0.5" stroke-linecap="butt" stroke-linejoin="miter" stroke-miterlimit="10" stroke-dasharray="" stroke-dashoffset="0" font-family="Serif" font-weight="normal" text-anchor="start" style="mix-blend-mode: normal"><tspan x="0" dy="0">xAmt8</tspan></text><path d="M286.69807,214.30584l-25.77392,-0.29993l0.16942,-14.55849l25.77392,0.29993z" fill="#976a37" stroke="#b17a57" stroke-width="0.25"></path><path d="M261.03576,213.68365l-2.58818,-0.03012l0.01004,-0.86272l2.58818,0.03012z" fill="#9f6726" stroke="none" stroke-width="0.25"></path><path d="M261.35747,200.68221l-2.58817,-0.03012l0.01004,-0.86272l2.58817,0.03012z" fill="#9f6726" stroke="none" stroke-width="0.25"></path><path d="M259.63509,213.55949l-0.86272,-0.01004l0.15938,-13.69576l0.86272,0.01004z" fill="#9f6726" stroke="none" stroke-width="0.25"></path><path d="M260.948,211.95694l-1.94113,-0.02259l0.00878,-0.75489l1.94113,0.02259z" fill="#9f6726" stroke="none" stroke-width="0.25"></path><path d="M260.86902,209.47535l-1.29409,-0.01506l0.01129,-0.97057l1.29409,0.01506z" fill="#9f6726" stroke="none" stroke-width="0.25"></path><path d="M261.44336,206.46209l-2.04897,-0.02384l0.01004,-0.86272l2.04897,0.02384z" fill="#9f6726" stroke="none" stroke-width="0.25"></path><path d="M261.47851,203.44255l-1.83329,-0.02134l0.01004,-0.86272l1.83329,0.02134z" fill="#9f6726" stroke="none" stroke-width="0.25"></path><path d="M288.33702,212.49138l-1.83329,-0.02134l0.01255,-1.07841l1.83329,0.02134z" fill="#bb792d" stroke="none" stroke-width="0.25"></path><path d="M288.60853,203.80357l-1.83329,-0.02134l0.01255,-1.0784l1.83329,0.02134z" fill="#bb792d" stroke="none" stroke-width="0.25"></path><path d="M287.03288,213.33904l-24.80335,-0.28864l0.14683,-12.61736l24.80335,0.28864z" fill="url(#color-4)" stroke="none" stroke-width="0.25"></path><path d="M265.62341,212.31351c-0.72459,0.02027 -1.97524,0.05526 -2.38856,0.06683c-0.13141,0.00368 -0.42226,0.12686 -0.53246,0.07212c-0.10887,-0.05407 -0.03787,-0.28555 -0.04014,-0.3667c-0.01406,-0.50255 -0.08725,-3.11838 -0.11292,-4.03605c-0.00284,-0.10157 -0.06477,-0.37645 0.02818,-0.43389c0.0895,-0.0553 0.33092,0.10503 0.48313,0.10077c0.73118,-0.02046 2.0197,-0.05651 2.43225,-0.06805c0.10384,-0.00291 0.31928,-0.11833 0.4133,-0.0816c0.13241,0.05172 0.12729,0.27395 0.13064,0.39341c0.02582,0.92276 0.09832,3.5142 0.11246,4.01965c0.00278,0.09935 0.10638,0.32086 -0.02087,0.38421c-0.08682,0.04322 -0.376,-0.05429 -0.50501,-0.05068z" fill="url(#color-5)" stroke="#fff4ce" stroke-width="0.25"></path><path d="M265.40828,206.40916c-0.7133,-0.12901 -1.94447,-0.35168 -2.35134,-0.42527c-0.12936,-0.0234 -0.43932,0.03741 -0.53592,-0.0388c-0.09544,-0.07528 0.0216,-0.28724 0.03605,-0.36713c0.08948,-0.49472 0.55521,-3.0698 0.7186,-3.97317c0.01808,-0.09998 0.01394,-0.38173 0.11672,-0.41885c0.09895,-0.03573 0.30228,0.17077 0.45212,0.19787c0.71979,0.13018 1.98824,0.3596 2.39435,0.43305c0.10222,0.01849 0.33678,-0.05021 0.42125,0.00504c0.11897,0.07782 0.0683,0.29426 0.04703,0.41186c-0.16429,0.90839 -0.62568,3.45945 -0.71568,3.95702c-0.01769,0.0978 0.0382,0.33587 -0.09935,0.37172c-0.09385,0.02447 -0.35683,-0.13037 -0.48382,-0.15334z" fill="url(#color-6)" stroke="#fff4ce" stroke-width="0.25"></path><path d="M286.63356,213.33439l-15.39048,-0.1791c0,0 1.10537,-1.83212 1.11797,-2.91483c0.00871,-0.74879 -1.35338,-2.10634 -1.49929,-3.55897c-0.10959,-1.09104 1.1395,-2.28495 1.24396,-3.29185c0.16992,-1.63775 -0.71582,-2.8517 -0.71582,-2.8517l15.39048,0.1791z" fill="#7be3e3" stroke="#535353" stroke-width="0.25"></path><path d="M275.0852,213.23905l-0.57317,-0.00667c0,0 0.21288,-0.70057 0.22054,-1.35861c0.00733,-0.6299 -0.34649,-2.06073 -0.35758,-3.68777c-0.00971,-1.42573 0.37063,-3.09846 0.4323,-4.42947c0.08055,-1.73862 -0.15054,-2.96055 -0.15054,-2.96055l0.57317,0.00667z" fill="#8affff" stroke="none" stroke-width="0.25"></path><path d="M278.33824,213.16279l-0.57317,-0.00667c0,0 0.21288,-0.70057 0.22054,-1.35861c0.00733,-0.6299 -0.34649,-2.06073 -0.35758,-3.68777c-0.00971,-1.42573 0.37064,-3.09846 0.4323,-4.42947c0.08055,-1.73862 -0.15054,-2.96055 -0.15054,-2.96055l0.57317,0.00667z" fill="#8affff" stroke="none" stroke-width="0.25"></path><path d="M282.04702,213.1489l-0.57317,-0.00667c0,0 0.21288,-0.70057 0.22054,-1.35861c0.00733,-0.6299 -0.34649,-2.06073 -0.35758,-3.68777c-0.00971,-1.42573 0.37064,-3.09846 0.4323,-4.42947c0.08055,-1.73862 -0.15054,-2.96055 -0.15054,-2.96055l0.57317,0.00667z" fill="#8affff" stroke="none" stroke-width="0.25"></path><path d="M284.83903,213.46667l-0.57317,-0.00667c0,0 0.21288,-0.70057 0.22054,-1.35861c0.00733,-0.6299 -0.34649,-2.06073 -0.35758,-3.68777c-0.00971,-1.42573 0.37064,-3.09846 0.4323,-4.42947c0.08055,-1.73862 -0.15054,-2.96055 -0.15054,-2.96055l0.57317,0.00667z" fill="#8affff" stroke="none" stroke-width="0.25"></path></g><path d="M246.04409,168.46314v-5.26567h46.38445v5.26567z" fill="#a2a2a2" stroke="none" stroke-width="0.25"></path><path d="M244.39501,143.79214c0,2.64673 -2.12006,4.79233 -4.73528,4.79233c-2.61522,0 -4.73528,-2.1456 -4.73528,-4.79233c0,-2.64673 2.12006,-4.79233 4.73528,-4.79233c2.61522,0 4.73528,2.1456 4.73528,4.79233z" fill="#ffffff" stroke="#000000" stroke-width="0.25"></path><path d="M238.91805,146.07421v-5.36285h1.25513v5.36285z" fill="#ab3030" stroke="none" stroke-width="0.25"></path><path d="M237.43472,144.13445v-1.25513h3.99361v1.25513z" fill="#ab3030" stroke="none" stroke-width="0.25"></path><path d="M268.65306,162.21062c0,0 0.4014,-0.53025 0.40021,-0.80906c-0.00182,-0.42589 -0.41009,-1.49761 -0.41009,-1.49761l1.15334,-0.00494c0,0 -0.28373,1.07536 -0.28191,1.50057c0.00126,0.29505 0.29179,0.8061 0.29179,0.8061z" fill="#803400" stroke="none" stroke-width="0.25"></path><path d="M288.90637,162.15357c0,0 0.4014,-0.53025 0.40021,-0.80906c-0.00182,-0.42589 -0.41009,-1.49761 -0.41009,-1.49761l1.15334,-0.00494c0,0 -0.28373,1.07536 -0.28191,1.50057c0.00126,0.29505 0.29179,0.8061 0.29179,0.8061z" fill="#803400" stroke="none" stroke-width="0.25"></path><path d="M267.13881,160.19414c0,0 -0.62757,-0.63217 -0.62757,-0.91283c0,-0.21525 0.62757,-0.62757 0.62757,-0.62757h23.6764c0,0 0.39936,0.51294 0.39936,0.74167c0,0.27586 -0.39936,0.79872 -0.39936,0.79872z" fill="#bb6d00" stroke="#000000" stroke-width="0.25"></path><path d="M275.87482,159.96593c0,0 -0.17827,-0.47998 -0.17827,-0.69307c0,-0.16343 0.17827,-0.47649 0.17827,-0.47649h6.72563c0,0 0.11344,0.38946 0.11344,0.56312c0,0.20945 -0.11344,0.60644 -0.11344,0.60644z" fill="#d57c00" stroke="#000000" stroke-width="0.25"></path></g></g></svg>