<svg version="1.1" xmlns="http://www.w3.org/2000/svg" xmlns:xlink="http://www.w3.org/1999/xlink" width="113.65219" height="85.83488" viewBox="0,0,113.65219,85.83488"><defs><linearGradient x1="267.08868" y1="202.13062" x2="267.08868" y2="205.61857" gradientUnits="userSpaceOnUse" id="color-1"><stop offset="0" stop-color="#515151"></stop><stop offset="1" stop-color="#949494"></stop></linearGradient><radialGradient cx="269.90286" cy="207.94353" r="5.17004" gradientUnits="userSpaceOnUse" id="color-2"><stop offset="0" stop-color="#373737"></stop><stop offset="1" stop-color="#626262"></stop></radialGradient><linearGradient x1="189.01476" y1="202.23981" x2="195.04997" y2="210.327" gradientUnits="userSpaceOnUse" id="color-3"><stop offset="0" stop-color="#f5d95e" stop-opacity="0.76745"></stop><stop offset="1" stop-color="#f5d95e" stop-opacity="0"></stop></linearGradient><linearGradient x1="183.24203" y1="202.33072" x2="189.27725" y2="210.41791" gradientUnits="userSpaceOnUse" id="color-4"><stop offset="0" stop-color="#f5d95e" stop-opacity="0.76745"></stop><stop offset="1" stop-color="#f5d95e" stop-opacity="0"></stop></linearGradient></defs><g transform="translate(-181.31466,-136.66229)"><g data-paper-data="{&quot;isPaintingLayer&quot;:true}" fill-rule="nonzero" stroke-linejoin="miter" stroke-miterlimit="10" stroke-dasharray="" stroke-dashoffset="0" style="mix-blend-mode: normal"><path d="M185.13569,141.10743v-3.72902h25.07679v3.72902z" fill="#3b69bf" stroke="none" stroke-width="0.5" stroke-linecap="butt"></path><path d="M182.57199,189.58462v-52.67234h2.5637v52.67234z" fill="#3b69bf" stroke="none" stroke-width="0.5" stroke-linecap="butt"></path><path d="M182.57199,221.32078v-5.51584h111.75393v5.51584z" fill="#757575" stroke="none" stroke-width="0.5" stroke-linecap="butt"></path><g><path d="M257.18143,205.98962l5.64008,-4.30427l15.51022,0.29685l-1.41002,4.00743z" fill="#ad6e3d" stroke="#000000" stroke-width="0.5" stroke-linecap="butt"></path><path d="M262.82152,205.61857c0,0 -0.37106,-1.24975 -0.37106,-1.85529c0,-0.58081 2.15214,-1.63266 2.15214,-1.63266l4.67533,0.51948l2.44898,2.96846z" fill="url(#color-1)" stroke="none" stroke-width="0.5" stroke-linecap="butt"></path><path d="M257.47828,221.05458l3.41373,-8.46012l12.02228,0.22263l3.93321,8.3117z" fill="#a56839" stroke="#000000" stroke-width="0.5" stroke-linecap="butt"></path><path d="M261.64333,215.39811l-1.92135,-3.1744l2.79347,-1.69079l1.92135,3.1744z" fill="#6e4627" stroke="#000000" stroke-width="0.5" stroke-linecap="butt"></path><g stroke-linecap="butt"><path d="M271.86019,206.38202h4.08325v13.96818h-17.8358v-13.96818h8.29118" fill="none" stroke="#949494" stroke-width="0.5"></path><path d="M258.40082,208.47881l0.9089,-1.78438l-0.01597,-0.00069l0.81554,1.85886c0,0 -0.77275,1.92524 -0.85673,1.99206c-0.24808,0.19739 -0.85174,-2.06585 -0.85174,-2.06585z" fill="none" stroke="#949494" stroke-width="0.5"></path><path d="M259.51956,210.33271l0.9089,-1.78438l-0.01597,-0.00069l0.81554,1.85886c0,0 -0.77275,1.92524 -0.85673,1.99206c-0.24808,0.19739 -0.85174,-2.06585 -0.85174,-2.06585z" fill="none" stroke="#949494" stroke-width="0.5"></path><path d="M260.60633,208.60667l0.9089,-1.78438l-0.01597,-0.00069l0.81554,1.85886c0,0 -0.77275,1.92524 -0.85673,1.99206c-0.24808,0.19739 -0.85174,-2.06585 -0.85174,-2.06585z" fill="none" stroke="#949494" stroke-width="0.5"></path><path d="M261.62918,210.46057l0.9089,-1.78438l-0.01597,-0.00069l0.81554,1.85886c0,0 -0.77275,1.92524 -0.85673,1.99206c-0.24808,0.19739 -0.85174,-2.06585 -0.85174,-2.06585z" fill="none" stroke="#949494" stroke-width="0.5"></path><path d="M262.81183,208.70256l0.9089,-1.78438l-0.01597,-0.00069l0.81554,1.85886c0,0 -0.77275,1.92524 -0.85673,1.99206c-0.24808,0.19739 -0.85174,-2.06584 -0.85174,-2.06584z" fill="none" stroke="#949494" stroke-width="0.5"></path><path d="M263.86664,210.55646l0.9089,-1.78438l-0.01597,-0.00069l0.81554,1.85886c0,0 -0.77275,1.92524 -0.85673,1.99206c-0.24808,0.19739 -0.85174,-2.06584 -0.85174,-2.06584z" fill="none" stroke="#949494" stroke-width="0.5"></path><path d="M266.59635,209.09643c-0.22376,0.55042 -0.66498,1.62242 -0.72727,1.67198c-0.24808,0.19739 -0.85174,-2.06585 -0.85174,-2.06585v0l0.9089,-1.78438l-0.01597,-0.00069l0.25132,0.57283" fill="none" stroke="#949494" stroke-width="0.5"></path><path d="M267.61179,210.09974l0.23275,0.53051c0,0 -0.77275,1.92524 -0.85673,1.99206c-0.24808,0.19739 -0.85174,-2.06584 -0.85174,-2.06584v0l0.62244,-1.222" fill="none" stroke="#949494" stroke-width="0.5"></path><path d="M268.31147,210.40239c-0.11662,0.2695 -0.21057,0.47293 -0.23689,0.49388c-0.11155,0.08875 -0.29497,-0.31995 -0.46309,-0.7967" fill="none" stroke="#949494" stroke-width="0.5"></path><path d="M269.81343,210.43736l0.14072,0.32075c0,0 -0.77275,1.92524 -0.85673,1.99206c-0.24808,0.19739 -0.85174,-2.06584 -0.85174,-2.06584l0.1341,-0.26327" fill="none" stroke="#949494" stroke-width="0.5"></path><path d="M270.69962,210.06777c-0.19083,0.45653 -0.38031,0.89318 -0.41954,0.92438c-0.0938,0.07463 -0.23843,-0.2025 -0.38205,-0.57607" fill="none" stroke="#949494" stroke-width="0.5"></path><path d="M271.51591,209.31385l0.67571,1.54015c0,0 -0.77275,1.92524 -0.85673,1.99206c-0.24808,0.19739 -0.85174,-2.06585 -0.85174,-2.06585l0.44234,-0.86842" fill="none" stroke="#949494" stroke-width="0.5"></path><path d="M272.06052,207.07522l0.22652,-0.44471l-0.01597,-0.00069l0.81554,1.85886c0,0 -0.77275,1.92524 -0.85673,1.99206c-0.14962,0.11904 -0.42855,-0.65686 -0.62641,-1.29156" fill="none" stroke="#949494" stroke-width="0.5"></path><path d="M272.40098,210.26879l0.9089,-1.78438l-0.01597,-0.00069l0.81554,1.85886c0,0 -0.77275,1.92524 -0.85673,1.99206c-0.24808,0.19739 -0.85174,-2.06585 -0.85174,-2.06585z" fill="none" stroke="#949494" stroke-width="0.5"></path><path d="M273.58364,208.51078l0.9089,-1.78438l-0.01596,-0.00069l0.81554,1.85886c0,0 -0.77275,1.92524 -0.85673,1.99206c-0.24808,0.19739 -0.85174,-2.06584 -0.85174,-2.06584z" fill="none" stroke="#949494" stroke-width="0.5"></path><path d="M274.63844,210.36468l0.80687,-1.78438l-0.01417,-0.00069l0.72399,1.85886c0,0 -0.68601,1.92524 -0.76056,1.99206c-0.22024,0.19739 -0.75613,-2.06585 -0.75613,-2.06585z" fill="none" stroke="#949494" stroke-width="0.5"></path><path d="M258.36887,212.18662l0.9089,-1.78438l-0.01597,-0.00069l0.81554,1.85886c0,0 -0.77275,1.92524 -0.85673,1.99206c-0.24808,0.19739 -0.85174,-2.06584 -0.85174,-2.06584z" fill="none" stroke="#949494" stroke-width="0.5"></path><path d="M259.4876,214.04052l0.9089,-1.78438l-0.01597,-0.00069l0.81554,1.85886c0,0 -0.77275,1.92524 -0.85673,1.99206c-0.24808,0.19739 -0.85174,-2.06585 -0.85174,-2.06585z" fill="none" stroke="#949494" stroke-width="0.5"></path><path d="M260.57436,212.31447l0.9089,-1.78438l-0.01597,-0.00069l0.81554,1.85886c0,0 -0.77275,1.92524 -0.85673,1.99206c-0.24808,0.19739 -0.85174,-2.06584 -0.85174,-2.06584z" fill="none" stroke="#949494" stroke-width="0.5"></path><path d="M261.59721,214.16837l0.9089,-1.78438l-0.01597,-0.00069l0.81554,1.85886c0,0 -0.77275,1.92524 -0.85673,1.99206c-0.24808,0.19739 -0.85174,-2.06585 -0.85174,-2.06585z" fill="none" stroke="#949494" stroke-width="0.5"></path><path d="M262.77987,212.41036l0.9089,-1.78438l-0.01597,-0.00069l0.81554,1.85886c0,0 -0.77275,1.92524 -0.85673,1.99206c-0.24808,0.19739 -0.85174,-2.06584 -0.85174,-2.06584z" fill="none" stroke="#949494" stroke-width="0.5"></path><path d="M263.83467,214.26426l0.9089,-1.78438l-0.01597,-0.00069l0.81554,1.85886c0,0 -0.77275,1.92524 -0.85673,1.99206c-0.24808,0.19739 -0.85174,-2.06584 -0.85174,-2.06584z" fill="none" stroke="#949494" stroke-width="0.5"></path><path d="M264.98538,212.41036l0.9089,-1.78438l-0.01597,-0.00069l0.81554,1.85886c0,0 -0.77275,1.92524 -0.85673,1.99206c-0.24808,0.19739 -0.85174,-2.06584 -0.85174,-2.06584z" fill="none" stroke="#949494" stroke-width="0.5"></path><path d="M266.10411,214.26426l0.9089,-1.78438l-0.01597,-0.00069l0.81554,1.85886c0,0 -0.77275,1.92524 -0.85673,1.99206c-0.24808,0.19739 -0.85174,-2.06584 -0.85174,-2.06584z" fill="none" stroke="#949494" stroke-width="0.5"></path><path d="M267.19088,212.53822l0.9089,-1.78438l-0.01596,-0.00069l0.81554,1.85886c0,0 -0.77275,1.92524 -0.85673,1.99206c-0.24808,0.19739 -0.85174,-2.06584 -0.85174,-2.06584z" fill="none" stroke="#949494" stroke-width="0.5"></path><path d="M268.21372,214.39212l0.9089,-1.78438l-0.01597,-0.00069l0.81554,1.85886c0,0 -0.77275,1.92524 -0.85673,1.99206c-0.24808,0.19739 -0.85174,-2.06585 -0.85174,-2.06585z" fill="none" stroke="#949494" stroke-width="0.5"></path><path d="M269.39638,212.63411l0.9089,-1.78438l-0.01597,-0.00069l0.81554,1.85886c0,0 -0.77275,1.92524 -0.85673,1.99206c-0.24808,0.19739 -0.85174,-2.06584 -0.85174,-2.06584z" fill="none" stroke="#949494" stroke-width="0.5"></path><path d="M270.45119,214.48801l0.9089,-1.78438l-0.01597,-0.00069l0.81554,1.85886c0,0 -0.77275,1.92524 -0.85673,1.99206c-0.24808,0.19739 -0.85174,-2.06585 -0.85174,-2.06585z" fill="none" stroke="#949494" stroke-width="0.5"></path><path d="M271.34617,212.12269l0.9089,-1.78438l-0.01597,-0.00069l0.81554,1.85886c0,0 -0.77275,1.92524 -0.85673,1.99206c-0.24808,0.19739 -0.85174,-2.06585 -0.85174,-2.06585z" fill="none" stroke="#949494" stroke-width="0.5"></path><path d="M272.36901,213.97659l0.9089,-1.78438l-0.01597,-0.00069l0.81554,1.85886c0,0 -0.77275,1.92524 -0.85673,1.99206c-0.24808,0.19739 -0.85174,-2.06584 -0.85174,-2.06584z" fill="none" stroke="#949494" stroke-width="0.5"></path><path d="M273.55168,212.21858l0.9089,-1.78438l-0.01597,-0.00069l0.81554,1.85886c0,0 -0.77275,1.92524 -0.85673,1.99206c-0.24808,0.19739 -0.85174,-2.06584 -0.85174,-2.06584z" fill="none" stroke="#949494" stroke-width="0.5"></path><path d="M274.60648,214.07248l0.80687,-1.78438l-0.01417,-0.00069l0.72399,1.85886c0,0 -0.68601,1.92524 -0.76056,1.99206c-0.22024,0.19739 -0.75613,-2.06584 -0.75613,-2.06584z" fill="none" stroke="#949494" stroke-width="0.5"></path><path d="M258.20905,215.92638l0.9089,-1.78438l-0.01597,-0.00069l0.81554,1.85886c0,0 -0.77275,1.92524 -0.85673,1.99206c-0.24808,0.19739 -0.85174,-2.06584 -0.85174,-2.06584z" fill="none" stroke="#949494" stroke-width="0.5"></path><path d="M259.32778,217.78028l0.9089,-1.78438l-0.01597,-0.00069l0.81554,1.85886c0,0 -0.77275,1.92524 -0.85673,1.99206c-0.24808,0.19739 -0.85174,-2.06585 -0.85174,-2.06585z" fill="none" stroke="#949494" stroke-width="0.5"></path><path d="M260.41454,216.05423l0.9089,-1.78438l-0.01597,-0.00069l0.81554,1.85886c0,0 -0.77275,1.92524 -0.85673,1.99206c-0.24808,0.19739 -0.85174,-2.06585 -0.85174,-2.06585z" fill="none" stroke="#949494" stroke-width="0.5"></path><path d="M261.43739,217.90814l0.9089,-1.78438l-0.01597,-0.00069l0.81554,1.85886c0,0 -0.77275,1.92524 -0.85673,1.99206c-0.24808,0.19739 -0.85174,-2.06584 -0.85174,-2.06584z" fill="none" stroke="#949494" stroke-width="0.5"></path><path d="M262.62005,216.15013l0.9089,-1.78438l-0.01597,-0.00069l0.81554,1.85886c0,0 -0.77275,1.92524 -0.85673,1.99206c-0.24808,0.19739 -0.85174,-2.06585 -0.85174,-2.06585z" fill="none" stroke="#949494" stroke-width="0.5"></path><path d="M263.67486,218.00403l0.9089,-1.78438l-0.01597,-0.00069l0.81554,1.85886c0,0 -0.77275,1.92524 -0.85673,1.99206c-0.24808,0.19739 -0.85174,-2.06584 -0.85174,-2.06584z" fill="none" stroke="#949494" stroke-width="0.5"></path><path d="M264.82556,216.15013l0.9089,-1.78438l-0.01597,-0.00069l0.81554,1.85886c0,0 -0.77275,1.92524 -0.85673,1.99206c-0.24808,0.19739 -0.85174,-2.06585 -0.85174,-2.06585z" fill="none" stroke="#949494" stroke-width="0.5"></path><path d="M265.94429,218.00403l0.9089,-1.78438l-0.01597,-0.00069l0.81554,1.85886c0,0 -0.77275,1.92524 -0.85673,1.99206c-0.24808,0.19739 -0.85174,-2.06584 -0.85174,-2.06584z" fill="none" stroke="#949494" stroke-width="0.5"></path><path d="M267.03106,216.27798l0.9089,-1.78438l-0.01597,-0.00069l0.81554,1.85886c0,0 -0.77275,1.92524 -0.85673,1.99206c-0.24808,0.19739 -0.85174,-2.06584 -0.85174,-2.06584z" fill="none" stroke="#949494" stroke-width="0.5"></path><path d="M268.0539,218.13188l0.9089,-1.78438l-0.01597,-0.00069l0.81554,1.85886c0,0 -0.77275,1.92524 -0.85673,1.99206c-0.24808,0.19739 -0.85174,-2.06585 -0.85174,-2.06585z" fill="none" stroke="#949494" stroke-width="0.5"></path><path d="M269.23656,216.37387l0.9089,-1.78438l-0.01597,-0.00069l0.81554,1.85886c0,0 -0.77275,1.92524 -0.85673,1.99206c-0.24808,0.19739 -0.85174,-2.06584 -0.85174,-2.06584z" fill="none" stroke="#949494" stroke-width="0.5"></path><path d="M270.29136,218.22777l0.9089,-1.78438l-0.01597,-0.00069l0.81554,1.85886c0,0 -0.77275,1.92524 -0.85673,1.99206c-0.24808,0.19739 -0.85174,-2.06584 -0.85174,-2.06584z" fill="none" stroke="#949494" stroke-width="0.5"></path><path d="M271.18635,215.86245l0.9089,-1.78438l-0.01597,-0.00069l0.81554,1.85886c0,0 -0.77275,1.92524 -0.85673,1.99206c-0.24808,0.19739 -0.85174,-2.06585 -0.85174,-2.06585z" fill="none" stroke="#949494" stroke-width="0.5"></path><path d="M272.2092,217.71635l0.9089,-1.78438l-0.01597,-0.00069l0.81554,1.85886c0,0 -0.77275,1.92524 -0.85673,1.99206c-0.24808,0.19739 -0.85174,-2.06584 -0.85174,-2.06584z" fill="none" stroke="#949494" stroke-width="0.5"></path><path d="M273.39185,215.95834l0.9089,-1.78438l-0.01597,-0.00069l0.81554,1.85886c0,0 -0.77275,1.92524 -0.85673,1.99206c-0.24808,0.19739 -0.85174,-2.06584 -0.85174,-2.06584z" fill="none" stroke="#949494" stroke-width="0.5"></path><path d="M274.44666,217.81225l0.80687,-1.78438l-0.01417,-0.00069l0.72399,1.85886c0,0 -0.68601,1.92524 -0.76056,1.99206c-0.22024,0.19739 -0.75613,-2.06585 -0.75613,-2.06585z" fill="none" stroke="#949494" stroke-width="0.5"></path><path d="M258.20353,206.25417v-1.21462h0.41553v1.21462z" fill="#c1c1c1" stroke="none" stroke-width="0.5"></path><path d="M259.06654,205.13543c0,0.08827 -0.27906,0.15982 -0.62329,0.15982c-0.34424,0 -0.62329,-0.07155 -0.62329,-0.15982c0,-0.08827 0.27906,-0.15982 0.62329,-0.15982c0.34424,0 0.62329,0.07156 0.62329,0.15982z" fill="#c1c1c1" stroke="none" stroke-width="0.5"></path><path d="M275.40006,206.3181v-1.21462h0.41553v1.21462z" fill="#c1c1c1" stroke="none" stroke-width="0.5"></path><path d="M276.26308,205.19936c0,0.08827 -0.27906,0.15982 -0.62329,0.15982c-0.34424,0 -0.62329,-0.07155 -0.62329,-0.15982c0,-0.08827 0.27906,-0.15982 0.62329,-0.15982c0.34424,0 0.62329,0.07155 0.62329,0.15982z" fill="#c1c1c1" stroke="none" stroke-width="0.5"></path><text transform="translate(258.04371,220.42212) scale(0.01124,0.01124)" font-size="40" xml:space="preserve" fill="#000000" fill-rule="nonzero" stroke="none" stroke-width="1" stroke-linecap="butt" stroke-linejoin="miter" stroke-miterlimit="10" stroke-dasharray="" stroke-dashoffset="0" font-family="Sans Serif" font-weight="normal" text-anchor="start" style="mix-blend-mode: normal"><tspan x="0" dy="0">xAmt8</tspan></text></g><path d="M270.54932,203.72207c1.38467,0.91545 1.77421,2.76621 0.87006,4.13379c-0.90415,1.36758 -2.75961,1.7341 -4.14428,0.81865c-1.1876,-0.78517 -3.34237,-4.59307 -2.87754,-5.85933c0.07713,-0.21012 0.42788,-3.2937 1.0978,-3.4755c0.80502,-0.21846 4.29821,3.88274 5.05396,4.3824z" fill="url(#color-2)" stroke="none" stroke-width="0.5" stroke-linecap="butt"></path><path d="M267.57106,203.39222l-1.78108,-0.81633" fill="none" stroke="#000000" stroke-width="0.5" stroke-linecap="round"></path><path d="M267.42264,201.9822l-1.55844,-0.6679" fill="none" stroke="#000000" stroke-width="0.5" stroke-linecap="round"></path><path d="M276.40224,220.90616v-15.21338l1.78108,-3.56216l0.37106,12.09649z" fill="#777777" stroke="#000000" stroke-width="0.5" stroke-linecap="butt"></path><path d="M276.33545,212.56477v-1.03896l2.04824,-1.36549l0.20779,1.24675z" fill="#ffe802" stroke="none" stroke-width="0.5" stroke-linecap="butt"></path><path d="M276.66198,212.46806l-0.43196,-0.94491l0.43196,-0.19747l0.43196,0.94491z" fill="#000000" stroke="none" stroke-width="0.5" stroke-linecap="butt"></path><path d="M277.67126,211.93373l-0.43196,-0.94491l0.43196,-0.19747l0.43196,0.94491z" fill="#000000" stroke="none" stroke-width="0.5" stroke-linecap="butt"></path><path d="M278.44306,211.36972l-0.43196,-0.94491l0.43196,-0.19747l0.43196,0.94491z" fill="#000000" stroke="none" stroke-width="0.5" stroke-linecap="butt"></path></g><path d="M265.8743,187.84576l0.16952,-2.79162l1.00809,0.06122l-0.16952,2.79162z" fill="#b7b7b7" stroke="none" stroke-width="0.5" stroke-linecap="butt"></path><path d="M262.67611,187.96287l0.16952,-2.79162l1.00808,0.06122l-0.16952,2.79162z" fill="#b7b7b7" stroke="none" stroke-width="0.5" stroke-linecap="butt"></path><path d="M260.02546,188.03541l0.16952,-2.79162l1.00808,0.06122l-0.16952,2.79162z" fill="#b7b7b7" stroke="none" stroke-width="0.5" stroke-linecap="butt"></path><path d="M256.82728,188.15252l0.16952,-2.79162l1.00808,0.06122l-0.16952,2.79162z" fill="#b7b7b7" stroke="none" stroke-width="0.5" stroke-linecap="butt"></path><path d="M253.70664,188.27434l0.16952,-2.79162l1.00808,0.06122l-0.16952,2.79162z" fill="#b7b7b7" stroke="none" stroke-width="0.5" stroke-linecap="butt"></path><path d="M250.50846,188.39146l0.16952,-2.79162l1.00808,0.06122l-0.16952,2.79162z" fill="#b7b7b7" stroke="none" stroke-width="0.5" stroke-linecap="butt"></path><path d="M247.85781,188.46399l0.16952,-2.79162l1.00808,0.06122l-0.16952,2.79162z" fill="#b7b7b7" stroke="none" stroke-width="0.5" stroke-linecap="butt"></path><path d="M244.65963,188.5811l0.16952,-2.79162l1.00808,0.06122l-0.16952,2.79162z" fill="#b7b7b7" stroke="none" stroke-width="0.5" stroke-linecap="butt"></path><path d="M242.58003,188.22133l0.16952,-2.79162l1.00808,0.06122l-0.16952,2.79162z" fill="#b7b7b7" stroke="none" stroke-width="0.5" stroke-linecap="butt"></path><path d="M239.38186,188.33844l0.16952,-2.79162l1.00808,0.06122l-0.16952,2.79162z" fill="#b7b7b7" stroke="none" stroke-width="0.5" stroke-linecap="butt"></path><path d="M236.7312,188.41097l0.16952,-2.79162l1.00808,0.06122l-0.16952,2.79162z" fill="#b7b7b7" stroke="none" stroke-width="0.5" stroke-linecap="butt"></path><path d="M233.53303,188.52809l0.16952,-2.79162l1.00808,0.06122l-0.16952,2.79162z" fill="#b7b7b7" stroke="none" stroke-width="0.5" stroke-linecap="butt"></path><path d="M230.41239,188.64991l0.16952,-2.79162l1.00808,0.06122l-0.16952,2.79162z" fill="#b7b7b7" stroke="none" stroke-width="0.5" stroke-linecap="butt"></path><path d="M227.21421,188.76702l0.16952,-2.79162l1.00808,0.06122l-0.16952,2.79162z" fill="#b7b7b7" stroke="none" stroke-width="0.5" stroke-linecap="butt"></path><path d="M224.56355,188.83955l0.16952,-2.79162l1.00808,0.06122l-0.16952,2.79162z" fill="#b7b7b7" stroke="none" stroke-width="0.5" stroke-linecap="butt"></path><path d="M221.36538,188.95667l0.16952,-2.79162l1.00808,0.06122l-0.16952,2.79162z" fill="#b7b7b7" stroke="none" stroke-width="0.5" stroke-linecap="butt"></path><path d="M219.57948,188.88713l0.16952,-2.79162l1.00808,0.06122l-0.16952,2.79162z" fill="#b7b7b7" stroke="none" stroke-width="0.5" stroke-linecap="butt"></path><path d="M216.38131,189.00425l0.16952,-2.79162l1.00808,0.06122l-0.16952,2.79162z" fill="#b7b7b7" stroke="none" stroke-width="0.5" stroke-linecap="butt"></path><path d="M213.73065,189.07678l0.16952,-2.79162l1.00808,0.06122l-0.16952,2.79162z" fill="#b7b7b7" stroke="none" stroke-width="0.5" stroke-linecap="butt"></path><path d="M210.53248,189.19389l0.16952,-2.79162l1.00808,0.06122l-0.16952,2.79162z" fill="#b7b7b7" stroke="none" stroke-width="0.5" stroke-linecap="butt"></path><path d="M207.41184,189.31572l0.16952,-2.79162l1.00808,0.06122l-0.16952,2.79162z" fill="#b7b7b7" stroke="none" stroke-width="0.5" stroke-linecap="butt"></path><path d="M204.21366,189.43283l0.16952,-2.79162l1.00808,0.06122l-0.16952,2.79162z" fill="#b7b7b7" stroke="none" stroke-width="0.5" stroke-linecap="butt"></path><path d="M204.32459,186.63249v-1.08763h64.79164v1.08763z" fill="#b7b7b7" stroke="none" stroke-width="0.5" stroke-linecap="butt"></path><path d="M270.40572,175.50292l-2.7952,-0.09363l0.03381,-1.00937l2.7952,0.09363z" fill="#b7b7b7" stroke="none" stroke-width="0.5" stroke-linecap="butt"></path><path d="M270.60966,178.69673l-2.7952,-0.09363l0.03381,-1.00937l2.7952,0.09363z" fill="#b7b7b7" stroke="none" stroke-width="0.5" stroke-linecap="butt"></path><path d="M270.30651,180.78533l-2.7952,-0.09363l0.03381,-1.00937l2.7952,0.09363z" fill="#b7b7b7" stroke="none" stroke-width="0.5" stroke-linecap="butt"></path><path d="M270.51046,183.97914l-2.7952,-0.09363l0.03381,-1.00937l2.7952,0.09363z" fill="#b7b7b7" stroke="none" stroke-width="0.5" stroke-linecap="butt"></path><path d="M269.67981,188.22471l-1.50658,-2.35629l0.85088,-0.54404l1.50658,2.35629z" fill="#b7b7b7" stroke="none" stroke-width="0.5" stroke-linecap="butt"></path><path d="M267.73584,185.85629v-12.85733h1.39838v12.85733z" fill="#b7b7b7" stroke="none" stroke-width="0.5" stroke-linecap="butt"></path><path d="M270.30558,174.28758l-1.32024,-1.52869l0.76435,-0.66012l1.32024,1.52869z" fill="#b7b7b7" stroke="none" stroke-width="0.5" stroke-linecap="butt"></path><path d="M272.00867,174.12543v-2.17526h1.08763v2.17526z" fill="#b7b7b7" stroke="none" stroke-width="0.5" stroke-linecap="butt"></path><path d="M274.96081,174.20312v-2.17526h1.08763v2.17526z" fill="#b7b7b7" stroke="none" stroke-width="0.5" stroke-linecap="butt"></path><path d="M278.10717,174.90231v-2.17526h1.08763v2.17526z" fill="#b7b7b7" stroke="none" stroke-width="0.5" stroke-linecap="butt"></path><path d="M281.79733,174.94116v-2.17526h1.08763v2.17526z" fill="#b7b7b7" stroke="none" stroke-width="0.5" stroke-linecap="butt"></path><path d="M284.74947,175.01884v-2.17526h1.08763v2.17526z" fill="#b7b7b7" stroke="none" stroke-width="0.5" stroke-linecap="butt"></path><path d="M287.66277,174.90231v-2.17526h1.08763v2.17526z" fill="#b7b7b7" stroke="none" stroke-width="0.5" stroke-linecap="butt"></path><path d="M267.93149,173.15365v-0.93225h27.03536v0.93225z" fill="#b7b7b7" stroke="none" stroke-width="0.5" stroke-linecap="butt"></path><path d="M290.65517,175.60082v-2.68023h1.04879v2.68023z" fill="#b7b7b7" stroke="none" stroke-width="0.5" stroke-linecap="butt"></path><path d="M293.91806,175.60082v-3.02982h1.04879v3.02982z" fill="#b7b7b7" stroke="none" stroke-width="0.5" stroke-linecap="butt"></path><path d="M189.90635,189.1939l0.16952,-2.79162l1.00808,0.06122l-0.16952,2.79162z" fill="#b7b7b7" stroke="none" stroke-width="0.5" stroke-linecap="butt"></path><path d="M186.78572,189.31572l0.16952,-2.79162l1.00808,0.06122l-0.16952,2.79162z" fill="#b7b7b7" stroke="none" stroke-width="0.5" stroke-linecap="butt"></path><path d="M183.58754,189.43283l0.16952,-2.79162l1.00808,0.06122l-0.16952,2.79162z" fill="#b7b7b7" stroke="none" stroke-width="0.5" stroke-linecap="butt"></path><path d="M182.53315,186.68428v-0.72509h9.24485v0.72509z" fill="#b7b7b7" stroke="none" stroke-width="0.5" stroke-linecap="butt"></path><path d="M209.77874,161.13395v-24.47166h8.62335v24.47166z" fill="#686868" stroke="none" stroke-width="0.5" stroke-linecap="butt"></path><path d="M240.52618,161.61701v-24.47166h8.62335v24.47166z" fill="#686868" stroke="none" stroke-width="0.5" stroke-linecap="butt"></path><path d="M214.96782,140.87436v-4.19514h79.7077v4.19514z" fill="#686868" stroke="none" stroke-width="0.5" stroke-linecap="butt"></path><path d="M292.81101,216.15386v-75.04643h1.86451v75.04643z" fill="#686868" stroke="none" stroke-width="0.5" stroke-linecap="butt"></path><path d="M287.70304,215.53304v-2.95214h2.87445v2.95214z" fill="#a77a43" stroke="#000000" stroke-width="0.5" stroke-linecap="butt"></path><path d="M289.41217,212.89165v-2.64139h2.5637v2.64139z" fill="#a77a43" stroke="none" stroke-width="0.5" stroke-linecap="butt"></path><path d="M209.71325,160.70452v-1.74798h8.73988v1.74798z" fill="#fff000" stroke="none" stroke-width="0.5" stroke-linecap="butt"></path><path d="M240.36109,161.63677v-2.2141h9.08947v2.2141z" fill="#fff000" stroke="none" stroke-width="0.5" stroke-linecap="butt"></path><path d="M240.79702,161.4445l1.25924,-2.17946l0.96865,0.09354l-1.02618,2.17946z" fill="#0b0b00" stroke="none" stroke-width="0.5" stroke-linecap="butt"></path><path d="M243.08104,161.58434l1.25924,-2.17946l0.96865,0.09354l-1.02618,2.17946z" fill="#0b0b00" stroke="none" stroke-width="0.5" stroke-linecap="butt"></path><path d="M245.22522,161.67756l1.25924,-2.17946l0.96865,0.09354l-1.02618,2.17946z" fill="#0b0b00" stroke="none" stroke-width="0.5" stroke-linecap="butt"></path><path d="M247.18296,161.49111c0,0 0.65468,-1.19585 0.86493,-1.55974c0.2095,-0.36259 0.39431,-0.61972 0.39431,-0.61972l0.96865,0.09354l-1.02618,2.17946z" fill="#0b0b00" stroke="none" stroke-width="0.5" stroke-linecap="butt"></path><path d="M210.03264,160.97837l1.25924,-2.17946l0.96865,0.09354l-1.02618,2.17946z" fill="#0b0b00" stroke="none" stroke-width="0.5" stroke-linecap="butt"></path><path d="M212.31666,161.11821l1.25924,-2.17946l0.96865,0.09354l-1.02618,2.17946z" fill="#0b0b00" stroke="none" stroke-width="0.5" stroke-linecap="butt"></path><path d="M214.46085,161.21143l1.25924,-2.17946l0.96865,0.09354l-1.02618,2.17946z" fill="#0b0b00" stroke="none" stroke-width="0.5" stroke-linecap="butt"></path><path d="M216.41858,161.02498c0,0 0.65468,-1.19585 0.86493,-1.55974c0.2095,-0.36259 0.39431,-0.61972 0.39431,-0.61972l0.96865,0.09354l-1.02618,2.17946z" fill="#0b0b00" stroke="none" stroke-width="0.5" stroke-linecap="butt"></path><path d="M249.64572,138.89332c0,0.38615 -0.36521,0.69919 -0.81572,0.69919c-0.45051,0 -0.81572,-0.31304 -0.81572,-0.69919c0,-0.38615 0.36521,-0.69919 0.81572,-0.69919c0.45051,0 0.81572,0.31304 0.81572,0.69919z" fill="#ff0000" stroke="none" stroke-width="0.5" stroke-linecap="butt"></path><path d="M251.62676,138.77679c0,0.38615 -0.36521,0.69919 -0.81572,0.69919c-0.45051,0 -0.81572,-0.31304 -0.81572,-0.69919c0,-0.38615 0.36521,-0.69919 0.81572,-0.69919c0.45051,0 0.81572,0.31304 0.81572,0.69919z" fill="#ffcdcd" stroke="none" stroke-width="0.5" stroke-linecap="butt"></path><g><path d="M181.80509,203.23795v-0.90909h8v0.90909z" fill="#f5c900" stroke="none" stroke-width="0" stroke-linecap="butt"></path><path d="M185.62327,204.64704l-1.86363,-1.09091" data-paper-data="{&quot;index&quot;:null}" fill="none" stroke="#000000" stroke-width="0.15" stroke-linecap="round"></path><path d="M188.16873,203.64704l-1.86364,1.09091" fill="none" stroke="#000000" stroke-width="0.15" stroke-linecap="round"></path><path d="M183.16,209.9731l0.10688,-0.52251l2.67789,0.54775l-0.10688,0.52251z" fill="#000000" stroke="none" stroke-width="0" stroke-linecap="butt"></path><path d="M185.91905,213.05238l-0.2,-3.06667h0.6v2.8z" fill="#000000" stroke="none" stroke-width="0" stroke-linecap="butt"></path><path d="M185.7632,210.5089l-0.06249,-0.46247l2.84085,-0.38389l0.06249,0.46246z" fill="#000000" stroke="none" stroke-width="0" stroke-linecap="butt"></path><path d="M185.58571,210.71905v-7.6h0.8v7.6z" fill="#f5c900" stroke="none" stroke-width="0" stroke-linecap="butt"></path><path d="M185.58571,206.71905v-0.4h0.8v0.4z" fill="#000000" stroke="none" stroke-width="0" stroke-linecap="butt"></path><path d="M185.51203,203.24872v-0.94737h0.78948v0.94737c0,0 -0.15352,0.18182 -0.26914,0.18182c-0.14206,0 -0.52034,-0.18182 -0.52034,-0.18182z" fill="#040400" stroke="none" stroke-width="0" stroke-linecap="butt"></path><path d="M181.56466,203.36116v-2.05263h3v2.05263z" fill="#f5e49a" stroke="#000000" stroke-width="0.5" stroke-linecap="butt"></path><path d="M182.12327,201.51068l0.04545,1.5" fill="none" stroke="#000000" stroke-width="0.25" stroke-linecap="round"></path><path d="M183.07782,203.10159l-0.04545,-1.59091" fill="none" stroke="#000000" stroke-width="0.25" stroke-linecap="round"></path><path d="M183.98691,202.96523l-0.04545,-1.36364" fill="none" stroke="#000000" stroke-width="0.25" stroke-linecap="round"></path><path d="M184.16873,202.46523c0,0 -0.74157,0.24303 -1.13982,0.228c-0.40468,-0.01527 -1.26927,-0.31891 -1.26927,-0.31891" fill="none" stroke="#000000" stroke-width="0.25" stroke-linecap="round"></path><path d="M187.38524,203.40661v-2.05263h3v2.05263z" data-paper-data="{&quot;index&quot;:null}" fill="#f5e49a" stroke="#000000" stroke-width="0.5" stroke-linecap="butt"></path><path d="M189.78117,203.05613l0.04546,-1.5" data-paper-data="{&quot;index&quot;:null}" fill="none" stroke="#000000" stroke-width="0.25" stroke-linecap="round"></path><path d="M188.91754,201.55613l-0.04546,1.59091" data-paper-data="{&quot;index&quot;:null}" fill="none" stroke="#000000" stroke-width="0.25" stroke-linecap="round"></path><path d="M187.96299,203.01068l0.04546,-1.36364" data-paper-data="{&quot;index&quot;:null}" fill="none" stroke="#000000" stroke-width="0.25" stroke-linecap="round"></path><path d="M190.19026,202.41977c0,0 -0.86459,0.30364 -1.26927,0.31891c-0.39825,0.01503 -1.13982,-0.228 -1.13982,-0.228" data-paper-data="{&quot;index&quot;:null}" fill="none" stroke="#000000" stroke-width="0.25" stroke-linecap="round"></path><path d="M193.70211,211.33287l-6.03522,-8.08719c0,0 -0.42015,-1.42051 0.00904,-1.7408c0.46631,-0.34799 2.68669,-0.27094 2.68669,-0.27094l6.03522,8.08719z" fill="url(#color-3)" stroke="none" stroke-width="0" stroke-linecap="butt"></path><path d="M187.92938,211.42378l-6.03521,-8.08719c0,0 -0.42014,-1.42051 0.00904,-1.7408c0.46631,-0.34799 2.68669,-0.27093 2.68669,-0.27093l6.03521,8.08719z" fill="url(#color-4)" stroke="none" stroke-width="0" stroke-linecap="butt"></path></g></g></g></svg>