<svg version="1.1" xmlns="http://www.w3.org/2000/svg" xmlns:xlink="http://www.w3.org/1999/xlink" width="22.65385" height="22.65385" viewBox="0,0,22.65385,22.65385"><g transform="translate(-228.67308,-168.67307)"><g data-paper-data="{&quot;isPaintingLayer&quot;:true}" fill-rule="nonzero" stroke-linecap="butt" stroke-linejoin="miter" stroke-miterlimit="10" stroke-dasharray="" stroke-dashoffset="0" style="mix-blend-mode: normal"><path d="M228.92308,180c0,-6.11762 4.95931,-11.07692 11.07692,-11.07692c6.11762,0 11.07692,4.95931 11.07692,11.07692c0,6.11762 -4.95931,11.07692 -11.07692,11.07692c-6.11762,0 -11.07692,-4.95931 -11.07692,-11.07692z" fill="none" stroke="#ff0000" stroke-width="0.5"></path><path d="M239.30769,180.92308l-0.92308,-5.02959l3.23077,-0.20118l-0.69231,5.23077z" fill="#ff0000" stroke="none" stroke-width="0"></path><path d="M239.07692,183.30769c0,-0.55228 0.44772,-1 1,-1c0.55228,0 1,0.44772 1,1c0,0.55228 -0.44772,1 -1,1c-0.55228,0 -1,-0.44772 -1,-1z" fill="#ff0000" stroke="none" stroke-width="0"></path></g></g></svg>