<svg version="1.1" xmlns="http://www.w3.org/2000/svg" xmlns:xlink="http://www.w3.org/1999/xlink" width="40.02557" height="10.36003" viewBox="0,0,40.02557,10.36003"><defs><linearGradient x1="244.00522" y1="174.0761" x2="244.00522" y2="180.44572" gradientUnits="userSpaceOnUse" id="color-1"><stop offset="0" stop-color="#b16150"></stop><stop offset="1" stop-color="#5c3328"></stop></linearGradient><linearGradient x1="242.22256" y1="176.33685" x2="244.74167" y2="176.33685" gradientUnits="userSpaceOnUse" id="color-2"><stop offset="0" stop-color="#cda89a"></stop><stop offset="1" stop-color="#fefcd7"></stop></linearGradient><linearGradient x1="243.28877" y1="174.01727" x2="245.91139" y2="174.01727" gradientUnits="userSpaceOnUse" id="color-3"><stop offset="0" stop-color="#ab5e4d"></stop><stop offset="1" stop-color="#4f2d24"></stop></linearGradient><linearGradient x1="242.75734" y1="173.10598" x2="246.85702" y2="173.10598" gradientUnits="userSpaceOnUse" id="color-4"><stop offset="0" stop-color="#fdf3d5"></stop><stop offset="1" stop-color="#e5a586"></stop></linearGradient></defs><g transform="translate(-240.7302,-171.28372)"><g data-paper-data="{&quot;isPaintingLayer&quot;:true}" fill-rule="nonzero" stroke-linejoin="miter" stroke-miterlimit="10" stroke-dasharray="" stroke-dashoffset="0" style="mix-blend-mode: normal"><path d="M240.8552,179.96832c0,-2.10068 0,-5.72647 0,-6.92472c0,-0.7573 1.25383,-1.63488 2.64627,-1.63488c4.28492,0 26.58863,0 34.41308,0c1.69976,0 2.71622,0.6086 2.71622,1.50821c0,2.1198 0,5.85537 0,7.05139c0,0.72504 -1.04447,1.55043 -2.78615,1.55043c-7.86787,0 -29.96355,0 -34.27319,0c-1.42502,0 -2.71622,-0.62826 -2.71622,-1.55043z" fill="#3a2303" stroke="#fff4ce" stroke-width="0.25" stroke-linecap="butt"></path><g><text transform="translate(243.87209,179.84524) rotate(13.62325) scale(0.01127,0.01127)" font-size="40" xml:space="preserve" fill="#a45a4a" fill-rule="nonzero" stroke="none" stroke-width="0.25" stroke-linecap="butt" stroke-linejoin="miter" stroke-miterlimit="10" stroke-dasharray="" stroke-dashoffset="0" font-family="Handwriting" font-weight="normal" text-anchor="start" style="mix-blend-mode: normal"><tspan x="0" dy="0">xAmt8</tspan></text><path d="M241.86803,178.97297c0.20648,-1.21175 0.56286,-3.30322 0.68064,-3.99441c0.07444,-0.43684 0.27346,-0.92349 0.3987,-0.90176c0.38539,0.06687 2.39142,0.41495 3.09517,0.53705c0.15288,0.02653 0.18448,0.39345 0.09606,0.91237c-0.20836,1.22277 -0.57553,3.37758 -0.69309,4.06748c-0.07127,0.41823 -0.24634,0.87804 -0.40299,0.85086c-0.70765,-0.12279 -2.69497,-0.46761 -3.08258,-0.53487c-0.12817,-0.02224 -0.18255,-0.4048 -0.09191,-0.93673z" fill="url(#color-1)" stroke="#fff4ce" stroke-width="0.125" stroke-linecap="butt"></path><path d="M242.22872,176.74682c0.05841,-0.34205 0.15922,-0.93242 0.19253,-1.12752c0.02106,-0.12331 0.11827,-0.25605 0.19913,-0.24477c0.24883,0.0347 1.54405,0.21529 1.99843,0.27865c0.09871,0.01376 0.14081,0.12109 0.1158,0.26757c-0.05894,0.34516 -0.1628,0.9534 -0.19605,1.14815c-0.02016,0.11805 -0.10376,0.24399 -0.20491,0.22989c-0.4569,-0.06371 -1.74004,-0.24262 -1.99031,-0.27751c-0.08275,-0.01154 -0.14027,-0.12429 -0.11463,-0.27444z" fill="url(#color-2)" stroke="#fff4ce" stroke-width="0.125" stroke-linecap="butt"></path><path d="M244.30945,177.06365c0.06408,-0.34103 0.17468,-0.92964 0.21123,-1.12417c0.0231,-0.12294 0.07355,-0.26318 0.09985,-0.2607c0.08092,0.00763 0.50213,0.04737 0.6499,0.06131c0.0321,0.00303 0.03273,0.10364 0.00529,0.24968c-0.06466,0.34413 -0.17861,0.95057 -0.21509,1.14473c-0.02212,0.1177 -0.06702,0.24984 -0.09991,0.24674c-0.14859,-0.01402 -0.56587,-0.05338 -0.64726,-0.06106c-0.02691,-0.00254 -0.03213,-0.10683 -0.004,-0.25654z" fill="#d5977b" stroke="#fff4ce" stroke-width="0.125" stroke-linecap="butt"></path><path d="M243.69819,174.13871l-1.15658,5.82143" fill="none" stroke-opacity="0.09917" stroke="#000000" stroke-width="0.125" stroke-linecap="round"></path><path d="M243.28877,174.18612l0.10581,-0.71183l2.51681,0.37412l-0.10581,0.71183z" fill="url(#color-3)" stroke="#000000" stroke-width="0.125" stroke-linecap="butt"></path><path d="M243.26183,173.56655l0.03545,-0.24418l2.79277,0.4054l-0.03545,0.24418c0,0 -0.05562,-0.09928 -0.2405,-0.13401c-0.60847,-0.11431 -2.01064,-0.28753 -2.31093,-0.33112c-0.11616,-0.01686 -0.24134,0.05973 -0.24134,0.05973z" fill="#ab5e4d" stroke="#000000" stroke-width="0.125" stroke-linecap="butt"></path><path d="M244.83786,174.37195l-1.03321,5.76745" fill="none" stroke-opacity="0.09917" stroke="#000000" stroke-width="0.125" stroke-linecap="round"></path><path d="M244.62196,174.40279l0.10795,-0.86358" fill="none" stroke-opacity="0.09917" stroke="#000000" stroke-width="0.125" stroke-linecap="round"></path><path d="M242.75734,173.39386l0.13768,-0.96068c0,0 0.36535,-0.27989 0.49444,-0.26027c0.16768,0.02548 0.57888,0.06935 1.05698,0.12451c0.72222,0.08332 1.59712,0.19238 2.01595,0.30263c0.13867,0.0365 0.39463,0.4351 0.39463,0.4351l-0.15826,1.00489c0,0 -0.09192,-0.19049 -0.24905,-0.22539c-0.74346,-0.16512 -2.91313,-0.47484 -3.344,-0.54548c-0.14145,-0.02319 -0.34836,0.12469 -0.34836,0.12469z" fill="url(#color-4)" stroke="#000000" stroke-width="0.125" stroke-linecap="butt"></path></g><text transform="translate(246.13053,179.88309) scale(0.03298,0.04647)" font-size="40" xml:space="preserve" fill="#dab7b1" fill-rule="nonzero" stroke="none" stroke-width="1" stroke-linecap="butt" stroke-linejoin="miter" stroke-miterlimit="10" stroke-dasharray="" stroke-dashoffset="0" font-family="Sans Serif" font-weight="normal" text-anchor="start" style="mix-blend-mode: normal"><tspan x="0" dy="0">x3</tspan></text><text transform="translate(271.39973,177.82066) scale(0.09734,0.13713)" font-size="40" xml:space="preserve" fill="#dab7b1" fill-rule="nonzero" stroke="none" stroke-width="1" stroke-linecap="butt" stroke-linejoin="miter" stroke-miterlimit="10" stroke-dasharray="" stroke-dashoffset="0" font-family="Sans Serif" font-weight="normal" text-anchor="start" style="mix-blend-mode: normal"><tspan x="0" dy="0">1OO</tspan></text><text transform="translate(249.76233,176.45358) scale(0.07065,0.10563)" font-size="40" xml:space="preserve" fill="#e3bba8" fill-rule="nonzero" stroke="none" stroke-width="1" stroke-linecap="butt" stroke-linejoin="miter" stroke-miterlimit="10" stroke-dasharray="" stroke-dashoffset="0" font-family="Sans Serif" font-weight="normal" text-anchor="start" style="mix-blend-mode: normal"><tspan x="0" dy="0">Vitamins</tspan></text><text transform="translate(249.96717,179.54811) scale(0.03969,0.03969)" font-size="40" xml:space="preserve" fill="#dab7b1" fill-rule="nonzero" stroke="none" stroke-width="1" stroke-linecap="butt" stroke-linejoin="miter" stroke-miterlimit="10" stroke-dasharray="" stroke-dashoffset="0" font-family="&quot;Microsoft YaHei&quot;, &quot;微软雅黑&quot;, STXihei, &quot;华文细黑&quot;" font-weight="normal" text-anchor="start" style="mix-blend-mode: normal"><tspan x="0" dy="0">Temporarily boosts speed.</tspan></text></g></g></svg>