<svg version="1.1" xmlns="http://www.w3.org/2000/svg" xmlns:xlink="http://www.w3.org/1999/xlink" width="33.00712" height="56.48297" viewBox="0,0,33.00712,56.48297"><defs><linearGradient x1="238.7414" y1="152.10256" x2="238.7414" y2="155.02747" gradientUnits="userSpaceOnUse" id="color-1"><stop offset="0" stop-color="#ad5400"></stop><stop offset="1" stop-color="#d07b00"></stop></linearGradient><linearGradient x1="239.20263" y1="193.70271" x2="239.20263" y2="204.65885" gradientUnits="userSpaceOnUse" id="color-2"><stop offset="0" stop-color="#8e6c39"></stop><stop offset="1" stop-color="#cc9752"></stop></linearGradient><linearGradient x1="252.60919" y1="198.5934" x2="259.55275" y2="211.49667" gradientUnits="userSpaceOnUse" id="color-3"><stop offset="0" stop-color="#000000"></stop><stop offset="1" stop-color="#777777"></stop></linearGradient><linearGradient x1="254.08389" y1="197.83072" x2="261.02743" y2="210.73401" gradientUnits="userSpaceOnUse" id="color-4"><stop offset="0" stop-color="#000000"></stop><stop offset="1" stop-color="#777777"></stop></linearGradient><linearGradient x1="240.69783" y1="185.15758" x2="240.69783" y2="202.82177" gradientUnits="userSpaceOnUse" id="color-5"><stop offset="0" stop-color="#57dada" stop-opacity="0"></stop><stop offset="1" stop-color="#57dada"></stop></linearGradient></defs><g transform="translate(-222.40702,-146.3388)"><g data-paper-data="{&quot;isPaintingLayer&quot;:true}" fill-rule="nonzero" stroke-linejoin="miter" stroke-miterlimit="10" stroke-dasharray="" stroke-dashoffset="0" style="mix-blend-mode: normal"><path d="" fill="#fff3c0" stroke="none" stroke-width="0" stroke-linecap="butt"></path><path d="" fill="#fff3c0" stroke="none" stroke-width="0" stroke-linecap="butt"></path><path d="" fill="#fff3c0" stroke="none" stroke-width="0" stroke-linecap="butt"></path><g><path d="M246.12775,161.44281c0,3.99093 -3.11974,7.22621 -6.96813,7.22621c-3.8484,0 -6.96813,-3.23529 -6.96813,-7.22621c0,-3.99093 3.11974,-7.22621 6.96813,-7.22621c3.8484,0 6.96813,3.23529 6.96813,7.22621z" fill="#fff3c0" stroke="#000000" stroke-width="0" stroke-linecap="butt"></path><path d="M235.74006,159.70078c0,-0.14253 0.11554,-0.25808 0.25808,-0.25808c0.14253,0 0.25808,0.11554 0.25808,0.25808c0,0.14253 -0.11554,0.25808 -0.25808,0.25808c-0.14253,0 -0.25808,-0.11554 -0.25808,-0.25808z" fill="#000000" stroke="none" stroke-width="0.5" stroke-linecap="butt"></path><path d="M241.54684,159.95886c0,-0.14253 0.11554,-0.25808 0.25808,-0.25808c0.14253,0 0.25808,0.11554 0.25808,0.25808c0,0.14253 -0.11554,0.25808 -0.25808,0.25808c-0.14253,0 -0.25808,-0.11554 -0.25808,-0.25808z" fill="#000000" stroke="none" stroke-width="0.5" stroke-linecap="butt"></path><path d="M232.90119,193.89628v-26.84023h12.51684v26.84023z" fill="#267520" stroke="none" stroke-width="0" stroke-linecap="butt"></path><path d="M237.06389,164.83447l-1.72053,-0.60218" fill="none" stroke="#000000" stroke-width="1" stroke-linecap="round"></path><path d="M234.31104,156.40388l2.15065,-1.89258c0,0 1.93603,-0.43013 2.83888,-0.43013c0.9315,0 2.66682,0.43013 2.66682,0.43013l2.40874,2.23668z" fill="#000000" stroke="none" stroke-width="0" stroke-linecap="butt"></path><path d="M244.72024,153.56501c0,0.80768 -2.67681,1.46245 -5.97883,1.46245c-3.30202,0 -5.97883,-0.65476 -5.97883,-1.46245c0,-0.80768 2.67681,-1.46245 5.97883,-1.46245c3.30202,0 5.97883,0.65476 5.97883,1.46245z" fill="url(#color-1)" stroke="none" stroke-width="0" stroke-linecap="butt"></path><path d="M233.70886,153.13488v-4.73145c0,0 1.6149,-0.62278 3.15889,-0.41937c0.70797,0.09327 1.31501,-1.64526 1.83064,-1.64526c0.62558,0 1.80439,1.97272 2.61183,1.85607c1.40201,-0.20254 2.46373,0.20856 2.46373,0.20856v4.73145z" fill="#ad5400" stroke="none" stroke-width="0" stroke-linecap="butt"></path><path d="M245.52376,192.04524c0,0 -0.58892,-0.28133 -0.84306,-0.63564c-1.29641,-1.80736 -12.12247,-17.18564 -12.12247,-17.18564l0.62433,-4.28458l12.19129,15.36953z" fill="#bd8a33" stroke="none" stroke-width="0" stroke-linecap="butt"></path><path d="M239.22413,171.63694l-3.48407,-4.77447h6.58102z" fill="#ffffff" stroke="none" stroke-width="0" stroke-linecap="butt"></path><path d="M242.00702,172.71486l-1.04086,-0.62451l1.04086,-0.54124l0.83269,-1.4572l1.08249,1.4572l1.08249,0.49961l-1.08249,0.66615l0.56968,1.23932c0,0 -0.85778,-0.78899 -1.42641,-0.85049c-0.49953,-0.05402 -1.10008,0.81856 -1.10008,0.81856z" fill="#ffd300" stroke="none" stroke-width="0" stroke-linecap="butt"></path><path d="M237.87775,151.9825l-1.04086,-0.62451l1.04086,-0.54124l0.83269,-1.4572l1.08249,1.4572l1.08249,0.49961l-1.08249,0.66615l0.56968,1.23932c0,0 -0.85778,-0.78899 -1.42641,-0.85048c-0.49953,-0.05402 -1.10008,0.81856 -1.10008,0.81856z" fill="#ffd300" stroke="none" stroke-width="0" stroke-linecap="butt"></path><path d="M233.48187,185.31513v-3.09695h2.32271v3.09695c0,0 -0.81035,0.68821 -1.20437,0.68821c-0.37969,0 -1.11834,-0.68821 -1.11834,-0.68821z" fill="#2f9428" stroke="none" stroke-width="0" stroke-linecap="butt"></path><path d="M235.5465,182.21819l-2.06463,0.08603" fill="none" stroke="#000000" stroke-width="0.5" stroke-linecap="round"></path><path d="M232.70762,193.70271h12.98999v6.88336c-2.03852,0.35753 -4.07521,0.72349 -6.11096,1.08495c-0.19793,-0.28118 -0.38595,-0.57003 -0.56112,-0.86192c-0.2424,0.37515 -0.50455,0.74491 -0.77977,1.09929c-0.89341,0.15794 -1.78659,0.31721 -2.67962,0.4774c-0.95295,-0.0003 -1.90587,-0.00329 -2.85853,-0.00747z" fill="url(#color-2)" stroke="none" stroke-width="NaN" stroke-linecap="butt"></path><path d="M238.92304,200.93969l0.17205,-7.4843" fill="none" stroke="#000000" stroke-width="0.5" stroke-linecap="round"></path><path d="M239.7833,194.57372l-1.37642,0.08603" fill="none" stroke="#000000" stroke-width="0.5" stroke-linecap="round"></path><path d="M240.04137,195.69208l-1.72052,0.08603" fill="none" stroke="#000000" stroke-width="0.5" stroke-linecap="round"></path><path d="M238.23483,197.0685l1.89258,-0.25808" fill="none" stroke="#000000" stroke-width="0.5" stroke-linecap="round"></path><path d="M239.7833,198.27286l-1.89258,0.25808" fill="none" stroke="#000000" stroke-width="0.5" stroke-linecap="round"></path><path d="M237.71867,200.3375l1.9786,-0.60218" fill="none" stroke="#000000" stroke-width="0.5" stroke-linecap="round"></path><path d="M227.17927,159.54192l4.00953,14.05745l-4.45803,0.92347l-4.00953,-14.05745z" fill="#fff3c0" stroke="#000000" stroke-width="0.5" stroke-linecap="butt"></path><path d="M230.69586,171.81083l4.1788,7.12327c0,0 -3.08068,5.55258 -3.21631,5.63524c-0.66232,0.40361 -1.33373,-2.86243 -1.33373,-2.86243l-3.5243,-7.6108z" data-paper-data="{&quot;index&quot;:null}" fill="#267520" stroke="#000000" stroke-width="0.5" stroke-linecap="butt"></path><g stroke="#000000" stroke-width="0.5" stroke-linecap="butt"><path d="M244.17829,178.11742l4.51073,-0.22595l0.48075,9.59728c-0.43077,0.13954 -0.8874,0.29531 -1.41947,0.46168c-0.79263,0.24785 -2.08583,-0.04585 -2.91544,0.01122c-0.05527,0.0038 -0.10953,0.00772 -0.16286,0.01177z" fill="#fff3c0"></path><path d="M244.19766,178.50406l-0.41316,-8.2482c0,0 -1.49688,-1.84743 -0.77038,-1.88382c0.77405,-0.03878 5.28111,1.65787 5.28111,1.65787l0.41316,8.2482z" fill="#267520"></path></g><g data-paper-data="{&quot;index&quot;:null}"><path d="M236.99156,178.00641c0,0 3.68541,1.04175 5.16122,1.64181c1.51226,0.61488 3.80568,2.0041 3.80568,2.0041l-2.21211,3.114c0,0 -1.6158,-0.93407 -2.70618,-1.59495c-1.16371,-0.70533 -4.41311,-0.75005 -4.41311,-0.75005c0,0 -0.02216,-1.24646 -0.01978,-1.53443c0.00401,-0.48689 0.38429,-2.88048 0.38429,-2.88048z" fill="#eaad81" stroke="none" stroke-width="0" stroke-linecap="butt"></path><path d="M243.04246,183.03178l2.89212,-1.55631c0,0 0.20861,2.78677 0.85449,3.98702c0.70562,1.31125 3.21587,3.57698 3.21587,3.57698l-2.89212,1.55631c0,0 0.48388,-1.80301 -0.51619,-2.4899c-0.59955,-0.4118 -2.03873,-0.12541 -2.28916,-0.59077c-0.3253,-0.60452 -0.22568,-1.31313 -0.28267,-2.36144c-0.06356,-1.16903 -0.98234,-2.12189 -0.98234,-2.12189z" fill="#eaad81" stroke="none" stroke-width="0" stroke-linecap="butt"></path><path d="M247.05296,190.48454c-0.49147,0.26447 -1.22487,-0.14366 -1.63811,-0.91158c-0.41324,-0.76792 -0.34981,-1.60484 0.14166,-1.8693c0.49147,-0.26447 1.22487,0.14366 1.63811,0.91158c0.41324,0.76792 0.34981,1.60484 -0.14166,1.8693z" fill="none" stroke="#000000" stroke-width="0.5" stroke-linecap="butt"></path><path d="M247.77175,189.9543l1.77977,-0.95773c0,0 2.02971,0.8396 2.7799,2.23367c0.67004,1.24515 1.91996,4.63145 2.21796,5.90104c0.06664,0.28392 -0.26906,0.65286 -0.26906,0.65286l-2.0383,1.19316z" fill="#000000" stroke="#000000" stroke-width="0.5" stroke-linecap="butt"></path><path d="M246.45438,189.37219l-0.76968,-1.16373l1.52288,-0.10226" fill="none" stroke="#000000" stroke-width="0.5" stroke-linecap="round"></path><path d="M236.02701,182.17336l0.95828,-4.05685l1.72109,0.40655l-0.95828,4.05685z" fill="#000000" stroke="none" stroke-width="0" stroke-linecap="butt"></path><path d="M252.88414,194.52322c-0.21502,0.1157 -0.71092,-0.38812 -1.10762,-1.12532c-0.39671,-0.7372 -0.54399,-1.42862 -0.32897,-1.54432c0.21502,-0.1157 0.71092,0.38812 1.10762,1.12532c0.39671,0.7372 0.54399,1.42862 0.32897,1.54432z" fill="#d4d4d4" stroke="none" stroke-width="NaN" stroke-linecap="butt"></path><path d="M252.1277,198.8525l0.96299,-0.51821l1.04131,1.93506c-0.22763,0.34428 -0.45593,0.68804 -0.68822,1.02882z" fill="url(#color-3)" stroke="#000000" stroke-width="0.5" stroke-linecap="butt"></path><path d="M253.67707,198.04964l0.81363,-0.43783l0.63126,1.17307c-0.19634,0.28758 -0.38976,0.57733 -0.58226,0.86778z" fill="url(#color-4)" stroke="#000000" stroke-width="0.5" stroke-linecap="butt"></path><path d="" fill="#a78100" stroke="#000000" stroke-width="0.5" stroke-linecap="butt"></path><path d="" fill="#000000" stroke="#000000" stroke-width="0.5" stroke-linecap="butt"></path><path d="" fill="#000000" stroke="#000000" stroke-width="0.5" stroke-linecap="butt"></path></g><path d="M236.73303,158.38977l-2.12915,0.45164" fill="none" stroke="#000000" stroke-width="0.5" stroke-linecap="round"></path><path d="M240.92683,158.45429l2.25819,0.25808" fill="none" stroke="#000000" stroke-width="0.5" stroke-linecap="round"></path><path d="M237.70084,164.16429c0,0.73049 -0.66439,1.32266 -1.48396,1.32266c-0.81957,0 -1.48396,-0.59217 -1.48396,-1.32266c0,-0.73049 0.66439,-1.32266 1.48396,-1.32266c0.81957,0 1.48396,0.59217 1.48396,1.32266z" fill="#ff6666" stroke="#000000" stroke-width="0.5" stroke-linecap="butt"></path></g><path d="M224.73236,154.45406v0z" fill="#ff6666" stroke="#000000" stroke-width="0.5" stroke-linecap="butt"></path><path d="M226.81883,202.82177v-17.66418h27.75801v17.66418z" fill="url(#color-5)" stroke="none" stroke-width="0" stroke-linecap="butt"></path></g></g></svg>