<svg version="1.1" xmlns="http://www.w3.org/2000/svg" xmlns:xlink="http://www.w3.org/1999/xlink" width="39.29649" height="6.91459" viewBox="0,0,39.29649,6.91459"><defs><radialGradient cx="240.90501" cy="182.0321" r="14.28514" gradientUnits="userSpaceOnUse" id="color-1"><stop offset="0" stop-color="#dadada"></stop><stop offset="1" stop-color="#5d5d5d"></stop></radialGradient></defs><g transform="translate(-220.35175,-176.45655)"><g data-paper-data="{&quot;isPaintingLayer&quot;:true}" fill-rule="nonzero" stroke-linejoin="miter" stroke-miterlimit="10" stroke-dasharray="" stroke-dashoffset="0" style="mix-blend-mode: normal"><path d="M231.05034,179.01496l26.78304,-0.29334l1.81487,2.65875l-28.56857,0.3129z" fill="url(#color-1)" stroke="none" stroke-width="0" stroke-linecap="butt"></path><path d="M220.35179,180.47146c-0.00688,-0.62757 0.87321,-1.79531 0.87321,-1.79531l8.4813,-0.09289l0.03912,3.57107c0,0 -2.3412,-0.4208 -3.57596,-0.40728c-1.52898,0.01675 -4.90533,0.50016 -4.90533,0.50016c0,0 -0.90626,-1.2223 -0.91233,-1.77576z" fill="#c1832d" stroke="#000000" stroke-width="0" stroke-linecap="butt"></path><path d="M231.28454,180.01689c0.01823,1.66409 -0.51659,3.01911 -1.19455,3.02653c-0.67796,0.00743 -1.24233,-1.33557 -1.26056,-2.99965c-0.01823,-1.66409 0.51659,-3.01911 1.19455,-3.02653c0.67796,-0.00743 1.24233,1.33557 1.26056,2.99965z" fill="#c1832d" stroke="none" stroke-width="0" stroke-linecap="butt"></path><path d="M221.82148,182.18531l-0.14826,-3.34665" fill="none" stroke="#906221" stroke-width="1" stroke-linecap="round"></path><path d="M223.82655,181.82852l0.07737,-3.12591" fill="none" stroke="#906221" stroke-width="1" stroke-linecap="round"></path><path d="M226.47185,178.78609l-0.0786,3.01432" fill="none" stroke="#906221" stroke-width="1" stroke-linecap="round"></path><path d="M228.36287,178.20733l0.49038,4.01256" fill="none" stroke="#906221" stroke-width="1" stroke-linecap="round"></path><path d="M230.53453,182.87114l-0.06478,-5.91459" fill="none" stroke="#906221" stroke-width="1" stroke-linecap="round"></path></g></g></svg>