<svg version="1.1" xmlns="http://www.w3.org/2000/svg" xmlns:xlink="http://www.w3.org/1999/xlink" width="166.22725" height="255.2863" viewBox="0,0,166.22725,255.2863"><defs><linearGradient x1="70.37956" y1="159.15607" x2="124.37956" y2="159.15607" gradientUnits="userSpaceOnUse" id="color-1"><stop offset="0" stop-color="#c6634f"></stop><stop offset="1" stop-color="#ffbc66"></stop></linearGradient><radialGradient cx="180.7029" cy="238.67486" r="20.42666" gradientUnits="userSpaceOnUse" id="color-2"><stop offset="0" stop-color="#ffffff"></stop><stop offset="1" stop-color="#ad4545"></stop></radialGradient></defs><g transform="translate(-25.44128,-99.15865)"><g data-paper-data="{&quot;isPaintingLayer&quot;:true}" fill-rule="nonzero" stroke-linejoin="miter" stroke-miterlimit="10" stroke-dasharray="" stroke-dashoffset="0" style="mix-blend-mode: normal"><path d="M65.14645,353.01186v-151.43636h59.15483v151.43636z" fill="#b98585" stroke="none" stroke-width="0" stroke-linecap="butt"></path><path d="M126.74509,193.74201c-6.10998,15.71134 -24.08062,23.38555 -40.1386,17.14082c-16.05797,-6.24476 -24.12234,-24.0437 -18.01236,-39.75508c6.10998,-15.71134 24.08062,-23.38556 40.13858,-17.14083c16.05797,6.24476 24.12234,24.0437 18.01236,39.7551z" fill="#fffad7" stroke="none" stroke-width="0" stroke-linecap="butt"></path><path d="M103.94216,192.98145c1.11743,1.25888 -0.14145,2.37632 -0.14145,2.37632l-0.73513,0.58534c-4.9535,7.14794 -13.52586,8.88777 -21.4033,5.8173c0,0 -1.56245,-0.62625 -0.93619,-2.18868c0.62625,-1.56244 2.1887,-0.93619 2.1887,-0.93619c6.28568,2.61108 13.45864,1.22387 17.37203,-4.59297l1.27908,-1.20252c0,0 1.25888,-1.11744 2.37631,0.14144z" fill="#000000" stroke="none" stroke-width="0.5" stroke-linecap="butt"></path><path d="M41.96003,290.26884l14.47297,-71.56081l16.36077,7.03375l-14.47296,71.56081z" fill="#fffad7" stroke="none" stroke-width="0" stroke-linecap="butt"></path><path d="M172.64632,272.07598l-72.32365,-9.98552l6.00057,-16.76724l72.32367,9.98551z" fill="#fffad7" stroke="none" stroke-width="0" stroke-linecap="butt"></path><path d="M75.79432,351.82877l3.54929,-146.70397" fill="none" stroke="#000000" stroke-width="0.5" stroke-linecap="round"></path><path d="M110.69567,209.26563l0.59155,144.92932" fill="none" stroke="#000000" stroke-width="0.5" stroke-linecap="round"></path><path d="M70.37956,166.48941l4.33333,-10l31,-6.66667l18.66667,18.66667z" fill="url(#color-1)" stroke="none" stroke-width="NaN" stroke-linecap="butt"></path><path d="M75.37956,160.15607l36.33333,6.66667" fill="none" stroke="#000000" stroke-width="0.5" stroke-linecap="round"></path><path d="M89.04622,154.82274l27,7" fill="none" stroke="#000000" stroke-width="0.5" stroke-linecap="round"></path><g><path d="M62.22286,167.42076c0,0 -6.1714,-2.07942 -6.94548,-4.15566c-0.52591,-1.41051 2.75045,-7.09614 2.75045,-7.09614l54.18622,-20.20245c0,0 5.90348,2.26529 6.539,3.96997c0.74524,1.99888 -2.34397,7.28184 -2.34397,7.28184z" fill="#000000" stroke="none" stroke-width="0" stroke-linecap="butt"></path><path d="M71.348,134.00258l-11.59155,-31.09047l10.06739,-3.75345l11.59155,31.09047z" fill="#00d95b" stroke="none" stroke-width="0" stroke-linecap="butt"></path><path d="M97.91964,129.6777l-8.53601,-3.2591c0,0 10.53997,-16.68395 16.2728,-21.84645c4.72267,-4.25284 20.8836,1.58477 20.8836,1.58477l4.03888,14.71627c0,0 -4.76101,2.89589 -6.32343,2.17475c-4.7961,-2.21363 -10.27421,-15.03332 -14.4009,-10.53909c-4.80094,5.22849 -11.93494,17.16886 -11.93494,17.16886z" fill="#d90000" stroke="none" stroke-width="0" stroke-linecap="butt"></path><path d="M131.78696,122.42977c0.94503,2.53475 -0.40998,5.38034 -3.02646,6.35589c-2.61648,0.97551 -5.50372,-0.28848 -6.44873,-2.82319c-0.94503,-2.53475 0.40999,-5.38034 3.02646,-6.3559c2.61648,-0.97551 5.50371,0.28848 6.44873,2.8232z" fill="#ffc500" stroke="none" stroke-width="0" stroke-linecap="butt"></path><path d="M123.33572,122.37674l7.6481,4.23099" fill="none" stroke="#000000" stroke-width="0.5" stroke-linecap="round"></path><path d="M124.17864,126.44683l4.85826,-6.87021" fill="none" stroke="#000000" stroke-width="0.5" stroke-linecap="round"></path><path d="M42.21255,136.04176c-6.06169,-0.69561 -1.81003,12.58135 -3.98634,17.39448c-0.70898,1.56801 -6.20379,2.49579 -6.20379,2.49579l-6.58115,-13.76845c0,0 8.39466,-14.99279 14.74882,-14.86972c7.71328,0.14937 26.60309,5.86089 26.60309,5.86089l-4.31892,8.05186c0,0 -13.20969,-4.35555 -20.26169,-5.16488z" data-paper-data="{&quot;index&quot;:null}" fill="#0048d9" stroke="none" stroke-width="0" stroke-linecap="butt"></path><path d="M35.15483,151.5437c2.61648,-0.97551 5.5037,0.28845 6.44873,2.8232c0.94503,2.53475 -0.40997,5.38039 -3.02645,6.3559c-2.61648,0.97551 -5.50372,-0.28848 -6.44875,-2.82322c-0.94503,-2.53475 0.40998,-5.38034 3.02646,-6.35585z" data-paper-data="{&quot;index&quot;:null}" fill="#ffc500" stroke="none" stroke-width="0" stroke-linecap="butt"></path><path d="M35.47062,160.53197l3.01148,-8.20522" data-paper-data="{&quot;index&quot;:null}" fill="none" stroke="#000000" stroke-width="0.5" stroke-linecap="round"></path><path d="M40.50944,155.95525l-8.17013,-2.01277" data-paper-data="{&quot;index&quot;:null}" fill="none" stroke="#000000" stroke-width="0.5" stroke-linecap="round"></path><path d="M66.50081,115.57421l-6.52361,-12.0699l9.84659,-4.34566l2.30293,14.31803z" fill="#00964e" stroke="none" stroke-width="0" stroke-linecap="butt"></path><path d="M74.95723,112.92724c0.94503,2.53475 -0.40997,5.38039 -3.02645,6.3559c-2.61648,0.97551 -5.50372,-0.28849 -6.44875,-2.82322c-0.94503,-2.53475 0.40998,-5.38034 3.02646,-6.35585c2.61648,-0.97551 5.5037,0.28845 6.44873,2.8232z" fill="#ffc500" stroke="none" stroke-width="0" stroke-linecap="butt"></path><path d="M66.50599,112.87421l7.6481,4.23099" fill="none" stroke="#000000" stroke-width="0.5" stroke-linecap="round"></path><path d="M67.34892,116.94431l4.85826,-6.87023" fill="none" stroke="#000000" stroke-width="0.5" stroke-linecap="round"></path><path d="M57.84209,156.57546l-6.07176,-16.28548c0,0 15.90236,-11.99958 24.95794,-15.37582c9.0062,-3.35783 29.22828,-4.82663 29.22828,-4.82663l6.07179,16.28548z" fill="#dadada" stroke="none" stroke-width="0" stroke-linecap="butt"></path><path d="M56.55244,154.021l18.69535,-28.55479l35.45065,10.05366" fill="none" stroke="#4a00f3" stroke-width="0.25" stroke-linecap="round"></path></g><path d="M98.29467,138.45248c0,1.64494 -2.37062,2.97843 -5.29498,2.97843c-2.92435,0 -5.29498,-1.3335 -5.29498,-2.97843c0,-1.64494 2.37063,-2.97843 5.29498,-2.97843c2.92435,0 5.29498,1.33349 5.29498,2.97843z" fill="#ec00ff" stroke="none" stroke-width="0" stroke-linecap="butt"></path><g stroke-linecap="butt"><path d="M191.41854,249.72533c0,11.28132 -8.2458,20.42666 -18.41746,20.42666c-10.1717,0 -18.41745,-9.14534 -18.41745,-20.42666c0,-11.28131 8.24579,-20.42665 18.41745,-20.42665c10.1717,0 18.41746,9.14534 18.41746,20.42665z" fill="url(#color-2)" stroke="#000000" stroke-width="0.5"></path><path d="M180.08511,236.55248c0,1.41602 -1.1479,2.56391 -2.56391,2.56391c-1.41602,0 -2.56392,-1.1479 -2.56392,-2.56391c0,-1.41602 1.14791,-2.56392 2.56392,-2.56392c1.41602,0 2.56391,1.1479 2.56391,2.56392z" fill="#000000" stroke="none" stroke-width="0"></path><path d="M185.57153,239.79545c0,1.41602 -1.1479,2.56391 -2.56391,2.56391c-1.41602,0 -2.56392,-1.1479 -2.56392,-2.56391c0,-1.41602 1.1479,-2.56392 2.56392,-2.56392c1.41602,0 2.56391,1.14791 2.56391,2.56392z" fill="#000000" stroke="none" stroke-width="0"></path><path d="M180.48182,243.03846c0,1.41602 -1.1479,2.56391 -2.56391,2.56391c-1.41602,0 -2.56392,-1.1479 -2.56392,-2.56391c0,-1.41602 1.14791,-2.56391 2.56392,-2.56391c1.41602,0 2.56391,1.1479 2.56391,2.56391z" fill="#000000" stroke="none" stroke-width="0"></path></g><path d="M76.37956,172.15607l9.66667,5.66667l-7.33333,2" fill="none" stroke="#000000" stroke-width="0.5" stroke-linecap="round"></path><path d="M108.04622,172.4894l-7,4l6,1.66667" fill="none" stroke="#000000" stroke-width="0.5" stroke-linecap="round"></path></g></g></svg>