<svg version="1.1" xmlns="http://www.w3.org/2000/svg" xmlns:xlink="http://www.w3.org/1999/xlink" width="103.7897" height="32.36157" viewBox="0,0,103.7897,32.36157"><g transform="translate(-244.35946,-100.93268)"><g data-paper-data="{&quot;isPaintingLayer&quot;:true}" fill-rule="nonzero" stroke-linecap="butt" stroke-linejoin="miter" stroke-miterlimit="10" stroke-dasharray="" stroke-dashoffset="0" style="mix-blend-mode: normal"><text transform="translate(273.15977,119.54448) scale(0.40517,0.40517)" font-size="40" xml:space="preserve" fill="#9966ff" fill-rule="nonzero" stroke="none" stroke-width="1" stroke-linecap="butt" stroke-linejoin="miter" stroke-miterlimit="10" stroke-dasharray="" stroke-dashoffset="0" font-family="Serif" font-weight="normal" text-anchor="start" style="mix-blend-mode: normal"><tspan x="0" dy="0">xamt8</tspan></text><path d="M245.35949,127.63814c0,-6.30859 0,-17.19724 0,-20.79571c0,-2.27428 3.20865,-4.90974 6.77204,-4.90974c10.96558,0 68.04303,0 88.06657,0c4.34983,0 6.95106,1.82769 6.95106,4.52932c0,6.36599 0,17.58435 0,21.17612c0,2.17739 -2.6729,4.65613 -7.13006,4.65613c-20.1347,0 -76.67978,0 -87.70858,0c-3.64676,0 -6.95106,-1.88676 -6.95106,-4.65613z" fill-opacity="0.62097" fill="#291800" stroke="#d84646" stroke-width="2"></path><g><text transform="translate(278.12307,122.9884) scale(0.40517,0.40517)" font-size="40" xml:space="preserve" fill="#ff7a7a" fill-rule="nonzero" stroke="none" stroke-width="1" stroke-linecap="butt" stroke-linejoin="miter" stroke-miterlimit="10" stroke-dasharray="" stroke-dashoffset="0" font-family="Serif" font-weight="normal" text-anchor="start" style="mix-blend-mode: normal"><tspan x="0" dy="0">Noclip</tspan></text><path d="M269.91844,123.19099v-11.74985h6.38138v11.74985z" fill="none" stroke="#ff7a7a" stroke-width="1.5"></path><path d="M266.06935,119.3419v-3.44392h7.59689v3.44392z" fill="#ff7a7a" stroke="none" stroke-width="0"></path><path d="M272.80525,120.40546v-5.46976l5.36847,2.83617z" fill="#ff7a7a" stroke="none" stroke-width="0"></path></g></g></g></svg>