<svg version="1.1" xmlns="http://www.w3.org/2000/svg" xmlns:xlink="http://www.w3.org/1999/xlink" width="29.43334" height="30.19474" viewBox="0,0,29.43334,30.19474"><g transform="translate(-225.28333,-164.90263)"><g data-paper-data="{&quot;isPaintingLayer&quot;:true}" fill-rule="nonzero" stroke-linecap="butt" stroke-linejoin="miter" stroke-miterlimit="10" stroke-dasharray="" stroke-dashoffset="0" style="mix-blend-mode: normal"><text transform="translate(238.11722,183.24618) rotate(-48.04074) scale(0.05847,0.05847)" font-size="40" xml:space="preserve" fill="#004275" fill-rule="nonzero" stroke="none" stroke-width="1" stroke-linecap="butt" stroke-linejoin="miter" stroke-miterlimit="10" stroke-dasharray="" stroke-dashoffset="0" font-family="Curly" font-weight="normal" text-anchor="start" style="mix-blend-mode: normal"><tspan x="0" dy="0">xAmt8</tspan></text><path d="M254.46667,180c0,8.19998 -6.47695,14.84737 -14.46667,14.84737c-7.98972,0 -14.46667,-6.6474 -14.46667,-14.84737c0,-8.19998 6.47695,-14.84737 14.46667,-14.84737c7.98972,0 14.46667,6.6474 14.46667,14.84737z" fill-opacity="0.60484" fill="#000000" stroke="#ffe6c3" stroke-width="0.5"></path><path d="M243.23117,170.65255c0,1.84051 -1.52494,3.33254 -3.40606,3.33254c-1.88111,0 -3.40606,-1.49203 -3.40606,-3.33254c0,-1.84051 1.52494,-3.33254 3.40606,-3.33254c1.88111,0 3.40606,1.49203 3.40606,3.33254z" fill="#ffe5c2" stroke="none" stroke-width="0"></path><path d="M242.62249,173.46884c0.15932,0 0.28832,1.78563 0.28832,3.99095c0,1.67879 0,2.72423 0,4.40302c0,2.20533 -0.129,3.99095 -0.28832,3.99095c-1.11082,0 -4.15443,0 -5.26525,0c-0.15932,0 -0.28887,-1.78563 -0.28887,-3.99095c0,-1.67879 0,-2.72423 0,-4.40302c0,-2.20533 0.12955,-3.99095 0.28887,-3.99095c1.11082,0 4.15443,0 5.26525,0z" fill="#ffe5c2" stroke="none" stroke-width="1"></path><path d="M234.27028,183.28771l1.58016,-7.81301l1.78626,0.76795l-1.58016,7.81301z" fill="#ffe5c2" stroke="none" stroke-width="0"></path><path d="M245.51812,183.51735l-3.65446,-7.08413l1.87401,-0.51822l3.65446,7.08413z" fill="#ffe5c2" stroke="none" stroke-width="0"></path><path d="M237.52174,193.26688v-7.40021h1.96032v7.40021z" fill="#ffe5c2" stroke="none" stroke-width="0"></path><path d="M240.56024,193.4139v-7.64525h1.8623v7.64525z" fill="#ffe5c2" stroke="none" stroke-width="0"></path><path d="M238.16919,169.19671c0,-0.1218 0.09874,-0.22054 0.22054,-0.22054c0.1218,0 0.22054,0.09874 0.22054,0.22054c0,0.1218 -0.09874,0.22054 -0.22054,0.22054c-0.1218,0 -0.22054,-0.09874 -0.22054,-0.22054z" fill="#ffe5c2" stroke="none" stroke-width="0.5"></path><path d="M240.82471,169.13898c0,-0.1218 0.09874,-0.22054 0.22054,-0.22054c0.1218,0 0.22054,0.09874 0.22054,0.22054c0,0.1218 -0.09874,0.22054 -0.22054,0.22054c-0.1218,0 -0.22054,-0.09874 -0.22054,-0.22054z" fill="#ffe5c2" stroke="none" stroke-width="0.5"></path><path d="M241.66988,171.04403c0,0.07327 -0.02434,0.1222 -0.05686,0.15487c-0.00008,0.14277 -0.00967,0.28625 -0.08723,0.41562c-0.19373,0.32316 -0.51404,0.33133 -0.8414,0.39624c-0.53284,0.10566 -1.23809,0.15465 -1.72333,-0.1476c-0.30291,-0.18868 -0.52886,-0.54138 -0.81912,-0.75816c0,0 -0.17643,-0.13232 -0.04411,-0.30875c0.13232,-0.17643 0.30875,-0.04411 0.30875,-0.04411c0.28095,0.21151 0.50616,0.55993 0.79728,0.74279c0.37549,0.23584 0.98895,0.16509 1.39402,0.08332c0.12689,-0.02561 0.46661,-0.02754 0.54408,-0.18105c0.0455,-0.09016 0.0298,-0.26665 0.0291,-0.35317l0.27826,-0.22054c0,0 0.22054,0 0.22054,0.22054z" fill="#ffe5c2" stroke="none" stroke-width="0.5"></path></g></g></svg>