<svg version="1.1" xmlns="http://www.w3.org/2000/svg" xmlns:xlink="http://www.w3.org/1999/xlink" width="40.14103" height="41.18421" viewBox="0,0,40.14103,41.18421"><g transform="translate(-219.92949,-159.40789)"><g data-paper-data="{&quot;isPaintingLayer&quot;:true}" fill-rule="nonzero" stroke-linejoin="miter" stroke-miterlimit="10" stroke-dasharray="" stroke-dashoffset="0" style="mix-blend-mode: normal"><path d="M259.82051,180c0,11.23464 -8.87395,20.34211 -19.82051,20.34211c-10.94657,0 -19.82051,-9.10747 -19.82051,-20.34211c0,-11.23464 8.87395,-20.34211 19.82051,-20.34211c10.94657,0 19.82051,9.10747 19.82051,20.34211z" fill-opacity="0.60484" fill="#000000" stroke="#ffe6c3" stroke-width="0.5" stroke-linecap="butt"></path><text transform="translate(237.50287,184.30541) rotate(-48.04) scale(0.07755,0.07755)" font-size="40" xml:space="preserve" fill="#004275" fill-rule="nonzero" stroke="none" stroke-width="1" stroke-linecap="butt" stroke-linejoin="miter" stroke-miterlimit="10" stroke-dasharray="" stroke-dashoffset="0" font-family="Curly" font-weight="normal" text-anchor="start" style="mix-blend-mode: normal"><tspan x="0" dy="0">xAmt8</tspan></text><g stroke="#000000" stroke-width="0.5"><path d="M226.36769,190.45359v-20.97145h28.39885v20.97145z" fill="#ffebb0" stroke-linecap="butt"></path><path d="M227.48422,187.76803v-18.85806c0,0 1.52315,-2.82599 2.23307,-2.82599c1.93121,0 10.09737,3.69609 10.09737,3.69609l-0.09709,20.18806c0,0 -3.4011,-2.98586 -5.28258,-2.98586c-2.15821,0 -6.95077,0.78575 -6.95077,0.78575z" fill="#fff8e3" stroke-linecap="butt"></path><path d="M244.89645,187.37725c-1.88148,0 -5.28258,2.98586 -5.28258,2.98586l-0.09709,-20.18806c0,0 8.16616,-3.69609 10.09736,-3.69609c0.70992,0 2.23307,2.82599 2.23307,2.82599v18.85806c0,0 -4.79256,-0.78575 -6.95077,-0.78575z" data-paper-data="{&quot;index&quot;:null}" fill="#fff8e3" stroke-linecap="butt"></path><path d="M235.83397,171.56957l-4.46614,-0.29127" fill="#ffebb0" stroke-linecap="round"></path><path d="M236.12524,174.28809l-4.66033,-0.09709" fill="#ffebb0" stroke-linecap="round"></path><path d="M231.6591,176.71535l3.8836,0.09709" fill="#ffebb0" stroke-linecap="round"></path><path d="M237.4845,180.40477l-6.79631,0.09709" fill="#ffebb0" stroke-linecap="round"></path><path d="M243.89245,171.56957h3.30106" fill="#ffebb0" stroke-linecap="round"></path><path d="M243.79535,174.87063l3.8836,-0.38836" fill="#ffebb0" stroke-linecap="round"></path><path d="M242.63027,177.20079h3.59233" fill="#ffebb0" stroke-linecap="round"></path><path d="M241.75646,179.91932l4.17487,-0.09709" fill="#ffebb0" stroke-linecap="round"></path></g></g></g></svg>