<svg version="1.1" xmlns="http://www.w3.org/2000/svg" xmlns:xlink="http://www.w3.org/1999/xlink" width="49.5" height="80.75" viewBox="0,0,49.5,80.75"><g transform="translate(-215.25,-139.625)"><g data-paper-data="{&quot;isPaintingLayer&quot;:true}" fill-rule="nonzero" stroke-linejoin="miter" stroke-miterlimit="10" stroke-dasharray="" stroke-dashoffset="0" style="mix-blend-mode: normal"><text transform="translate(220,198.4375) scale(0.29957,0.29957)" font-size="40" xml:space="preserve" fill="#ffffff" fill-rule="nonzero" stroke="none" stroke-width="1" stroke-linecap="butt" stroke-linejoin="miter" stroke-miterlimit="10" stroke-dasharray="" stroke-dashoffset="0" font-family="Sans Serif" font-weight="normal" text-anchor="start" style="mix-blend-mode: normal"><tspan x="0" dy="0">xAmt8</tspan></text><path d="M217.25,218.375v-47.25c0,0 12.50767,-29.5 20,-29.5c7.15918,0 24,29.5 24,29.5v47.25z" fill="#1f85b1" stroke="#ffffff" stroke-width="4" stroke-linecap="butt"></path><path d="M237.75,184.875v-38.75" fill="none" stroke="#ffffff" stroke-width="4" stroke-linecap="round"></path><path d="M219.75,187.625l39.25,-0.25" fill="none" stroke="#ffffff" stroke-width="4" stroke-linecap="round"></path><path d="M236.25,189.625l-15,25.5" fill="none" stroke="#ffffff" stroke-width="4" stroke-linecap="round"></path><path d="M241.25,189.625l21.5,27.25" fill="none" stroke="#ffffff" stroke-width="4" stroke-linecap="round"></path><path d="M226.75,161.375l1.75,2.75" fill="none" stroke="#00ffff" stroke-width="1" stroke-linecap="round"></path><path d="M229.75,157.375l2.5,3.25" fill="none" stroke="#00ffff" stroke-width="1" stroke-linecap="round"></path><path d="M224.75,174.625l1,2.5" fill="none" stroke="#00ffff" stroke-width="1" stroke-linecap="round"></path><path d="M230.25,173.875l0.75,1.5" fill="none" stroke="#00ffff" stroke-width="1" stroke-linecap="round"></path><path d="M243,172.625l1.25,2" fill="none" stroke="#00ffff" stroke-width="1" stroke-linecap="round"></path><path d="M248,161.625l0.5,2.75" fill="none" stroke="#00ffff" stroke-width="1" stroke-linecap="round"></path><path d="M248.5,171.625l1.75,2.75" fill="none" stroke="#00ffff" stroke-width="1" stroke-linecap="round"></path><path d="M250.25,179.375l1.25,2.25" fill="none" stroke="#00ffff" stroke-width="1" stroke-linecap="round"></path><path d="M224,194.875l0.25,2" fill="none" stroke="#00ffff" stroke-width="1" stroke-linecap="round"></path><path d="M227.25,192.375l0.5,1.5" fill="none" stroke="#00ffff" stroke-width="1" stroke-linecap="round"></path><path d="M234.25,206.875l0.75,1.5" fill="none" stroke="#00ffff" stroke-width="1" stroke-linecap="round"></path><path d="M239.5,211.625l1,1.75" fill="none" stroke="#00ffff" stroke-width="1" stroke-linecap="round"></path><path d="M255.75,193.875l1,1.75" fill="none" stroke="#00ffff" stroke-width="1" stroke-linecap="round"></path></g></g></svg>