<svg version="1.1" xmlns="http://www.w3.org/2000/svg" xmlns:xlink="http://www.w3.org/1999/xlink" width="8.62623" height="2.47082" viewBox="0,0,8.62623,2.47082"><g transform="translate(-235.67833,-178.77842)"><g data-paper-data="{&quot;isPaintingLayer&quot;:true}" fill-rule="nonzero" stroke-linejoin="miter" stroke-miterlimit="10" stroke-dasharray="" stroke-dashoffset="0" style="mix-blend-mode: normal"><text transform="translate(239.44424,180.85475) rotate(-4.52086) scale(0.02649,0.02649)" font-size="40" xml:space="preserve" fill="#876a45" fill-rule="nonzero" stroke="none" stroke-width="0.3" stroke-linecap="butt" stroke-linejoin="miter" stroke-miterlimit="10" stroke-dasharray="" stroke-dashoffset="0" font-family="Marker" font-weight="normal" text-anchor="start" style="mix-blend-mode: normal"><tspan x="0" dy="0">xamt8</tspan></text><path d="M237.53911,178.88333l5.4129,-0.00535c0,0 0.48203,-0.00178 0.80168,0.20136c0.29988,0.19056 0.4373,0.58112 0.47586,0.74395c0.06027,0.25451 -0.03553,0.62013 -0.33562,0.83625c-0.35777,0.25765 -0.93693,0.34397 -0.93693,0.34397l-5.34044,-0.09599c0,0 -0.9978,-0.04032 -1.39917,-0.30461c-0.21033,-0.1385 -0.46497,-0.67043 -0.46407,-0.77822c0.00129,-0.1529 0.30938,-0.57292 0.58168,-0.78686c0.39165,-0.30771 1.20411,-0.15448 1.20411,-0.15448z" fill="#e4b375" stroke="#ff7700" stroke-width="0.15" stroke-linecap="butt"></path><path d="M240.66308,178.91606l0.0374,1.99464" fill="none" stroke="#b8915e" stroke-width="0.15" stroke-linecap="round"></path><path d="M239.48587,178.91883l0.00493,2.09281" fill="none" stroke="#b8915e" stroke-width="0.15" stroke-linecap="round"></path><path d="M243.49713,179.28759c0.04163,-0.00009 0.07548,0.03358 0.07557,0.07521c0.00009,0.04163 -0.03358,0.07548 -0.07521,0.07557c-0.04163,0.00009 -0.07548,-0.03358 -0.07557,-0.07521c-0.00009,-0.04163 0.03358,-0.07548 0.07521,-0.07557z" fill="#b8915e" stroke="none" stroke-width="0.15" stroke-linecap="butt"></path><path d="M243.51914,179.6268c0.04163,-0.00009 0.07548,0.03358 0.07557,0.07522c0.00009,0.04163 -0.03358,0.07546 -0.07522,0.07557c-0.04163,0.00009 -0.07548,-0.03358 -0.07557,-0.07521c-0.00009,-0.04163 0.03358,-0.07548 0.07522,-0.07557z" fill="#b8915e" stroke="none" stroke-width="0.15" stroke-linecap="butt"></path><path d="M243.54129,180.02962c0.04163,-0.00009 0.07548,0.03358 0.07557,0.07522c0.00009,0.04163 -0.03358,0.07548 -0.07522,0.07557c-0.04163,0.00009 -0.07548,-0.03358 -0.07557,-0.07521c-0.00009,-0.04163 0.03358,-0.07548 0.07521,-0.07557z" fill="#b8915e" stroke="none" stroke-width="0.15" stroke-linecap="butt"></path><path d="M243.49967,180.36899c0.04163,-0.00009 0.07548,0.03358 0.07557,0.07521c0.00009,0.04163 -0.03358,0.07548 -0.07522,0.07557c-0.04163,0.00009 -0.07548,-0.03358 -0.07557,-0.07521c-0.00009,-0.04163 0.03358,-0.07548 0.07522,-0.07557z" fill="#b8915e" stroke="none" stroke-width="0.15" stroke-linecap="butt"></path><path d="M242.98883,179.54324c0.04163,-0.00009 0.07546,0.03358 0.07557,0.07522c0.00009,0.04163 -0.03358,0.07548 -0.07522,0.07557c-0.04163,0.00009 -0.07546,-0.03358 -0.07557,-0.07522c-0.00009,-0.04163 0.03358,-0.07548 0.07522,-0.07557z" fill="#b8915e" stroke="none" stroke-width="0.15" stroke-linecap="butt"></path><path d="M242.98969,179.9037c0.04163,-0.00009 0.07548,0.03358 0.07557,0.07521c0.00009,0.04163 -0.03358,0.07548 -0.07522,0.07557c-0.04163,0.00009 -0.07548,-0.03358 -0.07557,-0.07521c-0.00009,-0.04163 0.03358,-0.07548 0.07521,-0.07557z" fill="#b8915e" stroke="none" stroke-width="0.15" stroke-linecap="butt"></path><path d="M242.96943,180.30663c0.04163,-0.00009 0.07548,0.03358 0.07557,0.07521c0.00009,0.04163 -0.03358,0.07548 -0.07521,0.07557c-0.04163,0.00009 -0.07548,-0.03358 -0.07557,-0.07521c-0.00009,-0.04163 0.03358,-0.07548 0.07521,-0.07557z" fill="#b8915e" stroke="none" stroke-width="0.15" stroke-linecap="butt"></path><path d="M242.41543,179.1629c0.04163,-0.00009 0.07548,0.03358 0.07557,0.07522c0.00009,0.04163 -0.03358,0.07548 -0.07521,0.07557c-0.04163,0.00009 -0.07548,-0.03358 -0.07557,-0.07522c-0.00009,-0.04163 0.03358,-0.07548 0.07522,-0.07557z" fill="#b8915e" stroke="none" stroke-width="0.15" stroke-linecap="butt"></path><path d="M242.43808,179.77778c0.04163,-0.00009 0.07548,0.03358 0.07557,0.07521c0.00009,0.04163 -0.03358,0.07548 -0.07521,0.07557c-0.04163,0.00009 -0.07548,-0.03358 -0.07557,-0.07521c-0.00009,-0.04163 0.03358,-0.07548 0.07521,-0.07557z" fill="#b8915e" stroke="none" stroke-width="0.15" stroke-linecap="butt"></path><path d="M242.41772,180.13829c0.04163,-0.00009 0.07548,0.03358 0.07557,0.07521c0.00009,0.04163 -0.03358,0.07548 -0.07521,0.07557c-0.04163,0.00009 -0.07548,-0.03358 -0.07557,-0.07521c-0.00009,-0.04163 0.03358,-0.07548 0.07521,-0.07557z" fill="#b8915e" stroke="none" stroke-width="0.15" stroke-linecap="butt"></path><path d="M242.37617,180.49886c0.04163,-0.00009 0.07546,0.03358 0.07557,0.07521c0.00009,0.04163 -0.03358,0.07548 -0.07521,0.07557c-0.04163,0.00009 -0.07548,-0.03358 -0.07557,-0.07522c-0.00009,-0.04163 0.03358,-0.07548 0.07522,-0.07557z" fill="#b8915e" stroke="none" stroke-width="0.15" stroke-linecap="butt"></path><path d="M241.82252,179.50358c0.04163,-0.00009 0.07548,0.03358 0.07557,0.07522c0.00009,0.04163 -0.03358,0.07546 -0.07521,0.07557c-0.04163,0.00009 -0.07548,-0.03358 -0.07557,-0.07521c-0.00009,-0.04163 0.03358,-0.07548 0.07521,-0.07557z" fill="#b8915e" stroke="none" stroke-width="0.15" stroke-linecap="butt"></path><path d="M241.84502,180.05483c0.04163,-0.00009 0.07548,0.03358 0.07557,0.07522c0.00009,0.04163 -0.03358,0.07546 -0.07522,0.07557c-0.04163,0.00009 -0.07546,-0.03358 -0.07557,-0.07521c-0.00009,-0.04163 0.03358,-0.07548 0.07521,-0.07557z" fill="#b8915e" stroke="none" stroke-width="0.15" stroke-linecap="butt"></path><path d="M241.37623,179.08054c0.04163,-0.00009 0.07546,0.03358 0.07557,0.07521c0.00009,0.04163 -0.03358,0.07548 -0.07521,0.07557c-0.04163,0.00009 -0.07548,-0.03358 -0.07557,-0.07521c-0.00009,-0.04163 0.03358,-0.07548 0.07522,-0.07557z" fill="#b8915e" stroke="none" stroke-width="0.15" stroke-linecap="butt"></path><path d="M241.39853,179.54697c0.04163,-0.00009 0.07548,0.03358 0.07557,0.07521c0.00009,0.04163 -0.03358,0.07548 -0.07521,0.07557c-0.04163,0.00009 -0.07548,-0.03358 -0.07557,-0.07521c-0.00009,-0.04163 0.03358,-0.07548 0.07521,-0.07557z" fill="#b8915e" stroke="none" stroke-width="0.15" stroke-linecap="butt"></path><path d="M241.35723,180.01356c0.04163,-0.00009 0.07548,0.03358 0.07557,0.07522c0.00009,0.04163 -0.03358,0.07546 -0.07522,0.07557c-0.04163,0.00009 -0.07548,-0.03358 -0.07557,-0.07521c-0.00009,-0.04163 0.03358,-0.07548 0.07521,-0.07557z" fill="#b8915e" stroke="none" stroke-width="0.15" stroke-linecap="butt"></path><path d="M241.33696,180.4165c0.04163,-0.00009 0.07548,0.03358 0.07557,0.07521c0.00009,0.04163 -0.03358,0.07548 -0.07521,0.07557c-0.04163,0.00009 -0.07548,-0.03358 -0.07557,-0.07521c-0.00009,-0.04163 0.03358,-0.07548 0.07521,-0.07557z" fill="#b8915e" stroke="none" stroke-width="0.15" stroke-linecap="butt"></path><path d="M239.50942,178.87043l1.11656,-0.03137l0.06012,2.1401l-1.11656,0.03137z" fill="#ebd1ae" stroke="none" stroke-width="0.15" stroke-linecap="butt"></path><path d="M240.59077,178.82842l-1.01058,2.1469" fill="none" stroke="#cdb697" stroke-width="0.1" stroke-linecap="round"></path><path d="M239.59148,178.89142l1.0355,2.05449" fill="none" stroke="#cdb697" stroke-width="0.1" stroke-linecap="round"></path><path d="M236.80955,179.44043c0.00005,0.04163 -0.03368,0.07542 -0.07531,0.07547c-0.04163,0.00005 -0.07542,-0.03368 -0.07547,-0.07531c-0.00005,-0.04163 0.03368,-0.07542 0.07531,-0.07547c0.04163,-0.00005 0.07542,0.03368 0.07547,0.07531z" fill="#b8915e" stroke="none" stroke-width="0.15" stroke-linecap="butt"></path><path d="M236.71326,179.70441c0.04164,-0.00005 0.07544,0.03368 0.07549,0.07531c0.00005,0.04163 -0.03368,0.07542 -0.07531,0.07547c-0.04165,0.00004 -0.07544,-0.03368 -0.07549,-0.07531c-0.00005,-0.04164 0.03368,-0.07544 0.07531,-0.07549z" fill="#b8915e" stroke="none" stroke-width="0.15" stroke-linecap="butt"></path><path d="M236.69252,180.10731c0.04163,-0.00005 0.07542,0.03368 0.07547,0.07531c0.00005,0.04163 -0.03368,0.07542 -0.07531,0.07547c-0.04164,0.00005 -0.07544,-0.03368 -0.07549,-0.07531c-0.00005,-0.04164 0.03368,-0.07544 0.07531,-0.07549z" fill="#b8915e" stroke="none" stroke-width="0.15" stroke-linecap="butt"></path><path d="M236.81079,180.52182c0.00005,0.04163 -0.03368,0.07542 -0.07531,0.07547c-0.04164,0.00005 -0.07544,-0.03368 -0.07549,-0.07531c-0.00005,-0.04163 0.03368,-0.07542 0.07531,-0.07547c0.04164,-0.00005 0.07544,0.03368 0.07549,0.07531z" fill="#b8915e" stroke="none" stroke-width="0.15" stroke-linecap="butt"></path><path d="M237.31876,179.6943c0.00004,0.04165 -0.03368,0.07544 -0.07531,0.07549c-0.04164,0.00005 -0.07544,-0.03368 -0.07549,-0.07531c-0.00004,-0.04165 0.03368,-0.07544 0.07531,-0.07549c0.04164,-0.00005 0.07544,0.03368 0.07549,0.07531z" fill="#b8915e" stroke="none" stroke-width="0.15" stroke-linecap="butt"></path><path d="M237.24368,179.97945c0.04163,-0.00005 0.07542,0.03368 0.07547,0.07531c0.00005,0.04163 -0.03368,0.07542 -0.07531,0.07547c-0.04164,0.00005 -0.07544,-0.03368 -0.07549,-0.07531c-0.00005,-0.04163 0.03368,-0.07542 0.07531,-0.07547z" fill="#b8915e" stroke="none" stroke-width="0.15" stroke-linecap="butt"></path><path d="M237.3408,180.45763c0.00005,0.04163 -0.03368,0.07542 -0.07531,0.07547c-0.04163,0.00005 -0.07542,-0.03368 -0.07547,-0.07531c-0.00005,-0.04163 0.03368,-0.07542 0.07531,-0.07547c0.04163,-0.00005 0.07542,0.03368 0.07547,0.07531z" fill="#b8915e" stroke="none" stroke-width="0.15" stroke-linecap="butt"></path><path d="M237.81533,179.23667c0.04164,-0.00005 0.07544,0.03368 0.07549,0.07531c0.00005,0.04164 -0.03368,0.07544 -0.07531,0.07549c-0.04163,0.00005 -0.07542,-0.03368 -0.07547,-0.07531c-0.00005,-0.04164 0.03368,-0.07544 0.07531,-0.07549z" fill="#b8915e" stroke="none" stroke-width="0.15" stroke-linecap="butt"></path><path d="M237.8703,179.92692c0.00005,0.04163 -0.03368,0.07542 -0.07531,0.07547c-0.04163,0.00005 -0.07542,-0.03368 -0.07547,-0.07531c-0.00005,-0.04163 0.03368,-0.07542 0.07531,-0.07547c0.04163,-0.00005 0.07542,0.03368 0.07547,0.07531z" fill="#b8915e" stroke="none" stroke-width="0.15" stroke-linecap="butt"></path><path d="M237.89192,180.28736c0.00005,0.04163 -0.03368,0.07542 -0.07531,0.07547c-0.04163,0.00005 -0.07542,-0.03368 -0.07547,-0.07531c-0.00005,-0.04163 0.03368,-0.07542 0.07531,-0.07547c0.04163,-0.00005 0.07542,0.03368 0.07547,0.07531z" fill="#b8915e" stroke="none" stroke-width="0.15" stroke-linecap="butt"></path><path d="M237.85923,180.57247c0.04164,-0.00005 0.07544,0.03368 0.07549,0.07531c0.00005,0.04164 -0.03368,0.07544 -0.07531,0.07549c-0.04163,0.00005 -0.07542,-0.03368 -0.07547,-0.07531c-0.00004,-0.04163 0.03368,-0.07542 0.07531,-0.07547z" fill="#b8915e" stroke="none" stroke-width="0.15" stroke-linecap="butt"></path><path d="M238.40944,179.57529c0.04163,-0.00005 0.07542,0.03368 0.07547,0.07531c0.00005,0.04163 -0.03368,0.07542 -0.07531,0.07547c-0.04163,0.00004 -0.07542,-0.03368 -0.07547,-0.07531c-0.00005,-0.04164 0.03368,-0.07544 0.07531,-0.07549z" fill="#b8915e" stroke="none" stroke-width="0.15" stroke-linecap="butt"></path><path d="M238.38887,180.12661c0.04163,-0.00005 0.07542,0.03368 0.07547,0.07531c0.00004,0.04163 -0.03368,0.07542 -0.07531,0.07547c-0.04165,0.00004 -0.07544,-0.03368 -0.07549,-0.07531c-0.00005,-0.04164 0.03368,-0.07544 0.07531,-0.07549z" fill="#b8915e" stroke="none" stroke-width="0.15" stroke-linecap="butt"></path><path d="M238.85423,179.15069c0.04164,-0.00005 0.07544,0.03368 0.07549,0.07531c0.00005,0.04163 -0.03368,0.07542 -0.07531,0.07547c-0.04163,0.00005 -0.07542,-0.03368 -0.07547,-0.07531c-0.00004,-0.04163 0.03368,-0.07542 0.07531,-0.07547z" fill="#b8915e" stroke="none" stroke-width="0.15" stroke-linecap="butt"></path><path d="M238.90904,179.6925c0.00005,0.04163 -0.03368,0.07542 -0.07531,0.07547c-0.04163,0.00005 -0.07542,-0.03368 -0.07547,-0.07531c-0.00005,-0.04163 0.03368,-0.07542 0.07531,-0.07547c0.04163,-0.00005 0.07542,0.03368 0.07547,0.07531z" fill="#b8915e" stroke="none" stroke-width="0.15" stroke-linecap="butt"></path><path d="M238.87652,180.08365c0.04163,-0.00005 0.07542,0.03368 0.07547,0.07531c0.00005,0.04163 -0.03368,0.07542 -0.07531,0.07547c-0.04165,0.00004 -0.07544,-0.03368 -0.07549,-0.07531c-0.00005,-0.04164 0.03368,-0.07544 0.07531,-0.07549z" fill="#b8915e" stroke="none" stroke-width="0.15" stroke-linecap="butt"></path><path d="M238.97364,180.5618c0.00005,0.04163 -0.03368,0.07542 -0.07531,0.07547c-0.04163,0.00005 -0.07542,-0.03368 -0.07547,-0.07531c-0.00005,-0.04163 0.03368,-0.07542 0.07531,-0.07547c0.04163,-0.00005 0.07542,0.03368 0.07547,0.07531z" fill="#b8915e" stroke="none" stroke-width="0.15" stroke-linecap="butt"></path></g></g></svg>