<svg version="1.1" xmlns="http://www.w3.org/2000/svg" xmlns:xlink="http://www.w3.org/1999/xlink" width="114.5" height="86.59129" viewBox="0,0,114.5,86.59129"><g transform="translate(-182.75,-136.89072)"><g data-paper-data="{&quot;isPaintingLayer&quot;:true}" fill-rule="nonzero" stroke-linecap="butt" stroke-linejoin="miter" stroke-miterlimit="10" stroke-dasharray="" stroke-dashoffset="0" style="mix-blend-mode: normal"><path d="M183,223.23201v-86.09129h114v86.09129z" fill="#000000" stroke="#000000" stroke-width="0.5"></path><text transform="translate(211.54378,166.21295) scale(0.38688,0.38688)" font-size="40" xml:space="preserve" fill="#ffde00" fill-rule="nonzero" stroke="none" stroke-width="1" stroke-linecap="butt" stroke-linejoin="miter" stroke-miterlimit="10" stroke-dasharray="" stroke-dashoffset="0" font-family="Curly" font-weight="normal" text-anchor="start" style="mix-blend-mode: normal"><tspan x="0" dy="0">You win!</tspan></text><text transform="translate(198.16505,171.16748) scale(0.11826,0.11826)" font-size="40" xml:space="preserve" fill="#ffffff" fill-rule="nonzero" stroke="none" stroke-width="1" stroke-linecap="butt" stroke-linejoin="miter" stroke-miterlimit="10" stroke-dasharray="" stroke-dashoffset="0" font-family="Serif" font-weight="normal" text-anchor="start" style="mix-blend-mode: normal"><tspan x="0" dy="0">You beat the game! Press space to play floor 2!</tspan><tspan x="0" dy="46.150000000000006px">You also got 50 knobs lol</tspan></text><text transform="translate(199.95018,185.14664) scale(0.10825,0.10825)" font-size="40" xml:space="preserve" fill="#00ffff" fill-rule="nonzero" stroke="none" stroke-width="1" stroke-linecap="butt" stroke-linejoin="miter" stroke-miterlimit="10" stroke-dasharray="" stroke-dashoffset="0" font-family="Sans Serif" font-weight="normal" text-anchor="start" style="mix-blend-mode: normal"><tspan x="0" dy="0">Credits:</tspan><tspan x="0" dy="46.150000000000006px">xAmt8-Game, new entities item assets and</tspan><tspan x="0" dy="46.150000000000006px">everything built in this game.</tspan><tspan x="0" dy="46.150000000000006px">LSPLASH- Basically almost the whole game</tspan><tspan x="0" dy="46.150000000000006px">based on this idea and music.</tspan><tspan x="0" dy="46.150000000000006px">Rafty&amp;Mustache Dog: Friend support :)</tspan><tspan x="0" dy="46.150000000000006px"> </tspan></text><text transform="translate(189.41574,218.04957) scale(0.11826,0.11826)" font-size="40" xml:space="preserve" fill="#49b75a" fill-rule="nonzero" stroke="none" stroke-width="1" stroke-linecap="butt" stroke-linejoin="miter" stroke-miterlimit="10" stroke-dasharray="" stroke-dashoffset="0" font-family="Curly" font-weight="normal" text-anchor="start" style="mix-blend-mode: normal"><tspan x="0" dy="0">Your Time:</tspan></text><g fill="#c3f2f1" stroke="#ffffff" stroke-width="0"><path d="M217.16587,156.58904v-12.462l4.52351,-1.56536l8.27846,0.0834l1.96902,2.17941l1.64884,0.88355l-3.98139,-0.25017l-7.91732,0.05839l-1.09121,4.10212l1.97049,0.90519l7.4606,-1.22248l-0.46296,-3.66787c0,0 0.18921,-0.92652 0.53979,-0.92373c0.70169,0.00558 3.40807,0.95514 3.40807,0.95514l-0.81326,7.02443l-2.36392,-0.43417l1.1386,-0.95938l-0.92832,-0.68622l-1.88098,0.62264l1.61981,1.00916l2.40469,0.35491l-0.46457,4.49224l-3.53454,-0.90826l0.42793,-1.37714l-3.57138,-2.47296l-5.25393,0.26965l-0.11692,2.74512l1.32069,0.68779l7.19913,0.045l3.52261,0.97662l-2.82261,1.17619l-9.98992,-0.05866z"></path><path d="M200.37285,158.63504l0.81444,-14.68135l9.13698,-1.12865l4.02273,2.6103l-4.31192,1.66363l-2.68189,-1.2364l-2.76843,0.02982l-0.35572,8.74366l5.35262,-1.07591l0.153,-6.53919c0,0 1.01023,-1.40241 1.82745,-1.66546c0.74321,-0.23922 2.875,0.15183 2.875,0.15183l-0.50516,9.53597c0,0 -2.84665,1.87264 -5.15116,2.45678c-2.41373,0.61183 -8.40792,1.13498 -8.40792,1.13498z"></path><path d="M235.57598,156.96104l1.22166,-11.24035l3.30185,-2.78702l8.27846,0.0834l2.78346,1.36497l0.83441,1.69799l-3.9814,-0.25017l-7.91732,0.05839l-1.09121,4.10212l1.97049,0.90519l7.4606,-1.22248l-0.46296,-3.66787c0,0 0.86736,-1.10514 1.53478,-1.09983c0.64796,0.00515 2.41307,1.13124 2.41307,1.13124l-0.81326,7.02443l-2.36393,-0.43417l1.1386,-0.95938l-0.92832,-0.68622l-1.88098,0.62264l1.61981,1.00916l2.40469,0.35491l-0.46457,4.49224l-3.53454,-0.90826l0.42794,-1.37714l-3.57138,-2.47297l-5.25393,0.26965l-0.11692,2.74512l1.32069,0.68779l7.19913,0.045l3.52261,0.97662l-2.82261,1.17619l-9.98992,-0.05866z"></path><path d="M253.61292,158.26304l-0.49757,-14.508l7.15208,-1.09071l5.1628,2.7647c0,0 -2.33031,1.21444 -3.24519,1.3551c-0.62861,0.09665 -1.71516,-0.59241 -1.71516,-0.59241l-3.18006,-0.13721l-0.36723,2.9825l2.1191,-0.09525l1.45115,-2.61723l5.04843,-0.86848l-3.46964,5.36698l3.64079,4.70778l-2.27572,2.57998l-5.16916,-4.11787l-1.19722,2.94564z"></path><path d="M274.75968,158.44904l-6.5753,-5.10173l-0.75787,-3.75459l7.6073,3.086l0.03454,-1.33857l-8.00394,-4.61832l0.85367,-3.43179l9.57824,-1.302l1.1237,2.60365l-6.4419,1.23657l7.47431,3.39781l0.33175,9.22297z"></path></g></g></g></svg>