<svg version="1.1" xmlns="http://www.w3.org/2000/svg" xmlns:xlink="http://www.w3.org/1999/xlink" width="73.95041" height="110.49489" viewBox="0,0,73.95041,110.49489"><g transform="translate(-196.35757,-117.94799)"><g data-paper-data="{&quot;isPaintingLayer&quot;:true}" fill-rule="nonzero" stroke-linejoin="miter" stroke-miterlimit="10" stroke-dasharray="" stroke-dashoffset="0" style="mix-blend-mode: normal"><text transform="translate(231.57522,209.53136) rotate(-180) scale(0.09454,-0.09453)" font-size="40" xml:space="preserve" fill="#684700" fill-rule="nonzero" stroke="none" stroke-width="1" stroke-linecap="butt" stroke-linejoin="miter" stroke-miterlimit="10" stroke-dasharray="" stroke-dashoffset="0" font-family="Impact" font-weight="normal" text-anchor="start" style="mix-blend-mode: normal"><tspan x="0" dy="0">xAmt8</tspan></text><path d="M198.15671,227.91043c0,0 0,-92.70619 0,-101.22948c0,-1.23206 -0.30367,-4.83484 -0.30367,-4.83484l22.47217,2.71961v103.34471z" fill="#684700" stroke="#000000" stroke-width="0.5" stroke-linecap="butt"></path><path d="M207.40728,228.19288v-99.60634h61.34293v99.60634z" fill="#906200" stroke="#001701" stroke-width="0.5" stroke-linecap="butt"></path><path d="M208.79773,148.54728l13.98266,-9.53363l34.32105,0.63557l11.59925,8.89806z" fill="#a0844f" stroke="none" stroke-width="NaN" stroke-linecap="butt"></path><path d="M261.03004,167.16522l-0.19557,-8.21358" fill="none" stroke="#000000" stroke-width="0.25" stroke-linecap="round"></path><path d="M206.40546,129.13438l-9.41401,-8.1993l58.30615,-2.73309l14.27286,10.9324z" fill="#906200" stroke="#000000" stroke-width="0.5" stroke-linecap="butt"></path><g stroke="none" stroke-width="0" stroke-linecap="butt"><path d="M207.60316,158.70317v-1.46412h60.52829v1.46412z" fill="#ab8d55"></path><path d="M207.98347,149.87411v-1.46412h60.09047v1.46412z" fill="#ab8d55"></path><path d="M210.28517,157.43826v-7.93704h55.33711v7.93704z" fill="#805300"></path><path d="M207.38557,158.58807l0.32967,-10.05989l2.6371,0.87824v8.22355z" data-paper-data="{&quot;index&quot;:null}" fill="#563a00"></path><path d="M265.5447,157.76299v-8.18775l2.6371,-0.87441l0.32967,10.01608z" data-paper-data="{&quot;index&quot;:null}" fill="#563a00"></path></g><g stroke="none" stroke-width="0" stroke-linecap="butt"><path d="M207.85739,185.9058v-1.46412h60.5283v1.46412z" fill="#ab8d55"></path><path d="M208.23771,177.07674v-1.46412h60.09046v1.46412z" fill="#ab8d55"></path><path d="M210.53938,184.64087v-7.93704h55.33711v7.93704z" fill="#805300"></path><path d="M207.63981,185.79069l0.32967,-10.05989l2.6371,0.87824v8.22356z" data-paper-data="{&quot;index&quot;:null}" fill="#563a00"></path><path d="M265.79894,184.9656v-8.18774l2.63709,-0.87441l0.32968,10.01608z" data-paper-data="{&quot;index&quot;:null}" fill="#563a00"></path></g><g stroke="none" stroke-width="0" stroke-linecap="butt"><path d="M207.34893,212.34572v-1.46412h60.52829v1.46412z" fill="#ab8d55"></path><path d="M207.72925,203.51667v-1.46412h60.09047v1.46412z" fill="#ab8d55"></path><path d="M210.03093,211.0808v-7.93704h55.3371v7.93704z" fill="#805300"></path><path d="M207.13134,212.2306l0.32968,-10.0599l2.6371,0.87824v8.22356z" data-paper-data="{&quot;index&quot;:null}" fill="#563a00"></path><path d="M265.29047,211.40553v-8.18773l2.6371,-0.87442l0.32967,10.0161z" data-paper-data="{&quot;index&quot;:null}" fill="#563a00"></path></g><g stroke-linecap="butt"><path d="M253.12766,147.82811v-16.71868l2.80315,5.99167l-0.10012,5.50847z" fill="#ffffff" stroke="#000000" stroke-width="0"></path><path d="M248.14086,147.66544v-16.59354h5.56872v16.59354z" fill="#c34a4a" stroke="#000000" stroke-width="0.25"></path><text transform="translate(250.00404,135.37698) rotate(89.56684) scale(0.0582,-0.0582)" font-size="40" xml:space="preserve" fill="#000000" fill-rule="nonzero" stroke="none" stroke-width="1" stroke-linecap="butt" stroke-linejoin="miter" stroke-miterlimit="10" stroke-dasharray="" stroke-dashoffset="0" font-family="Monospace" font-weight="normal" text-anchor="start" style="mix-blend-mode: normal"><tspan x="0" dy="0">doors</tspan><tspan x="0" dy="46.150000000000006px">guide</tspan></text></g><path d="M218.95278,146.4801l8.03486,-12.31829l4.13397,2.69645l-8.03487,12.31828z" fill="#60a1fb" stroke="#000000" stroke-width="0.25" stroke-linecap="butt"></path><text transform="translate(226.22274,138.78627) rotate(122.6797) scale(0.05332,-0.05332)" font-size="40" xml:space="preserve" fill="#000000" fill-rule="nonzero" stroke="none" stroke-width="1" stroke-linecap="butt" stroke-linejoin="miter" stroke-miterlimit="10" stroke-dasharray="" stroke-dashoffset="0" font-family="Monospace" font-weight="normal" text-anchor="start" style="mix-blend-mode: normal"><tspan x="0" dy="0">doors</tspan><tspan x="0" dy="46.150000000000006px">guide</tspan></text><path d="M208.41637,175.62279l13.98265,-9.53363l34.32106,0.63557l11.59926,8.89805z" fill="#a0844f" stroke="none" stroke-width="NaN" stroke-linecap="butt"></path><path d="M262.1052,174.8119v-13.73384l2.30269,4.92194l-0.08224,4.52502z" fill="#ffffff" stroke="#000000" stroke-width="0" stroke-linecap="butt"></path><path d="M257.06691,175.62678v-15.04605h5.0494v15.04605z" fill="#ffde00" stroke="#000000" stroke-width="0.25" stroke-linecap="butt"></path><text transform="translate(259.12879,162.19353) rotate(89.5628) scale(0.05504,-0.05504)" font-size="40" xml:space="preserve" fill="#000000" fill-rule="nonzero" stroke="none" stroke-width="1" stroke-linecap="butt" stroke-linejoin="miter" stroke-miterlimit="10" stroke-dasharray="" stroke-dashoffset="0" font-family="Handwriting" font-weight="normal" text-anchor="start" style="mix-blend-mode: normal"><tspan x="0" dy="0">Blinds man</tspan><tspan x="0" dy="46.150000000000006px">autobiography</tspan></text><path d="M251.48411,175.28357v-14.21378l2.38315,5.09394l-0.08512,4.68315z" fill="#ffffff" stroke="#000000" stroke-width="0" stroke-linecap="butt"></path><path d="M246.58168,175.00499v-14.06932h4.7216v14.06932z" fill="#8a61ff" stroke="#000000" stroke-width="0.25" stroke-linecap="butt"></path><text transform="translate(248.63126,164.98977) rotate(89.56432) scale(0.05063,-0.05063)" font-size="40" xml:space="preserve" fill="#000000" fill-rule="nonzero" stroke="none" stroke-width="1" stroke-linecap="butt" stroke-linejoin="miter" stroke-miterlimit="10" stroke-dasharray="" stroke-dashoffset="0" font-family="Monospace" font-weight="normal" text-anchor="start" style="mix-blend-mode: normal"><tspan x="0" dy="0">doors</tspan><tspan x="0" dy="46.150000000000006px">guide</tspan></text><path d="M241.7014,175.39912v-13.77925l2.3103,4.93823l-0.08251,4.53999z" fill="#ffffff" stroke="#000000" stroke-width="0" stroke-linecap="butt"></path><path d="M236.9985,175.57453v-14.06932h4.72161v14.06932z" fill="#ff50f9" stroke="#000000" stroke-width="0.25" stroke-linecap="butt"></path><text transform="translate(238.86652,165.28689) rotate(89.56432) scale(0.05063,-0.05063)" font-size="40" xml:space="preserve" fill="#000000" fill-rule="nonzero" stroke="none" stroke-width="1" stroke-linecap="butt" stroke-linejoin="miter" stroke-miterlimit="10" stroke-dasharray="" stroke-dashoffset="0" font-family="Monospace" font-weight="normal" text-anchor="start" style="mix-blend-mode: normal"><tspan x="0" dy="0">doors</tspan><tspan x="0" dy="46.150000000000006px">guide</tspan></text><path d="M237.30653,161.59807v-2.30293c0,0 0.47356,0.55589 0.71484,0.55589c0.20894,0 0.64986,-0.55589 0.64986,-0.55589v2.30293z" fill="#e60000" stroke="none" stroke-width="0" stroke-linecap="butt"></path><g><path d="M215.04933,168.94365l16.39751,0.95012l-0.31884,5.50294l-16.39751,-0.95012z" fill="#c58e59" stroke="#000000" stroke-width="0.25" stroke-linecap="butt"></path><text transform="translate(227.08593,171.48846) rotate(-177.12915) scale(0.0576,-0.0576)" font-size="40" xml:space="preserve" fill="#000000" fill-rule="nonzero" stroke="none" stroke-width="1" stroke-linecap="butt" stroke-linejoin="miter" stroke-miterlimit="10" stroke-dasharray="" stroke-dashoffset="0" font-family="Monospace" font-weight="normal" text-anchor="start" style="mix-blend-mode: normal"><tspan x="0" dy="0">doors</tspan><tspan x="0" dy="46.150000000000006px">guide</tspan></text><path d="M215.25872,168.86921l2.74264,-2.39884l10.28954,0.58871l3.38097,2.90761z" fill="#ffffff" stroke="none" stroke-width="0" stroke-linecap="butt"></path><path d="M217.52314,167.03117l11.34746,0.82703" fill="none" stroke="#b5b5b5" stroke-width="0.05" stroke-linecap="round"></path><path d="M230.56526,169.06401l-14.0847,-0.73694" fill="none" stroke="#b5b5b5" stroke-width="0.05" stroke-linecap="round"></path></g><path d="M208.54349,201.80849l13.98265,-9.53362l34.32106,0.63557l11.59925,8.89806z" fill="#a0844f" stroke="none" stroke-width="NaN" stroke-linecap="butt"></path><path d="M241.70275,195.06193l19.15349,-0.1294l0.04344,6.42782l-19.15349,0.12942z" fill="#00ffff" stroke="#000000" stroke-width="0.25" stroke-linecap="butt"></path><text transform="translate(255.7744,198.00656) rotate(179.17247) scale(0.06716,-0.06716)" font-size="40" xml:space="preserve" fill="#000000" fill-rule="nonzero" stroke="none" stroke-width="1" stroke-linecap="butt" stroke-linejoin="miter" stroke-miterlimit="10" stroke-dasharray="" stroke-dashoffset="0" font-family="Monospace" font-weight="normal" text-anchor="start" style="mix-blend-mode: normal"><tspan x="0" dy="0">MR BEE</tspan><tspan x="0" dy="46.150000000000006px">LORE</tspan></text><path d="M241.68656,195.08664l3.01095,-2.99813l12.01837,-0.08993l4.15345,3.12896z" fill="#ffffff" stroke="none" stroke-width="0" stroke-linecap="butt"></path><path d="M228.74959,198.29395l12.73342,-11.90519l3.99533,4.27328l-12.73342,11.90519z" fill="#c34a4a" stroke="#000000" stroke-width="0.25" stroke-linecap="butt"></path><text transform="translate(239.20896,190.64699) rotate(133.58826) scale(0.06716,-0.06716)" font-size="40" xml:space="preserve" fill="#000000" fill-rule="nonzero" stroke="none" stroke-width="1" stroke-linecap="butt" stroke-linejoin="miter" stroke-miterlimit="10" stroke-dasharray="" stroke-dashoffset="0" font-family="Monospace" font-weight="normal" text-anchor="start" style="mix-blend-mode: normal"><tspan x="0" dy="0">doors</tspan><tspan x="0" dy="46.150000000000006px">guide</tspan></text><path d="M216.7061,201.92835l-5.02268,-13.97611l4.14334,4.16665l1.57118,4.63492z" fill="#ffffff" stroke="#000000" stroke-width="0" stroke-linecap="butt"></path><path d="M212.19497,203.58398l-4.98508,-13.87151l4.65521,-1.67297l4.98509,13.8715z" fill="#0035c5" stroke="#000000" stroke-width="0.25" stroke-linecap="butt"></path><text transform="translate(209.66951,191.87119) rotate(69.79293) scale(0.05169,-0.05169)" font-size="40" xml:space="preserve" fill="#ffffff" fill-rule="nonzero" stroke="none" stroke-width="1" stroke-linecap="butt" stroke-linejoin="miter" stroke-miterlimit="10" stroke-dasharray="" stroke-dashoffset="0" font-family="Sans Serif" font-weight="normal" text-anchor="start" style="mix-blend-mode: normal"><tspan x="0" dy="0">"vending</tspan><tspan x="0" dy="46.150000000000006px">machine"</tspan></text><path d="M256.58597,192.01301l0.54478,-6.53735" fill="none" stroke="#000000" stroke-width="0.25" stroke-linecap="round"></path><path d="M257.03995,129.36345l-0.0908,10.26" fill="none" stroke="#000000" stroke-width="0.25" stroke-linecap="round"></path><path d="M244.59279,148.1005v-16.71869l2.80314,5.99167l-0.10012,5.50846z" fill="#ffffff" stroke="#000000" stroke-width="0" stroke-linecap="butt"></path><path d="M239.60599,147.93781v-16.59353h5.56872v16.59353z" fill="#ffad00" stroke="#000000" stroke-width="0.25" stroke-linecap="butt"></path><text transform="translate(241.46918,135.64938) rotate(89.56684) scale(0.0582,-0.0582)" font-size="40" xml:space="preserve" fill="#000000" fill-rule="nonzero" stroke="none" stroke-width="1" stroke-linecap="butt" stroke-linejoin="miter" stroke-miterlimit="10" stroke-dasharray="" stroke-dashoffset="0" font-family="Monospace" font-weight="normal" text-anchor="start" style="mix-blend-mode: normal"><tspan x="0" dy="0">doors</tspan><tspan x="0" dy="46.150000000000006px">guide</tspan></text><path d="M236.14873,148.28208v-16.71869l2.80314,5.99167l-0.10012,5.50846z" fill="#ffffff" stroke="#000000" stroke-width="0" stroke-linecap="butt"></path><path d="M231.16192,148.11941v-16.59354h5.56871v16.59354z" fill="#00b118" stroke="#000000" stroke-width="0.25" stroke-linecap="butt"></path><text transform="translate(233.02511,135.83097) rotate(89.56684) scale(0.0582,-0.0582)" font-size="40" xml:space="preserve" fill="#000000" fill-rule="nonzero" stroke="none" stroke-width="1" stroke-linecap="butt" stroke-linejoin="miter" stroke-miterlimit="10" stroke-dasharray="" stroke-dashoffset="0" font-family="Monospace" font-weight="normal" text-anchor="start" style="mix-blend-mode: normal"><tspan x="0" dy="0">doors</tspan><tspan x="0" dy="46.150000000000006px">guide</tspan></text><path d="M231.25375,146.79638v-1.27115h5.53859v1.27115z" fill="#da7f00" stroke="none" stroke-width="0" stroke-linecap="butt"></path><path d="M222.42619,192.52468l0.12712,-7.11844" fill="none" stroke="#000000" stroke-width="0.25" stroke-linecap="round"></path><path d="M220.39234,158.45783v7.62691" fill="none" stroke="#000000" stroke-width="0.25" stroke-linecap="round"></path><path d="M222.9933,139.10214v-9.68029" fill="none" stroke="#000000" stroke-width="0.25" stroke-linecap="round"></path><g stroke="#000000"><path d="M214.89704,168.2749v-30.80797h41.71912v30.80797z" fill="#ffebb0" stroke-width="0.5" stroke-linecap="butt"></path><path d="M216.53728,164.3297v-27.7033c0,0 2.23757,-4.1515 3.28047,-4.1515c2.83703,0 14.83347,5.42971 14.83347,5.42971l-0.14263,29.65713c0,0 -4.99636,-4.38636 -7.76033,-4.38636c-3.1705,0 -10.21097,1.1543 -10.21097,1.1543z" fill="#fff8e3" stroke-width="0.5" stroke-linecap="butt"></path><path d="M242.11659,163.75563c-2.76398,0 -7.76033,4.38636 -7.76033,4.38636l-0.14263,-29.65713c0,0 11.99644,-5.42971 14.83347,-5.42971c1.04291,0 3.28047,4.1515 3.28047,4.1515v27.7033c0,0 -7.04048,-1.1543 -10.21097,-1.1543z" data-paper-data="{&quot;index&quot;:null}" fill="#fff8e3" stroke-width="0.5" stroke-linecap="butt"></path><path d="M228.80342,140.53347l-6.56095,-0.42789" fill="#ffebb0" stroke-width="0.5" stroke-linecap="round"></path><path d="M222.38509,144.38447l6.84622,0.14263" fill="#ffebb0" stroke-width="0.5" stroke-linecap="round"></path><path d="M222.67035,148.09284l5.70518,0.14263" fill="#ffebb0" stroke-width="0.5" stroke-linecap="round"></path><path d="M231.22812,153.51276l-9.98406,0.14263" fill="#ffebb0" stroke-width="0" stroke-linecap="round"></path><path d="M240.64166,140.53347h4.8494" fill="#ffebb0" stroke-width="0.5" stroke-linecap="round"></path><path d="M240.49903,145.38287l5.70518,-0.57052" fill="#ffebb0" stroke-width="0.5" stroke-linecap="round"></path><path d="M238.78748,148.80597h5.27729" fill="#ffebb0" stroke-width="0.5" stroke-linecap="round"></path><path d="M243.63688,152.65698l-6.13307,0.14263" fill="#ffebb0" stroke-width="0" stroke-linecap="round"></path></g><text transform="translate(200.92773,189.66473) scale(0.30672,0.30672)" font-size="40" xml:space="preserve" fill="#ffffff" fill-rule="nonzero" stroke="none" stroke-width="1" stroke-linecap="butt" stroke-linejoin="miter" stroke-miterlimit="10" stroke-dasharray="" stroke-dashoffset="0" font-family="Sans Serif" font-weight="normal" text-anchor="start" style="mix-blend-mode: normal"><tspan x="0" dy="0">Searching...</tspan><tspan x="0" dy="46.15px">Hold down </tspan><tspan x="0" dy="46.15px">E</tspan></text><path d="M210.42773,176.90449v-8h50.2v8z" fill="#4fc58e" stroke="none" stroke-width="none" stroke-linecap="butt"></path><text transform="translate(179.82773,130.90449) scale(0.5,0.5)" font-size="40" xml:space="preserve" fill="#ffffff" fill-rule="nonzero" stroke="none" stroke-width="1" stroke-linecap="butt" stroke-linejoin="miter" stroke-miterlimit="10" stroke-dasharray="" stroke-dashoffset="0" font-family="Sans Serif" font-weight="normal" text-anchor="start" style="mix-blend-mode: normal"><tspan x="0" dy="0"> </tspan></text></g></g></svg>