<svg version="1.1" xmlns="http://www.w3.org/2000/svg" xmlns:xlink="http://www.w3.org/1999/xlink" width="76.00895" height="169.24218" viewBox="0,0,76.00895,169.24218"><g transform="translate(-201.99553,-95.37891)"><g data-paper-data="{&quot;isPaintingLayer&quot;:true}" fill-rule="nonzero" stroke-linejoin="miter" stroke-miterlimit="10" stroke-dasharray="" stroke-dashoffset="0" style="mix-blend-mode: normal"><g><path d="M241.84915,97.7946c11.22524,0 20.32511,9.01481 20.32511,20.13517c0,11.12036 -9.09987,20.13516 -20.32511,20.13516c-11.22524,0 -20.32512,-9.01481 -20.32512,-20.13516c0,-11.12036 9.09988,-20.13516 20.32512,-20.13516z" data-paper-data="{&quot;index&quot;:null}" fill="#f1ad60" stroke="none" stroke-width="0" stroke-linecap="butt"></path><path d="M220.76894,216.79918v-81.30048h38.7507v81.30048z" data-paper-data="{&quot;index&quot;:null}" fill="#ff6666" stroke="none" stroke-width="0" stroke-linecap="butt"></path><path d="M242.79892,256.64302v-40.65024h11.77717v40.65024z" data-paper-data="{&quot;index&quot;:null}" fill="#66a6ff" stroke="none" stroke-width="0" stroke-linecap="butt"></path><path d="M223.80348,257.78279v-40.65023h11.77717v40.65023z" data-paper-data="{&quot;index&quot;:null}" fill="#66a6ff" stroke="none" stroke-width="0" stroke-linecap="butt"></path><path d="M242.79892,264.62109v-10.63744c0,0 3.5922,-8.35799 5.69863,-8.35799c1.8045,0 4.93589,5.74394 8.0874,7.75734c3.38171,2.16044 6.72903,0.60065 6.72903,0.60065v10.63744z" data-paper-data="{&quot;index&quot;:null}" fill="#a06140" stroke="none" stroke-width="0" stroke-linecap="butt"></path><path d="M216.58522,264.24123v-10.63744c0,0 3.34733,1.55979 6.72901,-0.60065c3.15154,-2.0134 6.2829,-7.75735 8.08743,-7.75735c2.10643,0 5.69863,8.358 5.69863,8.358v10.63744z" data-paper-data="{&quot;index&quot;:null}" fill="#a06140" stroke="none" stroke-width="0" stroke-linecap="butt"></path><path d="M266.69716,208.69842l-8.29316,-50.62004l1.52687,-19.13092c0,0 7.1283,19.5728 9.19312,29.83997c2.09224,10.40345 3.27904,32.17733 3.27904,32.17733z" data-paper-data="{&quot;index&quot;:null}" fill="#f1ad60" stroke="none" stroke-width="0" stroke-linecap="butt"></path><path d="M208.25601,206.28348c0,0 1.1868,-21.77388 3.27904,-32.17733c2.06479,-10.2672 9.19309,-29.84001 9.19309,-29.84001l1.5269,19.13096l-8.29314,50.62005z" data-paper-data="{&quot;index&quot;:null}" fill="#f1ad60" stroke="none" stroke-width="0" stroke-linecap="butt"></path><path d="M258.75509,142.2905c1.88836,0 3.41918,4.6775 3.41918,10.44749c0,5.76999 -1.53082,10.44749 -3.41918,10.44749c-1.88836,0 -3.41917,-4.67749 -3.41917,-10.44749c0,-5.76999 1.53081,-10.44749 3.41917,-10.44749z" data-paper-data="{&quot;index&quot;:null}" fill="#da5757" stroke="none" stroke-width="0" stroke-linecap="butt"></path><path d="M221.52403,145.7097c1.88836,0 3.41918,4.6775 3.41918,10.44749c0,5.76999 -1.53082,10.44749 -3.41918,10.44749c-1.88836,0 -3.41918,-4.67749 -3.41918,-10.44749c0,-5.76999 1.53082,-10.44749 3.41918,-10.44749z" data-paper-data="{&quot;index&quot;:null}" fill="#da5757" stroke="none" stroke-width="0" stroke-linecap="butt"></path><path d="M257.07382,104.35118c-0.74675,1.12468 0.18695,3.47246 -0.59792,3.47246c-1.62048,0 0.73355,7.36629 -4.34392,6.63749c-1.10903,-0.15919 -8.88941,-2.94187 -9.97383,-2.98825c-2.41972,-0.1035 -5.48921,6.26668 -7.72234,6.37826c-3.44389,0.17208 -10.81753,3.53253 -12.89389,0.43576c-1.78844,-2.66737 1.47162,-11.84601 1.47162,-11.84601l0.27654,-7.46682c0,0 13.3117,-3.59515 19.63496,-3.59515c5.90895,0 17.14602,3.59515 17.14602,3.59515c0,0 -2.48892,6.38505 -2.48892,7.19028c0,0.75918 -0.27657,-2.7655 -0.27657,-2.7655c0,0 0.38647,0.02128 -0.23175,0.95233z" data-paper-data="{&quot;index&quot;:null}" fill="#000000" stroke="none" stroke-width="0" stroke-linecap="butt"></path><path d="M247.78855,101.39024c3.79028,0.89589 6.70627,2.28486 6.51304,3.10237c-0.19324,0.8175 -3.42249,0.75398 -7.21276,-0.14191c-3.79028,-0.89589 -6.70627,-2.28486 -6.51304,-3.10236c0.19324,-0.8175 3.42249,-0.75398 7.21276,0.1419z" data-paper-data="{&quot;index&quot;:null}" fill="#484343" stroke="none" stroke-width="0" stroke-linecap="butt"></path><path d="M252.55483,226.36752l0.55308,-3.87169" data-paper-data="{&quot;index&quot;:null}" fill="none" stroke="#0035ea" stroke-width="0.05" stroke-linecap="round"></path><path d="M247.85351,233.55776l0.55308,5.53099" data-paper-data="{&quot;index&quot;:null}" fill="none" stroke="#0035ea" stroke-width="0.05" stroke-linecap="round"></path><path d="M252.27828,237.706l-0.55309,6.36061" data-paper-data="{&quot;index&quot;:null}" fill="none" stroke="#0035ea" stroke-width="0.05" stroke-linecap="round"></path><path d="M230.15437,230.79228v7.46681l-0.27654,3.87167" data-paper-data="{&quot;index&quot;:null}" fill="none" stroke="#0035ea" stroke-width="0.05" stroke-linecap="round"></path><path d="M228.49511,227.4737l-0.82966,-8.29645" data-paper-data="{&quot;index&quot;:null}" fill="none" stroke="#0035ea" stroke-width="0.05" stroke-linecap="round"></path><path d="M232.36678,221.66616v6.08407" data-paper-data="{&quot;index&quot;:null}" fill="none" stroke="#0035ea" stroke-width="0.05" stroke-linecap="round"></path><path d="M226.00616,242.68387l0.55309,-4.42479" data-paper-data="{&quot;index&quot;:null}" fill="none" stroke="#0035ea" stroke-width="0.05" stroke-linecap="round"></path><path d="M247.57695,224.15512l0.27655,-5.25444" data-paper-data="{&quot;index&quot;:null}" fill="none" stroke="#0035ea" stroke-width="0.05" stroke-linecap="round"></path><path d="M250.61899,250.70377l-2.76549,-0.82966" data-paper-data="{&quot;index&quot;:null}" fill="none" stroke="#000000" stroke-width="0.1" stroke-linecap="round"></path><path d="M248.40659,254.29893l-2.48895,-1.10621" data-paper-data="{&quot;index&quot;:null}" fill="none" stroke="#000000" stroke-width="0.1" stroke-linecap="round"></path><path d="M232.09024,252.3631l-2.2124,3.31857" data-paper-data="{&quot;index&quot;:null}" fill="none" stroke="#000000" stroke-width="0.1" stroke-linecap="round"></path><path d="M229.87783,251.80997l-3.04204,3.04203" data-paper-data="{&quot;index&quot;:null}" fill="none" stroke="#000000" stroke-width="0.1" stroke-linecap="round"></path><path d="M262.44166,170.50109l-5.94745,-14.59823l5.80878,-8.34817l7.05363,20.12921z" data-paper-data="{&quot;index&quot;:null}" fill="#da5757" stroke="none" stroke-width="0" stroke-linecap="butt"></path><path d="M211.43062,173.75417l7.05363,-20.1292l5.80877,8.34817l-5.94745,14.59822z" data-paper-data="{&quot;index&quot;:null}" fill="#da5757" stroke="none" stroke-width="0" stroke-linecap="butt"></path><path d="M271.18893,209.42368c0,0 -0.64123,1.86328 -1.13855,1.93589c-0.60843,0.08881 -2.24635,-1.44177 -2.24635,-1.44177l-1.91523,-7.35844l2.73313,-0.71137l2.56693,7.57569z" data-paper-data="{&quot;index&quot;:null}" fill="#f1ad60" stroke="none" stroke-width="0" stroke-linecap="butt"></path><path d="M274.2412,206.58862c0,0 -0.64123,1.86326 -1.13854,1.93587c-0.60843,0.08884 -2.24635,-1.44174 -2.24635,-1.44174l-1.91523,-7.35846l2.73316,-0.71138l2.56694,7.57572z" data-paper-data="{&quot;index&quot;:null}" fill="#f1ad60" stroke="none" stroke-width="0" stroke-linecap="butt"></path><path d="M277.90298,204.82171c-0.42307,0.44617 -2.65681,0.25691 -2.65681,0.25691l-6.05696,-4.59653l1.70728,-2.24973l6.70342,4.36403c0,0 0.64891,1.86061 0.30307,2.22532z" data-paper-data="{&quot;index&quot;:null}" fill="#f1ad60" stroke="none" stroke-width="0" stroke-linecap="butt"></path><path d="M264.73671,210.74951c0,0 -1.76171,0.88285 -2.16785,0.58679c-0.49689,-0.36216 -0.59652,-2.60171 -0.59652,-2.60171l3.77927,-6.59786l2.45065,1.40372l-3.46559,7.20906z" data-paper-data="{&quot;index&quot;:null}" fill="#f1ad60" stroke="none" stroke-width="0" stroke-linecap="butt"></path><path d="M261.59833,206.94224c0,0 -1.94346,-0.32532 -2.09704,-0.80389c-0.18792,-0.58545 1.05177,-2.45327 1.05177,-2.45327l6.94212,-3.10185l1.15213,2.57852l-7.04901,3.78048z" data-paper-data="{&quot;index&quot;:null}" fill="#f1ad60" stroke="none" stroke-width="0" stroke-linecap="butt"></path><path d="M208.8111,217.23366l2.56694,-7.57568l2.73313,0.71137l-1.9152,7.35844c0,0 -1.63792,1.53057 -2.24633,1.44177c-0.49732,-0.07261 -1.13854,-1.93589 -1.13854,-1.93589z" data-paper-data="{&quot;index&quot;:null}" fill="#f1ad60" stroke="none" stroke-width="0" stroke-linecap="butt"></path><path d="M207.9836,216.11725c-0.49734,-0.07261 -1.13854,-1.93589 -1.13854,-1.93589l2.56694,-7.57568l2.73313,0.71138l-1.91523,7.35843c0,0 -1.6379,1.53057 -2.24633,1.44177z" data-paper-data="{&quot;index&quot;:null}" fill="#f1ad60" stroke="none" stroke-width="0" stroke-linecap="butt"></path><path d="M202.40009,210.40637l6.70342,-4.36403l1.70728,2.24973l-6.05696,4.59653c0,0 -2.23374,0.18929 -2.65681,-0.25691c-0.34584,-0.36471 0.30308,-2.22532 0.30308,-2.22532z" data-paper-data="{&quot;index&quot;:null}" fill="#f1ad60" stroke="none" stroke-width="0" stroke-linecap="butt"></path><path d="M217.43111,219.14628c-0.40614,0.29605 -2.16782,-0.58679 -2.16782,-0.58679l-3.46556,-7.20902l2.45065,-1.40375l3.77928,6.59786c0,0 -0.09963,2.23955 -0.59652,2.60171z" data-paper-data="{&quot;index&quot;:null}" fill="#f1ad60" stroke="none" stroke-width="0" stroke-linecap="butt"></path><path d="M220.49873,213.94834c-0.15357,0.47857 -2.09704,0.80389 -2.09704,0.80389l-7.04898,-3.78048l1.15213,-2.57852l6.94215,3.10188c0,0 1.23966,1.86778 1.05177,2.45324z" data-paper-data="{&quot;index&quot;:null}" fill="#f1ad60" stroke="none" stroke-width="0" stroke-linecap="butt"></path><path d="M230.9638,108.09215c3.70003,-1.21596 6.91212,-1.55476 7.17438,-0.75672c0.26226,0.79804 -2.52458,2.43072 -6.22461,3.64668c-3.70003,1.21596 -6.91212,1.55476 -7.17438,0.75672c-0.26226,-0.79804 2.52458,-2.43072 6.22461,-3.64668z" data-paper-data="{&quot;index&quot;:null}" fill="#484343" stroke="none" stroke-width="0" stroke-linecap="butt"></path><path d="M258.04622,136.05859l-19,28.66667l-16,-29.33333" fill="none" stroke="#da5757" stroke-width="0.5" stroke-linecap="round"></path><path d="M221.71288,215.39194l17.33333,-21l19.33333,22.33333" fill="none" stroke="#da5757" stroke-width="0.5" stroke-linecap="round"></path></g></g></g></svg>