<svg version="1.1" xmlns="http://www.w3.org/2000/svg" xmlns:xlink="http://www.w3.org/1999/xlink" width="90.73025" height="119.03839" viewBox="0,0,90.73025,119.03839"><g transform="translate(-179.57773,-109.40449)"><g data-paper-data="{&quot;isPaintingLayer&quot;:true}" fill-rule="nonzero" stroke-linejoin="miter" stroke-miterlimit="10" stroke-dasharray="" stroke-dashoffset="0" style="mix-blend-mode: normal"><text transform="translate(231.57522,209.53136) rotate(-180) scale(0.09454,-0.09453)" font-size="40" xml:space="preserve" fill="#684700" fill-rule="nonzero" stroke="none" stroke-width="1" stroke-linecap="butt" stroke-linejoin="miter" stroke-miterlimit="10" stroke-dasharray="" stroke-dashoffset="0" font-family="Impact" font-weight="normal" text-anchor="start" style="mix-blend-mode: normal"><tspan x="0" dy="0">xAmt8</tspan></text><path d="M198.15671,227.91043c0,0 0,-92.70619 0,-101.22948c0,-1.23206 -0.30367,-4.83484 -0.30367,-4.83484l22.47217,2.71961v103.34471z" fill="#684700" stroke="#000000" stroke-width="0.5" stroke-linecap="butt"></path><path d="M207.40728,228.19288v-99.60634h61.34293v99.60634z" fill="#906200" stroke="#001701" stroke-width="0.5" stroke-linecap="butt"></path><path d="M208.79773,148.54728l13.98266,-9.53363l34.32105,0.63557l11.59925,8.89806z" fill="#a0844f" stroke="none" stroke-width="NaN" stroke-linecap="butt"></path><path d="M260.83447,158.95164l0.19557,8.21358" fill="none" stroke="#000000" stroke-width="0.25" stroke-linecap="round"></path><path d="M206.40546,129.13438l-9.41401,-8.1993l58.30615,-2.73309l14.27286,10.9324z" fill="#906200" stroke="#000000" stroke-width="0.5" stroke-linecap="butt"></path><g stroke="none" stroke-width="0" stroke-linecap="butt"><path d="M207.60316,158.70317v-1.46412h60.52829v1.46412z" fill="#ab8d55"></path><path d="M207.98347,149.87411v-1.46412h60.09047v1.46412z" fill="#ab8d55"></path><path d="M210.28517,157.43826v-7.93704h55.33711v7.93704z" fill="#805300"></path><path d="M207.38557,158.58807l0.32967,-10.05989l2.6371,0.87824v8.22355z" data-paper-data="{&quot;index&quot;:null}" fill="#563a00"></path><path d="M265.5447,157.76299v-8.18775l2.6371,-0.87441l0.32967,10.01608z" data-paper-data="{&quot;index&quot;:null}" fill="#563a00"></path></g><g stroke="none" stroke-width="0" stroke-linecap="butt"><path d="M207.85739,185.9058v-1.46412h60.5283v1.46412z" fill="#ab8d55"></path><path d="M208.23771,177.07674v-1.46412h60.09046v1.46412z" fill="#ab8d55"></path><path d="M210.53938,184.64087v-7.93704h55.33711v7.93704z" fill="#805300"></path><path d="M207.63981,185.79069l0.32967,-10.05989l2.6371,0.87824v8.22356z" data-paper-data="{&quot;index&quot;:null}" fill="#563a00"></path><path d="M265.79894,184.9656v-8.18774l2.63709,-0.87441l0.32968,10.01608z" data-paper-data="{&quot;index&quot;:null}" fill="#563a00"></path></g><g stroke="none" stroke-width="0" stroke-linecap="butt"><path d="M207.34893,212.34572v-1.46412h60.52829v1.46412z" fill="#ab8d55"></path><path d="M207.72925,203.51667v-1.46412h60.09047v1.46412z" fill="#ab8d55"></path><path d="M210.03093,211.0808v-7.93704h55.3371v7.93704z" fill="#805300"></path><path d="M207.13134,212.2306l0.32968,-10.0599l2.6371,0.87824v8.22356z" data-paper-data="{&quot;index&quot;:null}" fill="#563a00"></path><path d="M265.29047,211.40553v-8.18773l2.6371,-0.87442l0.32967,10.0161z" data-paper-data="{&quot;index&quot;:null}" fill="#563a00"></path></g><path d="M208.41637,175.62279l13.98265,-9.53363l34.32106,0.63557l11.59926,8.89805z" fill="#a0844f" stroke="none" stroke-width="NaN" stroke-linecap="butt"></path><path d="M208.54349,201.80849l13.98265,-9.53362l34.32106,0.63557l11.59925,8.89806z" fill="#a0844f" stroke="none" stroke-width="NaN" stroke-linecap="butt"></path><path d="M257.13075,185.47566l-0.54478,6.53735" fill="none" stroke="#000000" stroke-width="0.25" stroke-linecap="round"></path><path d="M257.03995,129.36345l-0.0908,10.26" fill="none" stroke="#000000" stroke-width="0.25" stroke-linecap="round"></path><path d="M222.55331,185.40624l-0.12712,7.11844" fill="none" stroke="#000000" stroke-width="0.25" stroke-linecap="round"></path><path d="M220.39234,166.08474v-7.62691" fill="none" stroke="#000000" stroke-width="0.25" stroke-linecap="round"></path><path d="M222.9933,139.10214v-9.68029" fill="none" stroke="#000000" stroke-width="0.25" stroke-linecap="round"></path><text transform="translate(179.82773,130.90449) scale(0.5,0.5)" font-size="40" xml:space="preserve" fill="#ffffff" fill-rule="nonzero" stroke="none" stroke-width="1" stroke-linecap="butt" stroke-linejoin="miter" stroke-miterlimit="10" stroke-dasharray="" stroke-dashoffset="0" font-family="Sans Serif" font-weight="normal" text-anchor="start" style="mix-blend-mode: normal"><tspan x="0" dy="0"> </tspan></text></g></g></svg>