<svg version="1.1" xmlns="http://www.w3.org/2000/svg" xmlns:xlink="http://www.w3.org/1999/xlink" width="29.75" height="30.40746" viewBox="0,0,29.75,30.40746"><defs><radialGradient cx="240" cy="180" r="15.20373" gradientUnits="userSpaceOnUse" id="color-1"><stop offset="0" stop-color="#66edff"></stop><stop offset="1" stop-color="#66edff" stop-opacity="0"></stop></radialGradient><linearGradient x1="240.60877" y1="173.21012" x2="240.60877" y2="187.72352" gradientUnits="userSpaceOnUse" id="color-2"><stop offset="0" stop-color="#af957e"></stop><stop offset="1" stop-color="#ad8764"></stop></linearGradient><linearGradient x1="240.12878" y1="173.37224" x2="240.12878" y2="187.88564" gradientUnits="userSpaceOnUse" id="color-3"><stop offset="0" stop-color="#c9ab91"></stop><stop offset="1" stop-color="#c99d74"></stop></linearGradient><linearGradient x1="233.99422" y1="177.22763" x2="244.3353" y2="177.16295" gradientUnits="userSpaceOnUse" id="color-4"><stop offset="0" stop-color="#c9ab91"></stop><stop offset="1" stop-color="#c99d74"></stop></linearGradient><radialGradient cx="240.24655" cy="180.32873" r="9.24551" gradientUnits="userSpaceOnUse" id="color-5"><stop offset="0" stop-color="#00ffeb" stop-opacity="0.49189"></stop><stop offset="1" stop-color="#00ffeb" stop-opacity="0"></stop></radialGradient></defs><g transform="translate(-225.125,-164.79627)"><g data-paper-data="{&quot;isPaintingLayer&quot;:true}" fill-rule="nonzero" stroke-linejoin="miter" stroke-miterlimit="10" stroke-dasharray="" stroke-dashoffset="0" style="mix-blend-mode: normal"><path d="M254.875,180c0,8.39679 -6.65977,15.20373 -14.875,15.20373c-8.21523,0 -14.875,-6.80694 -14.875,-15.20373c0,-8.39679 6.65977,-15.20373 14.875,-15.20373c8.21523,0 14.875,6.80694 14.875,15.20373z" fill="url(#color-1)" stroke="none" stroke-width="NaN" stroke-linecap="butt"></path><g><text transform="translate(237.89885,176.21064) rotate(71.31964) scale(0.06019,0.06019)" font-size="40" xml:space="preserve" fill="#c99f79" fill-rule="nonzero" stroke="none" stroke-width="1" stroke-linecap="butt" stroke-linejoin="miter" stroke-miterlimit="10" stroke-dasharray="" stroke-dashoffset="0" font-family="Curly" font-weight="normal" text-anchor="start" style="mix-blend-mode: normal"><tspan x="0" dy="0">xAmt8</tspan></text><g><path d="M240.97722,187.47904c0,0 -0.90781,0.04153 -1.06368,-0.48986c-0.03492,-0.11905 0.6972,-0.37965 0.66046,-0.52117c-0.6601,-2.54297 -2.36989,-8.38804 -3.16707,-10.73856c-0.15534,-0.45804 -0.7279,-0.61309 -0.77957,-0.78178c-0.07143,-0.23317 0.30879,-0.65902 0.30879,-0.65902c0,0 0.4987,-0.00233 0.72732,-0.26896c0.08427,-0.09828 0.07689,-0.23551 0.13941,-0.36866c0.09608,-0.20462 0.25267,-0.39958 0.34502,-0.42863c0.15884,-0.04996 0.36343,0.05945 0.57478,0.20222c0.17183,0.11608 0.34378,0.26299 0.53424,0.29326c0.10399,0.01653 0.10833,-0.09512 0.18957,-0.13355c0.20623,-0.09754 0.42036,-0.21751 0.42036,-0.21751c0,0 0.72839,0.07816 0.82138,0.38169c0.01861,0.06075 -0.40671,0.48894 -0.38035,0.58266c0.4548,1.61707 2.27738,8.07189 3.26013,11.01148c0.07257,0.21708 0.9521,0.15701 1.00506,0.33542c0.18373,0.61888 -0.66514,0.87913 -0.66514,0.87913c0,0 -0.16313,0.02341 -0.3815,0.0745c-0.1261,0.02951 -0.30261,0.03583 -0.39428,0.1358c-0.23232,0.25335 -0.18119,0.84094 -0.41614,0.91484c-0.10491,0.033 -0.20428,0.08386 -0.36728,-0.02473c-0.1214,-0.08087 -0.29947,-0.31515 -0.42712,-0.36373c-0.03511,-0.01336 -0.0858,-0.05568 -0.11983,-0.06104c-0.18562,-0.02922 -0.34243,0.15348 -0.48142,0.2068c-0.19787,0.0759 -0.34314,0.03938 -0.34314,0.03938z" fill="url(#color-2)" stroke="#000000" stroke-width="0" stroke-linecap="butt"></path><path d="M240.49723,187.64116c0,0 -0.90781,0.04153 -1.06368,-0.48986c-0.03492,-0.11905 0.6972,-0.37965 0.66046,-0.52117c-0.6601,-2.54297 -2.36988,-8.38804 -3.16707,-10.73856c-0.15534,-0.45804 -0.7279,-0.61309 -0.77957,-0.78178c-0.07143,-0.23317 0.30879,-0.65902 0.30879,-0.65902c0,0 0.4987,-0.00233 0.72732,-0.26896c0.08427,-0.09828 0.07689,-0.23551 0.13941,-0.36866c0.09608,-0.20462 0.25267,-0.39958 0.34502,-0.42863c0.15884,-0.04996 0.36343,0.05945 0.57478,0.20222c0.17183,0.11608 0.34378,0.26299 0.53424,0.29326c0.10399,0.01653 0.10833,-0.09512 0.18957,-0.13355c0.20623,-0.09754 0.42036,-0.21751 0.42036,-0.21751c0,0 0.72839,0.07816 0.82138,0.38169c0.01861,0.06075 -0.40671,0.48894 -0.38035,0.58266c0.4548,1.61707 2.27738,8.07189 3.26013,11.01148c0.07257,0.21708 0.9521,0.15701 1.00506,0.33542c0.18373,0.61888 -0.66514,0.87913 -0.66514,0.87913c0,0 -0.16313,0.02341 -0.3815,0.0745c-0.1261,0.02951 -0.30261,0.03583 -0.39428,0.1358c-0.23232,0.25335 -0.18119,0.84094 -0.41614,0.91484c-0.10491,0.033 -0.20428,0.08386 -0.36728,-0.02473c-0.1214,-0.08087 -0.29947,-0.31515 -0.42712,-0.36373c-0.03511,-0.01336 -0.0858,-0.05568 -0.11983,-0.06104c-0.18562,-0.02922 -0.34243,0.15348 -0.48142,0.2068c-0.19787,0.0759 -0.34314,0.03938 -0.34314,0.03938z" fill="url(#color-3)" stroke="#000000" stroke-width="0" stroke-linecap="butt"></path><path d="M237.1809,175.13407l0.83198,-0.25939" fill="none" stroke="#a75900" stroke-width="0.5" stroke-linecap="round"></path><path d="M237.88488,174.35591l0.54399,-0.16212" fill="none" stroke="#a75900" stroke-width="0.5" stroke-linecap="round"></path><path d="M236.34891,174.87468l0.44799,-0.06485" fill="none" stroke="#a75900" stroke-width="0.5" stroke-linecap="round"></path><path d="M239.70884,175.26377l-0.57599,0.22696" fill="none" stroke="#a75900" stroke-width="0.5" stroke-linecap="round"></path><path d="M237.59689,177.43614l0.38399,-0.06485" fill="none" stroke="#a75900" stroke-width="0.5" stroke-linecap="round"></path><path d="M238.97286,177.2416l0.60799,-0.16212" fill="none" stroke="#a75900" stroke-width="0.5" stroke-linecap="round"></path><path d="M239.10086,179.86791l0.83198,-0.16212" fill="none" stroke="#a75900" stroke-width="0.5" stroke-linecap="round"></path><path d="M240.70082,181.16485l0.224,-0.06485" fill="none" stroke="#a75900" stroke-width="0.5" stroke-linecap="round"></path><path d="M238.78086,178.83036l-0.35199,0.12969" fill="none" stroke="#a75900" stroke-width="0.5" stroke-linecap="round"></path><path d="M240.47683,178.31158l-0.38399,0.06485" fill="none" stroke="#a75900" stroke-width="0.5" stroke-linecap="round"></path><path d="M239.74084,181.16485l-0.54399,0.19454" fill="none" stroke="#a75900" stroke-width="0.5" stroke-linecap="round"></path><path d="M240.92482,183.17511l-1.24797,0.19454" fill="none" stroke="#a75900" stroke-width="0.5" stroke-linecap="round"></path><path d="M241.37281,182.16998l-0.44799,0.16212" fill="none" stroke="#a75900" stroke-width="0.5" stroke-linecap="round"></path><path d="M239.54885,182.72118h0.41599" fill="none" stroke="#a75900" stroke-width="0.5" stroke-linecap="round"></path><path d="M240.54083,185.12052l0.38399,-0.06485" fill="none" stroke="#a75900" stroke-width="0.5" stroke-linecap="round"></path><path d="M242.2368,184.63417l0.47999,-0.09727" fill="none" stroke="#a75900" stroke-width="0.5" stroke-linecap="round"></path><path d="M241.30881,185.99596l-0.41599,0.03243" fill="none" stroke="#a75900" stroke-width="0.5" stroke-linecap="round"></path><path d="M242.36479,185.99596l-0.28799,0.03243" fill="none" stroke="#a75900" stroke-width="0.5" stroke-linecap="round"></path><path d="M242.20479,185.41233l-0.224,0.03243" fill="none" stroke="#a75900" stroke-width="0.5" stroke-linecap="round"></path><path d="M240.63683,187.00109l-0.47999,0.03243" fill="none" stroke="#a75900" stroke-width="0.5" stroke-linecap="round"></path><path d="M241.8528,187.26048h0.19199" fill="none" stroke="#a75900" stroke-width="0.5" stroke-linecap="round"></path><path d="M240.09284,174.64772l0.28799,-0.03243" fill="none" stroke="#703c00" stroke-width="0.5" stroke-linecap="round"></path><path d="M238.81287,173.54532l-0.224,-0.03243" fill="none" stroke="#703c00" stroke-width="0.5" stroke-linecap="round"></path><path d="M242.63679,187.21184l0.21333,-0.02161" fill="none" stroke="#703c00" stroke-width="0.5" stroke-linecap="round"></path><path d="M244.34342,186.00136l0.21333,-0.08647" fill="none" stroke="#703c00" stroke-width="0.5" stroke-linecap="round"></path><path d="M243.34077,185.33127l0.19199,-0.02161" fill="none" stroke="#703c00" stroke-width="0.5" stroke-linecap="round"></path><path d="M242.72212,183.53717l0.14933,-0.02161" fill="none" stroke="#703c00" stroke-width="0.5" stroke-linecap="round"></path><path d="M241.84747,180.48936l-0.128,0.02161" fill="none" stroke="#703c00" stroke-width="0.5" stroke-linecap="round"></path><path d="M241.35681,178.24132l-0.31999,0.10808" fill="none" stroke="#703c00" stroke-width="0.5" stroke-linecap="round"></path><path d="M241.25014,178.91141l0.17066,-0.04323" fill="none" stroke="#703c00" stroke-width="0.5" stroke-linecap="round"></path><path d="M240.73816,176.33915l-0.19199,0.04323" fill="none" stroke="#703c00" stroke-width="0.5" stroke-linecap="round"></path><path d="M240.4395,173.52911l-0.23466,0.08647" fill="none" stroke="#703c00" stroke-width="0.5" stroke-linecap="round"></path><path d="M240.61016,173.7885l-0.17066,0.04323" fill="none" stroke="#703c00" stroke-width="0.5" stroke-linecap="round"></path><path d="M238.47687,173.33456l-0.25599,-0.02161" fill="none" stroke="#703c00" stroke-width="0.5" stroke-linecap="round"></path></g><g><g stroke="#000000" stroke-width="0" stroke-linecap="butt"><path d="M244.52536,177.1548c0,0 0.04098,0.67806 -0.33569,0.79687c-0.08439,0.02662 -0.27925,-0.5192 -0.37963,-0.49112c-1.80364,0.50451 -5.94693,1.80796 -7.61172,2.41402c-0.32441,0.1181 -0.42771,0.54656 -0.54726,0.58592c-0.16524,0.05441 -0.47343,-0.22776 -0.47343,-0.22776c0,0 -0.00792,-0.37258 -0.20076,-0.5422c-0.07108,-0.06252 -0.16877,-0.0564 -0.26443,-0.10251c-0.147,-0.07087 -0.28788,-0.187 -0.30974,-0.25587c-0.03759,-0.11845 0.0378,-0.27179 0.13688,-0.43033c0.08055,-0.12889 0.18308,-0.25802 0.20225,-0.40044c0.01047,-0.07777 -0.06913,-0.08051 -0.09753,-0.14104c-0.07209,-0.15364 -0.16025,-0.31309 -0.16025,-0.31309c0,0 0.04655,-0.54454 0.26166,-0.61536c0.04305,-0.01417 0.35347,0.30168 0.41993,0.28157c1.14649,-0.34699 5.72283,-1.73744 7.80502,-2.48476c0.15376,-0.05519 0.09993,-0.71202 0.22639,-0.7524c0.43866,-0.14003 0.63474,0.49302 0.63474,0.49302c0,0 0.01872,0.12177 0.05787,0.2847c0.0226,0.09408 0.02933,0.22593 0.10171,0.29397c0.18343,0.17244 0.60146,0.13162 0.65706,0.30683c0.02483,0.07823 0.06231,0.15225 -0.01301,0.27451c-0.0561,0.09106 -0.2208,0.22514 -0.25381,0.32073c-0.00908,0.02629 -0.0386,0.06436 -0.04199,0.08979c-0.01849,0.13881 0.11365,0.25516 0.15339,0.35875c0.05656,0.14749 0.03236,0.25619 0.03236,0.25619z" fill="#ad907c"></path><path d="M244.15648,176.88877c0,0 0.04098,0.67806 -0.33569,0.79687c-0.08439,0.02662 -0.27925,-0.5192 -0.37963,-0.49112c-1.80364,0.50451 -5.94693,1.80796 -7.61172,2.41402c-0.32441,0.1181 -0.42771,0.54656 -0.54726,0.58592c-0.16524,0.05441 -0.47343,-0.22776 -0.47343,-0.22776c0,0 -0.00792,-0.37258 -0.20076,-0.5422c-0.07108,-0.06252 -0.16877,-0.0564 -0.26443,-0.10251c-0.147,-0.07087 -0.28788,-0.187 -0.30974,-0.25587c-0.03759,-0.11845 0.0378,-0.27179 0.13688,-0.43033c0.08055,-0.12889 0.18308,-0.25802 0.20225,-0.40044c0.01047,-0.07777 -0.06913,-0.08051 -0.09753,-0.14104c-0.07209,-0.15364 -0.16025,-0.31309 -0.16025,-0.31309c0,0 0.04655,-0.54454 0.26166,-0.61536c0.04305,-0.01417 0.35347,0.30168 0.41993,0.28157c1.14649,-0.34699 5.72283,-1.73744 7.80502,-2.48476c0.15376,-0.05519 0.09993,-0.71202 0.22639,-0.7524c0.43866,-0.14003 0.63474,0.49302 0.63474,0.49302c0,0 0.01872,0.12177 0.05787,0.2847c0.0226,0.09408 0.02933,0.22593 0.10171,0.29397c0.18343,0.17244 0.60146,0.13162 0.65706,0.30683c0.02483,0.07823 0.06231,0.15225 -0.01301,0.27451c-0.0561,0.09106 -0.2208,0.22514 -0.25381,0.32073c-0.00908,0.02629 -0.0386,0.06436 -0.04199,0.08979c-0.01849,0.13881 0.11365,0.25516 0.15339,0.35875c0.05656,0.14749 0.03236,0.25619 0.03236,0.25619z" fill="url(#color-4)"></path></g><path d="M236.07917,177.65916l-0.57102,0.09894" fill="none" stroke="#a75900" stroke-width="0.5" stroke-linecap="round"></path><path d="M237.97024,177.12706l0.66295,-0.16867" fill="none" stroke="#a75900" stroke-width="0.5" stroke-linecap="round"></path><path d="M236.77056,178.48258l-0.44521,0.05921" fill="none" stroke="#a75900" stroke-width="0.5" stroke-linecap="round"></path><path d="M239.63153,178.08368l-0.50519,0.12699" fill="none" stroke="#a75900" stroke-width="0.5" stroke-linecap="round"></path><path d="M240.03973,177.41761l-0.3455,0.11725" fill="none" stroke="#a75900" stroke-width="0.5" stroke-linecap="round"></path><path d="M241.50195,176.68726l-0.40937,0.12114" fill="none" stroke="#a75900" stroke-width="0.5" stroke-linecap="round"></path><path d="M242.54156,176.91238l-0.37744,0.1192" fill="none" stroke="#a75900" stroke-width="0.5" stroke-linecap="round"></path><path d="M243.05492,175.34225l-0.31356,0.1153" fill="none" stroke="#a75900" stroke-width="0.5" stroke-linecap="round"></path><path d="M243.94652,175.76875l-0.22163,0.04558" fill="none" stroke="#a75900" stroke-width="0.5" stroke-linecap="round"></path><path d="M243.90914,176.7328l-0.25162,0.07946" fill="none" stroke="#a75900" stroke-width="0.5" stroke-linecap="round"></path><path d="M234.83001,178.72917l-0.25162,0.07946" fill="none" stroke="#a75900" stroke-width="0.5" stroke-linecap="round"></path><path d="M235.10461,177.97507l-0.18969,0.04363" fill="none" stroke="#a75900" stroke-width="0.5" stroke-linecap="round"></path><path d="M235.35002,179.37069l0.31745,-0.05142" fill="none" stroke="#a75900" stroke-width="0.5" stroke-linecap="round"></path><path d="M242.00208,175.95146l-0.35134,0.02143" fill="none" stroke="#a75900" stroke-width="0.5" stroke-linecap="round"></path><path d="M235.80809,180.04805l-0.28746,0.01753" fill="none" stroke="#5e3200" stroke-width="0.5" stroke-linecap="round"></path><path d="M237.11841,179.45519l-0.63685,0.0709" fill="none" stroke="#5e3200" stroke-width="0.5" stroke-linecap="round"></path><path d="M244.62895,175.91949l-0.18969,0.04363" fill="none" stroke="#5e3200" stroke-width="0.5" stroke-linecap="round"></path><path d="M243.73422,174.91611l-0.19164,0.01169" fill="none" stroke="#5e3200" stroke-width="0.5" stroke-linecap="round"></path><path d="M244.45719,177.30849l-0.24773,0.14335" fill="none" stroke="#5e3200" stroke-width="0.5" stroke-linecap="round"></path><path d="M241.70179,177.86124l0.50325,-0.15893" fill="none" stroke="#5e3200" stroke-width="0.5" stroke-linecap="round"></path><path d="M243.31124,177.4425l-0.25162,0.07946" fill="none" stroke="#5e3200" stroke-width="0.5" stroke-linecap="round"></path><path d="M238.94171,178.86311l-0.4752,0.0931" fill="none" stroke="#5e3200" stroke-width="0.5" stroke-linecap="round"></path><path d="M240.47561,178.25662l0.21968,-0.07751" fill="none" stroke="#5e3200" stroke-width="0.5" stroke-linecap="round"></path></g></g><path d="M233.26105,189.57424v-18.49102h13.97099v18.49102z" fill="url(#color-5)" stroke="none" stroke-width="0" stroke-linecap="butt"></path></g></g></svg>