<svg version="1.1" xmlns="http://www.w3.org/2000/svg" xmlns:xlink="http://www.w3.org/1999/xlink" width="40.1008" height="63.65407" viewBox="0,0,40.1008,63.65407"><defs><linearGradient x1="225.7478" y1="198.39544" x2="241.391" y2="198.39544" gradientUnits="userSpaceOnUse" id="color-1"><stop offset="0" stop-color="#4066a0"></stop><stop offset="1" stop-color="#1c2c44"></stop></linearGradient><linearGradient x1="234.91487" y1="177.31119" x2="250.55806" y2="177.31119" gradientUnits="userSpaceOnUse" id="color-2"><stop offset="0" stop-color="#4066a0"></stop><stop offset="1" stop-color="#1c2c44"></stop></linearGradient><radialGradient cx="242.88925" cy="178.83903" r="10.38934" gradientUnits="userSpaceOnUse" id="color-3"><stop offset="0" stop-color="#4066a0"></stop><stop offset="1" stop-color="#1c2c44"></stop></radialGradient><radialGradient cx="243.19482" cy="178.08843" r="7.34398" gradientUnits="userSpaceOnUse" id="color-4"><stop offset="0" stop-color="#fff9d8"></stop><stop offset="1" stop-color="#e8dc8e"></stop></radialGradient></defs><g transform="translate(-219.39052,-154.99798)"><g data-paper-data="{&quot;isPaintingLayer&quot;:true}" fill-rule="nonzero" stroke-linecap="butt" stroke-linejoin="miter" stroke-miterlimit="10" stroke-dasharray="" stroke-dashoffset="0" style="mix-blend-mode: normal"><path d="M219.89052,208.54367c0,-13.01839 0,-35.4882 0,-42.91399c0,-4.69319 1.23255,-10.1317 2.60137,-10.1317c4.21224,0 26.13758,0 33.8293,0c1.67093,0 2.67013,3.77164 2.67013,9.34669c0,13.13684 0,36.28702 0,43.69901c0,4.49325 -1.02676,9.60837 -2.73889,9.60837c-7.73441,0 -29.45524,0 -33.69178,0c-1.40084,0 -2.67013,-3.89352 -2.67013,-9.60837z" fill="#3d3d3c" stroke="#fff4ce" stroke-width="1"></path><text transform="translate(223.98188,170.36482) scale(0.19068,0.19068)" font-size="40" xml:space="preserve" fill="#fff4ce" fill-rule="nonzero" stroke="none" stroke-width="1" stroke-linecap="butt" stroke-linejoin="miter" stroke-miterlimit="10" stroke-dasharray="" stroke-dashoffset="0" font-family="Impact" font-weight="normal" text-anchor="start" style="mix-blend-mode: normal"><tspan x="0" dy="0">Flashlight</tspan></text><text transform="translate(224.90441,163.15598) scale(0.19068,0.19068)" font-size="40" xml:space="preserve" fill="#fff4ce" fill-rule="nonzero" stroke="none" stroke-width="1" stroke-linecap="butt" stroke-linejoin="miter" stroke-miterlimit="10" stroke-dasharray="" stroke-dashoffset="0" font-family="Impact" font-weight="normal" text-anchor="start" style="mix-blend-mode: normal"><tspan x="0" dy="0">Standard</tspan></text><text transform="translate(221.86802,216.1024) scale(0.14521,0.14521)" font-size="40" xml:space="preserve" fill="#fff4ce" fill-rule="nonzero" stroke="none" stroke-width="1" stroke-linecap="butt" stroke-linejoin="miter" stroke-miterlimit="10" stroke-dasharray="" stroke-dashoffset="0" font-family="Serif" font-weight="normal" text-anchor="start" style="mix-blend-mode: normal"><tspan x="0" dy="0">"Ranged light."</tspan></text><g><text transform="translate(230.85528,208.27169) rotate(-69.41023) scale(0.10787,0.10787)" font-size="40" xml:space="preserve" fill="#ffffff" fill-rule="nonzero" stroke="none" stroke-width="2" stroke-linecap="butt" stroke-linejoin="miter" stroke-miterlimit="10" stroke-dasharray="" stroke-dashoffset="0" font-family="Sans Serif" font-weight="normal" text-anchor="start" style="mix-blend-mode: normal"><tspan x="0" dy="0">xAmt8</tspan></text><g stroke-width="1"><path d="M225.7478,206.47538l9.52097,-21.62444l6.12222,5.46456l-8.75406,21.62444z" fill="url(#color-1)" stroke="none"></path><path d="M234.91487,185.39113l-1.47951,-8.79056l16.206,7.29797l-7.83735,6.95715z" fill="url(#color-2)" stroke="none"></path><path d="M252.11724,183.61213c-0.9304,1.79876 -5.81614,1.11995 -10.91262,-1.51616c-5.09648,-2.63611 -8.47376,-6.23128 -7.54337,-8.03004c0.9304,-1.79876 5.81614,-1.11995 10.91262,1.51616c5.09648,2.63611 8.47376,6.23128 7.54337,8.03004z" fill="url(#color-3)" stroke="#000000"></path><path d="M249.71788,181.46243c-0.65767,1.2715 -4.1113,0.79166 -7.71388,-1.07174c-3.60259,-1.86341 -5.98991,-4.40475 -5.33224,-5.67625c0.65767,-1.2715 4.1113,-0.79166 7.71388,1.07174c3.60259,1.86341 5.98991,4.40475 5.33224,5.67625z" fill="url(#color-4)" stroke="#000000"></path><path d="M232.21329,211.27409c-0.90751,0.8823 -2.88294,0.32236 -4.41226,-1.25064c-1.52931,-1.57301 -2.0334,-3.56343 -1.12589,-4.44573c0.90751,-0.8823 2.88294,-0.32236 4.41226,1.25064c1.52931,1.57301 2.0334,3.56343 1.12589,4.44573z" fill="#395b8e" stroke="none"></path></g></g></g></g></svg>