<svg version="1.1" xmlns="http://www.w3.org/2000/svg" xmlns:xlink="http://www.w3.org/1999/xlink" width="54.97784" height="56.5031" viewBox="0,0,54.97784,56.5031"><defs><linearGradient x1="240.11559" y1="175.10929" x2="242.7543" y2="181.07191" gradientUnits="userSpaceOnUse" id="color-1"><stop offset="0" stop-color="#e4d0a2"></stop><stop offset="1" stop-color="#80745b"></stop></linearGradient><linearGradient x1="232.80507" y1="160.0838" x2="240.5088" y2="177.49171" gradientUnits="userSpaceOnUse" id="color-2"><stop offset="0" stop-color="#e4d0a2"></stop><stop offset="1" stop-color="#80745b"></stop></linearGradient><linearGradient x1="247.38121" y1="170.50264" x2="248.73275" y2="173.55666" gradientUnits="userSpaceOnUse" id="color-3"><stop offset="0" stop-color="#e4d0a2"></stop><stop offset="1" stop-color="#80745b"></stop></linearGradient><linearGradient x1="244.17328" y1="175.16029" x2="245.82371" y2="178.88977" gradientUnits="userSpaceOnUse" id="color-4"><stop offset="0" stop-color="#e4d0a2"></stop><stop offset="1" stop-color="#80745b"></stop></linearGradient><linearGradient x1="247.91258" y1="171.45254" x2="248.72471" y2="173.28768" gradientUnits="userSpaceOnUse" id="color-5"><stop offset="0" stop-color="#e4d0a2"></stop><stop offset="1" stop-color="#80745b"></stop></linearGradient><linearGradient x1="247.39459" y1="173.80129" x2="247.65969" y2="174.40033" gradientUnits="userSpaceOnUse" id="color-6"><stop offset="0" stop-color="#e4d0a2"></stop><stop offset="1" stop-color="#80745b"></stop></linearGradient><linearGradient x1="244.02381" y1="180.00414" x2="245.50086" y2="183.3418" gradientUnits="userSpaceOnUse" id="color-7"><stop offset="0" stop-color="#e4d0a2"></stop><stop offset="1" stop-color="#80745b"></stop></linearGradient><linearGradient x1="245.34511" y1="182.82162" x2="245.61019" y2="183.42064" gradientUnits="userSpaceOnUse" id="color-8"><stop offset="0" stop-color="#e4d0a2"></stop><stop offset="1" stop-color="#80745b"></stop></linearGradient><radialGradient cx="229.29008" cy="167.40427" r="12.23069" gradientUnits="userSpaceOnUse" id="color-9"><stop offset="0" stop-color="#ffffff"></stop><stop offset="1" stop-color="#ffe9b6"></stop></radialGradient><linearGradient x1="245.22941" y1="196.57723" x2="249.06315" y2="194.88064" gradientUnits="userSpaceOnUse" id="color-10"><stop offset="0" stop-color="#80745b"></stop><stop offset="1" stop-color="#e4d0a2"></stop></linearGradient></defs><g transform="translate(-209.86822,-148.23634)"><g data-paper-data="{&quot;isPaintingLayer&quot;:true}" fill-rule="nonzero" stroke-linejoin="miter" stroke-miterlimit="10" stroke-dasharray="" stroke-dashoffset="0" style="mix-blend-mode: normal"><path d="M216.15396,196.45829c0,-9.86526 0,-26.89275 0,-32.51997c0,-3.55647 1.50337,-7.67776 3.17295,-7.67776c5.13777,0 31.88059,0 41.26234,0c2.03805,0 3.25682,2.85812 3.25682,7.08287c0,9.95502 0,27.49809 0,33.11485c0,3.40496 -1.25235,7.28116 -3.34069,7.28116c-9.43383,0 -35.92722,0 -41.09461,0c-1.70864,0 -3.25682,-2.95049 -3.25682,-7.28116z" fill-opacity="0.62097" fill="#291800" stroke="#d6cdad" stroke-width="2" stroke-linecap="butt"></path><g><text transform="translate(225.45037,177.54923) rotate(-24.63841) scale(0.16521,0.16521)" font-size="40" xml:space="preserve" fill="#ffffff" fill-rule="nonzero" stroke="none" stroke-width="1" stroke-linecap="butt" stroke-linejoin="miter" stroke-miterlimit="10" stroke-dasharray="" stroke-dashoffset="0" font-family="Sans Serif" font-weight="normal" text-anchor="start" style="mix-blend-mode: normal"><tspan x="0" dy="0">xAMT8</tspan></text><g><path d="M248.09343,202.40151l-7.4756,-16.89241l3.47434,-1.53753l7.4756,16.89241c0,0 -0.82711,2.22851 -1.46724,2.51179c-0.3951,0.17485 -2.00708,-0.97426 -2.00708,-0.97426z" fill="#80745b" stroke="#fff4dc" stroke-width="0" stroke-linecap="butt"></path><g><path d="M240.42743,182.10165l-5.54731,-4.67544l10.59966,-4.34298l-1.19011,7.1353z" fill="url(#color-1)" stroke="none" stroke-width="0" stroke-linecap="butt"></path><path d="M231.26106,178.67994c0,0 -3.54949,-0.67287 -4.36846,-1.7739c-0.47284,-0.6357 0.18759,-2.33451 -0.2658,-3.60205c-0.83491,-2.33424 -2.66496,-4.43719 -2.66496,-4.43719c0,0 5.1623,-7.15405 8.6689,-8.70587c3.74871,-1.65897 13.14557,-0.94795 13.14557,-0.94795c0,0 0.75379,4.59585 1.94865,7.48606c0.35291,0.85365 1.93898,1.02981 2.06498,1.5544c0.28054,1.16806 -0.91765,3.85016 -0.91765,3.85016c0,0 -0.80297,1.9679 -1.83645,2.49483c-1.86546,0.95112 -5.25249,0.05919 -7.91589,0.92519c-2.04002,0.66332 -3.51664,3.15909 -4.39495,3.48707c-0.89826,0.33542 -3.46393,-0.33077 -3.46393,-0.33077z" fill="url(#color-2)" stroke="none" stroke-width="NaN" stroke-linecap="butt"></path><path d="M246.18773,174.68295l3.73851,-5.30658" fill="url(#color-3)" stroke="#ffffff" stroke-width="1" stroke-linecap="round"></path><path d="M244.22539,179.59709l1.54623,-5.14413" fill="url(#color-4)" stroke="#ffffff" stroke-width="1" stroke-linecap="round"></path><path d="M247.18556,173.9688l2.26617,-3.1974" fill="url(#color-5)" stroke="#ffffff" stroke-width="1" stroke-linecap="round"></path><path d="M246.61977,174.28999l1.81473,-0.37834" fill="url(#color-6)" stroke="#ffffff" stroke-width="1" stroke-linecap="round"></path><path d="M244.69611,182.96304l-1.14589,-2.74929l1.00636,-0.44536l1.23129,2.7823c0,0 -0.15911,0.7472 -0.3574,0.82207c-0.15473,0.05844 -0.73436,-0.40971 -0.73436,-0.40971z" fill="url(#color-7)" stroke="#e4d0a2" stroke-width="0.5" stroke-linecap="butt"></path><path d="M245.17814,183.25368c-0.0732,-0.16542 0.00155,-0.35886 0.16696,-0.43206c0.16542,-0.0732 0.35886,0.00155 0.43206,0.16696c0.0732,0.16542 -0.00155,0.35886 -0.16696,0.43206c-0.16542,0.0732 -0.35886,-0.00155 -0.43206,-0.16696z" fill="url(#color-8)" stroke="none" stroke-width="0.5" stroke-linecap="butt"></path></g><path d="M239.21131,183.53524l-5.54731,-4.67544l10.59966,-4.34298l-1.19011,7.1353z" fill="#ffe9b6" stroke="none" stroke-width="0" stroke-linecap="butt"></path><path d="M230.04497,180.11355c0,0 -3.54949,-0.67287 -4.36846,-1.7739c-0.47284,-0.6357 0.18759,-2.33451 -0.2658,-3.60205c-0.83491,-2.33424 -2.66496,-4.43719 -2.66496,-4.43719c0,0 5.1623,-7.15405 8.6689,-8.70587c3.74871,-1.65897 13.14557,-0.94795 13.14557,-0.94795c0,0 0.75379,4.59585 1.94865,7.48606c0.35291,0.85365 1.93898,1.02981 2.06498,1.5544c0.28054,1.16806 -0.91765,3.85016 -0.91765,3.85016c0,0 -0.80297,1.9679 -1.83645,2.49483c-1.86546,0.95112 -5.25249,0.05919 -7.91589,0.92519c-2.04002,0.66332 -3.51664,3.15909 -4.39495,3.48707c-0.89826,0.33542 -3.46393,-0.33077 -3.46393,-0.33077z" fill="url(#color-9)" stroke="none" stroke-width="NaN" stroke-linecap="butt"></path><path d="M237.35807,160.87735l-0.05511,4.19826l-1.98587,-0.16464" fill="none" stroke="#e4d0a2" stroke-width="1" stroke-linecap="round"></path><path d="M237.01209,165.20432l1.46852,0.5675" fill="none" stroke="#e4d0a2" stroke-width="1" stroke-linecap="round"></path><path d="M229.9929,178.23186c0,0 -0.827,-1.13542 -1.12918,-1.81826c-0.3293,-0.74412 -0.77229,-2.47843 -0.77229,-2.47843c0,0 0.50254,-2.71809 1.16339,-3.01054c0.9006,-0.39855 3.74712,0.83743 3.74712,0.83743c0,0 0.98966,1.24113 1.29186,1.92399c0.3293,0.74412 0.60961,2.37272 0.60961,2.37272c0,0 -1.71047,2.31387 -2.61567,2.71446c-0.62811,0.27796 -2.29484,-0.54134 -2.29484,-0.54134z" fill="#80745b" stroke="#e4d0a2" stroke-width="1" stroke-linecap="butt"></path><path d="M228.99602,179.7082l5.40935,0.0409" fill="none" stroke="#ffffff" stroke-width="1" stroke-linecap="round"></path><path d="M238.48129,178.80094l-0.70251,-1.58744c0,0 -0.53118,-3.62855 -0.18252,-3.78285c0.45448,-0.20112 2.67708,2.6789 2.67708,2.6789l0.70251,1.58744c0,0 -1.90991,-1.91451 -2.36087,-1.71495c-0.35982,0.15923 -0.13367,2.81889 -0.13367,2.81889z" fill="#80745b" stroke="#e4d0a2" stroke-width="0.5" stroke-linecap="butt"></path><path d="M244.35365,173.54643c-0.9052,0.40059 -3.76799,0.11058 -3.76799,0.11058c0,0 -1.01688,-1.30263 -1.34618,-2.04675c-0.30218,-0.68284 -0.55529,-2.24995 -0.55529,-2.24995c0,0 0.99938,-2.93797 1.89998,-3.33651c0.66085,-0.29246 3.01054,1.1634 3.01054,1.1634c0,0 0.98573,1.49412 1.31504,2.23824c0.30218,0.68284 0.58643,2.05845 0.58643,2.05845c0,0 -0.51441,1.78456 -1.14251,2.06252z" data-paper-data="{&quot;index&quot;:null}" fill="#80745b" stroke="#e4d0a2" stroke-width="1" stroke-linecap="butt"></path><path d="M243.00926,181.03068l1.54623,-5.14413" fill="none" stroke="#ffffff" stroke-width="1" stroke-linecap="round"></path><path d="M242.98886,181.46448l-4.05165,1.72224l-5.25948,-3.40655" fill="none" stroke="#ffffff" stroke-width="1" stroke-linecap="round"></path><path d="M233.6835,180.27313l-3.09565,-0.11666" fill="none" stroke="#ffffff" stroke-width="1" stroke-linecap="round"></path><path d="M248.23563,172.20502l-2.26617,3.1974" fill="none" stroke="#ffffff" stroke-width="1" stroke-linecap="round"></path><path d="M247.2184,175.34525l-1.81473,0.37834" fill="none" stroke="#ffffff" stroke-width="1" stroke-linecap="round"></path><path d="M239.79391,185.92241l-1.14589,-2.74929l1.00636,-0.44536l1.23129,2.7823c0,0 -0.15911,0.7472 -0.3574,0.82207c-0.15473,0.05844 -0.73436,-0.40971 -0.73436,-0.40971z" fill="#ffe9b6" stroke="#e4d0a2" stroke-width="0.5" stroke-linecap="butt"></path><path d="M241.17089,185.3482l-1.14589,-2.74929l1.00636,-0.44536l1.23129,2.7823c0,0 -0.15911,0.7472 -0.3574,0.82207c-0.15473,0.05844 -0.73436,-0.40971 -0.73436,-0.40971z" fill="#ffe9b6" stroke="#e4d0a2" stroke-width="0.5" stroke-linecap="butt"></path><path d="M242.32261,184.93278l-1.14589,-2.74929l1.00636,-0.44536l1.23129,2.7823c0,0 -0.15911,0.7472 -0.3574,0.82207c-0.15473,0.05844 -0.73436,-0.40971 -0.73436,-0.40971z" fill="#ffe9b6" stroke="#e4d0a2" stroke-width="0.5" stroke-linecap="butt"></path><path d="M243.47999,184.39664l-1.14589,-2.74929l1.00636,-0.44536l1.23129,2.7823c0,0 -0.15911,0.7472 -0.3574,0.82207c-0.15473,0.05844 -0.73436,-0.40971 -0.73436,-0.40971z" fill="#ffe9b6" stroke="#e4d0a2" stroke-width="0.5" stroke-linecap="butt"></path><path d="M240.58196,186.12399l-0.39542,0.17499" fill="none" stroke="#ffffff" stroke-width="0.5" stroke-linecap="round"></path><path d="M240.83204,186.01332c0.13255,0.29951 -0.16696,0.43206 -0.16696,0.43206l-0.39542,0.17499c0,0 -0.29951,0.13255 -0.43206,-0.16696c-0.13255,-0.29951 0.16696,-0.43206 0.16696,-0.43206l0.39542,-0.17499c0,0 0.29951,-0.13255 0.43206,0.16696z" fill="#ffffff" stroke="none" stroke-width="0.5" stroke-linecap="butt"></path><path d="M241.66645,185.64406c-0.0732,-0.16542 0.00155,-0.35886 0.16696,-0.43206c0.16542,-0.0732 0.35886,0.00155 0.43206,0.16696c0.0732,0.16542 -0.00155,0.35886 -0.16696,0.43206c-0.16542,0.0732 -0.35886,-0.00155 -0.43206,-0.16696z" fill="#ffffff" stroke="none" stroke-width="0.5" stroke-linecap="butt"></path><path d="M242.8033,185.14096c-0.0732,-0.16542 0.00155,-0.35886 0.16696,-0.43206c0.16542,-0.0732 0.35886,0.00155 0.43206,0.16696c0.0732,0.16542 -0.00155,0.35886 -0.16696,0.43206c-0.16542,0.0732 -0.35886,-0.00155 -0.43206,-0.16696z" fill="#ffffff" stroke="none" stroke-width="0.5" stroke-linecap="butt"></path><path d="M243.96203,184.68727c-0.0732,-0.16542 0.00155,-0.35886 0.16696,-0.43206c0.16542,-0.0732 0.35886,0.00155 0.43206,0.16696c0.0732,0.16542 -0.00155,0.35886 -0.16696,0.43206c-0.16542,0.0732 -0.35886,-0.00155 -0.43206,-0.16696z" fill="#ffffff" stroke="none" stroke-width="0.5" stroke-linecap="butt"></path><path d="M244.02536,184.14438l7.66219,16.66658" fill="none" stroke="#fff4dc" stroke-width="1" stroke-linecap="round"></path><path d="M245.62703,197.47577l-0.79528,-1.79706l3.83374,-1.69659l0.79528,1.79706z" fill="url(#color-10)" stroke="none" stroke-width="0" stroke-linecap="butt"></path><path d="M249.97516,198.56017l-1.00735,-2.27628c0,0 1.48292,0.06009 2.06216,-0.19625c0.88479,-0.39156 2.73002,-1.92448 2.73002,-1.92448l1.00735,2.27628c0,0 -2.21201,0.1193 -3.07361,0.5006c-0.70351,0.31133 -1.71857,1.62014 -1.71857,1.62014z" fill="#80745b" stroke="none" stroke-width="0" stroke-linecap="butt"></path><path d="M254.0072,197.63541l-1.64357,-3.71394l1.79706,-0.79528l1.64357,3.71394z" fill="#80745b" stroke="none" stroke-width="0" stroke-linecap="butt"></path><path d="M255.33882,196.75957l-1.47075,-3.64714" fill="none" stroke="#fff4dc" stroke-width="1" stroke-linecap="round"></path><path d="M250.84688,202.4724l-1.61047,0.56943" fill="none" stroke="#fff4dc" stroke-width="1" stroke-linecap="round"></path></g></g><g stroke-linecap="butt"><path d="M212.36824,162.03501c0,-2.30933 0,-6.29523 0,-7.61249c0,-0.83253 0.35192,-1.79726 0.74274,-1.79726c1.20269,0 7.46283,0 9.65897,0c0.47708,0 0.76238,0.66905 0.76238,1.65801c0,2.33034 0,6.43694 0,7.75175c0,0.79706 -0.29315,1.70443 -0.78201,1.70443c-2.20834,0 -8.41009,0 -9.61971,0c-0.39997,0 -0.76238,-0.69067 -0.76238,-1.70443z" fill-opacity="0.47425" fill="#000000" stroke="#fff4ce" stroke-width="0"></path><path d="M210.36824,159.89216c0,-2.30933 0,-6.29523 0,-7.61249c0,-0.83253 0.35192,-1.79726 0.74274,-1.79726c1.20269,0 7.46283,0 9.65897,0c0.47708,0 0.76238,0.66904 0.76238,1.658c0,2.33034 0,6.43695 0,7.75176c0,0.79706 -0.29315,1.70443 -0.78201,1.70443c-2.20834,0 -8.41009,0 -9.61971,0c-0.39997,0 -0.76238,-0.69067 -0.76238,-1.70443z" fill-opacity="0.88705" fill="#291800" stroke="#fff4ce" stroke-width="1"></path><text transform="translate(213.35852,159.88738) scale(0.26784,0.26784)" font-size="40" xml:space="preserve" fill="#fff4ce" fill-rule="nonzero" stroke="none" stroke-width="1" stroke-linecap="butt" stroke-linejoin="miter" stroke-miterlimit="10" stroke-dasharray="" stroke-dashoffset="0" font-family="Sans Serif" font-weight="normal" text-anchor="start" style="mix-blend-mode: normal"><tspan x="0" dy="0">3</tspan></text></g></g></g></svg>