<svg version="1.1" xmlns="http://www.w3.org/2000/svg" xmlns:xlink="http://www.w3.org/1999/xlink" width="40.02557" height="10.36003" viewBox="0,0,40.02557,10.36003"><defs><radialGradient cx="245.55256" cy="164.17807" r="0.72784" gradientUnits="userSpaceOnUse" id="color-1"><stop offset="0" stop-color="#fcd688"></stop><stop offset="1" stop-color="#fcd688" stop-opacity="0"></stop></radialGradient><linearGradient x1="244.25225" y1="169.64844" x2="244.13846" y2="169.9989" gradientUnits="userSpaceOnUse" id="color-2"><stop offset="0" stop-color="#321f21"></stop><stop offset="1" stop-color="#472a26"></stop></linearGradient><linearGradient x1="244.57366" y1="166.11845" x2="244.57366" y2="170.23315" gradientUnits="userSpaceOnUse" id="color-3"><stop offset="0" stop-color="#b6684e"></stop><stop offset="1" stop-color="#472a26"></stop></linearGradient><linearGradient x1="246.13898" y1="166.35077" x2="246.13898" y2="170.22796" gradientUnits="userSpaceOnUse" id="color-4"><stop offset="0" stop-color="#532e2c"></stop><stop offset="1" stop-color="#341f21"></stop></linearGradient><linearGradient x1="243.69557" y1="165.99414" x2="247.24534" y2="165.99414" gradientUnits="userSpaceOnUse" id="color-5"><stop offset="0" stop-color="#b6684e"></stop><stop offset="1" stop-color="#5f3730"></stop></linearGradient><radialGradient cx="244.7147" cy="162.40926" r="1.57624" gradientUnits="userSpaceOnUse" id="color-6"><stop offset="0" stop-color="#ffd9aa"></stop><stop offset="1" stop-color="#a4593e"></stop></radialGradient><radialGradient cx="243.6715" cy="162.36372" r="1.46188" gradientUnits="userSpaceOnUse" id="color-7"><stop offset="0" stop-color="#ffc297"></stop><stop offset="1" stop-color="#a15a42"></stop></radialGradient><linearGradient x1="242.30384" y1="161.62913" x2="244.37962" y2="161.78938" gradientUnits="userSpaceOnUse" id="color-8"><stop offset="0" stop-color="#a35e47"></stop><stop offset="1" stop-color="#c29285"></stop></linearGradient><linearGradient x1="243.72484" y1="162.27146" x2="243.76395" y2="162.10678" gradientUnits="userSpaceOnUse" id="color-9"><stop offset="0" stop-color="#fef4d2" stop-opacity="0"></stop><stop offset="1" stop-color="#fef4d2"></stop></linearGradient><linearGradient x1="243.85569" y1="162.21356" x2="243.72518" y2="162.20349" gradientUnits="userSpaceOnUse" id="color-10"><stop offset="0" stop-color="#ecd5b5"></stop><stop offset="1" stop-color="#ecd5b5" stop-opacity="0"></stop></linearGradient><radialGradient cx="245.16043" cy="164.73382" r="0.1151" gradientUnits="userSpaceOnUse" id="color-11"><stop offset="0" stop-color="#55170f"></stop><stop offset="1" stop-color="#faccb4"></stop></radialGradient><radialGradient cx="245.3974" cy="165.07799" r="0.1151" gradientUnits="userSpaceOnUse" id="color-12"><stop offset="0" stop-color="#55170f"></stop><stop offset="1" stop-color="#faccb4"></stop></radialGradient><radialGradient cx="245.64566" cy="165.38831" r="0.1151" gradientUnits="userSpaceOnUse" id="color-13"><stop offset="0" stop-color="#55170f"></stop><stop offset="1" stop-color="#faccb4"></stop></radialGradient><radialGradient cx="245.73029" cy="164.80717" r="0.1151" gradientUnits="userSpaceOnUse" id="color-14"><stop offset="0" stop-color="#55170f"></stop><stop offset="1" stop-color="#faccb4"></stop></radialGradient><radialGradient cx="245.10965" cy="165.33189" r="0.1151" gradientUnits="userSpaceOnUse" id="color-15"><stop offset="0" stop-color="#55170f"></stop><stop offset="1" stop-color="#faccb4"></stop></radialGradient><linearGradient x1="246.05245" y1="164.74097" x2="246.05245" y2="166.09508" gradientUnits="userSpaceOnUse" id="color-16"><stop offset="0" stop-color="#794237"></stop><stop offset="1" stop-color="#d27e67"></stop></linearGradient><linearGradient x1="243.59756" y1="166.56469" x2="247.03362" y2="166.56469" gradientUnits="userSpaceOnUse" id="color-17"><stop offset="0" stop-color="#f4a681"></stop><stop offset="1" stop-color="#5a3630"></stop></linearGradient><radialGradient cx="244.25769" cy="168.6805" r="0.65058" gradientUnits="userSpaceOnUse" id="color-18"><stop offset="0" stop-color="#c88469"></stop><stop offset="1" stop-color="#5a332a"></stop></radialGradient></defs><g transform="translate(-240.53655,-160.4894)"><g data-paper-data="{&quot;isPaintingLayer&quot;:true}" fill-rule="nonzero" stroke-linejoin="miter" stroke-miterlimit="10" stroke-dasharray="" stroke-dashoffset="0" style="mix-blend-mode: normal"><path d="M240.66155,169.17399c0,-2.10068 0,-5.72647 0,-6.92471c0,-0.7573 1.25383,-1.63488 2.64626,-1.63488c4.28492,0 26.58863,0 34.41309,0c1.69976,0 2.71622,0.6086 2.71622,1.50821c0,2.1198 0,5.85537 0,7.05139c0,0.72504 -1.04447,1.55043 -2.78615,1.55043c-7.86788,0 -29.96356,0 -34.2732,0c-1.42502,0 -2.71621,-0.62826 -2.71621,-1.55043z" fill="#381c00" stroke="#fff4ce" stroke-width="0.25" stroke-linecap="butt"></path><text transform="translate(273.10258,167.29022) scale(0.09734,0.13713)" font-size="40" xml:space="preserve" fill="#dab7b1" fill-rule="nonzero" stroke="none" stroke-width="1" stroke-linecap="butt" stroke-linejoin="miter" stroke-miterlimit="10" stroke-dasharray="" stroke-dashoffset="0" font-family="Sans Serif" font-weight="normal" text-anchor="start" style="mix-blend-mode: normal"><tspan x="0" dy="0">5O</tspan></text><text transform="translate(248.36952,165.4576) scale(0.07065,0.10564)" font-size="40" xml:space="preserve" fill="#e3bba8" fill-rule="nonzero" stroke="none" stroke-width="1" stroke-linecap="butt" stroke-linejoin="miter" stroke-miterlimit="10" stroke-dasharray="" stroke-dashoffset="0" font-family="Sans Serif" font-weight="normal" text-anchor="start" style="mix-blend-mode: normal"><tspan x="0" dy="0">Lighter</tspan></text><text transform="translate(248.53541,168.80469) scale(0.03969,0.03969)" font-size="40" xml:space="preserve" fill="#dab7b1" fill-rule="nonzero" stroke="none" stroke-width="1" stroke-linecap="butt" stroke-linejoin="miter" stroke-miterlimit="10" stroke-dasharray="" stroke-dashoffset="0" font-family="&quot;Microsoft YaHei&quot;, &quot;微软雅黑&quot;, STXihei, &quot;华文细黑&quot;" font-weight="normal" text-anchor="start" style="mix-blend-mode: normal"><tspan x="0" dy="0">Basic temporary light source.</tspan></text><g><text transform="translate(244.26954,165.40862) scale(0.01713,0.01713)" font-size="40" xml:space="preserve" fill="#66ddff" fill-rule="nonzero" stroke="none" stroke-width="0.25" stroke-linecap="butt" stroke-linejoin="miter" stroke-miterlimit="10" stroke-dasharray="" stroke-dashoffset="0" font-family="Sans Serif" font-weight="normal" text-anchor="start" style="mix-blend-mode: normal"><tspan x="0" dy="0">xAmt8</tspan></text><path d="M246.10267,164.17807c0,0.40197 -0.24629,0.72784 -0.55011,0.72784c-0.30382,0 -0.55011,-0.32586 -0.55011,-0.72784c0,-0.40197 0.24629,-0.72784 0.55011,-0.72784c0.30382,0 0.55011,0.32586 0.55011,0.72784z" fill="url(#color-1)" stroke="none" stroke-width="0.125" stroke-linecap="butt"></path><path d="M242.75626,169.04464l0.35754,0.04916l2.27689,1.10928c0,0 0.47668,-0.11974 0.4723,-0.0532c-0.0023,0.03502 0.80321,-0.1301 0.69923,-0.05631c-0.04614,0.03274 -1.19552,0.47416 -1.19552,0.47416c0,0 -2.08884,-1.03377 -2.48355,-1.26408c-0.13352,-0.0779 -0.1269,-0.25901 -0.1269,-0.25901z" fill="url(#color-2)" stroke="none" stroke-width="0.125" stroke-linecap="butt"></path><path d="M242.75276,168.81151l0.94112,-2.71872l2.64969,0.33115c0,0 0.0906,0.34666 0.03027,0.56685c-0.16456,0.60056 -1.07402,3.24236 -1.07402,3.24236c0,0 -2.11539,-0.85699 -2.44085,-1.03864c-0.08356,-0.04664 -0.10621,-0.38299 -0.10621,-0.38299z" fill="url(#color-3)" stroke="none" stroke-width="0.125" stroke-linecap="butt"></path><path d="M246.63386,169.52543l0.1396,-3.17857l0.42298,-0.00821c0,0 -0.1051,1.79592 -0.13063,2.37723c-0.01467,0.33389 -0.03463,0.827 -0.03463,0.827c0,0 -0.33407,0.3808 -0.50418,0.54708c-0.04789,0.04681 -0.08279,0.07662 -0.09358,0.07615c-0.07334,-0.00322 0.20045,-0.64067 0.20045,-0.64067z" fill="#321f21" stroke="none" stroke-width="0.125" stroke-linecap="butt"></path><path d="M245.29594,170.21967l0.97583,-3.8689l0.71025,0.12754l-0.3472,3.035c0,0 0.01703,0.44996 -0.162,0.60483c-0.01261,0.01091 -0.0262,0.02036 -0.04084,0.02808c-0.22393,0.11814 -1.13604,0.07344 -1.13604,0.07344z" fill="url(#color-4)" stroke="none" stroke-width="0.125" stroke-linecap="butt"></path><path d="M243.69557,166.07978l0.08214,-0.72663l2.77768,0.27451l0.6284,0.5119l0.06156,0.19352c0,0 -0.24911,0.06846 -0.25442,0.08965c-0.01755,0.07004 0.06866,0.21241 0.06866,0.21241l-0.81727,-0.17821l-2.32348,-0.1096z" fill="url(#color-5)" stroke="#000000" stroke-width="0.125" stroke-linecap="butt"></path><path d="M243.68123,165.70132l-0.29079,-0.61463l1.22925,-0.58158l0.29079,0.61463z" fill="#572f2a" stroke="#000000" stroke-width="0.125" stroke-linecap="butt"></path><path d="M246.2081,165.26213c0,-0.27987 0.22688,-0.50675 0.50675,-0.50675c0.1191,0 0.2286,0.04109 0.31511,0.10986c0.11678,0.09283 0.19164,0.23612 0.19164,0.39689c0,0.27987 -0.22688,0.50675 -0.50675,0.50675c-0.27987,0 -0.50675,-0.22688 -0.50675,-0.50675z" fill="#b06b59" stroke="none" stroke-width="0.125" stroke-linecap="butt"></path><path d="M246.13898,165.21867c0,-0.27987 0.22688,-0.50675 0.50675,-0.50675c0.27987,0 0.50675,0.22688 0.50675,0.50675c0,0.27987 -0.22688,0.50675 -0.50675,0.50675c-0.27987,0 -0.50675,-0.22688 -0.50675,-0.50675z" fill="#ecac8b" stroke="none" stroke-width="0.125" stroke-linecap="butt"></path><text transform="translate(244.06712,162.5811) rotate(-79.71615) scale(0.00854,0.00854)" font-size="40" xml:space="preserve" fill="#41251e" fill-rule="nonzero" stroke="none" stroke-width="0.25" stroke-linecap="butt" stroke-linejoin="miter" stroke-miterlimit="10" stroke-dasharray="" stroke-dashoffset="0" font-family="Sans Serif" font-weight="normal" text-anchor="start" style="mix-blend-mode: normal"><tspan x="0" dy="0">xAmt8</tspan></text><path d="M245.31735,164.83199l-0.01144,-0.18304c0,0 0.28416,-0.04987 0.47001,-0.06149c0.12021,-0.00751 0.53671,-0.00143 0.53671,-0.00143l0.01144,0.18304z" fill="#ffffff" stroke="none" stroke-width="0.125" stroke-linecap="butt"></path><path d="M243.49222,165.19198l0.31771,-3.04716l1.01011,0.10532l-0.19923,3.04716z" fill="url(#color-6)" stroke="none" stroke-width="0.125" stroke-linecap="butt"></path><path d="M243.8521,162.28938l0.03335,-0.43203l0.33046,-0.43051l0.52512,0.30547l0.1176,0.59955c0,0 -0.3469,0.00844 -0.42767,0.00221c-0.14073,-0.01086 -0.57885,-0.04469 -0.57885,-0.04469z" fill="#88472d" stroke="none" stroke-width="0.125" stroke-linecap="butt"></path><path d="M242.09734,164.91416l0.20043,-2.8984l1.57921,0.02458c0,0 -0.12938,1.18687 -0.19977,1.70592c-0.05896,0.43481 -0.12868,1.43554 -0.12868,1.43554z" fill="url(#color-7)" stroke="#000000" stroke-width="0.125" stroke-linecap="butt"></path><path d="M242.27258,162.03416l0.57436,-0.82148l1.41076,0.17682l-0.41968,0.6976z" fill="url(#color-8)" stroke="none" stroke-width="0.125" stroke-linecap="butt"></path><path d="M243.83324,162.39659l-0.21545,-0.15055l0.03911,-0.16468l0.2193,-0.01666z" data-paper-data="{&quot;index&quot;:null}" fill="url(#color-9)" stroke="none" stroke-width="0.125" stroke-linecap="butt"></path><path d="M243.71684,162.31149l0.01668,-0.21602l0.13051,0.01008l-0.01668,0.21602z" data-paper-data="{&quot;index&quot;:null}" fill="url(#color-10)" stroke="none" stroke-width="0.125" stroke-linecap="butt"></path><path d="M244.23805,161.40091l-0.144,0.26131z" fill="#623320" stroke="none" stroke-width="0.125" stroke-linecap="butt"></path><path d="M244.35362,165.49361l0.08408,-0.4861c0,0 0.15177,-0.30367 0.22051,-0.29385c0.07055,0.01007 0.19752,0.35353 0.19752,0.35353l-0.08408,0.4861z" fill="#e7c0af" stroke="none" stroke-width="0.125" stroke-linecap="butt"></path><path d="M244.76548,164.999c0,0.03739 -0.03789,0.06771 -0.08463,0.06771c-0.04674,0 -0.08463,-0.03031 -0.08463,-0.06771c0,-0.03739 0.03789,-0.06771 0.08463,-0.06771c0.04674,0 0.08463,0.03031 0.08463,0.06771z" fill="#fca57a" stroke="#a88c80" stroke-width="0.125" stroke-linecap="butt"></path><path d="M244.72646,165.57448l0.15317,-1.08483l1.00478,0.17762l-0.12609,1.03067z" fill="#e8b49e" stroke="#a88c80" stroke-width="0.125" stroke-linecap="butt"></path><path d="M245.19034,164.80943c0,0.06357 -0.05153,0.1151 -0.1151,0.1151c-0.06357,0 -0.1151,-0.05153 -0.1151,-0.1151c0,-0.06357 0.05153,-0.1151 0.1151,-0.1151c0.06357,0 0.1151,0.05153 0.1151,0.1151z" fill="url(#color-11)" stroke="none" stroke-width="0.125" stroke-linecap="butt"></path><path d="M245.4273,165.1536c0,0.06357 -0.05153,0.1151 -0.1151,0.1151c-0.06357,0 -0.1151,-0.05153 -0.1151,-0.1151c0,-0.06357 0.05153,-0.1151 0.1151,-0.1151c0.06357,0 0.1151,0.05153 0.1151,0.1151z" fill="url(#color-12)" stroke="none" stroke-width="0.125" stroke-linecap="butt"></path><path d="M245.67556,165.46391c0,0.06357 -0.05153,0.1151 -0.1151,0.1151c-0.06357,0 -0.1151,-0.05153 -0.1151,-0.1151c0,-0.06357 0.05153,-0.1151 0.1151,-0.1151c0.06357,0 0.1151,0.05153 0.1151,0.1151z" fill="url(#color-13)" stroke="none" stroke-width="0.125" stroke-linecap="butt"></path><path d="M245.76019,164.88277c0,0.06357 -0.05153,0.1151 -0.1151,0.1151c-0.06357,0 -0.1151,-0.05153 -0.1151,-0.1151c0,-0.06357 0.05153,-0.1151 0.1151,-0.1151c0.06357,0 0.1151,0.05153 0.1151,0.1151z" fill="url(#color-14)" stroke="none" stroke-width="0.125" stroke-linecap="butt"></path><path d="M245.13956,165.40749c0,0.06357 -0.05153,0.1151 -0.1151,0.1151c-0.06357,0 -0.1151,-0.05153 -0.1151,-0.1151c0,-0.06357 0.05153,-0.1151 0.1151,-0.1151c0.06357,0 0.1151,0.05153 0.1151,0.1151z" fill="url(#color-15)" stroke="none" stroke-width="0.125" stroke-linecap="butt"></path><path d="M245.77035,165.72829l0.06878,-1.05609l0.32866,0.10726l-0.05132,0.93873z" fill="url(#color-16)" stroke="none" stroke-width="0.125" stroke-linecap="butt"></path><path d="M242.3389,165.44669l-0.30074,-0.58565l1.51953,0.28491l0.15828,0.56982z" fill="#572f2a" stroke="#000000" stroke-width="0.125" stroke-linecap="butt"></path><text transform="translate(242.36443,165.25728) rotate(11.38232) scale(0.00854,0.00854)" font-size="40" xml:space="preserve" fill="#41251e" fill-rule="nonzero" stroke="none" stroke-width="0.25" stroke-linecap="butt" stroke-linejoin="miter" stroke-miterlimit="10" stroke-dasharray="" stroke-dashoffset="0" font-family="Sans Serif" font-weight="normal" text-anchor="start" style="mix-blend-mode: normal"><tspan x="0" dy="0">xAmt8</tspan></text><path d="M245.86957,165.41749c0,0 0,-0.07182 0,-0.12245c0,-0.08268 0,-0.32654 0,-0.32654h0.3699c0,0 0.30277,0.07384 0.39467,0.16204c0.02218,0.02129 0.08821,0.09323 0.08875,0.137c0.0006,0.04906 -0.06579,0.06969 -0.06579,0.08192c0,0.0796 -0.41763,0.06803 -0.41763,0.06803z" fill="#a4593e" stroke="#000000" stroke-width="0.125" stroke-linecap="butt"></path><path d="M246.54951,165.21867c0,0.05314 -0.04595,0.09622 -0.10263,0.09622c-0.05668,0 -0.10263,-0.04308 -0.10263,-0.09622c0,-0.05314 0.04595,-0.09622 0.10263,-0.09622c0.05668,0 0.10263,0.04308 0.10263,0.09622z" fill="#ecac8b" stroke="none" stroke-width="0.125" stroke-linecap="butt"></path><path d="M243.71427,165.72543l-0.16678,-0.55165l0.85955,0.0898" fill="none" stroke="#000000" stroke-width="0.125" stroke-linecap="round"></path><path d="M245.83185,164.22885c0,0.24305 -0.16066,0.44009 -0.29621,0.44009c-0.13555,0 -0.31314,-0.19703 -0.31314,-0.44009c0,-0.12319 0.13367,-0.30847 0.16629,-0.46126c0.03174,-0.14867 0.02922,-0.26657 0.09607,-0.26657c0.04815,0 0.08255,0.09503 0.12871,0.18481c0.08379,0.16296 0.21829,0.38632 0.21829,0.54303z" fill="#ffffff" stroke="none" stroke-width="0.125" stroke-linecap="butt"></path><path d="M243.59756,166.36158l2.60667,0.20312l0.82939,0.20312" fill="none" stroke="url(#color-17)" stroke-width="0.125" stroke-linecap="round"></path><path d="M243.62464,166.30403l2.57281,0.22004l0.88187,0.19465l0.09817,-0.03272" fill="none" stroke="#512317" stroke-width="0.125" stroke-linecap="round"></path><g stroke="none" stroke-width="0.125" stroke-linecap="butt"><path d="M243.62059,168.67012l-0.07884,-0.60626l0.25378,-0.033l0.07884,0.60626z" fill="#5a332a"></path><path d="M243.54415,168.63102l0.0737,-0.20013l1.22746,0.45202l-0.0737,0.20013z" fill="url(#color-18)"></path><path d="M244.61652,168.79319l0.54574,-0.20489l0.09578,0.25512l-0.54574,0.20489z" fill="#5a332a"></path><path d="M245.36761,167.96771l0.02391,-0.55398l0.17046,0.00736l-0.02392,0.55398z" fill="#5a332a"></path><path d="M243.54127,168.14512l0.38815,-1.05401l0.2535,0.09335l-0.38815,1.05401z" fill="#5a332a"></path><path d="M243.92798,167.09832l0.41839,-0.1386l0.19045,0.16553l-0.53284,0.20251z" fill="#5a332a"></path><path d="M244.29524,167.04401l0.03439,-0.09339l1.22746,0.45202l-0.03439,0.09339z" fill="#5a332a"></path><path d="M245.06225,168.70523l0.30953,-0.84054l0.17344,0.06387l-0.30953,0.84054z" fill="#5a332a"></path></g></g></g></g></svg>