<svg version="1.1" xmlns="http://www.w3.org/2000/svg" xmlns:xlink="http://www.w3.org/1999/xlink" width="23.66733" height="24.27586" viewBox="0,0,23.66733,24.27586"><defs><radialGradient cx="240" cy="178.60447" r="7.99609" gradientUnits="userSpaceOnUse" id="color-1"><stop offset="0" stop-color="#00f1ff"></stop><stop offset="1" stop-color="#00f1ff" stop-opacity="0"></stop></radialGradient></defs><g transform="translate(-228.41633,-167.81129)"><g data-paper-data="{&quot;isPaintingLayer&quot;:true}" fill-rule="nonzero" stroke-linejoin="miter" stroke-miterlimit="10" stroke-dasharray="" stroke-dashoffset="0" style="mix-blend-mode: normal"><path d="M231.1187,188.25093c0,-4.18152 0,-11.39886 0,-13.78403c0,-1.50746 0.63722,-3.25432 1.3449,-3.25432c2.17771,0 13.51302,0 17.48961,0c0.86386,0 1.38045,1.21145 1.38045,3.00217c0,4.21957 0,11.65544 0,14.03618c0,1.44324 -0.53083,3.08622 -1.416,3.08622c-3.99866,0 -15.22824,0 -17.41851,0c-0.72423,0 -1.38045,-1.25061 -1.38045,-3.08622z" fill-opacity="0.62097" fill="#291800" stroke="#d6cdad" stroke-width="1.5" stroke-linecap="butt"></path><path d="M229.51407,173.66014c0,-0.97884 0,-2.66832 0,-3.22666c0,-0.35288 0.14917,-0.7618 0.31482,-0.7618c0.50978,0 3.16322,0 4.09409,0c0.20222,0 0.32315,0.28359 0.32315,0.70277c0,0.98775 0,2.72838 0,3.28568c0,0.33784 -0.12426,0.72244 -0.33147,0.72244c-0.93604,0 -3.56473,0 -4.07745,0c-0.16953,0 -0.32315,-0.29275 -0.32315,-0.72244z" fill-opacity="0.47425" fill="#000000" stroke="#fff4ce" stroke-width="0" stroke-linecap="butt"></path><path d="M228.66634,172.75187c0,-0.97884 0,-2.66832 0,-3.22666c0,-0.35287 0.14917,-0.76179 0.31482,-0.76179c0.50977,0 3.16322,0 4.09409,0c0.20222,0 0.32315,0.28359 0.32315,0.70277c0,0.98775 0,2.72838 0,3.28568c0,0.33784 -0.12426,0.72244 -0.33147,0.72244c-0.93604,0 -3.56473,0 -4.07745,0c-0.16953,0 -0.32315,-0.29275 -0.32315,-0.72244z" fill-opacity="0.88705" fill="#291800" stroke="#fff4ce" stroke-width="0.5" stroke-linecap="butt"></path><text transform="translate(229.93381,172.74985) scale(0.11353,0.11353)" font-size="40" xml:space="preserve" fill="#fff4ce" fill-rule="nonzero" stroke="none" stroke-width="1" stroke-linecap="butt" stroke-linejoin="miter" stroke-miterlimit="10" stroke-dasharray="" stroke-dashoffset="0" font-family="Sans Serif" font-weight="normal" text-anchor="start" style="mix-blend-mode: normal"><tspan x="0" dy="0">0</tspan></text><text transform="translate(237.8066,177.95428) rotate(-15.84199) scale(0.03361,0.03361)" font-size="40" xml:space="preserve" fill="#000000" fill-rule="nonzero" stroke="none" stroke-width="1" stroke-linecap="butt" stroke-linejoin="miter" stroke-miterlimit="10" stroke-dasharray="" stroke-dashoffset="0" font-family="Serif" font-weight="normal" text-anchor="start" style="mix-blend-mode: normal"><tspan x="0" dy="0">xAmt8</tspan></text><path d="M239.70053,180.40259l-0.5449,-0.55155l0.7189,-0.20399l0.24108,0.84961z" fill="#fde5a1" stroke="none" stroke-width="0" stroke-linecap="butt"></path><path d="M240.55368,185.58063l0.08,0.03305l0.33146,-1.32055l0.55634,1.96064z" fill="#d4c187" stroke="none" stroke-width="0" stroke-linecap="butt"></path><path d="M241.40187,188.69424l0.08,0.03305l0.33146,-1.32055l0.55634,1.96064z" fill="#c0ae7a" stroke="none" stroke-width="0" stroke-linecap="butt"></path><g><path d="M247.99556,178.51228c0.04582,3.97422 -3.49675,7.23728 -7.91259,7.2882c-4.4158,0.05092 -8.03271,-3.12956 -8.07853,-7.10382c-0.04582,-3.97422 3.49675,-7.23728 7.91259,-7.2882c4.4158,-0.05092 8.03271,3.12956 8.07853,7.10382z" fill="url(#color-1)" stroke="none" stroke-width="0" stroke-linecap="butt"></path><text transform="translate(240.07906,182.30568) rotate(-87.70729) scale(0.06736,0.06736)" font-size="40" xml:space="preserve" fill="#232323" fill-rule="nonzero" stroke="none" stroke-width="1" stroke-linecap="butt" stroke-linejoin="miter" stroke-miterlimit="10" stroke-dasharray="" stroke-dashoffset="0" font-family="Sans Serif" font-weight="normal" text-anchor="start" style="mix-blend-mode: normal"><tspan x="0" dy="0">xamt8</tspan></text><path d="M242.90092,177.07378c0.01131,0.98132 0.08544,3.89836 -0.22013,4.67456c-0.55519,1.41037 -5.16993,0.61614 -5.16993,0.61614c0,0 -1.02947,-2.4519 -1.06135,-5.21631c-0.03187,-2.76441 1.38647,-5.02205 3.16797,-5.04259c1.7815,-0.02054 3.25153,2.20379 3.2834,4.96821z" fill="#66fffd" stroke="#000000" stroke-width="0.15" stroke-linecap="butt"></path><path d="M239.6089,181.00536l-0.54241,-8.44844" fill="none" stroke="#000000" stroke-width="0.15" stroke-linecap="round"></path><path d="M241.54434,175.19826l-4.67425,-0.16859" fill="none" stroke="#000000" stroke-width="0.15" stroke-linecap="round"></path><path d="M242.46242,177.6351l-5.78145,0.28914" fill="none" stroke="#000000" stroke-width="0.15" stroke-linecap="round"></path><path d="M244.07865,182.73374c0.00708,0.61432 -1.92936,1.13472 -4.32518,1.16234c-2.39582,0.02762 -4.34375,-0.44799 -4.35084,-1.06231c-0.00708,-0.61432 1.92936,-1.13472 4.32518,-1.16234c2.39582,-0.02762 4.34375,0.44799 4.35084,1.06231z" fill="#8e6939" stroke="none" stroke-width="0" stroke-linecap="butt"></path><path d="M237.44584,186.37008l-0.04104,-3.55939l5.11662,-0.059l0.04104,3.55939z" fill="#8e6939" stroke="none" stroke-width="0" stroke-linecap="butt"></path><path d="M237.69394,188.59214l-0.03078,-2.66955l4.67169,-0.05387l0.03078,2.66955c0,0 -1.9546,-0.82817 -2.77095,-0.81876c-0.73156,0.00844 -1.90074,0.87263 -1.90074,0.87263z" fill="#929292" stroke="none" stroke-width="0" stroke-linecap="butt"></path></g><text transform="translate(242.25185,189.25271) scale(0.16702,0.16702)" font-size="40" xml:space="preserve" fill="#fff4ce" fill-rule="nonzero" stroke="none" stroke-width="1" stroke-linecap="butt" stroke-linejoin="miter" stroke-miterlimit="10" stroke-dasharray="" stroke-dashoffset="0" font-family="Sans Serif" font-weight="normal" text-anchor="start" style="mix-blend-mode: normal"><tspan x="0" dy="0">x2</tspan></text></g></g></svg>