<svg version="1.1" xmlns="http://www.w3.org/2000/svg" xmlns:xlink="http://www.w3.org/1999/xlink" width="83.7678" height="62.69631" viewBox="0,0,83.7678,62.69631"><defs><linearGradient x1="236.79909" y1="177.87556" x2="223.59418" y2="178.33353" gradientUnits="userSpaceOnUse" id="color-1"><stop offset="0" stop-color="#00ffb5"></stop><stop offset="1" stop-color="#00ffb5" stop-opacity="0"></stop></linearGradient><linearGradient x1="244.90689" y1="178.48568" x2="258.11975" y2="178.48568" gradientUnits="userSpaceOnUse" id="color-2"><stop offset="0" stop-color="#00ffb5"></stop><stop offset="1" stop-color="#00ffb5" stop-opacity="0"></stop></linearGradient><radialGradient cx="228.75847" cy="168.5648" r="10.05343" gradientUnits="userSpaceOnUse" id="color-3"><stop offset="0" stop-color="#dadada"></stop><stop offset="1" stop-color="#5d5d5d"></stop></radialGradient><radialGradient cx="239.29358" cy="167.70525" r="4.62018" gradientUnits="userSpaceOnUse" id="color-4"><stop offset="0" stop-color="#505050"></stop><stop offset="1" stop-color="#000000"></stop></radialGradient><radialGradient cx="251.18904" cy="167.95577" r="10.05343" gradientUnits="userSpaceOnUse" id="color-5"><stop offset="0" stop-color="#dadada"></stop><stop offset="1" stop-color="#5d5d5d"></stop></radialGradient></defs><g transform="translate(-198.1161,-146.88454)"><g data-paper-data="{&quot;isPaintingLayer&quot;:true}" fill-rule="nonzero" stroke-linejoin="miter" stroke-miterlimit="10" stroke-dasharray="" stroke-dashoffset="0" style="mix-blend-mode: normal"><path d="M198.1161,209.58085v-62.69631h83.7678v62.69631z" fill-opacity="0.508" fill="#e2ffd8" stroke="none" stroke-width="0.5" stroke-linecap="butt"></path><path d="M223.95038,188.60402l-0.7124,-20.54099l15.77466,-8.58327l-2.8995,40.97272z" data-paper-data="{&quot;index&quot;:null}" fill="url(#color-1)" stroke="none" stroke-width="0.5" stroke-linecap="butt"></path><path d="M246.37498,201.02526l-4.31793,-40.8476l16.06269,8.03135v20.55334z" fill="url(#color-2)" stroke="none" stroke-width="0.5" stroke-linecap="butt"></path><g stroke-width="0.5"><path d="M231.40444,174.95774l-6.8379,-18.90844l2.20003,0.54073l6.41053,17.72666z" fill="url(#color-3)" stroke="none" stroke-linecap="butt"></path><path d="M233.45952,181.56435c0,0 -0.51386,-2.34476 -0.87982,-3.35673c-0.29554,-0.81724 -1.15018,-2.25671 -1.15018,-2.25671l2.36356,-0.85474l2.03,5.61344c0,0 -0.55273,0.86805 -0.96809,1.01826c-0.36631,0.13247 -1.39546,-0.16352 -1.39546,-0.16352z" fill="#c1832d" stroke="#000000" stroke-linecap="butt"></path><path d="M234.747,174.50065c0.16227,0.44872 -0.59904,1.13536 -1.70043,1.53366c-1.10139,0.3983 -2.1258,0.35743 -2.28807,-0.09129c-0.16227,-0.44872 0.59904,-1.13536 1.70043,-1.53366c1.10139,-0.3983 2.1258,-0.35743 2.28807,0.09129z" fill="#c1832d" stroke="none" stroke-linecap="butt"></path><path d="M235.60544,180.45424l-2.24254,0.72746" fill="none" stroke="#906221" stroke-linecap="round"></path><path d="M235.14509,178.95031l-2.0414,0.82176" fill="none" stroke="#906221" stroke-linecap="round"></path><path d="M232.48935,178.07326l1.96754,-0.79505" fill="none" stroke="#906221" stroke-linecap="round"></path><path d="M231.60628,176.55515l2.76584,-0.66614" fill="none" stroke="#906221" stroke-linecap="round"></path><path d="M230.76245,175.6075l3.91464,-1.41566" fill="none" stroke="#906221" stroke-linecap="round"></path></g><g data-paper-data="{&quot;index&quot;:null}" stroke-width="0.5"><g><path d="M249.56463,180.21231c-0.06878,0.01989 -0.25875,-0.13126 -0.25875,-0.13126l-0.33679,-1.16484l0.38715,-0.11194l0.33679,1.16484c0,0 -0.06975,0.22624 -0.1284,0.2432z" fill="#b76000" stroke="none" stroke-linecap="butt"></path><path d="M249.40253,179.20303l-0.2547,0.07364" fill="none" stroke="#994f00" stroke-linecap="round"></path><path d="M249.51251,179.58339l-0.23089,0.07964" fill="none" stroke="#994f00" stroke-linecap="round"></path><path d="M249.53446,180.07935c-0.04415,0.01276 -0.17688,-0.03902 -0.17688,-0.03902l-0.04468,-0.15452l0.26489,-0.07659l0.04468,0.15452c0,0 -0.04386,0.10284 -0.08801,0.1156z" fill="#ffd8e6" stroke="#994f00" stroke-linecap="butt"></path></g><g><path d="M249.10317,180.58545c-0.06878,0.01989 -0.26773,-0.16231 -0.26773,-0.16231l-0.39178,-1.35502l0.38715,-0.11194l0.39178,1.35502c0,0 -0.06077,0.25729 -0.11942,0.27425z" fill="#b76000" stroke="none" stroke-linecap="butt"></path><path d="M248.64037,179.49068l0.2547,-0.07364" fill="none" stroke="#994f00" stroke-linecap="round"></path><path d="M248.79267,179.94108l0.23033,-0.08158" fill="none" stroke="#994f00" stroke-linecap="round"></path><path d="M249.06684,180.43114c-0.04415,0.01276 -0.18081,-0.0526 -0.18081,-0.0526l-0.05197,-0.17975l0.26489,-0.07659l0.05197,0.17975c0,0 -0.03994,0.11643 -0.08409,0.12919z" fill="#ffd8e6" stroke="#994f00" stroke-linecap="butt"></path></g><g><path d="M248.66804,180.94599c-0.06878,0.01989 -0.27371,-0.18301 -0.27371,-0.18301l-0.42844,-1.48181l0.38715,-0.11194l0.42844,1.48181c0,0 -0.05478,0.27799 -0.11344,0.29495z" fill="#b76000" stroke="none" stroke-linecap="butt"></path><path d="M248.42927,179.67149l-0.2547,0.07364" fill="none" stroke="#994f00" stroke-linecap="round"></path><path d="M248.56916,180.15535l-0.22996,0.08287" fill="none" stroke="#994f00" stroke-linecap="round"></path><path d="M248.62759,180.77745c-0.04415,0.01276 -0.18342,-0.06166 -0.18342,-0.06166l-0.05683,-0.19657l0.26489,-0.07659l0.05683,0.19657c0,0 -0.03732,0.12548 -0.08147,0.13825z" fill="#ffd8e6" stroke="#994f00" stroke-linecap="butt"></path></g><g><path d="M248.081,180.78111c-0.06878,0.01989 -0.26174,-0.14161 -0.26174,-0.14161l-0.35512,-1.22824l0.38715,-0.11194l0.35512,1.22824c0,0 -0.06675,0.23659 -0.12541,0.25355z" fill="#b76000" stroke="none" stroke-linecap="butt"></path><path d="M247.64886,179.79243l0.2547,-0.07364" fill="none" stroke="#994f00" stroke-linecap="round"></path><path d="M248.01952,180.11984l-0.2307,0.08028" fill="none" stroke="#994f00" stroke-linecap="round"></path><path d="M248.04877,180.64103c-0.04415,0.01276 -0.17819,-0.04355 -0.17819,-0.04355l-0.04711,-0.16293l0.26489,-0.07659l0.04711,0.16293c0,0 -0.04256,0.10737 -0.0867,0.12013z" fill="#ffd8e6" stroke="#994f00" stroke-linecap="butt"></path></g><g><path d="M247.49195,179.45565l-1.77499,-6.13908l1.90809,-0.55169l1.77499,6.13908z" fill="#b76000" stroke="none" stroke-linecap="butt"></path><path d="M246.95336,173.34364c-0.31607,0.09139 -0.83312,1.00499 -0.83312,1.00499l-0.85152,-2.9451l1.74217,-0.50371l0.85152,2.9451c0,0 -0.6611,-0.57297 -0.90905,-0.50128z" fill="#4a4a4a" stroke="#949494" stroke-linecap="butt"></path><g><path d="M246.94217,180.18174c-0.06787,-0.0165 -0.13269,-0.25353 -0.13269,-0.25353l0.41888,-1.25349l0.38204,0.09287l-0.41888,1.25349c0,0 -0.19148,0.17473 -0.24936,0.16066z" fill="#b76000" stroke="none" stroke-linecap="butt"></path><path d="M247.15945,179.10051l0.25134,0.0611" fill="none" stroke="#994f00" stroke-linecap="round"></path><path d="M247.0385,179.52749l0.23551,0.04342" fill="none" stroke="#994f00" stroke-linecap="round"></path><path d="M246.99673,180.04287c-0.04357,-0.01059 -0.12089,-0.1262 -0.12089,-0.1262l0.05556,-0.16628l0.2614,0.06355l-0.05556,0.16628c0,0 -0.09694,0.07324 -0.14051,0.06265z" fill="#ffd8e6" stroke="#994f00" stroke-linecap="butt"></path></g></g></g><g stroke-width="0.5"><g><path d="M233.00581,179.27824l0.33679,-1.16484l0.38715,0.11194l-0.33679,1.16484c0,0 -0.18997,0.15115 -0.25875,0.13126c-0.05865,-0.01696 -0.1284,-0.2432 -0.1284,-0.2432z" fill="#b76000" stroke="none" stroke-linecap="butt"></path><path d="M233.29631,178.51216l0.2547,0.07364" fill="none" stroke="#994f00" stroke-linecap="round"></path><path d="M233.18633,178.89252l0.23089,0.07964" fill="none" stroke="#994f00" stroke-linecap="round"></path><path d="M233.07636,179.27288l0.04468,-0.15452l0.26489,0.07659l-0.04468,0.15452c0,0 -0.13273,0.05178 -0.17688,0.03902c-0.04415,-0.01276 -0.08801,-0.1156 -0.08801,-0.1156z" fill="#ffd8e6" stroke="#994f00" stroke-linecap="butt"></path></g><g><path d="M233.47624,179.62033l0.39178,-1.35502l0.38715,0.11194l-0.39178,1.35502c0,0 -0.19895,0.1822 -0.26773,0.16231c-0.05865,-0.01696 -0.11942,-0.27425 -0.11942,-0.27425z" fill="#b76000" stroke="none" stroke-linecap="butt"></path><path d="M233.80377,178.72617l0.2547,0.07364" fill="none" stroke="#994f00" stroke-linecap="round"></path><path d="M233.67584,179.16863l0.23033,0.08158" fill="none" stroke="#994f00" stroke-linecap="round"></path><path d="M233.54791,179.61108l0.05197,-0.17975l0.26489,0.07659l-0.05197,0.17975c0,0 -0.13666,0.06537 -0.18081,0.0526c-0.04415,-0.01276 -0.08409,-0.12919 -0.08409,-0.12919z" fill="#ffd8e6" stroke="#994f00" stroke-linecap="butt"></path></g><g><path d="M233.91736,179.96017l0.42844,-1.48181l0.38715,0.11194l-0.42844,1.48181c0,0 -0.20493,0.2029 -0.27371,0.18301c-0.05865,-0.01696 -0.11344,-0.29495 -0.11344,-0.29495z" fill="#b76000" stroke="none" stroke-linecap="butt"></path><path d="M234.52428,179.05427l-0.2547,-0.07364" fill="none" stroke="#994f00" stroke-linecap="round"></path><path d="M234.12968,179.46448l0.22996,0.08287" fill="none" stroke="#994f00" stroke-linecap="round"></path><path d="M233.98978,179.94833l0.05683,-0.19657l0.26489,0.07659l-0.05683,0.19657c0,0 -0.13928,0.07442 -0.18342,0.06166c-0.04415,-0.01276 -0.08147,-0.13825 -0.08147,-0.13825z" fill="#ffd8e6" stroke="#994f00" stroke-linecap="butt"></path></g><g><path d="M234.49243,179.83669l0.35512,-1.22824l0.38715,0.11194l-0.35512,1.22824c0,0 -0.19296,0.1615 -0.26174,0.14161c-0.05865,-0.01696 -0.12541,-0.25355 -0.12541,-0.25355z" fill="#b76000" stroke="none" stroke-linecap="butt"></path><path d="M234.79527,179.02792l0.2547,0.07364" fill="none" stroke="#994f00" stroke-linecap="round"></path><path d="M234.91002,179.50926l-0.2307,-0.08028" fill="none" stroke="#994f00" stroke-linecap="round"></path><path d="M234.56336,179.83003l0.04711,-0.16293l0.26489,0.07659l-0.04711,0.16293c0,0 -0.13404,0.05631 -0.17819,0.04355c-0.04415,-0.01276 -0.0867,-0.12014 -0.0867,-0.12014z" fill="#ffd8e6" stroke="#994f00" stroke-linecap="butt"></path></g><g><path d="M233.29879,178.21309l1.77499,-6.13908l1.90809,0.55169l-1.77499,6.13908z" fill="#b76000" stroke="none" stroke-linecap="butt"></path><path d="M234.83643,173.15405l0.85152,-2.9451l1.74217,0.50371l-0.85152,2.9451c0,0 -0.51705,-0.91361 -0.83312,-1.00499c-0.24795,-0.07169 -0.90905,0.50128 -0.90905,0.50128z" fill="#4a4a4a" stroke="#949494" stroke-linecap="butt"></path><g><path d="M235.50731,179.33021l-0.41888,-1.25349l0.38204,-0.09287l0.41888,1.25349c0,0 -0.06482,0.23704 -0.13269,0.25353c-0.05788,0.01407 -0.24936,-0.16066 -0.24936,-0.16066z" fill="#b76000" stroke="none" stroke-linecap="butt"></path><path d="M235.28805,178.47074l0.25134,-0.0611" fill="none" stroke="#994f00" stroke-linecap="round"></path><path d="M235.66033,178.83663l-0.23551,0.04342" fill="none" stroke="#994f00" stroke-linecap="round"></path><path d="M235.5616,179.28935l-0.05556,-0.16628l0.2614,-0.06355l0.05556,0.16628c0,0 -0.07732,0.1156 -0.12089,0.1262c-0.04357,0.01059 -0.14051,-0.06265 -0.14051,-0.06265z" fill="#ffd8e6" stroke="#994f00" stroke-linecap="butt"></path></g></g></g><path d="M247.02267,170.15207c0,0.98966 -0.76525,1.79194 -1.70924,1.79194c-0.94398,0 -1.70923,-0.80228 -1.70923,-1.79194c0,-0.98966 0.76525,-1.79194 1.70923,-1.79194c0.94398,0 1.70924,0.80228 1.70924,1.79194z" fill="#000000" stroke="#949494" stroke-width="0.5" stroke-linecap="butt"></path><path d="M239.16405,169.97936c0,0.98966 -0.76525,1.79194 -1.70924,1.79194c-0.94398,0 -1.70923,-0.80228 -1.70923,-1.79194c0,-0.98966 0.76525,-1.79194 1.70923,-1.79194c0.94398,0 1.70924,0.80228 1.70924,1.79194z" fill="#000000" stroke="#949494" stroke-width="0.5" stroke-linecap="butt"></path><path d="M237.15753,185.97589c0,-4.47643 0,-12.20277 0,-14.75616c0,-1.61377 0.26601,-3.48383 0.56143,-3.48383c0.90909,0 5.64102,0 7.30105,0c0.36062,0 0.57627,1.29689 0.57627,3.2139c0,4.51716 0,12.47745 0,15.02609c0,1.54503 -0.22159,3.30388 -0.59111,3.30388c-1.66924,0 -6.35704,0 -7.27137,0c-0.30233,0 -0.57627,-1.3388 -0.57627,-3.30388z" fill="#000000" stroke="#fff7d9" stroke-width="0.5" stroke-linecap="butt"></path><path d="M245.16597,168.4249c0,1.19236 -1.67544,2.15896 -3.7422,2.15896c-2.06676,0 -3.7422,-0.9666 -3.7422,-2.15896c0,-1.19236 1.67544,-2.15896 3.7422,-2.15896c2.06676,0 3.7422,0.9666 3.7422,2.15896z" fill="#858585" stroke="#fff7d9" stroke-width="0.5" stroke-linecap="butt"></path><path d="M246.02955,165.48871c0,2.55166 -1.97187,4.62018 -4.40429,4.62018c-2.43242,0 -4.40429,-2.06853 -4.40429,-4.62018c0,-2.55166 1.97187,-4.62018 4.40429,-4.62018c2.43242,0 4.40429,2.06853 4.40429,4.62018z" fill="url(#color-4)" stroke="none" stroke-width="0.5" stroke-linecap="butt"></path><path d="M239.63902,164.19333c0,0 -0.57572,-0.4518 -0.57572,-0.69087c0,-0.21991 0.57572,-0.69087 0.57572,-0.69087h4.20278c0,0 0.46058,0.57572 0.46058,0.80601c0,0.23029 -0.46058,0.57572 -0.46058,0.57572z" fill="#b76000" stroke="none" stroke-width="0.5" stroke-linecap="butt"></path><path d="M240.32989,163.44489c0,-0.09539 0.07733,-0.17272 0.17272,-0.17272c0.09539,0 0.17272,0.07733 0.17272,0.17272c0,0.09539 -0.07733,0.17272 -0.17272,0.17272c-0.09539,0 -0.17272,-0.07733 -0.17272,-0.17272z" fill="#000000" stroke="none" stroke-width="0.5" stroke-linecap="butt"></path><path d="M242.74793,163.50247c0,-0.09539 0.07733,-0.17272 0.17272,-0.17272c0.09539,0 0.17272,0.07733 0.17272,0.17272c0,0.09539 -0.07733,0.17272 -0.17272,0.17272c-0.09539,0 -0.17272,-0.07733 -0.17272,-0.17272z" fill="#000000" stroke="none" stroke-width="0.5" stroke-linecap="butt"></path><path d="M240.60623,169.72028l-0.03454,-0.62178" fill="none" stroke="#8a8a8a" stroke-width="0.5" stroke-linecap="round"></path><path d="M241.33164,169.16759v0.55269" fill="none" stroke="#8a8a8a" stroke-width="0.5" stroke-linecap="round"></path><path d="M242.19523,169.68574l-0.06909,-0.51815" fill="none" stroke="#8a8a8a" stroke-width="0.5" stroke-linecap="round"></path><g stroke-width="0.5"><path d="M238.16348,162.20499l-0.23753,-1.05303l5.39149,-1.21613l0.23752,1.05303z" fill="#cccccc" stroke="none" stroke-linecap="butt"></path><path d="M238.71118,162.12129l-0.29212,-1.13809" fill="none" stroke="#000000" stroke-linecap="round"></path><path d="M240.11125,161.73466l-0.21713,-1.1196" fill="none" stroke="#000000" stroke-linecap="round"></path><path d="M241.44088,160.40782l0.27692,1.0707" fill="none" stroke="#000000" stroke-linecap="round"></path><path d="M242.93418,161.0625l-0.36281,-0.9805" fill="none" stroke="#000000" stroke-linecap="round"></path><path d="M237.96251,161.157l-0.12921,-0.57285c0,0 1.22322,-1.65695 1.96126,-1.82343c0.96423,-0.2175 3.32914,0.6301 3.32914,0.6301l0.12921,0.57285z" fill="#616161" stroke="#000000" stroke-linecap="butt"></path></g><path d="M238.90163,168.84181c0.09988,0.24771 0.08762,0.48611 -0.02739,0.53249c-0.11501,0.04637 -0.28921,-0.11684 -0.3891,-0.36455c-0.09988,-0.24771 -0.08762,-0.48611 0.02739,-0.53249c0.11501,-0.04637 0.28921,0.11684 0.3891,0.36455z" fill="none" stroke="#ffd200" stroke-width="0.5" stroke-linecap="butt"></path><path d="M239.11753,169.38156c0.09988,0.24771 0.08762,0.48611 -0.02739,0.53249c-0.11501,0.04637 -0.28921,-0.11684 -0.3891,-0.36455c-0.09988,-0.24771 -0.08762,-0.48611 0.02739,-0.53249c0.11501,-0.04637 0.28921,0.11684 0.3891,0.36455z" fill="none" stroke="#ffd200" stroke-width="0.5" stroke-linecap="butt"></path><path d="M239.35502,169.98607c0.09988,0.24771 0.08762,0.48611 -0.02739,0.53249c-0.11501,0.04637 -0.28921,-0.11684 -0.3891,-0.36455c-0.09988,-0.24771 -0.08762,-0.48611 0.02739,-0.53249c0.11501,-0.04637 0.28921,0.11684 0.3891,0.36455z" fill="none" stroke="#ffd200" stroke-width="0.5" stroke-linecap="butt"></path><path d="M239.65727,170.56899c0.09988,0.24771 0.08762,0.48611 -0.02739,0.53249c-0.11501,0.04637 -0.28921,-0.11684 -0.3891,-0.36455c-0.09988,-0.24771 -0.08762,-0.48611 0.02739,-0.53249c0.11501,-0.04637 0.28921,0.11684 0.3891,0.36455z" fill="none" stroke="#ffd200" stroke-width="0.5" stroke-linecap="butt"></path><path d="M239.85158,171.13032c0.09988,0.24771 0.08762,0.48611 -0.02739,0.53249c-0.11501,0.04637 -0.28921,-0.11684 -0.3891,-0.36455c-0.09988,-0.24771 -0.08762,-0.48611 0.02739,-0.53249c0.11501,-0.04637 0.28921,0.11684 0.3891,0.36455z" fill="none" stroke="#ffd200" stroke-width="0.5" stroke-linecap="butt"></path><path d="M244.66027,168.64998c0.11501,0.04637 0.12727,0.28478 0.02739,0.53249c-0.09988,0.24771 -0.27409,0.41092 -0.3891,0.36455c-0.11501,-0.04637 -0.12727,-0.28478 -0.02739,-0.53249c0.09988,-0.24771 0.27409,-0.41092 0.3891,-0.36455z" data-paper-data="{&quot;index&quot;:null}" fill="none" stroke="#ffd200" stroke-width="0.5" stroke-linecap="butt"></path><path d="M244.31483,169.2329c0.11501,0.04637 0.12727,0.28478 0.02739,0.53249c-0.09988,0.24771 -0.27409,0.41093 -0.3891,0.36455c-0.11501,-0.04637 -0.12727,-0.28478 -0.02739,-0.53249c0.09988,-0.24771 0.27409,-0.41092 0.3891,-0.36455z" data-paper-data="{&quot;index&quot;:null}" fill="none" stroke="#ffd200" stroke-width="0.5" stroke-linecap="butt"></path><path d="M244.07735,169.83741c0.11501,0.04637 0.12727,0.28478 0.02739,0.53249c-0.09988,0.24771 -0.27409,0.41093 -0.3891,0.36455c-0.11501,-0.04637 -0.12727,-0.28478 -0.02739,-0.53249c0.09988,-0.24771 0.27409,-0.41092 0.3891,-0.36455z" data-paper-data="{&quot;index&quot;:null}" fill="none" stroke="#ffd200" stroke-width="0.5" stroke-linecap="butt"></path><path d="M243.77509,170.42033c0.11501,0.04637 0.12727,0.28478 0.02739,0.53249c-0.09988,0.24771 -0.27409,0.41093 -0.3891,0.36455c-0.11501,-0.04637 -0.12727,-0.28478 -0.02739,-0.53249c0.09988,-0.24771 0.27409,-0.41092 0.3891,-0.36455z" data-paper-data="{&quot;index&quot;:null}" fill="none" stroke="#ffd200" stroke-width="0.5" stroke-linecap="butt"></path><path d="M243.58078,171.00325c0.11501,0.04637 0.12727,0.28478 0.02739,0.53249c-0.09988,0.24771 -0.27409,0.41093 -0.3891,0.36455c-0.11501,-0.04637 -0.12727,-0.28478 -0.02739,-0.53249c0.09988,-0.24771 0.27409,-0.41092 0.3891,-0.36455z" data-paper-data="{&quot;index&quot;:null}" fill="none" stroke="#ffd200" stroke-width="0.5" stroke-linecap="butt"></path><text transform="translate(239.45982,172.08368) scale(0.02637,0.02637)" font-size="40" xml:space="preserve" fill="#ffffff" fill-rule="nonzero" stroke="#ffd200" stroke-width="1" stroke-linecap="butt" stroke-linejoin="miter" stroke-miterlimit="10" stroke-dasharray="" stroke-dashoffset="0" font-family="Sans Serif" font-weight="normal" text-anchor="start" style="mix-blend-mode: normal"><tspan x="0" dy="0">HITMAN</tspan></text><path d="M237.35052,187.66127v-1.29538h7.98817v1.29538z" fill="#906800" stroke="none" stroke-width="0.5" stroke-linecap="butt"></path><path d="M240.5026,187.61809v-1.2522h1.33856v1.2522z" fill="none" stroke="#949494" stroke-width="0.5" stroke-linecap="butt"></path><path d="M237.3937,173.54165l8.20406,9.67216" fill="none" stroke="#949494" stroke-width="0.5" stroke-linecap="round"></path><path d="M235.88481,198.58096l1.48897,-10.5463l2.22327,0.31389l-1.48897,10.5463z" fill="#4163a2" stroke="none" stroke-width="0.5" stroke-linecap="butt"></path><path d="M238.61985,193.21091c-0.0489,0.34633 -0.4969,0.56942 -1.00065,0.4983c-0.50374,-0.07112 -0.87247,-0.40953 -0.82358,-0.75585c0.0489,-0.34633 0.4969,-0.56942 1.00065,-0.4983c0.50374,0.07112 0.87247,0.40953 0.82358,0.75585z" fill="#2e4572" stroke="none" stroke-width="0.5" stroke-linecap="butt"></path><path d="M243.80184,199.42933l-2.2858,-10.40272l2.193,-0.48187l2.2858,10.40272z" fill="#4163a2" stroke="none" stroke-width="0.5" stroke-linecap="butt"></path><path d="M244.49048,193.44238c0.07506,0.34161 -0.26689,0.70705 -0.76378,0.81623c-0.49689,0.10918 -0.96055,-0.07924 -1.03561,-0.42085c-0.07506,-0.34161 0.26689,-0.70705 0.76378,-0.81623c0.49689,-0.10918 0.96054,0.07924 1.03561,0.42085z" fill="#2e4572" stroke="none" stroke-width="0.5" stroke-linecap="butt"></path><g stroke-width="0.5"><path d="M238.35998,200.29051c0.03363,0.39603 -0.96646,0.80431 -2.23375,0.91191c-1.26729,0.10761 -2.3219,-0.12621 -2.35552,-0.52224c-0.03363,-0.39603 0.96646,-0.80431 2.23375,-0.91191c1.26729,-0.10761 2.3219,0.12621 2.35552,0.52224z" fill="#6b4d2b" stroke="none" stroke-linecap="butt"></path><path d="M233.84024,200.81872l-0.20458,-2.40937c0,0 0.97796,0.42125 1.75113,0.05916c0.73273,-0.34315 1.25121,-1.46968 1.65077,-1.5036c0.44608,-0.03788 1.13001,1.05964 1.13001,1.05964l0.20458,2.40937z" fill="#98793d" stroke="none" stroke-linecap="butt"></path><path d="M236.96289,198.12684l0.54552,0.30036" fill="none" stroke="#000000" stroke-linecap="round"></path><path d="M237.06192,197.25174l0.62724,0.58232" fill="none" stroke="#000000" stroke-linecap="round"></path></g><g data-paper-data="{&quot;index&quot;:null}" stroke-width="0.5"><path d="M245.55442,199.6522c1.27046,0.05947 2.28531,0.42952 2.26673,0.82654c-0.01858,0.39702 -1.06356,0.67066 -2.33402,0.61119c-1.27046,-0.05947 -2.28531,-0.42952 -2.26673,-0.82654c0.01858,-0.39702 1.06356,-0.67066 2.33402,-0.61119z" fill="#6b4d2b" stroke="none" stroke-linecap="butt"></path><path d="M243.21367,200.40717l0.11306,-2.4154c0,0 0.64181,-1.12267 1.08901,-1.10173c0.40056,0.01875 0.96139,1.1248 1.70661,1.43992c0.78635,0.33251 1.74763,-0.12553 1.74763,-0.12553l-0.11306,2.4154z" fill="#98793d" stroke="none" stroke-linecap="butt"></path><path d="M244.00069,198.36913l0.53374,-0.32083" fill="none" stroke="#000000" stroke-linecap="round"></path><path d="M244.40228,197.17759l-0.60471,0.60568" fill="none" stroke="#000000" stroke-linecap="round"></path></g><g stroke-width="0.5"><path d="M249.40519,174.64072l6.06081,-19.17166l1.41854,1.76643l-5.68201,17.97343z" fill="url(#color-5)" stroke="none" stroke-linecap="butt"></path><path d="M247.02223,181.13628c0,0 1.01689,-2.17437 1.34126,-3.20043c0.26195,-0.82862 0.45804,-2.49116 0.45804,-2.49116l2.39646,0.7576l-1.7993,5.69158c0,0 -0.96649,0.35345 -1.38763,0.22031c-0.37141,-0.11741 -1.00883,-0.97791 -1.00883,-0.97791z" fill="#c1832d" stroke="#000000" stroke-linecap="butt"></path><path d="M252.33747,176.30908c-0.14383,0.45496 -1.16571,0.53759 -2.28244,0.18456c-1.11672,-0.35304 -1.90542,-1.00805 -1.76158,-1.46301c0.14383,-0.45496 1.16571,-0.53759 2.28244,-0.18456c1.11672,0.35304 1.90542,1.00805 1.76159,1.46301z" fill="#c1832d" stroke="none" stroke-linecap="butt"></path><path d="M247.17805,180.77367l2.223,0.78514" fill="none" stroke="#906221" stroke-linecap="round"></path><path d="M247.82887,179.49669l2.12057,0.58801" fill="none" stroke="#906221" stroke-linecap="round"></path><path d="M248.3734,177.77424l2.04569,0.56434" fill="none" stroke="#906221" stroke-linecap="round"></path><path d="M251.19601,177.18383l-2.60131,-1.15186" fill="none" stroke="#906221" stroke-linecap="round"></path><path d="M248.50048,174.76658l3.96913,1.25478" fill="none" stroke="#906221" stroke-linecap="round"></path></g></g></g></svg>