<svg version="1.1" xmlns="http://www.w3.org/2000/svg" xmlns:xlink="http://www.w3.org/1999/xlink" width="26.85722" height="15.04724" viewBox="0,0,26.85722,15.04724"><defs><linearGradient x1="233.91963" y1="174.36095" x2="237.99506" y2="184.15671" gradientUnits="userSpaceOnUse" id="color-1"><stop offset="0" stop-color="#4066a0"></stop><stop offset="1" stop-color="#1c2c44"></stop></linearGradient><linearGradient x1="249.51081" y1="174.60841" x2="253.58624" y2="184.40416" gradientUnits="userSpaceOnUse" id="color-2"><stop offset="0" stop-color="#4066a0"></stop><stop offset="1" stop-color="#1c2c44"></stop></linearGradient><radialGradient cx="250.63159" cy="180" r="7.04638" gradientUnits="userSpaceOnUse" id="color-3"><stop offset="0" stop-color="#4066a0"></stop><stop offset="1" stop-color="#1c2c44"></stop></radialGradient><radialGradient cx="251.18123" cy="179.9958" r="4.98092" gradientUnits="userSpaceOnUse" id="color-4"><stop offset="0" stop-color="#fff9d8"></stop><stop offset="1" stop-color="#e8dc8e"></stop></radialGradient></defs><g transform="translate(-226.82139,-172.47483)"><g data-paper-data="{&quot;isPaintingLayer&quot;:true}" fill-rule="nonzero" stroke-width="1" stroke-linecap="butt" stroke-linejoin="miter" stroke-miterlimit="10" stroke-dasharray="" stroke-dashoffset="0" style="mix-blend-mode: normal"><path d="M228.85997,176.46597l16.02165,0.32833l-1.82692,5.25738l-15.82186,0.1519z" fill="url(#color-1)" stroke="none"></path><path d="M244.45116,176.71343l5.11919,-3.21662l-0.34793,12.04948l-6.39838,-3.09524z" fill="url(#color-2)" stroke="none"></path><path d="M250.0468,187.02207c-1.36877,-0.11399 -2.21655,-3.35029 -1.89358,-7.22847c0.32297,-3.87818 1.6944,-6.92966 3.06318,-6.81567c1.36877,0.11399 2.21655,3.35029 1.89358,7.22847c-0.32297,3.87818 -1.6944,6.92966 -3.06318,6.81567z" fill="url(#color-3)" stroke="#000000"></path><path d="M250.76785,184.95954c-0.96755,-0.08058 -1.56683,-2.36824 -1.33853,-5.10964c0.22831,-2.7414 1.19774,-4.89842 2.16529,-4.81784c0.96755,0.08058 1.56683,2.36824 1.33853,5.10964c-0.22831,2.7414 -1.19774,4.89842 -2.16529,4.81784z" fill="url(#color-4)" stroke="#000000"></path><path d="M227.53944,181.76483c-0.78892,-0.33842 -0.95294,-1.72131 -0.36635,-3.08877c0.58659,-1.36746 1.70167,-2.20167 2.49059,-1.86325c0.78892,0.33842 0.95294,1.72131 0.36635,3.08877c-0.58659,1.36746 -1.70167,2.20167 -2.49059,1.86325z" fill="#395b8e" stroke="none"></path></g></g></svg>