<svg version="1.1" xmlns="http://www.w3.org/2000/svg" xmlns:xlink="http://www.w3.org/1999/xlink" width="35.91523" height="274.44928" viewBox="0,0,35.91523,274.44928"><defs><radialGradient cx="250.01506" cy="178.01099" r="88.36017" gradientUnits="userSpaceOnUse" id="color-1"><stop offset="0" stop-color="#9800ff" stop-opacity="0.50132"></stop><stop offset="1" stop-color="#9800ff" stop-opacity="0"></stop></radialGradient><radialGradient cx="240" cy="180" r="0" gradientUnits="userSpaceOnUse" id="color-2"><stop offset="0" stop-color="#000000"></stop><stop offset="1" stop-color="#8000c5"></stop></radialGradient><linearGradient x1="250.70422" y1="152.03229" x2="247.93297" y2="165.6098" gradientUnits="userSpaceOnUse" id="color-3"><stop offset="0" stop-color="#8e47b1"></stop><stop offset="1" stop-color="#573e9b"></stop></linearGradient></defs><g transform="translate(-221.5393,-40.78635)"><g data-paper-data="{&quot;isPaintingLayer&quot;:true}" fill-rule="nonzero" stroke-linecap="butt" stroke-linejoin="miter" stroke-miterlimit="10" stroke-dasharray="" stroke-dashoffset="0" style="mix-blend-mode: normal"><path d="M257.1794,178.01099c0,75.78707 -3.20758,137.22464 -7.16434,137.22464c-3.95675,0 -7.16434,-61.43756 -7.16434,-137.22464c0,-75.78707 3.20758,-137.22464 7.16434,-137.22464c3.95675,0 7.16434,61.43756 7.16434,137.22464z" fill="url(#color-1)" stroke="none" stroke-width="0"></path><path d="M244.54324,197.60487l3.31974,-0.09178l1.23507,2.11951c0,0 0.1768,0.3478 -0.50484,0.78982c-0.26614,0.17258 3.51888,2.70003 3.01386,2.86862c-0.18441,0.06156 -2.4004,0.58293 -3.78887,-0.02925c-0.98488,-0.43423 -1.2773,-2.06336 -1.3649,-2.04477c-0.3675,0.07799 -0.52114,0.86231 -0.52114,0.86231z" fill="#bb6fdb" stroke="none" stroke-width="0"></path><path d="M229.482,191.35675l-0.11552,3.319l-2.19243,1.10044c0,0 -0.35815,0.15476 -0.75679,-0.55313c-0.15038,-0.26703 -4.72412,-1.38691 -4.85917,-1.88627c-0.05554,-0.20536 -0.06801,-1.93613 1.1654,-1.94104c0.80919,-0.00322 3.0474,1.73116 3.03423,1.642c-0.05491,-0.37165 -0.82811,-0.57392 -0.82811,-0.57392z" fill="#bb6fdb" stroke="none" stroke-width="0"></path><path d="M244.72678,198.80804l-0.87612,-15.47522l3.74401,-0.21196l0.87612,15.47522z" fill="#4d006e" stroke="none" stroke-width="0"></path><path d="M227.11944,191.76711l13.68932,-7.26998l1.75886,3.31193l-13.68932,7.26998z" fill="#4d006e" stroke="none" stroke-width="0"></path><path d="M254.24555,180.34679l-6.1214,-12.35326l2.23846,-1.31274l6.1214,12.35327z" data-paper-data="{&quot;index&quot;:null}" fill="#aa65c7" stroke="none" stroke-width="0"></path><path d="M254.56895,181.29055l-0.66282,-1.46186l2.10536,-1.22065l0.66282,1.46186z" data-paper-data="{&quot;index&quot;:null}" fill="#8d54a5" stroke="none" stroke-width="0"></path><path d="M254.74122,183.95529l-0.57352,-3.48588l1.19013,-0.28675l0.57352,3.48588z" data-paper-data="{&quot;index&quot;:null}" fill="#8d54a5" stroke="none" stroke-width="0"></path><path d="M253.17665,181.4165l1.06468,-1.85973l0.69865,0.46367l-1.06468,1.85973z" data-paper-data="{&quot;index&quot;:null}" fill="#8d54a5" stroke="none" stroke-width="0"></path><path d="M256.21056,184.36749l-0.97513,-4.13586l0.51244,-0.1667l0.97513,4.13586z" data-paper-data="{&quot;index&quot;:null}" fill="#8d54a5" stroke="none" stroke-width="0"></path><path d="M256.64499,182.52252l-0.74539,-2.66639l0.65087,-0.2453l0.74539,2.66639z" data-paper-data="{&quot;index&quot;:null}" fill="#8d54a5" stroke="none" stroke-width="0"></path><path d="M256.06272,179.66483l0.39283,-0.82153l0.99898,0.544l-0.39283,0.82153z" data-paper-data="{&quot;index&quot;:null}" fill="#8d54a5" stroke="none" stroke-width="0"></path><path d="M230.67303,176.82774l10.47284,-8.9663l1.54498,2.08495l-10.47284,8.9663z" fill="#aa65c7" stroke="none" stroke-width="0"></path><path d="M230.09205,177.70617l1.18269,-1.08518l1.45859,1.94808l-1.18269,1.08518z" fill="#8d54a5" stroke="none" stroke-width="0"></path><path d="M229.36532,181.30813l1.89371,-2.9823l0.98256,0.73021l-1.89371,2.9823z" fill="#8d54a5" stroke="none" stroke-width="0"></path><path d="M231.95776,180.46854l-0.25072,-2.1282l0.82446,-0.1528l0.25072,2.1282z" fill="#8d54a5" stroke="none" stroke-width="0"></path><path d="M228.42841,181.48756l2.51792,-3.42292l0.40612,0.35418l-2.51792,3.42292z" fill="#8d54a5" stroke="none" stroke-width="0"></path><path d="M228.65518,179.49336l1.73068,-2.16101l0.50268,0.48075l-1.73068,2.16101z" fill="#8d54a5" stroke="none" stroke-width="0"></path><path d="M229.68119,177.68218l-0.03946,-0.90976l1.13226,-0.109l0.03946,0.90976z" fill="#8d54a5" stroke="none" stroke-width="0"></path><path d="M239.90806,185.22981l4.1163,-20.16754l7.14974,1.4593l-4.1163,20.16754z" fill-opacity="0.52552" fill="#5e0087" stroke="none" stroke-width="0"></path><path d="M238.43388,184.92892c0,0 -1.06351,-1.83503 -0.65169,-5.05942c0.03668,-0.28722 1.66328,-0.85397 1.69768,-1.15824c0.12915,-1.14244 -0.14649,-2.55589 0.02489,-3.84963c0.14319,-1.08097 0.10538,-4.85514 0.29761,-5.72687c0.10844,-0.49172 2.84457,-1.83801 2.92086,-2.21177c0.5105,-2.50117 0.64355,-6.16246 0.64355,-6.16246l10.24552,2.09117c0,0 -0.06112,3.61633 -1.2197,7.04924c-0.82247,2.43698 -2.75821,4.54062 -3.11126,6.27037c-0.78936,3.86744 -0.60192,10.84878 -0.60192,10.84878c0,0 -1.63437,1.61127 -2.34815,1.57634c-2.15478,-0.10544 -5.47281,-1.98192 -6.80392,-2.25361c-0.80952,-0.16523 -1.09344,-1.4139 -1.09344,-1.4139zM244.36402,181.8764c-0.35437,-0.66994 -3.85517,-0.25013 -2.54865,0.90442c-0.02245,0.03037 -0.03902,0.06664 -0.04725,0.10698c-0.02249,0.11019 0.02416,0.21679 0.10824,0.26601l0.19999,0.12401l0.02871,-0.05335c0.20467,0.15034 0.41332,0.18497 0.75568,0.14047c0.32715,0.11157 0.71585,0.19676 1.1073,0.216c0.06173,0.01856 0.12268,0.03469 0.18247,0.04827l0.22113,0.04513c0.09966,0.02034 0.19881,-0.03548 0.24693,-0.13022c0.56385,-0.1007 1.05974,-0.39962 1.28936,-1.03023c0.23592,-0.64787 -1.7314,-2.35164 -1.98293,-2.91742c0,0 -0.09909,-0.21947 -0.30299,-0.10169c-0.2039,0.11777 -0.10481,0.33724 -0.10481,0.33724c0.33442,0.73089 0.91524,1.24593 1.38557,1.87394c0.03528,0.04711 0.34771,0.52913 0.50703,0.63383c-0.27495,0.13601 -1.09927,0.67733 -1.27858,0.76088c-0.00593,0.00277 -0.01183,0.0055 -0.01767,0.00818c-0.03904,-0.01074 -0.0772,-0.023 -0.11463,-0.03647c-0.11886,-0.06094 -0.24704,-0.12097 -0.37914,-0.17792c-0.04314,-0.02352 -0.08599,-0.04742 -0.1289,-0.07113c0.59186,-0.10592 1.15793,-0.40858 0.87316,-0.94693zM244.54079,171.9821l0.05042,-0.04288c1.0917,-0.50698 2.53144,-1.33326 3.71459,-2.273l0.0099,0.02191l0.40592,-0.23446c0.06066,-0.03433 0.10795,-0.09723 0.12391,-0.17542c0.02599,-0.12732 -0.04034,-0.24984 -0.15004,-0.28461l-0.21597,-0.07189c-0.81877,-0.46132 0.15444,-0.97067 0.61599,-0.86825c0,0 0.22113,0.04513 0.27113,-0.19982c0.05,-0.24495 -0.17114,-0.29008 -0.17114,-0.29008c-0.88089,-0.16851 -2.03502,0.98797 -1.07483,1.70826c-1.2586,0.17102 -2.71377,1.75559 -3.69158,2.20967l-0.13032,0.09033c0,0 -0.19171,0.1413 -0.0707,0.34641c0.121,0.20512 0.31272,0.06383 0.31272,0.06383z" fill="#7300a5" stroke="none" stroke-width="0"></path><path d="M242.72079,182.32917l-0.01616,-0.00155l0.00268,-0.00595l-0.11788,-0.0601c0.25517,0.0254 0.5511,0.05256 0.81411,0.0427c-0.26718,0.0768 -0.54681,0.12373 -0.68275,0.0249z" fill="#7300a5" stroke="none" stroke-width="0"></path><path d="M242.10026,182.41543c-0.23502,-0.16668 -0.15341,-0.20065 0.07773,-0.1899c-0.03506,0.03505 -0.06107,0.0818 -0.07211,0.13586c-0.00371,0.01819 -0.00554,0.03629 -0.00563,0.05404z" fill="#7300a5" stroke="none" stroke-width="0"></path><path d="M244.07463,163.45655l1.69985,-8.3283l8.24665,1.68319l-1.69985,8.3283z" fill-opacity="0.50132" fill="#5e0087" stroke="none" stroke-width="0"></path><path d="" fill="url(#color-2)" stroke="#000000" stroke-width="2"></path><path d="M254.7936,161.46945c-0.59959,2.93763 -3.67119,4.79133 -6.86063,4.14035c-3.18943,-0.65098 -5.28892,-3.56013 -4.68933,-6.49776c0.59959,-2.93763 4.04503,-7.77688 7.23446,-7.1259c3.18943,0.65098 4.91508,6.54567 4.31549,9.48331zM252.44948,160.39546l-0.0853,-0.01246c-0.42093,0.00137 -1.12598,-0.00035 -0.83384,0.41301l-0.36568,-0.01782c-0.10356,-0.00679 -0.20013,0.05167 -0.24299,0.14452l-0.20674,0.02811c-0.10483,0.01176 -0.19479,0.08958 -0.21702,0.19851c-0.02249,0.11019 0.03125,0.21824 0.12505,0.26944l0.42107,0.24282c0.14642,0.10251 0.54797,0.38375 0.63914,0.44699c1.71171,1.18713 -1.63029,0.29126 -1.57794,1.34472c0.00279,0.05619 0.03473,0.11392 0.08637,0.16945c-0.58747,0.08589 -1.00384,0.38905 -1.48311,0.89196c0,0 -0.17222,0.18122 0.009,0.35344c0.18122,0.17222 0.35344,-0.009 0.35344,-0.009c0.48929,-0.51643 0.87521,-0.80865 1.59342,-0.7612l0.26456,0.05073l0.47029,0.09599c0.13528,0.02761 0.26733,-0.05967 0.29495,-0.19495c0.02184,-0.10702 -0.02822,-0.21203 -0.11707,-0.26489l-0.26315,-0.16502l-0.00965,0.0154c-0.06491,-0.06573 -0.13414,-0.1274 -0.20509,-0.17684c0.03471,-0.00418 0.06581,-0.00807 0.09104,-0.01113c0.28263,-0.03427 1.62136,-0.29613 1.58551,-0.80773c-0.03902,-0.55687 -0.74333,-0.94993 -1.2349,-1.25256c0.01566,-0.02484 0.02718,-0.05287 0.0334,-0.08334c0.00033,-0.0016 0.00063,-0.0032 0.00093,-0.0048l0.04648,0.00226l0.25642,0.01526c0.12373,0.00935 0.238,-0.07459 0.26347,-0.19935c0.00666,-0.03261 0.00664,-0.06502 0.00088,-0.09583c0.05184,-0.07458 0.14606,-0.13908 0.21977,-0.13814l-0.01272,0.00235c0,0 0.24495,0.05 0.29495,-0.19495c0.05,-0.24495 -0.19495,-0.29495 -0.19495,-0.29495zM247.0278,160.40376l0.1896,-0.1881c0.08116,-0.1131 0.13154,-0.28724 0.14154,-0.45014c0.03049,0.0031 0.06108,0.00564 0.09174,0.00764l-0.00854,0.07189l0.44053,0.05231c0.12875,0.01666 0.25041,-0.06876 0.27678,-0.19798c0.02038,-0.09986 -0.02184,-0.19796 -0.09975,-0.25359l-0.24889,-0.18603c-0.66032,-0.49333 -2.22025,-2.95667 -0.95233,-2.98264c0,0 0.24926,-0.01922 0.23004,-0.26848c-0.01922,-0.24926 -0.26848,-0.23004 -0.26848,-0.23004c-1.69078,0.18544 -0.69697,2.32117 0.20816,3.40286l-0.24176,-0.0894c-0.01307,-0.00509 -0.02673,-0.00913 -0.04093,-0.01203c-0.13528,-0.02761 -0.26733,0.05967 -0.29495,0.19495c-0.01763,0.08637 0.01158,0.17143 0.07021,0.22882l0.18538,0.18685l0.0514,-0.05099c0.08311,0.12524 0.14165,0.21841 0.10773,0.22104l-0.1896,0.1881c0,0 -0.17748,0.17607 -0.00139,0.35355c0.17607,0.17748 0.35355,0.00139 0.35355,0.00139z" fill="url(#color-3)" stroke="none" stroke-width="0"></path><path d="M236.33676,188.35908l0.88728,-0.23024c0,0 0.55956,0.36998 0.62269,0.61325c0.06245,0.24067 -0.24592,0.83866 -0.24592,0.83866l-0.88728,0.23024z" fill="#9c35c8" stroke="none" stroke-width="0"></path><path d="M245.44151,192.20631l0.23804,-0.88522c0,0 0.60069,-0.3031 0.84079,-0.23853c0.24271,0.06527 0.60774,0.62806 0.60774,0.62806l-0.23804,0.88522z" data-paper-data="{&quot;index&quot;:null}" fill="#9c35c8" stroke="none" stroke-width="0"></path><path d="M251.55319,165.60779c-0.00339,0.00148 -0.00679,0.00295 -0.0102,0.00441" fill="none" stroke="#00e82d" stroke-width="0.15"></path><path d="M248.48722,164.70686c-0.01139,-0.01811 -0.02247,-0.03636 -0.03323,-0.05474" fill="none" stroke="#00e82d" stroke-width="0.15"></path><path d="M248.88316,164.17068c0.44431,-0.92307 1.68081,-1.27901 2.7975,-0.79316c0.27987,0.12176 0.52618,0.28507 0.73232,0.47648" fill="none" stroke="#00e82d" stroke-width="0.15"></path></g></g></svg>