<svg version="1.1" xmlns="http://www.w3.org/2000/svg" xmlns:xlink="http://www.w3.org/1999/xlink" width="10.07928" height="9.60091" viewBox="0,0,10.07928,9.60091"><defs><radialGradient cx="241.42207" cy="177.79634" r="5.03964" gradientUnits="userSpaceOnUse" id="color-1"><stop offset="0" stop-color="#00ffde" stop-opacity="0.39516"></stop><stop offset="1" stop-color="#00b2de" stop-opacity="0.34677"></stop></radialGradient></defs><g transform="translate(-234.96036,-175.19954)"><g data-paper-data="{&quot;isPaintingLayer&quot;:true}" fill="url(#color-1)" fill-rule="nonzero" stroke="#000000" stroke-width="0" stroke-linecap="butt" stroke-linejoin="miter" stroke-miterlimit="10" stroke-dasharray="" stroke-dashoffset="0" style="mix-blend-mode: normal"><path d="M239.15044,175.70903c0.16572,-0.31327 0.49288,-0.50948 0.84955,-0.50948c0.35667,0 0.68388,0.19621 0.84955,0.50948l1.08649,2.0543l2.30556,0.39006c0.35156,0.05952 0.64086,0.30749 0.75108,0.64393c0.11022,0.33644 0.02313,0.70577 -0.22601,0.95886l-1.63409,1.65969l0.33845,2.29536c0.05158,0.35005 -0.09686,0.69956 -0.38537,0.90748c-0.28855,0.20796 -0.66956,0.23993 -0.98929,0.08307l-2.09637,-1.02853l-2.09641,1.02853c-0.31965,0.15686 -0.70069,0.12488 -0.98921,-0.08307c-0.28852,-0.20792 -0.43696,-0.55744 -0.38537,-0.90748l0.33841,-2.29536l-1.63406,-1.65969c-0.24918,-0.25309 -0.33622,-0.62242 -0.226,-0.95886c0.11018,-0.33644 0.39952,-0.58441 0.75108,-0.64393l2.30556,-0.39006z"></path></g></g></svg>