<svg version="1.1" xmlns="http://www.w3.org/2000/svg" xmlns:xlink="http://www.w3.org/1999/xlink" width="103.61442" height="32.30929" viewBox="0,0,103.61442,32.30929"><g transform="translate(-130.69279,-101.26602)"><g data-paper-data="{&quot;isPaintingLayer&quot;:true}" fill-rule="nonzero" stroke-linecap="butt" stroke-linejoin="miter" stroke-miterlimit="10" stroke-dasharray="" stroke-dashoffset="0" style="mix-blend-mode: normal"><text transform="translate(159.44523,119.84749) scale(0.40447,0.40447)" font-size="40" xml:space="preserve" fill="#9966ff" fill-rule="nonzero" stroke="none" stroke-width="1" stroke-linecap="butt" stroke-linejoin="miter" stroke-miterlimit="10" stroke-dasharray="" stroke-dashoffset="0" font-family="Serif" font-weight="normal" text-anchor="start" style="mix-blend-mode: normal"><tspan x="0" dy="0">xamt8</tspan></text><g><path d="M131.69282,127.92721c0,-6.29773 0,-17.16763 0,-20.7599c0,-2.27036 3.20312,-4.90128 6.76038,-4.90128c10.94669,0 67.92586,0 87.91492,0c4.34234,0 6.93909,1.82455 6.93909,4.52152c0,6.35503 0,17.55407 0,21.13966c0,2.17364 -2.6683,4.64811 -7.11778,4.64811c-20.10003,0 -76.54774,0 -87.55755,0c-3.64048,0 -6.93909,-1.88351 -6.93909,-4.64811z" fill-opacity="0.62097" fill="#291800" stroke="#d84646" stroke-width="2"></path><g fill="#ff7a7a"><text transform="translate(155.64096,122.27431) scale(0.40447,0.40447)" font-size="40" xml:space="preserve" fill="#ff7a7a" fill-rule="nonzero" stroke="none" stroke-width="1" stroke-linecap="butt" stroke-linejoin="miter" stroke-miterlimit="10" stroke-dasharray="" stroke-dashoffset="0" font-family="Serif" font-weight="normal" text-anchor="start" style="mix-blend-mode: normal"><tspan x="0" dy="0">Last Door</tspan></text><path d="M140.59922,122.23094v-11.90237l3.938,-1.49506l7.20691,0.07966l1.71416,2.08154l1.43542,0.84387l-3.46605,-0.23894l-6.89252,0.05577l-0.94997,3.9179l1.71544,0.86455l6.49492,-1.16758l-0.40303,-3.50316c0,0 0.16472,-0.88491 0.46992,-0.88225c0.61086,0.00533 2.96694,0.91224 2.96694,0.91224l-0.70799,6.70899l-2.05794,-0.41467l0.99123,-0.9163l-0.80816,-0.6554l-1.63751,0.59468l1.41014,0.96384l2.09343,0.33896l-0.40445,4.29051l-3.07704,-0.86747l0.37254,-1.31529l-3.10911,-2.36191l-4.57387,0.25754l-0.10179,2.62184l1.14974,0.65691l6.2673,0.04298l3.06665,0.93277l-2.45726,1.12337l-8.69685,-0.05602z" stroke="#ffffff" stroke-width="0"></path></g></g></g></g></svg>