<svg version="1.1" xmlns="http://www.w3.org/2000/svg" xmlns:xlink="http://www.w3.org/1999/xlink" width="59.00659" height="76.9049" viewBox="0,0,59.00659,76.9049"><defs><linearGradient x1="255.70923" y1="178.37282" x2="261.84049" y2="178.37282" gradientUnits="userSpaceOnUse" id="color-1"><stop offset="0" stop-color="#8d3800"></stop><stop offset="1" stop-color="#d27a00"></stop></linearGradient><linearGradient x1="216.50597" y1="178.44713" x2="224.11283" y2="178.44713" gradientUnits="userSpaceOnUse" id="color-2"><stop offset="0" stop-color="#d27a00"></stop><stop offset="1" stop-color="#8d3800"></stop></linearGradient></defs><g transform="translate(-210.4967,-141.42255)"><g data-paper-data="{&quot;isPaintingLayer&quot;:true}" fill-rule="nonzero" stroke-width="0.5" stroke-linejoin="miter" stroke-miterlimit="10" stroke-dasharray="" stroke-dashoffset="0" style="mix-blend-mode: normal"><path d="M240.17693,152.46536l-0.71952,53.24453" fill="none" stroke="#652800" stroke-linecap="round"></path><path d="M214.8498,150.16289v-4.31712c0,0 15.0133,-4.17322 22.88076,-4.17322c8.49014,0 26.33446,4.17322 26.33446,4.17322v4.31712z" fill="#652800" stroke="#311300" stroke-linecap="butt"></path><path d="M210.4967,218.32745l4.74766,-13.02214h49.23998l5.01895,13.02214z" fill-opacity="0.45161" fill="#000000" stroke="none" stroke-linecap="butt"></path><g stroke-linecap="butt"><path d="M214.70177,205.98133v-56.158h49.23998v56.158z" fill="#000000" stroke="none"></path><path d="M216.28059,205.86205v-54.97138c0,0 13.31522,0 20.57829,0c8.17131,0 26.04665,0 26.04665,0v54.97138z" fill="none" stroke="#652800"></path></g><g stroke-linecap="butt"><path d="M255.70923,205.36664v-53.98764h6.13126v53.98764z" fill="url(#color-1)" stroke="none"></path><path d="M257.20116,199.56211v-9.78548h3.16697v9.78548z" fill="none" stroke="#7b3100"></path><path d="M257.28237,182.29362v-9.78548h3.16697v9.78548z" fill="none" stroke="#7b3100"></path><path d="M257.32896,164.61464v-9.78548h3.16697v9.78548z" fill="none" stroke="#7b3100"></path><g><path d="M257.02425,180.40599c-0.31189,-0.26675 -0.49761,-1.46871 -0.41482,-2.68466c0.08279,-1.21595 0.40274,-1.98542 0.71462,-1.71867c0.31189,0.26675 0.49761,1.46871 0.41482,2.68466c-0.08279,1.21595 -0.40274,1.98542 -0.71462,1.71867z" fill="#fff4ce" stroke="#e6ddbb"></path><path d="M257.22584,179.19379c-0.19376,-0.16572 -0.30914,-0.91244 -0.25771,-1.66785c0.05143,-0.75541 0.2502,-1.23345 0.44396,-1.06773c0.19376,0.16572 0.30914,0.91244 0.25771,1.66785c-0.05143,0.75541 -0.2502,1.23345 -0.44396,1.06773z" fill="#e6ddbb" stroke="#e6ddbb"></path><path d="M256.09551,178.46978l0.45704,-0.61576l0.17373,1.61985l-0.45704,0.61576z" fill="#e6ddbb" stroke="none"></path><path d="M256.47275,180.42211c-0.16144,0.79587 -0.28683,-0.1004 -0.34356,-0.5156c-0.08851,-0.64789 -0.07207,-1.29238 0.0002,-1.88852l-0.01611,-0.01378l0.02294,-0.33692v0c0.01094,-0.16064 0.05655,-0.25944 0.10187,-0.22067c0.03276,0.02802 0.0564,0.12024 0.06287,0.22988l0.02418,0.37125l-0.00338,0.00276l0.00496,0.02945c0.00012,0.03265 0.00024,0.0653 0.00035,0.09795c0.01172,0.03445 0.02057,0.07953 0.02566,0.13c0.01472,0.05558 0.02324,0.13023 0.02293,0.20884l0.00078,0.33545c0.00974,0.21394 0.12262,1.44016 0.0963,1.56991z" fill="#fff4ce" stroke="none"></path></g></g><g stroke-linecap="butt"><path d="M216.50597,205.44095v-53.98764h7.60687v53.98764z" fill="url(#color-2)" stroke="none"></path><path d="M218.02977,164.84111v-9.78548h3.76741v9.78548z" fill="none" stroke="#7b3100"></path><path d="M218.00205,182.45875v-9.78548h3.76741v9.78548z" fill="none" stroke="#7b3100"></path><path d="M217.92604,199.21297v-9.78548h3.76741v9.78548z" fill="none" stroke="#7b3100"></path><g data-paper-data="{&quot;index&quot;:null}"><path d="M222.01129,178.68731c-0.09849,-1.21595 0.12245,-2.41791 0.49347,-2.68465c0.37102,-0.26675 0.75163,0.50273 0.85011,1.71867c0.09849,1.21595 -0.12245,2.41791 -0.49347,2.68466c-0.37102,0.26675 -0.75163,-0.50273 -0.85011,-1.71867z" fill="#fff4ce" stroke="#e6ddbb"></path><path d="M222.09346,178.12606c-0.06119,-0.75541 0.07607,-1.50214 0.30657,-1.66785c0.2305,-0.16572 0.46695,0.31232 0.52813,1.06773c0.06119,0.75541 -0.07607,1.50214 -0.30657,1.66785c-0.2305,0.16572 -0.46695,-0.31232 -0.52813,-1.06773z" fill="#e6ddbb" stroke="#e6ddbb"></path><path d="M223.75955,180.08963l-0.54369,-0.61576l0.20667,-1.61985l0.54369,0.61576z" fill="#e6ddbb" stroke="none"></path><path d="M223.51746,180.42211c-0.03131,-0.12975 0.10297,-1.35597 0.11456,-1.56991l0.00092,-0.33545c-0.00036,-0.07861 0.00977,-0.15326 0.02728,-0.20884c0.00606,-0.05047 0.01659,-0.09555 0.03053,-0.13c0.00014,-0.03265 0.00028,-0.0653 0.00042,-0.09795l0.0059,-0.02945l-0.00402,-0.00276l0.02876,-0.37125c0.00769,-0.10964 0.03581,-0.20186 0.07479,-0.22988c0.05392,-0.03876 0.10817,0.06003 0.12118,0.22067v0l0.02729,0.33692l-0.01916,0.01378c0.08597,0.59614 0.10553,1.24063 0.00024,1.88852c-0.06748,0.41519 -0.21664,1.31147 -0.40869,0.5156z" fill="#fff4ce" stroke="none"></path></g></g><g><path d="M238.69946,155.91739c3.4001,0 6.15644,2.73057 6.15644,6.0989c0,3.36833 -2.75633,6.0989 -6.15644,6.0989c-3.4001,0 -6.15644,-2.73057 -6.15644,-6.0989c0,-3.36833 2.75633,-6.0989 6.15644,-6.0989z" data-paper-data="{&quot;index&quot;:null}" fill="#f1ad60" stroke="none" stroke-linecap="butt"></path><path d="M232.31431,191.96364v-24.62575h11.73751v24.62575z" data-paper-data="{&quot;index&quot;:null}" fill="#ff6666" stroke="none" stroke-linecap="butt"></path><path d="M244.49135,203.48569l-6.07264,-10.71121l3.10325,-1.75936l6.07264,10.71121z" data-paper-data="{&quot;index&quot;:null}" fill="#66a6ff" stroke="none" stroke-linecap="butt"></path><path d="M231.37469,202.85034l2.15897,-12.12212l3.51202,0.6255l-2.15897,12.12212z" data-paper-data="{&quot;index&quot;:null}" fill="#66a6ff" stroke="none" stroke-linecap="butt"></path><path d="M245.68317,205.58789l-1.5891,-2.80293c0,0 -0.30205,-2.73893 0.25299,-3.05361c0.47548,-0.26957 2.15866,0.77615 3.28985,0.83588c1.21381,0.06409 1.86281,-0.84697 1.86281,-0.84697l1.5891,2.80293z" data-paper-data="{&quot;index&quot;:null}" fill="#a06140" stroke="none" stroke-linecap="butt"></path><path d="M228.87915,204.39291l0.56497,-3.17214c0,0 0.91535,0.64292 2.03853,0.17827c1.04674,-0.43303 2.2856,-1.97959 2.82372,-1.88375c0.62815,0.11187 1.25546,2.79506 1.25546,2.79506l-0.56497,3.17214z" data-paper-data="{&quot;index&quot;:null}" fill="#a06140" stroke="none" stroke-linecap="butt"></path><path d="M263.2871,179.10731l-15.12561,-3.55216l-5.1757,-2.64665c0,0 6.30345,0.2762 9.41576,0.88959c3.15361,0.62153 9.38364,2.81552 9.38364,2.81552z" data-paper-data="{&quot;index&quot;:null}" fill="#f1ad60" stroke="none" stroke-linecap="butt"></path><path d="M220.98732,183.68754c0,0 4.13833,-5.14791 6.49089,-7.33813c2.32173,-2.16154 7.53318,-5.71831 7.53318,-5.71831l-3.00375,4.97697l-10.9825,10.9903z" data-paper-data="{&quot;index&quot;:null}" fill="#f1ad60" stroke="none" stroke-linecap="butt"></path><path d="M243.82024,169.39511c0.57198,0 1.03566,1.41681 1.03566,3.16452c0,1.74772 -0.46368,3.16452 -1.03566,3.16452c-0.57198,0 -1.03566,-1.4168 -1.03566,-3.16452c0,-1.74772 0.46368,-3.16452 1.03566,-3.16452z" data-paper-data="{&quot;index&quot;:null}" fill="#da5757" stroke="none" stroke-linecap="butt"></path><path d="M232.54303,170.43078c0.57198,0 1.03566,1.41681 1.03566,3.16452c0,1.74772 -0.46368,3.16452 -1.03566,3.16452c-0.57198,0 -1.03566,-1.4168 -1.03566,-3.16452c0,-1.74772 0.46368,-3.16452 1.03566,-3.16452z" data-paper-data="{&quot;index&quot;:null}" fill="#da5757" stroke="none" stroke-linecap="butt"></path><path d="M243.31099,157.90336c-0.22619,0.34066 0.05663,1.0518 -0.18111,1.0518c-0.49084,0 0.22219,2.23124 -1.31576,2.01048c-0.33592,-0.04822 -2.69259,-0.89109 -3.02105,-0.90513c-0.73293,-0.03135 -1.66267,1.89816 -2.33908,1.93196c-1.04315,0.05212 -3.27661,1.07 -3.90553,0.13199c-0.54172,-0.80794 0.44575,-3.58814 0.44575,-3.58814l0.08376,-2.26168c0,0 4.03209,-1.08896 5.94739,-1.08896c1.78981,0 5.19349,1.08896 5.19349,1.08896c0,0 -0.75389,1.93402 -0.75389,2.17792c0,0.22995 -0.08377,-0.83766 -0.08377,-0.83766c0,0 0.11706,0.00645 -0.07019,0.28846z" data-paper-data="{&quot;index&quot;:null}" fill="#000000" stroke="none" stroke-linecap="butt"></path><path d="M240.4985,157.0065c1.14807,0.27137 2.03132,0.69208 1.97279,0.9397c-0.05853,0.24762 -1.03667,0.22838 -2.18473,-0.04298c-1.14807,-0.27137 -2.03132,-0.69208 -1.97279,-0.9397c0.05853,-0.24762 1.03667,-0.22838 2.18473,0.04298z" data-paper-data="{&quot;index&quot;:null}" fill="#484343" stroke="none" stroke-linecap="butt"></path><path d="M242.10972,193.68915l-0.16752,1.17273" data-paper-data="{&quot;index&quot;:null}" fill="none" stroke="#0035ea" stroke-linecap="round"></path><path d="M243.13279,195.98179l1.13407,1.24445" data-paper-data="{&quot;index&quot;:null}" fill="none" stroke="#0035ea" stroke-linecap="round"></path><path d="M244.96463,198.83837l-0.80446,-1.75862" data-paper-data="{&quot;index&quot;:null}" fill="none" stroke="#0035ea" stroke-linecap="round"></path><path d="M234.70205,195.13893l-0.39657,2.22664l-0.2881,1.13987" data-paper-data="{&quot;index&quot;:null}" fill="none" stroke="#0035ea" stroke-linecap="round"></path><path d="M234.40325,192.68396l0.2513,2.51298" data-paper-data="{&quot;index&quot;:null}" fill="none" stroke="#0035ea" stroke-linecap="round"></path><path d="M235.82728,195.2807v-1.84285" data-paper-data="{&quot;index&quot;:null}" fill="none" stroke="#0035ea" stroke-linecap="round"></path><path d="M233.2334,197.17463l-0.39994,1.29012" data-paper-data="{&quot;index&quot;:null}" fill="none" stroke="#0035ea" stroke-linecap="round"></path><path d="M240.43441,194.19174l0.08376,-1.59156" data-paper-data="{&quot;index&quot;:null}" fill="none" stroke="#0035ea" stroke-linecap="round"></path><path d="M244.81202,200.94702l0.85264,-0.19452" data-paper-data="{&quot;index&quot;:null}" fill="none" stroke="#000000" stroke-linecap="round"></path><path d="M245.61877,202.03032l-0.82108,0.08034" data-paper-data="{&quot;index&quot;:null}" fill="none" stroke="#000000" stroke-linecap="round"></path><path d="M234.13369,201.67428l-0.836,0.87211" data-paper-data="{&quot;index&quot;:null}" fill="none" stroke="#000000" stroke-linecap="round"></path><path d="M232.4346,202.13741l1.06872,-0.74558" data-paper-data="{&quot;index&quot;:null}" fill="none" stroke="#000000" stroke-linecap="round"></path><path d="M249.28469,176.40533l-4.41308,-1.82267l-0.56463,-3.02836l5.84109,2.76063z" data-paper-data="{&quot;index&quot;:null}" fill="#da5757" stroke="none" stroke-linecap="butt"></path><path d="M227.51469,176.24436l5.29136,-3.70686l-0.04542,3.08021l-4.04215,2.54134z" data-paper-data="{&quot;index&quot;:null}" fill="#da5757" stroke="none" stroke-linecap="butt"></path><path d="M264.01113,177.93465c0,0 0.44695,0.39558 0.40958,0.54315c-0.04574,0.18054 -0.66401,0.46127 -0.66401,0.46127l-2.28109,-0.31779l0.11804,-0.84726l2.41748,0.16065z" data-paper-data="{&quot;index&quot;:null}" fill="#f1ad60" stroke="none" stroke-linecap="butt"></path><path d="M263.57199,176.75173c0,0 0.44695,0.39558 0.40957,0.54315c-0.04573,0.18054 -0.664,0.46127 -0.664,0.46127l-2.28109,-0.31779l0.11804,-0.84727l2.41749,0.16065z" data-paper-data="{&quot;index&quot;:null}" fill="#f1ad60" stroke="none" stroke-linecap="butt"></path><path d="M263.50242,175.52217c0.07576,0.17013 -0.23634,0.77318 -0.23634,0.77318l-1.9888,1.16148l-0.43141,-0.73869l1.99874,-1.36934c0,0 0.59588,0.03429 0.65781,0.17337z" data-paper-data="{&quot;index&quot;:null}" fill="#f1ad60" stroke="none" stroke-linecap="butt"></path><path d="M263.63356,179.8938c0,0 0.04264,0.59535 -0.08731,0.67464c-0.15898,0.09701 -0.79716,-0.13493 -0.79716,-0.13493l-1.40764,-1.82288l0.67707,-0.52284l1.61504,1.80602z" data-paper-data="{&quot;index&quot;:null}" fill="#f1ad60" stroke="none" stroke-linecap="butt"></path><path d="M262.20419,180.33022c0,0 -0.31649,0.50604 -0.46821,0.49349c-0.18561,-0.01534 -0.56441,-0.5789 -0.56441,-0.5789l-0.06252,-2.30226l0.85513,-0.02322l0.24,2.4109z" data-paper-data="{&quot;index&quot;:null}" fill="#f1ad60" stroke="none" stroke-linecap="butt"></path><path d="M219.18957,186.47994l1.96984,-1.41058l0.54684,0.65784l-1.7711,1.47226c0,0 -0.67339,0.08727 -0.80741,-0.04206c-0.10954,-0.10572 0.06183,-0.67746 0.06183,-0.67746z" data-paper-data="{&quot;index&quot;:null}" fill="#f1ad60" stroke="none" stroke-linecap="butt"></path><path d="M219.18317,186.05906c-0.10954,-0.10572 0.06183,-0.67746 0.06183,-0.67746l1.96984,-1.41058l0.54683,0.65784l-1.7711,1.47225c0,0 -0.67339,0.08727 -0.80741,-0.04206z" data-paper-data="{&quot;index&quot;:null}" fill="#f1ad60" stroke="none" stroke-linecap="butt"></path><path d="M218.81814,183.66756l2.4203,0.11036l0.02267,0.85514l-2.30231,0.06104c0,0 -0.58306,-0.34801 -0.60833,-0.53254c-0.02067,-0.15083 0.46767,-0.49401 0.46767,-0.49401z" data-paper-data="{&quot;index&quot;:null}" fill="#f1ad60" stroke="none" stroke-linecap="butt"></path><path d="M220.9727,188.47326c-0.15223,0.0011 -0.42974,-0.52732 -0.42974,-0.52732l0.42075,-2.386l0.85096,0.08751l-0.23559,2.29103c0,0 -0.42012,0.53345 -0.60636,0.53479z" data-paper-data="{&quot;index&quot;:null}" fill="#f1ad60" stroke="none" stroke-linecap="butt"></path><path d="M222.64571,187.73617c-0.12232,0.09063 -0.65799,-0.17264 -0.65799,-0.17264l-1.06662,-2.17539l0.73898,-0.43093l1.1602,1.98955c0,0 -0.02492,0.67856 -0.17457,0.78942z" data-paper-data="{&quot;index&quot;:null}" fill="#f1ad60" stroke="none" stroke-linecap="butt"></path><path d="M235.40231,159.0365c1.12073,-0.36831 2.09367,-0.47093 2.17311,-0.22921c0.07944,0.24173 -0.76469,0.73626 -1.88542,1.10457c-1.12073,0.36831 -2.09367,0.47093 -2.17311,0.22921c-0.07944,-0.24173 0.76469,-0.73626 1.88542,-1.10457z" data-paper-data="{&quot;index&quot;:null}" fill="#484343" stroke="none" stroke-linecap="butt"></path><path d="M243.60553,167.50748l-5.75506,8.68308l-4.84637,-8.88501" fill="none" stroke="#da5757" stroke-linecap="round"></path><path d="M232.60023,191.53739l5.25023,-6.36086l5.85603,6.76472" fill="none" stroke="#da5757" stroke-linecap="round"></path></g></g></g></svg>