<svg version="1.1" xmlns="http://www.w3.org/2000/svg" xmlns:xlink="http://www.w3.org/1999/xlink" width="25.62272" height="60.32095" viewBox="0,0,25.62272,60.32095"><defs><linearGradient x1="229.757" y1="175.19915" x2="237.46766" y2="208.00202" gradientUnits="userSpaceOnUse" id="color-1"><stop offset="0" stop-color="#ae5a00"></stop><stop offset="1" stop-color="#ff7a00"></stop></linearGradient></defs><g transform="translate(-227.8431,-149.48021)"><g data-paper-data="{&quot;isPaintingLayer&quot;:true}" fill-rule="nonzero" stroke-width="0.5" stroke-linejoin="miter" stroke-miterlimit="10" stroke-dasharray="" stroke-dashoffset="0" style="mix-blend-mode: normal"><path d="M247.9118,155.94733c-0.28826,2.96878 -2.71263,5.16275 -5.41499,4.90036c-2.70235,-0.26239 -4.65937,-2.88177 -4.37111,-5.85056c0.28826,-2.96878 2.71263,-5.16275 5.41499,-4.90036c2.70235,0.26239 4.65937,2.88177 4.37111,5.85056z" fill="#ffeecf" stroke="#000000" stroke-linecap="butt"></path><path d="M240.84872,151.86931c0,0 -1.04665,-0.68382 -1.01343,-1.02594c0.04202,-0.43275 1.24541,-1.36315 1.24541,-1.36315l5.69707,0.55317c0,0 1.00106,1.15339 0.9599,1.57728c-0.03525,0.36299 -1.19187,0.81181 -1.19187,0.81181c0,0 -1.67099,0.48703 -2.63532,0.3934c-0.93371,-0.09066 -3.06174,-0.94657 -3.06174,-0.94657z" fill="#bb7711" stroke="none" stroke-linecap="butt"></path><path d="M242.48141,153.73714c-0.04681,0.48211 -0.70186,0.81303 -1.46308,0.73911c-0.76123,-0.07391 -1.34037,-0.52465 -1.29356,-1.00678c0.04681,-0.48211 0.70186,-0.81303 1.46308,-0.73911c0.76123,0.07391 1.34037,0.52465 1.29356,1.00678z" fill="#000000" stroke="none" stroke-linecap="butt"></path><path d="M245.99978,153.90659c-0.04928,0.50748 -0.64461,0.86495 -1.32971,0.79843c-0.6851,-0.06652 -1.20054,-0.53184 -1.15127,-1.03933c0.04928,-0.50748 0.64461,-0.86495 1.32971,-0.79843c0.6851,0.06652 1.20054,0.53184 1.15127,1.03933z" fill="#000000" stroke="none" stroke-linecap="butt"></path><path d="M244.9633,153.94993l-2.81178,-0.27302" fill="none" stroke="#000000" stroke-linecap="round"></path><path d="M245.72662,153.47195l0.45553,-0.67926" fill="none" stroke="#000000" stroke-linecap="round"></path><path d="M240.03504,153.75075l-1.29802,-0.96082" fill="none" stroke="#000000" stroke-linecap="round"></path><path d="M236.47608,180.92034c0.0801,-5.11673 0.21833,-13.94822 0.26403,-16.86685c0.02887,-1.8446 0.42376,-3.97649 0.82514,-3.97021c1.23517,0.01933 7.66443,0.11997 9.9199,0.15528c0.48997,0.00767 0.75977,1.49465 0.72547,3.68586c-0.08082,5.16329 -0.22325,14.26219 -0.26886,17.17539c-0.02764,1.76603 -0.3602,3.77174 -0.86225,3.76389c-2.26799,-0.0355 -8.63728,-0.1352 -9.87958,-0.15465c-0.41077,-0.00643 -0.75902,-1.54255 -0.72386,-3.78871z" fill="#0052ff" stroke="#d6ffcf" stroke-linecap="butt"></path><path d="M240.47402,185.00165c0,0 0.84673,-17.03248 0.74366,-21.04565c-0.04074,-1.58615 -1.37469,-3.52444 -1.37469,-3.52444l5.54143,-0.09792c0,0 -1.84905,2.64164 -1.92167,3.77265c-0.23058,3.59105 0.33441,20.94738 0.33441,20.94738z" fill="#ffffff" stroke="none" stroke-linecap="butt"></path><path d="M235.85929,197.51875l2.85941,-13.64396l3.07215,0.64384l-2.85941,13.64396z" fill="#d69100" stroke="none" stroke-linecap="butt"></path><path d="M247.46755,197.97953l-3.89959,-13.67208l2.48583,-0.70902l3.89959,13.67208z" fill="#d69100" stroke="none" stroke-linecap="butt"></path><path d="M233.29306,198.96177l0.75746,-3.61429c0,0 0.92615,0.56616 1.89104,0.36645c1.06787,-0.22103 2.21007,-1.20482 2.78697,-1.08392c0.67248,0.14093 1.28557,1.96728 1.28557,1.96728l-0.75746,3.61429z" fill="#7c5500" stroke="none" stroke-linecap="butt"></path><path d="M238.16745,194.60674l1.30451,1.87694" fill="none" stroke="#000000" stroke-linecap="round"></path><path d="M238.46938,197.21681l-1.14274,-1.74871" fill="none" stroke="#000000" stroke-linecap="round"></path><path d="M247.60636,199.47597l-1.01288,-3.55119c0,0 0.48151,-1.86537 1.14223,-2.05382c0.56682,-0.16167 1.77617,0.73831 2.85707,0.88273c0.97665,0.13051 1.86015,-0.50016 1.86015,-0.50016l1.01288,3.55119z" data-paper-data="{&quot;index&quot;:null}" fill="#7c5500" stroke="none" stroke-linecap="butt"></path><path d="M248.29372,193.8078l-1.16755,1.96505" data-paper-data="{&quot;index&quot;:null}" fill="none" stroke="#000000" stroke-linecap="round"></path><path d="M248.1784,196.43275l1.01533,-1.82563" data-paper-data="{&quot;index&quot;:null}" fill="none" stroke="#000000" stroke-linecap="round"></path><path d="M247.75006,181.5252l-2.6535,-13.12082l2.53368,-0.5124l2.6535,13.12082z" fill="#ffeecf" stroke="none" stroke-linecap="butt"></path><path d="M227.8431,175.01853l10.23033,-8.63351l1.66715,1.97552l-10.23033,8.63351z" fill="#ffeecf" stroke="none" stroke-linecap="butt"></path><path d="M236.97337,208.11821l-7.71066,-32.80287l0.98859,-0.23238l7.71066,32.80287z" fill="url(#color-1)" stroke="none" stroke-linecap="butt"></path><path d="M234.40943,208.63896l-0.32627,-1.38803c0,0 1.66313,1.16532 2.2552,1.02615c0.56317,-0.13238 1.21487,-1.84183 1.21487,-1.84183l0.32627,1.38803c0,0 -0.75305,1.82482 -1.36799,1.96937c-0.52867,0.12427 -2.1021,-1.15369 -2.1021,-1.15369z" fill="#703a00" stroke="none" stroke-linecap="butt"></path></g></g></svg>