<svg version="1.1" xmlns="http://www.w3.org/2000/svg" xmlns:xlink="http://www.w3.org/1999/xlink" width="80.44647" height="164.86946" viewBox="0,0,80.44647,164.86946"><defs><linearGradient x1="259.90067" y1="119.32092" x2="220.80233" y2="119.32092" gradientUnits="userSpaceOnUse" id="color-1"><stop offset="0" stop-color="#ffe108"></stop><stop offset="1" stop-color="#ffc908"></stop></linearGradient><linearGradient x1="258.69355" y1="119.46993" x2="239.171" y2="119.46993" gradientUnits="userSpaceOnUse" id="color-2"><stop offset="0" stop-color="#ffe108"></stop><stop offset="1" stop-color="#ffe108" stop-opacity="0"></stop></linearGradient><radialGradient cx="240.18044" cy="104.82488" r="10.29948" gradientUnits="userSpaceOnUse" id="color-3"><stop offset="0" stop-color="#fff399"></stop><stop offset="1" stop-color="#fff399" stop-opacity="0"></stop></radialGradient><linearGradient x1="238.72445" y1="235.69892" x2="221.02855" y2="235.76856" gradientUnits="userSpaceOnUse" id="color-4"><stop offset="0" stop-color="#08ff7d"></stop><stop offset="1" stop-color="#06ce5c"></stop></linearGradient><linearGradient x1="260.06892" y1="236.06103" x2="242.67726" y2="236.06103" gradientUnits="userSpaceOnUse" id="color-5"><stop offset="0" stop-color="#08ff7d"></stop><stop offset="1" stop-color="#06ce5c"></stop></linearGradient></defs><g transform="translate(-199.77677,-97.5766)"><g data-paper-data="{&quot;isPaintingLayer&quot;:true}" fill-rule="nonzero" stroke-linejoin="miter" stroke-miterlimit="10" stroke-dasharray="" stroke-dashoffset="0" style="mix-blend-mode: normal"><path d="M217.55419,204.44655l-0.24138,-72.62997h9.44088l-4.87701,78.0084z" data-paper-data="{&quot;index&quot;:null}" fill="#0067b5" stroke="none" stroke-width="0" stroke-linecap="butt"></path><path d="M220.93707,143.61757l-3.89862,-12.09606l40.61097,1.1801l2.92403,10.91596z" data-paper-data="{&quot;index&quot;:null}" fill="#0067b5" stroke="none" stroke-width="0" stroke-linecap="butt"></path><path d="M220.49524,210.81129v-67.20951h40.38622v67.20951z" data-paper-data="{&quot;index&quot;:null}" fill="#0090ff" stroke="none" stroke-width="0" stroke-linecap="butt"></path><path d="M259.48729,199.53332l0.87238,-53.29699l16.51048,0.27027c0,0 3.1535,1.45082 3.11807,3.61438c-0.10029,6.12537 0.71003,36.12599 -0.20733,46.30032c-0.19139,2.12256 -3.78298,3.38224 -3.78298,3.38224z" data-paper-data="{&quot;index&quot;:null}" fill="#ffe108" stroke="none" stroke-width="0" stroke-linecap="butt"></path><path d="M219.52783,110.35553c0,0 0.14134,-7.95113 6.09594,-10.43727c4.68474,-1.95598 19.69937,-3.14765 28.22839,-0.61904c6.17896,1.83182 7.11059,6.80351 7.11059,9.14192c0,5.56642 -1.16691,21.20811 -1.16691,21.20811c0,0 0.71348,5.06544 -3.15523,7.74351c-3.89936,2.69928 -12.39404,3.01104 -15.69307,2.95769c-4.03204,-0.06516 -12.60536,-0.35167 -17.393,-3.5911c-3.22954,-2.18521 -3.74543,-7.7565 -3.74543,-7.7565z" fill="#d8bf06" stroke="none" stroke-width="0" stroke-linecap="butt"></path><text transform="translate(259.89363,123.0288) rotate(-180) scale(0.31791,-0.31786)" font-size="40" xml:space="preserve" fill="#fbff66" fill-rule="nonzero" stroke="none" stroke-width="1" stroke-linecap="butt" stroke-linejoin="miter" stroke-miterlimit="10" stroke-dasharray="" stroke-dashoffset="0" font-family="Sans Serif" font-weight="normal" text-anchor="start" style="mix-blend-mode: normal"><tspan x="0" dy="0">xamt8</tspan></text><path d="M220.80233,111.00547c0,0 0.13332,-7.55365 5.75214,-9.91553c4.42057,-1.8582 18.58845,-2.99032 26.63653,-0.58808c5.83054,1.74028 6.70961,6.46345 6.70961,8.68498c0,5.28817 -1.10112,20.14793 -1.10112,20.14793c0,0 0.67332,4.81224 -2.97723,7.35641c-3.67943,2.56429 -11.69508,2.86055 -14.80814,2.80986c-3.80468,-0.06191 -11.89449,-0.33405 -16.41215,-3.41157c-3.0474,-2.07596 -3.53421,-7.36871 -3.53421,-7.36871z" fill="url(#color-1)" stroke="none" stroke-width="0" stroke-linecap="butt"></path><path d="M239.55485,99.28829c4.43513,-0.04493 8.99064,0.33631 12.42903,1.36258c5.83054,1.74028 6.70961,6.46345 6.70961,8.68498c0,5.28817 -1.10112,20.14793 -1.10112,20.14793c0,0 0.67332,4.81224 -2.97728,7.35646c-3.67943,2.56429 -11.69508,2.86055 -14.80814,2.80986c-0.64527,-0.01053 -0.91584,-40.35507 -0.25211,-40.36186z" fill="url(#color-2)" stroke="none" stroke-width="0" stroke-linecap="butt"></path><path d="M228.46911,98.65326c-1.55239,-2.20125 7.15365,-0.53557 14.35292,0.65383c7.16994,1.18458 14.21361,2.48978 12.94866,3.30537c-2.42349,1.56258 -8.49153,3.98199 -8.49153,3.98199c0,0 -3.0755,4.2717 -6.36665,4.4497c-1.76312,0.09532 -3.35424,-2.85553 -5.09069,-4.08258c-1.40446,-0.99251 -5.15481,-7.06108 -5.78152,-7.94971z" fill="url(#color-3)" stroke="none" stroke-width="0" stroke-linecap="butt"></path><path d="M220.28373,143.8001l-3.37934,-9.65539" data-paper-data="{&quot;index&quot;:null}" fill="none" stroke="#003e6d" stroke-width="0.15" stroke-linecap="round"></path><g stroke="#000000"><path d="M221.10532,262.13079l-0.15359,-52.7244l17.6959,-0.06963l0.15359,52.7244z" data-paper-data="{&quot;index&quot;:null}" fill="url(#color-4)" stroke-width="0" stroke-linecap="butt"></path><path d="M239.14251,210.22866l-0.7058,51.78008l-17.41962,-0.26333l0.70201,-53.10767" data-paper-data="{&quot;index&quot;:null}" fill="none" stroke-width="0.15" stroke-linecap="round"></path></g><g stroke="#000000"><path d="M242.67726,262.4234v-52.7247h17.39162v52.7247z" data-paper-data="{&quot;index&quot;:null}" fill="url(#color-5)" stroke-width="0" stroke-linecap="butt"></path><path d="M260.55268,210.59259l-0.84192,51.77702l-17.11918,-0.33189l0.84197,-53.10462" data-paper-data="{&quot;index&quot;:null}" fill="none" stroke-width="0.15" stroke-linecap="round"></path></g><path d="M204.00209,199.80355c0,0 -3.59159,-1.25968 -3.78298,-3.38224c-0.91736,-10.17433 -0.10704,-40.17495 -0.20733,-46.30032c-0.03543,-2.16356 3.11807,-3.61438 3.11807,-3.61438l16.51048,-0.27027l0.87238,53.29699z" data-paper-data="{&quot;index&quot;:null}" fill="#ffe108" stroke="none" stroke-width="0" stroke-linecap="butt"></path></g></g></svg>