<svg version="1.1" xmlns="http://www.w3.org/2000/svg" xmlns:xlink="http://www.w3.org/1999/xlink" width="114.51442" height="86.73937" viewBox="0,0,114.51442,86.73937"><defs><radialGradient cx="196.632" cy="160.54579" r="0.0003" gradientUnits="userSpaceOnUse" id="color-1"><stop offset="0" stop-color="#c47f4e"></stop><stop offset="1" stop-color="#99693d"></stop></radialGradient><linearGradient x1="263.00289" y1="217.56903" x2="260.41397" y2="217.56903" gradientUnits="userSpaceOnUse" id="color-2"><stop offset="0" stop-color="#ff0000"></stop><stop offset="1" stop-color="#540000"></stop></linearGradient><linearGradient x1="242.38398" y1="218.37037" x2="244.9729" y2="218.37037" gradientUnits="userSpaceOnUse" id="color-3"><stop offset="0" stop-color="#ff0000"></stop><stop offset="1" stop-color="#540000"></stop></linearGradient><linearGradient x1="252.50852" y1="223.13213" x2="252.50852" y2="220.41993" gradientUnits="userSpaceOnUse" id="color-4"><stop offset="0" stop-color="#ff0000"></stop><stop offset="1" stop-color="#540000"></stop></linearGradient><linearGradient x1="233.31139" y1="153.84598" x2="233.31139" y2="172.60694" gradientUnits="userSpaceOnUse" id="color-5"><stop offset="0" stop-color="#7400ff" stop-opacity="0.37903"></stop><stop offset="1" stop-color="#080000"></stop></linearGradient><linearGradient x1="252.63237" y1="212.83594" x2="252.63237" y2="194.07499" gradientUnits="userSpaceOnUse" id="color-6"><stop offset="0" stop-color="#7400ff" stop-opacity="0.37903"></stop><stop offset="1" stop-color="#080000"></stop></linearGradient></defs><g transform="translate(-182.74279,-137.7209)"><g data-paper-data="{&quot;isPaintingLayer&quot;:true}" fill-rule="nonzero" stroke-linejoin="miter" stroke-miterlimit="10" stroke-dasharray="" stroke-dashoffset="0" style="mix-blend-mode: normal"><path d="M183.82427,223.72793v-86.00195h3.29871v86.00195z" fill="#9b6425" stroke="none" stroke-width="0" stroke-linecap="butt"></path><path d="M183.49022,224.46027v-11.17699h113.27072v11.17699z" fill="#9b6425" stroke="none" stroke-width="NaN" stroke-linecap="butt"></path><path d="M183.34365,154.64647v-16.92557h113.91356v16.92557z" fill="#b77a4b" stroke="none" stroke-width="0" stroke-linecap="butt"></path><path d="" data-paper-data="{&quot;index&quot;:null}" fill="#000000" stroke="none" stroke-width="0.25" stroke-linecap="butt"></path><path d="M186.81577,173.59988l-3.38252,-0.00559c0.03135,-0.09346 0.05689,-0.18831 0.07261,-0.28552c0.13335,-0.8248 0.16032,-1.66641 0.25458,-2.50147c0.07205,-0.63828 0.45874,-1.22668 0.4696,-1.86892c0.0106,-0.62697 -0.21041,-2.44344 -0.36672,-3.68108l2.96623,0.0049z" data-paper-data="{&quot;index&quot;:null}" fill="#000000" stroke="none" stroke-width="0.25" stroke-linecap="butt"></path><path d="M185.92598,173.83246l-1.23981,-0.00205l0.00073,-0.44279l1.23981,0.00205z" fill="#e6e6e6" stroke="#000000" stroke-width="0.25" stroke-linecap="butt"></path><path d="" fill="#e6e6e6" stroke="#000000" stroke-width="0.25" stroke-linecap="butt"></path><path d="M186.80156,182.19108l-4.05877,-0.00671c0.17775,-2.04197 0.24809,-4.09246 0.32174,-6.14088c0.01583,-0.44016 -0.08535,-0.88405 -0.02992,-1.32099c0.0388,-0.30586 0.18044,-0.58775 0.30126,-0.87485l3.47947,0.00575z" fill="#8e6544" stroke="none" stroke-width="0.25" stroke-linecap="butt"></path><path d="M183.03433,174.7248l2.40418,0.00397l-0.01118,6.7579l-2.62752,-0.00435" fill="none" stroke="#513a27" stroke-width="0.25" stroke-linecap="butt"></path><path d="" fill="#ab7a52" stroke="none" stroke-width="0.25" stroke-linecap="butt"></path><path d="" fill="#ab7a52" stroke="none" stroke-width="0.25" stroke-linecap="butt"></path><path d="" fill="#dadada" stroke="none" stroke-width="0.25" stroke-linecap="butt"></path><path d="" fill="#fff4ce" stroke="#e6ddbb" stroke-width="0.25" stroke-linecap="butt"></path><path d="" fill="#e6ddbb" stroke="#e6ddbb" stroke-width="0.25" stroke-linecap="butt"></path><path d="" fill="#e6ddbb" stroke="none" stroke-width="0.25" stroke-linecap="butt"></path><path d="" fill="#fff4ce" stroke="none" stroke-width="0.25" stroke-linecap="butt"></path><path d="M209.61969,182.63602z" fill="url(#color-1)" stroke="none" stroke-width="0" stroke-linecap="butt"></path><path d="M291.73389,213.62028v-59.37669h5.30149v59.37669z" fill="#de876b" stroke="none" stroke-width="0" stroke-linecap="butt"></path><g stroke="#ffffff" stroke-width="0.25"><g><path d="M227.52887,153.6237v-11.13313c0,0 2.61375,-4.28418 4.3791,-4.28418c1.68686,0 5.98826,4.28418 5.98826,4.28418v11.13313z" fill="#1f85b1" stroke-linecap="butt"></path><path d="M237.36607,146.31942l-9.24815,0.05891" fill="none" stroke-linecap="round"></path><path d="M233.18379,146.84958l5.06587,6.42069" fill="none" stroke-linecap="round"></path></g><path d="M232.35911,145.73037l-0.33333,-6.46367" fill="none" stroke-linecap="round"></path><path d="M232.00568,146.84958l-3.53433,6.00835" fill="none" stroke-linecap="round"></path></g><g data-paper-data="{&quot;index&quot;:null}"><text transform="translate(254.65054,217.63838) rotate(-180) scale(0.03693,0.03693)" font-size="40" xml:space="preserve" fill="#ffffff" fill-rule="nonzero" stroke="none" stroke-width="0.3" stroke-linecap="butt" stroke-linejoin="miter" stroke-miterlimit="10" stroke-dasharray="" stroke-dashoffset="0" font-family="Sans Serif" font-weight="normal" text-anchor="start" style="mix-blend-mode: normal"><tspan x="0" dy="0">xAmt8</tspan></text><path d="M262.20156,213.90139v8.01333h-19.60184v-8.01333z" fill="#1f85b1" stroke="#ffffff" stroke-width="0.15" stroke-linecap="butt"></path><path d="M242.5689,217.95429l19.29363,-0.12328" fill="none" stroke="#ffffff" stroke-width="0.15" stroke-linecap="round"></path><path d="M252.339,218.07757l0.12328,3.48272" fill="none" stroke="#ffffff" stroke-width="0.15" stroke-linecap="round"></path><path d="M260.66054,220.9747l-0.18493,-0.55477" fill="none" stroke="#00ffff" stroke-width="0.15" stroke-linecap="round"></path><path d="M260.84546,219.77269l-0.36985,-0.52394" fill="none" stroke="#00ffff" stroke-width="0.15" stroke-linecap="round"></path><path d="M258.349,219.09465l-0.24657,-0.36984" fill="none" stroke="#00ffff" stroke-width="0.15" stroke-linecap="round"></path><path d="M257.27028,220.66649l-0.12328,-0.4623" fill="none" stroke="#00ffff" stroke-width="0.15" stroke-linecap="round"></path><path d="M254.95874,221.1288l-0.46231,-0.40067" fill="none" stroke="#00ffff" stroke-width="0.15" stroke-linecap="round"></path><path d="M254.55807,219.24875l0.18493,0.40067" fill="none" stroke="#00ffff" stroke-width="0.15" stroke-linecap="round"></path><path d="M259.551,215.98178l0.24656,0.52394" fill="none" stroke="#00ffff" stroke-width="0.15" stroke-linecap="round"></path><path d="M258.349,214.47157l0.33902,0.58559" fill="none" stroke="#00ffff" stroke-width="0.15" stroke-linecap="round"></path><path d="M256.65387,215.8585l0.24656,0.52394" fill="none" stroke="#00ffff" stroke-width="0.15" stroke-linecap="round"></path><path d="M255.32859,214.62568l-0.18492,-0.36985" fill="none" stroke="#00ffff" stroke-width="0.15" stroke-linecap="round"></path><path d="M251.93834,216.90639l-0.33902,-0.49313" fill="none" stroke="#00ffff" stroke-width="0.15" stroke-linecap="round"></path><path d="M249.935,215.51947l0.18493,0.33903" fill="none" stroke="#00ffff" stroke-width="0.15" stroke-linecap="round"></path><path d="M246.72967,215.45783l0.24656,0.30821" fill="none" stroke="#00ffff" stroke-width="0.15" stroke-linecap="round"></path><path d="M245.18864,216.44408l0.40067,0.49313" fill="none" stroke="#00ffff" stroke-width="0.15" stroke-linecap="round"></path><path d="M244.04829,214.93389l0.33902,0.36984" fill="none" stroke="#00ffff" stroke-width="0.15" stroke-linecap="round"></path><path d="M249.81172,220.48157l-0.27738,-0.49312" fill="none" stroke="#00ffff" stroke-width="0.15" stroke-linecap="round"></path><path d="M247.46936,219.09465l-0.06164,-0.3082" fill="none" stroke="#00ffff" stroke-width="0.15" stroke-linecap="round"></path><path d="M245.77423,220.60485l-0.21574,-0.18493" fill="none" stroke="#00ffff" stroke-width="0.15" stroke-linecap="round"></path><path d="M244.38731,219.34121l0.09246,0.24657" fill="none" stroke="#00ffff" stroke-width="0.15" stroke-linecap="round"></path><g stroke-width="0.15" stroke-linecap="butt"><path d="M263.00289,213.17711v8.78384l-4.90046,-0.58559c0,0 1.53547,-0.88845 1.76473,-1.70157c0.41935,-1.48732 0.54681,-6.49668 0.54681,-6.49668z" fill="url(#color-2)" stroke="#33fffe"></path><path d="M244.9729,213.97845c0,0 0.12746,5.00936 0.54682,6.49668c0.22926,0.81313 1.76472,1.70157 1.76472,1.70157l-4.90046,0.58559v-8.78384z" data-paper-data="{&quot;index&quot;:null}" fill="url(#color-3)" stroke="#33fffe"></path><path d="M262.23238,220.41993c0,0 0.80133,1.10118 0.80133,1.57185c0,0.42965 -0.80133,1.14036 -0.80133,1.14036h-19.44773c0,0 -0.64723,-0.67497 -0.64723,-1.07872c0,-0.48525 0.64723,-1.63349 0.64723,-1.63349c0,0 6.28999,0.86298 9.52354,0.86298c3.24896,0 9.9242,-0.86298 9.9242,-0.86298z" fill="url(#color-4)" stroke="none"></path></g></g><path d="M230.77845,172.60694l0.07854,-20.64593l2.47403,-0.31417l2.51329,20.96009z" fill="url(#color-5)" stroke="none" stroke-width="0" stroke-linecap="butt"></path><path d="M230.70482,173.60492v-1.17811h5.24258v1.17811z" fill="#000000" stroke="none" stroke-width="0" stroke-linecap="butt"></path><path d="M230.76373,175.6077v-2.59184h1.23701v2.59184z" fill="#000000" stroke="none" stroke-width="0" stroke-linecap="butt"></path><path d="M232.29527,176.37347v-3.35761h1.23701v3.35761z" fill="#000000" stroke="none" stroke-width="0" stroke-linecap="butt"></path><path d="M233.76791,177.49268v-4.3001h1.23702v4.3001z" fill="#000000" stroke="none" stroke-width="0" stroke-linecap="butt"></path><path d="M235.12273,175.72551v-2.29731h0.94249v2.29731z" fill="#000000" stroke="none" stroke-width="0" stroke-linecap="butt"></path><path d="M235.14362,173.40666l0.66861,-0.82291l1.64583,1.33723l-0.66862,0.82291z" fill="#000000" stroke="none" stroke-width="0" stroke-linecap="butt"></path><path d="M255.16531,194.07499l-2.06169,22.00076l-2.53293,0.47124l-0.47125,-22.472z" data-paper-data="{&quot;index&quot;:null}" fill="url(#color-6)" stroke="none" stroke-width="0" stroke-linecap="butt"></path><path d="M255.2684,193.07701v1.17811h-5.24259v-1.17811z" data-paper-data="{&quot;index&quot;:null}" fill="#000000" stroke="none" stroke-width="0" stroke-linecap="butt"></path><path d="M251.32173,191.07422v2.59184h-1.23701v-2.59184z" data-paper-data="{&quot;index&quot;:null}" fill="#000000" stroke="none" stroke-width="0" stroke-linecap="butt"></path><path d="M252.85327,190.30845v3.35761h-1.23702v-3.35761z" data-paper-data="{&quot;index&quot;:null}" fill="#000000" stroke="none" stroke-width="0" stroke-linecap="butt"></path><path d="M254.3259,189.18925v4.3001h-1.23701v-4.3001z" data-paper-data="{&quot;index&quot;:null}" fill="#000000" stroke="none" stroke-width="0" stroke-linecap="butt"></path><path d="M255.38621,190.95641v2.29731h-0.94248v-2.29731z" data-paper-data="{&quot;index&quot;:null}" fill="#000000" stroke="none" stroke-width="0" stroke-linecap="butt"></path><path d="M256.11043,191.93803l0.66861,0.82291l-1.64582,1.33723l-0.66862,-0.82291z" data-paper-data="{&quot;index&quot;:null}" fill="#000000" stroke="none" stroke-width="0" stroke-linecap="butt"></path><path d="M233.64518,151.37195c0,0.45546 -0.40438,0.82467 -0.90322,0.82467c-0.22272,0 -1.38423,0.36607 -1.73237,0.29605c-0.4316,-0.0868 -0.0348,-0.633 -0.0348,-0.88511c0,-0.26998 -0.10412,-1.22078 0.36275,-1.43864c0.32074,-0.14968 1.20128,0.37835 1.40442,0.37835c0.49884,0 0.90322,0.36922 0.90322,0.82468z" fill="#cfe7ff" stroke="none" stroke-width="0" stroke-linecap="butt"></path><path d="M233.80226,147.71981l1.02103,0.54978h-0.70686l0.86395,0.94249l-1.41373,1.80643" fill="none" stroke="#000000" stroke-width="0.5" stroke-linecap="round"></path><path d="M234.11643,149.76187l0.54979,0.70686" fill="none" stroke="#000000" stroke-width="0.5" stroke-linecap="round"></path><path d="M228.85421,148.2696l2.04205,2.59184" fill="none" stroke="#000000" stroke-width="0.5" stroke-linecap="round"></path><path d="M228.77567,149.99749l0.54978,-1.17811" fill="none" stroke="#000000" stroke-width="0.5" stroke-linecap="round"></path><path d="M229.71816,150.39019l-0.54979,-1.09956" fill="none" stroke="#000000" stroke-width="0.5" stroke-linecap="round"></path><path d="M252.86717,215.90271c0.34442,0.29802 0.35901,0.84541 0.0326,1.22263c-0.14574,0.16842 -0.62894,1.28629 -0.90969,1.50373c-0.34806,0.26957 -0.50144,-0.38789 -0.69208,-0.55285c-0.20416,-0.17666 -0.99128,-0.72007 -0.85054,-1.21568c0.09669,-0.34048 1.07215,-0.66082 1.20508,-0.81444c0.32641,-0.37722 0.87022,-0.44141 1.21463,-0.14338z" fill="#cfe7ff" stroke="none" stroke-width="0" stroke-linecap="butt"></path><path d="M253.15019,216.23761l1.76716,-0.70687l0.58905,0.64796" fill="none" stroke="#000000" stroke-width="0.5" stroke-linecap="round"></path><path d="M254.21049,215.76636l0.11781,0.58906" fill="none" stroke="#000000" stroke-width="0.5" stroke-linecap="round"></path><path d="M250.38164,216.88557l-3.12199,-0.17672" fill="none" stroke="#000000" stroke-width="0.5" stroke-linecap="round"></path><path d="M248.61447,215.76636l-0.29452,0.82468" fill="none" stroke="#000000" stroke-width="0.5" stroke-linecap="round"></path><path d="M248.85009,218.65273v-1.82607" fill="none" stroke="#000000" stroke-width="0.5" stroke-linecap="round"></path><path d="M248.67338,218.06368l0.94249,-0.11781" fill="none" stroke="#000000" stroke-width="0.5" stroke-linecap="round"></path><path d="M249.26243,218.53493v-0.58906" fill="none" stroke="#000000" stroke-width="0.5" stroke-linecap="round"></path><path d="M229.65,177.45v-23.8h8.2v23.8z" fill-opacity="0.01613" fill="#9966ff" stroke="none" stroke-width="0" stroke-linecap="butt"></path><path d="M249.45,213.25v-23.8h8.2v23.8z" fill-opacity="0.01613" fill="#9966ff" stroke="none" stroke-width="0" stroke-linecap="butt"></path></g></g></svg>