<svg version="1.1" xmlns="http://www.w3.org/2000/svg" xmlns:xlink="http://www.w3.org/1999/xlink" width="113.9504" height="86.02821" viewBox="0,0,113.9504,86.02821"><defs><linearGradient x1="202.76281" y1="172.52148" x2="202.76281" y2="179.07669" gradientUnits="userSpaceOnUse" id="color-1"><stop offset="0" stop-color="#ececec"></stop><stop offset="1" stop-color="#6b6b6b"></stop></linearGradient></defs><g transform="translate(-183.06129,-136.98589)"><g data-paper-data="{&quot;isPaintingLayer&quot;:true}" fill-rule="nonzero" stroke-linejoin="miter" stroke-miterlimit="10" stroke-dasharray="" stroke-dashoffset="0" style="mix-blend-mode: normal"><path d="M194.82705,216.90455v-63.88809h1.52955v63.88809z" fill="#b6762c" stroke="none" stroke-width="0" stroke-linecap="butt"></path><path d="M287.54126,219.61068v-66.12359h9.05964v66.12359z" fill="#915e23" stroke="none" stroke-width="0" stroke-linecap="butt"></path><path d="M183.46406,222.66978v-85.41944h12.00108v85.41944z" fill="#915e23" stroke="none" stroke-width="0" stroke-linecap="butt"></path><path d="M183.14271,222.5535v-10.92713h113.8293v10.92713z" fill="#bb792d" stroke="none" stroke-width="NaN" stroke-linecap="butt"></path><path d="M183.24633,153.88944v-16.90355h113.76536v16.90355z" fill="#b18654" stroke="none" stroke-width="0" stroke-linecap="butt"></path><path d="M183.06129,153.84007v-1.88252h113.18664v1.88252z" fill="#b6762c" stroke="none" stroke-width="0" stroke-linecap="butt"></path><path d="M287.30594,217.25753v-63.41746h2.00018v63.41746z" fill="#b6762c" stroke="none" stroke-width="0" stroke-linecap="butt"></path><g><path d="M245.14821,211.75118l0.0645,9.16346l-6.32441,0.04452l-0.0645,-9.16346z" fill="#b05e00" stroke="none" stroke-width="0" stroke-linecap="butt"></path><path d="M244.61503,212.30893l0.05881,8.3556l-5.30881,0.03737l-0.05881,-8.3556z" fill="#989898" stroke="none" stroke-width="0" stroke-linecap="butt"></path><path d="M242.30621,212.23284l-0.03384,8.31009" fill="none" stroke="#000000" stroke-width="0.15" stroke-linecap="round"></path><path d="M238.59335,216.00744l0.01258,1.78753c0,0 -0.41096,0.30679 -0.60082,0.30813c-0.19146,0.00135 -0.5432,-0.30007 -0.5432,-0.30007l-0.01258,-1.78753c0,0 0.36848,-0.28861 0.55692,-0.28994c0.1928,-0.00136 0.5871,0.28189 0.5871,0.28189z" fill="#d27000" stroke="none" stroke-width="0" stroke-linecap="butt"></path><path d="M243.67848,220.80318l0.00455,0.64629c0,0 -1.1321,0.97745 -1.67814,0.9813c-0.53066,0.00373 -1.5533,-0.95855 -1.5533,-0.95855l-0.00455,-0.64629z" fill="#ffffff" stroke="#b05e00" stroke-width="0.5" stroke-linecap="butt"></path><path d="M241.6847,221.43576c-0.0004,-0.05737 0.21112,-0.10536 0.47244,-0.1072c0.26133,-0.00184 0.4735,0.04317 0.47391,0.10054c0.0004,0.05737 -0.21112,0.10536 -0.47244,0.1072c-0.26133,0.00184 -0.4735,-0.04317 -0.47391,-0.10054z" fill="#000000" stroke="none" stroke-width="0" stroke-linecap="butt"></path><path d="M242.02591,220.6104l-0.01414,1.26966" fill="none" stroke="#000000" stroke-width="0.5" stroke-linecap="round"></path><path d="M237.77918,217.51607c-0.00076,-0.10836 0.08646,-0.19681 0.19481,-0.19758c0.10836,-0.00076 0.19682,0.08646 0.19758,0.19481c0.00076,0.10836 -0.08646,0.19682 -0.19482,0.19758c-0.10836,0.00076 -0.19681,-0.08646 -0.19758,-0.19482z" fill="#fff4c1" stroke="none" stroke-width="0" stroke-linecap="butt"></path><path d="M237.74879,216.47756c-0.00076,-0.10836 0.08646,-0.19681 0.19481,-0.19758c0.10836,-0.00076 0.19681,0.08646 0.19758,0.19481c0.00076,0.10836 -0.08646,0.19682 -0.19481,0.19758c-0.10836,0.00076 -0.19681,-0.08646 -0.19758,-0.19482z" fill="#fff4c1" stroke="none" stroke-width="0" stroke-linecap="butt"></path></g><g><path d="M255.14911,211.75118l0.0645,9.16346l-6.3244,0.04452l-0.0645,-9.16346z" fill="#b05e00" stroke="none" stroke-width="0" stroke-linecap="butt"></path><path d="M254.61593,212.30893l0.05881,8.3556l-5.30881,0.03737l-0.05881,-8.3556z" fill="#989898" stroke="none" stroke-width="0" stroke-linecap="butt"></path><path d="M252.27326,220.54293l0.03384,-8.31009" fill="none" stroke="#000000" stroke-width="0.15" stroke-linecap="round"></path><path d="M248.59424,216.00744l0.01258,1.78753c0,0 -0.41096,0.30679 -0.60082,0.30813c-0.19146,0.00135 -0.5432,-0.30007 -0.5432,-0.30007l-0.01258,-1.78753c0,0 0.36848,-0.28861 0.55692,-0.28994c0.1928,-0.00136 0.5871,0.28189 0.5871,0.28189z" fill="#d27000" stroke="none" stroke-width="0" stroke-linecap="butt"></path><path d="M253.92938,221.13651l0.00455,0.64629c0,0 -1.1321,0.97745 -1.67814,0.9813c-0.53066,0.00373 -1.5533,-0.95855 -1.5533,-0.95855l-0.00455,-0.64629z" fill="#ffffff" stroke="#b05e00" stroke-width="0.5" stroke-linecap="butt"></path><path d="M251.68559,221.43576c-0.0004,-0.05737 0.21112,-0.10536 0.47244,-0.1072c0.26133,-0.00184 0.4735,0.04317 0.47391,0.10054c0.0004,0.05737 -0.21112,0.10536 -0.47244,0.1072c-0.26133,0.00184 -0.4735,-0.04317 -0.47391,-0.10054z" fill="#000000" stroke="none" stroke-width="0" stroke-linecap="butt"></path><path d="M252.44347,221.3604l-0.01414,1.26966" fill="none" stroke="#000000" stroke-width="0.5" stroke-linecap="round"></path><path d="M247.78008,217.51607c-0.00076,-0.10836 0.08646,-0.19681 0.19481,-0.19758c0.10836,-0.00076 0.19682,0.08646 0.19758,0.19481c0.00076,0.10836 -0.08646,0.19682 -0.19481,0.19758c-0.10836,0.00076 -0.19682,-0.08646 -0.19758,-0.19482z" fill="#fff4c1" stroke="none" stroke-width="0" stroke-linecap="butt"></path><path d="M247.74968,216.47756c-0.00076,-0.10836 0.08646,-0.19681 0.19482,-0.19758c0.10836,-0.00076 0.19681,0.08646 0.19758,0.19481c0.00076,0.10836 -0.08646,0.19682 -0.19481,0.19758c-0.10836,0.00076 -0.19681,-0.08646 -0.19758,-0.19482z" fill="#fff4c1" stroke="none" stroke-width="0" stroke-linecap="butt"></path></g><g><path d="M235.26498,211.63353l0.0645,9.16346l-6.3244,0.04452l-0.0645,-9.16346z" fill="#b05e00" stroke="none" stroke-width="0" stroke-linecap="butt"></path><path d="M234.7318,212.19127l0.05881,8.3556l-5.30881,0.03737l-0.05881,-8.3556z" fill="#989898" stroke="none" stroke-width="0" stroke-linecap="butt"></path><path d="M232.42297,212.11518l-0.03384,8.31009" fill="none" stroke="#000000" stroke-width="0.15" stroke-linecap="round"></path><path d="M228.71011,215.88978l0.01258,1.78753c0,0 -0.41096,0.30679 -0.60082,0.30813c-0.19146,0.00135 -0.5432,-0.30007 -0.5432,-0.30007l-0.01258,-1.78753c0,0 0.36848,-0.28861 0.55692,-0.28994c0.1928,-0.00136 0.5871,0.28189 0.5871,0.28189z" fill="#d27000" stroke="none" stroke-width="0" stroke-linecap="butt"></path><path d="M233.96191,220.68553l0.00455,0.64629c0,0 -1.1321,0.97745 -1.67814,0.9813c-0.53066,0.00373 -1.5533,-0.95855 -1.5533,-0.95855l-0.00455,-0.64629z" fill="#ffffff" stroke="#b05e00" stroke-width="0.5" stroke-linecap="butt"></path><path d="M231.80146,221.3181c-0.0004,-0.05737 0.21112,-0.10536 0.47244,-0.1072c0.26133,-0.00184 0.4735,0.04317 0.47391,0.10054c0.0004,0.05737 -0.21112,0.10536 -0.47244,0.1072c-0.26133,0.00184 -0.4735,-0.04317 -0.47391,-0.10054z" fill="#000000" stroke="none" stroke-width="0" stroke-linecap="butt"></path><path d="M232.30934,220.99274l-0.01414,1.26966" fill="none" stroke="#000000" stroke-width="0.5" stroke-linecap="round"></path><path d="M227.89594,217.39842c-0.00076,-0.10836 0.08646,-0.19681 0.19481,-0.19758c0.10836,-0.00076 0.19682,0.08646 0.19758,0.19481c0.00076,0.10836 -0.08646,0.19682 -0.19482,0.19758c-0.10836,0.00076 -0.19681,-0.08646 -0.19758,-0.19482z" fill="#fff4c1" stroke="none" stroke-width="0" stroke-linecap="butt"></path><path d="M227.86555,216.3599c-0.00076,-0.10836 0.08646,-0.19681 0.19481,-0.19758c0.10836,-0.00076 0.19681,0.08646 0.19758,0.19481c0.00076,0.10836 -0.08646,0.19682 -0.19481,0.19758c-0.10836,0.00076 -0.19681,-0.08646 -0.19758,-0.19482z" fill="#fff4c1" stroke="none" stroke-width="0" stroke-linecap="butt"></path></g><path d="M196.50968,188.66672v-7.41243h31.10083v7.41243z" fill="#885821" stroke="#563a00" stroke-width="0.15" stroke-linecap="butt"></path><g stroke="none" stroke-width="0.15" stroke-linecap="butt"><path d="M196.91091,184.71286v-0.43203h2.88407v0.43203z" fill="#ab8d55"></path><path d="M196.9183,182.10759v-0.43203h2.85226v0.43203z" fill="#ab8d55"></path><path d="M196.90035,184.62027l0.04042,-2.86503l0.32339,0.25012v2.34205z" data-paper-data="{&quot;index&quot;:null}" fill="#563a00"></path><path d="M197.18462,184.33961v-2.34205h2.58396v2.34205z" fill="#7d511e"></path><path d="M199.47187,184.35127v-2.34205l0.32339,-0.25012l0.04042,2.86504z" data-paper-data="{&quot;index&quot;:null}" fill="#563a00"></path></g><g stroke="none" stroke-width="0.15" stroke-linecap="butt"><path d="M200.64654,184.8011v-0.43203h2.88407v0.43203z" fill="#ab8d55"></path><path d="M200.65393,182.19583v-0.43203h2.85226v0.43203z" fill="#ab8d55"></path><path d="M200.63598,184.70852l0.04042,-2.86503l0.32339,0.25012v2.34205z" data-paper-data="{&quot;index&quot;:null}" fill="#563a00"></path><path d="M200.92025,184.42785v-2.34205h2.58396v2.34205z" fill="#7d511e"></path><path d="M203.20749,184.43952v-2.34205l0.32339,-0.25012l0.04042,2.86504z" data-paper-data="{&quot;index&quot;:null}" fill="#563a00"></path></g><g stroke="none" stroke-width="0.15" stroke-linecap="butt"><path d="M204.49982,184.85993v-0.43203h2.88407v0.43203z" fill="#ab8d55"></path><path d="M204.50722,182.25466v-0.43203h2.85226v0.43203z" fill="#ab8d55"></path><path d="M204.48927,184.76734l0.04042,-2.86503l0.32339,0.25012v2.34205z" data-paper-data="{&quot;index&quot;:null}" fill="#563a00"></path><path d="M204.77353,184.48668v-2.34205h2.58396v2.34205z" fill="#7d511e"></path><path d="M207.06078,184.49835v-2.34205l0.32339,-0.25012l0.04042,2.86504z" data-paper-data="{&quot;index&quot;:null}" fill="#563a00"></path></g><g stroke="none" stroke-width="0.15" stroke-linecap="butt"><path d="M208.58843,184.85993v-0.43203h2.88407v0.43203z" fill="#ab8d55"></path><path d="M208.59582,182.25466v-0.43203h2.85226v0.43203z" fill="#ab8d55"></path><path d="M208.57787,184.76734l0.04042,-2.86503l0.32339,0.25012v2.34205z" data-paper-data="{&quot;index&quot;:null}" fill="#563a00"></path><path d="M208.86214,184.48668v-2.34205h2.58396v2.34205z" fill="#7d511e"></path><path d="M211.14938,184.49835v-2.34205l0.32339,-0.25012l0.04042,2.86504z" data-paper-data="{&quot;index&quot;:null}" fill="#563a00"></path></g><g stroke="none" stroke-width="0.15" stroke-linecap="butt"><path d="M212.79469,184.83052v-0.43203h2.88407v0.43203z" fill="#ab8d55"></path><path d="M212.80208,182.22525v-0.43203h2.85226v0.43203z" fill="#ab8d55"></path><path d="M212.78413,184.73793l0.04042,-2.86503l0.32339,0.25012v2.34205z" data-paper-data="{&quot;index&quot;:null}" fill="#563a00"></path><path d="M213.0684,184.45726v-2.34205h2.58396v2.34205z" fill="#7d511e"></path><path d="M215.35564,184.46893v-2.34205l0.32339,-0.25012l0.04042,2.86504z" data-paper-data="{&quot;index&quot;:null}" fill="#563a00"></path></g><g stroke="none" stroke-width="0.15" stroke-linecap="butt"><path d="M216.88329,184.85993v-0.43203h2.88407v0.43203z" fill="#ab8d55"></path><path d="M216.89068,182.25466v-0.43203h2.85226v0.43203z" fill="#ab8d55"></path><path d="M216.87273,184.76734l0.04042,-2.86503l0.32339,0.25012v2.34205z" data-paper-data="{&quot;index&quot;:null}" fill="#563a00"></path><path d="M217.157,184.48668v-2.34205h2.58396v2.34205z" fill="#7d511e"></path><path d="M219.52268,184.49835v-2.34205l0.32339,-0.25012l0.04042,2.86504z" data-paper-data="{&quot;index&quot;:null}" fill="#563a00"></path></g><g stroke="none" stroke-width="0.15" stroke-linecap="butt"><path d="M221.0013,184.91876v-0.43203h2.88407v0.43203z" fill="#ab8d55"></path><path d="M221.0087,182.31349v-0.43203h2.85226v0.43203z" fill="#ab8d55"></path><path d="M220.99075,184.82617l0.04042,-2.86503l0.32339,0.25012v2.34205z" data-paper-data="{&quot;index&quot;:null}" fill="#563a00"></path><path d="M221.27501,184.54551v-2.34205h2.58396v2.34205z" fill="#7d511e"></path><path d="M223.56226,184.55718v-2.34205l0.32339,-0.25012l0.04042,2.86504z" data-paper-data="{&quot;index&quot;:null}" fill="#563a00"></path></g><g stroke="none" stroke-width="0.15" stroke-linecap="butt"><path d="M224.42514,184.88935v-0.43203h2.88407v0.43203z" fill="#ab8d55"></path><path d="M224.43254,182.28408v-0.43203h2.85226v0.43203z" fill="#ab8d55"></path><path d="M224.41459,184.79676l0.04042,-2.86503l0.32339,0.25012v2.34205z" data-paper-data="{&quot;index&quot;:null}" fill="#563a00"></path><path d="M224.69885,184.51609v-2.34205h2.58396v2.34205z" fill="#7d511e"></path><path d="M226.9861,184.52776v-2.34205l0.32339,-0.25012l0.04042,2.86504z" data-paper-data="{&quot;index&quot;:null}" fill="#563a00"></path></g><g stroke="none" stroke-width="0.15" stroke-linecap="butt"><path d="M196.94032,188.30142v-0.43203h2.88407v0.43203z" fill="#ab8d55"></path><path d="M196.94772,185.69615v-0.43203h2.85226v0.43203z" fill="#ab8d55"></path><path d="M196.92977,188.20883l0.04042,-2.86503l0.32339,0.25012v2.34205z" data-paper-data="{&quot;index&quot;:null}" fill="#563a00"></path><path d="M197.21403,187.92816v-2.34205h2.58396v2.34205z" fill="#7d511e"></path><path d="M199.50128,187.93983v-2.34205l0.32339,-0.25012l0.04042,2.86504z" data-paper-data="{&quot;index&quot;:null}" fill="#563a00"></path></g><g stroke="none" stroke-width="0.15" stroke-linecap="butt"><path d="M200.67595,188.38966v-0.43203h2.88407v0.43203z" fill="#ab8d55"></path><path d="M200.68335,185.78439v-0.43203h2.85226v0.43203z" fill="#ab8d55"></path><path d="M200.6654,188.29707l0.04042,-2.86503l0.32339,0.25012v2.34205z" data-paper-data="{&quot;index&quot;:null}" fill="#563a00"></path><path d="M200.94966,188.01641v-2.34205h2.58396v2.34205z" fill="#7d511e"></path><path d="M203.23691,188.02808v-2.34205l0.32339,-0.25012l0.04042,2.86504z" data-paper-data="{&quot;index&quot;:null}" fill="#563a00"></path></g><g stroke="none" stroke-width="0.15" stroke-linecap="butt"><path d="M204.52924,188.44849v-0.43203h2.88407v0.43203z" fill="#ab8d55"></path><path d="M204.53664,185.84322v-0.43203h2.85226v0.43203z" fill="#ab8d55"></path><path d="M204.51868,188.3559l0.04042,-2.86503l0.32339,0.25012v2.34205z" data-paper-data="{&quot;index&quot;:null}" fill="#563a00"></path><path d="M204.80295,188.07524v-2.34205h2.58396v2.34205z" fill="#7d511e"></path><path d="M207.0902,188.08691v-2.34205l0.32339,-0.25012l0.04042,2.86504z" data-paper-data="{&quot;index&quot;:null}" fill="#563a00"></path></g><g stroke="none" stroke-width="0.15" stroke-linecap="butt"><path d="M208.61784,188.44849v-0.43203h2.88407v0.43203z" fill="#ab8d55"></path><path d="M208.62524,185.84322v-0.43203h2.85226v0.43203z" fill="#ab8d55"></path><path d="M208.60729,188.3559l0.04042,-2.86503l0.32339,0.25012v2.34205z" data-paper-data="{&quot;index&quot;:null}" fill="#563a00"></path><path d="M208.89155,188.07524v-2.34205h2.58396v2.34205z" fill="#7d511e"></path><path d="M211.1788,188.08691v-2.34205l0.32339,-0.25012l0.04042,2.86504z" data-paper-data="{&quot;index&quot;:null}" fill="#563a00"></path></g><g stroke="none" stroke-width="0.15" stroke-linecap="butt"><path d="M212.8241,188.41907v-0.43203h2.88407v0.43203z" fill="#ab8d55"></path><path d="M212.8315,185.8138v-0.43203h2.85226v0.43203z" fill="#ab8d55"></path><path d="M212.81355,188.32649l0.04042,-2.86503l0.32339,0.25012v2.34205z" data-paper-data="{&quot;index&quot;:null}" fill="#563a00"></path><path d="M213.09781,188.04582v-2.34205h2.58396v2.34205z" fill="#7d511e"></path><path d="M215.38505,188.05749v-2.34205l0.32339,-0.25012l0.04042,2.86504z" data-paper-data="{&quot;index&quot;:null}" fill="#563a00"></path></g><g stroke="none" stroke-width="0.15" stroke-linecap="butt"><path d="M216.9127,188.44849v-0.43203h2.88407v0.43203z" fill="#ab8d55"></path><path d="M216.9201,185.84322v-0.43203h2.85226v0.43203z" fill="#ab8d55"></path><path d="M216.90215,188.3559l0.04042,-2.86503l0.32339,0.25012v2.34205z" data-paper-data="{&quot;index&quot;:null}" fill="#563a00"></path><path d="M217.18641,188.07524v-2.34205h2.58396v2.34205z" fill="#7d511e"></path><path d="M219.47366,188.08691v-2.34205l0.32339,-0.25012l0.04042,2.86504z" data-paper-data="{&quot;index&quot;:null}" fill="#563a00"></path></g><g stroke="none" stroke-width="0.15" stroke-linecap="butt"><path d="M221.03072,188.50732v-0.43203h2.88407v0.43203z" fill="#ab8d55"></path><path d="M221.03811,185.90205v-0.43203h2.85226v0.43203z" fill="#ab8d55"></path><path d="M221.02016,188.41473l0.04042,-2.86503l0.32339,0.25012v2.34205z" data-paper-data="{&quot;index&quot;:null}" fill="#563a00"></path><path d="M221.30443,188.13407v-2.34205h2.58396v2.34205z" fill="#7d511e"></path><path d="M223.59168,188.14573v-2.34205l0.32339,-0.25012l0.04042,2.86504z" data-paper-data="{&quot;index&quot;:null}" fill="#563a00"></path></g><g stroke="none" stroke-width="0.15" stroke-linecap="butt"><path d="M224.50162,188.4779v-0.43203h2.88407v0.43203z" fill="#ab8d55"></path><path d="M224.50901,185.87263v-0.43203h2.85226v0.43203z" fill="#ab8d55"></path><path d="M224.49106,188.38532l0.04042,-2.86503l0.32339,0.25012v2.34205z" data-paper-data="{&quot;index&quot;:null}" fill="#563a00"></path><path d="M224.77533,188.10465v-2.34205h2.58396v2.34205z" fill="#7d511e"></path><path d="M227.06258,188.11632v-2.34205l0.32339,-0.25012l0.04042,2.86504z" data-paper-data="{&quot;index&quot;:null}" fill="#563a00"></path></g><path d="M196.3332,181.25429v-4.23567l34.66978,0.47063l-3.29441,3.76504z" fill="#a55c00" stroke="none" stroke-width="0.15" stroke-linecap="butt"></path><path d="M227.39481,188.70594v-7.29477l3.37285,-3.6866l0.70595,4.47099z" fill="#885821" stroke="#563a00" stroke-width="0.15" stroke-linecap="butt"></path><g stroke-width="0.25"><path d="M201.89013,176.41731l0.55065,-4.26753c0,0 0.90852,-1.32069 1.23442,-1.27864c0.29293,0.0378 0.63262,1.51955 0.63262,1.51955l-0.55065,4.26753z" fill="#ffffff" stroke="none" stroke-linecap="butt"></path><path d="M200.82146,180.46991v-1.58838h3.00027v1.58838c0,0 -1.21253,0.76477 -1.76486,0.76477c-0.39056,0 -1.23541,-0.76477 -1.23541,-0.76477z" fill="#f0eef3" stroke="none" stroke-linecap="butt"></path><path d="M204.227,172.49533l-1.15043,0.6798l-0.44448,-0.73209" fill="none" stroke="#dadada" stroke-linecap="round"></path><path d="M204.01783,171.50178l-0.6798,0.52292l-0.23532,-0.62751" fill="none" stroke="#dadada" stroke-linecap="round"></path><path d="M203.96554,173.95952l-1.12428,0.47063l-0.57522,-0.73209" fill="none" stroke="#dadada" stroke-linecap="round"></path><path d="M203.80866,175.44985l-1.22887,0.52292l-0.47063,-0.49678" fill="none" stroke="#dadada" stroke-linecap="round"></path><path d="M203.26705,172.52148l-1.00849,6.55521" fill="none" stroke="url(#color-1)" stroke-linecap="round"></path><path d="M204.46885,179.05801c0,0.22743 -0.97453,0.4118 -2.17667,0.4118c-1.20214,0 -2.17667,-0.18437 -2.17667,-0.4118c0,-0.22743 0.97453,-0.4118 2.17667,-0.4118c1.20214,0 2.17667,0.18437 2.17667,0.4118z" fill="#f0eef3" stroke="none" stroke-linecap="butt"></path></g><path d="M197.21722,151.03197v-7.21634h14.32286v7.21634z" fill="#be7333" stroke="none" stroke-width="NaN" stroke-linecap="butt"></path><path d="M200.05669,145.47069c0,0.29891 -0.25285,0.54123 -0.56476,0.54123c-0.31191,0 -0.56476,-0.24232 -0.56476,-0.54123c0,-0.29891 0.25285,-0.54123 0.56476,-0.54123c0.31191,0 0.56476,0.24232 0.56476,0.54123z" fill="#d4d4d4" stroke="none" stroke-width="0" stroke-linecap="butt"></path><path d="M204.57474,145.56481c0,0.29891 -0.25285,0.54123 -0.56476,0.54123c-0.31191,0 -0.56476,-0.24232 -0.56476,-0.54123c0,-0.29891 0.25285,-0.54123 0.56476,-0.54123c0.31191,0 0.56476,0.24232 0.56476,0.54123z" fill="#d4d4d4" stroke="none" stroke-width="0" stroke-linecap="butt"></path><path d="M209.98699,145.75307c0,0.29891 -0.25285,0.54123 -0.56476,0.54123c-0.31191,0 -0.56476,-0.24231 -0.56476,-0.54123c0,-0.29891 0.25285,-0.54123 0.56476,-0.54123c0.31191,0 0.56476,0.24231 0.56476,0.54123z" fill="#d4d4d4" stroke="none" stroke-width="0" stroke-linecap="butt"></path><path d="M209.8458,149.37692c0,0.29891 -0.25285,0.54123 -0.56476,0.54123c-0.31191,0 -0.56476,-0.24231 -0.56476,-0.54123c0,-0.29891 0.25285,-0.54123 0.56476,-0.54123c0.31191,0 0.56476,0.24231 0.56476,0.54123z" fill="#d4d4d4" stroke="none" stroke-width="0" stroke-linecap="butt"></path><path d="M204.66887,149.04748c0,0.29891 -0.25285,0.54123 -0.56476,0.54123c-0.31191,0 -0.56476,-0.24231 -0.56476,-0.54123c0,-0.29891 0.25285,-0.54123 0.56476,-0.54123c0.31191,0 0.56476,0.24231 0.56476,0.54123z" fill="#d4d4d4" stroke="none" stroke-width="0" stroke-linecap="butt"></path><path d="M200.292,149.37692c0,0.29891 -0.25285,0.54123 -0.56476,0.54123c-0.31191,0 -0.56476,-0.24231 -0.56476,-0.54123c0,-0.29891 0.25285,-0.54123 0.56476,-0.54123c0.31191,0 0.56476,0.24232 0.56476,0.54123z" fill="#d4d4d4" stroke="none" stroke-width="0" stroke-linecap="butt"></path><path d="M199.66925,149.69376c0.0832,0.0832 0,0.16639 0,0.16639l-0.04706,0.04706c-0.39421,0.39421 -1.41645,0.623 -1.42449,-0.22438c0,0 0,-0.11766 0.11766,-0.11766c0.11766,0 0.11766,0.11766 0.11766,0.11766c-0.00754,0.60759 0.77616,0.30462 1.02279,0.05799l0.04706,-0.04706c0,0 0.0832,-0.0832 0.16639,0z" fill="#d4d4d4" stroke="none" stroke-width="0.5" stroke-linecap="butt"></path><path d="M204.15117,149.00041c0.11766,0 0.11766,0.11766 0.11766,0.11766l-0.00088,0.15556c-0.08279,0.31234 -0.27694,0.66975 -0.57261,0.83872c-0.34177,0.19532 -0.94824,-0.06148 -1.1214,-0.40822c-0.00741,0.00146 -0.01507,0.00223 -0.0229,0.00223c-0.06498,0 -0.11766,-0.05268 -0.11766,-0.11766c0,-0.06428 0.05155,-0.11653 0.11557,-0.11764c0.01638,-0.02502 0.04527,-0.04708 0.09622,-0.04708c0.11766,0 0.11766,0.11766 0.11766,0.11766c-0.03308,0.20355 0.51284,0.43197 0.71063,0.40156c0.27851,-0.04283 0.50721,-0.46038 0.56095,-0.69831l-0.00088,-0.12681c0,0 0,-0.11766 0.11766,-0.11766z" fill="#d4d4d4" stroke="none" stroke-width="0.5" stroke-linecap="butt"></path><path d="M209.18137,149.57759c0.10524,-0.05262 0.15785,0.05262 0.15785,0.05262l0.05949,0.14674c-0.04284,0.89076 -1.6266,0.96009 -1.64721,-0.14119c0,0 0,-0.11766 0.11766,-0.11766c0.11766,0 0.11766,0.11766 0.11766,0.11766c-0.01458,0.52866 0.49442,0.81466 0.8816,0.4345c0.12286,-0.12064 0.31182,-0.11245 0.29498,-0.29331l-0.03464,-0.04151c0,0 -0.05262,-0.10524 0.05262,-0.15785z" fill="#d4d4d4" stroke="none" stroke-width="0.5" stroke-linecap="butt"></path><path d="M209.23398,145.84719c0.11766,0 0.11766,0.11766 0.11766,0.11766l-0.08045,0.20575c-0.24021,0.065 -0.3063,0.42182 -0.58635,0.47563c-0.32269,0.062 -0.704,-0.27987 -0.86652,-0.52198c0,0 -0.06526,-0.0979 0.03263,-0.16316c0.0979,-0.06526 0.16316,0.03263 0.16316,0.03263c0.49768,0.75241 0.67187,0.14346 1.18266,-0.04635l-0.08045,0.01749c0,0 0,-0.11766 0.11766,-0.11766z" fill="#d4d4d4" stroke="none" stroke-width="0.5" stroke-linecap="butt"></path><path d="M204.10411,145.706c0.11766,0 0.11766,0.11766 0.11766,0.11766v0.04706c0,0.2358 0.04435,0.57828 -0.11828,0.77736c-0.54961,0.67279 -1.33005,-0.30499 -1.52051,-0.78073c0,0 -0.0437,-0.10924 0.06554,-0.15294c0.10924,-0.0437 0.15294,0.06554 0.15294,0.06554c0.11259,0.28173 0.7259,1.23116 1.11502,0.72529c0.11873,-0.15436 0.06997,-0.4559 0.06997,-0.63453v-0.04706c0,0 0,-0.11766 0.11766,-0.11766z" fill="#d4d4d4" stroke="none" stroke-width="0.5" stroke-linecap="butt"></path><path d="M199.63312,145.75306c0.11766,0 0.11766,0.11766 0.11766,0.11766v0.04706c-0.00857,0.90309 -1.25477,0.89846 -1.2707,0.04706c0,0 0,-0.11766 0.11766,-0.11766c0.11766,0 0.11766,0.11766 0.11766,0.11766c-0.01495,0.54231 0.80767,0.5645 0.80007,-0.04706v-0.04706c0,0 0,-0.11766 0.11766,-0.11766z" fill="#d4d4d4" stroke="none" stroke-width="0.5" stroke-linecap="butt"></path><path d="M287.00277,198.25691v-11.88342h7.05946v11.88342z" fill="#d8d8d8" stroke="#c83030" stroke-width="1" stroke-linecap="butt"></path><path d="M293.70926,193.78592v-4.11802h3.29441v4.11802z" fill="#9b2e2e" stroke="none" stroke-width="0" stroke-linecap="butt"></path><path d="M288.11764,194.00655l-1.45465,-4.47586l1.34276,-0.4364l1.45465,4.47586z" fill="#c9953c" stroke="none" stroke-width="0" stroke-linecap="butt"></path><path d="M287.48659,196.86457l1.45465,-4.47586l1.34276,0.4364l-1.45465,4.47586z" data-paper-data="{&quot;index&quot;:null}" fill="#c9953c" stroke="none" stroke-width="0" stroke-linecap="butt"></path><path d="M287.12043,194.9625v-1.64721h4.00036v1.64721z" fill="#c9953c" stroke="none" stroke-width="0" stroke-linecap="butt"></path><path d="M185.5819,219.37536v-4.82396h8.23603v4.82396z" fill="#dca342" stroke="none" stroke-width="0" stroke-linecap="butt"></path><path d="M287.23809,220.55194v-4.82396h8.23603v4.82396z" fill="#dca342" stroke="none" stroke-width="0" stroke-linecap="butt"></path><g stroke-width="0.5" stroke-linecap="butt"><path d="M274.19695,188.33451v-2.09503h0.6821v2.09503z" fill="#ffdfa0" stroke="none"></path><path d="M265.57322,206.21536v-4.19006h18.41679v4.19006z" fill="#b34848" stroke="none"></path><path d="M268.78885,207.1898c0,0.59198 -0.52352,1.07188 -1.16932,1.07188c-0.6458,0 -1.16932,-0.47989 -1.16932,-1.07188c0,-0.59198 0.52352,-1.07188 1.16932,-1.07188c0.6458,0 1.16932,0.47989 1.16932,1.07188z" fill="#989898" stroke="#000000"></path><path d="M283.25918,207.28724c0,0.59198 -0.52352,1.07188 -1.16932,1.07188c-0.6458,0 -1.16932,-0.47989 -1.16932,-1.07188c0,-0.59198 0.52352,-1.07188 1.16932,-1.07188c0.6458,0 1.16932,0.47989 1.16932,1.07188z" fill="#989898" stroke="#000000"></path><path d="M265.37833,202.31763v-7.21081h0.82827v7.21081z" fill="#eec268" stroke="none"></path><path d="M266.69382,206.31281v-9.74433h0.82827v9.74433z" fill="#eec268" stroke="none"></path><path d="M283.06429,202.12274v-7.21081h0.82827v7.21081z" data-paper-data="{&quot;index&quot;:null}" fill="#eec268" stroke="none"></path><path d="M281.9437,206.16664v-9.74433h0.82827v9.74433z" data-paper-data="{&quot;index&quot;:null}" fill="#eec268" stroke="none"></path><path d="M266.75066,197.83628l-1.15523,-2.08924l0.89539,-0.4951l1.15523,2.08924z" fill="#eec268" stroke="none"></path><path d="M281.91719,196.90269l1.15523,-2.08924l0.89539,0.4951l-1.15523,2.08924z" data-paper-data="{&quot;index&quot;:null}" fill="#eec268" stroke="none"></path><path d="M265.67066,195.64276v-0.73083c0,0 5.94053,-7.16208 8.91606,-7.16208c2.9187,0 8.7699,7.16208 8.7699,7.16208v0.73083c0,0 -5.85094,-6.38254 -8.81862,-6.38254c-2.92708,0 -8.86734,6.38254 -8.86734,6.38254z" fill="#eec268" stroke="none"></path><path d="M266.6451,197.68907v-0.67244c0,0 5.46594,-6.58991 8.20376,-6.58991c2.68552,0 8.06927,6.58991 8.06927,6.58991v0.67244c0,0 -5.38351,-5.87264 -8.1141,-5.87264c-2.69324,0 -8.15893,5.87264 -8.15893,5.87264z" fill="#eec268" stroke="none"></path><path d="M274.00207,191.25781v-2.53353h1.07188v2.53353z" fill="#eec268" stroke="none"></path><path d="M275.415,186.50745c0,0.14799 -0.40355,0.26797 -0.90135,0.26797c-0.4978,0 -0.90135,-0.11997 -0.90135,-0.26797c0,-0.14799 0.40355,-0.26797 0.90135,-0.26797c0.4978,0 0.90135,0.11997 0.90135,0.26797z" fill="#ffdfa0" stroke="none"></path></g><g stroke-width="0.15"><path d="M274.03055,204.43384c0,0.18139 -0.12443,0.32844 -0.27791,0.32844c-0.15349,0 -0.27791,-0.14705 -0.27791,-0.32844c0,-0.18139 0.12443,-0.32844 0.27791,-0.32844c0.15349,0 0.27791,0.14705 0.27791,0.32844z" fill="#616161" stroke="#000000" stroke-linecap="butt"></path><path d="M271.07459,204.40858c0,0.18139 -0.12443,0.32844 -0.27791,0.32844c-0.15349,0 -0.27791,-0.14705 -0.27791,-0.32844c0,-0.18139 0.12443,-0.32844 0.27791,-0.32844c0.15349,0 0.27791,0.14705 0.27791,0.32844z" fill="#616161" stroke="#000000" stroke-linecap="butt"></path><g><path d="M270.0261,200.80836v-1.26323h0.44213v1.26323z" fill="#000000" stroke="none" stroke-linecap="butt"></path><path d="M268.99025,204.08014v-3.47389h7.26359v3.47389z" fill="#dca843" stroke="none" stroke-linecap="butt"></path><path d="M269.93768,204.01698v-3.28441h0.63162v3.28441z" fill="#bc5d39" stroke="none" stroke-linecap="butt"></path><path d="M274.16951,204.20646v-3.41073h0.56846v3.41073z" fill="#bc5d39" stroke="none" stroke-linecap="butt"></path><path d="M274.16951,200.79573v-1.07375h0.50529v1.07375z" fill="#000000" stroke="none" stroke-linecap="butt"></path><path d="M269.81135,199.72198v-0.50529h5.02767v0.50529z" fill="#000000" stroke="none" stroke-linecap="butt"></path><path d="M272.11044,204.05487l-2.98123,-3.436" fill="none" stroke="#be9239" stroke-linecap="round"></path><path d="M271.83253,200.79573l-2.85491,3.28441" fill="none" stroke="#be9239" stroke-linecap="round"></path><path d="M276.12753,204.08014l-2.95597,-3.38547" fill="none" stroke="#be9239" stroke-linecap="round"></path><path d="M276.12752,200.7452l-2.65279,3.30967" fill="none" stroke="#be9239" stroke-linecap="round"></path></g></g><g stroke-width="0.15"><path d="M278.69893,203.22233c-0.07028,0.16722 -0.24197,0.25457 -0.38346,0.1951c-0.1415,-0.05947 -0.19922,-0.24324 -0.12894,-0.41047c0.07028,-0.16722 0.24197,-0.25457 0.38346,-0.1951c0.1415,0.05947 0.19923,0.24324 0.12894,0.41047z" fill="#616161" stroke="#000000" stroke-linecap="butt"></path><path d="M275.98367,202.0537c-0.07028,0.16722 -0.24197,0.25457 -0.38346,0.1951c-0.1415,-0.05947 -0.19922,-0.24324 -0.12894,-0.41047c0.07028,-0.16722 0.24197,-0.25457 0.38346,-0.1951c0.1415,0.05947 0.19923,0.24324 0.12894,0.41047z" fill="#616161" stroke="#000000" stroke-linecap="butt"></path><g><path d="M276.41205,198.32846l0.48946,-1.16455l0.40759,0.17131l-0.48946,1.16455z" fill="#000000" stroke="none" stroke-linecap="butt"></path><path d="M274.18941,200.9433l1.34602,-3.20253l6.69618,2.81441l-1.34602,3.20253z" fill="#dca843" stroke="none" stroke-linecap="butt"></path><path d="M275.0873,201.25217l1.2726,-3.02784l0.58228,0.24473l-1.2726,3.02784z" fill="#bc5d39" stroke="none" stroke-linecap="butt"></path><path d="M278.91513,203.06655l1.32155,-3.1443l0.52405,0.22026l-1.32155,3.1443z" fill="#bc5d39" stroke="none" stroke-linecap="butt"></path><path d="M280.23668,199.92225l0.41604,-0.98987l0.46582,0.19578l-0.41604,0.98987z" fill="#000000" stroke="none" stroke-linecap="butt"></path><path d="M276.63501,197.24374l0.19578,-0.46582l4.63493,1.94806l-0.19578,0.46582z" fill="#000000" stroke="none" stroke-linecap="butt"></path><path d="M275.65863,197.80626l1.41701,4.32272" fill="none" stroke="#be9239" stroke-linecap="round"></path><path d="M278.08226,199.01675l-3.90449,1.92166" fill="none" stroke="#be9239" stroke-linecap="round"></path><path d="M279.35584,199.44241l1.4133,4.26635" fill="none" stroke="#be9239" stroke-linecap="round"></path><path d="M282.06132,200.63434l-3.72795,2.02326" fill="none" stroke="#be9239" stroke-linecap="round"></path></g></g><g stroke-width="0.15"><path d="M199.41041,167.85586c0.02844,0.17915 -0.0714,0.34388 -0.22299,0.36795c-0.15159,0.02406 -0.29753,-0.10166 -0.32596,-0.28081c-0.02844,-0.17915 0.0714,-0.34388 0.22299,-0.36795c0.15159,-0.02406 0.29753,0.10166 0.32596,0.28081z" fill="#616161" stroke="#000000" stroke-linecap="butt"></path><path d="M196.48702,168.2943c0.02844,0.17915 -0.0714,0.34388 -0.22299,0.36795c-0.15159,0.02406 -0.29753,-0.10166 -0.32596,-0.28081c-0.02844,-0.17915 0.0714,-0.34388 0.22299,-0.36795c0.15159,-0.02406 0.29753,0.10166 0.32596,0.28081z" fill="#616161" stroke="#000000" stroke-linecap="butt"></path><g><path d="M194.88712,164.90296l-0.19803,-1.24762l0.43667,-0.06931l0.19803,1.24762z" fill="#000000" stroke="none" stroke-linecap="butt"></path><path d="M194.37698,168.29667l-0.54458,-3.43094l7.17379,-1.13867l0.54458,3.43094z" fill="#dca843" stroke="none" stroke-linecap="butt"></path><path d="M195.30278,168.08577l-0.51488,-3.2438l0.62381,-0.09902l0.51488,3.2438z" fill="#bc5d39" stroke="none" stroke-linecap="butt"></path><path d="M199.512,167.60951l-0.53468,-3.36856l0.56142,-0.08911l0.53468,3.36856z" fill="#bc5d39" stroke="none" stroke-linecap="butt"></path><path d="M198.97731,164.24095l-0.16833,-1.06047l0.49905,-0.07921l0.16833,1.06047z" fill="#000000" stroke="none" stroke-linecap="butt"></path><path d="M194.50472,163.86368l-0.07921,-0.49905l4.96551,-0.78816l0.07921,0.49905z" fill="#000000" stroke="none" stroke-linecap="butt"></path><path d="M193.97161,164.85643l3.48301,2.92616" fill="none" stroke="#be9239" stroke-linecap="round"></path><path d="M194.36449,168.29865l2.30473,-3.69135" fill="none" stroke="#be9239" stroke-linecap="round"></path><path d="M201.42599,167.1778l-3.45014,-2.88022" fill="none" stroke="#be9239" stroke-linecap="round"></path><path d="M198.80204,167.56871l2.10115,-3.68462" fill="none" stroke="#be9239" stroke-linecap="round"></path></g></g><g data-paper-data="{&quot;index&quot;:null}" stroke-width="0.2"><path d="M261.51076,157.66343l1.6848,-7.39206l9.91406,2.25962l-1.6848,7.39206z" fill="#bf70af" stroke="none" stroke-linecap="butt"></path><path d="M262.94491,150.70215l0.87213,-3.82648c0,0 1.30243,-0.7227 2.96229,-0.52981c0.87788,0.10202 1.69219,1.06401 2.5996,1.35618c1.27134,0.40935 2.57273,0.17383 3.14572,0.30443c0.77696,0.17709 1.55431,1.2081 1.55431,1.2081l-0.87213,3.82648z" fill="#bf70af" stroke="none" stroke-linecap="butt"></path><path d="M269.98457,159.68627l1.57248,-6.89926l1.56538,0.35678l-1.57248,6.89926z" fill="#ca58b3" stroke="none" stroke-linecap="butt"></path><path d="M261.47516,157.68582l1.57248,-6.89926l1.56538,0.35678l-1.57248,6.89926z" fill="#ca58b3" stroke="none" stroke-linecap="butt"></path><path d="M270.58977,152.74952l-0.04262,0.72215l-1.08356,4.75411l0.26561,0.97537l-6.27473,-1.36915l0.75965,-0.92466l1.56356,-5.2546" fill="none" stroke="#000000" stroke-linecap="round"></path><path d="M264.14111,151.34072l7.87165,1.8551" fill="none" stroke="#000000" stroke-linecap="round"></path><path d="M270.4829,159.37292l0.77963,-3.42064l0.81168,0.185l-0.77963,3.42064z" fill="#803400" stroke="none" stroke-linecap="butt"></path><path d="M261.88909,157.47521l0.77963,-3.42064l0.81168,0.185l-0.77963,3.42064z" fill="#803400" stroke="none" stroke-linecap="butt"></path><path d="M268.01468,161.3719c0,0 0.40727,-0.44898 0.47488,-0.74561c0.09743,-0.4275 0.05368,-1.57347 0.05368,-1.57347l1.15954,0.26428c0,0 -0.65182,0.98672 -0.74941,1.4149c-0.06389,0.28031 0.22084,0.90418 0.22084,0.90418z" fill="#803400" stroke="none" stroke-linecap="butt"></path><path d="M262.65437,160.27215c0,0 0.40727,-0.44898 0.47488,-0.74561c0.09743,-0.4275 0.05368,-1.57347 0.05368,-1.57347l1.15954,0.26428c0,0 -0.65182,0.98672 -0.74941,1.4149c-0.06389,0.28031 0.22084,0.90418 0.22084,0.90418z" fill="#803400" stroke="none" stroke-linecap="butt"></path><path d="M273.43272,150.0431c0,0 -0.55491,0.78836 -0.72001,0.75073c-0.18915,-0.04311 -0.35257,-0.99519 -0.35257,-0.99519l0.80185,-0.97603l0.0422,-0.05137l0.22852,1.27186z" fill="#ab5199" stroke="none" stroke-linecap="butt"></path><path d="M272.52003,151.23782c0,0 -0.55491,0.78836 -0.72001,0.75073c-0.18915,-0.04311 -0.35257,-0.99519 -0.35257,-0.99519l0.80185,-0.97603l0.0422,-0.05137l0.22852,1.27186z" fill="#ab5199" stroke="none" stroke-linecap="butt"></path><path d="M272.11758,149.92632c0,0 -0.55491,0.78836 -0.72001,0.75073c-0.18915,-0.04311 -0.35257,-0.99519 -0.35257,-0.99519l0.80185,-0.97603l0.0422,-0.05137l0.22852,1.27186z" fill="#ab5199" stroke="none" stroke-linecap="butt"></path><path d="M273.12689,152.32146c0,0 -0.55491,0.78836 -0.72001,0.75073c-0.18915,-0.04311 -0.35257,-0.99519 -0.35257,-0.99519l0.80185,-0.97603l0.0422,-0.05137l0.22852,1.27186z" fill="#ab5199" stroke="none" stroke-linecap="butt"></path><path d="M271.55747,152.11623c0,0 -0.55491,0.78836 -0.72001,0.75073c-0.18915,-0.04311 -0.35257,-0.99519 -0.35257,-0.99519l0.80185,-0.97603l0.0422,-0.05137l0.22852,1.27186z" fill="#ab5199" stroke="none" stroke-linecap="butt"></path><path d="M271.09704,150.79151c0,0 -0.55491,0.78836 -0.72001,0.75073c-0.18915,-0.04311 -0.35257,-0.99519 -0.35257,-0.99519l0.80185,-0.97603l0.0422,-0.05137l0.22852,1.27186z" fill="#ab5199" stroke="none" stroke-linecap="butt"></path><path d="M270.44946,149.48513c0,0 -0.55491,0.78836 -0.72001,0.75073c-0.18915,-0.04311 -0.35257,-0.99519 -0.35257,-0.99519l0.80185,-0.97603l0.0422,-0.05137l0.22852,1.27186z" fill="#ab5199" stroke="none" stroke-linecap="butt"></path><path d="M269.53679,150.67985c0,0 -0.55491,0.78836 -0.72001,0.75073c-0.18915,-0.04311 -0.35257,-0.99519 -0.35257,-0.99519l0.80185,-0.97603l0.0422,-0.05137l0.22852,1.27186z" fill="#ab5199" stroke="none" stroke-linecap="butt"></path><path d="M269.13433,149.36835c0,0 -0.55491,0.78836 -0.72001,0.75073c-0.18915,-0.04311 -0.35257,-0.99519 -0.35257,-0.99519l0.80185,-0.97603l0.0422,-0.05137l0.22852,1.27186z" fill="#ab5199" stroke="none" stroke-linecap="butt"></path><path d="M270.14364,151.76349c0,0 -0.55491,0.78836 -0.72001,0.75073c-0.18915,-0.04311 -0.35257,-0.99519 -0.35257,-0.99519l0.80185,-0.97603l0.0422,-0.05137l0.22852,1.27186z" fill="#ab5199" stroke="none" stroke-linecap="butt"></path><path d="M268.57421,151.55826c0,0 -0.55491,0.78836 -0.72001,0.75073c-0.18915,-0.04311 -0.35257,-0.99519 -0.35257,-0.99519l0.80185,-0.97603l0.0422,-0.05137l0.22852,1.27186z" fill="#ab5199" stroke="none" stroke-linecap="butt"></path><path d="M268.11378,150.23355c0,0 -0.55491,0.78836 -0.72001,0.75073c-0.18915,-0.04311 -0.35257,-0.99519 -0.35257,-0.99519l0.80185,-0.97603l0.0422,-0.05137l0.22852,1.27186z" fill="#ab5199" stroke="none" stroke-linecap="butt"></path><path d="M267.63502,148.72168c0,0 -0.55491,0.78836 -0.72001,0.75073c-0.18915,-0.04311 -0.35257,-0.99519 -0.35257,-0.99519l0.80185,-0.97603l0.0422,-0.05137l0.22852,1.27186z" fill="#ab5199" stroke="none" stroke-linecap="butt"></path><path d="M266.72234,149.9164c0,0 -0.55491,0.78836 -0.72001,0.75073c-0.18915,-0.04311 -0.35257,-0.99519 -0.35257,-0.99519l0.80185,-0.97603l0.0422,-0.05137l0.22852,1.27186z" fill="#ab5199" stroke="none" stroke-linecap="butt"></path><path d="M266.31989,148.6049c0,0 -0.55491,0.78836 -0.72001,0.75073c-0.18915,-0.04311 -0.35257,-0.99519 -0.35257,-0.99519l0.80185,-0.97603l0.0422,-0.05137l0.22852,1.27186z" fill="#ab5199" stroke="none" stroke-linecap="butt"></path><path d="M267.18681,151.08957c0,0 -0.55491,0.78836 -0.72001,0.75073c-0.18915,-0.04311 -0.35257,-0.99519 -0.35257,-0.99519l0.80185,-0.97603l0.0422,-0.05137l0.22852,1.27186z" fill="#ab5199" stroke="none" stroke-linecap="butt"></path><path d="M265.75977,150.79482c0,0 -0.55491,0.78836 -0.72001,0.75073c-0.18915,-0.04311 -0.35257,-0.99519 -0.35257,-0.99519l0.80185,-0.97603l0.0422,-0.05137l0.22852,1.27186z" fill="#ab5199" stroke="none" stroke-linecap="butt"></path><path d="M265.29934,149.4701c0,0 -0.55491,0.78836 -0.72001,0.75073c-0.18915,-0.04311 -0.35257,-0.99519 -0.35257,-0.99519l0.80185,-0.97603l0.0422,-0.05137l0.22852,1.27186z" fill="#ab5199" stroke="none" stroke-linecap="butt"></path><path d="M264.65177,148.16372c0,0 -0.55491,0.78836 -0.72001,0.75073c-0.18915,-0.04311 -0.35257,-0.99519 -0.35257,-0.99519l0.80185,-0.97603l0.0422,-0.05137l0.22852,1.27186z" fill="#ab5199" stroke="none" stroke-linecap="butt"></path><path d="M264.34595,150.44208c0,0 -0.55491,0.78836 -0.72001,0.75073c-0.18915,-0.04311 -0.35257,-0.99519 -0.35257,-0.99519l0.80185,-0.97603l0.0422,-0.05137l0.22852,1.27186z" fill="#ab5199" stroke="none" stroke-linecap="butt"></path><path d="M270.10235,154.62055c0,0 -0.55491,0.78836 -0.72001,0.75073c-0.18915,-0.04311 -0.35257,-0.99519 -0.35257,-0.99519l0.80185,-0.97603l0.0422,-0.05137l0.22852,1.27186z" fill="#ab5199" stroke="none" stroke-linecap="butt"></path><path d="M269.18966,155.81527c0,0 -0.55491,0.78836 -0.72001,0.75073c-0.18915,-0.04311 -0.35257,-0.99519 -0.35257,-0.99519l0.80185,-0.97603l0.0422,-0.05137l0.22852,1.27186z" fill="#ab5199" stroke="none" stroke-linecap="butt"></path><path d="M268.78721,154.50377c0,0 -0.55491,0.78836 -0.72001,0.75073c-0.18915,-0.04311 -0.35257,-0.99519 -0.35257,-0.99519l0.80185,-0.97603l0.0422,-0.05137l0.22852,1.27186z" fill="#ab5199" stroke="none" stroke-linecap="butt"></path><path d="M269.79652,156.89891c0,0 -0.55491,0.78836 -0.72001,0.75073c-0.18915,-0.04311 -0.35257,-0.99519 -0.35257,-0.99519l0.80185,-0.97603l0.0422,-0.05137l0.22852,1.27186z" fill="#ab5199" stroke="none" stroke-linecap="butt"></path><path d="M268.2271,156.69368c0,0 -0.55491,0.78836 -0.72001,0.75073c-0.18915,-0.04311 -0.35257,-0.99519 -0.35257,-0.99519l0.80185,-0.97603l0.0422,-0.05137l0.22852,1.27186z" fill="#ab5199" stroke="none" stroke-linecap="butt"></path><path d="M267.76667,155.36897c0,0 -0.55491,0.78836 -0.72001,0.75073c-0.18915,-0.04311 -0.35257,-0.99519 -0.35257,-0.99519l0.80185,-0.97603l0.0422,-0.05137l0.22852,1.27186z" fill="#ab5199" stroke="none" stroke-linecap="butt"></path><path d="M267.11909,154.06258c0,0 -0.55491,0.78836 -0.72001,0.75073c-0.18915,-0.04311 -0.35257,-0.99519 -0.35257,-0.99519l0.80185,-0.97603l0.0422,-0.05137l0.22852,1.27186z" fill="#ab5199" stroke="none" stroke-linecap="butt"></path><path d="M266.20641,155.25731c0,0 -0.55491,0.78836 -0.72001,0.75073c-0.18915,-0.04311 -0.35257,-0.99519 -0.35257,-0.99519l0.80185,-0.97603l0.0422,-0.05137l0.22852,1.27186z" fill="#ab5199" stroke="none" stroke-linecap="butt"></path><path d="M266.81327,156.34095c0,0 -0.55491,0.78836 -0.72001,0.75073c-0.18915,-0.04311 -0.35257,-0.99519 -0.35257,-0.99519l0.80185,-0.97603l0.0422,-0.05137l0.22852,1.27186z" fill="#ab5199" stroke="none" stroke-linecap="butt"></path></g></g></g></svg>