<svg version="1.1" xmlns="http://www.w3.org/2000/svg" xmlns:xlink="http://www.w3.org/1999/xlink" width="111.91593" height="84.64157" viewBox="0,0,111.91593,84.64157"><defs><radialGradient cx="238.77999" cy="171.38068" r="7.55151" gradientUnits="userSpaceOnUse" id="color-1"><stop offset="0" stop-color="#79787a"></stop><stop offset="1" stop-color="#b3b0b4"></stop></radialGradient><radialGradient cx="243.92911" cy="167.09827" r="10" gradientUnits="userSpaceOnUse" id="color-2"><stop offset="0" stop-color="#464546"></stop><stop offset="1" stop-color="#8d8b8e"></stop></radialGradient><radialGradient cx="254.75" cy="171.08335" r="11.16666" gradientUnits="userSpaceOnUse" id="color-3"><stop offset="0" stop-color="#6c6b6d"></stop><stop offset="1" stop-color="#aeacaf"></stop></radialGradient><radialGradient cx="241.54091" cy="177.27123" r="12.38485" gradientUnits="userSpaceOnUse" id="color-4"><stop offset="0" stop-color="#79787a"></stop><stop offset="1" stop-color="#b3b0b4"></stop></radialGradient><radialGradient cx="227.22001" cy="170.88068" r="7.55151" gradientUnits="userSpaceOnUse" id="color-5"><stop offset="0" stop-color="#79787a"></stop><stop offset="1" stop-color="#b3b0b4"></stop></radialGradient><radialGradient cx="222.0709" cy="166.59827" r="10" gradientUnits="userSpaceOnUse" id="color-6"><stop offset="0" stop-color="#464546"></stop><stop offset="1" stop-color="#8d8b8e"></stop></radialGradient><radialGradient cx="211.25" cy="170.58335" r="11.16666" gradientUnits="userSpaceOnUse" id="color-7"><stop offset="0" stop-color="#6c6b6d"></stop><stop offset="1" stop-color="#aeacaf"></stop></radialGradient><radialGradient cx="224.4591" cy="176.77123" r="12.38485" gradientUnits="userSpaceOnUse" id="color-8"><stop offset="0" stop-color="#79787a"></stop><stop offset="1" stop-color="#b3b0b4"></stop></radialGradient><radialGradient cx="233.08334" cy="169.08335" r="10.49475" gradientUnits="userSpaceOnUse" id="color-9"><stop offset="0" stop-color="#79787a"></stop><stop offset="1" stop-color="#464546"></stop></radialGradient><radialGradient cx="193.22728" cy="146.54547" r="2.31818" gradientUnits="userSpaceOnUse" id="color-10"><stop offset="0" stop-color="#f4c700"></stop><stop offset="1" stop-color="#f4c700" stop-opacity="0"></stop></radialGradient><radialGradient cx="279.77273" cy="146.81819" r="2.31818" gradientUnits="userSpaceOnUse" id="color-11"><stop offset="0" stop-color="#f4c700"></stop><stop offset="1" stop-color="#f4c700" stop-opacity="0"></stop></radialGradient><radialGradient cx="284.20757" cy="198.77123" r="12.38485" gradientUnits="userSpaceOnUse" id="color-12"><stop offset="0" stop-color="#79787a"></stop><stop offset="1" stop-color="#b3b0b4"></stop></radialGradient></defs><g transform="translate(-183.73863,-136.67924)"><g data-paper-data="{&quot;isPaintingLayer&quot;:true}" fill-rule="nonzero" stroke-linejoin="miter" stroke-miterlimit="10" stroke-dasharray="" stroke-dashoffset="0" style="mix-blend-mode: normal"><path d="M234.38433,181.18638v-3.04315c0,0 1.8885,-1.72973 2.80694,-5.08555c0.70262,-2.56725 0.4168,-6.97434 0.79975,-6.97434c1.12424,0 2.59231,12.05989 2.59231,12.05989v3.04315z" data-paper-data="{&quot;index&quot;:null}" fill="url(#color-1)" stroke="#000000" stroke-width="0.5" stroke-linecap="butt"></path><path d="M241.54105,180.08335v-4.02985c0,0 1.94408,-15.97015 3.43284,-15.97015c0.50713,0 0.12862,5.83603 1.05905,9.23568c1.21623,4.44389 3.71706,6.73447 3.71706,6.73447v4.02985z" data-paper-data="{&quot;index&quot;:null}" fill="url(#color-2)" stroke="#000000" stroke-width="0.5" stroke-linecap="butt"></path><path d="M248.25,185.58335v-4.5c0,0 2.7926,-2.55781 4.15072,-7.52016c1.03898,-3.79628 0.61632,-10.31318 1.18261,-10.31318c1.66245,0 3.83333,17.83334 3.83333,17.83334v4.5z" data-paper-data="{&quot;index&quot;:null}" fill="url(#color-3)" stroke="#000000" stroke-width="0.5" stroke-linecap="butt"></path><path d="M238.58334,193.35305v-4.99091c0,0 2.4077,-19.77879 4.25151,-19.77879c0.62806,0 0.15929,7.22784 1.31162,11.43825c1.50628,5.50369 4.60353,8.34053 4.60353,8.34053v4.99091z" data-paper-data="{&quot;index&quot;:null}" fill="url(#color-4)" stroke="#000000" stroke-width="0.5" stroke-linecap="butt"></path><path d="M225.41667,180.68638v-3.04315c0,0 1.46807,-12.05989 2.59231,-12.05989c0.38296,0 0.09713,4.40709 0.79975,6.97434c0.91844,3.35582 2.80694,5.08555 2.80694,5.08555v3.04315z" data-paper-data="{&quot;index&quot;:null}" fill="url(#color-5)" stroke="#000000" stroke-width="0.5" stroke-linecap="butt"></path><path d="M216.25,179.58335v-4.02985c0,0 2.50083,-2.29057 3.71706,-6.73447c0.93043,-3.39965 0.55193,-9.23568 1.05905,-9.23568c1.48876,0 3.43284,15.97015 3.43284,15.97015v4.02985z" data-paper-data="{&quot;index&quot;:null}" fill="url(#color-6)" stroke="#000000" stroke-width="0.5" stroke-linecap="butt"></path><path d="M183.73866,221.32082v-5.51584h110.58727v5.51584z" fill="#757575" stroke="none" stroke-width="0.5" stroke-linecap="butt"></path><path d="M293.91806,175.60086v-3.02982h1.04879v3.02982z" fill="#b7b7b7" stroke="none" stroke-width="0.5" stroke-linecap="butt"></path><path d="M183.8833,140.87439v-4.19514h110.79222v4.19514z" fill="#686868" stroke="none" stroke-width="0.5" stroke-linecap="butt"></path><path d="M183.73863,219.77804v-80.90803h1.86451v80.90803z" fill="#686868" stroke="none" stroke-width="0.5" stroke-linecap="butt"></path><path d="M208.58334,185.08335v-4.5c0,0 2.17088,-17.83334 3.83333,-17.83334c0.56629,0 0.14363,6.5169 1.18261,10.31318c1.35813,4.96235 4.15072,7.52016 4.15072,7.52016v4.5z" fill="url(#color-7)" stroke="#000000" stroke-width="0.5" stroke-linecap="butt"></path><path d="M217.25,192.85305v-4.99091c0,0 3.09725,-2.83684 4.60353,-8.34053c1.15233,-4.21042 0.68356,-11.43825 1.31162,-11.43825c1.84381,0 4.25151,19.77879 4.25151,19.77879v4.99091z" data-paper-data="{&quot;index&quot;:null}" fill="url(#color-8)" stroke="#000000" stroke-width="0.5" stroke-linecap="butt"></path><path d="M228.58334,187.75001v-1.66666c0,0 2.4281,-6.93965 3.0957,-11.79005c0.48362,-3.51372 -0.88067,-5.37662 -0.31793,-5.37662c0.17237,0 0.6721,-3.34867 1.18381,-5.29969c0.1946,-0.74196 -0.03675,-1.56692 0.34358,-1.51048c0.63127,0.09367 1.96567,5.38792 3.07974,7.01812c1.04667,1.53158 -2.32375,6.40478 -1.75288,8.39869c1.28696,4.49503 2.7013,8.56003 2.7013,8.56003v1.66666z" data-paper-data="{&quot;index&quot;:null}" fill="url(#color-9)" stroke="#000000" stroke-width="0.5" stroke-linecap="butt"></path><path d="M206.58334,193.58335v-32.33334h1.33333v32.33334z" fill="#945b26" stroke="#704d38" stroke-width="0.5" stroke-linecap="butt"></path><path d="M206.25,161.36112v-0.88889h49.33334v0.88889z" fill="#945b26" stroke="#704d38" stroke-width="0.5" stroke-linecap="butt"></path><path d="M254.91667,194.41668v-34h1.66667v34z" fill="#945b26" stroke="#704d38" stroke-width="0.5" stroke-linecap="butt"></path><path d="M221.56937,190.71209l-14.63677,-28.58126l3.1647,-1.62068l14.63677,28.58126z" fill="#cc8d53" stroke="#704d38" stroke-width="0.5" stroke-linecap="butt"></path><path d="M227.32149,188.42475l14.63677,-28.58126l3.1647,1.62068l-14.63677,28.58126z" data-paper-data="{&quot;index&quot;:null}" fill="#cc8d53" stroke="#704d38" stroke-width="0.5" stroke-linecap="butt"></path><path d="M208.36078,192.90305l-0.54574,-2.03936l47.04642,-13.10005l-0.45426,2.81713z" fill="#cc8d53" stroke="#704d38" stroke-width="0.5" stroke-linecap="butt"></path><path d="M243.09179,192.85629l4.62295,-31.88887l2.74904,0.39853l-4.62295,31.88887z" fill="#cc8d53" stroke="#704d38" stroke-width="0.5" stroke-linecap="butt"></path><path d="M207.37086,174.07227l0.86587,-3.88211l47.72574,17.51537l-1.08809,2.88211z" fill="#cc8d53" stroke="#704d38" stroke-width="0.5" stroke-linecap="butt"></path><path d="M185.41667,161.08335v-19.5h3.5v19.5z" fill="#8c6139" stroke="#704d38" stroke-width="0.5" stroke-linecap="butt"></path><path d="M188.75,143.41668v-1.83333h99.66667v1.83333z" fill="#8c6139" stroke="#704d38" stroke-width="0.5" stroke-linecap="butt"></path><path d="M287.99243,159.94698v-18.33334h5v18.33334z" fill="#8c6139" stroke="#704d38" stroke-width="0.5" stroke-linecap="butt"></path><path d="M193.08334,143.41668v1.5" fill="none" stroke="#17100c" stroke-width="0.5" stroke-linecap="round"></path><path d="M194.09091,146.4091c0,0.72801 -0.38666,1.31818 -0.86364,1.31818c-0.47698,0 -0.86364,-0.59017 -0.86364,-1.31818c0,-0.72801 0.38666,-1.31818 0.86364,-1.31818c0.47698,0 0.86364,0.59017 0.86364,1.31818z" fill="#dcc55a" stroke="#17100c" stroke-width="0.25" stroke-linecap="butt"></path><path d="M192.27273,146.27274h1.63636" fill="none" stroke="#17100c" stroke-width="0.25" stroke-linecap="round"></path><path d="M193.18182,145.45456l-0.09091,2.09091" fill="none" stroke="#17100c" stroke-width="0.25" stroke-linecap="round"></path><path d="M195.54546,146.54547c0,1.10457 -1.03789,2 -2.31818,2c-1.28029,0 -2.31818,-0.89543 -2.31818,-2c0,-1.10457 1.03789,-2 2.31818,-2c1.28029,0 2.31818,0.89543 2.31818,2z" fill="url(#color-10)" stroke="none" stroke-width="0" stroke-linecap="butt"></path><g><path d="M279.62879,143.6894v1.5" fill="none" stroke="#17100c" stroke-width="0.5" stroke-linecap="round"></path><path d="M280.63636,146.68183c0,0.72801 -0.38666,1.31818 -0.86364,1.31818c-0.47697,0 -0.86364,-0.59017 -0.86364,-1.31818c0,-0.72801 0.38666,-1.31818 0.86364,-1.31818c0.47698,0 0.86364,0.59017 0.86364,1.31818z" fill="#dcc55a" stroke="#17100c" stroke-width="0.25" stroke-linecap="butt"></path><path d="M278.81818,146.54546h1.63636" fill="none" stroke="#17100c" stroke-width="0.25" stroke-linecap="round"></path><path d="M279.72727,145.72728l-0.09091,2.09091" fill="none" stroke="#17100c" stroke-width="0.25" stroke-linecap="round"></path><path d="M282.09091,146.81819c0,1.10457 -1.03789,2 -2.31818,2c-1.28029,0 -2.31818,-0.89543 -2.31818,-2c0,-1.10457 1.03789,-2 2.31818,-2c1.2803,0 2.31818,0.89543 2.31818,2z" fill="url(#color-11)" stroke="none" stroke-width="0" stroke-linecap="butt"></path></g><path d="M212.80303,194.12122v-5.09091h1.63636v5.09091z" fill="#593e24" stroke="#704d38" stroke-width="0" stroke-linecap="butt"></path><path d="M222.25758,194.39395v-5.0909h1.63637v5.0909z" fill="#593e24" stroke="#704d38" stroke-width="0" stroke-linecap="butt"></path><path d="M231.80303,194.66667v-5.0909h1.63637v5.0909z" fill="#593e24" stroke="#704d38" stroke-width="0" stroke-linecap="butt"></path><path d="M241.25758,194.84849v-5.0909h1.63637v5.0909z" fill="#593e24" stroke="#704d38" stroke-width="0" stroke-linecap="butt"></path><path d="M248.89394,195.03031v-5.09091h1.63637v5.09091z" fill="#593e24" stroke="#704d38" stroke-width="0" stroke-linecap="butt"></path><path d="M207.5303,190.30304v-1.27273h47.54545v1.27273z" fill="#593e24" stroke="none" stroke-width="0" stroke-linecap="butt"></path><path d="M281.25,214.85305v-4.99091c0,0 2.4077,-19.77879 4.25151,-19.77879c0.62806,0 0.15929,7.22784 1.31162,11.43825c1.50628,5.50369 4.60353,8.34053 4.60353,8.34053v4.99091z" data-paper-data="{&quot;index&quot;:null}" fill="url(#color-12)" stroke="#000000" stroke-width="0.5" stroke-linecap="butt"></path><path d="M293.16393,220.90067v-84.11628h2.49063v84.11628z" fill="#686868" stroke="none" stroke-width="0.5" stroke-linecap="butt"></path></g></g></svg>