<svg version="1.1" xmlns="http://www.w3.org/2000/svg" xmlns:xlink="http://www.w3.org/1999/xlink" width="84.72776" height="45.84704" viewBox="0,0,84.72776,45.84704"><g transform="translate(-197.63612,-150.63899)"><g data-paper-data="{&quot;isPaintingLayer&quot;:true}" fill-rule="nonzero" stroke-linecap="butt" stroke-linejoin="miter" stroke-miterlimit="10" stroke-dasharray="" stroke-dashoffset="0" style="mix-blend-mode: normal"><path d="M197.88612,155.37942c0,-3.35149 3.32798,-4.49043 6.2482,-4.49043c8.98636,0 55.76172,0 72.17118,0c3.56473,0 5.34722,0.86354 5.34722,4.84476c0,9.38123 0.34923,27.743 0.34923,33.03602c0,3.2087 0.95258,7.02642 -2.70009,7.02642c-16.50052,0 -67.78275,0.43984 -76.82093,0.43984c-2.98854,0 -4.56302,-3.38519 -4.56302,-7.46626c0,0 -0.03179,-28.08745 -0.03179,-33.39033z" fill-opacity="0.47707" fill="#291800" stroke="#fff4ce" stroke-width="0.5"></path><text transform="translate(203.61616,159.58215) scale(0.11905,0.17802)" font-size="40" xml:space="preserve" fill="#dbb4a2" fill-rule="nonzero" stroke="none" stroke-width="1" stroke-linecap="butt" stroke-linejoin="miter" stroke-miterlimit="10" stroke-dasharray="" stroke-dashoffset="0" font-family="Sans Serif" font-weight="normal" text-anchor="start" style="mix-blend-mode: normal"><tspan x="0" dy="0">Pre-Run Shop</tspan></text><path d="M247.89401,158.21965c0,-1.4 0,-3.8164 0,-4.61497c0,-0.50471 0.86836,-1.08957 1.83273,-1.08957c2.96763,0 18.41458,0 23.83358,0c1.17721,0 1.88118,0.4056 1.88118,1.00515c0,1.41273 0,3.90231 0,4.69939c0,0.4832 -0.72337,1.03329 -1.92962,1.03329c-5.44908,0 -20.75195,0 -23.73669,0c-0.98693,0 -1.88118,-0.41872 -1.88118,-1.03329z" fill="#633f38" stroke="#fff4ce" stroke-width="0"></path><g stroke-width="0.5"><path d="M252.98171,155.2054c0,1.0222 -0.91152,1.85087 -2.03594,1.85087c-1.12443,0 -2.03594,-0.82866 -2.03594,-1.85087c0,-1.0222 0.91153,-1.85086 2.03594,-1.85086c1.12443,0 2.03594,0.82865 2.03594,1.85086z" fill="#fff4ce" stroke="#e6ddbb"></path><path d="M251.77178,154.83667c0,0.63505 -0.56628,1.14985 -1.26485,1.14985c-0.69855,0 -1.26485,-0.5148 -1.26485,-1.14985c0,-0.63505 0.56628,-1.14985 1.26485,-1.14985c0.69855,0 1.26485,0.5148 1.26485,1.14985z" fill="#e6ddbb" stroke="#e6ddbb"></path><path d="M251.98389,158.49011l-0.87966,-1.28566l1.28566,-0.87966l0.87967,1.28566z" fill="#e6ddbb" stroke="none"></path><path d="M253.40799,156.91003c0.81612,0.33219 0.12663,0.90952 -0.19378,1.17276c-0.5,0.41075 -1.07548,0.49574 -1.65042,0.39762v0.0528h-0.31155v0c-0.14854,0 -0.26896,-0.12043 -0.26896,-0.26897c0,-0.10736 0.06292,-0.20005 0.15389,-0.24317l0.30635,-0.15317l0.00494,0.00987l0.02203,-0.02157c0.02844,-0.00725 0.05688,-0.0145 0.08534,-0.02174c0.02134,-0.04355 0.05413,-0.08049 0.09443,-0.10689c0.03756,-0.05731 0.09643,-0.09942 0.16535,-0.11507l0.29254,-0.07314c0.17967,-0.07528 1.16682,-0.68346 1.29988,-0.6293z" fill="#fff4ce" stroke="none"></path></g><path d="M200.24643,192.39878c0,-2.19565 0,-5.98534 0,-7.23775c0,-0.79154 2.54262,-1.70879 5.36639,-1.70879c8.68945,0 53.91944,0 69.78673,0c3.44696,0 5.50824,0.63612 5.50824,1.57639c0,2.21563 0,6.12008 0,7.37018c0,0.75783 -2.1181,1.62051 -5.65009,1.62051c-15.95534,0 -60.76346,0 -69.50304,0c-2.88981,0 -5.50824,-0.65668 -5.50824,-1.62051z" fill="#445839" stroke="#abba90" stroke-width="0.5"></path><text transform="translate(230.73388,189.5302) scale(0.14663,0.14663)" font-size="40" xml:space="preserve" fill="#abba90" fill-rule="nonzero" stroke="none" stroke-width="1" stroke-linecap="butt" stroke-linejoin="miter" stroke-miterlimit="10" stroke-dasharray="" stroke-dashoffset="0" font-family="Impact" font-weight="normal" text-anchor="start" style="mix-blend-mode: normal"><tspan x="0" dy="0">CONFIRM</tspan></text><g stroke-width="0.5"><path d="M238.93973,191.36466c0,0.4886 -0.4357,0.88469 -0.97316,0.88469c-0.53746,0 -0.97316,-0.39609 -0.97316,-0.88469c0,-0.4886 0.4357,-0.88469 0.97316,-0.88469c0.53746,0 0.97316,0.39609 0.97316,0.88469z" fill="#fff4ce" stroke="#e6ddbb"></path><path d="M238.3614,191.18841c0,0.30355 -0.27068,0.54962 -0.60458,0.54962c-0.3339,0 -0.60458,-0.24607 -0.60458,-0.54962c0,-0.30355 0.27068,-0.54962 0.60458,-0.54962c0.3339,0 0.60458,0.24607 0.60458,0.54962z" fill="#e6ddbb" stroke="#e6ddbb"></path><path d="M238.46278,192.93472l-0.42047,-0.61453l0.61453,-0.42047l0.42047,0.61453z" fill="#e6ddbb" stroke="none"></path><path d="M239.14349,192.17946c0.3901,0.15878 0.06053,0.43474 -0.09262,0.56057c-0.23899,0.19633 -0.51407,0.23696 -0.78888,0.19006v0.02524h-0.14892v0c-0.071,0 -0.12856,-0.05756 -0.12856,-0.12856c0,-0.05132 0.03008,-0.09562 0.07356,-0.11623l0.14643,-0.07321l0.00236,0.00472l0.01053,-0.01031c0.01359,-0.00347 0.02719,-0.00693 0.04079,-0.01039c0.0102,-0.02082 0.02587,-0.03847 0.04514,-0.05109c0.01795,-0.02739 0.04609,-0.04752 0.07904,-0.055l0.13983,-0.03496c0.08588,-0.03598 0.55773,-0.32669 0.62133,-0.3008z" fill="#fff4ce" stroke="none"></path></g><text transform="translate(239.55205,192.20395) scale(0.08781,0.08781)" font-size="40" xml:space="preserve" fill="#fff4ce" fill-rule="nonzero" stroke="none" stroke-width="1" stroke-linecap="butt" stroke-linejoin="miter" stroke-miterlimit="10" stroke-dasharray="" stroke-dashoffset="0" font-family="Sans Serif" font-weight="normal" text-anchor="start" style="mix-blend-mode: normal"><tspan x="0" dy="0">??</tspan></text></g></g></svg>