<svg version="1.1" xmlns="http://www.w3.org/2000/svg" xmlns:xlink="http://www.w3.org/1999/xlink" width="82.05435" height="62" viewBox="0,0,82.05435,62"><defs><radialGradient cx="238.77717" cy="180.48913" r="17.6087" gradientUnits="userSpaceOnUse" id="color-1"><stop offset="0" stop-color="#ffc800"></stop><stop offset="1" stop-color="#ffc800" stop-opacity="0"></stop></radialGradient></defs><g transform="translate(-198.97283,-149)"><g data-paper-data="{&quot;isPaintingLayer&quot;:true}" fill-rule="nonzero" stroke-linecap="butt" stroke-linejoin="miter" stroke-miterlimit="10" stroke-dasharray="" stroke-dashoffset="0" style="mix-blend-mode: normal"><path d="M199.97283,210v-60h80.05435v60z" fill="#000000" stroke="#000000" stroke-width="2"></path><path d="M233.2337,181.46739v-3.91304h8.15217c0,0 0.97826,1.1413 0.97826,1.79348c0,0.65217 -0.97826,2.11957 -0.97826,2.11957z" fill="#ffc800" stroke="none" stroke-width="0"></path><path d="M233.39674,178.36957l-0.32609,-9.29348l3.58696,4.07242v5.22105z" fill="#ffc800" stroke="none" stroke-width="0"></path><path d="M241.38587,180.81522v7.3278l-3.58696,5.71568l0.32609,-13.04348z" data-paper-data="{&quot;index&quot;:null}" fill="#ffc800" stroke="none" stroke-width="0"></path><path d="M256.38587,180.48913c0,8.28427 -7.88368,15 -17.6087,15c-9.72501,0 -17.6087,-6.71573 -17.6087,-15c0,-8.28427 7.88368,-15 17.6087,-15c9.72501,0 17.6087,6.71573 17.6087,15z" fill="url(#color-1)" stroke="none" stroke-width="0"></path></g></g></svg>