<svg version="1.1" xmlns="http://www.w3.org/2000/svg" xmlns:xlink="http://www.w3.org/1999/xlink" width="225.58678" height="230.89608" viewBox="0,0,225.58678,230.89608"><g transform="translate(-182.9026,-52.44182)"><g data-paper-data="{&quot;isPaintingLayer&quot;:true}" fill-rule="nonzero" stroke-linecap="butt" stroke-linejoin="miter" stroke-miterlimit="10" stroke-dasharray="" stroke-dashoffset="0" style="mix-blend-mode: normal"><path d="M207.32212,248.32009v-35.00397h7.77866v35.00397z" fill="#c6aaa0" stroke="#bb7f00" stroke-width="1"></path><path d="M263.71741,282.8379v-49.10279h7.77866v49.10279z" fill="#c6aaa0" stroke="#bb7f00" stroke-width="1"></path><path d="M217.87944,282.2134v-49.10279h7.77866v49.10279z" fill="#c6aaa0" stroke="#bb7f00" stroke-width="1"></path><path d="M211.55928,211.23312v-102.54999c0,0 19.79863,-54.24131 30.06751,-54.24131c7.42515,0 20.16589,23.25459 28.07789,39.31092c-0.0308,-0.00564 -0.06181,-0.01109 -0.09302,-0.01637c-5.46648,-0.92451 -6.2474,5.54706 -6.2474,5.54706c-1.75149,14.53548 -2.23045,28.85947 -3.60036,43.41733c-0.73703,7.83222 -2.41009,17.66858 -1.39509,25.50845c0.44837,3.46326 1.67756,6.73933 2.15151,10.19781l0.92413,3.53511c0,0 1.7462,6.2018 6.98481,4.13453c5.23861,-2.06726 3.49241,-8.26907 3.49241,-8.26907l-0.50766,-1.55002c-0.49423,-3.43567 -1.60334,-6.71679 -2.14385,-10.14268c-0.36365,-2.30488 0.67462,-7.87094 0.7733,-9.50719c0.25013,-4.14701 0.30836,-8.31324 0.69518,-12.4455c1.29573,-13.84175 1.7781,-27.45385 3.34922,-41.24552c1.64526,3.54448 2.61771,5.76645 2.61771,5.76645v102.54999zM247.03723,143.89121c1.78832,-10.51686 3.65607,-21.00595 5.05299,-31.62937c0.97885,-7.44406 0.65993,-14.81242 1.45895,-22.26083c0,0 0.68492,-6.48679 -4.79442,-7.29764c-5.47933,-0.81085 -6.16426,5.67594 -6.16426,5.67594c-0.75796,7.28181 -0.42344,14.56551 -1.40462,21.81024c-3.33481,24.62329 -7.22873,48.01514 -7.22873,73.07539l10.1425,3.77503c0,0 3.20907,-3.79909 0.89951,-7.95316c-0.00254,-11.71686 0.08937,-23.73541 2.03809,-35.1956zM230.68322,183.26494l-0.07513,-1.46784c2.29576,-16.30721 1.14553,-32.70177 0.05631,-49.07507c-0.7842,-11.78816 0.89434,-23.45209 2.12386,-35.09333c0,0 0.68491,-6.48679 -4.79442,-7.29764c-5.47933,-0.81085 -6.16425,5.67594 -6.16425,5.67594c-1.32609,12.56304 -2.97996,25.07632 -2.1715,37.79342c0.97276,15.30148 2.20106,30.61274 0.05632,45.84724l-0.07514,3.61728c0,0 0,6.53727 5.52198,6.53727c5.52198,0 5.52197,-6.53727 5.52197,-6.53727z" fill="#c6aaa0" stroke="#bb7f00" stroke-width="4"></path><path d="M223.22727,244.77859l-10.69566,-32.08697h64.17395l9.72332,29.65614z" fill="#bb694b" stroke="none" stroke-width="0"></path><path d="M223.25,222v-90h39v90z" fill="#0067ff" stroke="none" stroke-width="0"></path><path d="M237.25,155.5v-21.5h12.5v21.5c0,0 -4.39784,11 -6.57895,11c-1.96242,0 -5.92105,-11 -5.92105,-11z" fill="#ffffff" stroke="none" stroke-width="0"></path><path d="M264.5792,121.53234c-3.55902,7.99414 -4.54415,21.50209 -12.63099,23.05985c-5.18337,0.99847 -16.93036,-7.76039 -22.15285,-10.08546c-13.37036,-5.95253 -19.47474,-21.41232 -13.63452,-34.53041c5.84022,-13.11809 21.41348,-18.92692 34.78384,-12.9744c13.37036,5.95253 19.47475,21.41233 13.63453,34.53042z" fill="#ffdcb0" stroke="none" stroke-width="NaN"></path><path d="M218.73138,97.34574l1.5,-4.5c0,0 15.36945,-10 22,-10c5.96574,0 16.5,10 16.5,10l6,4.5c0,0 -6.48362,0.42834 -10.24377,2.4245c-2.62394,1.39298 -4.62602,4.5755 -7.25623,4.5755c-2.37716,0 -2.50956,-4.73986 -6.32977,-5.73851c-7.93043,-2.07312 -22.17023,-1.26149 -22.17023,-1.26149z" fill="#a75c00" stroke="none" stroke-width="0"></path><path d="M228.75,107c0,-0.55228 0.44771,-1 1,-1c0.55229,0 1,0.44772 1,1c0,0.55228 -0.44771,1 -1,1c-0.55229,0 -1,-0.44772 -1,-1z" fill="#000000" stroke="none" stroke-width="0.5"></path><path d="M234.25,103c0,1 -1,1 -1,1h-0.5c-0.96223,0 -3.84761,-0.51732 -4.61732,-0.07612c-0.70296,0.40293 -1.21446,1.10089 -1.93547,1.47055c0,0 -0.89443,0.44721 -1.34164,-0.44721c-0.44721,-0.89443 0.44721,-1.34164 0.44721,-1.34164c0.77112,-0.37265 1.28643,-1.17159 2.06453,-1.52945c1.26099,-0.57996 3.9848,-0.07612 5.38268,-0.07612h0.5c0,0 1,0 1,1z" fill="#000000" stroke="none" stroke-width="0.5"></path><path d="M256.25,108.5c0,-0.55228 0.44772,-1 1,-1c0.55228,0 1,0.44772 1,1c0,0.55228 -0.44772,1 -1,1c-0.55228,0 -1,-0.44772 -1,-1z" fill="#000000" stroke="none" stroke-width="0.5"></path><path d="M261.95711,105.70711c-0.70711,0.70711 -1.41421,0 -1.41421,0l0.20711,-0.20711c-2.25676,0 -3.87049,0.95368 -6,1c0,0 -1,0 -1,-1c0,-1 1,-1 1,-1c1.21988,0.04237 1.59268,-0.68185 2.77025,-0.97325c0.92799,-0.22963 2.26675,-0.02675 3.22975,-0.02675l1.20711,0.79289c0,0 0.70711,0.70711 0,1.41421z" fill="#000000" stroke="none" stroke-width="0.5"></path><path d="M250.25,136.5c0,0 0,1 -1,1c-1,0 -1,-1 -1,-1c0.04407,-2.02586 1.06354,-2.4867 2.01219,-3.68305c0.11391,-0.81695 0.98781,-0.81695 0.98781,-0.81695h1c0.55228,0 1,0.44772 1,1c0,0.55228 -0.44772,1 -1,1h-0.53484c-0.52849,1.19775 -1.51836,0.96808 -1.46516,2.5z" fill="#d2b491" stroke="none" stroke-width="0.5"></path><path d="M253.19721,136.10557c0.89443,0.44721 0.44721,1.34164 0.44721,1.34164l-0.5,1c-0.81419,1.51275 -0.33237,1.78507 -1.68732,3.25989c0,0 -0.70711,0.70711 -1.41421,0c-0.70711,-0.70711 0,-1.41421 0,-1.41421c1.02073,-0.88044 0.70816,-1.46859 1.31268,-2.74011l0.5,-1c0,0 0.44721,-0.89443 1.34164,-0.44721z" fill="#d2b491" stroke="none" stroke-width="0.5"></path><path d="M217.95711,119.70711c-0.70711,0.70711 -1.41421,0 -1.41421,0l-0.79289,-1.20711c0,-3.18245 -0.76219,-7.57034 0.60557,-10.44721c0,0 0.44721,-0.89443 1.34164,-0.44721c0.89443,0.44721 0.44721,1.34164 0.44721,1.34164c-1.25972,2.34053 -0.39443,6.87881 -0.39443,9.55279l0.20711,-0.20711c0,0 0.70711,0.70711 0,1.41421z" fill="#d2b491" stroke="none" stroke-width="0.5"></path><g data-paper-data="{&quot;index&quot;:null}" stroke="none" stroke-width="0"><path d="M199.28479,174.67375l21.73176,-22.80309l8.32494,7.93381l-21.73176,22.80309z" fill="#0067ff"></path><path d="M188.69232,182.84985l11.57564,-10.30798l8.31289,9.33519l-11.57564,10.30798z" fill="#ffdcb0"></path><path d="M195.76947,186.34823l-11.14356,-9.66352l1.96546,-2.26648l11.14356,9.66352z" fill="#ffdcb0"></path><path d="M197.70692,179.91642l-12.77473,7.37351l-1.4997,-2.59826l12.77473,-7.37351z" fill="#ffdcb0"></path><path d="M196.21341,183.60972l-11.40952,9.34801l-1.90129,-2.32059l11.40952,-9.34801z" fill="#ffdcb0"></path><path d="M199.00787,187.10128l-11.40952,9.34801l-1.90129,-2.32059l11.40952,-9.34801z" fill="#ffdcb0"></path><path d="M202.06433,185.40479l-8.19959,12.26088l-2.49375,-1.66772l8.19959,-12.26088z" fill="#ffdcb0"></path></g><path d="M215.45412,263.53983l13.08963,-43.40245l11.16975,3.36866l-13.08963,43.40245z" fill="#ad7f45" stroke="none" stroke-width="0"></path><path d="M270.87112,260.51183l-26.78799,-36.57204l9.41192,-6.89397l26.78799,36.57204z" fill="#ad7f45" stroke="none" stroke-width="0"></path><path d="M232.39503,241.8226c-0.57668,0.81696 -1.39365,0.24029 -1.39365,0.24029l-1.09509,-0.83925c-0.29477,-0.8664 -0.28935,-1.82413 -0.63763,-2.67044c-0.20134,-0.48925 -2.1433,-0.65289 -2.46882,-0.34445c-0.37087,0.3514 -0.18043,1.00808 -0.32795,1.49722c0,0 -0.28874,0.95741 -1.24615,0.66867c-0.95741,-0.28874 -0.66867,-1.24615 -0.66867,-1.24615c0.12469,-0.41344 0.61933,-2.14607 0.82702,-2.33241c1.32435,-1.18823 4.61914,-0.9028 5.57543,0.68894c0.45138,0.75134 0.36718,1.71425 0.568,2.56744l0.62723,0.3765c0,0 0.81696,0.57668 0.24029,1.39365z" fill="#6a4e2b" stroke="none" stroke-width="0.5"></path><path d="M264.27633,235.73348c-0.36017,0.93289 -1.29305,0.57272 -1.29305,0.57272l-0.82364,-0.32876c-0.46684,-0.3088 -1.1071,-0.182 -1.66621,-0.20813c-0.44482,-0.02079 -1.10902,-0.61236 -1.31783,-0.21906c-0.49981,0.94141 0.07725,1.95093 -0.51785,3.11928c0,0 -0.48847,0.87258 -1.36106,0.3841c-0.87258,-0.48847 -0.3841,-1.36106 -0.3841,-1.36106c0.80143,-1.21159 -0.41755,-2.08024 0.73199,-3.42918c1.14783,-1.34694 4.21886,-0.67959 5.492,-0.03112l0.56702,0.20814c0,0 0.93289,0.36017 0.57272,1.29305z" fill="#6a4e2b" stroke="none" stroke-width="0.5"></path><path d="M200.98157,269.96813l3.36866,-11.16975c0,0 4.59768,2.81678 9.41994,2.22131c3.59521,-0.44395 7.36024,-4.47204 9.19632,-3.9183c2.73185,0.82389 4.68066,8.72304 4.68066,8.72304l-3.36866,11.16975z" fill="#b7b7b7" stroke="none" stroke-width="0"></path><path d="M277.32495,268.96203l-7.85551,-8.62566c0,0 -1.64753,-7.96745 0.46209,-9.8887c1.41787,-1.29128 6.55175,0.71976 9.98701,-0.42982c4.60773,-1.54195 7.54156,-6.06583 7.54156,-6.06583l7.85551,8.62566z" data-paper-data="{&quot;index&quot;:null}" fill="#b7b7b7" stroke="none" stroke-width="0"></path><path d="M269.67619,187.80911l-13.73053,-28.35001l10.35,-5.01274l13.73053,28.35001z" fill="#0067ff" stroke="none" stroke-width="0"></path><path d="M273.61689,200.26947l-5.59222,-14.45604l11.65809,-4.50986l5.59222,14.45604z" fill="#ffdcb0" stroke="none" stroke-width="0"></path><path d="M276.96686,193.4929l4.75152,13.96372l-2.84009,0.96641l-4.75152,-13.96372z" fill="#ffdcb0" stroke="none" stroke-width="0"></path><path d="M280.70034,188.64349l8.60532,11.97961l-2.43654,1.75024l-8.60532,-11.97961z" fill="#ffdcb0" stroke="none" stroke-width="0"></path><path d="M281.21683,192.10085l4.75152,13.96372l-2.84009,0.96641l-4.75152,-13.96372z" fill="#ffdcb0" stroke="none" stroke-width="0"></path><path d="M274.03219,190.7987l2.42358,14.54952l-2.95923,0.49293l-2.42358,-14.54952z" fill="#ffdcb0" stroke="none" stroke-width="0"></path><path d="M279.37561,194.86929l-12.95855,7.04546l-1.43297,-2.63564l12.95855,-7.04546z" fill="#ffdcb0" stroke="none" stroke-width="0"></path><path d="M235.82864,129.24233c-0.89443,0.44721 -1.34164,-0.44721 -1.34164,-0.44721l-0.48617,-0.97233c-0.24675,-0.49349 -0.11895,-1.2776 -0.60363,-1.54123c-0.78357,-0.42622 -2.24092,0.99709 -2.46917,1.54123c0,0 -0.44721,0.89443 -1.34164,0.44721c-0.89443,-0.44721 -0.44721,-1.34164 -0.44721,-1.34164c0.89207,-1.63214 3.23755,-3.35973 5.30949,-2.3481c0.27033,0.13199 1.13408,1.93421 1.34103,2.3481l0.48617,0.97234c0,0 0.44721,0.89442 -0.44721,1.34164z" fill="#000000" stroke="none" stroke-width="0.5"></path><path d="M258.23124,124.48624c-1,0 -1,-1 -1,-1c0,-2.43083 0,-6.32016 0,-8.75099c0,0 0,-1 1,-1c1,0 1,1 1,1c0,2.43083 0,4.86166 0,7.29249v1.4585c0,0 0,1 -1,1z" fill="#ffb9b9" stroke="none" stroke-width="0.5"></path><path d="M197.40778,181.88029c0.97776,-0.20974 1.18749,0.76802 1.18749,0.76802l-0.25094,1.46582c-0.81301,0.6478 -1.49141,1.06278 -2.25421,1.38634l0.06622,0.0861l-0.79819,0.61398c-0.11771,0.09466 -0.25873,0.164 -0.4165,0.19785c-0.54,0.11583 -1.07166,-0.22803 -1.18749,-0.76802c-0.05792,-0.27 -0.00091,-0.53791 0.13807,-0.75281l0.10982,-0.1698c-0.06678,-0.28196 -0.00106,-0.53688 -0.00106,-0.53688c0.18243,-0.50815 0.36487,-1.01631 0.5473,-1.52447l0.53719,-0.00235l-0.05447,-0.25394l1.42606,-0.3059c0.16396,-0.03517 0.32715,-0.02797 0.47816,0.01425c0.11361,-0.09589 0.26678,-0.17404 0.47254,-0.21818z" fill="#ffb9b9" stroke="none" stroke-width="0.5"></path><path d="M279.16056,192.58397c-0.012,0.88622 -0.05629,1.62446 -0.15474,2.3687h0.15824v1.94467c0,0.55228 -0.44772,1 -1,1c-0.3992,0 -0.74377,-0.23392 -0.90412,-0.57216l-0.47648,-0.95296l0.09064,-0.04532l-0.16946,-0.17214c-0.02886,-2.34558 -0.02675,-4.69035 -0.02675,-7.03608c0,0 0,-1 1,-1c1,0 1,1 1,1c0,1.01184 0.00159,2.02354 -0.00007,3.03519l0.48623,-0.1182c0,0.16707 -0.00086,0.32863 -0.0027,0.48551l0.0027,0.00066c0,0 0,0.02304 -0.0035,0.06213z" fill="#ffb9b9" stroke="none" stroke-width="0.5"></path><path d="M237.32609,91.39926v-11.66799c0,0 4.07744,-5.834 5.834,-5.834c2.07838,0 5.834,5.834 5.834,5.834v11.66799z" fill="#ff5a5a" stroke="none" stroke-width="0"></path><path d="M230.34973,114.6622c0,1.80668 -0.58584,3.27128 -1.30851,3.27128c-0.72267,0 -1.30851,-1.4646 -1.30851,-3.27128c0,-1.80668 0.58584,-3.27128 1.30851,-3.27128c0.72267,0 1.30851,1.4646 1.30851,3.27128z" fill="#59d7ff" stroke="none" stroke-width="0"></path><path d="M287.26997,119.07444v-27.47873h120.38302v27.47873z" fill="#66ff99" stroke="none" stroke-width="0"></path><text transform="translate(292.17688,112.20476) scale(0.5,0.5)" font-size="40" xml:space="preserve" fill="#000000" fill-rule="nonzero" stroke="none" stroke-width="1" stroke-linecap="butt" stroke-linejoin="miter" stroke-miterlimit="10" stroke-dasharray="" stroke-dashoffset="0" font-family="Sans Serif" font-weight="normal" text-anchor="start" style="mix-blend-mode: normal"><tspan x="0" dy="0">E to interact</tspan></text></g></g></svg>