<svg version="1.1" xmlns="http://www.w3.org/2000/svg" xmlns:xlink="http://www.w3.org/1999/xlink" width="33.75" height="36" viewBox="0,0,33.75,36"><defs><radialGradient cx="240" cy="180" r="18" gradientUnits="userSpaceOnUse" id="color-1"><stop offset="0" stop-color="#66ffcf"></stop><stop offset="1" stop-color="#66ffcf" stop-opacity="0"></stop></radialGradient><linearGradient x1="240.13774" y1="184.82513" x2="240.13774" y2="187.69087" gradientUnits="userSpaceOnUse" id="color-2"><stop offset="0" stop-color="#6aeca0"></stop><stop offset="1" stop-color="#cfffe3"></stop></linearGradient><radialGradient cx="238.13839" cy="176.028" r="1.16629" gradientUnits="userSpaceOnUse" id="color-3"><stop offset="0" stop-color="#00edca"></stop><stop offset="1" stop-color="#00edca" stop-opacity="0"></stop></radialGradient><radialGradient cx="242.86918" cy="176.29358" r="1.16629" gradientUnits="userSpaceOnUse" id="color-4"><stop offset="0" stop-color="#00edca"></stop><stop offset="1" stop-color="#00edca" stop-opacity="0"></stop></radialGradient></defs><g transform="translate(-223.125,-162)"><g data-paper-data="{&quot;isPaintingLayer&quot;:true}" fill-rule="nonzero" stroke="none" stroke-width="0" stroke-linecap="butt" stroke-linejoin="miter" stroke-miterlimit="10" stroke-dasharray="" stroke-dashoffset="0" style="mix-blend-mode: normal"><path d="M256.875,180c0,9.94112 -7.5552,18 -16.875,18c-9.3198,0 -16.875,-8.05888 -16.875,-18c0,-9.94112 7.5552,-18 16.875,-18c9.3198,0 16.875,8.05888 16.875,18z" fill="url(#color-1)"></path><path d="M233.1067,187.78287c0,0 -6.06469,-1.45361 -6.06469,-2.13264c0,-0.75655 6.06469,-2.19928 6.06469,-2.19928c0,0 11.6989,-5.3316 14.26202,-5.3316c2.93902,0 2.39922,5.3316 2.39922,5.3316v4.33192c0,0 1.83427,5.46489 -0.53316,5.46489c-1.14018,0 -5.12849,-3.0085 -8.74106,-2.10842c-2.59633,0.64688 -4.80525,5.47145 -6.52663,4.79591c-2.23595,-0.87748 -0.86039,-8.15238 -0.86039,-8.15238z" fill="#cfffe3"></path><path d="M234.03973,187.69087v-2.86573c0,0 1.9731,-1.13296 2.26593,-1.13296c1.11498,0 4.86311,-0.11551 7.0111,0.16367c0.49051,0.06375 2.919,0.96929 2.919,0.96929v2.86573z" fill="url(#color-2)"></path><path d="M235.70585,184.15869v-8.73049c0,0 0.65536,-0.49689 0.74584,-1.07476c0.05241,-0.33476 -0.57182,-0.78524 -0.35869,-0.95221c0.25689,-0.20125 0.72863,0.0758 1.10211,0.00323c0.95609,-0.18578 2.00839,-0.44213 2.64274,-0.44213c0.64269,0 1.93579,0.52182 3.03456,0.62642c0.56606,0.05388 1.03158,-0.49254 1.43258,-0.25251c0.80893,0.4842 0.73117,2.09196 0.73117,2.09196v8.73049z" fill-opacity="0.62092" fill="#65e199"></path><path d="M239.30468,176.028c0,0.47849 -0.52216,0.86639 -1.16629,0.86639c-0.64412,0 -1.16629,-0.38789 -1.16629,-0.86639c0,-0.47849 0.52216,-0.86638 1.16629,-0.86638c0.64412,0 1.16629,0.38789 1.16629,0.86638z" fill="url(#color-3)"></path><path d="M244.03547,176.29358c0,0.47849 -0.52216,0.86638 -1.16629,0.86638c-0.64412,0 -1.16629,-0.38789 -1.16629,-0.86638c0,-0.47849 0.52217,-0.86638 1.16629,-0.86638c0.64412,0 1.16629,0.38789 1.16629,0.86638z" fill="url(#color-4)"></path><path d="M233.34943,182.09402l1.21592,-3.3872l1.63087,0.58544l-1.21592,3.3872z" fill="#65e199"></path><path d="M247.94538,182.40486l-3.36685,-1.27119l0.61205,-1.62107l3.36685,1.27119z" fill="#65e199"></path></g></g></svg>