<svg version="1.1" xmlns="http://www.w3.org/2000/svg" xmlns:xlink="http://www.w3.org/1999/xlink" width="54.97784" height="56.5031" viewBox="0,0,54.97784,56.5031"><defs><radialGradient cx="244.48342" cy="171.57205" r="3.58278" gradientUnits="userSpaceOnUse" id="color-1"><stop offset="0" stop-color="#fcd688"></stop><stop offset="1" stop-color="#fcd688" stop-opacity="0"></stop></radialGradient><linearGradient x1="238.08267" y1="198.49983" x2="237.52254" y2="200.22497" gradientUnits="userSpaceOnUse" id="color-2"><stop offset="0" stop-color="#321f21"></stop><stop offset="1" stop-color="#472a26"></stop></linearGradient><linearGradient x1="239.6648" y1="181.12353" x2="239.6648" y2="201.37806" gradientUnits="userSpaceOnUse" id="color-3"><stop offset="0" stop-color="#b6684e"></stop><stop offset="1" stop-color="#472a26"></stop></linearGradient><linearGradient x1="247.37006" y1="182.26712" x2="247.37006" y2="201.35251" gradientUnits="userSpaceOnUse" id="color-4"><stop offset="0" stop-color="#532e2c"></stop><stop offset="1" stop-color="#341f21"></stop></linearGradient><linearGradient x1="235.34242" y1="180.51162" x2="252.81609" y2="180.51162" gradientUnits="userSpaceOnUse" id="color-5"><stop offset="0" stop-color="#b6684e"></stop><stop offset="1" stop-color="#5f3730"></stop></linearGradient><radialGradient cx="240.35907" cy="162.86512" r="7.75901" gradientUnits="userSpaceOnUse" id="color-6"><stop offset="0" stop-color="#ffd9aa"></stop><stop offset="1" stop-color="#a4593e"></stop></radialGradient><radialGradient cx="235.22394" cy="162.64095" r="7.19607" gradientUnits="userSpaceOnUse" id="color-7"><stop offset="0" stop-color="#ffc297"></stop><stop offset="1" stop-color="#a15a42"></stop></radialGradient><linearGradient x1="228.49166" y1="159.02495" x2="238.70965" y2="159.81377" gradientUnits="userSpaceOnUse" id="color-8"><stop offset="0" stop-color="#a35e47"></stop><stop offset="1" stop-color="#c29285"></stop></linearGradient><linearGradient x1="235.4865" y1="162.1868" x2="235.67902" y2="161.37617" gradientUnits="userSpaceOnUse" id="color-9"><stop offset="0" stop-color="#fef4d2" stop-opacity="0"></stop><stop offset="1" stop-color="#fef4d2"></stop></linearGradient><linearGradient x1="236.13061" y1="161.90179" x2="235.48818" y2="161.85222" gradientUnits="userSpaceOnUse" id="color-10"><stop offset="0" stop-color="#ecd5b5"></stop><stop offset="1" stop-color="#ecd5b5" stop-opacity="0"></stop></linearGradient><radialGradient cx="242.55317" cy="174.30772" r="0.56658" gradientUnits="userSpaceOnUse" id="color-11"><stop offset="0" stop-color="#55170f"></stop><stop offset="1" stop-color="#faccb4"></stop></radialGradient><radialGradient cx="243.71965" cy="176.00189" r="0.56658" gradientUnits="userSpaceOnUse" id="color-12"><stop offset="0" stop-color="#55170f"></stop><stop offset="1" stop-color="#faccb4"></stop></radialGradient><radialGradient cx="244.9417" cy="177.52943" r="0.56658" gradientUnits="userSpaceOnUse" id="color-13"><stop offset="0" stop-color="#55170f"></stop><stop offset="1" stop-color="#faccb4"></stop></radialGradient><radialGradient cx="245.35829" cy="174.66878" r="0.56658" gradientUnits="userSpaceOnUse" id="color-14"><stop offset="0" stop-color="#55170f"></stop><stop offset="1" stop-color="#faccb4"></stop></radialGradient><radialGradient cx="242.3032" cy="177.25171" r="0.56658" gradientUnits="userSpaceOnUse" id="color-15"><stop offset="0" stop-color="#55170f"></stop><stop offset="1" stop-color="#faccb4"></stop></radialGradient><linearGradient x1="246.94412" y1="174.34291" x2="246.94412" y2="181.00849" gradientUnits="userSpaceOnUse" id="color-16"><stop offset="0" stop-color="#794237"></stop><stop offset="1" stop-color="#d27e67"></stop></linearGradient><linearGradient x1="234.85997" y1="183.32014" x2="251.77391" y2="183.32014" gradientUnits="userSpaceOnUse" id="color-17"><stop offset="0" stop-color="#f4a681"></stop><stop offset="1" stop-color="#5a3630"></stop></linearGradient><radialGradient cx="238.10945" cy="193.73517" r="3.20247" gradientUnits="userSpaceOnUse" id="color-18"><stop offset="0" stop-color="#c88469"></stop><stop offset="1" stop-color="#5a332a"></stop></radialGradient></defs><g transform="translate(-209.86823,-148.23634)"><g data-paper-data="{&quot;isPaintingLayer&quot;:true}" fill-rule="nonzero" stroke-linejoin="miter" stroke-miterlimit="10" stroke-dasharray="" stroke-dashoffset="0" style="mix-blend-mode: normal"><path d="M216.15397,196.45829c0,-9.86526 0,-26.89275 0,-32.51997c0,-3.55647 1.50337,-7.67776 3.17295,-7.67776c5.13777,0 31.88059,0 41.26234,0c2.03805,0 3.25682,2.85812 3.25682,7.08287c0,9.95502 0,27.49809 0,33.11485c0,3.40496 -1.25235,7.28116 -3.34069,7.28116c-9.43383,0 -35.92722,0 -41.09461,0c-1.70864,0 -3.25682,-2.95049 -3.25682,-7.28116z" fill-opacity="0.62097" fill="#291800" stroke="#d6cdad" stroke-width="2" stroke-linecap="butt"></path><g stroke-linecap="butt"><path d="M212.36824,162.03501c0,-2.30933 0,-6.29523 0,-7.61249c0,-0.83253 0.35192,-1.79726 0.74274,-1.79726c1.20269,0 7.46283,0 9.65897,0c0.47708,0 0.76238,0.66905 0.76238,1.65801c0,2.33034 0,6.43694 0,7.75175c0,0.79706 -0.29315,1.70443 -0.78201,1.70443c-2.20834,0 -8.41009,0 -9.61971,0c-0.39997,0 -0.76238,-0.69067 -0.76238,-1.70443z" fill-opacity="0.47425" fill="#000000" stroke="#fff4ce" stroke-width="0"></path><path d="M210.36824,159.89216c0,-2.30933 0,-6.29523 0,-7.61249c0,-0.83253 0.35192,-1.79726 0.74274,-1.79726c1.20269,0 7.46283,0 9.65897,0c0.47708,0 0.76238,0.66904 0.76238,1.658c0,2.33034 0,6.43695 0,7.75176c0,0.79706 -0.29315,1.70443 -0.78201,1.70443c-2.20834,0 -8.41009,0 -9.61971,0c-0.39997,0 -0.76238,-0.69067 -0.76238,-1.70443z" fill-opacity="0.88705" fill="#291800" stroke="#fff4ce" stroke-width="1"></path><text transform="translate(213.35853,159.88738) scale(0.26784,0.26784)" font-size="40" xml:space="preserve" fill="#fff4ce" fill-rule="nonzero" stroke="none" stroke-width="1" stroke-linecap="butt" stroke-linejoin="miter" stroke-miterlimit="10" stroke-dasharray="" stroke-dashoffset="0" font-family="Sans Serif" font-weight="normal" text-anchor="start" style="mix-blend-mode: normal"><tspan x="0" dy="0">2</tspan></text></g><g><text transform="translate(238.16778,177.62941) scale(0.08432,0.08432)" font-size="40" xml:space="preserve" fill="#66ddff" fill-rule="nonzero" stroke="none" stroke-width="0.25" stroke-linecap="butt" stroke-linejoin="miter" stroke-miterlimit="10" stroke-dasharray="" stroke-dashoffset="0" font-family="Sans Serif" font-weight="normal" text-anchor="start" style="mix-blend-mode: normal"><tspan x="0" dy="0">xAmt8</tspan></text><path d="M247.19132,171.57205c0,1.97869 -1.21236,3.58278 -2.70791,3.58278c-1.49555,0 -2.70791,-1.60404 -2.70791,-3.58278c0,-1.97869 1.21236,-3.58278 2.70791,-3.58278c1.49555,0 2.70791,1.60404 2.70791,3.58278z" fill="url(#color-1)" stroke="none" stroke-width="0.125" stroke-linecap="butt"></path><path d="M230.71869,195.52764l1.75998,0.24199l11.20794,5.46041c0,0 2.34645,-0.58942 2.32489,-0.26188c-0.01132,0.17239 3.95378,-0.64041 3.44195,-0.27718c-0.22712,0.16116 -5.88492,2.33404 -5.88492,2.33404c0,0 -10.28227,-5.08871 -12.22522,-6.22241c-0.65725,-0.38346 -0.62466,-1.27497 -0.62466,-1.27497z" fill="url(#color-2)" stroke="none" stroke-width="0.125" stroke-linecap="butt"></path><path d="M230.70146,194.38006l4.63264,-13.38284l13.04304,1.63008c0,0 0.44598,1.70643 0.149,2.79031c-0.81004,2.95624 -5.28684,15.96045 -5.28684,15.96045c0,0 -10.41296,-4.21852 -12.01503,-5.11268c-0.41132,-0.22958 -0.52282,-1.88526 -0.52282,-1.88526z" fill="url(#color-3)" stroke="none" stroke-width="0.125" stroke-linecap="butt"></path><path d="M249.8061,197.89432l0.68718,-15.64645l2.08211,-0.04041c0,0 -0.51735,8.84038 -0.64302,11.70187c-0.07221,1.64357 -0.17047,4.07089 -0.17047,4.07089c0,0 -1.64445,1.87448 -2.48182,2.69299c-0.23574,0.23042 -0.40753,0.37716 -0.46065,0.37485c-0.36101,-0.01585 0.98671,-3.15368 0.98671,-3.15368z" fill="#321f21" stroke="none" stroke-width="0.125" stroke-linecap="butt"></path><path d="M243.22021,201.3117l4.8035,-19.04458l3.49619,0.62781l-1.70908,14.93973c0,0 0.08383,2.21492 -0.79744,2.97726c-0.06207,0.0537 -0.12897,0.10022 -0.20103,0.13822c-1.10229,0.58154 -5.59213,0.36151 -5.59213,0.36151z" fill="url(#color-4)" stroke="none" stroke-width="0.125" stroke-linecap="butt"></path><path d="M235.34242,180.93318l0.40433,-3.57682l13.67307,1.35127l3.09329,2.51982l0.30303,0.9526c0,0 -1.22624,0.33699 -1.25238,0.4413c-0.08639,0.34477 0.33798,1.04558 0.33798,1.04558l-4.02299,-0.87724l-11.43728,-0.5395z" fill="url(#color-5)" stroke="#000000" stroke-width="0.125" stroke-linecap="butt"></path><path d="M235.27184,179.07022l-1.43141,-3.0255l6.05096,-2.86282l1.43141,3.0255z" fill="#572f2a" stroke="#000000" stroke-width="0.125" stroke-linecap="butt"></path><path d="M247.7103,176.90831c0,-1.37765 1.11681,-2.49447 2.49447,-2.49447c0.58627,0 1.12528,0.20226 1.55112,0.54078c0.57485,0.45695 0.94334,1.1623 0.94334,1.95368c0,1.37765 -1.11681,2.49447 -2.49447,2.49447c-1.37765,0 -2.49447,-1.11681 -2.49447,-2.49447z" fill="#b06b59" stroke="none" stroke-width="0.125" stroke-linecap="butt"></path><path d="M247.37006,176.69438c0,-1.37765 1.11681,-2.49447 2.49447,-2.49447c1.37765,0 2.49447,1.11681 2.49447,2.49447c0,1.37765 -1.11681,2.49447 -2.49447,2.49447c-1.37765,0 -2.49447,-1.11681 -2.49447,-2.49447z" fill="#ecac8b" stroke="none" stroke-width="0.125" stroke-linecap="butt"></path><text transform="translate(237.17137,163.711) rotate(-79.71615) scale(0.04205,0.04205)" font-size="40" xml:space="preserve" fill="#41251e" fill-rule="nonzero" stroke="none" stroke-width="0.25" stroke-linecap="butt" stroke-linejoin="miter" stroke-miterlimit="10" stroke-dasharray="" stroke-dashoffset="0" font-family="Sans Serif" font-weight="normal" text-anchor="start" style="mix-blend-mode: normal"><tspan x="0" dy="0">xAmt8</tspan></text><path d="M243.3256,174.79096l-0.05631,-0.90101c0,0 1.39877,-0.24548 2.31361,-0.30268c0.59173,-0.03697 2.64194,-0.00704 2.64194,-0.00704l0.05631,0.90101z" fill="#ffffff" stroke="none" stroke-width="0.125" stroke-linecap="butt"></path><path d="M234.34144,176.563l1.56392,-14.99958l4.97225,0.51844l-0.98071,14.99958z" fill="url(#color-6)" stroke="none" stroke-width="0.125" stroke-linecap="butt"></path><path d="M236.11294,162.27501l0.16416,-2.12666l1.62668,-2.11918l2.58489,1.50367l0.57888,2.95127c0,0 -1.70761,0.04155 -2.1052,0.01088c-0.69274,-0.05346 -2.84938,-0.21999 -2.84938,-0.21999z" fill="#88472d" stroke="none" stroke-width="0.125" stroke-linecap="butt"></path><path d="M227.47517,175.19544l0.98661,-14.26731l7.77363,0.12099c0,0 -0.63687,5.84234 -0.98336,8.39736c-0.29023,2.14034 -0.63342,7.06642 -0.63342,7.06642z" fill="url(#color-7)" stroke="#000000" stroke-width="0.125" stroke-linecap="butt"></path><path d="M228.33778,161.0187l2.82728,-4.04372l6.94444,0.87039l-2.06587,3.43392z" fill="url(#color-8)" stroke="none" stroke-width="0.125" stroke-linecap="butt"></path><path d="M236.0201,162.80275l-1.06055,-0.74108l0.19252,-0.81063l1.0795,-0.08201z" data-paper-data="{&quot;index&quot;:null}" fill="url(#color-9)" stroke="none" stroke-width="0.125" stroke-linecap="butt"></path><path d="M235.44712,162.38385l0.08211,-1.06335l0.64243,0.04962l-0.08211,1.06335z" data-paper-data="{&quot;index&quot;:null}" fill="url(#color-10)" stroke="none" stroke-width="0.125" stroke-linecap="butt"></path><path d="M237.30393,159.18783l0.70884,-1.28629z" fill="#623320" stroke="none" stroke-width="0.125" stroke-linecap="butt"></path><path d="M238.58166,178.04777l0.41388,-2.39282c0,0 0.74708,-1.49481 1.08546,-1.44647c0.34728,0.04957 0.97229,1.74024 0.97229,1.74024l-0.41388,2.39282z" fill="#e7c0af" stroke="none" stroke-width="0.125" stroke-linecap="butt"></path><path d="M240.60903,175.61306c0,0.18405 -0.18651,0.3333 -0.41659,0.3333c-0.23008,0 -0.41659,-0.1492 -0.41659,-0.3333c0,-0.18405 0.18651,-0.3333 0.41659,-0.3333c0.23008,0 0.41659,0.1492 0.41659,0.3333z" fill="#fca57a" stroke="#a88c80" stroke-width="0.125" stroke-linecap="butt"></path><path d="M240.41696,178.44585l0.75398,-5.34005l4.94601,0.87433l-0.62068,5.07345z" fill="#e8b49e" stroke="#a88c80" stroke-width="0.125" stroke-linecap="butt"></path><path d="M242.7004,174.67991c0,0.31292 -0.25366,0.56658 -0.56658,0.56658c-0.31292,0 -0.56658,-0.25366 -0.56658,-0.56658c0,-0.31292 0.25366,-0.56658 0.56658,-0.56658c0.31292,0 0.56658,0.25366 0.56658,0.56658z" fill="url(#color-11)" stroke="none" stroke-width="0.125" stroke-linecap="butt"></path><path d="M243.86683,176.37408c0,0.31292 -0.25366,0.56658 -0.56658,0.56658c-0.31292,0 -0.56658,-0.25366 -0.56658,-0.56658c0,-0.31292 0.25366,-0.56658 0.56658,-0.56658c0.31292,0 0.56658,0.25366 0.56658,0.56658z" fill="url(#color-12)" stroke="none" stroke-width="0.125" stroke-linecap="butt"></path><path d="M245.08888,177.90157c0,0.31292 -0.25366,0.56658 -0.56658,0.56658c-0.31292,0 -0.56658,-0.25366 -0.56658,-0.56658c0,-0.31292 0.25366,-0.56658 0.56658,-0.56658c0.31292,0 0.56658,0.25366 0.56658,0.56658z" fill="url(#color-13)" stroke="none" stroke-width="0.125" stroke-linecap="butt"></path><path d="M245.50547,175.04092c0,0.31292 -0.25366,0.56658 -0.56658,0.56658c-0.31292,0 -0.56658,-0.25366 -0.56658,-0.56658c0,-0.31292 0.25366,-0.56658 0.56658,-0.56658c0.31292,0 0.56658,0.25366 0.56658,0.56658z" fill="url(#color-14)" stroke="none" stroke-width="0.125" stroke-linecap="butt"></path><path d="M242.45043,177.62385c0,0.31292 -0.25366,0.56658 -0.56658,0.56658c-0.31292,0 -0.56658,-0.25366 -0.56658,-0.56658c0,-0.31292 0.25366,-0.56658 0.56658,-0.56658c0.31292,0 0.56658,0.25366 0.56658,0.56658z" fill="url(#color-15)" stroke="none" stroke-width="0.125" stroke-linecap="butt"></path><path d="M245.55549,179.20298l0.33857,-5.19858l1.61782,0.52799l-0.25262,4.62088z" fill="url(#color-16)" stroke="none" stroke-width="0.125" stroke-linecap="butt"></path><path d="M228.66424,177.81681l-1.48039,-2.88285l7.47986,1.40246l0.77913,2.80493z" fill="#572f2a" stroke="#000000" stroke-width="0.125" stroke-linecap="butt"></path><text transform="translate(228.78991,176.88444) rotate(11.38232) scale(0.04203,0.04203)" font-size="40" xml:space="preserve" fill="#41251e" fill-rule="nonzero" stroke="none" stroke-width="0.25" stroke-linecap="butt" stroke-linejoin="miter" stroke-miterlimit="10" stroke-dasharray="" stroke-dashoffset="0" font-family="Sans Serif" font-weight="normal" text-anchor="start" style="mix-blend-mode: normal"><tspan x="0" dy="0">xAmt8</tspan></text><path d="M246.04389,177.67307c0,0 0,-0.35353 0,-0.60276c0,-0.40699 0,-1.60739 0,-1.60739h1.82083c0,0 1.49038,0.36348 1.94276,0.79764c0.10918,0.1048 0.43421,0.45892 0.43687,0.67438c0.00295,0.2415 -0.32385,0.34305 -0.32385,0.40325c0,0.39183 -2.05578,0.33488 -2.05578,0.33488z" fill="#a4593e" stroke="#000000" stroke-width="0.125" stroke-linecap="butt"></path><path d="M249.39089,176.69438c0,0.26158 -0.22619,0.47364 -0.50519,0.47364c-0.27901,0 -0.50519,-0.21206 -0.50519,-0.47364c0,-0.26158 0.22619,-0.47364 0.50519,-0.47364c0.27901,0 0.50519,0.21206 0.50519,0.47364z" fill="#ecac8b" stroke="none" stroke-width="0.125" stroke-linecap="butt"></path><path d="M235.43447,179.1889l-0.82097,-2.71549l4.23112,0.44204" fill="none" stroke="#000000" stroke-width="0.125" stroke-linecap="round"></path><path d="M245.85822,171.82201c0,1.19641 -0.79085,2.16633 -1.45809,2.16633c-0.66724,0 -1.54143,-0.96988 -1.54143,-2.16633c0,-0.6064 0.65799,-1.51844 0.81856,-2.27054c0.15624,-0.73183 0.14383,-1.31219 0.4729,-1.31219c0.23702,0 0.40635,0.46778 0.63357,0.90972c0.41245,0.80217 1.07453,1.90165 1.07453,2.67305z" fill="#ffffff" stroke="none" stroke-width="0.125" stroke-linecap="butt"></path><path d="M234.85997,182.32033l12.83128,0.99985l4.08266,0.99985" fill="none" stroke="url(#color-17)" stroke-width="0.125" stroke-linecap="round"></path><path d="M234.99327,182.03705l12.6646,1.08314l4.34099,0.95816l0.48324,-0.16106" fill="none" stroke="#512317" stroke-width="0.125" stroke-linecap="round"></path><g stroke="none" stroke-width="0.125" stroke-linecap="butt"><path d="M234.97334,193.68407l-0.38809,-2.9843l1.24923,-0.16244l0.38809,2.9843z" fill="#5a332a"></path><path d="M234.59706,193.49161l0.36279,-0.98514l6.04215,2.22506l-0.36279,0.98514z" fill="url(#color-18)"></path><path d="M239.87578,194.28988l2.68639,-1.00857l0.47148,1.25582l-2.68639,1.00857z" fill="#5a332a"></path><path d="M243.57301,190.22648l0.1177,-2.72696l0.83909,0.03623l-0.11775,2.72696z" fill="#5a332a"></path><path d="M234.58289,191.09977l1.91066,-5.18834l1.24785,0.45951l-1.91066,5.18834z" fill="#5a332a"></path><path d="M236.48646,185.94692l2.05952,-0.68226l0.93749,0.81482l-2.62289,0.99685z" fill="#5a332a"></path><path d="M238.29429,185.67958l0.16928,-0.45971l6.04215,2.22506l-0.16928,0.45971z" fill="#5a332a"></path><path d="M242.06988,193.8569l1.52366,-4.13754l0.85375,0.3144l-1.52366,4.13754z" fill="#5a332a"></path></g></g></g></g></svg>