<svg version="1.1" xmlns="http://www.w3.org/2000/svg" xmlns:xlink="http://www.w3.org/1999/xlink" width="18.375" height="16.40625" viewBox="0,0,18.375,16.40625"><defs><radialGradient cx="240" cy="180" r="9.1875" gradientUnits="userSpaceOnUse" id="color-1"><stop offset="0" stop-color="#df47fc"></stop><stop offset="1" stop-color="#df47fc" stop-opacity="0"></stop></radialGradient></defs><g transform="translate(-230.8125,-171.79687)"><g data-paper-data="{&quot;isPaintingLayer&quot;:true}" fill-rule="nonzero" stroke-width="0" stroke-linecap="butt" stroke-linejoin="miter" stroke-miterlimit="10" stroke-dasharray="" stroke-dashoffset="0" style="mix-blend-mode: normal"><path d="M249.1875,180c0,4.53046 -4.11338,8.20312 -9.1875,8.20312c-5.07412,0 -9.1875,-3.67266 -9.1875,-8.20312c0,-4.53046 4.11338,-8.20312 9.1875,-8.20312c5.07412,0 9.1875,3.67266 9.1875,8.20313z" fill="url(#color-1)" stroke="none"></path><path d="M234.5,183.05714v-6.85714h8v6.85714z" fill="#c566ff" stroke="#000000"></path><path d="M235.83333,181.05715v-6.85715h8v6.85715z" fill="#9e52cd" stroke="#000000"></path><path d="M238.36667,180.95238v-1.55238h2.66667v1.55238z" fill="#8344aa" stroke="#000000"></path><path d="M235.9,178.2v-2.73333h0.66667v2.73333z" fill="#8344aa" stroke="none"></path><path d="M241.36667,175.93333v-0.4h1.86667v0.4z" fill="#8344aa" stroke="none"></path><path d="M242.16667,179.26667v-1.53333h0.4v1.53333z" fill="#8344aa" stroke="none"></path><path d="M237.5,177.26667v-0.46667h2.26667v0.46667z" fill="#8344aa" stroke="none"></path></g></g></svg>