<svg version="1.1" xmlns="http://www.w3.org/2000/svg" xmlns:xlink="http://www.w3.org/1999/xlink" width="98.33334" height="97.33334" viewBox="0,0,98.33334,97.33334"><defs><radialGradient cx="240" cy="180" r="49.16667" gradientUnits="userSpaceOnUse" id="color-1"><stop offset="0" stop-color="#00ffff"></stop><stop offset="1" stop-color="#00ffff" stop-opacity="0"></stop></radialGradient></defs><g transform="translate(-190.83333,-131.33333)"><g data-paper-data="{&quot;isPaintingLayer&quot;:true}" fill-rule="nonzero" stroke-width="0" stroke-linejoin="miter" stroke-miterlimit="10" stroke-dasharray="" stroke-dashoffset="0" style="mix-blend-mode: normal"><path d="M289.16667,180c0,26.87786 -22.01267,48.66667 -49.16667,48.66667c-27.154,0 -49.16667,-21.78881 -49.16667,-48.66667c0,-26.87786 22.01267,-48.66667 49.16667,-48.66667c27.154,0 49.16667,21.78881 49.16667,48.66667z" fill="url(#color-1)" stroke="none" stroke-linecap="butt"></path><g><g><path d="M232.96724,211.73445c0,0 -4.061,-1.10766 -3.99257,-3.6718c0.01532,-0.57448 3.61328,-0.68232 3.65256,-1.35846c0.70566,-12.14885 1.47897,-40.34698 1.30672,-51.84231c-0.03357,-2.24007 -2.33712,-3.73763 -2.32511,-4.55476c0.01661,-1.12945 2.29823,-2.46613 2.29823,-2.46613c0,0 2.20176,0.69878 3.58869,-0.15156c0.51121,-0.31343 0.67381,-0.92891 1.13874,-1.42696c0.7145,-0.76542 1.682,-1.40224 2.13042,-1.399c0.77124,0.00559 1.51762,0.77882 2.2463,1.70869c0.59246,0.75602 1.14157,1.64817 1.93815,2.05239c0.43494,0.2207 0.61278,-0.26531 1.02559,-0.31918c1.04782,-0.13677 2.16237,-0.36117 2.16237,-0.36117c0,0 3.09985,1.38019 3.07823,2.85046c-0.00433,0.29426 -2.4881,1.57713 -2.50514,2.02778c-0.29427,7.77523 -1.43727,38.82175 -1.28453,53.17778c0.01129,1.06013 3.97395,2.04585 3.95377,2.90766c-0.06998,2.98946 -4.18215,2.9298 -4.18215,2.9298c0,0 -0.75241,-0.12876 -1.78771,-0.21398c-0.59785,-0.04921 -1.38497,-0.27229 -1.93122,0.03805c-1.38437,0.78652 -1.99441,3.44954 -3.13524,3.44127c-0.50939,-0.0037 -1.01976,0.07921 -1.58393,-0.6312c-0.42019,-0.52911 -0.87209,-1.8151 -1.36576,-2.21073c-0.13576,-0.1088 -0.29909,-0.36746 -0.44145,-0.43944c-0.77673,-0.39273 -1.7278,0.18973 -2.41628,0.22714c-0.98017,0.05328 -1.56867,-0.3143 -1.56867,-0.3143z" fill="#a9ffff" stroke="#000000" stroke-linecap="butt"></path><path d="M230.62077,211.76668c0,0 -4.061,-1.10766 -3.99257,-3.6718c0.01532,-0.57448 3.61328,-0.68232 3.65256,-1.35846c0.70566,-12.14885 1.47897,-40.34698 1.30672,-51.84231c-0.03357,-2.24007 -2.33712,-3.73763 -2.32511,-4.55476c0.01661,-1.12945 2.29823,-2.46613 2.29823,-2.46613c0,0 2.20176,0.69878 3.58869,-0.15156c0.51121,-0.31343 0.67381,-0.92891 1.13874,-1.42696c0.7145,-0.76542 1.682,-1.40224 2.13042,-1.399c0.77124,0.00559 1.51762,0.77882 2.2463,1.70869c0.59246,0.75602 1.14157,1.64817 1.93815,2.05239c0.43494,0.2207 0.61278,-0.26531 1.02559,-0.31918c1.04782,-0.13677 2.16237,-0.36117 2.16237,-0.36117c0,0 3.09985,1.38019 3.07823,2.85046c-0.00433,0.29426 -2.4881,1.57713 -2.50514,2.02778c-0.29427,7.77523 -1.43727,38.82175 -1.28453,53.17778c0.01129,1.06013 3.97395,2.04587 3.95377,2.90766c-0.06998,2.98946 -4.18215,2.9298 -4.18215,2.9298c0,0 -0.75241,-0.12876 -1.78771,-0.21398c-0.59785,-0.04921 -1.38497,-0.27229 -1.93122,0.03805c-1.38437,0.78652 -1.99441,3.44954 -3.13524,3.44127c-0.50939,-0.0037 -1.01976,0.07921 -1.58393,-0.6312c-0.42019,-0.52911 -0.87209,-1.8151 -1.36576,-2.21073c-0.13576,-0.1088 -0.29909,-0.36746 -0.44145,-0.43944c-0.77673,-0.39273 -1.7278,0.18973 -2.41628,0.22714c-0.98017,0.05328 -1.56867,-0.3143 -1.56867,-0.3143z" fill="#bcf4f4" stroke="#000000" stroke-linecap="butt"></path><path d="M233.78399,151.91586l4.03648,0.03945" fill="#a9ffff" stroke="#a75900" stroke-linecap="round"></path><path d="M240.62239,149.54515l-2.62858,-0.05878" fill="#a9ffff" stroke="#a75900" stroke-linecap="round"></path><path d="M230.48511,149.58944l2.06711,0.35109" fill="#a9ffff" stroke="#a75900" stroke-linecap="round"></path><path d="M241.8818,156.26346l2.86185,-0.18159" fill="#a9ffff" stroke="#a75900" stroke-linecap="round"></path><path d="M234.12967,162.91574l-1.78498,-0.26009" fill="#a9ffff" stroke="#a75900" stroke-linecap="round"></path><path d="M241.5978,163.90419l-2.91073,-0.14978" fill="#a9ffff" stroke="#a75900" stroke-linecap="round"></path><path d="M239.41538,175.98235l-3.89818,-0.46826" fill="#a9ffff" stroke="#a75900" stroke-linecap="round"></path><path d="M240.7264,183.50633l1.07965,0.03261" fill="#a9ffff" stroke="#a75900" stroke-linecap="round"></path><path d="M235.58176,170.48524l-1.73611,0.07126" fill="#a9ffff" stroke="#a75900" stroke-linecap="round"></path><path d="M242.0108,170.34954l1.78498,0.26009" fill="#a9ffff" stroke="#a75900" stroke-linecap="round"></path><path d="M236.49448,182.14141l-2.67468,0.08416" fill="#a9ffff" stroke="#a75900" stroke-linecap="round"></path><path d="M233.07752,191.76995l5.7781,0.91679" fill="#a9ffff" stroke="#a75900" stroke-linecap="round"></path><path d="M240.05424,188.97045l2.20541,-0.07771" fill="#a9ffff" stroke="#a75900" stroke-linecap="round"></path><path d="M235.26911,189.32074l-1.83384,-0.59147" fill="#a9ffff" stroke="#a75900" stroke-linecap="round"></path><path d="M234.39685,200.71683l1.78498,0.26009" fill="#a9ffff" stroke="#a75900" stroke-linecap="round"></path><path d="M242.56477,200.98418l2.25427,0.25364" fill="#a9ffff" stroke="#a75900" stroke-linecap="round"></path><path d="M234.65775,205.21945l1.87994,0.44852" fill="#a9ffff" stroke="#a75900" stroke-linecap="round"></path><path d="M241.19281,207.16938l-1.31568,-0.26654" fill="#a9ffff" stroke="#a75900" stroke-linecap="round"></path><path d="M241.31729,204.3691l-1.03355,-0.17555" fill="#a9ffff" stroke="#a75900" stroke-linecap="round"></path><path d="M229.98415,208.60399l2.16206,0.53952" fill="#a9ffff" stroke="#a75900" stroke-linecap="round"></path><path d="M237.13787,212.01588l0.84638,0.27298" fill="#a9ffff" stroke="#a75900" stroke-linecap="round"></path><path d="M248.62804,154.17862l-1.31568,-0.26654" fill="#a9ffff" stroke="#703c00" stroke-linecap="round"></path><path d="M243.23719,147.23243l-0.94136,-0.46141" fill="#a9ffff" stroke="#703c00" stroke-linecap="round"></path><path d="M241.63425,213.12419l-0.97117,-0.20803" fill="#a9ffff" stroke="#703c00" stroke-linecap="round"></path><path d="M250.97097,209.92861l-1.06337,0.07785" fill="#a9ffff" stroke="#703c00" stroke-linecap="round"></path><path d="M247.31744,205.80459l-0.87711,-0.17769" fill="#a9ffff" stroke="#703c00" stroke-linecap="round"></path><path d="M246.26396,196.83825l0.68903,0.11704" fill="#a9ffff" stroke="#703c00" stroke-linecap="round"></path><path d="M246.74164,182.15884l-0.595,-0.08671" fill="#a9ffff" stroke="#703c00" stroke-linecap="round"></path><path d="M246.21063,171.57259l1.56432,-0.02148" fill="#a9ffff" stroke="#703c00" stroke-linecap="round"></path><path d="M247.16577,174.40548l-0.8138,-0.05207" fill="#a9ffff" stroke="#703c00" stroke-linecap="round"></path><path d="M246.8444,162.20361l0.90784,0.0824" fill="#a9ffff" stroke="#703c00" stroke-linecap="round"></path><path d="M249.27359,149.52124l1.15742,-0.04751" fill="#a9ffff" stroke="#703c00" stroke-linecap="round"></path><path d="M250.81453,150.85987l-0.8138,-0.05207" fill="#a9ffff" stroke="#703c00" stroke-linecap="round"></path><path d="M240.95787,145.36636l1.09778,0.45926" fill="#a9ffff" stroke="#703c00" stroke-linecap="round"></path></g><g><g stroke="#000000" stroke-linecap="butt"><path d="M263.28783,171.2664c0,0 -0.78344,3.04738 -2.61286,3.03561c-0.40987,-0.00265 -0.49281,-2.68585 -0.97525,-2.7048c-8.66838,-0.34041 -28.78671,-0.48533 -36.98741,-0.18063c-1.59804,0.05937 -2.6626,1.80127 -3.24557,1.80483c-0.80579,0.00492 -1.76322,-1.67719 -1.76322,-1.67719c0,0 0.49485,-1.6537 -0.11412,-2.67563c-0.22446,-0.37668 -0.66383,-0.48859 -1.01993,-0.82789c-0.54727,-0.52145 -1.00319,-1.23365 -1.00163,-1.56833c0.0027,-0.5756 0.5531,-1.1444 1.21525,-1.70242c0.53837,-0.45369 1.17392,-0.87712 1.46096,-1.47774c0.15674,-0.32794 -0.19029,-0.4532 -0.22944,-0.76044c-0.09934,-0.77982 -0.26127,-1.60807 -0.26127,-1.60807c0,0 0.97947,-2.33433 2.02843,-2.3407c0.20994,-0.00127 1.12931,1.83249 1.45084,1.83832c5.54749,0.10044 27.69852,0.47758 37.94011,0.14361c0.75629,-0.02466 1.45291,-2.99677 2.06777,-2.99494c2.13287,0.00641 2.09718,3.0759 2.09718,3.0759c0,0 -0.09061,0.56344 -0.14967,1.33731c-0.03412,0.44687 -0.19194,1.03767 0.03038,1.44054c0.56343,1.02098 2.46429,1.43541 2.46029,2.28683c-0.0018,0.38017 0.05822,0.75975 -0.44767,1.19162c-0.37678,0.32167 -1.29346,0.67859 -1.57489,1.05304c-0.07738,0.10297 -0.26165,0.22882 -0.31277,0.33614c-0.27889,0.58562 0.13825,1.2864 0.16609,1.7996c0.03967,0.73061 -0.2216,1.17539 -0.2216,1.17539z" fill="#a9ffff"></path><path d="M262.03995,169.56917c0,0 -0.78344,3.04738 -2.61286,3.03561c-0.40987,-0.00265 -0.49281,-2.68585 -0.97525,-2.7048c-8.66838,-0.34041 -28.78671,-0.48533 -36.98741,-0.18063c-1.59804,0.05937 -2.6626,1.80127 -3.24557,1.80483c-0.80579,0.00492 -1.76322,-1.67719 -1.76322,-1.67719c0,0 0.49485,-1.6537 -0.11412,-2.67563c-0.22446,-0.37668 -0.66383,-0.48859 -1.01993,-0.82789c-0.54727,-0.52145 -1.00319,-1.23366 -1.00163,-1.56833c0.0027,-0.5756 0.5531,-1.1444 1.21525,-1.70242c0.53837,-0.45369 1.17392,-0.87712 1.46096,-1.47774c0.15674,-0.32794 -0.19029,-0.4532 -0.22944,-0.76044c-0.09934,-0.77982 -0.26127,-1.60807 -0.26127,-1.60807c0,0 0.97947,-2.33433 2.02843,-2.3407c0.20994,-0.00127 1.12931,1.83249 1.45084,1.83832c5.54749,0.10044 27.69852,0.47758 37.94011,0.14361c0.75629,-0.02466 1.45291,-2.99677 2.06777,-2.99494c2.13287,0.00641 2.09718,3.0759 2.09718,3.0759c0,0 -0.09061,0.56344 -0.14967,1.33731c-0.03412,0.44687 -0.19194,1.03767 0.03038,1.44054c0.56343,1.02098 2.4643,1.4354 2.46029,2.28683c-0.0018,0.38017 0.05822,0.75975 -0.44767,1.19162c-0.37678,0.32167 -1.29346,0.67859 -1.57489,1.05304c-0.07738,0.10297 -0.26165,0.22882 -0.31277,0.33614c-0.27889,0.58562 0.13825,1.2864 0.16609,1.7996c0.03967,0.73061 -0.2216,1.17539 -0.2216,1.17539z" fill="#bcf4f4"></path></g><path d="M225.33697,161.48088l-2.65794,-0.3757" fill="#a9ffff" stroke="#a75900" stroke-linecap="round"></path><path d="M237.59236,162.02302l-3.16232,-0.19905" fill="#a9ffff" stroke="#a75900" stroke-linecap="round"></path><path d="M227.21411,166.09384l-2.04683,-0.37199" fill="#a9ffff" stroke="#a75900" stroke-linecap="round"></path><path d="M237.9858,168.24462l2.40763,0.1585" fill="#a9ffff" stroke="#a75900" stroke-linecap="round"></path><path d="M243.13996,166.04724l-1.68977,0.02564" fill="#a9ffff" stroke="#a75900" stroke-linecap="round"></path><path d="M248.64743,164.85856l1.97691,0.04802" fill="#a9ffff" stroke="#a75900" stroke-linecap="round"></path><path d="M253.05389,167.36597l1.83335,0.01118" fill="#a9ffff" stroke="#a75900" stroke-linecap="round"></path><path d="M259.38276,161.18536l-1.5462,0.06246" fill="#a9ffff" stroke="#a75900" stroke-linecap="round"></path><path d="M261.66498,164.21902l1.04183,0.1142" fill="#a9ffff" stroke="#a75900" stroke-linecap="round"></path><path d="M261.17133,168.52992l-1.22223,-0.00747" fill="#a9ffff" stroke="#a75900" stroke-linecap="round"></path><path d="M217.08669,164.41434l1.22223,0.00747" fill="#a9ffff" stroke="#a75900" stroke-linecap="round"></path><path d="M219.69336,161.4105l0.89826,0.07738" fill="#a9ffff" stroke="#a75900" stroke-linecap="round"></path><path d="M219.68916,167.98919l1.47254,0.22468" fill="#a9ffff" stroke="#a75900" stroke-linecap="round"></path><path d="M252.29594,161.96896l1.57931,0.40508" fill="#a9ffff" stroke="#a75900" stroke-linecap="round"></path><path d="M220.74543,171.62651l-1.29214,-0.33143" fill="#a9ffff" stroke="#5e3200" stroke-linecap="round"></path><path d="M224.45643,170.28308l2.90827,0.59294" fill="#a9ffff" stroke="#5e3200" stroke-linecap="round"></path><path d="M265.50087,165.968l-0.89826,-0.07738" fill="#a9ffff" stroke="#5e3200" stroke-linecap="round"></path><path d="M262.98325,160.27265l-0.86145,-0.22095" fill="#a9ffff" stroke="#5e3200" stroke-linecap="round"></path><path d="M261.47293,172.12669l1.29589,-0.27969" fill="#a9ffff" stroke="#5e3200" stroke-linecap="round"></path><path d="M252.28057,170.38098l-2.44446,-0.01492" fill="#a9ffff" stroke="#5e3200" stroke-linecap="round"></path><path d="M257.52654,170.80844l-1.22223,-0.00747" fill="#a9ffff" stroke="#5e3200" stroke-linecap="round"></path><path d="M236.24427,170.8583l-2.22724,-0.26523" fill="#a9ffff" stroke="#5e3200" stroke-linecap="round"></path><path d="M244.94719,170.33623l-1.07866,0.02937" fill="#a9ffff" stroke="#5e3200" stroke-linecap="round"></path></g></g></g></g></svg>