<svg version="1.1" xmlns="http://www.w3.org/2000/svg" xmlns:xlink="http://www.w3.org/1999/xlink" width="54.31712" height="18.0683" viewBox="0,0,54.31712,18.0683"><g transform="translate(-416.37488,-337.3466)"><g data-paper-data="{&quot;isPaintingLayer&quot;:true}" fill-rule="nonzero" stroke-linecap="butt" stroke-linejoin="miter" stroke-miterlimit="10" stroke-dasharray="" stroke-dashoffset="0" style="mix-blend-mode: normal"><path d="M416.87489,352.2974c0,-3.54649 0,-9.66774 0,-11.69069c0,-1.27852 1.68068,-2.7601 3.54718,-2.7601c5.74374,0 35.64072,0 46.12899,0c2.27842,0 3.64094,1.02747 3.64094,2.54624c0,3.57876 0,9.88536 0,11.90454c0,1.22406 -1.40006,2.61752 -3.7347,2.61752c-10.54649,0 -40.16463,0 -45.94148,0c-1.91016,0 -3.64094,-1.06068 -3.64094,-2.61752z" fill-opacity="0.62097" fill="#291800" stroke="#fff4ce" stroke-width="1"></path><path d="M420.26153,353.20398c0,-1.12154 0,-3.05732 0,-3.69705c0,-0.40432 -0.30296,-8.49273 0.00798,-8.49273c0.95684,0 7.85271,0.29147 9.59993,0.29147c0.37956,0 -0.7259,7.65334 -0.7259,8.13363c0,1.13174 0,3.12614 0,3.76468c0,0.3871 -0.23324,0.82776 -0.62216,0.82776c-1.75692,0 -6.69095,0 -7.65331,0c-0.31821,0 -0.60654,-0.33543 -0.60654,-0.82776z" fill="#696969" stroke="#fff4ce" stroke-width="0"></path><path d="M419.74703,341.47838v-1.00483h10.59147v1.00483z" fill="#696969" stroke="#000000" stroke-width="0.5"></path><path d="M422.02826,340.69081v-1.16778h0.54315v1.16778z" fill="#696969" stroke="none" stroke-width="0"></path><path d="M422.02826,339.87608v-0.65178h5.75741v0.65178z" fill="#696969" stroke="none" stroke-width="0"></path><path d="M427.40547,340.69081v-0.97767h0.38021v0.97767z" fill="#696969" stroke="none" stroke-width="0"></path><path d="M421.51227,353.06024v-10.72726h0.59747v10.72726z" fill="#444444" stroke="none" stroke-width="0"></path><path d="M424.70775,353.07829v-10.72726h0.59747v10.72726z" fill="#444444" stroke="none" stroke-width="0"></path><path d="M427.28773,353.24123v-10.72726h0.59747v10.72726z" fill="#444444" stroke="none" stroke-width="0"></path><text transform="translate(431.10897,349.19701) scale(0.17052,0.17052)" font-size="40" xml:space="preserve" fill="#fff4ce" fill-rule="nonzero" stroke="none" stroke-width="1" stroke-linecap="butt" stroke-linejoin="miter" stroke-miterlimit="10" stroke-dasharray="" stroke-dashoffset="0" font-family="Serif" font-weight="normal" text-anchor="start" style="mix-blend-mode: normal"><tspan x="0" dy="0">DROP ITEM</tspan></text></g></g></svg>