<svg version="1.1" xmlns="http://www.w3.org/2000/svg" xmlns:xlink="http://www.w3.org/1999/xlink" width="80.33078" height="75.7407" viewBox="0,0,80.33078,75.7407"><defs><radialGradient cx="212.87391" cy="147.56428" r="5.95979" gradientUnits="userSpaceOnUse" id="color-1"><stop offset="0" stop-color="#ffac00"></stop><stop offset="1" stop-color="#ffac00" stop-opacity="0"></stop></radialGradient><radialGradient cx="206.22785" cy="147.781" r="5.95979" gradientUnits="userSpaceOnUse" id="color-2"><stop offset="0" stop-color="#ffac00"></stop><stop offset="1" stop-color="#ffac00" stop-opacity="0"></stop></radialGradient><radialGradient cx="274.2056" cy="149.08132" r="5.95979" gradientUnits="userSpaceOnUse" id="color-3"><stop offset="0" stop-color="#ffac00"></stop><stop offset="1" stop-color="#ffac00" stop-opacity="0"></stop></radialGradient><radialGradient cx="267.55953" cy="149.29804" r="5.95979" gradientUnits="userSpaceOnUse" id="color-4"><stop offset="0" stop-color="#ffac00"></stop><stop offset="1" stop-color="#ffac00" stop-opacity="0"></stop></radialGradient><radialGradient cx="272.68856" cy="210.62972" r="5.95979" gradientUnits="userSpaceOnUse" id="color-5"><stop offset="0" stop-color="#ffac00"></stop><stop offset="1" stop-color="#ffac00" stop-opacity="0"></stop></radialGradient><radialGradient cx="266.04249" cy="210.84644" r="5.95979" gradientUnits="userSpaceOnUse" id="color-6"><stop offset="0" stop-color="#ffac00"></stop><stop offset="1" stop-color="#ffac00" stop-opacity="0"></stop></radialGradient><radialGradient cx="212.44047" cy="210.413" r="5.95979" gradientUnits="userSpaceOnUse" id="color-7"><stop offset="0" stop-color="#ffac00"></stop><stop offset="1" stop-color="#ffac00" stop-opacity="0"></stop></radialGradient><radialGradient cx="205.7944" cy="210.62972" r="5.95979" gradientUnits="userSpaceOnUse" id="color-8"><stop offset="0" stop-color="#ffac00"></stop><stop offset="1" stop-color="#ffac00" stop-opacity="0"></stop></radialGradient></defs><g transform="translate(-199.83461,-142.25465)"><g data-paper-data="{&quot;isPaintingLayer&quot;:true}" fill-rule="nonzero" stroke-width="0.5" stroke-linecap="butt" stroke-linejoin="miter" stroke-miterlimit="10" stroke-dasharray="" stroke-dashoffset="0" style="mix-blend-mode: normal"><path d="M218.83371,147.56428c0,2.93243 -2.66829,5.30963 -5.95979,5.30963c-3.2915,0 -5.95979,-2.3772 -5.95979,-5.30963c0,-2.93243 2.66829,-5.30963 5.95979,-5.30963c3.2915,0 5.95979,2.3772 5.95979,5.30963z" fill="url(#color-1)" stroke="none"></path><path d="M212.18764,147.781c0,2.93243 -2.66829,5.30963 -5.95979,5.30963c-3.2915,0 -5.95979,-2.3772 -5.95979,-5.30963c0,-2.93243 2.66829,-5.30963 5.95979,-5.30963c3.2915,0 5.95979,2.3772 5.95979,5.30963z" fill="url(#color-2)" stroke="none"></path><path d="M206.26396,153.81303v-1.4448h6.79055v1.4448c0,0 -2.42663,0.86688 -3.612,0.86688c-1.06531,0 -3.17856,-0.86688 -3.17856,-0.86688z" fill="#b7b7b7" stroke="#000000"></path><path d="M206.9034,152.64029l-1.49638,-3.9136l1.01214,-0.38699l1.49638,3.9136z" fill="#dfdfdf" stroke="#000000"></path><path d="M210.68054,152.54226l1.49638,-3.9136l1.01214,0.38699l-1.49638,3.9136z" data-paper-data="{&quot;index&quot;:null}" fill="#dfdfdf" stroke="#000000"></path><path d="M203.37437,149.0452v-2.38392h4.47888v2.38392z" fill="#ffeb00" stroke="none"></path><path d="M210.95956,149.18968v-2.38392h4.47887v2.38392z" fill="#ffeb00" stroke="none"></path><path d="M280.16539,149.08132c0,2.93243 -2.66829,5.30963 -5.95979,5.30963c-3.2915,0 -5.95979,-2.3772 -5.95979,-5.30963c0,-2.93243 2.66829,-5.30963 5.95979,-5.30963c3.2915,0 5.95979,2.3772 5.95979,5.30963z" fill="url(#color-3)" stroke="none"></path><path d="M273.51932,149.29804c0,2.93243 -2.66829,5.30963 -5.95979,5.30963c-3.2915,0 -5.95979,-2.3772 -5.95979,-5.30963c0,-2.93243 2.66829,-5.30963 5.95979,-5.30963c3.2915,0 5.95979,2.3772 5.95979,5.30963z" fill="url(#color-4)" stroke="none"></path><path d="M267.59565,155.33007v-1.4448h6.79055v1.4448c0,0 -2.42663,0.86688 -3.612,0.86688c-1.06531,0 -3.17856,-0.86688 -3.17856,-0.86688z" fill="#b7b7b7" stroke="#000000"></path><path d="M268.23508,154.15733l-1.49638,-3.9136l1.01214,-0.38699l1.49638,3.9136z" fill="#dfdfdf" stroke="#000000"></path><path d="M272.01222,154.0593l1.49638,-3.9136l1.01214,0.38699l-1.49638,3.9136z" data-paper-data="{&quot;index&quot;:null}" fill="#dfdfdf" stroke="#000000"></path><path d="M264.70605,150.56224v-2.38392h4.47888v2.38392z" fill="#ffeb00" stroke="none"></path><path d="M272.29124,150.70672v-2.38392h4.47887v2.38392z" fill="#ffeb00" stroke="none"></path><path d="M278.64835,210.62972c0,2.93243 -2.66829,5.30963 -5.95979,5.30963c-3.2915,0 -5.95979,-2.3772 -5.95979,-5.30963c0,-2.93243 2.66829,-5.30963 5.95979,-5.30963c3.2915,0 5.95979,2.3772 5.95979,5.30963z" fill="url(#color-5)" stroke="none"></path><path d="M272.00228,210.84644c0,2.93243 -2.66829,5.30963 -5.95979,5.30963c-3.2915,0 -5.95979,-2.3772 -5.95979,-5.30963c0,-2.93243 2.66829,-5.30963 5.95979,-5.30963c3.2915,0 5.95979,2.3772 5.95979,5.30963z" fill="url(#color-6)" stroke="none"></path><path d="M266.07861,216.87847v-1.4448h6.79055v1.4448c0,0 -2.42663,0.86688 -3.612,0.86688c-1.06531,0 -3.17856,-0.86688 -3.17856,-0.86688z" fill="#b7b7b7" stroke="#000000"></path><path d="M266.71805,215.70573l-1.49638,-3.9136l1.01214,-0.38699l1.49638,3.9136z" fill="#dfdfdf" stroke="#000000"></path><path d="M270.49518,215.6077l1.49638,-3.9136l1.01214,0.38699l-1.49638,3.9136z" data-paper-data="{&quot;index&quot;:null}" fill="#dfdfdf" stroke="#000000"></path><path d="M263.18901,212.11064v-2.38392h4.47888v2.38392z" fill="#ffeb00" stroke="none"></path><path d="M270.7742,212.25512v-2.38392h4.47887v2.38392z" fill="#ffeb00" stroke="none"></path><path d="M218.40026,210.413c0,2.93243 -2.66829,5.30963 -5.95979,5.30963c-3.2915,0 -5.95979,-2.3772 -5.95979,-5.30963c0,-2.93243 2.66829,-5.30963 5.95979,-5.30963c3.2915,0 5.95979,2.3772 5.95979,5.30963z" fill="url(#color-7)" stroke="none"></path><path d="M211.7542,210.62972c0,2.93243 -2.66829,5.30963 -5.95979,5.30963c-3.2915,0 -5.95979,-2.3772 -5.95979,-5.30963c0,-2.93243 2.66829,-5.30963 5.95979,-5.30963c3.2915,0 5.95979,2.3772 5.95979,5.30963z" fill="url(#color-8)" stroke="none"></path><path d="M205.83052,216.66175v-1.4448h6.79055v1.4448c0,0 -2.42663,0.86688 -3.612,0.86688c-1.06531,0 -3.17856,-0.86688 -3.17856,-0.86688z" fill="#b7b7b7" stroke="#000000"></path><path d="M206.46996,215.48901l-1.49638,-3.9136l1.01214,-0.38699l1.49638,3.9136z" fill="#dfdfdf" stroke="#000000"></path><path d="M210.2471,215.39098l1.49638,-3.9136l1.01214,0.38699l-1.49638,3.9136z" data-paper-data="{&quot;index&quot;:null}" fill="#dfdfdf" stroke="#000000"></path><path d="M202.94093,211.89392v-2.38392h4.47888v2.38392z" fill="#ffeb00" stroke="none"></path><path d="M210.52612,212.0384v-2.38392h4.47887v2.38392z" fill="#ffeb00" stroke="none"></path></g></g></svg>