<svg version="1.1" xmlns="http://www.w3.org/2000/svg" xmlns:xlink="http://www.w3.org/1999/xlink" width="71.77919" height="169.57552" viewBox="0,0,71.77919,169.57552"><g transform="translate(-201.22527,-96.87891)"><g data-paper-data="{&quot;isPaintingLayer&quot;:true}" fill-rule="nonzero" stroke-linejoin="miter" stroke-miterlimit="10" stroke-dasharray="" stroke-dashoffset="0" style="mix-blend-mode: normal"><g><path d="M207.59614,208.41704l3.202,-7.32989l2.66271,0.94126l-2.53417,7.16887c0,0 -1.76217,1.38572 -2.36084,1.24548c-0.48934,-0.11465 -0.96975,-2.02571 -0.96975,-2.02571z" fill="#f1ad60" stroke="none" stroke-width="0" stroke-linecap="butt"></path><path d="M204.79603,205.33263l3.202,-7.32992l2.66274,0.94126l-2.53418,7.1689c0,0 -1.76217,1.38572 -2.36084,1.24545c-0.48934,-0.11465 -0.96976,-2.02568 -0.96976,-2.02568z" fill="#f1ad60" stroke="none" stroke-width="0" stroke-linecap="butt"></path><path d="M201.78905,201.06919l7.05031,-3.77805l1.50974,2.38679l-6.42598,4.06469c0,0 -2.24174,-0.00142 -2.62533,-0.48196c-0.31357,-0.3928 0.49126,-2.19148 0.49126,-2.19148z" fill="#f1ad60" stroke="none" stroke-width="0" stroke-linecap="butt"></path><path d="M213.91218,210.28685l-2.83985,-7.47771l2.56116,-1.19019l3.20438,6.8954c0,0 -0.28976,2.22296 -0.81565,2.54154c-0.42985,0.26044 -2.11008,-0.76905 -2.11008,-0.76905z" fill="#f1ad60" stroke="none" stroke-width="0" stroke-linecap="butt"></path><path d="M217.36302,206.76033l-6.70191,-4.36635l1.36727,-2.47118l6.65313,3.68108c0,0 1.07633,1.96649 0.83929,2.53384c-0.19372,0.46376 -2.15782,0.62261 -2.15782,0.62261z" fill="#f1ad60" stroke="none" stroke-width="0" stroke-linecap="butt"></path><path d="M207.43963,199.17658c0,0 4.41009,-21.3556 8.02546,-31.33249c3.568,-9.8462 13.52641,-28.14203 13.52641,-28.14203l-1.33372,19.14537l-15.7252,48.82503z" fill="#f1ad60" stroke="none" stroke-width="0" stroke-linecap="butt"></path><path d="M215.39908,166.71824l9.96728,-18.85715l4.50337,9.11886l-8.05127,13.55202z" fill="#da5757" stroke="none" stroke-width="0" stroke-linecap="butt"></path><path d="M260.14263,119.42974c0,11.12035 -9.09988,20.13516 -20.32512,20.13516c-11.22524,0 -20.32512,-9.01481 -20.32512,-20.13516c0,-11.12035 9.09988,-20.13516 20.32512,-20.13516c11.22524,0 20.32512,9.01481 20.32512,20.13516z" fill="#f1ad60" stroke="none" stroke-width="0" stroke-linecap="butt"></path><path d="M221.81369,218.96584v-81.30047h38.75069v81.30047z" fill="#ff6666" stroke="none" stroke-width="0" stroke-linecap="butt"></path><path d="M224.98463,113.2133c0,-0.83926 0.68037,-1.51964 1.51964,-1.51964c0.83926,0 1.51964,0.68037 1.51964,1.51964c0,0.83926 -0.68037,1.51964 -1.51964,1.51964c-0.83926,0 -1.51964,-0.68037 -1.51964,-1.51964z" fill="#000000" stroke="none" stroke-width="0.5" stroke-linecap="butt"></path><path d="M230.82117,148.30281l-5.31872,-10.25754h12.9169l-6.07854,11.01735z" fill="#ffffff" stroke="none" stroke-width="0" stroke-linecap="butt"></path><path d="M227.09056,258.47635v-40.65024h11.77717v40.65024z" fill="#66a6ff" stroke="none" stroke-width="0" stroke-linecap="butt"></path><path d="M246.086,259.6161v-40.65024h11.77717v40.65024z" fill="#66a6ff" stroke="none" stroke-width="0" stroke-linecap="butt"></path><path d="M218.35266,266.45443v-10.63745c0,0 3.34733,1.55978 6.72904,-0.60065c3.15151,-2.01339 6.2829,-7.75734 8.08741,-7.75734c2.10643,0 5.69863,8.35799 5.69863,8.35799v10.63745z" fill="#a06140" stroke="none" stroke-width="0" stroke-linecap="butt"></path><path d="M244.56637,266.07455v-10.63745c0,0 3.5922,-8.35799 5.69863,-8.35799c1.80454,0 4.9359,5.74395 8.08744,7.75734c3.38167,2.16043 6.729,0.60065 6.729,0.60065v10.63745z" data-paper-data="{&quot;index&quot;:null}" fill="#a06140" stroke="none" stroke-width="0" stroke-linecap="butt"></path><path d="M261.03809,218.51712l-8.29313,-50.62005l1.5269,-19.13096c0,0 7.1283,19.57281 9.19309,29.84001c2.09223,10.40345 3.27904,32.17733 3.27904,32.17733z" data-paper-data="{&quot;index&quot;:null}" fill="#f1ad60" stroke="none" stroke-width="0" stroke-linecap="butt"></path><path d="M224.91257,160.73796c0,4.57337 -1.21335,8.28082 -2.71009,8.28082c-1.49674,0 -2.71009,-3.70745 -2.71009,-8.28082c0,-4.57337 1.21335,-8.28082 2.71009,-8.28082c1.49674,0 2.71009,3.70745 2.71009,8.28082z" fill="#da5757" stroke="none" stroke-width="0" stroke-linecap="butt"></path><path d="M258.5618,158.32384c0,5.76999 -1.53082,10.44749 -3.41918,10.44749c-1.88836,0 -3.41918,-4.6775 -3.41918,-10.44749c0,-5.76999 1.53082,-10.44749 3.41918,-10.44749c1.88836,0 3.41918,4.6775 3.41918,10.44749z" fill="#da5757" stroke="none" stroke-width="0" stroke-linecap="butt"></path><path d="M239.38374,149.5432l1.69035,68.2906" fill="none" stroke="#000000" stroke-width="0.25" stroke-linecap="round"></path><path d="M223.02776,104.89884c0,0 -0.27657,3.52467 -0.27657,2.76549c0,-0.80522 -2.48892,-7.19027 -2.48892,-7.19027c0,0 11.23706,-3.59515 17.14601,-3.59515c6.32326,0 19.63496,3.59515 19.63496,3.59515l0.27654,7.46682c0,0 -9.11237,-1.70196 -18.47794,-1.30135c-6.04921,0.25876 -13.00999,2.6841 -14.98442,2.6841c-0.78486,0 0.14883,-2.34778 -0.59792,-3.47246c-0.61822,-0.93105 -0.23174,-0.95232 -0.23174,-0.95232z" fill="#000000" stroke="none" stroke-width="0" stroke-linecap="butt"></path><path d="M241.09087,103.41498c0.19324,0.8175 -2.72276,2.20648 -6.51303,3.10237c-3.79027,0.89589 -7.01953,0.95941 -7.21277,0.1419c-0.19324,-0.8175 2.72276,-2.20648 6.51303,-3.10237c3.79027,-0.89589 7.01953,-0.95941 7.21277,-0.1419z" fill="#484343" stroke="none" stroke-width="0" stroke-linecap="butt"></path><path d="M228.55874,224.32915l0.55309,3.8717" fill="none" stroke="#0035ea" stroke-width="0.05" stroke-linecap="round"></path><path d="M233.81316,235.39109l-0.55309,5.53099" fill="none" stroke="#0035ea" stroke-width="0.05" stroke-linecap="round"></path><path d="M229.38837,239.53933l0.55309,6.36061" fill="none" stroke="#0035ea" stroke-width="0.05" stroke-linecap="round"></path><path d="M251.78883,243.96408l-0.27654,-3.87167v-7.46682" fill="none" stroke="#0035ea" stroke-width="0.05" stroke-linecap="round"></path><path d="M254.0012,221.01057l-0.82966,8.29645" fill="none" stroke="#0035ea" stroke-width="0.05" stroke-linecap="round"></path><path d="M249.29988,223.49949v6.08407" fill="none" stroke="#0035ea" stroke-width="0.05" stroke-linecap="round"></path><path d="M255.66049,244.51719l-0.55309,-4.42478" fill="none" stroke="#0035ea" stroke-width="0.05" stroke-linecap="round"></path><path d="M234.0897,225.98843l-0.27654,-5.25444" fill="none" stroke="#0035ea" stroke-width="0.05" stroke-linecap="round"></path><path d="M233.81315,251.70744l-2.76549,0.82966" fill="none" stroke="#000000" stroke-width="0.1" stroke-linecap="round"></path><path d="M233.26007,256.13225l2.48895,-1.1062" fill="none" stroke="#000000" stroke-width="0.1" stroke-linecap="round"></path><path d="M249.57642,254.19642l2.21241,3.31858" fill="none" stroke="#000000" stroke-width="0.1" stroke-linecap="round"></path><path d="M254.83087,256.68534l-3.04204,-3.04204" fill="none" stroke="#000000" stroke-width="0.1" stroke-linecap="round"></path><path d="M257.32109,179.40468l-5.94746,-14.59822l5.80877,-8.34818l7.05363,20.12921z" data-paper-data="{&quot;index&quot;:null}" fill="#da5757" stroke="none" stroke-width="0" stroke-linecap="butt"></path><path d="M265.05036,223.66954c-0.6084,0.08881 -2.24632,-1.44177 -2.24632,-1.44177l-1.9152,-7.35844l2.73312,-0.71137l2.56694,7.57568c0,0 -0.64123,1.86329 -1.13854,1.93589z" data-paper-data="{&quot;index&quot;:null}" fill="#f1ad60" stroke="none" stroke-width="0" stroke-linecap="butt"></path><path d="M267.01643,220.61723c-0.60843,0.08881 -2.24632,-1.44177 -2.24632,-1.44177l-1.91523,-7.35844l2.73312,-0.71137l2.56694,7.57568c0,0 -0.64119,1.86329 -1.13854,1.93589z" data-paper-data="{&quot;index&quot;:null}" fill="#f1ad60" stroke="none" stroke-width="0" stroke-linecap="butt"></path><path d="M272.90297,217.13167c-0.42307,0.4462 -2.65681,0.25691 -2.65681,0.25691l-6.05696,-4.59653l1.70728,-2.24973l6.70341,4.36403c0,0 0.64891,1.86061 0.30308,2.22532z" data-paper-data="{&quot;index&quot;:null}" fill="#f1ad60" stroke="none" stroke-width="0" stroke-linecap="butt"></path><path d="M257.56886,223.64626c-0.49689,-0.36216 -0.59652,-2.60171 -0.59652,-2.60171l3.77927,-6.59786l2.45065,1.40375l-3.46556,7.20903c0,0 -1.76168,0.88285 -2.16782,0.58679z" data-paper-data="{&quot;index&quot;:null}" fill="#f1ad60" stroke="none" stroke-width="0" stroke-linecap="butt"></path><path d="M254.50123,218.44832c-0.18789,-0.58545 1.05177,-2.45324 1.05177,-2.45324l6.94215,-3.10188l1.15213,2.57852l-7.04898,3.78049c0,0 -1.94346,-0.32532 -2.09704,-0.80389z" data-paper-data="{&quot;index&quot;:null}" fill="#f1ad60" stroke="none" stroke-width="0" stroke-linecap="butt"></path><path d="M257.04622,109.05859c0,1.28866 2.28376,4.33333 0.16667,4.33333c-2.11709,0 -7.83333,-3.04467 -7.83333,-4.33333c0,-1.28866 1.71624,-2.33333 3.83333,-2.33333c2.11709,0 3.83333,1.04467 3.83333,2.33333z" fill="#000000" stroke="none" stroke-width="0" stroke-linecap="butt"></path><path d="M230.80728,123.14167c0.35355,0.35355 0,0.70711 0,0.70711l-0.27912,0.24634c-1.47517,2.79323 -6.1753,4.10678 -8.7881,2.80038c0,0 -0.44721,-0.22361 -0.22361,-0.67082c0.22361,-0.44721 0.67082,-0.22361 0.67082,-0.22361c2.08364,1.04182 6.24855,-0.00859 7.45376,-2.36748l0.45914,-0.49192c0,0 0.35355,-0.35355 0.70711,0z" fill="#000000" stroke="none" stroke-width="0.5" stroke-linecap="butt"></path></g></g></g></svg>