<svg version="1.1" xmlns="http://www.w3.org/2000/svg" xmlns:xlink="http://www.w3.org/1999/xlink" width="54.97784" height="56.5031" viewBox="0,0,54.97784,56.5031"><defs><linearGradient x1="237.48367" y1="180.75942" x2="234.78081" y2="179.59168" gradientUnits="userSpaceOnUse" id="color-1"><stop offset="0" stop-color="#98e898"></stop><stop offset="1" stop-color="#98e898" stop-opacity="0"></stop></linearGradient><linearGradient x1="242.19123" y1="183.08999" x2="245.13827" y2="184.36322" gradientUnits="userSpaceOnUse" id="color-2"><stop offset="0" stop-color="#98e898"></stop><stop offset="1" stop-color="#98e898" stop-opacity="0"></stop></linearGradient></defs><g transform="translate(-209.86827,-148.23634)"><g data-paper-data="{&quot;isPaintingLayer&quot;:true}" fill-rule="nonzero" stroke-linecap="butt" stroke-linejoin="miter" stroke-miterlimit="10" stroke-dasharray="" stroke-dashoffset="0" style="mix-blend-mode: normal"><path d="M216.15401,196.45829c0,-9.86526 0,-26.89275 0,-32.51997c0,-3.55647 1.50337,-7.67776 3.17295,-7.67776c5.13777,0 31.88059,0 41.26234,0c2.03805,0 3.25682,2.85812 3.25682,7.08287c0,9.95502 0,27.49809 0,33.11485c0,3.40496 -1.25235,7.28116 -3.34069,7.28116c-9.43383,0 -35.92722,0 -41.09461,0c-1.70864,0 -3.25682,-2.95049 -3.25682,-7.28116z" fill-opacity="0.62097" fill="#291800" stroke="#d6cdad" stroke-width="2"></path><g><path d="M212.36829,162.03501c0,-2.30933 0,-6.29523 0,-7.61249c0,-0.83253 0.35192,-1.79726 0.74274,-1.79726c1.20269,0 7.46283,0 9.65897,0c0.47708,0 0.76238,0.66905 0.76238,1.65801c0,2.33034 0,6.43694 0,7.75175c0,0.79706 -0.29315,1.70443 -0.78201,1.70443c-2.20834,0 -8.41009,0 -9.61971,0c-0.39997,0 -0.76238,-0.69067 -0.76238,-1.70443z" fill-opacity="0.47425" fill="#000000" stroke="#fff4ce" stroke-width="0"></path><path d="M210.36829,159.89216c0,-2.30933 0,-6.29523 0,-7.61249c0,-0.83253 0.35192,-1.79726 0.74274,-1.79726c1.20269,0 7.46283,0 9.65897,0c0.47708,0 0.76238,0.66904 0.76238,1.658c0,2.33034 0,6.43695 0,7.75176c0,0.79706 -0.29315,1.70443 -0.78201,1.70443c-2.20834,0 -8.41009,0 -9.61971,0c-0.39997,0 -0.76238,-0.69067 -0.76238,-1.70443z" fill-opacity="0.88705" fill="#291800" stroke="#fff4ce" stroke-width="1"></path><text transform="translate(213.35857,159.88738) scale(0.26784,0.26784)" font-size="40" xml:space="preserve" fill="#fff4ce" fill-rule="nonzero" stroke="none" stroke-width="1" stroke-linecap="butt" stroke-linejoin="miter" stroke-miterlimit="10" stroke-dasharray="" stroke-dashoffset="0" font-family="Sans Serif" font-weight="normal" text-anchor="start" style="mix-blend-mode: normal"><tspan x="0" dy="0">3</tspan></text></g><g><path d="M229.34392,199.82686l16.3513,-37.84702l4.51723,1.95161l-16.3513,37.84702z" fill="#98e898" stroke="#000000" stroke-width="0.1"></path><path d="M226.66225,198.38304l16.23712,-37.58273l2.70287,1.16774l-16.23712,37.58273z" data-paper-data="{&quot;index&quot;:null}" fill="url(#color-1)" stroke="none" stroke-width="0"></path><path d="M233.99173,202.0687l16.399,-37.95741l2.94704,1.27323l-16.399,37.95741z" fill="url(#color-2)" stroke="none" stroke-width="0"></path><path d="M228.07067,200.6757l0.90082,-2.08506l6.1272,2.64718l-0.90082,2.08506z" fill="#a3a3a3" stroke="none" stroke-width="0"></path><path d="M245.65233,161.73334l0.15807,-0.36588c0,0 2.95949,-2.40837 3.86922,-2.01533c0.8826,0.38131 1.51024,4.33945 1.51024,4.33945l-0.15807,0.36588zM248.83454,161.7555c0.18533,0.08007 0.41061,-0.02873 0.50319,-0.24301c0.09258,-0.21428 0.01739,-0.4529 -0.16794,-0.53296c-0.18533,-0.08007 -0.41061,0.02873 -0.50319,0.24301c-0.09258,0.21428 -0.01739,0.4529 0.16794,0.53296z" fill="#aeccae" stroke="none" stroke-width="0"></path><path d="M249.20411,162.63161l1.79971,-4.16564l1.46505,0.63295l-1.79971,4.16564z" fill="#aeccae" stroke="none" stroke-width="0"></path><path d="M248.32043,157.60331l0.28824,-0.66717c0,0 1.45505,-0.45995 2.06426,-0.19675c0.66469,0.28717 1.77197,1.85414 1.77197,1.85414l-0.28824,0.66717c0,0 -1.1933,-1.10932 -1.86872,-1.40113c-0.59239,-0.25593 -1.9675,-0.25626 -1.9675,-0.25626z" fill="#aeccae" stroke="none" stroke-width="0"></path></g></g></g></svg>