<svg version="1.1" xmlns="http://www.w3.org/2000/svg" xmlns:xlink="http://www.w3.org/1999/xlink" width="163.25" height="69" viewBox="0,0,163.25,69"><g transform="translate(-158.5,-145.5)"><g data-paper-data="{&quot;isPaintingLayer&quot;:true}" fill-rule="nonzero" stroke-linejoin="miter" stroke-miterlimit="10" stroke-dasharray="" stroke-dashoffset="0" style="mix-blend-mode: normal"><text transform="translate(221.75,182.1875) scale(0.29957,0.29957)" font-size="40" xml:space="preserve" fill="#ffffff" fill-rule="nonzero" stroke="none" stroke-width="1" stroke-linecap="butt" stroke-linejoin="miter" stroke-miterlimit="10" stroke-dasharray="" stroke-dashoffset="0" font-family="Sans Serif" font-weight="normal" text-anchor="start" style="mix-blend-mode: normal"><tspan x="0" dy="0">xAmt8</tspan></text><path d="M160.5,212.5v-65h159v65z" fill="#1f85b1" stroke="#ffffff" stroke-width="4" stroke-linecap="butt"></path><path d="M163.25,180.625l156.5,-1" fill="none" stroke="#ffffff" stroke-width="4" stroke-linecap="round"></path><path d="M239.5,150.375l1,28.25" fill="none" stroke="#ffffff" stroke-width="4" stroke-linecap="round"></path><path d="M173,155.125l1.5,4.5" fill="none" stroke="#00ffff" stroke-width="1" stroke-linecap="round"></path><path d="M171.5,164.875l3,4.25" fill="none" stroke="#00ffff" stroke-width="1" stroke-linecap="round"></path><path d="M191.75,170.375l2,3" fill="none" stroke="#00ffff" stroke-width="1" stroke-linecap="round"></path><path d="M200.5,157.625l1,3.75" fill="none" stroke="#00ffff" stroke-width="1" stroke-linecap="round"></path><path d="M219.25,153.875l3.75,3.25" fill="none" stroke="#00ffff" stroke-width="1" stroke-linecap="round"></path><path d="M222.5,169.125l-1.5,-3.25" fill="none" stroke="#00ffff" stroke-width="1" stroke-linecap="round"></path><path d="M180,191.375l2,4.25" fill="none" stroke="#00ffff" stroke-width="1" stroke-linecap="round"></path><path d="M189,203.125l2.75,4.75" fill="none" stroke="#00ffff" stroke-width="1" stroke-linecap="round"></path><path d="M203.5,192.375l2,4.25" fill="none" stroke="#00ffff" stroke-width="1" stroke-linecap="round"></path><path d="M216.25,206.625l1.5,3" fill="none" stroke="#00ffff" stroke-width="1" stroke-linecap="round"></path><path d="M243.75,188.125l2.75,4" fill="none" stroke="#00ffff" stroke-width="1" stroke-linecap="round"></path><path d="M258.5,196.625l1.5,2.75" fill="none" stroke="#00ffff" stroke-width="1" stroke-linecap="round"></path><path d="M284,197.375l2,2.5" fill="none" stroke="#00ffff" stroke-width="1" stroke-linecap="round"></path><path d="M295.25,187.875l3.25,4" fill="none" stroke="#00ffff" stroke-width="1" stroke-linecap="round"></path><path d="M305,201.125l2.75,3" fill="none" stroke="#00ffff" stroke-width="1" stroke-linecap="round"></path><path d="M263.25,163.125l-2.25,-4" fill="none" stroke="#00ffff" stroke-width="1" stroke-linecap="round"></path><path d="M280,170.375l0.5,2.5" fill="none" stroke="#00ffff" stroke-width="1" stroke-linecap="round"></path><path d="M293.75,158.125l1.75,1.5" fill="none" stroke="#00ffff" stroke-width="1" stroke-linecap="round"></path><path d="M304.25,166.375l0.75,2" fill="none" stroke="#00ffff" stroke-width="1" stroke-linecap="round"></path></g></g></svg>