<svg version="1.1" xmlns="http://www.w3.org/2000/svg" xmlns:xlink="http://www.w3.org/1999/xlink" width="61.29167" height="47.14541" viewBox="0,0,61.29167,47.14541"><defs><radialGradient cx="260.90819" cy="176.72625" r="9.10949" gradientUnits="userSpaceOnUse" id="color-1"><stop offset="0" stop-color="#3c3c3c"></stop><stop offset="1" stop-color="#656565"></stop></radialGradient><radialGradient cx="220.61539" cy="185.95667" r="9.19761" gradientUnits="userSpaceOnUse" id="color-2"><stop offset="0" stop-color="#3c3c3c"></stop><stop offset="1" stop-color="#656565"></stop></radialGradient><radialGradient cx="255.75537" cy="174.72281" r="6.45628" gradientUnits="userSpaceOnUse" id="color-3"><stop offset="0" stop-color="#b3b0b4"></stop><stop offset="1" stop-color="#79787a"></stop></radialGradient><radialGradient cx="223.94349" cy="172.09778" r="6.26991" gradientUnits="userSpaceOnUse" id="color-4"><stop offset="0" stop-color="#b3b0b4"></stop><stop offset="1" stop-color="#79787a"></stop></radialGradient><radialGradient cx="264.44024" cy="168.36229" r="4.90404" gradientUnits="userSpaceOnUse" id="color-5"><stop offset="0" stop-color="#b3b0b4"></stop><stop offset="1" stop-color="#79787a"></stop></radialGradient><linearGradient x1="240.25" y1="192.70835" x2="240.25" y2="202.79168" gradientUnits="userSpaceOnUse" id="color-6"><stop offset="0" stop-color="#b4b4b4"></stop><stop offset="1" stop-color="#9d9d9d"></stop></linearGradient><linearGradient x1="261.20833" y1="198.16668" x2="256.375" y2="198.16668" gradientUnits="userSpaceOnUse" id="color-7"><stop offset="0" stop-color="#656565"></stop><stop offset="1" stop-color="#b1b1b1"></stop></linearGradient><linearGradient x1="218.375" y1="198.00001" x2="223.20834" y2="198.00001" gradientUnits="userSpaceOnUse" id="color-8"><stop offset="0" stop-color="#656565"></stop><stop offset="1" stop-color="#b1b1b1"></stop></linearGradient><linearGradient x1="220.75" y1="194.37501" x2="220.75" y2="202.62501" gradientUnits="userSpaceOnUse" id="color-9"><stop offset="0" stop-color="#bebebe"></stop><stop offset="1" stop-color="#000000"></stop></linearGradient><linearGradient x1="223" y1="193.62501" x2="223" y2="202.62501" gradientUnits="userSpaceOnUse" id="color-10"><stop offset="0" stop-color="#bebebe"></stop><stop offset="1" stop-color="#000000"></stop></linearGradient><linearGradient x1="256.08333" y1="193.70835" x2="256.08333" y2="202.70835" gradientUnits="userSpaceOnUse" id="color-11"><stop offset="0" stop-color="#bebebe"></stop><stop offset="1" stop-color="#000000"></stop></linearGradient><linearGradient x1="259.34615" y1="195.6763" x2="259.34615" y2="202.84297" gradientUnits="userSpaceOnUse" id="color-12"><stop offset="0" stop-color="#bebebe"></stop><stop offset="1" stop-color="#000000"></stop></linearGradient><linearGradient x1="238.33334" y1="193.04168" x2="238.33334" y2="194.29168" gradientUnits="userSpaceOnUse" id="color-13"><stop offset="0" stop-color="#bebebe"></stop><stop offset="1" stop-color="#000000"></stop></linearGradient><linearGradient x1="240.46989" y1="195.10229" x2="241.36345" y2="194.89774" gradientUnits="userSpaceOnUse" id="color-14"><stop offset="0" stop-color="#ff6262"></stop><stop offset="1" stop-color="#ead2d2"></stop></linearGradient><radialGradient cx="215.40622" cy="173.71179" r="6.31249" gradientUnits="userSpaceOnUse" id="color-15"><stop offset="0" stop-color="#79787a"></stop><stop offset="1" stop-color="#464546"></stop></radialGradient><radialGradient cx="253.86424" cy="161.88182" r="4.82497" gradientUnits="userSpaceOnUse" id="color-16"><stop offset="0" stop-color="#79787a"></stop><stop offset="1" stop-color="#464546"></stop></radialGradient><radialGradient cx="267.0379" cy="163.31567" r="3.29662" gradientUnits="userSpaceOnUse" id="color-17"><stop offset="0" stop-color="#b3b0b4"></stop><stop offset="1" stop-color="#79787a"></stop></radialGradient><radialGradient cx="265.5285" cy="179.34723" r="4.93978" gradientUnits="userSpaceOnUse" id="color-18"><stop offset="0" stop-color="#b3b0b4"></stop><stop offset="1" stop-color="#79787a"></stop></radialGradient><radialGradient cx="224.64939" cy="159.63708" r="3.01941" gradientUnits="userSpaceOnUse" id="color-19"><stop offset="0" stop-color="#b3b0b4"></stop><stop offset="1" stop-color="#79787a"></stop></radialGradient><radialGradient cx="215.05766" cy="162.57237" r="3.78077" gradientUnits="userSpaceOnUse" id="color-20"><stop offset="0" stop-color="#b3b0b4"></stop><stop offset="1" stop-color="#79787a"></stop></radialGradient><linearGradient x1="238.48671" y1="187.97126" x2="238.80182" y2="192.72555" gradientUnits="userSpaceOnUse" id="color-21"><stop offset="0" stop-color="#ffffff" stop-opacity="0"></stop><stop offset="1" stop-color="#ffffff"></stop></linearGradient><linearGradient x1="239.97692" y1="157.19541" x2="239.97692" y2="204.09541" gradientUnits="userSpaceOnUse" id="color-22"><stop offset="0" stop-color="#000000" stop-opacity="0.84677"></stop><stop offset="1" stop-color="#000000" stop-opacity="0"></stop></linearGradient></defs><g transform="translate(-209.25,-156.95)"><g data-paper-data="{&quot;isPaintingLayer&quot;:true}" fill-rule="nonzero" stroke-linejoin="miter" stroke-miterlimit="10" stroke-dasharray="" stroke-dashoffset="0" style="mix-blend-mode: normal"><path d="M209.71327,202.50326v-45.00651h60.57347v45.00651z" fill="#5d5d5d" stroke="none" stroke-width="0" stroke-linecap="butt"></path><path d="M248.84808,202.55l-12,-45.3l33.6,-0.3v45.6z" data-paper-data="{&quot;index&quot;:null}" fill="#4a4a4a" stroke="none" stroke-width="0" stroke-linecap="butt"></path><path d="M209.25,202.65v-45.6l27.9,-0.1l-6.3,45.7z" fill="#4a4a4a" stroke="none" stroke-width="0" stroke-linecap="butt"></path><path d="M269.23252,180.42599c-0.67421,1.51698 -2.91825,0.85106 -4.83182,1.20469c-1.97195,0.36441 -3.63812,1.70995 -5.97137,0.67292c-0.87594,-0.38932 -2.77314,4.33719 -3.49142,3.81669c-3.0517,-2.21135 -3.46229,-10.60036 -2.35413,-13.09374c1.369,-3.08028 6.20574,-3.9209 10.80316,-1.87761c4.59741,2.04331 7.21455,6.19678 5.84555,9.27705z" fill="url(#color-1)" stroke="none" stroke-width="0" stroke-linecap="butt"></path><path d="M229.81301,185.95667c0,4.93594 -4.1179,8.9373 -9.19761,8.9373c-5.0797,0 -9.19761,-4.00135 -9.19761,-8.9373c0,-3.95421 1.60151,-8.52342 5.26438,-9.70137c0.90939,-0.29246 2.92291,0.76402 3.93323,0.76402c0.60539,0 4.14728,-6.53769 4.72003,-6.42921c4.23291,0.80171 4.4776,11.01883 4.4776,15.36651z" fill="url(#color-2)" stroke="none" stroke-width="0" stroke-linecap="butt"></path><path d="M227.30831,202.57246l9.08334,-36.00001l1.11667,-0.55l-7.3,36.41667z" fill="#9f8250" stroke="none" stroke-width="0" stroke-linecap="butt"></path><path d="M247.47498,202.55579l-8.76666,-36.28334l1.11667,0.41667l10.08333,36.13333z" data-paper-data="{&quot;index&quot;:null}" fill="#9f8250" stroke="none" stroke-width="0" stroke-linecap="butt"></path><path d="M232.66994,191.09911l0.31628,-1.49075l10.87963,0.18635l0.50603,1.3044z" fill="#caa565" stroke="none" stroke-width="0" stroke-linecap="butt"></path><path d="M233.40246,187.67006l0.28151,-1.18512l9.68377,0.14814l0.45039,1.03698z" fill="#caa565" stroke="none" stroke-width="0" stroke-linecap="butt"></path><path d="M234.1037,184.127l0.23841,-1.06189l8.20136,0.13274l0.38146,0.92916z" fill="#caa565" stroke="none" stroke-width="0" stroke-linecap="butt"></path><path d="M235.36605,178.45545l0.16422,-0.63704l5.64874,0.07963l0.26274,0.55741z" fill="#caa565" stroke="none" stroke-width="0" stroke-linecap="butt"></path><path d="M235.99432,174.94397l0.12927,-0.58766l4.44688,0.07345l0.20684,0.51421z" fill="#caa565" stroke="none" stroke-width="0" stroke-linecap="butt"></path><path d="M236.14888,173.78513l0.11543,-0.41481l3.97079,0.05185l0.1847,0.36296z" fill="#caa565" stroke="none" stroke-width="0" stroke-linecap="butt"></path><path d="M236.50921,172.97776l0.0949,-0.41481l3.26454,0.05185l0.15184,0.36296z" fill="#caa565" stroke="none" stroke-width="0" stroke-linecap="butt"></path><path d="M236.81259,169.22457l0.72191,-3.1284c0,0 1.25308,0.19449 1.25743,0.36313c0.01169,0.45313 0.65722,2.76527 0.65722,2.76527z" fill-opacity="0.49326" fill="#caa565" stroke="none" stroke-width="0" stroke-linecap="butt"></path><path d="M254.21356,181.10744v-1.98144c0,0 1.25515,-7.85239 2.21633,-7.85239c0.32742,0 0.08305,2.86954 0.68376,4.54113c0.78524,2.18502 2.39985,3.31129 2.39985,3.31129v1.98147z" data-paper-data="{&quot;index&quot;:null}" fill="url(#color-3)" stroke="#000000" stroke-width="0" stroke-linecap="butt"></path><path d="M222.4462,178.46089v-1.97476c0,0 1.21892,-7.8259 2.15236,-7.8259c0.31797,0 0.08063,2.85983 0.66401,4.52579c0.76256,2.17765 2.33056,3.30012 2.33056,3.30012v1.97476z" data-paper-data="{&quot;index&quot;:null}" fill="url(#color-4)" stroke="#000000" stroke-width="0" stroke-linecap="butt"></path><path d="M261.58563,173.21194v-1.50508c0,0 1.2264,-0.85547 1.82285,-2.51516c0.45629,-1.26971 0.27068,-3.44934 0.51936,-3.44934c0.7301,0 1.68347,5.96448 1.68347,5.96448v1.50505z" data-paper-data="{&quot;index&quot;:null}" fill="url(#color-5)" stroke="#000000" stroke-width="0" stroke-linecap="butt"></path><path d="M236.87486,171.95901l0.07256,-0.41481l2.49584,0.05185l0.11609,0.36296z" fill="#caa565" stroke="none" stroke-width="0" stroke-linecap="butt"></path><g><path d="M209.95834,202.79168l8.75,-10.08334l41.74999,0.33334l10.08334,9.75c0,0 -9.28964,0 -16.16667,0c-0.22494,0 -0.44729,0 -0.66666,0c-11.1658,0 -43.75,0 -43.75,0z" fill="url(#color-6)" stroke="none" stroke-width="0" stroke-linecap="butt"></path><path d="M256.375,202.87501v-9.41667h4.83333v9.41667z" data-paper-data="{&quot;index&quot;:null}" fill="url(#color-7)" stroke="none" stroke-width="0" stroke-linecap="butt"></path><path d="M218.375,202.70835v-9.41667h4.83334v9.41667z" fill="url(#color-8)" stroke="none" stroke-width="0" stroke-linecap="butt"></path><path d="M264.78781,202.47304l-6.23681,-9.02413l2.41119,-0.50525l6.40347,8.02412z" data-paper-data="{&quot;index&quot;:null}" fill="#767676" stroke="none" stroke-width="0" stroke-linecap="butt"></path><path d="M212.38434,200.30111l6.40347,-8.02412l2.41118,0.50525l-6.23681,9.02413z" fill="#767676" stroke="none" stroke-width="0" stroke-linecap="butt"></path><g fill="#ffe116" stroke="#efc800" stroke-width="0.5" stroke-linecap="butt"><path d="M209.54702,202.52597l1.19977,-8.05633l7.21696,0.33538l0.06382,7.80852z"></path><path d="M261.68075,202.6699l-0.03224,-8.81399l6.59638,-0.08824l1.91642,8.75829z" data-paper-data="{&quot;index&quot;:null}"></path></g><path d="M218.54167,193.5521v-1.1875h42.5v1.1875z" fill="#767676" stroke="none" stroke-width="0" stroke-linecap="butt"></path><path d="M220.20834,194.37501l1.08333,8.25" fill="none" stroke="url(#color-9)" stroke-width="0.25" stroke-linecap="round"></path><path d="M223.20834,202.62501l-0.41667,-9" fill="none" stroke="url(#color-10)" stroke-width="0.25" stroke-linecap="round"></path><path d="M258.70833,193.70835l-1.83333,8.83333" fill="none" stroke="url(#color-11)" stroke-width="0.25" stroke-linecap="round"></path><path d="M259.63782,195.6763l-0.58333,7.16667" fill="none" stroke="url(#color-12)" stroke-width="0.25" stroke-linecap="round"></path><path d="M235.95834,194.29168v-1.25c0,0 1.86818,-1.25 2.66666,-1.25c0.7846,0 2.08334,1.25 2.08334,1.25v1.25z" fill="#c3c8c3" stroke="url(#color-13)" stroke-width="0.25" stroke-linecap="butt"></path><path d="M236.625,195.20835v-1.83334h0.75v1.83334z" fill="#828282" stroke="none" stroke-width="0" stroke-linecap="butt"></path><path d="M239.29167,195.12501v-1.58334h0.66667v1.58334z" fill="#828282" stroke="none" stroke-width="0" stroke-linecap="butt"></path><path d="M240.96267,197.25494c0,0 -0.08308,-1.53835 -0.24823,-2.25983c-0.16334,-0.71353 -0.73731,-2.04547 -0.73731,-2.04547l0.89355,-0.20455c0,0 0.55655,1.25581 0.71613,1.95292c0.16845,0.73588 0.26942,2.35237 0.26942,2.35237z" fill="url(#color-14)" stroke="none" stroke-width="0" stroke-linecap="butt"></path><path d="M241.29167,202.70835c0,0 -0.33601,-1.14338 -0.12542,-2.2421c0.15614,-0.81458 0.87542,-1.56707 0.87542,-2.0079c0,-0.54572 -0.75,-1.5 -0.75,-1.5h0.41667c0,0 0.75,0.42631 0.75,1c0,0.53155 -0.61106,1.58631 -0.8019,2.65742c-0.18403,1.03284 0.0519,2.09258 0.0519,2.09258z" fill="#444343" stroke="none" stroke-width="0" stroke-linecap="butt"></path></g><path d="M213.28194,183.97976l-0.05161,-0.90298c0,0 1.24322,-3.84322 1.49393,-6.49406c0.18162,-1.92032 -0.69534,-2.88283 -0.3574,-2.90214c0.10351,-0.00592 0.2999,-1.83736 0.54678,-2.91199c0.09387,-0.40867 -0.07058,-0.84768 0.15955,-0.83016c0.38198,0.02909 1.34725,2.85169 2.06674,3.69669c0.67596,0.79388 -1.19711,3.54984 -0.79256,4.61055c0.91201,2.39124 1.88721,4.5451 1.88721,4.5451l0.05161,0.90298z" data-paper-data="{&quot;index&quot;:null}" fill="url(#color-15)" stroke="#000000" stroke-width="0" stroke-linecap="butt"></path><path d="M251.66294,169.51154l0.03945,-0.6902c0,0 0.74538,-1.64631 1.44251,-3.47406c0.30923,-0.81075 -1.12247,-2.91727 -0.6058,-3.52406c0.54995,-0.64589 1.28774,-2.80334 1.57971,-2.82557c0.17592,-0.0134 0.05021,0.32216 0.12195,0.63455c0.18872,0.82141 0.33883,2.22126 0.41792,2.22578c0.25829,0.01476 -0.412,0.75045 -0.27319,2.21825c0.19163,2.02617 1.14189,4.96373 1.14189,4.96373l-0.03945,0.6902z" data-paper-data="{&quot;index&quot;:null}" fill="url(#color-16)" stroke="#000000" stroke-width="0" stroke-linecap="butt"></path><path d="M266.25068,166.57569v-1.01173c0,0 0.64088,-4.00946 1.13167,-4.00946c0.16716,0 0.0424,1.46519 0.34913,2.31872c0.40095,1.11567 1.22536,1.69074 1.22536,1.69074v1.01176z" data-paper-data="{&quot;index&quot;:null}" fill="url(#color-17)" stroke="#000000" stroke-width="0" stroke-linecap="butt"></path><path d="M262.65311,184.23222v-1.51604c0,0 1.23535,-0.86173 1.83614,-2.53351c0.45961,-1.27895 0.27265,-3.47447 0.52315,-3.47447c0.73542,0 1.69573,6.00797 1.69573,6.00797v1.51604z" data-paper-data="{&quot;index&quot;:null}" fill="url(#color-18)" stroke="#000000" stroke-width="0" stroke-linecap="butt"></path><path d="M223.92834,162.70137v-0.95098c0,0 0.58699,-3.76873 1.03652,-3.76873c0.15312,0 0.03883,1.37721 0.31977,2.17949c0.36723,1.04869 1.12233,1.58924 1.12233,1.58924v0.95098z" data-paper-data="{&quot;index&quot;:null}" fill="url(#color-19)" stroke="#000000" stroke-width="0" stroke-linecap="butt"></path><path d="M212.85691,166.40935v-1.19078c0,0 0.9455,-0.67685 1.40533,-1.98997c0.35178,-1.00459 0.20867,-2.72906 0.4004,-2.72906c0.56287,0 1.29789,4.71903 1.29789,4.71903v1.19078z" data-paper-data="{&quot;index&quot;:null}" fill="url(#color-20)" stroke="#000000" stroke-width="0" stroke-linecap="butt"></path><path d="M235.60964,176.64135l0.1462,-0.63704l5.02892,0.07963l0.23391,0.55741z" fill="#caa565" stroke="none" stroke-width="0" stroke-linecap="butt"></path><path d="M236.79794,170.72184l0.07256,-0.41481l2.49584,0.05185l0.11609,0.36296z" fill="#caa565" stroke="none" stroke-width="0" stroke-linecap="butt"></path><path d="M240.91651,157.29429c0,0 -0.90843,4.45134 -2.02915,4.45134c-1.12064,0 -2.02915,-4.45134 -2.02915,-4.45134z" fill="#ffffff" stroke="#000000" stroke-width="0.1" stroke-linecap="butt"></path><path d="M239.183,157.14053l0.28571,3.42857" fill="none" stroke="#000000" stroke-width="0.25" stroke-linecap="round"></path><path d="M237.46872,158.42624l3.42857,0.14286" fill="none" stroke="#000000" stroke-width="0.25" stroke-linecap="round"></path><path d="M234.796,181.35777l0.19683,-0.83112l6.77101,0.10389l0.31494,0.72724z" fill="#caa565" stroke="none" stroke-width="0" stroke-linecap="butt"></path><path d="M237.83336,192.78973l-3.19082,-5.44797l7.44258,-0.67017l-2.31481,5.98973z" fill="url(#color-21)" stroke="none" stroke-width="0" stroke-linecap="butt"></path><path d="M236.95179,169.79876l0.07256,-0.41481l2.49584,0.05185l0.11609,0.36296z" fill="#caa565" stroke="none" stroke-width="0" stroke-linecap="butt"></path><path d="M209.42692,204.09541v-46.9h61.1v46.9z" fill="url(#color-22)" stroke="none" stroke-width="0" stroke-linecap="butt"></path></g></g></svg>