<svg version="1.1" xmlns="http://www.w3.org/2000/svg" xmlns:xlink="http://www.w3.org/1999/xlink" width="490" height="377" viewBox="0,0,490,377"><g transform="translate(8.5,10.5)"><g data-paper-data="{&quot;isPaintingLayer&quot;:true}" fill-rule="nonzero" stroke-linecap="butt" stroke-linejoin="miter" stroke-miterlimit="10" stroke-dasharray="" stroke-dashoffset="0" style="mix-blend-mode: normal"><path d="M-7.5,365.5v-375h488v375z" fill-opacity="0.30645" fill="#00ffed" stroke="#000000" stroke-width="2"></path><path d="M9.13594,299.36829c0,-71.55063 0,-195.04725 0,-235.8603c0,-25.79437 14.55482,-55.68502 30.71873,-55.68502c49.74089,0 308.64978,0 399.47869,0c19.73134,0 31.5307,20.72936 31.5307,51.37052c0,72.20164 0,199.43768 0,240.17485c0,24.69543 -12.12461,52.80868 -32.34263,52.80868c-91.33292,0 -347.82703,0 -397.85478,0c-16.54205,0 -31.53068,-21.39922 -31.53068,-52.80868z" fill="#291800" stroke="#fff4ce" stroke-width="2"></path><g fill="#c3f2f1" stroke="#ffffff" stroke-width="0"><path d="M149.38127,82.01109v-52.69022l19.1257,-6.61844l35.00191,0.35262l8.32517,9.2147l6.97143,3.73572l-16.83361,-1.05775l-33.47499,0.24688l-4.61372,17.34407l8.33139,3.82722l31.54393,-5.16875l-1.95742,-15.50802c0,0 0.80001,-3.91738 2.28225,-3.90558c2.9668,0.0236 14.40958,4.03838 14.40958,4.03838l-3.43853,29.6998l-9.99483,-1.83569l4.81408,-4.05633l-3.925,-2.90139l-7.95293,2.63257l6.84867,4.26679l10.1672,1.50057l-1.96425,18.99351l-14.94429,-3.84017l1.80933,-5.82264l-15.10006,-10.45586l-22.21397,1.1401l-0.49436,11.60654l5.58397,2.90802l30.43843,0.19028l14.89384,4.12923l-11.9342,4.97303l-42.23808,-0.24801z"></path><path d="M78.37922,90.66171l3.44349,-62.07376l38.63178,-4.77203l17.00838,11.03654l-18.23111,7.03395l-11.33922,-5.2276l-11.70511,0.12607l-1.50401,36.96881l22.63127,-4.54903l0.6469,-27.64814c0,0 4.27131,-5.92948 7.7266,-7.04168c3.14234,-1.01145 12.15569,0.64195 12.15569,0.64195l-2.13587,40.31877c0,0 -12.03585,7.91764 -21.77948,10.38744c-10.20542,2.58686 -35.54928,4.79876 -35.54928,4.79876z"></path><path d="M227.22053,83.58392l5.16526,-47.52497l13.96045,-11.7837l35.00191,0.35262l11.76866,5.77119l3.52795,7.17922l-16.83364,-1.05773l-33.47499,0.24687l-4.61372,17.34407l8.33137,3.82722l31.54393,-5.16875l-1.95742,-15.50802c0,0 3.66727,-4.67261 6.48917,-4.65016c2.73961,0.02179 10.20265,4.78295 10.20265,4.78295l-3.43853,29.6998l-9.99485,-1.83569l4.81408,-4.05633l-3.925,-2.90139l-7.95293,2.63256l6.84869,4.26679l10.1672,1.50057l-1.96425,18.99351l-14.94427,-3.84017l1.80934,-5.82265l-15.10006,-10.45588l-22.21397,1.1401l-0.49435,11.60654l5.58397,2.90802l30.43841,0.19028l14.89384,4.12921l-11.9342,4.97303l-42.23807,-0.24801z"></path><path d="M303.48197,89.08888l-2.10377,-61.34085l30.23951,-4.61158l21.82866,11.68935c0,0 -9.85272,5.13472 -13.72087,5.72947c-2.65779,0.40866 -7.25183,-2.50474 -7.25183,-2.50474l-13.4455,-0.58015l-1.55266,12.61022l8.95972,-0.40273l6.13556,-11.06582l21.34511,-3.67199l-14.66989,22.69197l15.39352,19.90483l-9.62191,10.90833l-21.85559,-17.41066l-5.06191,12.45437z"></path><path d="M392.89194,89.87529l-27.80082,-21.57047l-3.20431,-15.87466l32.1642,13.04783l0.14605,-5.65956l-33.8412,-19.52659l3.60937,-14.50985l40.49745,-5.50494l4.75107,11.00842l-27.23682,5.22831l31.60192,14.36616l1.40267,38.99537z"></path></g><text transform="translate(110.56633,189.44634) scale(0.7872,0.7872)" font-size="40" xml:space="preserve" fill="#fff4ce" fill-rule="nonzero" stroke="none" stroke-width="1" stroke-linecap="butt" stroke-linejoin="miter" stroke-miterlimit="10" stroke-dasharray="" stroke-dashoffset="0" font-family="Serif" font-weight="normal" text-anchor="start" style="mix-blend-mode: normal"><tspan x="0" dy="0">Loading The Rooms</tspan></text></g></g></svg>