<svg version="1.1" xmlns="http://www.w3.org/2000/svg" xmlns:xlink="http://www.w3.org/1999/xlink" width="18.32775" height="17.83071" viewBox="0,0,18.32775,17.83071"><defs><radialGradient cx="239.44508" cy="191.70482" r="1.25071" gradientUnits="userSpaceOnUse" id="color-1"><stop offset="0" stop-color="#ffffff" stop-opacity="0.53358"></stop><stop offset="1" stop-color="#46e3ff" stop-opacity="0.59161"></stop></radialGradient><radialGradient cx="242.97463" cy="192.00534" r="1.25071" gradientUnits="userSpaceOnUse" id="color-2"><stop offset="0" stop-color="#ffffff" stop-opacity="0.53358"></stop><stop offset="1" stop-color="#46e3ff" stop-opacity="0.55129"></stop></radialGradient><linearGradient x1="233.63561" y1="200.37598" x2="234.68977" y2="201.58679" gradientUnits="userSpaceOnUse" id="color-3"><stop offset="0" stop-color="#00fdff" stop-opacity="0.41129"></stop><stop offset="1" stop-color="#ffffff" stop-opacity="0.67742"></stop></linearGradient><linearGradient x1="246.68598" y1="200.44372" x2="245.65874" y2="201.67747" gradientUnits="userSpaceOnUse" id="color-4"><stop offset="0" stop-color="#00fdff" stop-opacity="0.41129"></stop><stop offset="1" stop-color="#ffffff" stop-opacity="0.67742"></stop></linearGradient><linearGradient x1="238.1528" y1="194.49633" x2="238.66069" y2="194.36362" gradientUnits="userSpaceOnUse" id="color-5"><stop offset="0" stop-color="#948a00"></stop><stop offset="1" stop-color="#948a00" stop-opacity="0"></stop></linearGradient><linearGradient x1="243.6546" y1="195.71327" x2="243.23737" y2="195.3947" gradientUnits="userSpaceOnUse" id="color-6"><stop offset="0" stop-color="#948a00"></stop><stop offset="1" stop-color="#948a00" stop-opacity="0"></stop></linearGradient></defs><g transform="translate(-230.77509,-190.97384)"><g data-paper-data="{&quot;isPaintingLayer&quot;:true}" fill-rule="nonzero" stroke="none" stroke-linecap="butt" stroke-linejoin="miter" stroke-miterlimit="10" stroke-dasharray="" stroke-dashoffset="0" style="mix-blend-mode: normal"><path d="M241.72802,191.0391c1.74864,0.35133 2.88754,2.0231 2.5438,3.73402c-0.34374,1.7109 -2.03998,2.81306 -3.78862,2.46174c-1.74864,-0.35133 -2.88755,-2.0231 -2.5438,-3.73401c0.34374,-1.7109 2.03998,-2.81307 3.78862,-2.46174z" data-paper-data="{&quot;index&quot;:null}" fill="#000000" stroke-width="0"></path><path d="M243.09328,197.17573c0.14959,0.02102 0.03564,1.7147 -0.25531,3.78535c-0.22149,1.57627 -0.35941,2.55787 -0.5809,4.13415c-0.29095,2.07066 -0.64817,3.73015 -0.79776,3.70913c-1.04299,-0.14655 -3.90073,-0.5481 -4.94373,-0.69466c-0.14959,-0.02102 -0.03513,-1.71463 0.25582,-3.78528c0.22149,-1.57627 0.35941,-2.55787 0.5809,-4.13415c0.29095,-2.07066 0.64765,-3.73022 0.79724,-3.7092c1.04299,0.14655 3.90074,0.5481 4.94373,0.69466z" data-paper-data="{&quot;index&quot;:null}" fill="#000000" stroke-width="1"></path><path d="M248.34048,205.20386l-6.09453,-4.46983l0.76237,-1.67854l6.09453,4.46982z" data-paper-data="{&quot;index&quot;:null}" fill="#000000" stroke-width="0"></path><path d="M230.77509,202.81129l6.49189,-3.87015l1.24859,1.35634l-6.49188,3.87016z" data-paper-data="{&quot;index&quot;:null}" fill="#000000" stroke-width="0"></path><path d="M238.02088,193.4231c0,0 0.34662,-1.08883 0.59432,-1.35075c0.22627,-0.23926 1.01841,-0.74644 1.01841,-0.74644l-0.01016,0.75283c0,0 -0.7231,0.11001 -0.9381,0.33735c-0.2543,0.26888 -0.48967,1.17233 -0.48967,1.17233z" fill="url(#color-1)" stroke-width="NaN"></path><path d="M244.13542,193.9448c0,0 -0.19327,-0.91339 -0.43483,-1.19376c-0.20425,-0.23706 -0.92147,-0.38044 -0.92147,-0.38044l0.02472,-0.75249c0,0 0.76779,0.54333 0.98274,0.79281c0.23531,0.27311 0.53112,1.37683 0.53112,1.37683z" data-paper-data="{&quot;index&quot;:null}" fill="url(#color-2)" stroke-width="NaN"></path><path d="M230.81749,202.82952l6.51887,-3.97514l0.34174,0.50769l-6.7178,3.71335z" fill="url(#color-3)" stroke-width="0"></path><path d="M248.9772,203.64155l-6.35508,-4.12239l0.33046,-0.5151l6.07094,4.52804z" data-paper-data="{&quot;index&quot;:null}" fill="url(#color-4)" stroke-width="0"></path><path d="M238.89848,196.56693c0,0 -0.80682,-1.41881 -0.87463,-1.67837c-0.08747,-0.33479 -0.11158,-1.31279 -0.11158,-1.31279l0.50789,-0.1327l0.81524,2.28752z" fill="url(#color-5)" stroke-width="0"></path><path d="M242.17928,196.4336l1.6355,-1.79512l0.41723,0.31857c0,0 -0.39997,0.89278 -0.60997,1.16781c-0.1628,0.21321 -1.455,1.21031 -1.455,1.21031z" data-paper-data="{&quot;index&quot;:null}" fill="url(#color-6)" stroke-width="0"></path></g></g></svg>