<svg version="1.1" xmlns="http://www.w3.org/2000/svg" xmlns:xlink="http://www.w3.org/1999/xlink" width="61.68967" height="46.99156" viewBox="0,0,61.68967,46.99156"><defs><radialGradient cx="261.12692" cy="164.59214" r="5.68267" gradientUnits="userSpaceOnUse" id="color-1"><stop offset="0" stop-color="#3c3c3c"></stop><stop offset="1" stop-color="#656565"></stop></radialGradient><radialGradient cx="261.97171" cy="190.73551" r="11.72998" gradientUnits="userSpaceOnUse" id="color-2"><stop offset="0" stop-color="#3c3c3c"></stop><stop offset="1" stop-color="#656565"></stop></radialGradient><radialGradient cx="221.47171" cy="167.54643" r="4.55518" gradientUnits="userSpaceOnUse" id="color-3"><stop offset="0" stop-color="#3c3c3c"></stop><stop offset="1" stop-color="#656565"></stop></radialGradient><radialGradient cx="216.19781" cy="202.03007" r="9.70518" gradientUnits="userSpaceOnUse" id="color-4"><stop offset="0" stop-color="#3c3c3c"></stop><stop offset="1" stop-color="#656565"></stop></radialGradient><linearGradient x1="239.14017" y1="188.33839" x2="238.09757" y2="192.98764" gradientUnits="userSpaceOnUse" id="color-5"><stop offset="0" stop-color="#ffffff" stop-opacity="0"></stop><stop offset="1" stop-color="#ffffff"></stop></linearGradient><radialGradient cx="214.3649" cy="187.99723" r="9.03129" gradientUnits="userSpaceOnUse" id="color-6"><stop offset="0" stop-color="#79787a"></stop><stop offset="1" stop-color="#464546"></stop></radialGradient><radialGradient cx="256.52948" cy="182.1817" r="7.1096" gradientUnits="userSpaceOnUse" id="color-7"><stop offset="0" stop-color="#b3b0b4"></stop><stop offset="1" stop-color="#79787a"></stop></radialGradient><radialGradient cx="266.85945" cy="187.53356" r="7.55839" gradientUnits="userSpaceOnUse" id="color-8"><stop offset="0" stop-color="#b3b0b4"></stop><stop offset="1" stop-color="#79787a"></stop></radialGradient><radialGradient cx="222.4917" cy="185.85971" r="7.7713" gradientUnits="userSpaceOnUse" id="color-9"><stop offset="0" stop-color="#b3b0b4"></stop><stop offset="1" stop-color="#79787a"></stop></radialGradient><radialGradient cx="263.89794" cy="175.11779" r="5.56886" gradientUnits="userSpaceOnUse" id="color-10"><stop offset="0" stop-color="#b3b0b4"></stop><stop offset="1" stop-color="#79787a"></stop></radialGradient><radialGradient cx="266.99645" cy="168.53351" r="5.08583" gradientUnits="userSpaceOnUse" id="color-11"><stop offset="0" stop-color="#b3b0b4"></stop><stop offset="1" stop-color="#79787a"></stop></radialGradient><radialGradient cx="253.22768" cy="171.19915" r="5.58882" gradientUnits="userSpaceOnUse" id="color-12"><stop offset="0" stop-color="#79787a"></stop><stop offset="1" stop-color="#464546"></stop></radialGradient><radialGradient cx="217.30555" cy="173.41623" r="6.02558" gradientUnits="userSpaceOnUse" id="color-13"><stop offset="0" stop-color="#b3b0b4"></stop><stop offset="1" stop-color="#79787a"></stop></radialGradient><radialGradient cx="226.25401" cy="164.92883" r="4.76276" gradientUnits="userSpaceOnUse" id="color-14"><stop offset="0" stop-color="#b3b0b4"></stop><stop offset="1" stop-color="#79787a"></stop></radialGradient><radialGradient cx="248.59495" cy="162.33884" r="3.28994" gradientUnits="userSpaceOnUse" id="color-15"><stop offset="0" stop-color="#b3b0b4"></stop><stop offset="1" stop-color="#79787a"></stop></radialGradient><linearGradient x1="240.25" y1="192.70835" x2="240.25" y2="202.79168" gradientUnits="userSpaceOnUse" id="color-16"><stop offset="0" stop-color="#b4b4b4"></stop><stop offset="1" stop-color="#9d9d9d"></stop></linearGradient><linearGradient x1="261.20833" y1="198.16668" x2="256.375" y2="198.16668" gradientUnits="userSpaceOnUse" id="color-17"><stop offset="0" stop-color="#656565"></stop><stop offset="1" stop-color="#b1b1b1"></stop></linearGradient><linearGradient x1="218.375" y1="198.00001" x2="223.20834" y2="198.00001" gradientUnits="userSpaceOnUse" id="color-18"><stop offset="0" stop-color="#656565"></stop><stop offset="1" stop-color="#b1b1b1"></stop></linearGradient><linearGradient x1="220.75" y1="194.37501" x2="220.75" y2="202.62501" gradientUnits="userSpaceOnUse" id="color-19"><stop offset="0" stop-color="#bebebe"></stop><stop offset="1" stop-color="#000000"></stop></linearGradient><linearGradient x1="223" y1="193.62501" x2="223" y2="202.62501" gradientUnits="userSpaceOnUse" id="color-20"><stop offset="0" stop-color="#bebebe"></stop><stop offset="1" stop-color="#000000"></stop></linearGradient><linearGradient x1="256.08333" y1="193.70835" x2="256.08333" y2="202.70835" gradientUnits="userSpaceOnUse" id="color-21"><stop offset="0" stop-color="#bebebe"></stop><stop offset="1" stop-color="#000000"></stop></linearGradient><linearGradient x1="259.5" y1="195.29168" x2="259.5" y2="202.45835" gradientUnits="userSpaceOnUse" id="color-22"><stop offset="0" stop-color="#bebebe"></stop><stop offset="1" stop-color="#000000"></stop></linearGradient><linearGradient x1="238.33334" y1="193.04168" x2="238.33334" y2="194.29168" gradientUnits="userSpaceOnUse" id="color-23"><stop offset="0" stop-color="#bebebe"></stop><stop offset="1" stop-color="#000000"></stop></linearGradient><linearGradient x1="240.46989" y1="195.10229" x2="241.36345" y2="194.89774" gradientUnits="userSpaceOnUse" id="color-24"><stop offset="0" stop-color="#ff6262"></stop><stop offset="1" stop-color="#ead2d2"></stop></linearGradient><radialGradient cx="221.08771" cy="163.40865" r="5.03594" gradientUnits="userSpaceOnUse" id="color-25"><stop offset="0" stop-color="#79787a"></stop><stop offset="1" stop-color="#464546"></stop></radialGradient><linearGradient x1="239.9" y1="157.04156" x2="239.9" y2="203.94156" gradientUnits="userSpaceOnUse" id="color-26"><stop offset="0" stop-color="#000000" stop-opacity="0.84677"></stop><stop offset="1" stop-color="#000000" stop-opacity="0"></stop></linearGradient></defs><g transform="translate(-209.25,-156.95)"><g data-paper-data="{&quot;isPaintingLayer&quot;:true}" fill-rule="nonzero" stroke-linejoin="miter" stroke-miterlimit="10" stroke-dasharray="" stroke-dashoffset="0" style="mix-blend-mode: normal"><path d="M209.71327,202.18406v-45.00651h60.57347v45.00651z" fill="#5d5d5d" stroke="none" stroke-width="0" stroke-linecap="butt"></path><path d="M249.05,202.55l-12,-45.3l33.6,-0.3v45.6z" data-paper-data="{&quot;index&quot;:null}" fill="#4a4a4a" stroke="none" stroke-width="0" stroke-linecap="butt"></path><path d="M209.25,202.65v-45.6l27.9,-0.1l-6.3,45.7z" fill="#4a4a4a" stroke="none" stroke-width="0" stroke-linecap="butt"></path><path d="M266.3198,166.9001c-0.42058,0.94632 -1.82046,0.53091 -3.01417,0.7515c-1.23014,0.22733 -2.26952,1.06669 -3.72505,0.41978c-0.54643,-0.24286 -1.72993,2.70562 -2.17802,2.38092c-1.90371,-1.37948 -2.15984,-6.61269 -1.46854,-8.16811c0.85401,-1.92153 3.87126,-2.44593 6.73921,-1.17129c2.86795,1.27465 4.50057,3.86566 3.64656,5.78719z" fill="url(#color-1)" stroke="none" stroke-width="0" stroke-linecap="butt"></path><path d="M266.46893,197.05073c-2.53922,0.46925 -4.68466,2.20182 -7.68913,0.86651c-1.12792,-0.5013 -3.57087,5.58486 -4.49579,4.91463c-3.92958,-2.84746 -4.45827,-13.64971 -3.03131,-16.86036c1.76283,-3.96635 7.99094,-5.04881 13.91087,-2.41774c2.94298,1.30799 5.867,4.70322 5.77394,7.67754c-0.09412,3.00865 -3.2295,5.59045 -4.46859,5.81941z" fill="url(#color-2)" stroke="none" stroke-width="0" stroke-linecap="butt"></path><path d="M226.02689,167.54643c0,2.44456 -2.03942,4.42626 -4.55518,4.42626c-2.51576,0 -4.55518,-1.9817 -4.55518,-4.42626c0,-1.95835 0.79316,-4.22128 2.60722,-4.80466c0.45038,-0.14484 1.44759,0.37839 1.94796,0.37839c0.29982,0 2.05397,-3.23783 2.33762,-3.18411c2.09638,0.39705 2.21756,5.45715 2.21756,7.61037z" fill="url(#color-3)" stroke="none" stroke-width="0" stroke-linecap="butt"></path><path d="M227.30831,202.57246l9.08334,-36.00001l1.11667,-0.55l-7.3,36.41667z" fill="#9f8250" stroke="none" stroke-width="0" stroke-linecap="butt"></path><path d="M225.903,202.03007l-12.00221,0.32952c0,0 -3.56522,-10.01569 -1.85326,-10.56623c0.95958,-0.30859 3.08421,0.8062 4.15029,0.8062c0.63879,0 4.37615,-6.89846 4.98048,-6.78401c4.4665,0.84595 4.7247,11.6269 4.7247,16.21451z" fill="url(#color-4)" stroke="none" stroke-width="0" stroke-linecap="butt"></path><path d="M247.47498,202.55579l-8.76666,-36.28334l1.11667,0.41667l10.08333,36.13333z" data-paper-data="{&quot;index&quot;:null}" fill="#9f8250" stroke="none" stroke-width="0" stroke-linecap="butt"></path><path d="M232.54301,189.1726l0.32337,-1.6l11.12358,0.2l0.51738,1.4z" fill="#caa565" stroke="none" stroke-width="0" stroke-linecap="butt"></path><path d="M237.15051,192.77525l-1.51943,-6.12805l7.32817,1.4625l-3.91459,5.09031z" fill="url(#color-5)" stroke="none" stroke-width="0" stroke-linecap="butt"></path><path d="M233.72753,184.12186l0.24368,-1.1926l8.38237,0.14908l0.38988,1.04352z" fill="#caa565" stroke="none" stroke-width="0" stroke-linecap="butt"></path><path d="M234.92525,179.55842l0.18945,-1.18512l6.51683,0.14814l0.3031,1.03698z" fill="#caa565" stroke="none" stroke-width="0" stroke-linecap="butt"></path><path d="M235.28318,177.1157l0.15885,-1.06189l5.46429,0.13274l0.25416,0.92916z" fill="#caa565" stroke="none" stroke-width="0" stroke-linecap="butt"></path><path d="M235.99588,174.38482l0.13017,-0.63704l4.47759,0.07963l0.20827,0.55741z" fill="#caa565" stroke="none" stroke-width="0" stroke-linecap="butt"></path><path d="M236.23593,173.11775l0.11124,-0.58766l3.82663,0.07345l0.17799,0.51421z" fill="#caa565" stroke="none" stroke-width="0" stroke-linecap="butt"></path><path d="M236.37686,171.86916l0.10141,-0.41481l3.48837,0.05185l0.16226,0.36296z" fill="#caa565" stroke="none" stroke-width="0" stroke-linecap="butt"></path><path d="M236.59895,170.91762l0.08488,-0.41481l2.91995,0.05185l0.13581,0.36296z" fill="#caa565" stroke="none" stroke-width="0" stroke-linecap="butt"></path><path d="M211.32568,202.68766l-0.07384,-1.29191c0,0 1.77868,-5.4985 2.13737,-9.29107c0.25984,-2.7474 -0.99481,-4.12447 -0.51134,-4.15209c0.1481,-0.00847 0.42907,-2.62871 0.78229,-4.16619c0.1343,-0.58467 -0.10099,-1.21279 0.22828,-1.18772c0.54649,0.04162 1.92752,4.07993 2.95688,5.28888c0.9671,1.13582 -1.71271,5.07877 -1.13392,6.59633c1.30482,3.42115 2.70004,6.50268 2.70004,6.50268l0.07384,1.29191z" data-paper-data="{&quot;index&quot;:null}" fill="url(#color-6)" stroke="#000000" stroke-width="0" stroke-linecap="butt"></path><path d="M236.81259,169.22457l0.72191,-3.1284c0,0 1.25308,0.19449 1.25743,0.36313c0.01169,0.45313 0.65722,2.76527 0.65722,2.76527z" fill-opacity="0.49326" fill="#caa565" stroke="none" stroke-width="0" stroke-linecap="butt"></path><path d="M254.83167,189.21243v-2.18195c0,0 1.38216,-8.64698 2.4406,-8.64698c0.36055,0 0.09144,3.15989 0.75295,5.00063c0.86469,2.40613 2.64268,3.64637 2.64268,3.64637v2.18195z" data-paper-data="{&quot;index&quot;:null}" fill="url(#color-7)" stroke="#000000" stroke-width="0" stroke-linecap="butt"></path><path d="M262.4598,195.00811v-2.31969c0,0 1.89022,-1.31853 2.8095,-3.87654c0.70326,-1.95693 0.41716,-5.31629 0.80047,-5.31629c1.12526,0 2.59466,9.19282 2.59466,9.19282v2.31969z" data-paper-data="{&quot;index&quot;:null}" fill="url(#color-8)" stroke="#000000" stroke-width="0" stroke-linecap="butt"></path><path d="M220.63586,193.54478v-2.38501c0,0 1.51079,-9.45176 2.66774,-9.45176c0.3941,0 0.09995,3.45398 0.82302,5.46605c0.94517,2.63006 2.88864,3.98573 2.88864,3.98573v2.38501z" data-paper-data="{&quot;index&quot;:null}" fill="url(#color-9)" stroke="#000000" stroke-width="0" stroke-linecap="butt"></path><path d="M260.65637,180.62488v-1.7091c0,0 1.39268,-0.97147 2.06998,-2.85615c0.51814,-1.44183 0.30737,-3.91694 0.58978,-3.91694c0.82907,0 1.91169,6.77308 1.91169,6.77308v1.7091z" data-paper-data="{&quot;index&quot;:null}" fill="url(#color-10)" stroke="#000000" stroke-width="0" stroke-linecap="butt"></path><path d="M265.78192,173.5629v-1.56085c0,0 0.98872,-6.18559 1.74588,-6.18559c0.25792,0 0.06542,2.26043 0.53862,3.5772c0.61856,1.72121 1.89044,2.60841 1.89044,2.60841v1.56087z" data-paper-data="{&quot;index&quot;:null}" fill="url(#color-11)" stroke="#000000" stroke-width="0" stroke-linecap="butt"></path><path d="M250.67789,180.03677l0.04569,-0.79947c0,0 0.86339,-1.90694 1.67087,-4.02404c0.35818,-0.93911 -1.30017,-3.37911 -0.7017,-4.08198c0.637,-0.74814 1.49161,-3.24714 1.8298,-3.2729c0.20377,-0.01551 0.05816,0.37317 0.14126,0.735c0.21859,0.95144 0.39246,2.57292 0.48409,2.57815c0.29919,0.0171 -0.47723,0.86926 -0.31644,2.56943c0.22197,2.34695 1.32266,5.74956 1.32266,5.74956l-0.04569,0.79947z" data-paper-data="{&quot;index&quot;:null}" fill="url(#color-12)" stroke="#000000" stroke-width="0" stroke-linecap="butt"></path><path d="M213.79814,179.37497v-1.84927c0,0 1.50687,-1.05113 2.23974,-3.09038c0.56065,-1.56008 0.33258,-4.23817 0.63814,-4.23817c0.89706,0 2.06846,7.32854 2.06846,7.32854v1.84927z" data-paper-data="{&quot;index&quot;:null}" fill="url(#color-13)" stroke="#000000" stroke-width="0" stroke-linecap="butt"></path><path d="M225.11663,169.63876v-1.4617c0,0 0.92592,-5.79267 1.63498,-5.79267c0.24154,0 0.06125,2.11683 0.5044,3.34996c0.57926,1.61188 1.77035,2.44273 1.77035,2.44273v1.4617z" data-paper-data="{&quot;index&quot;:null}" fill="url(#color-14)" stroke="#000000" stroke-width="0" stroke-linecap="butt"></path><path d="M246.6799,165.5923v-1.0097c0,0 0.82275,-0.57391 1.22289,-1.68733c0.30611,-0.8518 0.18159,-2.31404 0.34842,-2.31404c0.4898,0 1.12938,4.00136 1.12938,4.00136v1.00969z" data-paper-data="{&quot;index&quot;:null}" fill="url(#color-15)" stroke="#000000" stroke-width="0" stroke-linecap="butt"></path><path d="M236.88127,170.06554l0.07256,-0.41481l2.49584,0.05185l0.11609,0.36296z" fill="#caa565" stroke="none" stroke-width="0" stroke-linecap="butt"></path><g><path d="M209.95834,202.79168l8.75,-10.08334l41.74999,0.33334l10.08334,9.75c0,0 -9.28964,0 -16.16667,0c-0.22494,0 -0.44729,0 -0.66666,0c-11.1658,0 -43.75,0 -43.75,0z" fill="url(#color-16)" stroke="none" stroke-width="0" stroke-linecap="butt"></path><path d="M256.375,202.87501v-9.41667h4.83333v9.41667z" data-paper-data="{&quot;index&quot;:null}" fill="url(#color-17)" stroke="none" stroke-width="0" stroke-linecap="butt"></path><path d="M218.375,202.70835v-9.41667h4.83334v9.41667z" fill="url(#color-18)" stroke="none" stroke-width="0" stroke-linecap="butt"></path><path d="M264.78781,202.47304l-6.23681,-9.02413l2.41119,-0.50525l6.40347,8.02412z" data-paper-data="{&quot;index&quot;:null}" fill="#767676" stroke="none" stroke-width="0" stroke-linecap="butt"></path><path d="M212.38434,200.30111l6.40347,-8.02412l2.41118,0.50525l-6.23681,9.02413z" fill="#767676" stroke="none" stroke-width="0" stroke-linecap="butt"></path><g fill="#ffe116" stroke="#efc800" stroke-width="0.5" stroke-linecap="butt"><path d="M209.67202,202.52597l2.49098,-5.04671l9.2719,0.69664l-3.28233,4.43764z"></path><path d="M261.68075,202.6699l-1.18472,-5.10657l7.62386,-1.92066l2.04142,6.88329z" data-paper-data="{&quot;index&quot;:null}"></path></g><path d="M218.54167,193.5521v-1.1875h42.5v1.1875z" fill="#767676" stroke="none" stroke-width="0" stroke-linecap="butt"></path><path d="M220.20834,194.37501l1.08333,8.25" fill="none" stroke="url(#color-19)" stroke-width="0.25" stroke-linecap="round"></path><path d="M223.20834,202.62501l-0.41667,-9" fill="none" stroke="url(#color-20)" stroke-width="0.25" stroke-linecap="round"></path><path d="M256.875,202.54168l1.83333,-8.83333" fill="none" stroke="url(#color-21)" stroke-width="0.25" stroke-linecap="round"></path><path d="M259.20834,202.45835l0.58333,-7.16667" fill="none" stroke="url(#color-22)" stroke-width="0.25" stroke-linecap="round"></path><path d="M235.95834,194.29168v-1.25c0,0 1.86818,-1.25 2.66666,-1.25c0.7846,0 2.08334,1.25 2.08334,1.25v1.25z" fill="#c3c8c3" stroke="url(#color-23)" stroke-width="0.25" stroke-linecap="butt"></path><path d="M236.625,195.20835v-1.83334h0.75v1.83334z" fill="#828282" stroke="none" stroke-width="0" stroke-linecap="butt"></path><path d="M239.29167,195.12501v-1.58334h0.66667v1.58334z" fill="#828282" stroke="none" stroke-width="0" stroke-linecap="butt"></path><path d="M240.96267,197.25494c0,0 -0.08308,-1.53835 -0.24823,-2.25983c-0.16334,-0.71353 -0.73731,-2.04547 -0.73731,-2.04547l0.89355,-0.20455c0,0 0.55655,1.25581 0.71613,1.95292c0.16845,0.73588 0.26942,2.35237 0.26942,2.35237z" fill="url(#color-24)" stroke="none" stroke-width="0" stroke-linecap="butt"></path><path d="M241.29167,202.70835c0,0 -0.33601,-1.14338 -0.12542,-2.2421c0.15614,-0.81458 0.87542,-1.56707 0.87542,-2.0079c0,-0.54572 -0.75,-1.5 -0.75,-1.5h0.41667c0,0 0.75,0.42631 0.75,1c0,0.53155 -0.61106,1.58631 -0.8019,2.65742c-0.18403,1.03284 0.0519,2.09258 0.0519,2.09258z" fill="#444343" stroke="none" stroke-width="0" stroke-linecap="butt"></path></g><path d="M219.39301,171.60018l-0.04117,-0.72038c0,0 0.99181,-3.06602 1.19182,-5.1808c0.14489,-1.53198 -0.55472,-2.29985 -0.28513,-2.31525c0.08258,-0.00472 0.23925,-1.4658 0.43621,-2.32311c0.07489,-0.32602 -0.05631,-0.67626 0.12729,-0.66228c0.30473,0.02321 1.0748,2.27501 1.64879,2.94913c0.53926,0.63334 -0.95502,2.83197 -0.63229,3.67818c0.72758,1.90767 1.50557,3.62596 1.50557,3.62596l0.04117,0.72038z" data-paper-data="{&quot;index&quot;:null}" fill="url(#color-25)" stroke="#000000" stroke-width="0" stroke-linecap="butt"></path><path d="M234.10534,159.61466l1.47824,-0.93514l4.59898,-0.07793l1.14974,1.01305z" fill="#9b774d" stroke="#000000" stroke-width="0" stroke-linecap="butt"></path><path d="M237.73535,162.39862l-0.04348,0.73913v-0.78261l0.04348,0.91304l-0.08696,-1.21739v-2.43478" fill="none" stroke="#000000" stroke-width="0.1" stroke-linecap="round"></path><path d="M238.03969,162.70296c0,0.36019 -0.16546,0.65217 -0.36957,0.65217c-0.20411,0 -0.36957,-0.29199 -0.36957,-0.65217c0,-0.36019 0.16546,-0.65217 0.36957,-0.65217c0.20411,0 0.36957,0.29199 0.36957,0.65217z" fill="#ffffff" stroke="#000000" stroke-width="0.1" stroke-linecap="butt"></path><path d="M237.47448,162.65949h0.43478" fill="none" stroke="#000000" stroke-width="0.1" stroke-linecap="round"></path><path d="M237.62898,163.5702l0.07143,-1.5" fill="none" stroke="#000000" stroke-width="0.1" stroke-linecap="round"></path><path d="M209.35,203.94156v-46.9h61.1v46.9z" fill="url(#color-26)" stroke="none" stroke-width="0" stroke-linecap="butt"></path></g></g></svg>