<svg version="1.1" xmlns="http://www.w3.org/2000/svg" xmlns:xlink="http://www.w3.org/1999/xlink" width="14.18" height="31.57331" viewBox="0,0,14.18,31.57331"><g transform="translate(-232.91,-164.21335)"><g data-paper-data="{&quot;isPaintingLayer&quot;:true}" fill-rule="nonzero" stroke-linejoin="miter" stroke-miterlimit="10" stroke-dasharray="" stroke-dashoffset="0" style="mix-blend-mode: normal"><path d="M240.34497,164.66401c2.09415,0 3.79179,1.68178 3.79179,3.75636c0,2.07458 -1.69764,3.75635 -3.79179,3.75635c-2.09415,0 -3.79179,-1.68178 -3.79179,-3.75635c0,-2.07458 1.69765,-3.75635 3.79179,-3.75635z" data-paper-data="{&quot;index&quot;:null}" fill="#f1ad60" stroke="none" stroke-width="0" stroke-linecap="butt"></path><path d="M236.41231,186.86514v-15.16717h7.22921v15.16717z" data-paper-data="{&quot;index&quot;:null}" fill="#ff6666" stroke="none" stroke-width="0" stroke-linecap="butt"></path><path d="M240.52216,194.29829v-7.58359h2.19711v7.58359z" data-paper-data="{&quot;index&quot;:null}" fill="#66a6ff" stroke="none" stroke-width="0" stroke-linecap="butt"></path><path d="M236.97843,194.51092v-7.58358h2.19711v7.58358z" data-paper-data="{&quot;index&quot;:null}" fill="#66a6ff" stroke="none" stroke-width="0" stroke-linecap="butt"></path><path d="M240.52216,195.78665v-1.98449c0,0 0.67015,-1.55924 1.06312,-1.55924c0.33664,0 0.92082,1.07157 1.50876,1.44719c0.63088,0.40305 1.25535,0.11206 1.25535,0.11206v1.98449z" data-paper-data="{&quot;index&quot;:null}" fill="#a06140" stroke="none" stroke-width="0" stroke-linecap="butt"></path><path d="M235.63181,195.71579v-1.98449c0,0 0.62447,0.29099 1.25534,-0.11206c0.58794,-0.37561 1.17212,-1.44719 1.50877,-1.44719c0.39297,0 1.06312,1.55924 1.06312,1.55924v1.98449z" data-paper-data="{&quot;index&quot;:null}" fill="#a06140" stroke="none" stroke-width="0" stroke-linecap="butt"></path><path d="M244.98054,185.35389l-1.54715,-9.44352l0.28485,-3.56901c0,0 1.32983,3.65144 1.71504,5.56685c0.39032,1.94084 0.61173,6.00291 0.61173,6.00291z" data-paper-data="{&quot;index&quot;:null}" fill="#f1ad60" stroke="none" stroke-width="0" stroke-linecap="butt"></path><path d="M234.07794,184.90337c0,0 0.22141,-4.06207 0.61173,-6.00291c0.3852,-1.91542 1.71503,-5.56686 1.71503,-5.56686l0.28485,3.56901l-1.54714,9.44352z" data-paper-data="{&quot;index&quot;:null}" fill="#f1ad60" stroke="none" stroke-width="0" stroke-linecap="butt"></path><path d="M243.49889,172.96503c0.35229,0 0.63787,0.87262 0.63787,1.94905c0,1.07643 -0.28559,1.94905 -0.63787,1.94905c-0.35229,0 -0.63787,-0.87262 -0.63787,-1.94905c0,-1.07643 0.28558,-1.94905 0.63787,-1.94905z" data-paper-data="{&quot;index&quot;:null}" fill="#da5757" stroke="none" stroke-width="0" stroke-linecap="butt"></path><path d="M236.55318,173.6029c0.35229,0 0.63787,0.87262 0.63787,1.94905c0,1.07643 -0.28559,1.94905 -0.63787,1.94905c-0.35229,0 -0.63787,-0.87262 -0.63787,-1.94905c0,-1.07643 0.28559,-1.94905 0.63787,-1.94905z" data-paper-data="{&quot;index&quot;:null}" fill="#da5757" stroke="none" stroke-width="0" stroke-linecap="butt"></path><path d="M243.18524,165.88718c-0.13931,0.20982 0.03488,0.64781 -0.11155,0.64781c-0.30231,0 0.13685,1.37423 -0.81039,1.23827c-0.2069,-0.0297 -1.65838,-0.54883 -1.86069,-0.55748c-0.45142,-0.01931 -1.02405,1.16909 -1.44066,1.18991c-0.64248,0.0321 -2.01809,0.65902 -2.40545,0.08129c-0.33365,-0.49762 0.27454,-2.20996 0.27454,-2.20996l0.05159,-1.39299c0,0 2.48339,-0.6707 3.66304,-0.6707c1.10236,0 3.19871,0.6707 3.19871,0.6707c0,0 -0.46433,1.19118 -0.46433,1.3414c0,0.14163 -0.0516,-0.51592 -0.0516,-0.51592c0,0 0.0721,0.00397 -0.04323,0.17766z" data-paper-data="{&quot;index&quot;:null}" fill="#000000" stroke="none" stroke-width="0" stroke-linecap="butt"></path><path d="M241.45301,165.3348c0.7071,0.16713 1.2511,0.42626 1.21505,0.57877c-0.03605,0.15251 -0.63849,0.14066 -1.34559,-0.02647c-0.7071,-0.16713 -1.2511,-0.42626 -1.21505,-0.57877c0.03605,-0.15251 0.63849,-0.14066 1.34559,0.02647z" data-paper-data="{&quot;index&quot;:null}" fill="#484343" stroke="none" stroke-width="0" stroke-linecap="butt"></path><path d="M242.44537,187.92789l-0.10318,0.72229" data-paper-data="{&quot;index&quot;:null}" fill="none" stroke="#0035ea" stroke-width="0.05" stroke-linecap="round"></path><path d="M241.46513,189.99157l0.10318,1.03184" data-paper-data="{&quot;index&quot;:null}" fill="none" stroke="#0035ea" stroke-width="0.05" stroke-linecap="round"></path><path d="M242.2906,190.76546l-0.10318,1.18662" data-paper-data="{&quot;index&quot;:null}" fill="none" stroke="#0035ea" stroke-width="0.05" stroke-linecap="round"></path><path d="M238.16323,189.47565v1.39299l-0.05159,0.72229" data-paper-data="{&quot;index&quot;:null}" fill="none" stroke="#0035ea" stroke-width="0.05" stroke-linecap="round"></path><path d="M237.6989,187.30879l0.15478,1.54776" data-paper-data="{&quot;index&quot;:null}" fill="none" stroke="#0035ea" stroke-width="0.05" stroke-linecap="round"></path><path d="M238.57597,188.90814v-1.13503" data-paper-data="{&quot;index&quot;:null}" fill="none" stroke="#0035ea" stroke-width="0.05" stroke-linecap="round"></path><path d="M237.38935,191.69411l0.10318,-0.82548" data-paper-data="{&quot;index&quot;:null}" fill="none" stroke="#0035ea" stroke-width="0.05" stroke-linecap="round"></path><path d="M241.41353,188.23744l0.05159,-0.98025" data-paper-data="{&quot;index&quot;:null}" fill="none" stroke="#0035ea" stroke-width="0.05" stroke-linecap="round"></path><path d="M241.46513,193.0355l0.51592,0.15478" data-paper-data="{&quot;index&quot;:null}" fill="none" stroke="#000000" stroke-width="0.1" stroke-linecap="round"></path><path d="M241.10398,193.65461l0.46433,0.20637" data-paper-data="{&quot;index&quot;:null}" fill="none" stroke="#000000" stroke-width="0.1" stroke-linecap="round"></path><path d="M238.52438,193.49984l-0.41274,0.6191" data-paper-data="{&quot;index&quot;:null}" fill="none" stroke="#000000" stroke-width="0.1" stroke-linecap="round"></path><path d="M237.54412,193.96416l0.56751,-0.56751" data-paper-data="{&quot;index&quot;:null}" fill="none" stroke="#000000" stroke-width="0.1" stroke-linecap="round"></path><path d="M244.18665,178.22791l-1.10954,-2.7234l1.08367,-1.55741l1.3159,3.75524z" data-paper-data="{&quot;index&quot;:null}" fill="#da5757" stroke="none" stroke-width="0" stroke-linecap="butt"></path><path d="M234.67018,178.8348l1.3159,-3.75524l1.08367,1.55741l-1.10954,2.7234z" data-paper-data="{&quot;index&quot;:null}" fill="#da5757" stroke="none" stroke-width="0" stroke-linecap="butt"></path><path d="M245.81851,185.48919c0,0 -0.11963,0.34761 -0.2124,0.36115c-0.11351,0.01657 -0.41907,-0.26897 -0.41907,-0.26897l-0.3573,-1.37277l0.50988,-0.13271l0.47888,1.4133z" data-paper-data="{&quot;index&quot;:null}" fill="#f1ad60" stroke="none" stroke-width="0" stroke-linecap="butt"></path><path d="M246.38793,184.96029c0,0 -0.11963,0.3476 -0.2124,0.36115c-0.11351,0.01657 -0.41907,-0.26897 -0.41907,-0.26897l-0.3573,-1.37277l0.50989,-0.13271l0.47888,1.4133z" data-paper-data="{&quot;index&quot;:null}" fill="#f1ad60" stroke="none" stroke-width="0" stroke-linecap="butt"></path><path d="M247.07106,184.63066c-0.07893,0.08324 -0.49565,0.04793 -0.49565,0.04793l-1.12997,-0.85751l0.3185,-0.4197l1.25057,0.81414c0,0 0.12106,0.34711 0.05654,0.41515z" data-paper-data="{&quot;index&quot;:null}" fill="#f1ad60" stroke="none" stroke-width="0" stroke-linecap="butt"></path><path d="M244.61481,185.73653c0,0 -0.32866,0.1647 -0.40443,0.10947c-0.0927,-0.06756 -0.11128,-0.48537 -0.11128,-0.48537l0.70505,-1.23088l0.45719,0.26187l-0.64653,1.3449z" data-paper-data="{&quot;index&quot;:null}" fill="#f1ad60" stroke="none" stroke-width="0" stroke-linecap="butt"></path><path d="M244.02932,185.02626c0,0 -0.36257,-0.06069 -0.39122,-0.14997c-0.03506,-0.10922 0.19622,-0.45767 0.19622,-0.45767l1.2951,-0.57867l0.21494,0.48104l-1.31504,0.70527z" data-paper-data="{&quot;index&quot;:null}" fill="#f1ad60" stroke="none" stroke-width="0" stroke-linecap="butt"></path><path d="M234.18149,186.9462l0.47888,-1.4133l0.50988,0.13271l-0.35729,1.37277c0,0 -0.30557,0.28554 -0.41907,0.26897c-0.09278,-0.01355 -0.2124,-0.36115 -0.2124,-0.36115z" data-paper-data="{&quot;index&quot;:null}" fill="#f1ad60" stroke="none" stroke-width="0" stroke-linecap="butt"></path><path d="M234.02712,186.73792c-0.09278,-0.01355 -0.2124,-0.36115 -0.2124,-0.36115l0.47888,-1.4133l0.50988,0.13271l-0.3573,1.37277c0,0 -0.30556,0.28554 -0.41907,0.26897z" data-paper-data="{&quot;index&quot;:null}" fill="#f1ad60" stroke="none" stroke-width="0" stroke-linecap="butt"></path><path d="M232.98547,185.67252l1.25057,-0.81414l0.3185,0.4197l-1.12997,0.85751c0,0 -0.41672,0.03531 -0.49565,-0.04793c-0.06452,-0.06804 0.05654,-0.41515 0.05654,-0.41515z" data-paper-data="{&quot;index&quot;:null}" fill="#f1ad60" stroke="none" stroke-width="0" stroke-linecap="butt"></path><path d="M235.78962,187.30301c-0.07577,0.05523 -0.40442,-0.10947 -0.40442,-0.10947l-0.64652,-1.34489l0.45719,-0.26188l0.70505,1.23088c0,0 -0.01859,0.4178 -0.11128,0.48537z" data-paper-data="{&quot;index&quot;:null}" fill="#f1ad60" stroke="none" stroke-width="0" stroke-linecap="butt"></path><path d="M236.3619,186.3333c-0.02865,0.08928 -0.39122,0.14997 -0.39122,0.14997l-1.31504,-0.70527l0.21494,-0.48104l1.29511,0.57868c0,0 0.23127,0.34845 0.19622,0.45767z" data-paper-data="{&quot;index&quot;:null}" fill="#f1ad60" stroke="none" stroke-width="0" stroke-linecap="butt"></path><path d="M238.31423,166.58509c0.69027,-0.22685 1.2895,-0.29005 1.33843,-0.14117c0.04893,0.14888 -0.47098,0.45347 -1.16124,0.68031c-0.69027,0.22685 -1.2895,0.29005 -1.33843,0.14117c-0.04893,-0.14888 0.47098,-0.45347 1.16124,-0.68031z" data-paper-data="{&quot;index&quot;:null}" fill="#484343" stroke="none" stroke-width="0" stroke-linecap="butt"></path><path d="M243.36665,171.80242l-3.54458,5.34797l-2.98491,-5.47234" fill="none" stroke="#da5757" stroke-width="0.5" stroke-linecap="round"></path><path d="M236.58841,186.60261l3.23365,-3.9177l3.60677,4.16644" fill="none" stroke="#da5757" stroke-width="0.5" stroke-linecap="round"></path></g></g></svg>