<svg version="1.1" xmlns="http://www.w3.org/2000/svg" xmlns:xlink="http://www.w3.org/1999/xlink" width="111.32805" height="83.98866" viewBox="0,0,111.32805,83.98866"><defs><radialGradient cx="198.09611" cy="160.68484" r="0.00029" gradientUnits="userSpaceOnUse" id="color-1"><stop offset="0" stop-color="#c47f4e"></stop><stop offset="1" stop-color="#99693d"></stop></radialGradient><linearGradient x1="284.00745" y1="153.00496" x2="290.54462" y2="153.00496" gradientUnits="userSpaceOnUse" id="color-2"><stop offset="0" stop-color="#9e7f4a"></stop><stop offset="1" stop-color="#d88e65"></stop></linearGradient><radialGradient cx="290.20786" cy="153.81121" r="3.7143" gradientUnits="userSpaceOnUse" id="color-3"><stop offset="0" stop-color="#cf6734"></stop><stop offset="1" stop-color="#cf8634"></stop></radialGradient></defs><g transform="translate(-184.33597,-137.86779)"><g data-paper-data="{&quot;isPaintingLayer&quot;:true}" fill-rule="nonzero" stroke-linejoin="miter" stroke-miterlimit="10" stroke-dasharray="" stroke-dashoffset="0" style="mix-blend-mode: normal"><path d="" fill="#e6e6e6" stroke="#000000" stroke-width="0.25" stroke-linecap="butt"></path><path d="" fill="#d59866" stroke="none" stroke-width="0.25" stroke-linecap="butt"></path><path d="" fill="#ab7a52" stroke="none" stroke-width="0.25" stroke-linecap="butt"></path><path d="" fill="#ab7a52" stroke="none" stroke-width="0.25" stroke-linecap="butt"></path><path d="" fill="#dadada" stroke="none" stroke-width="0.25" stroke-linecap="butt"></path><path d="" fill="#fff4ce" stroke="#e6ddbb" stroke-width="0.25" stroke-linecap="butt"></path><path d="" fill="#e6ddbb" stroke="#e6ddbb" stroke-width="0.25" stroke-linecap="butt"></path><path d="" fill="#e6ddbb" stroke="none" stroke-width="0.25" stroke-linecap="butt"></path><path d="" fill="#fff4ce" stroke="none" stroke-width="0.25" stroke-linecap="butt"></path><path d="M185.1777,221.85645v-82.4751h5.71157v82.4751z" fill="#9b6425" stroke="none" stroke-width="0" stroke-linecap="butt"></path><path d="M185.35362,221.28663v-9.46662h109.82921v9.46662z" fill="#9b6425" stroke="none" stroke-width="NaN" stroke-linecap="butt"></path><path d="M185.2115,154.96476v-16.41132h110.45252v16.41132z" fill="#3e3c93" stroke="none" stroke-width="0" stroke-linecap="butt"></path><path d="M190.36293,173.70836l-5.59186,-0.00925c-0.00223,-0.01659 -0.00457,-0.03315 -0.00703,-0.04971c-0.10882,-0.73262 -0.42518,-1.57391 -0.42807,-2.32125c-0.00093,-0.24031 0.18739,-0.45001 0.21199,-0.68906c0.04678,-0.45452 -0.04547,-0.91612 0,-1.37078c0.03124,-0.31243 0.19562,-0.60158 0.22846,-0.91385c0.09301,-0.88445 0.05035,-1.82557 0.02786,-2.73968l5.57201,0.00921z" data-paper-data="{&quot;index&quot;:null}" fill="#000000" stroke="none" stroke-width="0.25" stroke-linecap="butt"></path><path d="M189.50017,173.93388l-1.20214,-0.00199l0.00071,-0.42933l1.20214,0.00199z" fill="#e6e6e6" stroke="#000000" stroke-width="0.25" stroke-linecap="butt"></path><path d="M190.34916,182.03853l-5.21968,-0.00863c0.39319,-0.75302 0.34946,-1.7346 0.34946,-2.53143c-0.01642,-0.58503 -0.14428,-1.16262 -0.25796,-1.73673c-0.15205,-0.76788 0.15281,-1.54147 -0.06853,-2.35226c-0.07231,-0.26488 -0.33288,-0.44043 -0.45693,-0.68539c-0.01517,-0.02997 0.09589,0.01018 0.09803,-0.02334c0.01601,-0.25101 0.02037,-0.50451 0.00254,-0.75578l5.56644,0.0092z" fill="#8e6544" stroke="none" stroke-width="0.25" stroke-linecap="butt"></path><path d="M184.94236,175.0581l0.00043,-0.2619l4.08472,0.00675l-0.01084,6.55258l-3.64845,-0.00603" fill="none" stroke="#513a27" stroke-width="0.25" stroke-linecap="butt"></path><g stroke="#000000" stroke-width="0.5" stroke-linecap="butt"><path d="M202.43497,143.0264l-3.07766,-4.48712c0.44178,0.01939 0.88353,0.03929 1.32511,0.06199c1.15571,0.05941 2.31188,-0.12273 3.46396,-0.23186c0.75709,-0.07172 1.59173,0.00575 2.35114,0.00575c0.53214,0 1.3851,-0.13515 1.91867,-0.0295c0.21978,0.04352 0.43537,0.0887 0.64889,0.13323z" fill="#9966ff"></path><path d="" fill="#9966ff"></path><path d="M195.42031,147.83768l7.01466,-4.81128l4.81128,7.01466l-7.01466,4.81128z" fill="#9966ff"></path><path d="M202.54952,143.19342l6.7905,-4.65753c0.12758,0.02619 0.25474,0.05179 0.38195,0.0763l4.65349,6.78461l-7.01466,4.81128z" fill="#000000"></path><path d="M190.55657,141.10459l4.31707,-2.96103c0.36136,0.1172 0.73913,0.19341 1.11792,0.22048c1.03634,0.07405 2.07446,0.1189 3.11256,0.16418l3.27838,4.77976l-7.01466,4.81128z" fill="#000000"></path></g><g stroke="#000000" stroke-width="2" stroke-linecap="butt"><path d="M280.76462,148.49973l2.18282,-1.32416l1.32416,2.18282l-2.18282,1.32416z" fill="#9966ff"></path><path d="M279.90596,152.00671l2.18282,-1.32416l1.32416,2.18282l-2.18282,1.32416z" fill="#9966ff"></path><path d="M282.12031,150.73452l2.18282,-1.32416l1.32416,2.18282l-2.18282,1.32416z" fill="#000000"></path><path d="M278.56135,149.90738l2.18282,-1.32416l1.32416,2.18282l-2.18282,1.32416z" fill="#000000"></path></g><g stroke="#000000" stroke-width="0.5" stroke-linecap="butt"><path d="M247.45918,148.13784l-0.97204,-4.0901l4.0901,-0.97204l0.97204,4.0901z" fill="#9966ff"></path><path d="M252.52132,151.2559l-0.97204,-4.0901l4.0901,-0.97204l0.97204,4.0901z" fill="#9966ff"></path><path d="M251.64666,147.14265l-0.97204,-4.0901l4.0901,-0.97204l0.97204,4.0901z" fill="#000000"></path><path d="M248.55175,152.30218l-0.97204,-4.0901l4.0901,-0.97204l0.97204,4.0901z" fill="#000000"></path></g><path d="M210.6892,182.1039z" fill="url(#color-1)" stroke="none" stroke-width="0.5" stroke-linecap="butt"></path><path d="M228.97667,184.11233v-8.79582c0,0 6.46197,-2.28463 9.93814,-2.28463c3.83702,0 12.10853,2.28463 12.10853,2.28463v8.79582c0,0 -7.37789,2.85579 -11.08045,2.85579c-3.64545,0 -10.96622,-2.85579 -10.96622,-2.85579z" fill="#99653d" stroke="#ffd200" stroke-width="0.5" stroke-linecap="butt"></path><path d="M235.47928,182.32915v-3.17226c0,0 2.33055,-0.82397 3.58424,-0.82397c1.38384,0 4.36701,0.82397 4.36701,0.82397v3.17226c0,0 -2.66088,1.02996 -3.99623,1.02996c-1.31475,0 -3.95503,-1.02996 -3.95503,-1.02996z" fill="#cf8f53" stroke="none" stroke-width="0.5" stroke-linecap="butt"></path><path d="M290.30852,212.14677v-57.57265h4.91195v57.57265z" fill="#de876b" stroke="none" stroke-width="0" stroke-linecap="butt"></path><g stroke-linecap="butt"><path d="M201.32844,212.14377l-0.71111,-1.12191l0.40068,-0.25397l0.71111,1.12191z" fill="#e6e6e6" stroke="#000000" stroke-width="0.5"></path><path d="M195.67084,203.2099l-0.71111,-1.12191l0.40068,-0.25397l0.71111,1.12191z" fill="#e6e6e6" stroke="#000000" stroke-width="0.5"></path><path d="M202.22308,212.63016l-7.50048,-11.83344l7.54481,-4.78219l7.50048,11.83344z" fill="#8e6544" stroke="none" stroke-width="0.5"></path><path d="M198.15566,204.6323l-2.51694,-3.97095l6.19469,-3.92643l2.51694,3.97095z" fill="none" stroke="#513a27" stroke-width="0.5"></path><path d="M202.26218,210.93549l-2.41626,-3.81211l6.11527,-3.87609l2.41626,3.81211z" fill="none" stroke="#513a27" stroke-width="0.5"></path><text transform="translate(198.34052,201.97688) rotate(-32.36736) scale(0.02896,0.02896)" font-size="40" xml:space="preserve" fill="#ffffff" fill-rule="nonzero" stroke="none" stroke-width="1" stroke-linecap="butt" stroke-linejoin="miter" stroke-miterlimit="10" stroke-dasharray="" stroke-dashoffset="0" font-family="Sans Serif" font-weight="normal" text-anchor="start" style="mix-blend-mode: normal"><tspan x="0" dy="0">xAmt8</tspan></text><path d="M202.15245,199.11174c0.26411,0.41669 -0.55294,1.40807 -1.82493,2.21431c-1.272,0.80624 -2.51726,1.12203 -2.78137,0.70534c-0.26411,-0.41669 0.55294,-1.40807 1.82493,-2.21431c1.272,-0.80624 2.51726,-1.12203 2.78137,-0.70534z" fill="#d59866" stroke="none" stroke-width="0.5"></path><path d="M197.71952,201.86584c-0.0695,-0.10966 -0.03695,-0.25489 0.0727,-0.32439c0.10966,-0.0695 0.25489,-0.03695 0.32439,0.0727c0.0695,0.10966 0.03695,0.25489 -0.0727,0.32439c-0.10966,0.0695 -0.25489,0.03695 -0.32439,-0.0727z" fill="#ab7a52" stroke="none" stroke-width="0.5"></path><path d="M201.53164,199.44958c-0.0695,-0.10966 -0.03695,-0.25489 0.0727,-0.32439c0.10966,-0.0695 0.25489,-0.03695 0.32439,0.0727c0.0695,0.10966 0.03695,0.25489 -0.0727,0.32439c-0.10966,0.0695 -0.25489,0.03695 -0.32439,-0.0727z" fill="#ab7a52" stroke="none" stroke-width="0.5"></path><path d="M205.38954,201.64286c0.12974,0.20469 -0.29844,0.70869 -0.95637,1.12571c-0.65793,0.41702 -1.29646,0.58915 -1.4262,0.38446c-0.12974,-0.20469 0.29844,-0.70869 0.95637,-1.12571c0.65793,-0.41702 1.29646,-0.58915 1.4262,-0.38446z" fill="#dadada" stroke="none" stroke-width="0.5"></path><path d="M204.83648,202.31173c-0.37068,0.13389 -0.79057,-0.08812 -0.93785,-0.49587c-0.14728,-0.40775 0.03383,-0.84684 0.40451,-0.98073c0.37068,-0.13389 0.79057,0.08812 0.93785,0.49587c0.14728,0.40775 -0.03382,0.84684 -0.40451,0.98073z" fill="#fff4ce" stroke="#e6ddbb" stroke-width="0.5"></path><path d="M204.81172,201.82467c-0.23029,0.08318 -0.49115,-0.05474 -0.58265,-0.30806c-0.0915,-0.25332 0.02101,-0.5261 0.2513,-0.60928c0.23029,-0.08318 0.49115,0.05474 0.58265,0.30806c0.0915,0.25332 -0.02101,0.5261 -0.2513,0.60928z" fill="#e6ddbb" stroke="#e6ddbb" stroke-width="0.5"></path><path d="M203.51464,202.38012l0.351,-0.48739l0.48739,0.351l-0.351,0.48739z" fill="#e6ddbb" stroke="none" stroke-width="0.5"></path><path d="M204.27416,202.68958c-0.01356,0.33946 -0.31324,0.16505 -0.45066,0.08334c-0.21444,-0.12751 -0.32064,-0.32507 -0.36036,-0.54641l-0.01915,0.00692l-0.04081,-0.11298v0c-0.01946,-0.05387 0.00844,-0.11331 0.06231,-0.13277c0.03894,-0.01406 0.08079,-0.00339 0.10834,0.02395l0.09567,0.09103l-0.00293,0.00308l0.0107,0.00517c0.00635,0.00936 0.01271,0.01873 0.01906,0.02809c0.01859,0.00204 0.03628,0.00908 0.05113,0.02024c0.02571,0.00611 0.04869,0.02195 0.06338,0.04489l0.06484,0.09651c0.05084,0.05529 0.40068,0.33361 0.39847,0.38895z" fill="#fff4ce" stroke="none" stroke-width="0.5"></path></g><g><path d="M290.54462,153.00496c0,0.33697 -1.4634,0.61014 -3.26859,0.61014c-1.80519,0 -3.26859,-0.27317 -3.26859,-0.61014c0,-0.33697 1.4634,-0.61014 3.26859,-0.61014c1.80519,0 3.26859,0.27317 3.26859,0.61014z" fill="url(#color-2)" stroke="none" stroke-width="0" stroke-linecap="butt"></path><path d="M284.87907,159.66496l-1.24801,-6.24003l7.42861,-0.23772l-1.18858,6.47775z" fill="url(#color-3)" stroke="#000000" stroke-width="0" stroke-linecap="butt"></path><path d="M283.47259,153.5834v-0.59429h7.84461v0.59429z" fill="#cea234" stroke="none" stroke-width="0" stroke-linecap="butt"></path><path d="M286.49831,152.50177c0,0 0.33336,-3.11549 0.40103,-4.32264c0.04861,-0.86712 -0.03295,-2.24385 -0.03295,-2.24385l0.77136,0.04324c0,0 -0.26892,2.67373 -0.33486,3.85017c-0.05459,0.97388 -0.03321,2.71632 -0.03321,2.71632z" fill="#108d00" stroke="none" stroke-width="0" stroke-linecap="butt"></path><g stroke="none" stroke-width="0" stroke-linecap="butt"><path d="M286.78445,150.76899l0.48185,-1.02118l1.28991,0.60865c0,0 0.08768,0.4209 0.01447,0.59987c-0.06927,0.16934 -0.44257,0.44666 -0.44257,0.44666z" data-paper-data="{&quot;index&quot;:null}" fill="#108d00"></path><path d="M287.02873,150.29284l0.05072,-0.10749l0.88143,0.41591l-0.05072,0.10749z" fill="#14ab00"></path><path d="M287.69008,151.18317l0.45649,-0.96743l0.09034,0.04263l-0.45649,0.96743z" fill="#14ab00"></path><path d="M287.95883,150.74486l0.04058,-0.08599l0.60196,0.28404l-0.04058,0.08599z" fill="#14ab00"></path></g><g data-paper-data="{&quot;index&quot;:null}" stroke="none" stroke-width="0" stroke-linecap="butt"><path d="M285.66816,149.85979c0,0 -0.31296,-0.34397 -0.34835,-0.52348c-0.0374,-0.18971 0.12963,-0.58588 0.12963,-0.58588l1.38292,-0.34906l0.27634,1.09481z" data-paper-data="{&quot;index&quot;:null}" fill="#108d00"></path><path d="M286.01562,149.22045l-0.02909,-0.11524l0.945,-0.23853l0.02909,0.11524z" fill="#14ab00"></path><path d="M286.04345,149.7528l-0.2618,-1.03719l0.09685,-0.02445l0.2618,1.03719z" fill="#14ab00"></path><path d="M285.31555,149.40941l-0.02327,-0.09219l0.64536,-0.1629l0.02327,0.09219z" fill="#14ab00"></path></g><g data-paper-data="{&quot;index&quot;:null}" stroke="none" stroke-width="0" stroke-linecap="butt"><path d="M285.67939,147.74008c0,0 -0.29857,-0.35653 -0.32655,-0.53734c-0.02958,-0.19109 0.15358,-0.58006 0.15358,-0.58006l1.39609,-0.29197l0.23114,1.10524z" data-paper-data="{&quot;index&quot;:null}" fill="#108d00"></path><path d="M286.05282,147.11555l-0.02433,-0.11634l0.95399,-0.19951l0.02433,0.11634z" fill="#14ab00"></path><path d="M286.05876,147.6486l-0.21898,-1.04707l0.09778,-0.02045l0.21898,1.04707z" fill="#14ab00"></path><path d="M285.34558,147.2756l-0.01947,-0.09307l0.65151,-0.13625l0.01947,0.09307z" fill="#14ab00"></path></g><g data-paper-data="{&quot;index&quot;:null}" stroke="none" stroke-width="0" stroke-linecap="butt"><path d="M287.20804,148.28185l0.215,-1.10849l1.4002,0.27158c0,0 0.18882,0.38626 0.16202,0.57776c-0.02535,0.1812 -0.31869,0.54205 -0.31869,0.54205z" data-paper-data="{&quot;index&quot;:null}" fill="#108d00"></path><path d="M287.32729,147.76015l0.02263,-0.11668l0.9568,0.18558l-0.02263,0.11668z" fill="#14ab00"></path><path d="M288.18786,148.45979l0.20369,-1.05015l0.09806,0.01902l-0.20369,1.05015z" fill="#14ab00"></path><path d="M288.34017,147.96871l0.01811,-0.09335l0.65343,0.12674l-0.01811,0.09335z" fill="#14ab00"></path></g><path d="M287.25946,146.52601l-0.37361,-0.56041l1.99153,-0.9447l0.05665,0.16422z" fill="#108d00" stroke="none" stroke-width="0" stroke-linecap="butt"></path><g data-paper-data="{&quot;index&quot;:null}" stroke="none" stroke-width="0" stroke-linecap="butt"><path d="M287.98325,145.96418l0.22546,-0.56496l0.71363,0.2848c0,0 0.06101,0.22343 0.02753,0.32208c-0.03167,0.09334 -0.22326,0.25475 -0.22326,0.25475z" data-paper-data="{&quot;index&quot;:null}" fill="#108d00"></path><path d="M288.09893,145.7001l0.02373,-0.05947l0.48765,0.19461l-0.02373,0.05947z" fill="#14ab00"></path><path d="M288.48386,146.15706l0.2136,-0.53522l0.04998,0.01995l-0.2136,0.53522z" fill="#14ab00"></path><path d="M288.61393,145.91253l0.01899,-0.04758l0.33303,0.13291l-0.01899,0.04758z" fill="#14ab00"></path></g><g data-paper-data="{&quot;index&quot;:null}" stroke="none" stroke-width="0" stroke-linecap="butt"><path d="M286.93177,145.47943c0,0 0.04794,-0.17657 0.10002,-0.22627c0.05503,-0.05253 0.2218,-0.08089 0.2218,-0.08089l0.40826,0.38501l-0.3048,0.3232z" data-paper-data="{&quot;index&quot;:null}" fill="#108d00"></path><path d="M287.21736,145.45952l0.03209,-0.03402l0.27898,0.26309l-0.03209,0.03402z" fill="#14ab00"></path><path d="M287.04663,145.58132l0.28876,-0.30619l0.02859,0.02697l-0.28876,0.30619z" fill="#14ab00"></path><path d="M287.00663,145.2672l0.02567,-0.02722l0.19052,0.17967l-0.02567,0.02722z" fill="#14ab00"></path></g><path d="M284.10366,155.23617c0,0 -0.06748,0.05066 -0.08989,-0.00422c-0.04528,-0.11085 -0.16549,-0.62098 -0.16549,-0.62098l1.5368,-1.02624l0.35444,0.50634z" fill="#d5d5d5" stroke="none" stroke-width="0" stroke-linecap="butt"></path><path d="M285.01307,154.10692l0.35444,-0.50634l1.63585,1.14509l-0.35444,0.50634z" data-paper-data="{&quot;index&quot;:null}" fill="#d5d5d5" stroke="none" stroke-width="0" stroke-linecap="butt"></path><path d="M286.69872,155.25598l-0.35443,-0.50633l1.63585,-1.14509l0.35444,0.50634z" fill="#d5d5d5" stroke="none" stroke-width="0" stroke-linecap="butt"></path><path d="M287.64775,154.10692l0.35444,-0.50634l1.63585,1.14509l-0.35444,0.50634z" data-paper-data="{&quot;index&quot;:null}" fill="#d5d5d5" stroke="none" stroke-width="0" stroke-linecap="butt"></path><path d="M289.34925,155.23221l-0.35444,-0.50634l2.01223,-1.10548l-0.02195,0.46672z" data-paper-data="{&quot;index&quot;:null}" fill="#d5d5d5" stroke="none" stroke-width="0" stroke-linecap="butt"></path><path d="M284.34137,156.88037l-0.17615,-0.60538l1.49718,-1.06586l0.35444,0.50634z" fill="#d5d5d5" stroke="none" stroke-width="0" stroke-linecap="butt"></path><path d="M285.31022,155.73131l0.35444,-0.50634l1.63585,1.14509l-0.35444,0.50633z" data-paper-data="{&quot;index&quot;:null}" fill="#d5d5d5" stroke="none" stroke-width="0" stroke-linecap="butt"></path><path d="M286.99586,156.88037l-0.35444,-0.50634l1.63585,-1.14509l0.35444,0.50634z" fill="#d5d5d5" stroke="none" stroke-width="0" stroke-linecap="butt"></path><path d="M287.9449,155.73131l0.35444,-0.50634l1.63585,1.14509l-0.35444,0.50633z" data-paper-data="{&quot;index&quot;:null}" fill="#d5d5d5" stroke="none" stroke-width="0" stroke-linecap="butt"></path><path d="M289.62234,156.8566l-0.37,-0.50634l1.41304,-0.87621c0.00221,0.12952 -0.08466,0.28774 -0.06351,0.41946c-0.00034,0.01141 -0.06255,0.04268 -0.06255,0.05417c0,0.09363 0.0113,0.18473 0.03267,0.27211z" data-paper-data="{&quot;index&quot;:null}" fill="#d5d5d5" stroke="none" stroke-width="0" stroke-linecap="butt"></path><path d="M284.79699,159.07924l-0.19596,-0.70443l1.55661,-1.06586l0.35444,0.50634z" fill="#d5d5d5" stroke="none" stroke-width="0" stroke-linecap="butt"></path><path d="M285.78565,157.83114l0.35444,-0.50634l1.63585,1.14509l-0.35444,0.50634z" data-paper-data="{&quot;index&quot;:null}" fill="#d5d5d5" stroke="none" stroke-width="0" stroke-linecap="butt"></path><path d="M287.47129,158.98019l-0.35444,-0.50633l1.63585,-1.14509l0.35444,0.50634z" fill="#d5d5d5" stroke="none" stroke-width="0" stroke-linecap="butt"></path><path d="M288.42033,157.83114l0.36668,-0.50634l1.41337,0.88105c-0.05422,0.08666 -0.05633,0.23998 -0.08638,0.33925c-0.03211,0.10608 -0.02884,0.15887 -0.02884,0.27497c0,0.00694 -0.1434,0.03367 -0.14327,0.04058z" data-paper-data="{&quot;index&quot;:null}" fill="#d5d5d5" stroke="none" stroke-width="0" stroke-linecap="butt"></path><path d="M290.00529,158.68807c0.02272,-0.1403 0.03038,-0.312 0.09766,-0.43128l-0.07804,0.27254z" data-paper-data="{&quot;index&quot;:null}" fill="#ffffff" stroke="none" stroke-width="0" stroke-linecap="butt"></path><path d="M290.62952,153.08604l-0.06792,0.11886l0.0849,0.13584l-0.35657,0.18678" fill="none" stroke="#000000" stroke-width="0.5" stroke-linecap="round"></path><path d="M290.44274,153.44262l0.10188,0.10188" fill="none" stroke="#000000" stroke-width="0.5" stroke-linecap="round"></path></g><path d="M227.85,187.65v-15.2h23.8v15.2z" fill-opacity="0" fill="#99653d" stroke="none" stroke-width="0" stroke-linecap="butt"></path><path d="M228.25,187.85v-15h25.6v15z" fill-opacity="0.07258" fill="#9966ff" stroke="none" stroke-width="0" stroke-linecap="butt"></path></g></g></svg>