<svg version="1.1" xmlns="http://www.w3.org/2000/svg" xmlns:xlink="http://www.w3.org/1999/xlink" width="26.36441" height="24.24839" viewBox="0,0,26.36441,24.24839"><defs><linearGradient x1="241.31953" y1="173.96542" x2="241.72911" y2="184.84954" gradientUnits="userSpaceOnUse" id="color-1"><stop offset="0" stop-color="#d06f3e"></stop><stop offset="1" stop-color="#dfaf90"></stop></linearGradient></defs><g transform="translate(-229.00524,-169.51085)"><g data-paper-data="{&quot;isPaintingLayer&quot;:true}" fill-rule="nonzero" stroke-linejoin="miter" stroke-miterlimit="10" stroke-dasharray="" stroke-dashoffset="0" style="mix-blend-mode: normal"><g data-paper-data="{&quot;index&quot;:null}" stroke-width="0.15"><path d="M233.85252,178.29578l6.30906,-1.49091l0.5022,2.12515l-6.30906,1.49091z" data-paper-data="{&quot;index&quot;:null}" fill="#ce9d52" stroke="none" stroke-linecap="butt"></path><path d="M235.01823,179.6681c0.23835,1.00861 0.03013,1.92115 -0.465,2.03815c-0.4952,0.11702 -1.08971,-0.60574 -1.32807,-1.61442c-0.23835,-1.00861 -0.03021,-1.9212 0.46491,-2.0382c0.4952,-0.11702 1.0898,0.60579 1.32816,1.61448z" data-paper-data="{&quot;index&quot;:null}" fill="#ce9d52" stroke="none" stroke-linecap="butt"></path><path d="M233.41392,182.10003c0,0 0.0539,-0.03961 0.12056,-0.0886c0.04972,-0.03647 0.10644,-0.07822 0.15341,-0.11271c0.16655,-0.12234 0.62794,-0.46126 0.62794,-0.46126l0.27474,0.37395l-1.13615,0.8582z" data-paper-data="{&quot;index&quot;:null}" fill="#e5e5e5" stroke="none" stroke-linecap="butt"></path><path d="M232.78871,181.72631c0,0 0.03379,-0.05772 0.07566,-0.12914c0.03115,-0.05324 0.06687,-0.11394 0.09624,-0.16421c0.10452,-0.17827 0.39398,-0.67221 0.39398,-0.67221l0.40034,0.23468l-0.70361,1.2378z" data-paper-data="{&quot;index&quot;:null}" fill="#e5e5e5" stroke="none" stroke-linecap="butt"></path><path d="M232.13053,180.63735c0,0 0.05925,-0.03108 0.13255,-0.06953c0.05462,-0.02855 0.11694,-0.06128 0.16854,-0.08834c0.18303,-0.09587 0.69004,-0.36175 0.69004,-0.36175l0.21541,0.41095l-1.25211,0.67787z" data-paper-data="{&quot;index&quot;:null}" fill="#e5e5e5" stroke="none" stroke-linecap="butt"></path><path d="M232.02474,179.50825c0,0 0.06672,-0.00417 0.14936,-0.00936c0.06152,-0.0039 0.1318,-0.00828 0.18994,-0.0119c0.20622,-0.01293 0.77762,-0.04871 0.77762,-0.04871l0.02896,0.46308l-1.41977,0.10795z" data-paper-data="{&quot;index&quot;:null}" fill="#e5e5e5" stroke="none" stroke-linecap="butt"></path><path d="M232.18371,178.30279c0,0 0.06432,0.01826 0.14397,0.04091c0.05932,0.01685 0.12706,0.03616 0.18308,0.05205c0.19875,0.05646 0.74942,0.21304 0.74942,0.21304l-0.12682,0.44638l-1.37465,-0.37104z" data-paper-data="{&quot;index&quot;:null}" fill="#e5e5e5" stroke="none" stroke-linecap="butt"></path><path d="M234.41476,179.83346c0.06074,0.25701 -0.00911,0.4934 -0.15594,0.5281c-0.14682,0.0347 -0.31511,-0.14549 -0.37583,-0.40242c-0.06074,-0.25701 0.00903,-0.49345 0.15593,-0.52816c0.14682,-0.0347 0.31513,0.14556 0.37585,0.4025z" data-paper-data="{&quot;index&quot;:null}" fill="#674100" stroke="#674100" stroke-linecap="butt"></path><path d="M233.63519,180.93015l0.55796,-0.60912l0.1952,1.30142" data-paper-data="{&quot;index&quot;:null}" fill="none" stroke="#674100" stroke-linecap="round"></path><path d="M233.97704,180.11938l-0.70533,0.22287" data-paper-data="{&quot;index&quot;:null}" fill="none" stroke="#674100" stroke-linecap="round"></path><path d="M233.09577,179.5977l0.83102,0.30901" data-paper-data="{&quot;index&quot;:null}" fill="none" stroke="#674100" stroke-linecap="round"></path><path d="M233.29059,178.87786l0.7406,0.63917" data-paper-data="{&quot;index&quot;:null}" fill="none" stroke="#674100" stroke-linecap="round"></path></g><path d="M243.01752,187.82139l-0.97587,-3.78317l1.27432,-0.32871l0.97587,3.78317z" data-paper-data="{&quot;index&quot;:null}" fill="#ce9d52" stroke="none" stroke-width="0.15" stroke-linecap="butt"></path><path d="M244.46652,187.51132c0.07659,0.29693 -0.35162,0.66408 -0.95645,0.82009c-0.60483,0.15602 -1.15721,0.04181 -1.2338,-0.25512c-0.07659,-0.2969 0.35162,-0.66408 0.95645,-0.82009c0.60483,-0.15602 1.15721,-0.04181 1.2338,0.25512z" data-paper-data="{&quot;index&quot;:null}" fill="#ce9d52" stroke="none" stroke-width="0.15" stroke-linecap="butt"></path><path d="M242.41686,189.02518l0.46265,-0.72273l0.23751,0.14761c0,0 -0.18212,0.29304 -0.24788,0.39881c-0.01854,0.02981 -0.04097,0.06588 -0.06057,0.09743c-0.02637,0.04239 -0.0476,0.07663 -0.0476,0.07663z" data-paper-data="{&quot;index&quot;:null}" fill="#e5e5e5" stroke="none" stroke-width="0.15" stroke-linecap="butt"></path><path d="M243.23571,189.25234l0.01005,-0.85804l0.27965,-0.00044c0,0 0.00054,0.34505 0.00074,0.46958c0.00006,0.03509 0.00013,0.07757 0.00018,0.11469c0.00007,0.04989 0.00011,0.0902 0.00011,0.0902z" data-paper-data="{&quot;index&quot;:null}" fill="#e5e5e5" stroke="none" stroke-width="0.15" stroke-linecap="butt"></path><path d="M243.96787,189.09452l-0.34096,-0.78748l0.25513,-0.11453c0,0 0.1413,0.31477 0.1923,0.42838c0.01436,0.03204 0.03178,0.07075 0.04697,0.10464c0.02043,0.04554 0.03693,0.08231 0.03693,0.08231z" data-paper-data="{&quot;index&quot;:null}" fill="#e5e5e5" stroke="none" stroke-width="0.15" stroke-linecap="butt"></path><path d="M244.67252,188.71834l-0.58375,-0.62896l0.20242,-0.19295c0,0 0.23805,0.24975 0.32396,0.3399c0.02421,0.02541 0.0535,0.05612 0.07913,0.08303c0.03442,0.03611 0.06221,0.06531 0.06221,0.06531z" data-paper-data="{&quot;index&quot;:null}" fill="#e5e5e5" stroke="none" stroke-width="0.15" stroke-linecap="butt"></path><path d="M243.63409,187.71192c0.02272,0.08805 -0.08377,0.19164 -0.23789,0.23139c-0.15412,0.03976 -0.29745,0.00062 -0.32016,-0.08744c-0.02272,-0.08805 0.08379,-0.19165 0.23792,-0.2314c0.1541,-0.03975 0.29742,-0.00061 0.32014,0.08745z" data-paper-data="{&quot;index&quot;:null}" fill="#674100" stroke="#674100" stroke-width="0.15" stroke-linecap="butt"></path><path d="M242.36728,188.14071l0.74889,-0.26118l-0.16823,0.46854" data-paper-data="{&quot;index&quot;:null}" fill="none" stroke="#674100" stroke-width="0.15" stroke-linecap="round"></path><path d="M243.36351,188.37692l-0.07917,-0.43874" data-paper-data="{&quot;index&quot;:null}" fill="none" stroke="#674100" stroke-width="0.15" stroke-linecap="round"></path><path d="M243.4119,187.90529l0.39806,0.35647" data-paper-data="{&quot;index&quot;:null}" fill="none" stroke="#674100" stroke-width="0.15" stroke-linecap="round"></path><path d="M244.13914,187.95576l-0.54876,-0.21555" data-paper-data="{&quot;index&quot;:null}" fill="none" stroke="#674100" stroke-width="0.15" stroke-linecap="round"></path><path d="M243.95295,184.52762l-0.00814,-0.987c0,0 1.27241,0.44192 1.77209,0.4378c0.16202,-0.00134 0.16048,-1.00124 0.34204,-1.10576c0.21439,-0.12342 0.60012,0.64559 0.60012,0.64559c0,0 0.20739,0.21135 0.20869,0.36842c0.00141,0.17074 -0.20055,0.61856 -0.20055,0.61856z" data-paper-data="{&quot;index&quot;:null}" fill="#dfaf90" stroke="none" stroke-width="0.15" stroke-linecap="butt"></path><path d="M237.7454,188.41779l1.51528,-3.6012l1.21302,0.51041l-1.51528,3.6012z" data-paper-data="{&quot;index&quot;:null}" fill="#ce9d52" stroke="none" stroke-width="0.15" stroke-linecap="butt"></path><path d="M244.70502,179.28782c0.07213,1.91649 0.61522,3.98165 -0.22336,4.98417c-0.47653,0.56972 -2.04664,2.06624 -2.68319,2.09019c-0.8719,0.03279 -2.6607,-1.02074 -3.27184,-1.97124c-0.62017,-0.96454 -0.1261,-3.34991 -0.18308,-4.86373c-0.1131,-3.00559 1.21929,-5.49568 2.97599,-5.56178c1.7567,-0.06611 3.27244,2.31681 3.38554,5.32237z" data-paper-data="{&quot;index&quot;:null}" fill="url(#color-1)" stroke="none" stroke-width="0.15" stroke-linecap="butt"></path><path d="M242.18095,178.92565c0.05327,1.41609 -0.31932,2.5797 -0.83224,2.59901c-0.51292,0.01931 -0.97194,-1.11301 -1.02521,-2.52911c-0.05327,-1.41609 0.31932,-2.5797 0.83224,-2.59901c0.51292,-0.01931 0.97194,1.11301 1.02521,2.52911z" data-paper-data="{&quot;index&quot;:null}" fill="#c8a582" stroke="none" stroke-width="0.15" stroke-linecap="butt"></path><g data-paper-data="{&quot;index&quot;:null}" stroke-width="0.15" stroke-linecap="butt"><path d="M241.92983,170.61387c1.51759,0.16408 2.62068,1.4734 2.4638,2.92444c-0.1569,1.45102 -1.51434,2.49433 -3.03192,2.33025c-1.51759,-0.16408 -2.62068,-1.4734 -2.4638,-2.92444c0.1569,-1.45102 1.51435,-2.49433 3.03195,-2.33023z" fill="#b8814a" stroke="none"></path><path d="M239.7181,171.25699l-0.23406,-0.94109c0,0 0.2725,-0.7402 0.51026,-0.79931c0.25738,-0.06402 0.97985,0.42873 0.97985,0.42873l0.23406,0.94112z" fill="#b8814a" stroke="none"></path><path d="M243.2279,171.06906l0.70107,-0.67002c0,0 0.77787,-0.13055 0.94715,0.04659c0.18323,0.19172 0.11373,1.06346 0.11373,1.06346l-0.70108,0.67004z" fill="#b8814a" stroke="none"></path><path d="M243.45772,171.1989l0.45539,-0.43521c0,0 0.50525,-0.08476 0.61521,0.03027c0.119,0.12454 0.07387,0.69077 0.07387,0.69077l-0.45538,0.43518z" fill="#c8a582" stroke="none"></path><path d="M239.89952,170.9295l-0.06434,-0.62663c0,0 0.243,-0.45102 0.40131,-0.46729c0.17136,-0.01757 0.59085,0.36539 0.59085,0.36539l0.06434,0.62663z" fill="#c8a582" stroke="none"></path><path d="M240.6854,171.41006c0.25518,0.0276 0.43866,0.2658 0.40986,0.53204c-0.02878,0.26624 -0.25896,0.45968 -0.51411,0.43211c-0.25515,-0.02759 -0.43867,-0.26578 -0.40986,-0.53203c0.02878,-0.26624 0.25899,-0.4597 0.51414,-0.43212z" fill="#000000" stroke="none"></path><path d="M240.91861,171.7563c-0.00871,0.0805 -0.07598,0.13926 -0.15029,0.13122c-0.07432,-0.00804 -0.12751,-0.0798 -0.11881,-0.16031c0.00871,-0.0805 0.07601,-0.13926 0.15031,-0.13124c0.07432,0.00804 0.12749,0.07982 0.11878,0.16032z" fill="#ffffff" stroke="none"></path><path d="M240.34654,171.73693c0.02958,0.00321 0.051,0.02978 0.04778,0.05937c-0.00318,0.02958 -0.02974,0.05097 -0.05934,0.04777c-0.02958,-0.00318 -0.051,-0.02976 -0.04779,-0.05935c0.0032,-0.02956 0.02978,-0.051 0.05937,-0.04778z" fill="#ffffff" stroke="none"></path><path d="M240.50004,171.98834c0.02956,0.0032 0.051,0.02978 0.04778,0.05937c-0.00321,0.02958 -0.02978,0.051 -0.05937,0.04778c-0.02959,-0.00318 -0.051,-0.02976 -0.04779,-0.05935c0.00318,-0.02958 0.02976,-0.051 0.05935,-0.04779z" fill="#ffffff" stroke="none"></path><path d="M240.85733,172.10831c-0.0032,0.02956 -0.02978,0.051 -0.05937,0.04778c-0.02958,-0.00321 -0.051,-0.02978 -0.04778,-0.05937c0.00321,-0.02958 0.02978,-0.051 0.05937,-0.04778c0.02956,0.0032 0.051,0.02978 0.04778,0.05937z" fill="#ffffff" stroke="none"></path><g stroke="none"><path d="M243.47786,172.30549c-0.02878,0.26624 -0.25899,0.4597 -0.51414,0.43212c-0.25518,-0.02759 -0.43867,-0.26578 -0.40986,-0.53203c0.02878,-0.26624 0.25896,-0.45971 0.51411,-0.43214c0.25515,0.02757 0.43865,0.26578 0.40986,0.53203z" fill="#000000"></path><path d="M243.15085,172.25091c-0.07432,-0.00804 -0.12751,-0.0798 -0.11881,-0.16031c0.00871,-0.0805 0.07598,-0.13926 0.1503,-0.13122c0.07432,0.00804 0.12751,0.0798 0.11881,0.16031c-0.00871,0.0805 -0.07601,0.13924 -0.1503,0.13122z" fill="#ffffff"></path><path d="M242.77684,172.15972c-0.0032,0.02956 -0.02978,0.051 -0.05937,0.04778c-0.02956,-0.0032 -0.05097,-0.02977 -0.04775,-0.05936c0.00318,-0.02959 0.02976,-0.051 0.05935,-0.04779c0.02956,0.0032 0.051,0.02978 0.04778,0.05937z" fill="#ffffff"></path><path d="M242.88251,172.35176c0.02959,0.00318 0.051,0.02976 0.04779,0.05935c-0.0032,0.02956 -0.02978,0.051 -0.05937,0.04778c-0.02956,-0.0032 -0.05097,-0.02977 -0.04775,-0.05936c0.00321,-0.02958 0.02978,-0.051 0.05937,-0.04778z" fill="#ffffff"></path><path d="M243.23985,172.47168c-0.0032,0.02956 -0.02978,0.051 -0.05937,0.04778c-0.02956,-0.0032 -0.05097,-0.02977 -0.04775,-0.05936c0.0032,-0.02956 0.02978,-0.051 0.05937,-0.04778c0.02956,0.0032 0.05097,0.02977 0.04775,0.05936z" fill="#ffffff"></path></g><path d="M241.12154,173.21394l0.05212,-0.48208c0,0 0.22451,-0.15307 0.31635,-0.14315c0.09183,0.00993 0.23462,0.20271 0.23462,0.20271l-0.05214,0.48211z" fill="#000000" stroke="none"></path><path d="M241.34253,172.98929c0.11219,0.16554 0.11326,0.3953 -0.01378,0.57394c-0.1617,0.22733 -0.46963,0.28579 -0.68788,0.1306c-0.05155,-0.03666 -0.09348,-0.08193 -0.12532,-0.13274" fill="none" stroke="#000000"></path><path d="M242.24544,173.86065c-0.04195,0.04281 -0.09258,0.07808 -0.15078,0.10288c-0.24635,0.10498 -0.53471,-0.01797 -0.64408,-0.27459c-0.08593,-0.20165 -0.03577,-0.42586 0.10922,-0.56358" data-paper-data="{&quot;index&quot;:null}" fill="none" stroke="#000000"></path></g><path d="M239.08611,189.04887c-0.11894,0.28265 -0.68204,0.31537 -1.25776,0.07311c-0.57573,-0.24225 -0.94605,-0.66773 -0.82712,-0.95038c0.11892,-0.28262 0.68204,-0.31537 1.25777,-0.07311c0.57573,0.24225 0.94603,0.66772 0.82711,0.95038z" data-paper-data="{&quot;index&quot;:null}" fill="#ce9d52" stroke="none" stroke-width="0.15" stroke-linecap="butt"></path><path d="M236.31911,188.72868l0.62339,-0.58969l0.19486,0.20058c0,0 -0.2475,0.24046 -0.33682,0.32722c-0.02518,0.02445 -0.05564,0.05405 -0.08229,0.07992c-0.03579,0.03477 -0.06469,0.06284 -0.06469,0.06284z" data-paper-data="{&quot;index&quot;:null}" fill="#e5e5e5" stroke="none" stroke-width="0.15" stroke-linecap="butt"></path><path d="M236.53834,189.01175l0.80588,-0.29478l0.09954,0.26135c0,0 -0.32243,0.12283 -0.43884,0.16714c-0.03281,0.01249 -0.07247,0.02762 -0.1072,0.04083c-0.04666,0.01775 -0.0843,0.0321 -0.0843,0.0321z" data-paper-data="{&quot;index&quot;:null}" fill="#e5e5e5" stroke="none" stroke-width="0.15" stroke-linecap="butt"></path><path d="M237.05213,189.68851l0.52778,-0.67663l0.22278,0.16906c0,0 -0.20859,0.27485 -0.28386,0.37406c-0.02122,0.02796 -0.04689,0.06179 -0.06934,0.09137c-0.03014,0.03975 -0.05451,0.07184 -0.05451,0.07184z" data-paper-data="{&quot;index&quot;:null}" fill="#e5e5e5" stroke="none" stroke-width="0.15" stroke-linecap="butt"></path><path d="M237.73036,190.00646l0.20571,-0.83309l0.27236,0.06343c0,0 -0.07825,0.33603 -0.1065,0.45733c-0.00798,0.03419 -0.0176,0.07553 -0.02604,0.1117c-0.01133,0.04861 -0.02045,0.08787 -0.02045,0.08787z" data-paper-data="{&quot;index&quot;:null}" fill="#e5e5e5" stroke="none" stroke-width="0.15" stroke-linecap="butt"></path><path d="M238.3023,188.70422c-0.03527,0.08381 -0.18274,0.10173 -0.32945,0.03999c-0.14671,-0.06174 -0.23704,-0.17969 -0.20177,-0.26352c0.03528,-0.08383 0.18277,-0.10174 0.32949,-0.04001c0.14671,0.06174 0.237,0.17971 0.20173,0.26353z" data-paper-data="{&quot;index&quot;:null}" fill="#674100" stroke="#674100" stroke-width="0.15" stroke-linecap="butt"></path><path d="M237.03462,188.278l0.75406,0.24584l-0.41767,0.27085" data-paper-data="{&quot;index&quot;:null}" fill="none" stroke="#674100" stroke-width="0.15" stroke-linecap="round"></path><path d="M237.88696,188.67239l-0.20277,0.397" data-paper-data="{&quot;index&quot;:null}" fill="none" stroke="#674100" stroke-width="0.15" stroke-linecap="round"></path><path d="M238.00839,188.72347l0.10077,0.52472" data-paper-data="{&quot;index&quot;:null}" fill="none" stroke="#674100" stroke-width="0.15" stroke-linecap="round"></path><path d="M238.55642,189.20416l-0.30603,-0.50392" data-paper-data="{&quot;index&quot;:null}" fill="none" stroke="#674100" stroke-width="0.15" stroke-linecap="round"></path><path d="M229.11124,190.39907l8.11713,-7.57114l3.03528,3.25417l-8.11713,7.57114z" data-paper-data="{&quot;index&quot;:null}" fill="#ffe166" stroke="#000000" stroke-width="0.15" stroke-linecap="butt"></path><path d="M252.22837,192.55324l-8.11713,-7.57114l3.03528,-3.25417l8.11713,7.57114z" data-paper-data="{&quot;index&quot;:null}" fill="#ffe166" stroke="#000000" stroke-width="0.15" stroke-linecap="butt"></path><g stroke-width="0.15"><path d="M246.91033,182.2439l-4.59984,-4.56821l1.53876,-1.54942l4.59984,4.56821z" data-paper-data="{&quot;index&quot;:null}" fill="#ce9d52" stroke="none" stroke-linecap="butt"></path><path d="M248.71413,180.57292c0.36099,0.35851 0.06152,1.24533 -0.66878,1.98069c-0.73036,0.73541 -1.61494,1.04094 -1.97597,0.68238c-0.36099,-0.35851 -0.06162,-1.24533 0.66867,-1.98069c0.73036,-0.73541 1.61504,-1.04094 1.97608,-0.68238z" data-paper-data="{&quot;index&quot;:null}" fill="#ce9d52" stroke="none" stroke-linecap="butt"></path><path d="M246.50276,184.63157l-0.52019,-1.32543l0.42966,-0.17524c0,0 0.21627,0.53009 0.29432,0.72142c0.02201,0.05394 0.04856,0.11918 0.07188,0.17626c0.03123,0.0766 0.05648,0.13855 0.05648,0.13855z" data-paper-data="{&quot;index&quot;:null}" fill="#e5e5e5" stroke="none" stroke-linecap="butt"></path><path d="M247.07447,184.47018l0.04699,-1.42303l0.46397,0.00913c0,0 -0.01134,0.5724 -0.01539,0.77901c-0.00123,0.0582 -0.00249,0.12862 -0.00375,0.19029c-0.00163,0.08277 -0.00297,0.14964 -0.00297,0.14964z" data-paper-data="{&quot;index&quot;:null}" fill="#e5e5e5" stroke="none" stroke-linecap="butt"></path><path d="M248.43493,184.09987l-0.71327,-1.23229l0.39841,-0.23779c0,0 0.29333,0.49164 0.39927,0.66903c0.02986,0.05004 0.06587,0.11051 0.09752,0.16339c0.0424,0.07108 0.07667,0.12855 0.07667,0.12855z" data-paper-data="{&quot;index&quot;:null}" fill="#e5e5e5" stroke="none" stroke-linecap="butt"></path><path d="M249.34544,183.25374l-1.15405,-0.83401l0.26671,-0.37968c0,0 0.46846,0.32911 0.63753,0.44792c0.04768,0.03348 0.10531,0.07393 0.15572,0.10941c0.06774,0.04761 0.12246,0.08604 0.12246,0.08604z" data-paper-data="{&quot;index&quot;:null}" fill="#e5e5e5" stroke="none" stroke-linecap="butt"></path><path d="M250.03128,182.1198l-1.3659,-0.40204l0.12517,-0.44685c0,0 0.55131,0.15428 0.75028,0.21001c0.05606,0.01572 0.12391,0.03466 0.18329,0.05129c0.07975,0.02232 0.14412,0.04036 0.14412,0.04036z" data-paper-data="{&quot;index&quot;:null}" fill="#e5e5e5" stroke="none" stroke-linecap="butt"></path><path d="M247.69694,181.56491c0.1071,0.10636 0.04301,0.3444 -0.14307,0.53179c-0.18604,0.18732 -0.42368,0.25301 -0.53073,0.1467c-0.10705,-0.10631 -0.04306,-0.34435 0.14302,-0.53173c0.18604,-0.18732 0.42374,-0.25305 0.53079,-0.14674z" data-paper-data="{&quot;index&quot;:null}" fill="#674100" stroke="#674100" stroke-linecap="butt"></path><path d="M246.25374,183.25073l0.84655,-1.00755l0.15738,0.8109" data-paper-data="{&quot;index&quot;:null}" fill="none" stroke="#674100" stroke-linecap="round"></path><path d="M247.87481,182.74279l-0.48489,-0.55862" data-paper-data="{&quot;index&quot;:null}" fill="none" stroke="#674100" stroke-linecap="round"></path><path d="M247.5439,182.02912l0.87001,0.17082" data-paper-data="{&quot;index&quot;:null}" fill="none" stroke="#674100" stroke-linecap="round"></path><path d="M247.65854,181.64232l0.96546,-0.15791" data-paper-data="{&quot;index&quot;:null}" fill="none" stroke="#674100" stroke-linecap="round"></path></g><path d="M237.71244,184.19058l0.4,1" fill="none" stroke="#000202" stroke-width="0.2" stroke-linecap="round"></path><path d="M237.26244,184.94058l1.05,-0.35" fill="none" stroke="#000202" stroke-width="0.2" stroke-linecap="round"></path><path d="M247.51244,184.49058l-1.5,0.25l-0.7,0.25" fill="none" stroke="#000202" stroke-width="0.2" stroke-linecap="round"></path><path d="M248.31244,185.09058l-2.75,0.45" fill="none" stroke="#000202" stroke-width="0.2" stroke-linecap="round"></path><path d="M247.16244,184.24058l0.65,1.6" fill="none" stroke="#000202" stroke-width="0.2" stroke-linecap="round"></path><path d="M245.91244,184.29058l0.8,1.45" fill="none" stroke="#000202" stroke-width="0.2" stroke-linecap="round"></path></g></g></svg>