<svg version="1.1" xmlns="http://www.w3.org/2000/svg" xmlns:xlink="http://www.w3.org/1999/xlink" width="54.97784" height="56.5031" viewBox="0,0,54.97784,56.5031"><defs><linearGradient x1="238.15992" y1="167.72949" x2="238.15992" y2="202.73538" gradientUnits="userSpaceOnUse" id="color-1"><stop offset="0" stop-color="#b16150"></stop><stop offset="1" stop-color="#5c3328"></stop></linearGradient><linearGradient x1="228.36284" y1="180.15407" x2="242.20725" y2="180.15407" gradientUnits="userSpaceOnUse" id="color-2"><stop offset="0" stop-color="#cda89a"></stop><stop offset="1" stop-color="#fefcd7"></stop></linearGradient><linearGradient x1="234.22246" y1="167.40617" x2="248.63577" y2="167.40617" gradientUnits="userSpaceOnUse" id="color-3"><stop offset="0" stop-color="#ab5e4d"></stop><stop offset="1" stop-color="#4f2d24"></stop></linearGradient><linearGradient x1="231.30186" y1="162.39797" x2="253.8327" y2="162.39797" gradientUnits="userSpaceOnUse" id="color-4"><stop offset="0" stop-color="#fdf3d5"></stop><stop offset="1" stop-color="#e5a586"></stop></linearGradient></defs><g transform="translate(-209.86822,-148.23634)"><g data-paper-data="{&quot;isPaintingLayer&quot;:true}" fill-rule="nonzero" stroke-linejoin="miter" stroke-miterlimit="10" stroke-dasharray="" stroke-dashoffset="0" style="mix-blend-mode: normal"><path d="M216.15396,196.45829c0,-9.86526 0,-26.89275 0,-32.51997c0,-3.55647 1.50337,-7.67776 3.17295,-7.67776c5.13777,0 31.88059,0 41.26234,0c2.03805,0 3.25682,2.85812 3.25682,7.08287c0,9.95502 0,27.49809 0,33.11485c0,3.40496 -1.25235,7.28116 -3.34069,7.28116c-9.43383,0 -35.92722,0 -41.09461,0c-1.70864,0 -3.25682,-2.95049 -3.25682,-7.28116z" fill-opacity="0.62097" fill="#291800" stroke="#d6cdad" stroke-width="2" stroke-linecap="butt"></path><g><text transform="translate(237.42824,199.43531) rotate(13.62061) scale(0.06191,0.06191)" font-size="40" xml:space="preserve" fill="#a45a4a" fill-rule="nonzero" stroke="none" stroke-width="1" stroke-linecap="butt" stroke-linejoin="miter" stroke-miterlimit="10" stroke-dasharray="" stroke-dashoffset="0" font-family="Handwriting" font-weight="normal" text-anchor="start" style="mix-blend-mode: normal"><tspan x="0" dy="0">xAmt8</tspan></text><path d="M226.41439,194.64151c1.13476,-6.65946 3.09335,-18.15371 3.74063,-21.95232c0.40908,-2.40076 1.50289,-5.07527 2.19118,-4.95584c2.11803,0.36751 13.14269,2.28044 17.01029,2.95152c0.84018,0.14578 1.01386,2.16231 0.5279,5.01419c-1.14508,6.72005 -3.16298,18.56234 -3.80905,22.35388c-0.39166,2.29849 -1.3538,4.8255 -2.21471,4.67612c-3.88907,-0.67481 -14.8109,-2.56989 -16.94114,-2.93952c-0.70438,-0.12222 -1.00323,-2.22467 -0.5051,-5.14805z" fill="url(#color-1)" stroke="#fff4ce" stroke-width="0" stroke-linecap="butt"></path><path d="M228.3967,182.40713c0.32099,-1.8798 0.87501,-5.12434 1.0581,-6.19659c0.11572,-0.67767 0.64997,-1.40718 1.09436,-1.34522c1.36753,0.19068 8.48572,1.18318 10.98288,1.53137c0.54247,0.07564 0.77388,0.66548 0.63642,1.47049c-0.32391,1.8969 -0.8947,5.23968 -1.07746,6.30994c-0.11079,0.6488 -0.57025,1.34092 -1.12611,1.26342c-2.51102,-0.35012 -9.56282,-1.33337 -10.93824,-1.52514c-0.45479,-0.06341 -0.77087,-0.68308 -0.62997,-1.50827z" fill="url(#color-2)" stroke="#fff4ce" stroke-width="0" stroke-linecap="butt"></path><path d="M239.83188,184.14838c0.35216,-1.87421 0.95999,-5.1091 1.16087,-6.17816c0.12696,-0.67566 0.40421,-1.44635 0.54873,-1.43272c0.44473,0.04195 2.75961,0.26033 3.5717,0.33694c0.17642,0.01664 0.17989,0.56958 0.02908,1.3722c-0.35537,1.89126 -0.9816,5.2241 -1.1821,6.29117c-0.12155,0.64687 -0.36832,1.37305 -0.54909,1.356c-0.8166,-0.07703 -3.10989,-0.29337 -3.55718,-0.33557c-0.1479,-0.01395 -0.17659,-0.58713 -0.02199,-1.40987z" fill="#d5977b" stroke="#fff4ce" stroke-width="0" stroke-linecap="butt"></path><path d="M230.11625,200.06675l6.35626,-31.99317" fill="none" stroke-opacity="0.09917" stroke="#000000" stroke-width="0.5" stroke-linecap="round"></path><path d="M234.22246,168.33414l0.58152,-3.91202l13.83179,2.05608l-0.58152,3.91202z" fill="url(#color-3)" stroke="#000000" stroke-width="0.5" stroke-linecap="butt"></path><path d="M234.07439,164.92914l0.1948,-1.34194l15.3484,2.228l-0.1948,1.34194c0,0 -0.30566,-0.54561 -1.32174,-0.7365c-3.34401,-0.62821 -11.05002,-1.58021 -12.7003,-1.81977c-0.63836,-0.09267 -1.32636,0.32827 -1.32636,0.32827z" fill="#ab5e4d" stroke="#000000" stroke-width="0.5" stroke-linecap="butt"></path><path d="M242.73588,169.35543l-5.67826,31.69654" fill="none" stroke-opacity="0.09917" stroke="#000000" stroke-width="0.5" stroke-linecap="round"></path><path d="M241.54937,169.52492l0.59325,-4.74601" fill="none" stroke-opacity="0.09917" stroke="#000000" stroke-width="0.5" stroke-linecap="round"></path><path d="M231.30186,163.98009l0.75666,-5.27966c0,0 2.00787,-1.5382 2.71734,-1.4304c0.92155,0.14002 3.18136,0.38115 5.80889,0.68427c3.96915,0.4579 8.7774,1.05725 11.07916,1.6632c0.7621,0.20062 2.16881,2.39119 2.16881,2.39119l-0.86974,5.52264c0,0 -0.50516,-1.04687 -1.36874,-1.23867c-4.08588,-0.90747 -16.00985,-2.60962 -18.37783,-2.99784c-0.7774,-0.12745 -1.91453,0.68528 -1.91453,0.68528z" fill="url(#color-4)" stroke="#000000" stroke-width="0" stroke-linecap="butt"></path></g><g stroke-linecap="butt"><path d="M212.36824,162.03501c0,-2.30933 0,-6.29523 0,-7.61249c0,-0.83253 0.35192,-1.79726 0.74274,-1.79726c1.20269,0 7.46283,0 9.65897,0c0.47708,0 0.76238,0.66905 0.76238,1.65801c0,2.33034 0,6.43694 0,7.75175c0,0.79706 -0.29315,1.70443 -0.78201,1.70443c-2.20834,0 -8.41009,0 -9.61971,0c-0.39997,0 -0.76238,-0.69067 -0.76238,-1.70443z" fill-opacity="0.47425" fill="#000000" stroke="#fff4ce" stroke-width="0"></path><path d="M210.36824,159.89216c0,-2.30933 0,-6.29523 0,-7.61249c0,-0.83253 0.35192,-1.79726 0.74274,-1.79726c1.20269,0 7.46283,0 9.65897,0c0.47708,0 0.76238,0.66904 0.76238,1.658c0,2.33034 0,6.43695 0,7.75176c0,0.79706 -0.29315,1.70443 -0.78201,1.70443c-2.20834,0 -8.41009,0 -9.61971,0c-0.39997,0 -0.76238,-0.69067 -0.76238,-1.70443z" fill-opacity="0.88705" fill="#291800" stroke="#fff4ce" stroke-width="1"></path><text transform="translate(213.35852,159.88738) scale(0.26784,0.26784)" font-size="40" xml:space="preserve" fill="#fff4ce" fill-rule="nonzero" stroke="none" stroke-width="1" stroke-linecap="butt" stroke-linejoin="miter" stroke-miterlimit="10" stroke-dasharray="" stroke-dashoffset="0" font-family="Sans Serif" font-weight="normal" text-anchor="start" style="mix-blend-mode: normal"><tspan x="0" dy="0">2</tspan></text></g></g></g></svg>