<svg version="1.1" xmlns="http://www.w3.org/2000/svg" xmlns:xlink="http://www.w3.org/1999/xlink" width="29.69212" height="37.30091" viewBox="0,0,29.69212,37.30091"><g transform="translate(-98.96598,-6.05247)"><g data-paper-data="{&quot;isPaintingLayer&quot;:true}" fill-rule="nonzero" stroke-linecap="butt" stroke-linejoin="miter" stroke-miterlimit="10" stroke-dasharray="" stroke-dashoffset="0" style="mix-blend-mode: normal"><path d="M99.96599,30.39302c0,-5.7282 0,-15.6151 0,-18.88251c0,-2.06504 0.87292,-4.45804 1.84235,-4.45804c2.98321,0 18.51126,0 23.95871,0c1.18338,0 1.89105,1.65955 1.89105,4.11262c0,5.78032 0,15.96659 0,19.22792c0,1.97707 -0.72717,4.22776 -1.93975,4.22776c-5.47769,0 -20.86091,0 -23.86132,0c-0.99211,0 -1.89105,-1.71318 -1.89105,-4.22776z" fill-opacity="0.62097" fill="#291800" stroke="#fff4ce" stroke-width="2"></path><text transform="translate(107.66253,41.6859) scale(0.14822,0.14822)" font-size="40" xml:space="preserve" fill="#fff4ce" fill-rule="nonzero" stroke="none" stroke-width="1" stroke-linecap="butt" stroke-linejoin="miter" stroke-miterlimit="10" stroke-dasharray="" stroke-dashoffset="0" font-family="Serif" font-weight="normal" text-anchor="start" style="mix-blend-mode: normal"><tspan x="0" dy="0">Chat</tspan></text><path d="M103.13728,23.29688c0,-2.30817 0,-6.29207 0,-7.60866c0,-0.8321 0.69378,-1.79636 1.46427,-1.79636c2.37101,0 14.71251,0 19.04207,0c0.94053,0 1.50298,0.66872 1.50298,1.65717c0,2.32917 0,6.4337 0,7.74785c0,0.79666 -0.57794,1.70357 -1.54169,1.70357c-2.44202,0 -9.39292,-0.69157 -14.51589,0.74337c-1.49487,0.41872 -2.70305,4.55701 -3.76072,4.55701c-1.77965,0 -0.03129,-5.30039 -0.68805,-5.30039c-0.78852,0 -1.50298,-0.69032 -1.50298,-1.70357z" fill="none" stroke="#fff4ce" stroke-width="2"></path><g fill="#fff4ce" stroke="none" stroke-width="0.5"><path d="M107.86289,19.64192c0,-0.55228 0.44772,-1 1,-1c0.55228,0 1,0.44772 1,1c0,0.55228 -0.44772,1 -1,1c-0.55228,0 -1,-0.44772 -1,-1z"></path><path d="M113.06289,19.81692c0,-0.55228 0.44772,-1 1,-1c0.55228,0 1,0.44772 1,1c0,0.55228 -0.44772,1 -1,1c-0.55228,0 -1,-0.44772 -1,-1z"></path><path d="M118.58789,19.66692c0,-0.55228 0.44772,-1 1,-1c0.55228,0 1,0.44772 1,1c0,0.55228 -0.44772,1 -1,1c-0.55228,0 -1,-0.44772 -1,-1z"></path></g></g></g></svg>