<svg version="1.1" xmlns="http://www.w3.org/2000/svg" xmlns:xlink="http://www.w3.org/1999/xlink" width="11.55072" height="26.75915" viewBox="0,0,11.55072,26.75915"><defs><radialGradient cx="237.25" cy="166.70393" r="6.20851" gradientUnits="userSpaceOnUse" id="color-1"><stop offset="0" stop-color="#fff85d"></stop><stop offset="1" stop-color="#fff85d" stop-opacity="0"></stop></radialGradient><linearGradient x1="235.32487" y1="176.32952" x2="238.69383" y2="176.32952" gradientUnits="userSpaceOnUse" id="color-2"><stop offset="0" stop-color="#fff3d5"></stop><stop offset="1" stop-color="#ffd3c2"></stop></linearGradient></defs><g transform="translate(-231.47464,-160.49542)"><g data-paper-data="{&quot;isPaintingLayer&quot;:true}" fill-rule="nonzero" stroke-linejoin="miter" stroke-miterlimit="10" stroke-dasharray="" stroke-dashoffset="0" style="mix-blend-mode: normal"><text transform="translate(234.09203,185.30024) scale(0.05639,0.05639)" font-size="40" xml:space="preserve" fill="#66d6ff" fill-rule="nonzero" stroke="none" stroke-width="1" stroke-linecap="butt" stroke-linejoin="miter" stroke-miterlimit="10" stroke-dasharray="" stroke-dashoffset="0" font-family="Sans Serif" font-weight="normal" text-anchor="start" style="mix-blend-mode: normal"><tspan x="0" dy="0">xAmt8</tspan></text><g stroke-width="0.25"><path d="M243.02535,166.70393c0,3.42887 -2.58571,6.20851 -5.77536,6.20851c-3.18964,0 -5.77535,-2.77964 -5.77535,-6.20851c0,-3.42887 2.58571,-6.20851 5.77536,-6.20851c3.18965,0 5.77536,2.77964 5.77536,6.20851z" fill="url(#color-1)" stroke="none" stroke-linecap="butt"></path><path d="M235.42113,187.25457l-1.34758,-2.69517l6.35289,-0.09625l-0.48128,2.79142z" fill="#a76a00" stroke="none" stroke-linecap="butt"></path><path d="M234.07355,184.75192v-0.57754h6.44915v0.57754z" fill="#643f00" stroke="none" stroke-linecap="butt"></path><path d="M233.88103,184.3669l-1.44384,-2.02137l9.33683,-0.09626l-1.25133,2.11763z" fill="#a76a00" stroke="none" stroke-linecap="butt"></path><path d="M239.75727,186.00093c-0.1902,-0.38041 0.1902,-0.57061 0.1902,-0.57061l0.38502,-0.19251c0.52466,-0.26233 1.27618,-0.44761 1.03805,-1.21772c-0.08157,-0.26379 -0.34863,-0.42846 -0.5143,-0.64936c0,0 -0.25518,-0.34024 0.08506,-0.59542c0.34025,-0.25518 0.59542,0.08506 0.59542,0.08506c0.08289,0.11052 0.61846,0.81514 0.64077,0.89074c0.37405,1.26743 -0.52618,1.77829 -1.4646,2.2475l-0.38502,0.19251c0,0 -0.38041,0.1902 -0.57061,-0.1902z" fill="#a76a00" stroke="none" stroke-linecap="butt"></path><path d="M235.32487,182.24926c0,0 0.8214,-7.57139 0.93869,-9.63242c0.05463,-0.96002 -0.2649,-2.20705 -0.2649,-2.20705c0,0 1.24629,0.28876 1.73261,0.28876c0.3912,0 0.96256,-0.28876 0.96256,-0.28876c0,0 -0.38502,5.08873 -0.38502,7.21919c0,1.73364 0.38502,4.62028 0.38502,4.62028z" fill="url(#color-2)" stroke="none" stroke-linecap="butt"></path><path d="M237.15374,167.90712l0.09625,2.5989" fill="none" stroke="#000000" stroke-linecap="round"></path><path d="M237.82753,166.89644c0,0.71767 -0.28012,1.29946 -0.62566,1.29946c-0.34554,0 -0.62567,-0.58178 -0.62567,-1.29946c0,-0.71767 0.28012,-1.87699 0.62567,-1.87699c0.34554,0 0.62566,1.15932 0.62566,1.87699z" fill="#ffd75c" stroke="#000000" stroke-linecap="butt"></path></g></g></g></svg>