<svg version="1.1" xmlns="http://www.w3.org/2000/svg" xmlns:xlink="http://www.w3.org/1999/xlink" width="103.7897" height="32.36157" viewBox="0,0,103.7897,32.36157"><defs><radialGradient cx="370.62723" cy="114.58466" r="3.58519" gradientUnits="userSpaceOnUse" id="color-1"><stop offset="0" stop-color="#ff7a7a"></stop><stop offset="1" stop-color="#ff7a7a" stop-opacity="0"></stop></radialGradient><radialGradient cx="376.53898" cy="114.96497" r="3.5852" gradientUnits="userSpaceOnUse" id="color-2"><stop offset="0" stop-color="#ff7a7a"></stop><stop offset="1" stop-color="#ff7a7a" stop-opacity="0"></stop></radialGradient><radialGradient cx="374.31486" cy="117.04308" r="8.0923" gradientUnits="userSpaceOnUse" id="color-3"><stop offset="0" stop-color="#ff7a7a" stop-opacity="0"></stop><stop offset="1" stop-color="#ff7a7a" stop-opacity="0"></stop></radialGradient></defs><g transform="translate(-351.02613,-100.59937)"><g data-paper-data="{&quot;isPaintingLayer&quot;:true}" fill-rule="nonzero" stroke-linecap="butt" stroke-linejoin="miter" stroke-miterlimit="10" stroke-dasharray="" stroke-dashoffset="0" style="mix-blend-mode: normal"><text transform="translate(379.82644,119.21116) scale(0.40517,0.40517)" font-size="40" xml:space="preserve" fill="#9966ff" fill-rule="nonzero" stroke="none" stroke-width="1" stroke-linecap="butt" stroke-linejoin="miter" stroke-miterlimit="10" stroke-dasharray="" stroke-dashoffset="0" font-family="Serif" font-weight="normal" text-anchor="start" style="mix-blend-mode: normal"><tspan x="0" dy="0">xamt8</tspan></text><path d="M352.02616,127.30482c0,-6.30859 0,-17.19724 0,-20.79571c0,-2.27428 3.20865,-4.90974 6.77204,-4.90974c10.96558,0 68.04303,0 88.06657,0c4.34983,0 6.95106,1.82769 6.95106,4.52932c0,6.36599 0,17.58435 0,21.17612c0,2.17739 -2.6729,4.65613 -7.13006,4.65613c-20.1347,0 -76.67978,0 -87.70858,0c-3.64676,0 -6.95106,-1.88676 -6.95106,-4.65613z" fill-opacity="0.62097" fill="#291800" stroke="#d84646" stroke-width="2"></path><g><text transform="translate(382.1995,121.26409) scale(0.40517,0.40517)" font-size="40" xml:space="preserve" fill="#ff7a7a" fill-rule="nonzero" stroke="none" stroke-width="1" stroke-linecap="butt" stroke-linejoin="miter" stroke-miterlimit="10" stroke-dasharray="" stroke-dashoffset="0" font-family="Serif" font-weight="normal" text-anchor="start" style="mix-blend-mode: normal"><tspan x="0" dy="0">God HP</tspan></text><path d="M372.88078,114.58466c0,1.98005 -1.00895,3.5852 -2.25355,3.5852c-1.2446,0 -2.25356,-1.60515 -2.25356,-3.5852c0,-1.98005 1.00895,-3.5852 2.25356,-3.5852c1.2446,0 2.25355,1.60515 2.25355,3.5852z" fill="url(#color-1)" stroke="none" stroke-width="0"></path><path d="M378.79253,114.96497c0,1.98005 -1.00896,3.5852 -2.25356,3.5852c-1.2446,0 -2.25355,-1.60515 -2.25355,-3.5852c0,-1.98005 1.00895,-3.5852 2.25355,-3.5852c1.2446,0 2.25356,1.60515 2.25356,3.5852z" fill="url(#color-2)" stroke="none" stroke-width="0"></path><path d="M380.05118,116.63335c0,4.46926 -2.18595,7.4777 -6.14605,7.4777c-3.9601,0 -6.76065,-2.59871 -6.76065,-7.06796c0,-4.46926 2.39082,-9.52638 6.35092,-9.52638c3.9601,0 6.55579,4.64739 6.55579,9.11665z" fill="url(#color-3)" stroke="#ff7a7a" stroke-width="1"></path></g></g></g></svg>