<svg version="1.1" xmlns="http://www.w3.org/2000/svg" xmlns:xlink="http://www.w3.org/1999/xlink" width="63.8411" height="45.93793" viewBox="0,0,63.8411,45.93793"><g transform="translate(-208.07945,-157.03104)"><g data-paper-data="{&quot;isPaintingLayer&quot;:true}" fill="#66e5ff" fill-rule="nonzero" stroke="none" stroke-width="0.5" stroke-linecap="butt" stroke-linejoin="miter" stroke-miterlimit="10" stroke-dasharray="" stroke-dashoffset="0" style="mix-blend-mode: normal"><path d="M214.21548,167.42642c1.05419,1.05419 0,2.10838 0,2.10838l-0.55489,0.4806c-0.05245,0.09154 -0.10532,0.18265 -0.15856,0.27339c0.35706,0.49989 0.71413,0.99978 1.07119,1.49967l0.42487,0.6359c0,0 0.82698,1.24047 -0.41349,2.06744c-1.24047,0.82698 -2.06744,-0.41349 -2.06744,-0.41349l-0.37025,-0.55678c-0.1164,-0.16296 -0.2328,-0.32592 -0.34921,-0.48889c-0.31313,0.50395 -0.62018,1.01365 -0.91123,1.53905c0,0 -0.72402,1.30324 -2.02726,0.57922c-1.30324,-0.72402 -0.57922,-2.02726 -0.57922,-2.02726c0.51956,-0.93275 1.08739,-1.81678 1.64914,-2.70699c-0.25465,-0.3565 -0.50929,-0.71301 -0.76394,-1.06951c0,0 -0.86654,-1.21315 0.34662,-2.0797c1.21315,-0.86654 2.0797,0.34662 2.0797,0.34662c0.04921,0.0689 0.09843,0.13779 0.14764,0.20669l0.36794,-0.39434c0,0 1.05419,-1.05419 2.10838,0z"></path><path d="M242.87893,163.5111c0,1.49085 -1.49085,1.49085 -1.49085,1.49085l-0.07287,-0.09493c-0.0795,0.02877 -0.15798,0.05852 -0.23549,0.0892c0.83929,1.5975 1.72962,3.17163 2.6055,4.74815l0.229,0.45485c0,0 0.66673,1.33346 -0.66673,2.00019c-1.33346,0.66673 -2.00019,-0.66673 -2.00019,-0.66673l-0.16856,-0.34027c-0.86576,-1.5584 -1.73821,-3.11349 -2.56574,-4.68861c-0.71608,0.54528 -1.40507,1.14793 -2.157,1.74948c0,0 -1.16416,0.93133 -2.09549,-0.23283c-0.93133,-1.16416 0.23283,-2.09549 0.23283,-2.09549c0.931,-0.74478 1.78292,-1.45948 2.67688,-2.09855c-0.74209,-1.56566 -1.4138,-3.16289 -1.96721,-4.81339c0,0 -0.47145,-1.41435 0.9429,-1.8858c1.41435,-0.47145 1.8858,0.9429 1.8858,0.9429c0.48265,1.45731 1.06862,2.87162 1.71762,4.25877c0.16904,-0.07423 0.34186,-0.14554 0.51895,-0.21374l1.11981,-0.09493c0,0 1.49085,0 1.49085,1.49085z"></path><path d="M262.53267,187.34184c1.41435,0.47145 0.9429,1.8858 0.9429,1.8858l-0.2172,0.64837c-0.37609,0.99941 -0.79821,1.94238 -1.2621,2.8639c0.10473,0.10861 0.21265,0.2182 0.32402,0.32916l0.43666,1.25297c0,0 0,1.49085 -1.49085,1.49085c-0.36561,0 -0.64156,-0.08966 -0.84983,-0.22501c-0.0194,0.03249 -0.03885,0.065 -0.05835,0.09753c0,0 -0.76704,1.27839 -2.04543,0.51136c-1.27839,-0.76704 -0.51136,-2.04543 -0.51136,-2.04543c0.20765,-0.34569 0.4095,-0.68811 0.60524,-1.02978c-0.80015,-1.05978 -1.4458,-2.17875 -2.07553,-3.54967c0,0 -0.61692,-1.35722 0.7403,-1.97414c1.35722,-0.61692 1.97414,0.7403 1.97414,0.7403c0.294,0.65478 0.58741,1.23078 0.90402,1.76365c0.1819,-0.41405 0.35446,-0.83696 0.51722,-1.27265l0.18036,-0.54432c0,0 0.47145,-1.41435 1.8858,-0.9429z"></path><path d="M245.42397,181.53981c1.05419,1.05419 0,2.10838 0,2.10838l-0.5405,0.45483c-0.32403,0.59388 -0.66246,1.1787 -0.99949,1.76342c0.38445,0.53392 0.79338,1.04008 1.21022,1.51045l0.51604,0.7511c0,0 0.82698,1.24047 -0.41349,2.06744c-1.24047,0.82698 -2.06744,-0.41349 -2.06744,-0.41349l-0.27908,-0.44158c-0.17504,-0.20219 -0.34715,-0.40761 -0.51588,-0.61615c-0.12943,0.26959 -0.25359,0.54201 -0.37109,0.81803c0,0 -0.58728,1.37031 -1.95758,0.78303c-1.37031,-0.58728 -0.78303,-1.95758 -0.78303,-1.95758c0.3586,-0.83186 0.76901,-1.63236 1.20102,-2.42138c-0.98678,-1.73132 -1.68419,-3.6096 -1.9105,-5.58933c0,0 -0.14835,-1.48345 1.33511,-1.6318c1.48345,-0.14835 1.6318,1.33511 1.6318,1.33511c0.07562,0.93953 0.32563,1.87535 0.69495,2.78075c0.03037,-0.0552 0.06065,-0.11047 0.09083,-0.16582l1.04974,-1.13541c0,0 1.05419,-1.05419 2.10838,0z"></path><path d="M229.40326,195.44433c0.66673,1.33346 -0.66673,2.00019 -0.66673,2.00019l-0.59531,0.27726c-0.30738,0.21896 -0.60474,0.4399 -0.8936,0.66468c0.3301,0.60266 0.65385,1.21038 0.96296,1.82859l0.15739,1.26307c0,0 0,1.49085 -1.49085,1.49085c-1.49085,0 -1.49085,-1.49085 -1.49085,-1.49085l0.15739,0.07039c-0.18832,-0.37665 -0.38177,-0.74947 -0.57859,-1.11967c-0.31601,0.32645 -0.62555,0.66711 -0.93162,1.02562c0,0 -0.97023,1.13194 -2.10217,0.1617c-1.13194,-0.97023 -0.1617,-2.10217 -0.1617,-2.10217c0.55182,-0.6415 1.11506,-1.23595 1.70168,-1.79735c-0.83476,-1.49915 -1.65422,-3.00359 -2.33761,-4.59635c0,0 -0.58728,-1.37031 0.78303,-1.95758c1.37031,-0.58728 1.95758,0.78303 1.95758,0.78303c0.56268,1.3145 1.22336,2.56821 1.90867,3.80943c0.20464,-0.1546 0.41292,-0.30769 0.62521,-0.4597l0.99493,-0.51786c0,0 1.33346,-0.66673 2.00019,0.66673z"></path><path d="M271.82433,165.22623c0.47145,1.41435 -0.9429,1.8858 -0.9429,1.8858l-0.0136,-0.16138c-0.58632,0.58589 -1.16786,1.14369 -1.73869,1.70389c0.03546,0.05025 0.07166,0.10097 0.10864,0.1522l0.74612,0.92911c0,0 0.93133,1.16416 -0.23283,2.09549c-1.16416,0.93133 -2.09549,-0.23283 -2.09549,-0.23283l-0.61088,-0.76617c-0.21604,0.2481 -0.42911,0.50282 -0.63884,0.76617c0,0 -0.93133,1.16416 -2.09549,0.23283c-1.16416,-0.93133 -0.23283,-2.09549 -0.23283,-2.09549c0.44008,-0.54784 0.89175,-1.06141 1.35289,-1.55649c-0.49051,-1.08474 -0.79792,-2.20452 -1.0592,-3.60646c0,0 -0.26669,-1.4668 1.20011,-1.7335c1.4668,-0.26669 1.7335,1.20011 1.7335,1.20011c0.1232,0.69812 0.25099,1.28807 0.41483,1.82945c0.34382,-0.33694 0.69067,-0.67732 1.03979,-1.0267l1.17908,-0.55893c0,0 1.41435,-0.47145 1.8858,0.9429z"></path></g></g></svg>