<svg version="1.1" xmlns="http://www.w3.org/2000/svg" xmlns:xlink="http://www.w3.org/1999/xlink" width="111.91593" height="84.64157" viewBox="0,0,111.91593,84.64157"><g transform="translate(-183.73863,-136.67926)"><g data-paper-data="{&quot;isPaintingLayer&quot;:true}" fill-rule="nonzero" stroke-linejoin="miter" stroke-miterlimit="10" stroke-dasharray="" stroke-dashoffset="0" style="mix-blend-mode: normal"><path d="M256.42779,160.46795c-0.51294,0.80147 -2.08381,0.71195 -3.50864,-0.19994c-1.42483,-0.91189 -2.16406,-2.30084 -1.65113,-3.10231c0.51294,-0.80147 2.08381,-0.71195 3.50864,0.19994c1.42483,0.91189 2.16406,2.30084 1.65113,3.10231z" fill="#959595" stroke="none" stroke-width="0" stroke-linecap="butt"></path><path d="M250.97633,158.81683c0,0.95155 -0.81424,1.72294 -1.81866,1.72294c-1.00442,0 -1.81866,-0.77139 -1.81866,-1.72294c0,-0.95155 0.81424,-1.72294 1.81866,-1.72294c1.00442,0 1.81866,0.77139 1.81866,1.72294z" fill="#959595" stroke="none" stroke-width="0" stroke-linecap="butt"></path><path d="M248.67908,158.72111c0,1.11015 -3.29982,2.0101 -7.37036,2.0101c-4.07054,0 -7.37036,-0.89995 -7.37036,-2.0101c0,-1.11015 3.29982,-2.0101 7.37036,-2.0101c4.07054,0 7.37036,0.89995 7.37036,2.0101z" fill="#959595" stroke="none" stroke-width="0" stroke-linecap="butt"></path><path d="M236.97006,160.72958c-0.48307,1.17318 -4.20334,0.7536 -8.30946,-0.93716c-4.10611,-1.69075 -7.04317,-4.01242 -6.5601,-5.1856c0.48307,-1.17318 4.20334,-0.7536 8.30946,0.93716c4.10611,1.69075 7.04317,4.01242 6.5601,5.1856z" fill="#959595" stroke="none" stroke-width="0" stroke-linecap="butt"></path><path d="M228.48609,159.59795c-0.59819,1.11887 -2.82157,1.09646 -4.96608,-0.05006c-2.1445,-1.14652 -3.39804,-2.98299 -2.79986,-4.10186c0.59819,-1.11887 2.82158,-1.09646 4.96608,0.05007c2.1445,1.14652 3.39804,2.98298 2.79985,4.10185z" fill="#959595" stroke="none" stroke-width="NaN" stroke-linecap="butt"></path><path d="M224.32419,156.74627c0.21701,1.25004 -1.54934,2.60058 -3.94526,3.01651c-2.39592,0.41593 -4.51411,-0.26026 -4.73112,-1.5103c-0.21701,-1.25004 1.54935,-2.60058 3.94527,-3.01651c2.39592,-0.41593 4.5141,0.26025 4.73111,1.5103z" fill="#959595" stroke="none" stroke-width="NaN" stroke-linecap="butt"></path><path d="M217.66613,157.85964c0,1.26874 -1.97132,2.29726 -4.40307,2.29726c-2.43175,0 -4.40307,-1.02852 -4.40307,-2.29726c0,-1.26874 1.97132,-2.29726 4.40307,-2.29726c2.43175,0 4.40307,1.02852 4.40307,2.29726z" fill="#959595" stroke="none" stroke-width="NaN" stroke-linecap="butt"></path><path d="M226.88922,220.23892v-49.01315h6.82461v49.01315z" fill="#8c8c8d" stroke="#000000" stroke-width="0" stroke-linecap="butt"></path><path d="M203.27663,189.4915v-35.11936h6.82462v35.11936z" fill="#8c8c8d" stroke="#000000" stroke-width="0" stroke-linecap="butt"></path><path d="M183.73866,221.32083v-5.51584h110.58727v5.51584z" fill="#757575" stroke="none" stroke-width="0.5" stroke-linecap="butt"></path><path d="M293.91806,175.60087v-3.02982h1.04879v3.02982z" fill="#b7b7b7" stroke="none" stroke-width="0.5" stroke-linecap="butt"></path><path d="M183.73863,219.77805v-80.90803h1.86451v80.90803z" fill="#686868" stroke="none" stroke-width="0.5" stroke-linecap="butt"></path><path d="M183.8833,140.8744v-4.19514h110.79222v4.19514z" fill="#686868" stroke="none" stroke-width="0.5" stroke-linecap="butt"></path><path d="M185.90488,157.8501v-3.47796h87.47916v3.47796z" fill="#8c8c8d" stroke="none" stroke-width="0" stroke-linecap="butt"></path><path d="M255.46516,171.64687v-16.84514h14.70409v16.84514z" fill="#8c8c8d" stroke="#000000" stroke-width="0" stroke-linecap="butt"></path><g><path d="M185.92857,162.26062l0.66538,-5.45962l5.45961,0.66539l-0.66539,5.45961z" fill="#b17e37" stroke="#784000" stroke-width="0.5" stroke-linecap="butt"></path><path d="M186.64731,158.0164l5.07464,0.51773" fill="none" stroke="#845a2a" stroke-width="0.15" stroke-linecap="round"></path><path d="M191.36864,160.60661l-4.95118,-0.70416" fill="none" stroke="#845a2a" stroke-width="0.15" stroke-linecap="round"></path><path d="M186.34734,161.30427l4.83981,0.79133" fill="none" stroke="#845a2a" stroke-width="0.15" stroke-linecap="round"></path></g><g data-paper-data="{&quot;index&quot;:null}"><path d="M191.59397,163.33149l-0.6654,-5.4596l5.45961,-0.6654l0.66538,5.45962z" fill="#b17e37" stroke="#784000" stroke-width="0.5" stroke-linecap="butt"></path><path d="M196.33482,158.42189l-5.07465,0.51774" fill="none" stroke="#845a2a" stroke-width="0.15" stroke-linecap="round"></path><path d="M191.61349,161.0121l4.95118,-0.70417" fill="none" stroke="#845a2a" stroke-width="0.15" stroke-linecap="round"></path><path d="M191.79498,162.50108l4.83981,-0.79133" fill="none" stroke="#845a2a" stroke-width="0.15" stroke-linecap="round"></path></g><g data-paper-data="{&quot;index&quot;:null}"><path d="M188.31242,157.59927l0.16176,-5.49762l5.49762,0.16176l-0.16177,5.49763z" fill="#b17e37" stroke="#784000" stroke-width="0.5" stroke-linecap="butt"></path><path d="M193.73659,153.45703l-5.09486,-0.24995" fill="none" stroke="#845a2a" stroke-width="0.15" stroke-linecap="round"></path><path d="M188.67992,155.30911l5.00078,0.0471" fill="none" stroke="#845a2a" stroke-width="0.15" stroke-linecap="round"></path><path d="M188.63582,156.80845l4.90375,-0.05579" fill="none" stroke="#845a2a" stroke-width="0.15" stroke-linecap="round"></path></g><path d="M283.71947,216.63109v-10.14621h9.95477v10.14621z" fill="#6e6e6e" stroke="none" stroke-width="0" stroke-linecap="butt"></path><path d="M222.85515,143.31035v-2.87157h12.25203v2.87157z" fill="#9b6743" stroke="none" stroke-width="0" stroke-linecap="butt"></path><path d="M222.66371,154.60519v-2.10582h13.01778v2.10582z" fill="#9b6743" stroke="none" stroke-width="0" stroke-linecap="butt"></path><path d="M192.81987,153.81504l3.11912,-13.22937l3.54025,0.83469l-3.11912,13.22937z" fill="#9b6743" stroke="none" stroke-width="0" stroke-linecap="butt"></path><path d="M285.25,155.83333v-1.33333h6.5v1.33333z" fill="#998036" stroke="none" stroke-width="0" stroke-linecap="butt"></path><path d="M284.91667,149.16667v-1h6.33333v1z" fill="#998036" stroke="none" stroke-width="0" stroke-linecap="butt"></path><path d="M285.08333,143.5v-0.83333h6v0.83333z" fill="#998036" stroke="none" stroke-width="0" stroke-linecap="butt"></path><path d="M290.25,157.33333v-15.5h0.83333v15.5z" fill="#998036" stroke="none" stroke-width="0" stroke-linecap="butt"></path><path d="M285.25,157.33334v-15.5h0.83333v15.5z" fill="#998036" stroke="none" stroke-width="0" stroke-linecap="butt"></path><path d="M293.16393,220.90067v-84.11628h2.49063v84.11628z" fill="#686868" stroke="none" stroke-width="0.5" stroke-linecap="butt"></path></g></g></svg>