<svg version="1.1" xmlns="http://www.w3.org/2000/svg" xmlns:xlink="http://www.w3.org/1999/xlink" width="111.81506" height="84.60305" viewBox="0,0,111.81506,84.60305"><defs><radialGradient cx="232.11595" cy="162.33747" r="3.23976" gradientUnits="userSpaceOnUse" id="color-1"><stop offset="0" stop-color="#c47f4e"></stop><stop offset="1" stop-color="#99693d"></stop></radialGradient><linearGradient x1="290.72723" y1="137.95398" x2="290.72723" y2="222.30152" gradientUnits="userSpaceOnUse" id="color-2"><stop offset="0" stop-color="#915e23"></stop><stop offset="1" stop-color="#916f23"></stop></linearGradient><linearGradient x1="231.98203" y1="170.80545" x2="235.73992" y2="173.47225" gradientUnits="userSpaceOnUse" id="color-3"><stop offset="0" stop-color="#d27a00"></stop><stop offset="1" stop-color="#8d3800"></stop></linearGradient><linearGradient x1="235.73113" y1="173.48131" x2="239.53674" y2="176.18198" gradientUnits="userSpaceOnUse" id="color-4"><stop offset="0" stop-color="#8d3800"></stop><stop offset="1" stop-color="#d27a00"></stop></linearGradient><linearGradient x1="237.27643" y1="178.94598" x2="237.27643" y2="179.63867" gradientUnits="userSpaceOnUse" id="color-5"><stop offset="0" stop-color="#e8d697"></stop><stop offset="1" stop-color="#d1ac88"></stop></linearGradient><linearGradient x1="240.35777" y1="178.98574" x2="240.35777" y2="179.67843" gradientUnits="userSpaceOnUse" id="color-6"><stop offset="0" stop-color="#e8d697"></stop><stop offset="1" stop-color="#d1ac88"></stop></linearGradient><linearGradient x1="237.23667" y1="181.11285" x2="237.23667" y2="181.80554" gradientUnits="userSpaceOnUse" id="color-7"><stop offset="0" stop-color="#e8d697"></stop><stop offset="1" stop-color="#d1ac88"></stop></linearGradient><linearGradient x1="240.31801" y1="181.15261" x2="240.31801" y2="181.8453" gradientUnits="userSpaceOnUse" id="color-8"><stop offset="0" stop-color="#e8d697"></stop><stop offset="1" stop-color="#d1ac88"></stop></linearGradient><linearGradient x1="237.568" y1="177.49477" x2="237.568" y2="178.18746" gradientUnits="userSpaceOnUse" id="color-9"><stop offset="0" stop-color="#e8d697"></stop><stop offset="1" stop-color="#d1ac88"></stop></linearGradient><linearGradient x1="240.64933" y1="177.53453" x2="240.64933" y2="178.22722" gradientUnits="userSpaceOnUse" id="color-10"><stop offset="0" stop-color="#e8d697"></stop><stop offset="1" stop-color="#d1ac88"></stop></linearGradient><linearGradient x1="228.88863" y1="155.50935" x2="232.77292" y2="160.72781" gradientUnits="userSpaceOnUse" id="color-11"><stop offset="0" stop-color="#9e7f4a"></stop><stop offset="1" stop-color="#d88e65"></stop></linearGradient><radialGradient cx="231.92921" cy="160.93805" r="3.69624" gradientUnits="userSpaceOnUse" id="color-12"><stop offset="0" stop-color="#3494cf"></stop><stop offset="1" stop-color="#34a1cf"></stop></radialGradient><radialGradient cx="197.92884" cy="159.72226" r="0.00028" gradientUnits="userSpaceOnUse" id="color-13"><stop offset="0" stop-color="#c47f4e"></stop><stop offset="1" stop-color="#99693d"></stop></radialGradient></defs><g transform="translate(-184.09247,-137.69848)"><g data-paper-data="{&quot;isPaintingLayer&quot;:true}" fill-rule="nonzero" stroke-linejoin="miter" stroke-miterlimit="10" stroke-dasharray="" stroke-dashoffset="0" style="mix-blend-mode: normal"><path d="" data-paper-data="{&quot;index&quot;:null}" fill="#000000" stroke="none" stroke-width="0.25" stroke-linecap="butt"></path><path d="" fill="#e6e6e6" stroke="#000000" stroke-width="0.25" stroke-linecap="butt"></path><path d="" fill="#d59866" stroke="none" stroke-width="0.25" stroke-linecap="butt"></path><path d="" fill="#ab7a52" stroke="none" stroke-width="0.25" stroke-linecap="butt"></path><path d="" fill="#ab7a52" stroke="none" stroke-width="0.25" stroke-linecap="butt"></path><path d="" fill="#e6ddbb" stroke="#e6ddbb" stroke-width="0.25" stroke-linecap="butt"></path><path d="M235.35572,162.33747c0,1.28702 -1.45049,2.33036 -3.23976,2.33036c-1.78927,0 -3.23976,-1.04334 -3.23976,-2.33036c0,-1.28702 1.45049,-2.33036 3.23976,-2.33036c1.78927,0 3.23976,1.04334 3.23976,2.33036z" fill="url(#color-1)" stroke="none" stroke-width="0.15" stroke-linecap="butt"></path><g data-paper-data="{&quot;index&quot;:null}"><text transform="translate(238.91427,185.01115) rotate(-125.63405) scale(0.01508,-0.01508)" font-size="40" xml:space="preserve" fill="#684700" fill-rule="nonzero" stroke="none" stroke-width="0.3" stroke-linecap="butt" stroke-linejoin="miter" stroke-miterlimit="10" stroke-dasharray="" stroke-dashoffset="0" font-family="Impact" font-weight="normal" text-anchor="start" style="mix-blend-mode: normal"><tspan x="0" dy="0">xAmt8</tspan></text><path d="M233.42422,182.38586c0,0 12.02241,-8.61801 13.12773,-9.41034c0.15978,-0.11453 0.59877,-0.48883 0.59877,-0.48883l1.73634,3.16707l-13.40204,9.60697z" fill="#684700" stroke="#000000" stroke-width="0.15" stroke-linecap="butt"></path><path d="M234.24753,183.61176l12.91724,-9.25945l5.70247,7.95513l-12.91724,9.25945z" fill="#906200" stroke="#001701" stroke-width="0.15" stroke-linecap="butt"></path><path d="M244.70546,176.38819l2.53618,0.92706l3.10808,4.50994l-0.07565,2.33139z" fill="#a0844f" stroke="none" stroke-width="0.15" stroke-linecap="butt"></path><path d="M248.19355,184.10366l-1.04698,0.7889" fill="none" stroke="#000000" stroke-width="0.15" stroke-linecap="round"></path><path d="M247.00059,174.27332l0.18818,-1.98305l5.7746,7.30724l-0.09093,2.86723z" fill="#906200" stroke="#000000" stroke-width="0.15" stroke-linecap="butt"></path><g stroke="none" stroke-width="0.15" stroke-linecap="butt"><path d="M243.27736,177.17737l0.18987,-0.13611l5.62674,7.84948l-0.18987,0.13611z" fill="#ab8d55"></path><path d="M244.45769,176.40593l0.18987,-0.13611l5.58604,7.79271l-0.18987,0.13611z" fill="#ab8d55"></path><path d="M243.69072,177.40759l1.0293,-0.73783l5.14417,7.17628l-1.0293,0.73783c0,0 -2.44776,-5.98434 -3.38727,-7.295c-0.7102,-0.99075 -1.75689,0.11872 -1.75689,0.11872z" fill="#805300"></path><path d="M243.27206,177.13845l1.33524,-0.89242l0.13125,0.42363l-1.06645,0.76447z" data-paper-data="{&quot;index&quot;:null}" fill="#563a00"></path><path d="M248.78556,184.604l1.06181,-0.76114l0.35854,0.2607l-1.26827,0.97385z" data-paper-data="{&quot;index&quot;:null}" fill="#563a00"></path></g><g stroke="none" stroke-width="0.15" stroke-linecap="butt"><path d="M239.77328,179.73911l0.18987,-0.13611l5.62674,7.84949l-0.18987,0.13611z" fill="#ab8d55"></path><path d="M240.95361,178.96767l0.18987,-0.13611l5.58604,7.79271l-0.18987,0.13611z" fill="#ab8d55"></path><path d="M240.18664,179.96933l1.0293,-0.73783l5.14417,7.17628l-1.0293,0.73783z" fill="#805300"></path><path d="M239.76798,179.70019l1.33524,-0.89242l0.13125,0.42363l-1.06646,0.76447z" data-paper-data="{&quot;index&quot;:null}" fill="#563a00"></path><path d="M245.28148,187.16573l1.06181,-0.76114l0.35854,0.2607l-1.26827,0.97385z" data-paper-data="{&quot;index&quot;:null}" fill="#563a00"></path></g><g stroke="none" stroke-width="0.15" stroke-linecap="butt"><path d="M236.29721,182.13104l0.18987,-0.13611l5.62674,7.84948l-0.18987,0.13611z" fill="#ab8d55"></path><path d="M237.47754,181.3596l0.18987,-0.13611l5.58604,7.79271l-0.18987,0.13611z" fill="#ab8d55"></path><path d="M236.71057,182.36126l1.0293,-0.73783l5.14416,7.17628l-1.0293,0.73783z" fill="#805300"></path><path d="M236.29191,182.09212l1.33524,-0.89242l0.13125,0.42363l-1.06646,0.76447z" data-paper-data="{&quot;index&quot;:null}" fill="#563a00"></path><path d="M241.80541,189.55766l1.06181,-0.76114l0.35855,0.2607l-1.26827,0.97385z" data-paper-data="{&quot;index&quot;:null}" fill="#563a00"></path></g><g stroke-linecap="butt"><path d="M248.91965,182.07017l2.16813,-1.55418l-0.51643,0.92051l-0.72366,0.49909z" fill="#ffffff" stroke="#000000" stroke-width="0.15"></path><path d="M248.47717,181.40834l2.1519,-1.54254l0.51767,0.72217l-2.1519,1.54254z" fill="#c34a4a" stroke="#000000" stroke-width="0.15"></path><text transform="translate(250.24398,180.50763) rotate(143.93081) scale(0.00929,-0.00929)" font-size="40" xml:space="preserve" fill="#000000" fill-rule="nonzero" stroke="none" stroke-width="0.3" stroke-linecap="butt" stroke-linejoin="miter" stroke-miterlimit="10" stroke-dasharray="" stroke-dashoffset="0" font-family="Monospace" font-weight="normal" text-anchor="start" style="mix-blend-mode: normal"><tspan x="0" dy="0">doors</tspan><tspan x="0" dy="46.150000000000006px">guide</tspan></text></g><path d="M245.91755,177.51296l2.3444,-0.10313l0.03461,0.78677l-2.3444,0.10313z" fill="#60a1fb" stroke="#000000" stroke-width="0.15" stroke-linecap="butt"></path><text transform="translate(247.59113,177.74053) rotate(177.04293) scale(0.00851,-0.00851)" font-size="40" xml:space="preserve" fill="#000000" fill-rule="nonzero" stroke="none" stroke-width="0.3" stroke-linecap="butt" stroke-linejoin="miter" stroke-miterlimit="10" stroke-dasharray="" stroke-dashoffset="0" font-family="Monospace" font-weight="normal" text-anchor="start" style="mix-blend-mode: normal"><tspan x="0" dy="0">doors</tspan><tspan x="0" dy="46.150000000000006px">guide</tspan></text><path d="M241.15877,178.85568l2.53618,0.92706l3.10808,4.50994l-0.07565,2.33139z" fill="#a0844f" stroke="none" stroke-width="0.15" stroke-linecap="butt"></path><path d="M246.25487,185.74283l1.78104,-1.2767l-0.42423,0.75617l-0.59446,0.40998z" fill="#ffffff" stroke="#000000" stroke-width="0.15" stroke-linecap="butt"></path><path d="M245.68083,185.1652l1.95122,-1.39869l0.4694,0.65482l-1.95122,1.39869z" fill="#ffde00" stroke="#000000" stroke-width="0.15" stroke-linecap="butt"></path><text transform="translate(247.61457,184.18383) rotate(143.9296) scale(0.00878,-0.00878)" font-size="40" xml:space="preserve" fill="#000000" fill-rule="nonzero" stroke="none" stroke-width="0.3" stroke-linecap="butt" stroke-linejoin="miter" stroke-miterlimit="10" stroke-dasharray="" stroke-dashoffset="0" font-family="Handwriting" font-weight="normal" text-anchor="start" style="mix-blend-mode: normal"><tspan x="0" dy="0">Blinds man</tspan><tspan x="0" dy="46.150000000000006px">autobiography</tspan></text><path d="M245.20636,184.4093l1.84328,-1.32132l-0.43906,0.78259l-0.61524,0.42431z" fill="#ffffff" stroke="#000000" stroke-width="0.15" stroke-linecap="butt"></path><path d="M244.78676,183.74764l1.82455,-1.30789l0.43892,0.61231l-1.82455,1.30789z" fill="#8a61ff" stroke="#000000" stroke-width="0.15" stroke-linecap="butt"></path><text transform="translate(246.27609,183.08242) rotate(143.92768) scale(0.00808,-0.00808)" font-size="40" xml:space="preserve" fill="#000000" fill-rule="nonzero" stroke="none" stroke-width="0.3" stroke-linecap="butt" stroke-linejoin="miter" stroke-miterlimit="10" stroke-dasharray="" stroke-dashoffset="0" font-family="Monospace" font-weight="normal" text-anchor="start" style="mix-blend-mode: normal"><tspan x="0" dy="0">doors</tspan><tspan x="0" dy="46.150000000000006px">guide</tspan></text><path d="M244.28197,183.15139l1.78693,-1.28093l-0.42564,0.75867l-0.59643,0.41134z" fill="#ffffff" stroke="#000000" stroke-width="0.15" stroke-linecap="butt"></path><path d="M243.82204,182.55781l1.82455,-1.30789l0.43892,0.61231l-1.82455,1.30789z" fill="#ff50f9" stroke="#000000" stroke-width="0.15" stroke-linecap="butt"></path><text transform="translate(245.32982,181.84372) rotate(143.92768) scale(0.00808,-0.00808)" font-size="40" xml:space="preserve" fill="#000000" fill-rule="nonzero" stroke="none" stroke-width="0.3" stroke-linecap="butt" stroke-linejoin="miter" stroke-miterlimit="10" stroke-dasharray="" stroke-dashoffset="0" font-family="Monospace" font-weight="normal" text-anchor="start" style="mix-blend-mode: normal"><tspan x="0" dy="0">doors</tspan><tspan x="0" dy="46.150000000000006px">guide</tspan></text><path d="M245.66318,181.2985l0.29865,-0.21408c0,0 -0.02807,0.11309 -0.00564,0.14438c0.01942,0.0271 0.1325,0.0326 0.1325,0.0326l-0.29865,0.21408z" fill="#e60000" stroke="none" stroke-width="0.15" stroke-linecap="butt"></path><g><path d="M242.64155,179.09497l1.40111,2.2148l-0.74328,0.47021l-1.40111,-2.2148z" fill="#c58e59" stroke="#000000" stroke-width="0.15" stroke-linecap="butt"></path><text transform="translate(243.43046,180.89248) rotate(-122.7635) scale(0.00919,-0.00919)" font-size="40" xml:space="preserve" fill="#000000" fill-rule="nonzero" stroke="none" stroke-width="0.3" stroke-linecap="butt" stroke-linejoin="miter" stroke-miterlimit="10" stroke-dasharray="" stroke-dashoffset="0" font-family="Monospace" font-weight="normal" text-anchor="start" style="mix-blend-mode: normal"><tspan x="0" dy="0">doors</tspan><tspan x="0" dy="46.150000000000006px">guide</tspan></text><path d="M242.67067,179.1152l0.56604,0.13268l0.88017,1.3891l-0.06277,0.70875z" fill="#ffffff" stroke="none" stroke-width="0.15" stroke-linecap="butt"></path><path d="M244.06714,180.78645l-0.94761,-1.54845" fill="none" stroke="#b5b5b5" stroke-width="0.15" stroke-linecap="round"></path><path d="M242.85455,179.22326l1.21375,1.89505" fill="none" stroke="#b5b5b5" stroke-width="0.15" stroke-linecap="round"></path></g><path d="M237.77475,181.3064l2.53618,0.92706l3.10808,4.50994l-0.07565,2.33139z" fill="#a0844f" stroke="none" stroke-width="0.15" stroke-linecap="butt"></path><path d="M241.73217,184.97943l1.7973,2.47185l-0.82954,0.60317l-1.7973,-2.47185z" fill="#00ffff" stroke="#000000" stroke-width="0.15" stroke-linecap="butt"></path><text transform="translate(242.65841,187.07802) rotate(-126.46206) scale(0.01072,-0.01072)" font-size="40" xml:space="preserve" fill="#000000" fill-rule="nonzero" stroke="none" stroke-width="0.3" stroke-linecap="butt" stroke-linejoin="miter" stroke-miterlimit="10" stroke-dasharray="" stroke-dashoffset="0" font-family="Monospace" font-weight="normal" text-anchor="start" style="mix-blend-mode: normal"><tspan x="0" dy="0">MR BEE</tspan><tspan x="0" dy="46.150000000000006px">LORE</tspan></text><path d="M241.72746,184.97963l0.66871,0.11176l1.1289,1.55022l-0.01967,0.8295z" fill="#ffffff" stroke="none" stroke-width="0.15" stroke-linecap="butt"></path><path d="M240.1089,183.60008l2.7276,0.54459l-0.18276,0.91537l-2.7276,-0.54459z" fill="#c34a4a" stroke="#000000" stroke-width="0.15" stroke-linecap="butt"></path><text transform="translate(242.07288,184.24561) rotate(-172.04423) scale(0.01072,-0.01072)" font-size="40" xml:space="preserve" fill="#000000" fill-rule="nonzero" stroke="none" stroke-width="0.3" stroke-linecap="butt" stroke-linejoin="miter" stroke-miterlimit="10" stroke-dasharray="" stroke-dashoffset="0" font-family="Monospace" font-weight="normal" text-anchor="start" style="mix-blend-mode: normal"><tspan x="0" dy="0">doors</tspan><tspan x="0" dy="46.150000000000006px">guide</tspan></text><path d="M238.51801,182.3761l1.34555,-1.95058l-0.15518,0.92465l-0.45501,0.63462z" fill="#ffffff" stroke="#000000" stroke-width="0.15" stroke-linecap="butt"></path><path d="M237.88395,181.94499l1.33548,-1.93598l0.64971,0.44818l-1.33548,1.93598z" fill="#0035c5" stroke="#000000" stroke-width="0.15" stroke-linecap="butt"></path><text transform="translate(239.16813,180.52865) rotate(124.16104) scale(0.00825,-0.00825)" font-size="40" xml:space="preserve" fill="#ffffff" fill-rule="nonzero" stroke="none" stroke-width="0.3" stroke-linecap="butt" stroke-linejoin="miter" stroke-miterlimit="10" stroke-dasharray="" stroke-dashoffset="0" font-family="Sans Serif" font-weight="normal" text-anchor="start" style="mix-blend-mode: normal"><tspan x="0" dy="0">"vending</tspan><tspan x="0" dy="46.150000000000006px">machine"</tspan></text><path d="M244.40954,186.08903l-0.89843,0.53707" fill="none" stroke="#000000" stroke-width="0.15" stroke-linecap="round"></path><path d="M251.67789,180.86104l-1.33899,0.942" fill="none" stroke="#000000" stroke-width="0.15" stroke-linecap="round"></path><path d="M248.09092,180.98866l2.16813,-1.55418l-0.51644,0.92051l-0.72366,0.49909z" fill="#ffffff" stroke="#000000" stroke-width="0.15" stroke-linecap="butt"></path><path d="M247.64844,180.32684l2.1519,-1.54254l0.51767,0.72217l-2.1519,1.54254z" fill="#ffad00" stroke="#000000" stroke-width="0.15" stroke-linecap="butt"></path><text transform="translate(249.41525,179.42612) rotate(143.93081) scale(0.00929,-0.00929)" font-size="40" xml:space="preserve" fill="#000000" fill-rule="nonzero" stroke="none" stroke-width="0.3" stroke-linecap="butt" stroke-linejoin="miter" stroke-miterlimit="10" stroke-dasharray="" stroke-dashoffset="0" font-family="Monospace" font-weight="normal" text-anchor="start" style="mix-blend-mode: normal"><tspan x="0" dy="0">doors</tspan><tspan x="0" dy="46.150000000000006px">guide</tspan></text><path d="M247.28241,179.91049l2.16813,-1.55418l-0.51644,0.92051l-0.72366,0.49909z" fill="#ffffff" stroke="#000000" stroke-width="0.15" stroke-linecap="butt"></path><path d="M246.83993,179.24866l2.1519,-1.54254l0.51767,0.72217l-2.1519,1.54254z" fill="#00b118" stroke="#000000" stroke-width="0.15" stroke-linecap="butt"></path><text transform="translate(248.60673,178.34795) rotate(143.93081) scale(0.00929,-0.00929)" font-size="40" xml:space="preserve" fill="#000000" fill-rule="nonzero" stroke="none" stroke-width="0.3" stroke-linecap="butt" stroke-linejoin="miter" stroke-miterlimit="10" stroke-dasharray="" stroke-dashoffset="0" font-family="Monospace" font-weight="normal" text-anchor="start" style="mix-blend-mode: normal"><tspan x="0" dy="0">doors</tspan><tspan x="0" dy="46.150000000000006px">guide</tspan></text><path d="M247.02004,179.13759l0.16485,-0.11817l0.51487,0.71826l-0.16485,0.11817z" fill="#da7f00" stroke="none" stroke-width="0.15" stroke-linecap="butt"></path><path d="M241.20421,181.59848l-0.93496,0.64525" fill="none" stroke="#000000" stroke-width="0.15" stroke-linecap="round"></path><path d="M244.49807,178.8131l-0.98908,0.709" fill="none" stroke="#000000" stroke-width="0.15" stroke-linecap="round"></path><path d="M247.24996,177.35108l1.25537,-0.89988" fill="none" stroke="#000000" stroke-width="0.15" stroke-linecap="round"></path></g><g stroke="#dda86a" stroke-width="0.15"><g><path d="M240.66395,176.27334l0.32594,-5.64969l5.50845,0.31779l-0.32594,5.64969z" fill="#bb794b" stroke-linecap="butt"></path><path d="M240.77395,170.68205l5.19473,5.75562" fill="none" stroke-linecap="round"></path><path d="M246.26203,171.35295l-5.53153,4.99509" fill="none" stroke-linecap="round"></path><path d="M241.77623,175.41638l0.21594,-3.74292l3.60168,0.20779l-0.21594,3.74292z" fill="none" stroke-linecap="butt"></path></g><g><path d="M243.39217,171.15793l0.32594,-5.64969l5.50845,0.31779l-0.32594,5.64969z" fill="#bb794b" stroke-linecap="butt"></path><path d="M243.50218,165.56664l5.19473,5.75562" fill="none" stroke-linecap="round"></path><path d="M243.45872,171.23262l5.53153,-4.99509" fill="none" stroke-linecap="round"></path><path d="M244.50446,170.30097l0.21594,-3.74292l3.60168,0.20779l-0.21594,3.74292z" fill="none" stroke-linecap="butt"></path></g></g><path d="M288.76472,222.30152c0,0 -2.42558,-4.79181 -2.07745,-17.00678c0.20178,-7.08002 3.26111,-21.2485 3.26111,-26.48491c0,-3.11843 -1.64752,-8.77818 -1.27632,-12.59226c0.27713,-2.84747 2.62248,-3.74258 2.52736,-6.7699c-0.34259,-10.90316 -2.4347,-21.49367 -2.4347,-21.49367h6.03664v84.34753z" fill="url(#color-2)" stroke="none" stroke-width="0.15" stroke-linecap="butt"></path><path d="M185.34709,220.73203v-82.98342h6.1385v82.98342z" fill="#9b6425" stroke="none" stroke-width="0.15" stroke-linecap="butt"></path><path d="M185.24833,221.05241v-10.55734h110.6592v10.55734z" fill="#6a55ba" stroke="none" stroke-width="0.15" stroke-linecap="butt"></path><path d="M185.1069,154.02999v-16.33151h109.91537v16.33151z" fill="#5453b0" stroke="none" stroke-width="0.15" stroke-linecap="butt"></path><path d="M191.18916,172.13604l-5.93114,-0.00981c-0.05818,-0.32314 -0.16331,-0.64295 -0.19855,-0.96943c-0.07512,-0.69594 0.07308,-1.40443 -0.00597,-2.09993c-0.09273,-0.81591 -0.60727,-1.70348 -0.66566,-2.50452c-0.03721,-0.51048 0.6257,-1.46283 0.79338,-1.95519c0,0 0.06927,-0.20782 0.10031,-0.51595l5.92094,0.00979z" data-paper-data="{&quot;index&quot;:null}" fill="#000000" stroke="none" stroke-width="0.15" stroke-linecap="butt"></path><path d="M190.3306,172.36046l-1.19629,-0.00198l0.00071,-0.42725l1.19629,0.00198z" fill="#e6e6e6" stroke="#000000" stroke-width="0.15" stroke-linecap="butt"></path><path d="M191.17545,180.4257l-6.74952,-0.01116c0.14315,-0.91578 -0.07348,-1.84339 -0.33346,-2.77188c0.08368,-0.61032 0.18529,-1.21732 0.26665,-1.80532c0.15607,-1.12783 0.90505,-2.05847 0.93812,-3.26567c0.00184,-0.06722 -0.00052,-0.13411 -0.00609,-0.20076l5.8976,0.00975z" fill="#8e6544" stroke="none" stroke-width="0.15" stroke-linecap="butt"></path><path d="M189.84946,179.74602l-4.06486,-0.00672l0.01078,-6.52072l4.06486,0.00672z" fill="none" stroke="#513a27" stroke-width="0.15" stroke-linecap="butt"></path><path d="M184.29215,177.53503c0.21826,0.00036 0.39426,0.56937 0.39309,1.27092c-0.00081,0.49123 -0.08827,0.91718 -0.21556,1.12831c0.02208,-0.74481 -0.15565,-1.49612 -0.36507,-2.24812c0.0559,-0.09651 0.11977,-0.15123 0.18754,-0.15111z" fill="#dadada" stroke="none" stroke-width="0.15" stroke-linecap="butt"></path><path d="M184.53132,179.33276c0.03191,0.14496 0.00724,0.29034 -0.06016,0.41658c-0.00287,-0.21759 -0.02155,-0.43569 -0.05189,-0.65416c0.05353,0.06856 0.09248,0.14867 0.11205,0.23757z" fill="#fff4ce" stroke="#e6ddbb" stroke-width="0.15" stroke-linecap="butt"></path><path d="M184.4494,178.49565l-0.09207,0.22827c-0.01862,-0.09661 -0.03905,-0.19328 -0.06094,-0.28999z" fill="#e6ddbb" stroke="none" stroke-width="0.15" stroke-linecap="butt"></path><path d="M184.54863,178.72285c-0.01822,0.01255 -0.10319,-0.00655 -0.1979,-0.03276c-0.02637,-0.13382 -0.05613,-0.26773 -0.08832,-0.40173c0.04427,0.01178 0.08865,0.02866 0.13296,0.05123c0.12831,0.06535 0.40524,0.20968 0.15326,0.38325z" fill="#fff4ce" stroke="none" stroke-width="0.15" stroke-linecap="butt"></path><g stroke="#000000" stroke-width="0.15" stroke-linecap="butt"><path d="M199.77972,141.15628l4.77103,-3.27239l3.27239,4.77103l-4.77103,3.27239z" fill="#9966ff"></path><path d="M198.28108,149.1997l4.77103,-3.27239l3.27239,4.77103l-4.77103,3.27239z" fill="#9966ff"></path><path d="M203.13002,146.0409l4.77103,-3.27239l3.27239,4.77103l-4.77103,3.27239z" fill="#000000"></path><path d="M194.97301,144.62018l4.77103,-3.27239l3.27239,4.77103l-4.77103,3.27239z" fill="#000000"></path></g><g stroke="#000000" stroke-width="0.15" stroke-linecap="butt"><path d="M267.28999,142.91184l3.57689,-2.16983l2.16983,3.57689l-3.57689,2.16983z" fill="#9966ff"></path><path d="M265.88294,148.65857l3.57689,-2.16983l2.16983,3.57689l-3.57689,2.16983z" fill="#9966ff"></path><path d="M269.51149,146.57389l3.57689,-2.16983l2.16983,3.57689l-3.57689,2.16983z" fill="#000000"></path><path d="M263.6796,145.21851l3.57689,-2.16983l2.16983,3.57689l-3.57689,2.16983z" fill="#000000"></path></g><g stroke="#000000" stroke-width="0.15" stroke-linecap="butt"><path d="M240.95865,149.95511l-3.11054,-2.79765l2.79765,-3.11054l3.11054,2.79765z" fill="#9966ff"></path><path d="M246.86684,149.64223l-3.11054,-2.79765l2.79765,-3.11054l3.11054,2.79765z" fill="#9966ff"></path><path d="M243.82292,146.77052l-3.11054,-2.79765l2.79765,-3.11054l3.11054,2.79765z" fill="#000000"></path><path d="M244.20987,152.74532l-3.11054,-2.79765l2.79765,-3.11054l3.11054,2.79765z" fill="#000000"></path></g><g stroke="#000000" stroke-width="0.15" stroke-linecap="butt"><path d="M289.7758,150.92034l-2.94006,-2.9763l2.9763,-2.94006l2.94006,2.9763z" fill="#9966ff"></path><path d="M292.75209,147.98028l2.30315,-2.2751c-0.05198,0.16105 -0.09861,0.32368 -0.13728,0.48865c-0.12425,0.52995 0.0986,1.09899 -0.00712,1.63294c-0.04655,0.23509 -0.19214,0.44501 -0.22735,0.68206c-0.06771,0.45585 0.00359,0.9551 0.00852,1.43528z" fill="#9966ff"></path><path d="M292.82296,147.91028l-2.94006,-2.9763l2.9763,-2.94006l2.60143,2.6335c-0.14268,0.35703 -0.28776,0.71334 -0.40539,1.07776z" fill="#000000"></path><path d="M292.85672,153.8975l-2.94006,-2.9763l2.9763,-2.94006l1.79576,1.81789c0.01269,0.37899 -0.00274,0.75011 -0.14528,1.08323l0.31546,1.03744z" fill="#000000"></path></g><g stroke="#000000" stroke-width="0.15" stroke-linecap="butt"><path d="M210.91172,216.5115l-0.76103,-4.11377l4.11377,-0.76103l0.76103,4.11377z" fill="#9966ff"></path><path d="M215.78652,219.86425l-0.76103,-4.11377l4.11378,-0.76103l0.76103,4.11377z" fill="#9966ff"></path><path d="M215.12344,215.73235l-0.76103,-4.11377l4.11377,-0.76103l0.76103,4.11378z" fill="#000000"></path><path d="M211.78882,220.70511l-0.76103,-4.11378l4.11377,-0.76103l0.76103,4.11377z" fill="#000000"></path></g><g stroke="#000000" stroke-width="0.15" stroke-linecap="butt"><path d="M262.68238,219.46075l-2.08836,2.70045l-2.70045,-2.08835l2.08836,-2.70045z" fill="#9966ff"></path><path d="M262.07028,214.67195l-2.08835,2.70045l-2.70045,-2.08836l2.08836,-2.70045z" fill="#9966ff"></path><path d="M259.91763,217.32267l-2.08835,2.70045l-2.70045,-2.08836l2.08836,-2.70045z" fill="#000000"></path><path d="M264.75616,216.64629l-2.08836,2.70045l-2.70045,-2.08836l2.08836,-2.70045z" fill="#000000"></path></g><g stroke="#000000" stroke-width="0.15" stroke-linecap="butt"><path d="M286.17743,219.02131l1.00098,2.25847c-1.54401,-0.18287 -3.07802,-0.49664 -4.63108,-0.56288c-0.06527,-0.00278 -0.13039,-0.00264 -0.19537,-0.00009z" fill="#9966ff"></path><path d="" fill="#9966ff"></path><path d="M290.82174,216.96289l-4.64431,2.05842l-2.05842,-4.64431l4.64431,-2.05842z" fill="#9966ff"></path><path d="M286.12842,218.91073l-4.16644,1.84663c-0.17554,0.02781 -0.35051,0.06599 -0.52548,0.10439l-2.01082,-4.53691l4.64431,-2.05842z" fill="#000000"></path><path d="M286.23899,218.86172l4.64431,-2.05842l2.01208,4.53974c-1.41234,0.06723 -2.82608,0.11607 -4.24924,0.05895c-0.4441,-0.01782 -0.88663,-0.05613 -1.32827,-0.10606z" fill="#000000"></path></g><g><text transform="translate(234.82885,171.72721) rotate(35.36158) scale(0.02758,0.02758)" font-size="40" xml:space="preserve" fill="#ffffff" fill-rule="nonzero" stroke="none" stroke-width="0.3" stroke-linecap="butt" stroke-linejoin="miter" stroke-miterlimit="10" stroke-dasharray="" stroke-dashoffset="0" font-family="Sans Serif" font-weight="normal" text-anchor="start" style="mix-blend-mode: normal"><tspan x="0" dy="0">xAmt8</tspan></text><path d="M228.80572,175.28131l6.35263,-8.95172l3.75788,2.6668l-6.35263,8.95172z" fill="url(#color-3)" stroke="none" stroke-width="0.15" stroke-linecap="butt"></path><path d="M232.55482,177.95717l6.35263,-8.95172l3.80561,2.70066l-6.35263,8.95172z" fill="url(#color-4)" stroke="none" stroke-width="0.15" stroke-linecap="butt"></path><path d="M228.65785,175.31518l6.46838,-9.11484c0,0 2.2078,1.56678 3.4121,2.42141c1.35489,0.9615 4.31881,3.06486 4.31881,3.06486l-6.46838,9.11484z" fill="none" stroke="#652800" stroke-width="0.15" stroke-linecap="butt"></path><path d="M238.94166,169.26676l-6.38449,8.74384" fill="none" stroke="#652800" stroke-width="0.15" stroke-linecap="round"></path><path d="M234.3358,169.08364l1.15144,-1.62254l1.86115,1.32077l-1.15144,1.62254z" fill="none" stroke="#7b3100" stroke-width="0.15" stroke-linecap="butt"></path><path d="M232.24907,171.99512l1.15144,-1.62254l1.86115,1.32077l-1.15144,1.62254z" fill="none" stroke="#7b3100" stroke-width="0.15" stroke-linecap="butt"></path><path d="M230.24008,174.7465l1.15144,-1.62254l1.86115,1.32077l-1.15144,1.62254z" fill="none" stroke="#7b3100" stroke-width="0.15" stroke-linecap="butt"></path><path d="M234.26551,177.6902l1.15144,-1.62254l1.86115,1.32077l-1.15144,1.62254z" fill="none" stroke="#7b3100" stroke-width="0.15" stroke-linecap="butt"></path><path d="M236.34518,174.86077l1.15144,-1.62254l1.86115,1.32077l-1.15144,1.62254z" fill="none" stroke="#7b3100" stroke-width="0.15" stroke-linecap="butt"></path><path d="M238.45282,171.94884l1.15144,-1.62254l1.86115,1.32077l-1.15144,1.62254z" fill="none" stroke="#7b3100" stroke-width="0.15" stroke-linecap="butt"></path><path d="M235.01308,165.90479l0.50799,-0.71582c0,0 2.98042,1.07462 4.28493,2.00037c1.40776,0.99902 3.87548,3.79069 3.87548,3.79069l-0.50799,0.71582z" fill="#652800" stroke="#311300" stroke-width="0.15" stroke-linecap="butt"></path><g stroke-width="0.15" stroke-linecap="butt"><path d="M236.41561,174.44013c-0.1519,-0.1743 -0.11961,-0.45105 0.07212,-0.61814c0.19173,-0.16709 0.4703,-0.16124 0.6222,0.01306c0.1519,0.1743 0.11961,0.45105 -0.07212,0.61814c-0.19173,0.16709 -0.4703,0.16124 -0.6222,-0.01306z" fill="#fff4ce" stroke="#e6ddbb"></path><path d="M236.67671,174.32321c-0.09437,-0.10829 -0.07431,-0.28022 0.0448,-0.38402c0.11911,-0.1038 0.29217,-0.10017 0.38654,0.00811c0.09437,0.10829 0.07431,0.28022 -0.0448,0.38402c-0.11911,0.1038 -0.29217,0.10017 -0.38654,-0.00811z" fill="#e6ddbb" stroke="#e6ddbb"></path><path d="M236.09764,173.73176l0.34104,0.08851l-0.08851,0.34104l-0.34104,-0.08851z" fill="#e6ddbb" stroke="none"></path><path d="M236.08961,174.21281c-0.18852,0.06463 -0.15675,-0.13627 -0.14123,-0.22877c0.02422,-0.14434 0.10972,-0.24435 0.22234,-0.31305l-0.00785,-0.009l0.05313,-0.0463v0c0.02533,-0.02207 0.06376,-0.01943 0.08583,0.0059c0.01596,0.01831 0.019,0.04346 0.0099,0.06433l-0.02948,0.07164l-0.00231,-0.00095l-0.00055,0.00695c-0.00377,0.00546 -0.00755,0.01093 -0.01132,0.01639c0.00283,0.0106 0.00273,0.02177 -0.00022,0.03226c0.00211,0.01536 -0.00167,0.03128 -0.0111,0.04419l-0.03902,0.05594c-0.01945,0.03954 -0.0974,0.28993 -0.12813,0.30047z" fill="#fff4ce" stroke="none"></path></g><g data-paper-data="{&quot;index&quot;:null}" stroke-width="0.15" stroke-linecap="butt"><path d="M234.67346,172.77532c0.09443,-0.23614 0.345,-0.35799 0.55968,-0.27214c0.21467,0.08584 0.31216,0.34686 0.21773,0.58301c-0.09443,0.23614 -0.345,0.35799 -0.55968,0.27214c-0.21468,-0.08584 -0.31216,-0.34686 -0.21773,-0.58301z" fill="#fff4ce" stroke="#e6ddbb"></path><path d="M234.7801,172.71107c0.05866,-0.14671 0.21433,-0.2224 0.3477,-0.16907c0.13337,0.05333 0.19393,0.21549 0.13527,0.36219c-0.05866,0.14671 -0.21433,0.2224 -0.3477,0.16907c-0.13337,-0.05333 -0.19393,-0.21549 -0.13527,-0.36219z" fill="#e6ddbb" stroke="#e6ddbb"></path><path d="M235.37212,173.62074l-0.19613,-0.2927l0.2927,-0.19613l0.19613,0.2927z" fill="#e6ddbb" stroke="none"></path><path d="M235.2134,173.591c-0.0002,-0.03249 0.21042,-0.18873 0.24132,-0.22014l0.03993,-0.0553c0.00907,-0.01316 0.02286,-0.02199 0.03805,-0.02506c0.00893,-0.00625 0.01944,-0.01003 0.03038,-0.01085c0.00391,-0.00537 0.00782,-0.01073 0.01173,-0.01609l0.00638,-0.00282l-0.00166,-0.00187l0.05789,-0.05147c0.0167,-0.01548 0.04144,-0.02091 0.06399,-0.0119c0.0312,0.01247 0.04638,0.04788 0.0339,0.07907v0l-0.02616,0.06543l-0.01109,-0.00443c-0.02768,0.12899 -0.09385,0.24271 -0.2221,0.31322c-0.08219,0.04519 -0.26134,0.14151 -0.26257,-0.05779z" fill="#fff4ce" stroke="none"></path></g><path d="M226.27049,176.69497l2.3195,-1.60056l8.16451,5.79398l-0.7001,2.74978z" fill-opacity="0.45161" fill="#000000" stroke="none" stroke-width="0.15" stroke-linecap="butt"></path></g><g><text transform="translate(237.24475,183.13904) scale(0.02458,0.02458)" font-size="40" xml:space="preserve" fill="#cc9b39" fill-rule="nonzero" stroke="none" stroke-width="0.3" stroke-linecap="butt" stroke-linejoin="miter" stroke-miterlimit="10" stroke-dasharray="" stroke-dashoffset="0" font-family="Monospace" font-weight="normal" text-anchor="start" style="mix-blend-mode: normal"><tspan x="0" dy="0">xAmt8</tspan></text><path d="M241.4662,177.72036l-0.50676,-2.64619l0.84842,-0.00886l-0.20167,4.37117z" fill="#4e3b16" stroke="none" stroke-width="0.15" stroke-linecap="butt"></path><path d="M236.01258,183.23236l-0.3411,-7.62795l0.57108,-0.02554l0.3411,7.62795z" fill="#4e3b16" stroke="none" stroke-width="0.15" stroke-linecap="butt"></path><path d="M236.08283,183.22598v-7.51308h5.54939v7.51308z" fill="#946000" stroke="none" stroke-width="0.15" stroke-linecap="butt"></path><path d="M236.04176,175.81498v-0.76401h5.56492v0.76401z" fill="#ab8d55" stroke="none" stroke-width="0.15" stroke-linecap="butt"></path><path d="M235.66911,175.57855l0.06649,-0.54903l0.38796,0.02174l-0.0086,0.81738z" fill="#ab8d55" stroke="none" stroke-width="0.15" stroke-linecap="butt"></path><g fill="#000000" stroke-width="0.15"><g stroke="none" stroke-linecap="butt"><path d="M236.28286,178.14507v-0.27495h4.95443v0.27495z"></path><path d="M236.28757,176.48701v-0.27495h4.91859v0.27495z"></path><path d="M236.27614,178.08615l0.02573,-1.82338l0.20581,0.15918v1.49054z" data-paper-data="{&quot;index&quot;:null}"></path><path d="M236.48824,177.90753v-1.49054h4.52951v1.49054z"></path><path d="M241.01606,177.91495v-1.49054l0.20581,-0.15918l0.02573,1.82338z" data-paper-data="{&quot;index&quot;:null}"></path></g><g><path d="M236.952,177.30666v-0.31496c0,0 0.1786,-0.19272 0.2654,-0.19272c0.10086,0 0.30395,0.19272 0.30395,0.19272v0.31496c0,0 -0.19729,0.18501 -0.29624,0.18501c-0.08998,0 -0.27311,-0.18501 -0.27311,-0.18501z" stroke="none" stroke-linecap="butt"></path><path d="M237.49491,177.00882l-0.27334,0.14036l-0.25856,-0.16253" stroke="#d3af89" stroke-linecap="round"></path><path d="M237.10135,177.29275v-0.14671c0,0 0.08319,-0.08977 0.12363,-0.08977c0.04698,0 0.14158,0.08977 0.14158,0.08977v0.14671c0,0 -0.0919,0.08618 -0.13799,0.08618c-0.04191,0 -0.12722,-0.08618 -0.12722,-0.08618z" stroke="none" stroke-linecap="butt"></path></g><g><path d="M240.03333,177.34642v-0.31496c0,0 0.1786,-0.19272 0.2654,-0.19272c0.10086,0 0.30395,0.19272 0.30395,0.19272v0.31496c0,0 -0.19729,0.18501 -0.29624,0.18501c-0.08998,0 -0.27311,-0.18501 -0.27311,-0.18501z" stroke="none" stroke-linecap="butt"></path><path d="M240.57625,177.04858l-0.27334,0.14036l-0.25856,-0.16253" stroke="#d3af89" stroke-linecap="round"></path><path d="M240.18269,177.33251v-0.14671c0,0 0.08319,-0.08977 0.12363,-0.08977c0.04698,0 0.14158,0.08977 0.14158,0.08977v0.14671c0,0 -0.0919,0.08618 -0.13799,0.08618c-0.04191,0 -0.12722,-0.08618 -0.12722,-0.08618z" stroke="none" stroke-linecap="butt"></path></g></g><g stroke-width="0.15"><g stroke="none" stroke-linecap="butt"><path d="M236.32262,180.29207v-0.27495h4.95443v0.27495z" fill="#ab8d55"></path><path d="M236.32733,178.63401v-0.27495h4.91859v0.27495z" fill="#ab8d55"></path><path d="M236.3159,180.23314l0.02573,-1.82338l0.20581,0.15918v1.49054z" data-paper-data="{&quot;index&quot;:null}" fill="#563a00"></path><path d="M236.528,180.05452v-1.49054h4.52951v1.49054z" fill="#805300"></path><path d="M241.05581,180.06195v-1.49054l0.20581,-0.15918l0.02573,1.82338z" data-paper-data="{&quot;index&quot;:null}" fill="#563a00"></path></g><g><path d="M236.99176,179.45366v-0.31496c0,0 0.1786,-0.19272 0.2654,-0.19272c0.10086,0 0.30395,0.19272 0.30395,0.19272v0.31496c0,0 -0.19729,0.18501 -0.29624,0.18501c-0.08998,0 -0.27311,-0.18501 -0.27311,-0.18501z" fill="url(#color-5)" stroke="none" stroke-linecap="butt"></path><path d="M237.53467,179.15582l-0.27334,0.14036l-0.25856,-0.16253" fill="none" stroke="#d3af89" stroke-linecap="round"></path><path d="M237.14111,179.43974v-0.14671c0,0 0.08319,-0.08977 0.12363,-0.08977c0.04698,0 0.14158,0.08977 0.14158,0.08977v0.14671c0,0 -0.0919,0.08618 -0.13799,0.08618c-0.04191,0 -0.12722,-0.08618 -0.12722,-0.08618z" fill="#fff4ce" stroke="none" stroke-linecap="butt"></path></g><g><path d="M240.07309,179.49342v-0.31496c0,0 0.1786,-0.19272 0.2654,-0.19272c0.10086,0 0.30395,0.19272 0.30395,0.19272v0.31496c0,0 -0.19729,0.18501 -0.29624,0.18501c-0.08998,0 -0.27311,-0.18501 -0.27311,-0.18501z" fill="url(#color-6)" stroke="none" stroke-linecap="butt"></path><path d="M240.61601,179.19558l-0.27334,0.14036l-0.25856,-0.16253" fill="none" stroke="#d3af89" stroke-linecap="round"></path><path d="M240.22245,179.4795v-0.14671c0,0 0.08319,-0.08977 0.12363,-0.08977c0.04698,0 0.14158,0.08977 0.14158,0.08977v0.14671c0,0 -0.0919,0.08618 -0.13799,0.08618c-0.04191,0 -0.12722,-0.08618 -0.12722,-0.08618z" fill="#fff4ce" stroke="none" stroke-linecap="butt"></path></g></g><g stroke-width="0.15"><g stroke="none" stroke-linecap="butt"><path d="M236.28286,182.45894v-0.27495h4.95443v0.27495z" fill="#ab8d55"></path><path d="M236.28757,180.80088v-0.27495h4.91859v0.27495z" fill="#ab8d55"></path><path d="M236.27614,182.40002l0.02573,-1.82338l0.20581,0.15918v1.49054z" data-paper-data="{&quot;index&quot;:null}" fill="#563a00"></path><path d="M236.48824,182.22139v-1.49054h4.52951v1.49054z" fill="#805300"></path><path d="M241.01606,182.22882v-1.49054l0.20581,-0.15918l0.02573,1.82338z" data-paper-data="{&quot;index&quot;:null}" fill="#563a00"></path></g><g><path d="M236.952,181.62053v-0.31496c0,0 0.1786,-0.19272 0.2654,-0.19272c0.10086,0 0.30395,0.19272 0.30395,0.19272v0.31496c0,0 -0.19729,0.18501 -0.29624,0.18501c-0.08998,0 -0.27311,-0.18501 -0.27311,-0.18501z" fill="url(#color-7)" stroke="none" stroke-linecap="butt"></path><path d="M237.49491,181.32269l-0.27334,0.14036l-0.25856,-0.16253" fill="none" stroke="#d3af89" stroke-linecap="round"></path><path d="M237.10135,181.60662v-0.14671c0,0 0.08319,-0.08977 0.12363,-0.08977c0.04698,0 0.14158,0.08977 0.14158,0.08977v0.14671c0,0 -0.0919,0.08618 -0.13799,0.08618c-0.04191,0 -0.12722,-0.08618 -0.12722,-0.08618z" fill="#fff4ce" stroke="none" stroke-linecap="butt"></path></g><g><path d="M240.03333,181.66029v-0.31496c0,0 0.1786,-0.19272 0.2654,-0.19272c0.10086,0 0.30395,0.19272 0.30395,0.19272v0.31496c0,0 -0.19729,0.18501 -0.29624,0.18501c-0.08998,0 -0.27311,-0.18501 -0.27311,-0.18501z" fill="url(#color-8)" stroke="none" stroke-linecap="butt"></path><path d="M240.57625,181.36245l-0.27334,0.14036l-0.25856,-0.16253" fill="none" stroke="#d3af89" stroke-linecap="round"></path><path d="M240.18269,181.64638v-0.14671c0,0 0.08319,-0.08977 0.12363,-0.08977c0.04698,0 0.14158,0.08977 0.14158,0.08977v0.14671c0,0 -0.0919,0.08618 -0.13799,0.08618c-0.04191,0 -0.12722,-0.08618 -0.12722,-0.08618z" fill="#fff4ce" stroke="none" stroke-linecap="butt"></path></g></g><path d="M236.10167,184.48927v-1.3253l0.91115,0.03313c0,0 -0.33882,0.28121 -0.40361,0.46169c-0.08452,0.23545 -0.06025,0.83048 -0.06025,0.83048z" fill="#ad7000" stroke="none" stroke-width="0.15" stroke-linecap="butt"></path><path d="M235.95257,184.63836v-0.23193h0.74548v0.23193z" fill="#c68d23" stroke="none" stroke-width="0.15" stroke-linecap="butt"></path><path d="M240.98873,184.50583c0,0 0.02428,-0.59503 -0.06025,-0.83048c-0.06479,-0.18049 -0.40361,-0.4617 -0.40361,-0.4617l0.91115,-0.03313v1.3253z" data-paper-data="{&quot;index&quot;:null}" fill="#ad7000" stroke="none" stroke-width="0.15" stroke-linecap="butt"></path><path d="M240.83964,184.65493v-0.23193h0.74548v0.23193z" data-paper-data="{&quot;index&quot;:null}" fill="#c68d23" stroke="none" stroke-width="0.15" stroke-linecap="butt"></path><g stroke-width="0.15"><g stroke="none" stroke-linecap="butt"><path d="M236.61419,178.84086v-0.27495h4.95443v0.27495z" fill="#ab8d55"></path><path d="M236.61889,177.1828v-0.27495h4.91859v0.27495z" fill="#ab8d55"></path><path d="M236.60747,178.78193l0.02573,-1.82338l0.20581,0.15918v1.49054z" data-paper-data="{&quot;index&quot;:null}" fill="#563a00"></path><path d="M236.81957,178.60331v-1.49054h4.52951v1.49054z" fill="#805300"></path><path d="M241.34738,178.61074v-1.49054l0.20581,-0.15918l0.02573,1.82338z" data-paper-data="{&quot;index&quot;:null}" fill="#563a00"></path></g><g><path d="M237.28332,178.00245v-0.31496c0,0 0.1786,-0.19272 0.2654,-0.19272c0.10086,0 0.30395,0.19272 0.30395,0.19272v0.31496c0,0 -0.19729,0.18501 -0.29624,0.18501c-0.08998,0 -0.27311,-0.18501 -0.27311,-0.18501z" fill="url(#color-9)" stroke="none" stroke-linecap="butt"></path><path d="M237.82624,177.7046l-0.27334,0.14036l-0.25856,-0.16253" fill="none" stroke="#d3af89" stroke-linecap="round"></path><path d="M237.43268,177.98854v-0.14671c0,0 0.08319,-0.08977 0.12363,-0.08977c0.04698,0 0.14158,0.08977 0.14158,0.08977v0.14671c0,0 -0.0919,0.08618 -0.13799,0.08618c-0.04191,0 -0.12722,-0.08618 -0.12722,-0.08618z" fill="#fff4ce" stroke="none" stroke-linecap="butt"></path></g><g><path d="M240.36466,178.04221v-0.31496c0,0 0.1786,-0.19272 0.2654,-0.19272c0.10086,0 0.30395,0.19272 0.30395,0.19272v0.31496c0,0 -0.19729,0.18501 -0.29624,0.18501c-0.08998,0 -0.27311,-0.18501 -0.27311,-0.18501z" fill="url(#color-10)" stroke="none" stroke-linecap="butt"></path><path d="M240.90757,177.74436l-0.27334,0.14036l-0.25856,-0.16253" fill="none" stroke="#d3af89" stroke-linecap="round"></path><path d="M240.51402,178.02829v-0.14671c0,0 0.08319,-0.08977 0.12363,-0.08977c0.04698,0 0.14158,0.08977 0.14158,0.08977v0.14671c0,0 -0.0919,0.08618 -0.13799,0.08618c-0.04191,0 -0.12722,-0.08618 -0.12722,-0.08618z" fill="#fff4ce" stroke="none" stroke-linecap="butt"></path></g></g></g><g stroke-width="0.15"><path d="M232.77292,160.72781c-0.26899,0.20022 -1.35658,-0.80566 -2.4292,-2.2467c-1.07262,-1.44104 -1.72408,-2.77154 -1.45509,-2.97176c0.26899,-0.20022 1.35658,0.80566 2.4292,2.2467c1.07262,1.44104 1.72408,2.77154 1.45509,2.97176z" fill="url(#color-11)" stroke="none" stroke-linecap="butt"></path><path d="M224.09002,160.16241l4.23971,-4.70398l4.60373,5.78882l-5.87725,2.90017z" fill="url(#color-12)" stroke="#000000" stroke-linecap="butt"></path><path d="M228.10906,155.42609l0.47441,-0.35312l4.66115,6.26215l-0.47441,0.35312z" fill="#cea234" stroke="none" stroke-linecap="butt"></path><path d="M230.70672,157.18943c0,0 2.68509,-1.58507 3.68893,-2.24832c0.72108,-0.47643 1.77163,-1.35956 1.77163,-1.35956l0.46903,3.21526c0,0 -0.14643,-1.71515 -0.78225,-1.88957c-1.02824,-0.28208 -1.93091,0.93676 -2.53542,1.33617c-0.80986,0.53509 -2.1881,1.58748 -2.1881,1.58748z" fill="#8c5800" stroke="none" stroke-linecap="butt"></path><path d="M227.16467,156.91191c0,0 -0.08054,-0.02376 -0.05005,-0.07426c0.06158,-0.10201 0.39738,-0.50108 0.39738,-0.50108l1.73236,0.61701l-0.19359,0.58379z" fill="#d5d5d5" stroke="none" stroke-linecap="butt"></path><path d="M228.60649,156.96689l0.61479,-0.01792l0.0579,1.98625l-0.61479,0.01792z" data-paper-data="{&quot;index&quot;:null}" fill="#d5d5d5" stroke="none" stroke-linecap="butt"></path><path d="M228.69081,158.99524l0.19359,-0.58379l1.8861,0.62546l-0.19359,0.58379z" fill="#d5d5d5" stroke="none" stroke-linecap="butt"></path><path d="M230.17197,159.07008l0.61479,-0.01792l0.0579,1.98626l-0.61479,0.01792z" data-paper-data="{&quot;index&quot;:null}" fill="#d5d5d5" stroke="none" stroke-linecap="butt"></path><path d="M230.28469,161.09697l0.19359,-0.58379l2.07811,0.94946l-0.38561,0.25979z" data-paper-data="{&quot;index&quot;:null}" fill="#d5d5d5" stroke="none" stroke-linecap="butt"></path><path d="M225.9934,158.07863l0.3786,-0.50032l1.74045,0.56185l-0.19359,0.58379z" fill="#d5d5d5" stroke="none" stroke-linecap="butt"></path><path d="M227.48634,158.16928l0.61479,-0.01792l0.0579,1.98625l-0.61479,0.01792z" data-paper-data="{&quot;index&quot;:null}" fill="#d5d5d5" stroke="none" stroke-linecap="butt"></path><path d="M227.57066,160.19764l0.19359,-0.58379l1.8861,0.62546l-0.19359,0.58379z" fill="#d5d5d5" stroke="none" stroke-linecap="butt"></path><path d="M229.05182,160.27248l0.61479,-0.01792l0.0579,1.98626l-0.61479,0.01792z" data-paper-data="{&quot;index&quot;:null}" fill="#d5d5d5" stroke="none" stroke-linecap="butt"></path><path d="M229.15024,162.28016l0.18435,-0.59621l1.53906,0.60736c-0.10208,0.07873 -0.28,0.10339 -0.37258,0.19854c-0.00931,0.00651 -0.07123,-0.02457 -0.08041,-0.01774c-0.07474,0.05563 -0.14075,0.11878 -0.19781,0.18776z" data-paper-data="{&quot;index&quot;:null}" fill="#d5d5d5" stroke="none" stroke-linecap="butt"></path><path d="M224.50882,159.74887l0.44589,-0.57499l1.77576,0.60929l-0.19359,0.58379z" fill="#d5d5d5" stroke="none" stroke-linecap="butt"></path><path d="M226.0926,159.79648l0.61479,-0.01792l0.0579,1.98625l-0.61479,0.01792z" data-paper-data="{&quot;index&quot;:null}" fill="#d5d5d5" stroke="none" stroke-linecap="butt"></path><path d="M226.17692,161.82484l0.19359,-0.58379l1.8861,0.62546l-0.19359,0.58379z" fill="#d5d5d5" stroke="none" stroke-linecap="butt"></path><path d="M227.65808,161.89968l0.62207,-0.00815l0.13648,1.65177c-0.10139,0.00821 -0.22504,0.09762 -0.32214,0.13262c-0.10376,0.03739 -0.14396,0.07137 -0.23664,0.14036c-0.00554,0.00412 -0.11208,-0.09446 -0.11752,-0.09026z" data-paper-data="{&quot;index&quot;:null}" fill="#d5d5d5" stroke="none" stroke-linecap="butt"></path><path d="M227.91577,163.67409c0.1255,-0.06523 0.26711,-0.16113 0.40231,-0.1783l-0.26393,0.09964z" data-paper-data="{&quot;index&quot;:null}" fill="#ffffff" stroke="none" stroke-linecap="butt"></path><path d="M232.75864,160.84376l-0.13524,0.01641l-0.05799,0.14849l-0.36097,-0.17366" fill="none" stroke="#000000" stroke-linecap="round"></path><path d="M232.36301,160.90653l-0.02079,0.14186" fill="none" stroke="#000000" stroke-linecap="round"></path><g stroke="none" stroke-linecap="butt"><path d="M232.38611,154.96624c0,0 0.08863,-0.45421 0.21089,-0.58912c0.12922,-0.14258 0.54472,-0.24464 0.54472,-0.24464l1.10036,0.89654l-0.70976,0.87112z" data-paper-data="{&quot;index&quot;:null}" fill="#b68555"></path><path d="M233.10293,154.86373l0.07471,-0.0917l0.75191,0.61264l-0.07471,0.0917z" fill="#cd9d5e"></path><path d="M232.6945,155.20225l0.6724,-0.82527l0.07706,0.06279l-0.67241,0.82527z" fill="#cd9d5e"></path><path d="M232.53611,154.41716l0.05977,-0.07336l0.5135,0.41838l-0.05977,0.07336z" fill="#cd9d5e"></path></g><g data-paper-data="{&quot;index&quot;:null}" stroke="none" stroke-linecap="butt"><path d="M232.03503,156.85856l1.03816,-0.42992l0.54306,1.31136c0,0 -0.217,0.36874 -0.39067,0.4516c-0.16432,0.07841 -0.62486,0.03296 -0.62486,0.03296z" data-paper-data="{&quot;index&quot;:null}" fill="#b68555"></path><path d="M232.53354,156.67121l0.10928,-0.04526l0.37109,0.89609l-0.10928,0.04525z" fill="#cd9d5e"></path><path d="M232.4251,157.76957l0.98352,-0.4073l0.03804,0.09184l-0.98352,0.4073z" fill="#cd9d5e"></path><path d="M232.91633,157.62647l0.08742,-0.0362l0.25343,0.61197l-0.08742,0.0362z" fill="#cd9d5e"></path></g></g><path d="M210.46069,181.03716z" fill="url(#color-13)" stroke="none" stroke-width="0.15" stroke-linecap="butt"></path><path d="M223.73942,191.55397v-37.48706h29.61163v37.48706z" fill-opacity="0.00939" fill="#6b3bcc" stroke="none" stroke-width="0" stroke-linecap="butt"></path></g></g></svg>