<svg version="1.1" xmlns="http://www.w3.org/2000/svg" xmlns:xlink="http://www.w3.org/1999/xlink" width="28.37297" height="29" viewBox="0,0,28.37297,29"><defs><radialGradient cx="238.81351" cy="180" r="14.5" gradientUnits="userSpaceOnUse" id="color-1"><stop offset="0" stop-color="#66edff"></stop><stop offset="1" stop-color="#66edff" stop-opacity="0"></stop></radialGradient><linearGradient x1="239.07705" y1="178.0818" x2="239.90432" y2="179.95116" gradientUnits="userSpaceOnUse" id="color-2"><stop offset="0" stop-color="#e4d0a2"></stop><stop offset="1" stop-color="#80745b"></stop></linearGradient><linearGradient x1="236.7851" y1="173.3711" x2="239.20033" y2="178.82872" gradientUnits="userSpaceOnUse" id="color-3"><stop offset="0" stop-color="#e4d0a2"></stop><stop offset="1" stop-color="#80745b"></stop></linearGradient><linearGradient x1="241.35492" y1="176.63755" x2="241.77865" y2="177.59503" gradientUnits="userSpaceOnUse" id="color-4"><stop offset="0" stop-color="#e4d0a2"></stop><stop offset="1" stop-color="#80745b"></stop></linearGradient><linearGradient x1="240.34919" y1="178.09779" x2="240.86662" y2="179.26703" gradientUnits="userSpaceOnUse" id="color-5"><stop offset="0" stop-color="#e4d0a2"></stop><stop offset="1" stop-color="#80745b"></stop></linearGradient><linearGradient x1="241.52151" y1="176.93536" x2="241.77612" y2="177.5107" gradientUnits="userSpaceOnUse" id="color-6"><stop offset="0" stop-color="#e4d0a2"></stop><stop offset="1" stop-color="#80745b"></stop></linearGradient><linearGradient x1="241.35912" y1="177.67172" x2="241.44223" y2="177.85953" gradientUnits="userSpaceOnUse" id="color-7"><stop offset="0" stop-color="#e4d0a2"></stop><stop offset="1" stop-color="#80745b"></stop></linearGradient><linearGradient x1="240.30233" y1="179.6164" x2="240.7654" y2="180.6628" gradientUnits="userSpaceOnUse" id="color-8"><stop offset="0" stop-color="#e4d0a2"></stop><stop offset="1" stop-color="#80745b"></stop></linearGradient><linearGradient x1="240.71658" y1="180.49972" x2="240.79968" y2="180.68752" gradientUnits="userSpaceOnUse" id="color-9"><stop offset="0" stop-color="#e4d0a2"></stop><stop offset="1" stop-color="#80745b"></stop></linearGradient><radialGradient cx="235.68311" cy="175.66617" r="3.83449" gradientUnits="userSpaceOnUse" id="color-10"><stop offset="0" stop-color="#ffffff"></stop><stop offset="1" stop-color="#ffe9b6"></stop></radialGradient><linearGradient x1="240.6803" y1="184.81229" x2="241.88223" y2="184.28038" gradientUnits="userSpaceOnUse" id="color-11"><stop offset="0" stop-color="#80745b"></stop><stop offset="1" stop-color="#e4d0a2"></stop></linearGradient><radialGradient cx="239.12703" cy="179.82562" r="8.81757" gradientUnits="userSpaceOnUse" id="color-12"><stop offset="0" stop-color="#00ffeb" stop-opacity="0.48382"></stop><stop offset="1" stop-color="#00ffeb" stop-opacity="0"></stop></radialGradient></defs><g transform="translate(-224.62703,-165.5)"><g data-paper-data="{&quot;isPaintingLayer&quot;:true}" fill-rule="nonzero" stroke-linejoin="miter" stroke-miterlimit="10" stroke-dasharray="" stroke-dashoffset="0" style="mix-blend-mode: normal"><path d="M253,180c0,8.00813 -6.35151,14.5 -14.18649,14.5c-7.83498,0 -14.18649,-6.49187 -14.18649,-14.5c0,-8.00813 6.35151,-14.5 14.18649,-14.5c7.83498,0 14.18649,6.49187 14.18649,14.5z" fill="url(#color-1)" stroke="none" stroke-width="NaN" stroke-linecap="butt"></path><g><text transform="translate(234.47931,178.84675) rotate(-24.63841) scale(0.0518,0.0518)" font-size="40" xml:space="preserve" fill="#ffffff" fill-rule="nonzero" stroke="none" stroke-width="1" stroke-linecap="butt" stroke-linejoin="miter" stroke-miterlimit="10" stroke-dasharray="" stroke-dashoffset="0" font-family="Sans Serif" font-weight="normal" text-anchor="start" style="mix-blend-mode: normal"><tspan x="0" dy="0">xAMT8</tspan></text><g><path d="M241.57821,186.63828l-2.3437,-5.296l1.08925,-0.48204l2.3437,5.296c0,0 -0.25931,0.69867 -0.46,0.78748c-0.12387,0.05482 -0.62925,-0.30544 -0.62925,-0.30544z" fill="#80745b" stroke="#fff4dc" stroke-width="0" stroke-linecap="butt"></path><g><path d="M239.17482,180.274l-1.73916,-1.46581l3.32314,-1.36158l-0.37312,2.23701z" fill="url(#color-2)" stroke="none" stroke-width="0" stroke-linecap="butt"></path><path d="M236.30104,179.20125c0,0 -1.11281,-0.21095 -1.36957,-0.55614c-0.14824,-0.1993 0.05881,-0.7319 -0.08333,-1.12929c-0.26176,-0.73182 -0.8355,-1.39112 -0.8355,-1.39112c0,0 1.61845,-2.24289 2.71782,-2.72941c1.17527,-0.52011 4.12131,-0.2972 4.12131,-0.2972c0,0 0.23632,1.44086 0.61093,2.34698c0.11064,0.26763 0.6079,0.32286 0.6474,0.48733c0.08795,0.3662 -0.2877,1.20708 -0.2877,1.20708c0,0 -0.25174,0.61696 -0.57575,0.78216c-0.58485,0.29819 -1.64673,0.01856 -2.48174,0.29006c-0.63957,0.20796 -1.10251,0.99042 -1.37788,1.09324c-0.28162,0.10516 -1.08599,-0.1037 -1.08599,-0.1037z" fill="url(#color-3)" stroke="none" stroke-width="NaN" stroke-linecap="butt"></path><path d="M242.15282,176.28445l-1.17207,1.66368" fill="url(#color-4)" stroke="#ffffff" stroke-width="1" stroke-linecap="round"></path><path d="M240.36553,179.48878l0.48476,-1.61275" fill="url(#color-5)" stroke="#ffffff" stroke-width="1" stroke-linecap="round"></path><path d="M242.00406,176.72181l-0.71047,1.00243" fill="url(#color-6)" stroke="#ffffff" stroke-width="1" stroke-linecap="round"></path><path d="M241.1162,177.82494l0.56894,-0.11861" fill="url(#color-7)" stroke="#ffffff" stroke-width="1" stroke-linecap="round"></path><path d="M240.5131,180.54406l-0.35925,-0.86194l0.31551,-0.13963l0.38603,0.87229c0,0 -0.04988,0.23426 -0.11205,0.25773c-0.04851,0.01832 -0.23023,-0.12845 -0.23023,-0.12845z" fill="url(#color-8)" stroke="#e4d0a2" stroke-width="0.5" stroke-linecap="butt"></path><path d="M240.66423,180.63518c-0.02295,-0.05186 0.00049,-0.11251 0.05234,-0.13546c0.05186,-0.02295 0.11251,0.00049 0.13546,0.05234c0.02295,0.05186 -0.00049,0.11251 -0.05234,0.13546c-0.05186,0.02295 -0.11251,-0.00049 -0.13546,-0.05234z" fill="url(#color-9)" stroke="none" stroke-width="0.5" stroke-linecap="butt"></path></g><path d="M238.79355,180.72345l-1.73916,-1.46581l3.32314,-1.36158l-0.37312,2.23701z" fill="#ffe9b6" stroke="none" stroke-width="0" stroke-linecap="butt"></path><path d="M235.91977,179.6507c0,0 -1.11281,-0.21095 -1.36957,-0.55614c-0.14824,-0.1993 0.05881,-0.7319 -0.08333,-1.12929c-0.26176,-0.73182 -0.8355,-1.39112 -0.8355,-1.39112c0,0 1.61845,-2.24289 2.71782,-2.72941c1.17527,-0.52011 4.12131,-0.2972 4.12131,-0.2972c0,0 0.23632,1.44086 0.61093,2.34698c0.11064,0.26763 0.6079,0.32286 0.6474,0.48733c0.08795,0.3662 -0.2877,1.20708 -0.2877,1.20708c0,0 -0.25174,0.61696 -0.57575,0.78216c-0.58485,0.29819 -1.64673,0.01856 -2.48174,0.29006c-0.63957,0.20796 -1.10251,0.99042 -1.37788,1.09324c-0.28162,0.10516 -1.08599,-0.1037 -1.08599,-0.1037z" fill="url(#color-10)" stroke="none" stroke-width="NaN" stroke-linecap="butt"></path><path d="M238.21253,173.61989l-0.01728,1.31621l-0.6226,-0.05162" fill="none" stroke="#e4d0a2" stroke-width="1" stroke-linecap="round"></path><path d="M238.10406,174.97646l0.4604,0.17792" fill="none" stroke="#e4d0a2" stroke-width="1" stroke-linecap="round"></path><path d="M235.90345,179.06077c0,0 -0.25928,-0.35597 -0.35401,-0.57005c-0.10324,-0.23329 -0.24212,-0.77702 -0.24212,-0.77702c0,0 0.15755,-0.85216 0.36474,-0.94384c0.28235,-0.12495 1.17477,0.26255 1.17477,0.26255c0,0 0.31027,0.38911 0.40502,0.6032c0.10324,0.23329 0.19112,0.74388 0.19112,0.74388c0,0 -0.53626,0.72543 -0.82005,0.85102c-0.19692,0.08714 -0.71946,-0.16972 -0.71946,-0.16972z" fill="#80745b" stroke="#e4d0a2" stroke-width="1" stroke-linecap="butt"></path><path d="M237.28682,179.53644l-1.6959,-0.01282" fill="none" stroke="#ffffff" stroke-width="1" stroke-linecap="round"></path><path d="M238.56467,179.23918l-0.22025,-0.49768c0,0 -0.16653,-1.1376 -0.05722,-1.18597c0.14249,-0.06305 0.8393,0.83987 0.8393,0.83987l0.22025,0.49768c0,0 -0.59878,-0.60022 -0.74016,-0.53766c-0.11281,0.04992 -0.04191,0.88376 -0.04191,0.88376z" fill="#80745b" stroke="#e4d0a2" stroke-width="0.5" stroke-linecap="butt"></path><path d="M240.40574,177.59182c-0.28379,0.12559 -1.18132,0.03467 -1.18132,0.03467c0,0 -0.31881,-0.40839 -0.42205,-0.64168c-0.09474,-0.21408 -0.17409,-0.70539 -0.17409,-0.70539c0,0 0.31332,-0.92109 0.59567,-1.04604c0.20719,-0.09169 0.94384,0.36474 0.94384,0.36474c0,0 0.30904,0.46843 0.41228,0.70172c0.09474,0.21408 0.18385,0.64535 0.18385,0.64535c0,0 -0.16127,0.55948 -0.35819,0.64663z" data-paper-data="{&quot;index&quot;:null}" fill="#80745b" stroke="#e4d0a2" stroke-width="1" stroke-linecap="butt"></path><path d="M239.98426,179.93823l0.48476,-1.61275" fill="none" stroke="#ffffff" stroke-width="1" stroke-linecap="round"></path><path d="M239.97786,180.07424l-1.27025,0.53995l-1.64892,-1.068" fill="none" stroke="#ffffff" stroke-width="1" stroke-linecap="round"></path><path d="M237.0605,179.70073l-0.97053,-0.03657" fill="none" stroke="#ffffff" stroke-width="1" stroke-linecap="round"></path><path d="M240.91232,178.1737l0.71047,-1.00243" fill="none" stroke="#ffffff" stroke-width="1" stroke-linecap="round"></path><path d="M241.30388,178.15578l-0.56894,0.11861" fill="none" stroke="#ffffff" stroke-width="1" stroke-linecap="round"></path><path d="M238.9762,181.47186l-0.35925,-0.86194l0.31551,-0.13963l0.38603,0.87229c0,0 -0.04988,0.23426 -0.11205,0.25773c-0.04851,0.01832 -0.23023,-0.12845 -0.23023,-0.12845z" fill="#ffe9b6" stroke="#e4d0a2" stroke-width="0.5" stroke-linecap="butt"></path><path d="M239.4079,181.29184l-0.35925,-0.86194l0.31551,-0.13963l0.38603,0.87229c0,0 -0.04988,0.23426 -0.11205,0.25773c-0.04851,0.01832 -0.23023,-0.12845 -0.23023,-0.12845z" fill="#ffe9b6" stroke="#e4d0a2" stroke-width="0.5" stroke-linecap="butt"></path><path d="M239.76898,181.1616l-0.35925,-0.86194l0.31551,-0.13963l0.38603,0.87229c0,0 -0.04988,0.23426 -0.11205,0.25773c-0.04851,0.01832 -0.23023,-0.12845 -0.23023,-0.12845z" fill="#ffe9b6" stroke="#e4d0a2" stroke-width="0.5" stroke-linecap="butt"></path><path d="M240.13184,180.99351l-0.35925,-0.86194l0.31551,-0.13963l0.38603,0.87229c0,0 -0.04988,0.23426 -0.11205,0.25773c-0.04851,0.01832 -0.23023,-0.12845 -0.23023,-0.12845z" fill="#ffe9b6" stroke="#e4d0a2" stroke-width="0.5" stroke-linecap="butt"></path><path d="M239.22326,181.53506l-0.12397,0.05486" fill="none" stroke="#ffffff" stroke-width="0.5" stroke-linecap="round"></path><path d="M239.30167,181.50036c0.04156,0.0939 -0.05234,0.13546 -0.05234,0.13546l-0.12397,0.05486c0,0 -0.0939,0.04156 -0.13546,-0.05234c-0.04156,-0.0939 0.05234,-0.13546 0.05234,-0.13546l0.12397,-0.05486c0,0 0.0939,-0.04156 0.13546,0.05234z" fill="#ffffff" stroke="none" stroke-width="0.5" stroke-linecap="butt"></path><path d="M239.56327,181.38459c-0.02295,-0.05186 0.00049,-0.11251 0.05234,-0.13546c0.05186,-0.02295 0.11251,0.00049 0.13546,0.05234c0.02295,0.05186 -0.00049,0.11251 -0.05234,0.13546c-0.05186,0.02295 -0.11251,-0.00049 -0.13546,-0.05234z" fill="#ffffff" stroke="none" stroke-width="0.5" stroke-linecap="butt"></path><path d="M239.91968,181.22686c-0.02295,-0.05186 0.00049,-0.11251 0.05234,-0.13546c0.05186,-0.02295 0.11251,0.00049 0.13546,0.05234c0.02295,0.05186 -0.00049,0.11251 -0.05234,0.13546c-0.05186,0.02295 -0.11251,-0.00049 -0.13546,-0.05234z" fill="#ffffff" stroke="none" stroke-width="0.5" stroke-linecap="butt"></path><path d="M240.28296,181.08463c-0.02295,-0.05186 0.00049,-0.11251 0.05234,-0.13546c0.05186,-0.02295 0.11251,0.00049 0.13546,0.05234c0.02295,0.05186 -0.00049,0.11251 -0.05234,0.13546c-0.05186,0.02295 -0.11251,-0.00049 -0.13546,-0.05234z" fill="#ffffff" stroke="none" stroke-width="0.5" stroke-linecap="butt"></path><path d="M240.30282,180.91442l2.4022,5.2252" fill="none" stroke="#fff4dc" stroke-width="1" stroke-linecap="round"></path><path d="M240.80496,185.09399l-0.24933,-0.5634l1.20193,-0.5319l0.24933,0.5634z" fill="url(#color-11)" stroke="none" stroke-width="0" stroke-linecap="butt"></path><path d="M242.16816,185.43397l-0.31582,-0.71364c0,0 0.46492,0.01884 0.64652,-0.06153c0.27739,-0.12276 0.8559,-0.60335 0.8559,-0.60335l0.31582,0.71364c0,0 -0.6935,0.0374 -0.96362,0.15694c-0.22056,0.09761 -0.53879,0.50794 -0.53879,0.50794z" fill="#80745b" stroke="none" stroke-width="0" stroke-linecap="butt"></path><path d="M243.43226,185.14404l-0.51528,-1.16437l0.5634,-0.24933l0.51528,1.16437z" fill="#80745b" stroke="none" stroke-width="0" stroke-linecap="butt"></path><path d="M243.84974,184.86945l-0.4611,-1.14343" fill="none" stroke="#fff4dc" stroke-width="1" stroke-linecap="round"></path><path d="M241.93655,186.83903l0.5049,-0.17852" fill="none" stroke="#fff4dc" stroke-width="1" stroke-linecap="round"></path></g></g><path d="M232.46486,188.64319v-17.63514h13.32432v17.63514z" fill="url(#color-12)" stroke="none" stroke-width="0" stroke-linecap="butt"></path></g></g></svg>