<svg version="1.1" xmlns="http://www.w3.org/2000/svg" xmlns:xlink="http://www.w3.org/1999/xlink" width="77.90677" height="57.48079" viewBox="0,0,77.90677,57.48079"><defs><radialGradient cx="240" cy="180" r="1.12112" gradientUnits="userSpaceOnUse" id="color-1"><stop offset="0" stop-color="#000000" stop-opacity="0.68838"></stop><stop offset="1" stop-color="#000000"></stop></radialGradient></defs><g transform="translate(-199.94095,-152.47429)"><g data-paper-data="{&quot;isPaintingLayer&quot;:true}" fill-rule="nonzero" stroke-linecap="butt" stroke-linejoin="miter" stroke-miterlimit="10" stroke-dasharray="" stroke-dashoffset="0" style="mix-blend-mode: normal"><path d="" fill="#ffffff" stroke="none" stroke-width="0"></path><path d="M205.92661,205.79925v-51.59849h68.14678v51.59849zM239.93618,182.16981c1.4803,0 2.68033,-1.20003 2.68033,-2.68033c0,-1.4803 -1.20003,-2.68033 -2.68033,-2.68033c-1.4803,0 -2.68033,1.20003 -2.68033,2.68033c0,1.4803 1.20003,2.68033 2.68033,2.68033z" fill="#000000" stroke="none" stroke-width="NaN"></path><path d="M241.09066,180c0,0.61918 -0.4883,1.12112 -1.09066,1.12112c-0.60235,0 -1.09066,-0.50195 -1.09066,-1.12112c0,-0.61918 0.4883,-1.12112 1.09066,-1.12112c0.60235,0 1.09066,0.50195 1.09066,1.12112z" fill="url(#color-1)" stroke="#000000" stroke-width="0"></path><path d="M200.07188,209.3004v-56.43331h6.41585v56.43331z" fill="#000000" stroke="none" stroke-width="0"></path><path d="M200.07188,209.95508v-5.63024h77.6449v5.63024z" fill="#000000" stroke="none" stroke-width="0"></path><path d="M271.95561,209.16947v-56.56425h5.76117v56.56425z" fill="#000000" stroke="none" stroke-width="0"></path><path d="M199.94095,158.49733v-6.02304h77.90677v6.02304z" fill="#000000" stroke="none" stroke-width="0"></path><path d="M243.175,179.95c0,1.64305 -1.39911,2.975 -3.125,2.975c-1.72589,0 -3.125,-1.33195 -3.125,-2.975c0,-1.64305 1.39911,-2.975 3.125,-2.975c1.72589,0 3.125,1.33195 3.125,2.975z" fill="none" stroke="#000000" stroke-width="4.5"></path></g></g></svg>