<svg version="1.1" xmlns="http://www.w3.org/2000/svg" xmlns:xlink="http://www.w3.org/1999/xlink" width="11.43441" height="10.225" viewBox="0,0,11.43441,10.225"><g transform="translate(-234.2828,-174.8875)"><g data-paper-data="{&quot;isPaintingLayer&quot;:true}" fill-rule="nonzero" stroke="none" stroke-width="0" stroke-linecap="butt" stroke-linejoin="miter" stroke-miterlimit="10" stroke-dasharray="" stroke-dashoffset="0" style="mix-blend-mode: normal"><path d="M237.7461,181.53925c0,0 -3.46331,-1.57494 -3.46331,-2.06149c0,-0.33601 3.46331,-0.57722 3.46331,-0.57722c0,0 1.4711,-4.01304 2.11647,-4.01304c0.41191,0 2.74134,0.78937 3.14303,1.9559c0.09067,0.26331 -0.98306,0.62765 -1.19981,0.9522c-0.39154,0.58628 -0.10162,1.10493 -0.10162,1.10493c0,0 4.01304,2.87258 4.01304,3.13347c0,0.47847 -4.01304,-0.49476 -4.01304,-0.49476c0,0 -1.40043,3.57325 -2.08898,3.57325c-0.62456,0 -1.86909,-3.57325 -1.86909,-3.57325z" fill="#ffa566"></path><path d="M238.40335,181.152c0,0 -2.14885,-2.0739 -2.02117,-2.43384c0.08817,-0.24858 2.71358,0.48176 2.71358,0.48176c0,0 2.14133,-2.58278 2.61876,-2.41343c0.30473,0.10809 1.82088,1.3033 1.81194,2.27169c-0.00202,0.21859 -0.89195,0.20637 -1.13747,0.3896c-0.44349,0.33098 -0.36511,0.79075 -0.36511,0.79075c0,0 2.21503,3.17813 2.14657,3.37113c-0.12555,0.35397 -2.83897,-1.41904 -2.83897,-1.41904c0,0 -1.97365,2.27597 -2.48303,2.0953c-0.46204,-0.16389 -0.4451,-3.1339 -0.4451,-3.1339z" fill="#ff6666"></path><path d="M238.76893,180.47451c0,0 -1.03723,-2.40245 -0.81246,-2.65037c0.15522,-0.17122 2.03144,1.30578 2.03144,1.30578c0,0 2.60348,-1.36532 2.93234,-1.06719c0.2099,0.19029 1.03224,1.66862 0.69803,2.44861c-0.07544,0.17606 -0.79088,-0.1343 -1.05126,-0.06905c-0.47035,0.11787 -0.56221,0.51609 -0.56221,0.51609c0,0 0.7179,3.31763 0.59738,3.45057c-0.22103,0.24381 -1.81635,-2.10597 -1.81635,-2.10597c0,0 -2.36431,1.17387 -2.71517,0.85579c-0.31826,-0.28852 0.69827,-2.68425 0.69827,-2.68425z" fill="#ffd566"></path></g></g></svg>