<svg version="1.1" xmlns="http://www.w3.org/2000/svg" xmlns:xlink="http://www.w3.org/1999/xlink" width="111.18457" height="85.20532" viewBox="0,0,111.18457,85.20532"><defs><linearGradient x1="240.2773" y1="202.31713" x2="265.27398" y2="202.41437" gradientUnits="userSpaceOnUse" id="color-1"><stop offset="0" stop-color="#e1e1e1"></stop><stop offset="1" stop-color="#fdfdfd"></stop></linearGradient><linearGradient x1="240.50192" y1="205.59083" x2="244.24756" y2="205.6054" gradientUnits="userSpaceOnUse" id="color-2"><stop offset="0" stop-color="#ffffff"></stop><stop offset="1" stop-color="#bcbcbc"></stop></linearGradient><linearGradient x1="240.78212" y1="199.04189" x2="244.44489" y2="199.8256" gradientUnits="userSpaceOnUse" id="color-3"><stop offset="0" stop-color="#ffffff"></stop><stop offset="1" stop-color="#bcbcbc"></stop></linearGradient><radialGradient cx="281.21329" cy="149.69039" r="1.75406" gradientUnits="userSpaceOnUse" id="color-4"><stop offset="0" stop-color="#fff85d"></stop><stop offset="1" stop-color="#fff85d" stop-opacity="0"></stop></radialGradient><linearGradient x1="280.66938" y1="152.40988" x2="281.6212" y2="152.40988" gradientUnits="userSpaceOnUse" id="color-5"><stop offset="0" stop-color="#fff3d5"></stop><stop offset="1" stop-color="#ffd3c2"></stop></linearGradient></defs><g transform="translate(-184.40771,-137.39734)"><g data-paper-data="{&quot;isPaintingLayer&quot;:true}" fill-rule="nonzero" stroke-linejoin="miter" stroke-miterlimit="10" stroke-dasharray="" stroke-dashoffset="0" style="mix-blend-mode: normal"><path d="" data-paper-data="{&quot;index&quot;:null}" fill="#000000" stroke="none" stroke-width="0.25" stroke-linecap="butt"></path><path d="" fill="#e6e6e6" stroke="#000000" stroke-width="0.25" stroke-linecap="butt"></path><path d="" fill="#8e6544" stroke="none" stroke-width="0.25" stroke-linecap="butt"></path><path d="" fill="#d59866" stroke="none" stroke-width="0.25" stroke-linecap="butt"></path><path d="" fill="#ab7a52" stroke="none" stroke-width="0.25" stroke-linecap="butt"></path><path d="" fill="#ab7a52" stroke="none" stroke-width="0.25" stroke-linecap="butt"></path><path d="M291.34434,220.90535v-83.0196h3.90951v83.0196z" fill="#915e23" stroke="none" stroke-width="0" stroke-linecap="butt"></path><path d="M184.40771,137.65578h11.72853v83.42312c-0.95821,0 -1.91642,0 -2.87463,0c-0.67648,0 -1.35822,-0.07635 -2.02945,0.00783c-0.34262,0.04297 -0.66498,0.22419 -1.01026,0.22919c-0.18084,0.00261 -0.32213,-0.18358 -0.50143,-0.20732c-0.97659,-0.12933 -2.14099,-0.0297 -3.12803,-0.0297c-0.59394,0 -1.25144,0.12381 -1.80245,-0.11196c0,0 -0.14908,-0.04969 -0.38229,-0.08413z" fill="#915e23" stroke="none" stroke-width="0" stroke-linecap="butt"></path><path d="M184.6686,211.03263h110.78428v10.449h-83.0515c-1.38489,-0.20697 -2.76345,-0.45494 -4.14062,-0.61547c-2.04135,-0.23794 -4.20103,-0.01723 -6.26024,-0.01723c0,0 -0.11404,0 -0.29131,0.0254l-0.49642,0.04327c-0.34185,0.0949 -0.69757,0.17624 -1.05204,0.16131c-2.29971,0 -4.59942,0 -6.89913,0c-0.67648,0 -1.35822,-0.07635 -2.02945,0.00783c-0.34262,0.04297 -0.66498,0.22419 -1.01026,0.22919c-0.18084,0.00261 -0.32213,-0.18358 -0.50143,-0.20732c-0.97659,-0.12933 -2.14099,-0.0297 -3.12803,-0.0297c-0.59394,0 -1.25144,0.12381 -1.80245,-0.11196c0,0 -0.04393,-0.01464 -0.1214,-0.03354z" fill="#bb792d" stroke="none" stroke-width="NaN" stroke-linecap="butt"></path><g stroke="none" stroke-width="0" stroke-linecap="butt"><path d="M201.21279,220.9176c-0.34185,0.0949 -0.69757,0.17624 -1.05204,0.16131c-2.29971,0 -4.59942,0 -6.89913,0c-0.67648,0 -1.35822,-0.07635 -2.02945,0.00783c-0.34262,0.04297 -0.66498,0.22419 -1.01026,0.22919c-0.18084,0.00261 -0.32213,-0.18358 -0.50143,-0.20732c-0.97659,-0.12933 -2.14099,-0.0297 -3.12803,-0.0297c-0.59394,0 -1.25144,0.12381 -1.80245,-0.11196c0,0 -0.08373,-0.02791 -0.22385,-0.05639v-8.77797h52.31845v9.78245c-1.12437,-0.14003 -2.24188,-0.36161 -3.37802,-0.37619c-1.56133,-0.02002 -3.06345,0.31106 -4.59606,0.47114c-2.24006,0.23397 -4.64799,-0.01119 -6.9025,-0.01119c-2.38066,0 -4.76429,-0.02681 -7.13247,-0.21878c-2.22177,-0.18011 -4.42005,-0.65802 -6.61479,-0.91385c-2.04135,-0.23794 -4.20103,-0.01723 -6.26024,-0.01723c0,0 -0.11404,0 -0.29131,0.0254z" fill="#8c00ff"></path><path d="" fill="#8c00ff"></path><path d="" fill="#8c00ff"></path><path d="M185.97956,212.48812l2.0058,-0.33597l9.92029,8.92676c-0.81013,0 -1.62024,0 -2.43036,0z" fill="#ba65ff"></path><path d="" fill="#ba65ff"></path><path d="M199.92251,212.04666l2.63869,0.44145l-9.94912,8.57514c-0.46153,-0.01675 -0.92315,-0.03379 -1.37991,0.02349c-0.33043,0.04144 -0.64201,0.21146 -0.97347,0.22799z" data-paper-data="{&quot;index&quot;:null}" fill="#ba65ff"></path><path d="" data-paper-data="{&quot;index&quot;:null}" fill="#ba65ff"></path><path d="M202.54004,212.5936l2.0058,-0.33597l10.60629,9.54406c-0.09222,-0.00698 -0.18442,-0.0142 -0.27659,-0.02168c-0.84254,-0.0683 -1.6817,-0.17943 -2.51857,-0.30502z" fill="#ba65ff"></path><path d="M216.9049,212.25762l2.63869,0.44145l-9.72203,8.37941c-0.52064,-0.07863 -1.04082,-0.15171 -1.5608,-0.21232c-0.09941,-0.01159 -0.1991,-0.02209 -0.29905,-0.03158z" data-paper-data="{&quot;index&quot;:null}" fill="#ba65ff"></path><path d="" data-paper-data="{&quot;index&quot;:null}" fill="#ba65ff"></path><path d="M218.88956,212.5936l2.0058,-0.33597l10.47602,9.42684c-0.70628,0.08932 -1.40876,0.20219 -2.11633,0.28681z" fill="#ba65ff"></path><path d="" fill="#ba65ff"></path><path d="M232.8325,212.15214l2.63869,0.44145l-10.98357,9.46673c-0.64755,-0.02303 -1.29215,-0.04728 -1.92688,-0.05705z" data-paper-data="{&quot;index&quot;:null}" fill="#ba65ff"></path></g><path d="M184.41056,153.91701v-16.51967h111.18173v16.51967z" fill="#b18654" stroke="none" stroke-width="0" stroke-linecap="butt"></path><path d="M215.6598,213.77496l0.0034,8.06297c-0.26273,-0.01741 -0.52528,-0.03664 -0.78765,-0.05791c-2.22177,-0.18011 -4.42005,-0.65802 -6.61479,-0.91385c-0.24369,-0.0284 -0.48905,-0.05027 -0.73574,-0.06676l-0.00296,-7.02101z" data-paper-data="{&quot;index&quot;:null}" fill="#000000" stroke="none" stroke-width="0.25" stroke-linecap="butt"></path><path d="M215.8886,214.64293l0.00051,1.21007l-0.43217,0.00018l-0.00051,-1.21007z" fill="#e6e6e6" stroke="#000000" stroke-width="0.25" stroke-linecap="butt"></path><path d="M224.04498,213.77142l0.00349,8.27326c-0.68807,-0.02427 -1.37102,-0.04589 -2.04045,-0.04589c-2.03412,0 -4.07041,-0.01957 -6.09737,-0.14502l-0.00341,-8.07892z" fill="#8e6544" stroke="none" stroke-width="0.25" stroke-linecap="butt"></path><path d="M218.74828,221.96888l4.61486,-0.00195l0.00002,0.05508" fill="none" stroke="#513a27" stroke-width="0.25" stroke-linecap="butt"></path><path d="M223.36025,215.11411l0.00174,4.1117l-6.59585,0.00278l-0.00174,-4.1117z" fill="none" stroke="#513a27" stroke-width="0.25" stroke-linecap="butt"></path><path d="M222.42053,221.13928c-0.70964,0.0003 -1.28498,-0.17843 -1.28507,-0.3992c-0.00009,-0.22078 0.5751,-0.39999 1.28473,-0.40029c0.70964,-0.0003 1.28498,0.17843 1.28507,0.3992c0.00009,0.22078 -0.5751,0.39999 -1.28473,0.40029z" fill="#dadada" stroke="none" stroke-width="0.25" stroke-linecap="butt"></path><path d="M223.74319,221.05139c0.0857,0.38554 -0.12895,0.76124 -0.47944,0.83916c-0.35049,0.07791 -0.7041,-0.17147 -0.7898,-0.55702c-0.0857,-0.38554 0.12895,-0.76124 0.47944,-0.83916c0.35049,-0.07791 0.7041,0.17147 0.7898,0.55702z" fill="#fff4ce" stroke="#e6ddbb" stroke-width="0.25" stroke-linecap="butt"></path><path d="M223.66271,221.22718c0.05324,0.23952 -0.08012,0.47293 -0.29786,0.52133c-0.21774,0.0484 -0.43743,-0.10653 -0.49066,-0.34605c-0.05324,-0.23952 0.08012,-0.47293 0.29786,-0.52133c0.21774,-0.0484 0.43743,0.10653 0.49066,0.34605z" fill="#e6ddbb" stroke="#e6ddbb" stroke-width="0.25" stroke-linecap="butt"></path><path d="M222.10681,220.579l0.50787,0.20363l-0.20363,0.50787l-0.50787,-0.20363z" fill="#e6ddbb" stroke="none" stroke-width="0.25" stroke-linecap="butt"></path><path d="M222.33641,220.47814c0.02871,0.04149 -0.10458,0.42633 -0.1167,0.49366l-0.00278,0.10588c-0.00011,0.02482 -0.01006,0.04822 -0.02685,0.06547c-0.00598,0.01583 -0.01615,0.02988 -0.02946,0.04052c-0.00032,0.01031 -0.00064,0.02061 -0.00095,0.03091l-0.00571,0.0092l0.00376,0.00094l-0.02917,0.11672c-0.00785,0.03449 -0.03483,0.06312 -0.07165,0.0713c-0.05093,0.01132 -0.1014,-0.02079 -0.11273,-0.07172v0l-0.02374,-0.10683l0.0181,-0.00402c-0.07746,-0.18966 -0.09219,-0.39345 0.01054,-0.5962c0.06583,-0.12993 0.21124,-0.41035 0.38734,-0.15583z" fill="#fff4ce" stroke="none" stroke-width="0.25" stroke-linecap="butt"></path><g stroke="none" stroke-width="0" stroke-linecap="butt"><path d="M184.79612,152.10129v-14.13442h52.31845v14.13442h-31.19424c-0.82353,-0.21794 -1.77581,-0.20531 -2.57777,0z" fill="#8c00ff"></path><path d="M186.20954,138.3224l2.0058,-0.33597l15.52515,13.97029l-2.32225,0.12501z" fill="#ba65ff"></path><path d="M186.94957,151.97625l-1.58387,0.08595l14.78679,-14.18125l2.63869,0.44145z" data-paper-data="{&quot;index&quot;:null}" fill="#ba65ff"></path><path d="M202.77001,138.42788l2.0058,-0.33597l15.52515,13.97029l-2.32225,0.12501z" fill="#ba65ff"></path><path d="M203.93197,152.18721l-1.58388,0.08595l14.78678,-14.18125l2.63869,0.44145z" data-paper-data="{&quot;index&quot;:null}" fill="#ba65ff"></path><path d="M219.11953,138.42788l2.0058,-0.33597l15.52515,13.97029l-2.32225,0.12501z" fill="#ba65ff"></path><path d="M219.85956,152.08173l-1.58387,0.08595l14.78678,-14.18125l2.63869,0.44145z" data-paper-data="{&quot;index&quot;:null}" fill="#ba65ff"></path></g><g stroke="none" stroke-width="0" stroke-linecap="butt"><path d="M236.99959,151.87132v-14.13442h52.31845v14.13442h-31.19424c-0.82353,-0.21794 -1.77581,-0.20531 -2.57777,0z" fill="#8c00ff"></path><path d="M238.413,138.09243l2.0058,-0.33597l15.52515,13.97029l-2.32225,0.12501z" fill="#ba65ff"></path><path d="M239.15303,151.74628l-1.58387,0.08595l14.78679,-14.18125l2.63869,0.44145z" data-paper-data="{&quot;index&quot;:null}" fill="#ba65ff"></path><path d="M254.97347,138.19791l2.0058,-0.33597l15.52515,13.97029l-2.32225,0.12501z" fill="#ba65ff"></path><path d="M256.13543,151.95725l-1.58388,0.08595l14.78679,-14.18125l2.63869,0.44145z" data-paper-data="{&quot;index&quot;:null}" fill="#ba65ff"></path><path d="M271.32299,138.19791l2.0058,-0.33597l15.52515,13.97029l-2.32225,0.12501z" fill="#ba65ff"></path><path d="M272.06302,151.85176l-1.58387,0.08595l14.78679,-14.18125l2.63869,0.44145z" data-paper-data="{&quot;index&quot;:null}" fill="#ba65ff"></path></g><g stroke="none" stroke-width="0" stroke-linecap="butt"><path d="M236.53964,212.0176h52.31845v9.95331c-0.49258,-0.00271 -0.89117,0.01935 -1.49367,-0.14606c-1.09945,-0.21161 -1.60509,-0.40919 -2.71267,-0.2563c-0.52397,0.07233 -0.99448,0.41482 -1.52241,0.44748c-0.71768,0.0444 -1.44066,-0.04854 -2.15713,0.01246c-0.24154,0.02057 -0.45212,0.18289 -0.68991,0.22997c-0.59855,0.11851 -1.3712,-0.09237 -1.98235,-0.01246c-0.3134,0.04097 -0.60672,0.18723 -0.91988,0.22997c-0.58967,0.08048 -1.19351,-0.0682 -1.78539,-0.00604c-0.2218,0.0233 -0.43847,0.07987 -0.65575,0.13273c-1.0911,-0.01569 -2.18358,-0.02924 -3.26049,-0.13273c-1.06721,-0.10256 -2.10639,-0.54065 -3.16522,-0.68388c-0.45579,-0.06166 -0.92567,0.07271 -1.37983,0c-0.85091,-0.13623 -1.67594,-0.34832 -2.52968,-0.45995c-0.74783,-0.09777 -1.56291,0.11796 -2.29971,0c-1.44519,-0.23137 -2.9048,-0.46486 -4.38018,-0.46934c-2.21249,0.36875 -4.46842,0.22213 -6.70946,0.22213c-0.99553,0 -2.14018,-0.1204 -3.12803,0.0297c-0.28644,0.04352 -0.54533,0.20469 -0.83026,0.25725c-0.79087,0.14589 -3.78297,0.37763 -4.18628,0.40496c-2.16027,0.14638 -4.35727,0.01929 -6.53015,0.0003z" fill="#8c00ff"></path><path d="" fill="#8c00ff"></path><path d="M237.95306,212.37313l2.0058,-0.33597l10.01175,9.00906c-0.64046,-0.02033 -1.29068,-0.02781 -1.88428,0.06238c-0.12437,0.01889 -0.24354,0.05997 -0.3619,0.1047z" fill="#ba65ff"></path><path d="" fill="#ba65ff"></path><path d="M251.896,211.93167l2.63869,0.44145l-10.84945,9.35113c-0.30061,0.02373 -0.52423,0.04037 -0.61544,0.04655c-0.49763,0.03372 -0.99722,0.05293 -1.498,0.06229z" data-paper-data="{&quot;index&quot;:null}" fill="#ba65ff"></path><path d="M254.51352,212.47861l2.0058,-0.33597l10.73284,9.65794c-0.0397,-0.00346 -0.07931,-0.00821 -0.11879,-0.01453c-0.85091,-0.13623 -1.67594,-0.34832 -2.52968,-0.45995c-0.11143,-0.01457 -0.22436,-0.02218 -0.3383,-0.02497z" fill="#ba65ff"></path><path d="M268.8784,212.14264l2.63869,0.44145l-9.99847,8.61767c-0.60782,-0.09411 -1.21822,-0.18125 -1.8313,-0.24442z" data-paper-data="{&quot;index&quot;:null}" fill="#ba65ff"></path><path d="" data-paper-data="{&quot;index&quot;:null}" fill="#ba65ff"></path><path d="M270.86305,212.47861l2.0058,-0.33597l10.82474,9.74063c-0.184,0.0669 -0.37025,0.12075 -0.56425,0.13274c-0.57627,0.03565 -1.15597,-0.01725 -1.73295,-0.0079z" fill="#ba65ff"></path><path d="M284.80599,212.03716l2.63869,0.44145l-11.57442,9.97598c-0.09209,0.00115 -0.18398,0.00572 -0.2756,0.01534c-0.2218,0.0233 -0.43847,0.07987 -0.65575,0.13273c-0.37656,-0.00542 -0.75329,-0.01057 -1.12948,-0.01927z" data-paper-data="{&quot;index&quot;:null}" fill="#ba65ff"></path></g><path d="M226.35455,211.70516v-22.88213h7.70404v22.88213z" fill="#915e23" stroke="none" stroke-width="0" stroke-linecap="butt"></path><path d="M226.58451,172.2651v-18.3977h7.70404v18.3977z" fill="#915e23" stroke="none" stroke-width="0" stroke-linecap="butt"></path><path d="M232.67875,193.53744v-4.71441h41.04986v4.71441z" fill="#915e23" stroke="none" stroke-width="0" stroke-linecap="butt"></path><path d="M233.71363,172.2651v-4.71441h16.55793v4.71441z" fill="#915e23" stroke="none" stroke-width="0" stroke-linecap="butt"></path><path d="M283.61737,172.38009v-18.3977h7.70404v18.3977z" data-paper-data="{&quot;index&quot;:null}" fill="#915e23" stroke="none" stroke-width="0" stroke-linecap="butt"></path><path d="M267.74936,172.49508v-4.71441h16.55793v4.71441z" data-paper-data="{&quot;index&quot;:null}" fill="#915e23" stroke="none" stroke-width="0" stroke-linecap="butt"></path><g stroke-linecap="butt"><text transform="translate(262.58758,208.85871) rotate(-89.77712) scale(0.11499,0.11499)" font-size="40" xml:space="preserve" fill="#d48989" fill-rule="nonzero" stroke="none" stroke-width="0.3" stroke-linecap="butt" stroke-linejoin="miter" stroke-miterlimit="10" stroke-dasharray="" stroke-dashoffset="0" font-family="Serif" font-weight="normal" text-anchor="start" style="mix-blend-mode: normal"><tspan x="0" dy="0">xAmt8</tspan></text><path d="M264.9194,209.74909l-25.97481,-0.10104l0.05708,-14.67196l25.97481,0.10104z" fill="#976a37" stroke="#b17a57" stroke-width="0.15"></path><path d="M266.5568,207.90785l-1.84759,-0.00718l0.00422,-1.08681l1.84759,0.00718z" fill="#bb792d" stroke="none" stroke-width="0.15"></path><path d="M266.76259,199.15099l-1.84759,-0.00718l0.00422,-1.08681l1.84759,0.00718z" fill="#bb792d" stroke="none" stroke-width="0.15"></path><path d="M265.24924,208.77222l-24.99668,-0.09723l0.04947,-12.71571l24.99668,0.09723z" fill="url(#color-1)" stroke="none" stroke-width="0.15"></path><path d="M243.66683,207.90592c-0.73002,0.02609 -1.99003,0.07111 -2.40643,0.08599c-0.13239,0.00473 -0.42452,0.13113 -0.536,0.07684c-0.11013,-0.05363 -0.04039,-0.28745 -0.04331,-0.36921c-0.0181,-0.5063 -0.11226,-3.14172 -0.1453,-4.06626c-0.00366,-0.10233 -0.06821,-0.37885 0.02502,-0.43746c0.08976,-0.05642 0.33429,0.10326 0.48763,0.09778c0.73666,-0.02633 2.03482,-0.07271 2.45046,-0.08756c0.10462,-0.00374 0.32082,-0.12173 0.41585,-0.08546c0.13384,0.05109 0.13041,0.27507 0.13471,0.39542c0.03322,0.92967 0.12651,3.5405 0.14471,4.04973c0.00358,0.10009 0.1097,0.3225 -0.01803,0.38733c-0.08715,0.04423 -0.37933,-0.05177 -0.50929,-0.04713z" fill="url(#color-2)" stroke="#fff4ce" stroke-width="0.15"></path><path d="M243.40396,201.95777c-0.7198,-0.12444 -1.96219,-0.33921 -2.37277,-0.41019c-0.13053,-0.02257 -0.44241,0.04113 -0.54036,-0.03491c-0.09676,-0.07512 0.01952,-0.28962 0.03345,-0.37024c0.08631,-0.49923 0.53553,-3.09778 0.69311,-4.00939c0.01744,-0.10089 0.01107,-0.38478 0.11435,-0.42299c0.09943,-0.03679 0.30595,0.16973 0.45715,0.19587c0.72635,0.12557 2.00636,0.34685 2.41618,0.41769c0.10315,0.01783 0.33898,-0.05323 0.42453,0.00179c0.12049,0.07749 0.07113,0.296 0.05061,0.41466c-0.15847,0.91667 -0.6035,3.49098 -0.6903,3.99309c-0.01706,0.09869 0.04112,0.33815 -0.09722,0.37537c-0.09437,0.02539 -0.3606,-0.1286 -0.48875,-0.15074z" fill="url(#color-3)" stroke="#fff4ce" stroke-width="0.15"></path><path d="M264.8468,208.77065l-15.51044,-0.06034c0,0 1.09959,-1.85486 1.10383,-2.94601c0.00294,-0.75462 -1.38025,-2.112 -1.53862,-3.57469c-0.11895,-1.09859 1.13044,-2.31144 1.22785,-3.32692c0.15845,-1.65169 -0.7436,-2.86808 -0.7436,-2.86808l15.51044,0.06034z" fill="#00a94f" stroke="#535353" stroke-width="0.15"></path><path d="M253.20873,208.76473l-0.57763,-0.00225c0,0 0.20905,-0.70764 0.21163,-1.3708c0.00247,-0.63481 -0.36525,-2.0739 -0.38912,-3.71339c-0.02092,-1.43663 0.3493,-3.12522 0.40105,-4.46696c0.06759,-1.75265 -0.17481,-2.98218 -0.17481,-2.98218l0.57763,0.00225z" fill="#00d664" stroke="none" stroke-width="0.15"></path><path d="M256.48625,208.66249l-0.57763,-0.00225c0,0 0.20905,-0.70764 0.21163,-1.3708c0.00247,-0.63481 -0.36525,-2.0739 -0.38912,-3.71339c-0.02092,-1.43663 0.3493,-3.12522 0.40105,-4.46696c0.06759,-1.75264 -0.17482,-2.98218 -0.17482,-2.98218l0.57763,0.00225z" fill="#00d664" stroke="none" stroke-width="0.15"></path><path d="M260.22348,208.61953l-0.57763,-0.00225c0,0 0.20905,-0.70764 0.21163,-1.3708c0.00247,-0.63481 -0.36525,-2.0739 -0.38912,-3.71339c-0.02092,-1.43663 0.3493,-3.12522 0.40105,-4.46696c0.06759,-1.75264 -0.17482,-2.98218 -0.17482,-2.98218l0.57763,0.00225z" fill="#00d664" stroke="none" stroke-width="0.15"></path><path d="M263.03948,208.91795l-0.57763,-0.00225c0,0 0.20905,-0.70764 0.21163,-1.3708c0.00247,-0.63481 -0.36525,-2.0739 -0.38912,-3.71339c-0.02092,-1.43663 0.3493,-3.12522 0.40105,-4.46696c0.06759,-1.75264 -0.17482,-2.98218 -0.17482,-2.98218l0.57763,0.00225z" fill="#00d664" stroke="none" stroke-width="0.15"></path><path d="M238.77339,209.87258l-1.32233,-0.00515l0.05859,-15.063l1.32233,0.00515z" fill="#6d471a" stroke="none" stroke-width="0.15"></path><path d="M237.80139,208.48896l-1.32233,-0.00515c0,0 -0.0177,-1.45218 -0.53405,-2.61483c-0.47969,-1.0801 -1.46088,-1.83972 -1.45739,-2.73979c0.00452,-1.16118 1.2547,-2.94741 1.80901,-4.42295c0.45179,-1.20265 0.22917,-2.23834 0.22917,-2.23834l1.32233,0.00515z" fill="#6d471a" stroke="none" stroke-width="0.15"></path><path d="M237.86849,206.01701l-1.20734,-0.0047l0.00537,-1.37981l1.20734,0.0047z" fill="#885a21" stroke="none" stroke-width="0.15"></path><path d="M237.87744,203.71732l-1.20734,-0.0047l0.00537,-1.37981l1.20734,0.0047z" fill="#885a21" stroke="none" stroke-width="0.15"></path><path d="M237.65687,201.30174l-1.20734,-0.0047l0.00537,-1.37981l1.20734,0.0047z" fill="#885a21" stroke="none" stroke-width="0.15"></path></g><g><text transform="translate(241.65976,154.07337) scale(0.0122,0.0122)" font-size="40" xml:space="preserve" fill="#684700" fill-rule="nonzero" stroke="none" stroke-width="0.3" stroke-linecap="butt" stroke-linejoin="miter" stroke-miterlimit="10" stroke-dasharray="" stroke-dashoffset="0" font-family="Impact" font-weight="normal" text-anchor="start" style="mix-blend-mode: normal"><tspan x="0" dy="0">xAmt8</tspan></text><path d="M243.11126,156.44468v-13.33381l2.89942,-0.35089c0,0 -0.03918,0.46484 -0.03918,0.6238c0,1.0997 0,13.0609 0,13.0609z" fill="#684700" stroke="#000000" stroke-width="0.15" stroke-linecap="butt"></path><path d="M236.86334,156.48113v-12.85147h7.91462v12.85147z" fill="#906200" stroke="#001701" stroke-width="0.15" stroke-linecap="butt"></path><path d="M236.86973,146.20504l1.49657,-1.14805l4.4282,-0.08201l1.80408,1.23005z" fill="#a0844f" stroke="none" stroke-width="0.15" stroke-linecap="butt"></path><path d="M237.85942,148.60718l0.02523,-1.05974" fill="none" stroke="#000000" stroke-width="0.15" stroke-linecap="round"></path><path d="M236.75751,143.70033l1.84153,-1.41052l7.52281,0.35263l-1.21462,1.0579z" fill="#906200" stroke="#000000" stroke-width="0.15" stroke-linecap="butt"></path><g stroke="none" stroke-width="0.15" stroke-linecap="butt"><path d="M236.94318,147.51538v-0.1889h7.80952v0.1889z" fill="#ab8d55"></path><path d="M236.95059,146.37623v-0.1889h7.75303v0.1889z" fill="#ab8d55"></path><path d="M237.26692,147.35217v-1.02406h7.13974v1.02406z" fill="#805300"></path><path d="M244.39799,147.37691v-1.06103l0.34025,-0.11331l0.04254,1.29795z" data-paper-data="{&quot;index&quot;:null}" fill="#563a00"></path><path d="M236.89415,147.51715l0.04254,-1.2923l0.34025,0.11282v1.05641z" data-paper-data="{&quot;index&quot;:null}" fill="#563a00"></path></g><g stroke="none" stroke-width="0.15" stroke-linecap="butt"><path d="M236.91037,151.02513v-0.1889h7.80952v0.1889z" fill="#ab8d55"></path><path d="M236.9178,149.88598v-0.1889h7.75303v0.1889z" fill="#ab8d55"></path><path d="M237.23411,150.86193v-1.02406h7.13974v1.02406z" fill="#805300"></path><path d="M244.36518,150.88666v-1.06103l0.34025,-0.11331l0.04254,1.29795z" data-paper-data="{&quot;index&quot;:null}" fill="#563a00"></path><path d="M236.86134,151.02691l0.04254,-1.2923l0.34025,0.11282v1.0564z" data-paper-data="{&quot;index&quot;:null}" fill="#563a00"></path></g><g stroke="none" stroke-width="0.15" stroke-linecap="butt"><path d="M236.97597,154.43648v-0.1889h7.80952v0.1889z" fill="#ab8d55"></path><path d="M236.9834,153.29733v-0.1889h7.75303v0.1889z" fill="#ab8d55"></path><path d="M237.29972,154.27328v-1.02406h7.13974v1.02406z" fill="#805300"></path><path d="M244.43079,154.29801v-1.06103l0.34025,-0.11331l0.04254,1.29795z" data-paper-data="{&quot;index&quot;:null}" fill="#563a00"></path><path d="M236.92694,154.43825l0.04254,-1.2923l0.34025,0.11282v1.0564z" data-paper-data="{&quot;index&quot;:null}" fill="#563a00"></path></g><path d="M236.91894,149.69839l1.49657,-1.14805l4.4282,-0.08201l1.80408,1.23005z" fill="#a0844f" stroke="none" stroke-width="0.15" stroke-linecap="butt"></path><path d="M236.90254,153.07694l1.49657,-1.14805l4.4282,-0.08201l1.80408,1.23005z" fill="#a0844f" stroke="none" stroke-width="0.15" stroke-linecap="butt"></path><path d="M238.36251,150.96964l0.07029,0.84346" fill="none" stroke="#000000" stroke-width="0.15" stroke-linecap="round"></path><path d="M238.38595,145.05366l-0.01172,-1.32377" fill="none" stroke="#000000" stroke-width="0.15" stroke-linecap="round"></path><path d="M242.84019,151.87912l-0.0164,-0.91844" fill="none" stroke="#000000" stroke-width="0.15" stroke-linecap="round"></path><path d="M243.1026,147.48372v0.98404" fill="none" stroke="#000000" stroke-width="0.15" stroke-linecap="round"></path><path d="M242.76702,144.9864v-1.24898" fill="none" stroke="#000000" stroke-width="0.15" stroke-linecap="round"></path></g><g><path d="M240.87238,159.61062l-4.02673,0.23332l-0.0783,-1.35136l4.02673,-0.23332z" fill="#c58e59" stroke="#000000" stroke-width="0.15" stroke-linecap="butt"></path><text transform="translate(237.83826,158.88419) rotate(-2.87143) scale(0.01414,0.01414)" font-size="40" xml:space="preserve" fill="#000000" fill-rule="nonzero" stroke="none" stroke-width="0.3" stroke-linecap="butt" stroke-linejoin="miter" stroke-miterlimit="10" stroke-dasharray="" stroke-dashoffset="0" font-family="Monospace" font-weight="normal" text-anchor="start" style="mix-blend-mode: normal"><tspan x="0" dy="0">doors</tspan><tspan x="0" dy="46.150000000000006px">guide</tspan></text><path d="M236.71209,158.51049l0.83026,-0.71402l2.5268,-0.14457l0.67351,0.58908z" fill="#ffffff" stroke="none" stroke-width="0.15" stroke-linecap="butt"></path><path d="M240.18659,157.78962l-2.78659,0.20309" fill="none" stroke="#b5b5b5" stroke-width="0.15" stroke-linecap="round"></path><path d="M236.98384,158.28882l3.45877,-0.18098" fill="none" stroke="#b5b5b5" stroke-width="0.15" stroke-linecap="round"></path></g><g><text transform="translate(280.27966,154.83633) scale(0.01531,0.01531)" font-size="40" xml:space="preserve" fill="#66d6ff" fill-rule="nonzero" stroke="none" stroke-width="0.3" stroke-linecap="butt" stroke-linejoin="miter" stroke-miterlimit="10" stroke-dasharray="" stroke-dashoffset="0" font-family="Sans Serif" font-weight="normal" text-anchor="start" style="mix-blend-mode: normal"><tspan x="0" dy="0">xAmt8</tspan></text><g stroke-width="0.15"><path d="M282.84497,149.69039c0,0.96874 -0.73053,1.75406 -1.63169,1.75406c-0.90115,0 -1.63169,-0.78532 -1.63169,-1.75406c0,-0.96874 0.73053,-1.75406 1.63169,-1.75406c0.90115,0 1.63169,0.78532 1.63169,1.75406z" fill="url(#color-4)" stroke="none" stroke-linecap="butt"></path><path d="M280.69658,155.49649l-0.38073,-0.76145l1.79486,-0.02719l-0.13597,0.78865z" fill="#a76a00" stroke="none" stroke-linecap="butt"></path><path d="M280.31586,154.78942v-0.16317h1.82205v0.16317z" fill="#643f00" stroke="none" stroke-linecap="butt"></path><path d="M280.26147,154.68064l-0.40792,-0.57109l2.6379,-0.02719l-0.35354,0.59828z" fill="#a76a00" stroke="none" stroke-linecap="butt"></path><path d="M281.92165,155.1423c-0.05374,-0.10747 0.05374,-0.16121 0.05374,-0.16121l0.10878,-0.05439c0.14823,-0.07412 0.36056,-0.12646 0.29328,-0.34403c-0.02305,-0.07453 -0.0985,-0.12105 -0.1453,-0.18346c0,0 -0.07209,-0.09613 0.02403,-0.16822c0.09613,-0.07209 0.16822,0.02403 0.16822,0.02403c0.02342,0.03122 0.17473,0.2303 0.18104,0.25166c0.10568,0.35808 -0.14866,0.50241 -0.41379,0.63498l-0.10878,0.05439c0,0 -0.10747,0.05374 -0.16121,-0.05374z" fill="#a76a00" stroke="none" stroke-linecap="butt"></path><path d="M280.66938,154.08236c0,0 0.23207,-2.13912 0.26521,-2.72141c0.01544,-0.27123 -0.07484,-0.62355 -0.07484,-0.62355c0,0 0.35211,0.08159 0.48951,0.08159c0.11052,0 0.27195,-0.08159 0.27195,-0.08159c0,0 -0.10878,1.43769 -0.10878,2.03961c0,0.4898 0.10878,1.30535 0.10878,1.30535z" fill="url(#color-5)" stroke="none" stroke-linecap="butt"></path><path d="M281.18609,150.03034l0.02719,0.73426" fill="none" stroke="#000000" stroke-linecap="round"></path><path d="M281.37645,149.74479c0,0.20276 -0.07914,0.36713 -0.17677,0.36713c-0.09762,0 -0.17677,-0.16437 -0.17677,-0.36713c0,-0.20276 0.07914,-0.5303 0.17677,-0.5303c0.09762,0 0.17677,0.32754 0.17677,0.5303z" fill="#ffd75c" stroke="#000000" stroke-linecap="butt"></path></g></g></g></g></svg>