<svg version="1.1" xmlns="http://www.w3.org/2000/svg" xmlns:xlink="http://www.w3.org/1999/xlink" width="20.27195" height="34.9803" viewBox="0,0,20.27195,34.9803"><defs><linearGradient x1="242.20297" y1="194.22453" x2="245.19677" y2="192.23271" gradientUnits="userSpaceOnUse" id="color-1"><stop offset="0" stop-color="#08ff7d"></stop><stop offset="1" stop-color="#06ce5c"></stop></linearGradient><linearGradient x1="240.10027" y1="188.53017" x2="243.63395" y2="187.86437" gradientUnits="userSpaceOnUse" id="color-2"><stop offset="0" stop-color="#08ff7d"></stop><stop offset="1" stop-color="#06ce5c"></stop></linearGradient><linearGradient x1="238.66788" y1="194.47506" x2="235.35378" y2="193.07973" gradientUnits="userSpaceOnUse" id="color-3"><stop offset="0" stop-color="#08ff7d"></stop><stop offset="1" stop-color="#06ce5c"></stop></linearGradient><linearGradient x1="243.94991" y1="166.53978" x2="236.05971" y2="167.47036" gradientUnits="userSpaceOnUse" id="color-4"><stop offset="0" stop-color="#ffe108"></stop><stop offset="1" stop-color="#ffc908"></stop></linearGradient><linearGradient x1="243.70985" y1="166.59858" x2="239.77013" y2="167.06324" gradientUnits="userSpaceOnUse" id="color-5"><stop offset="0" stop-color="#ffe108"></stop><stop offset="1" stop-color="#ffe108" stop-opacity="0"></stop></linearGradient><radialGradient cx="239.62527" cy="164.08379" r="2.09288" gradientUnits="userSpaceOnUse" id="color-6"><stop offset="0" stop-color="#fff399"></stop><stop offset="1" stop-color="#fff399" stop-opacity="0"></stop></radialGradient><linearGradient x1="239.66589" y1="188.48749" x2="236.07004" y2="188.49587" gradientUnits="userSpaceOnUse" id="color-7"><stop offset="0" stop-color="#08ff7d"></stop><stop offset="1" stop-color="#06ce5c"></stop></linearGradient><linearGradient x1="240.3519" y1="171.30782" x2="240.09422" y2="167.34917" gradientUnits="userSpaceOnUse" id="color-8"><stop offset="0" stop-color="#c6af06"></stop><stop offset="1" stop-color="#c6af06" stop-opacity="0"></stop></linearGradient></defs><g transform="translate(-229.86402,-162.55932)"><g data-paper-data="{&quot;isPaintingLayer&quot;:true}" fill-rule="nonzero" stroke-linejoin="miter" stroke-miterlimit="10" stroke-dasharray="" stroke-dashoffset="0" style="mix-blend-mode: normal"><path d="M244.71293,196.65456l-4.09119,-5.32815l2.82348,-1.74117l4.07458,5.62219z" data-paper-data="{&quot;index&quot;:null}" fill="url(#color-1)" stroke="#000000" stroke-width="0" stroke-linecap="butt"></path><path d="M240.67999,191.65122l-1.15943,-6.2421l3.53368,-0.66581l1.15943,6.2421z" data-paper-data="{&quot;index&quot;:null}" fill="url(#color-2)" stroke="#000000" stroke-width="0" stroke-linecap="butt"></path><path d="M243.115,184.5622l0.91421,5.93381l3.37955,4.37258l-2.62226,1.88205l-4.19524,-5.59855l-1.05454,-5.90703" data-paper-data="{&quot;index&quot;:null}" fill="none" stroke="#000000" stroke-width="0.15" stroke-linecap="round"></path><path d="M233.62953,196.43718l2.94847,-6.28631l3.09981,1.18104l-3.0199,6.0006z" data-paper-data="{&quot;index&quot;:null}" fill="url(#color-3)" stroke="#000000" stroke-width="0" stroke-linecap="butt"></path><path d="M235.36404,184.30583l-0.04905,-14.75859h1.91841l-0.99102,15.8515z" data-paper-data="{&quot;index&quot;:null}" fill="#0067b5" stroke="none" stroke-width="0" stroke-linecap="butt"></path><path d="M236.05145,171.94523l-0.79221,-2.45795l8.25225,0.2398l0.59417,2.21815z" data-paper-data="{&quot;index&quot;:null}" fill="#0067b5" stroke="none" stroke-width="0" stroke-linecap="butt"></path><path d="M235.96167,185.59916v-13.65714h8.20658v13.65714z" data-paper-data="{&quot;index&quot;:null}" fill="#0090ff" stroke="none" stroke-width="0" stroke-linecap="butt"></path><path d="M246.48199,186.06131l-3.63629,-10.20292l3.16069,-1.12645c0,0 0.70351,0.05107 0.85112,0.46525c0.41791,1.17261 2.71237,6.82294 3.26367,8.82423c0.11501,0.41751 -0.47848,0.91341 -0.47848,0.91341z" data-paper-data="{&quot;index&quot;:null}" fill="#ffe108" stroke="none" stroke-width="0" stroke-linecap="butt"></path><path d="M235.58913,165.69145c0,0 -0.16072,-1.60793 0.98176,-2.25137c0.89884,-0.50623 3.90049,-1.10407 5.68186,-0.79679c1.29054,0.2226 1.59688,1.20373 1.65253,1.67563c0.13249,1.12332 0.26929,4.30765 0.26929,4.30765c0,0 0.26455,1.00524 -0.45243,1.63777c-0.72266,0.63753 -2.4295,0.90263 -3.09652,0.97039c-0.81523,0.08282 -2.55218,0.22905 -3.59544,-0.31072c-0.70374,-0.36412 -0.94045,-1.47615 -0.94045,-1.47615z" fill="#d8bf06" stroke="none" stroke-width="0" stroke-linecap="butt"></path><text transform="translate(244.03674,167.28821) rotate(173.2735) scale(0.0646,-0.06459) skewX(0)" font-size="40" xml:space="preserve" fill="#fbff66" fill-rule="nonzero" stroke="none" stroke-width="1" stroke-linecap="butt" stroke-linejoin="miter" stroke-miterlimit="10" stroke-dasharray="" stroke-dashoffset="0" font-family="Sans Serif" font-weight="normal" text-anchor="start" style="mix-blend-mode: normal"><tspan x="0" dy="0">xamt8</tspan></text><path d="M235.8618,165.79227c0,0 -0.15288,-1.52753 0.9248,-2.1379c0.84786,-0.48021 3.68005,-1.04588 5.36136,-0.75266c1.21805,0.21242 1.50786,1.14465 1.56074,1.59297c0.12586,1.06717 0.25733,4.09214 0.25733,4.09214c0,0 0.25042,0.9551 -0.42572,1.55541c-0.68149,0.60506 -2.29203,0.85562 -2.92146,0.91949c-0.76927,0.07806 -2.4083,0.21569 -3.39323,-0.29784c-0.66439,-0.3464 -0.8886,-1.40292 -0.8886,-1.40292z" fill="url(#color-4)" stroke="none" stroke-width="0" stroke-linecap="butt"></path><path d="M239.36725,162.98137c0.89396,-0.11463 1.82235,-0.14612 2.54066,-0.02085c1.21805,0.21242 1.50786,1.14465 1.56074,1.59297c0.12586,1.06717 0.25733,4.09214 0.25733,4.09214c0,0 0.25042,0.9551 -0.42573,1.55542c-0.68149,0.60506 -2.29203,0.85562 -2.92146,0.91949c-0.13047,0.01323 -1.14531,-8.12201 -1.01153,-8.13917z" fill="url(#color-5)" stroke="none" stroke-width="0" stroke-linecap="butt"></path><path d="M237.11499,163.11707c-0.36567,-0.40727 1.43089,-0.27835 2.91204,-0.20967c1.47512,0.0684 2.92762,0.16415 2.69176,0.35884c-0.45188,0.37302 -1.61885,1.00569 -1.61885,1.00569c0,0 -0.51898,0.93525 -1.17891,1.0495c-0.35354,0.0612 -0.74486,-0.49642 -1.12449,-0.70272c-0.30705,-0.16686 -1.20832,-1.30226 -1.35595,-1.46667z" fill="url(#color-6)" stroke="none" stroke-width="0" stroke-linecap="butt"></path><path d="M235.91869,171.98232l-0.68669,-1.962" data-paper-data="{&quot;index&quot;:null}" fill="none" stroke="#003e6d" stroke-width="0.15" stroke-linecap="round"></path><path d="M236.08564,191.67027l-0.03121,-6.34879l3.59585,-0.00839l0.03121,6.34879z" data-paper-data="{&quot;index&quot;:null}" fill="url(#color-7)" stroke="#000000" stroke-width="0" stroke-linecap="butt"></path><path d="M230.41185,185.18144c0,0 -0.62593,-0.45428 -0.53966,-0.87866c0.41355,-2.03423 2.31735,-7.82787 2.65432,-9.02625c0.11902,-0.42328 0.81741,-0.52221 0.81741,-0.52221l3.23015,0.90829l-2.93205,10.42713z" data-paper-data="{&quot;index&quot;:null}" fill="#ffe108" stroke="none" stroke-width="0" stroke-linecap="butt"></path><path d="M244.19158,167.16062c0.06765,0.89873 0.05047,1.8275 -0.11224,2.53826c-0.27592,1.20525 -1.22205,1.44585 -1.67252,1.47517c-1.0723,0.0698 -4.1,0.04266 -4.1,0.04266c0,0 -0.9669,0.20005 -1.53099,-0.50661c-0.56854,-0.71224 -0.73441,-2.3337 -0.76522,-2.96561c-0.00638,-0.13098 8.17084,-0.71836 8.18098,-0.58387z" fill="url(#color-8)" stroke="none" stroke-width="0" stroke-linecap="butt"></path><path d="M235.96081,185.15496l0.21429,6l-2.5,4.92857l2.92857,1.35714l3.07143,-6.28571l-0.07143,-6" fill="none" stroke="#000000" stroke-width="0.15" stroke-linecap="round"></path></g></g></svg>