<svg version="1.1" xmlns="http://www.w3.org/2000/svg" xmlns:xlink="http://www.w3.org/1999/xlink" width="194.70141" height="112.57405" viewBox="0,0,194.70141,112.57405"><g transform="translate(-198.38196,-155.5)"><g data-paper-data="{&quot;isPaintingLayer&quot;:true}" fill-rule="nonzero" stroke-linecap="butt" stroke-linejoin="miter" stroke-miterlimit="10" stroke-dasharray="" stroke-dashoffset="0" style="mix-blend-mode: normal"><path d="M338.65388,268.00585v-26.5h9.94598v26.5z" fill="#000000" stroke="none" stroke-width="NaN"></path><path d="M347.17727,249.04761l-0.69655,-1.85916l2.18387,-0.54254l0.69655,1.85916z" fill="#59421a" stroke="none" stroke-width="0"></path><path d="M337.52037,259.90011l0.87419,-2.33204l3.94418,1.13444l-0.87419,2.33204z" fill="#4a3220" stroke="none" stroke-width="0"></path><path d="M337.53508,244.6889v-2.50874h1.29739v2.50874z" fill="#59421a" stroke="none" stroke-width="0"></path><path d="M337.34553,268.07404v-26.46969h1.37153v26.4697z" fill="#a7724a" stroke="none" stroke-width="0"></path><path d="M348.49138,267.89222v-26.36364h1.79027v26.36364z" fill="#a26e47" stroke="none" stroke-width="0"></path><path d="M347.15031,245.09864l-0.82963,-1.56697l3.20116,-1.30042l0.82962,1.56696z" fill="#a26e47" stroke="none" stroke-width="0"></path><path d="M338.16521,265.43767v-1.54546h3.9438v1.54546z" fill="#a26e47" stroke="none" stroke-width="0"></path><path d="M264.87126,223.54221v-26.5h6.20039v26.5z" data-paper-data="{&quot;index&quot;:null}" fill="#000000" stroke="none" stroke-width="NaN"></path><path d="M270.93737,223.61039v-26.46969h1.07249v26.4697z" data-paper-data="{&quot;index&quot;:null}" fill="#a7724a" stroke="none" stroke-width="0"></path><path d="M268.89549,204.91404l0.47428,-1.69165l2.28749,1.26618l-0.47428,1.69165z" data-paper-data="{&quot;index&quot;:null}" fill="#a26e47" stroke="none" stroke-width="0"></path><path d="M269.56845,215.01213l-0.40293,-1.72779l2.33636,-1.07569l0.40293,1.72779z" data-paper-data="{&quot;index&quot;:null}" fill="#a26e47" stroke="none" stroke-width="0"></path><path d="M268.86546,221.00009l0.11404,-1.81111l2.44902,0.30444l-0.11404,1.8111z" data-paper-data="{&quot;index&quot;:null}" fill="#a26e47" stroke="none" stroke-width="0"></path><path d="M263.47488,223.42857v-26.36364h1.55819v26.36364z" data-paper-data="{&quot;index&quot;:null}" fill="#a26e47" stroke="none" stroke-width="0"></path><path d="M263.84398,208.88002l0.51719,-1.56696l1.99563,1.30042l-0.5172,1.56696z" data-paper-data="{&quot;index&quot;:null}" fill="#a26e47" stroke="none" stroke-width="0"></path><path d="M332.20079,192.65909v-26.5h8.71213v26.5z" fill="#000000" stroke="none" stroke-width="NaN"></path><path d="M339.66683,173.70085l-0.61014,-1.85916l1.91295,-0.54254l0.61014,1.85916z" fill="#59421a" stroke="none" stroke-width="0"></path><path d="M331.20792,184.55335l0.76574,-2.33204l3.45488,1.13444l-0.76574,2.33204z" fill="#4a3220" stroke="none" stroke-width="0"></path><path d="M331.22078,169.34214v-2.50874h1.13644v2.50874z" fill="#59421a" stroke="none" stroke-width="0"></path><path d="M331.05476,192.72728v-26.46969h1.20138v26.4697z" fill="#a7724a" stroke="none" stroke-width="0"></path><path d="M340.81791,192.54546v-26.36364h1.56818v26.36364z" fill="#a26e47" stroke="none" stroke-width="0"></path><path d="M339.64321,169.75188l-0.72671,-1.56697l2.80404,-1.30042l0.7267,1.56696z" fill="#a26e47" stroke="none" stroke-width="0"></path><path d="M331.77275,190.09091v-1.54546h3.45455v1.54546z" fill="#a26e47" stroke="none" stroke-width="0"></path><path d="M261.79765,166.02915v-9.98694h6.88001v9.98694z" fill="#000000" stroke="none" stroke-width="NaN"></path><path d="M260.7005,166.05484v-9.97551h1.19004v9.97552z" fill="#a7724a" stroke="none" stroke-width="0"></path><path d="M260.72547,158.96462l0.4471,-0.65114l2.59244,0.40539l-0.44709,0.65114z" fill="#a26e47" stroke="none" stroke-width="0"></path><path d="M266.54939,163.74139l-0.12653,-0.68254l2.71745,-0.11473l0.12653,0.68254z" fill="#a26e47" stroke="none" stroke-width="0"></path><path d="M267.84574,166.24347v-9.93554h1.52558v9.93554z" fill="#a26e47" stroke="none" stroke-width="0"></path><path d="M267.60317,160.99356l-0.57389,-0.59054l2.21436,-0.49008l0.57388,0.59053z" fill="#a26e47" stroke="none" stroke-width="0"></path><path d="M298.6907,166.02915v-9.98693h6.53557v9.98693z" data-paper-data="{&quot;index&quot;:null}" fill="#000000" stroke="none" stroke-width="NaN"></path><path d="M305.20214,166.05485v-9.97552h1.25901v9.97551z" data-paper-data="{&quot;index&quot;:null}" fill="#a7724a" stroke="none" stroke-width="0"></path><path d="M303.81894,159.37001l-0.41388,-0.65115l2.39985,-0.40539l0.41388,0.65114z" data-paper-data="{&quot;index&quot;:null}" fill="#a26e47" stroke="none" stroke-width="0"></path><path d="M298.31196,163.62667l0.11713,-0.68254l2.51557,0.11473l-0.11713,0.68254z" data-paper-data="{&quot;index&quot;:null}" fill="#a26e47" stroke="none" stroke-width="0"></path><path d="M298.28522,165.98632v-9.93554h0.75319v9.93554z" data-paper-data="{&quot;index&quot;:null}" fill="#a26e47" stroke="none" stroke-width="0"></path><path d="M297.80221,160.50348l0.53125,-0.59054l2.04986,0.49009l-0.53125,0.59053z" data-paper-data="{&quot;index&quot;:null}" fill="#a26e47" stroke="none" stroke-width="0"></path><path d="M302.96011,162.18223l0.11713,-0.68254l2.51557,0.11473l-0.11713,0.68254z" data-paper-data="{&quot;index&quot;:null}" fill="#835a3a" stroke="none" stroke-width="0"></path><path d="M198.38197,265v-109.5h1.06945v109.5z" fill="#828282" stroke="none" stroke-width="0"></path><path d="M387.08338,156.32798v-0.625h6v0.625z" fill="#828282" stroke="none" stroke-width="0"></path><path d="M345.84903,242.69553c0.08988,0.14845 0.13797,0.30505 0.13797,0.46685c0,0.95004 -1.65767,1.72021 -3.70249,1.72021c-2.04481,0 -3.70248,-0.77016 -3.70248,-1.72021c0,-0.1618 0.04807,-0.3184 0.13796,-0.46685" fill="none" stroke="#bea252" stroke-width="0.5"></path><path d="M337.08335,244.7343v-2.31373h1.33491v2.31373z" fill="#59421a" stroke="none" stroke-width="0"></path><path d="M345.69105,244.78374v-2.31373h1.63716v2.31373z" fill="#59421a" stroke="none" stroke-width="0"></path><path d="M346.24058,264.11259c0.08988,0.14845 0.13797,0.30504 0.13797,0.46684c0,0.95004 -1.65767,1.72021 -3.70249,1.72021c-2.04482,0 -3.70248,-0.77017 -3.70248,-1.72021c0,-0.16179 0.04808,-0.31839 0.13796,-0.46684" fill="none" stroke="#bea252" stroke-width="0.5"></path><path d="M337.47492,266.15137v-2.31372h1.33491v2.31372z" fill="#59421a" stroke="none" stroke-width="0"></path><path d="M346.08261,266.20081v-2.31372h1.63715v2.31372z" fill="#59421a" stroke="none" stroke-width="0"></path></g></g></svg>