<svg version="1.1" xmlns="http://www.w3.org/2000/svg" xmlns:xlink="http://www.w3.org/1999/xlink" width="45.95823" height="171.50916" viewBox="0,0,45.95823,171.50916"><defs><radialGradient cx="237.54585" cy="180" r="70.96107" gradientUnits="userSpaceOnUse" id="color-1"><stop offset="0" stop-color="#009bff"></stop><stop offset="1" stop-color="#009bff" stop-opacity="0"></stop></radialGradient><radialGradient cx="237.26481" cy="183.93448" r="19.25083" gradientUnits="userSpaceOnUse" id="color-2"><stop offset="0" stop-color="#000000"></stop><stop offset="1" stop-color="#0073cc"></stop></radialGradient><linearGradient x1="259.76406" y1="166.57923" x2="248.48986" y2="184.95301" gradientUnits="userSpaceOnUse" id="color-3"><stop offset="0" stop-color="#af957e"></stop><stop offset="1" stop-color="#ad8764"></stop></linearGradient><linearGradient x1="259.03046" y1="166.4116" x2="247.75627" y2="184.78539" gradientUnits="userSpaceOnUse" id="color-4"><stop offset="0" stop-color="#c9ab91"></stop><stop offset="1" stop-color="#c99d74"></stop></linearGradient><linearGradient x1="248.26928" y1="166.52707" x2="261.4112" y2="174.47828" gradientUnits="userSpaceOnUse" id="color-5"><stop offset="0" stop-color="#c9ab91"></stop><stop offset="1" stop-color="#c99d74"></stop></linearGradient></defs><g transform="translate(-216.92088,-94.24542)"><g data-paper-data="{&quot;isPaintingLayer&quot;:true}" fill-rule="nonzero" stroke-linejoin="miter" stroke-miterlimit="10" stroke-dasharray="" stroke-dashoffset="0" style="mix-blend-mode: normal"><path d="" fill="#e8e8e8" stroke="none" stroke-width="0" stroke-linecap="butt"></path><path d="M257.92081,180c0,47.22288 -9.12218,85.50458 -20.37496,85.50458c-11.25278,0 -20.37496,-38.28171 -20.37496,-85.50458c0,-47.22288 9.12218,-85.50458 20.37496,-85.50458c11.25278,0 20.37496,38.28171 20.37496,85.50458z" fill="url(#color-1)" stroke="#00daff" stroke-width="0.5" stroke-linecap="butt"></path><path d="M218.01399,203.04478l10.11722,-38.22062h17.42411l10.96032,36.81545z" fill="url(#color-2)" stroke="none" stroke-width="0.5" stroke-linecap="butt"></path><path d="M230.02819,201.85039v-35.26976h13.63015v35.26976z" fill="#1d00ff" stroke="none" stroke-width="0.5" stroke-linecap="butt"></path><path d="M239.05359,216.54565l0.85569,-15.01095l2.52521,0.14395l-0.85569,15.01095z" fill="#6844ab" stroke="none" stroke-width="0.5" stroke-linecap="butt"></path><g data-paper-data="{&quot;index&quot;:null}" stroke-width="0.5"><path d="M238.33249,219.31944l0.23191,-4.06839c0,0 1.18447,-2.1844 2.092,-2.13267c0.68306,0.03894 1.67031,1.61756 2.8461,2.23419c1.23171,0.64596 2.63752,0.33032 2.63752,0.33032l-0.23191,4.06839z" fill="#ababab" stroke="none" stroke-linecap="butt"></path><path d="M241.64277,215.56728l-1.97205,0.02833l1.35057,-1.47121" fill="none" stroke="#000000" stroke-linecap="round"></path></g><path d="M230.73077,216.18312v-15.17583h3.51292v15.17583z" fill="#6844ab" stroke="none" stroke-width="0.5" stroke-linecap="butt"></path><g stroke-width="0.5"><path d="M227.21785,218.71243v-4.07499c0,0 1.38557,0.39513 2.65205,-0.17968c1.20897,-0.54871 2.28447,-2.06859 2.96863,-2.06859c0.90901,0 1.96724,2.24827 1.96724,2.24827v4.07499z" fill="#ababab" stroke="none" stroke-linecap="butt"></path><path d="M232.41698,213.37278l1.26465,1.54569l-1.96724,-0.14052" fill="none" stroke="#000000" stroke-linecap="round"></path></g><path d="M227.0184,161.82689l6.18928,17.28425l-3.96097,1.41838l-6.18928,-17.28425z" fill="#ffbc75" stroke="none" stroke-width="0.5" stroke-linecap="butt"></path><path d="M231.90042,174.70411l1.67626,4.68115l-4.44109,1.5903l-1.67626,-4.68115z" fill="#979797" stroke="none" stroke-width="0.5" stroke-linecap="butt"></path><path d="M258.18491,175.79991l-16.14101,8.7476l-2.00466,-3.69898l16.141,-8.7476z" fill="#ffbc75" stroke="none" stroke-width="0.5" stroke-linecap="butt"></path><path d="M246.20065,182.58479l-4.37152,2.36914l-2.24764,-4.14734l4.37152,-2.36914z" fill="#979797" stroke="none" stroke-width="0.5" stroke-linecap="butt"></path><path d="M231.22258,152.45867v-5.62068c0,0 12.251,-13.48963 14.33273,-13.48963c1.66539,0 -2.81034,13.48963 -2.81034,13.48963v5.62068z" fill="#6684ff" stroke="none" stroke-width="0.5" stroke-linecap="butt"></path><path d="M235.85964,143.46559c0,-0.38803 0.31456,-0.70258 0.70258,-0.70258c0.38803,0 0.70258,0.31456 0.70258,0.70258c0,0.38803 -0.31456,0.70258 -0.70258,0.70258c-0.38803,0 -0.70258,-0.31456 -0.70258,-0.70258z" fill="#ffffff" stroke="none" stroke-width="0.5" stroke-linecap="butt"></path><path d="M239.51308,144.30869c0,-0.38803 0.31456,-0.70258 0.70258,-0.70258c0.38803,0 0.70258,0.31456 0.70258,0.70258c0,0.38803 -0.31456,0.70258 -0.70258,0.70258c-0.38803,0 -0.70258,-0.31456 -0.70258,-0.70258z" fill="#ffffff" stroke="none" stroke-width="0.5" stroke-linecap="butt"></path><path d="M241.48032,138.40697c0,-0.38803 0.31456,-0.70258 0.70258,-0.70258c0.38803,0 0.70258,0.31456 0.70258,0.70258c0,0.38803 -0.31456,0.70258 -0.70258,0.70258c-0.38803,0 -0.70258,-0.31456 -0.70258,-0.70258z" fill="#ffffff" stroke="none" stroke-width="0.5" stroke-linecap="butt"></path><path d="M231.64413,148.5242c0,-0.38803 0.31456,-0.70258 0.70258,-0.70258c0.38803,0 0.70258,0.31456 0.70258,0.70258c0,0.38803 -0.31456,0.70258 -0.70258,0.70258c-0.38803,0 -0.70258,-0.31456 -0.70258,-0.70258z" fill="#ffffff" stroke="none" stroke-width="0.5" stroke-linecap="butt"></path><path d="M237.26481,148.5242c0,-0.38803 0.31456,-0.70258 0.70258,-0.70258c0.38803,0 0.70258,0.31456 0.70258,0.70258c0,0.38803 -0.31456,0.70258 -0.70258,0.70258c-0.38803,0 -0.70258,-0.31456 -0.70258,-0.70258z" fill="#ffffff" stroke="none" stroke-width="0.5" stroke-linecap="butt"></path><path d="M241.19929,149.64833c0,-0.38803 0.31456,-0.70258 0.70258,-0.70258c0.38803,0 0.70258,0.31456 0.70258,0.70258c0,0.38803 -0.31456,0.70258 -0.70258,0.70258c-0.38803,0 -0.70258,-0.31456 -0.70258,-0.70258z" fill="#ffffff" stroke="none" stroke-width="0.5" stroke-linecap="butt"></path><path d="M233.75189,201.63961v-35.69131h5.33965v35.69131z" fill="#cccccc" stroke="none" stroke-width="0.5" stroke-linecap="butt"></path><path d="M244.18949,158.64501c0,4.20811 -3.34312,7.61946 -7.46707,7.61946c-4.12395,0 -7.46707,-3.41135 -7.46707,-7.61946c0,-4.20811 3.34312,-7.61946 7.46707,-7.61946c4.12395,0 7.46707,3.41135 7.46707,7.61946z" fill="#ffbc75" stroke="none" stroke-width="0.5" stroke-linecap="butt"></path><path d="M229.53638,161.76792l1.6862,-2.52931l12.92756,-0.8431l-1.40517,3.09137c0,0 -3.95847,12.64653 -5.90171,12.64653c-1.89641,0 -7.30688,-12.36549 -7.30688,-12.36549zM234.62016,167.18412c-0.20448,0.81793 0.61345,1.02241 0.61345,1.02241c0.14851,0.03634 0.3122,0.08078 0.48552,0.12636c0,0.48129 0,0.93198 0,1.30399c0,0 0,0.8431 0.8431,0.8431c0.8431,0 0.8431,-0.8431 0.8431,-0.8431c0,-0.0696 0,-0.9823 0,-1.05189c0.24384,-0.01536 0.47466,-0.06701 0.67886,-0.17201c1.22333,-0.62904 1.66974,-2.85335 0.76041,-3.86881c-0.28933,-0.3231 -0.79123,-0.35983 -1.20354,-0.49435c-1.10281,-0.35979 -3.17721,-0.85504 -3.58557,0.89681c-0.15454,0.66296 0.19738,1.34075 0.75537,1.85289c-0.08111,0.0923 -0.14878,0.21699 -0.19069,0.38461z" fill="#e8e8e8" stroke="none" stroke-width="0.5" stroke-linecap="butt"></path><path d="M234.03292,153.3369c0,-0.15521 0.12582,-0.28103 0.28103,-0.28103c0.15521,0 0.28103,0.12582 0.28103,0.28103c0,0.15521 -0.12582,0.28103 -0.28103,0.28103c-0.15521,0 -0.28103,-0.12582 -0.28103,-0.28103z" fill="#000000" stroke="none" stroke-width="0.5" stroke-linecap="butt"></path><path d="M240.21567,153.61794c0,-0.15521 0.12582,-0.28103 0.28103,-0.28103c0.15521,0 0.28103,0.12582 0.28103,0.28103c0,0.15521 -0.12582,0.28103 -0.28103,0.28103c-0.15521,0 -0.28103,-0.12582 -0.28103,-0.28103z" fill="#000000" stroke="none" stroke-width="0.5" stroke-linecap="butt"></path><g stroke-width="0.1"><g><path d="M249.14624,184.92972c0,0 -1.18154,-0.65262 -0.96608,-1.44643c0.04827,-0.17785 1.17756,0.06096 1.24099,-0.14674c1.13972,-3.73215 3.51569,-12.46012 4.33238,-16.0551c0.15915,-0.70055 -0.44525,-1.3416 -0.37964,-1.5953c0.09069,-0.35068 0.90285,-0.59444 0.90285,-0.59444c0,0 0.63316,0.38444 1.12971,0.22449c0.18302,-0.05896 0.28029,-0.23843 0.46287,-0.35842c0.28059,-0.18441 0.63028,-0.30959 0.76976,-0.27462c0.2399,0.06014 0.41392,0.35758 0.57057,0.7025c0.12737,0.28043 0.23092,0.6 0.44853,0.78627c0.11882,0.1017 0.21103,-0.03627 0.34374,-0.02181c0.33686,0.03672 0.70114,0.05118 0.70114,0.05118c0,0 0.86141,0.66477 0.74335,1.12127c-0.02363,0.09136 -0.8947,0.30305 -0.93413,0.44218c-0.68039,2.40048 -3.38722,11.98802 -4.42658,16.47291c-0.07675,0.33119 1.08338,0.93837 1.01184,1.20538c-0.24815,0.92621 -1.52499,0.59628 -1.52499,0.59628c0,0 -0.2247,-0.09709 -0.54085,-0.20203c-0.18256,-0.0606 -0.41094,-0.18971 -0.60465,-0.13437c-0.49092,0.14026 -0.88264,0.92387 -1.23749,0.83492c-0.15844,-0.03972 -0.32375,-0.05253 -0.44576,-0.31661c-0.09087,-0.19668 -0.13431,-0.63161 -0.25819,-0.79227c-0.03406,-0.04418 -0.06537,-0.13715 -0.10428,-0.17035c-0.21229,-0.18119 -0.55275,-0.0717 -0.77011,-0.11217c-0.30945,-0.05761 -0.465,-0.21671 -0.465,-0.21671z" fill="url(#color-3)" stroke="#000000" stroke-linecap="butt"></path><path d="M248.41264,184.7621c0,0 -1.18154,-0.65262 -0.96608,-1.44643c0.04827,-0.17785 1.17756,0.06096 1.24099,-0.14674c1.13972,-3.73215 3.51569,-12.46012 4.33238,-16.0551c0.15915,-0.70055 -0.44525,-1.3416 -0.37964,-1.5953c0.09069,-0.35068 0.90285,-0.59444 0.90285,-0.59444c0,0 0.63316,0.38444 1.12971,0.22449c0.18302,-0.05896 0.28029,-0.23843 0.46287,-0.35842c0.28059,-0.18441 0.63028,-0.30959 0.76976,-0.27462c0.2399,0.06014 0.41392,0.35758 0.57057,0.7025c0.12737,0.28043 0.23092,0.6 0.44853,0.78627c0.11882,0.1017 0.21103,-0.03627 0.34374,-0.02181c0.33686,0.03672 0.70114,0.05118 0.70114,0.05118c0,0 0.86141,0.66477 0.74335,1.12127c-0.02363,0.09136 -0.8947,0.30305 -0.93413,0.44218c-0.68039,2.40048 -3.38722,11.98802 -4.42658,16.47291c-0.07675,0.33119 1.08338,0.93838 1.01184,1.20538c-0.24815,0.92621 -1.52499,0.59628 -1.52499,0.59628c0,0 -0.2247,-0.09709 -0.54085,-0.20203c-0.18256,-0.0606 -0.41094,-0.18971 -0.60465,-0.13437c-0.49092,0.14026 -0.88264,0.92387 -1.23749,0.83492c-0.15844,-0.03972 -0.32375,-0.05253 -0.44576,-0.31661c-0.09087,-0.19668 -0.13431,-0.63161 -0.25819,-0.79227c-0.03406,-0.04418 -0.06537,-0.13715 -0.10428,-0.17035c-0.21229,-0.18119 -0.55275,-0.0717 -0.77011,-0.11217c-0.30945,-0.05761 -0.465,-0.21671 -0.465,-0.21671z" fill="url(#color-4)" stroke="#000000" stroke-linecap="butt"></path><path d="M255.18465,166.67003l-1.25478,-0.31791" fill="none" stroke="#a75900" stroke-linecap="round"></path><path d="M255.4256,165.91383l0.81461,0.21734" fill="none" stroke="#a75900" stroke-linecap="round"></path><path d="M253.69561,165.64334l-0.61753,-0.26591" fill="none" stroke="#a75900" stroke-linecap="round"></path><path d="M256.12397,168.31995l0.9055,0.1601" fill="none" stroke="#a75900" stroke-linecap="round"></path><path d="M252.66823,169.58965l0.53651,0.21619" fill="none" stroke="#a75900" stroke-linecap="round"></path><path d="M254.56132,170.41224l0.89564,0.26706" fill="none" stroke="#a75900" stroke-linecap="round"></path><path d="M253.86243,174.2776l-1.17922,-0.44106" fill="none" stroke="#a75900" stroke-linecap="round"></path><path d="M253.70127,176.72133l0.33395,0.09191" fill="none" stroke="#a75900" stroke-linecap="round"></path><path d="M253.08408,172.27444l-0.54637,-0.10924" fill="none" stroke="#a75900" stroke-linecap="round"></path><path d="M255.63415,172.93512l-0.53651,-0.21619" fill="none" stroke="#a75900" stroke-linecap="round"></path><path d="M252.48595,175.9756l-0.8398,-0.17629" fill="none" stroke="#a75900" stroke-linecap="round"></path><path d="M252.42325,179.44029l-1.73104,-0.72315" fill="none" stroke="#a75900" stroke-linecap="round"></path><path d="M253.07811,178.37305l0.69309,0.14277" fill="none" stroke="#a75900" stroke-linecap="round"></path><path d="M251.0339,177.79675l0.52664,0.32315" fill="none" stroke="#a75900" stroke-linecap="round"></path><path d="M250.4259,181.60488l0.53651,0.21619" fill="none" stroke="#a75900" stroke-linecap="round"></path><path d="M253.63401,182.55632l-0.68322,-0.24972" fill="none" stroke="#a75900" stroke-linecap="round"></path><path d="M250.16629,183.02764l0.55183,0.2821" fill="none" stroke="#a75900" stroke-linecap="round"></path><path d="M252.05497,184.13004l-0.38979,-0.18267" fill="none" stroke="#a75900" stroke-linecap="round"></path><path d="M251.99701,183.13394l0.30876,0.13295" fill="none" stroke="#a75900" stroke-linecap="round"></path><path d="M248.45373,183.72841l0.63285,0.33181" fill="none" stroke="#a75900" stroke-linecap="round"></path><path d="M250.66756,185.48233l-0.24306,-0.14914" fill="none" stroke="#a75900" stroke-linecap="round"></path><path d="M257.99416,167.99843l0.38979,0.18267" fill="none" stroke="#703c00" stroke-linecap="round"></path><path d="M257.23008,165.6085l-0.25839,-0.21505" fill="none" stroke="#703c00" stroke-linecap="round"></path><path d="M251.45479,185.88062l0.28687,0.13836" fill="none" stroke="#703c00" stroke-linecap="round"></path><path d="M254.89293,185.73016l-0.33724,-0.05625" fill="none" stroke="#703c00" stroke-linecap="round"></path><path d="M254.06673,184.1685l-0.25985,-0.12178" fill="none" stroke="#703c00" stroke-linecap="round"></path><path d="M254.41735,181.29482l0.20584,0.08864" fill="none" stroke="#703c00" stroke-linecap="round"></path><path d="M255.67764,176.75689l-0.17884,-0.07207" fill="none" stroke="#703c00" stroke-linecap="round"></path><path d="M256.80277,173.52977l-0.48907,-0.11175" fill="none" stroke="#703c00" stroke-linecap="round"></path><path d="M256.1472,174.29522l0.24964,0.07784" fill="none" stroke="#703c00" stroke-linecap="round"></path><path d="M257.22056,170.54663l0.27664,0.09441" fill="none" stroke="#703c00" stroke-linecap="round"></path><path d="M258.93773,166.77874l0.36425,0.07283" fill="none" stroke="#703c00" stroke-linecap="round"></path><path d="M259.0669,167.23468l0.24964,0.07784" fill="none" stroke="#703c00" stroke-linecap="round"></path><path d="M256.96843,165.08068l-0.30729,-0.22622" fill="none" stroke="#703c00" stroke-linecap="round"></path></g><g><g stroke="#000000" stroke-linecap="butt"><path d="M261.65814,174.6156c0,0 -0.47485,0.89024 -1.044,0.74806c-0.12752,-0.03186 0.0498,-0.87422 -0.0991,-0.91665c-2.67529,-0.76239 -8.93318,-2.3308 -11.51158,-2.85676c-0.50244,-0.10249 -0.96605,0.35968 -1.14797,0.31665c-0.25146,-0.05948 -0.42243,-0.65611 -0.42243,-0.65611c0,0 0.2794,-0.47783 0.16702,-0.84237c-0.04142,-0.13437 -0.16985,-0.2025 -0.25513,-0.33519c-0.13105,-0.20392 -0.21919,-0.46036 -0.19336,-0.56453c0.04442,-0.17915 0.25899,-0.31472 0.50757,-0.43846c0.20211,-0.10061 0.4322,-0.18443 0.56712,-0.34985c0.07367,-0.09032 -0.02498,-0.15563 -0.01392,-0.25432c0.02809,-0.25051 0.04034,-0.52085 0.04034,-0.52085c0,0 0.48194,-0.65322 0.80928,-0.57578c0.06551,0.0155 0.21314,0.65651 0.31289,0.68267c1.72099,0.45132 8.59469,2.24599 11.81125,2.91736c0.23753,0.04958 0.67962,-0.82379 0.87107,-0.77666c0.66411,0.16349 0.42059,1.11724 0.42059,1.11724c0,0 -0.07089,0.16871 -0.14789,0.40537c-0.04447,0.13666 -0.13838,0.3088 -0.0996,0.45117c0.09826,0.3608 0.65919,0.63386 0.59348,0.89886c-0.02934,0.11833 -0.03938,0.24114 -0.22971,0.33741c-0.14176,0.07171 -0.45442,0.11351 -0.57047,0.20888c-0.03191,0.02623 -0.09885,0.05149 -0.12291,0.08106c-0.13124,0.16136 -0.05432,0.41131 -0.0845,0.57333c-0.04296,0.23066 -0.15805,0.34947 -0.15805,0.34947z" fill="#ad907c"></path><path d="M261.3978,173.99226c0,0 -0.47485,0.89024 -1.044,0.74806c-0.12752,-0.03186 0.0498,-0.87422 -0.0991,-0.91665c-2.67529,-0.76239 -8.93318,-2.3308 -11.51158,-2.85676c-0.50244,-0.10249 -0.96605,0.35968 -1.14797,0.31665c-0.25146,-0.05948 -0.42243,-0.65611 -0.42243,-0.65611c0,0 0.2794,-0.47783 0.16702,-0.84237c-0.04142,-0.13437 -0.16985,-0.2025 -0.25513,-0.33519c-0.13105,-0.20392 -0.21919,-0.46036 -0.19336,-0.56453c0.04442,-0.17915 0.25899,-0.31472 0.50757,-0.43846c0.20211,-0.10061 0.4322,-0.18443 0.56712,-0.34985c0.07367,-0.09032 -0.02498,-0.15563 -0.01392,-0.25432c0.02809,-0.25051 0.04034,-0.52085 0.04034,-0.52085c0,0 0.48194,-0.65322 0.80928,-0.57578c0.06551,0.0155 0.21314,0.65651 0.31289,0.68267c1.72099,0.45132 8.59469,2.24599 11.81125,2.91736c0.23753,0.04958 0.67962,-0.82379 0.87107,-0.77666c0.66411,0.16349 0.42059,1.11724 0.42059,1.11724c0,0 -0.07089,0.16871 -0.14789,0.40537c-0.04447,0.13666 -0.13838,0.3088 -0.0996,0.45117c0.09826,0.3608 0.6592,0.63385 0.59348,0.89886c-0.02934,0.11833 -0.03938,0.24114 -0.22971,0.33741c-0.14176,0.07171 -0.45442,0.11351 -0.57047,0.20888c-0.03191,0.02623 -0.09885,0.05149 -0.12291,0.08106c-0.13124,0.16136 -0.05432,0.41131 -0.0845,0.57333c-0.04296,0.23066 -0.15805,0.34947 -0.15805,0.34947z" fill="url(#color-5)"></path></g><path d="M250.57357,168.69301l-0.79977,-0.31832" fill="none" stroke="#a75900" stroke-linecap="round"></path><path d="M254.3513,169.78985l-0.9703,-0.30145" fill="none" stroke="#a75900" stroke-linecap="round"></path><path d="M250.80922,170.27253l-0.60963,-0.27089" fill="none" stroke="#a75900" stroke-linecap="round"></path><path d="M254.74104,171.98997l-0.73821,-0.23168" fill="none" stroke="#a75900" stroke-linecap="round"></path><path d="M255.24676,171.34388l0.52847,0.11995" fill="none" stroke="#a75900" stroke-linecap="round"></path><path d="M257.58136,171.51043l0.61237,0.16464" fill="none" stroke="#a75900" stroke-linecap="round"></path><path d="M259.33499,172.76766l-0.57042,-0.1423" fill="none" stroke="#a75900" stroke-linecap="round"></path><path d="M260.71807,171.08108l0.48653,0.09761" fill="none" stroke="#a75900" stroke-linecap="round"></path><path d="M262.00203,172.41123l-0.31599,-0.11447" fill="none" stroke="#a75900" stroke-linecap="round"></path><path d="M260.82555,173.5078l0.38028,0.09487" fill="none" stroke="#a75900" stroke-linecap="round"></path><path d="M247.78068,168.98241l0.38028,0.09487" fill="none" stroke="#a75900" stroke-linecap="round"></path><path d="M249.09439,168.3359l-0.27404,-0.09212" fill="none" stroke="#a75900" stroke-linecap="round"></path><path d="M248.76278,170.47488l-0.44183,-0.1815" fill="none" stroke="#a75900" stroke-linecap="round"></path><path d="M258.93702,170.88628l0.46144,0.2458" fill="none" stroke="#a75900" stroke-linecap="round"></path><path d="M248.37468,171.50674l-0.37754,-0.20111" fill="none" stroke="#5e3200" stroke-linecap="round"></path><path d="M250.49406,171.77406l-0.86132,-0.40496" fill="none" stroke="#5e3200" stroke-linecap="round"></path><path d="M262.47485,173.04006l0.27404,0.09212" fill="none" stroke="#5e3200" stroke-linecap="round"></path><path d="M262.14392,171.03282l0.2517,0.13407" fill="none" stroke="#5e3200" stroke-linecap="round"></path><path d="M261.45245,174.75721l-0.42497,-0.01096" fill="none" stroke="#5e3200" stroke-linecap="round"></path><path d="M258.29532,173.50629l-0.76056,-0.18973" fill="none" stroke="#5e3200" stroke-linecap="round"></path><path d="M259.8976,174.03669l-0.38028,-0.09487" fill="none" stroke="#5e3200" stroke-linecap="round"></path><path d="M252.58835,172.18957l0.67393,0.25128" fill="none" stroke="#5e3200" stroke-linecap="round"></path><path d="M256.01363,172.93711l-0.33833,-0.07252" fill="none" stroke="#5e3200" stroke-linecap="round"></path></g></g></g></g></svg>