<svg version="1.1" xmlns="http://www.w3.org/2000/svg" xmlns:xlink="http://www.w3.org/1999/xlink" width="255.15921" height="78.67678" viewBox="0,0,255.15921,78.67678"><g transform="translate(-214.14798,-17.05372)"><g data-paper-data="{&quot;isPaintingLayer&quot;:true}" fill-rule="nonzero" stroke-linejoin="miter" stroke-miterlimit="10" stroke-dasharray="" stroke-dashoffset="0" style="mix-blend-mode: normal"><path d="M215.14798,85.32149c0,-12.74828 0,-34.75185 0,-42.02357c0,-4.59582 7.98021,-9.92148 16.84266,-9.92148c27.27225,0 169.22845,0 219.0287,0c10.81842,0 17.28785,3.69338 17.28785,9.15276c0,12.86427 0,35.5341 0,42.7923c0,4.40002 -6.64776,9.409 -17.73302,9.409c-50.07659,0 -190.7088,0 -218.13833,0c-9.06978,0 -17.28784,-3.81273 -17.28784,-9.409z" fill-opacity="0.56452" fill="#291800" stroke="#fff4ce" stroke-width="2" stroke-linecap="butt"></path><text transform="translate(225.5,27.56815) scale(0.25567,0.25567)" font-size="40" xml:space="preserve" fill="#fff4ce" fill-rule="nonzero" stroke="none" stroke-width="1" stroke-linecap="butt" stroke-linejoin="miter" stroke-miterlimit="10" stroke-dasharray="" stroke-dashoffset="0" font-family="Impact" font-weight="normal" text-anchor="start" style="mix-blend-mode: normal"><tspan x="0" dy="0">UNLOCKED ACHIVEMENT</tspan></text><text transform="translate(272.30866,47.89518) scale(0.30293,0.30293)" font-size="40" xml:space="preserve" fill="#fff4ce" fill-rule="nonzero" stroke="none" stroke-width="1" stroke-linecap="butt" stroke-linejoin="miter" stroke-miterlimit="10" stroke-dasharray="" stroke-dashoffset="0" font-family="Sans Serif" font-weight="normal" text-anchor="start" style="mix-blend-mode: normal"><tspan x="0" dy="0">Extrovert</tspan></text><path d="M274.70702,62.80969c0,13.46649 -11.03605,24.38323 -24.64971,24.38323c-13.61366,0 -24.64971,-10.91674 -24.64971,-24.38323c0,-13.46649 11.03605,-24.38323 24.64971,-24.38323c13.61366,0 24.64971,10.91674 24.64971,24.38323z" fill="#a0a0a0" stroke="none" stroke-width="0" stroke-linecap="butt"></path><text transform="translate(282.43503,61.01093) scale(0.2748,0.2748)" font-size="40" xml:space="preserve" fill="#fff4ce" fill-rule="nonzero" stroke="none" stroke-width="1" stroke-linecap="butt" stroke-linejoin="miter" stroke-miterlimit="10" stroke-dasharray="" stroke-dashoffset="0" font-family="Serif" font-weight="normal" text-anchor="start" style="mix-blend-mode: normal"><tspan x="0" dy="0">Chat with a player.</tspan></text><g fill="#ff6565"><path d="M239.74707,76.5409v-14.4397h6.18844l-2.75042,14.4397z" stroke="none" stroke-width="0" stroke-linecap="butt"></path><path d="M238.02806,77.2285v-1.62392h6.36034v1.62392z" stroke="none" stroke-width="0" stroke-linecap="butt"></path><path d="M239.40001,64.93901l-1.25269,-7.45919l15.25744,-2.56232l1.25269,7.45919z" stroke="none" stroke-width="0" stroke-linecap="butt"></path><path d="M242.36558,60.90877c0,1.3766 -1.4623,2.49257 -3.26612,2.49257c-1.80382,0 -3.26612,-1.11597 -3.26612,-2.49257c0,-1.3766 1.4623,-2.49257 3.26612,-2.49257c1.80382,0 3.26612,1.11597 3.26612,2.49257z" stroke="none" stroke-width="0" stroke-linecap="butt"></path><path d="M254.21424,62.85134l-1.36725,-8.14138l8.52038,-5.31309l2.81596,14.69193z" stroke="none" stroke-width="0" stroke-linecap="butt"></path><path d="M262.85687,65.53172l-2.76161,-16.44413l2.37338,-0.39858l2.76161,16.44413z" stroke="none" stroke-width="0" stroke-linecap="butt"></path><path d="M267.46315,48.61784l-3.26612,2.75042" stroke="#880000" stroke-width="0.5" stroke-linecap="round"></path><path d="M267.29125,60.99472l2.57852,3.26612" stroke="#880000" stroke-width="0.5" stroke-linecap="round"></path><path d="M265.74414,55.83769l4.29753,-0.5157" stroke="#880000" stroke-width="0.5" stroke-linecap="round"></path><path d="M265.05653,56.18149c0,1.32914 -0.61571,2.40662 -1.37521,2.40662c-0.7595,0 -1.37521,-1.07748 -1.37521,-2.40662c0,-1.32914 0.61571,-2.40662 1.37521,-2.40662c0.7595,0 1.37521,1.07748 1.37521,2.40662z" stroke="none" stroke-width="0" stroke-linecap="butt"></path></g></g></g></svg>