<svg version="1.1" xmlns="http://www.w3.org/2000/svg" xmlns:xlink="http://www.w3.org/1999/xlink" width="41.13509" height="34.5149" viewBox="0,0,41.13509,34.5149"><defs><linearGradient x1="223.5775" y1="172.16021" x2="260.79319" y2="172.16021" gradientUnits="userSpaceOnUse" id="color-1"><stop offset="0" stop-color="#ffc200"></stop><stop offset="1" stop-color="#ab7400"></stop></linearGradient></defs><g transform="translate(-221.68245,-162.18418)"><g data-paper-data="{&quot;isPaintingLayer&quot;:true}" fill-rule="nonzero" stroke-linejoin="miter" stroke-miterlimit="10" stroke-dasharray="" stroke-dashoffset="0" style="mix-blend-mode: normal"><text transform="translate(237.82496,181.98767) scale(0.05676,0.05676)" font-size="40" xml:space="preserve" fill="#ffffff" fill-rule="nonzero" stroke="none" stroke-width="1" stroke-linecap="butt" stroke-linejoin="miter" stroke-miterlimit="10" stroke-dasharray="" stroke-dashoffset="0" font-family="Sans Serif" font-weight="normal" text-anchor="start" style="mix-blend-mode: normal"><tspan x="0" dy="0">xAmt8</tspan></text><path d="M223.5775,181.13624v-5.00035c0,0 4.3057,-7.20898 9.6093,-10.25711c2.9566,-1.69924 6.62436,-2.6946 8.83461,-2.6946c2.45927,0 6.61445,1.77354 9.85029,3.72191c4.96107,2.98716 8.92151,9.22981 8.92151,9.22981v5.00035z" fill="#896a37" stroke="url(#color-1)" stroke-width="2" stroke-linecap="butt"></path><path d="M222.68246,192.95978c0,-3.71149 0,-10.11752 0,-12.23459c0,-1.33801 1.23364,-2.88851 2.60366,-2.88851c4.21594,0 26.1605,0 33.85897,0c1.67239,0 2.67247,1.07528 2.67247,2.6647c0,3.74526 0,10.34527 0,12.45839c0,1.281 -1.02765,2.7393 -2.74129,2.7393c-7.74118,0 -29.48109,0 -33.72133,0c-1.40207,0 -2.67247,-1.11002 -2.67247,-2.7393z" fill="#896a37" stroke="#ffc200" stroke-width="2" stroke-linecap="butt"></path><path d="M261.20305,185.4808l-37.62555,-0.40986" fill="none" stroke="#71572d" stroke-width="0.5" stroke-linecap="round"></path><path d="M261.44898,190.07128l-38.28134,-0.65578" fill="none" stroke="#71572d" stroke-width="0.5" stroke-linecap="round"></path><path d="M223.87802,181.64169l37.46161,0.49184" data-paper-data="{&quot;index&quot;:null}" fill="none" stroke="#71572d" stroke-width="0.5" stroke-linecap="round"></path><path d="M240.79181,184.5791v-2.13129h1.63945v2.13129z" fill="#ffc200" stroke="none" stroke-width="0" stroke-linecap="butt"></path><path d="M243.33296,181.17722c0,0.83754 -0.75235,1.5165 -1.68044,1.5165c-0.92809,0 -1.68044,-0.67896 -1.68044,-1.5165c0,-0.83754 0.75236,-1.5165 1.68044,-1.5165c0.92809,0 1.68044,0.67896 1.68044,1.5165z" fill="#ffc200" stroke="none" stroke-width="0" stroke-linecap="butt"></path><path d="M224.1595,188.04825l1.83934,1.53251v0l-1.90957,0.76165z" fill="#ffc200" stroke="none" stroke-width="0" stroke-linecap="butt"></path><path d="M261.17568,194.10157l-37.54358,-0.08197" data-paper-data="{&quot;index&quot;:null}" fill="none" stroke="#71572d" stroke-width="0.5" stroke-linecap="round"></path><path d="M223.92719,183.96322l1.83934,1.53251v0l-1.90957,0.76165z" fill="#ffc200" stroke="none" stroke-width="0" stroke-linecap="butt"></path><path d="M223.61291,180.28806l1.83934,1.53251v0l-1.90957,0.76166z" fill="#ffc200" stroke="none" stroke-width="0" stroke-linecap="butt"></path><path d="M260.51358,195.26079l-1.90957,-0.76165v0l1.83934,-1.53251z" data-paper-data="{&quot;index&quot;:null}" fill="#ffc200" stroke="none" stroke-width="0" stroke-linecap="butt"></path><path d="M260.82786,190.68392l-1.90957,-0.76165v0l1.83934,-1.53251z" data-paper-data="{&quot;index&quot;:null}" fill="#ffc200" stroke="none" stroke-width="0" stroke-linecap="butt"></path><path d="M261.06017,186.5989l-1.90957,-0.76165v0l1.83934,-1.53251z" data-paper-data="{&quot;index&quot;:null}" fill="#ffc200" stroke="none" stroke-width="0" stroke-linecap="butt"></path><path d="M261.37445,182.92373l-1.90958,-0.76166v0l1.83934,-1.53251z" data-paper-data="{&quot;index&quot;:null}" fill="#ffc200" stroke="none" stroke-width="0" stroke-linecap="butt"></path><path d="M260.30136,176.05392l-36.06807,-0.24592" fill="none" stroke="#71572d" stroke-width="0.5" stroke-linecap="round"></path><path d="M257.67822,172.61106l-31.7235,0.32789" fill="none" stroke="#71572d" stroke-width="0.5" stroke-linecap="round"></path><path d="M251.94012,168.18453l-21.55887,0.65578" fill="none" stroke="#71572d" stroke-width="0.5" stroke-linecap="round"></path><path d="M236.11935,165.39745l11.4762,-0.08197" fill="none" stroke="#71572d" stroke-width="0.5" stroke-linecap="round"></path><path d="M241.28364,179.82468v-15.98471h1.06565v15.98471z" fill="#ffc200" stroke="none" stroke-width="0" stroke-linecap="butt"></path><path d="M242.6464,181.2491c0,0.50109 -0.44553,0.90731 -0.99512,0.90731c-0.54959,0 -0.99512,-0.40621 -0.99512,-0.90731c0,-0.50109 0.44553,-0.90732 0.99512,-0.90732c0.54959,0 0.99512,0.40623 0.99512,0.90732z" fill="#838383" stroke="none" stroke-width="0" stroke-linecap="butt"></path><path d="M240.90494,183.77494l0.59707,-1.99024h0.04975l0.64683,1.99024z" fill="#838383" stroke="none" stroke-width="0" stroke-linecap="butt"></path><path d="M224.47377,192.62512l1.83934,1.53251v0l-1.90957,0.76165z" fill="#ffc200" stroke="none" stroke-width="0" stroke-linecap="butt"></path><path d="M241.434,165.02345c0,-0.20976 0.17004,-0.3798 0.3798,-0.3798c0.20975,0 0.3798,0.17004 0.3798,0.3798c0,0.20976 -0.17004,0.3798 -0.3798,0.3798c-0.20975,0 -0.3798,-0.17004 -0.3798,-0.3798z" fill="#ffdb63" stroke="none" stroke-width="0.5" stroke-linecap="butt"></path><path d="M241.37674,166.74115c0,-0.20976 0.17004,-0.3798 0.3798,-0.3798c0.20975,0 0.3798,0.17004 0.3798,0.3798c0,0.20976 -0.17004,0.3798 -0.3798,0.3798c-0.20975,0 -0.3798,-0.17004 -0.3798,-0.3798z" fill="#ffdb63" stroke="none" stroke-width="0.5" stroke-linecap="butt"></path><path d="M241.20497,169.20321c0,-0.20976 0.17004,-0.3798 0.3798,-0.3798c0.20975,0 0.3798,0.17004 0.3798,0.3798c0,0.20976 -0.17004,0.3798 -0.3798,0.3798c-0.20975,0 -0.3798,-0.17004 -0.3798,-0.3798z" fill="#ffdb63" stroke="none" stroke-width="0.5" stroke-linecap="butt"></path><path d="M241.26223,170.74915c0,-0.20976 0.17004,-0.3798 0.3798,-0.3798c0.20975,0 0.3798,0.17004 0.3798,0.3798c0,0.20976 -0.17005,0.3798 -0.3798,0.3798c-0.20975,0 -0.3798,-0.17004 -0.3798,-0.3798z" fill="#ffdb63" stroke="none" stroke-width="0.5" stroke-linecap="butt"></path><path d="M241.49126,173.15394c0,-0.20976 0.17004,-0.3798 0.3798,-0.3798c0.20975,0 0.3798,0.17004 0.3798,0.3798c0,0.20976 -0.17004,0.3798 -0.3798,0.3798c-0.20975,0 -0.3798,-0.17004 -0.3798,-0.3798z" fill="#ffdb63" stroke="none" stroke-width="0.5" stroke-linecap="butt"></path><path d="M241.434,175.3297c0,-0.20976 0.17004,-0.3798 0.3798,-0.3798c0.20975,0 0.3798,0.17004 0.3798,0.3798c0,0.20976 -0.17004,0.3798 -0.3798,0.3798c-0.20975,0 -0.3798,-0.17004 -0.3798,-0.3798z" fill="#ffdb63" stroke="none" stroke-width="0.5" stroke-linecap="butt"></path><path d="M241.31949,178.07804c0,-0.20976 0.17004,-0.3798 0.3798,-0.3798c0.20975,0 0.3798,0.17004 0.3798,0.3798c0,0.20976 -0.17004,0.3798 -0.3798,0.3798c-0.20975,0 -0.3798,-0.17004 -0.3798,-0.3798z" fill="#ffdb63" stroke="none" stroke-width="0.5" stroke-linecap="butt"></path><path d="M236.1091,195.82771c0,-0.20976 0.17004,-0.3798 0.3798,-0.3798c0.20975,0 0.3798,0.17004 0.3798,0.3798c0,0.20976 -0.17004,0.3798 -0.3798,0.3798c-0.20975,0 -0.3798,-0.17004 -0.3798,-0.3798z" fill="#ffdb63" stroke="none" stroke-width="0.5" stroke-linecap="butt"></path><path d="M239.31549,195.65594c0,-0.20976 0.17004,-0.37979 0.3798,-0.37979c0.20975,0 0.3798,0.17004 0.3798,0.37979c0,0.20976 -0.17004,0.3798 -0.3798,0.3798c-0.20975,0 -0.3798,-0.17004 -0.3798,-0.3798z" fill="#ffdb63" stroke="none" stroke-width="0.5" stroke-linecap="butt"></path><path d="M242.46462,195.7132c0,-0.20976 0.17005,-0.3798 0.3798,-0.3798c0.20975,0 0.3798,0.17004 0.3798,0.3798c0,0.20976 -0.17004,0.3798 -0.3798,0.3798c-0.20975,0 -0.3798,-0.17004 -0.3798,-0.3798z" fill="#ffdb63" stroke="none" stroke-width="0.5" stroke-linecap="butt"></path><path d="M245.21296,195.59868c0,-0.20976 0.17004,-0.3798 0.3798,-0.3798c0.20975,0 0.3798,0.17004 0.3798,0.3798c0,0.20976 -0.17004,0.3798 -0.3798,0.3798c-0.20975,0 -0.3798,-0.17004 -0.3798,-0.3798z" fill="#ffdb63" stroke="none" stroke-width="0.5" stroke-linecap="butt"></path><path d="M247.84678,195.59868c0,-0.20976 0.17004,-0.3798 0.3798,-0.3798c0.20975,0 0.3798,0.17004 0.3798,0.3798c0,0.20976 -0.17004,0.3798 -0.3798,0.3798c-0.20975,0 -0.3798,-0.17004 -0.3798,-0.3798z" fill="#ffdb63" stroke="none" stroke-width="0.5" stroke-linecap="butt"></path></g></g></svg>