<svg version="1.1" xmlns="http://www.w3.org/2000/svg" xmlns:xlink="http://www.w3.org/1999/xlink" width="49.98132" height="70.96971" viewBox="0,0,49.98132,70.96971"><defs><linearGradient x1="248.44726" y1="175.10653" x2="248.44726" y2="215.48485" gradientUnits="userSpaceOnUse" id="color-1"><stop offset="0" stop-color="#808080"></stop><stop offset="1" stop-color="#808080" stop-opacity="0"></stop></linearGradient></defs><g transform="translate(-214.67909,-144.51515)"><g data-paper-data="{&quot;isPaintingLayer&quot;:true}" fill-rule="nonzero" stroke-linejoin="miter" stroke-miterlimit="10" stroke-dasharray="" stroke-dashoffset="0" style="mix-blend-mode: normal"><path d="M230.61307,206.24483v-53.02164h34.04734v53.02164z" fill="#000000" stroke="none" stroke-width="NaN" stroke-linecap="butt"></path><path d="M229.39487,202.85969v-4.96524h1.7733v4.96524z" fill="#e6e6e6" stroke="#000000" stroke-width="2" stroke-linecap="butt"></path><path d="M229.41074,163.33099v-4.96524h1.7733v4.96524z" fill="#e6e6e6" stroke="#000000" stroke-width="2" stroke-linecap="butt"></path><g stroke-linecap="butt"><path d="M215.33959,206.18572v-52.37143h15.90653v52.37143z" fill="#8e6544" stroke="none" stroke-width="0"></path><path d="M216.67909,172.79453v-17.57431h13.06009v17.57431z" fill="none" stroke="#513a27" stroke-width="4"></path><path d="M216.6791,200.91342v-16.87133h12.89265v16.87133z" fill="none" stroke="#513a27" stroke-width="4"></path><text transform="translate(226.92971,164.78056) rotate(-180) scale(0.05156,-0.10825) skewX(0)" font-size="40" xml:space="preserve" fill="#ffffff" fill-rule="nonzero" stroke="none" stroke-width="1" stroke-linecap="butt" stroke-linejoin="miter" stroke-miterlimit="10" stroke-dasharray="" stroke-dashoffset="0" font-family="Sans Serif" font-weight="normal" text-anchor="start" style="mix-blend-mode: normal"><tspan x="0" dy="0">xAmt8</tspan></text><path d="M223.32076,160.02387c2.68172,0 4.85567,1.49497 4.85567,3.33912c0,1.84415 -2.17395,3.33912 -4.85567,3.33912c-2.68172,0 -4.85567,-1.49497 -4.85567,-3.33912c0,-1.84415 2.17395,-3.33912 4.85567,-3.33912z" fill="#d59866" stroke="none" stroke-width="0"></path><path d="M227.33926,164.06596c-0.23117,0 -0.41859,-0.39341 -0.41859,-0.87872c0,-0.4853 0.18741,-0.87872 0.41859,-0.87872c0.23117,0 0.41859,0.39341 0.41859,0.87872c0,0.4853 -0.18741,0.87872 -0.41859,0.87872z" fill="#ab7a52" stroke="none" stroke-width="0.5"></path><path d="M219.30227,164.06596c-0.23117,0 -0.41859,-0.39341 -0.41859,-0.87872c0,-0.4853 0.18741,-0.87872 0.41859,-0.87872c0.23117,0 0.41859,0.39341 0.41859,0.87872c0,0.4853 -0.18741,0.87872 -0.41859,0.87872z" fill="#ab7a52" stroke="none" stroke-width="0.5"></path><path d="M218.5209,176.19223c1.38709,0 2.51155,0.73437 2.51155,1.64027c0,0.9059 -1.12446,1.64027 -2.51155,1.64027c-1.38709,0 -2.51155,-0.73437 -2.51155,-1.64027c0,-0.9059 1.12446,-1.64027 2.51155,-1.64027z" fill="#dadada" stroke="none" stroke-width="0"></path><path d="M215.93549,176.55059c-0.1672,-1.58212 0.25268,-3.12334 0.93784,-3.44243c0.68516,-0.31908 1.37611,0.70481 1.54332,2.28693c0.1672,1.58212 -0.25268,3.12334 -0.93784,3.44243c-0.68516,0.31908 -1.37611,-0.70481 -1.54332,-2.28693z" fill="#fff4ce" stroke="#e6ddbb" stroke-width="2.5"></path><path d="M216.09294,175.82942c-0.10387,-0.9829 0.15699,-1.94039 0.58264,-2.13862c0.42566,-0.19823 0.85493,0.43787 0.9588,1.42076c0.10387,0.9829 -0.15699,1.94039 -0.58264,2.13862c-0.42566,0.19823 -0.85493,-0.43787 -0.9588,-1.42076z" fill="#e6ddbb" stroke="#e6ddbb" stroke-width="0"></path><path d="M219.13365,178.49177l-0.99255,-0.8364l0.39843,-2.08357l0.99255,0.8364z" fill="#e6ddbb" stroke="none" stroke-width="0"></path><path d="M218.68478,178.90519c-0.05608,-0.17031 0.20478,-1.74914 0.22852,-2.02544l0.00551,-0.43446c0.00022,-0.10185 0.01969,-0.19783 0.05253,-0.26857c0.01172,-0.06494 0.0316,-0.12259 0.05762,-0.16622c0.00064,-0.04228 0.00128,-0.08457 0.00189,-0.12685l0.01118,-0.03773l-0.00736,-0.00387l0.05711,-0.47886c0.01538,-0.14147 0.06816,-0.25893 0.14012,-0.29244c0.09956,-0.04637 0.19818,0.08548 0.22027,0.29449v0l0.04633,0.43838l-0.03539,0.01648c0.15127,0.77835 0.17988,1.6146 -0.02109,2.44634c-0.12881,0.53301 -0.41324,1.68338 -0.75726,0.63874z" fill="#fff4ce" stroke="none" stroke-width="0.5"></path></g><g><path d="M236.54769,215.48485v-40.37833c0,0 -2.99101,-5.74923 -2.54036,-5.74923c2.4128,0 28.74616,-0.93592 28.74616,-0.93592c0,0 -4.74949,7.13067 -4.999,12.0101c-0.43941,8.59293 2.59235,35.05338 2.59235,35.05338z" fill="url(#color-1)" stroke="none" stroke-width="0" stroke-linecap="butt"></path><path d="M262.33756,159.87174c0,8.48122 -6.53835,15.3566 -14.60382,15.3566c-8.06547,0 -14.60382,-6.87538 -14.60382,-15.3566c0,-8.48122 6.53835,-15.3566 14.60382,-15.3566c8.06547,0 14.60382,6.87538 14.60382,15.3566z" fill-opacity="0.66129" fill="#ffdb12" stroke="none" stroke-width="NaN" stroke-linecap="butt"></path><path d="M238.5858,171.20727v-7.03684h17.22173v7.03684c0,0 -5.89326,3.51842 -8.88864,3.51842c-2.71826,0 -8.33309,-3.51842 -8.33309,-3.51842z" fill="#ffffff" stroke="none" stroke-width="0" stroke-linecap="butt"></path><path d="M240.42507,164.14287l-0.1337,8.15589" fill="none" stroke="#000000" stroke-width="0.5" stroke-linecap="round"></path><path d="M244.97098,164.14287l0.2674,9.76033" fill="none" stroke="#000000" stroke-width="0.5" stroke-linecap="round"></path><path d="M249.78429,173.9032l-0.2674,-9.62662" fill="none" stroke="#000000" stroke-width="0.5" stroke-linecap="round"></path><path d="M253.79538,164.14287l0.2674,7.75478" fill="none" stroke="#000000" stroke-width="0.5" stroke-linecap="round"></path><path d="M238.95434,167.08434l15.50955,-0.1337" fill="none" stroke="#000000" stroke-width="0.5" stroke-linecap="round"></path><path d="M254.99872,170.42692l-15.77696,0.53481" fill="none" stroke="#000000" stroke-width="0.5" stroke-linecap="round"></path><path d="M240.02397,150.77256l3.34258,4.41221" fill="none" stroke="#000000" stroke-width="0.5" stroke-linecap="round"></path><path d="M239.48916,155.18477l4.01109,-4.54591" fill="none" stroke="#000000" stroke-width="0.5" stroke-linecap="round"></path><path d="M251.92354,150.23775l3.34258,4.67961" fill="none" stroke="#000000" stroke-width="0.5" stroke-linecap="round"></path><path d="M255.26612,150.23775l-2.94146,4.41221" fill="none" stroke="#000000" stroke-width="0.5" stroke-linecap="round"></path></g></g></g></svg>