<svg version="1.1" xmlns="http://www.w3.org/2000/svg" xmlns:xlink="http://www.w3.org/1999/xlink" width="3.66252" height="1.96528" viewBox="0,0,3.66252,1.96528"><defs><radialGradient cx="240.29038" cy="179.85384" r="0.5375" gradientUnits="userSpaceOnUse" id="color-1"><stop offset="0" stop-color="#ffec00"></stop><stop offset="1" stop-color="#ffec00" stop-opacity="0"></stop></radialGradient></defs><g transform="translate(-238.09374,-178.78471)"><g data-paper-data="{&quot;isPaintingLayer&quot;:true}" fill-rule="nonzero" stroke="none" stroke-width="0" stroke-linecap="butt" stroke-linejoin="miter" stroke-miterlimit="10" stroke-dasharray="" stroke-dashoffset="0" style="mix-blend-mode: normal"><path d="M240.69029,179.14881c0.45837,-0.22555 0.92386,-0.21758 1.03968,0.0178c0.11583,0.23538 -0.16188,0.60904 -0.62025,0.83459c-0.45837,0.22555 -0.92386,0.21758 -1.03968,-0.0178c-0.11583,-0.23538 0.16188,-0.60904 0.62025,-0.83459z" data-paper-data="{&quot;index&quot;:null}" fill-opacity="0.45294" fill="#c6c6c6"></path><path d="M239.77996,179.78339c-0.11582,0.23538 -0.5813,0.24335 -1.03968,0.0178c-0.45838,-0.22555 -0.73607,-0.59921 -0.62025,-0.83459c0.11582,-0.23538 0.5813,-0.24335 1.03968,-0.0178c0.45838,0.22555 0.73607,0.59921 0.62025,0.83459z" fill-opacity="0.45294" fill="#c6c6c6"></path><path d="M240.8125,180c0,0.41421 -0.36377,0.75 -0.8125,0.75c-0.44873,0 -0.8125,-0.33579 -0.8125,-0.75c0,-0.41421 0.36377,-0.75 0.8125,-0.75c0.44873,0 0.8125,0.33579 0.8125,0.75z" fill="#000000"></path><path d="M239.75288,179.85384c0,0.29684 0.24066,0.5375 0.5375,0.5375c0.29684,0 0.5375,-0.24066 0.5375,-0.5375c0,-0.29684 -0.24066,-0.5375 -0.5375,-0.5375c-0.29684,0 -0.5375,0.24066 -0.5375,0.5375z" fill="url(#color-1)"></path></g></g></svg>