<svg version="1.1" xmlns="http://www.w3.org/2000/svg" xmlns:xlink="http://www.w3.org/1999/xlink" width="56.92117" height="53.62772" viewBox="0,0,56.92117,53.62772"><defs><linearGradient x1="246.97951" y1="372.25" x2="246.97951" y2="435.90806" gradientUnits="userSpaceOnUse" id="color-1"><stop offset="0" stop-color="#00ffb5"></stop><stop offset="1" stop-color="#00ffb5" stop-opacity="0"></stop></linearGradient><linearGradient x1="215.53687" y1="311.21752" x2="139.08285" y2="313.86911" gradientUnits="userSpaceOnUse" id="color-2"><stop offset="0" stop-color="#00ffb5"></stop><stop offset="1" stop-color="#00ffb5" stop-opacity="0"></stop></linearGradient><linearGradient x1="262.47951" y1="314.75" x2="338.97951" y2="314.75" gradientUnits="userSpaceOnUse" id="color-3"><stop offset="0" stop-color="#00ffb5"></stop><stop offset="1" stop-color="#00ffb5" stop-opacity="0"></stop></linearGradient><radialGradient cx="242.47951" cy="308" r="252.5" gradientUnits="userSpaceOnUse" id="color-4"><stop offset="0" stop-color="#00ffb5" stop-opacity="0.03226"></stop><stop offset="1" stop-color="#00ffb5" stop-opacity="0"></stop></radialGradient><radialGradient cx="240.51515" cy="205.03655" r="39.4119" gradientUnits="userSpaceOnUse" id="color-5"><stop offset="0" stop-color="#dadada"></stop><stop offset="1" stop-color="#5d5d5d"></stop></radialGradient><radialGradient cx="237.97209" cy="205.03655" r="39.4119" gradientUnits="userSpaceOnUse" id="color-6"><stop offset="0" stop-color="#dadada"></stop><stop offset="1" stop-color="#5d5d5d"></stop></radialGradient><radialGradient cx="239.01037" cy="173.15542" r="12.91546" gradientUnits="userSpaceOnUse" id="color-7"><stop offset="0" stop-color="#505050"></stop><stop offset="1" stop-color="#000000"></stop></radialGradient><linearGradient x1="238.21221" y1="165.9197" x2="238.21221" y2="198.96629" gradientUnits="userSpaceOnUse" id="color-8"><stop offset="0" stop-color="#51c9c9" stop-opacity="0"></stop><stop offset="1" stop-color="#51c9c9"></stop></linearGradient></defs><g transform="translate(-210.78304,-146.8069)"><g data-paper-data="{&quot;isPaintingLayer&quot;:true}" fill-rule="nonzero" stroke-linejoin="miter" stroke-miterlimit="10" stroke-dasharray="" stroke-dashoffset="0" style="mix-blend-mode: normal"><path d="" fill="url(#color-1)" stroke="none" stroke-width="0" stroke-linecap="butt"></path><path d="" data-paper-data="{&quot;index&quot;:null}" fill="url(#color-2)" stroke="none" stroke-width="0" stroke-linecap="butt"></path><path d="" fill="url(#color-3)" stroke="none" stroke-width="0" stroke-linecap="butt"></path><path d="" fill="url(#color-4)" stroke-opacity="0.01613" stroke="#00ff77" stroke-width="6" stroke-linecap="butt"></path><path d="" fill="#906800" stroke="none" stroke-width="0" stroke-linecap="butt"></path><path d="" fill="#4163a2" stroke="none" stroke-width="NaN" stroke-linecap="butt"></path><path d="" fill="#2e4572" stroke="none" stroke-width="0" stroke-linecap="butt"></path><path d="" fill="#4163a2" stroke="none" stroke-width="NaN" stroke-linecap="butt"></path><path d="" fill="#2e4572" stroke="none" stroke-width="0" stroke-linecap="butt"></path><g stroke="none" stroke-linecap="butt"><path d="" fill="#6b4d2b" stroke-width="0"></path><path d="" fill="#98793d" stroke-width="NaN"></path></g><g data-paper-data="{&quot;index&quot;:null}" stroke="none" stroke-linecap="butt"><path d="" fill="#6b4d2b" stroke-width="0"></path><path d="" fill="#98793d" stroke-width="NaN"></path></g><g><g><path d="M253.04429,180.98007l-10.25205,17.67571c-0.86077,-0.06485 -1.72234,-0.12829 -2.58487,-0.19049c-1.86644,-0.13461 -3.73559,-0.27577 -5.60664,-0.41511l12.05123,-20.77771z" fill="url(#color-5)" stroke="none" stroke-width="0" stroke-linecap="butt"></path><path d="M267.7042,158.15948c0,0 -5.74608,7.45211 -7.86265,11.10133c-1.70929,2.94701 -3.87807,9.14104 -3.87807,9.14104l-8.5231,-4.94347l11.74073,-20.24237c0,0 3.99961,-0.52779 5.49742,0.34096c1.32094,0.76615 3.02568,4.60251 3.02568,4.60251z" fill="#c1832d" stroke="#000000" stroke-width="0" stroke-linecap="butt"></path><path d="M243.24807,172.09466c0.93851,-1.61809 4.919,-1.06237 8.89068,1.24124c3.97168,2.30361 6.43056,5.48277 5.49205,7.10087c-0.93851,1.61809 -4.919,1.06237 -8.89068,-1.24124c-3.97168,-2.30361 -6.43056,-5.48277 -5.49205,-7.10087z" fill="#c1832d" stroke="none" stroke-width="0" stroke-linecap="butt"></path><path d="M266.79862,159.41397l-7.83593,-4.90084" fill="none" stroke="#906221" stroke-width="1" stroke-linecap="round"></path><path d="M263.21887,163.74477l-7.6122,-4.05919" fill="none" stroke="#906221" stroke-width="1" stroke-linecap="round"></path><path d="M252.31991,165.96605l7.34585,3.9047" fill="none" stroke="#906221" stroke-width="1" stroke-linecap="round"></path><path d="M248.36195,169.72153l8.97056,6.62679" fill="none" stroke="#906221" stroke-width="1" stroke-linecap="round"></path><path d="M242.49695,173.08281l14.11639,8.18761" fill="none" stroke="#906221" stroke-width="1" stroke-linecap="round"></path></g><g data-paper-data="{&quot;index&quot;:null}"><path d="M231.83526,177.27247l12.46948,21.49882c-1.36378,-0.1056 -2.72938,-0.20734 -4.09738,-0.306c-1.60817,-0.11598 -3.21836,-0.23683 -4.83003,-0.35718l-9.93439,-17.12804z" fill="url(#color-6)" stroke="none" stroke-width="0" stroke-linecap="butt"></path><path d="M213.80871,153.55697c1.49781,-0.86874 5.49742,-0.34096 5.49742,-0.34096l11.74073,20.24237l-8.5231,4.94347c0,0 -2.16878,-6.19403 -3.87807,-9.14104c-2.11658,-3.64922 -7.86265,-11.10133 -7.86265,-11.10133c0,0 1.70474,-3.83635 3.02568,-4.60251z" fill="#c1832d" stroke="#000000" stroke-width="0" stroke-linecap="butt"></path><path d="M229.74711,179.19553c-3.97168,2.30361 -7.95217,2.85933 -8.89068,1.24124c-0.93851,-1.6181 1.52037,-4.79726 5.49205,-7.10087c3.97168,-2.30361 7.95217,-2.85933 8.89068,-1.24124c0.93851,1.6181 -1.52037,4.79726 -5.49205,7.10087z" fill="#c1832d" stroke="none" stroke-width="0" stroke-linecap="butt"></path><path d="M211.68861,159.41397l7.83593,-4.90084" fill="none" stroke="#906221" stroke-width="1" stroke-linecap="round"></path><path d="M215.26836,163.74477l7.6122,-4.05919" fill="none" stroke="#906221" stroke-width="1" stroke-linecap="round"></path><path d="M218.82146,169.87075l7.34585,-3.9047" fill="none" stroke="#906221" stroke-width="1" stroke-linecap="round"></path><path d="M221.15471,176.34832l8.97056,-6.62679" fill="none" stroke="#906221" stroke-width="1" stroke-linecap="round"></path><path d="M221.87388,181.27042l14.11639,-8.18761" fill="none" stroke="#906221" stroke-width="1" stroke-linecap="round"></path></g></g><g stroke-linecap="butt"><g><path d="" fill="#b76000" stroke="none" stroke-width="0"></path><path d="" fill="#ffd8e6" stroke="#994f00" stroke-width="0.2"></path></g><g><path d="" fill="#b76000" stroke="none" stroke-width="0"></path><path d="" fill="#ffd8e6" stroke="#994f00" stroke-width="0.2"></path></g><g><path d="" fill="#b76000" stroke="none" stroke-width="0"></path><path d="" fill="#ffd8e6" stroke="#994f00" stroke-width="0.2"></path></g><g><path d="" fill="#b76000" stroke="none" stroke-width="0"></path><path d="" fill="#ffd8e6" stroke="#994f00" stroke-width="0.2"></path></g><g><path d="M221.77426,183.06394l5.33396,1.54221l-3.67229,12.70117c-1.90394,-0.10049 -3.80814,-0.18193 -5.71176,-0.23554z" fill="#b76000" stroke="none" stroke-width="0"></path><path d="M221.11074,186.08313l2.38036,-8.23286l4.87014,1.4081l-2.38036,8.23286c0,0 -1.44538,-2.55394 -2.32895,-2.8094c-0.69313,-0.2004 -2.54119,1.4013 -2.54119,1.4013z" fill="#4a4a4a" stroke="#949494" stroke-width="1"></path><g><path d="" fill="#b76000" stroke="none" stroke-width="0"></path><path d="" fill="#ffd8e6" stroke="#994f00" stroke-width="0.2"></path></g></g></g><path d="M255.1767,177.69127c0,2.76654 -2.13921,5.00927 -4.77807,5.00927c-2.63885,0 -4.77807,-2.24273 -4.77807,-5.00927c0,-2.76654 2.13921,-5.00927 4.77807,-5.00927c2.63885,0 4.77807,2.24272 4.77807,5.00927z" fill="#000000" stroke="#949494" stroke-width="1" stroke-linecap="butt"></path><path d="M233.20835,177.20845c0,2.76654 -2.13921,5.00927 -4.77807,5.00927c-2.63885,0 -4.77807,-2.24273 -4.77807,-5.00927c0,-2.76654 2.13921,-5.00927 4.77807,-5.00927c2.63885,0 4.77807,2.24272 4.77807,5.00927z" fill="#000000" stroke="#949494" stroke-width="1" stroke-linecap="butt"></path><path d="M227.59926,180.67585c0,-4.51121 0.74361,-9.73886 1.56944,-9.73886c2.5413,0 15.76916,0 20.40966,0c1.00808,0 1.61093,3.62539 1.61093,8.98427c0,5.368 0,12.4754 0,19.42059c-3.65091,-0.32433 -7.30773,-0.61157 -10.98192,-0.87656c-4.19213,-0.30234 -8.39792,-0.63774 -12.60811,-0.9112c0,-7.16809 0,-13.57326 0,-16.87824z" fill="#000000" stroke="#fff7d9" stroke-width="2" stroke-linecap="butt"></path><path d="M249.98638,172.86307c0,3.33318 -4.6836,6.03526 -10.46112,6.03526c-5.77752,0 -10.46112,-2.70208 -10.46112,-6.03526c0,-3.33318 4.6836,-6.03526 10.46112,-6.03526c5.77752,0 10.46112,2.70208 10.46112,6.03526z" fill="#858585" stroke="#fff7d9" stroke-width="0" stroke-linecap="butt"></path><path d="M251.62464,157.86352c3.80802,6.03149 2.23402,13.86373 -3.51563,17.4938c-5.74964,3.63007 -13.49766,1.68334 -17.30567,-4.34815c-3.80802,-6.03149 -2.23402,-13.86373 3.51563,-17.4938c5.74964,-3.63007 13.49766,-1.68334 17.30567,4.34815z" fill="url(#color-7)" stroke="none" stroke-width="0" stroke-linecap="butt"></path><path d="M234.70935,163.15886c0,0 -1.96534,-0.56813 -2.21568,-1.18776c-0.23029,-0.56998 0.76873,-2.39355 0.76873,-2.39355l10.89314,-4.40114c0,0 1.79667,1.00989 2.03783,1.60678c0.24116,0.59688 -0.59088,1.97452 -0.59088,1.97452z" fill="#b76000" stroke="none" stroke-width="0" stroke-linecap="butt"></path><path d="M235.71624,160.49551c-0.09989,-0.24723 0.01956,-0.52864 0.26679,-0.62853c0.24723,-0.09989 0.52864,0.01956 0.62853,0.26679c0.09989,0.24723 -0.01956,0.52864 -0.26679,0.62853c-0.24723,0.09989 -0.52864,-0.01956 -0.62853,-0.26679z" fill="#000000" stroke="none" stroke-width="0.5" stroke-linecap="butt"></path><path d="M242.04381,158.11257c-0.09989,-0.24723 0.01956,-0.52864 0.26679,-0.62853c0.24723,-0.09989 0.52864,0.01956 0.62853,0.26679c0.09989,0.24723 -0.01956,0.52864 -0.26679,0.62853c-0.24723,0.09989 -0.52864,-0.01956 -0.62853,-0.26679z" fill="#000000" stroke="none" stroke-width="0.5" stroke-linecap="butt"></path><path d="M237.2399,176.48422l-0.09656,-1.73815" fill="none" stroke="#8a8a8a" stroke-width="0.5" stroke-linecap="round"></path><path d="M239.26775,176.48422v-1.54503" fill="none" stroke="#8a8a8a" stroke-width="0.5" stroke-linecap="round"></path><path d="M241.68186,176.38765l-0.19313,-1.44846" fill="none" stroke="#8a8a8a" stroke-width="0.5" stroke-linecap="round"></path><g><path d="M228.80274,159.55048l-1.71836,-2.48059l12.70062,-8.79801l1.71836,2.48059z" fill="#cccccc" stroke="none" stroke-width="0" stroke-linecap="butt"></path><path d="M230.13466,158.75998l-1.94896,-2.64389" fill="none" stroke="#000000" stroke-width="0.5" stroke-linecap="round"></path><path d="M233.35861,156.29174l-1.73521,-2.67449" fill="none" stroke="#000000" stroke-width="0.5" stroke-linecap="round"></path><path d="M235.41539,151.46032l1.83898,2.48514" fill="none" stroke="#000000" stroke-width="0.5" stroke-linecap="round"></path><path d="M238.00429,149.43199l1.96714,2.16141" fill="none" stroke="#000000" stroke-width="0.5" stroke-linecap="round"></path><path d="M227.18438,157.04467l-0.93479,-1.34944c0,0 1.43529,-5.57559 3.17387,-6.77995c2.27143,-1.57347 9.28861,-1.85311 9.28861,-1.85311l0.93479,1.34945z" fill="#616161" stroke="#000000" stroke-width="0.5" stroke-linecap="butt"></path></g><path d="M232.47479,174.02852c0.27922,0.69246 0.24494,1.3589 -0.07656,1.48854c-0.3215,0.12964 -0.80847,-0.32662 -1.08769,-1.01908c-0.27922,-0.69246 -0.24494,-1.35889 0.07656,-1.48853c0.3215,-0.12964 0.80847,0.32662 1.08769,1.01908z" fill="none" stroke="#ffd200" stroke-width="1" stroke-linecap="butt"></path><path d="M233.07832,175.53733c0.27922,0.69246 0.24494,1.3589 -0.07656,1.48854c-0.3215,0.12964 -0.80847,-0.32662 -1.08769,-1.01908c-0.27922,-0.69246 -0.24494,-1.35889 0.07656,-1.48853c0.3215,-0.12964 0.80847,0.32662 1.08769,1.01908z" fill="none" stroke="#ffd200" stroke-width="1" stroke-linecap="butt"></path><path d="M233.7422,177.22721c0.27922,0.69246 0.24494,1.3589 -0.07656,1.48854c-0.3215,0.12964 -0.80847,-0.32662 -1.08769,-1.01908c-0.27922,-0.69246 -0.24494,-1.35889 0.07656,-1.48853c0.3215,-0.12964 0.80847,0.32662 1.08769,1.01908z" fill="none" stroke="#ffd200" stroke-width="1" stroke-linecap="butt"></path><path d="M234.58713,178.85673c0.27922,0.69246 0.24494,1.3589 -0.07656,1.48854c-0.3215,0.12964 -0.80847,-0.32662 -1.08769,-1.01908c-0.27922,-0.69246 -0.24494,-1.35889 0.07656,-1.48853c0.3215,-0.12964 0.80847,0.32662 1.08769,1.01908z" fill="none" stroke="#ffd200" stroke-width="1" stroke-linecap="butt"></path><path d="M235.13031,180.42589c0.27922,0.69246 0.24494,1.3589 -0.07656,1.48854c-0.3215,0.12964 -0.80847,-0.32662 -1.08769,-1.01908c-0.27922,-0.69246 -0.24494,-1.35889 0.07656,-1.48853c0.3215,-0.12964 0.80847,0.32662 1.08769,1.01908z" fill="none" stroke="#ffd200" stroke-width="1" stroke-linecap="butt"></path><path d="M248.57272,173.49226c0.3215,0.12964 0.35578,0.79607 0.07656,1.48853c-0.27922,0.69246 -0.76619,1.14871 -1.08769,1.01908c-0.3215,-0.12964 -0.35578,-0.79607 -0.07656,-1.48854c0.27922,-0.69246 0.76619,-1.14871 1.08769,-1.01908z" data-paper-data="{&quot;index&quot;:null}" fill="none" stroke="#ffd200" stroke-width="1" stroke-linecap="butt"></path><path d="M247.60708,175.12178c0.3215,0.12964 0.35578,0.79607 0.07656,1.48853c-0.27922,0.69246 -0.76619,1.14872 -1.08769,1.01908c-0.3215,-0.12964 -0.35578,-0.79607 -0.07656,-1.48854c0.27922,-0.69246 0.76619,-1.14871 1.08769,-1.01908z" data-paper-data="{&quot;index&quot;:null}" fill="none" stroke="#ffd200" stroke-width="1" stroke-linecap="butt"></path><path d="M246.9432,176.81166c0.3215,0.12964 0.35578,0.79607 0.07656,1.48853c-0.27922,0.69246 -0.76619,1.14872 -1.08769,1.01908c-0.3215,-0.12964 -0.35578,-0.79607 -0.07656,-1.48854c0.27922,-0.69246 0.76619,-1.14871 1.08769,-1.01908z" data-paper-data="{&quot;index&quot;:null}" fill="none" stroke="#ffd200" stroke-width="1" stroke-linecap="butt"></path><path d="M246.09827,178.44118c0.3215,0.12964 0.35578,0.79607 0.07656,1.48853c-0.27922,0.69246 -0.76619,1.14872 -1.08769,1.01908c-0.3215,-0.12964 -0.35578,-0.79607 -0.07656,-1.48854c0.27922,-0.69246 0.76619,-1.14871 1.08769,-1.01908z" data-paper-data="{&quot;index&quot;:null}" fill="none" stroke="#ffd200" stroke-width="1" stroke-linecap="butt"></path><path d="M245.55509,180.0707c0.3215,0.12964 0.35578,0.79607 0.07656,1.48853c-0.27922,0.69246 -0.76619,1.14872 -1.08769,1.01908c-0.3215,-0.12964 -0.35578,-0.79607 -0.07656,-1.48854c0.27922,-0.69246 0.76619,-1.14871 1.08769,-1.01908z" data-paper-data="{&quot;index&quot;:null}" fill="none" stroke="#ffd200" stroke-width="1" stroke-linecap="butt"></path><text transform="translate(234.03518,183.09097) scale(0.07372,0.07372)" font-size="40" xml:space="preserve" fill="#ffffff" fill-rule="nonzero" stroke="#ffd200" stroke-width="1" stroke-linecap="butt" stroke-linejoin="miter" stroke-miterlimit="10" stroke-dasharray="" stroke-dashoffset="0" font-family="Sans Serif" font-weight="normal" text-anchor="start" style="mix-blend-mode: normal"><tspan x="0" dy="0">HITMAN</tspan></text><path d="M237.68627,198.28037l-9.42683,-11.11374" fill="none" stroke="#949494" stroke-width="1" stroke-linecap="round"></path><path d="M214.95242,198.96629v-33.04659h46.51958v33.04659z" fill="url(#color-8)" stroke="none" stroke-width="0" stroke-linecap="butt"></path></g></g></svg>