<svg version="1.1" xmlns="http://www.w3.org/2000/svg" xmlns:xlink="http://www.w3.org/1999/xlink" width="13.93363" height="24.68565" viewBox="0,0,13.93363,24.68565"><defs><radialGradient cx="242.40339" cy="175.48212" r="1.9206" gradientUnits="userSpaceOnUse" id="color-1"><stop offset="0" stop-color="#fcd688"></stop><stop offset="1" stop-color="#fcd688" stop-opacity="0"></stop></radialGradient><linearGradient x1="237.50325" y1="180.24431" x2="246.87024" y2="180.24431" gradientUnits="userSpaceOnUse" id="color-2"><stop offset="0" stop-color="#68554a"></stop><stop offset="1" stop-color="#504239"></stop></linearGradient><radialGradient cx="244.89037" cy="177.24782" r="1.33719" gradientUnits="userSpaceOnUse" id="color-3"><stop offset="0" stop-color="#f8bd93"></stop><stop offset="1" stop-color="#585e39"></stop></radialGradient><radialGradient cx="240.19247" cy="170.81466" r="4.15931" gradientUnits="userSpaceOnUse" id="color-4"><stop offset="0" stop-color="#ffd9aa"></stop><stop offset="1" stop-color="#604f45"></stop></radialGradient><radialGradient cx="237.43974" cy="170.69449" r="3.85753" gradientUnits="userSpaceOnUse" id="color-5"><stop offset="0" stop-color="#ffc297"></stop><stop offset="1" stop-color="#68554a"></stop></radialGradient><linearGradient x1="233.80085" y1="168.75609" x2="239.27832" y2="169.17895" gradientUnits="userSpaceOnUse" id="color-6"><stop offset="0" stop-color="#635147"></stop><stop offset="1" stop-color="#c29285"></stop></linearGradient><linearGradient x1="237.58049" y1="170.45104" x2="237.68369" y2="170.0165" gradientUnits="userSpaceOnUse" id="color-7"><stop offset="0" stop-color="#fef4d2" stop-opacity="0"></stop><stop offset="1" stop-color="#fef4d2"></stop></linearGradient><linearGradient x1="237.92577" y1="170.29826" x2="237.58138" y2="170.27169" gradientUnits="userSpaceOnUse" id="color-8"><stop offset="0" stop-color="#ecd5b5"></stop><stop offset="1" stop-color="#ecd5b5" stop-opacity="0"></stop></linearGradient><radialGradient cx="241.36865" cy="176.9486" r="0.30372" gradientUnits="userSpaceOnUse" id="color-9"><stop offset="0" stop-color="#fcd487"></stop><stop offset="1" stop-color="#50413a"></stop></radialGradient><linearGradient x1="243.72248" y1="176.96746" x2="243.72248" y2="180.54062" gradientUnits="userSpaceOnUse" id="color-10"><stop offset="0" stop-color="#534135"></stop><stop offset="1" stop-color="#d27e67"></stop></linearGradient><radialGradient cx="242.4055" cy="177.06847" r="0.30372" gradientUnits="userSpaceOnUse" id="color-11"><stop offset="0" stop-color="#fcd487"></stop><stop offset="1" stop-color="#50413a"></stop></radialGradient><radialGradient cx="241.73742" cy="177.74485" r="0.30372" gradientUnits="userSpaceOnUse" id="color-12"><stop offset="0" stop-color="#fcd487"></stop><stop offset="1" stop-color="#50413a"></stop></radialGradient><radialGradient cx="241.16214" cy="178.42845" r="0.30372" gradientUnits="userSpaceOnUse" id="color-13"><stop offset="0" stop-color="#fcd487"></stop><stop offset="1" stop-color="#50413a"></stop></radialGradient><radialGradient cx="242.59514" cy="178.52786" r="0.30372" gradientUnits="userSpaceOnUse" id="color-14"><stop offset="0" stop-color="#fcd487"></stop><stop offset="1" stop-color="#50413a"></stop></radialGradient></defs><g transform="translate(-233.01588,-167.65717)"><g data-paper-data="{&quot;isPaintingLayer&quot;:true}" fill-rule="nonzero" stroke-linejoin="miter" stroke-miterlimit="10" stroke-dasharray="" stroke-dashoffset="0" style="mix-blend-mode: normal"><g><text transform="translate(239.01782,178.72923) scale(0.0452,0.0452)" font-size="40" xml:space="preserve" fill="#66ddff" fill-rule="nonzero" stroke="none" stroke-width="0.25" stroke-linecap="butt" stroke-linejoin="miter" stroke-miterlimit="10" stroke-dasharray="" stroke-dashoffset="0" font-family="Sans Serif" font-weight="normal" text-anchor="start" style="mix-blend-mode: normal"><tspan x="0" dy="0">xAmt8</tspan></text><path d="M243.85499,175.48212c0,1.06071 -0.6499,1.92059 -1.45161,1.92059c-0.8017,0 -1.45161,-0.85986 -1.45161,-1.92059c0,-1.06071 0.6499,-1.92059 1.45161,-1.92059c0.8017,0 1.45161,0.85986 1.45161,1.92059z" fill="url(#color-1)" stroke="none" stroke-width="0.125" stroke-linecap="butt"></path><path d="M235.02465,188.32378l0.94346,0.12972l6.00815,2.92712c0,0 1.25784,-0.31597 1.24628,-0.14039c-0.00607,0.09241 2.11947,-0.3433 1.8451,-0.14859c-0.12175,0.0864 -3.15467,1.25119 -3.15467,1.25119c0,0 -5.51192,-2.72787 -6.55347,-3.3356c-0.35232,-0.20556 -0.33486,-0.68346 -0.33486,-0.68346z" fill="#504239" stroke="none" stroke-width="0.125" stroke-linecap="butt"></path><path d="M235.01541,187.70861l2.48338,-7.17402l6.99187,0.87382c0,0 0.23907,0.91475 0.07987,1.49578c-0.43423,1.58472 -2.83407,8.55578 -2.83407,8.55578c0,0 -5.58199,-2.26139 -6.44079,-2.74071c-0.22049,-0.12307 -0.28026,-1.0106 -0.28026,-1.0106z" fill="#68554a" stroke="none" stroke-width="0.125" stroke-linecap="butt"></path><path d="M245.25667,189.59246l0.36837,-8.38745l1.11614,-0.02166c0,0 -0.27733,4.73899 -0.34471,6.27292c-0.0387,0.88106 -0.09137,2.18224 -0.09137,2.18224c0,0 -0.88153,1.00483 -1.33041,1.44361c-0.12637,0.12351 -0.21847,0.20218 -0.24694,0.20095c-0.19352,-0.0085 0.52894,-1.69057 0.52894,-1.69057z" fill="#2b2a28" stroke="none" stroke-width="0.125" stroke-linecap="butt"></path><path d="M241.72623,191.4244l2.57497,-10.20907l1.87418,0.33654l-0.91618,8.00861c0,0 0.04493,1.18733 -0.42748,1.59599c-0.03327,0.02878 -0.06913,0.05372 -0.10775,0.07409c-0.5909,0.31174 -2.99773,0.19379 -2.99773,0.19379z" fill="#504239" stroke="none" stroke-width="0.125" stroke-linecap="butt"></path><path d="M237.50325,180.47028l0.21674,-1.91739l7.32961,0.72437l1.6582,1.35077l0.16244,0.51066c0,0 -0.65734,0.18065 -0.67136,0.23656c-0.0463,0.18482 0.18118,0.56049 0.18118,0.56049l-2.15657,-0.47025l-6.13108,-0.28921z" fill="url(#color-2)" stroke="#000000" stroke-width="0.125" stroke-linecap="butt"></path><path d="M237.46541,179.50159l-0.76732,-1.62186l3.24368,-1.53464l0.76732,1.62185z" fill="#52413a" stroke="#000000" stroke-width="0.125" stroke-linecap="butt"></path><path d="M244.1332,178.34267c0,-0.73851 0.59868,-1.33719 1.33719,-1.33719c0.31428,0 0.60321,0.10842 0.83149,0.28989c0.30815,0.24495 0.50568,0.62306 0.50568,1.04729c0,0.73851 -0.59867,1.33719 -1.33718,1.33719c-0.73851,0 -1.33719,-0.59868 -1.33719,-1.33719z" fill="#2b2a28" stroke="none" stroke-width="0.125" stroke-linecap="butt"></path><path d="M243.9508,178.22799c0,-0.73851 0.59868,-1.33718 1.33719,-1.33718c0.73851,0 1.33719,0.59868 1.33719,1.33718c0,0.73851 -0.59868,1.33719 -1.33719,1.33719c-0.73851,0 -1.33719,-0.59868 -1.33719,-1.33719z" fill="url(#color-3)" stroke="none" stroke-width="0.125" stroke-linecap="butt"></path><text transform="translate(238.48368,171.2681) rotate(-79.72471) scale(0.02254,0.02254)" font-size="40" xml:space="preserve" fill="#41251e" fill-rule="nonzero" stroke="none" stroke-width="0.25" stroke-linecap="butt" stroke-linejoin="miter" stroke-miterlimit="10" stroke-dasharray="" stroke-dashoffset="0" font-family="Sans Serif" font-weight="normal" text-anchor="start" style="mix-blend-mode: normal"><tspan x="0" dy="0">xAmt8</tspan></text><path d="M241.78273,177.20764l-0.03018,-0.48299c0,0 0.74982,-0.1316 1.24023,-0.16226c0.3172,-0.01982 1.41624,-0.00378 1.41624,-0.00378l0.03018,0.483z" fill="#ffffff" stroke="none" stroke-width="0.125" stroke-linecap="butt"></path><path d="M236.96666,178.15757l0.83836,-8.04069l2.66544,0.27792l-0.52572,8.0407z" fill="url(#color-4)" stroke="none" stroke-width="0.125" stroke-linecap="butt"></path><path d="M237.9163,170.49833l0.088,-1.14003l0.872,-1.13602l1.38566,0.80605l0.31032,1.58207c0,0 -0.91539,0.02228 -1.12852,0.00584c-0.37134,-0.02865 -1.52743,-0.11793 -1.52743,-0.11793z" fill="#68554a" stroke="none" stroke-width="0.125" stroke-linecap="butt"></path><path d="M233.28592,177.42447l0.52889,-7.64816l4.16715,0.06485c0,0 -0.3414,3.13186 -0.52714,4.5015c-0.15559,1.14736 -0.33955,3.78804 -0.33955,3.78804z" fill="url(#color-5)" stroke="#000000" stroke-width="0.125" stroke-linecap="butt"></path><path d="M233.71836,169.82486l1.5156,-2.16768l3.72265,0.46658l-1.10744,1.84079z" fill="url(#color-6)" stroke="none" stroke-width="0.125" stroke-linecap="butt"></path><path d="M237.86653,170.78123l-0.56852,-0.39727l0.1032,-0.43455l0.57868,-0.04396z" data-paper-data="{&quot;index&quot;:null}" fill="url(#color-7)" stroke="none" stroke-width="0.125" stroke-linecap="butt"></path><path d="M237.55938,170.55668l0.04402,-0.57003l0.34438,0.0266l-0.04402,0.57002z" data-paper-data="{&quot;index&quot;:null}" fill="url(#color-8)" stroke="none" stroke-width="0.125" stroke-linecap="butt"></path><path d="M238.55474,168.84341l0.37998,-0.68954z" fill="#623320" stroke="none" stroke-width="0.125" stroke-linecap="butt"></path><path d="M239.23968,178.9535l0.22187,-1.28269c0,0 0.40048,-0.80131 0.58187,-0.7754c0.18617,0.02657 0.52121,0.93287 0.52121,0.93287l-0.22186,1.28269z" fill="#565f39" stroke="none" stroke-width="0.125" stroke-linecap="butt"></path><path d="M240.32648,177.64834c0,0.09867 -0.09999,0.17867 -0.22331,0.17867c-0.12333,0 -0.22331,-0.07998 -0.22331,-0.17867c0,-0.09867 0.09999,-0.17867 0.22331,-0.17867c0.12333,0 0.22331,0.07998 0.22331,0.17867z" fill="#b5a582" stroke="#a88c80" stroke-width="0.125" stroke-linecap="butt"></path><path d="M240.22352,179.16689l0.40419,-2.86261l2.65136,0.4687l-0.33273,2.71968z" fill="#b3a682" stroke="#a88c80" stroke-width="0.125" stroke-linecap="butt"></path><path d="M241.44758,177.14811c0,0.16775 -0.13598,0.30372 -0.30372,0.30372c-0.16775,0 -0.30372,-0.13598 -0.30372,-0.30372c0,-0.16775 0.13598,-0.30372 0.30372,-0.30372c0.16775,0 0.30372,0.13598 0.30372,0.30372z" fill="url(#color-9)" stroke="none" stroke-width="0.125" stroke-linecap="butt"></path><path d="M242.97809,179.57276l0.18149,-2.78676l0.86725,0.28304l-0.13542,2.47708z" fill="url(#color-10)" stroke="none" stroke-width="0.125" stroke-linecap="butt"></path><path d="M233.92334,178.82969l-0.79358,-1.54539l4.00966,0.75181l0.41766,1.50362z" fill="#52413a" stroke="#000000" stroke-width="0.125" stroke-linecap="butt"></path><text transform="translate(233.9907,178.32987) rotate(11.39223) scale(0.02253,0.02253)" font-size="40" xml:space="preserve" fill="#41251e" fill-rule="nonzero" stroke="none" stroke-width="0.25" stroke-linecap="butt" stroke-linejoin="miter" stroke-miterlimit="10" stroke-dasharray="" stroke-dashoffset="0" font-family="Sans Serif" font-weight="normal" text-anchor="start" style="mix-blend-mode: normal"><tspan x="0" dy="0">xAmt8</tspan></text><path d="M243.23989,178.75264c0,0 0,-0.18952 0,-0.32312c0,-0.21817 0,-0.86166 0,-0.86166h0.97608c0,0 0.79894,0.19484 1.04144,0.42758c0.05854,0.05618 0.23275,0.246 0.23419,0.36151c0.00158,0.12946 -0.1736,0.18389 -0.1736,0.21616c0,0.21005 -1.10202,0.17952 -1.10202,0.17952z" fill="#504239" stroke="#000000" stroke-width="0.125" stroke-linecap="butt"></path><path d="M245.03409,178.22799c0,0.14023 -0.12125,0.2539 -0.27081,0.2539c-0.14957,0 -0.27081,-0.11368 -0.27081,-0.2539c0,-0.14023 0.12125,-0.25389 0.27081,-0.25389c0.14957,0 0.27081,0.11368 0.27081,0.2539z" fill="#b5a67d" stroke="none" stroke-width="0.125" stroke-linecap="butt"></path><path d="M237.55259,179.56521l-0.44009,-1.45568l2.26815,0.23696" fill="none" stroke="#000000" stroke-width="0.125" stroke-linecap="round"></path><path d="M243.14037,175.61611c0,0.64135 -0.42394,1.16129 -0.78163,1.16129c-0.35768,0 -0.8263,-0.51992 -0.8263,-1.16129c0,-0.32506 0.35272,-0.81397 0.43879,-1.21715c0.08376,-0.3923 0.07711,-0.70342 0.25351,-0.70342c0.12706,0 0.21782,0.25076 0.33962,0.48766c0.22109,0.43001 0.57602,1.0194 0.57602,1.43292z" fill="#ffffff" stroke="none" stroke-width="0.125" stroke-linecap="butt"></path><path d="M237.24463,181.24385l6.87836,0.53598l2.18856,0.53598" fill="none" stroke="#68554a" stroke-width="0.125" stroke-linecap="round"></path><path d="M237.31608,181.09199l6.78901,0.58064l2.32703,0.51363l0.25904,-0.08634" fill="none" stroke="#512317" stroke-width="0.125" stroke-linecap="round"></path><path d="M237.78338,186.5039c0,0 0.42526,-2.28689 0.87458,-2.92338c0.2083,-0.29506 0.984,-0.59327 0.984,-0.59327c0,0 1.00383,0.5804 1.26682,0.8488c0.21944,0.22397 0.20423,0.65259 0.20423,0.65259l-0.96861,3.04442z" fill="#585e3c" stroke="none" stroke-width="0" stroke-linecap="butt"></path><path d="M237.3054,187.33551l-0.20804,-1.59977l0.66966,-0.08707l0.20804,1.59977z" fill="#7c6559" stroke="none" stroke-width="0.125" stroke-linecap="butt"></path><path d="M237.10368,187.23234l0.19448,-0.5281l3.23896,1.19277l-0.19447,0.5281z" fill="#7c6559" stroke="none" stroke-width="0.125" stroke-linecap="butt"></path><path d="M239.9334,187.66027l1.44007,-0.54066l0.25275,0.67319l-1.44007,0.54065z" fill="#7c6559" stroke="none" stroke-width="0.125" stroke-linecap="butt"></path><path d="M241.91535,185.48203l0.0631,-1.46182l0.4498,0.01941l-0.06312,1.46182z" fill="#7c6559" stroke="none" stroke-width="0.125" stroke-linecap="butt"></path><path d="M237.0961,185.93201l1.02424,-2.78126l0.66893,0.24632l-1.02424,2.78126z" fill="#7c6559" stroke="none" stroke-width="0.125" stroke-linecap="butt"></path><path d="M238.11653,183.18793l1.10404,-0.36573l0.50254,0.4368l-1.40603,0.53437z" fill="#7c6559" stroke="none" stroke-width="0.125" stroke-linecap="butt"></path><path d="M239.08563,183.04461l0.09074,-0.24644l3.23896,1.19277l-0.09075,0.24643z" fill="#7c6559" stroke="none" stroke-width="0.125" stroke-linecap="butt"></path><path d="M241.10959,187.42816l0.81677,-2.21797l0.45766,0.16853l-0.81677,2.21797z" fill="#7c6559" stroke="none" stroke-width="0.125" stroke-linecap="butt"></path><path d="M238.69853,185.68328c0.0009,-0.02079 0.00233,-0.04203 0.00439,-0.06358c-0.00555,0.00221 -0.01126,0.00411 -0.01711,0.00565c0.00452,0.02016 0.00876,0.03945 0.01272,0.05793zM240.48616,184.36388c0.05739,0.02049 0.11407,0.04214 0.16998,0.06245c0.10265,-0.01556 0.206,-0.02334 0.31063,-0.02018v-0.03973h0.18242c0.08275,0 0.14984,0.06709 0.14984,0.14984c0,0.03585 -0.01259,0.06874 -0.03358,0.09454l-0.10349,0.12936l-0.02124,-0.01699l-0.03086,0.05844c-0.1092,0.00233 -0.22269,-0.01987 -0.33721,-0.04973c-0.18844,0.06606 -0.44663,0.11561 -0.64049,0.15814c0.06516,0.09901 0.12511,0.25626 0.13932,0.40315c0.00724,0.01756 0.01122,0.03682 0.01122,0.057c0,0.01916 -0.00359,0.03747 -0.01014,0.05431c-0.00968,0.10725 -0.05393,0.19718 -0.1523,0.23678c-0.30069,0.12106 -0.60068,-0.28937 -0.49074,-0.47734c-0.12032,-0.00187 -0.26378,0.05913 -0.454,0.12874c-0.48389,0.33835 -0.3976,1.85909 -0.79378,0.33931c-0.0034,0.00044 -0.00682,0.00085 -0.01026,0.00121l-0.02084,0.0125l-0.01447,0.08684l-0.15393,-0.02566c-0.07224,-0.01073 -0.12763,-0.073 -0.12763,-0.14821c0,-0.04582 0.02057,-0.08682 0.05297,-0.11431c-0.00055,-0.00525 -0.00084,-0.01059 -0.00084,-0.01599c0,-0.05982 0.03505,-0.11145 0.08574,-0.13548l0.15345,-0.07673l0.00771,0.01542l0.02488,-0.02723c0.0092,0.00263 0.0184,0.00528 0.02759,0.00791l0.00634,-0.00237l0.0005,0.00132v-0.01085h0.06754c0.16825,-0.19483 0.55017,-0.38136 0.9084,-0.45714c-0.00188,-0.05211 0.00799,-0.10349 0.03177,-0.15254c-0.08339,-0.05442 -0.16528,-0.11855 -0.24981,-0.15637c-0.02322,0.01477 -0.05078,0.02334 -0.08034,0.02334c-0.08275,0 -0.14984,-0.06709 -0.14984,-0.14984c0,-0.04138 0.01678,-0.07885 0.0439,-0.10595l0.12487,-0.12488c0.31923,-0.38941 0.59996,-0.09573 0.73885,0.22671c0.0118,-0.00341 0.02383,-0.00674 0.03615,-0.00998c0.06109,-0.0161 0.1217,-0.02261 0.18177,-0.02198c0.19241,-0.16333 0.4205,-0.35548 0.58634,-0.39126l0.14034,-0.07016c0.02083,-0.01096 0.04455,-0.01718 0.06972,-0.01718c0.08275,0 0.14984,0.06709 0.14984,0.14984c0,0.04667 -0.02134,0.08836 -0.05479,0.11584l-0.15548,0.12957l-0.01541,-0.01848c-0.06568,0.07115 -0.14322,0.11515 -0.30017,0.19375z" fill="#b2a680" stroke="none" stroke-width="0.5" stroke-linecap="butt"></path><path d="M241.29277,185.13681c0.14216,0.04738 0.09476,0.18954 0.09476,0.18954l-0.01522,0.04493c-0.01476,0.05409 -0.02126,0.10716 -0.03031,0.15417l0.03202,0.1441l-0.0173,0.00384c0.00683,0.01305 0.01367,0.02609 0.0205,0.03915l-0.02695,0.03546l0.01778,0.00666l-0.05165,0.13775c-0.00661,0.01896 -0.01692,0.03619 -0.03008,0.05082c0.01319,0.02232 0.02076,0.04832 0.02076,0.07613c0,0.04863 -0.02316,0.09186 -0.05907,0.11923l-0.15743,0.12246l-0.01425,-0.01832c-0.09478,0.10561 -0.19814,0.16246 -0.41385,0.27077l-0.02445,0.01449c0.27203,0.14307 0.28055,0.36525 -0.34262,0.75677l0.00079,0.00197l-0.01089,0.00436c-0.00452,0.00283 -0.00907,0.00566 -0.01368,0.0085l-0.00634,-0.0005l-0.00853,0.00341l0.00113,0.00303l-0.13779,0.05167c-0.01726,0.00693 -0.0361,0.01075 -0.05585,0.01075c-0.08275,0 -0.14984,-0.06709 -0.14984,-0.14984c0,-0.06431 0.04053,-0.11917 0.09743,-0.14042l0.00951,-0.0038c0.00003,-0.00022 0.00007,-0.00044 0.00011,-0.00066c-0.04095,-0.01807 -0.07227,-0.05392 -0.08419,-0.09778l-0.23453,0.14072c-0.02299,0.01434 -0.05013,0.02262 -0.0792,0.02262c-0.08275,0 -0.14984,-0.06709 -0.14984,-0.14984c0,-0.03754 0.01381,-0.07185 0.03662,-0.09815l0.10523,-0.12276l0.00605,0.00518l0.00655,-0.01819c0.09468,-0.06848 0.18708,-0.13559 0.2777,-0.20374c-0.41605,-0.05114 -0.97246,-0.06806 -1.19951,-0.18842c0,0 -0.13194,-0.07104 -0.0609,-0.20298c0.07105,-0.13193 0.20298,-0.0609 0.20298,-0.0609c0.20379,0.11178 0.70192,0.16551 1.14576,0.2466c0.04285,-0.1984 0.18742,-0.40195 0.57945,-0.59849l0.20622,-0.1203c0.02266,-0.01377 0.04926,-0.0217 0.07771,-0.0217c0.04119,0 0.07851,0.01663 0.1056,0.04353c0.00962,-0.0128 0.01922,-0.02584 0.02877,-0.03914l0.02537,-0.05075c0.0092,-0.06649 0.03307,-0.14588 0.06589,-0.26631l0.02004,-0.06085c0,0 0.04738,-0.14216 0.18954,-0.09477zM240.28823,186.92524c0.09091,-0.07459 0.12791,-0.13399 0.12374,-0.18196c-0.05128,0.07809 -0.09628,0.13811 -0.12893,0.16896l-0.00198,0.00278c0.00241,0.00341 0.00478,0.00682 0.00716,0.01022z" fill="#585e3c" stroke="none" stroke-width="0.5" stroke-linecap="butt"></path><path d="M241.57129,185.27006l-0.08668,-0.15605l0.0011,-0.00061l-0.00266,-0.00225c-0.06846,-0.13725 -0.11174,-0.2579 -0.19911,-0.3796c-0.04357,-0.0043 -0.12589,-0.02697 -0.135,-0.1362c-0.01245,-0.14932 0.13688,-0.16177 0.13688,-0.16177c0.0414,-0.00344 0.07827,-0.00707 0.11094,-0.01082c0.00287,-0.02765 0.01265,-0.06318 0.04109,-0.09043c-0.15185,-0.00289 -0.36571,0.02275 -0.48402,0.10536l-0.18718,0.04468c0,0 -0.14627,0.0325 -0.17878,-0.11378c-0.03251,-0.14627 0.11377,-0.17878 0.11377,-0.17878l0.13013,-0.02583c0.09774,-0.07163 0.19965,-0.11508 0.29981,-0.13644c-0.02657,-0.02345 -0.09797,-0.10058 -0.02578,-0.20164c0.0871,-0.12194 0.20904,-0.03483 0.20904,-0.03483c0.08137,0.05932 0.15461,0.11904 0.22018,0.17933c0.03306,-0.01333 0.06292,-0.01333 0.06292,-0.01333l0.13828,0.00357c0.13378,0.03886 0.26038,0.13529 0.3307,0.25556c0,0 0.04871,0.09743 -0.02,0.16769c0.00059,0.01315 -0.00035,0.02164 -0.00035,0.02164c-0.00588,0.05289 -0.01174,0.10577 -0.01762,0.15866l-0.05827,0.1029c0.11028,0.47639 -0.08419,1.01183 -0.41327,1.66512c-0.08274,0.07294 -0.16197,0.15051 -0.23351,0.23448l-0.26361,-0.11515c0,0 0,-0.10621 0.08942,-0.13979c0.05368,-0.05821 0.11058,-0.11357 0.17149,-0.16396c0.14924,-0.30321 0.26891,-0.56733 0.33679,-0.80515c-0.03747,-0.012 -0.06852,-0.03835 -0.08669,-0.07258z" fill="#2b2a28" stroke="none" stroke-width="0.5" stroke-linecap="butt"></path><path d="M239.55196,185.45624c-0.06133,0.08168 -0.08252,0.20768 -0.05417,0.29055c0.09196,0.00765 0.18215,0.00576 0.28835,0.01237l0.06457,-0.03229c0.02083,-0.01096 0.04454,-0.01716 0.06971,-0.01716c0.06665,0 0.12314,0.04352 0.1426,0.10369l0.036,0.009c0.00037,0.00009 0.00075,0.00017 0.00113,0.00026c0.105,-0.13477 0.2481,-0.22452 0.39844,-0.35803c-0.5574,-0.03297 0.06589,-1.15589 0.74433,-0.8385c0.34964,0.16356 0.39087,0.6385 0.28218,1.01597c0.00332,0.06221 0.0005,0.13119 -0.00916,0.20713l-0.06467,-0.01205c-0.00016,0.00032 -0.00031,0.00063 -0.00045,0.00095l0.0149,0.00993l0.04626,0.01542l-0.0042,0.01262l0.03468,0.02312l-0.09462,0.14192c-0.02668,0.04131 -0.07313,0.06866 -0.12596,0.06866c-0.08275,0 -0.14984,-0.06709 -0.14984,-0.14984c0,-0.0178 0.0031,-0.03486 0.00879,-0.0507l0.04331,-0.12991c0.04677,-0.39147 -0.14002,-0.3707 -0.45459,-0.15903c-0.17349,0.17349 -0.68153,0.7833 -0.83822,0.80117c-0.87072,0.09923 -1.31284,-0.65325 -0.59708,-1.22585c0,0 0.11702,-0.09361 0.21061,0.0234c0.03405,0.04256 0.04023,0.08202 0.03431,0.11501c0.01407,0.06444 -0.02721,0.12225 -0.02721,0.12225zM240.51228,185.13063c0.02301,-0.01069 0.04174,-0.01381 0.04174,-0.01381l0.03102,-0.00493c-0.00477,-0.01057 -0.00869,-0.02252 -0.01154,-0.03602c-0.02685,0.02022 -0.04801,0.03907 -0.06122,0.05476z" fill="#504239" stroke="none" stroke-width="0.5" stroke-linecap="butt"></path><path d="M239.63693,185.92904l-0.12245,-0.04155c-0.05449,-0.02421 -0.10898,-0.04843 -0.16347,-0.07266c0,0 -0.13693,-0.06086 -0.07608,-0.19778c0.06086,-0.13692 0.19779,-0.07607 0.19779,-0.07607c0.0089,0.00396 0.01782,0.00791 0.02672,0.01188c-0.00791,-0.04463 -0.0018,-0.10815 0.07576,-0.15124c0.13099,-0.07277 0.20376,0.05822 0.20376,0.05822c0.18482,0.3396 0.4188,0.19043 0.53917,-0.13059l0.12421,-0.14843c0,0 0.09751,-0.11377 0.21128,-0.01625c0.11377,0.09752 0.01626,0.21129 0.01626,0.21129l-0.09374,0.10585c-0.15062,0.40165 -0.49341,0.56198 -0.78152,0.41051c-0.06044,0.06927 -0.15772,0.03684 -0.15772,0.03684z" fill="#504239" stroke="none" stroke-width="0.5" stroke-linecap="butt"></path><path d="M239.24841,187.03558c0.12501,0.00017 0.41914,0.10428 0.49453,0.09124c-0.00562,-0.01574 -0.00868,-0.0327 -0.00868,-0.05037c0,-0.08275 0.06709,-0.14984 0.14984,-0.14984c0.00291,0 0.0058,0.00008 0.00868,0.00024c0.14239,-0.01114 0.15841,0.13306 0.15841,0.13306c-0.00171,0.07789 -0.03183,0.13984 -0.08392,0.18819c0.07189,0.0196 0.12906,0.03634 0.16663,0.05036c0.09214,0.03125 0.19188,0.0377 0.29076,0.0238c-0.00015,-0.00315 -0.00021,-0.00639 -0.00021,-0.00969c0,-0.10131 0.06851,-0.13413 0.11288,-0.14476c0.24776,-0.28977 0.3182,-0.38773 0.37722,-0.64885l-0.0167,-0.15031c-0.00076,-0.00612 -0.00116,-0.01238 -0.00116,-0.01871c0,-0.08275 0.06709,-0.14984 0.14984,-0.14984c0.03311,0 0.06371,0.01074 0.08852,0.02893l0.12571,0.0898l-0.01073,0.01503l0.04416,0.01788c0.25579,0.71392 -0.42409,1.38958 -1.12723,1.26295c-0.03581,0.08384 -0.13756,0.08385 -0.13756,0.08385l-0.07902,-0.01291c-0.17049,-0.07598 -0.69045,-0.20437 -1.15099,-0.34382c-0.36388,-0.06 -0.70951,-0.1607 -0.88152,-0.24596l-0.00666,-0.01085l-0.00315,0.00441l-0.12552,-0.08965c-0.03891,-0.02706 -0.06437,-0.0721 -0.06437,-0.12309c0,-0.08275 0.06709,-0.14984 0.14984,-0.14984c0.01732,0 0.03395,0.00293 0.04942,0.00833c-0.29073,-0.27071 -0.36799,-0.63256 0.01845,-1.13659c0,0 0.09752,-0.11378 0.21129,-0.01626c0.11377,0.09752 0.01626,0.2113 0.01626,0.2113c-0.64643,0.59936 0.23925,0.99756 1.03353,1.24185c0.01717,0.00007 0.03431,0.00011 0.05145,0.00014z" fill="#2b2a28" stroke="none" stroke-width="0.5" stroke-linecap="butt"></path><path d="M241.31376,186.60491c-0.00245,-0.04349 0.01158,-0.09877 0.0835,-0.13473c0.13402,-0.06701 0.20104,0.06702 0.20104,0.06702l-0.00209,0.20085c-0.08456,0.09811 -0.29535,0.49156 -0.46444,0.42778c-0.23033,-0.08688 -0.27891,-0.55529 -0.52277,-0.52166c0,0 -0.14893,0.01654 -0.16547,-0.13239c-0.01655,-0.14893 0.13238,-0.16547 0.13238,-0.16547c0.20316,-0.01893 0.6106,0.03725 0.73785,0.2586zM241.34885,186.60916l-0.01295,0.04319c0.00603,0.0117 0.00839,-0.01342 0.01295,-0.04319z" fill="#585e3c" stroke="none" stroke-width="0.5" stroke-linecap="butt"></path><path d="M239.11825,186.16528c-0.10595,0.10595 -0.21192,0 -0.21192,0l-0.107,-0.12599c-0.01817,-0.04843 -0.03632,-0.09687 -0.05449,-0.14531c0,0 -0.05262,-0.14031 0.08769,-0.19291c0.14031,-0.05261 0.19293,0.08769 0.19293,0.08769c0.01817,0.04843 0.03633,0.09686 0.05449,0.1453l0.0383,0.01932c0,0 0.10595,0.10595 0,0.21192z" fill="#585e3c" stroke="none" stroke-width="0.5" stroke-linecap="butt"></path><path d="M239.26346,187.20046c-0.05568,0.08114 -0.12947,0.03051 -0.12947,0.03051l-0.04529,-0.03391c-0.03134,-0.01186 -0.06267,-0.02371 -0.09401,-0.03557c0,0 -0.0841,-0.03183 -0.04577,-0.12201c0.0054,-0.01271 0.0117,-0.023 0.01856,-0.03128c-0.02183,-0.0308 -0.04307,-0.0663 -0.06369,-0.10688c0,0 -0.04112,-0.08157 0.04169,-0.13151c0.0828,-0.04994 0.12391,0.03165 0.12391,0.03165c0.00272,0.00545 0.00546,0.01075 0.00822,0.01592l0.07125,-0.0048c0.32376,0.0328 0.34758,-0.14976 0.63283,-0.34506c0,0 0.01673,-0.0114 0.03929,-0.0163c0.00068,-0.02828 0.00137,-0.05657 0.00208,-0.08485c0,0 0.00241,-0.09545 0.09482,-0.10141c0.09241,-0.00597 0.08999,0.08949 0.08999,0.08949c-0.00174,0.06885 -0.00357,0.13769 -0.00549,0.20655l-0.00229,0.01318c0.06605,0.05078 0.01302,0.12807 0.01302,0.12807l-0.07823,0.10395c-0.22842,0.1695 -0.45571,0.36057 -0.65935,0.37301c-0.00307,0.00682 -0.00705,0.01391 -0.01208,0.02126zM239.80055,186.68134c-0.00012,-0.00143 -0.0002,-0.00283 -0.00027,-0.00418c-0.056,0.04265 -0.10328,0.08411 -0.14683,0.12243c0.04843,-0.03887 0.09758,-0.07972 0.14711,-0.11825z" fill="#b2a680" stroke="none" stroke-width="0.5" stroke-linecap="butt"></path><path d="M242.6303,176.96426c0.16774,0 0.30372,0.13597 0.30372,0.30372c0,0.16774 -0.13597,0.30372 -0.30372,0.30372c-0.16774,0 -0.30372,-0.13597 -0.30372,-0.30372c0,-0.16774 0.13597,-0.30372 0.30372,-0.30372z" data-paper-data="{&quot;index&quot;:null}" fill="url(#color-11)" stroke="none" stroke-width="0.125" stroke-linecap="butt"></path><path d="M241.98244,177.78169c0.14001,0.0924 0.1786,0.28078 0.08621,0.42078c-0.0924,0.14001 -0.28078,0.17861 -0.42078,0.08621c-0.14001,-0.0924 -0.1786,-0.28078 -0.08621,-0.42078c0.0924,-0.14001 0.28078,-0.17861 0.42078,-0.08621z" data-paper-data="{&quot;index&quot;:null}" fill="url(#color-12)" stroke="none" stroke-width="0.125" stroke-linecap="butt"></path><path d="M241.33467,178.60629c0.05534,0.15835 -0.02816,0.33158 -0.18652,0.38692c-0.15835,0.05534 -0.33157,-0.02817 -0.38691,-0.18653c-0.05534,-0.15835 0.02816,-0.33157 0.18652,-0.38691c0.15835,-0.05534 0.33157,0.02816 0.38691,0.18652z" data-paper-data="{&quot;index&quot;:null}" fill="url(#color-13)" stroke="none" stroke-width="0.125" stroke-linecap="butt"></path><path d="M242.83231,178.59956c0.12527,0.11157 0.13637,0.30355 0.0248,0.42882c-0.11157,0.12527 -0.30354,0.13637 -0.42881,0.0248c-0.12527,-0.11157 -0.13637,-0.30355 -0.02481,-0.42882c0.11157,-0.12527 0.30355,-0.13637 0.42882,-0.0248z" data-paper-data="{&quot;index&quot;:null}" fill="url(#color-14)" stroke="none" stroke-width="0.125" stroke-linecap="butt"></path></g></g></g></svg>