<svg version="1.1" xmlns="http://www.w3.org/2000/svg" xmlns:xlink="http://www.w3.org/1999/xlink" width="41.69696" height="153.5" viewBox="0,0,41.69696,153.5"><defs><radialGradient cx="245.59288" cy="173" r="63.28061" gradientUnits="userSpaceOnUse" id="color-1"><stop offset="0" stop-color="#009bff"></stop><stop offset="1" stop-color="#009bff" stop-opacity="0"></stop></radialGradient><radialGradient cx="245.34226" cy="176.50863" r="17.16721" gradientUnits="userSpaceOnUse" id="color-2"><stop offset="0" stop-color="#000000"></stop><stop offset="1" stop-color="#0073cc"></stop></radialGradient><linearGradient x1="265.4063" y1="161.03182" x2="255.35237" y2="177.41692" gradientUnits="userSpaceOnUse" id="color-3"><stop offset="0" stop-color="#af957e"></stop><stop offset="1" stop-color="#ad8764"></stop></linearGradient><linearGradient x1="264.75211" y1="160.88234" x2="254.69818" y2="177.26744" gradientUnits="userSpaceOnUse" id="color-4"><stop offset="0" stop-color="#c9ab91"></stop><stop offset="1" stop-color="#c99d74"></stop></linearGradient><linearGradient x1="255.15566" y1="160.98531" x2="266.87516" y2="168.07593" gradientUnits="userSpaceOnUse" id="color-5"><stop offset="0" stop-color="#c9ab91"></stop><stop offset="1" stop-color="#c99d74"></stop></linearGradient></defs><g transform="translate(-226.9232,-96.25)"><g data-paper-data="{&quot;isPaintingLayer&quot;:true}" fill-rule="nonzero" stroke-width="1" stroke-linejoin="miter" stroke-miterlimit="10" stroke-dasharray="" stroke-dashoffset="0" style="mix-blend-mode: normal"><path d="M263.76256,173c0,42.11171 -8.13484,76.25 -18.16968,76.25c-10.03484,0 -18.16968,-34.13829 -18.16968,-76.25c0,-42.11171 8.13484,-76.25 18.16968,-76.25c10.03484,0 18.16968,34.13829 18.16968,76.25z" fill="url(#color-1)" stroke="#00daff" stroke-linecap="butt"></path><path d="M228.17504,193.55053l9.02219,-34.08381h15.53821l9.77403,32.83073z" fill="url(#color-2)" stroke="none" stroke-linecap="butt"></path><path d="M238.88889,192.48541v-31.45234h12.15489v31.45234z" fill="#1d00ff" stroke="none" stroke-linecap="butt"></path><path d="M246.93743,205.59013l0.76307,-13.38624l2.25189,0.12837l-0.76307,13.38624z" fill="#6844ab" stroke="none" stroke-linecap="butt"></path><g data-paper-data="{&quot;index&quot;:null}"><path d="M246.29438,208.06371l0.20681,-3.62805c0,0 1.05627,-1.94797 1.86557,-1.90184c0.60913,0.03472 1.48953,1.44248 2.53805,1.99237c1.09839,0.57605 2.35205,0.29457 2.35205,0.29457l-0.20681,3.62805z" fill="#ababab" stroke="none" stroke-linecap="butt"></path><path d="M249.24637,204.71766l-1.7586,0.02526l1.20439,-1.31197" fill="none" stroke="#000000" stroke-linecap="round"></path></g><path d="M239.51543,205.26684v-13.53328h3.1327v13.53328z" fill="#6844ab" stroke="none" stroke-linecap="butt"></path><g><path d="M236.38273,207.52239v-3.63394c0,0 1.2356,0.35237 2.365,-0.16023c1.07812,-0.48932 2.03721,-1.8447 2.64732,-1.8447c0.81062,0 1.75431,2.00493 1.75431,2.00493v3.63394z" fill="#ababab" stroke="none" stroke-linecap="butt"></path><path d="M241.01913,202.76068l1.12777,1.37839l-1.75431,-0.12531" fill="none" stroke="#000000" stroke-linecap="round"></path></g><path d="M236.20487,156.79385l5.51938,15.41349l-3.53226,1.26486l-5.51938,-15.41349z" fill="#ffbc75" stroke="none" stroke-linecap="butt"></path><path d="M240.55849,168.27731l1.49483,4.17449l-3.96041,1.41817l-1.49483,-4.17449z" fill="#979797" stroke="none" stroke-linecap="butt"></path><path d="M263.99807,169.25451l-14.39399,7.80081l-1.78769,-3.29862l14.39398,-7.8008z" fill="#ffbc75" stroke="none" stroke-linecap="butt"></path><path d="M253.31093,175.30503l-3.89837,2.11272l-2.00437,-3.69845l3.89837,-2.11272z" fill="#979797" stroke="none" stroke-linecap="butt"></path><path d="M239.95401,148.43961v-5.01233c0,0 10.92501,-12.02958 12.78143,-12.02958c1.48513,0 -2.50616,12.02958 -2.50616,12.02958v5.01233z" fill="#6684ff" stroke="none" stroke-linecap="butt"></path><path d="M244.08918,140.41988c0,-0.34603 0.28051,-0.62654 0.62654,-0.62654c0.34603,0 0.62654,0.28051 0.62654,0.62654c0,0.34603 -0.28051,0.62654 -0.62654,0.62654c-0.34603,0 -0.62654,-0.28051 -0.62654,-0.62654z" fill="#ffffff" stroke="none" stroke-linecap="butt"></path><path d="M247.34719,141.17173c0,-0.34603 0.28051,-0.62654 0.62654,-0.62654c0.34603,0 0.62654,0.28051 0.62654,0.62654c0,0.34603 -0.28051,0.62654 -0.62654,0.62654c-0.34603,0 -0.62654,-0.28051 -0.62654,-0.62654z" fill="#ffffff" stroke="none" stroke-linecap="butt"></path><path d="M249.1015,135.90879c0,-0.34603 0.28051,-0.62654 0.62654,-0.62654c0.34603,0 0.62654,0.28051 0.62654,0.62654c0,0.34603 -0.28051,0.62654 -0.62654,0.62654c-0.34603,0 -0.62654,-0.28051 -0.62654,-0.62654z" fill="#ffffff" stroke="none" stroke-linecap="butt"></path><path d="M240.32993,144.93098c0,-0.34603 0.28051,-0.62654 0.62654,-0.62654c0.34603,0 0.62654,0.28051 0.62654,0.62654c0,0.34603 -0.28051,0.62654 -0.62654,0.62654c-0.34603,0 -0.62654,-0.28051 -0.62654,-0.62654z" fill="#ffffff" stroke="none" stroke-linecap="butt"></path><path d="M245.34226,144.93098c0,-0.34603 0.28051,-0.62654 0.62654,-0.62654c0.34603,0 0.62654,0.28051 0.62654,0.62654c0,0.34603 -0.28051,0.62654 -0.62654,0.62654c-0.34603,0 -0.62654,-0.28051 -0.62654,-0.62654z" fill="#ffffff" stroke="none" stroke-linecap="butt"></path><path d="M248.85089,145.93344c0,-0.34603 0.28051,-0.62654 0.62654,-0.62654c0.34603,0 0.62654,0.28051 0.62654,0.62654c0,0.34603 -0.28051,0.62654 -0.62654,0.62654c-0.34603,0 -0.62654,-0.28051 -0.62654,-0.62654z" fill="#ffffff" stroke="none" stroke-linecap="butt"></path><path d="M242.20956,192.29745v-31.82827h4.76171v31.82827z" fill="#cccccc" stroke="none" stroke-linecap="butt"></path><path d="M251.51744,153.95636c0,3.75265 -2.98128,6.79477 -6.65887,6.79477c-3.6776,0 -6.65887,-3.04212 -6.65887,-6.79477c0,-3.75265 2.98128,-6.79477 6.65887,-6.79477c3.6776,0 6.65887,3.04212 6.65887,6.79477z" fill="#ffbc75" stroke="none" stroke-linecap="butt"></path><path d="M238.45031,156.74127l1.5037,-2.25555l11.52835,-0.75185l-1.25308,2.75678c0,0 -3.53003,11.27773 -5.26294,11.27773c-1.69115,0 -6.51602,-11.02712 -6.51602,-11.02712zM242.98385,161.57124c-0.18235,0.7294 0.54705,0.91175 0.54705,0.91175c0.13243,0.0324 0.2784,0.07203 0.43297,0.11268c0,0.4292 0,0.8311 0,1.16285c0,0 0,0.75185 0.75185,0.75185c0.75185,0 0.75185,-0.75185 0.75185,-0.75185c0,-0.06206 0,-0.87598 0,-0.93804c0.21745,-0.0137 0.42329,-0.05975 0.60538,-0.15339c1.09093,-0.56096 1.48901,-2.54451 0.6781,-3.45007c-0.25801,-0.28813 -0.70559,-0.32089 -1.07328,-0.44084c-0.98344,-0.32084 -2.83333,-0.7625 -3.19749,0.79974c-0.13781,0.5912 0.17602,1.19563 0.67362,1.65234c-0.07233,0.08231 -0.13268,0.1935 -0.17005,0.34298z" fill="#e8e8e8" stroke="none" stroke-linecap="butt"></path><path d="M242.46017,149.22278c0,-0.13841 0.11221,-0.25062 0.25062,-0.25062c0.13841,0 0.25062,0.11221 0.25062,0.25062c0,0.13841 -0.11221,0.25062 -0.25062,0.25062c-0.13841,0 -0.25062,-0.11221 -0.25062,-0.25062z" fill="#000000" stroke="none" stroke-linecap="butt"></path><path d="M247.97373,149.4734c0,-0.13841 0.11221,-0.25062 0.25062,-0.25062c0.13841,0 0.25062,0.11221 0.25062,0.25062c0,0.13841 -0.11221,0.25062 -0.25062,0.25062c-0.13841,0 -0.25062,-0.11221 -0.25062,-0.25062z" fill="#000000" stroke="none" stroke-linecap="butt"></path><g><g><path d="M255.9377,177.39615c0,0 -1.05366,-0.58199 -0.86151,-1.28987c0.04305,-0.1586 1.0501,0.05437 1.10667,-0.13086c1.01637,-3.3282 3.13517,-11.1115 3.86347,-14.31738c0.14192,-0.62472 -0.39706,-1.19639 -0.33855,-1.42264c0.08088,-0.31272 0.80513,-0.5301 0.80513,-0.5301c0,0 0.56463,0.34283 1.00743,0.20019c0.16321,-0.05258 0.24996,-0.21263 0.41277,-0.31963c0.25022,-0.16445 0.56206,-0.27608 0.68645,-0.2449c0.21393,0.05363 0.36912,0.31888 0.50882,0.62647c0.11358,0.25008 0.20593,0.53506 0.39999,0.70117c0.10596,0.0907 0.18819,-0.03235 0.30654,-0.01945c0.3004,0.03274 0.62525,0.04564 0.62525,0.04564c0,0 0.76817,0.59282 0.6629,0.99991c-0.02107,0.08147 -0.79786,0.27025 -0.83303,0.39432c-0.60675,2.14066 -3.0206,10.69049 -3.94747,14.68997c-0.06844,0.29535 0.96612,0.83681 0.90233,1.07492c-0.22129,0.82597 -1.35993,0.53174 -1.35993,0.53174c0,0 -0.20038,-0.08658 -0.48231,-0.18017c-0.1628,-0.05404 -0.36646,-0.16917 -0.53921,-0.11982c-0.43778,0.12508 -0.78711,0.82387 -1.10355,0.74455c-0.14129,-0.03542 -0.28871,-0.04684 -0.39751,-0.28234c-0.08103,-0.1754 -0.11977,-0.56325 -0.23024,-0.70652c-0.03038,-0.0394 -0.0583,-0.1223 -0.093,-0.15192c-0.18932,-0.16157 -0.49292,-0.06394 -0.68676,-0.10003c-0.27596,-0.05138 -0.41467,-0.19325 -0.41467,-0.19325z" fill="url(#color-3)" stroke="#000000" stroke-linecap="butt"></path><path d="M255.28351,177.24668c0,0 -1.05366,-0.58199 -0.86151,-1.28987c0.04305,-0.1586 1.0501,0.05437 1.10667,-0.13086c1.01637,-3.3282 3.13517,-11.1115 3.86347,-14.31738c0.14192,-0.62472 -0.39706,-1.19639 -0.33855,-1.42264c0.08088,-0.31272 0.80513,-0.5301 0.80513,-0.5301c0,0 0.56463,0.34283 1.00743,0.20019c0.16321,-0.05258 0.24996,-0.21263 0.41277,-0.31963c0.25022,-0.16445 0.56206,-0.27608 0.68645,-0.2449c0.21393,0.05363 0.36912,0.31888 0.50882,0.62647c0.11358,0.25008 0.20593,0.53506 0.39999,0.70117c0.10596,0.0907 0.18819,-0.03235 0.30654,-0.01945c0.3004,0.03274 0.62525,0.04564 0.62525,0.04564c0,0 0.76817,0.59282 0.6629,0.99991c-0.02107,0.08147 -0.79786,0.27025 -0.83303,0.39432c-0.60675,2.14066 -3.0206,10.69049 -3.94747,14.68997c-0.06844,0.29535 0.96612,0.83681 0.90233,1.07492c-0.22129,0.82597 -1.35993,0.53174 -1.35993,0.53174c0,0 -0.20038,-0.08658 -0.48231,-0.18017c-0.1628,-0.05404 -0.36646,-0.16917 -0.53921,-0.11982c-0.43778,0.12508 -0.78711,0.82387 -1.10355,0.74455c-0.14129,-0.03542 -0.28871,-0.04684 -0.39751,-0.28234c-0.08103,-0.1754 -0.11977,-0.56325 -0.23024,-0.70652c-0.03038,-0.0394 -0.0583,-0.1223 -0.093,-0.15192c-0.18932,-0.16157 -0.49292,-0.06394 -0.68676,-0.10003c-0.27596,-0.05138 -0.41467,-0.19325 -0.41467,-0.19325z" fill="url(#color-4)" stroke="#000000" stroke-linecap="butt"></path><path d="M261.32254,161.11279l-1.11897,-0.2835" fill="none" stroke="#a75900" stroke-linecap="round"></path><path d="M262.26386,160.63226l-0.72644,-0.19381" fill="none" stroke="#a75900" stroke-linecap="round"></path><path d="M259.99467,160.19723l-0.55069,-0.23713" fill="none" stroke="#a75900" stroke-linecap="round"></path><path d="M262.96769,162.72691l-0.80749,-0.14277" fill="none" stroke="#a75900" stroke-linecap="round"></path><path d="M259.07849,163.71641l0.47844,0.19279" fill="none" stroke="#a75900" stroke-linecap="round"></path><path d="M260.76668,164.44997l0.7987,0.23815" fill="none" stroke="#a75900" stroke-linecap="round"></path><path d="M260.14343,167.89696l-1.05158,-0.39332" fill="none" stroke="#a75900" stroke-linecap="round"></path><path d="M259.99972,170.0762l0.2978,0.08196" fill="none" stroke="#a75900" stroke-linecap="round"></path><path d="M259.44933,166.11062l-0.48723,-0.09742" fill="none" stroke="#a75900" stroke-linecap="round"></path><path d="M261.7234,166.69979l-0.47844,-0.19279" fill="none" stroke="#a75900" stroke-linecap="round"></path><path d="M258.91593,169.41118l-0.74891,-0.15721" fill="none" stroke="#a75900" stroke-linecap="round"></path><path d="M257.31634,171.85599l1.54368,0.64488" fill="none" stroke="#a75900" stroke-linecap="round"></path><path d="M259.44401,171.54914l0.61807,0.12732" fill="none" stroke="#a75900" stroke-linecap="round"></path><path d="M257.62106,171.03522l0.46964,0.28817" fill="none" stroke="#a75900" stroke-linecap="round"></path><path d="M257.07886,174.43117l0.47844,0.19279" fill="none" stroke="#a75900" stroke-linecap="round"></path><path d="M259.93973,175.27964l-0.60928,-0.22269" fill="none" stroke="#a75900" stroke-linecap="round"></path><path d="M256.84734,175.69995l0.4921,0.25157" fill="none" stroke="#a75900" stroke-linecap="round"></path><path d="M258.5316,176.68302l-0.3476,-0.1629" fill="none" stroke="#a75900" stroke-linecap="round"></path><path d="M258.47992,175.79474l0.27534,0.11856" fill="none" stroke="#a75900" stroke-linecap="round"></path><path d="M255.32015,176.32486l0.56435,0.2959" fill="none" stroke="#a75900" stroke-linecap="round"></path><path d="M257.29436,177.88895l-0.21675,-0.133" fill="none" stroke="#a75900" stroke-linecap="round"></path><path d="M263.82797,162.29742l0.3476,0.1629" fill="none" stroke="#703c00" stroke-linecap="round"></path><path d="M262.91617,159.97439l0.23042,0.19177" fill="none" stroke="#703c00" stroke-linecap="round"></path><path d="M257.99639,178.24414l0.25582,0.12338" fill="none" stroke="#703c00" stroke-linecap="round"></path><path d="M261.0624,178.10996l-0.30074,-0.05017" fill="none" stroke="#703c00" stroke-linecap="round"></path><path d="M260.32562,176.71732l-0.23173,-0.1086" fill="none" stroke="#703c00" stroke-linecap="round"></path><path d="M260.63829,174.15468l0.18356,0.07904" fill="none" stroke="#703c00" stroke-linecap="round"></path><path d="M261.76217,170.10791l-0.15948,-0.06427" fill="none" stroke="#703c00" stroke-linecap="round"></path><path d="M262.76553,167.23007l-0.43613,-0.09965" fill="none" stroke="#703c00" stroke-linecap="round"></path><path d="M262.40353,167.9821l-0.22262,-0.06942" fill="none" stroke="#703c00" stroke-linecap="round"></path><path d="M263.13809,164.56982l0.2467,0.08419" fill="none" stroke="#703c00" stroke-linecap="round"></path><path d="M264.66941,161.20974l0.32482,0.06494" fill="none" stroke="#703c00" stroke-linecap="round"></path><path d="M264.7846,161.61633l0.22262,0.06942" fill="none" stroke="#703c00" stroke-linecap="round"></path><path d="M262.91326,159.69547l-0.27403,-0.20174" fill="none" stroke="#703c00" stroke-linecap="round"></path></g><g><g stroke="#000000" stroke-linecap="butt"><path d="M267.09538,168.19838c0,0 -0.42345,0.79389 -0.93101,0.6671c-0.11371,-0.02841 0.04441,-0.7796 -0.08837,-0.81744c-2.38573,-0.67987 -7.9663,-2.07852 -10.26563,-2.54756c-0.44806,-0.0914 -0.86149,0.32075 -1.02372,0.28238c-0.22424,-0.05304 -0.37671,-0.5851 -0.37671,-0.5851c0,0 0.24916,-0.42611 0.14894,-0.75119c-0.03694,-0.11983 -0.15147,-0.18059 -0.22751,-0.29891c-0.11686,-0.18185 -0.19547,-0.41053 -0.17243,-0.50343c0.03961,-0.15976 0.23096,-0.28065 0.45263,-0.391c0.18023,-0.08972 0.38542,-0.16446 0.50574,-0.31198c0.06569,-0.08054 -0.02228,-0.13878 -0.01241,-0.2268c0.02505,-0.2234 0.03597,-0.46448 0.03597,-0.46448c0,0 0.42978,-0.58251 0.72169,-0.51346c0.05842,0.01382 0.19007,0.58545 0.27903,0.60878c1.53472,0.40247 7.66444,2.0029 10.53286,2.6016c0.21182,0.04421 0.60607,-0.73462 0.77679,-0.6926c0.59223,0.14579 0.37507,0.99631 0.37507,0.99631c0,0 -0.06322,0.15045 -0.13188,0.3615c-0.03965,0.12187 -0.1234,0.27538 -0.08882,0.40234c0.08763,0.32175 0.58784,0.56525 0.52924,0.80157c-0.02617,0.10552 -0.03512,0.21504 -0.20485,0.30089c-0.12642,0.06394 -0.40524,0.10123 -0.50872,0.18628c-0.02846,0.02339 -0.08815,0.04592 -0.1096,0.07229c-0.11704,0.1439 -0.04844,0.36679 -0.07536,0.51127c-0.03831,0.20569 -0.14094,0.31165 -0.14094,0.31165z" fill="#ad907c"></path><path d="M266.86322,167.64251c0,0 -0.42345,0.79389 -0.93101,0.6671c-0.11371,-0.02841 0.04441,-0.7796 -0.08837,-0.81744c-2.38573,-0.67987 -7.9663,-2.07852 -10.26563,-2.54756c-0.44806,-0.0914 -0.86149,0.32075 -1.02372,0.28238c-0.22424,-0.05304 -0.37671,-0.5851 -0.37671,-0.5851c0,0 0.24916,-0.42611 0.14894,-0.75119c-0.03694,-0.11983 -0.15147,-0.18059 -0.22751,-0.29891c-0.11686,-0.18185 -0.19546,-0.41054 -0.17243,-0.50343c0.03961,-0.15976 0.23096,-0.28065 0.45263,-0.391c0.18023,-0.08972 0.38542,-0.16446 0.50574,-0.31198c0.06569,-0.08054 -0.02228,-0.13878 -0.01241,-0.2268c0.02505,-0.2234 0.03597,-0.46448 0.03597,-0.46448c0,0 0.42978,-0.58251 0.72169,-0.51346c0.05842,0.01382 0.19007,0.58545 0.27903,0.60878c1.53472,0.40247 7.66444,2.0029 10.53286,2.6016c0.21182,0.04421 0.60607,-0.73462 0.77679,-0.6926c0.59223,0.14579 0.37507,0.99631 0.37507,0.99631c0,0 -0.06322,0.15045 -0.13188,0.3615c-0.03965,0.12187 -0.1234,0.27538 -0.08882,0.40234c0.08763,0.32175 0.58785,0.56524 0.52924,0.80157c-0.02617,0.10552 -0.03512,0.21504 -0.20485,0.30089c-0.12642,0.06394 -0.40524,0.10123 -0.50872,0.18628c-0.02846,0.02339 -0.08815,0.04592 -0.1096,0.07229c-0.11704,0.1439 -0.04844,0.36679 -0.07536,0.51127c-0.03831,0.20569 -0.14094,0.31165 -0.14094,0.31165z" fill="url(#color-5)"></path></g><path d="M257.21055,162.91682l-0.71321,-0.28386" fill="none" stroke="#a75900" stroke-linecap="round"></path><path d="M260.57939,163.89495l-0.86528,-0.26883" fill="none" stroke="#a75900" stroke-linecap="round"></path><path d="M257.42069,164.32538l-0.54364,-0.24157" fill="none" stroke="#a75900" stroke-linecap="round"></path><path d="M260.26864,165.65033l0.65831,0.2066" fill="none" stroke="#a75900" stroke-linecap="round"></path><path d="M261.37794,165.28077l0.47127,0.10697" fill="none" stroke="#a75900" stroke-linecap="round"></path><path d="M264.00594,165.57612l-0.54609,-0.14682" fill="none" stroke="#a75900" stroke-linecap="round"></path><path d="M265.02367,166.55046l-0.50868,-0.12689" fill="none" stroke="#a75900" stroke-linecap="round"></path><path d="M266.25706,165.04641l0.43387,0.08704" fill="none" stroke="#a75900" stroke-linecap="round"></path><path d="M267.40205,166.2326l-0.28179,-0.10208" fill="none" stroke="#a75900" stroke-linecap="round"></path><path d="M266.3529,167.21048l0.33912,0.0846" fill="none" stroke="#a75900" stroke-linecap="round"></path><path d="M254.71995,163.1749l0.33912,0.0846" fill="none" stroke="#a75900" stroke-linecap="round"></path><path d="M255.89147,162.59836l-0.24438,-0.08215" fill="none" stroke="#a75900" stroke-linecap="round"></path><path d="M255.59574,164.50583l-0.39401,-0.16186" fill="none" stroke="#a75900" stroke-linecap="round"></path><path d="M264.66878,164.8727l0.41149,0.21919" fill="none" stroke="#a75900" stroke-linecap="round"></path><path d="M255.24965,165.42601l-0.33668,-0.17934" fill="none" stroke="#5e3200" stroke-linecap="round"></path><path d="M256.37155,165.30327l0.7681,0.36113" fill="none" stroke="#5e3200" stroke-linecap="round"></path><path d="M267.82369,166.79337l0.24438,0.08215" fill="none" stroke="#5e3200" stroke-linecap="round"></path><path d="M267.52858,165.00338l0.22445,0.11956" fill="none" stroke="#5e3200" stroke-linecap="round"></path><path d="M266.53298,168.31489l0.37898,0.00978" fill="none" stroke="#5e3200" stroke-linecap="round"></path><path d="M264.09653,167.20914l-0.67824,-0.16919" fill="none" stroke="#5e3200" stroke-linecap="round"></path><path d="M265.52539,167.68213l-0.33912,-0.0846" fill="none" stroke="#5e3200" stroke-linecap="round"></path><path d="M259.00726,166.03493l0.60098,0.22408" fill="none" stroke="#5e3200" stroke-linecap="round"></path><path d="M262.0618,166.70156l-0.30171,-0.06467" fill="none" stroke="#5e3200" stroke-linecap="round"></path></g></g><path d="M239.46436,155.47154c0,2.69902 -2.13189,4.88702 -4.76171,4.88702c-2.62982,0 -4.76171,-2.18799 -4.76171,-4.88702c0,-2.69902 2.13189,-4.88702 4.76171,-4.88702c2.62982,0 4.76171,2.18799 4.76171,4.88702z" fill="#ffffff" stroke="#000000" stroke-linecap="butt"></path><path d="M235.87219,155.84747h-1.83785v-2.50616" fill="none" stroke="#000000" stroke-linecap="round"></path><path d="M234.20142,150.79338v-2.50616" fill="none" stroke="#000000" stroke-linecap="round"></path><path d="M232.94834,148.45429l2.42262,-0.08354" fill="none" stroke="#000000" stroke-linecap="round"></path><path d="M236.79112,150.96045l0.50123,-1.16954" fill="none" stroke="#000000" stroke-linecap="round"></path><path d="M238.71251,149.95799l-3.0074,-0.66831" fill="none" stroke="#000000" stroke-linecap="round"></path><path d="M231.44464,151.96292l-0.75185,-1.16954l1.16954,-0.75185" fill="none" stroke="#000000" stroke-linecap="round"></path><path d="M230.77633,160.48387l1.00247,-0.66831" fill="none" stroke="#ff7b00" stroke-linecap="round"></path><path d="M237.62651,159.06371l1.33662,1.42016" fill="none" stroke="#ff7b00" stroke-linecap="round"></path></g></g></svg>