<svg version="1.1" xmlns="http://www.w3.org/2000/svg" xmlns:xlink="http://www.w3.org/1999/xlink" width="32.55314" height="35.7392" viewBox="0,0,32.55314,35.7392"><g transform="translate(-223.72343,-162.1304)"><g data-paper-data="{&quot;isPaintingLayer&quot;:true}" fill-rule="nonzero" stroke="none" stroke-width="0" stroke-linecap="butt" stroke-linejoin="miter" stroke-miterlimit="10" stroke-dasharray="" stroke-dashoffset="0" style="mix-blend-mode: normal"><path d="M227.45772,197.68721v-30.28011h24.84105v30.28011z" fill="#b08237"></path><g fill="#000000"><path d="M250.95274,178.54376l1.20266,-3.47816l0.95554,0.3304l-1.20266,3.47816z"></path><path d="M228.23135,178.16062l-1.1074,-3.03993l1.63396,-0.59523l1.1074,3.03993z"></path><path d="M227.61615,176.34836c0,0 -0.54436,-1.32792 -0.54436,-1.91666c0,-0.52681 0.54436,-1.45068 0.54436,-1.45068h25.21016c0,0 0.46659,1.00785 0.46659,1.54387c0,0.58254 -0.46659,1.82346 -0.46659,1.82346z"></path><path d="M228.33024,179.63482c0,0 -0.89298,-2.09281 -0.89298,-3.08484c0,-0.92446 0.89298,-2.67894 0.89298,-2.67894h23.8669c0,0 0.56826,1.85141 0.56826,2.76011c0,1.00319 -0.56825,3.00365 -0.56825,3.00365z"></path></g><path d="M228.21931,180.30929l-0.08059,-5.23835l2.01475,0.36266l-0.0403,6.52779z" fill="#7d5411"></path><path d="M224.82025,197.65101v-33.72874h3.2906v33.72874z" fill="#b57100"></path><path d="M224.94113,167.95495v-4.60686h30.76718v4.60686z" fill="#b57100"></path><path d="M252.05877,197.8696v-33.72874h3.2906v33.72874z" fill="#b57100"></path><path d="M223.72343,163.99754v-1.86714h32.55314v1.86714z" fill="#925a00"></path><g><path d="M252.52425,180.84058l1.20266,-3.47816l0.95554,0.3304l-1.20266,3.47816z" fill="#7d5411"></path><path d="M229.80285,180.45743l-1.1074,-3.03993l1.63396,-0.59523l1.1074,3.03993z" fill="#7d5411"></path><path d="M229.18766,178.64518c0,0 -0.54436,-1.32792 -0.54436,-1.91666c0,-0.52681 0.54436,-1.45068 0.54436,-1.45068c0,0 0.29314,0 0.68374,0c2.33945,0 24.52642,0 24.52642,0c0,0 0.46659,1.00785 0.46659,1.54387c0,0.58254 -0.46659,1.82346 -0.46659,1.82346z" fill="#7d5411"></path><path d="M229.90174,181.93163c0,0 -0.89298,-2.09281 -0.89298,-3.08484c0,-0.92446 0.89298,-2.67894 0.89298,-2.67894h23.86689c0,0 0.56826,1.85141 0.56826,2.76011c0,1.00319 -0.56826,3.00365 -0.56826,3.00365z" fill="#a56e17"></path></g><path d="M235.94749,179.1278v-2.06253h0.80884v2.06253z" fill="#e0c791"></path><path d="M235.23089,180.47649c0,0 -0.6651,-0.25809 -0.6651,-0.4641c0,-0.1981 0.6651,-0.74915 0.6651,-0.74915h12.29435c0,0 0.85513,0.30941 0.85513,0.51162c0,0.04798 0.28441,0.30272 0.21097,0.37352c-0.23608,0.2276 -1.0661,0.32812 -1.0661,0.32812z" fill="#9c8a65"></path><path d="M244.5656,179.20838v-2.14342h1.09193v2.14342z" fill="#e0c791"></path><path d="M235.33955,180.90328c0,0 -0.47507,-0.44812 -0.47507,-0.65413c0,-0.1981 0.47507,-0.55913 0.47507,-0.55913h12.29435c0,0 0.85513,0.30941 0.85513,0.51162c0,0.20221 -0.85513,0.70164 -0.85513,0.70164z" fill="#c8b282"></path><path d="M249.41814,168.00182h2.61917v3.02213c0,0 -0.33779,-1.22665 -0.76536,-1.72c-0.44481,-0.51324 -1.85382,-1.30212 -1.85382,-1.30212z" fill="#9c8a65"></path><path d="M228.96147,169.39348c-0.42757,0.49335 -0.76536,1.72 -0.76536,1.72v-3.02213h2.61917c0,0 -1.40901,0.78888 -1.85382,1.30212z" data-paper-data="{&quot;index&quot;:null}" fill="#9c8a65"></path><g><path d="M250.71096,188.93987l1.20266,-3.47816l0.95554,0.3304l-1.20266,3.47816z" fill="#7d5411"></path><path d="M227.98958,188.55673l-1.1074,-3.03993l1.63396,-0.59523l1.1074,3.03993z" fill="#7d5411"></path><path d="M227.37438,186.74447c0,0 -0.54436,-1.32792 -0.54436,-1.91666c0,-0.52681 0.54436,-1.45068 0.54436,-1.45068h25.21016c0,0 0.46659,1.00785 0.46659,1.54387c0,0.58254 -0.46659,1.82346 -0.46659,1.82346z" fill="#7d5411"></path><path d="M228.08846,190.03093c0,0 -0.89298,-2.09281 -0.89298,-3.08484c0,-0.92446 0.89298,-2.67894 0.89298,-2.67894h23.86689c0,0 0.56826,1.85141 0.56826,2.76011c0,1.00319 -0.56826,3.00365 -0.56826,3.00365z" fill="#a56e17"></path></g><path d="M233.32832,187.9524v-2.06253h0.80884v2.06253z" fill="#e0c791"></path><path d="M232.32964,188.37431c0,0 -0.66511,-0.25809 -0.66511,-0.4641c0,-0.1981 0.66511,-0.74916 0.66511,-0.74916h12.29435c0,0 0.85513,0.30941 0.85513,0.51162c0,0.04798 0.28441,0.30272 0.21097,0.37352c-0.23608,0.2276 -1.0661,0.32812 -1.0661,0.32812z" fill="#9c8a65"></path><path d="M243.0344,187.9524v-2.14342h1.09193v2.14342z" fill="#e0c791"></path><path d="M232.35771,188.63991c0,0 -0.47507,-0.44812 -0.47507,-0.65413c0,-0.1981 0.47507,-0.55913 0.47507,-0.55913h12.29435c0,0 0.85513,0.30941 0.85513,0.51162c0,0.20221 -0.85513,0.70164 -0.85513,0.70164z" fill="#c8b282"></path></g></g></svg>