<svg version="1.1" xmlns="http://www.w3.org/2000/svg" xmlns:xlink="http://www.w3.org/1999/xlink" width="113.70379" height="84.07878" viewBox="0,0,113.70379,84.07878"><defs><radialGradient cx="289.32948" cy="214.77048" r="7.26891" gradientUnits="userSpaceOnUse" id="color-1"><stop offset="0" stop-color="#bdbdbd"></stop><stop offset="1" stop-color="#616161"></stop></radialGradient><radialGradient cx="202.97486" cy="205.46628" r="5.00101" gradientUnits="userSpaceOnUse" id="color-2"><stop offset="0" stop-color="#00fffa"></stop><stop offset="1" stop-color="#00cfff"></stop></radialGradient><radialGradient cx="184.05096" cy="213.42074" r="0.99708" gradientUnits="userSpaceOnUse" id="color-3"><stop offset="0" stop-color="#900000"></stop><stop offset="1" stop-color="#6f2c2c"></stop></radialGradient><radialGradient cx="188.41743" cy="213.61055" r="0.99708" gradientUnits="userSpaceOnUse" id="color-4"><stop offset="0" stop-color="#900000"></stop><stop offset="1" stop-color="#6f2c2c"></stop></radialGradient><radialGradient cx="186.16869" cy="208.2077" r="0.99708" gradientUnits="userSpaceOnUse" id="color-5"><stop offset="0" stop-color="#900000"></stop><stop offset="1" stop-color="#6f2c2c"></stop></radialGradient><radialGradient cx="186.1469" cy="203.07668" r="0.99708" gradientUnits="userSpaceOnUse" id="color-6"><stop offset="0" stop-color="#900000"></stop><stop offset="1" stop-color="#6f2c2c"></stop></radialGradient><radialGradient cx="183.84346" cy="199.10592" r="0.99708" gradientUnits="userSpaceOnUse" id="color-7"><stop offset="0" stop-color="#900000"></stop><stop offset="1" stop-color="#6f2c2c"></stop></radialGradient><radialGradient cx="188.20993" cy="199.29573" r="0.99708" gradientUnits="userSpaceOnUse" id="color-8"><stop offset="0" stop-color="#900000"></stop><stop offset="1" stop-color="#6f2c2c"></stop></radialGradient><radialGradient cx="185.96119" cy="193.89289" r="0.99708" gradientUnits="userSpaceOnUse" id="color-9"><stop offset="0" stop-color="#900000"></stop><stop offset="1" stop-color="#6f2c2c"></stop></radialGradient><radialGradient cx="185.9394" cy="188.76187" r="0.99708" gradientUnits="userSpaceOnUse" id="color-10"><stop offset="0" stop-color="#900000"></stop><stop offset="1" stop-color="#6f2c2c"></stop></radialGradient><radialGradient cx="184.00014" cy="184.6278" r="0.99708" gradientUnits="userSpaceOnUse" id="color-11"><stop offset="0" stop-color="#900000"></stop><stop offset="1" stop-color="#6f2c2c"></stop></radialGradient><radialGradient cx="188.36661" cy="184.81761" r="0.99708" gradientUnits="userSpaceOnUse" id="color-12"><stop offset="0" stop-color="#900000"></stop><stop offset="1" stop-color="#6f2c2c"></stop></radialGradient><radialGradient cx="186.11788" cy="179.41477" r="0.99708" gradientUnits="userSpaceOnUse" id="color-13"><stop offset="0" stop-color="#900000"></stop><stop offset="1" stop-color="#6f2c2c"></stop></radialGradient><radialGradient cx="186.09608" cy="174.28374" r="0.99708" gradientUnits="userSpaceOnUse" id="color-14"><stop offset="0" stop-color="#900000"></stop><stop offset="1" stop-color="#6f2c2c"></stop></radialGradient><radialGradient cx="183.87579" cy="169.19716" r="0.99708" gradientUnits="userSpaceOnUse" id="color-15"><stop offset="0" stop-color="#900000"></stop><stop offset="1" stop-color="#6f2c2c"></stop></radialGradient><radialGradient cx="188.24226" cy="169.38697" r="0.99708" gradientUnits="userSpaceOnUse" id="color-16"><stop offset="0" stop-color="#900000"></stop><stop offset="1" stop-color="#6f2c2c"></stop></radialGradient><radialGradient cx="185.99352" cy="163.98413" r="0.99708" gradientUnits="userSpaceOnUse" id="color-17"><stop offset="0" stop-color="#900000"></stop><stop offset="1" stop-color="#6f2c2c"></stop></radialGradient><radialGradient cx="185.97173" cy="158.85311" r="0.99708" gradientUnits="userSpaceOnUse" id="color-18"><stop offset="0" stop-color="#900000"></stop><stop offset="1" stop-color="#6f2c2c"></stop></radialGradient><radialGradient cx="187.90819" cy="139.44475" r="1.84316" gradientUnits="userSpaceOnUse" id="color-19"><stop offset="0" stop-color="#900000"></stop><stop offset="1" stop-color="#6f2c2c"></stop></radialGradient><radialGradient cx="187.67501" cy="147.51527" r="1.84316" gradientUnits="userSpaceOnUse" id="color-20"><stop offset="0" stop-color="#900000"></stop><stop offset="1" stop-color="#6f2c2c"></stop></radialGradient><radialGradient cx="193.10011" cy="143.38745" r="1.84316" gradientUnits="userSpaceOnUse" id="color-21"><stop offset="0" stop-color="#900000"></stop><stop offset="1" stop-color="#6f2c2c"></stop></radialGradient><radialGradient cx="198.23128" cy="143.37473" r="1.84316" gradientUnits="userSpaceOnUse" id="color-22"><stop offset="0" stop-color="#900000"></stop><stop offset="1" stop-color="#6f2c2c"></stop></radialGradient><radialGradient cx="202.22485" cy="139.13809" r="1.84316" gradientUnits="userSpaceOnUse" id="color-23"><stop offset="0" stop-color="#900000"></stop><stop offset="1" stop-color="#6f2c2c"></stop></radialGradient><radialGradient cx="201.99168" cy="147.20862" r="1.84316" gradientUnits="userSpaceOnUse" id="color-24"><stop offset="0" stop-color="#900000"></stop><stop offset="1" stop-color="#6f2c2c"></stop></radialGradient><radialGradient cx="207.41678" cy="143.08079" r="1.84316" gradientUnits="userSpaceOnUse" id="color-25"><stop offset="0" stop-color="#900000"></stop><stop offset="1" stop-color="#6f2c2c"></stop></radialGradient><radialGradient cx="212.54795" cy="143.06807" r="1.84316" gradientUnits="userSpaceOnUse" id="color-26"><stop offset="0" stop-color="#900000"></stop><stop offset="1" stop-color="#6f2c2c"></stop></radialGradient><radialGradient cx="216.70121" cy="139.50552" r="1.84316" gradientUnits="userSpaceOnUse" id="color-27"><stop offset="0" stop-color="#900000"></stop><stop offset="1" stop-color="#6f2c2c"></stop></radialGradient><radialGradient cx="216.46804" cy="147.57604" r="1.84316" gradientUnits="userSpaceOnUse" id="color-28"><stop offset="0" stop-color="#900000"></stop><stop offset="1" stop-color="#6f2c2c"></stop></radialGradient><radialGradient cx="221.89314" cy="143.44821" r="1.84316" gradientUnits="userSpaceOnUse" id="color-29"><stop offset="0" stop-color="#900000"></stop><stop offset="1" stop-color="#6f2c2c"></stop></radialGradient><radialGradient cx="227.0243" cy="143.43549" r="1.84316" gradientUnits="userSpaceOnUse" id="color-30"><stop offset="0" stop-color="#900000"></stop><stop offset="1" stop-color="#6f2c2c"></stop></radialGradient><radialGradient cx="232.13286" cy="139.35855" r="1.84316" gradientUnits="userSpaceOnUse" id="color-31"><stop offset="0" stop-color="#900000"></stop><stop offset="1" stop-color="#6f2c2c"></stop></radialGradient><radialGradient cx="231.89969" cy="147.42907" r="1.84316" gradientUnits="userSpaceOnUse" id="color-32"><stop offset="0" stop-color="#900000"></stop><stop offset="1" stop-color="#6f2c2c"></stop></radialGradient><radialGradient cx="237.32479" cy="143.30125" r="1.84316" gradientUnits="userSpaceOnUse" id="color-33"><stop offset="0" stop-color="#900000"></stop><stop offset="1" stop-color="#6f2c2c"></stop></radialGradient><radialGradient cx="242.45595" cy="143.28853" r="1.84316" gradientUnits="userSpaceOnUse" id="color-34"><stop offset="0" stop-color="#900000"></stop><stop offset="1" stop-color="#6f2c2c"></stop></radialGradient><radialGradient cx="247.38498" cy="139.32845" r="1.59999" gradientUnits="userSpaceOnUse" id="color-35"><stop offset="0" stop-color="#900000"></stop><stop offset="1" stop-color="#6f2c2c"></stop></radialGradient><radialGradient cx="247.18257" cy="147.39897" r="1.59999" gradientUnits="userSpaceOnUse" id="color-36"><stop offset="0" stop-color="#900000"></stop><stop offset="1" stop-color="#6f2c2c"></stop></radialGradient><radialGradient cx="251.89194" cy="143.27115" r="1.59999" gradientUnits="userSpaceOnUse" id="color-37"><stop offset="0" stop-color="#900000"></stop><stop offset="1" stop-color="#6f2c2c"></stop></radialGradient><radialGradient cx="256.34614" cy="143.25843" r="1.59999" gradientUnits="userSpaceOnUse" id="color-38"><stop offset="0" stop-color="#900000"></stop><stop offset="1" stop-color="#6f2c2c"></stop></radialGradient><radialGradient cx="259.81285" cy="139.02179" r="1.59999" gradientUnits="userSpaceOnUse" id="color-39"><stop offset="0" stop-color="#900000"></stop><stop offset="1" stop-color="#6f2c2c"></stop></radialGradient><radialGradient cx="259.61044" cy="147.09232" r="1.59999" gradientUnits="userSpaceOnUse" id="color-40"><stop offset="0" stop-color="#900000"></stop><stop offset="1" stop-color="#6f2c2c"></stop></radialGradient><radialGradient cx="264.31981" cy="142.96449" r="1.59999" gradientUnits="userSpaceOnUse" id="color-41"><stop offset="0" stop-color="#900000"></stop><stop offset="1" stop-color="#6f2c2c"></stop></radialGradient><radialGradient cx="268.77402" cy="142.95177" r="1.59999" gradientUnits="userSpaceOnUse" id="color-42"><stop offset="0" stop-color="#900000"></stop><stop offset="1" stop-color="#6f2c2c"></stop></radialGradient><radialGradient cx="272.37934" cy="139.38921" r="1.59999" gradientUnits="userSpaceOnUse" id="color-43"><stop offset="0" stop-color="#900000"></stop><stop offset="1" stop-color="#6f2c2c"></stop></radialGradient><radialGradient cx="272.17693" cy="147.45974" r="1.59999" gradientUnits="userSpaceOnUse" id="color-44"><stop offset="0" stop-color="#900000"></stop><stop offset="1" stop-color="#6f2c2c"></stop></radialGradient><radialGradient cx="276.8863" cy="143.33191" r="1.59999" gradientUnits="userSpaceOnUse" id="color-45"><stop offset="0" stop-color="#900000"></stop><stop offset="1" stop-color="#6f2c2c"></stop></radialGradient><radialGradient cx="281.34051" cy="143.31919" r="1.59999" gradientUnits="userSpaceOnUse" id="color-46"><stop offset="0" stop-color="#900000"></stop><stop offset="1" stop-color="#6f2c2c"></stop></radialGradient><radialGradient cx="285.77509" cy="139.24224" r="1.59999" gradientUnits="userSpaceOnUse" id="color-47"><stop offset="0" stop-color="#900000"></stop><stop offset="1" stop-color="#6f2c2c"></stop></radialGradient><radialGradient cx="285.57268" cy="147.31277" r="1.59999" gradientUnits="userSpaceOnUse" id="color-48"><stop offset="0" stop-color="#900000"></stop><stop offset="1" stop-color="#6f2c2c"></stop></radialGradient><radialGradient cx="290.28205" cy="143.18494" r="1.59999" gradientUnits="userSpaceOnUse" id="color-49"><stop offset="0" stop-color="#900000"></stop><stop offset="1" stop-color="#6f2c2c"></stop></radialGradient><radialGradient cx="294.73626" cy="143.17222" r="1.59999" gradientUnits="userSpaceOnUse" id="color-50"><stop offset="0" stop-color="#900000"></stop><stop offset="1" stop-color="#6f2c2c"></stop></radialGradient><linearGradient x1="190.15091" y1="154.52496" x2="196.80661" y2="154.52496" gradientUnits="userSpaceOnUse" id="color-51"><stop offset="0" stop-color="#9e7f4a"></stop><stop offset="1" stop-color="#d88e65"></stop></linearGradient><radialGradient cx="196.46374" cy="155.34583" r="3.78165" gradientUnits="userSpaceOnUse" id="color-52"><stop offset="0" stop-color="#3494cf"></stop><stop offset="1" stop-color="#34a1cf"></stop></radialGradient><linearGradient x1="247.05872" y1="156.50211" x2="240.40302" y2="156.50211" gradientUnits="userSpaceOnUse" id="color-53"><stop offset="0" stop-color="#9e7f4a"></stop><stop offset="1" stop-color="#d88e65"></stop></linearGradient><radialGradient cx="240.74589" cy="157.32298" r="3.78165" gradientUnits="userSpaceOnUse" id="color-54"><stop offset="0" stop-color="#3494cf"></stop><stop offset="1" stop-color="#34a1cf"></stop></radialGradient><radialGradient cx="203.26562" cy="211.51401" r="1.10487" gradientUnits="userSpaceOnUse" id="color-55"><stop offset="0" stop-color="#00fffa"></stop><stop offset="1" stop-color="#00cfff"></stop></radialGradient><radialGradient cx="194.82282" cy="157.64373" r="0.00029" gradientUnits="userSpaceOnUse" id="color-56"><stop offset="0" stop-color="#bdbdbd"></stop><stop offset="1" stop-color="#616161"></stop></radialGradient></defs><g transform="translate(-183.14811,-137.96061)"><g data-paper-data="{&quot;isPaintingLayer&quot;:true}" fill-rule="nonzero" stroke-linejoin="miter" stroke-miterlimit="10" stroke-dasharray="" stroke-dashoffset="0" style="mix-blend-mode: normal"><path d="M295.78427,214.77048c0,4.01451 -2.88991,7.26891 -6.45479,7.26891c-3.56488,0 -6.45479,-3.2544 -6.45479,-7.26891c0,-4.01451 2.88991,-7.26891 6.45479,-7.26891c3.56488,0 6.45479,3.2544 6.45479,7.26891z" fill="url(#color-1)" stroke="none" stroke-width="0" stroke-linecap="butt"></path><path d="M207.97587,205.46628c0,2.47294 -2.23903,4.47765 -5.00101,4.47765c-2.76198,0 -5.00101,-2.00471 -5.00101,-4.47765c0,-2.47294 2.23903,-4.47765 5.00101,-4.47765c2.76198,0 5.00101,2.00471 5.00101,4.47765z" fill="url(#color-2)" stroke="none" stroke-width="NaN" stroke-linecap="butt"></path><path d="M291.94629,219.94594v-63.38487h4.18689v63.38487z" fill="#d2905d" stroke="none" stroke-width="0" stroke-linecap="butt"></path><path d="M189.71638,198.54628v-2.67496h20.93445v2.67496z" fill="#d2905d" stroke="none" stroke-width="0" stroke-linecap="butt"></path><g stroke-linecap="butt"><path d="M190.00107,217.41918l-6.67826,0.06633l-0.1747,-60.10908l6.67826,-0.06632z" fill="#9e4949" stroke="none" stroke-width="NaN"></path><path d="M183.64041,214.25564c-0.06216,-0.05999 -0.10132,-0.17926 -0.1017,-0.3097c-0.00038,-0.13044 0.03809,-0.2505 0.0999,-0.3117l0.40528,-0.4014l0.07472,-0.84397c0.0114,-0.12869 0.06015,-0.23499 0.1266,-0.27596c0.06644,-0.04097 0.13961,-0.00985 0.18995,0.08077l0.3301,0.59437l0.45377,-0.12829c0.0692,-0.01956 0.13851,0.03405 0.17995,0.13916c0.04145,0.10512 0.04818,0.24441 0.01749,0.36165l-0.20126,0.76872l0.20572,0.76469c0.03137,0.1166 0.02545,0.25602 -0.01538,0.36195c-0.04083,0.10593 -0.10982,0.1609 -0.17913,0.14273l-0.45449,-0.11925l-0.32662,0.60088c-0.04981,0.09163 -0.12278,0.12419 -0.18946,0.08454c-0.06668,-0.03963 -0.11605,-0.14496 -0.1282,-0.27342l-0.07962,-0.84244z" fill="url(#color-3)" stroke="#000000" stroke-width="0"></path><path d="M188.00688,214.44545c-0.06216,-0.05999 -0.10132,-0.17926 -0.1017,-0.3097c-0.00038,-0.13044 0.03809,-0.2505 0.0999,-0.3117l0.40528,-0.4014l0.07472,-0.84397c0.0114,-0.12869 0.06015,-0.23498 0.1266,-0.27595c0.06644,-0.04097 0.13961,-0.00985 0.18995,0.08077l0.3301,0.59437l0.45377,-0.12829c0.0692,-0.01956 0.13851,0.03405 0.17995,0.13916c0.04145,0.10512 0.04818,0.2444 0.01749,0.36164l-0.20126,0.76872l0.20572,0.76469c0.03137,0.1166 0.02545,0.25602 -0.01538,0.36195c-0.04083,0.10593 -0.10982,0.1609 -0.17913,0.14272l-0.45449,-0.11925l-0.32662,0.60088c-0.04981,0.09163 -0.12278,0.12419 -0.18946,0.08454c-0.06668,-0.03963 -0.11605,-0.14496 -0.1282,-0.27342l-0.07962,-0.84244z" fill="url(#color-4)" stroke="#000000" stroke-width="0"></path><path d="M185.75814,209.0426c-0.06216,-0.05999 -0.10132,-0.17926 -0.1017,-0.3097c-0.00038,-0.13044 0.03809,-0.2505 0.0999,-0.3117l0.40528,-0.4014l0.07472,-0.84397c0.0114,-0.12869 0.06015,-0.23498 0.1266,-0.27595c0.06644,-0.04097 0.13961,-0.00985 0.18995,0.08077l0.3301,0.59437l0.45377,-0.12829c0.0692,-0.01956 0.13851,0.03405 0.17995,0.13916c0.04145,0.10512 0.04818,0.24441 0.01749,0.36165l-0.20126,0.76872l0.20572,0.76469c0.03137,0.1166 0.02545,0.25602 -0.01538,0.36195c-0.04083,0.10593 -0.10982,0.1609 -0.17913,0.14273l-0.45449,-0.11925l-0.32662,0.60088c-0.04981,0.09163 -0.12278,0.12419 -0.18946,0.08454c-0.06668,-0.03963 -0.11605,-0.14497 -0.1282,-0.27342l-0.07962,-0.84244z" fill="url(#color-5)" stroke="#000000" stroke-width="0"></path><path d="M185.73635,203.91158c-0.06216,-0.05999 -0.10132,-0.17926 -0.1017,-0.3097c-0.00038,-0.13044 0.03809,-0.2505 0.0999,-0.3117l0.40528,-0.4014l0.07472,-0.84397c0.0114,-0.12869 0.06015,-0.23498 0.1266,-0.27596c0.06644,-0.04097 0.13961,-0.00985 0.18995,0.08077l0.3301,0.59437l0.45377,-0.12829c0.0692,-0.01956 0.13851,0.03405 0.17995,0.13916c0.04145,0.10512 0.04818,0.24441 0.01749,0.36165l-0.20126,0.76872l0.20572,0.76469c0.03137,0.1166 0.02545,0.25602 -0.01538,0.36195c-0.04083,0.10593 -0.10982,0.1609 -0.17913,0.14273l-0.45449,-0.11926l-0.32662,0.60088c-0.04981,0.09163 -0.12278,0.12419 -0.18946,0.08454c-0.06668,-0.03963 -0.11605,-0.14497 -0.1282,-0.27342l-0.07962,-0.84244z" fill="url(#color-6)" stroke="#000000" stroke-width="0"></path><path d="M183.43291,199.94082c-0.06216,-0.05999 -0.10132,-0.17926 -0.1017,-0.3097c-0.00038,-0.13044 0.03809,-0.2505 0.0999,-0.3117l0.40528,-0.4014l0.07472,-0.84397c0.0114,-0.12869 0.06015,-0.23498 0.1266,-0.27595c0.06644,-0.04097 0.13961,-0.00985 0.18995,0.08077l0.3301,0.59437l0.45377,-0.12829c0.0692,-0.01956 0.13851,0.03405 0.17995,0.13916c0.04145,0.10512 0.04818,0.2444 0.01749,0.36164l-0.20126,0.76872l0.20572,0.76469c0.03137,0.1166 0.02545,0.25602 -0.01538,0.36195c-0.04083,0.10593 -0.10982,0.1609 -0.17913,0.14273l-0.45449,-0.11926l-0.32662,0.60088c-0.04981,0.09163 -0.12278,0.12419 -0.18946,0.08454c-0.06668,-0.03964 -0.11605,-0.14496 -0.1282,-0.27342l-0.07962,-0.84244z" fill="url(#color-7)" stroke="#000000" stroke-width="0"></path><path d="M187.79938,200.13063c-0.06216,-0.05999 -0.10132,-0.17926 -0.1017,-0.3097c-0.00038,-0.13044 0.03809,-0.2505 0.0999,-0.3117l0.40528,-0.4014l0.07472,-0.84397c0.0114,-0.12869 0.06015,-0.23498 0.1266,-0.27595c0.06644,-0.04097 0.13961,-0.00985 0.18995,0.08077l0.3301,0.59437l0.45377,-0.12829c0.0692,-0.01956 0.13851,0.03405 0.17995,0.13916c0.04145,0.10512 0.04818,0.2444 0.01749,0.36164l-0.20126,0.76872l0.20572,0.76469c0.03137,0.1166 0.02545,0.25602 -0.01538,0.36195c-0.04083,0.10593 -0.10982,0.1609 -0.17913,0.14273l-0.45449,-0.11926l-0.32662,0.60088c-0.04981,0.09163 -0.12278,0.12419 -0.18946,0.08454c-0.06668,-0.03964 -0.11605,-0.14496 -0.1282,-0.27342l-0.07962,-0.84244z" fill="url(#color-8)" stroke="#000000" stroke-width="0"></path><path d="M185.55064,194.72779c-0.06216,-0.05999 -0.10132,-0.17926 -0.1017,-0.3097c-0.00038,-0.13044 0.03809,-0.2505 0.0999,-0.31171l0.40528,-0.4014l0.07472,-0.84397c0.0114,-0.12869 0.06015,-0.23499 0.1266,-0.27596c0.06644,-0.04097 0.13961,-0.00985 0.18995,0.08077l0.3301,0.59437l0.45377,-0.12829c0.0692,-0.01956 0.13851,0.03405 0.17995,0.13916c0.04145,0.10512 0.04818,0.2444 0.01749,0.36165l-0.20126,0.76872l0.20572,0.76469c0.03137,0.1166 0.02545,0.25602 -0.01538,0.36195c-0.04083,0.10593 -0.10982,0.1609 -0.17913,0.14273l-0.45449,-0.11925l-0.32662,0.60088c-0.04981,0.09163 -0.12279,0.12419 -0.18946,0.08454c-0.06668,-0.03963 -0.11605,-0.14496 -0.1282,-0.27342l-0.07962,-0.84244z" fill="url(#color-9)" stroke="#000000" stroke-width="0"></path><path d="M185.52885,189.59677c-0.06216,-0.05999 -0.10132,-0.17926 -0.1017,-0.3097c-0.00038,-0.13044 0.03809,-0.2505 0.0999,-0.31171l0.40528,-0.4014l0.07472,-0.84397c0.0114,-0.12869 0.06015,-0.23498 0.1266,-0.27595c0.06644,-0.04097 0.13961,-0.00985 0.18995,0.08077l0.3301,0.59437l0.45377,-0.12829c0.0692,-0.01956 0.13851,0.03405 0.17995,0.13916c0.04145,0.10512 0.04818,0.2444 0.01749,0.36165l-0.20126,0.76872l0.20572,0.76469c0.03137,0.1166 0.02545,0.25602 -0.01538,0.36195c-0.04083,0.10593 -0.10982,0.1609 -0.17913,0.14273l-0.45449,-0.11925l-0.32662,0.60088c-0.04981,0.09163 -0.12278,0.12419 -0.18946,0.08454c-0.06668,-0.03964 -0.11605,-0.14496 -0.1282,-0.27342l-0.07962,-0.84244z" fill="url(#color-10)" stroke="#000000" stroke-width="0"></path><path d="M183.58959,185.4627c-0.06216,-0.05999 -0.10132,-0.17926 -0.1017,-0.3097c-0.00038,-0.13044 0.03809,-0.2505 0.0999,-0.31171l0.40528,-0.4014l0.07472,-0.84397c0.0114,-0.12869 0.06015,-0.23498 0.1266,-0.27595c0.06644,-0.04097 0.13961,-0.00985 0.18995,0.08077l0.3301,0.59437l0.45377,-0.12829c0.0692,-0.01956 0.13851,0.03405 0.17995,0.13916c0.04145,0.10512 0.04818,0.2444 0.01749,0.36165l-0.20126,0.76872l0.20572,0.76469c0.03137,0.1166 0.02545,0.25602 -0.01538,0.36195c-0.04083,0.10593 -0.10982,0.1609 -0.17913,0.14273l-0.45449,-0.11925l-0.32662,0.60088c-0.04981,0.09163 -0.12278,0.12419 -0.18946,0.08454c-0.06668,-0.03964 -0.11605,-0.14496 -0.1282,-0.27342l-0.07962,-0.84244z" fill="url(#color-11)" stroke="#000000" stroke-width="0"></path><path d="M187.95606,185.65251c-0.06216,-0.05999 -0.10132,-0.17926 -0.1017,-0.3097c-0.00038,-0.13044 0.03809,-0.2505 0.0999,-0.3117l0.40528,-0.4014l0.07472,-0.84397c0.0114,-0.12869 0.06015,-0.23498 0.1266,-0.27595c0.06644,-0.04097 0.13961,-0.00985 0.18995,0.08077l0.3301,0.59437l0.45377,-0.12829c0.0692,-0.01956 0.13851,0.03405 0.17995,0.13916c0.04145,0.10512 0.04818,0.24441 0.01749,0.36165l-0.20126,0.76872l0.20572,0.76469c0.03137,0.1166 0.02545,0.25602 -0.01538,0.36195c-0.04083,0.10593 -0.10982,0.1609 -0.17913,0.14273l-0.45449,-0.11925l-0.32662,0.60088c-0.04981,0.09163 -0.12278,0.12419 -0.18946,0.08454c-0.06668,-0.03964 -0.11605,-0.14496 -0.1282,-0.27342l-0.07962,-0.84244z" fill="url(#color-12)" stroke="#000000" stroke-width="0"></path><path d="M185.70732,180.24967c-0.06216,-0.05999 -0.10132,-0.17926 -0.1017,-0.3097c-0.00038,-0.13044 0.03809,-0.25049 0.0999,-0.3117l0.40528,-0.4014l0.07472,-0.84397c0.0114,-0.12869 0.06015,-0.23498 0.1266,-0.27595c0.06644,-0.04097 0.13961,-0.00985 0.18995,0.08077l0.3301,0.59437l0.45377,-0.12829c0.0692,-0.01956 0.13851,0.03405 0.17995,0.13916c0.04145,0.10512 0.04818,0.2444 0.01749,0.36165l-0.20126,0.76872l0.20572,0.76469c0.03137,0.1166 0.02545,0.25602 -0.01538,0.36195c-0.04083,0.10593 -0.10982,0.1609 -0.17913,0.14273l-0.45449,-0.11925l-0.32662,0.60088c-0.04981,0.09163 -0.12278,0.12419 -0.18946,0.08454c-0.06668,-0.03964 -0.11605,-0.14496 -0.1282,-0.27342l-0.07962,-0.84244z" fill="url(#color-13)" stroke="#000000" stroke-width="0"></path><path d="M185.68553,175.11865c-0.06216,-0.05999 -0.10132,-0.17926 -0.1017,-0.3097c-0.00038,-0.13044 0.03809,-0.2505 0.0999,-0.3117l0.40528,-0.4014l0.07472,-0.84397c0.0114,-0.12869 0.06015,-0.23498 0.1266,-0.27595c0.06644,-0.04097 0.13961,-0.00985 0.18995,0.08077l0.3301,0.59437l0.45377,-0.12829c0.0692,-0.01956 0.13851,0.03405 0.17995,0.13916c0.04145,0.10512 0.04818,0.2444 0.01749,0.36165l-0.20126,0.76872l0.20572,0.76469c0.03137,0.1166 0.02545,0.25602 -0.01538,0.36195c-0.04083,0.10593 -0.10982,0.1609 -0.17913,0.14273l-0.45449,-0.11925l-0.32662,0.60088c-0.04981,0.09163 -0.12278,0.12419 -0.18946,0.08454c-0.06668,-0.03964 -0.11605,-0.14496 -0.1282,-0.27342l-0.07962,-0.84244z" fill="url(#color-14)" stroke="#000000" stroke-width="0"></path><path d="M183.46524,170.03206c-0.06216,-0.05999 -0.10132,-0.17926 -0.1017,-0.3097c-0.00038,-0.13044 0.03809,-0.2505 0.0999,-0.3117l0.40528,-0.4014l0.07472,-0.84397c0.0114,-0.12869 0.06015,-0.23498 0.1266,-0.27595c0.06644,-0.04097 0.13961,-0.00985 0.18995,0.08077l0.3301,0.59437l0.45377,-0.12829c0.0692,-0.01955 0.13851,0.03405 0.17995,0.13916c0.04145,0.10512 0.04818,0.2444 0.01749,0.36165l-0.20126,0.76872l0.20572,0.76469c0.03137,0.1166 0.02545,0.25602 -0.01538,0.36195c-0.04083,0.10593 -0.10982,0.1609 -0.17913,0.14273l-0.45449,-0.11926l-0.32662,0.60088c-0.04981,0.09163 -0.12279,0.12419 -0.18946,0.08454c-0.06668,-0.03964 -0.11605,-0.14496 -0.1282,-0.27342l-0.07962,-0.84244z" fill="url(#color-15)" stroke="#000000" stroke-width="0"></path><path d="M187.83171,170.22187c-0.06216,-0.05999 -0.10132,-0.17926 -0.1017,-0.3097c-0.00038,-0.13044 0.03809,-0.2505 0.0999,-0.31171l0.40528,-0.4014l0.07472,-0.84397c0.0114,-0.12869 0.06015,-0.23498 0.1266,-0.27595c0.06644,-0.04097 0.13961,-0.00985 0.18995,0.08077l0.3301,0.59437l0.45377,-0.12829c0.0692,-0.01955 0.13851,0.03405 0.17995,0.13916c0.04145,0.10512 0.04818,0.2444 0.01749,0.36165l-0.20126,0.76872l0.20572,0.76469c0.03137,0.1166 0.02545,0.25602 -0.01538,0.36195c-0.04083,0.10593 -0.10982,0.1609 -0.17913,0.14273l-0.45449,-0.11925l-0.32662,0.60088c-0.04981,0.09163 -0.12278,0.12419 -0.18946,0.08454c-0.06668,-0.03963 -0.11605,-0.14496 -0.1282,-0.27342l-0.07962,-0.84244z" fill="url(#color-16)" stroke="#000000" stroke-width="0"></path><path d="M185.58297,164.81903c-0.06216,-0.05999 -0.10132,-0.17926 -0.1017,-0.3097c-0.00038,-0.13044 0.03809,-0.2505 0.0999,-0.3117l0.40528,-0.4014l0.07472,-0.84397c0.0114,-0.12869 0.06015,-0.23498 0.1266,-0.27595c0.06644,-0.04097 0.13961,-0.00985 0.18995,0.08077l0.3301,0.59437l0.45377,-0.12829c0.0692,-0.01955 0.13851,0.03405 0.17995,0.13916c0.04145,0.10512 0.04818,0.2444 0.01749,0.36164l-0.20126,0.76872l0.20572,0.76469c0.03137,0.1166 0.02545,0.25602 -0.01538,0.36195c-0.04083,0.10593 -0.10982,0.1609 -0.17913,0.14273l-0.45449,-0.11925l-0.32662,0.60088c-0.04981,0.09163 -0.12278,0.12419 -0.18946,0.08454c-0.06668,-0.03964 -0.11605,-0.14496 -0.1282,-0.27342l-0.07962,-0.84244z" fill="url(#color-17)" stroke="#000000" stroke-width="0"></path><path d="M185.56118,159.68801c-0.06216,-0.05999 -0.10132,-0.17926 -0.1017,-0.3097c-0.00038,-0.13044 0.03809,-0.2505 0.0999,-0.31171l0.40528,-0.40139l0.07472,-0.84397c0.0114,-0.12869 0.06016,-0.23499 0.1266,-0.27596c0.06644,-0.04097 0.13961,-0.00985 0.18995,0.08077l0.3301,0.59437l0.45377,-0.12829c0.0692,-0.01955 0.13851,0.03405 0.17995,0.13916c0.04145,0.10512 0.04818,0.24441 0.01749,0.36165l-0.20126,0.76872l0.20572,0.76469c0.03137,0.1166 0.02545,0.25602 -0.01538,0.36195c-0.04083,0.10593 -0.10982,0.1609 -0.17913,0.14273l-0.45449,-0.11926l-0.32662,0.60088c-0.04981,0.09163 -0.12278,0.12419 -0.18946,0.08454c-0.06668,-0.03963 -0.11605,-0.14497 -0.1282,-0.27342l-0.07962,-0.84244z" fill="url(#color-18)" stroke="#000000" stroke-width="0"></path></g><path d="M184.39682,157.61354v-16.70887h112.45508v16.70887z" fill="#c07813" stroke="none" stroke-width="0" stroke-linecap="butt"></path><path d="M296.27039,217.42598v4.4971h-112.45508v-4.4971z" data-paper-data="{&quot;index&quot;:null}" fill="#c07813" stroke="none" stroke-width="0" stroke-linecap="butt"></path><g stroke-linecap="butt"><path d="M189.1678,173.70709l-5.8466,-0.5543l0.1602,-8.22335l5.8466,0.5543z" data-paper-data="{&quot;index&quot;:null}" fill="#000000" stroke="none" stroke-width="0.25"></path><g data-paper-data="{&quot;index&quot;:null}"><path d="M188.76566,173.90023l-0.55431,-0.05255l0.00851,-0.43672l0.55431,0.05255z" fill="#e6e6e6" stroke="#000000" stroke-width="0.25"></path><path d="M184.35271,173.48577l-0.55431,-0.05255l0.00851,-0.43672l0.55431,0.05255z" fill="#e6e6e6" stroke="#000000" stroke-width="0.25"></path><path d="M189.00273,182.18048l-5.8466,-0.5543l0.1602,-8.22335l5.8466,0.5543z" fill="#8e6544" stroke="none" stroke-width="0.25"></path><path d="M185.26219,181.13208l-1.96195,-0.186l0.13154,-6.7518l1.96195,0.186z" fill="none" stroke="#513a27" stroke-width="0.25"></path><path d="M188.4013,181.42968l-1.88347,-0.17856l0.12985,-6.66524l1.88347,0.17856z" fill="none" stroke="#513a27" stroke-width="0.25"></path><text transform="translate(184.47077,175.7479) rotate(91.1159) scale(0.02666,-0.01211) skewX(1.95459)" font-size="40" xml:space="preserve" fill="#ffffff" fill-rule="nonzero" stroke="none" stroke-width="0.5" stroke-linecap="butt" stroke-linejoin="miter" stroke-miterlimit="10" stroke-dasharray="" stroke-dashoffset="0" font-family="Sans Serif" font-weight="normal" text-anchor="start" style="mix-blend-mode: normal"><tspan x="0" dy="0">xAmt8</tspan></text><path d="M183.9034,177.5633c0.02701,-1.38639 0.2158,-2.49446 0.42167,-2.47495c0.20588,0.01952 0.35087,1.15923 0.32387,2.54563c-0.02701,1.38639 -0.2158,2.49446 -0.42167,2.47495c-0.20588,-0.01952 -0.35087,-1.15923 -0.32387,-2.54563z" fill="#d59866" stroke="none" stroke-width="0.25"></path><path d="M184.39512,175.52861c-0.00233,0.11952 -0.04814,0.21224 -0.10231,0.2071c-0.05418,-0.00514 -0.09621,-0.10619 -0.09388,-0.2257c0.00233,-0.11952 0.04814,-0.21224 0.10231,-0.2071c0.05418,0.00514 0.09621,0.10619 0.09388,0.2257z" fill="#ab7a52" stroke="none" stroke-width="0.25"></path><path d="M184.31417,179.68356c-0.00233,0.11952 -0.04814,0.21224 -0.10231,0.2071c-0.05418,-0.00514 -0.09621,-0.10619 -0.09388,-0.2257c0.00233,-0.11952 0.04814,-0.21224 0.10231,-0.2071c0.05418,0.00514 0.09621,0.10619 0.09388,0.2257z" fill="#ab7a52" stroke="none" stroke-width="0.25"></path><path d="M185.66005,180.21586c0.01397,-0.7171 0.10728,-1.29065 0.20841,-1.28106c0.10113,0.00959 0.17179,0.59868 0.15782,1.31578c-0.01397,0.7171 -0.10728,1.29065 -0.20841,1.28106c-0.10113,-0.00959 -0.17179,-0.59868 -0.15782,-1.31578z" fill="#dadada" stroke="none" stroke-width="0.25"></path><path d="M185.67401,181.55626c-0.17831,0.0697 -0.34614,-0.16369 -0.37486,-0.52128c-0.02872,-0.35759 0.09254,-0.70397 0.27085,-0.77367c0.17831,-0.0697 0.34614,0.16369 0.37486,0.52128c0.02872,0.35759 -0.09254,0.70397 -0.27085,0.77367z" fill="#fff4ce" stroke="#e6ddbb" stroke-width="0.25"></path><path d="M185.59509,181.46723c-0.11077,0.0433 -0.21504,-0.10169 -0.23288,-0.32385c-0.01784,-0.22215 0.05749,-0.43735 0.16827,-0.48064c0.11077,-0.0433 0.21504,0.10169 0.23288,0.32385c0.01784,0.22215 -0.05749,0.43735 -0.16827,0.48064z" fill="#e6ddbb" stroke="#e6ddbb" stroke-width="0.25"></path><path d="M185.92293,179.92342l-0.10337,0.50427l-0.22859,-0.22804l0.10337,-0.50427z" fill="#e6ddbb" stroke="none" stroke-width="0.25"></path><path d="M185.96456,180.15985c-0.01958,0.02719 -0.19321,-0.12438 -0.22381,-0.13958l-0.04845,-0.00745c-0.01137,-0.0012 -0.02189,-0.01228 -0.02945,-0.03c-0.00713,-0.00674 -0.01337,-0.01763 -0.01798,-0.03154c-0.00471,-0.00077 -0.00943,-0.00154 -0.01414,-0.00232l-0.0041,-0.00618l-0.00051,0.00376l-0.05288,-0.0346c-0.01564,-0.00945 -0.02822,-0.03797 -0.03124,-0.07553c-0.00417,-0.05197 0.01154,-0.10156 0.0351,-0.11076v0l0.04941,-0.01931l0.00148,0.01847c0.08842,-0.06996 0.18206,-0.0759 0.27289,0.0368c0.05821,0.07223 0.18377,0.23145 0.06368,0.39825z" fill="#fff4ce" stroke="none" stroke-width="0.25"></path></g></g><g stroke-linecap="butt"><path d="M183.85071,150.42223v-12.34532h60.10995v12.34532z" fill="#9e4949" stroke="none" stroke-width="NaN"></path><path d="M187.07738,138.68135c0.06061,-0.11457 0.18026,-0.18634 0.31071,-0.18634c0.13045,0 0.25012,0.07176 0.31071,0.18634l0.39737,0.75133l0.84322,0.14266c0.12858,0.02177 0.23438,0.11246 0.27469,0.23551c0.04031,0.12305 0.00846,0.25812 -0.08266,0.35068l-0.59764,0.607l0.12378,0.83949c0.01887,0.12802 -0.03542,0.25585 -0.14094,0.3319c-0.10553,0.07605 -0.24488,0.08775 -0.36181,0.03038l-0.76671,-0.37617l-0.76672,0.37617c-0.11691,0.05737 -0.25627,0.04567 -0.36179,-0.03038c-0.10552,-0.07604 -0.15981,-0.20387 -0.14094,-0.3319l0.12377,-0.83949l-0.59763,-0.607c-0.09113,-0.09256 -0.12297,-0.22764 -0.08266,-0.35068c0.0403,-0.12305 0.14612,-0.21374 0.27469,-0.23551l0.84322,-0.14266z" fill="url(#color-19)" stroke="#000000" stroke-width="0"></path><path d="M186.8442,146.75188c0.06061,-0.11457 0.18026,-0.18634 0.31071,-0.18634c0.13045,0 0.25012,0.07176 0.31071,0.18634l0.39737,0.75133l0.84322,0.14266c0.12858,0.02177 0.23438,0.11246 0.27469,0.23551c0.04031,0.12305 0.00846,0.25812 -0.08266,0.35068l-0.59764,0.607l0.12378,0.83949c0.01887,0.12802 -0.03542,0.25585 -0.14094,0.3319c-0.10553,0.07605 -0.24488,0.08775 -0.36181,0.03038l-0.76671,-0.37617l-0.76672,0.37617c-0.11691,0.05737 -0.25627,0.04567 -0.36179,-0.03038c-0.10552,-0.07604 -0.15981,-0.20387 -0.14094,-0.3319l0.12377,-0.83949l-0.59763,-0.607c-0.09113,-0.09256 -0.12297,-0.22764 -0.08266,-0.35068c0.0403,-0.12305 0.14612,-0.21374 0.27469,-0.23551l0.84322,-0.14266z" fill="url(#color-20)" stroke="#000000" stroke-width="0"></path><path d="M192.2693,142.62405c0.06061,-0.11457 0.18026,-0.18634 0.31071,-0.18634c0.13045,0 0.25012,0.07176 0.31071,0.18634l0.39737,0.75133l0.84322,0.14266c0.12858,0.02177 0.23438,0.11246 0.27469,0.23551c0.04031,0.12305 0.00846,0.25812 -0.08266,0.35068l-0.59764,0.607l0.12378,0.83949c0.01887,0.12802 -0.03542,0.25585 -0.14094,0.3319c-0.10553,0.07605 -0.24488,0.08775 -0.36181,0.03038l-0.76671,-0.37617l-0.76672,0.37617c-0.11691,0.05737 -0.25627,0.04567 -0.36179,-0.03038c-0.10552,-0.07604 -0.15981,-0.20387 -0.14094,-0.3319l0.12377,-0.83949l-0.59763,-0.607c-0.09113,-0.09256 -0.12297,-0.22764 -0.08266,-0.35068c0.0403,-0.12305 0.14612,-0.21374 0.27469,-0.23551l0.84322,-0.14266z" fill="url(#color-21)" stroke="#000000" stroke-width="0"></path><path d="M197.40047,142.61133c0.06061,-0.11457 0.18026,-0.18634 0.31071,-0.18634c0.13045,0 0.25012,0.07176 0.31071,0.18634l0.39737,0.75133l0.84322,0.14266c0.12858,0.02177 0.23438,0.11246 0.27469,0.23551c0.04031,0.12305 0.00846,0.25812 -0.08266,0.35068l-0.59764,0.607l0.12378,0.83949c0.01887,0.12802 -0.03542,0.25585 -0.14094,0.3319c-0.10553,0.07605 -0.24488,0.08775 -0.36181,0.03038l-0.76671,-0.37617l-0.76672,0.37617c-0.11691,0.05737 -0.25627,0.04567 -0.36179,-0.03038c-0.10552,-0.07604 -0.15981,-0.20387 -0.14094,-0.3319l0.12377,-0.83949l-0.59763,-0.607c-0.09113,-0.09256 -0.12297,-0.22764 -0.08266,-0.35068c0.0403,-0.12305 0.14612,-0.21374 0.27469,-0.23551l0.84322,-0.14266z" fill="url(#color-22)" stroke="#000000" stroke-width="0"></path><path d="M201.39404,138.37469c0.06061,-0.11457 0.18026,-0.18634 0.31071,-0.18634c0.13045,0 0.25012,0.07176 0.31071,0.18634l0.39737,0.75133l0.84322,0.14266c0.12858,0.02177 0.23438,0.11246 0.27469,0.23551c0.04031,0.12305 0.00846,0.25812 -0.08266,0.35068l-0.59764,0.607l0.12378,0.83949c0.01887,0.12802 -0.03542,0.25585 -0.14094,0.3319c-0.10553,0.07605 -0.24488,0.08775 -0.36181,0.03038l-0.76671,-0.37617l-0.76672,0.37617c-0.11691,0.05737 -0.25627,0.04567 -0.36179,-0.03038c-0.10552,-0.07604 -0.15981,-0.20387 -0.14094,-0.3319l0.12377,-0.83949l-0.59763,-0.607c-0.09113,-0.09256 -0.12297,-0.22764 -0.08266,-0.35068c0.0403,-0.12305 0.14612,-0.21374 0.27469,-0.23551l0.84322,-0.14266z" fill="url(#color-23)" stroke="#000000" stroke-width="0"></path><path d="M201.16087,146.44522c0.06061,-0.11457 0.18026,-0.18634 0.31071,-0.18634c0.13045,0 0.25012,0.07176 0.31071,0.18634l0.39737,0.75133l0.84322,0.14266c0.12858,0.02177 0.23438,0.11246 0.27469,0.23551c0.04031,0.12305 0.00846,0.25812 -0.08266,0.35068l-0.59764,0.607l0.12378,0.83949c0.01887,0.12802 -0.03542,0.25585 -0.14094,0.3319c-0.10553,0.07605 -0.24488,0.08775 -0.36181,0.03038l-0.76671,-0.37617l-0.76672,0.37617c-0.11691,0.05737 -0.25627,0.04567 -0.36179,-0.03038c-0.10552,-0.07604 -0.15981,-0.20387 -0.14094,-0.3319l0.12377,-0.83949l-0.59763,-0.607c-0.09113,-0.09256 -0.12297,-0.22764 -0.08266,-0.35068c0.0403,-0.12305 0.14612,-0.21374 0.27469,-0.23551l0.84322,-0.14266z" fill="url(#color-24)" stroke="#000000" stroke-width="0"></path><path d="M206.58597,142.31739c0.06061,-0.11457 0.18026,-0.18634 0.31071,-0.18634c0.13045,0 0.25012,0.07176 0.31071,0.18634l0.39737,0.75133l0.84322,0.14266c0.12858,0.02177 0.23438,0.11246 0.27469,0.23551c0.04031,0.12305 0.00846,0.25812 -0.08266,0.35068l-0.59764,0.607l0.12378,0.83949c0.01887,0.12802 -0.03542,0.25585 -0.14094,0.3319c-0.10553,0.07605 -0.24488,0.08775 -0.36181,0.03038l-0.76671,-0.37617l-0.76672,0.37617c-0.11691,0.05737 -0.25627,0.04567 -0.36179,-0.03038c-0.10552,-0.07604 -0.15981,-0.20387 -0.14094,-0.3319l0.12377,-0.83949l-0.59763,-0.607c-0.09113,-0.09256 -0.12297,-0.22764 -0.08266,-0.35068c0.0403,-0.12305 0.14612,-0.21374 0.27469,-0.23551l0.84322,-0.14266z" fill="url(#color-25)" stroke="#000000" stroke-width="0"></path><path d="M211.71713,142.30467c0.06061,-0.11457 0.18026,-0.18634 0.31071,-0.18634c0.13045,0 0.25012,0.07176 0.31071,0.18634l0.39737,0.75133l0.84322,0.14266c0.12858,0.02177 0.23438,0.11246 0.27469,0.23551c0.04031,0.12305 0.00846,0.25812 -0.08266,0.35068l-0.59764,0.607l0.12378,0.83949c0.01887,0.12802 -0.03542,0.25585 -0.14094,0.3319c-0.10553,0.07605 -0.24488,0.08775 -0.36181,0.03038l-0.76671,-0.37617l-0.76672,0.37617c-0.11691,0.05737 -0.25627,0.04567 -0.36179,-0.03038c-0.10552,-0.07604 -0.15981,-0.20387 -0.14094,-0.3319l0.12377,-0.83949l-0.59763,-0.607c-0.09113,-0.09256 -0.12297,-0.22764 -0.08266,-0.35068c0.0403,-0.12305 0.14612,-0.21374 0.27469,-0.23551l0.84322,-0.14266z" fill="url(#color-26)" stroke="#000000" stroke-width="0"></path><path d="M215.8704,138.74211c0.06061,-0.11457 0.18026,-0.18634 0.31071,-0.18634c0.13045,0 0.25012,0.07176 0.31071,0.18634l0.39737,0.75133l0.84322,0.14266c0.12858,0.02177 0.23438,0.11246 0.27469,0.23551c0.04031,0.12305 0.00846,0.25812 -0.08266,0.35068l-0.59764,0.607l0.12378,0.83949c0.01887,0.12802 -0.03542,0.25585 -0.14094,0.3319c-0.10553,0.07605 -0.24488,0.08775 -0.36181,0.03038l-0.76671,-0.37617l-0.76672,0.37617c-0.11691,0.05737 -0.25627,0.04567 -0.36179,-0.03038c-0.10552,-0.07604 -0.15981,-0.20387 -0.14094,-0.3319l0.12377,-0.83949l-0.59763,-0.607c-0.09113,-0.09256 -0.12297,-0.22764 -0.08266,-0.35068c0.0403,-0.12305 0.14612,-0.21374 0.27469,-0.23551l0.84322,-0.14266z" fill="url(#color-27)" stroke="#000000" stroke-width="0"></path><path d="M215.63723,146.81264c0.06061,-0.11457 0.18026,-0.18634 0.31071,-0.18634c0.13045,0 0.25012,0.07176 0.31071,0.18634l0.39737,0.75133l0.84322,0.14266c0.12858,0.02177 0.23438,0.11246 0.27469,0.23551c0.04031,0.12305 0.00846,0.25812 -0.08266,0.35068l-0.59764,0.607l0.12378,0.83949c0.01887,0.12802 -0.03542,0.25585 -0.14094,0.3319c-0.10553,0.07605 -0.24488,0.08775 -0.36181,0.03038l-0.76671,-0.37617l-0.76672,0.37617c-0.11691,0.05737 -0.25627,0.04567 -0.36179,-0.03038c-0.10552,-0.07604 -0.15981,-0.20387 -0.14094,-0.3319l0.12377,-0.83949l-0.59763,-0.607c-0.09113,-0.09256 -0.12297,-0.22764 -0.08266,-0.35068c0.0403,-0.12305 0.14612,-0.21374 0.27469,-0.23551l0.84322,-0.14266z" fill="url(#color-28)" stroke="#000000" stroke-width="0"></path><path d="M221.06233,142.68481c0.06061,-0.11457 0.18026,-0.18634 0.31071,-0.18634c0.13045,0 0.25012,0.07176 0.31071,0.18634l0.39737,0.75133l0.84322,0.14266c0.12858,0.02177 0.23438,0.11246 0.27469,0.23551c0.04031,0.12305 0.00846,0.25812 -0.08266,0.35068l-0.59764,0.607l0.12378,0.83949c0.01887,0.12802 -0.03542,0.25585 -0.14094,0.3319c-0.10553,0.07605 -0.24488,0.08775 -0.36181,0.03038l-0.76671,-0.37617l-0.76672,0.37617c-0.11691,0.05737 -0.25627,0.04567 -0.36179,-0.03038c-0.10552,-0.07604 -0.15981,-0.20387 -0.14094,-0.3319l0.12377,-0.83949l-0.59763,-0.607c-0.09113,-0.09256 -0.12297,-0.22764 -0.08266,-0.35068c0.0403,-0.12305 0.14612,-0.21374 0.27469,-0.23551l0.84322,-0.14266z" fill="url(#color-29)" stroke="#000000" stroke-width="0"></path><path d="M226.19349,142.67209c0.06061,-0.11457 0.18026,-0.18634 0.31071,-0.18634c0.13045,0 0.25012,0.07176 0.31071,0.18634l0.39737,0.75133l0.84322,0.14266c0.12858,0.02177 0.23438,0.11246 0.27469,0.23551c0.04031,0.12305 0.00846,0.25812 -0.08266,0.35068l-0.59764,0.607l0.12378,0.83949c0.01887,0.12802 -0.03542,0.25585 -0.14094,0.3319c-0.10553,0.07605 -0.24488,0.08775 -0.36181,0.03038l-0.76671,-0.37617l-0.76672,0.37617c-0.11691,0.05737 -0.25627,0.04567 -0.36179,-0.03038c-0.10552,-0.07604 -0.15981,-0.20387 -0.14094,-0.3319l0.12377,-0.83949l-0.59763,-0.607c-0.09113,-0.09256 -0.12297,-0.22764 -0.08266,-0.35068c0.0403,-0.12305 0.14612,-0.21374 0.27469,-0.23551l0.84322,-0.14266z" fill="url(#color-30)" stroke="#000000" stroke-width="0"></path><path d="M231.30205,138.59515c0.06061,-0.11457 0.18026,-0.18634 0.31071,-0.18634c0.13045,0 0.25012,0.07176 0.31071,0.18634l0.39737,0.75133l0.84322,0.14266c0.12858,0.02177 0.23438,0.11246 0.27469,0.23551c0.04031,0.12305 0.00846,0.25812 -0.08266,0.35068l-0.59764,0.607l0.12378,0.83949c0.01887,0.12802 -0.03542,0.25585 -0.14094,0.3319c-0.10553,0.07605 -0.24488,0.08775 -0.36181,0.03038l-0.76671,-0.37617l-0.76672,0.37617c-0.11691,0.05737 -0.25627,0.04567 -0.36179,-0.03038c-0.10552,-0.07604 -0.15981,-0.20387 -0.14094,-0.3319l0.12377,-0.83949l-0.59763,-0.607c-0.09113,-0.09256 -0.12297,-0.22764 -0.08266,-0.35068c0.0403,-0.12305 0.14612,-0.21374 0.27469,-0.23551l0.84322,-0.14266z" fill="url(#color-31)" stroke="#000000" stroke-width="0"></path><path d="M231.06888,146.66567c0.06061,-0.11457 0.18026,-0.18634 0.31071,-0.18634c0.13045,0 0.25012,0.07176 0.31071,0.18634l0.39737,0.75133l0.84322,0.14266c0.12858,0.02177 0.23438,0.11246 0.27469,0.23551c0.04031,0.12305 0.00846,0.25812 -0.08266,0.35068l-0.59764,0.607l0.12378,0.83949c0.01887,0.12802 -0.03542,0.25585 -0.14094,0.3319c-0.10553,0.07605 -0.24488,0.08775 -0.36181,0.03038l-0.76671,-0.37617l-0.76672,0.37617c-0.11691,0.05737 -0.25627,0.04567 -0.36179,-0.03038c-0.10552,-0.07604 -0.15981,-0.20387 -0.14094,-0.3319l0.12377,-0.83949l-0.59763,-0.607c-0.09113,-0.09256 -0.12297,-0.22764 -0.08266,-0.35068c0.0403,-0.12305 0.14612,-0.21374 0.27469,-0.23551l0.84322,-0.14266z" fill="url(#color-32)" stroke="#000000" stroke-width="0"></path><path d="M236.49398,142.53784c0.06061,-0.11457 0.18026,-0.18634 0.31071,-0.18634c0.13045,0 0.25012,0.07176 0.31071,0.18634l0.39737,0.75133l0.84322,0.14266c0.12858,0.02177 0.23438,0.11246 0.27469,0.23551c0.04031,0.12305 0.00846,0.25812 -0.08266,0.35068l-0.59764,0.607l0.12378,0.83949c0.01887,0.12802 -0.03542,0.25585 -0.14094,0.3319c-0.10553,0.07605 -0.24488,0.08775 -0.36181,0.03038l-0.76671,-0.37617l-0.76672,0.37617c-0.11691,0.05737 -0.25627,0.04567 -0.36179,-0.03038c-0.10552,-0.07604 -0.15981,-0.20387 -0.14094,-0.3319l0.12377,-0.83949l-0.59763,-0.607c-0.09113,-0.09256 -0.12297,-0.22764 -0.08266,-0.35068c0.0403,-0.12305 0.14612,-0.21374 0.27469,-0.23551l0.84322,-0.14266z" fill="url(#color-33)" stroke="#000000" stroke-width="0"></path><path d="M241.62514,142.52513c0.06061,-0.11457 0.18026,-0.18634 0.31071,-0.18634c0.13045,0 0.25012,0.07176 0.31071,0.18634l0.39737,0.75133l0.84322,0.14266c0.12858,0.02177 0.23438,0.11246 0.27469,0.23551c0.04031,0.12305 0.00846,0.25812 -0.08266,0.35068l-0.59764,0.607l0.12378,0.83949c0.01887,0.12802 -0.03542,0.25585 -0.14094,0.3319c-0.10553,0.07605 -0.24488,0.08775 -0.36181,0.03038l-0.76671,-0.37617l-0.76672,0.37617c-0.11691,0.05737 -0.25627,0.04567 -0.36179,-0.03038c-0.10552,-0.07604 -0.15981,-0.20387 -0.14094,-0.3319l0.12377,-0.83949l-0.59763,-0.607c-0.09113,-0.09256 -0.12297,-0.22764 -0.08266,-0.35068c0.0403,-0.12305 0.14612,-0.21374 0.27469,-0.23551l0.84322,-0.14266z" fill="url(#color-34)" stroke="#000000" stroke-width="0"></path></g><g stroke-linecap="butt"><path d="M243.8628,150.30593v-12.34532h52.17964v12.34532z" fill="#9e4949" stroke="none" stroke-width="NaN"></path><path d="M246.66378,138.56505c0.05261,-0.11457 0.15648,-0.18634 0.26972,-0.18634c0.11324,0 0.21712,0.07176 0.26972,0.18634l0.34494,0.75133l0.73197,0.14266c0.11161,0.02177 0.20346,0.11246 0.23845,0.23551c0.03499,0.12305 0.00734,0.25812 -0.07175,0.35068l-0.51879,0.607l0.10745,0.83949c0.01638,0.12802 -0.03075,0.25585 -0.12235,0.3319c-0.09161,0.07605 -0.21257,0.08775 -0.31408,0.03038l-0.66556,-0.37617l-0.66557,0.37617c-0.10149,0.05737 -0.22246,0.04567 -0.31406,-0.03038c-0.0916,-0.07604 -0.13873,-0.20387 -0.12235,-0.3319l0.10744,-0.83949l-0.51878,-0.607c-0.07911,-0.09256 -0.10675,-0.22764 -0.07175,-0.35068c0.03498,-0.12305 0.12684,-0.21374 0.23845,-0.23551l0.73197,-0.14266z" fill="url(#color-35)" stroke="#000000" stroke-width="0"></path><path d="M246.46137,146.63557c0.05261,-0.11457 0.15648,-0.18634 0.26972,-0.18634c0.11324,0 0.21712,0.07176 0.26972,0.18634l0.34494,0.75133l0.73197,0.14266c0.11161,0.02177 0.20346,0.11246 0.23845,0.23551c0.03499,0.12305 0.00734,0.25812 -0.07175,0.35068l-0.51879,0.607l0.10745,0.83949c0.01638,0.12802 -0.03075,0.25585 -0.12235,0.3319c-0.09161,0.07605 -0.21257,0.08775 -0.31408,0.03038l-0.66556,-0.37617l-0.66557,0.37617c-0.10149,0.05737 -0.22246,0.04567 -0.31406,-0.03038c-0.0916,-0.07604 -0.13873,-0.20387 -0.12235,-0.3319l0.10744,-0.83949l-0.51878,-0.607c-0.07911,-0.09256 -0.10675,-0.22764 -0.07175,-0.35068c0.03498,-0.12305 0.12684,-0.21374 0.23845,-0.23551l0.73197,-0.14266z" fill="url(#color-36)" stroke="#000000" stroke-width="0"></path><path d="M251.17073,142.50775c0.05261,-0.11457 0.15648,-0.18634 0.26972,-0.18634c0.11324,0 0.21712,0.07176 0.26972,0.18634l0.34494,0.75133l0.73197,0.14266c0.11161,0.02177 0.20346,0.11246 0.23845,0.23551c0.03499,0.12305 0.00734,0.25812 -0.07175,0.35068l-0.51879,0.607l0.10745,0.83949c0.01638,0.12802 -0.03075,0.25585 -0.12235,0.3319c-0.09161,0.07605 -0.21257,0.08775 -0.31408,0.03038l-0.66556,-0.37617l-0.66557,0.37617c-0.10149,0.05737 -0.22246,0.04567 -0.31406,-0.03038c-0.0916,-0.07604 -0.13873,-0.20387 -0.12235,-0.3319l0.10744,-0.83949l-0.51878,-0.607c-0.07911,-0.09256 -0.10675,-0.22764 -0.07175,-0.35068c0.03498,-0.12305 0.12684,-0.21374 0.23845,-0.23551l0.73197,-0.14266z" fill="url(#color-37)" stroke="#000000" stroke-width="0"></path><path d="M255.62494,142.49502c0.05261,-0.11457 0.15648,-0.18634 0.26972,-0.18634c0.11324,0 0.21712,0.07176 0.26972,0.18634l0.34494,0.75133l0.73197,0.14266c0.11161,0.02177 0.20346,0.11246 0.23845,0.23551c0.03499,0.12305 0.00734,0.25812 -0.07175,0.35068l-0.51879,0.607l0.10745,0.83949c0.01638,0.12802 -0.03075,0.25585 -0.12235,0.3319c-0.09161,0.07605 -0.21257,0.08775 -0.31408,0.03038l-0.66556,-0.37617l-0.66557,0.37617c-0.10149,0.05737 -0.22246,0.04567 -0.31406,-0.03038c-0.0916,-0.07604 -0.13873,-0.20387 -0.12235,-0.3319l0.10744,-0.83949l-0.51878,-0.607c-0.07911,-0.09256 -0.10675,-0.22764 -0.07175,-0.35068c0.03498,-0.12305 0.12684,-0.21374 0.23845,-0.23551l0.73197,-0.14266z" fill="url(#color-38)" stroke="#000000" stroke-width="0"></path><path d="M259.09165,138.25839c0.05261,-0.11457 0.15648,-0.18634 0.26972,-0.18634c0.11324,0 0.21712,0.07176 0.26972,0.18634l0.34494,0.75133l0.73197,0.14266c0.11161,0.02177 0.20346,0.11246 0.23845,0.23551c0.03499,0.12305 0.00734,0.25812 -0.07175,0.35068l-0.51879,0.607l0.10745,0.83949c0.01638,0.12802 -0.03075,0.25585 -0.12235,0.3319c-0.09161,0.07605 -0.21257,0.08775 -0.31408,0.03038l-0.66556,-0.37617l-0.66557,0.37617c-0.10149,0.05737 -0.22246,0.04567 -0.31406,-0.03038c-0.0916,-0.07604 -0.13873,-0.20387 -0.12235,-0.3319l0.10744,-0.83949l-0.51878,-0.607c-0.07911,-0.09256 -0.10675,-0.22764 -0.07175,-0.35068c0.03498,-0.12305 0.12684,-0.21374 0.23845,-0.23551l0.73197,-0.14266z" fill="url(#color-39)" stroke="#000000" stroke-width="0"></path><path d="M258.88924,146.32892c0.05261,-0.11457 0.15648,-0.18634 0.26972,-0.18634c0.11324,0 0.21712,0.07176 0.26972,0.18634l0.34494,0.75133l0.73197,0.14266c0.11161,0.02177 0.20346,0.11246 0.23845,0.23551c0.03499,0.12305 0.00734,0.25812 -0.07175,0.35068l-0.51879,0.607l0.10745,0.83949c0.01638,0.12802 -0.03075,0.25585 -0.12235,0.3319c-0.09161,0.07605 -0.21257,0.08775 -0.31408,0.03038l-0.66556,-0.37617l-0.66557,0.37617c-0.10149,0.05737 -0.22246,0.04567 -0.31406,-0.03038c-0.0916,-0.07604 -0.13873,-0.20387 -0.12235,-0.3319l0.10744,-0.83949l-0.51878,-0.607c-0.07911,-0.09256 -0.10675,-0.22764 -0.07175,-0.35068c0.03498,-0.12305 0.12684,-0.21374 0.23845,-0.23551l0.73197,-0.14266z" fill="url(#color-40)" stroke="#000000" stroke-width="0"></path><path d="M263.5986,142.20109c0.05261,-0.11457 0.15648,-0.18634 0.26972,-0.18634c0.11324,0 0.21712,0.07176 0.26972,0.18634l0.34494,0.75133l0.73197,0.14266c0.11161,0.02177 0.20346,0.11246 0.23845,0.23551c0.03499,0.12305 0.00734,0.25812 -0.07175,0.35068l-0.51879,0.607l0.10745,0.83949c0.01638,0.12802 -0.03075,0.25585 -0.12235,0.3319c-0.09161,0.07605 -0.21257,0.08775 -0.31408,0.03038l-0.66556,-0.37617l-0.66557,0.37617c-0.10149,0.05737 -0.22246,0.04567 -0.31406,-0.03038c-0.0916,-0.07604 -0.13873,-0.20387 -0.12235,-0.3319l0.10744,-0.83949l-0.51878,-0.607c-0.07911,-0.09256 -0.10675,-0.22764 -0.07175,-0.35068c0.03498,-0.12305 0.12684,-0.21374 0.23845,-0.23551l0.73197,-0.14266z" fill="url(#color-41)" stroke="#000000" stroke-width="0"></path><path d="M268.05281,142.18837c0.05261,-0.11457 0.15648,-0.18634 0.26972,-0.18634c0.11324,0 0.21712,0.07176 0.26972,0.18634l0.34494,0.75133l0.73197,0.14266c0.11161,0.02177 0.20346,0.11246 0.23845,0.23551c0.03499,0.12305 0.00734,0.25812 -0.07175,0.35068l-0.51879,0.607l0.10745,0.83949c0.01638,0.12802 -0.03075,0.25585 -0.12235,0.3319c-0.09161,0.07605 -0.21257,0.08775 -0.31408,0.03038l-0.66556,-0.37617l-0.66557,0.37617c-0.10149,0.05737 -0.22246,0.04567 -0.31406,-0.03038c-0.0916,-0.07604 -0.13873,-0.20387 -0.12235,-0.3319l0.10744,-0.83949l-0.51878,-0.607c-0.07911,-0.09256 -0.10675,-0.22764 -0.07175,-0.35068c0.03498,-0.12305 0.12684,-0.21374 0.23845,-0.23551l0.73197,-0.14266z" fill="url(#color-42)" stroke="#000000" stroke-width="0"></path><path d="M271.65814,138.62581c0.05261,-0.11457 0.15648,-0.18634 0.26972,-0.18634c0.11324,0 0.21712,0.07176 0.26972,0.18634l0.34494,0.75133l0.73197,0.14266c0.11161,0.02177 0.20346,0.11246 0.23845,0.23551c0.03499,0.12305 0.00734,0.25812 -0.07175,0.35068l-0.51879,0.607l0.10745,0.83949c0.01638,0.12802 -0.03075,0.25585 -0.12235,0.3319c-0.09161,0.07605 -0.21257,0.08775 -0.31408,0.03038l-0.66556,-0.37617l-0.66557,0.37617c-0.10149,0.05737 -0.22246,0.04567 -0.31406,-0.03038c-0.0916,-0.07604 -0.13873,-0.20387 -0.12235,-0.3319l0.10744,-0.83949l-0.51878,-0.607c-0.07911,-0.09256 -0.10675,-0.22764 -0.07175,-0.35068c0.03498,-0.12305 0.12684,-0.21374 0.23845,-0.23551l0.73197,-0.14266z" fill="url(#color-43)" stroke="#000000" stroke-width="0"></path><path d="M271.45573,146.69634c0.05261,-0.11457 0.15648,-0.18634 0.26972,-0.18634c0.11324,0 0.21712,0.07176 0.26972,0.18634l0.34494,0.75133l0.73197,0.14266c0.11161,0.02177 0.20346,0.11246 0.23845,0.23551c0.03499,0.12305 0.00734,0.25812 -0.07175,0.35068l-0.51879,0.607l0.10745,0.83949c0.01638,0.12802 -0.03075,0.25585 -0.12235,0.3319c-0.09161,0.07605 -0.21257,0.08775 -0.31408,0.03038l-0.66556,-0.37617l-0.66557,0.37617c-0.10149,0.05737 -0.22246,0.04567 -0.31406,-0.03038c-0.0916,-0.07604 -0.13873,-0.20387 -0.12235,-0.3319l0.10744,-0.83949l-0.51878,-0.607c-0.07911,-0.09256 -0.10675,-0.22764 -0.07175,-0.35068c0.03498,-0.12305 0.12684,-0.21374 0.23845,-0.23551l0.73197,-0.14266z" fill="url(#color-44)" stroke="#000000" stroke-width="0"></path><path d="M276.16509,142.56851c0.05261,-0.11457 0.15648,-0.18634 0.26972,-0.18634c0.11324,0 0.21712,0.07176 0.26972,0.18634l0.34494,0.75133l0.73197,0.14266c0.11161,0.02177 0.20346,0.11246 0.23845,0.23551c0.03499,0.12305 0.00734,0.25812 -0.07175,0.35068l-0.51879,0.607l0.10745,0.83949c0.01638,0.12802 -0.03075,0.25585 -0.12235,0.3319c-0.09161,0.07605 -0.21257,0.08775 -0.31408,0.03038l-0.66556,-0.37617l-0.66557,0.37617c-0.10149,0.05737 -0.22246,0.04567 -0.31406,-0.03038c-0.0916,-0.07604 -0.13873,-0.20387 -0.12235,-0.3319l0.10744,-0.83949l-0.51878,-0.607c-0.07911,-0.09256 -0.10675,-0.22764 -0.07175,-0.35068c0.03498,-0.12305 0.12684,-0.21374 0.23845,-0.23551l0.73197,-0.14266z" fill="url(#color-45)" stroke="#000000" stroke-width="0"></path><path d="M280.6193,142.55579c0.05261,-0.11457 0.15648,-0.18634 0.26972,-0.18634c0.11324,0 0.21712,0.07176 0.26972,0.18634l0.34494,0.75133l0.73197,0.14266c0.11161,0.02177 0.20346,0.11246 0.23845,0.23551c0.03499,0.12305 0.00734,0.25812 -0.07175,0.35068l-0.51879,0.607l0.10745,0.83949c0.01638,0.12802 -0.03075,0.25585 -0.12235,0.3319c-0.09161,0.07605 -0.21257,0.08775 -0.31408,0.03038l-0.66556,-0.37617l-0.66557,0.37617c-0.10149,0.05737 -0.22246,0.04567 -0.31406,-0.03038c-0.0916,-0.07604 -0.13873,-0.20387 -0.12235,-0.3319l0.10744,-0.83949l-0.51878,-0.607c-0.07911,-0.09256 -0.10675,-0.22764 -0.07175,-0.35068c0.03498,-0.12305 0.12684,-0.21374 0.23845,-0.23551l0.73197,-0.14266z" fill="url(#color-46)" stroke="#000000" stroke-width="0"></path><path d="M285.05389,138.47884c0.05261,-0.11457 0.15648,-0.18634 0.26972,-0.18634c0.11324,0 0.21712,0.07176 0.26972,0.18634l0.34494,0.75133l0.73197,0.14266c0.11161,0.02177 0.20346,0.11246 0.23845,0.23551c0.03499,0.12305 0.00734,0.25812 -0.07175,0.35068l-0.51879,0.607l0.10745,0.83949c0.01638,0.12802 -0.03075,0.25585 -0.12235,0.3319c-0.09161,0.07605 -0.21257,0.08775 -0.31408,0.03038l-0.66556,-0.37617l-0.66557,0.37617c-0.10149,0.05737 -0.22246,0.04567 -0.31406,-0.03038c-0.0916,-0.07604 -0.13873,-0.20387 -0.12235,-0.3319l0.10744,-0.83949l-0.51878,-0.607c-0.07911,-0.09256 -0.10675,-0.22764 -0.07175,-0.35068c0.03498,-0.12305 0.12684,-0.21374 0.23845,-0.23551l0.73197,-0.14266z" fill="url(#color-47)" stroke="#000000" stroke-width="0"></path><path d="M284.85148,146.54937c0.05261,-0.11457 0.15648,-0.18634 0.26972,-0.18634c0.11324,0 0.21712,0.07176 0.26972,0.18634l0.34494,0.75133l0.73197,0.14266c0.11161,0.02177 0.20346,0.11246 0.23845,0.23551c0.03499,0.12305 0.00734,0.25812 -0.07175,0.35068l-0.51879,0.607l0.10745,0.83949c0.01638,0.12802 -0.03075,0.25585 -0.12235,0.3319c-0.09161,0.07605 -0.21257,0.08775 -0.31408,0.03038l-0.66556,-0.37617l-0.66557,0.37617c-0.10149,0.05737 -0.22246,0.04567 -0.31406,-0.03038c-0.0916,-0.07604 -0.13873,-0.20387 -0.12235,-0.3319l0.10744,-0.83949l-0.51878,-0.607c-0.07911,-0.09256 -0.10675,-0.22764 -0.07175,-0.35068c0.03498,-0.12305 0.12684,-0.21374 0.23845,-0.23551l0.73197,-0.14266z" fill="url(#color-48)" stroke="#000000" stroke-width="0"></path><path d="M289.56085,142.42154c0.05261,-0.11457 0.15648,-0.18634 0.26972,-0.18634c0.11324,0 0.21712,0.07176 0.26972,0.18634l0.34494,0.75133l0.73197,0.14266c0.11161,0.02177 0.20346,0.11246 0.23845,0.23551c0.03499,0.12305 0.00734,0.25812 -0.07175,0.35068l-0.51879,0.607l0.10745,0.83949c0.01638,0.12802 -0.03075,0.25585 -0.12235,0.3319c-0.09161,0.07605 -0.21257,0.08775 -0.31408,0.03038l-0.66556,-0.37617l-0.66557,0.37617c-0.10149,0.05737 -0.22246,0.04567 -0.31406,-0.03038c-0.0916,-0.07604 -0.13873,-0.20387 -0.12235,-0.3319l0.10744,-0.83949l-0.51878,-0.607c-0.07911,-0.09256 -0.10675,-0.22764 -0.07175,-0.35068c0.03498,-0.12305 0.12684,-0.21374 0.23845,-0.23551l0.73197,-0.14266z" fill="url(#color-49)" stroke="#000000" stroke-width="0"></path><path d="M294.01506,142.40882c0.05261,-0.11457 0.15648,-0.18634 0.26972,-0.18634c0.11324,0 0.21712,0.07176 0.26972,0.18634l0.34494,0.75133l0.73197,0.14266c0.11161,0.02177 0.20346,0.11246 0.23845,0.23551c0.03499,0.12305 0.00734,0.25812 -0.07175,0.35068l-0.51879,0.607l0.10745,0.83949c0.01638,0.12802 -0.03075,0.25585 -0.12235,0.3319c-0.09161,0.07605 -0.21257,0.08775 -0.31408,0.03038l-0.66556,-0.37617l-0.66557,0.37617c-0.10149,0.05737 -0.22246,0.04567 -0.31406,-0.03038c-0.0916,-0.07604 -0.13873,-0.20387 -0.12235,-0.3319l0.10744,-0.83949l-0.51878,-0.607c-0.07911,-0.09256 -0.10675,-0.22764 -0.07175,-0.35068c0.03498,-0.12305 0.12684,-0.21374 0.23845,-0.23551l0.73197,-0.14266z" fill="url(#color-50)" stroke="#000000" stroke-width="0"></path></g><path d="M227.39839,198.89519v-2.67496h20.93445v2.67496z" fill="#d2905d" stroke="none" stroke-width="0" stroke-linecap="butt"></path><path d="M247.98394,204.94292v-47.45143h10.58353v47.45143z" fill="#d2905d" stroke="none" stroke-width="0" stroke-linecap="butt"></path><g><path d="M196.80661,154.52496c0,0.34308 -1.48993,0.6212 -3.32785,0.6212c-1.83792,0 -3.32785,-0.27812 -3.32785,-0.6212c0,-0.34308 1.48993,-0.6212 3.32785,-0.6212c1.83792,0 3.32785,0.27812 3.32785,0.6212z" fill="url(#color-51)" stroke="none" stroke-width="0" stroke-linecap="butt"></path><path d="M191.03833,161.30571l-1.27063,-6.35317l7.56329,-0.24203l-1.21013,6.59519z" fill="url(#color-52)" stroke="#000000" stroke-width="0" stroke-linecap="butt"></path><path d="M189.60635,155.11389v-0.60506h7.98684v0.60506z" fill="#cea234" stroke="none" stroke-width="0" stroke-linecap="butt"></path><path d="M192.64041,154.05917c0,0 0.3394,-3.17197 0.4083,-4.40101c0.04949,-0.88284 -0.03355,-2.28453 -0.03355,-2.28453l2.92532,1.57922c0,0 -1.49709,-0.92758 -2.02866,-0.51231c-0.85964,0.67157 -0.41075,2.15698 -0.45224,2.89709c-0.05558,0.99154 -0.03382,2.76556 -0.03382,2.76556z" fill="#8c5800" stroke="none" stroke-width="0" stroke-linecap="butt"></path><path d="M190.24887,156.79663c0,0 -0.0687,0.05158 -0.09152,-0.00429c-0.0461,-0.11286 -0.16849,-0.63224 -0.16849,-0.63224l1.56466,-1.04484l0.36086,0.51552z" fill="#d5d5d5" stroke="none" stroke-width="0" stroke-linecap="butt"></path><path d="M191.17477,155.64691l0.36086,-0.51552l1.66551,1.16586l-0.36086,0.51552z" data-paper-data="{&quot;index&quot;:null}" fill="#d5d5d5" stroke="none" stroke-width="0" stroke-linecap="butt"></path><path d="M192.89097,156.8168l-0.36086,-0.51551l1.66551,-1.16586l0.36086,0.51552z" fill="#d5d5d5" stroke="none" stroke-width="0" stroke-linecap="butt"></path><path d="M193.85722,155.64691l0.36086,-0.51552l1.66551,1.16586l-0.36086,0.51552z" data-paper-data="{&quot;index&quot;:null}" fill="#d5d5d5" stroke="none" stroke-width="0" stroke-linecap="butt"></path><path d="M195.58956,156.79259l-0.36086,-0.51552l2.04872,-1.12552l-0.02235,0.47518z" data-paper-data="{&quot;index&quot;:null}" fill="#d5d5d5" stroke="none" stroke-width="0" stroke-linecap="butt"></path><path d="M190.49089,158.47064l-0.17934,-0.61636l1.52433,-1.08518l0.36086,0.51552z" fill="#d5d5d5" stroke="none" stroke-width="0" stroke-linecap="butt"></path><path d="M191.47731,157.30075l0.36086,-0.51552l1.66551,1.16586l-0.36086,0.51551z" data-paper-data="{&quot;index&quot;:null}" fill="#d5d5d5" stroke="none" stroke-width="0" stroke-linecap="butt"></path><path d="M193.19351,158.47064l-0.36086,-0.51552l1.66551,-1.16586l0.36086,0.51552z" fill="#d5d5d5" stroke="none" stroke-width="0" stroke-linecap="butt"></path><path d="M194.15975,157.30075l0.36086,-0.51552l1.66551,1.16586l-0.36086,0.51551z" data-paper-data="{&quot;index&quot;:null}" fill="#d5d5d5" stroke="none" stroke-width="0" stroke-linecap="butt"></path><path d="M195.8676,158.44644l-0.3767,-0.51552l1.43866,-0.8921c0.00225,0.13187 -0.08619,0.29296 -0.06466,0.42707c-0.00034,0.01162 -0.06368,0.04345 -0.06368,0.05515c0,0.09533 0.01151,0.18808 0.03326,0.27705z" data-paper-data="{&quot;index&quot;:null}" fill="#d5d5d5" stroke="none" stroke-width="0" stroke-linecap="butt"></path><path d="M190.95477,160.70937l-0.19951,-0.7172l1.58483,-1.08518l0.36086,0.51552z" fill="#d5d5d5" stroke="none" stroke-width="0" stroke-linecap="butt"></path><path d="M191.96135,159.43864l0.36086,-0.51552l1.66551,1.16586l-0.36086,0.51552z" data-paper-data="{&quot;index&quot;:null}" fill="#d5d5d5" stroke="none" stroke-width="0" stroke-linecap="butt"></path><path d="M193.67756,160.60853l-0.36086,-0.51551l1.66551,-1.16586l0.36086,0.51552z" fill="#d5d5d5" stroke="none" stroke-width="0" stroke-linecap="butt"></path><path d="M194.6438,159.43864l0.37332,-0.51552l1.439,0.89703c-0.0552,0.08823 -0.05735,0.24433 -0.08795,0.3454c-0.03269,0.108 -0.02936,0.16175 -0.02936,0.27996c0,0.00706 -0.146,0.03428 -0.14587,0.04132z" data-paper-data="{&quot;index&quot;:null}" fill="#d5d5d5" stroke="none" stroke-width="0" stroke-linecap="butt"></path><path d="M196.2575,160.31111c0.02313,-0.14285 0.03093,-0.31765 0.09943,-0.4391l-0.07946,0.27748z" data-paper-data="{&quot;index&quot;:null}" fill="#ffffff" stroke="none" stroke-width="0" stroke-linecap="butt"></path><path d="M196.89305,154.60752l-0.06915,0.12101l0.08644,0.1383l-0.36304,0.19016" fill="none" stroke="#000000" stroke-width="0.5" stroke-linecap="round"></path><path d="M196.70288,154.97055l0.10373,0.10373" fill="none" stroke="#000000" stroke-width="0.5" stroke-linecap="round"></path><g stroke="none" stroke-width="0" stroke-linecap="butt"><path d="M191.84173,151.32276c0,0 -0.31863,-0.35021 -0.35466,-0.53297c-0.03808,-0.19315 0.13198,-0.5965 0.13198,-0.5965l1.40799,-0.35539l0.28135,1.11466z" data-paper-data="{&quot;index&quot;:null}" fill="#b68555"></path><path d="M192.1955,150.67183l-0.02962,-0.11733l0.96213,-0.24285l0.02962,0.11733z" fill="#cd9d5e"></path><path d="M192.22383,151.21384l-0.26654,-1.05599l0.09861,-0.02489l0.26654,1.056z" fill="#cd9d5e"></path><path d="M191.48273,150.86423l-0.02369,-0.09387l0.65706,-0.16585l0.02369,0.09387z" fill="#cd9d5e"></path></g><g data-paper-data="{&quot;index&quot;:null}" stroke="none" stroke-width="0" stroke-linecap="butt"><path d="M193.18031,152.76689l0.28135,-1.11466l1.40799,0.35539c0,0 0.17006,0.40335 0.13198,0.5965c-0.03603,0.18276 -0.35466,0.53297 -0.35466,0.53297z" data-paper-data="{&quot;index&quot;:null}" fill="#b68555"></path><path d="M193.33108,152.2433l0.02962,-0.11733l0.96213,0.24285l-0.02962,0.11733z" fill="#cd9d5e"></path><path d="M194.16627,153.00327l0.26654,-1.056l0.09861,0.02489l-0.26654,1.05599z" fill="#cd9d5e"></path><path d="M194.34892,152.5127l0.02369,-0.09387l0.65706,0.16585l-0.02369,0.09387z" fill="#cd9d5e"></path></g></g><g data-paper-data="{&quot;index&quot;:null}"><path d="M243.73087,155.88091c1.83792,0 3.32785,0.27812 3.32785,0.6212c0,0.34308 -1.48993,0.6212 -3.32785,0.6212c-1.83792,0 -3.32785,-0.27812 -3.32785,-0.6212c0,-0.34308 1.48993,-0.6212 3.32785,-0.6212z" fill="url(#color-53)" stroke="none" stroke-width="0" stroke-linecap="butt"></path><path d="M241.08876,163.28285l-1.21013,-6.59519l7.56329,0.24203l-1.27063,6.35317z" fill="url(#color-54)" stroke="#000000" stroke-width="0" stroke-linecap="butt"></path><path d="M239.61644,157.09104v-0.60506h7.98684v0.60506z" fill="#cea234" stroke="none" stroke-width="0" stroke-linecap="butt"></path><path d="M243.78387,156.08034c0,0 0.02176,-1.77403 -0.03382,-2.76556c-0.04149,-0.74011 0.4074,-2.22552 -0.45224,-2.89709c-0.53157,-0.41527 -2.02866,0.51231 -2.02866,0.51231l2.92532,-1.57922c0,0 -0.08303,1.40169 -0.03355,2.28453c0.06889,1.22904 0.4083,4.40101 0.4083,4.40101z" fill="#8c5800" stroke="none" stroke-width="0" stroke-linecap="butt"></path><path d="M245.29525,157.60791l0.36086,-0.51552l1.56466,1.04484c0,0 -0.12239,0.51938 -0.16849,0.63224c-0.02282,0.05587 -0.09152,0.00429 -0.09152,0.00429z" fill="#d5d5d5" stroke="none" stroke-width="0" stroke-linecap="butt"></path><path d="M244.36935,158.7899l-0.36086,-0.51552l1.66551,-1.16586l0.36086,0.51552z" data-paper-data="{&quot;index&quot;:null}" fill="#d5d5d5" stroke="none" stroke-width="0" stroke-linecap="butt"></path><path d="M242.65315,157.62808l0.36086,-0.51552l1.66551,1.16586l-0.36086,0.51551z" fill="#d5d5d5" stroke="none" stroke-width="0" stroke-linecap="butt"></path><path d="M241.6869,158.7899l-0.36086,-0.51552l1.66551,-1.16586l0.36086,0.51552z" data-paper-data="{&quot;index&quot;:null}" fill="#d5d5d5" stroke="none" stroke-width="0" stroke-linecap="butt"></path><path d="M239.95456,157.60388l-0.02235,-0.47518l2.04872,1.12552l-0.36086,0.51552z" data-paper-data="{&quot;index&quot;:null}" fill="#d5d5d5" stroke="none" stroke-width="0" stroke-linecap="butt"></path><path d="M245.01289,159.26176l0.36086,-0.51552l1.52433,1.08518l-0.17934,0.61636z" fill="#d5d5d5" stroke="none" stroke-width="0" stroke-linecap="butt"></path><path d="M244.06682,160.44374l-0.36086,-0.51551l1.66551,-1.16586l0.36086,0.51552z" data-paper-data="{&quot;index&quot;:null}" fill="#d5d5d5" stroke="none" stroke-width="0" stroke-linecap="butt"></path><path d="M242.35061,159.28192l0.36086,-0.51552l1.66551,1.16586l-0.36086,0.51552z" fill="#d5d5d5" stroke="none" stroke-width="0" stroke-linecap="butt"></path><path d="M241.38437,160.44374l-0.36086,-0.51551l1.66551,-1.16586l0.36086,0.51552z" data-paper-data="{&quot;index&quot;:null}" fill="#d5d5d5" stroke="none" stroke-width="0" stroke-linecap="butt"></path><path d="M240.37516,159.77523c0.02175,-0.08897 0.03326,-0.18172 0.03326,-0.27705c0,-0.0117 -0.06334,-0.04353 -0.06368,-0.05515c0.02153,-0.13411 -0.06691,-0.2952 -0.06466,-0.42707l1.43866,0.8921l-0.3767,0.51552z" data-paper-data="{&quot;index&quot;:null}" fill="#d5d5d5" stroke="none" stroke-width="0" stroke-linecap="butt"></path><path d="M244.50867,161.39964l0.36086,-0.51552l1.58483,1.08518l-0.19951,0.7172z" fill="#d5d5d5" stroke="none" stroke-width="0" stroke-linecap="butt"></path><path d="M243.58277,162.58164l-0.36086,-0.51552l1.66551,-1.16586l0.36086,0.51552z" data-paper-data="{&quot;index&quot;:null}" fill="#d5d5d5" stroke="none" stroke-width="0" stroke-linecap="butt"></path><path d="M241.86656,161.41982l0.36086,-0.51552l1.66551,1.16586l-0.36086,0.51551z" fill="#d5d5d5" stroke="none" stroke-width="0" stroke-linecap="butt"></path><path d="M241.01669,162.46397c0.00013,-0.00703 -0.14587,-0.03425 -0.14587,-0.04132c0,-0.11821 0.00333,-0.17196 -0.02936,-0.27996c-0.0306,-0.10107 -0.03274,-0.25718 -0.08795,-0.3454l1.439,-0.89703l0.37332,0.51552z" data-paper-data="{&quot;index&quot;:null}" fill="#d5d5d5" stroke="none" stroke-width="0" stroke-linecap="butt"></path><path d="M240.93215,162.12663l-0.07946,-0.27748c0.06851,0.12145 0.0763,0.29625 0.09943,0.4391z" data-paper-data="{&quot;index&quot;:null}" fill="#ffffff" stroke="none" stroke-width="0" stroke-linecap="butt"></path><path d="M240.66233,157.03413l-0.36304,-0.19016l0.08644,-0.1383l-0.06915,-0.12101" fill="none" stroke="#000000" stroke-width="0.5" stroke-linecap="round"></path><path d="M240.40302,157.05143l0.10373,-0.10373" fill="none" stroke="#000000" stroke-width="0.5" stroke-linecap="round"></path><g stroke="none" stroke-width="0" stroke-linecap="butt"><path d="M243.90124,152.92971l0.28135,-1.11466l1.40799,0.35539c0,0 0.17006,0.40335 0.13198,0.5965c-0.03603,0.18276 -0.35466,0.53297 -0.35466,0.53297z" data-paper-data="{&quot;index&quot;:null}" fill="#b68555"></path><path d="M244.05201,152.40612l0.02962,-0.11733l0.96213,0.24285l-0.02962,0.11733z" fill="#cd9d5e"></path><path d="M244.88719,153.16609l0.26654,-1.056l0.09861,0.02489l-0.26654,1.05599z" fill="#cd9d5e"></path><path d="M245.06983,152.67552l0.02369,-0.09387l0.65706,0.16585l-0.02369,0.09387z" fill="#cd9d5e"></path></g><g data-paper-data="{&quot;index&quot;:null}" stroke="none" stroke-width="0" stroke-linecap="butt"><path d="M242.56265,155.11423c0,0 -0.31863,-0.35021 -0.35466,-0.53297c-0.03808,-0.19315 0.13198,-0.5965 0.13198,-0.5965l1.40799,-0.35539l0.28135,1.11466z" data-paper-data="{&quot;index&quot;:null}" fill="#b68555"></path><path d="M242.91642,154.4633l-0.02962,-0.11733l0.96213,-0.24285l0.02962,0.11733z" fill="#cd9d5e"></path><path d="M242.94475,155.0053l-0.26654,-1.05599l0.09861,-0.02489l0.26654,1.056z" fill="#cd9d5e"></path><path d="M242.20365,154.65569l-0.02369,-0.09387l0.65706,-0.16585l0.02369,0.09387z" fill="#cd9d5e"></path></g></g><g stroke="#5b412c" stroke-width="0.15"><path d="M215.53553,164.36128v-4.5319h8.95529v4.5319z" fill="#916340" stroke-linecap="butt"></path><path d="M215.53553,162.31462h9.0716" fill="none" stroke-linecap="round"></path><path d="M217.86159,159.68319c0,0 0.93042,-7.34681 0.93042,-10.96427c0,-3.54437 -0.93042,-10.5257 -0.93042,-10.5257h4.4195c0,0 -1.27933,7.0603 -1.27933,10.5257c0,3.68448 1.27933,10.96427 1.27933,10.96427z" fill="#916340" stroke-linecap="butt"></path><path d="M219.83873,160.26796v-21.92855" fill="none" stroke-linecap="round"></path></g><g stroke="#5b412c" stroke-width="0.15"><path d="M277.17587,164.71019v-4.5319h8.95529v4.5319z" fill="#916340" stroke-linecap="butt"></path><path d="M286.24747,162.66353h-9.0716" fill="none" stroke-linecap="round"></path><path d="M279.50192,160.0321c0,0 0.93042,-7.34681 0.93042,-10.96427c0,-3.54437 -0.93042,-10.5257 -0.93042,-10.5257h4.4195c0,0 -1.27933,7.0603 -1.27933,10.5257c0,3.68448 1.27933,10.96428 1.27933,10.96428z" fill="#916340" stroke-linecap="butt"></path><path d="M281.47906,138.68831v21.92855" fill="none" stroke-linecap="round"></path></g><path d="M215.07032,139.58885v-1.16303h10.00202v1.16303z" fill="#c77400" stroke="none" stroke-width="0" stroke-linecap="butt"></path><path d="M276.82696,139.35624v-1.16303h10.00202v1.16303z" fill="#c77400" stroke="none" stroke-width="0" stroke-linecap="butt"></path><g><path d="M191.74336,215.37276v-6.77878h5.64898v6.77878z" fill="#0083ff" stroke="none" stroke-width="0.15" stroke-linecap="butt"></path><path d="M191.88459,215.65521v-0.5649h5.43714v0.5649c0,0 0.0954,0.4509 -0.35802,0.64649c-0.15567,0.06715 -0.68746,-0.08266 -0.88677,-0.0372c-0.52092,0.11884 -0.86554,-0.58349 -1.444,-0.53759c-0.70534,0.05596 -1.62084,0.84626 -1.90102,0.84626c-0.31066,0 -0.84735,-0.91796 -0.84735,-0.91796z" fill="#0083ff" stroke="none" stroke-width="0.15" stroke-linecap="butt"></path><path d="M191.67275,208.80582l2.25959,-1.69469h1.48286l1.90653,1.69469z" fill="#0083ff" stroke="none" stroke-width="0.15" stroke-linecap="butt"></path><path d="M195.69765,207.18174c0,0.19499 -0.37937,0.35306 -0.84735,0.35306c-0.46798,0 -0.84735,-0.15807 -0.84735,-0.35306c0,-0.19499 0.37937,-0.35306 0.84735,-0.35306c0.46798,0 0.84735,0.15807 0.84735,0.35306z" fill="#0083ff" stroke="none" stroke-width="0.15" stroke-linecap="butt"></path><path d="M195.48581,206.96991c0,0.11699 -0.33195,0.21184 -0.74143,0.21184c-0.40948,0 -0.74143,-0.09484 -0.74143,-0.21184c0,-0.11699 0.33195,-0.21184 0.74143,-0.21184c0.40948,0 0.74143,0.09484 0.74143,0.21184z" fill="#2b99ff" stroke="#000000" stroke-width="0.15" stroke-linecap="butt"></path><path d="M197.25112,209.44133l-5.57837,-0.21184" fill="none" stroke="#00daff" stroke-width="0.15" stroke-linecap="round"></path><path d="M191.81397,211.63031h5.43714" fill="none" stroke="#00daff" stroke-width="0.15" stroke-linecap="round"></path><path d="M197.39234,213.81929l-5.93143,0.28245" fill="none" stroke="#00daff" stroke-width="0.15" stroke-linecap="round"></path><text transform="translate(192.16704,211.97888) scale(0.02204,0.02204)" font-size="40" xml:space="preserve" fill="#ffffff" fill-rule="nonzero" stroke="none" stroke-width="0.3" stroke-linecap="butt" stroke-linejoin="miter" stroke-miterlimit="10" stroke-dasharray="" stroke-dashoffset="0" font-family="Handwriting" font-weight="normal" text-anchor="start" style="mix-blend-mode: normal"><tspan x="0" dy="0">WATER JUG</tspan></text></g><g><path d="M195.59464,200.63741l6.43183,2.14088l-1.78407,5.35986l-6.43183,-2.14088z" fill="#0083ff" stroke="none" stroke-width="0.15" stroke-linecap="butt"></path><path d="M195.28204,200.68221l0.53598,0.17841l-1.71716,5.15886l-0.53598,-0.17841c0,0 -0.45795,-0.05189 -0.50033,-0.54387c-0.01455,-0.16891 0.29555,-0.62617 0.31535,-0.82963c0.05176,-0.53179 0.82698,-0.63697 0.96612,-1.20031c0.16966,-0.68692 -0.29105,-1.80515 -0.20256,-2.07098c0.09811,-0.29475 1.13859,-0.51407 1.13859,-0.51407z" fill="#0083ff" stroke="none" stroke-width="0.15" stroke-linecap="butt"></path><path d="M201.84777,202.64439l0.89433,2.67916l-0.46832,1.40696l-2.21008,1.27373z" fill="#0083ff" stroke="none" stroke-width="0.15" stroke-linecap="butt"></path><path d="M202.11758,206.97621c-0.18501,-0.06158 -0.21518,-0.47146 -0.06738,-0.91548c0.1478,-0.44402 0.41759,-0.75406 0.6026,-0.69247c0.18501,0.06158 0.21518,0.47146 0.06738,0.91548c-0.1478,0.44402 -0.41759,0.75406 -0.6026,0.69247z" fill="#0083ff" stroke="none" stroke-width="0.15" stroke-linecap="butt"></path><path d="M202.38548,206.84212c-0.11101,-0.03695 -0.09616,-0.38186 0.03316,-0.77038c0.12932,-0.38852 0.32415,-0.67353 0.43515,-0.63658c0.11101,0.03695 0.09616,0.38186 -0.03316,0.77038c-0.12932,0.38852 -0.32415,0.67353 -0.43515,0.63658z" fill="#2b99ff" stroke="#000000" stroke-width="0.15" stroke-linecap="butt"></path><path d="M201.44578,202.51058l-1.96276,5.22596" fill="none" stroke="#00daff" stroke-width="0.15" stroke-linecap="round"></path><path d="M199.12324,201.88635l-1.71716,5.15886" fill="none" stroke="#00daff" stroke-width="0.15" stroke-linecap="round"></path><path d="M195.28453,206.48789l1.60528,-5.71705" fill="none" stroke="#00daff" stroke-width="0.15" stroke-linecap="round"></path><text transform="translate(198.68101,202.11126) rotate(108.41039) scale(0.02204,0.02204)" font-size="40" xml:space="preserve" fill="#ffffff" fill-rule="nonzero" stroke="none" stroke-width="0.3" stroke-linecap="butt" stroke-linejoin="miter" stroke-miterlimit="10" stroke-dasharray="" stroke-dashoffset="0" font-family="Handwriting" font-weight="normal" text-anchor="start" style="mix-blend-mode: normal"><tspan x="0" dy="0">WATER JUG</tspan></text></g><path d="M203.74333,211.93941c-0.40581,0.45571 -0.94866,0.63468 -1.21249,0.39974c-0.26383,-0.23494 -0.14874,-0.79482 0.25707,-1.25053c0.40581,-0.45571 0.94866,-0.63468 1.21249,-0.39974c0.26383,0.23494 0.14874,0.79482 -0.25707,1.25053z" fill="url(#color-55)" stroke="none" stroke-width="0" stroke-linecap="butt"></path><path d="M205.41721,177.26292v0v0z" fill="url(#color-56)" stroke="none" stroke-width="0" stroke-linecap="butt"></path></g></g></svg>