<svg version="1.1" xmlns="http://www.w3.org/2000/svg" xmlns:xlink="http://www.w3.org/1999/xlink" width="72.69212" height="46.345" viewBox="0,0,72.69212,46.345"><g transform="translate(-399.65394,-2.21585)"><g data-paper-data="{&quot;isPaintingLayer&quot;:true}" fill-rule="nonzero" stroke-linejoin="miter" stroke-miterlimit="10" stroke-dasharray="" stroke-dashoffset="0" style="mix-blend-mode: normal"><path d="M400.65397,40.7603c0,-9.2141 0,-25.11767 0,-30.37347c0,-3.32172 2.22838,-7.17098 4.70313,-7.17098c7.6155,0 47.25533,0 61.16151,0c3.02092,0 4.82745,2.66947 4.82745,6.61536c0,9.29793 0,25.68306 0,30.92908c0,3.18022 -1.85631,6.80056 -4.95177,6.80056c-13.98338,0 -53.25349,0 -60.9129,0c-2.53265,0 -4.82745,-2.75573 -4.82745,-6.80056z" fill-opacity="0.62097" fill="#291800" stroke="#fff4ce" stroke-width="2" stroke-linecap="butt"></path><text transform="translate(405.92858,20.14793) scale(0.16675,0.16675)" font-size="40" xml:space="preserve" fill="#fff4ce" fill-rule="nonzero" stroke="none" stroke-width="1" stroke-linecap="butt" stroke-linejoin="miter" stroke-miterlimit="10" stroke-dasharray="" stroke-dashoffset="0" font-family="Serif" font-weight="normal" text-anchor="start" style="mix-blend-mode: normal"><tspan x="0" dy="0">Intense Lag detected</tspan></text><path d="M405.5328,10.12281l61.70088,0.51098" fill="none" stroke="#fff4ce" stroke-width="2" stroke-linecap="round"></path><text transform="translate(422.90613,8.07889) scale(0.12775,0.12775)" font-size="40" xml:space="preserve" fill="#ffffff" fill-rule="nonzero" stroke="none" stroke-width="1" stroke-linecap="butt" stroke-linejoin="miter" stroke-miterlimit="10" stroke-dasharray="" stroke-dashoffset="0" font-family="Serif" font-weight="normal" text-anchor="start" style="mix-blend-mode: normal"><tspan x="0" dy="0">Error</tspan></text><text transform="translate(404.25534,46.07854) scale(0.07831,0.07831)" font-size="40" xml:space="preserve" fill="#00ff3c" fill-rule="nonzero" stroke="none" stroke-width="1" stroke-linecap="butt" stroke-linejoin="miter" stroke-miterlimit="10" stroke-dasharray="" stroke-dashoffset="0" font-family="Sans Serif" font-weight="normal" text-anchor="start" style="mix-blend-mode: normal"><tspan x="0" dy="0">xAmt8</tspan></text><text transform="translate(446.15573,46.08361) scale(0.07787,0.07787)" font-size="40" xml:space="preserve" fill="#ffffff" fill-rule="nonzero" stroke="none" stroke-width="1" stroke-linecap="butt" stroke-linejoin="miter" stroke-miterlimit="10" stroke-dasharray="" stroke-dashoffset="0" font-family="Sans Serif" font-weight="normal" text-anchor="start" style="mix-blend-mode: normal"><tspan x="0" dy="0">ID: 01</tspan></text></g></g></svg>