<svg version="1.1" xmlns="http://www.w3.org/2000/svg" xmlns:xlink="http://www.w3.org/1999/xlink" width="180.51653" height="257.50967" viewBox="0,0,180.51653,257.50967"><defs><linearGradient x1="66.37956" y1="205.65607" x2="120.37956" y2="205.65607" gradientUnits="userSpaceOnUse" id="color-1"><stop offset="0" stop-color="#c6634f"></stop><stop offset="1" stop-color="#ffbc66"></stop></linearGradient></defs><g transform="translate(2.89202,-143.43528)"><g data-paper-data="{&quot;isPaintingLayer&quot;:true}" fill-rule="nonzero" stroke-linejoin="miter" stroke-miterlimit="10" stroke-dasharray="" stroke-dashoffset="0" style="mix-blend-mode: normal"><path d="M61.14645,399.51186v-151.43636h59.15483v151.43636z" fill="#b98585" stroke="none" stroke-width="0" stroke-linecap="butt"></path><path d="M122.74509,240.24201c-6.10998,15.71134 -24.08062,23.38555 -40.1386,17.14082c-16.05797,-6.24476 -24.12234,-24.0437 -18.01236,-39.75508c6.10998,-15.71134 24.08062,-23.38556 40.13858,-17.14083c16.05797,6.24476 24.12234,24.0437 18.01236,39.7551z" fill="#fffad7" stroke="none" stroke-width="0" stroke-linecap="butt"></path><path d="M28.99258,332.16409l28.08369,-67.3923l14.68496,10.07474l-28.08368,67.39231z" fill="#fffad7" stroke="none" stroke-width="0" stroke-linecap="butt"></path><path d="M177.62451,264.62312l-52.91655,50.30168l-9.36289,-15.14871l52.91656,-50.30171z" fill="#fffad7" stroke="none" stroke-width="0" stroke-linecap="butt"></path><path d="M75.34361,251.6248l-3.54929,146.70397" fill="none" stroke="#000000" stroke-width="0.5" stroke-linecap="round"></path><path d="M106.69567,255.76563l0.59155,144.92932" fill="none" stroke="#000000" stroke-width="0.5" stroke-linecap="round"></path><path d="M66.37956,212.98941l4.33333,-10l31,-6.66667l18.66667,18.66667z" fill="url(#color-1)" stroke="none" stroke-width="NaN" stroke-linecap="butt"></path><path d="M107.71289,213.32274l-36.33333,-6.66667" fill="none" stroke="#000000" stroke-width="0.5" stroke-linecap="round"></path><path d="M85.04622,201.32274l27,7" fill="none" stroke="#000000" stroke-width="0.5" stroke-linecap="round"></path><g><path d="M56.66034,227.56607c0,0 -4.48417,4.72253 -6.69335,4.55065c-1.50084,-0.11675 -5.27886,-5.48214 -5.27886,-5.48214l4.48582,-57.65555c0,0 4.53999,-4.40125 6.35379,-4.2601c2.12686,0.16549 5.61842,5.19161 5.61842,5.19161z" fill="#000000" stroke="none" stroke-width="0" stroke-linecap="butt"></path><path d="M30.18904,205.22075l-33.08107,-2.57385l0.83344,-10.71196l33.08107,2.57385z" fill="#00d95b" stroke="none" stroke-width="0" stroke-linecap="butt"></path><path d="M37.45198,179.29767l-6.54966,6.37079c0,0 -10.69653,-16.58401 -12.96593,-23.95738c-1.86952,-6.07414 10.22893,-18.27581 10.22893,-18.27581l15.049,2.53159c0,0 0.62253,5.53768 -0.68933,6.65133c-4.02695,3.41853 -17.96148,2.99084 -15.62211,8.626c2.72155,6.55585 10.54913,18.05349 10.54913,18.05349z" fill="#d90000" stroke="none" stroke-width="0" stroke-linecap="butt"></path><path d="M45.13481,145.52636c2.69704,0.20985 4.70777,2.63686 4.49121,5.42088c-0.21661,2.784 -2.57859,4.87084 -5.27559,4.66099c-2.69704,-0.20985 -4.70776,-2.63687 -4.49121,-5.42088c0.21661,-2.784 2.57858,-4.87083 5.27559,-4.66098z" fill="#ffc500" stroke="none" stroke-width="0" stroke-linecap="butt"></path><path d="M41.52896,153.16992l7.05746,-5.15625" fill="none" stroke="#000000" stroke-width="0.5" stroke-linecap="round"></path><path d="M41.38908,146.81976l4.1866,7.29897" fill="none" stroke="#000000" stroke-width="0.5" stroke-linecap="round"></path><path d="M19.77349,232.50719c-3.18278,5.20557 10.65024,6.93824 14.09993,10.9385c1.12384,1.30318 -0.34776,6.67795 -0.34776,6.67795l-15.25948,0.17344c0,0 -10.06563,-13.92613 -7.27908,-19.63801c3.38257,-6.93363 16.51543,-21.66368 16.51543,-21.66368l5.48548,7.3072c0,0 -9.51172,10.14859 -13.21454,16.20457z" data-paper-data="{&quot;index&quot;:null}" fill="#0048d9" stroke="none" stroke-width="0" stroke-linecap="butt"></path><path d="M30.86379,245.43495c0.21661,-2.784 2.57855,-4.87083 5.27559,-4.66098c2.69704,0.20985 4.70782,2.63687 4.49121,5.42087c-0.21661,2.784 -2.57859,4.87084 -5.27561,4.66099c-2.69704,-0.20985 -4.70777,-2.63686 -4.49116,-5.42086z" data-paper-data="{&quot;index&quot;:null}" fill="#ffc500" stroke="none" stroke-width="0" stroke-linecap="butt"></path><path d="M39.14974,248.93232l-6.17498,-6.18581" data-paper-data="{&quot;index&quot;:null}" fill="none" stroke="#000000" stroke-width="0.5" stroke-linecap="round"></path><path d="M37.11953,242.43507l-5.26512,6.56359" data-paper-data="{&quot;index&quot;:null}" fill="none" stroke="#000000" stroke-width="0.5" stroke-linecap="round"></path><path d="M11.43262,201.85967l-13.69454,0.8363l0.20331,-10.76099l13.95696,3.93857z" fill="#00964e" stroke="none" stroke-width="0" stroke-linecap="butt"></path><path d="M12.59154,193.07477c2.69704,0.20985 4.70782,2.63687 4.49121,5.42087c-0.21661,2.784 -2.57859,4.87083 -5.27561,4.66099c-2.69704,-0.20985 -4.70777,-2.63686 -4.49116,-5.42086c0.21661,-2.784 2.57855,-4.87083 5.27559,-4.66098z" fill="#ffc500" stroke="none" stroke-width="0" stroke-linecap="butt"></path><path d="M8.98571,200.71834l7.05746,-5.15625" fill="none" stroke="#000000" stroke-width="0.5" stroke-linecap="round"></path><path d="M13.03244,201.66715l-4.18661,-7.29898" fill="none" stroke="#000000" stroke-width="0.5" stroke-linecap="round"></path><path d="M44.97867,226.97417l-17.32817,-1.34821c0,0 -4.19004,-19.4761 -3.44039,-29.11148c0.74556,-9.58284 7.92619,-28.54407 7.92619,-28.54407l17.32818,1.34818z" fill="#dadada" stroke="none" stroke-width="0" stroke-linecap="butt"></path><path d="M42.11869,227.06862l-18.03105,-28.97884l24.04317,-27.92403" fill="none" stroke="#4a00f3" stroke-width="0.25" stroke-linecap="round"></path></g><path d="M77.21289,222.72526c0,-0.27614 0.22386,-0.5 0.5,-0.5c0.27614,0 0.5,0.22386 0.5,0.5c0,0.27614 -0.22386,0.5 -0.5,0.5c-0.27614,0 -0.5,-0.22386 -0.5,-0.5z" fill="#000000" stroke="none" stroke-width="0.5" stroke-linecap="butt"></path><path d="M99.87956,223.05859c0,-0.27614 0.22386,-0.5 0.5,-0.5c0.27614,0 0.5,0.22386 0.5,0.5c0,0.27614 -0.22386,0.5 -0.5,0.5c-0.27614,0 -0.5,-0.22386 -0.5,-0.5z" fill="#000000" stroke="none" stroke-width="0.5" stroke-linecap="butt"></path><path d="M88.37956,236.55859c-0.07044,0 -0.13096,-0.00992 -0.18296,-0.02698c-0.04492,0.12863 -0.13016,0.21386 -0.13016,0.21386c-1.2787,1.2597 -1.73536,6.92813 1.38358,5.55445c0.17763,-0.07823 1.38316,-2.56447 1.46529,-2.76037c0.40438,-0.96447 -0.3873,-2.24692 -0.29126,-3.21306c-0.897,-0.29516 -1.12206,-0.62754 -2.0209,-0.15403l0.27639,-0.11388c0,0 0,0.5 -0.5,0.5zM87.92457,235.93147l0.23138,-0.65342c1.3888,-0.66761 2.05963,-0.22964 3.31244,0.51263c0.12167,1.25145 0.85874,2.85596 0.37541,4.12027c-0.14303,0.37413 -1.46953,3.02856 -1.86804,3.23963c-4.35388,2.30601 -4.57261,-5.13117 -2.61642,-7.11221c0,0 0.2648,-0.2648 0.56523,-0.1069z" fill="#000000" stroke="none" stroke-width="0.5" stroke-linecap="butt"></path></g></g></svg>