<svg version="1.1" xmlns="http://www.w3.org/2000/svg" xmlns:xlink="http://www.w3.org/1999/xlink" width="255.15921" height="78.64482" viewBox="0,0,255.15921,78.64482"><g transform="translate(-214.42078,-17.08565)"><g data-paper-data="{&quot;isPaintingLayer&quot;:true}" fill-rule="nonzero" stroke-linecap="butt" stroke-linejoin="miter" stroke-miterlimit="10" stroke-dasharray="" stroke-dashoffset="0" style="mix-blend-mode: normal"><path d="M215.42078,85.32146c0,-12.74828 0,-34.75185 0,-42.02357c0,-4.59582 7.98021,-9.92148 16.84266,-9.92148c27.27225,0 169.22845,0 219.0287,0c10.81842,0 17.28785,3.69338 17.28785,9.15276c0,12.86427 0,35.5341 0,42.7923c0,4.40002 -6.64776,9.409 -17.73302,9.409c-50.07659,0 -190.7088,0 -218.13833,0c-9.06978,0 -17.28784,-3.81273 -17.28784,-9.409z" fill-opacity="0.56452" fill="#291800" stroke="#fff4ce" stroke-width="2"></path><text transform="translate(225.5,27.56812) scale(0.25567,0.25567)" font-size="40" xml:space="preserve" fill="#fff4ce" fill-rule="nonzero" stroke="none" stroke-width="1" stroke-linecap="butt" stroke-linejoin="miter" stroke-miterlimit="10" stroke-dasharray="" stroke-dashoffset="0" font-family="Impact" font-weight="normal" text-anchor="start" style="mix-blend-mode: normal"><tspan x="0" dy="0">UNLOCKED ACHIVEMENT</tspan></text><text transform="translate(272.30866,48.16163) scale(0.30293,0.30293)" font-size="40" xml:space="preserve" fill="#fff4ce" fill-rule="nonzero" stroke="none" stroke-width="1" stroke-linecap="butt" stroke-linejoin="miter" stroke-miterlimit="10" stroke-dasharray="" stroke-dashoffset="0" font-family="Sans Serif" font-weight="normal" text-anchor="start" style="mix-blend-mode: normal"><tspan x="0" dy="0">Debunked</tspan></text><path d="M274.70702,62.80966c0,13.46649 -11.03605,24.38323 -24.64971,24.38323c-13.61366,0 -24.64971,-10.91674 -24.64971,-24.38323c0,-13.46649 11.03605,-24.38323 24.64971,-24.38323c13.61366,0 24.64971,10.91674 24.64971,24.38323z" fill="#a0a0a0" stroke="none" stroke-width="0"></path><text transform="translate(284.5669,62.60981) scale(0.2748,0.2748)" font-size="40" xml:space="preserve" fill="#fff4ce" fill-rule="nonzero" stroke="none" stroke-width="1" stroke-linecap="butt" stroke-linejoin="miter" stroke-miterlimit="10" stroke-dasharray="" stroke-dashoffset="0" font-family="Serif" font-weight="normal" text-anchor="start" style="mix-blend-mode: normal"><tspan x="0" dy="0">Witness Magician. Yer a wizard harry!</tspan></text><g stroke="none"><path d="M241.21702,83.33242v-9.20242c0,0 20.05787,-22.08581 23.46617,-22.08581c2.72665,0 -4.60121,22.08581 -4.60121,22.08581v9.20242z" fill="#6684ff" stroke-width="NaN"></path><path d="M252.97792,64.68488c0,-0.63529 0.51501,-1.1503 1.1503,-1.1503c0.63529,0 1.1503,0.51501 1.1503,1.1503c0,0.63529 -0.51501,1.1503 -1.1503,1.1503c-0.63529,0 -1.1503,-0.51501 -1.1503,-1.1503z" fill="#ffffff" stroke-width="0.5"></path><path d="M259.69518,65.94262c0,-0.63529 0.51501,-1.1503 1.1503,-1.1503c0.63529,0 1.1503,0.51501 1.1503,1.1503c0,0.63529 -0.51501,1.1503 -1.1503,1.1503c-0.63529,0 -1.1503,-0.51501 -1.1503,-1.1503z" fill="#ffffff" stroke-width="0.5"></path><path d="M248.65101,76.15503c0,-0.63529 0.51501,-1.1503 1.1503,-1.1503c0.63529,0 1.1503,0.51501 1.1503,1.1503c0,0.63529 -0.51501,1.1503 -1.1503,1.1503c-0.63529,0 -1.1503,-0.51501 -1.1503,-1.1503z" fill="#ffffff" stroke-width="0.5"></path><path d="M255.27852,70.63738c0,-0.63529 0.51501,-1.1503 1.1503,-1.1503c0.63529,0 1.1503,0.51501 1.1503,1.1503c0,0.63529 -0.51501,1.1503 -1.1503,1.1503c-0.63529,0 -1.1503,-0.51501 -1.1503,-1.1503z" fill="#ffffff" stroke-width="0.5"></path></g></g></g></svg>