<svg version="1.1" xmlns="http://www.w3.org/2000/svg" xmlns:xlink="http://www.w3.org/1999/xlink" width="60.57347" height="45.00651" viewBox="0,0,60.57347,45.00651"><defs><linearGradient x1="216.22275" y1="169.59377" x2="225.08977" y2="169.59377" gradientUnits="userSpaceOnUse" id="color-1"><stop offset="0" stop-color="#484848"></stop><stop offset="1" stop-color="#bbbbbb"></stop></linearGradient><linearGradient x1="244.78126" y1="185.94716" x2="244.78126" y2="193.36538" gradientUnits="userSpaceOnUse" id="color-2"><stop offset="0" stop-color="#484848"></stop><stop offset="1" stop-color="#bbbbbb"></stop></linearGradient><radialGradient cx="257.18751" cy="170.68752" r="4.23946" gradientUnits="userSpaceOnUse" id="color-3"><stop offset="0" stop-color="#484848"></stop><stop offset="1" stop-color="#bbbbbb"></stop></radialGradient><radialGradient cx="241.30038" cy="176.80051" r="0.32956" gradientUnits="userSpaceOnUse" id="color-4"><stop offset="0" stop-color="#c2c2c2"></stop><stop offset="1" stop-color="#787878"></stop></radialGradient><radialGradient cx="241.62077" cy="177.37526" r="0.45577" gradientUnits="userSpaceOnUse" id="color-5"><stop offset="0" stop-color="#c2c2c2"></stop><stop offset="1" stop-color="#787878"></stop></radialGradient><radialGradient cx="240.04849" cy="176.69889" r="0.2945" gradientUnits="userSpaceOnUse" id="color-6"><stop offset="0" stop-color="#c2c2c2"></stop><stop offset="1" stop-color="#787878"></stop></radialGradient><radialGradient cx="239.76101" cy="176.73395" r="0.24541" gradientUnits="userSpaceOnUse" id="color-7"><stop offset="0" stop-color="#c2c2c2"></stop><stop offset="1" stop-color="#787878"></stop></radialGradient><radialGradient cx="240.5814" cy="176.8251" r="0.32255" gradientUnits="userSpaceOnUse" id="color-8"><stop offset="0" stop-color="#c2c2c2"></stop><stop offset="1" stop-color="#787878"></stop></radialGradient><radialGradient cx="240.8829" cy="177.16167" r="0.45577" gradientUnits="userSpaceOnUse" id="color-9"><stop offset="0" stop-color="#c2c2c2"></stop><stop offset="1" stop-color="#787878"></stop></radialGradient><radialGradient cx="240.20977" cy="177.21776" r="0.45577" gradientUnits="userSpaceOnUse" id="color-10"><stop offset="0" stop-color="#c2c2c2"></stop><stop offset="1" stop-color="#787878"></stop></radialGradient><radialGradient cx="239.50858" cy="177.14765" r="0.45577" gradientUnits="userSpaceOnUse" id="color-11"><stop offset="0" stop-color="#c2c2c2"></stop><stop offset="1" stop-color="#787878"></stop></radialGradient><linearGradient x1="240.47846" y1="177.8046" x2="240.47846" y2="181.02305" gradientUnits="userSpaceOnUse" id="color-12"><stop offset="0" stop-color="#8b8b8b"></stop><stop offset="1" stop-color="#787878"></stop></linearGradient><radialGradient cx="240.65625" cy="178.46875" r="2.8125" gradientUnits="userSpaceOnUse" id="color-13"><stop offset="0" stop-color="#06f7ed"></stop><stop offset="1" stop-color="#06f7ed" stop-opacity="0"></stop></radialGradient></defs><g transform="translate(-209.71327,-157.49676)"><g data-paper-data="{&quot;isPaintingLayer&quot;:true}" fill-rule="nonzero" stroke-linecap="butt" stroke-linejoin="miter" stroke-miterlimit="10" stroke-dasharray="" stroke-dashoffset="0" style="mix-blend-mode: normal"><path d="M209.71328,202.50327v-45.00651h60.57347v45.00651z" fill="#6d6d6d" stroke="none" stroke-width="0"></path><path d="M209.81251,178.18752v-1.625h60.125v1.625z" fill="#ad8339" stroke="none" stroke-width="0"></path><path d="M209.93751,182.68752v-1.75h60.125v1.75z" fill="#ad8339" stroke="none" stroke-width="0"></path><path d="M212.46876,181.21877v-3.125h1.3125v3.125z" fill="#82622b" stroke="none" stroke-width="0"></path><path d="M216.90626,181.15627v-3.125h1.3125v3.125z" fill="#82622b" stroke="none" stroke-width="0"></path><path d="M222.09376,181.15627v-3.125h1.3125v3.125z" fill="#82622b" stroke="none" stroke-width="0"></path><path d="M227.53126,180.84377v-3.125h1.3125v3.125z" fill="#82622b" stroke="none" stroke-width="0"></path><path d="M233.34376,180.96877v-3.125h1.3125v3.125z" fill="#82622b" stroke="none" stroke-width="0"></path><path d="M241.53126,180.96877v-3.125h1.3125v3.125z" fill="#82622b" stroke="none" stroke-width="0"></path><path d="M247.96876,181.03127v-3.125h1.3125v3.125z" fill="#82622b" stroke="none" stroke-width="0"></path><path d="M254.65626,181.15627v-3.125h1.3125v3.125z" fill="#82622b" stroke="none" stroke-width="0"></path><path d="M260.28126,181.28127v-3.125h1.3125v3.125z" fill="#82622b" stroke="none" stroke-width="0"></path><path d="M265.65626,181.15627v-3.125h1.3125v3.125z" fill="#82622b" stroke="none" stroke-width="0"></path><path d="M225.04002,170.85832c-0.36355,1.26029 -2.62093,1.7158 -5.04201,1.01741c-2.42108,-0.69839 -4.08905,-2.28621 -3.7255,-3.5465c0.36355,-1.26029 2.62093,-1.7158 5.04201,-1.01741c2.42108,0.69839 4.08905,2.28621 3.7255,3.5465z" fill="url(#color-1)" stroke="none" stroke-width="0"></path><path d="M246.68684,190.59669c-0.97765,1.98103 -2.62335,3.16594 -3.67578,2.64656c-1.05242,-0.51938 -1.11304,-2.54636 -0.13539,-4.52739c0.97765,-1.98103 2.62335,-3.16594 3.67578,-2.64656c1.05242,0.51938 1.11304,2.54636 0.13539,4.52739z" fill="url(#color-2)" stroke="none" stroke-width="0"></path><path d="M261.38365,172.03192c-0.33175,1.03546 -2.47937,1.27297 -4.79683,0.53048c-2.31747,-0.74249 -3.92721,-2.18381 -3.59546,-3.21927c0.33175,-1.03546 2.47937,-1.27297 4.79683,-0.53048c2.31747,0.74249 3.92721,2.18381 3.59546,3.21927z" fill="url(#color-3)" stroke="none" stroke-width="0"></path><path d="M238.51478,181.28275v-0.62136h0.15534v0.62136z" fill="#363636" stroke="none" stroke-width="0"></path><path d="M238.51478,181.32159v-0.21359h3.74757v0.21359z" fill="#363636" stroke="none" stroke-width="0"></path><path d="M242.10701,181.26334v-0.48544h0.13592c0,0 0.13592,0.18669 0.13592,0.27184c0,0.07549 -0.13592,0.21359 -0.13592,0.21359z" fill="#363636" stroke="none" stroke-width="0"></path><path d="M241.62994,176.80051c0,0.15681 -0.14755,0.28392 -0.32956,0.28392c-0.18201,0 -0.32956,-0.12712 -0.32956,-0.28392c0,-0.15681 0.14755,-0.28392 0.32956,-0.28392c0.18201,0 0.32956,0.12712 0.32956,0.28392z" fill="url(#color-4)" stroke="none" stroke-width="0"></path><path d="M242.07654,177.37526c0,0.21686 -0.20406,0.39266 -0.45577,0.39266c-0.25172,0 -0.45577,-0.1758 -0.45577,-0.39266c0,-0.21686 0.20406,-0.39266 0.45577,-0.39266c0.25172,0 0.45577,0.1758 0.45577,0.39266z" fill="url(#color-5)" stroke="none" stroke-width="0"></path><text transform="translate(239.10956,178.66462) scale(0.02327,0.02327)" font-size="40" xml:space="preserve" fill="#9966ff" fill-rule="nonzero" stroke="none" stroke-width="1" stroke-linecap="butt" stroke-linejoin="miter" stroke-miterlimit="10" stroke-dasharray="" stroke-dashoffset="0" font-family="Sans Serif" font-weight="normal" text-anchor="start" style="mix-blend-mode: normal"><tspan x="0" dy="0">xamt8</tspan></text><path d="M240.32897,176.69889c0,0.16265 -0.12557,0.2945 -0.28047,0.2945c-0.1549,0 -0.28047,-0.13185 -0.28047,-0.2945c0,-0.16265 0.12557,-0.2945 0.28047,-0.2945c0.1549,0 0.28047,0.13185 0.28047,0.2945z" fill="url(#color-6)" stroke="none" stroke-width="0"></path><path d="M239.9363,176.73395c0,0.13554 -0.07848,0.24541 -0.1753,0.24541c-0.09681,0 -0.1753,-0.10988 -0.1753,-0.24541c0,-0.13554 0.07848,-0.24541 0.1753,-0.24541c0.09681,0 0.1753,0.10988 0.1753,0.24541z" fill="url(#color-7)" stroke="none" stroke-width="0"></path><path d="M240.90394,176.8251c0,0.16265 -0.14441,0.2945 -0.32255,0.2945c-0.17814,0 -0.32255,-0.13185 -0.32255,-0.2945c0,-0.16265 0.14441,-0.2945 0.32255,-0.2945c0.17814,0 0.32255,0.13185 0.32255,0.2945z" fill="url(#color-8)" stroke="none" stroke-width="0"></path><path d="M241.33868,177.16167c0,0.21686 -0.20406,0.39266 -0.45577,0.39266c-0.25172,0 -0.45577,-0.1758 -0.45577,-0.39266c0,-0.21686 0.20406,-0.39266 0.45577,-0.39266c0.25172,0 0.45577,0.1758 0.45577,0.39266z" fill="url(#color-9)" stroke="none" stroke-width="0"></path><path d="M240.66554,177.21776c0,0.21686 -0.20406,0.39266 -0.45577,0.39266c-0.25172,0 -0.45577,-0.1758 -0.45577,-0.39266c0,-0.21686 0.20406,-0.39266 0.45577,-0.39266c0.25172,0 0.45577,0.1758 0.45577,0.39266z" fill="url(#color-10)" stroke="none" stroke-width="0"></path><path d="M239.96435,177.14765c0,0.21686 -0.20405,0.39267 -0.45577,0.39267c-0.25172,0 -0.45577,-0.1758 -0.45577,-0.39267c0,-0.21686 0.20405,-0.39267 0.45577,-0.39267c0.25172,0 0.45577,0.1758 0.45577,0.39267z" fill="url(#color-11)" stroke="none" stroke-width="0"></path><path d="M242.64949,180.61407c0,0.35322 -0.18365,0.63956 -0.41019,0.63956c-0.22655,0 -0.41019,-0.28634 -0.41019,-0.63956c0,-0.35322 0.18365,-0.63956 0.41019,-0.63956c0.22655,0 0.41019,0.28634 0.41019,0.63956z" fill="#000000" stroke="none" stroke-width="0"></path><path d="M239.00629,180.53882c0,0.35322 -0.18365,0.63956 -0.41019,0.63956c-0.22654,0 -0.41019,-0.28634 -0.41019,-0.63956c0,-0.35322 0.18365,-0.63956 0.41019,-0.63956c0.22654,0 0.41019,0.28634 0.41019,0.63956z" fill="#000000" stroke="none" stroke-width="0"></path><path d="M238.54772,181.02305l0.37864,-3.75485l3.1673,0.12379l0.31553,3.63106z" fill="url(#color-12)" stroke="none" stroke-width="0"></path><path d="M238.84367,178.05218v-0.66019h3.34466v0.66019z" fill="#4d4d4d" stroke="none" stroke-width="0"></path><path d="M239.24698,177.67731c0,0.06196 -0.04709,0.11219 -0.10518,0.11219c-0.05809,0 -0.10518,-0.05023 -0.10518,-0.11219c0,-0.06196 0.04709,-0.11219 0.10518,-0.11219c0.05809,0 0.10518,0.05023 0.10518,0.11219z" fill="#c2c2c2" stroke="#000000" stroke-width="0"></path><path d="M239.9266,177.71615c0,0.06196 -0.04709,0.11219 -0.10518,0.11219c-0.05809,0 -0.10518,-0.05023 -0.10518,-0.11219c0,-0.06196 0.04709,-0.11219 0.10518,-0.11219c0.05809,0 0.10518,0.05023 0.10518,0.11219z" fill="#c2c2c2" stroke="#000000" stroke-width="0"></path><path d="M240.80038,177.73556c0,0.06196 -0.04709,0.11219 -0.10518,0.11219c-0.05809,0 -0.10518,-0.05023 -0.10518,-0.11219c0,-0.06196 0.04709,-0.11219 0.10518,-0.11219c0.05809,0 0.10518,0.05023 0.10518,0.11219z" fill="#c2c2c2" stroke="#000000" stroke-width="0"></path><path d="M241.77126,177.67731c0,0.06196 -0.04709,0.11219 -0.10518,0.11219c-0.05809,0 -0.10518,-0.05023 -0.10518,-0.11219c0,-0.06196 0.04709,-0.11219 0.10518,-0.11219c0.05809,0 0.10518,0.05023 0.10518,0.11219z" fill="#c2c2c2" stroke="#000000" stroke-width="0"></path><path d="M243.46875,178.46875c0,1.38071 -1.2592,2.5 -2.8125,2.5c-1.5533,0 -2.8125,-1.11929 -2.8125,-2.5c0,-1.38071 1.2592,-2.5 2.8125,-2.5c1.5533,0 2.8125,1.11929 2.8125,2.5z" fill="url(#color-13)" stroke="none" stroke-width="0"></path></g></g></svg>