<svg version="1.1" xmlns="http://www.w3.org/2000/svg" xmlns:xlink="http://www.w3.org/1999/xlink" width="117.46194" height="85.51523" viewBox="0,0,117.46194,85.51523"><defs><radialGradient cx="289.12842" cy="149.98683" r="2.5567" gradientUnits="userSpaceOnUse" id="color-1"><stop offset="0" stop-color="#ffcf7b"></stop><stop offset="1" stop-color="#ffa000"></stop></radialGradient><radialGradient cx="289.19879" cy="150.73742" r="2.62707" gradientUnits="userSpaceOnUse" id="color-2"><stop offset="0" stop-color="#ffcf7b"></stop><stop offset="1" stop-color="#ffa000"></stop></radialGradient><linearGradient x1="191.19357" y1="203.92633" x2="216.68604" y2="204.3303" gradientUnits="userSpaceOnUse" id="color-3"><stop offset="0" stop-color="#e1e1e1"></stop><stop offset="1" stop-color="#fdfdfd"></stop></linearGradient><linearGradient x1="191.38273" y1="207.26785" x2="195.20268" y2="207.32838" gradientUnits="userSpaceOnUse" id="color-4"><stop offset="0" stop-color="#ffffff"></stop><stop offset="1" stop-color="#bcbcbc"></stop></linearGradient><linearGradient x1="191.74836" y1="200.59213" x2="195.4744" y2="201.43609" gradientUnits="userSpaceOnUse" id="color-5"><stop offset="0" stop-color="#ffffff"></stop><stop offset="1" stop-color="#bcbcbc"></stop></linearGradient></defs><g transform="translate(-181.21037,-137.24238)"><g data-paper-data="{&quot;isPaintingLayer&quot;:true}" fill-rule="nonzero" stroke-linejoin="miter" stroke-miterlimit="10" stroke-dasharray="" stroke-dashoffset="0" style="mix-blend-mode: normal"><path d="" data-paper-data="{&quot;index&quot;:null}" fill="#000000" stroke="none" stroke-width="0.25" stroke-linecap="butt"></path><path d="" fill="#e6e6e6" stroke="#000000" stroke-width="0.25" stroke-linecap="butt"></path><path d="" fill="#8e6544" stroke="none" stroke-width="0.25" stroke-linecap="butt"></path><path d="" fill="#d59866" stroke="none" stroke-width="0.25" stroke-linecap="butt"></path><path d="" fill="#ab7a52" stroke="none" stroke-width="0.25" stroke-linecap="butt"></path><path d="" fill="#ab7a52" stroke="none" stroke-width="0.25" stroke-linecap="butt"></path><path d="M263.14634,213.6642v-21.69681h3.28384v21.69681z" fill="#bb792d" stroke="none" stroke-width="0" stroke-linecap="butt"></path><g stroke-width="0" stroke-linecap="butt"><path d="M289.45241,179.28974l7.51762,0.05317c0.00904,0.31013 0.06191,0.5216 0.06191,0.5216c0.09991,0.37549 0.22989,0.74424 0.29973,1.12647c0.15802,0.86488 -0.11339,1.83878 0.04518,2.71766c0.04661,0.25834 0.31319,0.44479 0.35219,0.70438c0.0606,0.40336 -0.05735,0.8142 -0.06274,1.22205c0,0 0,3.09929 0,4.22631c0,8.3518 -1.05658,16.65389 -1.05658,25.00567c0,2.61687 -0.00029,5.23376 -0.00023,7.85063c-0.38511,0.01361 -0.77344,0.02155 -1.16827,0.02155c-1.72011,0 -3.44022,0 -5.16032,0c-0.43665,0 -0.76843,0.05908 -1.13555,-0.03455z" fill="#ffa000" stroke="#000000"></path><path d="" fill="#ffa000" stroke="#000000"></path><path d="" fill="#ffa000" stroke="#000000"></path><path d="" fill="#ffa000" stroke="#000000"></path><path d="" fill="#ffa000" stroke="#000000"></path><path d="" fill="#ffa000" stroke="#000000"></path><path d="" fill="#ffcf7b" stroke="none"></path><path d="" fill="#ffcf7b" stroke="none"></path><path d="" fill="#ffcf7b" stroke="none"></path><path d="" fill="#ffcf7b" stroke="none"></path><path d="" fill="#ffcf7b" stroke="none"></path><path d="" fill="#ffcf7b" stroke="none"></path><path d="" fill="#ffcf7b" stroke="none"></path><path d="" fill="#ffcf7b" stroke="none"></path><path d="" fill="#ffcf7b" stroke="none"></path><path d="" fill="#ffcf7b" stroke="none"></path><path d="" fill="#ffcf7b" stroke="none"></path><path d="" fill="#ffcf7b" stroke="none"></path><path d="" fill="#ffcf7b" stroke="none"></path><path d="" fill="#ffcf7b" stroke="none"></path><path d="" fill="#ffcf7b" stroke="none"></path><path d="" fill="#ffcf7b" stroke="none"></path><path d="" fill="#ffcf7b" stroke="none"></path><path d="" fill="#ffcf7b" stroke="none"></path><path d="" fill="#ffcf7b" stroke="none"></path><path d="" fill="#ffcf7b" stroke="none"></path><path d="" fill="#ffcf7b" stroke="none"></path><path d="" fill="#ffcf7b" stroke="none"></path><path d="" fill="#ffcf7b" stroke="none"></path><path d="" fill="#ffcf7b" stroke="none"></path><path d="" fill="#ffcf7b" stroke="none"></path><path d="M295.11928,182.71705l0.0582,-0.00692l2.08696,-1.31027l0.09726,0.81863c-0.0299,0.50291 -0.07137,1.01068 0.01514,1.49016c0.0077,0.0427 0.02141,0.08344 0.03912,0.12287z" fill="#ffcf7b" stroke="none"></path><path d="" fill="#ffcf7b" stroke="none"></path><path d="M297.5528,188.45027l-2.44249,-1.18521l0.0582,-0.00692l2.08696,-1.31027z" fill="#ffcf7b" stroke="none"></path><path d="" fill="#ffcf7b" stroke="none"></path><path d="M297.46145,193.07951l-2.44249,-1.18521l0.0582,-0.00692l2.08696,-1.31027z" fill="#ffcf7b" stroke="none"></path><path d="" fill="#ffcf7b" stroke="none"></path><path d="M295.01001,196.44231l0.0582,-0.00691l2.08696,-1.31027l0.27778,2.33793c-0.0027,0.05034 -0.00541,0.10069 -0.00815,0.15103z" fill="#ffcf7b" stroke="none"></path><path d="" fill="#ffcf7b" stroke="none"></path><path d="M294.98307,200.25152l0.0582,-0.00692l2.08696,-1.31027l0.1473,1.23974c-0.02367,0.38499 -0.04774,0.76996 -0.07199,1.15491z" fill="#ffcf7b" stroke="none"></path><path d="" fill="#ffcf7b" stroke="none"></path><path d="M294.9741,204.79953l0.0582,-0.00691l2.03282,-1.27629c-0.04679,0.74381 -0.0928,1.48766 -0.13653,2.23161z" fill="#ffcf7b" stroke="none"></path><path d="" fill="#ffcf7b" stroke="none"></path><path d="M295.12421,208.43417l0.0582,-0.00692l1.65405,-1.03847c-0.03247,0.61079 -0.06265,1.22168 -0.08972,1.83273z" fill="#ffcf7b" stroke="none"></path><path d="" fill="#ffcf7b" stroke="none"></path><path d="M295.11524,212.98218l0.0582,-0.00692l1.47337,-0.92503c-0.01399,0.55326 -0.02438,1.10669 -0.03056,1.66031z" fill="#ffcf7b" stroke="none"></path><path d="" fill="#ffcf7b" stroke="none"></path><path d="M295.03509,216.02913l0.0582,-0.00692l1.51642,-0.95207c0,0.57435 -0.00002,1.1487 -0.00004,1.72304z" fill="#ffcf7b" stroke="none"></path><path d="" fill="#ffcf7b" stroke="none"></path><path d="M295.02612,220.57714l0.0582,-0.00692l1.52522,-0.95759c-0.00002,0.57761 -0.00005,1.15521 -0.00005,1.73282z" fill="#ffcf7b" stroke="none"></path><path d="" fill="#ffcf7b" stroke="none"></path><path d="" fill="#ffcf7b" stroke="none"></path><path d="" fill="#ffcf7b" stroke="none"></path><path d="" fill="#ffcf7b" stroke="none"></path><path d="M292.4046,179.44727l2.27516,1.48125l-0.05861,-0.00042l-2.23439,1.0391z" fill="#ffcf7b" stroke="none"></path><path d="M291.8998,183.95623l-2.44249,-1.18521l0.0582,-0.00692l2.08696,-1.31027z" fill="#ffcf7b" stroke="none"></path><path d="M292.22314,183.5252l2.27516,1.48124l-0.05861,-0.00042l-2.23438,1.0391z" fill="#ffcf7b" stroke="none"></path><path d="M291.89083,188.50424l-2.44249,-1.18521l0.0582,-0.00692l2.08696,-1.31027z" fill="#ffcf7b" stroke="none"></path><path d="M292.30428,188.6245l2.27516,1.48124l-0.05861,-0.00042l-2.23439,1.0391z" fill="#ffcf7b" stroke="none"></path><path d="M291.79948,193.13348l-2.44249,-1.18521l0.0582,-0.00692l2.08696,-1.31027z" fill="#ffcf7b" stroke="none"></path><path d="M292.12283,192.70245l2.27516,1.48124l-0.05861,-0.00042l-2.23439,1.03911z" fill="#ffcf7b" stroke="none"></path><path d="M291.79052,197.68149l-2.44249,-1.18521l0.0582,-0.00692l2.08696,-1.31027z" fill="#ffcf7b" stroke="none"></path><path d="M292.26837,196.98172l2.27516,1.48124l-0.05861,-0.00042l-2.23439,1.0391z" fill="#ffcf7b" stroke="none"></path><path d="M291.76357,201.4907l-2.44249,-1.18521l0.0582,-0.00692l2.08696,-1.31027z" fill="#ffcf7b" stroke="none"></path><path d="M292.08692,201.05966l2.27516,1.48124l-0.05861,-0.00042l-2.23439,1.03911z" fill="#ffcf7b" stroke="none"></path><path d="M291.75462,206.03871l-2.44249,-1.18521l0.0582,-0.00691l2.08696,-1.31027z" fill="#ffcf7b" stroke="none"></path><path d="M292.40953,205.16438l2.27516,1.48124l-0.05861,-0.00042l-2.23439,1.03911z" fill="#ffcf7b" stroke="none"></path><path d="M291.90473,209.67335l-2.44249,-1.18521l0.0582,-0.00692l2.08696,-1.31027z" fill="#ffcf7b" stroke="none"></path><path d="M292.22807,209.24231l2.27516,1.48124l-0.05861,-0.00042l-2.23439,1.0391z" fill="#ffcf7b" stroke="none"></path><path d="M291.89576,214.22135l-2.44249,-1.18521l0.0582,-0.00692l2.08696,-1.31027z" fill="#ffcf7b" stroke="none"></path><path d="M292.32041,212.75934l2.27516,1.48124l-0.05861,-0.00042l-2.23439,1.0391z" fill="#ffcf7b" stroke="none"></path><path d="M291.8156,217.26831l-2.44249,-1.18521l0.0582,-0.00692l2.08696,-1.31027z" fill="#ffcf7b" stroke="none"></path><path d="M292.13895,216.83728l2.27516,1.48124l-0.05861,-0.00042l-2.23439,1.0391z" fill="#ffcf7b" stroke="none"></path><path d="M291.80664,221.81632l-2.44249,-1.18521l0.0582,-0.00691l2.08696,-1.31027z" fill="#ffcf7b" stroke="none"></path><path d="M292.28036,221.70258l1.59229,1.03667c-0.5332,0 -1.06642,0 -1.59962,0z" fill="#ffcf7b" stroke="none"></path><path d="" fill="#ffcf7b" stroke="none"></path><path d="" fill="#ffcf7b" stroke="none"></path><path d="" fill="#ffcf7b" stroke="none"></path></g><g stroke-width="0" stroke-linecap="butt"><path d="M289.68697,154.07453l8.98534,0.06355c-1.35618,0.54346 -1.35618,2.17136 -1.35618,2.17136c0,1.9417 0.35811,3.77882 0.23748,5.74716c-0.11879,1.9383 -0.52731,3.8312 -0.69518,5.74972c-0.07368,0.842 -0.09564,1.69548 -0.00343,2.53564c0.04589,0.41806 0.22524,0.8206 0.22672,1.24116c0.00159,0.44989 -0.16344,0.88541 -0.21763,1.33203c-0.22195,1.82909 -0.66028,4.64751 -0.00331,6.40047c-0.73792,6.24546 -0.95202,12.46836 -0.95202,18.74552c0,1.72011 -0.00903,3.44024 0,5.16032c0.00651,1.23955 -0.01855,2.06758 0.01374,2.79255l-6.60258,-0.0467z" fill="#ffa000" stroke="#000000"></path><path d="" fill="#ffa000" stroke="#000000"></path><path d="" fill="#ffa000" stroke="#000000"></path><path d="" fill="#ffa000" stroke="#000000"></path><path d="" fill="#ffa000" stroke="#000000"></path><path d="" fill="#ffcf7b" stroke="none"></path><path d="" fill="#ffcf7b" stroke="none"></path><path d="" fill="#ffcf7b" stroke="none"></path><path d="" fill="#ffcf7b" stroke="none"></path><path d="" fill="#ffcf7b" stroke="none"></path><path d="" fill="#ffcf7b" stroke="none"></path><path d="" fill="#ffcf7b" stroke="none"></path><path d="" fill="#ffcf7b" stroke="none"></path><path d="" fill="#ffcf7b" stroke="none"></path><path d="" fill="#ffcf7b" stroke="none"></path><path d="" fill="#ffcf7b" stroke="none"></path><path d="" fill="#ffcf7b" stroke="none"></path><path d="" fill="#ffcf7b" stroke="none"></path><path d="" fill="#ffcf7b" stroke="none"></path><path d="" fill="#ffcf7b" stroke="none"></path><path d="" fill="#ffcf7b" stroke="none"></path><path d="" fill="#ffcf7b" stroke="none"></path><path d="" fill="#ffcf7b" stroke="none"></path><path d="" fill="#ffcf7b" stroke="none"></path><path d="" fill="#ffcf7b" stroke="none"></path><path d="" fill="#ffcf7b" stroke="none"></path><path d="" fill="#ffcf7b" stroke="none"></path><path d="" fill="#ffcf7b" stroke="none"></path><path d="" fill="#ffcf7b" stroke="none"></path><path d="M298.30113,154.17808l0.12234,0.07965c-0.04278,0.02432 -0.08391,0.04983 -0.12344,0.07639z" fill="#ffcf7b" stroke="none"></path><path d="M295.35384,157.50184l0.0582,-0.00692l1.90422,-1.19555c-0.00014,0.00662 -0.00014,0.01006 -0.00014,0.01006c0,0.74368 0.05253,1.47201 0.11058,2.19826z" fill="#ffcf7b" stroke="none"></path><path d="" fill="#ffcf7b" stroke="none"></path><path d="M295.34488,162.04984l0.0582,-0.00692l2.08696,-1.31027l0.0864,0.72719c-0.00325,0.19772 -0.01057,0.39655 -0.02283,0.59674c-0.02097,0.34221 -0.05098,0.683 -0.08709,1.02277z" fill="#ffcf7b" stroke="none"></path><path d="" fill="#ffcf7b" stroke="none"></path><path d="M295.25352,166.67908l0.0582,-0.00692l1.82787,-1.14761c-0.09359,0.6489 -0.18376,1.2975 -0.24968,1.94859z" fill="#ffcf7b" stroke="none"></path><path d="" fill="#ffcf7b" stroke="none"></path><path d="M295.24457,171.22709l0.0582,-0.00692l1.54276,-0.9686c0.00301,0.03014 0.00618,0.06027 0.00948,0.09039c0.04589,0.41806 0.22524,0.8206 0.22672,1.24116c0.00061,0.17116 -0.02291,0.34025 -0.05525,0.50865z" fill="#ffcf7b" stroke="none"></path><path d="" fill="#ffcf7b" stroke="none"></path><path d="M295.21763,175.0363l0.0582,-0.00692l1.43827,-0.90299c-0.05942,0.49803 -0.11623,1.02705 -0.15401,1.56133z" fill="#ffcf7b" stroke="none"></path><path d="" fill="#ffcf7b" stroke="none"></path><path d="M295.20866,179.58431l0.0582,-0.00692l1.41278,-0.887c0.04791,0.21982 0.10768,0.42918 0.18116,0.62522c-0.03996,0.3382 -0.07838,0.67633 -0.11532,1.01442z" fill="#ffcf7b" stroke="none"></path><path d="" fill="#ffcf7b" stroke="none"></path><path d="M295.35877,183.21895l0.0582,-0.00692l1.10992,-0.69685c-0.03701,0.40657 -0.07201,0.81309 -0.1051,1.21959z" fill="#ffcf7b" stroke="none"></path><path d="" fill="#ffcf7b" stroke="none"></path><path d="M295.3498,187.76696l0.0582,-0.00692l0.77183,-0.48459c-0.01623,0.2906 -0.0316,0.58121 -0.04617,0.87186z" fill="#ffcf7b" stroke="none"></path><path d="" fill="#ffcf7b" stroke="none"></path><path d="M295.26965,190.81391l0.0582,-0.00692l0.71029,-0.44594c-0.00987,0.27073 -0.01909,0.5415 -0.0277,0.81232z" fill="#ffcf7b" stroke="none"></path><path d="" fill="#ffcf7b" stroke="none"></path><path d="M295.26068,195.36192l0.0582,-0.00692l0.60858,-0.38209c-0.00297,0.2362 -0.00556,0.47246 -0.00779,0.70878z" fill="#ffcf7b" stroke="none"></path><path d="" fill="#ffcf7b" stroke="none"></path><path d="M295.2296,199.75716l0.0582,-0.00692l0.61969,-0.38906c-0.0004,0.24144 -0.00084,0.48288 -0.00124,0.72432z" fill="#ffcf7b" stroke="none"></path><path d="" fill="#ffcf7b" stroke="none"></path><path d="M295.22064,204.30517l0.0582,-0.00692l0.6308,-0.39604c-0.00059,0.26447 -0.00201,0.50828 -0.003,0.73584z" fill="#ffcf7b" stroke="none"></path><path d="M292.63916,154.23205l2.27516,1.48124l-0.05861,-0.00042l-2.23439,1.0391z" fill="#ffcf7b" stroke="none"></path><path d="M292.13435,158.74101l-2.44249,-1.18521l0.0582,-0.00692l2.08696,-1.31027z" fill="#ffcf7b" stroke="none"></path><path d="M292.4577,158.30998l2.27516,1.48124l-0.05861,-0.00042l-2.23439,1.0391z" fill="#ffcf7b" stroke="none"></path><path d="M292.12539,163.28902l-2.44249,-1.18521l0.0582,-0.00692l2.08696,-1.31027z" fill="#ffcf7b" stroke="none"></path><path d="M292.53884,163.40929l2.27516,1.48124l-0.05861,-0.00042l-2.23439,1.0391z" fill="#ffcf7b" stroke="none"></path><path d="M292.03404,167.91826l-2.44249,-1.18521l0.0582,-0.00692l2.08696,-1.31027z" fill="#ffcf7b" stroke="none"></path><path d="M292.35739,167.48723l2.27516,1.48124l-0.05861,-0.00042l-2.23439,1.03911z" fill="#ffcf7b" stroke="none"></path><path d="M292.02508,172.46627l-2.44249,-1.18521l0.0582,-0.00692l2.08696,-1.31027z" fill="#ffcf7b" stroke="none"></path><path d="M292.50294,171.76651l2.27516,1.48124l-0.05861,-0.00042l-2.23439,1.0391z" fill="#ffcf7b" stroke="none"></path><path d="M291.99814,176.27547l-2.44249,-1.18521l0.0582,-0.00692l2.08696,-1.31027z" fill="#ffcf7b" stroke="none"></path><path d="M292.32148,175.84444l2.27516,1.48124l-0.05861,-0.00042l-2.23439,1.03911z" fill="#ffcf7b" stroke="none"></path><path d="M291.98917,180.82348l-2.44249,-1.18521l0.0582,-0.00692l2.08696,-1.31027z" fill="#ffcf7b" stroke="none"></path><path d="M292.64409,179.94916l2.27516,1.48124l-0.05861,-0.00042l-2.23439,1.0391z" fill="#ffcf7b" stroke="none"></path><path d="M292.13928,184.45813l-2.44249,-1.18521l0.0582,-0.00692l2.08696,-1.31027z" fill="#ffcf7b" stroke="none"></path><path d="M292.46263,184.0271l2.27516,1.48124l-0.05861,-0.00042l-2.23439,1.0391z" fill="#ffcf7b" stroke="none"></path><path d="M292.13032,189.00613l-2.44249,-1.18521l0.0582,-0.00692l2.08696,-1.31027z" fill="#ffcf7b" stroke="none"></path><path d="M292.55497,187.54412l2.27516,1.48124l-0.05861,-0.00042l-2.23439,1.0391z" fill="#ffcf7b" stroke="none"></path><path d="M292.05016,192.05309l-2.44249,-1.18521l0.0582,-0.00692l2.08696,-1.31027z" fill="#ffcf7b" stroke="none"></path><path d="M292.37351,191.62206l2.27516,1.48124l-0.05861,-0.00042l-2.23439,1.0391z" fill="#ffcf7b" stroke="none"></path><path d="M292.0412,196.6011l-2.44249,-1.18521l0.0582,-0.00692l2.08696,-1.31027z" fill="#ffcf7b" stroke="none"></path><path d="M292.51491,196.48736l2.27516,1.48124l-0.05861,-0.00042l-2.23439,1.0391z" fill="#ffcf7b" stroke="none"></path><path d="M292.01011,200.99634l-2.44249,-1.18521l0.0582,-0.00692l2.08696,-1.31027z" fill="#ffcf7b" stroke="none"></path><path d="M292.33346,200.56531l2.27516,1.48124l-0.05861,-0.00042l-2.23439,1.03911z" fill="#ffcf7b" stroke="none"></path><path d="M292.00115,205.54435l-2.44249,-1.18521l0.0582,-0.00692l2.08696,-1.31027z" fill="#ffcf7b" stroke="none"></path></g><path d="M183.96678,213.56932v-60.28196h5.86401v60.28196z" fill="#d88300" stroke="none" stroke-width="NaN" stroke-linecap="butt"></path><path d="M183.36951,155.72784v-4.92576h113.52712v4.92576z" fill="#339a00" stroke="none" stroke-width="NaN" stroke-linecap="butt"></path><path d="M184.01931,154.0917v-16.84931h113.40031v16.84931z" fill="#b18654" stroke="none" stroke-width="0" stroke-linecap="butt"></path><path d="M296.89663,213.23989v4.92576h-113.52712v-4.92576z" data-paper-data="{&quot;index&quot;:null}" fill="#339a00" stroke="none" stroke-width="NaN" stroke-linecap="butt"></path><path d="M296.83323,214.75874v7.4669h-113.16574v-7.4669z" data-paper-data="{&quot;index&quot;:null}" fill="#b18654" stroke="none" stroke-width="0" stroke-linecap="butt"></path><path d="M189.22197,173.95621l-7.57241,-0.32544c-0.02585,-0.68916 -0.04381,-1.37738 0.01269,-2.05432c0.09861,-1.18158 0.75307,-2.24899 1.09683,-3.38375c0.29673,-0.9795 0.32765,-1.85 0.329,-2.80788l6.49027,0.27893z" data-paper-data="{&quot;index&quot;:null}" fill="#000000" stroke="none" stroke-width="0.25" stroke-linecap="butt"></path><path d="M188.32739,174.15098l-1.23308,-0.05299l0.01893,-0.44038l1.23308,0.05299z" fill="#e6e6e6" stroke="#000000" stroke-width="0.25" stroke-linecap="butt"></path><path d="M188.85476,182.50082l-7.52707,-0.32348c0.10048,-2.11016 0.24535,-4.21496 0.3504,-6.34082c0.03186,-0.64469 0.00664,-1.29855 -0.0188,-1.95271l7.55185,0.32455z" fill="#8e6544" stroke="none" stroke-width="0.25" stroke-linecap="butt"></path><path d="M187.51685,181.74372l-4.18988,-0.18006l0.28886,-6.72127l4.18988,0.18006z" fill="none" stroke="#513a27" stroke-width="0.25" stroke-linecap="butt"></path><path d="M181.41877,180.51968c0.03108,-0.72312 0.23865,-1.3015 0.46361,-1.29183c0.22497,0.00967 0.38215,0.60371 0.35107,1.32685c-0.03108,0.72312 -0.23865,1.3015 -0.46361,1.29183c-0.22497,-0.00967 -0.38215,-0.60371 -0.35107,-1.32685z" fill="#dadada" stroke="none" stroke-width="0.25" stroke-linecap="butt"></path><path d="M181.44984,181.87136c-0.03622,0.00642 -0.07224,0.01028 -0.10786,0.01175c0.02191,-0.44282 0.04562,-0.88546 0.07033,-1.32816c0.31798,0.02168 0.58674,0.23537 0.64005,0.53626c0.06389,0.36059 -0.20586,0.70989 -0.60252,0.78017z" fill="#fff4ce" stroke="#e6ddbb" stroke-width="0.25" stroke-linecap="butt"></path><path d="M181.64859,181.2969c0.03559,0.20088 -0.09548,0.3961 -0.30061,0.46578c0.01287,-0.25633 0.02631,-0.51261 0.04018,-0.76887c0.13362,0.05119 0.23536,0.16163 0.26042,0.30308z" fill="#e6ddbb" stroke="#e6ddbb" stroke-width="0.25" stroke-linecap="butt"></path><path d="M182.00358,180.22479l-0.22995,0.50851l-0.36213,-0.16376c0.00828,-0.1485 0.01667,-0.297 0.02515,-0.44553l0.05842,-0.12918z" fill="#e6ddbb" stroke="none" stroke-width="0.25" stroke-linecap="butt"></path><path d="M182.09619,180.46321c-0.04355,0.02742 -0.4298,-0.12543 -0.49788,-0.14075l-0.10778,-0.00751c-0.02413,-0.00115 -0.04654,-0.01138 -0.06316,-0.02783c0.00551,-0.09719 0.01106,-0.19439 0.01663,-0.2916c0.16755,-0.04035 0.34124,-0.02912 0.51052,0.0661c0.12948,0.07283 0.4088,0.2334 0.14166,0.40159z" fill="#fff4ce" stroke="none" stroke-width="0.25" stroke-linecap="butt"></path><g stroke-width="0" stroke-linecap="butt"><path d="M184.04055,154.16116v-16.66014h51.8941v16.66014z" fill="#ffa000" stroke="#000000"></path><path d="M184.28219,140.5297l1.46512,-2.28558v0.05861l1.05488,2.22698z" fill="#ffcf7b" stroke="none"></path><path d="M188.79462,141.00259l-1.1679,2.45081l-0.00733,-0.05815l-1.325,-2.07764z" fill="#ffcf7b" stroke="none"></path><path d="M188.36132,140.68231l1.46512,-2.28558v0.05861l1.05488,2.22698z" fill="#ffcf7b" stroke="none"></path><path d="M193.34258,140.97939l-1.1679,2.45081l-0.00733,-0.05815l-1.325,-2.07764z" fill="#ffcf7b" stroke="none"></path><path d="M193.45992,140.56509l1.46512,-2.28558v0.05861l1.05488,2.22698z" fill="#ffcf7b" stroke="none"></path><path d="M197.97235,141.038l-1.1679,2.45081l-0.00733,-0.05815l-1.325,-2.07764z" fill="#ffcf7b" stroke="none"></path><path d="M197.53904,140.7177l1.46512,-2.28558v0.05861l1.05488,2.22698z" fill="#ffcf7b" stroke="none"></path><path d="M202.5203,141.01479l-1.1679,2.45081l-0.00733,-0.05815l-1.325,-2.07764z" fill="#ffcf7b" stroke="none"></path><path d="M201.81718,140.54189l1.46512,-2.28558v0.05861l1.05488,2.22698z" fill="#ffcf7b" stroke="none"></path><path d="M206.32961,141.01479l-1.1679,2.45081l-0.00733,-0.05815l-1.325,-2.07764z" fill="#ffcf7b" stroke="none"></path><path d="M205.89631,140.6945l1.46512,-2.28558v0.05861l1.05488,2.22698z" fill="#ffcf7b" stroke="none"></path><path d="M210.87756,140.99159l-1.1679,2.45081l-0.00733,-0.05815l-1.325,-2.07764z" fill="#ffcf7b" stroke="none"></path><path d="M209.99863,140.34287l1.46512,-2.28558v0.05861l1.05488,2.22698z" fill="#ffcf7b" stroke="none"></path><path d="M214.51106,140.81577l-1.1679,2.45081l-0.00733,-0.05815l-1.325,-2.07764z" fill="#ffcf7b" stroke="none"></path><path d="M214.07775,140.49548l1.46512,-2.28558v0.05861l1.05488,2.22698z" fill="#ffcf7b" stroke="none"></path><path d="M219.05902,140.79257l-1.1679,2.45081l-0.00733,-0.05815l-1.325,-2.07764z" fill="#ffcf7b" stroke="none"></path><path d="M217.59403,140.37827l1.46512,-2.28558v0.05861l1.05488,2.22698z" fill="#ffcf7b" stroke="none"></path><path d="M222.10645,140.85117l-1.1679,2.45081l-0.00733,-0.05815l-1.325,-2.07764z" fill="#ffcf7b" stroke="none"></path><path d="M221.67315,140.53088l1.46512,-2.28558v0.05861l1.05488,2.22698z" fill="#ffcf7b" stroke="none"></path><path d="M226.65442,140.82797l-1.1679,2.45081l-0.00733,-0.05815l-1.325,-2.07764z" fill="#ffcf7b" stroke="none"></path><path d="M226.53734,140.35507l1.46512,-2.28558v0.05861l1.05488,2.22698z" fill="#ffcf7b" stroke="none"></path><path d="M231.04977,140.82797l-1.1679,2.45081l-0.00733,-0.05815l-1.325,-2.07764z" fill="#ffcf7b" stroke="none"></path><path d="M230.61646,140.50768l1.46512,-2.28558v0.05861l1.05488,2.22698z" fill="#ffcf7b" stroke="none"></path><path d="M235.59772,140.80476l-1.1679,2.45081l-0.00733,-0.05815l-1.325,-2.07764z" fill="#ffcf7b" stroke="none"></path><path d="M184.08317,145.54649l1.46512,-2.28558v0.05861l1.05488,2.22698z" fill="#ffcf7b" stroke="none"></path><path d="M188.5956,146.01939l-1.1679,2.45081l-0.00733,-0.05815l-1.325,-2.07764z" fill="#ffcf7b" stroke="none"></path><path d="M188.1623,145.6991l1.46512,-2.28558v0.05861l1.05488,2.22698z" fill="#ffcf7b" stroke="none"></path><path d="M193.14357,145.99619l-1.1679,2.45081l-0.00733,-0.05815l-1.325,-2.07764z" fill="#ffcf7b" stroke="none"></path><path d="M193.2609,145.58189l1.46512,-2.28558v0.05861l1.05488,2.22698z" fill="#ffcf7b" stroke="none"></path><path d="M197.77333,146.05479l-1.1679,2.45081l-0.00733,-0.05815l-1.325,-2.07764z" fill="#ffcf7b" stroke="none"></path><path d="M197.34003,145.7345l1.46512,-2.28558v0.05861l1.05488,2.22698z" fill="#ffcf7b" stroke="none"></path><path d="M202.32128,146.03158l-1.1679,2.45081l-0.00733,-0.05815l-1.325,-2.07764z" fill="#ffcf7b" stroke="none"></path><path d="M201.61817,145.55869l1.46512,-2.28558v0.05861l1.05488,2.22698z" fill="#ffcf7b" stroke="none"></path><path d="M206.13059,146.03158l-1.1679,2.45081l-0.00733,-0.05815l-1.325,-2.07764z" fill="#ffcf7b" stroke="none"></path><path d="M205.69728,145.7113l1.46512,-2.28558v0.05861l1.05488,2.22698z" fill="#ffcf7b" stroke="none"></path><path d="M210.67856,146.00838l-1.1679,2.45081l-0.00733,-0.05815l-1.325,-2.07764z" fill="#ffcf7b" stroke="none"></path><path d="M209.79961,145.35967l1.46512,-2.28558v0.05861l1.05488,2.22698z" fill="#ffcf7b" stroke="none"></path><path d="M214.31204,145.83257l-1.1679,2.45081l-0.00733,-0.05815l-1.325,-2.07764z" fill="#ffcf7b" stroke="none"></path><path d="M213.87873,145.51228l1.46512,-2.28558v0.05861l1.05488,2.22698z" fill="#ffcf7b" stroke="none"></path><path d="M218.86,145.80937l-1.1679,2.45081l-0.00733,-0.05815l-1.325,-2.07764z" fill="#ffcf7b" stroke="none"></path><path d="M217.39502,145.39507l1.46512,-2.28558v0.05861l1.05488,2.22698z" fill="#ffcf7b" stroke="none"></path><path d="M221.90744,145.86797l-1.1679,2.45081l-0.00733,-0.05815l-1.325,-2.07764z" fill="#ffcf7b" stroke="none"></path><path d="M221.47414,145.54768l1.46512,-2.28558v0.05861l1.05488,2.22698z" fill="#ffcf7b" stroke="none"></path><path d="M226.4554,145.84477l-1.1679,2.45081l-0.00733,-0.05815l-1.325,-2.07764z" fill="#ffcf7b" stroke="none"></path><path d="M226.33832,145.37187l1.46512,-2.28558v0.05861l1.05488,2.22698z" fill="#ffcf7b" stroke="none"></path><path d="M230.85075,145.84476l-1.1679,2.45081l-0.00733,-0.05815l-1.325,-2.07764z" fill="#ffcf7b" stroke="none"></path><path d="M230.41744,145.52447l1.46512,-2.28558v0.05861l1.05488,2.22698z" fill="#ffcf7b" stroke="none"></path><path d="M235.3987,145.82156l-1.1679,2.45081l-0.00733,-0.05815l-1.325,-2.07764z" fill="#ffcf7b" stroke="none"></path><path d="M184.17719,151.20794l1.46512,-2.28558v0.05861l1.05488,2.22698z" fill="#ffcf7b" stroke="none"></path><path d="M188.68961,151.68084l-1.1679,2.45081l-0.00733,-0.05815l-1.325,-2.07764z" fill="#ffcf7b" stroke="none"></path><path d="M188.2563,151.36055l1.46512,-2.28558v0.05861l1.05488,2.22698z" fill="#ffcf7b" stroke="none"></path><path d="M193.23757,151.65763l-1.1679,2.45081l-0.00733,-0.05815l-1.325,-2.07764z" fill="#ffcf7b" stroke="none"></path><path d="M193.35491,151.24333l1.46512,-2.28558v0.05861l1.05488,2.22698z" fill="#ffcf7b" stroke="none"></path><path d="M197.86734,151.71624l-1.1679,2.45081l-0.00733,-0.05815l-1.325,-2.07764z" fill="#ffcf7b" stroke="none"></path><path d="M197.43403,151.39595l1.46512,-2.28558v0.05861l1.05488,2.22698z" fill="#ffcf7b" stroke="none"></path><path d="M202.4153,151.69304l-1.1679,2.45081l-0.00733,-0.05815l-1.325,-2.07764z" fill="#ffcf7b" stroke="none"></path><path d="M201.71217,151.22013l1.46512,-2.28558v0.05861l1.05488,2.22698z" fill="#ffcf7b" stroke="none"></path><path d="M206.2246,151.69304l-1.1679,2.45081l-0.00733,-0.05815l-1.325,-2.07764z" fill="#ffcf7b" stroke="none"></path><path d="M205.79129,151.37274l1.46512,-2.28558v0.05861l1.05488,2.22698z" fill="#ffcf7b" stroke="none"></path><path d="M210.77256,151.66983l-1.1679,2.45081l-0.00733,-0.05815l-1.325,-2.07764z" fill="#ffcf7b" stroke="none"></path><path d="M209.89362,151.02112l1.46512,-2.28558v0.05861l1.05488,2.22698z" fill="#ffcf7b" stroke="none"></path><path d="M214.40605,151.49402l-1.1679,2.45081l-0.00733,-0.05815l-1.325,-2.07764z" fill="#ffcf7b" stroke="none"></path><path d="M213.97274,151.17372l1.46512,-2.28558v0.05861l1.05488,2.22698z" fill="#ffcf7b" stroke="none"></path><path d="M218.954,151.47081l-1.1679,2.45081l-0.00733,-0.05815l-1.325,-2.07764z" fill="#ffcf7b" stroke="none"></path><path d="M217.48902,151.05652l1.46512,-2.28558v0.05861l1.05488,2.22698z" fill="#ffcf7b" stroke="none"></path><path d="M222.00145,151.52942l-1.1679,2.45081l-0.00733,-0.05815l-1.325,-2.07764z" fill="#ffcf7b" stroke="none"></path><path d="M221.56814,151.20913l1.46512,-2.28558v0.05861l1.05488,2.22698z" fill="#ffcf7b" stroke="none"></path><path d="M226.5494,151.50622l-1.1679,2.45081l-0.00733,-0.05815l-1.325,-2.07764z" fill="#ffcf7b" stroke="none"></path><path d="M226.43233,151.03331l1.46512,-2.28558v0.05861l1.05488,2.22698z" fill="#ffcf7b" stroke="none"></path><path d="M230.94476,151.50622l-1.1679,2.45081l-0.00733,-0.05815l-1.325,-2.07764z" fill="#ffcf7b" stroke="none"></path><path d="M230.51145,151.18592l1.46512,-2.28558v0.05861l1.05488,2.22698z" fill="#ffcf7b" stroke="none"></path><path d="M235.49272,151.48301l-1.1679,2.45081l-0.00733,-0.05815l-1.325,-2.07764z" fill="#ffcf7b" stroke="none"></path></g><g stroke-width="0" stroke-linecap="butt"><path d="M235.99563,154.16116v-16.66014h51.8941v16.66014z" fill="#ffa000" stroke="#000000"></path><path d="M236.23727,140.5297l1.46512,-2.28558v0.05861l1.05488,2.22698z" fill="#ffcf7b" stroke="none"></path><path d="M240.7497,141.00259l-1.1679,2.45081l-0.00733,-0.05815l-1.325,-2.07764z" fill="#ffcf7b" stroke="none"></path><path d="M240.31639,140.68231l1.46512,-2.28558v0.05861l1.05488,2.22698z" fill="#ffcf7b" stroke="none"></path><path d="M245.29765,140.97939l-1.1679,2.45081l-0.00733,-0.05815l-1.325,-2.07764z" fill="#ffcf7b" stroke="none"></path><path d="M245.415,140.56509l1.46512,-2.28558v0.05861l1.05488,2.22698z" fill="#ffcf7b" stroke="none"></path><path d="M249.92743,141.038l-1.1679,2.45081l-0.00733,-0.05815l-1.325,-2.07764z" fill="#ffcf7b" stroke="none"></path><path d="M249.49412,140.7177l1.46512,-2.28558v0.05861l1.05488,2.22698z" fill="#ffcf7b" stroke="none"></path><path d="M254.47538,141.01479l-1.1679,2.45081l-0.00733,-0.05815l-1.325,-2.07764z" fill="#ffcf7b" stroke="none"></path><path d="M253.77226,140.54189l1.46512,-2.28558v0.05861l1.05488,2.22698z" fill="#ffcf7b" stroke="none"></path><path d="M258.28469,141.01479l-1.1679,2.45081l-0.00733,-0.05815l-1.325,-2.07764z" fill="#ffcf7b" stroke="none"></path><path d="M257.85138,140.6945l1.46512,-2.28558v0.05861l1.05488,2.22698z" fill="#ffcf7b" stroke="none"></path><path d="M262.83264,140.99159l-1.1679,2.45081l-0.00733,-0.05815l-1.325,-2.07764z" fill="#ffcf7b" stroke="none"></path><path d="M261.95371,140.34287l1.46512,-2.28558v0.05861l1.05488,2.22698z" fill="#ffcf7b" stroke="none"></path><path d="M266.46613,140.81577l-1.1679,2.45081l-0.00733,-0.05815l-1.325,-2.07764z" fill="#ffcf7b" stroke="none"></path><path d="M266.03283,140.49548l1.46512,-2.28558v0.05861l1.05488,2.22698z" fill="#ffcf7b" stroke="none"></path><path d="M271.0141,140.79257l-1.1679,2.45081l-0.00733,-0.05815l-1.325,-2.07764z" fill="#ffcf7b" stroke="none"></path><path d="M269.54911,140.37827l1.46512,-2.28558v0.05861l1.05488,2.22698z" fill="#ffcf7b" stroke="none"></path><path d="M274.06153,140.85117l-1.1679,2.45081l-0.00733,-0.05815l-1.325,-2.07764z" fill="#ffcf7b" stroke="none"></path><path d="M273.62823,140.53088l1.46512,-2.28558v0.05861l1.05488,2.22698z" fill="#ffcf7b" stroke="none"></path><path d="M278.6095,140.82797l-1.1679,2.45081l-0.00733,-0.05815l-1.325,-2.07764z" fill="#ffcf7b" stroke="none"></path><path d="M278.49242,140.35507l1.46512,-2.28558v0.05861l1.05488,2.22698z" fill="#ffcf7b" stroke="none"></path><path d="M283.00485,140.82797l-1.1679,2.45081l-0.00733,-0.05815l-1.325,-2.07764z" fill="#ffcf7b" stroke="none"></path><path d="M282.57154,140.50768l1.46512,-2.28558v0.05861l1.05488,2.22698z" fill="#ffcf7b" stroke="none"></path><path d="M287.5528,140.80476l-1.1679,2.45081l-0.00733,-0.05815l-1.325,-2.07764z" fill="#ffcf7b" stroke="none"></path><path d="M236.03825,145.54649l1.46512,-2.28558v0.05861l1.05488,2.22698z" fill="#ffcf7b" stroke="none"></path><path d="M240.55068,146.01939l-1.1679,2.45081l-0.00733,-0.05815l-1.325,-2.07764z" fill="#ffcf7b" stroke="none"></path><path d="M240.11738,145.6991l1.46512,-2.28558v0.05861l1.05488,2.22698z" fill="#ffcf7b" stroke="none"></path><path d="M245.09864,145.99619l-1.1679,2.45081l-0.00733,-0.05815l-1.325,-2.07764z" fill="#ffcf7b" stroke="none"></path><path d="M245.21598,145.58189l1.46512,-2.28558v0.05861l1.05488,2.22698z" fill="#ffcf7b" stroke="none"></path><path d="M249.72841,146.05479l-1.1679,2.45081l-0.00733,-0.05815l-1.325,-2.07764z" fill="#ffcf7b" stroke="none"></path><path d="M249.2951,145.7345l1.46512,-2.28558v0.05861l1.05488,2.22698z" fill="#ffcf7b" stroke="none"></path><path d="M254.27636,146.03158l-1.1679,2.45081l-0.00733,-0.05815l-1.325,-2.07764z" fill="#ffcf7b" stroke="none"></path><path d="M253.57324,145.55869l1.46512,-2.28558v0.05861l1.05488,2.22698z" fill="#ffcf7b" stroke="none"></path><path d="M258.08567,146.03158l-1.1679,2.45081l-0.00733,-0.05815l-1.325,-2.07764z" fill="#ffcf7b" stroke="none"></path><path d="M257.65236,145.7113l1.46512,-2.28558v0.05861l1.05488,2.22698z" fill="#ffcf7b" stroke="none"></path><path d="M262.63363,146.00838l-1.1679,2.45081l-0.00733,-0.05815l-1.325,-2.07764z" fill="#ffcf7b" stroke="none"></path><path d="M261.75469,145.35967l1.46512,-2.28558v0.05861l1.05488,2.22698z" fill="#ffcf7b" stroke="none"></path><path d="M266.26711,145.83257l-1.1679,2.45081l-0.00733,-0.05815l-1.325,-2.07764z" fill="#ffcf7b" stroke="none"></path><path d="M265.83381,145.51228l1.46512,-2.28558v0.05861l1.05488,2.22698z" fill="#ffcf7b" stroke="none"></path><path d="M270.81508,145.80937l-1.1679,2.45081l-0.00733,-0.05815l-1.325,-2.07764z" fill="#ffcf7b" stroke="none"></path><path d="M269.35009,145.39507l1.46512,-2.28558v0.05861l1.05488,2.22698z" fill="#ffcf7b" stroke="none"></path><path d="M273.86252,145.86797l-1.1679,2.45081l-0.00733,-0.05815l-1.325,-2.07764z" fill="#ffcf7b" stroke="none"></path><path d="M273.42922,145.54768l1.46512,-2.28558v0.05861l1.05488,2.22698z" fill="#ffcf7b" stroke="none"></path><path d="M278.41048,145.84477l-1.1679,2.45081l-0.00733,-0.05815l-1.325,-2.07764z" fill="#ffcf7b" stroke="none"></path><path d="M278.2934,145.37187l1.46512,-2.28558v0.05861l1.05488,2.22698z" fill="#ffcf7b" stroke="none"></path><path d="M282.80583,145.84476l-1.1679,2.45081l-0.00733,-0.05815l-1.325,-2.07764z" fill="#ffcf7b" stroke="none"></path><path d="M282.37252,145.52447l1.46512,-2.28558v0.05861l1.05488,2.22698z" fill="#ffcf7b" stroke="none"></path><path d="M287.35378,145.82156l-1.1679,2.45081l-0.00733,-0.05815l-1.325,-2.07764z" fill="#ffcf7b" stroke="none"></path><path d="M236.13226,151.20794l1.46512,-2.28558v0.05861l1.05488,2.22698z" fill="#ffcf7b" stroke="none"></path><path d="M240.64468,151.68084l-1.1679,2.45081l-0.00733,-0.05815l-1.325,-2.07764z" fill="#ffcf7b" stroke="none"></path><path d="M240.21138,151.36055l1.46512,-2.28558v0.05861l1.05488,2.22698z" fill="#ffcf7b" stroke="none"></path><path d="M245.19265,151.65763l-1.1679,2.45081l-0.00733,-0.05815l-1.325,-2.07764z" fill="#ffcf7b" stroke="none"></path><path d="M245.30998,151.24333l1.46512,-2.28558v0.05861l1.05488,2.22698z" fill="#ffcf7b" stroke="none"></path><path d="M249.82241,151.71624l-1.1679,2.45081l-0.00733,-0.05815l-1.325,-2.07764z" fill="#ffcf7b" stroke="none"></path><path d="M249.38911,151.39595l1.46512,-2.28558v0.05861l1.05488,2.22698z" fill="#ffcf7b" stroke="none"></path><path d="M254.37038,151.69304l-1.1679,2.45081l-0.00733,-0.05815l-1.325,-2.07764z" fill="#ffcf7b" stroke="none"></path><path d="M253.66725,151.22013l1.46512,-2.28558v0.05861l1.05488,2.22698z" fill="#ffcf7b" stroke="none"></path><path d="M258.17967,151.69304l-1.1679,2.45081l-0.00733,-0.05815l-1.325,-2.07764z" fill="#ffcf7b" stroke="none"></path><path d="M257.74636,151.37274l1.46512,-2.28558v0.05861l1.05488,2.22698z" fill="#ffcf7b" stroke="none"></path><path d="M262.72764,151.66983l-1.1679,2.45081l-0.00733,-0.05815l-1.325,-2.07764z" fill="#ffcf7b" stroke="none"></path><path d="M261.8487,151.02112l1.46512,-2.28558v0.05861l1.05488,2.22698z" fill="#ffcf7b" stroke="none"></path><path d="M266.36112,151.49402l-1.1679,2.45081l-0.00733,-0.05815l-1.325,-2.07764z" fill="#ffcf7b" stroke="none"></path><path d="M265.92782,151.17372l1.46512,-2.28558v0.05861l1.05488,2.22698z" fill="#ffcf7b" stroke="none"></path><path d="M270.90908,151.47081l-1.1679,2.45081l-0.00733,-0.05815l-1.325,-2.07764z" fill="#ffcf7b" stroke="none"></path><path d="M269.4441,151.05652l1.46512,-2.28558v0.05861l1.05488,2.22698z" fill="#ffcf7b" stroke="none"></path><path d="M273.95653,151.52942l-1.1679,2.45081l-0.00733,-0.05815l-1.325,-2.07764z" fill="#ffcf7b" stroke="none"></path><path d="M273.52322,151.20913l1.46512,-2.28558v0.05861l1.05488,2.22698z" fill="#ffcf7b" stroke="none"></path><path d="M278.50448,151.50622l-1.1679,2.45081l-0.00733,-0.05815l-1.325,-2.07764z" fill="#ffcf7b" stroke="none"></path><path d="M278.38741,151.03331l1.46512,-2.28558v0.05861l1.05488,2.22698z" fill="#ffcf7b" stroke="none"></path><path d="M282.89983,151.50622l-1.1679,2.45081l-0.00733,-0.05815l-1.325,-2.07764z" fill="#ffcf7b" stroke="none"></path><path d="M282.46653,151.18592l1.46512,-2.28558v0.05861l1.05488,2.22698z" fill="#ffcf7b" stroke="none"></path><path d="M287.4478,151.48301l-1.1679,2.45081l-0.00733,-0.05815l-1.325,-2.07764z" fill="#ffcf7b" stroke="none"></path></g><g stroke-linecap="butt"><path d="M291.68512,149.98683c0,0.37567 -1.14467,0.68022 -2.5567,0.68022c-1.41203,0 -2.55671,-0.30455 -2.55671,-0.68022c0,-0.37567 1.14467,-0.68022 2.55671,-0.68022c1.41203,0 2.5567,0.30455 2.5567,0.68022z" fill="url(#color-1)" stroke="none" stroke-width="0.15"></path><path d="M286.58736,156.98454v-6.88043h5.16032v6.88043z" fill="#eaeaea" stroke="#000000" stroke-width="0.15"></path><path d="M286.57171,151.23v-0.98516h5.25415v0.98516c0,0 0.2597,5.83894 -1.33546,0.79187c-0.0826,-0.26135 -0.87197,-0.4583 -0.96084,-0.78087c-0.15899,-0.57708 -1.27407,0.83342 -1.59741,0.83342c-0.54004,0 -1.36044,-0.84442 -1.36044,-0.84442z" fill="url(#color-2)" stroke="none" stroke-width="0.15"></path><path d="M289.67575,152.39352c-0.91725,0.42794 -1.86127,-0.50705 -2.33928,-2.16751c0.09079,-0.02751 0.16936,-0.0482 0.23157,-0.05726c1.14922,-0.16759 2.29621,0.01398 3.43816,0.04517c-0.25224,1.07288 -0.72274,1.8961 -1.33044,2.17962z" fill="none" stroke="#000000" stroke-width="0.15"></path><text transform="translate(286.5248,155.7101) scale(0.04613,0.04613)" font-size="40" xml:space="preserve" fill="#000000" fill-rule="nonzero" stroke="none" stroke-width="0.3" stroke-linecap="butt" stroke-linejoin="miter" stroke-miterlimit="10" stroke-dasharray="" stroke-dashoffset="0" font-family="Serif" font-weight="normal" text-anchor="start" style="mix-blend-mode: normal"><tspan x="0" dy="0">PAINT</tspan></text></g><path d="M189.49444,195.13394v-3.63568h24.62882v3.63568z" fill="#bb792d" stroke="none" stroke-width="0" stroke-linecap="butt"></path><path d="M231.36344,195.3685v-3.63568h35.06674v3.63568z" fill="#bb792d" stroke="none" stroke-width="0" stroke-linecap="butt"></path><g data-paper-data="{&quot;index&quot;:null}" stroke-linecap="butt"><text transform="translate(213.86765,210.87) rotate(-89.09239) scale(0.11728,0.11728)" font-size="40" xml:space="preserve" fill="#d48989" fill-rule="nonzero" stroke="none" stroke-width="0.3" stroke-linecap="butt" stroke-linejoin="miter" stroke-miterlimit="10" stroke-dasharray="" stroke-dashoffset="0" font-family="Serif" font-weight="normal" text-anchor="start" style="mix-blend-mode: normal"><tspan x="0" dy="0">xAmt8</tspan></text><path d="M216.23497,211.80652l-26.49,-0.41978l0.23711,-14.96297l26.49,0.41978z" fill="#976a37" stroke="#b17a57" stroke-width="0.15"></path><path d="M189.86108,211.05599l-2.66009,-0.04216l0.01405,-0.88669l2.66009,0.04216z" fill="#9f6726" stroke="none" stroke-width="0.15"></path><path d="M190.24799,197.69406l-2.66009,-0.04216l0.01405,-0.88669l2.66009,0.04216z" fill="#9f6726" stroke="none" stroke-width="0.15"></path><path d="M188.42196,210.92232l-0.88669,-0.01405l0.22306,-14.07628l0.88669,0.01405z" fill="#9f6726" stroke="none" stroke-width="0.15"></path><path d="M189.77834,209.28085l-1.99506,-0.03161l0.0123,-0.77585l1.99506,0.03161z" fill="#9f6726" stroke="none" stroke-width="0.15"></path><path d="M189.70791,206.72984l-1.33004,-0.02108l0.01581,-0.99753l1.33004,0.02108z" fill="#9f6726" stroke="none" stroke-width="0.15"></path><path d="M190.31126,203.63519l-2.1059,-0.03337l0.01405,-0.88669l2.1059,0.03337z" fill="#9f6726" stroke="none" stroke-width="0.15"></path><path d="M190.36044,200.53175l-1.88422,-0.02986l0.01405,-0.88669l1.88422,0.02986z" fill="#9f6726" stroke="none" stroke-width="0.15"></path><path d="M217.92739,209.94864l-1.88422,-0.02986l0.01757,-1.10837l1.88422,0.02986z" fill="#bb792d" stroke="none" stroke-width="0.15"></path><path d="M218.24404,201.02019l-1.88422,-0.02986l0.01757,-1.10837l1.88422,0.02986z" fill="#bb792d" stroke="none" stroke-width="0.15"></path><path d="M216.58329,210.81426l-25.49247,-0.40396l0.2055,-12.96791l25.49247,0.40396z" fill="url(#color-3)" stroke="none" stroke-width="0.15"></path><path d="M194.58235,209.66757c-0.74485,0.0177 -2.03046,0.04826 -2.45533,0.05836c-0.13508,0.00321 -0.43456,0.12856 -0.54759,0.07183c-0.11166,-0.05605 -0.03768,-0.29366 -0.03967,-0.37708c-0.01228,-0.5166 -0.07618,-3.20555 -0.09861,-4.14887c-0.00248,-0.1044 -0.06495,-0.38721 0.03085,-0.44585c0.09224,-0.05645 0.33967,0.10939 0.49614,0.10566c0.75162,-0.01786 2.07617,-0.04935 2.50024,-0.05942c0.10674,-0.00254 0.32868,-0.12024 0.42516,-0.08209c0.13588,0.05374 0.12965,0.28213 0.13257,0.40492c0.02254,0.94856 0.08586,3.61244 0.0982,4.13202c0.00242,0.10212 0.10795,0.33025 -0.02312,0.39481c-0.08942,0.04405 -0.38624,-0.05743 -0.51885,-0.05428z" fill="url(#color-4)" stroke="#fff4ce" stroke-width="0.15"></path><path d="M194.38678,203.59795c-0.7326,-0.13569 -1.99707,-0.36988 -2.41495,-0.44728c-0.13286,-0.02461 -0.4517,0.03656 -0.55067,-0.0422c-0.09776,-0.07779 0.02344,-0.29514 0.03864,-0.37719c0.09411,-0.5081 0.58394,-3.15284 0.75579,-4.08065c0.01902,-0.10269 0.01598,-0.3923 0.12178,-0.43001c0.10186,-0.0363 0.30996,0.17683 0.46386,0.20533c0.73927,0.13692 2.04202,0.3782 2.45912,0.45546c0.10499,0.01945 0.34637,-0.05015 0.43295,0.007c0.12194,0.0805 0.06893,0.30275 0.04656,0.42353c-0.1728,0.93296 -0.65807,3.55303 -0.75272,4.06406c-0.0186,0.10045 0.03781,0.34538 -0.10373,0.38164c-0.09656,0.02474 -0.3662,-0.13554 -0.49663,-0.1597z" fill="url(#color-5)" stroke="#fff4ce" stroke-width="0.15"></path><path d="M216.17287,210.80774l-15.81807,-0.25067c0,0 1.14407,-1.87833 1.1617,-2.99112c0.0122,-0.76959 -1.38194,-2.17083 -1.52562,-3.66452c-0.10791,-1.12188 1.18109,-2.34361 1.29283,-3.3781c0.18173,-1.6826 -0.72341,-2.93417 -0.72341,-2.93417l15.81807,0.25067z" fill="#b14242" stroke="#535353" stroke-width="0.15"></path><path d="M204.30349,210.6598l-0.58908,-0.00933c0,0 0.22183,-0.71915 0.23255,-1.39547c0.01026,-0.6474 -0.34723,-2.11958 -0.35158,-3.79197c-0.00381,-1.46545 0.39436,-3.18309 0.46349,-4.55088c0.09031,-1.78667 -0.14193,-3.0436 -0.14193,-3.0436l0.58908,0.00933z" fill="#d36161" stroke="none" stroke-width="0.15"></path><path d="M207.6474,210.59549l-0.58908,-0.00933c0,0 0.22183,-0.71915 0.23255,-1.39547c0.01026,-0.6474 -0.34723,-2.11958 -0.35158,-3.79197c-0.00381,-1.46545 0.39436,-3.18309 0.46349,-4.55088c0.09031,-1.78667 -0.14193,-3.0436 -0.14193,-3.0436l0.58908,0.00933z" fill="#d36161" stroke="none" stroke-width="0.15"></path><path d="M211.45946,210.59725l-0.58908,-0.00933c0,0 0.22183,-0.71915 0.23255,-1.39547c0.01026,-0.6474 -0.34723,-2.11958 -0.35158,-3.79197c-0.00381,-1.46545 0.39436,-3.18309 0.46349,-4.55088c0.09031,-1.78667 -0.14193,-3.0436 -0.14193,-3.0436l0.58908,0.00933z" fill="#d36161" stroke="none" stroke-width="0.15"></path><path d="M214.32781,210.93594l-0.58908,-0.00933c0,0 0.22183,-0.71915 0.23255,-1.39547c0.01026,-0.6474 -0.34723,-2.11958 -0.35158,-3.79197c-0.00381,-1.46545 0.39436,-3.18309 0.46349,-4.55088c0.09031,-1.78667 -0.14193,-3.0436 -0.14193,-3.0436l0.58908,0.00933z" fill="#d36161" stroke="none" stroke-width="0.15"></path></g><path d="M234.15612,191.51253v-0.5473h1.7592v0.5473z" fill="#c68d23" stroke="none" stroke-width="0" stroke-linecap="butt"></path><path d="M245.68867,191.55162v-0.5473h1.7592v0.5473z" data-paper-data="{&quot;index&quot;:null}" fill="#c68d23" stroke="none" stroke-width="0" stroke-linecap="butt"></path><path d="M254.59761,193.79993l0.06798,-0.56136l0.39668,0.02223l-0.00879,0.83574z" fill="#ab8d55" stroke="none" stroke-width="0" stroke-linecap="butt"></path><g stroke-width="0.25" stroke-linecap="butt"><path d="M252.17497,192.53105v-2.08831h0.67992v2.08831z" fill="#ffdfa0" stroke="none"></path><path d="M243.5789,210.35452v-4.17662h18.3577v4.17662z" fill="#b34848" stroke="none"></path><path d="M246.78421,211.32583c0,0.59008 -0.52184,1.06844 -1.16556,1.06844c-0.64373,0 -1.16556,-0.47835 -1.16556,-1.06844c0,-0.59008 0.52184,-1.06844 1.16556,-1.06844c0.64373,0 1.16556,0.47835 1.16556,1.06844z" fill="#989898" stroke="#000000"></path><path d="M261.20812,211.42295c0,0.59008 -0.52184,1.06844 -1.16556,1.06844c-0.64373,0 -1.16556,-0.47835 -1.16556,-1.06844c0,-0.59008 0.52184,-1.06844 1.16556,-1.06844c0.64373,0 1.16556,0.47835 1.16556,1.06844z" fill="#989898" stroke="#000000"></path><path d="M243.38465,206.4693v-7.18766h0.82561v7.18766z" fill="#eec268" stroke="none"></path><path d="M244.69591,210.45166v-9.71307h0.82561v9.71307z" fill="#eec268" stroke="none"></path><path d="M261.01385,206.27504v-7.18766h0.82561v7.18766z" data-paper-data="{&quot;index&quot;:null}" fill="#eec268" stroke="none"></path><path d="M259.89685,210.30595v-9.71307h0.82561v9.71307z" data-paper-data="{&quot;index&quot;:null}" fill="#eec268" stroke="none"></path><path d="M244.75257,202.00232l-1.15152,-2.08254l0.89251,-0.49351l1.15152,2.08254z" fill="#eec268" stroke="none"></path><path d="M259.87042,201.07173l1.15152,-2.08254l0.89251,0.49351l-1.15152,2.08254z" data-paper-data="{&quot;index&quot;:null}" fill="#eec268" stroke="none"></path><path d="M243.67604,199.81584v-0.72848c0,0 5.92147,-7.1391 8.88746,-7.1391c2.90933,0 8.74176,7.1391 8.74176,7.1391v0.72848c0,0 -5.83216,-6.36206 -8.79032,-6.36206c-2.91769,0 -8.83889,6.36206 -8.83889,6.36206z" fill="#eec268" stroke="none"></path><path d="M244.64734,201.85559v-0.67028c0,0 5.4484,-6.56877 8.17744,-6.56877c2.6769,0 8.04338,6.56877 8.04338,6.56877v0.67028c0,0 -5.36624,-5.8538 -8.08807,-5.8538c-2.68459,0 -8.13275,5.8538 -8.13275,5.8538z" fill="#eec268" stroke="none"></path><path d="M251.98071,195.44497v-2.5254h1.06844v2.5254z" fill="#eec268" stroke="none"></path><path d="M253.3891,190.70985c0,0.14752 -0.40225,0.26711 -0.89846,0.26711c-0.49621,0 -0.89846,-0.11958 -0.89846,-0.26711c0,-0.14752 0.40225,-0.26711 0.89846,-0.26711c0.49621,0 0.89846,0.11958 0.89846,0.26711z" fill="#ffdfa0" stroke="none"></path></g><g stroke-linecap="butt"><path d="M223.07571,154.42215v-1.18198h0.42214v1.18198z" fill="#e6e6e6" stroke="#000000" stroke-width="0.15"></path><path d="M223.0795,145.0123v-1.18198h0.42214v1.18198z" fill="#e6e6e6" stroke="#000000" stroke-width="0.15"></path><path d="M223.51641,155.21391v-12.46707h7.9488v12.46707z" fill="#8e6544" stroke="none" stroke-width="0.15"></path><path d="M224.26945,147.26511v-4.18358h6.52639v4.18358z" fill="none" stroke="#513a27" stroke-width="0.15"></path><path d="M224.35313,153.95883v-4.01624h6.44271v4.01624z" fill="none" stroke="#513a27" stroke-width="0.15"></path><text transform="translate(225.67341,145.35737) scale(0.02577,0.02577)" font-size="40" xml:space="preserve" fill="#ffffff" fill-rule="nonzero" stroke="none" stroke-width="0.3" stroke-linecap="butt" stroke-linejoin="miter" stroke-miterlimit="10" stroke-dasharray="" stroke-dashoffset="0" font-family="Sans Serif" font-weight="normal" text-anchor="start" style="mix-blend-mode: normal"><tspan x="0" dy="0">xAmt8</tspan></text><path d="M229.90335,145.01991c0,0.439 -1.08637,0.79488 -2.42648,0.79488c-1.34011,0 -2.42648,-0.35588 -2.42648,-0.79488c0,-0.439 1.08637,-0.79488 2.42648,-0.79488c1.34011,0 2.42648,0.35588 2.42648,0.79488z" fill="#d59866" stroke="none" stroke-width="0.15"></path><path d="M225.25957,144.97808c0,-0.11553 0.09366,-0.20918 0.20918,-0.20918c0.11553,0 0.20918,0.09366 0.20918,0.20918c0,0.11553 -0.09366,0.20918 -0.20918,0.20918c-0.11553,0 -0.20918,-0.09366 -0.20918,-0.20918z" fill="#ab7a52" stroke="none" stroke-width="0.15"></path><path d="M229.27581,144.97808c0,-0.11553 0.09366,-0.20918 0.20918,-0.20918c0.11553,0 0.20918,0.09366 0.20918,0.20918c0,0.11553 -0.09366,0.20918 -0.20918,0.20918c-0.11553,0 -0.20918,-0.09366 -0.20918,-0.20918z" fill="#ab7a52" stroke="none" stroke-width="0.15"></path><path d="M231.13053,148.46439c0,0.21565 -0.56191,0.39047 -1.25507,0.39047c-0.69316,0 -1.25507,-0.17482 -1.25507,-0.39047c0,-0.21565 0.56191,-0.39047 1.25507,-0.39047c0.69316,0 1.25507,0.17482 1.25507,0.39047z" fill="#dadada" stroke="none" stroke-width="0.15"></path><path d="M230.3962,148.70365c-0.34239,-0.07595 -0.55221,-0.44285 -0.46866,-0.81947c0.08355,-0.37662 0.42885,-0.62036 0.77124,-0.54441c0.34239,0.07595 0.55221,0.44285 0.46866,0.81947c-0.08355,0.37662 -0.42885,0.62036 -0.77124,0.54441z" fill="#fff4ce" stroke="#e6ddbb" stroke-width="0.15"></path><path d="M230.60962,148.32578c-0.21271,-0.04718 -0.34307,-0.27512 -0.29116,-0.50911c0.05191,-0.23398 0.26642,-0.3854 0.47913,-0.33822c0.21271,0.04718 0.34307,0.27512 0.29116,0.50911c-0.05191,0.23398 -0.26642,0.3854 -0.47913,0.33822z" fill="#e6ddbb" stroke="#e6ddbb" stroke-width="0.15"></path><path d="M229.37014,148.12534l0.496,-0.1991l0.1991,0.496l-0.496,0.1991z" fill="#e6ddbb" stroke="none" stroke-width="0.15"></path><path d="M229.79357,148.71975c-0.17191,0.24868 -0.31406,-0.02516 -0.37841,-0.15205c-0.10043,-0.19799 -0.08613,-0.39707 -0.01054,-0.58235l-0.01768,-0.00393l0.02315,-0.10436v0c0.01104,-0.04975 0.06032,-0.08114 0.11007,-0.0701c0.03596,0.00798 0.06234,0.03594 0.07002,0.06962l0.02854,0.11399l-0.00368,0.00092l0.00558,0.00898c0.00031,0.01006 0.00063,0.02013 0.00094,0.0302c0.013,0.01039 0.02294,0.02411 0.02879,0.03957c0.01641,0.01685 0.02614,0.03969 0.02625,0.06394l0.00276,0.10342c0.01186,0.06578 0.14222,0.44162 0.11419,0.48215z" fill="#fff4ce" stroke="none" stroke-width="0.15"></path></g><path d="M224.31545,151.78982l-0.41829,-1.03266l6.30466,-2.55378l0.41829,1.03266z" fill="#bd8f55" stroke="none" stroke-width="1.5" stroke-linecap="butt"></path><path d="M223.27183,146.91301l0.38324,-1.34135l7.3558,2.10165l-0.38324,1.34135z" fill="#bd8f55" stroke="none" stroke-width="0" stroke-linecap="butt"></path><path d="M229.60424,151.60921l-0.52776,0.35184l0.70368,0.52776l-0.70368,0.52776" fill="none" stroke="#000000" stroke-width="0.15" stroke-linecap="round"></path><path d="M229.42831,152.89929l0.2932,0.35184" fill="none" stroke="#000000" stroke-width="0.15" stroke-linecap="round"></path></g></g></svg>