<svg version="1.1" xmlns="http://www.w3.org/2000/svg" xmlns:xlink="http://www.w3.org/1999/xlink" width="84.72776" height="45.84702" viewBox="0,0,84.72776,45.84702"><defs><linearGradient x1="202.01718" y1="165.81779" x2="202.35324" y2="165.81779" gradientUnits="userSpaceOnUse" id="color-1"><stop offset="0" stop-color="#f86b00"></stop><stop offset="1" stop-color="#ff8800"></stop></linearGradient><linearGradient x1="202.00426" y1="166.25724" x2="202.26276" y2="166.25724" gradientUnits="userSpaceOnUse" id="color-2"><stop offset="0" stop-color="#f86b00"></stop><stop offset="1" stop-color="#ff8800"></stop></linearGradient><linearGradient x1="201.96549" y1="166.65792" x2="202.27569" y2="166.65792" gradientUnits="userSpaceOnUse" id="color-3"><stop offset="0" stop-color="#f86b00"></stop><stop offset="1" stop-color="#ff8800"></stop></linearGradient><linearGradient x1="202.40494" y1="165.86949" x2="202.74099" y2="165.86949" gradientUnits="userSpaceOnUse" id="color-4"><stop offset="0" stop-color="#f86b00"></stop><stop offset="1" stop-color="#ff8800"></stop></linearGradient><linearGradient x1="202.39201" y1="166.30894" x2="202.65051" y2="166.30894" gradientUnits="userSpaceOnUse" id="color-5"><stop offset="0" stop-color="#f86b00"></stop><stop offset="1" stop-color="#ff8800"></stop></linearGradient><linearGradient x1="202.35324" y1="166.70962" x2="202.66344" y2="166.70962" gradientUnits="userSpaceOnUse" id="color-6"><stop offset="0" stop-color="#f86b00"></stop><stop offset="1" stop-color="#ff8800"></stop></linearGradient><linearGradient x1="202.76684" y1="165.89534" x2="203.10289" y2="165.89534" gradientUnits="userSpaceOnUse" id="color-7"><stop offset="0" stop-color="#f86b00"></stop><stop offset="1" stop-color="#ff8800"></stop></linearGradient><linearGradient x1="202.75391" y1="166.33479" x2="203.01242" y2="166.33479" gradientUnits="userSpaceOnUse" id="color-8"><stop offset="0" stop-color="#f86b00"></stop><stop offset="1" stop-color="#ff8800"></stop></linearGradient><linearGradient x1="202.71514" y1="166.73547" x2="203.02534" y2="166.73547" gradientUnits="userSpaceOnUse" id="color-9"><stop offset="0" stop-color="#f86b00"></stop><stop offset="1" stop-color="#ff8800"></stop></linearGradient><linearGradient x1="205.39063" y1="166.19261" x2="205.72668" y2="166.19261" gradientUnits="userSpaceOnUse" id="color-10"><stop offset="0" stop-color="#f86b00"></stop><stop offset="1" stop-color="#ff8800"></stop></linearGradient><linearGradient x1="205.3777" y1="166.63207" x2="205.6362" y2="166.63207" gradientUnits="userSpaceOnUse" id="color-11"><stop offset="0" stop-color="#f86b00"></stop><stop offset="1" stop-color="#ff8800"></stop></linearGradient><linearGradient x1="205.33893" y1="167.03274" x2="205.64913" y2="167.03274" gradientUnits="userSpaceOnUse" id="color-12"><stop offset="0" stop-color="#f86b00"></stop><stop offset="1" stop-color="#ff8800"></stop></linearGradient><linearGradient x1="205.80423" y1="166.19261" x2="206.14028" y2="166.19261" gradientUnits="userSpaceOnUse" id="color-13"><stop offset="0" stop-color="#f86b00"></stop><stop offset="1" stop-color="#ff8800"></stop></linearGradient><linearGradient x1="205.7913" y1="166.63207" x2="206.0498" y2="166.63207" gradientUnits="userSpaceOnUse" id="color-14"><stop offset="0" stop-color="#f86b00"></stop><stop offset="1" stop-color="#ff8800"></stop></linearGradient><linearGradient x1="205.75253" y1="167.03274" x2="206.06273" y2="167.03274" gradientUnits="userSpaceOnUse" id="color-15"><stop offset="0" stop-color="#f86b00"></stop><stop offset="1" stop-color="#ff8800"></stop></linearGradient><linearGradient x1="206.1015" y1="166.21847" x2="206.43756" y2="166.21847" gradientUnits="userSpaceOnUse" id="color-16"><stop offset="0" stop-color="#f86b00"></stop><stop offset="1" stop-color="#ff8800"></stop></linearGradient><linearGradient x1="206.08858" y1="166.65792" x2="206.34708" y2="166.65792" gradientUnits="userSpaceOnUse" id="color-17"><stop offset="0" stop-color="#f86b00"></stop><stop offset="1" stop-color="#ff8800"></stop></linearGradient><linearGradient x1="206.0498" y1="167.0586" x2="206.36001" y2="167.0586" gradientUnits="userSpaceOnUse" id="color-18"><stop offset="0" stop-color="#f86b00"></stop><stop offset="1" stop-color="#ff8800"></stop></linearGradient><linearGradient x1="203.04439" y1="173.81372" x2="203.40448" y2="174.53831" gradientUnits="userSpaceOnUse" id="color-19"><stop offset="0" stop-color="#dab03b"></stop><stop offset="1" stop-color="#ffce46"></stop></linearGradient><linearGradient x1="206.43206" y1="175.26213" x2="203.46612" y2="179.06017" gradientUnits="userSpaceOnUse" id="color-20"><stop offset="0" stop-color="#ddb958"></stop><stop offset="1" stop-color="#c2a34e"></stop></linearGradient><radialGradient cx="207.16112" cy="174.79161" r="1.92373" gradientUnits="userSpaceOnUse" id="color-21"><stop offset="0" stop-color="#ffffff" stop-opacity="0.59003"></stop><stop offset="1" stop-color="#ffffff" stop-opacity="0"></stop></radialGradient><linearGradient x1="247.53892" y1="166.26424" x2="246.85795" y2="165.52247" gradientUnits="userSpaceOnUse" id="color-22"><stop offset="0" stop-color="#ffffff"></stop><stop offset="1" stop-color="#e4e4e4"></stop></linearGradient><linearGradient x1="248.01899" y1="165.6549" x2="247.33801" y2="164.91314" gradientUnits="userSpaceOnUse" id="color-23"><stop offset="0" stop-color="#ffffff"></stop><stop offset="1" stop-color="#e4e4e4"></stop></linearGradient><radialGradient cx="242.72887" cy="163.98286" r="2.45692" gradientUnits="userSpaceOnUse" id="color-24"><stop offset="0" stop-color="#f2d1d1"></stop><stop offset="1" stop-color="#ff5959"></stop></radialGradient><radialGradient cx="242.72887" cy="163.98286" r="2.45692" gradientUnits="userSpaceOnUse" id="color-25"><stop offset="0" stop-color="#f2d1d1"></stop><stop offset="1" stop-color="#ff5959"></stop></radialGradient><linearGradient x1="244.91447" y1="163.96336" x2="244.91447" y2="166.28403" gradientUnits="userSpaceOnUse" id="color-26"><stop offset="0" stop-color="#fe5f5f"></stop><stop offset="1" stop-color="#fca1a1"></stop></linearGradient><linearGradient x1="245.7343" y1="163.98508" x2="245.7343" y2="168.11625" gradientUnits="userSpaceOnUse" id="color-27"><stop offset="0" stop-color="#ff5959" stop-opacity="0.41124"></stop><stop offset="1" stop-color="#970000" stop-opacity="0.39541"></stop></linearGradient><linearGradient x1="245.98841" y1="163.4194" x2="245.98841" y2="164.77315" gradientUnits="userSpaceOnUse" id="color-28"><stop offset="0" stop-color="#c10000" stop-opacity="0.24444"></stop><stop offset="1" stop-color="#ff5959"></stop></linearGradient><linearGradient x1="242.93828" y1="162.86688" x2="246.46879" y2="162.65562" gradientUnits="userSpaceOnUse" id="color-29"><stop offset="0" stop-color="#ffffff"></stop><stop offset="1" stop-color="#ffecab"></stop></linearGradient><linearGradient x1="242.63216" y1="166.08634" x2="242.63216" y2="167.09329" gradientUnits="userSpaceOnUse" id="color-30"><stop offset="0" stop-color="#ffffff"></stop><stop offset="1" stop-color="#e4e4e4"></stop></linearGradient><linearGradient x1="242.18625" y1="165.50052" x2="242.18625" y2="166.50747" gradientUnits="userSpaceOnUse" id="color-31"><stop offset="0" stop-color="#ffffff"></stop><stop offset="1" stop-color="#e4e4e4"></stop></linearGradient><linearGradient x1="241.84525" y1="164.88848" x2="241.84525" y2="165.89543" gradientUnits="userSpaceOnUse" id="color-32"><stop offset="0" stop-color="#ffffff"></stop><stop offset="1" stop-color="#e4e4e4"></stop></linearGradient><linearGradient x1="247.15634" y1="165.17318" x2="247.83731" y2="164.43141" gradientUnits="userSpaceOnUse" id="color-33"><stop offset="0" stop-color="#ffffff"></stop><stop offset="1" stop-color="#e4e4e4"></stop></linearGradient></defs><g transform="translate(-197.63612,-150.63899)"><g data-paper-data="{&quot;isPaintingLayer&quot;:true}" stroke-dasharray="" stroke-dashoffset="0" style="mix-blend-mode: normal"><path d="M197.88612,155.37942c0,-3.35148 3.32798,-4.49043 6.2482,-4.49043c8.98636,0 55.76172,0 72.17118,0c3.56473,0 5.34722,0.86353 5.34722,4.84476c0,9.38123 0.34923,27.74299 0.34923,33.03601c0,3.2087 0.95258,7.02642 -2.70009,7.02642c-16.50052,0 -67.78275,0.43983 -76.82093,0.43983c-2.98854,0 -4.56302,-3.38519 -4.56302,-7.46626c0,0 -0.03179,-28.08745 -0.03179,-33.39033z" fill-opacity="0.47707" fill="#291800" fill-rule="nonzero" stroke="#fff4ce" stroke-width="0.5" stroke-linecap="butt" stroke-linejoin="miter" stroke-miterlimit="10"></path><text transform="translate(203.61616,159.58215) scale(0.11905,0.17802)" font-size="40" xml:space="preserve" fill="#dbb4a2" fill-rule="nonzero" stroke="none" stroke-width="1" stroke-linecap="butt" stroke-linejoin="miter" stroke-miterlimit="10" stroke-dasharray="" stroke-dashoffset="0" font-family="Sans Serif" font-weight="normal" text-anchor="start" style="mix-blend-mode: normal"><tspan x="0" dy="0">Pre-Run Shop</tspan></text><path d="M247.89401,158.21965c0,-1.4 0,-3.8164 0,-4.61497c0,-0.50471 0.86836,-1.08957 1.83273,-1.08957c2.96763,0 18.41458,0 23.83358,0c1.17721,0 1.88118,0.4056 1.88118,1.00515c0,1.41273 0,3.90231 0,4.69939c0,0.4832 -0.72337,1.03329 -1.92962,1.03329c-5.44908,0 -20.75195,0 -23.73669,0c-0.98693,0 -1.88118,-0.41872 -1.88118,-1.03329z" fill="#633f38" fill-rule="nonzero" stroke="#fff4ce" stroke-width="0" stroke-linecap="butt" stroke-linejoin="miter" stroke-miterlimit="10"></path><g fill-rule="nonzero" stroke-width="0.5" stroke-linecap="butt" stroke-linejoin="miter" stroke-miterlimit="10"><path d="M252.98171,155.2054c0,1.0222 -0.91152,1.85087 -2.03594,1.85087c-1.12443,0 -2.03594,-0.82866 -2.03594,-1.85087c0,-1.0222 0.91153,-1.85086 2.03594,-1.85086c1.12443,0 2.03594,0.82865 2.03594,1.85086z" fill="#fff4ce" stroke="#e6ddbb"></path><path d="M251.77178,154.83667c0,0.63505 -0.56628,1.14985 -1.26485,1.14985c-0.69855,0 -1.26485,-0.5148 -1.26485,-1.14985c0,-0.63505 0.56628,-1.14985 1.26485,-1.14985c0.69855,0 1.26485,0.5148 1.26485,1.14985z" fill="#e6ddbb" stroke="#e6ddbb"></path><path d="M251.98389,158.49011l-0.87966,-1.28566l1.28566,-0.87966l0.87967,1.28566z" fill="#e6ddbb" stroke="none"></path><path d="M253.40799,156.91003c0.81612,0.33219 0.12663,0.90952 -0.19378,1.17276c-0.5,0.41075 -1.07548,0.49574 -1.65042,0.39762v0.0528h-0.31155v0c-0.14854,0 -0.26896,-0.12043 -0.26896,-0.26897c0,-0.10736 0.06292,-0.20005 0.15389,-0.24317l0.30635,-0.15317l0.00494,0.00987l0.02203,-0.02157c0.02844,-0.00725 0.05688,-0.0145 0.08534,-0.02174c0.02134,-0.04355 0.05413,-0.08049 0.09443,-0.10689c0.03756,-0.05731 0.09643,-0.09942 0.16535,-0.11507l0.29254,-0.07314c0.17967,-0.07528 1.16682,-0.68346 1.29988,-0.6293z" fill="#fff4ce" stroke="none"></path></g><path d="M200.24643,192.02378c0,-2.19565 0,-5.98534 0,-7.23775c0,-0.79154 2.54262,-1.70879 5.36639,-1.70879c8.68945,0 53.91944,0 69.78673,0c3.44696,0 5.50824,0.63612 5.50824,1.57639c0,2.21563 0,6.12008 0,7.37018c0,0.75783 -2.1181,1.62051 -5.65009,1.62051c-15.95534,0 -60.76346,0 -69.50304,0c-2.88981,0 -5.50824,-0.65668 -5.50824,-1.62051z" fill="#445839" fill-rule="nonzero" stroke="#abba90" stroke-width="0.5" stroke-linecap="butt" stroke-linejoin="miter" stroke-miterlimit="10"></path><path d="M200.06629,169.40039c0,-2.10068 0,-5.72647 0,-6.92472c0,-0.7573 1.25383,-1.63488 2.64627,-1.63488c4.28492,0 26.58863,0 34.41308,0c1.69976,0 2.71622,0.6086 2.71622,1.50821c0,2.1198 0,5.85537 0,7.05139c0,0.72504 -1.04447,1.55043 -2.78615,1.55043c-7.86787,0 -29.96355,0 -34.27319,0c-1.42502,0 -2.71622,-0.62826 -2.71622,-1.55043z" fill="#301c00" fill-rule="nonzero" stroke="#fff4ce" stroke-width="0.25" stroke-linecap="butt" stroke-linejoin="miter" stroke-miterlimit="10"></path><path d="M240.66155,169.17399c0,-2.10068 0,-5.72647 0,-6.92471c0,-0.7573 1.25383,-1.63488 2.64626,-1.63488c4.28492,0 26.58863,0 34.41309,0c1.69976,0 2.71622,0.6086 2.71622,1.50821c0,2.1198 0,5.85537 0,7.05139c0,0.72504 -1.04447,1.55043 -2.78615,1.55043c-7.86788,0 -29.96356,0 -34.2732,0c-1.42502,0 -2.71621,-0.62826 -2.71621,-1.55043z" fill="#381c00" fill-rule="nonzero" stroke="#fff4ce" stroke-width="0.25" stroke-linecap="butt" stroke-linejoin="miter" stroke-miterlimit="10"></path><path d="M200.29016,180.33267c0,-2.10068 0,-5.72647 0,-6.92472c0,-0.7573 1.25383,-1.63488 2.64627,-1.63488c4.28492,0 26.58863,0 34.41308,0c1.69976,0 2.71622,0.6086 2.71622,1.50821c0,2.1198 0,5.85537 0,7.05139c0,0.72504 -1.04447,1.55043 -2.78615,1.55043c-7.86787,0 -29.96355,0 -34.27319,0c-1.42502,0 -2.71622,-0.62826 -2.71622,-1.55043z" fill="#291c01" fill-rule="nonzero" stroke="#fff4ce" stroke-width="0.25" stroke-linecap="butt" stroke-linejoin="miter" stroke-miterlimit="10"></path><path d="M240.8552,179.96832c0,-2.10068 0,-5.72647 0,-6.92472c0,-0.7573 1.25383,-1.63488 2.64627,-1.63488c4.28492,0 26.58863,0 34.41308,0c1.69976,0 2.71622,0.6086 2.71622,1.50821c0,2.1198 0,5.85537 0,7.05139c0,0.72504 -1.04447,1.55043 -2.78615,1.55043c-7.86787,0 -29.96355,0 -34.27319,0c-1.42502,0 -2.71622,-0.62826 -2.71622,-1.55043z" fill="#3a2303" fill-rule="nonzero" stroke="#fff4ce" stroke-width="0.25" stroke-linecap="butt" stroke-linejoin="miter" stroke-miterlimit="10"></path><text transform="translate(247.39524,180.87133) scale(0.03298,0.04647)" font-size="40" xml:space="preserve" fill="#dab7b1" fill-rule="nonzero" stroke="none" stroke-width="1" stroke-linecap="butt" stroke-linejoin="miter" stroke-miterlimit="10" stroke-dasharray="" stroke-dashoffset="0" font-family="Sans Serif" font-weight="normal" text-anchor="start" style="mix-blend-mode: normal"><tspan x="0" dy="0">5/10</tspan></text><text transform="translate(271.39973,177.82066) scale(0.09734,0.13713)" font-size="40" xml:space="preserve" fill="#dab7b1" fill-rule="nonzero" stroke="none" stroke-width="1" stroke-linecap="butt" stroke-linejoin="miter" stroke-miterlimit="10" stroke-dasharray="" stroke-dashoffset="0" font-family="Sans Serif" font-weight="normal" text-anchor="start" style="mix-blend-mode: normal"><tspan x="0" dy="0">1OO</tspan></text><text transform="translate(230.48388,189.1552) scale(0.14663,0.14663)" font-size="40" xml:space="preserve" fill="#abba90" fill-rule="nonzero" stroke="none" stroke-width="1" stroke-linecap="butt" stroke-linejoin="miter" stroke-miterlimit="10" stroke-dasharray="" stroke-dashoffset="0" font-family="Impact" font-weight="normal" text-anchor="start" style="mix-blend-mode: normal"><tspan x="0" dy="0">CONFIRM</tspan></text><g fill-rule="nonzero" stroke-width="0.5" stroke-linecap="butt" stroke-linejoin="miter" stroke-miterlimit="10"><path d="M237.81473,190.73966c0,0.4886 -0.4357,0.88469 -0.97316,0.88469c-0.53746,0 -0.97316,-0.39609 -0.97316,-0.88469c0,-0.4886 0.4357,-0.88469 0.97316,-0.88469c0.53746,0 0.97316,0.39609 0.97316,0.88469z" fill="#fff4ce" stroke="#e6ddbb"></path><path d="M237.2364,190.56341c0,0.30355 -0.27068,0.54962 -0.60458,0.54962c-0.3339,0 -0.60458,-0.24607 -0.60458,-0.54962c0,-0.30355 0.27068,-0.54962 0.60458,-0.54962c0.3339,0 0.60458,0.24607 0.60458,0.54962z" fill="#e6ddbb" stroke="#e6ddbb"></path><path d="M237.33778,192.30972l-0.42047,-0.61453l0.61453,-0.42047l0.42047,0.61453z" fill="#e6ddbb" stroke="none"></path><path d="M238.01849,191.55446c0.3901,0.15878 0.06053,0.43474 -0.09262,0.56057c-0.23899,0.19633 -0.51407,0.23696 -0.78888,0.19006v0.02524h-0.14892v0c-0.071,0 -0.12856,-0.05756 -0.12856,-0.12856c0,-0.05132 0.03008,-0.09562 0.07356,-0.11623l0.14643,-0.07321l0.00236,0.00472l0.01053,-0.01031c0.01359,-0.00347 0.02719,-0.00693 0.04079,-0.01039c0.0102,-0.02082 0.02587,-0.03847 0.04514,-0.05109c0.01795,-0.02739 0.04609,-0.04752 0.07904,-0.055l0.13983,-0.03496c0.08588,-0.03598 0.55773,-0.32669 0.62133,-0.3008z" fill="#fff4ce" stroke="none"></path></g><text transform="translate(239.55205,192.20395) scale(0.08781,0.08781)" font-size="40" xml:space="preserve" fill="#fff4ce" fill-rule="nonzero" stroke="none" stroke-width="1" stroke-linecap="butt" stroke-linejoin="miter" stroke-miterlimit="10" stroke-dasharray="" stroke-dashoffset="0" font-family="Sans Serif" font-weight="normal" text-anchor="start" style="mix-blend-mode: normal"><tspan x="0" dy="0">0</tspan></text><text transform="translate(249.76233,176.45358) scale(0.07065,0.10563)" font-size="40" xml:space="preserve" fill="#e3bba8" fill-rule="nonzero" stroke="none" stroke-width="1" stroke-linecap="butt" stroke-linejoin="miter" stroke-miterlimit="10" stroke-dasharray="" stroke-dashoffset="0" font-family="Sans Serif" font-weight="normal" text-anchor="start" style="mix-blend-mode: normal"><tspan x="0" dy="0">Bandage Pack</tspan></text><text transform="translate(249.96717,179.54811) scale(0.03969,0.03969)" font-size="40" xml:space="preserve" fill="#dab7b1" fill-rule="nonzero" stroke="none" stroke-width="1" stroke-linecap="butt" stroke-linejoin="miter" stroke-miterlimit="10" stroke-dasharray="" stroke-dashoffset="0" font-family="&quot;Microsoft YaHei&quot;, &quot;微软雅黑&quot;, STXihei, &quot;华文细黑&quot;" font-weight="normal" text-anchor="start" style="mix-blend-mode: normal"><tspan x="0" dy="0">Health on the go.</tspan></text><text transform="translate(210.43882,165.63741) scale(0.07065,0.10564)" font-size="40" xml:space="preserve" fill="#e3bba8" fill-rule="nonzero" stroke="none" stroke-width="1" stroke-linecap="butt" stroke-linejoin="miter" stroke-miterlimit="10" stroke-dasharray="" stroke-dashoffset="0" font-family="Sans Serif" font-weight="normal" text-anchor="start" style="mix-blend-mode: normal"><tspan x="0" dy="0">Straplight</tspan></text><text transform="translate(230.56387,168.14601) scale(0.09734,0.13713)" font-size="40" xml:space="preserve" fill="#dab7b1" fill-rule="nonzero" stroke="none" stroke-width="1" stroke-linecap="butt" stroke-linejoin="miter" stroke-miterlimit="10" stroke-dasharray="" stroke-dashoffset="0" font-family="Sans Serif" font-weight="normal" text-anchor="start" style="mix-blend-mode: normal"><tspan x="0" dy="0">1OO</tspan></text><text transform="translate(210.63128,169.25451) scale(0.03969,0.03969)" font-size="40" xml:space="preserve" fill="#dab7b1" fill-rule="nonzero" stroke="none" stroke-width="1" stroke-linecap="butt" stroke-linejoin="miter" stroke-miterlimit="10" stroke-dasharray="" stroke-dashoffset="0" font-family="&quot;Microsoft YaHei&quot;, &quot;微软雅黑&quot;, STXihei, &quot;华文细黑&quot;" font-weight="normal" text-anchor="start" style="mix-blend-mode: normal"><tspan x="0" dy="0">Hands-free light.</tspan></text><text transform="translate(245.30223,168.94193) scale(0.03299,0.04647)" font-size="40" xml:space="preserve" fill="#dab7b1" fill-rule="nonzero" stroke="none" stroke-width="1" stroke-linecap="butt" stroke-linejoin="miter" stroke-miterlimit="10" stroke-dasharray="" stroke-dashoffset="0" font-family="Sans Serif" font-weight="normal" text-anchor="start" style="mix-blend-mode: normal"><tspan x="0" dy="0">x1</tspan></text><text transform="translate(273.85258,167.58189) scale(0.09734,0.13713)" font-size="40" xml:space="preserve" fill="#dab7b1" fill-rule="nonzero" stroke="none" stroke-width="1" stroke-linecap="butt" stroke-linejoin="miter" stroke-miterlimit="10" stroke-dasharray="" stroke-dashoffset="0" font-family="Sans Serif" font-weight="normal" text-anchor="start" style="mix-blend-mode: normal"><tspan x="0" dy="0">5O</tspan></text><text transform="translate(248.36952,165.4576) scale(0.07065,0.10564)" font-size="40" xml:space="preserve" fill="#e3bba8" fill-rule="nonzero" stroke="none" stroke-width="1" stroke-linecap="butt" stroke-linejoin="miter" stroke-miterlimit="10" stroke-dasharray="" stroke-dashoffset="0" font-family="Sans Serif" font-weight="normal" text-anchor="start" style="mix-blend-mode: normal"><tspan x="0" dy="0">Revive</tspan></text><text transform="translate(208.53099,175.34524) scale(0.07065,0.10564)" font-size="40" xml:space="preserve" fill="#e3bba8" fill-rule="nonzero" stroke="none" stroke-width="1" stroke-linecap="butt" stroke-linejoin="miter" stroke-miterlimit="10" stroke-dasharray="" stroke-dashoffset="0" font-family="Sans Serif" font-weight="normal" text-anchor="start" style="mix-blend-mode: normal"><tspan x="0" dy="0">Spotlight</tspan><tspan x="0" dy="48px"> </tspan></text><text transform="translate(248.54878,168.60229) scale(0.03969,0.03969)" font-size="40" xml:space="preserve" fill="#dab7b1" fill-rule="nonzero" stroke="none" stroke-width="1" stroke-linecap="butt" stroke-linejoin="miter" stroke-miterlimit="10" stroke-dasharray="" stroke-dashoffset="0" font-family="&quot;Microsoft YaHei&quot;, &quot;微软雅黑&quot;, STXihei, &quot;华文细黑&quot;" font-weight="normal" text-anchor="start" style="mix-blend-mode: normal"><tspan x="0" dy="0">2nd chance at life.</tspan></text><text transform="translate(206.45295,169.72784) scale(0.03299,0.04647)" font-size="40" xml:space="preserve" fill="#dab7b1" fill-rule="nonzero" stroke="none" stroke-width="1" stroke-linecap="butt" stroke-linejoin="miter" stroke-miterlimit="10" stroke-dasharray="" stroke-dashoffset="0" font-family="Sans Serif" font-weight="normal" text-anchor="start" style="mix-blend-mode: normal"><tspan x="0" dy="0">100%</tspan></text><text transform="translate(231.89414,178.40483) scale(0.09734,0.13713)" font-size="40" xml:space="preserve" fill="#dab7b1" fill-rule="nonzero" stroke="none" stroke-width="1" stroke-linecap="butt" stroke-linejoin="miter" stroke-miterlimit="10" stroke-dasharray="" stroke-dashoffset="0" font-family="Sans Serif" font-weight="normal" text-anchor="start" style="mix-blend-mode: normal"><tspan x="0" dy="0">150</tspan></text><text transform="translate(208.7027,179.62594) scale(0.03969,0.03969)" font-size="40" xml:space="preserve" fill="#dab7b1" fill-rule="nonzero" stroke="none" stroke-width="1" stroke-linecap="butt" stroke-linejoin="miter" stroke-miterlimit="10" stroke-dasharray="" stroke-dashoffset="0" font-family="&quot;Microsoft YaHei&quot;, &quot;微软雅黑&quot;, STXihei, &quot;华文细黑&quot;" font-weight="normal" text-anchor="start" style="mix-blend-mode: normal"><tspan x="0" dy="0">Mega strong light.</tspan></text><text transform="translate(204.05295,180.22784) scale(0.03299,0.04647)" font-size="40" xml:space="preserve" fill="#dab7b1" fill-rule="nonzero" stroke="none" stroke-width="1" stroke-linecap="butt" stroke-linejoin="miter" stroke-miterlimit="10" stroke-dasharray="" stroke-dashoffset="0" font-family="Sans Serif" font-weight="normal" text-anchor="start" style="mix-blend-mode: normal"><tspan x="0" dy="0">100%</tspan></text><g fill-rule="nonzero" stroke-linejoin="miter" stroke-miterlimit="10"><text transform="translate(242.45186,178.3647) scale(0.03913,0.03913)" font-size="40" xml:space="preserve" fill="#9966ff" fill-rule="nonzero" stroke="none" stroke-width="0.3" stroke-linecap="butt" stroke-linejoin="miter" stroke-miterlimit="10" stroke-dasharray="" stroke-dashoffset="0" font-family="Marker" font-weight="normal" text-anchor="start" style="mix-blend-mode: normal"><tspan x="0" dy="0">xamt8</tspan></text><g><text transform="translate(242.88586,174.88647) rotate(-45.87641) scale(0.01248,0.01248)" font-size="40" xml:space="preserve" fill="#876a45" fill-rule="nonzero" stroke="none" stroke-width="0.3" stroke-linecap="butt" stroke-linejoin="miter" stroke-miterlimit="10" stroke-dasharray="" stroke-dashoffset="0" font-family="Marker" font-weight="normal" text-anchor="start" style="mix-blend-mode: normal"><tspan x="0" dy="0">xamt8</tspan></text><path d="M242.01084,174.42212l1.50052,-1.3266c0,0 0.16994,-0.15065 0.34623,-0.17829c0.16538,-0.02593 0.33554,0.06945 0.39986,0.11504c0.10053,0.07127 0.18044,0.2304 0.14156,0.40024c-0.04636,0.20248 -0.22434,0.41327 -0.22434,0.41327l-1.50637,1.38043z" fill="#e4b375" stroke="#ff7700" stroke-width="0.15" stroke-linecap="butt"></path><path d="M243.34762,174.51527l-0.63403,-0.69388" fill="none" stroke="#b8915e" stroke-width="0.15" stroke-linecap="round"></path><path d="M242.29806,174.18876l0.6531,0.73872" fill="none" stroke="#b8915e" stroke-width="0.15" stroke-linecap="round"></path><path d="M243.83166,173.07075c0.0147,-0.01299 0.03715,-0.01161 0.05014,0.00308c0.01299,0.0147 0.01161,0.03715 -0.00308,0.05014c-0.0147,0.01299 -0.03715,0.01161 -0.05014,-0.00308c-0.01299,-0.0147 -0.01161,-0.03715 0.00308,-0.05014z" fill="#b8915e" stroke="none" stroke-width="0.15" stroke-linecap="butt"></path><path d="M243.94502,173.18388c0.0147,-0.01299 0.03715,-0.01161 0.05014,0.00308c0.01299,0.0147 0.01161,0.03715 -0.00308,0.05014c-0.0147,0.01299 -0.03715,0.01161 -0.05014,-0.00308c-0.01299,-0.0147 -0.01161,-0.03715 0.00308,-0.05014z" fill="#b8915e" stroke="none" stroke-width="0.15" stroke-linecap="butt"></path><path d="M244.07822,173.31947c0.0147,-0.01299 0.03715,-0.01161 0.05014,0.00308c0.01299,0.0147 0.01161,0.03715 -0.00308,0.05014c-0.0147,0.01299 -0.03715,0.01161 -0.05014,-0.00308c-0.01299,-0.0147 -0.01161,-0.03715 0.00308,-0.05014z" fill="#b8915e" stroke="none" stroke-width="0.15" stroke-linecap="butt"></path><path d="M244.16913,173.45246c0.0147,-0.01299 0.03715,-0.01161 0.05014,0.00308c0.01299,0.0147 0.01161,0.03715 -0.00309,0.05014c-0.0147,0.01299 -0.03714,0.01161 -0.05014,-0.00308c-0.01299,-0.0147 -0.01161,-0.03715 0.00308,-0.05014z" fill="#b8915e" stroke="none" stroke-width="0.15" stroke-linecap="butt"></path><path d="M243.73143,173.31937c0.0147,-0.01299 0.03715,-0.01161 0.05014,0.00308c0.01299,0.0147 0.01161,0.03715 -0.00308,0.05014c-0.0147,0.01299 -0.03715,0.01161 -0.05014,-0.00308c-0.01299,-0.0147 -0.01161,-0.03715 0.00309,-0.05014z" fill="#b8915e" stroke="none" stroke-width="0.15" stroke-linecap="butt"></path><path d="M243.84392,173.44661c0.0147,-0.01299 0.03715,-0.01161 0.05014,0.00308c0.01299,0.0147 0.01161,0.03715 -0.00308,0.05014c-0.0147,0.01299 -0.03715,0.01161 -0.05014,-0.00308c-0.01299,-0.0147 -0.01161,-0.03715 0.00308,-0.05014z" fill="#b8915e" stroke="none" stroke-width="0.15" stroke-linecap="butt"></path><path d="M243.96216,173.59543c0.0147,-0.01299 0.03715,-0.01161 0.05014,0.00308c0.01299,0.0147 0.01161,0.03715 -0.00308,0.05014c-0.0147,0.01299 -0.03715,0.01161 -0.05014,-0.00308c-0.01299,-0.0147 -0.01161,-0.03715 0.00308,-0.05014z" fill="#b8915e" stroke="none" stroke-width="0.15" stroke-linecap="butt"></path><path d="M243.41024,173.36331c0.0147,-0.01299 0.03715,-0.01161 0.05014,0.00308c0.01299,0.0147 0.01161,0.03715 -0.00308,0.05014c-0.0147,0.01299 -0.03715,0.01161 -0.05014,-0.00308c-0.01299,-0.0147 -0.01161,-0.03715 0.00308,-0.05014z" fill="#b8915e" stroke="none" stroke-width="0.15" stroke-linecap="butt"></path><path d="M243.60962,173.57374c0.0147,-0.01299 0.03715,-0.01161 0.05014,0.00308c0.01299,0.0147 0.01161,0.03715 -0.00308,0.05014c-0.0147,0.01299 -0.03715,0.01161 -0.05014,-0.00308c-0.01299,-0.0147 -0.01161,-0.03715 0.00308,-0.05014z" fill="#b8915e" stroke="none" stroke-width="0.15" stroke-linecap="butt"></path><path d="M243.71463,173.7076c0.0147,-0.01299 0.03715,-0.01161 0.05014,0.00308c0.01299,0.0147 0.01161,0.03715 -0.00308,0.05014c-0.0147,0.01299 -0.03715,0.01161 -0.05014,-0.00308c-0.01299,-0.0147 -0.01161,-0.03715 0.00308,-0.05014z" fill="#b8915e" stroke="none" stroke-width="0.15" stroke-linecap="butt"></path><path d="M243.81215,173.84807c0.0147,-0.01299 0.03715,-0.01161 0.05014,0.00308c0.01299,0.0147 0.01161,0.03715 -0.00308,0.05014c-0.0147,0.01299 -0.03715,0.01161 -0.05014,-0.00308c-0.01299,-0.0147 -0.01161,-0.03715 0.00308,-0.05014z" fill="#b8915e" stroke="none" stroke-width="0.15" stroke-linecap="butt"></path><path d="M243.30655,173.66834c0.0147,-0.01299 0.03715,-0.01161 0.05014,0.00309c0.01299,0.0147 0.01161,0.03714 -0.00308,0.05014c-0.0147,0.01299 -0.03715,0.01161 -0.05014,-0.00308c-0.01299,-0.0147 -0.01161,-0.03715 0.00308,-0.05014z" fill="#b8915e" stroke="none" stroke-width="0.15" stroke-linecap="butt"></path><path d="M243.48608,173.85632c0.0147,-0.01299 0.03715,-0.01161 0.05014,0.00308c0.01299,0.0147 0.01161,0.03714 -0.00308,0.05014c-0.0147,0.01299 -0.03715,0.01161 -0.05014,-0.00308c-0.01299,-0.0147 -0.01161,-0.03714 0.00308,-0.05014z" fill="#b8915e" stroke="none" stroke-width="0.15" stroke-linecap="butt"></path><path d="M243.01703,173.65761c0.0147,-0.01299 0.03715,-0.01161 0.05014,0.00308c0.01299,0.0147 0.01161,0.03715 -0.00308,0.05014c-0.0147,0.01299 -0.03715,0.01161 -0.05014,-0.00308c-0.01299,-0.0147 -0.01161,-0.03715 0.00308,-0.05014z" fill="#b8915e" stroke="none" stroke-width="0.15" stroke-linecap="butt"></path><path d="M243.17009,173.81565c0.0147,-0.01299 0.03715,-0.01161 0.05014,0.00308c0.01299,0.0147 0.01161,0.03715 -0.00308,0.05014c-0.0147,0.01299 -0.03715,0.01161 -0.05014,-0.00308c-0.01299,-0.0147 -0.01161,-0.03715 0.00308,-0.05014z" fill="#b8915e" stroke="none" stroke-width="0.15" stroke-linecap="butt"></path><path d="M243.3007,173.99355c0.0147,-0.01299 0.03715,-0.01161 0.05014,0.00308c0.01299,0.0147 0.01161,0.03714 -0.00308,0.05014c-0.0147,0.01299 -0.03714,0.01161 -0.05014,-0.00308c-0.01299,-0.0147 -0.01161,-0.03714 0.00308,-0.05014z" fill="#b8915e" stroke="none" stroke-width="0.15" stroke-linecap="butt"></path><path d="M243.41894,174.14237c0.0147,-0.01299 0.03715,-0.01161 0.05014,0.00308c0.01299,0.0147 0.01161,0.03715 -0.00308,0.05014c-0.0147,0.01299 -0.03715,0.01161 -0.05014,-0.00308c-0.01299,-0.0147 -0.01161,-0.03715 0.00308,-0.05014z" fill="#b8915e" stroke="none" stroke-width="0.15" stroke-linecap="butt"></path><path d="M242.29133,174.16431l0.38518,-0.35861l0.68734,0.73826l-0.38518,0.35861z" fill="#ebd1ae" stroke="none" stroke-width="0.15" stroke-linecap="butt"></path><path d="M242.66074,173.81289l0.31073,1.0739" fill="none" stroke="#cdb697" stroke-width="0.15" stroke-linecap="round"></path><path d="M243.33258,174.5506l-1.00569,-0.40442" fill="none" stroke="#cdb697" stroke-width="0.15" stroke-linecap="round"></path></g><g><text transform="translate(246.93879,174.96289) rotate(-99.68879) scale(0.01248,0.01248)" font-size="40" xml:space="preserve" fill="#876a45" fill-rule="nonzero" stroke="none" stroke-width="0.3" stroke-linecap="butt" stroke-linejoin="miter" stroke-miterlimit="10" stroke-dasharray="" stroke-dashoffset="0" font-family="Marker" font-weight="normal" text-anchor="start" style="mix-blend-mode: normal"><tspan x="0" dy="0">xamt8</tspan></text><path d="M246.04745,175.39509l-0.18505,-1.99428c0,0 -0.02129,-0.2261 0.06047,-0.38472c0.0767,-0.1488 0.25413,-0.22985 0.3289,-0.25485c0.11687,-0.03908 0.29249,-0.00964 0.40663,0.122c0.13607,0.15694 0.20115,0.42504 0.20115,0.42504l0.22504,2.03078z" fill="#e4b375" stroke="#ff7700" stroke-width="0.15" stroke-linecap="butt"></path><path d="M245.97738,174.47322l0.93436,-0.10217" fill="none" stroke="#b8915e" stroke-width="0.15" stroke-linecap="round"></path><path d="M246.02863,175.02549l0.9818,-0.0911" fill="none" stroke="#b8915e" stroke-width="0.15" stroke-linecap="round"></path><path d="M246.03147,173.12764c-0.00181,-0.01953 0.01255,-0.03684 0.03209,-0.03865c0.01953,-0.00181 0.03684,0.01255 0.03865,0.03209c0.00181,0.01953 -0.01255,0.03684 -0.03209,0.03865c-0.01953,0.00181 -0.03684,-0.01255 -0.03865,-0.03209z" fill="#b8915e" stroke="none" stroke-width="0.15" stroke-linecap="butt"></path><path d="M246.18971,173.10292c-0.00181,-0.01953 0.01255,-0.03684 0.03209,-0.03865c0.01953,-0.00181 0.03684,0.01255 0.03865,0.03209c0.00181,0.01953 -0.01255,0.03684 -0.03209,0.03865c-0.01953,0.00181 -0.03684,-0.01255 -0.03865,-0.03209z" fill="#b8915e" stroke="none" stroke-width="0.15" stroke-linecap="butt"></path><path d="M246.37779,173.07543c-0.00181,-0.01953 0.01255,-0.03684 0.03209,-0.03865c0.01953,-0.00181 0.03684,0.01255 0.03865,0.03209c0.00181,0.01953 -0.01255,0.03684 -0.03209,0.03865c-0.01953,0.00181 -0.03684,-0.01255 -0.03865,-0.03209z" fill="#b8915e" stroke="none" stroke-width="0.15" stroke-linecap="butt"></path><path d="M246.53879,173.08056c-0.00181,-0.01953 0.01255,-0.03684 0.03209,-0.03865c0.01953,-0.00181 0.03684,0.01255 0.03865,0.03209c0.00181,0.01953 -0.01255,0.03684 -0.03209,0.03865c-0.01953,0.00181 -0.03684,-0.01255 -0.03865,-0.03209z" fill="#b8915e" stroke="none" stroke-width="0.15" stroke-linecap="butt"></path><path d="M246.173,173.3553c-0.00181,-0.01953 0.01255,-0.03684 0.03209,-0.03865c0.01953,-0.00181 0.03684,0.01255 0.03865,0.03209c0.00181,0.01953 -0.01255,0.03684 -0.03209,0.03865c-0.01953,0.00181 -0.03684,-0.01255 -0.03865,-0.03209z" fill="#b8915e" stroke="none" stroke-width="0.15" stroke-linecap="butt"></path><path d="M246.3421,173.33961c-0.00181,-0.01953 0.01255,-0.03684 0.03209,-0.03865c0.01953,-0.00181 0.03684,0.01255 0.03865,0.03209c0.00181,0.01953 -0.01255,0.03684 -0.03209,0.03865c-0.01953,0.00181 -0.03684,-0.01255 -0.03865,-0.03209z" fill="#b8915e" stroke="none" stroke-width="0.15" stroke-linecap="butt"></path><path d="M246.53203,173.33202c-0.00181,-0.01953 0.01255,-0.03684 0.03209,-0.03865c0.01953,-0.00181 0.03684,0.01255 0.03865,0.03209c0.00181,0.01953 -0.01255,0.03684 -0.03209,0.03865c-0.01953,0.00181 -0.03684,-0.01255 -0.03865,-0.03209z" fill="#b8915e" stroke="none" stroke-width="0.15" stroke-linecap="butt"></path><path d="M246.01886,173.64049c-0.00181,-0.01953 0.01255,-0.03684 0.03209,-0.03865c0.01953,-0.00181 0.03684,0.01255 0.03865,0.03209c0.00181,0.01953 -0.01255,0.03684 -0.03209,0.03865c-0.01953,0.00181 -0.03684,-0.01255 -0.03865,-0.03209z" fill="#b8915e" stroke="none" stroke-width="0.15" stroke-linecap="butt"></path><path d="M246.30642,173.60378c-0.00181,-0.01953 0.01255,-0.03684 0.03209,-0.03865c0.01953,-0.00181 0.03684,0.01255 0.03865,0.03209c0.00181,0.01953 -0.01255,0.03684 -0.03209,0.03865c-0.01953,0.00181 -0.03684,-0.01255 -0.03865,-0.03209z" fill="#b8915e" stroke="none" stroke-width="0.15" stroke-linecap="butt"></path><path d="M246.47645,173.59803c-0.00181,-0.01953 0.01255,-0.03684 0.03209,-0.03865c0.01953,-0.00181 0.03684,0.01255 0.03865,0.03209c0.00181,0.01953 -0.01255,0.03684 -0.03209,0.03865c-0.01953,0.00181 -0.03684,-0.01255 -0.03865,-0.03209z" fill="#b8915e" stroke="none" stroke-width="0.15" stroke-linecap="butt"></path><path d="M246.6474,173.60224c-0.00181,-0.01953 0.01255,-0.03684 0.03209,-0.03865c0.01953,-0.00181 0.03684,0.01255 0.03865,0.03209c0.00181,0.01953 -0.01255,0.03684 -0.03209,0.03865c-0.01953,0.00181 -0.03684,-0.01255 -0.03865,-0.03209z" fill="#b8915e" stroke="none" stroke-width="0.15" stroke-linecap="butt"></path><path d="M246.20387,173.90426c-0.00181,-0.01953 0.01255,-0.03684 0.03209,-0.03865c0.01953,-0.00181 0.03684,0.01255 0.03865,0.03209c0.00181,0.01953 -0.01255,0.03684 -0.03209,0.03865c-0.01953,0.00181 -0.03684,-0.01255 -0.03865,-0.03209z" fill="#b8915e" stroke="none" stroke-width="0.15" stroke-linecap="butt"></path><path d="M246.46158,173.87031c-0.00181,-0.01953 0.01255,-0.03684 0.03209,-0.03865c0.01953,-0.00181 0.03684,0.01255 0.03865,0.03209c0.00181,0.01953 -0.01255,0.03684 -0.03209,0.03865c-0.01953,0.00181 -0.03684,-0.01255 -0.03865,-0.03209z" fill="#b8915e" stroke="none" stroke-width="0.15" stroke-linecap="butt"></path><path d="M246.0243,174.13161c-0.00181,-0.01953 0.01255,-0.03684 0.03209,-0.03865c0.01953,-0.00181 0.03684,0.01255 0.03865,0.03209c0.00181,0.01953 -0.01255,0.03684 -0.03209,0.03865c-0.01953,0.00181 -0.03684,-0.01255 -0.03865,-0.03209z" fill="#b8915e" stroke="none" stroke-width="0.15" stroke-linecap="butt"></path><path d="M246.24222,174.10136c-0.00181,-0.01953 0.01255,-0.03684 0.03209,-0.03865c0.01953,-0.00181 0.03684,0.01255 0.03865,0.03209c0.00181,0.01953 -0.01255,0.03684 -0.03209,0.03865c-0.01953,0.00181 -0.03684,-0.01255 -0.03865,-0.03209z" fill="#b8915e" stroke="none" stroke-width="0.15" stroke-linecap="butt"></path><path d="M246.46291,174.10095c-0.00181,-0.01953 0.01255,-0.03684 0.03209,-0.03865c0.01953,-0.00181 0.03684,0.01255 0.03865,0.03209c0.00181,0.01953 -0.01255,0.03684 -0.03209,0.03865c-0.01953,0.00181 -0.03684,-0.01255 -0.03865,-0.03209z" fill="#b8915e" stroke="none" stroke-width="0.15" stroke-linecap="butt"></path><path d="M246.65284,174.09336c-0.00181,-0.01953 0.01255,-0.03684 0.03209,-0.03865c0.01953,-0.00181 0.03684,0.01255 0.03865,0.03209c0.00181,0.01953 -0.01255,0.03684 -0.03209,0.03865c-0.01953,0.00181 -0.03684,-0.01255 -0.03865,-0.03209z" fill="#b8915e" stroke="none" stroke-width="0.15" stroke-linecap="butt"></path><path d="M246.00492,175.01649l-0.06209,-0.5226l1.00165,-0.11901l0.06209,0.5226z" fill="#ebd1ae" stroke="none" stroke-width="0.15" stroke-linecap="butt"></path><path d="M245.93932,174.51087l1.05027,0.38311" fill="none" stroke="#cdb697" stroke-width="0.15" stroke-linecap="round"></path><path d="M246.93138,174.40404l-0.9201,0.57305" fill="none" stroke="#cdb697" stroke-width="0.15" stroke-linecap="round"></path></g><g><text transform="translate(245.27534,174.52328) rotate(-116.19554) scale(0.01248,0.01248)" font-size="40" xml:space="preserve" fill="#876a45" fill-rule="nonzero" stroke="none" stroke-width="0.3" stroke-linecap="butt" stroke-linejoin="miter" stroke-miterlimit="10" stroke-dasharray="" stroke-dashoffset="0" font-family="Marker" font-weight="normal" text-anchor="start" style="mix-blend-mode: normal"><tspan x="0" dy="0">xamt8</tspan></text><path d="M244.54352,175.19091l-0.74402,-1.85953c0,0 -0.08465,-0.21074 -0.05133,-0.38604c0.03126,-0.16445 0.17835,-0.29258 0.24294,-0.33779c0.10095,-0.07067 0.2777,-0.09235 0.42453,0.00144c0.17505,0.11181 0.31362,0.35038 0.31362,0.35038l0.79274,1.88316z" fill="#e4b375" stroke="#ff7700" stroke-width="0.15" stroke-linecap="butt"></path><path d="M245.08126,173.96352l-0.86683,0.36342" fill="none" stroke="#b8915e" stroke-width="0.15" stroke-linecap="round"></path><path d="M244.42047,174.84189l0.91546,-0.36629" fill="none" stroke="#b8915e" stroke-width="0.15" stroke-linecap="round"></path><path d="M243.884,173.02143c-0.00729,-0.01821 0.00157,-0.03889 0.01978,-0.04617c0.01821,-0.00729 0.03889,0.00157 0.04617,0.01978c0.00729,0.01821 -0.00157,0.03889 -0.01978,0.04617c-0.01821,0.00729 -0.03889,-0.00157 -0.04617,-0.01978z" fill="#b8915e" stroke="none" stroke-width="0.15" stroke-linecap="butt"></path><path d="M244.02869,172.95278c-0.00729,-0.01821 0.00157,-0.03889 0.01978,-0.04617c0.01821,-0.00729 0.03889,0.00157 0.04617,0.01978c0.00729,0.01821 -0.00157,0.03889 -0.01978,0.04617c-0.01821,0.00729 -0.03889,-0.00157 -0.04617,-0.01978z" fill="#b8915e" stroke="none" stroke-width="0.15" stroke-linecap="butt"></path><path d="M244.20121,172.87299c-0.00729,-0.01821 0.00157,-0.03889 0.01978,-0.04618c0.01821,-0.00729 0.03889,0.00157 0.04617,0.01978c0.00729,0.01821 -0.00157,0.03889 -0.01978,0.04617c-0.01821,0.00729 -0.03889,-0.00157 -0.04617,-0.01978z" fill="#b8915e" stroke="none" stroke-width="0.15" stroke-linecap="butt"></path><path d="M244.35704,172.83216c-0.00729,-0.01821 0.00157,-0.03889 0.01978,-0.04617c0.01821,-0.00729 0.03889,0.00157 0.04617,0.01978c0.00729,0.01821 -0.00157,0.03889 -0.01978,0.04617c-0.01821,0.00729 -0.03889,-0.00157 -0.04617,-0.01978z" fill="#b8915e" stroke="none" stroke-width="0.15" stroke-linecap="butt"></path><path d="M244.08437,173.19951c-0.00729,-0.01821 0.00157,-0.03889 0.01978,-0.04617c0.01821,-0.00729 0.03889,0.00157 0.04617,0.01978c0.00729,0.01821 -0.00157,0.03889 -0.01978,0.04617c-0.01821,0.00729 -0.03889,-0.00157 -0.04617,-0.01978z" fill="#b8915e" stroke="none" stroke-width="0.15" stroke-linecap="butt"></path><path d="M244.24205,173.13642c-0.00729,-0.01821 0.00157,-0.03889 0.01978,-0.04617c0.01821,-0.00729 0.03889,0.00157 0.04617,0.01978c0.00729,0.01821 -0.00157,0.03889 -0.01978,0.04617c-0.01821,0.00729 -0.03889,-0.00157 -0.04617,-0.01978z" fill="#b8915e" stroke="none" stroke-width="0.15" stroke-linecap="butt"></path><path d="M244.42199,173.07518c-0.00729,-0.01821 0.00157,-0.03889 0.01978,-0.04617c0.01821,-0.00729 0.03889,0.00157 0.04617,0.01978c0.00729,0.01821 -0.00157,0.03889 -0.01978,0.04617c-0.01821,0.00729 -0.03889,-0.00157 -0.04617,-0.01978z" fill="#b8915e" stroke="none" stroke-width="0.15" stroke-linecap="butt"></path><path d="M244.01762,173.51674c-0.00729,-0.01821 0.00157,-0.03889 0.01978,-0.04617c0.01821,-0.00729 0.03889,0.00157 0.04617,0.01978c0.00729,0.01821 -0.00157,0.03889 -0.01978,0.04617c-0.01821,0.00729 -0.03889,-0.00157 -0.04617,-0.01978z" fill="#b8915e" stroke="none" stroke-width="0.15" stroke-linecap="butt"></path><path d="M244.28289,173.39984c-0.00729,-0.01821 0.00157,-0.03889 0.01978,-0.04617c0.01821,-0.00729 0.03889,0.00157 0.04617,0.01978c0.00729,0.01821 -0.00157,0.03889 -0.01978,0.04617c-0.01821,0.00729 -0.03889,-0.00157 -0.04617,-0.01978z" fill="#b8915e" stroke="none" stroke-width="0.15" stroke-linecap="butt"></path><path d="M244.44428,173.34603c-0.00729,-0.01821 0.00157,-0.03889 0.01978,-0.04617c0.01821,-0.00729 0.03889,0.00157 0.04617,0.01978c0.00729,0.01821 -0.00157,0.03889 -0.01978,0.04617c-0.01821,0.00729 -0.03889,-0.00157 -0.04617,-0.01978z" fill="#b8915e" stroke="none" stroke-width="0.15" stroke-linecap="butt"></path><path d="M244.60938,173.30149c-0.00729,-0.01821 0.00157,-0.03889 0.01978,-0.04617c0.01821,-0.00729 0.03889,0.00157 0.04617,0.01978c0.00729,0.01821 -0.00157,0.03889 -0.01978,0.04617c-0.01821,0.00729 -0.03889,-0.00157 -0.04617,-0.01978z" fill="#b8915e" stroke="none" stroke-width="0.15" stroke-linecap="butt"></path><path d="M244.26993,173.71707c-0.00729,-0.01821 0.00157,-0.03889 0.01978,-0.04617c0.01821,-0.00729 0.03889,0.00157 0.04617,0.01978c0.00729,0.01821 -0.00157,0.03889 -0.01978,0.04617c-0.01821,0.00729 -0.03889,-0.00157 -0.04617,-0.01978z" fill="#b8915e" stroke="none" stroke-width="0.15" stroke-linecap="butt"></path><path d="M244.50738,173.6113c-0.00729,-0.01821 0.00157,-0.03889 0.01978,-0.04617c0.01821,-0.00729 0.03889,0.00157 0.04617,0.01978c0.00729,0.01821 -0.00157,0.03889 -0.01978,0.04617c-0.01821,0.00729 -0.03889,-0.00157 -0.04617,-0.01978z" fill="#b8915e" stroke="none" stroke-width="0.15" stroke-linecap="butt"></path><path d="M244.16236,173.98607c-0.00729,-0.01821 0.00157,-0.03889 0.01978,-0.04617c0.01821,-0.00729 0.03889,0.00157 0.04617,0.01978c0.00729,0.01821 -0.00157,0.03889 -0.01978,0.04617c-0.01821,0.00729 -0.03889,-0.00157 -0.04617,-0.01978z" fill="#b8915e" stroke="none" stroke-width="0.15" stroke-linecap="butt"></path><path d="M244.36271,173.89515c-0.00729,-0.01821 0.00157,-0.03889 0.01978,-0.04617c0.01821,-0.00729 0.03889,0.00157 0.04617,0.01978c0.00729,0.01821 -0.00157,0.03889 -0.01978,0.04617c-0.01821,0.00729 -0.03889,-0.00157 -0.04617,-0.01978z" fill="#b8915e" stroke="none" stroke-width="0.15" stroke-linecap="butt"></path><path d="M244.57419,173.83206c-0.00729,-0.01821 0.00157,-0.03889 0.01978,-0.04617c0.01821,-0.00729 0.03889,0.00157 0.04617,0.01978c0.00729,0.01821 -0.00157,0.03889 -0.01978,0.04617c-0.01821,0.00729 -0.03889,-0.00157 -0.04617,-0.01978z" fill="#b8915e" stroke="none" stroke-width="0.15" stroke-linecap="butt"></path><path d="M244.75413,173.77082c-0.00729,-0.01821 0.00157,-0.03889 0.01978,-0.04617c0.01821,-0.00729 0.03889,0.00157 0.04617,0.01978c0.00729,0.01821 -0.00157,0.03889 -0.01978,0.04617c-0.01821,0.00729 -0.03889,-0.00157 -0.04617,-0.01978z" fill="#b8915e" stroke="none" stroke-width="0.15" stroke-linecap="butt"></path><path d="M244.39518,174.84l-0.20801,-0.48342l0.92656,-0.39868l0.20801,0.48342z" fill="#ebd1ae" stroke="none" stroke-width="0.15" stroke-linecap="butt"></path><path d="M245.30447,174.44278l-1.11583,-0.06893" fill="none" stroke="#cdb697" stroke-width="0.15" stroke-linecap="round"></path><path d="M245.10946,173.98957l-0.71937,0.81084" fill="none" stroke="#cdb697" stroke-width="0.15" stroke-linecap="round"></path></g><g><text transform="translate(245.68146,175.01672) rotate(-56.19815) scale(0.01706,0.01706)" font-size="40" xml:space="preserve" fill="#876a45" fill-rule="nonzero" stroke="none" stroke-width="0.3" stroke-linecap="butt" stroke-linejoin="miter" stroke-miterlimit="10" stroke-dasharray="" stroke-dashoffset="0" font-family="Marker" font-weight="normal" text-anchor="start" style="mix-blend-mode: normal"><tspan x="0" dy="0">xamt8</tspan></text><path d="M244.39062,174.6065l1.69342,-2.15219c0,0 0.19169,-0.24429 0.42206,-0.32467c0.21611,-0.0754 0.46838,0.0112 0.56607,0.05677c0.15269,0.07123 0.29918,0.26572 0.28849,0.50371c-0.01274,0.28373 -0.20052,0.61089 -0.20052,0.61089l-1.6881,2.22603z" fill="#e4b375" stroke="#ff7700" stroke-width="0.15" stroke-linecap="butt"></path><path d="M246.21165,174.40425l-1.0229,-0.77805" fill="none" stroke="#b8915e" stroke-width="0.15" stroke-linecap="round"></path><path d="M245.77935,175.05588l-1.05954,-0.83368" fill="none" stroke="#b8915e" stroke-width="0.15" stroke-linecap="round"></path><path d="M246.50883,172.34249c0.01659,-0.02108 0.04712,-0.02472 0.0682,-0.00814c0.02108,0.01659 0.02472,0.04712 0.00814,0.0682c-0.01659,0.02108 -0.04712,0.02472 -0.0682,0.00814c-0.02108,-0.01659 -0.02472,-0.04712 -0.00814,-0.0682z" fill="#b8915e" stroke="none" stroke-width="0.15" stroke-linecap="butt"></path><path d="M246.68904,172.46691c0.01659,-0.02108 0.04712,-0.02472 0.0682,-0.00814c0.02108,0.01659 0.02472,0.04712 0.00813,0.0682c-0.01659,0.02108 -0.04712,0.02472 -0.0682,0.00814c-0.02108,-0.01659 -0.02472,-0.04712 -0.00813,-0.0682z" fill="#b8915e" stroke="none" stroke-width="0.15" stroke-linecap="butt"></path><path d="M246.90145,172.61666c0.01659,-0.02108 0.04712,-0.02472 0.0682,-0.00814c0.02108,0.01659 0.02472,0.04712 0.00814,0.0682c-0.01659,0.02108 -0.04712,0.02472 -0.0682,0.00814c-0.02108,-0.01659 -0.02472,-0.04712 -0.00814,-0.0682z" fill="#b8915e" stroke="none" stroke-width="0.15" stroke-linecap="butt"></path><path d="M247.05632,172.77328c0.01659,-0.02108 0.04712,-0.02472 0.0682,-0.00814c0.02108,0.01659 0.02472,0.04712 0.00814,0.0682c-0.01659,0.02108 -0.04712,0.02472 -0.0682,0.00814c-0.02108,-0.01659 -0.02472,-0.04712 -0.00814,-0.0682z" fill="#b8915e" stroke="none" stroke-width="0.15" stroke-linecap="butt"></path><path d="M246.43493,172.7015c0.01659,-0.02108 0.04712,-0.02472 0.0682,-0.00814c0.02108,0.01659 0.02472,0.04712 0.00814,0.0682c-0.01659,0.02108 -0.04712,0.02472 -0.0682,0.00813c-0.02108,-0.01659 -0.02472,-0.04712 -0.00813,-0.0682z" fill="#b8915e" stroke="none" stroke-width="0.15" stroke-linecap="butt"></path><path d="M246.61743,172.84509c0.01659,-0.02108 0.04712,-0.02472 0.0682,-0.00814c0.02108,0.01659 0.02472,0.04712 0.00813,0.0682c-0.01659,0.02108 -0.04712,0.02472 -0.0682,0.00814c-0.02108,-0.01659 -0.02472,-0.04712 -0.00814,-0.0682z" fill="#b8915e" stroke="none" stroke-width="0.15" stroke-linecap="butt"></path><path d="M246.81294,173.01632c0.01659,-0.02108 0.04712,-0.02472 0.0682,-0.00814c0.02108,0.01659 0.02472,0.04712 0.00814,0.0682c-0.01659,0.02108 -0.04712,0.02472 -0.0682,0.00814c-0.02108,-0.01659 -0.02472,-0.04712 -0.00814,-0.0682z" fill="#b8915e" stroke="none" stroke-width="0.15" stroke-linecap="butt"></path><path d="M246.01363,172.8393c0.01659,-0.02108 0.04712,-0.02472 0.0682,-0.00814c0.02108,0.01659 0.02472,0.04712 0.00814,0.0682c-0.01659,0.02108 -0.04712,0.02472 -0.0682,0.00814c-0.02108,-0.01659 -0.02472,-0.04712 -0.00814,-0.0682z" fill="#b8915e" stroke="none" stroke-width="0.15" stroke-linecap="butt"></path><path d="M246.3334,173.07352c0.01659,-0.02108 0.04712,-0.02472 0.0682,-0.00814c0.02108,0.01659 0.02472,0.04712 0.00814,0.0682c-0.01659,0.02108 -0.04712,0.02472 -0.0682,0.00814c-0.02108,-0.01659 -0.02472,-0.04712 -0.00814,-0.0682z" fill="#b8915e" stroke="none" stroke-width="0.15" stroke-linecap="butt"></path><path d="M246.50745,173.22785c0.01659,-0.02108 0.04712,-0.02472 0.0682,-0.00814c0.02108,0.01659 0.02472,0.04712 0.00814,0.0682c-0.01659,0.02108 -0.04712,0.02472 -0.0682,0.00814c-0.02108,-0.01659 -0.02472,-0.04712 -0.00814,-0.0682z" fill="#b8915e" stroke="none" stroke-width="0.15" stroke-linecap="butt"></path><path d="M246.67305,173.39292c0.01659,-0.02108 0.04712,-0.02472 0.0682,-0.00814c0.02108,0.01659 0.02472,0.04712 0.00814,0.0682c-0.01659,0.02108 -0.04712,0.02472 -0.0682,0.00814c-0.02108,-0.01659 -0.02472,-0.04712 -0.00814,-0.0682z" fill="#b8915e" stroke="none" stroke-width="0.15" stroke-linecap="butt"></path><path d="M245.94889,173.27504c0.01659,-0.02108 0.04712,-0.02472 0.0682,-0.00814c0.02108,0.01659 0.02472,0.04712 0.00814,0.0682c-0.01659,0.02108 -0.04712,0.02472 -0.0682,0.00814c-0.02108,-0.01659 -0.02472,-0.04712 -0.00814,-0.0682z" fill="#b8915e" stroke="none" stroke-width="0.15" stroke-linecap="butt"></path><path d="M246.23645,173.48392c0.01659,-0.02108 0.04712,-0.02472 0.0682,-0.00814c0.02108,0.01659 0.02472,0.04712 0.00814,0.0682c-0.01659,0.02108 -0.04712,0.02472 -0.0682,0.00813c-0.02108,-0.01659 -0.02472,-0.04712 -0.00814,-0.0682z" fill="#b8915e" stroke="none" stroke-width="0.15" stroke-linecap="butt"></path><path d="M245.5568,173.33154c0.01659,-0.02108 0.04712,-0.02472 0.0682,-0.00814c0.02108,0.01659 0.02472,0.04712 0.00814,0.0682c-0.01659,0.02108 -0.04712,0.02472 -0.0682,0.00814c-0.02108,-0.01659 -0.02472,-0.04712 -0.00814,-0.0682z" fill="#b8915e" stroke="none" stroke-width="0.15" stroke-linecap="butt"></path><path d="M245.80142,173.50663c0.01659,-0.02108 0.04712,-0.02472 0.0682,-0.00814c0.02108,0.01659 0.02472,0.04712 0.00814,0.0682c-0.01659,0.02108 -0.04712,0.02472 -0.0682,0.00814c-0.02108,-0.01659 -0.02472,-0.04712 -0.00814,-0.0682z" fill="#b8915e" stroke="none" stroke-width="0.15" stroke-linecap="butt"></path><path d="M246.0207,173.71393c0.01659,-0.02108 0.04712,-0.02472 0.0682,-0.00814c0.02108,0.01659 0.02472,0.04712 0.00814,0.0682c-0.01659,0.02108 -0.04712,0.02472 -0.0682,0.00814c-0.02108,-0.01659 -0.02472,-0.04712 -0.00814,-0.0682z" fill="#b8915e" stroke="none" stroke-width="0.15" stroke-linecap="butt"></path><path d="M246.21622,173.88515c0.01659,-0.02108 0.04712,-0.02472 0.0682,-0.00814c0.02108,0.01659 0.02472,0.04712 0.00814,0.0682c-0.01659,0.02108 -0.04712,0.02472 -0.0682,0.00814c-0.02108,-0.01659 -0.02472,-0.04712 -0.00814,-0.0682z" fill="#b8915e" stroke="none" stroke-width="0.15" stroke-linecap="butt"></path><path d="M244.70476,174.19096l0.43027,-0.57678l1.10549,0.82468l-0.43027,0.57678z" fill="#ebd1ae" stroke="none" stroke-width="0.15" stroke-linecap="butt"></path><path d="M245.7967,174.99619l-0.68113,-1.36846" fill="none" stroke="#cdb697" stroke-width="0.15" stroke-linecap="round"></path><path d="M244.74815,174.15787l1.45193,0.29759" fill="none" stroke="#cdb697" stroke-width="0.15" stroke-linecap="round"></path></g><g><text transform="translate(244.15231,174.43885) rotate(-104.87517) scale(0.01706,0.01706)" font-size="40" xml:space="preserve" fill="#876a45" fill-rule="nonzero" stroke="none" stroke-width="0.3" stroke-linecap="butt" stroke-linejoin="miter" stroke-miterlimit="10" stroke-dasharray="" stroke-dashoffset="0" font-family="Marker" font-weight="normal" text-anchor="start" style="mix-blend-mode: normal"><tspan x="0" dy="0">xamt8</tspan></text><path d="M242.992,175.13758l-0.49855,-2.69277c0,0 -0.05694,-0.30526 0.03478,-0.53135c0.08604,-0.2121 0.31763,-0.34441 0.41635,-0.3877c0.15431,-0.06766 0.3971,-0.04929 0.5688,0.11586c0.2047,0.19689 0.32646,0.55392 0.32646,0.55392l0.55752,2.73753z" fill="#e4b375" stroke="#ff7700" stroke-width="0.15" stroke-linecap="butt"></path><path d="M244.04231,173.63628l-1.2597,0.25465" fill="none" stroke="#b8915e" stroke-width="0.15" stroke-linecap="round"></path><path d="M244.24634,174.39118l-1.32567,0.24544" fill="none" stroke="#b8915e" stroke-width="0.15" stroke-linecap="round"></path><path d="M242.68991,172.05193c-0.00488,-0.02637 0.01254,-0.05172 0.03891,-0.0566c0.02637,-0.00488 0.05172,0.01254 0.0566,0.03891c0.00488,0.02637 -0.01254,0.05172 -0.03891,0.0566c-0.02637,0.00488 -0.05172,-0.01254 -0.0566,-0.03891z" fill="#b8915e" stroke="none" stroke-width="0.15" stroke-linecap="butt"></path><path d="M242.90232,171.99871c-0.00488,-0.02637 0.01254,-0.05172 0.03892,-0.0566c0.02637,-0.00488 0.05171,0.01254 0.0566,0.03892c0.00488,0.02637 -0.01254,0.05172 -0.03891,0.0566c-0.02637,0.00488 -0.05172,-0.01254 -0.0566,-0.03892z" fill="#b8915e" stroke="none" stroke-width="0.15" stroke-linecap="butt"></path><path d="M243.15503,171.93803c-0.00488,-0.02637 0.01254,-0.05172 0.03892,-0.0566c0.02637,-0.00488 0.05172,0.01254 0.0566,0.03892c0.00488,0.02637 -0.01254,0.05172 -0.03891,0.0566c-0.02637,0.00488 -0.05172,-0.01254 -0.0566,-0.03891z" fill="#b8915e" stroke="none" stroke-width="0.15" stroke-linecap="butt"></path><path d="M243.37491,171.92511c-0.00488,-0.02637 0.01254,-0.05172 0.03891,-0.0566c0.02637,-0.00488 0.05172,0.01254 0.0566,0.03892c0.00488,0.02637 -0.01254,0.05172 -0.03891,0.0566c-0.02637,0.00488 -0.05172,-0.01254 -0.0566,-0.03892z" fill="#b8915e" stroke="none" stroke-width="0.15" stroke-linecap="butt"></path><path d="M242.91077,172.34445c-0.00488,-0.02637 0.01254,-0.05171 0.03892,-0.0566c0.02637,-0.00488 0.05172,0.01254 0.0566,0.03892c0.00488,0.02637 -0.01254,0.05171 -0.03892,0.0566c-0.02637,0.00488 -0.05172,-0.01254 -0.0566,-0.03892z" fill="#b8915e" stroke="none" stroke-width="0.15" stroke-linecap="butt"></path><path d="M243.1391,172.30217c-0.00488,-0.02637 0.01254,-0.05172 0.03891,-0.0566c0.02637,-0.00488 0.05172,0.01254 0.0566,0.03892c0.00488,0.02637 -0.01254,0.05172 -0.03891,0.0566c-0.02637,0.00488 -0.05172,-0.01254 -0.0566,-0.03891z" fill="#b8915e" stroke="none" stroke-width="0.15" stroke-linecap="butt"></path><path d="M243.39679,172.26835c-0.00488,-0.02637 0.01254,-0.05172 0.03891,-0.0566c0.02637,-0.00488 0.05172,0.01254 0.0566,0.03891c0.00488,0.02637 -0.01254,0.05172 -0.03891,0.0566c-0.02637,0.00488 -0.05172,-0.01254 -0.0566,-0.03891z" fill="#b8915e" stroke="none" stroke-width="0.15" stroke-linecap="butt"></path><path d="M242.73614,172.75186c-0.00488,-0.02637 0.01254,-0.05172 0.03892,-0.0566c0.02637,-0.00488 0.05172,0.01254 0.0566,0.03891c0.00488,0.02637 -0.01254,0.05172 -0.03892,0.0566c-0.02637,0.00488 -0.05172,-0.01254 -0.0566,-0.03892z" fill="#b8915e" stroke="none" stroke-width="0.15" stroke-linecap="butt"></path><path d="M243.12317,172.66631c-0.00488,-0.02637 0.01254,-0.05172 0.03891,-0.0566c0.02637,-0.00488 0.05172,0.01254 0.0566,0.03891c0.00488,0.02637 -0.01254,0.05172 -0.03891,0.0566c-0.02637,0.00488 -0.05172,-0.01254 -0.0566,-0.03891z" fill="#b8915e" stroke="none" stroke-width="0.15" stroke-linecap="butt"></path><path d="M243.35399,172.63747c-0.00488,-0.02637 0.01254,-0.05172 0.03891,-0.0566c0.02637,-0.00488 0.05172,0.01254 0.0566,0.03891c0.00488,0.02637 -0.01254,0.05172 -0.03891,0.0566c-0.02637,0.00488 -0.05172,-0.01254 -0.0566,-0.03891z" fill="#b8915e" stroke="none" stroke-width="0.15" stroke-linecap="butt"></path><path d="M243.5873,172.62205c-0.00488,-0.02637 0.01254,-0.05171 0.03891,-0.0566c0.02637,-0.00488 0.05172,0.01254 0.0566,0.03891c0.00488,0.02637 -0.01254,0.05172 -0.03892,0.0566c-0.02637,0.00488 -0.05172,-0.01254 -0.0566,-0.03892z" fill="#b8915e" stroke="none" stroke-width="0.15" stroke-linecap="butt"></path><path d="M243.02068,173.08815c-0.00488,-0.02637 0.01254,-0.05172 0.03892,-0.0566c0.02637,-0.00488 0.05171,0.01254 0.0566,0.03891c0.00488,0.02637 -0.01254,0.05172 -0.03891,0.0566c-0.02637,0.00488 -0.05172,-0.01254 -0.0566,-0.03891z" fill="#b8915e" stroke="none" stroke-width="0.15" stroke-linecap="butt"></path><path d="M243.36741,173.01006c-0.00488,-0.02637 0.01254,-0.05172 0.03892,-0.0566c0.02637,-0.00488 0.05171,0.01254 0.0566,0.03892c0.00488,0.02637 -0.01254,0.05171 -0.03891,0.0566c-0.02637,0.00488 -0.05172,-0.01254 -0.0566,-0.03891z" fill="#b8915e" stroke="none" stroke-width="0.15" stroke-linecap="butt"></path><path d="M242.80427,173.41995c-0.00488,-0.02637 0.01254,-0.05171 0.03891,-0.0566c0.02637,-0.00488 0.05172,0.01254 0.0566,0.03891c0.00488,0.02637 -0.01254,0.05172 -0.03891,0.0566c-0.02637,0.00488 -0.05172,-0.01254 -0.0566,-0.03892z" fill="#b8915e" stroke="none" stroke-width="0.15" stroke-linecap="butt"></path><path d="M243.09727,173.35181c-0.00488,-0.02637 0.01254,-0.05172 0.03891,-0.0566c0.02637,-0.00488 0.05172,0.01254 0.0566,0.03891c0.00488,0.02637 -0.01254,0.05172 -0.03891,0.0566c-0.02637,0.00488 -0.05172,-0.01254 -0.0566,-0.03891z" fill="#b8915e" stroke="none" stroke-width="0.15" stroke-linecap="butt"></path><path d="M243.39774,173.32396c-0.00488,-0.02637 0.01254,-0.05172 0.03892,-0.0566c0.02637,-0.00488 0.05171,0.01254 0.0566,0.03892c0.00488,0.02637 -0.01254,0.05172 -0.03891,0.0566c-0.02637,0.00488 -0.05172,-0.01254 -0.0566,-0.03891z" fill="#b8915e" stroke="none" stroke-width="0.15" stroke-linecap="butt"></path><path d="M243.65543,173.29015c-0.00488,-0.02637 0.01254,-0.05172 0.03891,-0.0566c0.02637,-0.00488 0.05172,0.01254 0.0566,0.03891c0.00488,0.02637 -0.01254,0.05172 -0.03891,0.0566c-0.02637,0.00488 -0.05172,-0.01254 -0.0566,-0.03891z" fill="#b8915e" stroke="none" stroke-width="0.15" stroke-linecap="butt"></path><path d="M242.88727,174.6273l-0.14916,-0.70395l1.34925,-0.28589l0.14916,0.70395z" fill="#ebd1ae" stroke="none" stroke-width="0.15" stroke-linecap="butt"></path><path d="M244.21297,174.33874l-1.47753,-0.39184" fill="none" stroke="#cdb697" stroke-width="0.15" stroke-linecap="round"></path><path d="M244.07313,173.67878l-1.18206,0.89409" fill="none" stroke="#cdb697" stroke-width="0.15" stroke-linecap="round"></path></g><g data-paper-data="{&quot;index&quot;:null}" stroke="none" stroke-width="0.15" stroke-linecap="butt"><path d="M246.44977,174.82659l1.887,-2.52859l0.35585,0.25709l-1.39721,1.93397z" fill="#b46f34"></path><path d="M248.4471,172.34924l0.38944,0.27575l-1.69861,2.39893l-0.38944,-0.27575z" fill="#ff7700"></path></g><g stroke="none" stroke-width="0.15" stroke-linecap="butt"><path d="M242.09299,174.62266l-1.39721,-1.93397l0.35585,-0.25709l1.887,2.52859z" fill="#b46f34"></path><path d="M242.63991,174.88177l-0.38944,0.27575l-1.69861,-2.39893l0.38944,-0.27575z" fill="#ff7700"></path></g><path d="M242.09204,181.11389v-6.4012h5.28008v6.4012z" fill="#ffd9b8" stroke="none" stroke-width="0.15" stroke-linecap="butt"></path><g stroke-width="0.15"><path d="M242.21182,178.55041l2.70579,-2.92533c0,0 0.30636,-0.33211 0.64982,-0.42198c0.32221,-0.08431 0.67808,0.07055 0.81449,0.14798c0.21322,0.12103 0.40314,0.4201 0.36004,0.76407c-0.05139,0.41006 -0.36168,0.86283 -0.36168,0.86283l-3.20205,3.49794z" fill="#ffd9b8" stroke="#ff7700" stroke-linecap="butt"></path><path d="M244.87662,178.46821l-1.39347,-1.24714" fill="none" stroke="#ff7700" stroke-linecap="round"></path><path d="M244.17401,179.36324l-1.44016,-1.33208" fill="none" stroke="#ff7700" stroke-linecap="round"></path><path d="M245.54672,175.51216c0.0265,-0.02865 0.07122,-0.0304 0.09987,-0.00389c0.02865,0.0265 0.0304,0.07122 0.00389,0.09987c-0.0265,0.02865 -0.07122,0.0304 -0.09987,0.00389c-0.02865,-0.0265 -0.0304,-0.07122 -0.00389,-0.09987z" fill="#ff7700" stroke="none" stroke-linecap="butt"></path><path d="M245.79368,175.71351c0.0265,-0.02865 0.07122,-0.0304 0.09987,-0.00389c0.02865,0.0265 0.0304,0.07122 0.00389,0.09987c-0.0265,0.02865 -0.07122,0.0304 -0.09987,0.00389c-0.02865,-0.0265 -0.0304,-0.07122 -0.00389,-0.09987z" fill="#ff7700" stroke="none" stroke-linecap="butt"></path><path d="M246.08441,175.95535c0.0265,-0.02865 0.07122,-0.03039 0.09987,-0.00389c0.02865,0.0265 0.0304,0.07122 0.00389,0.09987c-0.0265,0.02865 -0.07122,0.0304 -0.09987,0.00389c-0.02865,-0.0265 -0.0304,-0.07122 -0.00389,-0.09987z" fill="#ff7700" stroke="none" stroke-linecap="butt"></path><path d="M246.29088,176.20047c0.0265,-0.02865 0.07122,-0.0304 0.09987,-0.00389c0.02865,0.0265 0.0304,0.07122 0.00389,0.09987c-0.0265,0.02865 -0.07122,0.0304 -0.09987,0.00389c-0.02865,-0.0265 -0.0304,-0.07122 -0.00389,-0.09987z" fill="#ff7700" stroke="none" stroke-linecap="butt"></path><path d="M245.3979,176.02431c0.0265,-0.02865 0.07122,-0.0304 0.09987,-0.00389c0.02865,0.0265 0.0304,0.07122 0.00389,0.09987c-0.0265,0.02865 -0.07122,0.0304 -0.09987,0.00389c-0.02865,-0.0265 -0.0304,-0.07122 -0.00389,-0.09987z" fill="#ff7700" stroke="none" stroke-linecap="butt"></path><path d="M245.64596,176.25375c0.0265,-0.02865 0.07122,-0.0304 0.09987,-0.00389c0.02865,0.0265 0.0304,0.07122 0.00389,0.09987c-0.0265,0.02865 -0.07122,0.0304 -0.09987,0.00389c-0.02865,-0.0265 -0.0304,-0.07122 -0.00389,-0.09987z" fill="#ff7700" stroke="none" stroke-linecap="butt"></path><path d="M245.9097,176.52477c0.0265,-0.02865 0.07122,-0.0304 0.09987,-0.00389c0.02865,0.0265 0.0304,0.07122 0.00389,0.09987c-0.0265,0.02865 -0.07122,0.0304 -0.09987,0.00389c-0.02865,-0.0265 -0.0304,-0.07122 -0.00389,-0.09987z" fill="#ff7700" stroke="none" stroke-linecap="butt"></path><path d="M244.77085,176.17535c0.0265,-0.02865 0.07122,-0.0304 0.09987,-0.00389c0.02865,0.0265 0.0304,0.07122 0.00389,0.09987c-0.0265,0.02865 -0.07122,0.0304 -0.09987,0.00389c-0.02865,-0.0265 -0.0304,-0.07122 -0.00389,-0.09987z" fill="#ff7700" stroke="none" stroke-linecap="butt"></path><path d="M245.2075,176.55215c0.0265,-0.02865 0.07122,-0.0304 0.09987,-0.00389c0.02865,0.0265 0.0304,0.07122 0.00389,0.09987c-0.0265,0.02865 -0.07122,0.0304 -0.09987,0.00389c-0.02865,-0.0265 -0.0304,-0.07122 -0.00389,-0.09987z" fill="#ff7700" stroke="none" stroke-linecap="butt"></path><path d="M245.44206,176.79618c0.0265,-0.02865 0.07122,-0.0304 0.09987,-0.00389c0.02865,0.0265 0.0304,0.07122 0.00389,0.09987c-0.0265,0.02865 -0.07122,0.0304 -0.09987,0.00389c-0.02865,-0.0265 -0.0304,-0.07122 -0.00389,-0.09987z" fill="#ff7700" stroke="none" stroke-linecap="butt"></path><path d="M245.66312,177.0548c0.0265,-0.02865 0.07122,-0.0304 0.09987,-0.00389c0.02865,0.0265 0.0304,0.07122 0.00389,0.09987c-0.0265,0.02865 -0.07122,0.0304 -0.09987,0.00389c-0.02865,-0.0265 -0.0304,-0.07122 -0.00389,-0.09987z" fill="#ff7700" stroke="none" stroke-linecap="butt"></path><path d="M244.62642,176.79985c0.0265,-0.02865 0.07122,-0.0304 0.09987,-0.00389c0.02865,0.0265 0.0304,0.07122 0.00389,0.09987c-0.0265,0.02865 -0.07122,0.0304 -0.09987,0.00389c-0.02865,-0.0265 -0.0304,-0.07122 -0.00389,-0.09987z" fill="#ff7700" stroke="none" stroke-linecap="butt"></path><path d="M245.01929,177.13617c0.0265,-0.02865 0.07122,-0.0304 0.09987,-0.00389c0.02865,0.0265 0.0304,0.07122 0.00389,0.09987c-0.0265,0.02865 -0.07122,0.0304 -0.09987,0.00389c-0.02865,-0.0265 -0.0304,-0.07122 -0.00389,-0.09987z" fill="#ff7700" stroke="none" stroke-linecap="butt"></path><path d="M244.05116,176.83634c0.0265,-0.02865 0.07122,-0.0304 0.09987,-0.00389c0.02865,0.0265 0.0304,0.07122 0.00389,0.09987c-0.0265,0.02865 -0.07122,0.0304 -0.09987,0.00389c-0.02865,-0.0265 -0.0304,-0.07122 -0.00389,-0.09987z" fill="#ff7700" stroke="none" stroke-linecap="butt"></path><path d="M244.38567,177.11867c0.0265,-0.02865 0.07122,-0.0304 0.09987,-0.00389c0.02865,0.0265 0.0304,0.07122 0.00389,0.09987c-0.0265,0.02865 -0.07122,0.0304 -0.09987,0.00389c-0.02865,-0.0265 -0.0304,-0.07122 -0.00389,-0.09987z" fill="#ff7700" stroke="none" stroke-linecap="butt"></path><path d="M244.67969,177.44478c0.0265,-0.02865 0.07122,-0.0304 0.09987,-0.00389c0.02865,0.0265 0.0304,0.07122 0.00389,0.09987c-0.0265,0.02865 -0.07122,0.0304 -0.09987,0.00389c-0.02865,-0.0265 -0.0304,-0.07122 -0.00389,-0.09987z" fill="#ff7700" stroke="none" stroke-linecap="butt"></path><path d="M244.94343,177.7158c0.0265,-0.02865 0.07122,-0.0304 0.09987,-0.00389c0.02865,0.0265 0.0304,0.07122 0.00389,0.09987c-0.0265,0.02865 -0.07122,0.0304 -0.09987,0.00389c-0.02865,-0.0265 -0.0304,-0.07122 -0.00389,-0.09987z" fill="#ff7700" stroke="none" stroke-linecap="butt"></path><path d="M242.8438,178.69784c0.0265,-0.02865 0.07122,-0.0304 0.09987,-0.00389c0.02865,0.0265 0.0304,0.07122 0.00389,0.09987c-0.0265,0.02865 -0.07122,0.0304 -0.09987,0.00389c-0.02865,-0.0265 -0.0304,-0.07122 -0.00389,-0.09987z" fill="#ff7700" stroke="none" stroke-linecap="butt"></path><path d="M243.10535,178.91269c0.0265,-0.02865 0.07122,-0.0304 0.09987,-0.00389c0.02865,0.0265 0.0304,0.07122 0.00389,0.09987c-0.0265,0.02865 -0.07122,0.0304 -0.09987,0.00389c-0.02865,-0.0265 -0.0304,-0.07122 -0.00389,-0.09987z" fill="#ff7700" stroke="none" stroke-linecap="butt"></path><path d="M243.37018,179.2118c0.0265,-0.02865 0.07122,-0.0304 0.09987,-0.00389c0.02865,0.0265 0.0304,0.07122 0.00389,0.09987c-0.0265,0.02865 -0.07122,0.0304 -0.09987,0.00389c-0.02865,-0.0265 -0.0304,-0.07122 -0.00389,-0.09987z" fill="#ff7700" stroke="none" stroke-linecap="butt"></path></g><path d="M241.96547,181.05964v-6.35197h1.3381v6.35197z" fill="#ff7700" stroke="none" stroke-width="0.15" stroke-linecap="butt"></path><text transform="translate(242.86782,180.89026) rotate(-89.74284) scale(0.02228,0.02228)" font-size="40" xml:space="preserve" fill="#ffd9b8" fill-rule="nonzero" stroke="none" stroke-width="0.3" stroke-linecap="butt" stroke-linejoin="miter" stroke-miterlimit="10" stroke-dasharray="" stroke-dashoffset="0" font-family="Malgun Gothic" font-weight="normal" text-anchor="start" style="mix-blend-mode: normal"><tspan x="0" dy="0">BANDAGES</tspan></text><path d="M242.52167,175.71115v-0.64574h0.2318v0.64574z" fill="#ffd9b8" stroke="none" stroke-width="0.15" stroke-linecap="butt"></path><path d="M242.25675,175.47934v-0.16557h0.74509v0.16557z" fill="#ffd9b8" stroke="none" stroke-width="0.15" stroke-linecap="butt"></path><text transform="translate(246.37606,180.88527) scale(0.00962,0.00962)" font-size="40" xml:space="preserve" fill="#ff7700" fill-rule="nonzero" stroke="none" stroke-width="0.3" stroke-linecap="butt" stroke-linejoin="miter" stroke-miterlimit="10" stroke-dasharray="" stroke-dashoffset="0" font-family="Marker" font-weight="normal" text-anchor="start" style="mix-blend-mode: normal"><tspan x="0" dy="0">10 pc</tspan></text></g><g fill-rule="nonzero" stroke-linecap="butt" stroke-linejoin="miter" stroke-miterlimit="10"><path d="M209.95765,163.41157l-0.17815,-0.40439l0.46474,0.02605l0.21378,0.37834z" fill="#7e7e7e" stroke="none" stroke-width="0"></path><path d="M206.92035,166.094c0,0 1.12293,-0.43999 1.42114,-0.81057c0.33435,-0.4155 1.54601,-1.39624 1.54601,-1.39624l0.48216,0.14836c0,0 -0.86782,1.83486 -1.34461,2.4366c-0.40915,0.51637 -2.08615,0.64181 -2.08615,0.64181z" fill="#313131" stroke="none" stroke-width="0"></path><text transform="translate(202.27038,166.3818) scale(0.02364,0.02364)" font-size="40" xml:space="preserve" fill="#9966ff" fill-rule="nonzero" stroke="none" stroke-width="1" stroke-linecap="butt" stroke-linejoin="miter" stroke-miterlimit="10" stroke-dasharray="" stroke-dashoffset="0" font-family="Sans Serif" font-weight="normal" text-anchor="start" style="mix-blend-mode: normal"><tspan x="0" dy="0">xamt8</tspan></text><path d="M200.65738,164.97931c0,0 0.58921,-0.67196 0.92887,-0.91329c0.38588,-0.27417 1.26547,-0.64583 1.26547,-0.64583l0.20089,0.65131l-2.08771,2.41218c0,0 -0.26717,-0.18137 -0.35617,-0.32269c-0.11171,-0.17738 0.04864,-1.18167 0.04864,-1.18167z" fill="#3b3b3b" stroke="none" stroke-width="0"></path><path d="M200.82808,166.38003c0,0 -0.23095,-0.18292 -0.26969,-0.33575c-0.03986,-0.15724 0.03381,-0.59485 0.03381,-0.59485c0,0 0.45526,0.11878 0.73105,0.13174c0.34884,0.01639 1.26264,-0.00249 1.26264,-0.00249l0.01616,1.27958c0,0 -0.83249,-0.14217 -1.10186,-0.14217c-0.29303,0 -0.6721,-0.33605 -0.6721,-0.33605z" fill="#313131" stroke="none" stroke-width="0"></path><path d="M203.21922,165.78548v-0.4653h2.09386v0.4653z" fill="#ab4a00" stroke="none" stroke-width="0"></path><path d="M205.40385,166.05794l-0.23757,-0.70801l0.23697,-0.13418l0.23758,0.70801z" data-paper-data="{&quot;index&quot;:null}" fill="#e66909" stroke="none" stroke-width="0"></path><path d="M200.56519,165.48578c0,0 0.02774,-0.1936 0.0619,-0.20785c0.02542,-0.01061 0.12466,0.13 0.12466,0.13l1.22012,0.20414l-0.01207,0.0463z" fill="#595959" stroke="none" stroke-width="0"></path><path d="M202.8527,165.70907l0.23757,-0.54502l0.23697,0.10329l-0.23758,0.54502z" fill="#e66909" stroke="none" stroke-width="0"></path><path d="M207.1057,166.60131c0,0.38178 -0.10865,0.69127 -0.24268,0.69127c-0.13403,0 -0.24268,-0.30949 -0.24268,-0.69127c0,-0.38178 0.10865,-0.69127 0.24268,-0.69127c0.13403,0 0.24268,0.30949 0.24268,0.69127z" fill="#ffa63f" stroke="none" stroke-width="0"></path><path d="M204.19194,167.40581c0,0 0.29755,-0.39044 0.32761,-0.60035c0.0128,-0.08937 -0.18562,-0.31468 -0.37685,-0.54024c-0.08627,-0.10177 -0.46917,-0.09886 -0.66988,-0.1581c-0.12347,-0.03644 -0.10486,-0.14211 -0.12283,-0.17453c-0.00994,-0.01792 0.08499,-0.44043 0.18188,-0.4466c0.22826,-0.01454 1.13073,0.21661 1.13073,0.21661l2.17996,0.1912c0,0 -0.18029,0.5373 -0.17519,0.78159c0.00467,0.22354 0.20461,0.62745 0.20461,0.62745z" fill="#ff8800" stroke="none" stroke-width="0"></path><path d="M204.51112,166.80023c0,0.41596 -0.31396,0.75316 -0.70126,0.75316c-0.38729,0 -0.70126,-0.3372 -0.70126,-0.75316c0,-0.41596 0.31396,-0.75316 0.70126,-0.75316c0.38729,0 0.70126,0.3372 0.70126,0.75316z" fill="#e56300" stroke="#000000" stroke-width="0"></path><path d="M204.57549,166.59898c-0.00549,0.07231 -0.03026,0.13966 -0.07028,0.19944c-0.1418,-0.19926 -0.36781,-0.3364 -0.63073,-0.35636c-0.24049,-0.01826 -0.46525,0.06506 -0.63215,0.21376c-0.01703,-0.05112 -0.02424,-0.10478 -0.02008,-0.15958c0.02162,-0.28471 0.34207,-0.49252 0.71576,-0.46415c0.37369,0.02837 0.6591,0.28218 0.63748,0.56689z" fill="#ffa63f" stroke="none" stroke-width="0"></path><path d="M203.83068,166.47492c0.16023,-0.06528 0.2318,0.04129 0.32313,0.20174c0.09133,0.16046 0.06489,0.25521 -0.09534,0.3205c-0.16023,0.06528 -0.26122,0.04696 -0.35255,-0.1135c-0.09133,-0.16046 -0.03548,-0.34346 0.12475,-0.40874z" fill="#ffffff" stroke="#000000" stroke-width="0"></path><path d="M202.00387,166.809c0,0 -0.24626,-0.48105 -0.25136,-0.70561c-0.00466,-0.20511 0.22195,-0.58868 0.22195,-0.58868l1.57017,-0.01292c0,0 0.06777,0.28829 -0.00199,0.47765c-0.09431,0.25599 -0.53863,0.93251 -0.53863,0.93251z" fill="#ff8800" stroke="none" stroke-width="0"></path><path d="M204.05669,166.65393c0,0.0424 -0.02673,0.07677 -0.05971,0.07677c-0.03298,0 -0.05971,-0.03437 -0.05971,-0.07677c0,-0.0424 0.02673,-0.07677 0.05971,-0.07677c0.03298,0 0.05971,0.03437 0.05971,0.07677z" fill="#fff07d" stroke="none" stroke-width="0"></path><path d="M204.25751,167.05568c-0.12768,0.18962 -0.36451,0.27936 -0.58271,0.2039c-0.24014,-0.08304 -0.37442,-0.33735 -0.32269,-0.58926" fill="none" stroke="#af4c00" stroke-width="0.2"></path><g stroke="none" stroke-width="0"><path d="M202.01718,165.9535l0.11633,-0.27143h0.21973l-0.1034,0.27143z" fill="url(#color-1)"></path><path d="M202.00426,166.39295v-0.27143h0.2585v0.27143z" fill="url(#color-2)"></path><path d="M202.05596,166.76778l-0.09047,-0.24558l0.24558,0.01293l0.06463,0.2585c0,0 -0.05208,-0.00613 -0.08324,-0.00979c-0.0399,-0.00469 -0.13649,-0.01606 -0.13649,-0.01606z" fill="url(#color-3)"></path></g><g stroke="none" stroke-width="0"><path d="M202.40494,166.0052l0.11633,-0.27143h0.21973l-0.1034,0.27143z" fill="url(#color-4)"></path><path d="M202.39201,166.44465v-0.27143h0.2585v0.27143z" fill="url(#color-5)"></path><path d="M202.44371,166.81948l-0.09047,-0.24558l0.24558,0.01293l0.06463,0.2585c0,0 -0.05208,-0.00613 -0.08324,-0.00979c-0.0399,-0.00469 -0.13649,-0.01606 -0.13649,-0.01606z" fill="url(#color-6)"></path></g><g stroke="none" stroke-width="0"><path d="M202.76684,166.03105l0.11633,-0.27143h0.21973l-0.1034,0.27143z" fill="url(#color-7)"></path><path d="M202.75391,166.4705v-0.27143h0.2585v0.27143z" fill="url(#color-8)"></path><path d="M202.80561,166.84533l-0.09047,-0.24558l0.24558,0.01293l0.06463,0.2585c0,0 -0.05208,-0.00613 -0.08324,-0.00979c-0.0399,-0.00469 -0.13649,-0.01606 -0.13649,-0.01606z" fill="url(#color-9)"></path></g><g stroke="none" stroke-width="0"><path d="M205.39063,166.32833l0.11633,-0.27143h0.21973l-0.1034,0.27143z" fill="url(#color-10)"></path><path d="M205.3777,166.76778v-0.27143h0.2585v0.27143z" fill="url(#color-11)"></path><path d="M205.4294,167.14261l-0.09047,-0.24558l0.24558,0.01293l0.06463,0.2585c0,0 -0.05208,-0.00613 -0.08324,-0.00979c-0.0399,-0.00469 -0.13649,-0.01606 -0.13649,-0.01606z" fill="url(#color-12)"></path></g><g stroke="none" stroke-width="0"><path d="M205.80423,166.32833l0.11633,-0.27143h0.21973l-0.1034,0.27143z" fill="url(#color-13)"></path><path d="M205.7913,166.76778v-0.27143h0.2585v0.27143z" fill="url(#color-14)"></path><path d="M205.843,167.14261l-0.09047,-0.24558l0.24558,0.01293l0.06463,0.2585c0,0 -0.05208,-0.00613 -0.08324,-0.00979c-0.0399,-0.00469 -0.13649,-0.01606 -0.13649,-0.01606z" fill="url(#color-15)"></path></g><g stroke="none" stroke-width="0"><path d="M206.1015,166.35418l0.11633,-0.27143h0.21973l-0.1034,0.27143z" fill="url(#color-16)"></path><path d="M206.08858,166.79363v-0.27143h0.2585v0.27143z" fill="url(#color-17)"></path><path d="M206.14028,167.16846l-0.09047,-0.24558l0.24558,0.01293l0.06463,0.2585c0,0 -0.05208,-0.00613 -0.08324,-0.00979c-0.0399,-0.00469 -0.13649,-0.01606 -0.13649,-0.01606z" fill="url(#color-18)"></path></g><path d="M202.89609,165.35572c0,0 -0.11633,-0.08555 -0.11633,-0.12602c0,-0.0469 0.11633,-0.13895 0.11633,-0.13895h2.71426c0,0 0.12925,0.14375 0.12925,0.19064c0,0.04047 -0.12925,0.07432 -0.12925,0.07432z" fill="#e66909" stroke="none" stroke-width="0"></path><path d="M200.81765,165.8458l0.09792,-0.14556l0.10066,0.12065l-0.09792,0.14556z" fill="#474747" stroke="none" stroke-width="0"></path><path d="M201.13754,166.12692l0.09792,-0.14556l0.10066,0.12065l-0.09792,0.14556z" fill="#474747" stroke="none" stroke-width="0"></path><path d="M200.86612,166.3111l0.09792,-0.14556l0.10066,0.12065l-0.09792,0.14556z" fill="#474747" stroke="none" stroke-width="0"></path><path d="M201.46713,166.45651l0.09792,-0.14556l0.10066,0.12065l-0.09792,0.14556z" fill="#474747" stroke="none" stroke-width="0"></path><path d="M201.49621,165.75856l0.09792,-0.14556l0.10066,0.12065l-0.09792,0.14556z" fill="#474747" stroke="none" stroke-width="0"></path><path d="M202.89269,164.22299l-0.0773,-0.81905c0,0 2.41554,-0.34205 3.60544,-0.34205c1.18064,0 3.5837,0.35544 3.5837,0.35544v0.80566c0,0 -2.6842,-0.18545 -3.91869,-0.18545c-1.12616,0 -3.19315,0.18545 -3.19315,0.18545z" fill="#3b3b3b" stroke="none" stroke-width="0"></path><path d="M209.90604,164.14027v-0.89014h0.51925v0.89014z" fill="#535353" stroke="none" stroke-width="NaN"></path><path d="M207.43809,166.19815l0.09792,-0.14556l0.10066,0.12065l-0.09792,0.14556z" fill="#474747" stroke="none" stroke-width="0"></path><path d="M207.79353,166.46828l0.09792,-0.14556l0.10066,0.12065l-0.09792,0.14556z" fill="#474747" stroke="none" stroke-width="0"></path><path d="M207.46653,166.70998l0.09792,-0.14556l0.10066,0.12065l-0.09792,0.14556z" fill="#474747" stroke="none" stroke-width="0"></path><path d="M208.04945,166.04175l0.09792,-0.14556l0.10066,0.12065l-0.09792,0.14556z" fill="#474747" stroke="none" stroke-width="0"></path><path d="M208.31958,166.59624l0.09792,-0.14556l0.10066,0.12065l-0.09792,0.14556z" fill="#474747" stroke="none" stroke-width="0"></path><path d="M208.74407,165.9699l-0.00663,-0.17531l0.15242,0.03819l0.00663,0.17531z" fill="#474747" stroke="none" stroke-width="0"></path><path d="M209.11373,165.41542l-0.00663,-0.17531l0.15242,0.03818l0.00663,0.17531z" fill="#474747" stroke="none" stroke-width="0"></path><path d="M209.46917,164.93202l-0.00663,-0.17531l0.15242,0.03818l0.00663,0.17531z" fill="#474747" stroke="none" stroke-width="0"></path><path d="M209.86726,164.44862l-0.00663,-0.17531l0.15242,0.03818l0.00663,0.17531z" fill="#474747" stroke="none" stroke-width="0"></path></g><g fill-rule="nonzero" stroke="none" stroke-linecap="butt" stroke-linejoin="miter" stroke-miterlimit="10"><text transform="translate(202.7512,175.05406) rotate(37.98723) scale(0.02898,0.02898)" font-size="40" xml:space="preserve" fill="#cacaca" fill-rule="nonzero" stroke="none" stroke-width="1" stroke-linecap="butt" stroke-linejoin="miter" stroke-miterlimit="10" stroke-dasharray="" stroke-dashoffset="0" font-family="Sans Serif" font-weight="normal" text-anchor="start" style="mix-blend-mode: normal"><tspan x="0" dy="0">xamt8</tspan></text><path d="M207.79856,176.5143c-0.37576,0.21294 -1.19607,-0.45315 -1.83221,-1.48775c-0.63614,-1.0346 -0.84722,-2.04593 -0.47145,-2.25886c0.37576,-0.21294 1.19607,0.45315 1.83221,1.48775c0.63614,1.0346 0.84722,2.04593 0.47145,2.25886z" fill="#ffffff" stroke-width="0"></path><path d="M203.28761,173.87714l0.55911,-0.89937l0.21202,0.10052l-0.55911,0.89937z" fill="#000000" stroke-width="0"></path><path d="M203.86097,173.15704c0,0 0.01195,-0.30673 0.0912,-0.35226c0.08718,-0.05008 0.41035,0.06412 0.41035,0.06412l0.3943,0.68633l-0.50155,0.28815z" fill="#000000" stroke-width="0"></path><path d="M201.04639,174.68885l4.29578,-1.83735l0.36009,0.7246l-4.4689,2.05903c0,0 -0.36669,-0.11999 -0.45293,-0.27224c-0.07417,-0.13092 0.26596,-0.67405 0.26596,-0.67405z" fill="url(#color-19)" stroke-width="0"></path><path d="M202.17695,177.6652l4.48677,-2.22216l1.1349,1.11495l-4.02265,2.46872c0,0 -0.86324,-0.36424 -1.04767,-0.55286c-0.22804,-0.23322 -0.55135,-0.80865 -0.55135,-0.80865z" fill="url(#color-20)" stroke-width="0"></path><path d="M200.96263,175.58167l4.35737,-2.55981l1.71168,2.91366l-4.35737,2.55981c0,0 -1.09937,-0.93418 -1.40115,-1.44787c-0.16543,-0.28161 -0.24553,-0.78706 -0.28224,-1.12448c-0.02179,-0.20024 -0.02829,-0.34131 -0.02829,-0.34131z" fill="#e7c25c" stroke-width="NaN"></path><path d="M200.86778,175.6922l4.35737,-2.55981l0.91568,1.5587c-0.1041,0.04821 -0.20451,0.106 -0.2998,0.17317c-0.7624,0.3628 -1.28209,1.00684 -2.10087,1.33145c-0.88796,0.35203 -1.59024,0.60387 -2.40392,1.00881c-0.00016,-0.00027 0.01841,-0.02454 0.01825,-0.02482c-0.16543,-0.28161 -0.42171,-0.80876 -0.45842,-1.14619c-0.02179,-0.20024 -0.02829,-0.34131 -0.02829,-0.34131z" fill="#ffdd7f" stroke-width="NaN"></path><path d="M204.71084,173.35805l0.68284,-0.33613l1.51188,3.02156l-0.78704,0.37064z" fill="#f2d074" stroke-width="0"></path><path d="M202.88192,174.90911l1.67886,-0.70462l0.22205,0.25353l-1.85505,0.68291z" fill="#000000" stroke-width="0"></path><path d="M207.98409,176.61203c-0.37576,0.21294 -1.19607,-0.45315 -1.83221,-1.48775c-0.63614,-1.0346 -1.09012,-2.08111 -0.71436,-2.29405c0.37576,-0.21294 1.43898,0.48834 2.07512,1.52294c0.63614,1.0346 0.84722,2.04593 0.47145,2.25886zM206.54233,174.79941c0.16845,0.13154 1.14292,1.63835 1.27447,1.4699c0.04286,-0.05488 0.21501,-0.25216 0.159,-0.49467c-0.11591,-0.50186 -0.70185,-1.57905 -0.81542,-1.66774c-0.09954,-0.07773 -0.73998,-0.81378 -1.01307,-0.9745c-0.18907,-0.11127 -0.16095,0.16738 -0.21476,0.23629c-0.13154,0.16845 0.44134,1.29917 0.60979,1.43072z" fill="#252525" stroke-width="0"></path><path d="M208.245,176.38093c-0.34932,0.19361 -1.11777,-0.36099 -1.71638,-1.23875c-0.59861,-0.87776 -0.8007,-1.74627 -0.45138,-1.93989c0.34932,-0.19361 1.11777,0.36099 1.71638,1.23875c0.59861,0.87776 0.8007,1.74627 0.45138,1.93989z" fill="url(#color-21)" stroke-width="0"></path></g><g stroke-linecap="butt"><path d="M247.36485,165.37667c0.07516,-0.02788 0.22933,0.04773 0.22933,0.04773l0.27561,0.58356c0,0 -0.2718,0.12286 -0.30226,0.10181c-0.08995,-0.06216 -0.24223,-0.1705 -0.38035,-0.11928c-0.1753,0.06502 -0.35789,0.31416 -0.35789,0.31416c0,0 -0.07003,0.3513 -0.06394,0.42804c0.00245,0.03084 -0.05151,-0.02906 -0.06137,-0.02583c-0.06575,0.02154 -0.22416,-0.45638 -0.24596,-0.48862c-0.0382,-0.05649 0.03023,-0.35638 0.03023,-0.35638c0,0 0.69593,-0.41818 0.8766,-0.4852z" data-paper-data="{&quot;index&quot;:null}" fill="url(#color-22)" fill-rule="nonzero" stroke="#000000" stroke-width="0.15" stroke-linejoin="miter" stroke-miterlimit="10"></path><path d="M247.84492,164.76734c0.07516,-0.02788 0.22933,0.04773 0.22933,0.04773l0.11565,0.70668c0,0 -0.11183,-0.00026 -0.14229,-0.02131c-0.08995,-0.06216 -0.24223,-0.1705 -0.38035,-0.11928c-0.1753,0.06502 -0.48259,0.19126 -0.48259,0.19126c0,0 0.06365,0.24904 0.02927,0.2603c-0.06575,0.02154 -0.25404,-0.19156 -0.27584,-0.2238c-0.0382,-0.05649 0.03023,-0.35638 0.03023,-0.35638c0,0 0.69593,-0.41818 0.8766,-0.4852z" data-paper-data="{&quot;index&quot;:null}" fill="url(#color-23)" fill-rule="nonzero" stroke="#000000" stroke-width="0.15" stroke-linejoin="miter" stroke-miterlimit="10"></path><path d="M244.95822,168.33392c0,0 -0.81179,-0.52065 -1.14877,-0.91241c-0.27371,-0.3182 -0.66011,-0.93844 -0.66011,-0.93844c0.03702,0.00005 0.13699,0.11551 0.17401,0.11557c0.36784,0.00056 0.73499,0.28491 1.08714,0.28695c0.04807,0.00028 0.09611,0.00078 0.14413,0.00149c0.50519,0.0669 1.09359,-0.14355 1.60007,-0.15572c0.0414,0.00301 -0.0746,-0.1828 -0.03322,-0.17972z" fill-opacity="0.50417" fill="#000000" fill-rule="nonzero" stroke="none" stroke-width="0.15" stroke-linejoin="miter" stroke-miterlimit="10"></path><path d="M242.26304,164.65407c0,-0.68141 0.55325,-1.23466 1.23466,-1.23466c0.6219,0 1.137,0.46078 1.22226,1.05916c0.08525,-0.59838 0.60035,-1.05916 1.22226,-1.05916c0.68141,0 1.23466,0.55325 1.23466,1.23466v0.00013c0,0.64357 -0.25564,1.26084 -0.71073,1.71587l-1.74619,1.74618l-1.74618,-1.74618c-0.4551,-0.45503 -0.71073,-1.0723 -0.71073,-1.71587z" fill="url(#color-24)" fill-rule="evenodd" stroke="none" stroke-width="0.15" stroke-linejoin="round" stroke-miterlimit="2"></path><path d="M243.4937,166.88938l0.01845,-0.00615c-0.00395,0.00446 -0.00783,0.00899 -0.01163,0.01358l-0.00739,-0.00739z" fill="url(#color-25)" fill-rule="nonzero" stroke="none" stroke-width="0.15" stroke-linejoin="miter" stroke-miterlimit="10"></path><path d="M242.66561,165.99278c0.35651,-0.01817 0.69278,-0.16748 0.98677,-0.37292c0.19499,-0.13627 0.39176,-0.27088 0.59375,-0.39655c0.0507,-0.03154 0.12245,-0.1208 0.18596,-0.12788c0.03809,-0.00425 0.24109,0.18747 0.30769,0.20997c0.21939,0.07409 0.33669,0.06489 0.55411,0.02816c0.42729,-0.07219 0.9671,-0.7421 1.25417,-1.02917c0.11363,-0.11363 0.29412,-0.21432 0.41743,-0.34103c0.10094,0.14916 0.17013,0.32152 0.19785,0.50734c-0.04758,0.00252 -0.09164,0.0111 -0.12156,0.04461c-0.20765,0.23255 -0.32015,0.5313 -0.51681,0.77325c-0.16153,0.19872 -0.55214,0.44514 -0.79881,0.52265c-0.39328,0.12357 -0.7909,-0.22729 -1.17738,-0.21268c-0.30775,0.01163 -0.57938,0.10802 -0.86859,0.19169c-0.18697,0.0541 -0.39932,0.07942 -0.5415,0.23596c-0.0619,0.06815 -0.08156,0.13946 -0.14102,0.20638c-0.01285,0.01446 -0.02622,0.02646 -0.04002,0.03667c-0.02244,0.00354 -0.04441,0.0085 -0.0658,0.01479c-0.08312,-0.09167 -0.15867,-0.18908 -0.22623,-0.29125z" fill="url(#color-26)" fill-rule="nonzero" stroke="none" stroke-width="0.15" stroke-linejoin="miter" stroke-miterlimit="10"></path><path d="M247.17688,164.65407v0.00013c0,0.64357 -0.25564,1.26084 -0.71073,1.71587l-1.74619,1.74618l-0.42826,-0.42826l0.03533,-0.00482l0.08743,-0.03497l0.03444,-0.02487l0.04064,-0.01237l0.07016,-0.0421l0.00042,-0.00021l0.01408,-0.00352l0.07922,-0.04225l0.01095,-0.00391l0.00096,-0.00007l0.05246,-0.01749l0.00544,-0.00346l0.01475,-0.00527l0.05246,-0.03497l0.00545,-0.006l0.00922,-0.00587l0.04005,-0.00223l0.04387,-0.05118l0.05687,-0.03619l0.00414,-0.02068l0.01134,-0.00252l0.06995,-0.03497l0.06403,-0.05488l0.07231,-0.04339l0.15562,-0.15562l0.00924,-0.00616l0.06929,-0.07621l0.07621,-0.06929l0.00616,-0.00924l0.01573,-0.01573l0.02688,-0.04481l0.03866,-0.03515l0.03497,-0.05246l0.02018,-0.0565l0.10223,-0.15335l0.01019,-0.02854l0.01322,-0.01133l0.03345,-0.02007l0.08743,-0.08743l0.00754,-0.01257l0.09638,-0.08261l0.00045,-0.00803l0.02456,-0.03684l0.00046,-0.00054l0.028,-0.0168l0.03497,-0.03497l0.0168,-0.028l0.01717,-0.01472l0.00051,-0.00926l0.05295,-0.05295l0.04339,-0.07231l0.05488,-0.06403l0.01749,-0.03497l0.00763,-0.03432l0.00161,-0.00268l0.03011,-0.03513l0.00228,-0.00137l0.06995,-0.06995l0.02323,-0.03871l0.00501,-0.00141l0.0205,-0.03843l0.04953,-0.05779l0.01749,-0.03497l0.00763,-0.03432l0.01572,-0.0262l-0.00291,-0.01069l0.01929,-0.03616l0.01749,-0.06995v-0.00219l0.01749,-0.03279l0.00352,-0.01408l0.00922,-0.01844l0.01253,-0.0564l0.02719,-0.05098l0.00244,-0.00977l0.01255,-0.01882l0.01009,-0.02825l0.0074,-0.00673l0.01092,-0.01637l0.00432,-0.00504l0.00288,-0.00576l0.01686,-0.02529l0.01115,-0.03122l0.02157,-0.02517l0.0382,-0.07639l0.08786,-0.09665l-0.00047,-0.00676l0.00411,-0.00235l0.00365,-0.01462l0.00654,-0.01307l0.02098,-0.09443l0.01617,-0.03234l0.00512,-0.00292l0.00365,-0.01462l0.00654,-0.01307l0.02615,-0.11767l0.02923,-0.11694v-0.01462l0.00327,-0.01471l-0.00022,-0.00034l0.01444,-0.05777v-0.01462l0.00327,-0.01471l-0.00327,-0.0049v-0.35048l-0.00272,-0.01089c0.12465,0.19282 0.19703,0.42252 0.19703,0.66899z" fill="url(#color-27)" fill-rule="nonzero" stroke="none" stroke-width="0.15" stroke-linejoin="miter" stroke-miterlimit="10"></path><path d="M245.94222,163.4194c0.68141,0 1.23466,0.55325 1.23466,1.23466v0.00013c0,0.03976 -0.00098,0.07943 -0.00291,0.11896c-0.03917,-0.03796 -0.08214,-0.07194 -0.12869,-0.10099c-0.13306,-0.08305 -0.28705,-0.08588 -0.4297,-0.12815c-0.36341,-0.26936 -0.92084,-0.36106 -1.23266,-0.10521c-0.01512,0.0026 -0.03015,0.00553 -0.04509,0.00884c-0.01163,0.00258 -0.02559,0.00504 -0.04101,0.00756c-0.11764,-0.03132 -0.2413,-0.06389 -0.36552,-0.08163c-0.03978,-0.06354 -0.08441,-0.12701 -0.13136,-0.18867c0.1848,-0.44902 0.62686,-0.76552 1.14228,-0.76552z" fill="url(#color-28)" fill-rule="nonzero" stroke="none" stroke-width="0.15" stroke-linejoin="miter" stroke-miterlimit="10"></path><path d="M246.46879,162.65562c0.01237,0.20668 -0.76794,0.42151 -1.74286,0.47985c-0.97492,0.05834 -1.77528,-0.06191 -1.78765,-0.26859c-0.01237,-0.20668 0.76794,-0.42151 1.74286,-0.47985c0.97492,-0.05834 1.77528,0.06191 1.78765,0.26859z" fill="none" fill-rule="nonzero" stroke="url(#color-29)" stroke-width="0.15" stroke-linejoin="miter" stroke-miterlimit="10"></path><path d="M242.36638,166.97962c0,0 -0.47181,-0.15714 -0.48187,-0.22459c-0.00874,-0.05862 0.09265,-0.17484 0.09265,-0.17484c0,0 0.10166,0.10864 0.21762,0.10485c0.12701,-0.00415 0.27292,-0.12224 0.36341,-0.15917c0.18258,-0.07452 0.23747,-0.43953 0.23747,-0.43953l0.44518,0.58129c0,0 -0.06244,0.15996 -0.13666,0.19025c-0.17841,0.07282 -0.7378,0.12174 -0.7378,0.12174z" fill="url(#color-30)" fill-rule="nonzero" stroke="#000000" stroke-width="0.15" stroke-linejoin="miter" stroke-miterlimit="10"></path><path d="M241.68438,166.50747c0,0 -0.25322,-0.17463 -0.26328,-0.24208c-0.00574,-0.03849 -0.01116,-0.32281 0.05184,-0.35141c0.03294,-0.01495 0.15447,0.21155 0.15447,0.21155c0,0 0.31174,-0.11482 0.48485,-0.18548c0.13639,-0.05567 0.1753,-0.23847 0.19952,-0.34509c0.0082,-0.03611 0.09041,-0.11193 0.09041,-0.11193l0.39272,0.59878c0,0 -0.06244,0.15996 -0.13666,0.19025c-0.17841,0.07282 -0.97387,0.23541 -0.97387,0.23541z" fill="url(#color-31)" fill-rule="nonzero" stroke="#000000" stroke-width="0.15" stroke-linejoin="miter" stroke-miterlimit="10"></path><path d="M241.34339,165.89543c0,0 -0.25322,-0.17463 -0.26328,-0.24208c-0.00574,-0.03849 -0.21226,-0.49769 -0.14926,-0.52628c0.00944,-0.00429 0.00868,-0.08491 0.02774,-0.06053c0.04741,0.06065 0.33658,0.27207 0.33658,0.27207c0,0 0.303,0.06005 0.4761,-0.01061c0.13639,-0.05567 0.1753,-0.23847 0.19952,-0.34509c0.0082,-0.03611 0.29151,-0.12942 0.29151,-0.12942l0.19162,0.61627c0,0 -0.06244,0.15996 -0.13666,0.19025c-0.17841,0.07282 -0.97387,0.23541 -0.97387,0.23541z" fill="url(#color-32)" fill-rule="nonzero" stroke="#000000" stroke-width="0.15" stroke-linejoin="miter" stroke-miterlimit="10"></path><path d="M247.99121,164.18777c0,0 0.56264,-0.39159 0.58179,-0.15856c0.00318,0.03873 0.10763,-0.05765 0.10218,-0.0496c-0.00641,0.00947 -0.12086,0.40358 -0.11795,0.35612c0.01215,-0.19848 -0.31335,0.0073 -0.31335,0.0073c0,0 -0.27246,0.76054 -0.36045,0.68492c-0.09637,-0.08283 -0.28371,-0.09452 -0.37535,-0.12851c-0.18489,-0.06858 -0.47218,0.16318 -0.47218,0.16318l0.06518,-0.72927c0,0 0.15417,-0.07561 0.22933,-0.04773c0.18067,0.06701 0.6608,-0.09785 0.6608,-0.09785z" data-paper-data="{&quot;index&quot;:null}" fill="url(#color-33)" fill-rule="nonzero" stroke="#000000" stroke-width="0.15" stroke-linejoin="miter" stroke-miterlimit="10"></path><text transform="translate(243.98434,167.20279) scale(0.00751,0.00751)" font-size="40" xml:space="preserve" fill="#ff6666" fill-rule="nonzero" stroke="none" stroke-width="0.3" stroke-linecap="butt" stroke-linejoin="miter" stroke-miterlimit="10" stroke-dasharray="" stroke-dashoffset="0" font-family="Marker" font-weight="normal" text-anchor="start" style="mix-blend-mode: normal"><tspan x="0" dy="0">xAmt8</tspan></text></g></g></g></svg>