<svg version="1.1" xmlns="http://www.w3.org/2000/svg" xmlns:xlink="http://www.w3.org/1999/xlink" width="24.91608" height="60.51703" viewBox="0,0,24.91608,60.51703"><defs><linearGradient x1="229.77626" y1="174.8182" x2="229.77626" y2="208.51512" gradientUnits="userSpaceOnUse" id="color-1"><stop offset="0" stop-color="#ae5a00"></stop><stop offset="1" stop-color="#ff7a00"></stop></linearGradient></defs><g transform="translate(-226.65343,-149.52243)"><g data-paper-data="{&quot;isPaintingLayer&quot;:true}" fill-rule="nonzero" stroke-width="0.5" stroke-linejoin="miter" stroke-miterlimit="10" stroke-dasharray="" stroke-dashoffset="0" style="mix-blend-mode: normal"><path d="M246.78628,155.24629c0,2.98274 -2.20099,5.40074 -4.91606,5.40074c-2.71506,0 -4.91606,-2.41799 -4.91606,-5.40074c0,-2.98274 2.20099,-5.40074 4.91606,-5.40074c2.71506,0 4.91606,2.41799 4.91606,5.40074z" fill="#ffeecf" stroke="#000000" stroke-linecap="butt"></path><path d="M239.88533,151.92276c0,0 -1.10784,-0.57947 -1.10784,-0.9232c0,-0.43479 1.10784,-1.47713 1.10784,-1.47713h5.72386c0,0 1.10784,1.05125 1.10784,1.47713c0,0.3647 -1.10784,0.9232 -1.10784,0.9232c0,0 -1.6161,0.64624 -2.58497,0.64624c-0.9381,0 -3.13889,-0.64624 -3.13889,-0.64624z" fill="#bb7711" stroke="none" stroke-linecap="butt"></path><path d="M240.43925,153.53837c0,0.48438 -0.62,0.87705 -1.3848,0.87705c-0.76481,0 -1.3848,-0.39266 -1.3848,-0.87705c0,-0.48438 0.62,-0.87705 1.3848,-0.87705c0.76481,0 1.3848,0.39266 1.3848,0.87705z" fill="#000000" stroke="none" stroke-linecap="butt"></path><path d="M244.68599,153.39989c0,0.50987 -0.558,0.9232 -1.24632,0.9232c-0.68832,0 -1.24632,-0.41333 -1.24632,-0.9232c0,-0.50987 0.558,-0.9232 1.24632,-0.9232c0.68832,0 1.24632,0.41333 1.24632,0.9232z" fill="#000000" stroke="none" stroke-linecap="butt"></path><path d="M240.21769,153.60299h2.825" fill="none" stroke="#000000" stroke-linecap="round"></path><path d="M244.3721,152.99368l0.38775,-0.7201" fill="none" stroke="#000000" stroke-linecap="round"></path><path d="M237.78043,153.60299l-1.3848,-0.83088" fill="none" stroke="#000000" stroke-linecap="round"></path><path d="M237.81754,181.20758c-0.41477,-5.10052 -1.13068,-13.90403 -1.36726,-16.81342c-0.14953,-1.83876 0.03748,-3.99883 0.43759,-4.03137c1.23126,-0.10013 7.64015,-0.6213 9.88847,-0.80413c0.48842,-0.03972 0.90066,1.41423 1.07829,3.5985c0.41855,5.14693 1.15613,14.21701 1.39227,17.12098c0.14316,1.76043 0.006,3.7889 -0.49446,3.8296c-2.2608,0.18385 -8.60992,0.70016 -9.84828,0.80086c-0.40947,0.0333 -0.90454,-1.46198 -1.08662,-3.70102z" fill="#0052ff" stroke="#d6ffcf" stroke-linecap="butt"></path><path d="M242.1912,184.88342c0,0 -0.8033,-17.03458 -1.29373,-21.01901c-0.19384,-1.57479 -1.70887,-3.37509 -1.70887,-3.37509l5.50603,-0.633c0,0 -1.5851,2.80797 -1.54808,3.94071c0.11755,3.59652 2.35725,20.81701 2.35725,20.81701z" fill="#ffffff" stroke="none" stroke-linecap="butt"></path><path d="M237.485,197.71365v-13.94037h3.13889v13.94037z" fill="#d69100" stroke="none" stroke-linecap="butt"></path><path d="M244.68599,198.08292v-14.21733h2.58497v14.21733z" fill="#d69100" stroke="none" stroke-linecap="butt"></path><path d="M235.26932,199.65237v-3.69281c0,0 1.02259,0.36415 1.926,-0.02923c0.99983,-0.43537 1.91595,-1.63253 2.50538,-1.63253c0.68709,0 1.66176,1.66176 1.66176,1.66176v3.69281z" fill="#7c5500" stroke="none" stroke-linecap="butt"></path><path d="M239.14677,194.39011l1.66176,1.56945" fill="none" stroke="#000000" stroke-linecap="round"></path><path d="M238.50053,195.40563l1.47713,1.47713" fill="none" stroke="#000000" stroke-linecap="round"></path><path d="M244.40903,199.56005v-3.69281c0,0 0.97468,-1.66176 1.66176,-1.66176c0.58943,0 1.50555,1.19717 2.50538,1.63253c0.9034,0.39338 1.926,0.02923 1.926,0.02923v3.69281z" data-paper-data="{&quot;index&quot;:null}" fill="#7c5500" stroke="none" stroke-linecap="butt"></path><path d="M246.62471,194.29779l-1.66176,1.56945" data-paper-data="{&quot;index&quot;:null}" fill="none" stroke="#000000" stroke-linecap="round"></path><path d="M245.79383,196.79044l1.47713,-1.47713" data-paper-data="{&quot;index&quot;:null}" fill="none" stroke="#000000" stroke-linecap="round"></path><path d="M249.09721,180.72007l-3.90911,-12.80296l2.4723,-0.75486l3.90911,12.80296z" fill="#ffeecf" stroke="none" stroke-linecap="butt"></path><path d="M228.65461,176.16771l9.34808,-9.58178l1.85027,1.80515l-9.34808,9.58178z" fill="#ffeecf" stroke="none" stroke-linecap="butt"></path><path d="M229.2685,208.51512v-33.69692h1.01553v33.69692z" fill="url(#color-1)" stroke="none" stroke-linecap="butt"></path><path d="M226.65343,208.43536v-1.42586c0,0 1.35235,1.51497 1.96056,1.51497c0.57852,0 1.60409,-1.51497 1.60409,-1.51497v1.42586c0,0 -1.15063,1.60409 -1.78233,1.60409c-0.54308,0 -1.78233,-1.60409 -1.78233,-1.60409z" fill="#703a00" stroke="none" stroke-linecap="butt"></path></g></g></svg>