<svg version="1.1" xmlns="http://www.w3.org/2000/svg" xmlns:xlink="http://www.w3.org/1999/xlink" width="74.64458" height="88.03518" viewBox="0,0,74.64458,88.03518"><defs><radialGradient cx="240.89386" cy="236.02635" r="2.61817" gradientUnits="userSpaceOnUse" id="color-1"><stop offset="0" stop-color="#00ffde" stop-opacity="0.39516"></stop><stop offset="1" stop-color="#00b2de" stop-opacity="0.34677"></stop></radialGradient><radialGradient cx="208.42197" cy="230.77962" r="2.61817" gradientUnits="userSpaceOnUse" id="color-2"><stop offset="0" stop-color="#00ffde" stop-opacity="0.39516"></stop><stop offset="1" stop-color="#00b2de" stop-opacity="0.34677"></stop></radialGradient><radialGradient cx="272.53824" cy="235.77034" r="2.61816" gradientUnits="userSpaceOnUse" id="color-3"><stop offset="0" stop-color="#00ffde" stop-opacity="0.39516"></stop><stop offset="1" stop-color="#00b2de" stop-opacity="0.34677"></stop></radialGradient><radialGradient cx="240.51484" cy="259.47779" r="2.61817" gradientUnits="userSpaceOnUse" id="color-4"><stop offset="0" stop-color="#00ffde" stop-opacity="0.39516"></stop><stop offset="1" stop-color="#00b2de" stop-opacity="0.34677"></stop></radialGradient><radialGradient cx="240.51601" cy="208.81143" r="2.61817" gradientUnits="userSpaceOnUse" id="color-5"><stop offset="0" stop-color="#00ffde" stop-opacity="0.39516"></stop><stop offset="1" stop-color="#00b2de" stop-opacity="0.34677"></stop></radialGradient><linearGradient x1="237.51637" y1="212.1898" x2="237.51637" y2="262.27852" gradientUnits="userSpaceOnUse" id="color-6"><stop offset="0" stop-color="#33ffff" stop-opacity="0"></stop><stop offset="1" stop-color="#33ffff" stop-opacity="0.25132"></stop></linearGradient></defs><g transform="translate(-202.2819,-176.79016)"><g data-paper-data="{&quot;isPaintingLayer&quot;:true}" fill-rule="nonzero" stroke-linejoin="miter" stroke-miterlimit="10" stroke-dasharray="" stroke-dashoffset="0" style="mix-blend-mode: normal"><text transform="translate(235.20997,237.69137) rotate(3.36801) scale(0.08502,0.08502)" font-size="40" xml:space="preserve" fill-opacity="0.24326" fill="#9effff" fill-rule="nonzero" stroke="none" stroke-width="1" stroke-linecap="butt" stroke-linejoin="miter" stroke-miterlimit="10" stroke-dasharray="" stroke-dashoffset="0" font-family="Sans Serif" font-weight="normal" text-anchor="start" style="mix-blend-mode: normal"><tspan x="0" dy="0">xamt8</tspan></text><path d="M209.09467,228.59273c3.2498,-5.50687 8.61238,-13.07708 8.61238,-13.07708c0,0 7.66277,-3.2268 19.66762,-3.2266" fill="none" stroke="#43f2ff" stroke-width="1" stroke-linecap="butt"></path><path d="M244.4936,212.71012c11.29681,1.51009 19.49939,7.06931 19.49939,7.06931c0,0 9.50693,14.03767 9.28037,17.8875c-0.68382,11.61952 -13.406,20.53723 -29.40834,21.3624" fill="none" stroke="#43f2ff" stroke-width="1" stroke-linecap="butt"></path><path d="M235.22302,258.69011c-15.61414,-2.03012 -27.56929,-11.48159 -28.52031,-22.54349" fill="none" stroke="#43f2ff" stroke-width="1" stroke-linecap="butt"></path><path d="M268.73752,240.34738c-2.77375,9.54777 -15.19173,16.23862 -29.64328,15.38814c-16.01696,-0.94261 -28.46662,-10.79186 -27.80707,-21.99893c0.14821,-2.51837 9.61148,-15.87741 9.61148,-15.87741c0,0 8.16627,-3.43882 20.58401,-2.70803c11.22535,0.66062 19.72508,6.42124 19.72508,6.42124c0,0 4.86838,7.18851 7.0498,12.05265" fill="none" stroke="#43f2ff" stroke-width="1" stroke-linecap="butt"></path><path d="M210.96591,246.35731l3.25671,-3.50125" fill="none" stroke="#43f2ff" stroke-width="1" stroke-linecap="round"></path><path d="M260.20682,249.95889l3.62359,3.90616" fill="none" stroke="#43f2ff" stroke-width="1" stroke-linecap="round"></path><path d="M216.2125,245.291l35.14221,-28.1003l-12.33312,38.07438l-8.5573,-39.72642l32.99278,31.80847l-51.33997,-14.31485l56.84922,2.54912l-52.52967,9.7982" fill="none" stroke="#43f2ff" stroke-width="0.5" stroke-linecap="round"></path><path d="M267.61834,237.04989c0.14301,-2.43016 2.22899,-4.28426 4.65915,-4.14124c2.43016,0.14301 4.28426,2.22899 4.14124,4.65915c-0.14301,2.43016 -2.22899,4.28426 -4.65915,4.14124c-2.43016,-0.14301 -4.28426,-2.22899 -4.14124,-4.65915z" fill="none" stroke="#43f2ff" stroke-width="1" stroke-linecap="butt"></path><path d="M234.749,259.65844c0.14301,-2.43015 2.229,-4.28425 4.65915,-4.14124c2.43015,0.14301 4.28425,2.229 4.14124,4.65915c-0.14301,2.43015 -2.22899,4.28426 -4.65915,4.14124c-2.43015,-0.14301 -4.28425,-2.229 -4.14124,-4.65915z" fill="none" stroke="#43f2ff" stroke-width="1" stroke-linecap="butt"></path><path d="M202.7819,231.85799c0.14301,-2.43015 2.22899,-4.28426 4.65915,-4.14124c2.43016,0.14301 4.28425,2.229 4.14124,4.65915c-0.14301,2.43015 -2.22899,4.28426 -4.65915,4.14124c-2.43016,-0.14301 -4.28425,-2.229 -4.14124,-4.65915z" fill="none" stroke="#43f2ff" stroke-width="1" stroke-linecap="butt"></path><path d="M236.83867,210.02177c0.14301,-2.43016 2.22899,-4.28426 4.65915,-4.14124c2.43016,0.14301 4.28426,2.22899 4.14124,4.65915c-0.14301,2.43016 -2.22899,4.28426 -4.65915,4.14124c-2.43016,-0.14301 -4.28426,-2.22899 -4.14124,-4.65915z" fill="none" stroke="#43f2ff" stroke-width="1" stroke-linecap="butt"></path><path d="M239.77945,234.87451c0.09551,-0.15741 0.27117,-0.24919 0.45614,-0.2383c0.18498,0.01088 0.34868,0.12263 0.42504,0.29015l0.50078,1.09855l1.1838,0.27266c0.1805,0.0416 0.32297,0.17903 0.36987,0.35687c0.04689,0.17785 -0.00954,0.36673 -0.14648,0.49038l-0.89812,0.81087l0.10547,1.20074c0.01607,0.18312 -0.07158,0.35985 -0.22756,0.45888c-0.156,0.09905 -0.35456,0.104 -0.5156,0.01289l-1.05582,-0.5974l-1.11863,0.46943c-0.17057,0.0716 -0.3672,0.04338 -0.51048,-0.07327c-0.14329,-0.11664 -0.2096,-0.30244 -0.17216,-0.4824l0.24556,-1.18008l-0.7968,-0.91062c-0.1215,-0.13886 -0.15537,-0.33306 -0.08795,-0.50418c0.06741,-0.17112 0.22503,-0.29089 0.40917,-0.31103l1.20761,-0.13192z" fill="url(#color-1)" stroke="#000000" stroke-width="0" stroke-linecap="butt"></path><path d="M207.65717,229.37117c0.13421,-0.12604 0.32805,-0.16737 0.50333,-0.10729c0.17529,0.06007 0.30304,0.21162 0.33169,0.39349l0.18793,1.19259l1.06736,0.58004c0.16275,0.08847 0.26315,0.25906 0.26065,0.44297c-0.0025,0.18391 -0.10752,0.35075 -0.27259,0.43317l-1.08263,0.54041l-0.22029,1.18507c-0.03362,0.18072 -0.16544,0.32748 -0.34225,0.38108c-0.17684,0.0536 -0.36947,0.00514 -0.50018,-0.12581l-0.85701,-0.85858l-1.20353,0.15235c-0.18351,0.02325 -0.36538,-0.05665 -0.47216,-0.20745c-0.10677,-0.15078 -0.12085,-0.34756 -0.03653,-0.5109l0.55294,-1.07105l-0.5235,-1.0909c-0.07983,-0.16636 -0.06039,-0.36252 0.05044,-0.5093c0.11082,-0.14679 0.29479,-0.21991 0.47758,-0.18994l1.19877,0.19665z" fill="url(#color-2)" stroke="#000000" stroke-width="0" stroke-linecap="butt"></path><path d="M271.11381,235.03574c0.0401,-0.17969 0.17715,-0.32287 0.35589,-0.37175c0.17873,-0.04889 0.36959,0.00459 0.49555,0.13887l0.82602,0.8805l1.2088,-0.12055c0.18433,-0.01836 0.36328,0.06625 0.46463,0.21973c0.10135,0.15349 0.10832,0.3505 0.01817,0.51147l-0.59137,1.05565l0.48422,1.10384c0.07383,0.16835 0.04735,0.36384 -0.06873,0.50757c-0.11609,0.14376 -0.30263,0.21201 -0.48435,0.17723l-1.19149,-0.22807l-0.90956,0.80275c-0.13868,0.12242 -0.334,0.15862 -0.50708,0.09396c-0.17307,-0.06464 -0.29537,-0.21945 -0.3175,-0.40193l-0.14503,-1.19661l-1.04633,-0.60772c-0.15955,-0.09268 -0.2538,-0.26581 -0.24468,-0.44952c0.0091,-0.18369 0.1201,-0.34761 0.28811,-0.42562l1.10187,-0.51147z" fill="url(#color-3)" stroke="#000000" stroke-width="0" stroke-linecap="butt"></path><path d="M240.20637,257.90506c0.16577,-0.08013 0.36309,-0.06157 0.51238,0.04819c0.14929,0.10976 0.22586,0.29258 0.19879,0.47469l-0.17743,1.1942l0.84498,0.87278c0.12884,0.13311 0.1736,0.32592 0.11621,0.50065c-0.0574,0.17473 -0.20751,0.30252 -0.38968,0.33179l-1.19472,0.1918l-0.56471,1.0649c-0.08614,0.16239 -0.25583,0.263 -0.44057,0.26124c-0.18478,-0.00176 -0.35409,-0.10562 -0.43964,-0.26967l-0.56093,-1.07564l-1.19399,-0.21464c-0.18206,-0.03271 -0.33171,-0.16336 -0.38848,-0.33918c-0.05677,-0.17582 -0.01134,-0.3678 0.11798,-0.49843l0.84801,-0.85661l-0.17319,-1.19755c-0.02641,-0.18261 0.05081,-0.36399 0.20048,-0.47089c0.14965,-0.10691 0.34707,-0.12166 0.51253,-0.03838l1.08506,0.54625z" fill="url(#color-4)" stroke="#000000" stroke-width="0" stroke-linecap="butt"></path><path d="M238.96164,209.20205c-0.08872,-0.16133 -0.08055,-0.35936 0.02122,-0.51421c0.10177,-0.15484 0.28032,-0.24091 0.4636,-0.22344l1.20187,0.11449l0.82721,-0.88963c0.12616,-0.13564 0.31635,-0.19047 0.49387,-0.14233c0.17751,0.04815 0.313,0.19135 0.35179,0.37172l0.25427,1.183l1.09308,0.50802c0.16669,0.07749 0.27607,0.24166 0.28401,0.42624c0.00795,0.18462 -0.08688,0.35915 -0.24622,0.45319l-1.04471,0.61663l-0.15166,1.20362c-0.0231,0.18353 -0.14572,0.33983 -0.31832,0.40575c-0.17259,0.06592 -0.3667,0.03064 -0.50393,-0.09164l-0.89995,-0.80187l-1.1868,0.23583c-0.18098,0.03596 -0.36616,-0.03162 -0.48077,-0.17548c-0.11462,-0.14383 -0.1397,-0.3402 -0.06524,-0.50982l0.48853,-1.11224z" fill="url(#color-5)" stroke="#000000" stroke-width="0" stroke-linecap="butt"></path><path d="M226.27435,216.09135l-2.17062,-2.33546" fill="none" stroke="#43f2ff" stroke-width="1" stroke-linecap="round"></path><path d="M234.85713,215.19155l-0.32935,-2.92956" fill="none" stroke="#43f2ff" stroke-width="1" stroke-linecap="round"></path><path d="M256.73451,218.58641l2.87075,-1.03527" fill="none" stroke="#43f2ff" stroke-width="1" stroke-linecap="round"></path><path d="M266.79956,223.19277l-3.06487,0.92349" fill="none" stroke="#43f2ff" stroke-width="1" stroke-linecap="round"></path><path d="M267.59936,231.76965l3.15311,-0.71759" fill="none" stroke="#43f2ff" stroke-width="1" stroke-linecap="round"></path><path d="M212.94416,222.6325l2.3412,2.84725" fill="none" stroke="#43f2ff" stroke-width="1" stroke-linecap="round"></path><path d="M226.50878,253.03229l-2.61193,1.75295" fill="none" stroke="#43f2ff" stroke-width="1" stroke-linecap="round"></path><path d="M252.95105,257.29791l-0.71759,-3.15311" fill="none" stroke="#43f2ff" stroke-width="1" stroke-linecap="round"></path><g fill="none" stroke="#c1ffff" stroke-width="0.5" stroke-linecap="butt"><g><path d="M217.28544,201.01555c-0.55433,2.09676 -2.07905,3.51223 -3.40558,3.16153c-1.32653,-0.3507 -1.95251,-2.33475 -1.39819,-4.43151c0.55433,-2.09676 2.07906,-3.51223 3.40558,-3.16153c1.32653,0.3507 1.95251,2.33475 1.39818,4.43151z"></path><path d="M219.16171,194.19891c-0.55433,2.09676 -2.07905,3.51223 -3.40558,3.16153c-1.32653,-0.3507 -1.95251,-2.33475 -1.39819,-4.43151c0.55433,-2.09676 2.07906,-3.51223 3.40558,-3.16153c1.32653,0.3507 1.95251,2.33475 1.39818,4.43151z"></path><path d="M221.32364,188.25642c-0.81485,2.0099 -2.50623,3.22133 -3.7778,2.70581c-1.27156,-0.51552 -1.6418,-2.56278 -0.82695,-4.57268c0.81485,-2.0099 2.50624,-3.22133 3.7778,-2.70581c1.27156,0.51552 1.6418,2.56277 0.82694,4.57268z"></path><path d="M224.04631,181.73155c-0.81485,2.0099 -2.50623,3.22133 -3.7778,2.70581c-1.27156,-0.51552 -1.6418,-2.56278 -0.82695,-4.57268c0.81485,-2.0099 2.50624,-3.22132 3.77781,-2.70581c1.27156,0.51552 1.6418,2.56278 0.82694,4.57268z"></path></g><g><path d="M210.01638,227.24293c-0.38084,2.13509 -1.78459,3.67061 -3.13537,3.42968c-1.35078,-0.24094 -2.13707,-2.1671 -1.75622,-4.3022c0.38084,-2.13509 1.78459,-3.67061 3.13537,-3.42968c1.35078,0.24094 2.13706,2.1671 1.75622,4.3022z"></path><path d="M211.32839,220.29559c-0.38084,2.13509 -1.78459,3.67061 -3.13537,3.42968c-1.35078,-0.24094 -2.13707,-2.1671 -1.75622,-4.3022c0.38084,-2.13509 1.78459,-3.67061 3.13537,-3.42968c1.35078,0.24094 2.13706,2.1671 1.75622,4.3022z"></path><path d="M212.99667,214.19608c-0.6476,2.06985 -2.23415,3.41566 -3.54365,3.00595c-1.3095,-0.40971 -1.84606,-2.41979 -1.19846,-4.48965c0.6476,-2.06985 2.23416,-3.41566 3.54365,-3.00595c1.3095,0.40971 1.84606,2.41979 1.19845,4.48964z"></path><path d="M215.17612,207.47024c-0.6476,2.06985 -2.23415,3.41566 -3.54365,3.00595c-1.3095,-0.40971 -1.84606,-2.41979 -1.19846,-4.48965c0.6476,-2.06985 2.23416,-3.41566 3.54365,-3.00595c1.3095,0.40971 1.84606,2.41979 1.19845,4.48965z"></path></g></g><g data-paper-data="{&quot;index&quot;:null}" fill="none" stroke="#c1ffff" stroke-width="0.5" stroke-linecap="butt"><g><path d="M262.3225,202.03684c1.32314,-0.36324 2.8612,1.03774 3.43533,3.12917c0.57414,2.09142 -0.03306,4.08131 -1.3562,4.44454c-1.32314,0.36324 -2.8612,-1.03775 -3.43533,-3.12917c-0.57414,-2.09142 0.03305,-4.08131 1.35619,-4.44454z"></path><path d="M260.38183,195.23826c1.32314,-0.36324 2.8612,1.03774 3.43533,3.12917c0.57414,2.09142 -0.03306,4.08131 -1.3562,4.44454c-1.32314,0.36324 -2.8612,-1.03775 -3.43533,-3.12917c-0.57414,-2.09142 0.03305,-4.08131 1.35619,-4.44454z"></path><path d="M257.59123,189.18073c1.26664,-0.52753 2.9694,0.66785 3.80323,2.66995c0.83383,2.0021 0.48298,4.05277 -0.78366,4.5803c-1.26664,0.52753 -2.9694,-0.66785 -3.80323,-2.66995c-0.83383,-2.0021 -0.48298,-4.05276 0.78365,-4.58029z"></path><path d="M254.80695,182.6819c1.26664,-0.52753 2.9694,0.66785 3.80324,2.66995c0.83383,2.0021 0.48298,4.05277 -0.78365,4.5803c-1.26664,0.52753 -2.9694,-0.66785 -3.80323,-2.66995c-0.83383,-2.0021 -0.48298,-4.05277 0.78365,-4.5803z"></path></g><g><path d="M270.19858,228.32021c1.34844,-0.25371 2.76665,1.26846 3.16768,3.39986c0.40102,2.1314 -0.36701,4.0649 -1.71545,4.31862c-1.34844,0.25371 -2.76665,-1.26846 -3.16768,-3.39986c-0.40102,-2.1314 0.36701,-4.0649 1.71545,-4.31862z"></path><path d="M268.82091,221.3856c1.34844,-0.25371 2.76665,1.26846 3.16768,3.39986c0.40102,2.1314 -0.36701,4.0649 -1.71545,4.31862c-1.34844,0.25371 -2.76665,-1.26846 -3.16768,-3.39986c-0.40102,-2.1314 0.36701,-4.0649 1.71545,-4.31862z"></path><path d="M266.5355,215.11998c1.30556,-0.42208 2.90478,0.90866 3.57194,2.97229c0.66716,2.06363 0.14963,4.0787 -1.15594,4.50078c-1.30556,0.42208 -2.90477,-0.90866 -3.57193,-2.9723c-0.66716,-2.06363 -0.14963,-4.0787 1.15593,-4.50078z"></path><path d="M264.29251,208.41505c1.30556,-0.42208 2.90478,0.90866 3.57194,2.97229c0.66716,2.06363 0.14963,4.0787 -1.15594,4.50078c-1.30556,0.42208 -2.90477,-0.90866 -3.57193,-2.9723c-0.66716,-2.06363 -0.14963,-4.0787 1.15593,-4.50078z"></path></g></g><g data-paper-data="{&quot;index&quot;:null}" fill="none" stroke="#c1ffff" stroke-width="0.5" stroke-linecap="butt"><g><path d="M236.94824,179.88492c0.03355,0.10143 0.06482,0.20472 0.09365,0.30977c0.57414,2.09142 -0.03305,4.08131 -1.35619,4.44454c-1.32314,0.36324 -2.8612,-1.03775 -3.43533,-3.12917c-0.05176,-0.18857 -0.09393,-0.37632 -0.12683,-0.56213"></path></g><g><path d="M241.48265,203.34889c1.34844,-0.25371 2.76665,1.26846 3.16768,3.39986c0.40102,2.1314 -0.36701,4.06491 -1.71545,4.31862c-1.34844,0.25371 -2.76665,-1.26846 -3.16768,-3.39986c-0.40102,-2.1314 0.36701,-4.06491 1.71545,-4.31862z"></path><path d="M240.10497,196.41426c1.34844,-0.25371 2.76665,1.26846 3.16768,3.39986c0.40102,2.1314 -0.36701,4.06491 -1.71545,4.31862c-1.34844,0.25371 -2.76665,-1.26846 -3.16768,-3.39986c-0.40102,-2.1314 0.36701,-4.06491 1.71545,-4.31862z"></path><path d="M237.81956,190.14864c1.30556,-0.42208 2.90478,0.90866 3.57194,2.97229c0.66716,2.06363 0.14963,4.0787 -1.15594,4.50078c-1.30556,0.42208 -2.90477,-0.90866 -3.57193,-2.97229c-0.66716,-2.06363 -0.14963,-4.0787 1.15593,-4.50078z"></path><path d="M235.57657,183.44372c1.30556,-0.42208 2.90478,0.90866 3.57194,2.9723c0.66716,2.06363 0.14963,4.0787 -1.15594,4.50078c-1.30556,0.42208 -2.90477,-0.90866 -3.57193,-2.97229c-0.66716,-2.06363 -0.14963,-4.0787 1.15593,-4.50078z"></path></g></g><g fill="none" stroke="#c1ffff" stroke-width="0.5" stroke-linecap="butt"><g><path d="M247.7642,228.24992c-0.31505,2.14579 -1.67094,3.72373 -3.02849,3.52441c-1.35754,-0.19932 -2.20265,-2.1004 -1.88761,-4.24619c0.31505,-2.14579 1.67095,-3.72372 3.02849,-3.52441c1.35754,0.19932 2.20265,2.1004 1.8876,4.24619z"></path><path d="M248.8621,221.26554c-0.31505,2.14579 -1.67094,3.72373 -3.02849,3.52441c-1.35754,-0.19932 -2.20265,-2.1004 -1.88761,-4.24619c0.31505,-2.14579 1.67095,-3.72372 3.02849,-3.52441c1.35754,0.19932 2.20265,2.1004 1.8876,4.24619z"></path><path d="M250.34214,215.11763c-0.58369,2.08878 -2.12813,3.48271 -3.4496,3.11344c-1.32147,-0.36928 -1.91956,-2.36192 -1.33586,-4.45069c0.58369,-2.08878 2.12813,-3.48271 3.44961,-3.11343c1.32147,0.36928 1.91955,2.36191 1.33586,4.45069z"></path><path d="M252.31387,208.32799c-0.58369,2.08878 -2.12813,3.48271 -3.4496,3.11344c-1.32147,-0.36928 -1.91956,-2.36192 -1.33587,-4.4507c0.58369,-2.08878 2.12814,-3.48271 3.44961,-3.11343c1.32147,0.36928 1.91955,2.36192 1.33585,4.45069z"></path></g><g><path d="M243.4903,255.12832c-0.13835,2.16438 -1.36055,3.848 -2.72984,3.76047c-1.3693,-0.08753 -2.36719,-1.91306 -2.22884,-4.07744c0.13835,-2.16438 1.36055,-3.848 2.72985,-3.76047c1.3693,0.08753 2.36718,1.91306 2.22883,4.07744z"></path><path d="M244.01282,248.07751c-0.13835,2.16438 -1.36055,3.848 -2.72984,3.76047c-1.3693,-0.08753 -2.36719,-1.91306 -2.22884,-4.07744c0.13835,-2.16438 1.36055,-3.848 2.72985,-3.76047c1.3693,0.08753 2.36718,1.91306 2.22883,4.07744z"></path><path d="M244.98467,241.82909c-0.41076,2.12954 -1.83592,3.64521 -3.18318,3.38534c-1.34726,-0.25987 -2.10644,-2.19688 -1.69568,-4.32642c0.41076,-2.12954 1.83592,-3.64521 3.18319,-3.38534c1.34726,0.25987 2.10644,2.19687 1.69568,4.32642z"></path><path d="M246.39404,234.90085c-0.41076,2.12954 -1.83592,3.64521 -3.18318,3.38534c-1.34726,-0.25987 -2.10644,-2.19688 -1.69568,-4.32642c0.41076,-2.12954 1.83592,-3.64522 3.18319,-3.38534c1.34726,0.25987 2.10644,2.19688 1.69568,4.32642z"></path></g></g><g fill="none" stroke-linecap="butt"><g stroke="none" stroke-width="1" font-family="sans-serif" font-weight="normal" font-size="12" text-anchor="start"></g><g stroke="#c1ffff" stroke-width="0.5"><path d="M252.71382,201.56119c-0.14109,2.1642 -1.36542,3.84628 -2.7346,3.75702c-1.36919,-0.08926 -2.36476,-1.91606 -2.22367,-4.08026c0.14109,-2.1642 1.36542,-3.84628 2.73461,-3.75701c1.36919,0.08926 2.36476,1.91605 2.22367,4.08026z"></path><path d="M253.24527,194.51105c-0.14109,2.1642 -1.36542,3.84628 -2.7346,3.75701c-1.36919,-0.08926 -2.36476,-1.91605 -2.22367,-4.08026c0.14109,-2.1642 1.36542,-3.84628 2.73461,-3.75702c1.36919,0.08926 2.36476,1.91606 2.22367,4.08026z"></path><path d="M253.81855,184.93773c0.47835,0.81928 0.6567,2.03772 0.40649,3.32613c-0.41346,2.12902 -1.84053,3.64288 -3.18747,3.38131c-1.34693,-0.26158 -2.10366,-2.19954 -1.6902,-4.32856c0.16452,-0.84715 0.48952,-1.5969 0.9061,-2.17615"></path></g></g><path d="M202.85497,230.8228l13.62413,-18.63301c0,0 16.98416,3.20568 24.24294,3.20568c6.72529,0 17.83159,-3.20568 17.83159,-3.20568c0,0 16.82981,18.10125 16.82981,27.04791c0,7.48895 -16.22875,17.03017 -16.22875,17.03017c0,0 -14.4936,8.41491 -21.43797,8.41491c-3.54304,0 -15.48017,-6.48097 -23.31785,-14.9557c-7.81963,-8.45523 -11.5439,-18.90428 -11.5439,-18.90428z" fill="url(#color-6)" stroke="none" stroke-width="0" stroke-linecap="butt"></path></g></g></svg>