<svg version="1.1" xmlns="http://www.w3.org/2000/svg" xmlns:xlink="http://www.w3.org/1999/xlink" width="14.48929" height="32.32552" viewBox="0,0,14.48929,32.32552"><g transform="translate(-232.75536,-163.83724)"><g data-paper-data="{&quot;isPaintingLayer&quot;:true}" fill-rule="nonzero" stroke-linejoin="miter" stroke-miterlimit="10" stroke-dasharray="" stroke-dashoffset="0" style="mix-blend-mode: normal"><path d="M243.522,168.13602c0,2.11983 -1.73467,3.83829 -3.8745,3.83829c-2.13982,0 -3.8745,-1.71846 -3.8745,-3.83829c0,-2.11983 1.73467,-3.83829 3.8745,-3.83829c2.13982,0 3.8745,1.71846 3.8745,3.83829z" fill="#f1ad60" stroke="none" stroke-width="0" stroke-linecap="butt"></path><path d="M236.21551,187.1102v-15.49799h7.38689v15.49799z" fill="#ff6666" stroke="none" stroke-width="0" stroke-linecap="butt"></path><path d="M237.96373,166.63329c0,-0.15998 0.1297,-0.28968 0.28968,-0.28968c0.15998,0 0.28968,0.1297 0.28968,0.28968c0,0.15998 -0.1297,0.28968 -0.28968,0.28968c-0.15998,0 -0.28968,-0.1297 -0.28968,-0.28968z" fill="#000000" stroke="none" stroke-width="0.5" stroke-linecap="butt"></path><path d="M240.66139,166.54277c0,-0.15998 0.1297,-0.28968 0.28968,-0.28968c0.15998,0 0.28968,0.1297 0.28968,0.28968c0,0.15998 -0.1297,0.28968 -0.28968,0.28968c-0.15998,0 -0.28968,-0.1297 -0.28968,-0.28968z" fill="#000000" stroke="none" stroke-width="0.5" stroke-linecap="butt"></path><path d="M241.04441,169.32533c0.2591,0.12955 0.12955,0.38865 0.12955,0.38865l-0.04184,0.01529c-0.088,1.59841 -2.68285,0.65981 -3.27341,-0.11587c0,0 -0.17381,-0.23175 0.05794,-0.40556c0.23175,-0.17381 0.40556,0.05794 0.40556,0.05794c0.2683,0.36457 2.32142,1.20043 2.23055,0.46349l0.103,-0.27439c0,0 0.12955,-0.2591 0.38865,-0.12955z" fill="#000000" stroke="none" stroke-width="0.5" stroke-linecap="butt"></path><path d="M239.39403,173.63998l-1.01389,-1.95535h2.4623l-1.15873,2.10019z" fill="#ffffff" stroke="none" stroke-width="0" stroke-linecap="butt"></path><path d="M237.22142,194.64193v-7.749h2.24504v7.749z" fill="#66a6ff" stroke="none" stroke-width="0" stroke-linecap="butt"></path><path d="M240.84244,194.8592v-7.749h2.24504v7.749z" fill="#66a6ff" stroke="none" stroke-width="0" stroke-linecap="butt"></path><path d="M235.55574,196.16276v-2.02778c0,0 0.63809,0.29733 1.28273,-0.1145c0.60076,-0.3838 1.19768,-1.47875 1.54167,-1.47875c0.40154,0 1.08631,1.59325 1.08631,1.59325v2.02778z" fill="#a06140" stroke="none" stroke-width="0" stroke-linecap="butt"></path><path d="M240.55276,196.09034v-2.02778c0,0 0.68477,-1.59325 1.08631,-1.59325c0.34399,0 0.94091,1.09495 1.54168,1.47875c0.64463,0.41183 1.28272,0.1145 1.28272,0.1145v2.02778z" data-paper-data="{&quot;index&quot;:null}" fill="#a06140" stroke="none" stroke-width="0" stroke-linecap="butt"></path><path d="M233.82314,184.0282c0,0 0.22624,-4.15067 0.62507,-6.13384c0.39361,-1.95719 1.75245,-5.68828 1.75245,-5.68828l0.29106,3.64685l-1.58089,9.6495z" fill="#f1ad60" stroke="none" stroke-width="0" stroke-linecap="butt"></path><path d="M244.96354,186.51632l-1.58089,-9.6495l0.29107,-3.64686c0,0 1.35884,3.73109 1.75244,5.68828c0.39883,1.98317 0.62507,6.13384 0.62507,6.13384z" data-paper-data="{&quot;index&quot;:null}" fill="#f1ad60" stroke="none" stroke-width="0" stroke-linecap="butt"></path><path d="M237.07658,174.83492c0,1.09991 -0.29181,1.99156 -0.65178,1.99156c-0.35997,0 -0.65178,-0.89165 -0.65178,-1.99156c0,-1.09991 0.29181,-1.99156 0.65178,-1.99156c0.35997,0 0.65178,0.89165 0.65178,1.99156z" fill="#da5757" stroke="none" stroke-width="0" stroke-linecap="butt"></path><path d="M244.17379,175.48671c0,1.09991 -0.29181,1.99156 -0.65178,1.99156c-0.35997,0 -0.65178,-0.89165 -0.65178,-1.99156c0,-1.09991 0.29181,-1.99156 0.65178,-1.99156c0.35997,0 0.65178,0.89165 0.65178,1.99156z" fill="#da5757" stroke="none" stroke-width="0" stroke-linecap="butt"></path><path d="M239.88704,186.8944l-0.32222,-13.01797" fill="none" stroke="#000000" stroke-width="0.25" stroke-linecap="round"></path><path d="M236.44694,165.36605c0,0 -0.05272,0.67189 -0.05272,0.52717c0,-0.1535 -0.47445,-1.37065 -0.47445,-1.37065c0,0 2.14208,-0.68533 3.26848,-0.68533c1.20538,0 3.74294,0.68533 3.74294,0.68533l0.05272,1.42337c0,0 -1.73706,-0.32444 -3.52238,-0.24807c-1.15314,0.04933 -2.48004,0.51166 -2.85642,0.51166c-0.14961,0 0.02837,-0.44755 -0.11398,-0.66194c-0.11785,-0.17748 -0.04418,-0.18154 -0.04418,-0.18154z" fill="#000000" stroke="none" stroke-width="0" stroke-linecap="butt"></path><path d="M239.89024,165.08319c0.03684,0.15584 -0.51903,0.42061 -1.24155,0.59139c-0.72252,0.17078 -1.33811,0.18289 -1.37494,0.02705c-0.03684,-0.15584 0.51903,-0.42061 1.24155,-0.59139c0.72252,-0.17078 1.33811,-0.18289 1.37494,-0.02705z" fill="#484343" stroke="none" stroke-width="0" stroke-linecap="butt"></path><path d="M237.50129,188.13258l0.10543,0.73805" fill="none" stroke="#0035ea" stroke-width="0.05" stroke-linecap="round"></path><path d="M238.39748,191.29563l0.10543,-1.05435" fill="none" stroke="#0035ea" stroke-width="0.05" stroke-linecap="round"></path><path d="M237.65944,191.03204l0.10543,1.2125" fill="none" stroke="#0035ea" stroke-width="0.05" stroke-linecap="round"></path><path d="M241.92955,191.87551l-0.05272,-0.73804v-1.42337" fill="none" stroke="#0035ea" stroke-width="0.05" stroke-linecap="round"></path><path d="M242.35129,187.49997l-0.15815,1.58152" fill="none" stroke="#0035ea" stroke-width="0.05" stroke-linecap="round"></path><path d="M241.45509,189.13421v-1.15978" fill="none" stroke="#0035ea" stroke-width="0.05" stroke-linecap="round"></path><path d="M242.56216,191.13747l0.10543,0.84348" fill="none" stroke="#0035ea" stroke-width="0.05" stroke-linecap="round"></path><path d="M238.50292,187.44725l0.05272,1.00163" fill="none" stroke="#0035ea" stroke-width="0.05" stroke-linecap="round"></path><path d="M238.50292,193.3516l-0.52717,0.15815" fill="none" stroke="#000000" stroke-width="0.1" stroke-linecap="round"></path><path d="M238.87194,193.98421l-0.47446,0.21087" fill="none" stroke="#000000" stroke-width="0.1" stroke-linecap="round"></path><path d="M241.50781,193.82606l0.42174,0.63261" fill="none" stroke="#000000" stroke-width="0.1" stroke-linecap="round"></path><path d="M241.92955,193.72062l0.57989,0.57989" fill="none" stroke="#000000" stroke-width="0.1" stroke-linecap="round"></path><path d="M234.40386,177.684l1.34461,-3.83715l1.1073,1.59138l-1.13374,2.7828z" fill="#da5757" stroke="none" stroke-width="0" stroke-linecap="butt"></path><path d="M244.1279,179.37818l-1.13374,-2.7828l1.1073,-1.59138l1.34461,3.83715z" data-paper-data="{&quot;index&quot;:null}" fill="#da5757" stroke="none" stroke-width="0" stroke-linecap="butt"></path><path d="M234.05459,185.64069l0.48933,-1.44412l0.521,0.13561l-0.36509,1.40271c0,0 -0.31223,0.29177 -0.42821,0.27484c-0.0948,-0.01384 -0.21704,-0.36903 -0.21704,-0.36903z" fill="#f1ad60" stroke="none" stroke-width="0" stroke-linecap="butt"></path><path d="M233.47274,185.10025l0.48933,-1.44413l0.52101,0.13561l-0.36509,1.40272c0,0 -0.31223,0.29177 -0.42821,0.27483c-0.0948,-0.01384 -0.21704,-0.36903 -0.21704,-0.36903z" fill="#f1ad60" stroke="none" stroke-width="0" stroke-linecap="butt"></path><path d="M232.83248,184.33923l1.27784,-0.8319l0.32545,0.42886l-1.15461,0.87622c0,0 -0.42581,0.03608 -0.50646,-0.04897c-0.06593,-0.06952 0.05777,-0.4242 0.05777,-0.4242z" fill="#f1ad60" stroke="none" stroke-width="0" stroke-linecap="butt"></path><path d="M235.28454,185.89343l-0.66063,-1.37423l0.46716,-0.26759l0.72043,1.25772c0,0 -0.01899,0.42692 -0.11371,0.49595c-0.07742,0.05644 -0.41325,-0.11186 -0.41325,-0.11186z" fill="#f1ad60" stroke="none" stroke-width="0" stroke-linecap="butt"></path><path d="M235.8828,185.16766l-1.34373,-0.72066l0.21963,-0.49153l1.32335,0.59129c0,0 0.23632,0.35605 0.20049,0.46766c-0.02927,0.09123 -0.39975,0.15324 -0.39975,0.15324z" fill="#f1ad60" stroke="none" stroke-width="0" stroke-linecap="butt"></path><path d="M245.72838,187.49851c-0.11598,0.01693 -0.42821,-0.27484 -0.42821,-0.27484l-0.36509,-1.40271l0.521,-0.13561l0.48933,1.44412c0,0 -0.12224,0.35519 -0.21704,0.36903z" data-paper-data="{&quot;index&quot;:null}" fill="#f1ad60" stroke="none" stroke-width="0" stroke-linecap="butt"></path><path d="M246.10317,186.91666c-0.11598,0.01693 -0.42821,-0.27484 -0.42821,-0.27484l-0.36509,-1.40271l0.521,-0.13561l0.48933,1.44412c0,0 -0.12223,0.35519 -0.21704,0.36903z" data-paper-data="{&quot;index&quot;:null}" fill="#f1ad60" stroke="none" stroke-width="0" stroke-linecap="butt"></path><path d="M247.2253,186.25222c-0.08065,0.08506 -0.50646,0.04897 -0.50646,0.04897l-1.15461,-0.87622l0.32545,-0.42886l1.27784,0.8319c0,0 0.1237,0.35468 0.05777,0.4242z" data-paper-data="{&quot;index&quot;:null}" fill="#f1ad60" stroke="none" stroke-width="0" stroke-linecap="butt"></path><path d="M244.30221,187.49407c-0.09472,-0.06904 -0.11371,-0.49595 -0.11371,-0.49595l0.72043,-1.25772l0.46716,0.26759l-0.66063,1.37423c0,0 -0.33582,0.16829 -0.41324,0.11186z" data-paper-data="{&quot;index&quot;:null}" fill="#f1ad60" stroke="none" stroke-width="0" stroke-linecap="butt"></path><path d="M243.71744,186.50321c-0.03582,-0.1116 0.20049,-0.46765 0.20049,-0.46765l1.32335,-0.5913l0.21963,0.49153l-1.34372,0.72066c0,0 -0.37047,-0.06201 -0.39975,-0.15324z" data-paper-data="{&quot;index&quot;:null}" fill="#f1ad60" stroke="none" stroke-width="0" stroke-linecap="butt"></path></g></g></svg>