<svg version="1.1" xmlns="http://www.w3.org/2000/svg" xmlns:xlink="http://www.w3.org/1999/xlink" width="76.00547" height="65.33333" viewBox="0,0,76.00547,65.33333"><defs><radialGradient cx="239" cy="175.83333" r="27.33333" gradientUnits="userSpaceOnUse" id="color-1"><stop offset="0" stop-color="#00fff7"></stop><stop offset="1" stop-color="#00c0ff"></stop></radialGradient><radialGradient cx="237.16667" cy="197.03198" r="37.5" gradientUnits="userSpaceOnUse" id="color-2"><stop offset="0" stop-color="#00fff7"></stop><stop offset="1" stop-color="#00c0ff"></stop></radialGradient></defs><g transform="translate(-199.16119,-148)"><g data-paper-data="{&quot;isPaintingLayer&quot;:true}" fill-rule="nonzero" stroke="#006eff" stroke-width="1" stroke-linecap="butt" stroke-linejoin="miter" stroke-miterlimit="10" stroke-dasharray="" stroke-dashoffset="0" style="mix-blend-mode: normal"><path d="M247.66667,175.83333c0,15.09578 -3.8802,27.33333 -8.66667,27.33333c-4.78647,0 -8.66667,-12.23755 -8.66667,-27.33333c0,-15.09578 3.8802,-27.33333 8.66667,-27.33333c4.78647,0 8.66667,12.23755 8.66667,27.33333z" fill="url(#color-1)"></path><path d="M199.66667,206.5l0.66667,-47.34008c0,0 17.63846,3.00198 28.65377,15.54694c5.09533,5.8029 4.58135,25.34251 7.77915,26.56445c5.79876,2.21581 2.20238,-27.4467 9.17354,-30.6564c2.43183,-1.11967 8.09489,3.9997 10.79565,0.91046c4.77174,-5.45811 6.66117,-19.32249 10.60088,-15.52713c2.44211,2.35263 7.33034,31.56573 7.33034,31.56573v18.93603c0,0 -25.64499,6.33333 -38.33333,6.33333c-12.29955,0 -36.66667,-6.33333 -36.66667,-6.33333z" fill="url(#color-2)"></path></g></g></svg>