<svg version="1.1" xmlns="http://www.w3.org/2000/svg" xmlns:xlink="http://www.w3.org/1999/xlink" width="15.7781" height="20.87457" viewBox="0,0,15.7781,20.87457"><defs><linearGradient x1="233.63145" y1="176.99376" x2="232.7873" y2="179.61099" gradientUnits="userSpaceOnUse" id="color-1"><stop offset="0" stop-color="#a3a3a3"></stop><stop offset="1" stop-color="#6e6e6e"></stop></linearGradient></defs><g transform="translate(-231.2825,-166.14809)"><g data-paper-data="{&quot;isPaintingLayer&quot;:true}" fill-rule="nonzero" stroke="none" stroke-width="0" stroke-linecap="butt" stroke-linejoin="miter" stroke-miterlimit="10" stroke-dasharray="" stroke-dashoffset="0" style="mix-blend-mode: normal"><path d="M239.06123,186.64729l0.16228,-1.60722l5.24221,0.35025l-0.18058,1.26369z" fill="#9b7f4e"></path><path d="M238.22986,187.02266c0,0 -0.35441,-7.00427 -0.22923,-10.07602c0.1086,-2.66501 2.25701,-7.20428 2.25701,-7.20428l3.57145,-3.59427c0,0 -4.63133,8.60413 -4.76094,11.59438c-0.13254,3.05804 0.37596,9.07924 0.37596,9.07924z" fill="#78623c"></path><path d="M239.51689,184.77775c0.18405,0.93474 -0.21584,1.80062 -0.89318,1.934c-0.67734,0.13338 -1.37565,-0.51626 -1.55972,-1.451c-0.18405,-0.93474 0.21584,-1.80062 0.89318,-1.934c0.67734,-0.13338 1.37565,0.51626 1.55972,1.451z" fill="#7e7e7e"></path><path d="M237.13176,180.26576c1.35255,1.40024 1.91769,3.04858 1.26225,3.68169c-0.65543,0.63311 -2.28322,0.01123 -3.63577,-1.389c-1.35255,-1.40024 -1.91769,-3.04858 -1.26225,-3.68169c0.65543,-0.63311 2.28322,-0.01123 3.63577,1.389z" fill="#acacac"></path><path d="M235.08903,178.90863c-0.23311,0.72273 -1.26363,1.03718 -2.30174,0.70235c-1.0381,-0.33483 -1.69067,-1.19215 -1.45756,-1.91488c0.23311,-0.72273 1.26363,-1.03718 2.30174,-0.70235c1.0381,0.33483 1.69067,1.19215 1.45756,1.91488z" fill="url(#color-1)"></path><path d="M244.09294,186.3166c0,0 0.22672,-4.71771 0.57653,-7.77204c0.30351,-2.6499 1.25593,-9.96359 1.25593,-9.96359l1.13521,-1.09293c0,0 -1.0365,8.95566 -1.38478,11.92839c-0.35616,3.04012 -0.42164,6.68158 -0.42164,6.68158z" fill="#78623c"></path><path d="M238.96461,183.20424l0.24685,-1.6581l5.619,0.12353l-0.25105,1.30609z" fill="#9b7f4e"></path><path d="M239.1675,179.7266l0.17235,-1.66749l5.61891,-0.12822l-0.19231,1.31602z" fill="#9b7f4e"></path><path d="M239.49449,173.84933l0.58117,-1.5724l5.47463,1.27158l-0.51318,1.22701z" fill="#9b7f4e"></path><path d="M241.84566,169.8361l-0.03172,-0.84556l4.30467,-0.16149l0.03172,0.84556z" fill="#9b7f4e"></path></g></g></svg>