<svg version="1.1" xmlns="http://www.w3.org/2000/svg" xmlns:xlink="http://www.w3.org/1999/xlink" width="104.14633" height="32.46795" viewBox="0,0,104.14633,32.46795"><g transform="translate(-16.19279,-101.26603)"><g data-paper-data="{&quot;isPaintingLayer&quot;:true}" fill-rule="nonzero" stroke-linecap="butt" stroke-linejoin="miter" stroke-miterlimit="10" stroke-dasharray="" stroke-dashoffset="0" style="mix-blend-mode: normal"><text transform="translate(51.5,124) scale(0.5,0.5)" font-size="40" xml:space="preserve" fill="#9966ff" fill-rule="nonzero" stroke="none" stroke-width="1" stroke-linecap="butt" stroke-linejoin="miter" stroke-miterlimit="10" stroke-dasharray="" stroke-dashoffset="0" font-family="Serif" font-weight="normal" text-anchor="start" style="mix-blend-mode: normal"><tspan x="0" dy="0">xamt8</tspan></text><g><path d="M17.19282,128.06154c0,-6.33069 0,-17.2575 0,-20.86857c0,-2.28224 3.21989,-4.92694 6.79577,-4.92694c11.004,0 68.28142,0 88.37512,0c4.36507,0 6.97541,1.8341 6.97541,4.54519c0,6.38829 0,17.64596 0,21.25032c0,2.18502 -2.68227,4.67244 -7.15504,4.67244c-20.20524,0 -76.94844,0 -88.01588,0c-3.65954,0 -6.97541,-1.89337 -6.97541,-4.67244z" fill-opacity="0.62097" fill="#291800" stroke="#d84646" stroke-width="2"></path><g fill="#ff7a7a"><text transform="translate(41.26631,122.37904) scale(0.40659,0.40659)" font-size="40" xml:space="preserve" fill="#ff7a7a" fill-rule="nonzero" stroke="none" stroke-width="1" stroke-linecap="butt" stroke-linejoin="miter" stroke-miterlimit="10" stroke-dasharray="" stroke-dashoffset="0" font-family="Serif" font-weight="normal" text-anchor="start" style="mix-blend-mode: normal"><tspan x="0" dy="0">Next Door</tspan></text><path d="M26.14584,122.33545v-11.96467l3.95861,-1.50288l7.24464,0.08007l1.72313,2.09243l1.44294,0.84829l-3.4842,-0.24019l-6.9286,0.05606l-0.95494,3.93841l1.72442,0.86907l6.52891,-1.17369l-0.40514,-3.5215c0,0 0.16559,-0.88954 0.47238,-0.88686c0.61406,0.00536 2.98247,0.91702 2.98247,0.91702l-0.7117,6.7441l-2.06871,-0.41684l0.99641,-0.9211l-0.81239,-0.65883l-1.64608,0.5978l1.41752,0.96889l2.10439,0.34074l-0.40656,4.31297l-3.09315,-0.87201l0.37449,-1.32218l-3.12538,-2.37427l-4.59781,0.25889l-0.10232,2.63556l1.15576,0.66035l6.3001,0.0432l3.0827,0.93765l-2.47012,1.12925l-8.74237,-0.05631z" stroke="#ffffff" stroke-width="0"></path></g></g></g></g></svg>