<svg version="1.1" xmlns="http://www.w3.org/2000/svg" xmlns:xlink="http://www.w3.org/1999/xlink" width="60.71112" height="78.08458" viewBox="0,0,60.71112,78.08458"><defs><linearGradient x1="269.64547" y1="177.65796" x2="263.41985" y2="177.65796" gradientUnits="userSpaceOnUse" id="color-1"><stop offset="0" stop-color="#8d3800"></stop><stop offset="1" stop-color="#d27a00"></stop></linearGradient><linearGradient x1="217.36837" y1="178.07832" x2="209.64444" y2="178.07832" gradientUnits="userSpaceOnUse" id="color-2"><stop offset="0" stop-color="#d27a00"></stop><stop offset="1" stop-color="#8d3800"></stop></linearGradient><linearGradient x1="239.4083" y1="173.56912" x2="239.4083" y2="205.6671" gradientUnits="userSpaceOnUse" id="color-3"><stop offset="0" stop-color="#808080"></stop><stop offset="1" stop-color="#808080" stop-opacity="0"></stop></linearGradient></defs><g transform="translate(-209.64444,-140.83271)"><g data-paper-data="{&quot;isPaintingLayer&quot;:true}" fill-rule="nonzero" stroke-width="0.5" stroke-linejoin="miter" stroke-miterlimit="10" stroke-dasharray="" stroke-dashoffset="0" style="mix-blend-mode: normal"><path d="M240.57788,152.04161l-0.73059,54.06394" fill="none" stroke="#652800" stroke-linecap="round"></path><path d="M214.86098,149.70371v-4.38356c0,0 15.24435,-4.23744 23.23288,-4.23744c8.6208,0 26.73973,4.23744 26.73973,4.23744v4.38356z" fill="#652800" stroke="#311300" stroke-linecap="butt"></path><path d="M210.44088,218.91729l4.82072,-13.22255h49.99776l5.09619,13.22255z" fill-opacity="0.45161" fill="#000000" stroke="none" stroke-linecap="butt"></path><g stroke-linecap="butt"><path d="M214.71067,206.38117v-57.02224h49.99776v57.02224z" fill="#000000" stroke="none"></path><path d="M216.31378,206.26005v-55.81736c0,0 13.52013,0 20.89498,0c8.29706,0 26.44749,0 26.44749,0v55.81736z" fill="none" stroke="#652800"></path></g><g data-paper-data="{&quot;index&quot;:null}" stroke-linecap="butt"><path d="M263.41985,205.0672v-54.81849h6.22562v54.81849z" fill="url(#color-1)" stroke="none"></path><path d="M264.91486,199.17335v-9.93607h3.21571v9.93607z" fill="none" stroke="#7b3100"></path><path d="M264.83241,181.6391v-9.93608h3.21571v9.93608z" fill="none" stroke="#7b3100"></path><path d="M264.7851,163.68805v-9.93607h3.21571v9.93607z" fill="none" stroke="#7b3100"></path><g><path d="M267.58459,177.97729c-0.08406,-1.23466 0.10452,-2.45512 0.4212,-2.72597c0.31669,-0.27085 0.64156,0.51046 0.72562,1.74512c0.08406,1.23466 -0.10452,2.45512 -0.4212,2.72597c-0.31669,0.27086 -0.64156,-0.51046 -0.72562,-1.74512z" fill="#fff4ce" stroke="#e6ddbb"></path><path d="M267.65472,177.4074c-0.05223,-0.76704 0.06493,-1.52525 0.26167,-1.69352c0.19674,-0.16827 0.39857,0.31713 0.4508,1.08416c0.05223,0.76704 -0.06493,1.52525 -0.26167,1.69352c-0.19674,0.16827 -0.39857,-0.31713 -0.4508,-1.08416z" fill="#e6ddbb" stroke="#e6ddbb"></path><path d="M269.07684,179.40119l-0.46407,-0.62524l0.17641,-1.64478l0.46407,0.62524z" fill="#e6ddbb" stroke="none"></path><path d="M268.8702,179.73879c-0.02672,-0.13175 0.08789,-1.37684 0.09779,-1.59407l0.00079,-0.34061c-0.00031,-0.07982 0.00834,-0.15562 0.02329,-0.21205c0.00517,-0.05125 0.01416,-0.09702 0.02606,-0.13201c0.00012,-0.03315 0.00024,-0.06631 0.00036,-0.09946l0.00503,-0.0299l-0.00343,-0.00281l0.02455,-0.37697c0.00656,-0.11132 0.03057,-0.20497 0.06383,-0.23342c0.04602,-0.03936 0.09233,0.06096 0.10344,0.22407v0l0.02329,0.3421l-0.01636,0.01399c0.07338,0.60531 0.09008,1.25973 0.0002,1.91758c-0.0576,0.42158 -0.18491,1.33165 -0.34884,0.52353z" fill="#fff4ce" stroke="none"></path></g></g><g data-paper-data="{&quot;index&quot;:null}" stroke-linecap="butt"><path d="M209.64444,205.48756v-54.81849h7.72393v54.81849z" fill="url(#color-2)" stroke="none"></path><path d="M211.99574,164.26291v-9.93608h3.82539v9.93608z" fill="none" stroke="#7b3100"></path><path d="M212.02388,182.15168v-9.93607h3.82539v9.93607z" fill="none" stroke="#7b3100"></path><path d="M212.10106,199.16374v-9.93608h3.82539v9.93608z" fill="none" stroke="#7b3100"></path><g data-paper-data="{&quot;index&quot;:null}"><path d="M211.77833,178.32221c-0.1,1.23466 -0.48647,2.01598 -0.8632,1.74512c-0.37673,-0.27086 -0.60106,-1.49131 -0.50106,-2.72597c0.1,-1.23466 0.48647,-2.01598 0.8632,-1.74512c0.37673,0.27085 0.60106,1.49131 0.50106,2.72597z" fill="#fff4ce" stroke="#e6ddbb"></path><path d="M211.15863,178.83647c-0.23404,-0.16827 -0.37341,-0.92648 -0.31129,-1.69352c0.06212,-0.76704 0.30222,-1.25243 0.53626,-1.08416c0.23404,0.16827 0.37341,0.92648 0.31129,1.69352c-0.06212,0.76704 -0.30222,1.25243 -0.53626,1.08416z" fill="#e6ddbb" stroke="#e6ddbb"></path><path d="M209.7933,178.10132l0.55206,-0.62524l0.20986,1.64478l-0.55206,0.62524z" fill="#e6ddbb" stroke="none"></path><path d="M210.24898,180.0837c-0.19501,0.80812 -0.34646,-0.10195 -0.41498,-0.52353c-0.10692,-0.65786 -0.08705,-1.31227 0.00024,-1.91758l-0.01946,-0.01399l0.02771,-0.3421v0c0.01321,-0.16311 0.0683,-0.26343 0.12305,-0.22407c0.03957,0.02845 0.06813,0.12209 0.07594,0.23342l0.02921,0.37696l-0.00408,0.00281l0.00599,0.0299c0.00014,0.03315 0.00029,0.0663 0.00043,0.09946c0.01415,0.03498 0.02485,0.08076 0.031,0.13201c0.01778,0.05644 0.02807,0.13223 0.0277,0.21205l0.00094,0.34061c0.01177,0.21723 0.14812,1.46232 0.11633,1.59407z" fill="#fff4ce" stroke="none"></path></g></g><g><path d="M229.94896,205.6671v-32.09799c0,0 -2.37764,-4.57024 -2.01941,-4.57024c1.91802,0 22.85122,-0.74399 22.85122,-0.74399c0,0 -3.77552,5.66839 -3.97387,9.54721c-0.3493,6.83078 2.06074,27.86502 2.06074,27.86502z" fill="url(#color-3)" stroke="none" stroke-linecap="butt"></path><path d="M250.45013,161.45851c0,6.74198 -5.19754,12.20744 -11.60903,12.20744c-6.41149,0 -11.60903,-5.46546 -11.60903,-12.20744c0,-6.74198 5.19754,-12.20744 11.60903,-12.20744c6.41149,0 11.60903,5.46546 11.60903,12.20744z" fill-opacity="0.66129" fill="#ffdb12" stroke="none" stroke-linecap="butt"></path><path d="M231.56912,170.46947v-5.5938h13.69009v5.5938c0,0 -4.68474,2.7969 -7.06585,2.7969c-2.16083,0 -6.62424,-2.7969 -6.62424,-2.7969z" fill="#ffffff" stroke="none" stroke-linecap="butt"></path><path d="M232.92493,171.33714l0.10628,-6.48337" fill="none" stroke="#000000" stroke-linecap="round"></path><path d="M236.6449,164.85377l0.21257,7.75879" fill="none" stroke="#000000" stroke-linecap="round"></path><path d="M240.47115,172.61255l-0.21257,-7.6525" fill="none" stroke="#000000" stroke-linecap="round"></path><path d="M243.65969,164.85377l0.21257,6.16452" fill="none" stroke="#000000" stroke-linecap="round"></path><path d="M231.86209,167.19203l12.32903,-0.10628" fill="none" stroke="#000000" stroke-linecap="round"></path><path d="M232.07466,170.27429l12.5416,-0.42514" fill="none" stroke="#000000" stroke-linecap="round"></path><path d="M232.71237,154.22529l2.65712,3.5074" fill="none" stroke="#000000" stroke-linecap="round"></path><path d="M232.28723,157.73269l3.18854,-3.61368" fill="none" stroke="#000000" stroke-linecap="round"></path><path d="M242.17171,153.80016l2.65712,3.71997" fill="none" stroke="#000000" stroke-linecap="round"></path><path d="M242.49056,157.30755l2.33826,-3.5074" fill="none" stroke="#000000" stroke-linecap="round"></path></g></g></g></svg>