<svg version="1.1" xmlns="http://www.w3.org/2000/svg" xmlns:xlink="http://www.w3.org/1999/xlink" width="84.98736" height="87" viewBox="0,0,84.98736,87"><defs><linearGradient x1="244.38325" y1="180.82022" x2="247.74955" y2="180.82022" gradientUnits="userSpaceOnUse" id="color-1"><stop offset="0" stop-color="#898989"></stop><stop offset="1" stop-color="#e2e2e2"></stop></linearGradient><radialGradient cx="246.04905" cy="184.79384" r="0.88495" gradientUnits="userSpaceOnUse" id="color-2"><stop offset="0" stop-color="#ffffff"></stop><stop offset="1" stop-color="#bfbfbf"></stop></radialGradient><radialGradient cx="246.46908" cy="182.65284" r="0.27268" gradientUnits="userSpaceOnUse" id="color-3"><stop offset="0" stop-color="#e2e2e2"></stop><stop offset="1" stop-color="#898989"></stop></radialGradient><radialGradient cx="241.7496" cy="180" r="43.81394" gradientUnits="userSpaceOnUse" id="color-4"><stop offset="0" stop-color="#ff0000"></stop><stop offset="1" stop-color="#ff0000" stop-opacity="0"></stop></radialGradient><linearGradient x1="241.03462" y1="160.706" x2="241.03462" y2="162.67257" gradientUnits="userSpaceOnUse" id="color-5"><stop offset="0" stop-color="#ad5400"></stop><stop offset="1" stop-color="#d07b00"></stop></linearGradient><linearGradient x1="241.34472" y1="188.67603" x2="241.34472" y2="196.04243" gradientUnits="userSpaceOnUse" id="color-6"><stop offset="0" stop-color="#8e6c39"></stop><stop offset="1" stop-color="#cc9752"></stop></linearGradient><linearGradient x1="255.13858" y1="197.80398" x2="257.64566" y2="207.33158" gradientUnits="userSpaceOnUse" id="color-7"><stop offset="0" stop-color="#000000"></stop><stop offset="1" stop-color="#777777"></stop></linearGradient><linearGradient x1="256.22261" y1="197.53765" x2="258.72969" y2="207.06525" gradientUnits="userSpaceOnUse" id="color-8"><stop offset="0" stop-color="#000000"></stop><stop offset="1" stop-color="#777777"></stop></linearGradient></defs><g transform="translate(-197.50632,-136.5)"><g data-paper-data="{&quot;isPaintingLayer&quot;:true}" fill-rule="nonzero" stroke-linejoin="miter" stroke-miterlimit="10" stroke-dasharray="" stroke-dashoffset="0" style="mix-blend-mode: normal"><path d="M231.50515,190.83629v-2.45122h0.87544v2.45122z" fill="#e6e6e6" stroke="#000000" stroke-width="0.5" stroke-linecap="butt"></path><path d="M231.51298,171.32189v-2.45122h0.87544v2.45122z" fill="#e6e6e6" stroke="#000000" stroke-width="0.5" stroke-linecap="butt"></path><path d="M232.41907,192.47828v-25.85456h16.48445v25.85456z" fill="#8e6544" stroke="none" stroke-width="0.5" stroke-linecap="butt"></path><path d="M233.98075,175.99382v-8.67603h13.5346v8.67603z" fill="none" stroke="#513a27" stroke-width="0.5" stroke-linecap="butt"></path><path d="M234.15427,189.87547v-8.32899h13.36108v8.32899z" fill="none" stroke="#513a27" stroke-width="0.5" stroke-linecap="butt"></path><text transform="translate(236.89231,172.03751) scale(0.05344,0.05344)" font-size="40" xml:space="preserve" fill="#ffffff" fill-rule="nonzero" stroke="none" stroke-width="1" stroke-linecap="butt" stroke-linejoin="miter" stroke-miterlimit="10" stroke-dasharray="" stroke-dashoffset="0" font-family="Sans Serif" font-weight="normal" text-anchor="start" style="mix-blend-mode: normal"><tspan x="0" dy="0">xAmt8</tspan></text><path d="M245.66447,171.33769c0,0.91041 -2.25295,1.64845 -5.0321,1.64845c-2.77915,0 -5.0321,-0.73803 -5.0321,-1.64845c0,-0.91041 2.25295,-1.64845 5.0321,-1.64845c2.77915,0 5.0321,0.73803 5.0321,1.64845z" fill="#d59866" stroke="none" stroke-width="0.5" stroke-linecap="butt"></path><path d="M236.03408,171.25093c0,-0.23958 0.19422,-0.4338 0.4338,-0.4338c0.23958,0 0.4338,0.19422 0.4338,0.4338c0,0.23958 -0.19422,0.4338 -0.4338,0.4338c-0.23958,0 -0.4338,-0.19422 -0.4338,-0.4338z" fill="#ab7a52" stroke="none" stroke-width="0.5" stroke-linecap="butt"></path><path d="M244.36307,171.25093c0,-0.23958 0.19422,-0.4338 0.4338,-0.4338c0.23958,0 0.4338,0.19422 0.4338,0.4338c0,0.23958 -0.19422,0.4338 -0.4338,0.4338c-0.23958,0 -0.4338,-0.19422 -0.4338,-0.4338z" fill="#ab7a52" stroke="none" stroke-width="0.5" stroke-linecap="butt"></path><path d="M248.20944,178.48095c0,0.44722 -1.16532,0.80976 -2.60281,0.80976c-1.43749,0 -2.60281,-0.36254 -2.60281,-0.80976c0,-0.44722 1.16532,-0.80976 2.60281,-0.80976c1.43749,0 2.60281,0.36254 2.60281,0.80976z" fill="#dadada" stroke="none" stroke-width="0.5" stroke-linecap="butt"></path><path d="M246.68659,178.97711c-0.71005,-0.15752 -1.14519,-0.91839 -0.97192,-1.69945c0.17328,-0.78106 0.88935,-1.28653 1.5994,-1.129c0.71005,0.15752 1.14519,0.91839 0.97192,1.69945c-0.17328,0.78106 -0.88935,1.28653 -1.5994,1.129z" fill="#fff4ce" stroke="#e6ddbb" stroke-width="0.5" stroke-linecap="butt"></path><path d="M247.12917,178.25068c-0.44112,-0.09786 -0.71146,-0.57055 -0.60381,-1.05579c0.10765,-0.48523 0.55252,-0.79926 0.99364,-0.7014c0.44112,0.09786 0.71146,0.57055 0.60381,1.05579c-0.10765,0.48523 -0.55252,0.79926 -0.99364,0.7014z" fill="#e6ddbb" stroke="#e6ddbb" stroke-width="0.5" stroke-linecap="butt"></path><path d="M244.5587,177.77781l1.02861,-0.41291l0.41291,1.02861l-1.02861,0.41291z" fill="#e6ddbb" stroke="none" stroke-width="0.5" stroke-linecap="butt"></path><path d="M245.43681,179.01051c-0.35651,0.51571 -0.6513,-0.0522 -0.78477,-0.31533c-0.20827,-0.41061 -0.17862,-0.82345 -0.02186,-1.2077l-0.03668,-0.00814l0.04801,-0.21642v0c0.02289,-0.10318 0.1251,-0.16828 0.22828,-0.14538c0.07458,0.01655 0.12927,0.07453 0.1452,0.14437l0.05919,0.2364l-0.00762,0.00191l0.01158,0.01863c0.00065,0.02087 0.00131,0.04175 0.00196,0.06262c0.02696,0.02154 0.04757,0.05 0.0597,0.08206c0.03403,0.03493 0.0542,0.08231 0.05445,0.13259l0.00572,0.21448c0.02461,0.1364 0.29495,0.91583 0.23682,0.99991z" fill="#fff4ce" stroke="none" stroke-width="0.5" stroke-linecap="butt"></path><path d="M199.04996,212.32465l29.96089,-19.97393l21.68223,0.26281l31.8006,19.71112z" fill="#ca7f00" stroke="none" stroke-width="0.5" stroke-linecap="butt"></path><path d="M197.50632,213.27616v-62.98796h84.15747v62.98796z" fill-opacity="0.49995" fill="#ffffff" stroke="none" stroke-width="0.5" stroke-linecap="butt"></path><path d="M244.02827,165.25317c0.388,-0.194 0.58201,0.194 0.58201,0.194l0.21089,0.45597c0.02221,0.22457 0.15701,0.46694 0.06661,0.6737c-0.37148,0.84969 -1.92667,0.71433 -2.661,0.71278c-0.78814,-0.00167 -1.50758,0.07133 -2.29851,-0.00211c-0.83166,-0.07722 -1.54135,0.06736 -2.24327,-0.54335c-0.39248,-0.34148 -0.61814,-0.90895 -0.80632,-1.37567c0,0 -0.16111,-0.40277 0.24167,-0.56388c0.40277,-0.16111 0.56388,0.24167 0.56388,0.24167c0.1353,0.34141 0.29522,0.80042 0.58184,1.05362c0.51338,0.45352 1.13884,0.26998 1.7477,0.32425c0.59381,0.05293 1.05591,0.05293 1.64971,0c0.63408,-0.05652 1.24367,0.02539 1.87327,-0.08176c0.37853,-0.06442 0.61751,0.06437 0.43367,-0.26907l-0.13615,-0.23812c0,0 -0.194,-0.388 0.194,-0.58201z" fill="#af7c56" stroke="none" stroke-width="0.5" stroke-linecap="butt"></path><path d="M238.32257,167.89694c0,-0.09583 0.07769,-0.17352 0.17352,-0.17352c0.09583,0 0.17352,0.07769 0.17352,0.17352c0,0.09583 -0.07769,0.17352 -0.17352,0.17352c-0.09583,0 -0.17352,-0.07769 -0.17352,-0.17352z" fill="#000000" stroke="none" stroke-width="0.5" stroke-linecap="butt"></path><path d="M242.22678,168.07046c0,-0.09583 0.07769,-0.17352 0.17352,-0.17352c0.09583,0 0.17352,0.07769 0.17352,0.17352c0,0.09583 -0.07769,0.17352 -0.17352,0.17352c-0.09583,0 -0.17352,-0.07769 -0.17352,-0.17352z" fill="#000000" stroke="none" stroke-width="0.5" stroke-linecap="butt"></path><path d="M237.62849,178.04789v-3.47041h1.64845v3.47041z" fill="#ffffff" stroke="none" stroke-width="0.5" stroke-linecap="butt"></path><path d="M242.8341,178.13465v-3.55717h1.21464v3.55717z" fill="#ffffff" stroke="none" stroke-width="0.5" stroke-linecap="butt"></path><path d="M237.54173,189.84729v-4.51153h1.47492v4.51153z" fill="#ffffff" stroke="none" stroke-width="0.5" stroke-linecap="butt"></path><path d="M241.87974,189.76053v-4.33801h1.73521v4.33801z" fill="#ffffff" stroke="none" stroke-width="0.5" stroke-linecap="butt"></path><path d="M229.55739,187.26214l5.7532,-8.88469l2.25759,1.46188l-5.7532,8.88469z" fill="#fff3c0" stroke="none" stroke-width="0.5" stroke-linecap="butt"></path><path d="M244.29883,188.41464l-0.04229,-10.58467l2.68955,-0.01074l0.04229,10.58467z" fill="#fff3c0" stroke="none" stroke-width="0.5" stroke-linecap="butt"></path><path d="M244.74885,188.34746v-5.07548h1.47492v5.07548z" fill="#f3e8b6" stroke="none" stroke-width="0.5" stroke-linecap="butt"></path><path d="M243.7511,184.39987v-2.60281h3.73069v2.60281z" fill="#f3e8b6" stroke="none" stroke-width="0.5" stroke-linecap="butt"></path><g stroke-width="0.5"><path d="M244.69559,179.83116v-1.42287h0.69408v1.42287z" fill="#e4e4e4" stroke="none" stroke-linecap="butt"></path><path d="M247.74955,180.82022c0,0.91041 -0.75357,1.64845 -1.68315,1.64845c-0.92958,0 -1.68315,-0.73804 -1.68315,-1.64845c0,-0.91041 0.75357,-1.64845 1.68315,-1.64845c0.92958,0 1.68315,0.73804 1.68315,1.64845z" fill="url(#color-1)" stroke="none" stroke-linecap="butt"></path><path d="M248.16988,184.59154l-2.0519,-3.27043l1.32287,-0.82998l2.0519,3.27043c0,0 -0.22863,0.8608 -0.44375,0.99577c-0.22536,0.14139 -0.87913,-0.16579 -0.87913,-0.16579z" fill="#ece0a6" stroke="#000000" stroke-linecap="butt"></path><path d="M246.7541,181.65739l0.60798,-0.34194" fill="none" stroke="#000000" stroke-linecap="round"></path><path d="M247.52514,181.77444l-0.39937,0.21272" fill="none" stroke="#000000" stroke-linecap="round"></path><path d="M247.47958,182.36265l0.37549,-0.3538" fill="none" stroke="#000000" stroke-linecap="round"></path><path d="M248.49597,184.57928l-0.27835,-0.39822l0.68266,-0.47717l0.27835,0.39822c0,0 -0.14369,0.2698 -0.2618,0.35236c-0.10865,0.07594 -0.42086,0.12481 -0.42086,0.12481z" fill="#eda6e3" stroke="#000000" stroke-linecap="butt"></path><g stroke="#000000"><path d="M248.19865,183.9781l-5.19212,0.39112l-0.21386,-1.55365l5.19212,-0.39112c0,0 0.90636,0.58625 0.94114,0.83889c0.03643,0.26468 -0.72728,0.71476 -0.72728,0.71476z" fill="#ece0a6" stroke-linecap="butt"></path><path d="M245.08404,183.60978l-0.20398,-0.49335" fill="none" stroke-linecap="round"></path><path d="M248.37903,183.68031l-0.64928,0.07318l-0.16958,-0.8234l0.64928,-0.07318c0,0 0.24096,0.24833 0.2703,0.39079c0.02699,0.13105 -0.10072,0.43261 -0.10072,0.43261z" fill="#eda6e3" stroke-linecap="butt"></path></g><path d="M245.91023,185.14089v-1.76991h1.07583v1.76991z" fill="url(#color-2)" stroke="none" stroke-linecap="butt"></path><path d="M247.3678,182.69425c0,0.43125 -0.39621,0.78084 -0.88495,0.78084c-0.48875,0 -0.88495,-0.3496 -0.88495,-0.78084c0,-0.43125 0.39621,-0.78084 0.88495,-0.78084c0.48875,0 0.88495,0.3496 0.88495,0.78084z" fill="#bbbbbb" stroke="none" stroke-linecap="butt"></path><path d="M248.166,180.99374c0,0.91041 -0.75357,1.64845 -1.68315,1.64845c-0.92958,0 -1.68315,-0.73803 -1.68315,-1.64845c0,-0.91041 0.75357,-1.64845 1.68315,-1.64845c0.92958,0 1.68315,0.73803 1.68315,1.64845z" fill="#bbbbbb" stroke="none" stroke-linecap="butt"></path><path d="M245.6326,179.65764v-0.52056h1.80461v0.52056z" fill="#878787" stroke="none" stroke-linecap="butt"></path><path d="M246.39609,179.13707v-0.58997h0.48586v0.58997z" fill="#878787" stroke="none" stroke-linecap="butt"></path><path d="M247.3331,180.99374c0,0.43125 -0.36513,0.78084 -0.81555,0.78084c-0.45041,0 -0.81555,-0.3496 -0.81555,-0.78084c0,-0.43125 0.36513,-0.78084 0.81555,-0.78084c0.45041,0 0.81555,0.3496 0.81555,0.78084z" fill="#000000" stroke="none" stroke-linecap="butt"></path><path d="M246.74175,182.65284c0,0.1506 -0.12208,0.27268 -0.27268,0.27268c-0.1506,0 -0.27268,-0.12208 -0.27268,-0.27268c0,-0.1506 0.12208,-0.27268 0.27268,-0.27268c0.1506,0 0.27268,0.12208 0.27268,0.27268z" fill="url(#color-3)" stroke="none" stroke-linecap="butt"></path><path d="M246.94006,183.74354l-1.01633,-0.04958" fill="none" stroke="#000000" stroke-linecap="round"></path><path d="M245.94852,184.2641l0.96676,-0.04958" fill="none" stroke="#000000" stroke-linecap="round"></path><path d="M247.01443,184.78467l-0.89239,-0.12394" fill="none" stroke="#000000" stroke-linecap="round"></path></g><path d="M237.76665,171.55104l-0.98328,-1.27248" fill="none" stroke="#000000" stroke-width="0.5" stroke-linecap="round"></path><path d="M254.32984,180c0,23.88631 -5.63237,43.25 -12.58024,43.25c-6.94787,0 -12.58024,-19.36369 -12.58024,-43.25c0,-23.88631 5.63237,-43.25 12.58024,-43.25c6.94787,0 12.58024,19.36369 12.58024,43.25z" fill="url(#color-4)" stroke-opacity="0.69355" stroke="#ff0000" stroke-width="0.5" stroke-linecap="butt"></path><path d="M246.00085,166.98596c0,2.68332 -2.09757,4.85858 -4.68506,4.85858c-2.58748,0 -4.68506,-2.17526 -4.68506,-4.85858c0,-2.68332 2.09757,-4.85858 4.68506,-4.85858c2.58748,0 4.68506,2.17526 4.68506,4.85858z" fill="#fff3c0" stroke="#000000" stroke-width="0.5" stroke-linecap="butt"></path><path d="M239.01665,165.81469c0,-0.09583 0.07769,-0.17352 0.17352,-0.17352c0.09583,0 0.17352,0.07769 0.17352,0.17352c0,0.09583 -0.07769,0.17352 -0.17352,0.17352c-0.09583,0 -0.17352,-0.07769 -0.17352,-0.17352z" fill="#000000" stroke="none" stroke-width="0.5" stroke-linecap="butt"></path><path d="M242.92086,165.98821c0,-0.09583 0.07769,-0.17352 0.17352,-0.17352c0.09583,0 0.17352,0.07769 0.17352,0.17352c0,0.09583 -0.07769,0.17352 -0.17352,0.17352c-0.09583,0 -0.17352,-0.07769 -0.17352,-0.17352z" fill="#000000" stroke="none" stroke-width="0.5" stroke-linecap="butt"></path><path d="M237.10793,188.80617v-18.04614h8.41575v18.04614z" fill="#267520" stroke="none" stroke-width="0.5" stroke-linecap="butt"></path><path d="M238.74993,168.86147l1.1568,0.40488" fill="none" stroke="#000000" stroke-width="0.5" stroke-linecap="round"></path><path d="M238.05585,163.59801l1.446,-1.27248c0,0 1.3017,-0.2892 1.90873,-0.2892c0.6263,0 1.79305,0.2892 1.79305,0.2892l1.61952,1.50385z" fill="#000000" stroke="none" stroke-width="0.5" stroke-linecap="butt"></path><path d="M245.05451,161.68929c0,0.54305 -1.79977,0.98328 -4.01989,0.98328c-2.22013,0 -4.01989,-0.44023 -4.01989,-0.98328c0,-0.54305 1.79977,-0.98328 4.01989,-0.98328c2.22013,0 4.01989,0.44023 4.01989,0.98328z" fill="url(#color-5)" stroke="none" stroke-width="0.5" stroke-linecap="butt"></path><path d="M237.65097,161.40009v-3.18121c0,0 1.08578,-0.41873 2.12389,-0.28196c0.47601,0.06271 0.88415,-1.1062 1.23084,-1.1062c0.42061,0 1.21319,1.32637 1.75608,1.24794c0.94265,-0.13618 1.65649,0.14023 1.65649,0.14023v3.18121z" fill="#ad5400" stroke="none" stroke-width="0.5" stroke-linecap="butt"></path><path d="M245.59476,187.56162c0,0 -0.39596,-0.18916 -0.56683,-0.42737c-0.87165,-1.21519 -8.15059,-11.55483 -8.15059,-11.55483l0.41977,-2.88075l8.19686,10.33376z" fill="#bd8a33" stroke="none" stroke-width="0.5" stroke-linecap="butt"></path><path d="M241.35918,173.84002l-2.34253,-3.21013h4.42477z" fill="#ffffff" stroke="none" stroke-width="0.5" stroke-linecap="butt"></path><path d="M243.23027,174.56476l-0.69983,-0.4199l0.69983,-0.36391l0.55986,-0.97975l0.72782,0.97975l0.72782,0.33591l-0.72782,0.44789l0.38303,0.83326c0,0 -0.57673,-0.53048 -0.95905,-0.57183c-0.33586,-0.03632 -0.73965,0.55036 -0.73965,0.55036z" fill="#ffd300" stroke="none" stroke-width="0.5" stroke-linecap="butt"></path><path d="M237.23807,201.02491v-5.8997h2.42929v5.8997z" fill="#fff3c0" stroke="none" stroke-width="0.5" stroke-linecap="butt"></path><path d="M240.45394,160.62528l-0.69983,-0.41989l0.69983,-0.36391l0.55986,-0.97975l0.72782,0.97975l0.72782,0.33591l-0.72782,0.44789l0.38303,0.83326c0,0 -0.57673,-0.53048 -0.95905,-0.57182c-0.33586,-0.03632 -0.73965,0.55036 -0.73965,0.55036z" fill="#ffd300" stroke="none" stroke-width="0.5" stroke-linecap="butt"></path><path d="M243.36913,201.31411v-5.8997h2.42929v5.8997z" fill="#fff3c0" stroke="none" stroke-width="0.5" stroke-linecap="butt"></path><path d="M237.49835,183.03661v-2.08225h1.56169v2.08225c0,0 -0.54484,0.46272 -0.80976,0.46272c-0.25528,0 -0.75192,-0.46272 -0.75192,-0.46272z" fill="#2f9428" stroke="none" stroke-width="0.5" stroke-linecap="butt"></path><path d="M237.49835,181.0122l1.38816,-0.05784" fill="none" stroke="#000000" stroke-width="0.5" stroke-linecap="round"></path><path d="M236.97779,195.63196v-6.95593h8.73387v6.95593c0,0 -1.442,0.97855 -2.74218,-0.08614c-1.93369,-1.58345 -3.76399,-5.44142 -1.76935,-5.62226c2.33133,-0.21137 0.38636,3.72419 -1.59946,5.45369c-1.25101,1.08953 -2.62288,0.25471 -2.62288,0.25471z" fill="url(#color-6)" stroke="none" stroke-width="0.5" stroke-linecap="butt"></path><path d="M235.60408,202.2757v-1.67737c0,0 1.19523,0.41212 2.02805,0.01243c0.65106,-0.31246 0.9232,-1.45843 1.26884,-1.45843c0.47943,0 0.98328,1.446 0.98328,1.446v1.67737z" fill="#b3864a" stroke="none" stroke-width="0.5" stroke-linecap="butt"></path><path d="M241.15674,193.54183l0.11568,-5.0321" fill="none" stroke="#000000" stroke-width="0.5" stroke-linecap="round"></path><path d="M240.8097,189.3195l0.92544,-0.05784" fill="none" stroke="#000000" stroke-width="0.5" stroke-linecap="round"></path><path d="M241.90866,190.01358l-1.1568,0.05784" fill="none" stroke="#000000" stroke-width="0.5" stroke-linecap="round"></path><path d="M240.69402,190.93903l1.27249,-0.17352" fill="none" stroke="#000000" stroke-width="0.5" stroke-linecap="round"></path><path d="M241.73514,191.74879l-1.27248,0.17352" fill="none" stroke="#000000" stroke-width="0.5" stroke-linecap="round"></path><path d="M241.6773,192.73207l-1.33032,0.40488" fill="none" stroke="#000000" stroke-width="0.5" stroke-linecap="round"></path><path d="M242.89195,202.62274v-2.31361c0,0 0.40143,0.2063 0.74625,-0.22404c0.27217,-0.33967 0.46546,-1.33765 0.69975,-1.33765c0.21714,0 0.53565,1.01541 0.85337,1.27746c0.55782,0.46007 1.1132,0.28423 1.1132,0.28423v2.31361z" fill="#b3864a" stroke="none" stroke-width="0.5" stroke-linecap="butt"></path><path d="M242.94979,203.37467v-2.31361c0,0 0.40143,0.2063 0.74625,-0.22404c0.27217,-0.33967 0.46546,-1.33765 0.69975,-1.33765c0.21714,0 0.53565,1.01541 0.85337,1.27746c0.55782,0.46007 1.1132,0.28423 1.1132,0.28423v2.31361z" fill="#b3864a" stroke="none" stroke-width="0.5" stroke-linecap="butt"></path><path d="M243.06547,203.95307v-2.31361c0,0 0.40143,0.2063 0.74625,-0.22404c0.27217,-0.33967 0.46546,-1.33765 0.69975,-1.33765c0.21714,0 0.53565,1.01541 0.85337,1.27746c0.55782,0.46007 1.1132,0.28423 1.1132,0.28423v2.31361z" fill="#b3864a" stroke="none" stroke-width="0.5" stroke-linecap="butt"></path><path d="M243.29683,204.58931l-0.42141,-2.37971c0,0 1.37014,-0.02364 1.80428,0.05037c0.14343,0.02445 1.52566,0.39583 1.52566,0.39583c0,0 0.07157,-0.06953 0.06964,0.15619c-0.00305,0.35672 -0.08617,1.77733 -0.08617,1.77733c0,0 -0.83062,1.09896 -1.33032,1.09896c-0.46121,0 -1.56169,-1.09896 -1.56169,-1.09896z" fill="#b3864a" stroke="none" stroke-width="0.5" stroke-linecap="butt"></path><path d="M246.46977,203.68866c0,0 -0.28643,0.926 -0.52025,1.2713c-0.20887,0.30846 -1.03937,0.6777 -1.03937,0.6777c0,0 -0.14756,0.05358 -0.34729,-0.05163c-0.32329,-0.17028 -0.78328,-0.55578 -0.97545,-0.7579c-0.22895,-0.2408 -0.49716,-1.07338 -0.49716,-1.07338l1.47906,-1.59474l1.90046,1.52863z" fill="#9d4c00" stroke="#000000" stroke-width="0.5" stroke-linecap="round"></path><path d="M233.43616,186.68643l1.38953,-7.86007l2.99024,0.52863l-1.38953,7.86007z" fill="#fff3c0" stroke="#000000" stroke-width="0.5" stroke-linecap="butt"></path><path d="M234.83142,180.47402l-1.16876,-5.42826c0,0 3.13609,-2.89704 3.24009,-2.92126c0.50789,-0.1183 0.24905,2.10857 0.24905,2.10857l0.6482,5.60178z" fill="#267520" stroke="#000000" stroke-width="0.5" stroke-linecap="butt"></path><g stroke="#000000" stroke-width="0.5" stroke-linecap="butt"><path d="M246.7801,181.25574l2.68374,-1.42075l3.02287,5.71008c-0.22274,0.20754 -0.45662,0.43233 -0.73344,0.68504c-0.41238,0.37646 -1.28377,0.56539 -1.77295,0.83615c-0.03259,0.01804 -0.06453,0.03586 -0.09586,0.0535z" fill="#fff3c0"></path><path d="M246.90187,181.48578l-2.59794,-4.90741c0,0 -1.43744,-0.69969 -1.00519,-0.92852c0.46054,-0.24381 3.68893,-0.49223 3.68893,-0.49223l2.59794,4.90741z" fill="#267520"></path></g><path d="M235.56483,202.24162v-1.73521c0,0 0.71483,0.24789 1.0907,0.24789c0.36761,0 1.14028,-0.24789 1.14028,-0.24789c0,0 0.4462,0.65723 0.4462,0.96676c0,0.26032 -0.4462,0.76845 -0.4462,0.76845z" fill="#9d4c00" stroke="#000000" stroke-width="0.5" stroke-linecap="butt"></path><g data-paper-data="{&quot;index&quot;:null}" stroke-width="0.5"><path d="M248.17142,181.88813c0,0 2.24497,1.26122 3.11517,1.88582c0.89169,0.64003 2.17207,1.9092 2.17207,1.9092l-1.93627,1.6872c0,0 -0.90911,-0.86497 -1.51779,-1.46864c-0.64962,-0.64427 -2.76657,-1.18513 -2.76657,-1.18513c0,0 0.18177,-0.81824 0.22866,-1.00611c0.07928,-0.31763 0.70473,-1.82234 0.70473,-1.82234z" fill="#eaad81" stroke="none" stroke-linecap="butt"></path><path d="M251.33539,186.12572l2.1355,-0.56193c0,0 -0.30242,1.85444 -0.06922,2.74068c0.25478,0.96821 1.53888,2.84446 1.53888,2.84446l-2.1355,0.56193c0,0 0.60018,-1.10237 0.05462,-1.70881c-0.32707,-0.36357 -1.31289,-0.40297 -1.40331,-0.74659c-0.11746,-0.44637 0.05924,-0.89387 0.18704,-1.58808c0.14252,-0.77415 -0.30802,-1.54166 -0.30802,-1.54166z" fill="#eaad81" stroke="none" stroke-linecap="butt"></path><path d="M252.78345,191.62873c-0.36289,0.09549 -0.77803,-0.28676 -0.92724,-0.85378c-0.14921,-0.56702 0.02402,-1.10409 0.38692,-1.19958c0.36289,-0.09549 0.77803,0.28676 0.92724,0.85378c0.14921,0.56702 -0.02402,1.10409 -0.38692,1.19958z" fill="none" stroke="#000000" stroke-linecap="butt"></path><path d="M253.33677,191.39531l1.31415,-0.34581c0,0 1.19454,0.86839 1.46541,1.89776c0.24193,0.9194 0.52577,3.32968 0.52066,4.20648c-0.00114,0.19607 -0.27867,0.38439 -0.27867,0.38439l-1.52022,0.45899z" fill="#000000" stroke="#000000" stroke-linecap="butt"></path><path d="M252.56732,190.80739l-0.31987,-0.88187l1.01154,0.17293" fill="none" stroke="#000000" stroke-linecap="round"></path><path d="M246.88484,184.46001l1.26514,-2.50092l1.06099,0.53673l-1.26514,2.50092z" fill="#000000" stroke="none" stroke-linecap="butt"></path><path d="M255.95915,195.18677c-0.15877,0.04178 -0.40359,-0.36563 -0.54682,-0.90997c-0.14324,-0.54434 -0.13065,-1.01948 0.02812,-1.06126c0.15877,-0.04178 0.40359,0.36563 0.54682,0.90997c0.14324,0.54434 0.13065,1.01948 -0.02812,1.06126z" fill="#d4d4d4" stroke="none" stroke-linecap="butt"></path><path d="M254.78305,197.89754l0.71106,-0.18711l2.50708,9.5276l-0.71106,0.18711z" fill="url(#color-7)" stroke="#000000" stroke-linecap="butt"></path><path d="M255.92222,197.61669l0.60077,-0.15809l2.50708,9.5276l-0.60077,0.15809z" fill="url(#color-8)" stroke="#000000" stroke-linecap="butt"></path><path d="M255.48344,201.12923c0,0 0.22929,-0.47307 0.39472,-0.5166c0.16543,-0.04353 0.59787,0.25541 0.59787,0.25541l0.9722,3.69465c0,0 -0.14129,0.44991 -0.28443,0.48758c-0.17944,0.04722 -0.70816,-0.22639 -0.70816,-0.22639z" fill="#a78100" stroke="#000000" stroke-linecap="butt"></path><path d="M258.93998,206.64657l-0.06674,-0.92583l1.3844,0.10741" fill="none" stroke="#000000" stroke-linecap="round"></path><path d="M259.59301,205.76719l-0.20317,0.34827" fill="none" stroke="#000000" stroke-linecap="round"></path><path d="M258.91965,207.24154c-0.21319,0.0561 -0.4055,0.02751 -0.42954,-0.06386c-0.02404,-0.09137 0.12929,-0.21091 0.34248,-0.267c0.21319,-0.0561 0.4055,-0.02751 0.42954,0.06386c0.02404,0.09137 -0.12929,0.21091 -0.34248,0.267z" fill="#000000" stroke="#000000" stroke-linecap="butt"></path><path d="M257.57293,207.54966c-0.21319,0.0561 -0.4055,0.02751 -0.42954,-0.06386c-0.02404,-0.09137 0.12929,-0.21091 0.34248,-0.26701c0.21319,-0.0561 0.4055,-0.02751 0.42954,0.06386c0.02404,0.09137 -0.12929,0.21091 -0.34248,0.26701z" fill="#000000" stroke="#000000" stroke-linecap="butt"></path></g></g></g></svg>